G04 #@! TF.GenerationSoftware,KiCad,Pcbnew,(5.1.5)-3*
G04 #@! TF.CreationDate,2020-05-03T14:34:21+02:00*
G04 #@! TF.ProjectId,base_hat,62617365-5f68-4617-942e-6b696361645f,rev?*
G04 #@! TF.SameCoordinates,Original*
G04 #@! TF.FileFunction,Legend,Top*
G04 #@! TF.FilePolarity,Positive*
%FSLAX46Y46*%
G04 Gerber Fmt 4.6, Leading zero omitted, Abs format (unit mm)*
G04 Created by KiCad (PCBNEW (5.1.5)-3) date 2020-05-03 14:34:21*
%MOMM*%
%LPD*%
G04 APERTURE LIST*
%ADD10C,0.120000*%
%ADD11C,0.150000*%
G04 APERTURE END LIST*
D10*
X210100000Y-147520000D02*
X210100000Y-146190000D01*
X211430000Y-147520000D02*
X210100000Y-147520000D01*
X212700000Y-147520000D02*
X212700000Y-144860000D01*
X212700000Y-144860000D02*
X220380000Y-144860000D01*
X212700000Y-147520000D02*
X220380000Y-147520000D01*
X220380000Y-147520000D02*
X220380000Y-144860000D01*
X261880000Y-131520000D02*
X261880000Y-133520000D01*
X260880000Y-132520000D02*
X262880000Y-132520000D01*
X247530000Y-108170000D02*
X252030000Y-108170000D01*
X247530000Y-130870000D02*
X252030000Y-130870000D01*
X247530000Y-130870000D02*
X247530000Y-108170000D01*
X252030000Y-104970000D02*
X253580000Y-104970000D01*
X252030000Y-108170000D02*
X252030000Y-104970000D01*
X252030000Y-134070000D02*
X253580000Y-134070000D01*
X252030000Y-130870000D02*
X252030000Y-134070000D01*
X259730000Y-134070000D02*
X258180000Y-134070000D01*
X259730000Y-130870000D02*
X259730000Y-134070000D01*
X264230000Y-129070000D02*
X262430000Y-130870000D01*
X262430000Y-130870000D02*
X259730000Y-130870000D01*
X264230000Y-108170000D02*
X264230000Y-129070000D01*
X264230000Y-108170000D02*
X259730000Y-108170000D01*
X259730000Y-104970000D02*
X258180000Y-104970000D01*
X259730000Y-108170000D02*
X259730000Y-104970000D01*
D11*
X238690476Y-134752380D02*
X238690476Y-133752380D01*
X239023809Y-134466666D01*
X239357142Y-133752380D01*
X239357142Y-134752380D01*
X239833333Y-134752380D02*
X239833333Y-133752380D01*
X240404761Y-134752380D02*
X239976190Y-134180952D01*
X240404761Y-133752380D02*
X239833333Y-134323809D01*
X240976190Y-134180952D02*
X240880952Y-134133333D01*
X240833333Y-134085714D01*
X240785714Y-133990476D01*
X240785714Y-133942857D01*
X240833333Y-133847619D01*
X240880952Y-133800000D01*
X240976190Y-133752380D01*
X241166666Y-133752380D01*
X241261904Y-133800000D01*
X241309523Y-133847619D01*
X241357142Y-133942857D01*
X241357142Y-133990476D01*
X241309523Y-134085714D01*
X241261904Y-134133333D01*
X241166666Y-134180952D01*
X240976190Y-134180952D01*
X240880952Y-134228571D01*
X240833333Y-134276190D01*
X240785714Y-134371428D01*
X240785714Y-134561904D01*
X240833333Y-134657142D01*
X240880952Y-134704761D01*
X240976190Y-134752380D01*
X241166666Y-134752380D01*
X241261904Y-134704761D01*
X241309523Y-134657142D01*
X241357142Y-134561904D01*
X241357142Y-134371428D01*
X241309523Y-134276190D01*
X241261904Y-134228571D01*
X241166666Y-134180952D01*
X206690476Y-102752380D02*
X206690476Y-101752380D01*
X207023809Y-102466666D01*
X207357142Y-101752380D01*
X207357142Y-102752380D01*
X207833333Y-102752380D02*
X207833333Y-101752380D01*
X208404761Y-102752380D02*
X207976190Y-102180952D01*
X208404761Y-101752380D02*
X207833333Y-102323809D01*
X208738095Y-101752380D02*
X209404761Y-101752380D01*
X208976190Y-102752380D01*
X206690476Y-134752380D02*
X206690476Y-133752380D01*
X207023809Y-134466666D01*
X207357142Y-133752380D01*
X207357142Y-134752380D01*
X207833333Y-134752380D02*
X207833333Y-133752380D01*
X208404761Y-134752380D02*
X207976190Y-134180952D01*
X208404761Y-133752380D02*
X207833333Y-134323809D01*
X209261904Y-133752380D02*
X209071428Y-133752380D01*
X208976190Y-133800000D01*
X208928571Y-133847619D01*
X208833333Y-133990476D01*
X208785714Y-134180952D01*
X208785714Y-134561904D01*
X208833333Y-134657142D01*
X208880952Y-134704761D01*
X208976190Y-134752380D01*
X209166666Y-134752380D01*
X209261904Y-134704761D01*
X209309523Y-134657142D01*
X209357142Y-134561904D01*
X209357142Y-134323809D01*
X209309523Y-134228571D01*
X209261904Y-134180952D01*
X209166666Y-134133333D01*
X208976190Y-134133333D01*
X208880952Y-134180952D01*
X208833333Y-134228571D01*
X208785714Y-134323809D01*
X238690476Y-102752380D02*
X238690476Y-101752380D01*
X239023809Y-102466666D01*
X239357142Y-101752380D01*
X239357142Y-102752380D01*
X239833333Y-102752380D02*
X239833333Y-101752380D01*
X240404761Y-102752380D02*
X239976190Y-102180952D01*
X240404761Y-101752380D02*
X239833333Y-102323809D01*
X241309523Y-101752380D02*
X240833333Y-101752380D01*
X240785714Y-102228571D01*
X240833333Y-102180952D01*
X240928571Y-102133333D01*
X241166666Y-102133333D01*
X241261904Y-102180952D01*
X241309523Y-102228571D01*
X241357142Y-102323809D01*
X241357142Y-102561904D01*
X241309523Y-102657142D01*
X241261904Y-102704761D01*
X241166666Y-102752380D01*
X240928571Y-102752380D01*
X240833333Y-102704761D01*
X240785714Y-102657142D01*
X209552380Y-146999523D02*
X208552380Y-146999523D01*
X209266666Y-146666190D01*
X208552380Y-146332857D01*
X209552380Y-146332857D01*
X209552380Y-145332857D02*
X209552380Y-145904285D01*
X209552380Y-145618571D02*
X208552380Y-145618571D01*
X208695238Y-145713809D01*
X208790476Y-145809047D01*
X208838095Y-145904285D01*
X250508571Y-134430714D02*
X250556190Y-134287857D01*
X250603809Y-134240238D01*
X250699047Y-134192619D01*
X250841904Y-134192619D01*
X250937142Y-134240238D01*
X250984761Y-134287857D01*
X251032380Y-134383095D01*
X251032380Y-134764047D01*
X250032380Y-134764047D01*
X250032380Y-134430714D01*
X250080000Y-134335476D01*
X250127619Y-134287857D01*
X250222857Y-134240238D01*
X250318095Y-134240238D01*
X250413333Y-134287857D01*
X250460952Y-134335476D01*
X250508571Y-134430714D01*
X250508571Y-134764047D01*
X250032380Y-133906904D02*
X250032380Y-133335476D01*
X251032380Y-133621190D02*
X250032380Y-133621190D01*
X251032380Y-132478333D02*
X251032380Y-133049761D01*
X251032380Y-132764047D02*
X250032380Y-132764047D01*
X250175238Y-132859285D01*
X250270476Y-132954523D01*
X250318095Y-133049761D01*
X260190476Y-143252380D02*
X260190476Y-142252380D01*
X260523809Y-142966666D01*
X260857142Y-142252380D01*
X260857142Y-143252380D01*
X261333333Y-143252380D02*
X261333333Y-142252380D01*
X261904761Y-143252380D02*
X261476190Y-142680952D01*
X261904761Y-142252380D02*
X261333333Y-142823809D01*
X262761904Y-142585714D02*
X262761904Y-143252380D01*
X262523809Y-142204761D02*
X262285714Y-142919047D01*
X262904761Y-142919047D01*
X202190476Y-143252380D02*
X202190476Y-142252380D01*
X202523809Y-142966666D01*
X202857142Y-142252380D01*
X202857142Y-143252380D01*
X203333333Y-143252380D02*
X203333333Y-142252380D01*
X203904761Y-143252380D02*
X203476190Y-142680952D01*
X203904761Y-142252380D02*
X203333333Y-142823809D01*
X204238095Y-142252380D02*
X204857142Y-142252380D01*
X204523809Y-142633333D01*
X204666666Y-142633333D01*
X204761904Y-142680952D01*
X204809523Y-142728571D01*
X204857142Y-142823809D01*
X204857142Y-143061904D01*
X204809523Y-143157142D01*
X204761904Y-143204761D01*
X204666666Y-143252380D01*
X204380952Y-143252380D01*
X204285714Y-143204761D01*
X204238095Y-143157142D01*
X260190476Y-101652380D02*
X260190476Y-100652380D01*
X260523809Y-101366666D01*
X260857142Y-100652380D01*
X260857142Y-101652380D01*
X261333333Y-101652380D02*
X261333333Y-100652380D01*
X261904761Y-101652380D02*
X261476190Y-101080952D01*
X261904761Y-100652380D02*
X261333333Y-101223809D01*
X262285714Y-100747619D02*
X262333333Y-100700000D01*
X262428571Y-100652380D01*
X262666666Y-100652380D01*
X262761904Y-100700000D01*
X262809523Y-100747619D01*
X262857142Y-100842857D01*
X262857142Y-100938095D01*
X262809523Y-101080952D01*
X262238095Y-101652380D01*
X262857142Y-101652380D01*
X202190476Y-101652380D02*
X202190476Y-100652380D01*
X202523809Y-101366666D01*
X202857142Y-100652380D01*
X202857142Y-101652380D01*
X203333333Y-101652380D02*
X203333333Y-100652380D01*
X203904761Y-101652380D02*
X203476190Y-101080952D01*
X203904761Y-100652380D02*
X203333333Y-101223809D01*
X204857142Y-101652380D02*
X204285714Y-101652380D01*
X204571428Y-101652380D02*
X204571428Y-100652380D01*
X204476190Y-100795238D01*
X204380952Y-100890476D01*
X204285714Y-100938095D01*
M02*
