G04 #@! TF.GenerationSoftware,KiCad,Pcbnew,(5.1.5)-3*
G04 #@! TF.CreationDate,2020-05-03T14:34:21+02:00*
G04 #@! TF.ProjectId,base_hat,62617365-5f68-4617-942e-6b696361645f,rev?*
G04 #@! TF.SameCoordinates,Original*
G04 #@! TF.FileFunction,Soldermask,Bot*
G04 #@! TF.FilePolarity,Negative*
%FSLAX46Y46*%
G04 Gerber Fmt 4.6, Leading zero omitted, Abs format (unit mm)*
G04 Created by KiCad (PCBNEW (5.1.5)-3) date 2020-05-03 14:34:21*
%MOMM*%
%LPD*%
G04 APERTURE LIST*
%ADD10C,3.200000*%
%ADD11O,1.700000X1.700000*%
%ADD12R,1.700000X1.700000*%
%ADD13C,0.150000*%
%ADD14C,2.700000*%
G04 APERTURE END LIST*
D10*
X240000000Y-138000000D03*
X208000000Y-106000000D03*
X208000000Y-138000000D03*
X240000000Y-106000000D03*
D11*
X219050000Y-146190000D03*
X216510000Y-146190000D03*
X213970000Y-146190000D03*
D12*
X211430000Y-146190000D03*
D13*
G36*
X252259703Y-119500722D02*
G01*
X252274264Y-119502882D01*
X252288543Y-119506459D01*
X252302403Y-119511418D01*
X252315710Y-119517712D01*
X252328336Y-119525280D01*
X252340159Y-119534048D01*
X252351066Y-119543934D01*
X252360952Y-119554841D01*
X252369720Y-119566664D01*
X252377288Y-119579290D01*
X252383582Y-119592597D01*
X252388541Y-119606457D01*
X252392118Y-119620736D01*
X252394278Y-119635297D01*
X252395000Y-119650000D01*
X252395000Y-121300000D01*
X252394278Y-121314703D01*
X252392118Y-121329264D01*
X252388541Y-121343543D01*
X252383582Y-121357403D01*
X252377288Y-121370710D01*
X252369720Y-121383336D01*
X252360952Y-121395159D01*
X252351066Y-121406066D01*
X252340159Y-121415952D01*
X252328336Y-121424720D01*
X252315710Y-121432288D01*
X252302403Y-121438582D01*
X252288543Y-121443541D01*
X252274264Y-121447118D01*
X252259703Y-121449278D01*
X252245000Y-121450000D01*
X251945000Y-121450000D01*
X251930297Y-121449278D01*
X251915736Y-121447118D01*
X251901457Y-121443541D01*
X251887597Y-121438582D01*
X251874290Y-121432288D01*
X251861664Y-121424720D01*
X251849841Y-121415952D01*
X251838934Y-121406066D01*
X251829048Y-121395159D01*
X251820280Y-121383336D01*
X251812712Y-121370710D01*
X251806418Y-121357403D01*
X251801459Y-121343543D01*
X251797882Y-121329264D01*
X251795722Y-121314703D01*
X251795000Y-121300000D01*
X251795000Y-119650000D01*
X251795722Y-119635297D01*
X251797882Y-119620736D01*
X251801459Y-119606457D01*
X251806418Y-119592597D01*
X251812712Y-119579290D01*
X251820280Y-119566664D01*
X251829048Y-119554841D01*
X251838934Y-119543934D01*
X251849841Y-119534048D01*
X251861664Y-119525280D01*
X251874290Y-119517712D01*
X251887597Y-119511418D01*
X251901457Y-119506459D01*
X251915736Y-119502882D01*
X251930297Y-119500722D01*
X251945000Y-119500000D01*
X252245000Y-119500000D01*
X252259703Y-119500722D01*
G37*
G36*
X253529703Y-119500722D02*
G01*
X253544264Y-119502882D01*
X253558543Y-119506459D01*
X253572403Y-119511418D01*
X253585710Y-119517712D01*
X253598336Y-119525280D01*
X253610159Y-119534048D01*
X253621066Y-119543934D01*
X253630952Y-119554841D01*
X253639720Y-119566664D01*
X253647288Y-119579290D01*
X253653582Y-119592597D01*
X253658541Y-119606457D01*
X253662118Y-119620736D01*
X253664278Y-119635297D01*
X253665000Y-119650000D01*
X253665000Y-121300000D01*
X253664278Y-121314703D01*
X253662118Y-121329264D01*
X253658541Y-121343543D01*
X253653582Y-121357403D01*
X253647288Y-121370710D01*
X253639720Y-121383336D01*
X253630952Y-121395159D01*
X253621066Y-121406066D01*
X253610159Y-121415952D01*
X253598336Y-121424720D01*
X253585710Y-121432288D01*
X253572403Y-121438582D01*
X253558543Y-121443541D01*
X253544264Y-121447118D01*
X253529703Y-121449278D01*
X253515000Y-121450000D01*
X253215000Y-121450000D01*
X253200297Y-121449278D01*
X253185736Y-121447118D01*
X253171457Y-121443541D01*
X253157597Y-121438582D01*
X253144290Y-121432288D01*
X253131664Y-121424720D01*
X253119841Y-121415952D01*
X253108934Y-121406066D01*
X253099048Y-121395159D01*
X253090280Y-121383336D01*
X253082712Y-121370710D01*
X253076418Y-121357403D01*
X253071459Y-121343543D01*
X253067882Y-121329264D01*
X253065722Y-121314703D01*
X253065000Y-121300000D01*
X253065000Y-119650000D01*
X253065722Y-119635297D01*
X253067882Y-119620736D01*
X253071459Y-119606457D01*
X253076418Y-119592597D01*
X253082712Y-119579290D01*
X253090280Y-119566664D01*
X253099048Y-119554841D01*
X253108934Y-119543934D01*
X253119841Y-119534048D01*
X253131664Y-119525280D01*
X253144290Y-119517712D01*
X253157597Y-119511418D01*
X253171457Y-119506459D01*
X253185736Y-119502882D01*
X253200297Y-119500722D01*
X253215000Y-119500000D01*
X253515000Y-119500000D01*
X253529703Y-119500722D01*
G37*
G36*
X254799703Y-119500722D02*
G01*
X254814264Y-119502882D01*
X254828543Y-119506459D01*
X254842403Y-119511418D01*
X254855710Y-119517712D01*
X254868336Y-119525280D01*
X254880159Y-119534048D01*
X254891066Y-119543934D01*
X254900952Y-119554841D01*
X254909720Y-119566664D01*
X254917288Y-119579290D01*
X254923582Y-119592597D01*
X254928541Y-119606457D01*
X254932118Y-119620736D01*
X254934278Y-119635297D01*
X254935000Y-119650000D01*
X254935000Y-121300000D01*
X254934278Y-121314703D01*
X254932118Y-121329264D01*
X254928541Y-121343543D01*
X254923582Y-121357403D01*
X254917288Y-121370710D01*
X254909720Y-121383336D01*
X254900952Y-121395159D01*
X254891066Y-121406066D01*
X254880159Y-121415952D01*
X254868336Y-121424720D01*
X254855710Y-121432288D01*
X254842403Y-121438582D01*
X254828543Y-121443541D01*
X254814264Y-121447118D01*
X254799703Y-121449278D01*
X254785000Y-121450000D01*
X254485000Y-121450000D01*
X254470297Y-121449278D01*
X254455736Y-121447118D01*
X254441457Y-121443541D01*
X254427597Y-121438582D01*
X254414290Y-121432288D01*
X254401664Y-121424720D01*
X254389841Y-121415952D01*
X254378934Y-121406066D01*
X254369048Y-121395159D01*
X254360280Y-121383336D01*
X254352712Y-121370710D01*
X254346418Y-121357403D01*
X254341459Y-121343543D01*
X254337882Y-121329264D01*
X254335722Y-121314703D01*
X254335000Y-121300000D01*
X254335000Y-119650000D01*
X254335722Y-119635297D01*
X254337882Y-119620736D01*
X254341459Y-119606457D01*
X254346418Y-119592597D01*
X254352712Y-119579290D01*
X254360280Y-119566664D01*
X254369048Y-119554841D01*
X254378934Y-119543934D01*
X254389841Y-119534048D01*
X254401664Y-119525280D01*
X254414290Y-119517712D01*
X254427597Y-119511418D01*
X254441457Y-119506459D01*
X254455736Y-119502882D01*
X254470297Y-119500722D01*
X254485000Y-119500000D01*
X254785000Y-119500000D01*
X254799703Y-119500722D01*
G37*
G36*
X256069703Y-119500722D02*
G01*
X256084264Y-119502882D01*
X256098543Y-119506459D01*
X256112403Y-119511418D01*
X256125710Y-119517712D01*
X256138336Y-119525280D01*
X256150159Y-119534048D01*
X256161066Y-119543934D01*
X256170952Y-119554841D01*
X256179720Y-119566664D01*
X256187288Y-119579290D01*
X256193582Y-119592597D01*
X256198541Y-119606457D01*
X256202118Y-119620736D01*
X256204278Y-119635297D01*
X256205000Y-119650000D01*
X256205000Y-121300000D01*
X256204278Y-121314703D01*
X256202118Y-121329264D01*
X256198541Y-121343543D01*
X256193582Y-121357403D01*
X256187288Y-121370710D01*
X256179720Y-121383336D01*
X256170952Y-121395159D01*
X256161066Y-121406066D01*
X256150159Y-121415952D01*
X256138336Y-121424720D01*
X256125710Y-121432288D01*
X256112403Y-121438582D01*
X256098543Y-121443541D01*
X256084264Y-121447118D01*
X256069703Y-121449278D01*
X256055000Y-121450000D01*
X255755000Y-121450000D01*
X255740297Y-121449278D01*
X255725736Y-121447118D01*
X255711457Y-121443541D01*
X255697597Y-121438582D01*
X255684290Y-121432288D01*
X255671664Y-121424720D01*
X255659841Y-121415952D01*
X255648934Y-121406066D01*
X255639048Y-121395159D01*
X255630280Y-121383336D01*
X255622712Y-121370710D01*
X255616418Y-121357403D01*
X255611459Y-121343543D01*
X255607882Y-121329264D01*
X255605722Y-121314703D01*
X255605000Y-121300000D01*
X255605000Y-119650000D01*
X255605722Y-119635297D01*
X255607882Y-119620736D01*
X255611459Y-119606457D01*
X255616418Y-119592597D01*
X255622712Y-119579290D01*
X255630280Y-119566664D01*
X255639048Y-119554841D01*
X255648934Y-119543934D01*
X255659841Y-119534048D01*
X255671664Y-119525280D01*
X255684290Y-119517712D01*
X255697597Y-119511418D01*
X255711457Y-119506459D01*
X255725736Y-119502882D01*
X255740297Y-119500722D01*
X255755000Y-119500000D01*
X256055000Y-119500000D01*
X256069703Y-119500722D01*
G37*
G36*
X256069703Y-114550722D02*
G01*
X256084264Y-114552882D01*
X256098543Y-114556459D01*
X256112403Y-114561418D01*
X256125710Y-114567712D01*
X256138336Y-114575280D01*
X256150159Y-114584048D01*
X256161066Y-114593934D01*
X256170952Y-114604841D01*
X256179720Y-114616664D01*
X256187288Y-114629290D01*
X256193582Y-114642597D01*
X256198541Y-114656457D01*
X256202118Y-114670736D01*
X256204278Y-114685297D01*
X256205000Y-114700000D01*
X256205000Y-116350000D01*
X256204278Y-116364703D01*
X256202118Y-116379264D01*
X256198541Y-116393543D01*
X256193582Y-116407403D01*
X256187288Y-116420710D01*
X256179720Y-116433336D01*
X256170952Y-116445159D01*
X256161066Y-116456066D01*
X256150159Y-116465952D01*
X256138336Y-116474720D01*
X256125710Y-116482288D01*
X256112403Y-116488582D01*
X256098543Y-116493541D01*
X256084264Y-116497118D01*
X256069703Y-116499278D01*
X256055000Y-116500000D01*
X255755000Y-116500000D01*
X255740297Y-116499278D01*
X255725736Y-116497118D01*
X255711457Y-116493541D01*
X255697597Y-116488582D01*
X255684290Y-116482288D01*
X255671664Y-116474720D01*
X255659841Y-116465952D01*
X255648934Y-116456066D01*
X255639048Y-116445159D01*
X255630280Y-116433336D01*
X255622712Y-116420710D01*
X255616418Y-116407403D01*
X255611459Y-116393543D01*
X255607882Y-116379264D01*
X255605722Y-116364703D01*
X255605000Y-116350000D01*
X255605000Y-114700000D01*
X255605722Y-114685297D01*
X255607882Y-114670736D01*
X255611459Y-114656457D01*
X255616418Y-114642597D01*
X255622712Y-114629290D01*
X255630280Y-114616664D01*
X255639048Y-114604841D01*
X255648934Y-114593934D01*
X255659841Y-114584048D01*
X255671664Y-114575280D01*
X255684290Y-114567712D01*
X255697597Y-114561418D01*
X255711457Y-114556459D01*
X255725736Y-114552882D01*
X255740297Y-114550722D01*
X255755000Y-114550000D01*
X256055000Y-114550000D01*
X256069703Y-114550722D01*
G37*
G36*
X254799703Y-114550722D02*
G01*
X254814264Y-114552882D01*
X254828543Y-114556459D01*
X254842403Y-114561418D01*
X254855710Y-114567712D01*
X254868336Y-114575280D01*
X254880159Y-114584048D01*
X254891066Y-114593934D01*
X254900952Y-114604841D01*
X254909720Y-114616664D01*
X254917288Y-114629290D01*
X254923582Y-114642597D01*
X254928541Y-114656457D01*
X254932118Y-114670736D01*
X254934278Y-114685297D01*
X254935000Y-114700000D01*
X254935000Y-116350000D01*
X254934278Y-116364703D01*
X254932118Y-116379264D01*
X254928541Y-116393543D01*
X254923582Y-116407403D01*
X254917288Y-116420710D01*
X254909720Y-116433336D01*
X254900952Y-116445159D01*
X254891066Y-116456066D01*
X254880159Y-116465952D01*
X254868336Y-116474720D01*
X254855710Y-116482288D01*
X254842403Y-116488582D01*
X254828543Y-116493541D01*
X254814264Y-116497118D01*
X254799703Y-116499278D01*
X254785000Y-116500000D01*
X254485000Y-116500000D01*
X254470297Y-116499278D01*
X254455736Y-116497118D01*
X254441457Y-116493541D01*
X254427597Y-116488582D01*
X254414290Y-116482288D01*
X254401664Y-116474720D01*
X254389841Y-116465952D01*
X254378934Y-116456066D01*
X254369048Y-116445159D01*
X254360280Y-116433336D01*
X254352712Y-116420710D01*
X254346418Y-116407403D01*
X254341459Y-116393543D01*
X254337882Y-116379264D01*
X254335722Y-116364703D01*
X254335000Y-116350000D01*
X254335000Y-114700000D01*
X254335722Y-114685297D01*
X254337882Y-114670736D01*
X254341459Y-114656457D01*
X254346418Y-114642597D01*
X254352712Y-114629290D01*
X254360280Y-114616664D01*
X254369048Y-114604841D01*
X254378934Y-114593934D01*
X254389841Y-114584048D01*
X254401664Y-114575280D01*
X254414290Y-114567712D01*
X254427597Y-114561418D01*
X254441457Y-114556459D01*
X254455736Y-114552882D01*
X254470297Y-114550722D01*
X254485000Y-114550000D01*
X254785000Y-114550000D01*
X254799703Y-114550722D01*
G37*
G36*
X253529703Y-114550722D02*
G01*
X253544264Y-114552882D01*
X253558543Y-114556459D01*
X253572403Y-114561418D01*
X253585710Y-114567712D01*
X253598336Y-114575280D01*
X253610159Y-114584048D01*
X253621066Y-114593934D01*
X253630952Y-114604841D01*
X253639720Y-114616664D01*
X253647288Y-114629290D01*
X253653582Y-114642597D01*
X253658541Y-114656457D01*
X253662118Y-114670736D01*
X253664278Y-114685297D01*
X253665000Y-114700000D01*
X253665000Y-116350000D01*
X253664278Y-116364703D01*
X253662118Y-116379264D01*
X253658541Y-116393543D01*
X253653582Y-116407403D01*
X253647288Y-116420710D01*
X253639720Y-116433336D01*
X253630952Y-116445159D01*
X253621066Y-116456066D01*
X253610159Y-116465952D01*
X253598336Y-116474720D01*
X253585710Y-116482288D01*
X253572403Y-116488582D01*
X253558543Y-116493541D01*
X253544264Y-116497118D01*
X253529703Y-116499278D01*
X253515000Y-116500000D01*
X253215000Y-116500000D01*
X253200297Y-116499278D01*
X253185736Y-116497118D01*
X253171457Y-116493541D01*
X253157597Y-116488582D01*
X253144290Y-116482288D01*
X253131664Y-116474720D01*
X253119841Y-116465952D01*
X253108934Y-116456066D01*
X253099048Y-116445159D01*
X253090280Y-116433336D01*
X253082712Y-116420710D01*
X253076418Y-116407403D01*
X253071459Y-116393543D01*
X253067882Y-116379264D01*
X253065722Y-116364703D01*
X253065000Y-116350000D01*
X253065000Y-114700000D01*
X253065722Y-114685297D01*
X253067882Y-114670736D01*
X253071459Y-114656457D01*
X253076418Y-114642597D01*
X253082712Y-114629290D01*
X253090280Y-114616664D01*
X253099048Y-114604841D01*
X253108934Y-114593934D01*
X253119841Y-114584048D01*
X253131664Y-114575280D01*
X253144290Y-114567712D01*
X253157597Y-114561418D01*
X253171457Y-114556459D01*
X253185736Y-114552882D01*
X253200297Y-114550722D01*
X253215000Y-114550000D01*
X253515000Y-114550000D01*
X253529703Y-114550722D01*
G37*
G36*
X252259703Y-114550722D02*
G01*
X252274264Y-114552882D01*
X252288543Y-114556459D01*
X252302403Y-114561418D01*
X252315710Y-114567712D01*
X252328336Y-114575280D01*
X252340159Y-114584048D01*
X252351066Y-114593934D01*
X252360952Y-114604841D01*
X252369720Y-114616664D01*
X252377288Y-114629290D01*
X252383582Y-114642597D01*
X252388541Y-114656457D01*
X252392118Y-114670736D01*
X252394278Y-114685297D01*
X252395000Y-114700000D01*
X252395000Y-116350000D01*
X252394278Y-116364703D01*
X252392118Y-116379264D01*
X252388541Y-116393543D01*
X252383582Y-116407403D01*
X252377288Y-116420710D01*
X252369720Y-116433336D01*
X252360952Y-116445159D01*
X252351066Y-116456066D01*
X252340159Y-116465952D01*
X252328336Y-116474720D01*
X252315710Y-116482288D01*
X252302403Y-116488582D01*
X252288543Y-116493541D01*
X252274264Y-116497118D01*
X252259703Y-116499278D01*
X252245000Y-116500000D01*
X251945000Y-116500000D01*
X251930297Y-116499278D01*
X251915736Y-116497118D01*
X251901457Y-116493541D01*
X251887597Y-116488582D01*
X251874290Y-116482288D01*
X251861664Y-116474720D01*
X251849841Y-116465952D01*
X251838934Y-116456066D01*
X251829048Y-116445159D01*
X251820280Y-116433336D01*
X251812712Y-116420710D01*
X251806418Y-116407403D01*
X251801459Y-116393543D01*
X251797882Y-116379264D01*
X251795722Y-116364703D01*
X251795000Y-116350000D01*
X251795000Y-114700000D01*
X251795722Y-114685297D01*
X251797882Y-114670736D01*
X251801459Y-114656457D01*
X251806418Y-114642597D01*
X251812712Y-114629290D01*
X251820280Y-114616664D01*
X251829048Y-114604841D01*
X251838934Y-114593934D01*
X251849841Y-114584048D01*
X251861664Y-114575280D01*
X251874290Y-114567712D01*
X251887597Y-114561418D01*
X251901457Y-114556459D01*
X251915736Y-114552882D01*
X251930297Y-114550722D01*
X251945000Y-114550000D01*
X252245000Y-114550000D01*
X252259703Y-114550722D01*
G37*
G36*
X251480142Y-123638674D02*
G01*
X251503803Y-123642184D01*
X251527007Y-123647996D01*
X251549529Y-123656054D01*
X251571153Y-123666282D01*
X251591670Y-123678579D01*
X251610883Y-123692829D01*
X251628607Y-123708893D01*
X251644671Y-123726617D01*
X251658921Y-123745830D01*
X251671218Y-123766347D01*
X251681446Y-123787971D01*
X251689504Y-123810493D01*
X251695316Y-123833697D01*
X251698826Y-123857358D01*
X251700000Y-123881250D01*
X251700000Y-124368750D01*
X251698826Y-124392642D01*
X251695316Y-124416303D01*
X251689504Y-124439507D01*
X251681446Y-124462029D01*
X251671218Y-124483653D01*
X251658921Y-124504170D01*
X251644671Y-124523383D01*
X251628607Y-124541107D01*
X251610883Y-124557171D01*
X251591670Y-124571421D01*
X251571153Y-124583718D01*
X251549529Y-124593946D01*
X251527007Y-124602004D01*
X251503803Y-124607816D01*
X251480142Y-124611326D01*
X251456250Y-124612500D01*
X250543750Y-124612500D01*
X250519858Y-124611326D01*
X250496197Y-124607816D01*
X250472993Y-124602004D01*
X250450471Y-124593946D01*
X250428847Y-124583718D01*
X250408330Y-124571421D01*
X250389117Y-124557171D01*
X250371393Y-124541107D01*
X250355329Y-124523383D01*
X250341079Y-124504170D01*
X250328782Y-124483653D01*
X250318554Y-124462029D01*
X250310496Y-124439507D01*
X250304684Y-124416303D01*
X250301174Y-124392642D01*
X250300000Y-124368750D01*
X250300000Y-123881250D01*
X250301174Y-123857358D01*
X250304684Y-123833697D01*
X250310496Y-123810493D01*
X250318554Y-123787971D01*
X250328782Y-123766347D01*
X250341079Y-123745830D01*
X250355329Y-123726617D01*
X250371393Y-123708893D01*
X250389117Y-123692829D01*
X250408330Y-123678579D01*
X250428847Y-123666282D01*
X250450471Y-123656054D01*
X250472993Y-123647996D01*
X250496197Y-123642184D01*
X250519858Y-123638674D01*
X250543750Y-123637500D01*
X251456250Y-123637500D01*
X251480142Y-123638674D01*
G37*
G36*
X251480142Y-125513674D02*
G01*
X251503803Y-125517184D01*
X251527007Y-125522996D01*
X251549529Y-125531054D01*
X251571153Y-125541282D01*
X251591670Y-125553579D01*
X251610883Y-125567829D01*
X251628607Y-125583893D01*
X251644671Y-125601617D01*
X251658921Y-125620830D01*
X251671218Y-125641347D01*
X251681446Y-125662971D01*
X251689504Y-125685493D01*
X251695316Y-125708697D01*
X251698826Y-125732358D01*
X251700000Y-125756250D01*
X251700000Y-126243750D01*
X251698826Y-126267642D01*
X251695316Y-126291303D01*
X251689504Y-126314507D01*
X251681446Y-126337029D01*
X251671218Y-126358653D01*
X251658921Y-126379170D01*
X251644671Y-126398383D01*
X251628607Y-126416107D01*
X251610883Y-126432171D01*
X251591670Y-126446421D01*
X251571153Y-126458718D01*
X251549529Y-126468946D01*
X251527007Y-126477004D01*
X251503803Y-126482816D01*
X251480142Y-126486326D01*
X251456250Y-126487500D01*
X250543750Y-126487500D01*
X250519858Y-126486326D01*
X250496197Y-126482816D01*
X250472993Y-126477004D01*
X250450471Y-126468946D01*
X250428847Y-126458718D01*
X250408330Y-126446421D01*
X250389117Y-126432171D01*
X250371393Y-126416107D01*
X250355329Y-126398383D01*
X250341079Y-126379170D01*
X250328782Y-126358653D01*
X250318554Y-126337029D01*
X250310496Y-126314507D01*
X250304684Y-126291303D01*
X250301174Y-126267642D01*
X250300000Y-126243750D01*
X250300000Y-125756250D01*
X250301174Y-125732358D01*
X250304684Y-125708697D01*
X250310496Y-125685493D01*
X250318554Y-125662971D01*
X250328782Y-125641347D01*
X250341079Y-125620830D01*
X250355329Y-125601617D01*
X250371393Y-125583893D01*
X250389117Y-125567829D01*
X250408330Y-125553579D01*
X250428847Y-125541282D01*
X250450471Y-125531054D01*
X250472993Y-125522996D01*
X250496197Y-125517184D01*
X250519858Y-125513674D01*
X250543750Y-125512500D01*
X251456250Y-125512500D01*
X251480142Y-125513674D01*
G37*
G36*
X254480142Y-123576174D02*
G01*
X254503803Y-123579684D01*
X254527007Y-123585496D01*
X254549529Y-123593554D01*
X254571153Y-123603782D01*
X254591670Y-123616079D01*
X254610883Y-123630329D01*
X254628607Y-123646393D01*
X254644671Y-123664117D01*
X254658921Y-123683330D01*
X254671218Y-123703847D01*
X254681446Y-123725471D01*
X254689504Y-123747993D01*
X254695316Y-123771197D01*
X254698826Y-123794858D01*
X254700000Y-123818750D01*
X254700000Y-124306250D01*
X254698826Y-124330142D01*
X254695316Y-124353803D01*
X254689504Y-124377007D01*
X254681446Y-124399529D01*
X254671218Y-124421153D01*
X254658921Y-124441670D01*
X254644671Y-124460883D01*
X254628607Y-124478607D01*
X254610883Y-124494671D01*
X254591670Y-124508921D01*
X254571153Y-124521218D01*
X254549529Y-124531446D01*
X254527007Y-124539504D01*
X254503803Y-124545316D01*
X254480142Y-124548826D01*
X254456250Y-124550000D01*
X253543750Y-124550000D01*
X253519858Y-124548826D01*
X253496197Y-124545316D01*
X253472993Y-124539504D01*
X253450471Y-124531446D01*
X253428847Y-124521218D01*
X253408330Y-124508921D01*
X253389117Y-124494671D01*
X253371393Y-124478607D01*
X253355329Y-124460883D01*
X253341079Y-124441670D01*
X253328782Y-124421153D01*
X253318554Y-124399529D01*
X253310496Y-124377007D01*
X253304684Y-124353803D01*
X253301174Y-124330142D01*
X253300000Y-124306250D01*
X253300000Y-123818750D01*
X253301174Y-123794858D01*
X253304684Y-123771197D01*
X253310496Y-123747993D01*
X253318554Y-123725471D01*
X253328782Y-123703847D01*
X253341079Y-123683330D01*
X253355329Y-123664117D01*
X253371393Y-123646393D01*
X253389117Y-123630329D01*
X253408330Y-123616079D01*
X253428847Y-123603782D01*
X253450471Y-123593554D01*
X253472993Y-123585496D01*
X253496197Y-123579684D01*
X253519858Y-123576174D01*
X253543750Y-123575000D01*
X254456250Y-123575000D01*
X254480142Y-123576174D01*
G37*
G36*
X254480142Y-125451174D02*
G01*
X254503803Y-125454684D01*
X254527007Y-125460496D01*
X254549529Y-125468554D01*
X254571153Y-125478782D01*
X254591670Y-125491079D01*
X254610883Y-125505329D01*
X254628607Y-125521393D01*
X254644671Y-125539117D01*
X254658921Y-125558330D01*
X254671218Y-125578847D01*
X254681446Y-125600471D01*
X254689504Y-125622993D01*
X254695316Y-125646197D01*
X254698826Y-125669858D01*
X254700000Y-125693750D01*
X254700000Y-126181250D01*
X254698826Y-126205142D01*
X254695316Y-126228803D01*
X254689504Y-126252007D01*
X254681446Y-126274529D01*
X254671218Y-126296153D01*
X254658921Y-126316670D01*
X254644671Y-126335883D01*
X254628607Y-126353607D01*
X254610883Y-126369671D01*
X254591670Y-126383921D01*
X254571153Y-126396218D01*
X254549529Y-126406446D01*
X254527007Y-126414504D01*
X254503803Y-126420316D01*
X254480142Y-126423826D01*
X254456250Y-126425000D01*
X253543750Y-126425000D01*
X253519858Y-126423826D01*
X253496197Y-126420316D01*
X253472993Y-126414504D01*
X253450471Y-126406446D01*
X253428847Y-126396218D01*
X253408330Y-126383921D01*
X253389117Y-126369671D01*
X253371393Y-126353607D01*
X253355329Y-126335883D01*
X253341079Y-126316670D01*
X253328782Y-126296153D01*
X253318554Y-126274529D01*
X253310496Y-126252007D01*
X253304684Y-126228803D01*
X253301174Y-126205142D01*
X253300000Y-126181250D01*
X253300000Y-125693750D01*
X253301174Y-125669858D01*
X253304684Y-125646197D01*
X253310496Y-125622993D01*
X253318554Y-125600471D01*
X253328782Y-125578847D01*
X253341079Y-125558330D01*
X253355329Y-125539117D01*
X253371393Y-125521393D01*
X253389117Y-125505329D01*
X253408330Y-125491079D01*
X253428847Y-125478782D01*
X253450471Y-125468554D01*
X253472993Y-125460496D01*
X253496197Y-125454684D01*
X253519858Y-125451174D01*
X253543750Y-125450000D01*
X254456250Y-125450000D01*
X254480142Y-125451174D01*
G37*
G36*
X253480142Y-112451174D02*
G01*
X253503803Y-112454684D01*
X253527007Y-112460496D01*
X253549529Y-112468554D01*
X253571153Y-112478782D01*
X253591670Y-112491079D01*
X253610883Y-112505329D01*
X253628607Y-112521393D01*
X253644671Y-112539117D01*
X253658921Y-112558330D01*
X253671218Y-112578847D01*
X253681446Y-112600471D01*
X253689504Y-112622993D01*
X253695316Y-112646197D01*
X253698826Y-112669858D01*
X253700000Y-112693750D01*
X253700000Y-113181250D01*
X253698826Y-113205142D01*
X253695316Y-113228803D01*
X253689504Y-113252007D01*
X253681446Y-113274529D01*
X253671218Y-113296153D01*
X253658921Y-113316670D01*
X253644671Y-113335883D01*
X253628607Y-113353607D01*
X253610883Y-113369671D01*
X253591670Y-113383921D01*
X253571153Y-113396218D01*
X253549529Y-113406446D01*
X253527007Y-113414504D01*
X253503803Y-113420316D01*
X253480142Y-113423826D01*
X253456250Y-113425000D01*
X252543750Y-113425000D01*
X252519858Y-113423826D01*
X252496197Y-113420316D01*
X252472993Y-113414504D01*
X252450471Y-113406446D01*
X252428847Y-113396218D01*
X252408330Y-113383921D01*
X252389117Y-113369671D01*
X252371393Y-113353607D01*
X252355329Y-113335883D01*
X252341079Y-113316670D01*
X252328782Y-113296153D01*
X252318554Y-113274529D01*
X252310496Y-113252007D01*
X252304684Y-113228803D01*
X252301174Y-113205142D01*
X252300000Y-113181250D01*
X252300000Y-112693750D01*
X252301174Y-112669858D01*
X252304684Y-112646197D01*
X252310496Y-112622993D01*
X252318554Y-112600471D01*
X252328782Y-112578847D01*
X252341079Y-112558330D01*
X252355329Y-112539117D01*
X252371393Y-112521393D01*
X252389117Y-112505329D01*
X252408330Y-112491079D01*
X252428847Y-112478782D01*
X252450471Y-112468554D01*
X252472993Y-112460496D01*
X252496197Y-112454684D01*
X252519858Y-112451174D01*
X252543750Y-112450000D01*
X253456250Y-112450000D01*
X253480142Y-112451174D01*
G37*
G36*
X253480142Y-110576174D02*
G01*
X253503803Y-110579684D01*
X253527007Y-110585496D01*
X253549529Y-110593554D01*
X253571153Y-110603782D01*
X253591670Y-110616079D01*
X253610883Y-110630329D01*
X253628607Y-110646393D01*
X253644671Y-110664117D01*
X253658921Y-110683330D01*
X253671218Y-110703847D01*
X253681446Y-110725471D01*
X253689504Y-110747993D01*
X253695316Y-110771197D01*
X253698826Y-110794858D01*
X253700000Y-110818750D01*
X253700000Y-111306250D01*
X253698826Y-111330142D01*
X253695316Y-111353803D01*
X253689504Y-111377007D01*
X253681446Y-111399529D01*
X253671218Y-111421153D01*
X253658921Y-111441670D01*
X253644671Y-111460883D01*
X253628607Y-111478607D01*
X253610883Y-111494671D01*
X253591670Y-111508921D01*
X253571153Y-111521218D01*
X253549529Y-111531446D01*
X253527007Y-111539504D01*
X253503803Y-111545316D01*
X253480142Y-111548826D01*
X253456250Y-111550000D01*
X252543750Y-111550000D01*
X252519858Y-111548826D01*
X252496197Y-111545316D01*
X252472993Y-111539504D01*
X252450471Y-111531446D01*
X252428847Y-111521218D01*
X252408330Y-111508921D01*
X252389117Y-111494671D01*
X252371393Y-111478607D01*
X252355329Y-111460883D01*
X252341079Y-111441670D01*
X252328782Y-111421153D01*
X252318554Y-111399529D01*
X252310496Y-111377007D01*
X252304684Y-111353803D01*
X252301174Y-111330142D01*
X252300000Y-111306250D01*
X252300000Y-110818750D01*
X252301174Y-110794858D01*
X252304684Y-110771197D01*
X252310496Y-110747993D01*
X252318554Y-110725471D01*
X252328782Y-110703847D01*
X252341079Y-110683330D01*
X252355329Y-110664117D01*
X252371393Y-110646393D01*
X252389117Y-110630329D01*
X252408330Y-110616079D01*
X252428847Y-110603782D01*
X252450471Y-110593554D01*
X252472993Y-110585496D01*
X252496197Y-110579684D01*
X252519858Y-110576174D01*
X252543750Y-110575000D01*
X253456250Y-110575000D01*
X253480142Y-110576174D01*
G37*
D12*
X208370000Y-98770000D03*
D11*
X208370000Y-96230000D03*
X210910000Y-98770000D03*
X210910000Y-96230000D03*
X213450000Y-98770000D03*
X213450000Y-96230000D03*
X215990000Y-98770000D03*
X215990000Y-96230000D03*
X218530000Y-98770000D03*
X218530000Y-96230000D03*
X221070000Y-98770000D03*
X221070000Y-96230000D03*
X223610000Y-98770000D03*
X223610000Y-96230000D03*
X226150000Y-98770000D03*
X226150000Y-96230000D03*
X228690000Y-98770000D03*
X228690000Y-96230000D03*
X231230000Y-98770000D03*
X231230000Y-96230000D03*
X233770000Y-98770000D03*
X233770000Y-96230000D03*
X236310000Y-98770000D03*
X236310000Y-96230000D03*
X238850000Y-98770000D03*
X238850000Y-96230000D03*
X241390000Y-98770000D03*
X241390000Y-96230000D03*
X243930000Y-98770000D03*
X243930000Y-96230000D03*
X246470000Y-98770000D03*
X246470000Y-96230000D03*
X249010000Y-98770000D03*
X249010000Y-96230000D03*
X251550000Y-98770000D03*
X251550000Y-96230000D03*
X254090000Y-98770000D03*
X254090000Y-96230000D03*
X256630000Y-98770000D03*
X256630000Y-96230000D03*
D14*
X261500000Y-146500000D03*
X203500000Y-146500000D03*
X261500000Y-97500000D03*
X203500000Y-97500000D03*
M02*
