G04 #@! TF.GenerationSoftware,KiCad,Pcbnew,(5.1.5)-3*
G04 #@! TF.CreationDate,2020-05-03T14:34:21+02:00*
G04 #@! TF.ProjectId,base_hat,62617365-5f68-4617-942e-6b696361645f,rev?*
G04 #@! TF.SameCoordinates,Original*
G04 #@! TF.FileFunction,Profile,NP*
%FSLAX46Y46*%
G04 Gerber Fmt 4.6, Leading zero omitted, Abs format (unit mm)*
G04 Created by KiCad (PCBNEW (5.1.5)-3) date 2020-05-03 14:34:21*
%MOMM*%
%LPD*%
G04 APERTURE LIST*
%ADD10C,0.100000*%
%ADD11C,0.150000*%
G04 APERTURE END LIST*
D10*
X202798699Y-113999327D02*
G75*
G03X202298700Y-113500200I-499999J-873D01*
G01*
X202296171Y-130502960D02*
G75*
G03X202794000Y-130002965I-2171J499995D01*
G01*
X200500000Y-113500000D02*
X202298700Y-113500200D01*
X202798699Y-113999327D02*
X202794000Y-130002965D01*
X200499127Y-130500001D02*
X202296171Y-130502960D01*
D11*
X244316200Y-122000000D02*
G75*
G03X244316200Y-122000000I-20000000J0D01*
G01*
D10*
X244000000Y-146000000D02*
X244000000Y-131000000D01*
X246000000Y-131000000D02*
X246000000Y-146000000D01*
X246000000Y-131000000D02*
G75*
G03X244000000Y-131000000I-1000000J0D01*
G01*
X244000000Y-146000000D02*
G75*
G03X246000000Y-146000000I1000000J0D01*
G01*
X200499127Y-130500001D02*
G75*
G03X200000000Y-131000000I873J-499999D01*
G01*
X200000000Y-113000000D02*
G75*
G03X200500000Y-113500000I500000J0D01*
G01*
X200000000Y-97000000D02*
X200000000Y-113000000D01*
X265000000Y-97000000D02*
G75*
G03X262000000Y-94000000I-3000000J0D01*
G01*
X262000000Y-150000000D02*
G75*
G03X265000000Y-147000000I0J3000000D01*
G01*
X200000000Y-147000000D02*
G75*
G03X203000000Y-150000000I3000000J0D01*
G01*
X203000000Y-94000000D02*
G75*
G03X200000000Y-97000000I0J-3000000D01*
G01*
X262000000Y-94000000D02*
X203000000Y-94000000D01*
X265000000Y-147000000D02*
X265000000Y-97000000D01*
X203000000Y-150000000D02*
X262000000Y-150000000D01*
X200000000Y-131000000D02*
X200000000Y-147000000D01*
M02*
