G04 #@! TF.GenerationSoftware,KiCad,Pcbnew,(5.1.5)-3*
G04 #@! TF.CreationDate,2020-09-05T22:43:29+02:00*
G04 #@! TF.ProjectId,res_hat,7265735f-6861-4742-9e6b-696361645f70,rev?*
G04 #@! TF.SameCoordinates,Original*
G04 #@! TF.FileFunction,Paste,Bot*
G04 #@! TF.FilePolarity,Positive*
%FSLAX46Y46*%
G04 Gerber Fmt 4.6, Leading zero omitted, Abs format (unit mm)*
G04 Created by KiCad (PCBNEW (5.1.5)-3) date 2020-09-05 22:43:29*
%MOMM*%
%LPD*%
G04 APERTURE LIST*
%ADD10C,0.100000*%
%ADD11R,1.528000X0.650000*%
%ADD12R,1.400000X0.600000*%
G04 APERTURE END LIST*
D10*
G36*
X131647445Y-143987584D02*
G01*
X131671713Y-143991184D01*
X131695512Y-143997145D01*
X131718611Y-144005410D01*
X131740790Y-144015900D01*
X131761833Y-144028512D01*
X131781539Y-144043127D01*
X131799717Y-144059603D01*
X131816193Y-144077781D01*
X131830808Y-144097487D01*
X131843420Y-144118530D01*
X131853910Y-144140709D01*
X131862175Y-144163808D01*
X131868136Y-144187607D01*
X131871736Y-144211875D01*
X131872940Y-144236379D01*
X131872940Y-147086381D01*
X131871736Y-147110885D01*
X131868136Y-147135153D01*
X131862175Y-147158952D01*
X131853910Y-147182051D01*
X131843420Y-147204230D01*
X131830808Y-147225273D01*
X131816193Y-147244979D01*
X131799717Y-147263157D01*
X131781539Y-147279633D01*
X131761833Y-147294248D01*
X131740790Y-147306860D01*
X131718611Y-147317350D01*
X131695512Y-147325615D01*
X131671713Y-147331576D01*
X131647445Y-147335176D01*
X131622941Y-147336380D01*
X130772939Y-147336380D01*
X130748435Y-147335176D01*
X130724167Y-147331576D01*
X130700368Y-147325615D01*
X130677269Y-147317350D01*
X130655090Y-147306860D01*
X130634047Y-147294248D01*
X130614341Y-147279633D01*
X130596163Y-147263157D01*
X130579687Y-147244979D01*
X130565072Y-147225273D01*
X130552460Y-147204230D01*
X130541970Y-147182051D01*
X130533705Y-147158952D01*
X130527744Y-147135153D01*
X130524144Y-147110885D01*
X130522940Y-147086381D01*
X130522940Y-144236379D01*
X130524144Y-144211875D01*
X130527744Y-144187607D01*
X130533705Y-144163808D01*
X130541970Y-144140709D01*
X130552460Y-144118530D01*
X130565072Y-144097487D01*
X130579687Y-144077781D01*
X130596163Y-144059603D01*
X130614341Y-144043127D01*
X130634047Y-144028512D01*
X130655090Y-144015900D01*
X130677269Y-144005410D01*
X130700368Y-143997145D01*
X130724167Y-143991184D01*
X130748435Y-143987584D01*
X130772939Y-143986380D01*
X131622941Y-143986380D01*
X131647445Y-143987584D01*
G37*
G36*
X125847445Y-143987584D02*
G01*
X125871713Y-143991184D01*
X125895512Y-143997145D01*
X125918611Y-144005410D01*
X125940790Y-144015900D01*
X125961833Y-144028512D01*
X125981539Y-144043127D01*
X125999717Y-144059603D01*
X126016193Y-144077781D01*
X126030808Y-144097487D01*
X126043420Y-144118530D01*
X126053910Y-144140709D01*
X126062175Y-144163808D01*
X126068136Y-144187607D01*
X126071736Y-144211875D01*
X126072940Y-144236379D01*
X126072940Y-147086381D01*
X126071736Y-147110885D01*
X126068136Y-147135153D01*
X126062175Y-147158952D01*
X126053910Y-147182051D01*
X126043420Y-147204230D01*
X126030808Y-147225273D01*
X126016193Y-147244979D01*
X125999717Y-147263157D01*
X125981539Y-147279633D01*
X125961833Y-147294248D01*
X125940790Y-147306860D01*
X125918611Y-147317350D01*
X125895512Y-147325615D01*
X125871713Y-147331576D01*
X125847445Y-147335176D01*
X125822941Y-147336380D01*
X124972939Y-147336380D01*
X124948435Y-147335176D01*
X124924167Y-147331576D01*
X124900368Y-147325615D01*
X124877269Y-147317350D01*
X124855090Y-147306860D01*
X124834047Y-147294248D01*
X124814341Y-147279633D01*
X124796163Y-147263157D01*
X124779687Y-147244979D01*
X124765072Y-147225273D01*
X124752460Y-147204230D01*
X124741970Y-147182051D01*
X124733705Y-147158952D01*
X124727744Y-147135153D01*
X124724144Y-147110885D01*
X124722940Y-147086381D01*
X124722940Y-144236379D01*
X124724144Y-144211875D01*
X124727744Y-144187607D01*
X124733705Y-144163808D01*
X124741970Y-144140709D01*
X124752460Y-144118530D01*
X124765072Y-144097487D01*
X124779687Y-144077781D01*
X124796163Y-144059603D01*
X124814341Y-144043127D01*
X124834047Y-144028512D01*
X124855090Y-144015900D01*
X124877269Y-144005410D01*
X124900368Y-143997145D01*
X124924167Y-143991184D01*
X124948435Y-143987584D01*
X124972939Y-143986380D01*
X125822941Y-143986380D01*
X125847445Y-143987584D01*
G37*
G36*
X131246125Y-113741264D02*
G01*
X131270393Y-113744864D01*
X131294192Y-113750825D01*
X131317291Y-113759090D01*
X131339470Y-113769580D01*
X131360513Y-113782192D01*
X131380219Y-113796807D01*
X131398397Y-113813283D01*
X131414873Y-113831461D01*
X131429488Y-113851167D01*
X131442100Y-113872210D01*
X131452590Y-113894389D01*
X131460855Y-113917488D01*
X131466816Y-113941287D01*
X131470416Y-113965555D01*
X131471620Y-113990059D01*
X131471620Y-116840061D01*
X131470416Y-116864565D01*
X131466816Y-116888833D01*
X131460855Y-116912632D01*
X131452590Y-116935731D01*
X131442100Y-116957910D01*
X131429488Y-116978953D01*
X131414873Y-116998659D01*
X131398397Y-117016837D01*
X131380219Y-117033313D01*
X131360513Y-117047928D01*
X131339470Y-117060540D01*
X131317291Y-117071030D01*
X131294192Y-117079295D01*
X131270393Y-117085256D01*
X131246125Y-117088856D01*
X131221621Y-117090060D01*
X130371619Y-117090060D01*
X130347115Y-117088856D01*
X130322847Y-117085256D01*
X130299048Y-117079295D01*
X130275949Y-117071030D01*
X130253770Y-117060540D01*
X130232727Y-117047928D01*
X130213021Y-117033313D01*
X130194843Y-117016837D01*
X130178367Y-116998659D01*
X130163752Y-116978953D01*
X130151140Y-116957910D01*
X130140650Y-116935731D01*
X130132385Y-116912632D01*
X130126424Y-116888833D01*
X130122824Y-116864565D01*
X130121620Y-116840061D01*
X130121620Y-113990059D01*
X130122824Y-113965555D01*
X130126424Y-113941287D01*
X130132385Y-113917488D01*
X130140650Y-113894389D01*
X130151140Y-113872210D01*
X130163752Y-113851167D01*
X130178367Y-113831461D01*
X130194843Y-113813283D01*
X130213021Y-113796807D01*
X130232727Y-113782192D01*
X130253770Y-113769580D01*
X130275949Y-113759090D01*
X130299048Y-113750825D01*
X130322847Y-113744864D01*
X130347115Y-113741264D01*
X130371619Y-113740060D01*
X131221621Y-113740060D01*
X131246125Y-113741264D01*
G37*
G36*
X125446125Y-113741264D02*
G01*
X125470393Y-113744864D01*
X125494192Y-113750825D01*
X125517291Y-113759090D01*
X125539470Y-113769580D01*
X125560513Y-113782192D01*
X125580219Y-113796807D01*
X125598397Y-113813283D01*
X125614873Y-113831461D01*
X125629488Y-113851167D01*
X125642100Y-113872210D01*
X125652590Y-113894389D01*
X125660855Y-113917488D01*
X125666816Y-113941287D01*
X125670416Y-113965555D01*
X125671620Y-113990059D01*
X125671620Y-116840061D01*
X125670416Y-116864565D01*
X125666816Y-116888833D01*
X125660855Y-116912632D01*
X125652590Y-116935731D01*
X125642100Y-116957910D01*
X125629488Y-116978953D01*
X125614873Y-116998659D01*
X125598397Y-117016837D01*
X125580219Y-117033313D01*
X125560513Y-117047928D01*
X125539470Y-117060540D01*
X125517291Y-117071030D01*
X125494192Y-117079295D01*
X125470393Y-117085256D01*
X125446125Y-117088856D01*
X125421621Y-117090060D01*
X124571619Y-117090060D01*
X124547115Y-117088856D01*
X124522847Y-117085256D01*
X124499048Y-117079295D01*
X124475949Y-117071030D01*
X124453770Y-117060540D01*
X124432727Y-117047928D01*
X124413021Y-117033313D01*
X124394843Y-117016837D01*
X124378367Y-116998659D01*
X124363752Y-116978953D01*
X124351140Y-116957910D01*
X124340650Y-116935731D01*
X124332385Y-116912632D01*
X124326424Y-116888833D01*
X124322824Y-116864565D01*
X124321620Y-116840061D01*
X124321620Y-113990059D01*
X124322824Y-113965555D01*
X124326424Y-113941287D01*
X124332385Y-113917488D01*
X124340650Y-113894389D01*
X124351140Y-113872210D01*
X124363752Y-113851167D01*
X124378367Y-113831461D01*
X124394843Y-113813283D01*
X124413021Y-113796807D01*
X124432727Y-113782192D01*
X124453770Y-113769580D01*
X124475949Y-113759090D01*
X124499048Y-113750825D01*
X124522847Y-113744864D01*
X124547115Y-113741264D01*
X124571619Y-113740060D01*
X125421621Y-113740060D01*
X125446125Y-113741264D01*
G37*
G36*
X89469042Y-108718194D02*
G01*
X89492703Y-108721704D01*
X89515907Y-108727516D01*
X89538429Y-108735574D01*
X89560053Y-108745802D01*
X89580570Y-108758099D01*
X89599783Y-108772349D01*
X89617507Y-108788413D01*
X89633571Y-108806137D01*
X89647821Y-108825350D01*
X89660118Y-108845867D01*
X89670346Y-108867491D01*
X89678404Y-108890013D01*
X89684216Y-108913217D01*
X89687726Y-108936878D01*
X89688900Y-108960770D01*
X89688900Y-109448270D01*
X89687726Y-109472162D01*
X89684216Y-109495823D01*
X89678404Y-109519027D01*
X89670346Y-109541549D01*
X89660118Y-109563173D01*
X89647821Y-109583690D01*
X89633571Y-109602903D01*
X89617507Y-109620627D01*
X89599783Y-109636691D01*
X89580570Y-109650941D01*
X89560053Y-109663238D01*
X89538429Y-109673466D01*
X89515907Y-109681524D01*
X89492703Y-109687336D01*
X89469042Y-109690846D01*
X89445150Y-109692020D01*
X88532650Y-109692020D01*
X88508758Y-109690846D01*
X88485097Y-109687336D01*
X88461893Y-109681524D01*
X88439371Y-109673466D01*
X88417747Y-109663238D01*
X88397230Y-109650941D01*
X88378017Y-109636691D01*
X88360293Y-109620627D01*
X88344229Y-109602903D01*
X88329979Y-109583690D01*
X88317682Y-109563173D01*
X88307454Y-109541549D01*
X88299396Y-109519027D01*
X88293584Y-109495823D01*
X88290074Y-109472162D01*
X88288900Y-109448270D01*
X88288900Y-108960770D01*
X88290074Y-108936878D01*
X88293584Y-108913217D01*
X88299396Y-108890013D01*
X88307454Y-108867491D01*
X88317682Y-108845867D01*
X88329979Y-108825350D01*
X88344229Y-108806137D01*
X88360293Y-108788413D01*
X88378017Y-108772349D01*
X88397230Y-108758099D01*
X88417747Y-108745802D01*
X88439371Y-108735574D01*
X88461893Y-108727516D01*
X88485097Y-108721704D01*
X88508758Y-108718194D01*
X88532650Y-108717020D01*
X89445150Y-108717020D01*
X89469042Y-108718194D01*
G37*
G36*
X89469042Y-110593194D02*
G01*
X89492703Y-110596704D01*
X89515907Y-110602516D01*
X89538429Y-110610574D01*
X89560053Y-110620802D01*
X89580570Y-110633099D01*
X89599783Y-110647349D01*
X89617507Y-110663413D01*
X89633571Y-110681137D01*
X89647821Y-110700350D01*
X89660118Y-110720867D01*
X89670346Y-110742491D01*
X89678404Y-110765013D01*
X89684216Y-110788217D01*
X89687726Y-110811878D01*
X89688900Y-110835770D01*
X89688900Y-111323270D01*
X89687726Y-111347162D01*
X89684216Y-111370823D01*
X89678404Y-111394027D01*
X89670346Y-111416549D01*
X89660118Y-111438173D01*
X89647821Y-111458690D01*
X89633571Y-111477903D01*
X89617507Y-111495627D01*
X89599783Y-111511691D01*
X89580570Y-111525941D01*
X89560053Y-111538238D01*
X89538429Y-111548466D01*
X89515907Y-111556524D01*
X89492703Y-111562336D01*
X89469042Y-111565846D01*
X89445150Y-111567020D01*
X88532650Y-111567020D01*
X88508758Y-111565846D01*
X88485097Y-111562336D01*
X88461893Y-111556524D01*
X88439371Y-111548466D01*
X88417747Y-111538238D01*
X88397230Y-111525941D01*
X88378017Y-111511691D01*
X88360293Y-111495627D01*
X88344229Y-111477903D01*
X88329979Y-111458690D01*
X88317682Y-111438173D01*
X88307454Y-111416549D01*
X88299396Y-111394027D01*
X88293584Y-111370823D01*
X88290074Y-111347162D01*
X88288900Y-111323270D01*
X88288900Y-110835770D01*
X88290074Y-110811878D01*
X88293584Y-110788217D01*
X88299396Y-110765013D01*
X88307454Y-110742491D01*
X88317682Y-110720867D01*
X88329979Y-110700350D01*
X88344229Y-110681137D01*
X88360293Y-110663413D01*
X88378017Y-110647349D01*
X88397230Y-110633099D01*
X88417747Y-110620802D01*
X88439371Y-110610574D01*
X88461893Y-110602516D01*
X88485097Y-110596704D01*
X88508758Y-110593194D01*
X88532650Y-110592020D01*
X89445150Y-110592020D01*
X89469042Y-110593194D01*
G37*
G36*
X103821142Y-137477174D02*
G01*
X103844803Y-137480684D01*
X103868007Y-137486496D01*
X103890529Y-137494554D01*
X103912153Y-137504782D01*
X103932670Y-137517079D01*
X103951883Y-137531329D01*
X103969607Y-137547393D01*
X103985671Y-137565117D01*
X103999921Y-137584330D01*
X104012218Y-137604847D01*
X104022446Y-137626471D01*
X104030504Y-137648993D01*
X104036316Y-137672197D01*
X104039826Y-137695858D01*
X104041000Y-137719750D01*
X104041000Y-138632250D01*
X104039826Y-138656142D01*
X104036316Y-138679803D01*
X104030504Y-138703007D01*
X104022446Y-138725529D01*
X104012218Y-138747153D01*
X103999921Y-138767670D01*
X103985671Y-138786883D01*
X103969607Y-138804607D01*
X103951883Y-138820671D01*
X103932670Y-138834921D01*
X103912153Y-138847218D01*
X103890529Y-138857446D01*
X103868007Y-138865504D01*
X103844803Y-138871316D01*
X103821142Y-138874826D01*
X103797250Y-138876000D01*
X103309750Y-138876000D01*
X103285858Y-138874826D01*
X103262197Y-138871316D01*
X103238993Y-138865504D01*
X103216471Y-138857446D01*
X103194847Y-138847218D01*
X103174330Y-138834921D01*
X103155117Y-138820671D01*
X103137393Y-138804607D01*
X103121329Y-138786883D01*
X103107079Y-138767670D01*
X103094782Y-138747153D01*
X103084554Y-138725529D01*
X103076496Y-138703007D01*
X103070684Y-138679803D01*
X103067174Y-138656142D01*
X103066000Y-138632250D01*
X103066000Y-137719750D01*
X103067174Y-137695858D01*
X103070684Y-137672197D01*
X103076496Y-137648993D01*
X103084554Y-137626471D01*
X103094782Y-137604847D01*
X103107079Y-137584330D01*
X103121329Y-137565117D01*
X103137393Y-137547393D01*
X103155117Y-137531329D01*
X103174330Y-137517079D01*
X103194847Y-137504782D01*
X103216471Y-137494554D01*
X103238993Y-137486496D01*
X103262197Y-137480684D01*
X103285858Y-137477174D01*
X103309750Y-137476000D01*
X103797250Y-137476000D01*
X103821142Y-137477174D01*
G37*
G36*
X101946142Y-137477174D02*
G01*
X101969803Y-137480684D01*
X101993007Y-137486496D01*
X102015529Y-137494554D01*
X102037153Y-137504782D01*
X102057670Y-137517079D01*
X102076883Y-137531329D01*
X102094607Y-137547393D01*
X102110671Y-137565117D01*
X102124921Y-137584330D01*
X102137218Y-137604847D01*
X102147446Y-137626471D01*
X102155504Y-137648993D01*
X102161316Y-137672197D01*
X102164826Y-137695858D01*
X102166000Y-137719750D01*
X102166000Y-138632250D01*
X102164826Y-138656142D01*
X102161316Y-138679803D01*
X102155504Y-138703007D01*
X102147446Y-138725529D01*
X102137218Y-138747153D01*
X102124921Y-138767670D01*
X102110671Y-138786883D01*
X102094607Y-138804607D01*
X102076883Y-138820671D01*
X102057670Y-138834921D01*
X102037153Y-138847218D01*
X102015529Y-138857446D01*
X101993007Y-138865504D01*
X101969803Y-138871316D01*
X101946142Y-138874826D01*
X101922250Y-138876000D01*
X101434750Y-138876000D01*
X101410858Y-138874826D01*
X101387197Y-138871316D01*
X101363993Y-138865504D01*
X101341471Y-138857446D01*
X101319847Y-138847218D01*
X101299330Y-138834921D01*
X101280117Y-138820671D01*
X101262393Y-138804607D01*
X101246329Y-138786883D01*
X101232079Y-138767670D01*
X101219782Y-138747153D01*
X101209554Y-138725529D01*
X101201496Y-138703007D01*
X101195684Y-138679803D01*
X101192174Y-138656142D01*
X101191000Y-138632250D01*
X101191000Y-137719750D01*
X101192174Y-137695858D01*
X101195684Y-137672197D01*
X101201496Y-137648993D01*
X101209554Y-137626471D01*
X101219782Y-137604847D01*
X101232079Y-137584330D01*
X101246329Y-137565117D01*
X101262393Y-137547393D01*
X101280117Y-137531329D01*
X101299330Y-137517079D01*
X101319847Y-137504782D01*
X101341471Y-137494554D01*
X101363993Y-137486496D01*
X101387197Y-137480684D01*
X101410858Y-137477174D01*
X101434750Y-137476000D01*
X101922250Y-137476000D01*
X101946142Y-137477174D01*
G37*
G36*
X103821142Y-134331174D02*
G01*
X103844803Y-134334684D01*
X103868007Y-134340496D01*
X103890529Y-134348554D01*
X103912153Y-134358782D01*
X103932670Y-134371079D01*
X103951883Y-134385329D01*
X103969607Y-134401393D01*
X103985671Y-134419117D01*
X103999921Y-134438330D01*
X104012218Y-134458847D01*
X104022446Y-134480471D01*
X104030504Y-134502993D01*
X104036316Y-134526197D01*
X104039826Y-134549858D01*
X104041000Y-134573750D01*
X104041000Y-135486250D01*
X104039826Y-135510142D01*
X104036316Y-135533803D01*
X104030504Y-135557007D01*
X104022446Y-135579529D01*
X104012218Y-135601153D01*
X103999921Y-135621670D01*
X103985671Y-135640883D01*
X103969607Y-135658607D01*
X103951883Y-135674671D01*
X103932670Y-135688921D01*
X103912153Y-135701218D01*
X103890529Y-135711446D01*
X103868007Y-135719504D01*
X103844803Y-135725316D01*
X103821142Y-135728826D01*
X103797250Y-135730000D01*
X103309750Y-135730000D01*
X103285858Y-135728826D01*
X103262197Y-135725316D01*
X103238993Y-135719504D01*
X103216471Y-135711446D01*
X103194847Y-135701218D01*
X103174330Y-135688921D01*
X103155117Y-135674671D01*
X103137393Y-135658607D01*
X103121329Y-135640883D01*
X103107079Y-135621670D01*
X103094782Y-135601153D01*
X103084554Y-135579529D01*
X103076496Y-135557007D01*
X103070684Y-135533803D01*
X103067174Y-135510142D01*
X103066000Y-135486250D01*
X103066000Y-134573750D01*
X103067174Y-134549858D01*
X103070684Y-134526197D01*
X103076496Y-134502993D01*
X103084554Y-134480471D01*
X103094782Y-134458847D01*
X103107079Y-134438330D01*
X103121329Y-134419117D01*
X103137393Y-134401393D01*
X103155117Y-134385329D01*
X103174330Y-134371079D01*
X103194847Y-134358782D01*
X103216471Y-134348554D01*
X103238993Y-134340496D01*
X103262197Y-134334684D01*
X103285858Y-134331174D01*
X103309750Y-134330000D01*
X103797250Y-134330000D01*
X103821142Y-134331174D01*
G37*
G36*
X101946142Y-134331174D02*
G01*
X101969803Y-134334684D01*
X101993007Y-134340496D01*
X102015529Y-134348554D01*
X102037153Y-134358782D01*
X102057670Y-134371079D01*
X102076883Y-134385329D01*
X102094607Y-134401393D01*
X102110671Y-134419117D01*
X102124921Y-134438330D01*
X102137218Y-134458847D01*
X102147446Y-134480471D01*
X102155504Y-134502993D01*
X102161316Y-134526197D01*
X102164826Y-134549858D01*
X102166000Y-134573750D01*
X102166000Y-135486250D01*
X102164826Y-135510142D01*
X102161316Y-135533803D01*
X102155504Y-135557007D01*
X102147446Y-135579529D01*
X102137218Y-135601153D01*
X102124921Y-135621670D01*
X102110671Y-135640883D01*
X102094607Y-135658607D01*
X102076883Y-135674671D01*
X102057670Y-135688921D01*
X102037153Y-135701218D01*
X102015529Y-135711446D01*
X101993007Y-135719504D01*
X101969803Y-135725316D01*
X101946142Y-135728826D01*
X101922250Y-135730000D01*
X101434750Y-135730000D01*
X101410858Y-135728826D01*
X101387197Y-135725316D01*
X101363993Y-135719504D01*
X101341471Y-135711446D01*
X101319847Y-135701218D01*
X101299330Y-135688921D01*
X101280117Y-135674671D01*
X101262393Y-135658607D01*
X101246329Y-135640883D01*
X101232079Y-135621670D01*
X101219782Y-135601153D01*
X101209554Y-135579529D01*
X101201496Y-135557007D01*
X101195684Y-135533803D01*
X101192174Y-135510142D01*
X101191000Y-135486250D01*
X101191000Y-134573750D01*
X101192174Y-134549858D01*
X101195684Y-134526197D01*
X101201496Y-134502993D01*
X101209554Y-134480471D01*
X101219782Y-134458847D01*
X101232079Y-134438330D01*
X101246329Y-134419117D01*
X101262393Y-134401393D01*
X101280117Y-134385329D01*
X101299330Y-134371079D01*
X101319847Y-134358782D01*
X101341471Y-134348554D01*
X101363993Y-134340496D01*
X101387197Y-134334684D01*
X101410858Y-134331174D01*
X101434750Y-134330000D01*
X101922250Y-134330000D01*
X101946142Y-134331174D01*
G37*
G36*
X92391142Y-133667174D02*
G01*
X92414803Y-133670684D01*
X92438007Y-133676496D01*
X92460529Y-133684554D01*
X92482153Y-133694782D01*
X92502670Y-133707079D01*
X92521883Y-133721329D01*
X92539607Y-133737393D01*
X92555671Y-133755117D01*
X92569921Y-133774330D01*
X92582218Y-133794847D01*
X92592446Y-133816471D01*
X92600504Y-133838993D01*
X92606316Y-133862197D01*
X92609826Y-133885858D01*
X92611000Y-133909750D01*
X92611000Y-134822250D01*
X92609826Y-134846142D01*
X92606316Y-134869803D01*
X92600504Y-134893007D01*
X92592446Y-134915529D01*
X92582218Y-134937153D01*
X92569921Y-134957670D01*
X92555671Y-134976883D01*
X92539607Y-134994607D01*
X92521883Y-135010671D01*
X92502670Y-135024921D01*
X92482153Y-135037218D01*
X92460529Y-135047446D01*
X92438007Y-135055504D01*
X92414803Y-135061316D01*
X92391142Y-135064826D01*
X92367250Y-135066000D01*
X91879750Y-135066000D01*
X91855858Y-135064826D01*
X91832197Y-135061316D01*
X91808993Y-135055504D01*
X91786471Y-135047446D01*
X91764847Y-135037218D01*
X91744330Y-135024921D01*
X91725117Y-135010671D01*
X91707393Y-134994607D01*
X91691329Y-134976883D01*
X91677079Y-134957670D01*
X91664782Y-134937153D01*
X91654554Y-134915529D01*
X91646496Y-134893007D01*
X91640684Y-134869803D01*
X91637174Y-134846142D01*
X91636000Y-134822250D01*
X91636000Y-133909750D01*
X91637174Y-133885858D01*
X91640684Y-133862197D01*
X91646496Y-133838993D01*
X91654554Y-133816471D01*
X91664782Y-133794847D01*
X91677079Y-133774330D01*
X91691329Y-133755117D01*
X91707393Y-133737393D01*
X91725117Y-133721329D01*
X91744330Y-133707079D01*
X91764847Y-133694782D01*
X91786471Y-133684554D01*
X91808993Y-133676496D01*
X91832197Y-133670684D01*
X91855858Y-133667174D01*
X91879750Y-133666000D01*
X92367250Y-133666000D01*
X92391142Y-133667174D01*
G37*
G36*
X90516142Y-133667174D02*
G01*
X90539803Y-133670684D01*
X90563007Y-133676496D01*
X90585529Y-133684554D01*
X90607153Y-133694782D01*
X90627670Y-133707079D01*
X90646883Y-133721329D01*
X90664607Y-133737393D01*
X90680671Y-133755117D01*
X90694921Y-133774330D01*
X90707218Y-133794847D01*
X90717446Y-133816471D01*
X90725504Y-133838993D01*
X90731316Y-133862197D01*
X90734826Y-133885858D01*
X90736000Y-133909750D01*
X90736000Y-134822250D01*
X90734826Y-134846142D01*
X90731316Y-134869803D01*
X90725504Y-134893007D01*
X90717446Y-134915529D01*
X90707218Y-134937153D01*
X90694921Y-134957670D01*
X90680671Y-134976883D01*
X90664607Y-134994607D01*
X90646883Y-135010671D01*
X90627670Y-135024921D01*
X90607153Y-135037218D01*
X90585529Y-135047446D01*
X90563007Y-135055504D01*
X90539803Y-135061316D01*
X90516142Y-135064826D01*
X90492250Y-135066000D01*
X90004750Y-135066000D01*
X89980858Y-135064826D01*
X89957197Y-135061316D01*
X89933993Y-135055504D01*
X89911471Y-135047446D01*
X89889847Y-135037218D01*
X89869330Y-135024921D01*
X89850117Y-135010671D01*
X89832393Y-134994607D01*
X89816329Y-134976883D01*
X89802079Y-134957670D01*
X89789782Y-134937153D01*
X89779554Y-134915529D01*
X89771496Y-134893007D01*
X89765684Y-134869803D01*
X89762174Y-134846142D01*
X89761000Y-134822250D01*
X89761000Y-133909750D01*
X89762174Y-133885858D01*
X89765684Y-133862197D01*
X89771496Y-133838993D01*
X89779554Y-133816471D01*
X89789782Y-133794847D01*
X89802079Y-133774330D01*
X89816329Y-133755117D01*
X89832393Y-133737393D01*
X89850117Y-133721329D01*
X89869330Y-133707079D01*
X89889847Y-133694782D01*
X89911471Y-133684554D01*
X89933993Y-133676496D01*
X89957197Y-133670684D01*
X89980858Y-133667174D01*
X90004750Y-133666000D01*
X90492250Y-133666000D01*
X90516142Y-133667174D01*
G37*
G36*
X92391142Y-136969174D02*
G01*
X92414803Y-136972684D01*
X92438007Y-136978496D01*
X92460529Y-136986554D01*
X92482153Y-136996782D01*
X92502670Y-137009079D01*
X92521883Y-137023329D01*
X92539607Y-137039393D01*
X92555671Y-137057117D01*
X92569921Y-137076330D01*
X92582218Y-137096847D01*
X92592446Y-137118471D01*
X92600504Y-137140993D01*
X92606316Y-137164197D01*
X92609826Y-137187858D01*
X92611000Y-137211750D01*
X92611000Y-138124250D01*
X92609826Y-138148142D01*
X92606316Y-138171803D01*
X92600504Y-138195007D01*
X92592446Y-138217529D01*
X92582218Y-138239153D01*
X92569921Y-138259670D01*
X92555671Y-138278883D01*
X92539607Y-138296607D01*
X92521883Y-138312671D01*
X92502670Y-138326921D01*
X92482153Y-138339218D01*
X92460529Y-138349446D01*
X92438007Y-138357504D01*
X92414803Y-138363316D01*
X92391142Y-138366826D01*
X92367250Y-138368000D01*
X91879750Y-138368000D01*
X91855858Y-138366826D01*
X91832197Y-138363316D01*
X91808993Y-138357504D01*
X91786471Y-138349446D01*
X91764847Y-138339218D01*
X91744330Y-138326921D01*
X91725117Y-138312671D01*
X91707393Y-138296607D01*
X91691329Y-138278883D01*
X91677079Y-138259670D01*
X91664782Y-138239153D01*
X91654554Y-138217529D01*
X91646496Y-138195007D01*
X91640684Y-138171803D01*
X91637174Y-138148142D01*
X91636000Y-138124250D01*
X91636000Y-137211750D01*
X91637174Y-137187858D01*
X91640684Y-137164197D01*
X91646496Y-137140993D01*
X91654554Y-137118471D01*
X91664782Y-137096847D01*
X91677079Y-137076330D01*
X91691329Y-137057117D01*
X91707393Y-137039393D01*
X91725117Y-137023329D01*
X91744330Y-137009079D01*
X91764847Y-136996782D01*
X91786471Y-136986554D01*
X91808993Y-136978496D01*
X91832197Y-136972684D01*
X91855858Y-136969174D01*
X91879750Y-136968000D01*
X92367250Y-136968000D01*
X92391142Y-136969174D01*
G37*
G36*
X90516142Y-136969174D02*
G01*
X90539803Y-136972684D01*
X90563007Y-136978496D01*
X90585529Y-136986554D01*
X90607153Y-136996782D01*
X90627670Y-137009079D01*
X90646883Y-137023329D01*
X90664607Y-137039393D01*
X90680671Y-137057117D01*
X90694921Y-137076330D01*
X90707218Y-137096847D01*
X90717446Y-137118471D01*
X90725504Y-137140993D01*
X90731316Y-137164197D01*
X90734826Y-137187858D01*
X90736000Y-137211750D01*
X90736000Y-138124250D01*
X90734826Y-138148142D01*
X90731316Y-138171803D01*
X90725504Y-138195007D01*
X90717446Y-138217529D01*
X90707218Y-138239153D01*
X90694921Y-138259670D01*
X90680671Y-138278883D01*
X90664607Y-138296607D01*
X90646883Y-138312671D01*
X90627670Y-138326921D01*
X90607153Y-138339218D01*
X90585529Y-138349446D01*
X90563007Y-138357504D01*
X90539803Y-138363316D01*
X90516142Y-138366826D01*
X90492250Y-138368000D01*
X90004750Y-138368000D01*
X89980858Y-138366826D01*
X89957197Y-138363316D01*
X89933993Y-138357504D01*
X89911471Y-138349446D01*
X89889847Y-138339218D01*
X89869330Y-138326921D01*
X89850117Y-138312671D01*
X89832393Y-138296607D01*
X89816329Y-138278883D01*
X89802079Y-138259670D01*
X89789782Y-138239153D01*
X89779554Y-138217529D01*
X89771496Y-138195007D01*
X89765684Y-138171803D01*
X89762174Y-138148142D01*
X89761000Y-138124250D01*
X89761000Y-137211750D01*
X89762174Y-137187858D01*
X89765684Y-137164197D01*
X89771496Y-137140993D01*
X89779554Y-137118471D01*
X89789782Y-137096847D01*
X89802079Y-137076330D01*
X89816329Y-137057117D01*
X89832393Y-137039393D01*
X89850117Y-137023329D01*
X89869330Y-137009079D01*
X89889847Y-136996782D01*
X89911471Y-136986554D01*
X89933993Y-136978496D01*
X89957197Y-136972684D01*
X89980858Y-136969174D01*
X90004750Y-136968000D01*
X90492250Y-136968000D01*
X90516142Y-136969174D01*
G37*
G36*
X92137142Y-123761174D02*
G01*
X92160803Y-123764684D01*
X92184007Y-123770496D01*
X92206529Y-123778554D01*
X92228153Y-123788782D01*
X92248670Y-123801079D01*
X92267883Y-123815329D01*
X92285607Y-123831393D01*
X92301671Y-123849117D01*
X92315921Y-123868330D01*
X92328218Y-123888847D01*
X92338446Y-123910471D01*
X92346504Y-123932993D01*
X92352316Y-123956197D01*
X92355826Y-123979858D01*
X92357000Y-124003750D01*
X92357000Y-124916250D01*
X92355826Y-124940142D01*
X92352316Y-124963803D01*
X92346504Y-124987007D01*
X92338446Y-125009529D01*
X92328218Y-125031153D01*
X92315921Y-125051670D01*
X92301671Y-125070883D01*
X92285607Y-125088607D01*
X92267883Y-125104671D01*
X92248670Y-125118921D01*
X92228153Y-125131218D01*
X92206529Y-125141446D01*
X92184007Y-125149504D01*
X92160803Y-125155316D01*
X92137142Y-125158826D01*
X92113250Y-125160000D01*
X91625750Y-125160000D01*
X91601858Y-125158826D01*
X91578197Y-125155316D01*
X91554993Y-125149504D01*
X91532471Y-125141446D01*
X91510847Y-125131218D01*
X91490330Y-125118921D01*
X91471117Y-125104671D01*
X91453393Y-125088607D01*
X91437329Y-125070883D01*
X91423079Y-125051670D01*
X91410782Y-125031153D01*
X91400554Y-125009529D01*
X91392496Y-124987007D01*
X91386684Y-124963803D01*
X91383174Y-124940142D01*
X91382000Y-124916250D01*
X91382000Y-124003750D01*
X91383174Y-123979858D01*
X91386684Y-123956197D01*
X91392496Y-123932993D01*
X91400554Y-123910471D01*
X91410782Y-123888847D01*
X91423079Y-123868330D01*
X91437329Y-123849117D01*
X91453393Y-123831393D01*
X91471117Y-123815329D01*
X91490330Y-123801079D01*
X91510847Y-123788782D01*
X91532471Y-123778554D01*
X91554993Y-123770496D01*
X91578197Y-123764684D01*
X91601858Y-123761174D01*
X91625750Y-123760000D01*
X92113250Y-123760000D01*
X92137142Y-123761174D01*
G37*
G36*
X90262142Y-123761174D02*
G01*
X90285803Y-123764684D01*
X90309007Y-123770496D01*
X90331529Y-123778554D01*
X90353153Y-123788782D01*
X90373670Y-123801079D01*
X90392883Y-123815329D01*
X90410607Y-123831393D01*
X90426671Y-123849117D01*
X90440921Y-123868330D01*
X90453218Y-123888847D01*
X90463446Y-123910471D01*
X90471504Y-123932993D01*
X90477316Y-123956197D01*
X90480826Y-123979858D01*
X90482000Y-124003750D01*
X90482000Y-124916250D01*
X90480826Y-124940142D01*
X90477316Y-124963803D01*
X90471504Y-124987007D01*
X90463446Y-125009529D01*
X90453218Y-125031153D01*
X90440921Y-125051670D01*
X90426671Y-125070883D01*
X90410607Y-125088607D01*
X90392883Y-125104671D01*
X90373670Y-125118921D01*
X90353153Y-125131218D01*
X90331529Y-125141446D01*
X90309007Y-125149504D01*
X90285803Y-125155316D01*
X90262142Y-125158826D01*
X90238250Y-125160000D01*
X89750750Y-125160000D01*
X89726858Y-125158826D01*
X89703197Y-125155316D01*
X89679993Y-125149504D01*
X89657471Y-125141446D01*
X89635847Y-125131218D01*
X89615330Y-125118921D01*
X89596117Y-125104671D01*
X89578393Y-125088607D01*
X89562329Y-125070883D01*
X89548079Y-125051670D01*
X89535782Y-125031153D01*
X89525554Y-125009529D01*
X89517496Y-124987007D01*
X89511684Y-124963803D01*
X89508174Y-124940142D01*
X89507000Y-124916250D01*
X89507000Y-124003750D01*
X89508174Y-123979858D01*
X89511684Y-123956197D01*
X89517496Y-123932993D01*
X89525554Y-123910471D01*
X89535782Y-123888847D01*
X89548079Y-123868330D01*
X89562329Y-123849117D01*
X89578393Y-123831393D01*
X89596117Y-123815329D01*
X89615330Y-123801079D01*
X89635847Y-123788782D01*
X89657471Y-123778554D01*
X89679993Y-123770496D01*
X89703197Y-123764684D01*
X89726858Y-123761174D01*
X89750750Y-123760000D01*
X90238250Y-123760000D01*
X90262142Y-123761174D01*
G37*
G36*
X92137142Y-120459174D02*
G01*
X92160803Y-120462684D01*
X92184007Y-120468496D01*
X92206529Y-120476554D01*
X92228153Y-120486782D01*
X92248670Y-120499079D01*
X92267883Y-120513329D01*
X92285607Y-120529393D01*
X92301671Y-120547117D01*
X92315921Y-120566330D01*
X92328218Y-120586847D01*
X92338446Y-120608471D01*
X92346504Y-120630993D01*
X92352316Y-120654197D01*
X92355826Y-120677858D01*
X92357000Y-120701750D01*
X92357000Y-121614250D01*
X92355826Y-121638142D01*
X92352316Y-121661803D01*
X92346504Y-121685007D01*
X92338446Y-121707529D01*
X92328218Y-121729153D01*
X92315921Y-121749670D01*
X92301671Y-121768883D01*
X92285607Y-121786607D01*
X92267883Y-121802671D01*
X92248670Y-121816921D01*
X92228153Y-121829218D01*
X92206529Y-121839446D01*
X92184007Y-121847504D01*
X92160803Y-121853316D01*
X92137142Y-121856826D01*
X92113250Y-121858000D01*
X91625750Y-121858000D01*
X91601858Y-121856826D01*
X91578197Y-121853316D01*
X91554993Y-121847504D01*
X91532471Y-121839446D01*
X91510847Y-121829218D01*
X91490330Y-121816921D01*
X91471117Y-121802671D01*
X91453393Y-121786607D01*
X91437329Y-121768883D01*
X91423079Y-121749670D01*
X91410782Y-121729153D01*
X91400554Y-121707529D01*
X91392496Y-121685007D01*
X91386684Y-121661803D01*
X91383174Y-121638142D01*
X91382000Y-121614250D01*
X91382000Y-120701750D01*
X91383174Y-120677858D01*
X91386684Y-120654197D01*
X91392496Y-120630993D01*
X91400554Y-120608471D01*
X91410782Y-120586847D01*
X91423079Y-120566330D01*
X91437329Y-120547117D01*
X91453393Y-120529393D01*
X91471117Y-120513329D01*
X91490330Y-120499079D01*
X91510847Y-120486782D01*
X91532471Y-120476554D01*
X91554993Y-120468496D01*
X91578197Y-120462684D01*
X91601858Y-120459174D01*
X91625750Y-120458000D01*
X92113250Y-120458000D01*
X92137142Y-120459174D01*
G37*
G36*
X90262142Y-120459174D02*
G01*
X90285803Y-120462684D01*
X90309007Y-120468496D01*
X90331529Y-120476554D01*
X90353153Y-120486782D01*
X90373670Y-120499079D01*
X90392883Y-120513329D01*
X90410607Y-120529393D01*
X90426671Y-120547117D01*
X90440921Y-120566330D01*
X90453218Y-120586847D01*
X90463446Y-120608471D01*
X90471504Y-120630993D01*
X90477316Y-120654197D01*
X90480826Y-120677858D01*
X90482000Y-120701750D01*
X90482000Y-121614250D01*
X90480826Y-121638142D01*
X90477316Y-121661803D01*
X90471504Y-121685007D01*
X90463446Y-121707529D01*
X90453218Y-121729153D01*
X90440921Y-121749670D01*
X90426671Y-121768883D01*
X90410607Y-121786607D01*
X90392883Y-121802671D01*
X90373670Y-121816921D01*
X90353153Y-121829218D01*
X90331529Y-121839446D01*
X90309007Y-121847504D01*
X90285803Y-121853316D01*
X90262142Y-121856826D01*
X90238250Y-121858000D01*
X89750750Y-121858000D01*
X89726858Y-121856826D01*
X89703197Y-121853316D01*
X89679993Y-121847504D01*
X89657471Y-121839446D01*
X89635847Y-121829218D01*
X89615330Y-121816921D01*
X89596117Y-121802671D01*
X89578393Y-121786607D01*
X89562329Y-121768883D01*
X89548079Y-121749670D01*
X89535782Y-121729153D01*
X89525554Y-121707529D01*
X89517496Y-121685007D01*
X89511684Y-121661803D01*
X89508174Y-121638142D01*
X89507000Y-121614250D01*
X89507000Y-120701750D01*
X89508174Y-120677858D01*
X89511684Y-120654197D01*
X89517496Y-120630993D01*
X89525554Y-120608471D01*
X89535782Y-120586847D01*
X89548079Y-120566330D01*
X89562329Y-120547117D01*
X89578393Y-120529393D01*
X89596117Y-120513329D01*
X89615330Y-120499079D01*
X89635847Y-120486782D01*
X89657471Y-120476554D01*
X89679993Y-120468496D01*
X89703197Y-120462684D01*
X89726858Y-120459174D01*
X89750750Y-120458000D01*
X90238250Y-120458000D01*
X90262142Y-120459174D01*
G37*
G36*
X112614142Y-142303174D02*
G01*
X112637803Y-142306684D01*
X112661007Y-142312496D01*
X112683529Y-142320554D01*
X112705153Y-142330782D01*
X112725670Y-142343079D01*
X112744883Y-142357329D01*
X112762607Y-142373393D01*
X112778671Y-142391117D01*
X112792921Y-142410330D01*
X112805218Y-142430847D01*
X112815446Y-142452471D01*
X112823504Y-142474993D01*
X112829316Y-142498197D01*
X112832826Y-142521858D01*
X112834000Y-142545750D01*
X112834000Y-143458250D01*
X112832826Y-143482142D01*
X112829316Y-143505803D01*
X112823504Y-143529007D01*
X112815446Y-143551529D01*
X112805218Y-143573153D01*
X112792921Y-143593670D01*
X112778671Y-143612883D01*
X112762607Y-143630607D01*
X112744883Y-143646671D01*
X112725670Y-143660921D01*
X112705153Y-143673218D01*
X112683529Y-143683446D01*
X112661007Y-143691504D01*
X112637803Y-143697316D01*
X112614142Y-143700826D01*
X112590250Y-143702000D01*
X112102750Y-143702000D01*
X112078858Y-143700826D01*
X112055197Y-143697316D01*
X112031993Y-143691504D01*
X112009471Y-143683446D01*
X111987847Y-143673218D01*
X111967330Y-143660921D01*
X111948117Y-143646671D01*
X111930393Y-143630607D01*
X111914329Y-143612883D01*
X111900079Y-143593670D01*
X111887782Y-143573153D01*
X111877554Y-143551529D01*
X111869496Y-143529007D01*
X111863684Y-143505803D01*
X111860174Y-143482142D01*
X111859000Y-143458250D01*
X111859000Y-142545750D01*
X111860174Y-142521858D01*
X111863684Y-142498197D01*
X111869496Y-142474993D01*
X111877554Y-142452471D01*
X111887782Y-142430847D01*
X111900079Y-142410330D01*
X111914329Y-142391117D01*
X111930393Y-142373393D01*
X111948117Y-142357329D01*
X111967330Y-142343079D01*
X111987847Y-142330782D01*
X112009471Y-142320554D01*
X112031993Y-142312496D01*
X112055197Y-142306684D01*
X112078858Y-142303174D01*
X112102750Y-142302000D01*
X112590250Y-142302000D01*
X112614142Y-142303174D01*
G37*
G36*
X114489142Y-142303174D02*
G01*
X114512803Y-142306684D01*
X114536007Y-142312496D01*
X114558529Y-142320554D01*
X114580153Y-142330782D01*
X114600670Y-142343079D01*
X114619883Y-142357329D01*
X114637607Y-142373393D01*
X114653671Y-142391117D01*
X114667921Y-142410330D01*
X114680218Y-142430847D01*
X114690446Y-142452471D01*
X114698504Y-142474993D01*
X114704316Y-142498197D01*
X114707826Y-142521858D01*
X114709000Y-142545750D01*
X114709000Y-143458250D01*
X114707826Y-143482142D01*
X114704316Y-143505803D01*
X114698504Y-143529007D01*
X114690446Y-143551529D01*
X114680218Y-143573153D01*
X114667921Y-143593670D01*
X114653671Y-143612883D01*
X114637607Y-143630607D01*
X114619883Y-143646671D01*
X114600670Y-143660921D01*
X114580153Y-143673218D01*
X114558529Y-143683446D01*
X114536007Y-143691504D01*
X114512803Y-143697316D01*
X114489142Y-143700826D01*
X114465250Y-143702000D01*
X113977750Y-143702000D01*
X113953858Y-143700826D01*
X113930197Y-143697316D01*
X113906993Y-143691504D01*
X113884471Y-143683446D01*
X113862847Y-143673218D01*
X113842330Y-143660921D01*
X113823117Y-143646671D01*
X113805393Y-143630607D01*
X113789329Y-143612883D01*
X113775079Y-143593670D01*
X113762782Y-143573153D01*
X113752554Y-143551529D01*
X113744496Y-143529007D01*
X113738684Y-143505803D01*
X113735174Y-143482142D01*
X113734000Y-143458250D01*
X113734000Y-142545750D01*
X113735174Y-142521858D01*
X113738684Y-142498197D01*
X113744496Y-142474993D01*
X113752554Y-142452471D01*
X113762782Y-142430847D01*
X113775079Y-142410330D01*
X113789329Y-142391117D01*
X113805393Y-142373393D01*
X113823117Y-142357329D01*
X113842330Y-142343079D01*
X113862847Y-142330782D01*
X113884471Y-142320554D01*
X113906993Y-142312496D01*
X113930197Y-142306684D01*
X113953858Y-142303174D01*
X113977750Y-142302000D01*
X114465250Y-142302000D01*
X114489142Y-142303174D01*
G37*
G36*
X114489142Y-139001174D02*
G01*
X114512803Y-139004684D01*
X114536007Y-139010496D01*
X114558529Y-139018554D01*
X114580153Y-139028782D01*
X114600670Y-139041079D01*
X114619883Y-139055329D01*
X114637607Y-139071393D01*
X114653671Y-139089117D01*
X114667921Y-139108330D01*
X114680218Y-139128847D01*
X114690446Y-139150471D01*
X114698504Y-139172993D01*
X114704316Y-139196197D01*
X114707826Y-139219858D01*
X114709000Y-139243750D01*
X114709000Y-140156250D01*
X114707826Y-140180142D01*
X114704316Y-140203803D01*
X114698504Y-140227007D01*
X114690446Y-140249529D01*
X114680218Y-140271153D01*
X114667921Y-140291670D01*
X114653671Y-140310883D01*
X114637607Y-140328607D01*
X114619883Y-140344671D01*
X114600670Y-140358921D01*
X114580153Y-140371218D01*
X114558529Y-140381446D01*
X114536007Y-140389504D01*
X114512803Y-140395316D01*
X114489142Y-140398826D01*
X114465250Y-140400000D01*
X113977750Y-140400000D01*
X113953858Y-140398826D01*
X113930197Y-140395316D01*
X113906993Y-140389504D01*
X113884471Y-140381446D01*
X113862847Y-140371218D01*
X113842330Y-140358921D01*
X113823117Y-140344671D01*
X113805393Y-140328607D01*
X113789329Y-140310883D01*
X113775079Y-140291670D01*
X113762782Y-140271153D01*
X113752554Y-140249529D01*
X113744496Y-140227007D01*
X113738684Y-140203803D01*
X113735174Y-140180142D01*
X113734000Y-140156250D01*
X113734000Y-139243750D01*
X113735174Y-139219858D01*
X113738684Y-139196197D01*
X113744496Y-139172993D01*
X113752554Y-139150471D01*
X113762782Y-139128847D01*
X113775079Y-139108330D01*
X113789329Y-139089117D01*
X113805393Y-139071393D01*
X113823117Y-139055329D01*
X113842330Y-139041079D01*
X113862847Y-139028782D01*
X113884471Y-139018554D01*
X113906993Y-139010496D01*
X113930197Y-139004684D01*
X113953858Y-139001174D01*
X113977750Y-139000000D01*
X114465250Y-139000000D01*
X114489142Y-139001174D01*
G37*
G36*
X112614142Y-139001174D02*
G01*
X112637803Y-139004684D01*
X112661007Y-139010496D01*
X112683529Y-139018554D01*
X112705153Y-139028782D01*
X112725670Y-139041079D01*
X112744883Y-139055329D01*
X112762607Y-139071393D01*
X112778671Y-139089117D01*
X112792921Y-139108330D01*
X112805218Y-139128847D01*
X112815446Y-139150471D01*
X112823504Y-139172993D01*
X112829316Y-139196197D01*
X112832826Y-139219858D01*
X112834000Y-139243750D01*
X112834000Y-140156250D01*
X112832826Y-140180142D01*
X112829316Y-140203803D01*
X112823504Y-140227007D01*
X112815446Y-140249529D01*
X112805218Y-140271153D01*
X112792921Y-140291670D01*
X112778671Y-140310883D01*
X112762607Y-140328607D01*
X112744883Y-140344671D01*
X112725670Y-140358921D01*
X112705153Y-140371218D01*
X112683529Y-140381446D01*
X112661007Y-140389504D01*
X112637803Y-140395316D01*
X112614142Y-140398826D01*
X112590250Y-140400000D01*
X112102750Y-140400000D01*
X112078858Y-140398826D01*
X112055197Y-140395316D01*
X112031993Y-140389504D01*
X112009471Y-140381446D01*
X111987847Y-140371218D01*
X111967330Y-140358921D01*
X111948117Y-140344671D01*
X111930393Y-140328607D01*
X111914329Y-140310883D01*
X111900079Y-140291670D01*
X111887782Y-140271153D01*
X111877554Y-140249529D01*
X111869496Y-140227007D01*
X111863684Y-140203803D01*
X111860174Y-140180142D01*
X111859000Y-140156250D01*
X111859000Y-139243750D01*
X111860174Y-139219858D01*
X111863684Y-139196197D01*
X111869496Y-139172993D01*
X111877554Y-139150471D01*
X111887782Y-139128847D01*
X111900079Y-139108330D01*
X111914329Y-139089117D01*
X111930393Y-139071393D01*
X111948117Y-139055329D01*
X111967330Y-139041079D01*
X111987847Y-139028782D01*
X112009471Y-139018554D01*
X112031993Y-139010496D01*
X112055197Y-139004684D01*
X112078858Y-139001174D01*
X112102750Y-139000000D01*
X112590250Y-139000000D01*
X112614142Y-139001174D01*
G37*
G36*
X112868142Y-113093174D02*
G01*
X112891803Y-113096684D01*
X112915007Y-113102496D01*
X112937529Y-113110554D01*
X112959153Y-113120782D01*
X112979670Y-113133079D01*
X112998883Y-113147329D01*
X113016607Y-113163393D01*
X113032671Y-113181117D01*
X113046921Y-113200330D01*
X113059218Y-113220847D01*
X113069446Y-113242471D01*
X113077504Y-113264993D01*
X113083316Y-113288197D01*
X113086826Y-113311858D01*
X113088000Y-113335750D01*
X113088000Y-114248250D01*
X113086826Y-114272142D01*
X113083316Y-114295803D01*
X113077504Y-114319007D01*
X113069446Y-114341529D01*
X113059218Y-114363153D01*
X113046921Y-114383670D01*
X113032671Y-114402883D01*
X113016607Y-114420607D01*
X112998883Y-114436671D01*
X112979670Y-114450921D01*
X112959153Y-114463218D01*
X112937529Y-114473446D01*
X112915007Y-114481504D01*
X112891803Y-114487316D01*
X112868142Y-114490826D01*
X112844250Y-114492000D01*
X112356750Y-114492000D01*
X112332858Y-114490826D01*
X112309197Y-114487316D01*
X112285993Y-114481504D01*
X112263471Y-114473446D01*
X112241847Y-114463218D01*
X112221330Y-114450921D01*
X112202117Y-114436671D01*
X112184393Y-114420607D01*
X112168329Y-114402883D01*
X112154079Y-114383670D01*
X112141782Y-114363153D01*
X112131554Y-114341529D01*
X112123496Y-114319007D01*
X112117684Y-114295803D01*
X112114174Y-114272142D01*
X112113000Y-114248250D01*
X112113000Y-113335750D01*
X112114174Y-113311858D01*
X112117684Y-113288197D01*
X112123496Y-113264993D01*
X112131554Y-113242471D01*
X112141782Y-113220847D01*
X112154079Y-113200330D01*
X112168329Y-113181117D01*
X112184393Y-113163393D01*
X112202117Y-113147329D01*
X112221330Y-113133079D01*
X112241847Y-113120782D01*
X112263471Y-113110554D01*
X112285993Y-113102496D01*
X112309197Y-113096684D01*
X112332858Y-113093174D01*
X112356750Y-113092000D01*
X112844250Y-113092000D01*
X112868142Y-113093174D01*
G37*
G36*
X114743142Y-113093174D02*
G01*
X114766803Y-113096684D01*
X114790007Y-113102496D01*
X114812529Y-113110554D01*
X114834153Y-113120782D01*
X114854670Y-113133079D01*
X114873883Y-113147329D01*
X114891607Y-113163393D01*
X114907671Y-113181117D01*
X114921921Y-113200330D01*
X114934218Y-113220847D01*
X114944446Y-113242471D01*
X114952504Y-113264993D01*
X114958316Y-113288197D01*
X114961826Y-113311858D01*
X114963000Y-113335750D01*
X114963000Y-114248250D01*
X114961826Y-114272142D01*
X114958316Y-114295803D01*
X114952504Y-114319007D01*
X114944446Y-114341529D01*
X114934218Y-114363153D01*
X114921921Y-114383670D01*
X114907671Y-114402883D01*
X114891607Y-114420607D01*
X114873883Y-114436671D01*
X114854670Y-114450921D01*
X114834153Y-114463218D01*
X114812529Y-114473446D01*
X114790007Y-114481504D01*
X114766803Y-114487316D01*
X114743142Y-114490826D01*
X114719250Y-114492000D01*
X114231750Y-114492000D01*
X114207858Y-114490826D01*
X114184197Y-114487316D01*
X114160993Y-114481504D01*
X114138471Y-114473446D01*
X114116847Y-114463218D01*
X114096330Y-114450921D01*
X114077117Y-114436671D01*
X114059393Y-114420607D01*
X114043329Y-114402883D01*
X114029079Y-114383670D01*
X114016782Y-114363153D01*
X114006554Y-114341529D01*
X113998496Y-114319007D01*
X113992684Y-114295803D01*
X113989174Y-114272142D01*
X113988000Y-114248250D01*
X113988000Y-113335750D01*
X113989174Y-113311858D01*
X113992684Y-113288197D01*
X113998496Y-113264993D01*
X114006554Y-113242471D01*
X114016782Y-113220847D01*
X114029079Y-113200330D01*
X114043329Y-113181117D01*
X114059393Y-113163393D01*
X114077117Y-113147329D01*
X114096330Y-113133079D01*
X114116847Y-113120782D01*
X114138471Y-113110554D01*
X114160993Y-113102496D01*
X114184197Y-113096684D01*
X114207858Y-113093174D01*
X114231750Y-113092000D01*
X114719250Y-113092000D01*
X114743142Y-113093174D01*
G37*
G36*
X114743142Y-109791174D02*
G01*
X114766803Y-109794684D01*
X114790007Y-109800496D01*
X114812529Y-109808554D01*
X114834153Y-109818782D01*
X114854670Y-109831079D01*
X114873883Y-109845329D01*
X114891607Y-109861393D01*
X114907671Y-109879117D01*
X114921921Y-109898330D01*
X114934218Y-109918847D01*
X114944446Y-109940471D01*
X114952504Y-109962993D01*
X114958316Y-109986197D01*
X114961826Y-110009858D01*
X114963000Y-110033750D01*
X114963000Y-110946250D01*
X114961826Y-110970142D01*
X114958316Y-110993803D01*
X114952504Y-111017007D01*
X114944446Y-111039529D01*
X114934218Y-111061153D01*
X114921921Y-111081670D01*
X114907671Y-111100883D01*
X114891607Y-111118607D01*
X114873883Y-111134671D01*
X114854670Y-111148921D01*
X114834153Y-111161218D01*
X114812529Y-111171446D01*
X114790007Y-111179504D01*
X114766803Y-111185316D01*
X114743142Y-111188826D01*
X114719250Y-111190000D01*
X114231750Y-111190000D01*
X114207858Y-111188826D01*
X114184197Y-111185316D01*
X114160993Y-111179504D01*
X114138471Y-111171446D01*
X114116847Y-111161218D01*
X114096330Y-111148921D01*
X114077117Y-111134671D01*
X114059393Y-111118607D01*
X114043329Y-111100883D01*
X114029079Y-111081670D01*
X114016782Y-111061153D01*
X114006554Y-111039529D01*
X113998496Y-111017007D01*
X113992684Y-110993803D01*
X113989174Y-110970142D01*
X113988000Y-110946250D01*
X113988000Y-110033750D01*
X113989174Y-110009858D01*
X113992684Y-109986197D01*
X113998496Y-109962993D01*
X114006554Y-109940471D01*
X114016782Y-109918847D01*
X114029079Y-109898330D01*
X114043329Y-109879117D01*
X114059393Y-109861393D01*
X114077117Y-109845329D01*
X114096330Y-109831079D01*
X114116847Y-109818782D01*
X114138471Y-109808554D01*
X114160993Y-109800496D01*
X114184197Y-109794684D01*
X114207858Y-109791174D01*
X114231750Y-109790000D01*
X114719250Y-109790000D01*
X114743142Y-109791174D01*
G37*
G36*
X112868142Y-109791174D02*
G01*
X112891803Y-109794684D01*
X112915007Y-109800496D01*
X112937529Y-109808554D01*
X112959153Y-109818782D01*
X112979670Y-109831079D01*
X112998883Y-109845329D01*
X113016607Y-109861393D01*
X113032671Y-109879117D01*
X113046921Y-109898330D01*
X113059218Y-109918847D01*
X113069446Y-109940471D01*
X113077504Y-109962993D01*
X113083316Y-109986197D01*
X113086826Y-110009858D01*
X113088000Y-110033750D01*
X113088000Y-110946250D01*
X113086826Y-110970142D01*
X113083316Y-110993803D01*
X113077504Y-111017007D01*
X113069446Y-111039529D01*
X113059218Y-111061153D01*
X113046921Y-111081670D01*
X113032671Y-111100883D01*
X113016607Y-111118607D01*
X112998883Y-111134671D01*
X112979670Y-111148921D01*
X112959153Y-111161218D01*
X112937529Y-111171446D01*
X112915007Y-111179504D01*
X112891803Y-111185316D01*
X112868142Y-111188826D01*
X112844250Y-111190000D01*
X112356750Y-111190000D01*
X112332858Y-111188826D01*
X112309197Y-111185316D01*
X112285993Y-111179504D01*
X112263471Y-111171446D01*
X112241847Y-111161218D01*
X112221330Y-111148921D01*
X112202117Y-111134671D01*
X112184393Y-111118607D01*
X112168329Y-111100883D01*
X112154079Y-111081670D01*
X112141782Y-111061153D01*
X112131554Y-111039529D01*
X112123496Y-111017007D01*
X112117684Y-110993803D01*
X112114174Y-110970142D01*
X112113000Y-110946250D01*
X112113000Y-110033750D01*
X112114174Y-110009858D01*
X112117684Y-109986197D01*
X112123496Y-109962993D01*
X112131554Y-109940471D01*
X112141782Y-109918847D01*
X112154079Y-109898330D01*
X112168329Y-109879117D01*
X112184393Y-109861393D01*
X112202117Y-109845329D01*
X112221330Y-109831079D01*
X112241847Y-109818782D01*
X112263471Y-109808554D01*
X112285993Y-109800496D01*
X112309197Y-109794684D01*
X112332858Y-109791174D01*
X112356750Y-109790000D01*
X112844250Y-109790000D01*
X112868142Y-109791174D01*
G37*
G36*
X108164062Y-126781234D02*
G01*
X108187723Y-126784744D01*
X108210927Y-126790556D01*
X108233449Y-126798614D01*
X108255073Y-126808842D01*
X108275590Y-126821139D01*
X108294803Y-126835389D01*
X108312527Y-126851453D01*
X108328591Y-126869177D01*
X108342841Y-126888390D01*
X108355138Y-126908907D01*
X108365366Y-126930531D01*
X108373424Y-126953053D01*
X108379236Y-126976257D01*
X108382746Y-126999918D01*
X108383920Y-127023810D01*
X108383920Y-127936310D01*
X108382746Y-127960202D01*
X108379236Y-127983863D01*
X108373424Y-128007067D01*
X108365366Y-128029589D01*
X108355138Y-128051213D01*
X108342841Y-128071730D01*
X108328591Y-128090943D01*
X108312527Y-128108667D01*
X108294803Y-128124731D01*
X108275590Y-128138981D01*
X108255073Y-128151278D01*
X108233449Y-128161506D01*
X108210927Y-128169564D01*
X108187723Y-128175376D01*
X108164062Y-128178886D01*
X108140170Y-128180060D01*
X107652670Y-128180060D01*
X107628778Y-128178886D01*
X107605117Y-128175376D01*
X107581913Y-128169564D01*
X107559391Y-128161506D01*
X107537767Y-128151278D01*
X107517250Y-128138981D01*
X107498037Y-128124731D01*
X107480313Y-128108667D01*
X107464249Y-128090943D01*
X107449999Y-128071730D01*
X107437702Y-128051213D01*
X107427474Y-128029589D01*
X107419416Y-128007067D01*
X107413604Y-127983863D01*
X107410094Y-127960202D01*
X107408920Y-127936310D01*
X107408920Y-127023810D01*
X107410094Y-126999918D01*
X107413604Y-126976257D01*
X107419416Y-126953053D01*
X107427474Y-126930531D01*
X107437702Y-126908907D01*
X107449999Y-126888390D01*
X107464249Y-126869177D01*
X107480313Y-126851453D01*
X107498037Y-126835389D01*
X107517250Y-126821139D01*
X107537767Y-126808842D01*
X107559391Y-126798614D01*
X107581913Y-126790556D01*
X107605117Y-126784744D01*
X107628778Y-126781234D01*
X107652670Y-126780060D01*
X108140170Y-126780060D01*
X108164062Y-126781234D01*
G37*
G36*
X110039062Y-126781234D02*
G01*
X110062723Y-126784744D01*
X110085927Y-126790556D01*
X110108449Y-126798614D01*
X110130073Y-126808842D01*
X110150590Y-126821139D01*
X110169803Y-126835389D01*
X110187527Y-126851453D01*
X110203591Y-126869177D01*
X110217841Y-126888390D01*
X110230138Y-126908907D01*
X110240366Y-126930531D01*
X110248424Y-126953053D01*
X110254236Y-126976257D01*
X110257746Y-126999918D01*
X110258920Y-127023810D01*
X110258920Y-127936310D01*
X110257746Y-127960202D01*
X110254236Y-127983863D01*
X110248424Y-128007067D01*
X110240366Y-128029589D01*
X110230138Y-128051213D01*
X110217841Y-128071730D01*
X110203591Y-128090943D01*
X110187527Y-128108667D01*
X110169803Y-128124731D01*
X110150590Y-128138981D01*
X110130073Y-128151278D01*
X110108449Y-128161506D01*
X110085927Y-128169564D01*
X110062723Y-128175376D01*
X110039062Y-128178886D01*
X110015170Y-128180060D01*
X109527670Y-128180060D01*
X109503778Y-128178886D01*
X109480117Y-128175376D01*
X109456913Y-128169564D01*
X109434391Y-128161506D01*
X109412767Y-128151278D01*
X109392250Y-128138981D01*
X109373037Y-128124731D01*
X109355313Y-128108667D01*
X109339249Y-128090943D01*
X109324999Y-128071730D01*
X109312702Y-128051213D01*
X109302474Y-128029589D01*
X109294416Y-128007067D01*
X109288604Y-127983863D01*
X109285094Y-127960202D01*
X109283920Y-127936310D01*
X109283920Y-127023810D01*
X109285094Y-126999918D01*
X109288604Y-126976257D01*
X109294416Y-126953053D01*
X109302474Y-126930531D01*
X109312702Y-126908907D01*
X109324999Y-126888390D01*
X109339249Y-126869177D01*
X109355313Y-126851453D01*
X109373037Y-126835389D01*
X109392250Y-126821139D01*
X109412767Y-126808842D01*
X109434391Y-126798614D01*
X109456913Y-126790556D01*
X109480117Y-126784744D01*
X109503778Y-126781234D01*
X109527670Y-126780060D01*
X110015170Y-126780060D01*
X110039062Y-126781234D01*
G37*
G36*
X108095482Y-130482014D02*
G01*
X108119143Y-130485524D01*
X108142347Y-130491336D01*
X108164869Y-130499394D01*
X108186493Y-130509622D01*
X108207010Y-130521919D01*
X108226223Y-130536169D01*
X108243947Y-130552233D01*
X108260011Y-130569957D01*
X108274261Y-130589170D01*
X108286558Y-130609687D01*
X108296786Y-130631311D01*
X108304844Y-130653833D01*
X108310656Y-130677037D01*
X108314166Y-130700698D01*
X108315340Y-130724590D01*
X108315340Y-131637090D01*
X108314166Y-131660982D01*
X108310656Y-131684643D01*
X108304844Y-131707847D01*
X108296786Y-131730369D01*
X108286558Y-131751993D01*
X108274261Y-131772510D01*
X108260011Y-131791723D01*
X108243947Y-131809447D01*
X108226223Y-131825511D01*
X108207010Y-131839761D01*
X108186493Y-131852058D01*
X108164869Y-131862286D01*
X108142347Y-131870344D01*
X108119143Y-131876156D01*
X108095482Y-131879666D01*
X108071590Y-131880840D01*
X107584090Y-131880840D01*
X107560198Y-131879666D01*
X107536537Y-131876156D01*
X107513333Y-131870344D01*
X107490811Y-131862286D01*
X107469187Y-131852058D01*
X107448670Y-131839761D01*
X107429457Y-131825511D01*
X107411733Y-131809447D01*
X107395669Y-131791723D01*
X107381419Y-131772510D01*
X107369122Y-131751993D01*
X107358894Y-131730369D01*
X107350836Y-131707847D01*
X107345024Y-131684643D01*
X107341514Y-131660982D01*
X107340340Y-131637090D01*
X107340340Y-130724590D01*
X107341514Y-130700698D01*
X107345024Y-130677037D01*
X107350836Y-130653833D01*
X107358894Y-130631311D01*
X107369122Y-130609687D01*
X107381419Y-130589170D01*
X107395669Y-130569957D01*
X107411733Y-130552233D01*
X107429457Y-130536169D01*
X107448670Y-130521919D01*
X107469187Y-130509622D01*
X107490811Y-130499394D01*
X107513333Y-130491336D01*
X107536537Y-130485524D01*
X107560198Y-130482014D01*
X107584090Y-130480840D01*
X108071590Y-130480840D01*
X108095482Y-130482014D01*
G37*
G36*
X109970482Y-130482014D02*
G01*
X109994143Y-130485524D01*
X110017347Y-130491336D01*
X110039869Y-130499394D01*
X110061493Y-130509622D01*
X110082010Y-130521919D01*
X110101223Y-130536169D01*
X110118947Y-130552233D01*
X110135011Y-130569957D01*
X110149261Y-130589170D01*
X110161558Y-130609687D01*
X110171786Y-130631311D01*
X110179844Y-130653833D01*
X110185656Y-130677037D01*
X110189166Y-130700698D01*
X110190340Y-130724590D01*
X110190340Y-131637090D01*
X110189166Y-131660982D01*
X110185656Y-131684643D01*
X110179844Y-131707847D01*
X110171786Y-131730369D01*
X110161558Y-131751993D01*
X110149261Y-131772510D01*
X110135011Y-131791723D01*
X110118947Y-131809447D01*
X110101223Y-131825511D01*
X110082010Y-131839761D01*
X110061493Y-131852058D01*
X110039869Y-131862286D01*
X110017347Y-131870344D01*
X109994143Y-131876156D01*
X109970482Y-131879666D01*
X109946590Y-131880840D01*
X109459090Y-131880840D01*
X109435198Y-131879666D01*
X109411537Y-131876156D01*
X109388333Y-131870344D01*
X109365811Y-131862286D01*
X109344187Y-131852058D01*
X109323670Y-131839761D01*
X109304457Y-131825511D01*
X109286733Y-131809447D01*
X109270669Y-131791723D01*
X109256419Y-131772510D01*
X109244122Y-131751993D01*
X109233894Y-131730369D01*
X109225836Y-131707847D01*
X109220024Y-131684643D01*
X109216514Y-131660982D01*
X109215340Y-131637090D01*
X109215340Y-130724590D01*
X109216514Y-130700698D01*
X109220024Y-130677037D01*
X109225836Y-130653833D01*
X109233894Y-130631311D01*
X109244122Y-130609687D01*
X109256419Y-130589170D01*
X109270669Y-130569957D01*
X109286733Y-130552233D01*
X109304457Y-130536169D01*
X109323670Y-130521919D01*
X109344187Y-130509622D01*
X109365811Y-130499394D01*
X109388333Y-130491336D01*
X109411537Y-130485524D01*
X109435198Y-130482014D01*
X109459090Y-130480840D01*
X109946590Y-130480840D01*
X109970482Y-130482014D01*
G37*
G36*
X106906142Y-137103174D02*
G01*
X106929803Y-137106684D01*
X106953007Y-137112496D01*
X106975529Y-137120554D01*
X106997153Y-137130782D01*
X107017670Y-137143079D01*
X107036883Y-137157329D01*
X107054607Y-137173393D01*
X107070671Y-137191117D01*
X107084921Y-137210330D01*
X107097218Y-137230847D01*
X107107446Y-137252471D01*
X107115504Y-137274993D01*
X107121316Y-137298197D01*
X107124826Y-137321858D01*
X107126000Y-137345750D01*
X107126000Y-137833250D01*
X107124826Y-137857142D01*
X107121316Y-137880803D01*
X107115504Y-137904007D01*
X107107446Y-137926529D01*
X107097218Y-137948153D01*
X107084921Y-137968670D01*
X107070671Y-137987883D01*
X107054607Y-138005607D01*
X107036883Y-138021671D01*
X107017670Y-138035921D01*
X106997153Y-138048218D01*
X106975529Y-138058446D01*
X106953007Y-138066504D01*
X106929803Y-138072316D01*
X106906142Y-138075826D01*
X106882250Y-138077000D01*
X105969750Y-138077000D01*
X105945858Y-138075826D01*
X105922197Y-138072316D01*
X105898993Y-138066504D01*
X105876471Y-138058446D01*
X105854847Y-138048218D01*
X105834330Y-138035921D01*
X105815117Y-138021671D01*
X105797393Y-138005607D01*
X105781329Y-137987883D01*
X105767079Y-137968670D01*
X105754782Y-137948153D01*
X105744554Y-137926529D01*
X105736496Y-137904007D01*
X105730684Y-137880803D01*
X105727174Y-137857142D01*
X105726000Y-137833250D01*
X105726000Y-137345750D01*
X105727174Y-137321858D01*
X105730684Y-137298197D01*
X105736496Y-137274993D01*
X105744554Y-137252471D01*
X105754782Y-137230847D01*
X105767079Y-137210330D01*
X105781329Y-137191117D01*
X105797393Y-137173393D01*
X105815117Y-137157329D01*
X105834330Y-137143079D01*
X105854847Y-137130782D01*
X105876471Y-137120554D01*
X105898993Y-137112496D01*
X105922197Y-137106684D01*
X105945858Y-137103174D01*
X105969750Y-137102000D01*
X106882250Y-137102000D01*
X106906142Y-137103174D01*
G37*
G36*
X106906142Y-135228174D02*
G01*
X106929803Y-135231684D01*
X106953007Y-135237496D01*
X106975529Y-135245554D01*
X106997153Y-135255782D01*
X107017670Y-135268079D01*
X107036883Y-135282329D01*
X107054607Y-135298393D01*
X107070671Y-135316117D01*
X107084921Y-135335330D01*
X107097218Y-135355847D01*
X107107446Y-135377471D01*
X107115504Y-135399993D01*
X107121316Y-135423197D01*
X107124826Y-135446858D01*
X107126000Y-135470750D01*
X107126000Y-135958250D01*
X107124826Y-135982142D01*
X107121316Y-136005803D01*
X107115504Y-136029007D01*
X107107446Y-136051529D01*
X107097218Y-136073153D01*
X107084921Y-136093670D01*
X107070671Y-136112883D01*
X107054607Y-136130607D01*
X107036883Y-136146671D01*
X107017670Y-136160921D01*
X106997153Y-136173218D01*
X106975529Y-136183446D01*
X106953007Y-136191504D01*
X106929803Y-136197316D01*
X106906142Y-136200826D01*
X106882250Y-136202000D01*
X105969750Y-136202000D01*
X105945858Y-136200826D01*
X105922197Y-136197316D01*
X105898993Y-136191504D01*
X105876471Y-136183446D01*
X105854847Y-136173218D01*
X105834330Y-136160921D01*
X105815117Y-136146671D01*
X105797393Y-136130607D01*
X105781329Y-136112883D01*
X105767079Y-136093670D01*
X105754782Y-136073153D01*
X105744554Y-136051529D01*
X105736496Y-136029007D01*
X105730684Y-136005803D01*
X105727174Y-135982142D01*
X105726000Y-135958250D01*
X105726000Y-135470750D01*
X105727174Y-135446858D01*
X105730684Y-135423197D01*
X105736496Y-135399993D01*
X105744554Y-135377471D01*
X105754782Y-135355847D01*
X105767079Y-135335330D01*
X105781329Y-135316117D01*
X105797393Y-135298393D01*
X105815117Y-135282329D01*
X105834330Y-135268079D01*
X105854847Y-135255782D01*
X105876471Y-135245554D01*
X105898993Y-135237496D01*
X105922197Y-135231684D01*
X105945858Y-135228174D01*
X105969750Y-135227000D01*
X106882250Y-135227000D01*
X106906142Y-135228174D01*
G37*
G36*
X107160142Y-123641174D02*
G01*
X107183803Y-123644684D01*
X107207007Y-123650496D01*
X107229529Y-123658554D01*
X107251153Y-123668782D01*
X107271670Y-123681079D01*
X107290883Y-123695329D01*
X107308607Y-123711393D01*
X107324671Y-123729117D01*
X107338921Y-123748330D01*
X107351218Y-123768847D01*
X107361446Y-123790471D01*
X107369504Y-123812993D01*
X107375316Y-123836197D01*
X107378826Y-123859858D01*
X107380000Y-123883750D01*
X107380000Y-124371250D01*
X107378826Y-124395142D01*
X107375316Y-124418803D01*
X107369504Y-124442007D01*
X107361446Y-124464529D01*
X107351218Y-124486153D01*
X107338921Y-124506670D01*
X107324671Y-124525883D01*
X107308607Y-124543607D01*
X107290883Y-124559671D01*
X107271670Y-124573921D01*
X107251153Y-124586218D01*
X107229529Y-124596446D01*
X107207007Y-124604504D01*
X107183803Y-124610316D01*
X107160142Y-124613826D01*
X107136250Y-124615000D01*
X106223750Y-124615000D01*
X106199858Y-124613826D01*
X106176197Y-124610316D01*
X106152993Y-124604504D01*
X106130471Y-124596446D01*
X106108847Y-124586218D01*
X106088330Y-124573921D01*
X106069117Y-124559671D01*
X106051393Y-124543607D01*
X106035329Y-124525883D01*
X106021079Y-124506670D01*
X106008782Y-124486153D01*
X105998554Y-124464529D01*
X105990496Y-124442007D01*
X105984684Y-124418803D01*
X105981174Y-124395142D01*
X105980000Y-124371250D01*
X105980000Y-123883750D01*
X105981174Y-123859858D01*
X105984684Y-123836197D01*
X105990496Y-123812993D01*
X105998554Y-123790471D01*
X106008782Y-123768847D01*
X106021079Y-123748330D01*
X106035329Y-123729117D01*
X106051393Y-123711393D01*
X106069117Y-123695329D01*
X106088330Y-123681079D01*
X106108847Y-123668782D01*
X106130471Y-123658554D01*
X106152993Y-123650496D01*
X106176197Y-123644684D01*
X106199858Y-123641174D01*
X106223750Y-123640000D01*
X107136250Y-123640000D01*
X107160142Y-123641174D01*
G37*
G36*
X107160142Y-121766174D02*
G01*
X107183803Y-121769684D01*
X107207007Y-121775496D01*
X107229529Y-121783554D01*
X107251153Y-121793782D01*
X107271670Y-121806079D01*
X107290883Y-121820329D01*
X107308607Y-121836393D01*
X107324671Y-121854117D01*
X107338921Y-121873330D01*
X107351218Y-121893847D01*
X107361446Y-121915471D01*
X107369504Y-121937993D01*
X107375316Y-121961197D01*
X107378826Y-121984858D01*
X107380000Y-122008750D01*
X107380000Y-122496250D01*
X107378826Y-122520142D01*
X107375316Y-122543803D01*
X107369504Y-122567007D01*
X107361446Y-122589529D01*
X107351218Y-122611153D01*
X107338921Y-122631670D01*
X107324671Y-122650883D01*
X107308607Y-122668607D01*
X107290883Y-122684671D01*
X107271670Y-122698921D01*
X107251153Y-122711218D01*
X107229529Y-122721446D01*
X107207007Y-122729504D01*
X107183803Y-122735316D01*
X107160142Y-122738826D01*
X107136250Y-122740000D01*
X106223750Y-122740000D01*
X106199858Y-122738826D01*
X106176197Y-122735316D01*
X106152993Y-122729504D01*
X106130471Y-122721446D01*
X106108847Y-122711218D01*
X106088330Y-122698921D01*
X106069117Y-122684671D01*
X106051393Y-122668607D01*
X106035329Y-122650883D01*
X106021079Y-122631670D01*
X106008782Y-122611153D01*
X105998554Y-122589529D01*
X105990496Y-122567007D01*
X105984684Y-122543803D01*
X105981174Y-122520142D01*
X105980000Y-122496250D01*
X105980000Y-122008750D01*
X105981174Y-121984858D01*
X105984684Y-121961197D01*
X105990496Y-121937993D01*
X105998554Y-121915471D01*
X106008782Y-121893847D01*
X106021079Y-121873330D01*
X106035329Y-121854117D01*
X106051393Y-121836393D01*
X106069117Y-121820329D01*
X106088330Y-121806079D01*
X106108847Y-121793782D01*
X106130471Y-121783554D01*
X106152993Y-121775496D01*
X106176197Y-121769684D01*
X106199858Y-121766174D01*
X106223750Y-121765000D01*
X107136250Y-121765000D01*
X107160142Y-121766174D01*
G37*
G36*
X98016142Y-123641174D02*
G01*
X98039803Y-123644684D01*
X98063007Y-123650496D01*
X98085529Y-123658554D01*
X98107153Y-123668782D01*
X98127670Y-123681079D01*
X98146883Y-123695329D01*
X98164607Y-123711393D01*
X98180671Y-123729117D01*
X98194921Y-123748330D01*
X98207218Y-123768847D01*
X98217446Y-123790471D01*
X98225504Y-123812993D01*
X98231316Y-123836197D01*
X98234826Y-123859858D01*
X98236000Y-123883750D01*
X98236000Y-124371250D01*
X98234826Y-124395142D01*
X98231316Y-124418803D01*
X98225504Y-124442007D01*
X98217446Y-124464529D01*
X98207218Y-124486153D01*
X98194921Y-124506670D01*
X98180671Y-124525883D01*
X98164607Y-124543607D01*
X98146883Y-124559671D01*
X98127670Y-124573921D01*
X98107153Y-124586218D01*
X98085529Y-124596446D01*
X98063007Y-124604504D01*
X98039803Y-124610316D01*
X98016142Y-124613826D01*
X97992250Y-124615000D01*
X97079750Y-124615000D01*
X97055858Y-124613826D01*
X97032197Y-124610316D01*
X97008993Y-124604504D01*
X96986471Y-124596446D01*
X96964847Y-124586218D01*
X96944330Y-124573921D01*
X96925117Y-124559671D01*
X96907393Y-124543607D01*
X96891329Y-124525883D01*
X96877079Y-124506670D01*
X96864782Y-124486153D01*
X96854554Y-124464529D01*
X96846496Y-124442007D01*
X96840684Y-124418803D01*
X96837174Y-124395142D01*
X96836000Y-124371250D01*
X96836000Y-123883750D01*
X96837174Y-123859858D01*
X96840684Y-123836197D01*
X96846496Y-123812993D01*
X96854554Y-123790471D01*
X96864782Y-123768847D01*
X96877079Y-123748330D01*
X96891329Y-123729117D01*
X96907393Y-123711393D01*
X96925117Y-123695329D01*
X96944330Y-123681079D01*
X96964847Y-123668782D01*
X96986471Y-123658554D01*
X97008993Y-123650496D01*
X97032197Y-123644684D01*
X97055858Y-123641174D01*
X97079750Y-123640000D01*
X97992250Y-123640000D01*
X98016142Y-123641174D01*
G37*
G36*
X98016142Y-121766174D02*
G01*
X98039803Y-121769684D01*
X98063007Y-121775496D01*
X98085529Y-121783554D01*
X98107153Y-121793782D01*
X98127670Y-121806079D01*
X98146883Y-121820329D01*
X98164607Y-121836393D01*
X98180671Y-121854117D01*
X98194921Y-121873330D01*
X98207218Y-121893847D01*
X98217446Y-121915471D01*
X98225504Y-121937993D01*
X98231316Y-121961197D01*
X98234826Y-121984858D01*
X98236000Y-122008750D01*
X98236000Y-122496250D01*
X98234826Y-122520142D01*
X98231316Y-122543803D01*
X98225504Y-122567007D01*
X98217446Y-122589529D01*
X98207218Y-122611153D01*
X98194921Y-122631670D01*
X98180671Y-122650883D01*
X98164607Y-122668607D01*
X98146883Y-122684671D01*
X98127670Y-122698921D01*
X98107153Y-122711218D01*
X98085529Y-122721446D01*
X98063007Y-122729504D01*
X98039803Y-122735316D01*
X98016142Y-122738826D01*
X97992250Y-122740000D01*
X97079750Y-122740000D01*
X97055858Y-122738826D01*
X97032197Y-122735316D01*
X97008993Y-122729504D01*
X96986471Y-122721446D01*
X96964847Y-122711218D01*
X96944330Y-122698921D01*
X96925117Y-122684671D01*
X96907393Y-122668607D01*
X96891329Y-122650883D01*
X96877079Y-122631670D01*
X96864782Y-122611153D01*
X96854554Y-122589529D01*
X96846496Y-122567007D01*
X96840684Y-122543803D01*
X96837174Y-122520142D01*
X96836000Y-122496250D01*
X96836000Y-122008750D01*
X96837174Y-121984858D01*
X96840684Y-121961197D01*
X96846496Y-121937993D01*
X96854554Y-121915471D01*
X96864782Y-121893847D01*
X96877079Y-121873330D01*
X96891329Y-121854117D01*
X96907393Y-121836393D01*
X96925117Y-121820329D01*
X96944330Y-121806079D01*
X96964847Y-121793782D01*
X96986471Y-121783554D01*
X97008993Y-121775496D01*
X97032197Y-121769684D01*
X97055858Y-121766174D01*
X97079750Y-121765000D01*
X97992250Y-121765000D01*
X98016142Y-121766174D01*
G37*
G36*
X98016142Y-137103174D02*
G01*
X98039803Y-137106684D01*
X98063007Y-137112496D01*
X98085529Y-137120554D01*
X98107153Y-137130782D01*
X98127670Y-137143079D01*
X98146883Y-137157329D01*
X98164607Y-137173393D01*
X98180671Y-137191117D01*
X98194921Y-137210330D01*
X98207218Y-137230847D01*
X98217446Y-137252471D01*
X98225504Y-137274993D01*
X98231316Y-137298197D01*
X98234826Y-137321858D01*
X98236000Y-137345750D01*
X98236000Y-137833250D01*
X98234826Y-137857142D01*
X98231316Y-137880803D01*
X98225504Y-137904007D01*
X98217446Y-137926529D01*
X98207218Y-137948153D01*
X98194921Y-137968670D01*
X98180671Y-137987883D01*
X98164607Y-138005607D01*
X98146883Y-138021671D01*
X98127670Y-138035921D01*
X98107153Y-138048218D01*
X98085529Y-138058446D01*
X98063007Y-138066504D01*
X98039803Y-138072316D01*
X98016142Y-138075826D01*
X97992250Y-138077000D01*
X97079750Y-138077000D01*
X97055858Y-138075826D01*
X97032197Y-138072316D01*
X97008993Y-138066504D01*
X96986471Y-138058446D01*
X96964847Y-138048218D01*
X96944330Y-138035921D01*
X96925117Y-138021671D01*
X96907393Y-138005607D01*
X96891329Y-137987883D01*
X96877079Y-137968670D01*
X96864782Y-137948153D01*
X96854554Y-137926529D01*
X96846496Y-137904007D01*
X96840684Y-137880803D01*
X96837174Y-137857142D01*
X96836000Y-137833250D01*
X96836000Y-137345750D01*
X96837174Y-137321858D01*
X96840684Y-137298197D01*
X96846496Y-137274993D01*
X96854554Y-137252471D01*
X96864782Y-137230847D01*
X96877079Y-137210330D01*
X96891329Y-137191117D01*
X96907393Y-137173393D01*
X96925117Y-137157329D01*
X96944330Y-137143079D01*
X96964847Y-137130782D01*
X96986471Y-137120554D01*
X97008993Y-137112496D01*
X97032197Y-137106684D01*
X97055858Y-137103174D01*
X97079750Y-137102000D01*
X97992250Y-137102000D01*
X98016142Y-137103174D01*
G37*
G36*
X98016142Y-135228174D02*
G01*
X98039803Y-135231684D01*
X98063007Y-135237496D01*
X98085529Y-135245554D01*
X98107153Y-135255782D01*
X98127670Y-135268079D01*
X98146883Y-135282329D01*
X98164607Y-135298393D01*
X98180671Y-135316117D01*
X98194921Y-135335330D01*
X98207218Y-135355847D01*
X98217446Y-135377471D01*
X98225504Y-135399993D01*
X98231316Y-135423197D01*
X98234826Y-135446858D01*
X98236000Y-135470750D01*
X98236000Y-135958250D01*
X98234826Y-135982142D01*
X98231316Y-136005803D01*
X98225504Y-136029007D01*
X98217446Y-136051529D01*
X98207218Y-136073153D01*
X98194921Y-136093670D01*
X98180671Y-136112883D01*
X98164607Y-136130607D01*
X98146883Y-136146671D01*
X98127670Y-136160921D01*
X98107153Y-136173218D01*
X98085529Y-136183446D01*
X98063007Y-136191504D01*
X98039803Y-136197316D01*
X98016142Y-136200826D01*
X97992250Y-136202000D01*
X97079750Y-136202000D01*
X97055858Y-136200826D01*
X97032197Y-136197316D01*
X97008993Y-136191504D01*
X96986471Y-136183446D01*
X96964847Y-136173218D01*
X96944330Y-136160921D01*
X96925117Y-136146671D01*
X96907393Y-136130607D01*
X96891329Y-136112883D01*
X96877079Y-136093670D01*
X96864782Y-136073153D01*
X96854554Y-136051529D01*
X96846496Y-136029007D01*
X96840684Y-136005803D01*
X96837174Y-135982142D01*
X96836000Y-135958250D01*
X96836000Y-135470750D01*
X96837174Y-135446858D01*
X96840684Y-135423197D01*
X96846496Y-135399993D01*
X96854554Y-135377471D01*
X96864782Y-135355847D01*
X96877079Y-135335330D01*
X96891329Y-135316117D01*
X96907393Y-135298393D01*
X96925117Y-135282329D01*
X96944330Y-135268079D01*
X96964847Y-135255782D01*
X96986471Y-135245554D01*
X97008993Y-135237496D01*
X97032197Y-135231684D01*
X97055858Y-135228174D01*
X97079750Y-135227000D01*
X97992250Y-135227000D01*
X98016142Y-135228174D01*
G37*
G36*
X80707142Y-132651174D02*
G01*
X80730803Y-132654684D01*
X80754007Y-132660496D01*
X80776529Y-132668554D01*
X80798153Y-132678782D01*
X80818670Y-132691079D01*
X80837883Y-132705329D01*
X80855607Y-132721393D01*
X80871671Y-132739117D01*
X80885921Y-132758330D01*
X80898218Y-132778847D01*
X80908446Y-132800471D01*
X80916504Y-132822993D01*
X80922316Y-132846197D01*
X80925826Y-132869858D01*
X80927000Y-132893750D01*
X80927000Y-133806250D01*
X80925826Y-133830142D01*
X80922316Y-133853803D01*
X80916504Y-133877007D01*
X80908446Y-133899529D01*
X80898218Y-133921153D01*
X80885921Y-133941670D01*
X80871671Y-133960883D01*
X80855607Y-133978607D01*
X80837883Y-133994671D01*
X80818670Y-134008921D01*
X80798153Y-134021218D01*
X80776529Y-134031446D01*
X80754007Y-134039504D01*
X80730803Y-134045316D01*
X80707142Y-134048826D01*
X80683250Y-134050000D01*
X80195750Y-134050000D01*
X80171858Y-134048826D01*
X80148197Y-134045316D01*
X80124993Y-134039504D01*
X80102471Y-134031446D01*
X80080847Y-134021218D01*
X80060330Y-134008921D01*
X80041117Y-133994671D01*
X80023393Y-133978607D01*
X80007329Y-133960883D01*
X79993079Y-133941670D01*
X79980782Y-133921153D01*
X79970554Y-133899529D01*
X79962496Y-133877007D01*
X79956684Y-133853803D01*
X79953174Y-133830142D01*
X79952000Y-133806250D01*
X79952000Y-132893750D01*
X79953174Y-132869858D01*
X79956684Y-132846197D01*
X79962496Y-132822993D01*
X79970554Y-132800471D01*
X79980782Y-132778847D01*
X79993079Y-132758330D01*
X80007329Y-132739117D01*
X80023393Y-132721393D01*
X80041117Y-132705329D01*
X80060330Y-132691079D01*
X80080847Y-132678782D01*
X80102471Y-132668554D01*
X80124993Y-132660496D01*
X80148197Y-132654684D01*
X80171858Y-132651174D01*
X80195750Y-132650000D01*
X80683250Y-132650000D01*
X80707142Y-132651174D01*
G37*
G36*
X78832142Y-132651174D02*
G01*
X78855803Y-132654684D01*
X78879007Y-132660496D01*
X78901529Y-132668554D01*
X78923153Y-132678782D01*
X78943670Y-132691079D01*
X78962883Y-132705329D01*
X78980607Y-132721393D01*
X78996671Y-132739117D01*
X79010921Y-132758330D01*
X79023218Y-132778847D01*
X79033446Y-132800471D01*
X79041504Y-132822993D01*
X79047316Y-132846197D01*
X79050826Y-132869858D01*
X79052000Y-132893750D01*
X79052000Y-133806250D01*
X79050826Y-133830142D01*
X79047316Y-133853803D01*
X79041504Y-133877007D01*
X79033446Y-133899529D01*
X79023218Y-133921153D01*
X79010921Y-133941670D01*
X78996671Y-133960883D01*
X78980607Y-133978607D01*
X78962883Y-133994671D01*
X78943670Y-134008921D01*
X78923153Y-134021218D01*
X78901529Y-134031446D01*
X78879007Y-134039504D01*
X78855803Y-134045316D01*
X78832142Y-134048826D01*
X78808250Y-134050000D01*
X78320750Y-134050000D01*
X78296858Y-134048826D01*
X78273197Y-134045316D01*
X78249993Y-134039504D01*
X78227471Y-134031446D01*
X78205847Y-134021218D01*
X78185330Y-134008921D01*
X78166117Y-133994671D01*
X78148393Y-133978607D01*
X78132329Y-133960883D01*
X78118079Y-133941670D01*
X78105782Y-133921153D01*
X78095554Y-133899529D01*
X78087496Y-133877007D01*
X78081684Y-133853803D01*
X78078174Y-133830142D01*
X78077000Y-133806250D01*
X78077000Y-132893750D01*
X78078174Y-132869858D01*
X78081684Y-132846197D01*
X78087496Y-132822993D01*
X78095554Y-132800471D01*
X78105782Y-132778847D01*
X78118079Y-132758330D01*
X78132329Y-132739117D01*
X78148393Y-132721393D01*
X78166117Y-132705329D01*
X78185330Y-132691079D01*
X78205847Y-132678782D01*
X78227471Y-132668554D01*
X78249993Y-132660496D01*
X78273197Y-132654684D01*
X78296858Y-132651174D01*
X78320750Y-132650000D01*
X78808250Y-132650000D01*
X78832142Y-132651174D01*
G37*
G36*
X80707142Y-121475174D02*
G01*
X80730803Y-121478684D01*
X80754007Y-121484496D01*
X80776529Y-121492554D01*
X80798153Y-121502782D01*
X80818670Y-121515079D01*
X80837883Y-121529329D01*
X80855607Y-121545393D01*
X80871671Y-121563117D01*
X80885921Y-121582330D01*
X80898218Y-121602847D01*
X80908446Y-121624471D01*
X80916504Y-121646993D01*
X80922316Y-121670197D01*
X80925826Y-121693858D01*
X80927000Y-121717750D01*
X80927000Y-122630250D01*
X80925826Y-122654142D01*
X80922316Y-122677803D01*
X80916504Y-122701007D01*
X80908446Y-122723529D01*
X80898218Y-122745153D01*
X80885921Y-122765670D01*
X80871671Y-122784883D01*
X80855607Y-122802607D01*
X80837883Y-122818671D01*
X80818670Y-122832921D01*
X80798153Y-122845218D01*
X80776529Y-122855446D01*
X80754007Y-122863504D01*
X80730803Y-122869316D01*
X80707142Y-122872826D01*
X80683250Y-122874000D01*
X80195750Y-122874000D01*
X80171858Y-122872826D01*
X80148197Y-122869316D01*
X80124993Y-122863504D01*
X80102471Y-122855446D01*
X80080847Y-122845218D01*
X80060330Y-122832921D01*
X80041117Y-122818671D01*
X80023393Y-122802607D01*
X80007329Y-122784883D01*
X79993079Y-122765670D01*
X79980782Y-122745153D01*
X79970554Y-122723529D01*
X79962496Y-122701007D01*
X79956684Y-122677803D01*
X79953174Y-122654142D01*
X79952000Y-122630250D01*
X79952000Y-121717750D01*
X79953174Y-121693858D01*
X79956684Y-121670197D01*
X79962496Y-121646993D01*
X79970554Y-121624471D01*
X79980782Y-121602847D01*
X79993079Y-121582330D01*
X80007329Y-121563117D01*
X80023393Y-121545393D01*
X80041117Y-121529329D01*
X80060330Y-121515079D01*
X80080847Y-121502782D01*
X80102471Y-121492554D01*
X80124993Y-121484496D01*
X80148197Y-121478684D01*
X80171858Y-121475174D01*
X80195750Y-121474000D01*
X80683250Y-121474000D01*
X80707142Y-121475174D01*
G37*
G36*
X78832142Y-121475174D02*
G01*
X78855803Y-121478684D01*
X78879007Y-121484496D01*
X78901529Y-121492554D01*
X78923153Y-121502782D01*
X78943670Y-121515079D01*
X78962883Y-121529329D01*
X78980607Y-121545393D01*
X78996671Y-121563117D01*
X79010921Y-121582330D01*
X79023218Y-121602847D01*
X79033446Y-121624471D01*
X79041504Y-121646993D01*
X79047316Y-121670197D01*
X79050826Y-121693858D01*
X79052000Y-121717750D01*
X79052000Y-122630250D01*
X79050826Y-122654142D01*
X79047316Y-122677803D01*
X79041504Y-122701007D01*
X79033446Y-122723529D01*
X79023218Y-122745153D01*
X79010921Y-122765670D01*
X78996671Y-122784883D01*
X78980607Y-122802607D01*
X78962883Y-122818671D01*
X78943670Y-122832921D01*
X78923153Y-122845218D01*
X78901529Y-122855446D01*
X78879007Y-122863504D01*
X78855803Y-122869316D01*
X78832142Y-122872826D01*
X78808250Y-122874000D01*
X78320750Y-122874000D01*
X78296858Y-122872826D01*
X78273197Y-122869316D01*
X78249993Y-122863504D01*
X78227471Y-122855446D01*
X78205847Y-122845218D01*
X78185330Y-122832921D01*
X78166117Y-122818671D01*
X78148393Y-122802607D01*
X78132329Y-122784883D01*
X78118079Y-122765670D01*
X78105782Y-122745153D01*
X78095554Y-122723529D01*
X78087496Y-122701007D01*
X78081684Y-122677803D01*
X78078174Y-122654142D01*
X78077000Y-122630250D01*
X78077000Y-121717750D01*
X78078174Y-121693858D01*
X78081684Y-121670197D01*
X78087496Y-121646993D01*
X78095554Y-121624471D01*
X78105782Y-121602847D01*
X78118079Y-121582330D01*
X78132329Y-121563117D01*
X78148393Y-121545393D01*
X78166117Y-121529329D01*
X78185330Y-121515079D01*
X78205847Y-121502782D01*
X78227471Y-121492554D01*
X78249993Y-121484496D01*
X78273197Y-121478684D01*
X78296858Y-121475174D01*
X78320750Y-121474000D01*
X78808250Y-121474000D01*
X78832142Y-121475174D01*
G37*
G36*
X80707142Y-135953174D02*
G01*
X80730803Y-135956684D01*
X80754007Y-135962496D01*
X80776529Y-135970554D01*
X80798153Y-135980782D01*
X80818670Y-135993079D01*
X80837883Y-136007329D01*
X80855607Y-136023393D01*
X80871671Y-136041117D01*
X80885921Y-136060330D01*
X80898218Y-136080847D01*
X80908446Y-136102471D01*
X80916504Y-136124993D01*
X80922316Y-136148197D01*
X80925826Y-136171858D01*
X80927000Y-136195750D01*
X80927000Y-137108250D01*
X80925826Y-137132142D01*
X80922316Y-137155803D01*
X80916504Y-137179007D01*
X80908446Y-137201529D01*
X80898218Y-137223153D01*
X80885921Y-137243670D01*
X80871671Y-137262883D01*
X80855607Y-137280607D01*
X80837883Y-137296671D01*
X80818670Y-137310921D01*
X80798153Y-137323218D01*
X80776529Y-137333446D01*
X80754007Y-137341504D01*
X80730803Y-137347316D01*
X80707142Y-137350826D01*
X80683250Y-137352000D01*
X80195750Y-137352000D01*
X80171858Y-137350826D01*
X80148197Y-137347316D01*
X80124993Y-137341504D01*
X80102471Y-137333446D01*
X80080847Y-137323218D01*
X80060330Y-137310921D01*
X80041117Y-137296671D01*
X80023393Y-137280607D01*
X80007329Y-137262883D01*
X79993079Y-137243670D01*
X79980782Y-137223153D01*
X79970554Y-137201529D01*
X79962496Y-137179007D01*
X79956684Y-137155803D01*
X79953174Y-137132142D01*
X79952000Y-137108250D01*
X79952000Y-136195750D01*
X79953174Y-136171858D01*
X79956684Y-136148197D01*
X79962496Y-136124993D01*
X79970554Y-136102471D01*
X79980782Y-136080847D01*
X79993079Y-136060330D01*
X80007329Y-136041117D01*
X80023393Y-136023393D01*
X80041117Y-136007329D01*
X80060330Y-135993079D01*
X80080847Y-135980782D01*
X80102471Y-135970554D01*
X80124993Y-135962496D01*
X80148197Y-135956684D01*
X80171858Y-135953174D01*
X80195750Y-135952000D01*
X80683250Y-135952000D01*
X80707142Y-135953174D01*
G37*
G36*
X78832142Y-135953174D02*
G01*
X78855803Y-135956684D01*
X78879007Y-135962496D01*
X78901529Y-135970554D01*
X78923153Y-135980782D01*
X78943670Y-135993079D01*
X78962883Y-136007329D01*
X78980607Y-136023393D01*
X78996671Y-136041117D01*
X79010921Y-136060330D01*
X79023218Y-136080847D01*
X79033446Y-136102471D01*
X79041504Y-136124993D01*
X79047316Y-136148197D01*
X79050826Y-136171858D01*
X79052000Y-136195750D01*
X79052000Y-137108250D01*
X79050826Y-137132142D01*
X79047316Y-137155803D01*
X79041504Y-137179007D01*
X79033446Y-137201529D01*
X79023218Y-137223153D01*
X79010921Y-137243670D01*
X78996671Y-137262883D01*
X78980607Y-137280607D01*
X78962883Y-137296671D01*
X78943670Y-137310921D01*
X78923153Y-137323218D01*
X78901529Y-137333446D01*
X78879007Y-137341504D01*
X78855803Y-137347316D01*
X78832142Y-137350826D01*
X78808250Y-137352000D01*
X78320750Y-137352000D01*
X78296858Y-137350826D01*
X78273197Y-137347316D01*
X78249993Y-137341504D01*
X78227471Y-137333446D01*
X78205847Y-137323218D01*
X78185330Y-137310921D01*
X78166117Y-137296671D01*
X78148393Y-137280607D01*
X78132329Y-137262883D01*
X78118079Y-137243670D01*
X78105782Y-137223153D01*
X78095554Y-137201529D01*
X78087496Y-137179007D01*
X78081684Y-137155803D01*
X78078174Y-137132142D01*
X78077000Y-137108250D01*
X78077000Y-136195750D01*
X78078174Y-136171858D01*
X78081684Y-136148197D01*
X78087496Y-136124993D01*
X78095554Y-136102471D01*
X78105782Y-136080847D01*
X78118079Y-136060330D01*
X78132329Y-136041117D01*
X78148393Y-136023393D01*
X78166117Y-136007329D01*
X78185330Y-135993079D01*
X78205847Y-135980782D01*
X78227471Y-135970554D01*
X78249993Y-135962496D01*
X78273197Y-135956684D01*
X78296858Y-135953174D01*
X78320750Y-135952000D01*
X78808250Y-135952000D01*
X78832142Y-135953174D01*
G37*
G36*
X78832142Y-124777174D02*
G01*
X78855803Y-124780684D01*
X78879007Y-124786496D01*
X78901529Y-124794554D01*
X78923153Y-124804782D01*
X78943670Y-124817079D01*
X78962883Y-124831329D01*
X78980607Y-124847393D01*
X78996671Y-124865117D01*
X79010921Y-124884330D01*
X79023218Y-124904847D01*
X79033446Y-124926471D01*
X79041504Y-124948993D01*
X79047316Y-124972197D01*
X79050826Y-124995858D01*
X79052000Y-125019750D01*
X79052000Y-125932250D01*
X79050826Y-125956142D01*
X79047316Y-125979803D01*
X79041504Y-126003007D01*
X79033446Y-126025529D01*
X79023218Y-126047153D01*
X79010921Y-126067670D01*
X78996671Y-126086883D01*
X78980607Y-126104607D01*
X78962883Y-126120671D01*
X78943670Y-126134921D01*
X78923153Y-126147218D01*
X78901529Y-126157446D01*
X78879007Y-126165504D01*
X78855803Y-126171316D01*
X78832142Y-126174826D01*
X78808250Y-126176000D01*
X78320750Y-126176000D01*
X78296858Y-126174826D01*
X78273197Y-126171316D01*
X78249993Y-126165504D01*
X78227471Y-126157446D01*
X78205847Y-126147218D01*
X78185330Y-126134921D01*
X78166117Y-126120671D01*
X78148393Y-126104607D01*
X78132329Y-126086883D01*
X78118079Y-126067670D01*
X78105782Y-126047153D01*
X78095554Y-126025529D01*
X78087496Y-126003007D01*
X78081684Y-125979803D01*
X78078174Y-125956142D01*
X78077000Y-125932250D01*
X78077000Y-125019750D01*
X78078174Y-124995858D01*
X78081684Y-124972197D01*
X78087496Y-124948993D01*
X78095554Y-124926471D01*
X78105782Y-124904847D01*
X78118079Y-124884330D01*
X78132329Y-124865117D01*
X78148393Y-124847393D01*
X78166117Y-124831329D01*
X78185330Y-124817079D01*
X78205847Y-124804782D01*
X78227471Y-124794554D01*
X78249993Y-124786496D01*
X78273197Y-124780684D01*
X78296858Y-124777174D01*
X78320750Y-124776000D01*
X78808250Y-124776000D01*
X78832142Y-124777174D01*
G37*
G36*
X80707142Y-124777174D02*
G01*
X80730803Y-124780684D01*
X80754007Y-124786496D01*
X80776529Y-124794554D01*
X80798153Y-124804782D01*
X80818670Y-124817079D01*
X80837883Y-124831329D01*
X80855607Y-124847393D01*
X80871671Y-124865117D01*
X80885921Y-124884330D01*
X80898218Y-124904847D01*
X80908446Y-124926471D01*
X80916504Y-124948993D01*
X80922316Y-124972197D01*
X80925826Y-124995858D01*
X80927000Y-125019750D01*
X80927000Y-125932250D01*
X80925826Y-125956142D01*
X80922316Y-125979803D01*
X80916504Y-126003007D01*
X80908446Y-126025529D01*
X80898218Y-126047153D01*
X80885921Y-126067670D01*
X80871671Y-126086883D01*
X80855607Y-126104607D01*
X80837883Y-126120671D01*
X80818670Y-126134921D01*
X80798153Y-126147218D01*
X80776529Y-126157446D01*
X80754007Y-126165504D01*
X80730803Y-126171316D01*
X80707142Y-126174826D01*
X80683250Y-126176000D01*
X80195750Y-126176000D01*
X80171858Y-126174826D01*
X80148197Y-126171316D01*
X80124993Y-126165504D01*
X80102471Y-126157446D01*
X80080847Y-126147218D01*
X80060330Y-126134921D01*
X80041117Y-126120671D01*
X80023393Y-126104607D01*
X80007329Y-126086883D01*
X79993079Y-126067670D01*
X79980782Y-126047153D01*
X79970554Y-126025529D01*
X79962496Y-126003007D01*
X79956684Y-125979803D01*
X79953174Y-125956142D01*
X79952000Y-125932250D01*
X79952000Y-125019750D01*
X79953174Y-124995858D01*
X79956684Y-124972197D01*
X79962496Y-124948993D01*
X79970554Y-124926471D01*
X79980782Y-124904847D01*
X79993079Y-124884330D01*
X80007329Y-124865117D01*
X80023393Y-124847393D01*
X80041117Y-124831329D01*
X80060330Y-124817079D01*
X80080847Y-124804782D01*
X80102471Y-124794554D01*
X80124993Y-124786496D01*
X80148197Y-124780684D01*
X80171858Y-124777174D01*
X80195750Y-124776000D01*
X80683250Y-124776000D01*
X80707142Y-124777174D01*
G37*
D11*
X105073000Y-131445000D03*
X105073000Y-130175000D03*
X105073000Y-128905000D03*
X105073000Y-127635000D03*
X99651000Y-127635000D03*
X99651000Y-128905000D03*
X99651000Y-130175000D03*
X99651000Y-131445000D03*
D12*
X83840000Y-134432000D03*
X83840000Y-135382000D03*
X83840000Y-136332000D03*
X86340000Y-136332000D03*
X86340000Y-135382000D03*
X86340000Y-134432000D03*
X83840000Y-123510000D03*
X83840000Y-124460000D03*
X83840000Y-125410000D03*
X86340000Y-125410000D03*
X86340000Y-124460000D03*
X86340000Y-123510000D03*
D10*
G36*
X123921523Y-144127662D02*
G01*
X123936084Y-144129822D01*
X123950363Y-144133399D01*
X123964223Y-144138358D01*
X123977530Y-144144652D01*
X123990156Y-144152220D01*
X124001979Y-144160988D01*
X124012886Y-144170874D01*
X124022772Y-144181781D01*
X124031540Y-144193604D01*
X124039108Y-144206230D01*
X124045402Y-144219537D01*
X124050361Y-144233397D01*
X124053938Y-144247676D01*
X124056098Y-144262237D01*
X124056820Y-144276940D01*
X124056820Y-144576940D01*
X124056098Y-144591643D01*
X124053938Y-144606204D01*
X124050361Y-144620483D01*
X124045402Y-144634343D01*
X124039108Y-144647650D01*
X124031540Y-144660276D01*
X124022772Y-144672099D01*
X124012886Y-144683006D01*
X124001979Y-144692892D01*
X123990156Y-144701660D01*
X123977530Y-144709228D01*
X123964223Y-144715522D01*
X123950363Y-144720481D01*
X123936084Y-144724058D01*
X123921523Y-144726218D01*
X123906820Y-144726940D01*
X122256820Y-144726940D01*
X122242117Y-144726218D01*
X122227556Y-144724058D01*
X122213277Y-144720481D01*
X122199417Y-144715522D01*
X122186110Y-144709228D01*
X122173484Y-144701660D01*
X122161661Y-144692892D01*
X122150754Y-144683006D01*
X122140868Y-144672099D01*
X122132100Y-144660276D01*
X122124532Y-144647650D01*
X122118238Y-144634343D01*
X122113279Y-144620483D01*
X122109702Y-144606204D01*
X122107542Y-144591643D01*
X122106820Y-144576940D01*
X122106820Y-144276940D01*
X122107542Y-144262237D01*
X122109702Y-144247676D01*
X122113279Y-144233397D01*
X122118238Y-144219537D01*
X122124532Y-144206230D01*
X122132100Y-144193604D01*
X122140868Y-144181781D01*
X122150754Y-144170874D01*
X122161661Y-144160988D01*
X122173484Y-144152220D01*
X122186110Y-144144652D01*
X122199417Y-144138358D01*
X122213277Y-144133399D01*
X122227556Y-144129822D01*
X122242117Y-144127662D01*
X122256820Y-144126940D01*
X123906820Y-144126940D01*
X123921523Y-144127662D01*
G37*
G36*
X123921523Y-142857662D02*
G01*
X123936084Y-142859822D01*
X123950363Y-142863399D01*
X123964223Y-142868358D01*
X123977530Y-142874652D01*
X123990156Y-142882220D01*
X124001979Y-142890988D01*
X124012886Y-142900874D01*
X124022772Y-142911781D01*
X124031540Y-142923604D01*
X124039108Y-142936230D01*
X124045402Y-142949537D01*
X124050361Y-142963397D01*
X124053938Y-142977676D01*
X124056098Y-142992237D01*
X124056820Y-143006940D01*
X124056820Y-143306940D01*
X124056098Y-143321643D01*
X124053938Y-143336204D01*
X124050361Y-143350483D01*
X124045402Y-143364343D01*
X124039108Y-143377650D01*
X124031540Y-143390276D01*
X124022772Y-143402099D01*
X124012886Y-143413006D01*
X124001979Y-143422892D01*
X123990156Y-143431660D01*
X123977530Y-143439228D01*
X123964223Y-143445522D01*
X123950363Y-143450481D01*
X123936084Y-143454058D01*
X123921523Y-143456218D01*
X123906820Y-143456940D01*
X122256820Y-143456940D01*
X122242117Y-143456218D01*
X122227556Y-143454058D01*
X122213277Y-143450481D01*
X122199417Y-143445522D01*
X122186110Y-143439228D01*
X122173484Y-143431660D01*
X122161661Y-143422892D01*
X122150754Y-143413006D01*
X122140868Y-143402099D01*
X122132100Y-143390276D01*
X122124532Y-143377650D01*
X122118238Y-143364343D01*
X122113279Y-143350483D01*
X122109702Y-143336204D01*
X122107542Y-143321643D01*
X122106820Y-143306940D01*
X122106820Y-143006940D01*
X122107542Y-142992237D01*
X122109702Y-142977676D01*
X122113279Y-142963397D01*
X122118238Y-142949537D01*
X122124532Y-142936230D01*
X122132100Y-142923604D01*
X122140868Y-142911781D01*
X122150754Y-142900874D01*
X122161661Y-142890988D01*
X122173484Y-142882220D01*
X122186110Y-142874652D01*
X122199417Y-142868358D01*
X122213277Y-142863399D01*
X122227556Y-142859822D01*
X122242117Y-142857662D01*
X122256820Y-142856940D01*
X123906820Y-142856940D01*
X123921523Y-142857662D01*
G37*
G36*
X123921523Y-141587662D02*
G01*
X123936084Y-141589822D01*
X123950363Y-141593399D01*
X123964223Y-141598358D01*
X123977530Y-141604652D01*
X123990156Y-141612220D01*
X124001979Y-141620988D01*
X124012886Y-141630874D01*
X124022772Y-141641781D01*
X124031540Y-141653604D01*
X124039108Y-141666230D01*
X124045402Y-141679537D01*
X124050361Y-141693397D01*
X124053938Y-141707676D01*
X124056098Y-141722237D01*
X124056820Y-141736940D01*
X124056820Y-142036940D01*
X124056098Y-142051643D01*
X124053938Y-142066204D01*
X124050361Y-142080483D01*
X124045402Y-142094343D01*
X124039108Y-142107650D01*
X124031540Y-142120276D01*
X124022772Y-142132099D01*
X124012886Y-142143006D01*
X124001979Y-142152892D01*
X123990156Y-142161660D01*
X123977530Y-142169228D01*
X123964223Y-142175522D01*
X123950363Y-142180481D01*
X123936084Y-142184058D01*
X123921523Y-142186218D01*
X123906820Y-142186940D01*
X122256820Y-142186940D01*
X122242117Y-142186218D01*
X122227556Y-142184058D01*
X122213277Y-142180481D01*
X122199417Y-142175522D01*
X122186110Y-142169228D01*
X122173484Y-142161660D01*
X122161661Y-142152892D01*
X122150754Y-142143006D01*
X122140868Y-142132099D01*
X122132100Y-142120276D01*
X122124532Y-142107650D01*
X122118238Y-142094343D01*
X122113279Y-142080483D01*
X122109702Y-142066204D01*
X122107542Y-142051643D01*
X122106820Y-142036940D01*
X122106820Y-141736940D01*
X122107542Y-141722237D01*
X122109702Y-141707676D01*
X122113279Y-141693397D01*
X122118238Y-141679537D01*
X122124532Y-141666230D01*
X122132100Y-141653604D01*
X122140868Y-141641781D01*
X122150754Y-141630874D01*
X122161661Y-141620988D01*
X122173484Y-141612220D01*
X122186110Y-141604652D01*
X122199417Y-141598358D01*
X122213277Y-141593399D01*
X122227556Y-141589822D01*
X122242117Y-141587662D01*
X122256820Y-141586940D01*
X123906820Y-141586940D01*
X123921523Y-141587662D01*
G37*
G36*
X123921523Y-140317662D02*
G01*
X123936084Y-140319822D01*
X123950363Y-140323399D01*
X123964223Y-140328358D01*
X123977530Y-140334652D01*
X123990156Y-140342220D01*
X124001979Y-140350988D01*
X124012886Y-140360874D01*
X124022772Y-140371781D01*
X124031540Y-140383604D01*
X124039108Y-140396230D01*
X124045402Y-140409537D01*
X124050361Y-140423397D01*
X124053938Y-140437676D01*
X124056098Y-140452237D01*
X124056820Y-140466940D01*
X124056820Y-140766940D01*
X124056098Y-140781643D01*
X124053938Y-140796204D01*
X124050361Y-140810483D01*
X124045402Y-140824343D01*
X124039108Y-140837650D01*
X124031540Y-140850276D01*
X124022772Y-140862099D01*
X124012886Y-140873006D01*
X124001979Y-140882892D01*
X123990156Y-140891660D01*
X123977530Y-140899228D01*
X123964223Y-140905522D01*
X123950363Y-140910481D01*
X123936084Y-140914058D01*
X123921523Y-140916218D01*
X123906820Y-140916940D01*
X122256820Y-140916940D01*
X122242117Y-140916218D01*
X122227556Y-140914058D01*
X122213277Y-140910481D01*
X122199417Y-140905522D01*
X122186110Y-140899228D01*
X122173484Y-140891660D01*
X122161661Y-140882892D01*
X122150754Y-140873006D01*
X122140868Y-140862099D01*
X122132100Y-140850276D01*
X122124532Y-140837650D01*
X122118238Y-140824343D01*
X122113279Y-140810483D01*
X122109702Y-140796204D01*
X122107542Y-140781643D01*
X122106820Y-140766940D01*
X122106820Y-140466940D01*
X122107542Y-140452237D01*
X122109702Y-140437676D01*
X122113279Y-140423397D01*
X122118238Y-140409537D01*
X122124532Y-140396230D01*
X122132100Y-140383604D01*
X122140868Y-140371781D01*
X122150754Y-140360874D01*
X122161661Y-140350988D01*
X122173484Y-140342220D01*
X122186110Y-140334652D01*
X122199417Y-140328358D01*
X122213277Y-140323399D01*
X122227556Y-140319822D01*
X122242117Y-140317662D01*
X122256820Y-140316940D01*
X123906820Y-140316940D01*
X123921523Y-140317662D01*
G37*
G36*
X118971523Y-140317662D02*
G01*
X118986084Y-140319822D01*
X119000363Y-140323399D01*
X119014223Y-140328358D01*
X119027530Y-140334652D01*
X119040156Y-140342220D01*
X119051979Y-140350988D01*
X119062886Y-140360874D01*
X119072772Y-140371781D01*
X119081540Y-140383604D01*
X119089108Y-140396230D01*
X119095402Y-140409537D01*
X119100361Y-140423397D01*
X119103938Y-140437676D01*
X119106098Y-140452237D01*
X119106820Y-140466940D01*
X119106820Y-140766940D01*
X119106098Y-140781643D01*
X119103938Y-140796204D01*
X119100361Y-140810483D01*
X119095402Y-140824343D01*
X119089108Y-140837650D01*
X119081540Y-140850276D01*
X119072772Y-140862099D01*
X119062886Y-140873006D01*
X119051979Y-140882892D01*
X119040156Y-140891660D01*
X119027530Y-140899228D01*
X119014223Y-140905522D01*
X119000363Y-140910481D01*
X118986084Y-140914058D01*
X118971523Y-140916218D01*
X118956820Y-140916940D01*
X117306820Y-140916940D01*
X117292117Y-140916218D01*
X117277556Y-140914058D01*
X117263277Y-140910481D01*
X117249417Y-140905522D01*
X117236110Y-140899228D01*
X117223484Y-140891660D01*
X117211661Y-140882892D01*
X117200754Y-140873006D01*
X117190868Y-140862099D01*
X117182100Y-140850276D01*
X117174532Y-140837650D01*
X117168238Y-140824343D01*
X117163279Y-140810483D01*
X117159702Y-140796204D01*
X117157542Y-140781643D01*
X117156820Y-140766940D01*
X117156820Y-140466940D01*
X117157542Y-140452237D01*
X117159702Y-140437676D01*
X117163279Y-140423397D01*
X117168238Y-140409537D01*
X117174532Y-140396230D01*
X117182100Y-140383604D01*
X117190868Y-140371781D01*
X117200754Y-140360874D01*
X117211661Y-140350988D01*
X117223484Y-140342220D01*
X117236110Y-140334652D01*
X117249417Y-140328358D01*
X117263277Y-140323399D01*
X117277556Y-140319822D01*
X117292117Y-140317662D01*
X117306820Y-140316940D01*
X118956820Y-140316940D01*
X118971523Y-140317662D01*
G37*
G36*
X118971523Y-141587662D02*
G01*
X118986084Y-141589822D01*
X119000363Y-141593399D01*
X119014223Y-141598358D01*
X119027530Y-141604652D01*
X119040156Y-141612220D01*
X119051979Y-141620988D01*
X119062886Y-141630874D01*
X119072772Y-141641781D01*
X119081540Y-141653604D01*
X119089108Y-141666230D01*
X119095402Y-141679537D01*
X119100361Y-141693397D01*
X119103938Y-141707676D01*
X119106098Y-141722237D01*
X119106820Y-141736940D01*
X119106820Y-142036940D01*
X119106098Y-142051643D01*
X119103938Y-142066204D01*
X119100361Y-142080483D01*
X119095402Y-142094343D01*
X119089108Y-142107650D01*
X119081540Y-142120276D01*
X119072772Y-142132099D01*
X119062886Y-142143006D01*
X119051979Y-142152892D01*
X119040156Y-142161660D01*
X119027530Y-142169228D01*
X119014223Y-142175522D01*
X119000363Y-142180481D01*
X118986084Y-142184058D01*
X118971523Y-142186218D01*
X118956820Y-142186940D01*
X117306820Y-142186940D01*
X117292117Y-142186218D01*
X117277556Y-142184058D01*
X117263277Y-142180481D01*
X117249417Y-142175522D01*
X117236110Y-142169228D01*
X117223484Y-142161660D01*
X117211661Y-142152892D01*
X117200754Y-142143006D01*
X117190868Y-142132099D01*
X117182100Y-142120276D01*
X117174532Y-142107650D01*
X117168238Y-142094343D01*
X117163279Y-142080483D01*
X117159702Y-142066204D01*
X117157542Y-142051643D01*
X117156820Y-142036940D01*
X117156820Y-141736940D01*
X117157542Y-141722237D01*
X117159702Y-141707676D01*
X117163279Y-141693397D01*
X117168238Y-141679537D01*
X117174532Y-141666230D01*
X117182100Y-141653604D01*
X117190868Y-141641781D01*
X117200754Y-141630874D01*
X117211661Y-141620988D01*
X117223484Y-141612220D01*
X117236110Y-141604652D01*
X117249417Y-141598358D01*
X117263277Y-141593399D01*
X117277556Y-141589822D01*
X117292117Y-141587662D01*
X117306820Y-141586940D01*
X118956820Y-141586940D01*
X118971523Y-141587662D01*
G37*
G36*
X118971523Y-142857662D02*
G01*
X118986084Y-142859822D01*
X119000363Y-142863399D01*
X119014223Y-142868358D01*
X119027530Y-142874652D01*
X119040156Y-142882220D01*
X119051979Y-142890988D01*
X119062886Y-142900874D01*
X119072772Y-142911781D01*
X119081540Y-142923604D01*
X119089108Y-142936230D01*
X119095402Y-142949537D01*
X119100361Y-142963397D01*
X119103938Y-142977676D01*
X119106098Y-142992237D01*
X119106820Y-143006940D01*
X119106820Y-143306940D01*
X119106098Y-143321643D01*
X119103938Y-143336204D01*
X119100361Y-143350483D01*
X119095402Y-143364343D01*
X119089108Y-143377650D01*
X119081540Y-143390276D01*
X119072772Y-143402099D01*
X119062886Y-143413006D01*
X119051979Y-143422892D01*
X119040156Y-143431660D01*
X119027530Y-143439228D01*
X119014223Y-143445522D01*
X119000363Y-143450481D01*
X118986084Y-143454058D01*
X118971523Y-143456218D01*
X118956820Y-143456940D01*
X117306820Y-143456940D01*
X117292117Y-143456218D01*
X117277556Y-143454058D01*
X117263277Y-143450481D01*
X117249417Y-143445522D01*
X117236110Y-143439228D01*
X117223484Y-143431660D01*
X117211661Y-143422892D01*
X117200754Y-143413006D01*
X117190868Y-143402099D01*
X117182100Y-143390276D01*
X117174532Y-143377650D01*
X117168238Y-143364343D01*
X117163279Y-143350483D01*
X117159702Y-143336204D01*
X117157542Y-143321643D01*
X117156820Y-143306940D01*
X117156820Y-143006940D01*
X117157542Y-142992237D01*
X117159702Y-142977676D01*
X117163279Y-142963397D01*
X117168238Y-142949537D01*
X117174532Y-142936230D01*
X117182100Y-142923604D01*
X117190868Y-142911781D01*
X117200754Y-142900874D01*
X117211661Y-142890988D01*
X117223484Y-142882220D01*
X117236110Y-142874652D01*
X117249417Y-142868358D01*
X117263277Y-142863399D01*
X117277556Y-142859822D01*
X117292117Y-142857662D01*
X117306820Y-142856940D01*
X118956820Y-142856940D01*
X118971523Y-142857662D01*
G37*
G36*
X118971523Y-144127662D02*
G01*
X118986084Y-144129822D01*
X119000363Y-144133399D01*
X119014223Y-144138358D01*
X119027530Y-144144652D01*
X119040156Y-144152220D01*
X119051979Y-144160988D01*
X119062886Y-144170874D01*
X119072772Y-144181781D01*
X119081540Y-144193604D01*
X119089108Y-144206230D01*
X119095402Y-144219537D01*
X119100361Y-144233397D01*
X119103938Y-144247676D01*
X119106098Y-144262237D01*
X119106820Y-144276940D01*
X119106820Y-144576940D01*
X119106098Y-144591643D01*
X119103938Y-144606204D01*
X119100361Y-144620483D01*
X119095402Y-144634343D01*
X119089108Y-144647650D01*
X119081540Y-144660276D01*
X119072772Y-144672099D01*
X119062886Y-144683006D01*
X119051979Y-144692892D01*
X119040156Y-144701660D01*
X119027530Y-144709228D01*
X119014223Y-144715522D01*
X119000363Y-144720481D01*
X118986084Y-144724058D01*
X118971523Y-144726218D01*
X118956820Y-144726940D01*
X117306820Y-144726940D01*
X117292117Y-144726218D01*
X117277556Y-144724058D01*
X117263277Y-144720481D01*
X117249417Y-144715522D01*
X117236110Y-144709228D01*
X117223484Y-144701660D01*
X117211661Y-144692892D01*
X117200754Y-144683006D01*
X117190868Y-144672099D01*
X117182100Y-144660276D01*
X117174532Y-144647650D01*
X117168238Y-144634343D01*
X117163279Y-144620483D01*
X117159702Y-144606204D01*
X117157542Y-144591643D01*
X117156820Y-144576940D01*
X117156820Y-144276940D01*
X117157542Y-144262237D01*
X117159702Y-144247676D01*
X117163279Y-144233397D01*
X117168238Y-144219537D01*
X117174532Y-144206230D01*
X117182100Y-144193604D01*
X117190868Y-144181781D01*
X117200754Y-144170874D01*
X117211661Y-144160988D01*
X117223484Y-144152220D01*
X117236110Y-144144652D01*
X117249417Y-144138358D01*
X117263277Y-144133399D01*
X117277556Y-144129822D01*
X117292117Y-144127662D01*
X117306820Y-144126940D01*
X118956820Y-144126940D01*
X118971523Y-144127662D01*
G37*
G36*
X123525283Y-113678142D02*
G01*
X123539844Y-113680302D01*
X123554123Y-113683879D01*
X123567983Y-113688838D01*
X123581290Y-113695132D01*
X123593916Y-113702700D01*
X123605739Y-113711468D01*
X123616646Y-113721354D01*
X123626532Y-113732261D01*
X123635300Y-113744084D01*
X123642868Y-113756710D01*
X123649162Y-113770017D01*
X123654121Y-113783877D01*
X123657698Y-113798156D01*
X123659858Y-113812717D01*
X123660580Y-113827420D01*
X123660580Y-114127420D01*
X123659858Y-114142123D01*
X123657698Y-114156684D01*
X123654121Y-114170963D01*
X123649162Y-114184823D01*
X123642868Y-114198130D01*
X123635300Y-114210756D01*
X123626532Y-114222579D01*
X123616646Y-114233486D01*
X123605739Y-114243372D01*
X123593916Y-114252140D01*
X123581290Y-114259708D01*
X123567983Y-114266002D01*
X123554123Y-114270961D01*
X123539844Y-114274538D01*
X123525283Y-114276698D01*
X123510580Y-114277420D01*
X121860580Y-114277420D01*
X121845877Y-114276698D01*
X121831316Y-114274538D01*
X121817037Y-114270961D01*
X121803177Y-114266002D01*
X121789870Y-114259708D01*
X121777244Y-114252140D01*
X121765421Y-114243372D01*
X121754514Y-114233486D01*
X121744628Y-114222579D01*
X121735860Y-114210756D01*
X121728292Y-114198130D01*
X121721998Y-114184823D01*
X121717039Y-114170963D01*
X121713462Y-114156684D01*
X121711302Y-114142123D01*
X121710580Y-114127420D01*
X121710580Y-113827420D01*
X121711302Y-113812717D01*
X121713462Y-113798156D01*
X121717039Y-113783877D01*
X121721998Y-113770017D01*
X121728292Y-113756710D01*
X121735860Y-113744084D01*
X121744628Y-113732261D01*
X121754514Y-113721354D01*
X121765421Y-113711468D01*
X121777244Y-113702700D01*
X121789870Y-113695132D01*
X121803177Y-113688838D01*
X121817037Y-113683879D01*
X121831316Y-113680302D01*
X121845877Y-113678142D01*
X121860580Y-113677420D01*
X123510580Y-113677420D01*
X123525283Y-113678142D01*
G37*
G36*
X123525283Y-112408142D02*
G01*
X123539844Y-112410302D01*
X123554123Y-112413879D01*
X123567983Y-112418838D01*
X123581290Y-112425132D01*
X123593916Y-112432700D01*
X123605739Y-112441468D01*
X123616646Y-112451354D01*
X123626532Y-112462261D01*
X123635300Y-112474084D01*
X123642868Y-112486710D01*
X123649162Y-112500017D01*
X123654121Y-112513877D01*
X123657698Y-112528156D01*
X123659858Y-112542717D01*
X123660580Y-112557420D01*
X123660580Y-112857420D01*
X123659858Y-112872123D01*
X123657698Y-112886684D01*
X123654121Y-112900963D01*
X123649162Y-112914823D01*
X123642868Y-112928130D01*
X123635300Y-112940756D01*
X123626532Y-112952579D01*
X123616646Y-112963486D01*
X123605739Y-112973372D01*
X123593916Y-112982140D01*
X123581290Y-112989708D01*
X123567983Y-112996002D01*
X123554123Y-113000961D01*
X123539844Y-113004538D01*
X123525283Y-113006698D01*
X123510580Y-113007420D01*
X121860580Y-113007420D01*
X121845877Y-113006698D01*
X121831316Y-113004538D01*
X121817037Y-113000961D01*
X121803177Y-112996002D01*
X121789870Y-112989708D01*
X121777244Y-112982140D01*
X121765421Y-112973372D01*
X121754514Y-112963486D01*
X121744628Y-112952579D01*
X121735860Y-112940756D01*
X121728292Y-112928130D01*
X121721998Y-112914823D01*
X121717039Y-112900963D01*
X121713462Y-112886684D01*
X121711302Y-112872123D01*
X121710580Y-112857420D01*
X121710580Y-112557420D01*
X121711302Y-112542717D01*
X121713462Y-112528156D01*
X121717039Y-112513877D01*
X121721998Y-112500017D01*
X121728292Y-112486710D01*
X121735860Y-112474084D01*
X121744628Y-112462261D01*
X121754514Y-112451354D01*
X121765421Y-112441468D01*
X121777244Y-112432700D01*
X121789870Y-112425132D01*
X121803177Y-112418838D01*
X121817037Y-112413879D01*
X121831316Y-112410302D01*
X121845877Y-112408142D01*
X121860580Y-112407420D01*
X123510580Y-112407420D01*
X123525283Y-112408142D01*
G37*
G36*
X123525283Y-111138142D02*
G01*
X123539844Y-111140302D01*
X123554123Y-111143879D01*
X123567983Y-111148838D01*
X123581290Y-111155132D01*
X123593916Y-111162700D01*
X123605739Y-111171468D01*
X123616646Y-111181354D01*
X123626532Y-111192261D01*
X123635300Y-111204084D01*
X123642868Y-111216710D01*
X123649162Y-111230017D01*
X123654121Y-111243877D01*
X123657698Y-111258156D01*
X123659858Y-111272717D01*
X123660580Y-111287420D01*
X123660580Y-111587420D01*
X123659858Y-111602123D01*
X123657698Y-111616684D01*
X123654121Y-111630963D01*
X123649162Y-111644823D01*
X123642868Y-111658130D01*
X123635300Y-111670756D01*
X123626532Y-111682579D01*
X123616646Y-111693486D01*
X123605739Y-111703372D01*
X123593916Y-111712140D01*
X123581290Y-111719708D01*
X123567983Y-111726002D01*
X123554123Y-111730961D01*
X123539844Y-111734538D01*
X123525283Y-111736698D01*
X123510580Y-111737420D01*
X121860580Y-111737420D01*
X121845877Y-111736698D01*
X121831316Y-111734538D01*
X121817037Y-111730961D01*
X121803177Y-111726002D01*
X121789870Y-111719708D01*
X121777244Y-111712140D01*
X121765421Y-111703372D01*
X121754514Y-111693486D01*
X121744628Y-111682579D01*
X121735860Y-111670756D01*
X121728292Y-111658130D01*
X121721998Y-111644823D01*
X121717039Y-111630963D01*
X121713462Y-111616684D01*
X121711302Y-111602123D01*
X121710580Y-111587420D01*
X121710580Y-111287420D01*
X121711302Y-111272717D01*
X121713462Y-111258156D01*
X121717039Y-111243877D01*
X121721998Y-111230017D01*
X121728292Y-111216710D01*
X121735860Y-111204084D01*
X121744628Y-111192261D01*
X121754514Y-111181354D01*
X121765421Y-111171468D01*
X121777244Y-111162700D01*
X121789870Y-111155132D01*
X121803177Y-111148838D01*
X121817037Y-111143879D01*
X121831316Y-111140302D01*
X121845877Y-111138142D01*
X121860580Y-111137420D01*
X123510580Y-111137420D01*
X123525283Y-111138142D01*
G37*
G36*
X123525283Y-109868142D02*
G01*
X123539844Y-109870302D01*
X123554123Y-109873879D01*
X123567983Y-109878838D01*
X123581290Y-109885132D01*
X123593916Y-109892700D01*
X123605739Y-109901468D01*
X123616646Y-109911354D01*
X123626532Y-109922261D01*
X123635300Y-109934084D01*
X123642868Y-109946710D01*
X123649162Y-109960017D01*
X123654121Y-109973877D01*
X123657698Y-109988156D01*
X123659858Y-110002717D01*
X123660580Y-110017420D01*
X123660580Y-110317420D01*
X123659858Y-110332123D01*
X123657698Y-110346684D01*
X123654121Y-110360963D01*
X123649162Y-110374823D01*
X123642868Y-110388130D01*
X123635300Y-110400756D01*
X123626532Y-110412579D01*
X123616646Y-110423486D01*
X123605739Y-110433372D01*
X123593916Y-110442140D01*
X123581290Y-110449708D01*
X123567983Y-110456002D01*
X123554123Y-110460961D01*
X123539844Y-110464538D01*
X123525283Y-110466698D01*
X123510580Y-110467420D01*
X121860580Y-110467420D01*
X121845877Y-110466698D01*
X121831316Y-110464538D01*
X121817037Y-110460961D01*
X121803177Y-110456002D01*
X121789870Y-110449708D01*
X121777244Y-110442140D01*
X121765421Y-110433372D01*
X121754514Y-110423486D01*
X121744628Y-110412579D01*
X121735860Y-110400756D01*
X121728292Y-110388130D01*
X121721998Y-110374823D01*
X121717039Y-110360963D01*
X121713462Y-110346684D01*
X121711302Y-110332123D01*
X121710580Y-110317420D01*
X121710580Y-110017420D01*
X121711302Y-110002717D01*
X121713462Y-109988156D01*
X121717039Y-109973877D01*
X121721998Y-109960017D01*
X121728292Y-109946710D01*
X121735860Y-109934084D01*
X121744628Y-109922261D01*
X121754514Y-109911354D01*
X121765421Y-109901468D01*
X121777244Y-109892700D01*
X121789870Y-109885132D01*
X121803177Y-109878838D01*
X121817037Y-109873879D01*
X121831316Y-109870302D01*
X121845877Y-109868142D01*
X121860580Y-109867420D01*
X123510580Y-109867420D01*
X123525283Y-109868142D01*
G37*
G36*
X118575283Y-109868142D02*
G01*
X118589844Y-109870302D01*
X118604123Y-109873879D01*
X118617983Y-109878838D01*
X118631290Y-109885132D01*
X118643916Y-109892700D01*
X118655739Y-109901468D01*
X118666646Y-109911354D01*
X118676532Y-109922261D01*
X118685300Y-109934084D01*
X118692868Y-109946710D01*
X118699162Y-109960017D01*
X118704121Y-109973877D01*
X118707698Y-109988156D01*
X118709858Y-110002717D01*
X118710580Y-110017420D01*
X118710580Y-110317420D01*
X118709858Y-110332123D01*
X118707698Y-110346684D01*
X118704121Y-110360963D01*
X118699162Y-110374823D01*
X118692868Y-110388130D01*
X118685300Y-110400756D01*
X118676532Y-110412579D01*
X118666646Y-110423486D01*
X118655739Y-110433372D01*
X118643916Y-110442140D01*
X118631290Y-110449708D01*
X118617983Y-110456002D01*
X118604123Y-110460961D01*
X118589844Y-110464538D01*
X118575283Y-110466698D01*
X118560580Y-110467420D01*
X116910580Y-110467420D01*
X116895877Y-110466698D01*
X116881316Y-110464538D01*
X116867037Y-110460961D01*
X116853177Y-110456002D01*
X116839870Y-110449708D01*
X116827244Y-110442140D01*
X116815421Y-110433372D01*
X116804514Y-110423486D01*
X116794628Y-110412579D01*
X116785860Y-110400756D01*
X116778292Y-110388130D01*
X116771998Y-110374823D01*
X116767039Y-110360963D01*
X116763462Y-110346684D01*
X116761302Y-110332123D01*
X116760580Y-110317420D01*
X116760580Y-110017420D01*
X116761302Y-110002717D01*
X116763462Y-109988156D01*
X116767039Y-109973877D01*
X116771998Y-109960017D01*
X116778292Y-109946710D01*
X116785860Y-109934084D01*
X116794628Y-109922261D01*
X116804514Y-109911354D01*
X116815421Y-109901468D01*
X116827244Y-109892700D01*
X116839870Y-109885132D01*
X116853177Y-109878838D01*
X116867037Y-109873879D01*
X116881316Y-109870302D01*
X116895877Y-109868142D01*
X116910580Y-109867420D01*
X118560580Y-109867420D01*
X118575283Y-109868142D01*
G37*
G36*
X118575283Y-111138142D02*
G01*
X118589844Y-111140302D01*
X118604123Y-111143879D01*
X118617983Y-111148838D01*
X118631290Y-111155132D01*
X118643916Y-111162700D01*
X118655739Y-111171468D01*
X118666646Y-111181354D01*
X118676532Y-111192261D01*
X118685300Y-111204084D01*
X118692868Y-111216710D01*
X118699162Y-111230017D01*
X118704121Y-111243877D01*
X118707698Y-111258156D01*
X118709858Y-111272717D01*
X118710580Y-111287420D01*
X118710580Y-111587420D01*
X118709858Y-111602123D01*
X118707698Y-111616684D01*
X118704121Y-111630963D01*
X118699162Y-111644823D01*
X118692868Y-111658130D01*
X118685300Y-111670756D01*
X118676532Y-111682579D01*
X118666646Y-111693486D01*
X118655739Y-111703372D01*
X118643916Y-111712140D01*
X118631290Y-111719708D01*
X118617983Y-111726002D01*
X118604123Y-111730961D01*
X118589844Y-111734538D01*
X118575283Y-111736698D01*
X118560580Y-111737420D01*
X116910580Y-111737420D01*
X116895877Y-111736698D01*
X116881316Y-111734538D01*
X116867037Y-111730961D01*
X116853177Y-111726002D01*
X116839870Y-111719708D01*
X116827244Y-111712140D01*
X116815421Y-111703372D01*
X116804514Y-111693486D01*
X116794628Y-111682579D01*
X116785860Y-111670756D01*
X116778292Y-111658130D01*
X116771998Y-111644823D01*
X116767039Y-111630963D01*
X116763462Y-111616684D01*
X116761302Y-111602123D01*
X116760580Y-111587420D01*
X116760580Y-111287420D01*
X116761302Y-111272717D01*
X116763462Y-111258156D01*
X116767039Y-111243877D01*
X116771998Y-111230017D01*
X116778292Y-111216710D01*
X116785860Y-111204084D01*
X116794628Y-111192261D01*
X116804514Y-111181354D01*
X116815421Y-111171468D01*
X116827244Y-111162700D01*
X116839870Y-111155132D01*
X116853177Y-111148838D01*
X116867037Y-111143879D01*
X116881316Y-111140302D01*
X116895877Y-111138142D01*
X116910580Y-111137420D01*
X118560580Y-111137420D01*
X118575283Y-111138142D01*
G37*
G36*
X118575283Y-112408142D02*
G01*
X118589844Y-112410302D01*
X118604123Y-112413879D01*
X118617983Y-112418838D01*
X118631290Y-112425132D01*
X118643916Y-112432700D01*
X118655739Y-112441468D01*
X118666646Y-112451354D01*
X118676532Y-112462261D01*
X118685300Y-112474084D01*
X118692868Y-112486710D01*
X118699162Y-112500017D01*
X118704121Y-112513877D01*
X118707698Y-112528156D01*
X118709858Y-112542717D01*
X118710580Y-112557420D01*
X118710580Y-112857420D01*
X118709858Y-112872123D01*
X118707698Y-112886684D01*
X118704121Y-112900963D01*
X118699162Y-112914823D01*
X118692868Y-112928130D01*
X118685300Y-112940756D01*
X118676532Y-112952579D01*
X118666646Y-112963486D01*
X118655739Y-112973372D01*
X118643916Y-112982140D01*
X118631290Y-112989708D01*
X118617983Y-112996002D01*
X118604123Y-113000961D01*
X118589844Y-113004538D01*
X118575283Y-113006698D01*
X118560580Y-113007420D01*
X116910580Y-113007420D01*
X116895877Y-113006698D01*
X116881316Y-113004538D01*
X116867037Y-113000961D01*
X116853177Y-112996002D01*
X116839870Y-112989708D01*
X116827244Y-112982140D01*
X116815421Y-112973372D01*
X116804514Y-112963486D01*
X116794628Y-112952579D01*
X116785860Y-112940756D01*
X116778292Y-112928130D01*
X116771998Y-112914823D01*
X116767039Y-112900963D01*
X116763462Y-112886684D01*
X116761302Y-112872123D01*
X116760580Y-112857420D01*
X116760580Y-112557420D01*
X116761302Y-112542717D01*
X116763462Y-112528156D01*
X116767039Y-112513877D01*
X116771998Y-112500017D01*
X116778292Y-112486710D01*
X116785860Y-112474084D01*
X116794628Y-112462261D01*
X116804514Y-112451354D01*
X116815421Y-112441468D01*
X116827244Y-112432700D01*
X116839870Y-112425132D01*
X116853177Y-112418838D01*
X116867037Y-112413879D01*
X116881316Y-112410302D01*
X116895877Y-112408142D01*
X116910580Y-112407420D01*
X118560580Y-112407420D01*
X118575283Y-112408142D01*
G37*
G36*
X118575283Y-113678142D02*
G01*
X118589844Y-113680302D01*
X118604123Y-113683879D01*
X118617983Y-113688838D01*
X118631290Y-113695132D01*
X118643916Y-113702700D01*
X118655739Y-113711468D01*
X118666646Y-113721354D01*
X118676532Y-113732261D01*
X118685300Y-113744084D01*
X118692868Y-113756710D01*
X118699162Y-113770017D01*
X118704121Y-113783877D01*
X118707698Y-113798156D01*
X118709858Y-113812717D01*
X118710580Y-113827420D01*
X118710580Y-114127420D01*
X118709858Y-114142123D01*
X118707698Y-114156684D01*
X118704121Y-114170963D01*
X118699162Y-114184823D01*
X118692868Y-114198130D01*
X118685300Y-114210756D01*
X118676532Y-114222579D01*
X118666646Y-114233486D01*
X118655739Y-114243372D01*
X118643916Y-114252140D01*
X118631290Y-114259708D01*
X118617983Y-114266002D01*
X118604123Y-114270961D01*
X118589844Y-114274538D01*
X118575283Y-114276698D01*
X118560580Y-114277420D01*
X116910580Y-114277420D01*
X116895877Y-114276698D01*
X116881316Y-114274538D01*
X116867037Y-114270961D01*
X116853177Y-114266002D01*
X116839870Y-114259708D01*
X116827244Y-114252140D01*
X116815421Y-114243372D01*
X116804514Y-114233486D01*
X116794628Y-114222579D01*
X116785860Y-114210756D01*
X116778292Y-114198130D01*
X116771998Y-114184823D01*
X116767039Y-114170963D01*
X116763462Y-114156684D01*
X116761302Y-114142123D01*
X116760580Y-114127420D01*
X116760580Y-113827420D01*
X116761302Y-113812717D01*
X116763462Y-113798156D01*
X116767039Y-113783877D01*
X116771998Y-113770017D01*
X116778292Y-113756710D01*
X116785860Y-113744084D01*
X116794628Y-113732261D01*
X116804514Y-113721354D01*
X116815421Y-113711468D01*
X116827244Y-113702700D01*
X116839870Y-113695132D01*
X116853177Y-113688838D01*
X116867037Y-113683879D01*
X116881316Y-113680302D01*
X116895877Y-113678142D01*
X116910580Y-113677420D01*
X118560580Y-113677420D01*
X118575283Y-113678142D01*
G37*
M02*
