G04 #@! TF.GenerationSoftware,KiCad,Pcbnew,(5.1.5)-3*
G04 #@! TF.CreationDate,2020-09-05T22:43:29+02:00*
G04 #@! TF.ProjectId,res_hat,7265735f-6861-4742-9e6b-696361645f70,rev?*
G04 #@! TF.SameCoordinates,Original*
G04 #@! TF.FileFunction,Soldermask,Bot*
G04 #@! TF.FilePolarity,Negative*
%FSLAX46Y46*%
G04 Gerber Fmt 4.6, Leading zero omitted, Abs format (unit mm)*
G04 Created by KiCad (PCBNEW (5.1.5)-3) date 2020-09-05 22:43:29*
%MOMM*%
%LPD*%
G04 APERTURE LIST*
%ADD10C,0.100000*%
G04 APERTURE END LIST*
D10*
G36*
X74672672Y-151138167D02*
G01*
X74821972Y-151167864D01*
X74985944Y-151235784D01*
X75133514Y-151334387D01*
X75259013Y-151459886D01*
X75357616Y-151607456D01*
X75425536Y-151771428D01*
X75460160Y-151945499D01*
X75460160Y-152122981D01*
X75425536Y-152297052D01*
X75357616Y-152461024D01*
X75259013Y-152608594D01*
X75133514Y-152734093D01*
X74985944Y-152832696D01*
X74821972Y-152900616D01*
X74672672Y-152930313D01*
X74647902Y-152935240D01*
X74470418Y-152935240D01*
X74445648Y-152930313D01*
X74296348Y-152900616D01*
X74132376Y-152832696D01*
X73984806Y-152734093D01*
X73859307Y-152608594D01*
X73760704Y-152461024D01*
X73692784Y-152297052D01*
X73658160Y-152122981D01*
X73658160Y-151945499D01*
X73692784Y-151771428D01*
X73760704Y-151607456D01*
X73859307Y-151459886D01*
X73984806Y-151334387D01*
X74132376Y-151235784D01*
X74296348Y-151167864D01*
X74445648Y-151138167D01*
X74470418Y-151133240D01*
X74647902Y-151133240D01*
X74672672Y-151138167D01*
G37*
G36*
X77212672Y-151138167D02*
G01*
X77361972Y-151167864D01*
X77525944Y-151235784D01*
X77673514Y-151334387D01*
X77799013Y-151459886D01*
X77897616Y-151607456D01*
X77965536Y-151771428D01*
X78000160Y-151945499D01*
X78000160Y-152122981D01*
X77965536Y-152297052D01*
X77897616Y-152461024D01*
X77799013Y-152608594D01*
X77673514Y-152734093D01*
X77525944Y-152832696D01*
X77361972Y-152900616D01*
X77212672Y-152930313D01*
X77187902Y-152935240D01*
X77010418Y-152935240D01*
X76985648Y-152930313D01*
X76836348Y-152900616D01*
X76672376Y-152832696D01*
X76524806Y-152734093D01*
X76399307Y-152608594D01*
X76300704Y-152461024D01*
X76232784Y-152297052D01*
X76198160Y-152122981D01*
X76198160Y-151945499D01*
X76232784Y-151771428D01*
X76300704Y-151607456D01*
X76399307Y-151459886D01*
X76524806Y-151334387D01*
X76672376Y-151235784D01*
X76836348Y-151167864D01*
X76985648Y-151138167D01*
X77010418Y-151133240D01*
X77187902Y-151133240D01*
X77212672Y-151138167D01*
G37*
G36*
X79752672Y-151138167D02*
G01*
X79901972Y-151167864D01*
X80065944Y-151235784D01*
X80213514Y-151334387D01*
X80339013Y-151459886D01*
X80437616Y-151607456D01*
X80505536Y-151771428D01*
X80540160Y-151945499D01*
X80540160Y-152122981D01*
X80505536Y-152297052D01*
X80437616Y-152461024D01*
X80339013Y-152608594D01*
X80213514Y-152734093D01*
X80065944Y-152832696D01*
X79901972Y-152900616D01*
X79752672Y-152930313D01*
X79727902Y-152935240D01*
X79550418Y-152935240D01*
X79525648Y-152930313D01*
X79376348Y-152900616D01*
X79212376Y-152832696D01*
X79064806Y-152734093D01*
X78939307Y-152608594D01*
X78840704Y-152461024D01*
X78772784Y-152297052D01*
X78738160Y-152122981D01*
X78738160Y-151945499D01*
X78772784Y-151771428D01*
X78840704Y-151607456D01*
X78939307Y-151459886D01*
X79064806Y-151334387D01*
X79212376Y-151235784D01*
X79376348Y-151167864D01*
X79525648Y-151138167D01*
X79550418Y-151133240D01*
X79727902Y-151133240D01*
X79752672Y-151138167D01*
G37*
G36*
X72132672Y-151138167D02*
G01*
X72281972Y-151167864D01*
X72445944Y-151235784D01*
X72593514Y-151334387D01*
X72719013Y-151459886D01*
X72817616Y-151607456D01*
X72885536Y-151771428D01*
X72920160Y-151945499D01*
X72920160Y-152122981D01*
X72885536Y-152297052D01*
X72817616Y-152461024D01*
X72719013Y-152608594D01*
X72593514Y-152734093D01*
X72445944Y-152832696D01*
X72281972Y-152900616D01*
X72132672Y-152930313D01*
X72107902Y-152935240D01*
X71930418Y-152935240D01*
X71905648Y-152930313D01*
X71756348Y-152900616D01*
X71592376Y-152832696D01*
X71444806Y-152734093D01*
X71319307Y-152608594D01*
X71220704Y-152461024D01*
X71152784Y-152297052D01*
X71118160Y-152122981D01*
X71118160Y-151945499D01*
X71152784Y-151771428D01*
X71220704Y-151607456D01*
X71319307Y-151459886D01*
X71444806Y-151334387D01*
X71592376Y-151235784D01*
X71756348Y-151167864D01*
X71905648Y-151138167D01*
X71930418Y-151133240D01*
X72107902Y-151133240D01*
X72132672Y-151138167D01*
G37*
G36*
X65698033Y-149434693D02*
G01*
X65788257Y-149452639D01*
X65893867Y-149496385D01*
X66043221Y-149558249D01*
X66119363Y-149609125D01*
X66272686Y-149711572D01*
X66467828Y-149906714D01*
X66561995Y-150047646D01*
X66621151Y-150136179D01*
X66683015Y-150285533D01*
X66714116Y-150360615D01*
X66726761Y-150391144D01*
X66780600Y-150661812D01*
X66780600Y-150937788D01*
X66744707Y-151118233D01*
X66726761Y-151208457D01*
X66683015Y-151314067D01*
X66621151Y-151463421D01*
X66570275Y-151539563D01*
X66467828Y-151692886D01*
X66272686Y-151888028D01*
X66119363Y-151990475D01*
X66043221Y-152041351D01*
X65893867Y-152103215D01*
X65788257Y-152146961D01*
X65698033Y-152164907D01*
X65517588Y-152200800D01*
X65241612Y-152200800D01*
X65061167Y-152164907D01*
X64970943Y-152146961D01*
X64865333Y-152103215D01*
X64715979Y-152041351D01*
X64639837Y-151990475D01*
X64486514Y-151888028D01*
X64291372Y-151692886D01*
X64188925Y-151539563D01*
X64138049Y-151463421D01*
X64076185Y-151314067D01*
X64032439Y-151208457D01*
X64014493Y-151118233D01*
X63978600Y-150937788D01*
X63978600Y-150661812D01*
X64032439Y-150391144D01*
X64045085Y-150360615D01*
X64076185Y-150285533D01*
X64138049Y-150136179D01*
X64197205Y-150047646D01*
X64291372Y-149906714D01*
X64486514Y-149711572D01*
X64639837Y-149609125D01*
X64715979Y-149558249D01*
X64865333Y-149496385D01*
X64970943Y-149452639D01*
X65061167Y-149434693D01*
X65241612Y-149398800D01*
X65517588Y-149398800D01*
X65698033Y-149434693D01*
G37*
G36*
X123686233Y-149434693D02*
G01*
X123776457Y-149452639D01*
X123882067Y-149496385D01*
X124031421Y-149558249D01*
X124107563Y-149609125D01*
X124260886Y-149711572D01*
X124456028Y-149906714D01*
X124550195Y-150047646D01*
X124609351Y-150136179D01*
X124671215Y-150285533D01*
X124702316Y-150360615D01*
X124714961Y-150391144D01*
X124768800Y-150661812D01*
X124768800Y-150937788D01*
X124732907Y-151118233D01*
X124714961Y-151208457D01*
X124671215Y-151314067D01*
X124609351Y-151463421D01*
X124558475Y-151539563D01*
X124456028Y-151692886D01*
X124260886Y-151888028D01*
X124107563Y-151990475D01*
X124031421Y-152041351D01*
X123882067Y-152103215D01*
X123776457Y-152146961D01*
X123686233Y-152164907D01*
X123505788Y-152200800D01*
X123229812Y-152200800D01*
X123049367Y-152164907D01*
X122959143Y-152146961D01*
X122853533Y-152103215D01*
X122704179Y-152041351D01*
X122628037Y-151990475D01*
X122474714Y-151888028D01*
X122279572Y-151692886D01*
X122177125Y-151539563D01*
X122126249Y-151463421D01*
X122064385Y-151314067D01*
X122020639Y-151208457D01*
X122002693Y-151118233D01*
X121966800Y-150937788D01*
X121966800Y-150661812D01*
X122020639Y-150391144D01*
X122033285Y-150360615D01*
X122064385Y-150285533D01*
X122126249Y-150136179D01*
X122185405Y-150047646D01*
X122279572Y-149906714D01*
X122474714Y-149711572D01*
X122628037Y-149609125D01*
X122704179Y-149558249D01*
X122853533Y-149496385D01*
X122959143Y-149452639D01*
X123049367Y-149434693D01*
X123229812Y-149398800D01*
X123505788Y-149398800D01*
X123686233Y-149434693D01*
G37*
G36*
X133977062Y-148609468D02*
G01*
X134286624Y-148737693D01*
X134371474Y-148794388D01*
X134565224Y-148923847D01*
X134802153Y-149160776D01*
X134885457Y-149285450D01*
X134988307Y-149439376D01*
X135116532Y-149748938D01*
X135181900Y-150077565D01*
X135181900Y-150412635D01*
X135116532Y-150741262D01*
X134988307Y-151050824D01*
X134988306Y-151050825D01*
X134802153Y-151329424D01*
X134565224Y-151566353D01*
X134379070Y-151690737D01*
X134286624Y-151752507D01*
X133977062Y-151880732D01*
X133648435Y-151946100D01*
X133313365Y-151946100D01*
X132984738Y-151880732D01*
X132675176Y-151752507D01*
X132582730Y-151690737D01*
X132396576Y-151566353D01*
X132159647Y-151329424D01*
X131973494Y-151050825D01*
X131973493Y-151050824D01*
X131845268Y-150741262D01*
X131779900Y-150412635D01*
X131779900Y-150077565D01*
X131845268Y-149748938D01*
X131973493Y-149439376D01*
X132076343Y-149285450D01*
X132159647Y-149160776D01*
X132396576Y-148923847D01*
X132590326Y-148794388D01*
X132675176Y-148737693D01*
X132984738Y-148609468D01*
X133313365Y-148544100D01*
X133648435Y-148544100D01*
X133977062Y-148609468D01*
G37*
G36*
X139657062Y-148609468D02*
G01*
X139966624Y-148737693D01*
X140051474Y-148794388D01*
X140245224Y-148923847D01*
X140482153Y-149160776D01*
X140565457Y-149285450D01*
X140668307Y-149439376D01*
X140796532Y-149748938D01*
X140861900Y-150077565D01*
X140861900Y-150412635D01*
X140796532Y-150741262D01*
X140668307Y-151050824D01*
X140668306Y-151050825D01*
X140482153Y-151329424D01*
X140245224Y-151566353D01*
X140059070Y-151690737D01*
X139966624Y-151752507D01*
X139657062Y-151880732D01*
X139328435Y-151946100D01*
X138993365Y-151946100D01*
X138664738Y-151880732D01*
X138355176Y-151752507D01*
X138262730Y-151690737D01*
X138076576Y-151566353D01*
X137839647Y-151329424D01*
X137653494Y-151050825D01*
X137653493Y-151050824D01*
X137525268Y-150741262D01*
X137459900Y-150412635D01*
X137459900Y-150077565D01*
X137525268Y-149748938D01*
X137653493Y-149439376D01*
X137756343Y-149285450D01*
X137839647Y-149160776D01*
X138076576Y-148923847D01*
X138270326Y-148794388D01*
X138355176Y-148737693D01*
X138664738Y-148609468D01*
X138993365Y-148544100D01*
X139328435Y-148544100D01*
X139657062Y-148609468D01*
G37*
G36*
X113423000Y-151523000D02*
G01*
X111621000Y-151523000D01*
X111621000Y-149721000D01*
X113423000Y-149721000D01*
X113423000Y-151523000D01*
G37*
G36*
X117715512Y-149725927D02*
G01*
X117864812Y-149755624D01*
X118028784Y-149823544D01*
X118176354Y-149922147D01*
X118301853Y-150047646D01*
X118400456Y-150195216D01*
X118468376Y-150359188D01*
X118503000Y-150533259D01*
X118503000Y-150710741D01*
X118468376Y-150884812D01*
X118400456Y-151048784D01*
X118301853Y-151196354D01*
X118176354Y-151321853D01*
X118028784Y-151420456D01*
X117864812Y-151488376D01*
X117715512Y-151518073D01*
X117690742Y-151523000D01*
X117513258Y-151523000D01*
X117488488Y-151518073D01*
X117339188Y-151488376D01*
X117175216Y-151420456D01*
X117027646Y-151321853D01*
X116902147Y-151196354D01*
X116803544Y-151048784D01*
X116735624Y-150884812D01*
X116701000Y-150710741D01*
X116701000Y-150533259D01*
X116735624Y-150359188D01*
X116803544Y-150195216D01*
X116902147Y-150047646D01*
X117027646Y-149922147D01*
X117175216Y-149823544D01*
X117339188Y-149755624D01*
X117488488Y-149725927D01*
X117513258Y-149721000D01*
X117690742Y-149721000D01*
X117715512Y-149725927D01*
G37*
G36*
X115175512Y-149725927D02*
G01*
X115324812Y-149755624D01*
X115488784Y-149823544D01*
X115636354Y-149922147D01*
X115761853Y-150047646D01*
X115860456Y-150195216D01*
X115928376Y-150359188D01*
X115963000Y-150533259D01*
X115963000Y-150710741D01*
X115928376Y-150884812D01*
X115860456Y-151048784D01*
X115761853Y-151196354D01*
X115636354Y-151321853D01*
X115488784Y-151420456D01*
X115324812Y-151488376D01*
X115175512Y-151518073D01*
X115150742Y-151523000D01*
X114973258Y-151523000D01*
X114948488Y-151518073D01*
X114799188Y-151488376D01*
X114635216Y-151420456D01*
X114487646Y-151321853D01*
X114362147Y-151196354D01*
X114263544Y-151048784D01*
X114195624Y-150884812D01*
X114161000Y-150710741D01*
X114161000Y-150533259D01*
X114195624Y-150359188D01*
X114263544Y-150195216D01*
X114362147Y-150047646D01*
X114487646Y-149922147D01*
X114635216Y-149823544D01*
X114799188Y-149755624D01*
X114948488Y-149725927D01*
X114973258Y-149721000D01*
X115150742Y-149721000D01*
X115175512Y-149725927D01*
G37*
G36*
X79752672Y-148598167D02*
G01*
X79901972Y-148627864D01*
X80065944Y-148695784D01*
X80213514Y-148794387D01*
X80339013Y-148919886D01*
X80437616Y-149067456D01*
X80505536Y-149231428D01*
X80540160Y-149405499D01*
X80540160Y-149582981D01*
X80505536Y-149757052D01*
X80437616Y-149921024D01*
X80339013Y-150068594D01*
X80213514Y-150194093D01*
X80065944Y-150292696D01*
X79901972Y-150360616D01*
X79752672Y-150390313D01*
X79727902Y-150395240D01*
X79550418Y-150395240D01*
X79525648Y-150390313D01*
X79376348Y-150360616D01*
X79212376Y-150292696D01*
X79064806Y-150194093D01*
X78939307Y-150068594D01*
X78840704Y-149921024D01*
X78772784Y-149757052D01*
X78738160Y-149582981D01*
X78738160Y-149405499D01*
X78772784Y-149231428D01*
X78840704Y-149067456D01*
X78939307Y-148919886D01*
X79064806Y-148794387D01*
X79212376Y-148695784D01*
X79376348Y-148627864D01*
X79525648Y-148598167D01*
X79550418Y-148593240D01*
X79727902Y-148593240D01*
X79752672Y-148598167D01*
G37*
G36*
X77212672Y-148598167D02*
G01*
X77361972Y-148627864D01*
X77525944Y-148695784D01*
X77673514Y-148794387D01*
X77799013Y-148919886D01*
X77897616Y-149067456D01*
X77965536Y-149231428D01*
X78000160Y-149405499D01*
X78000160Y-149582981D01*
X77965536Y-149757052D01*
X77897616Y-149921024D01*
X77799013Y-150068594D01*
X77673514Y-150194093D01*
X77525944Y-150292696D01*
X77361972Y-150360616D01*
X77212672Y-150390313D01*
X77187902Y-150395240D01*
X77010418Y-150395240D01*
X76985648Y-150390313D01*
X76836348Y-150360616D01*
X76672376Y-150292696D01*
X76524806Y-150194093D01*
X76399307Y-150068594D01*
X76300704Y-149921024D01*
X76232784Y-149757052D01*
X76198160Y-149582981D01*
X76198160Y-149405499D01*
X76232784Y-149231428D01*
X76300704Y-149067456D01*
X76399307Y-148919886D01*
X76524806Y-148794387D01*
X76672376Y-148695784D01*
X76836348Y-148627864D01*
X76985648Y-148598167D01*
X77010418Y-148593240D01*
X77187902Y-148593240D01*
X77212672Y-148598167D01*
G37*
G36*
X74672672Y-148598167D02*
G01*
X74821972Y-148627864D01*
X74985944Y-148695784D01*
X75133514Y-148794387D01*
X75259013Y-148919886D01*
X75357616Y-149067456D01*
X75425536Y-149231428D01*
X75460160Y-149405499D01*
X75460160Y-149582981D01*
X75425536Y-149757052D01*
X75357616Y-149921024D01*
X75259013Y-150068594D01*
X75133514Y-150194093D01*
X74985944Y-150292696D01*
X74821972Y-150360616D01*
X74672672Y-150390313D01*
X74647902Y-150395240D01*
X74470418Y-150395240D01*
X74445648Y-150390313D01*
X74296348Y-150360616D01*
X74132376Y-150292696D01*
X73984806Y-150194093D01*
X73859307Y-150068594D01*
X73760704Y-149921024D01*
X73692784Y-149757052D01*
X73658160Y-149582981D01*
X73658160Y-149405499D01*
X73692784Y-149231428D01*
X73760704Y-149067456D01*
X73859307Y-148919886D01*
X73984806Y-148794387D01*
X74132376Y-148695784D01*
X74296348Y-148627864D01*
X74445648Y-148598167D01*
X74470418Y-148593240D01*
X74647902Y-148593240D01*
X74672672Y-148598167D01*
G37*
G36*
X72920160Y-150395240D02*
G01*
X71118160Y-150395240D01*
X71118160Y-148593240D01*
X72920160Y-148593240D01*
X72920160Y-150395240D01*
G37*
G36*
X108270973Y-146678793D02*
G01*
X108361197Y-146696739D01*
X108466807Y-146740485D01*
X108616161Y-146802349D01*
X108692303Y-146853225D01*
X108845626Y-146955672D01*
X109040768Y-147150814D01*
X109106418Y-147249067D01*
X109194091Y-147380279D01*
X109299701Y-147635244D01*
X109353540Y-147905912D01*
X109353540Y-148181888D01*
X109299701Y-148452556D01*
X109194091Y-148707521D01*
X109194090Y-148707522D01*
X109040768Y-148936986D01*
X108845626Y-149132128D01*
X108802749Y-149160777D01*
X108616161Y-149285451D01*
X108466807Y-149347315D01*
X108361197Y-149391061D01*
X108288616Y-149405498D01*
X108090528Y-149444900D01*
X107814552Y-149444900D01*
X107616464Y-149405498D01*
X107543883Y-149391061D01*
X107438273Y-149347315D01*
X107288919Y-149285451D01*
X107102331Y-149160777D01*
X107059454Y-149132128D01*
X106864312Y-148936986D01*
X106710990Y-148707522D01*
X106710989Y-148707521D01*
X106605379Y-148452556D01*
X106551540Y-148181888D01*
X106551540Y-147905912D01*
X106605379Y-147635244D01*
X106710989Y-147380279D01*
X106798662Y-147249067D01*
X106864312Y-147150814D01*
X107059454Y-146955672D01*
X107212777Y-146853225D01*
X107288919Y-146802349D01*
X107438273Y-146740485D01*
X107543883Y-146696739D01*
X107634107Y-146678793D01*
X107814552Y-146642900D01*
X108090528Y-146642900D01*
X108270973Y-146678793D01*
G37*
G36*
X87694433Y-146597513D02*
G01*
X87784657Y-146615459D01*
X87890267Y-146659205D01*
X88039621Y-146721069D01*
X88039622Y-146721070D01*
X88269086Y-146874392D01*
X88464228Y-147069534D01*
X88496940Y-147118492D01*
X88617551Y-147298999D01*
X88679415Y-147448353D01*
X88713580Y-147530832D01*
X88723161Y-147553964D01*
X88777000Y-147824632D01*
X88777000Y-148100608D01*
X88723161Y-148371276D01*
X88617551Y-148626241D01*
X88616466Y-148627865D01*
X88464228Y-148855706D01*
X88269086Y-149050848D01*
X88147441Y-149132128D01*
X88039621Y-149204171D01*
X87973814Y-149231429D01*
X87784657Y-149309781D01*
X87694433Y-149327727D01*
X87513988Y-149363620D01*
X87238012Y-149363620D01*
X87057567Y-149327727D01*
X86967343Y-149309781D01*
X86778186Y-149231429D01*
X86712379Y-149204171D01*
X86604559Y-149132128D01*
X86482914Y-149050848D01*
X86287772Y-148855706D01*
X86135534Y-148627865D01*
X86134449Y-148626241D01*
X86028839Y-148371276D01*
X85975000Y-148100608D01*
X85975000Y-147824632D01*
X86028839Y-147553964D01*
X86038421Y-147530832D01*
X86072585Y-147448353D01*
X86134449Y-147298999D01*
X86255060Y-147118492D01*
X86287772Y-147069534D01*
X86482914Y-146874392D01*
X86712378Y-146721070D01*
X86712379Y-146721069D01*
X86861733Y-146659205D01*
X86967343Y-146615459D01*
X87057567Y-146597513D01*
X87238012Y-146561620D01*
X87513988Y-146561620D01*
X87694433Y-146597513D01*
G37*
G36*
X136669959Y-146452960D02*
G01*
X136806632Y-146509572D01*
X136929635Y-146591760D01*
X137034240Y-146696365D01*
X137050747Y-146721070D01*
X137116429Y-146819370D01*
X137173040Y-146956041D01*
X137201900Y-147101132D01*
X137201900Y-147249068D01*
X137185553Y-147331249D01*
X137173040Y-147394159D01*
X137116428Y-147530832D01*
X137034240Y-147653835D01*
X136929635Y-147758440D01*
X136806632Y-147840628D01*
X136806631Y-147840629D01*
X136806630Y-147840629D01*
X136669959Y-147897240D01*
X136524868Y-147926100D01*
X136376932Y-147926100D01*
X136231841Y-147897240D01*
X136095170Y-147840629D01*
X136095169Y-147840629D01*
X136095168Y-147840628D01*
X135972165Y-147758440D01*
X135867560Y-147653835D01*
X135785372Y-147530832D01*
X135728760Y-147394159D01*
X135716247Y-147331249D01*
X135699900Y-147249068D01*
X135699900Y-147101132D01*
X135728760Y-146956041D01*
X135785371Y-146819370D01*
X135851053Y-146721070D01*
X135867560Y-146696365D01*
X135972165Y-146591760D01*
X136095168Y-146509572D01*
X136231841Y-146452960D01*
X136376932Y-146424100D01*
X136524868Y-146424100D01*
X136669959Y-146452960D01*
G37*
G36*
X134049959Y-146452960D02*
G01*
X134186632Y-146509572D01*
X134309635Y-146591760D01*
X134414240Y-146696365D01*
X134430747Y-146721070D01*
X134496429Y-146819370D01*
X134553040Y-146956041D01*
X134581900Y-147101132D01*
X134581900Y-147249068D01*
X134565553Y-147331249D01*
X134553040Y-147394159D01*
X134496428Y-147530832D01*
X134414240Y-147653835D01*
X134309635Y-147758440D01*
X134186632Y-147840628D01*
X134186631Y-147840629D01*
X134186630Y-147840629D01*
X134049959Y-147897240D01*
X133904868Y-147926100D01*
X133756932Y-147926100D01*
X133611841Y-147897240D01*
X133475170Y-147840629D01*
X133475169Y-147840629D01*
X133475168Y-147840628D01*
X133352165Y-147758440D01*
X133247560Y-147653835D01*
X133165372Y-147530832D01*
X133108760Y-147394159D01*
X133096247Y-147331249D01*
X133079900Y-147249068D01*
X133079900Y-147101132D01*
X133108760Y-146956041D01*
X133165371Y-146819370D01*
X133231053Y-146721070D01*
X133247560Y-146696365D01*
X133352165Y-146591760D01*
X133475168Y-146509572D01*
X133611841Y-146452960D01*
X133756932Y-146424100D01*
X133904868Y-146424100D01*
X134049959Y-146452960D01*
G37*
G36*
X131770738Y-143939627D02*
G01*
X131806307Y-143950417D01*
X131839079Y-143967934D01*
X131867809Y-143991511D01*
X131891386Y-144020241D01*
X131908903Y-144053013D01*
X131919693Y-144088582D01*
X131923940Y-144131705D01*
X131923940Y-147191055D01*
X131919693Y-147234178D01*
X131908903Y-147269747D01*
X131891386Y-147302519D01*
X131867809Y-147331249D01*
X131839079Y-147354826D01*
X131806307Y-147372343D01*
X131770738Y-147383133D01*
X131727615Y-147387380D01*
X130668265Y-147387380D01*
X130625142Y-147383133D01*
X130589573Y-147372343D01*
X130556801Y-147354826D01*
X130528071Y-147331249D01*
X130504494Y-147302519D01*
X130486977Y-147269747D01*
X130476187Y-147234178D01*
X130471940Y-147191055D01*
X130471940Y-144131705D01*
X130476187Y-144088582D01*
X130486977Y-144053013D01*
X130504494Y-144020241D01*
X130528071Y-143991511D01*
X130556801Y-143967934D01*
X130589573Y-143950417D01*
X130625142Y-143939627D01*
X130668265Y-143935380D01*
X131727615Y-143935380D01*
X131770738Y-143939627D01*
G37*
G36*
X125970738Y-143939627D02*
G01*
X126006307Y-143950417D01*
X126039079Y-143967934D01*
X126067809Y-143991511D01*
X126091386Y-144020241D01*
X126108903Y-144053013D01*
X126119693Y-144088582D01*
X126123940Y-144131705D01*
X126123940Y-147191055D01*
X126119693Y-147234178D01*
X126108903Y-147269747D01*
X126091386Y-147302519D01*
X126067809Y-147331249D01*
X126039079Y-147354826D01*
X126006307Y-147372343D01*
X125970738Y-147383133D01*
X125927615Y-147387380D01*
X124868265Y-147387380D01*
X124825142Y-147383133D01*
X124789573Y-147372343D01*
X124756801Y-147354826D01*
X124728071Y-147331249D01*
X124704494Y-147302519D01*
X124686977Y-147269747D01*
X124676187Y-147234178D01*
X124671940Y-147191055D01*
X124671940Y-144131705D01*
X124676187Y-144088582D01*
X124686977Y-144053013D01*
X124704494Y-144020241D01*
X124728071Y-143991511D01*
X124756801Y-143967934D01*
X124789573Y-143950417D01*
X124825142Y-143939627D01*
X124868265Y-143935380D01*
X125927615Y-143935380D01*
X125970738Y-143939627D01*
G37*
G36*
X70287766Y-141904495D02*
G01*
X70444860Y-141952149D01*
X70589631Y-142029531D01*
X70716528Y-142133672D01*
X70820669Y-142260569D01*
X70898051Y-142405340D01*
X70945705Y-142562434D01*
X70962400Y-142731940D01*
X70962400Y-144645660D01*
X70945705Y-144815166D01*
X70898051Y-144972260D01*
X70820669Y-145117031D01*
X70716528Y-145243928D01*
X70589631Y-145348069D01*
X70444860Y-145425451D01*
X70287766Y-145473105D01*
X70118260Y-145489800D01*
X68204540Y-145489800D01*
X68035034Y-145473105D01*
X67877940Y-145425451D01*
X67733169Y-145348069D01*
X67606272Y-145243928D01*
X67502131Y-145117031D01*
X67424749Y-144972260D01*
X67377095Y-144815166D01*
X67360400Y-144645660D01*
X67360400Y-142731940D01*
X67377095Y-142562434D01*
X67424749Y-142405340D01*
X67502131Y-142260569D01*
X67606272Y-142133672D01*
X67733169Y-142029531D01*
X67877940Y-141952149D01*
X68035034Y-141904495D01*
X68204540Y-141887800D01*
X70118260Y-141887800D01*
X70287766Y-141904495D01*
G37*
G36*
X136669959Y-143952960D02*
G01*
X136736920Y-143980696D01*
X136806632Y-144009572D01*
X136929635Y-144091760D01*
X137034240Y-144196365D01*
X137048163Y-144217202D01*
X137116429Y-144319370D01*
X137173040Y-144456041D01*
X137199547Y-144589300D01*
X137201900Y-144601133D01*
X137201900Y-144749067D01*
X137173040Y-144894159D01*
X137116428Y-145030832D01*
X137034240Y-145153835D01*
X136929635Y-145258440D01*
X136806632Y-145340628D01*
X136806631Y-145340629D01*
X136806630Y-145340629D01*
X136669959Y-145397240D01*
X136524868Y-145426100D01*
X136376932Y-145426100D01*
X136231841Y-145397240D01*
X136095170Y-145340629D01*
X136095169Y-145340629D01*
X136095168Y-145340628D01*
X135972165Y-145258440D01*
X135867560Y-145153835D01*
X135785372Y-145030832D01*
X135728760Y-144894159D01*
X135699900Y-144749067D01*
X135699900Y-144601133D01*
X135702254Y-144589300D01*
X135728760Y-144456041D01*
X135785371Y-144319370D01*
X135853637Y-144217202D01*
X135867560Y-144196365D01*
X135972165Y-144091760D01*
X136095168Y-144009572D01*
X136164881Y-143980696D01*
X136231841Y-143952960D01*
X136376932Y-143924100D01*
X136524868Y-143924100D01*
X136669959Y-143952960D01*
G37*
G36*
X134049959Y-143952960D02*
G01*
X134116920Y-143980696D01*
X134186632Y-144009572D01*
X134309635Y-144091760D01*
X134414240Y-144196365D01*
X134428163Y-144217202D01*
X134496429Y-144319370D01*
X134553040Y-144456041D01*
X134579547Y-144589300D01*
X134581900Y-144601133D01*
X134581900Y-144749067D01*
X134553040Y-144894159D01*
X134496428Y-145030832D01*
X134414240Y-145153835D01*
X134309635Y-145258440D01*
X134186632Y-145340628D01*
X134186631Y-145340629D01*
X134186630Y-145340629D01*
X134049959Y-145397240D01*
X133904868Y-145426100D01*
X133756932Y-145426100D01*
X133611841Y-145397240D01*
X133475170Y-145340629D01*
X133475169Y-145340629D01*
X133475168Y-145340628D01*
X133352165Y-145258440D01*
X133247560Y-145153835D01*
X133165372Y-145030832D01*
X133108760Y-144894159D01*
X133079900Y-144749067D01*
X133079900Y-144601133D01*
X133082254Y-144589300D01*
X133108760Y-144456041D01*
X133165371Y-144319370D01*
X133233637Y-144217202D01*
X133247560Y-144196365D01*
X133352165Y-144091760D01*
X133475168Y-144009572D01*
X133544881Y-143980696D01*
X133611841Y-143952960D01*
X133756932Y-143924100D01*
X133904868Y-143924100D01*
X134049959Y-143952960D01*
G37*
G36*
X119066748Y-144078704D02*
G01*
X119087829Y-144085100D01*
X119107265Y-144095488D01*
X119124296Y-144109464D01*
X119138272Y-144126495D01*
X119148660Y-144145931D01*
X119155056Y-144167012D01*
X119157820Y-144195080D01*
X119157820Y-144658800D01*
X119155056Y-144686868D01*
X119148660Y-144707949D01*
X119138272Y-144727385D01*
X119124296Y-144744416D01*
X119107265Y-144758392D01*
X119087829Y-144768780D01*
X119066748Y-144775176D01*
X119038680Y-144777940D01*
X117224960Y-144777940D01*
X117196892Y-144775176D01*
X117175811Y-144768780D01*
X117156375Y-144758392D01*
X117139344Y-144744416D01*
X117125368Y-144727385D01*
X117114980Y-144707949D01*
X117108584Y-144686868D01*
X117105820Y-144658800D01*
X117105820Y-144195080D01*
X117108584Y-144167012D01*
X117114980Y-144145931D01*
X117125368Y-144126495D01*
X117139344Y-144109464D01*
X117156375Y-144095488D01*
X117175811Y-144085100D01*
X117196892Y-144078704D01*
X117224960Y-144075940D01*
X119038680Y-144075940D01*
X119066748Y-144078704D01*
G37*
G36*
X124016748Y-144078704D02*
G01*
X124037829Y-144085100D01*
X124057265Y-144095488D01*
X124074296Y-144109464D01*
X124088272Y-144126495D01*
X124098660Y-144145931D01*
X124105056Y-144167012D01*
X124107820Y-144195080D01*
X124107820Y-144658800D01*
X124105056Y-144686868D01*
X124098660Y-144707949D01*
X124088272Y-144727385D01*
X124074296Y-144744416D01*
X124057265Y-144758392D01*
X124037829Y-144768780D01*
X124016748Y-144775176D01*
X123988680Y-144777940D01*
X122174960Y-144777940D01*
X122146892Y-144775176D01*
X122125811Y-144768780D01*
X122106375Y-144758392D01*
X122089344Y-144744416D01*
X122075368Y-144727385D01*
X122064980Y-144707949D01*
X122058584Y-144686868D01*
X122055820Y-144658800D01*
X122055820Y-144195080D01*
X122058584Y-144167012D01*
X122064980Y-144145931D01*
X122075368Y-144126495D01*
X122089344Y-144109464D01*
X122106375Y-144095488D01*
X122125811Y-144085100D01*
X122146892Y-144078704D01*
X122174960Y-144075940D01*
X123988680Y-144075940D01*
X124016748Y-144078704D01*
G37*
G36*
X114593468Y-142255565D02*
G01*
X114632138Y-142267296D01*
X114667777Y-142286346D01*
X114699017Y-142311983D01*
X114724654Y-142343223D01*
X114743704Y-142378862D01*
X114755435Y-142417532D01*
X114760000Y-142463888D01*
X114760000Y-143540112D01*
X114755435Y-143586468D01*
X114743704Y-143625138D01*
X114724654Y-143660777D01*
X114699017Y-143692017D01*
X114667777Y-143717654D01*
X114632138Y-143736704D01*
X114593468Y-143748435D01*
X114547112Y-143753000D01*
X113895888Y-143753000D01*
X113849532Y-143748435D01*
X113810862Y-143736704D01*
X113775223Y-143717654D01*
X113743983Y-143692017D01*
X113718346Y-143660777D01*
X113699296Y-143625138D01*
X113687565Y-143586468D01*
X113683000Y-143540112D01*
X113683000Y-142463888D01*
X113687565Y-142417532D01*
X113699296Y-142378862D01*
X113718346Y-142343223D01*
X113743983Y-142311983D01*
X113775223Y-142286346D01*
X113810862Y-142267296D01*
X113849532Y-142255565D01*
X113895888Y-142251000D01*
X114547112Y-142251000D01*
X114593468Y-142255565D01*
G37*
G36*
X112718468Y-142255565D02*
G01*
X112757138Y-142267296D01*
X112792777Y-142286346D01*
X112824017Y-142311983D01*
X112849654Y-142343223D01*
X112868704Y-142378862D01*
X112880435Y-142417532D01*
X112885000Y-142463888D01*
X112885000Y-143540112D01*
X112880435Y-143586468D01*
X112868704Y-143625138D01*
X112849654Y-143660777D01*
X112824017Y-143692017D01*
X112792777Y-143717654D01*
X112757138Y-143736704D01*
X112718468Y-143748435D01*
X112672112Y-143753000D01*
X112020888Y-143753000D01*
X111974532Y-143748435D01*
X111935862Y-143736704D01*
X111900223Y-143717654D01*
X111868983Y-143692017D01*
X111843346Y-143660777D01*
X111824296Y-143625138D01*
X111812565Y-143586468D01*
X111808000Y-143540112D01*
X111808000Y-142463888D01*
X111812565Y-142417532D01*
X111824296Y-142378862D01*
X111843346Y-142343223D01*
X111868983Y-142311983D01*
X111900223Y-142286346D01*
X111935862Y-142267296D01*
X111974532Y-142255565D01*
X112020888Y-142251000D01*
X112672112Y-142251000D01*
X112718468Y-142255565D01*
G37*
G36*
X124016748Y-142808704D02*
G01*
X124037829Y-142815100D01*
X124057265Y-142825488D01*
X124074296Y-142839464D01*
X124088272Y-142856495D01*
X124098660Y-142875931D01*
X124105056Y-142897012D01*
X124107820Y-142925080D01*
X124107820Y-143388800D01*
X124105056Y-143416868D01*
X124098660Y-143437949D01*
X124088272Y-143457385D01*
X124074296Y-143474416D01*
X124057265Y-143488392D01*
X124037829Y-143498780D01*
X124016748Y-143505176D01*
X123988680Y-143507940D01*
X122174960Y-143507940D01*
X122146892Y-143505176D01*
X122125811Y-143498780D01*
X122106375Y-143488392D01*
X122089344Y-143474416D01*
X122075368Y-143457385D01*
X122064980Y-143437949D01*
X122058584Y-143416868D01*
X122055820Y-143388800D01*
X122055820Y-142925080D01*
X122058584Y-142897012D01*
X122064980Y-142875931D01*
X122075368Y-142856495D01*
X122089344Y-142839464D01*
X122106375Y-142825488D01*
X122125811Y-142815100D01*
X122146892Y-142808704D01*
X122174960Y-142805940D01*
X123988680Y-142805940D01*
X124016748Y-142808704D01*
G37*
G36*
X119066748Y-142808704D02*
G01*
X119087829Y-142815100D01*
X119107265Y-142825488D01*
X119124296Y-142839464D01*
X119138272Y-142856495D01*
X119148660Y-142875931D01*
X119155056Y-142897012D01*
X119157820Y-142925080D01*
X119157820Y-143388800D01*
X119155056Y-143416868D01*
X119148660Y-143437949D01*
X119138272Y-143457385D01*
X119124296Y-143474416D01*
X119107265Y-143488392D01*
X119087829Y-143498780D01*
X119066748Y-143505176D01*
X119038680Y-143507940D01*
X117224960Y-143507940D01*
X117196892Y-143505176D01*
X117175811Y-143498780D01*
X117156375Y-143488392D01*
X117139344Y-143474416D01*
X117125368Y-143457385D01*
X117114980Y-143437949D01*
X117108584Y-143416868D01*
X117105820Y-143388800D01*
X117105820Y-142925080D01*
X117108584Y-142897012D01*
X117114980Y-142875931D01*
X117125368Y-142856495D01*
X117139344Y-142839464D01*
X117156375Y-142825488D01*
X117175811Y-142815100D01*
X117196892Y-142808704D01*
X117224960Y-142805940D01*
X119038680Y-142805940D01*
X119066748Y-142808704D01*
G37*
G36*
X136669959Y-141952960D02*
G01*
X136678134Y-141956346D01*
X136806632Y-142009572D01*
X136929635Y-142091760D01*
X137034240Y-142196365D01*
X137101066Y-142296377D01*
X137116429Y-142319370D01*
X137173040Y-142456041D01*
X137201900Y-142601132D01*
X137201900Y-142749068D01*
X137187930Y-142819299D01*
X137173040Y-142894159D01*
X137116428Y-143030832D01*
X137034240Y-143153835D01*
X136929635Y-143258440D01*
X136806632Y-143340628D01*
X136806631Y-143340629D01*
X136806630Y-143340629D01*
X136669959Y-143397240D01*
X136524868Y-143426100D01*
X136376932Y-143426100D01*
X136231841Y-143397240D01*
X136095170Y-143340629D01*
X136095169Y-143340629D01*
X136095168Y-143340628D01*
X135972165Y-143258440D01*
X135867560Y-143153835D01*
X135785372Y-143030832D01*
X135728760Y-142894159D01*
X135713870Y-142819299D01*
X135699900Y-142749068D01*
X135699900Y-142601132D01*
X135728760Y-142456041D01*
X135785371Y-142319370D01*
X135800734Y-142296377D01*
X135867560Y-142196365D01*
X135972165Y-142091760D01*
X136095168Y-142009572D01*
X136223667Y-141956346D01*
X136231841Y-141952960D01*
X136376932Y-141924100D01*
X136524868Y-141924100D01*
X136669959Y-141952960D01*
G37*
G36*
X134049959Y-141952960D02*
G01*
X134058134Y-141956346D01*
X134186632Y-142009572D01*
X134309635Y-142091760D01*
X134414240Y-142196365D01*
X134481066Y-142296377D01*
X134496429Y-142319370D01*
X134553040Y-142456041D01*
X134581900Y-142601132D01*
X134581900Y-142749068D01*
X134567930Y-142819299D01*
X134553040Y-142894159D01*
X134496428Y-143030832D01*
X134414240Y-143153835D01*
X134309635Y-143258440D01*
X134186632Y-143340628D01*
X134186631Y-143340629D01*
X134186630Y-143340629D01*
X134049959Y-143397240D01*
X133904868Y-143426100D01*
X133756932Y-143426100D01*
X133611841Y-143397240D01*
X133475170Y-143340629D01*
X133475169Y-143340629D01*
X133475168Y-143340628D01*
X133352165Y-143258440D01*
X133247560Y-143153835D01*
X133165372Y-143030832D01*
X133108760Y-142894159D01*
X133093870Y-142819299D01*
X133079900Y-142749068D01*
X133079900Y-142601132D01*
X133108760Y-142456041D01*
X133165371Y-142319370D01*
X133180734Y-142296377D01*
X133247560Y-142196365D01*
X133352165Y-142091760D01*
X133475168Y-142009572D01*
X133603667Y-141956346D01*
X133611841Y-141952960D01*
X133756932Y-141924100D01*
X133904868Y-141924100D01*
X134049959Y-141952960D01*
G37*
G36*
X124016748Y-141538704D02*
G01*
X124037829Y-141545100D01*
X124057265Y-141555488D01*
X124074296Y-141569464D01*
X124088272Y-141586495D01*
X124098660Y-141605931D01*
X124105056Y-141627012D01*
X124107820Y-141655080D01*
X124107820Y-142118800D01*
X124105056Y-142146868D01*
X124098660Y-142167949D01*
X124088272Y-142187385D01*
X124074296Y-142204416D01*
X124057265Y-142218392D01*
X124037829Y-142228780D01*
X124016748Y-142235176D01*
X123988680Y-142237940D01*
X122174960Y-142237940D01*
X122146892Y-142235176D01*
X122125811Y-142228780D01*
X122106375Y-142218392D01*
X122089344Y-142204416D01*
X122075368Y-142187385D01*
X122064980Y-142167949D01*
X122058584Y-142146868D01*
X122055820Y-142118800D01*
X122055820Y-141655080D01*
X122058584Y-141627012D01*
X122064980Y-141605931D01*
X122075368Y-141586495D01*
X122089344Y-141569464D01*
X122106375Y-141555488D01*
X122125811Y-141545100D01*
X122146892Y-141538704D01*
X122174960Y-141535940D01*
X123988680Y-141535940D01*
X124016748Y-141538704D01*
G37*
G36*
X119066748Y-141538704D02*
G01*
X119087829Y-141545100D01*
X119107265Y-141555488D01*
X119124296Y-141569464D01*
X119138272Y-141586495D01*
X119148660Y-141605931D01*
X119155056Y-141627012D01*
X119157820Y-141655080D01*
X119157820Y-142118800D01*
X119155056Y-142146868D01*
X119148660Y-142167949D01*
X119138272Y-142187385D01*
X119124296Y-142204416D01*
X119107265Y-142218392D01*
X119087829Y-142228780D01*
X119066748Y-142235176D01*
X119038680Y-142237940D01*
X117224960Y-142237940D01*
X117196892Y-142235176D01*
X117175811Y-142228780D01*
X117156375Y-142218392D01*
X117139344Y-142204416D01*
X117125368Y-142187385D01*
X117114980Y-142167949D01*
X117108584Y-142146868D01*
X117105820Y-142118800D01*
X117105820Y-141655080D01*
X117108584Y-141627012D01*
X117114980Y-141605931D01*
X117125368Y-141586495D01*
X117139344Y-141569464D01*
X117156375Y-141555488D01*
X117175811Y-141545100D01*
X117196892Y-141538704D01*
X117224960Y-141535940D01*
X119038680Y-141535940D01*
X119066748Y-141538704D01*
G37*
G36*
X124016748Y-140268704D02*
G01*
X124037829Y-140275100D01*
X124057265Y-140285488D01*
X124074296Y-140299464D01*
X124088272Y-140316495D01*
X124098660Y-140335931D01*
X124105056Y-140357012D01*
X124107820Y-140385080D01*
X124107820Y-140848800D01*
X124105056Y-140876868D01*
X124098660Y-140897949D01*
X124088272Y-140917385D01*
X124074296Y-140934416D01*
X124057265Y-140948392D01*
X124037829Y-140958780D01*
X124016748Y-140965176D01*
X123988680Y-140967940D01*
X122174960Y-140967940D01*
X122146892Y-140965176D01*
X122125811Y-140958780D01*
X122106375Y-140948392D01*
X122089344Y-140934416D01*
X122075368Y-140917385D01*
X122064980Y-140897949D01*
X122058584Y-140876868D01*
X122055820Y-140848800D01*
X122055820Y-140385080D01*
X122058584Y-140357012D01*
X122064980Y-140335931D01*
X122075368Y-140316495D01*
X122089344Y-140299464D01*
X122106375Y-140285488D01*
X122125811Y-140275100D01*
X122146892Y-140268704D01*
X122174960Y-140265940D01*
X123988680Y-140265940D01*
X124016748Y-140268704D01*
G37*
G36*
X119066748Y-140268704D02*
G01*
X119087829Y-140275100D01*
X119107265Y-140285488D01*
X119124296Y-140299464D01*
X119138272Y-140316495D01*
X119148660Y-140335931D01*
X119155056Y-140357012D01*
X119157820Y-140385080D01*
X119157820Y-140848800D01*
X119155056Y-140876868D01*
X119148660Y-140897949D01*
X119138272Y-140917385D01*
X119124296Y-140934416D01*
X119107265Y-140948392D01*
X119087829Y-140958780D01*
X119066748Y-140965176D01*
X119038680Y-140967940D01*
X117224960Y-140967940D01*
X117196892Y-140965176D01*
X117175811Y-140958780D01*
X117156375Y-140948392D01*
X117139344Y-140934416D01*
X117125368Y-140917385D01*
X117114980Y-140897949D01*
X117108584Y-140876868D01*
X117105820Y-140848800D01*
X117105820Y-140385080D01*
X117108584Y-140357012D01*
X117114980Y-140335931D01*
X117125368Y-140316495D01*
X117139344Y-140299464D01*
X117156375Y-140285488D01*
X117175811Y-140275100D01*
X117196892Y-140268704D01*
X117224960Y-140265940D01*
X119038680Y-140265940D01*
X119066748Y-140268704D01*
G37*
G36*
X136669959Y-139452960D02*
G01*
X136806632Y-139509572D01*
X136929635Y-139591760D01*
X137034240Y-139696365D01*
X137034241Y-139696367D01*
X137116429Y-139819370D01*
X137173040Y-139956041D01*
X137201900Y-140101132D01*
X137201900Y-140249068D01*
X137173040Y-140394159D01*
X137151387Y-140446435D01*
X137116428Y-140530832D01*
X137034240Y-140653835D01*
X136929635Y-140758440D01*
X136806632Y-140840628D01*
X136806631Y-140840629D01*
X136806630Y-140840629D01*
X136669959Y-140897240D01*
X136524868Y-140926100D01*
X136376932Y-140926100D01*
X136231841Y-140897240D01*
X136095170Y-140840629D01*
X136095169Y-140840629D01*
X136095168Y-140840628D01*
X135972165Y-140758440D01*
X135867560Y-140653835D01*
X135785372Y-140530832D01*
X135750414Y-140446435D01*
X135728760Y-140394159D01*
X135699900Y-140249068D01*
X135699900Y-140101132D01*
X135728760Y-139956041D01*
X135785371Y-139819370D01*
X135867559Y-139696367D01*
X135867560Y-139696365D01*
X135972165Y-139591760D01*
X136095168Y-139509572D01*
X136231841Y-139452960D01*
X136376932Y-139424100D01*
X136524868Y-139424100D01*
X136669959Y-139452960D01*
G37*
G36*
X134049959Y-139452960D02*
G01*
X134186632Y-139509572D01*
X134309635Y-139591760D01*
X134414240Y-139696365D01*
X134414241Y-139696367D01*
X134496429Y-139819370D01*
X134553040Y-139956041D01*
X134581900Y-140101132D01*
X134581900Y-140249068D01*
X134553040Y-140394159D01*
X134531387Y-140446435D01*
X134496428Y-140530832D01*
X134414240Y-140653835D01*
X134309635Y-140758440D01*
X134186632Y-140840628D01*
X134186631Y-140840629D01*
X134186630Y-140840629D01*
X134049959Y-140897240D01*
X133904868Y-140926100D01*
X133756932Y-140926100D01*
X133611841Y-140897240D01*
X133475170Y-140840629D01*
X133475169Y-140840629D01*
X133475168Y-140840628D01*
X133352165Y-140758440D01*
X133247560Y-140653835D01*
X133165372Y-140530832D01*
X133130414Y-140446435D01*
X133108760Y-140394159D01*
X133079900Y-140249068D01*
X133079900Y-140101132D01*
X133108760Y-139956041D01*
X133165371Y-139819370D01*
X133247559Y-139696367D01*
X133247560Y-139696365D01*
X133352165Y-139591760D01*
X133475168Y-139509572D01*
X133611841Y-139452960D01*
X133756932Y-139424100D01*
X133904868Y-139424100D01*
X134049959Y-139452960D01*
G37*
G36*
X67138379Y-137202093D02*
G01*
X67272025Y-137242634D01*
X67395184Y-137308464D01*
X67503140Y-137397060D01*
X67591736Y-137505016D01*
X67657566Y-137628175D01*
X67698107Y-137761821D01*
X67712400Y-137906940D01*
X67712400Y-140070660D01*
X67698107Y-140215779D01*
X67657566Y-140349425D01*
X67591736Y-140472584D01*
X67503140Y-140580540D01*
X67395184Y-140669136D01*
X67272025Y-140734966D01*
X67138379Y-140775507D01*
X66993260Y-140789800D01*
X65329540Y-140789800D01*
X65184421Y-140775507D01*
X65050775Y-140734966D01*
X64927616Y-140669136D01*
X64819660Y-140580540D01*
X64731064Y-140472584D01*
X64665234Y-140349425D01*
X64624693Y-140215779D01*
X64610400Y-140070660D01*
X64610400Y-137906940D01*
X64624693Y-137761821D01*
X64665234Y-137628175D01*
X64731064Y-137505016D01*
X64819660Y-137397060D01*
X64927616Y-137308464D01*
X65050775Y-137242634D01*
X65184421Y-137202093D01*
X65329540Y-137187800D01*
X66993260Y-137187800D01*
X67138379Y-137202093D01*
G37*
G36*
X73962400Y-140789800D02*
G01*
X70360400Y-140789800D01*
X70360400Y-137187800D01*
X73962400Y-137187800D01*
X73962400Y-140789800D01*
G37*
G36*
X114593468Y-138953565D02*
G01*
X114632138Y-138965296D01*
X114667777Y-138984346D01*
X114699017Y-139009983D01*
X114724654Y-139041223D01*
X114743704Y-139076862D01*
X114755435Y-139115532D01*
X114760000Y-139161888D01*
X114760000Y-140238112D01*
X114755435Y-140284468D01*
X114743704Y-140323138D01*
X114724654Y-140358777D01*
X114699017Y-140390017D01*
X114667777Y-140415654D01*
X114632138Y-140434704D01*
X114593468Y-140446435D01*
X114547112Y-140451000D01*
X113895888Y-140451000D01*
X113849532Y-140446435D01*
X113810862Y-140434704D01*
X113775223Y-140415654D01*
X113743983Y-140390017D01*
X113718346Y-140358777D01*
X113699296Y-140323138D01*
X113687565Y-140284468D01*
X113683000Y-140238112D01*
X113683000Y-139161888D01*
X113687565Y-139115532D01*
X113699296Y-139076862D01*
X113718346Y-139041223D01*
X113743983Y-139009983D01*
X113775223Y-138984346D01*
X113810862Y-138965296D01*
X113849532Y-138953565D01*
X113895888Y-138949000D01*
X114547112Y-138949000D01*
X114593468Y-138953565D01*
G37*
G36*
X112718468Y-138953565D02*
G01*
X112757138Y-138965296D01*
X112792777Y-138984346D01*
X112824017Y-139009983D01*
X112849654Y-139041223D01*
X112868704Y-139076862D01*
X112880435Y-139115532D01*
X112885000Y-139161888D01*
X112885000Y-140238112D01*
X112880435Y-140284468D01*
X112868704Y-140323138D01*
X112849654Y-140358777D01*
X112824017Y-140390017D01*
X112792777Y-140415654D01*
X112757138Y-140434704D01*
X112718468Y-140446435D01*
X112672112Y-140451000D01*
X112020888Y-140451000D01*
X111974532Y-140446435D01*
X111935862Y-140434704D01*
X111900223Y-140415654D01*
X111868983Y-140390017D01*
X111843346Y-140358777D01*
X111824296Y-140323138D01*
X111812565Y-140284468D01*
X111808000Y-140238112D01*
X111808000Y-139161888D01*
X111812565Y-139115532D01*
X111824296Y-139076862D01*
X111843346Y-139041223D01*
X111868983Y-139009983D01*
X111900223Y-138984346D01*
X111935862Y-138965296D01*
X111974532Y-138953565D01*
X112020888Y-138949000D01*
X112672112Y-138949000D01*
X112718468Y-138953565D01*
G37*
G36*
X103925468Y-137429565D02*
G01*
X103964138Y-137441296D01*
X103999777Y-137460346D01*
X104031017Y-137485983D01*
X104056654Y-137517223D01*
X104075704Y-137552862D01*
X104087435Y-137591532D01*
X104092000Y-137637888D01*
X104092000Y-138714112D01*
X104087435Y-138760468D01*
X104075704Y-138799138D01*
X104056654Y-138834777D01*
X104031017Y-138866017D01*
X103999777Y-138891654D01*
X103964138Y-138910704D01*
X103925468Y-138922435D01*
X103879112Y-138927000D01*
X103227888Y-138927000D01*
X103181532Y-138922435D01*
X103142862Y-138910704D01*
X103107223Y-138891654D01*
X103075983Y-138866017D01*
X103050346Y-138834777D01*
X103031296Y-138799138D01*
X103019565Y-138760468D01*
X103015000Y-138714112D01*
X103015000Y-137637888D01*
X103019565Y-137591532D01*
X103031296Y-137552862D01*
X103050346Y-137517223D01*
X103075983Y-137485983D01*
X103107223Y-137460346D01*
X103142862Y-137441296D01*
X103181532Y-137429565D01*
X103227888Y-137425000D01*
X103879112Y-137425000D01*
X103925468Y-137429565D01*
G37*
G36*
X102050468Y-137429565D02*
G01*
X102089138Y-137441296D01*
X102124777Y-137460346D01*
X102156017Y-137485983D01*
X102181654Y-137517223D01*
X102200704Y-137552862D01*
X102212435Y-137591532D01*
X102217000Y-137637888D01*
X102217000Y-138714112D01*
X102212435Y-138760468D01*
X102200704Y-138799138D01*
X102181654Y-138834777D01*
X102156017Y-138866017D01*
X102124777Y-138891654D01*
X102089138Y-138910704D01*
X102050468Y-138922435D01*
X102004112Y-138927000D01*
X101352888Y-138927000D01*
X101306532Y-138922435D01*
X101267862Y-138910704D01*
X101232223Y-138891654D01*
X101200983Y-138866017D01*
X101175346Y-138834777D01*
X101156296Y-138799138D01*
X101144565Y-138760468D01*
X101140000Y-138714112D01*
X101140000Y-137637888D01*
X101144565Y-137591532D01*
X101156296Y-137552862D01*
X101175346Y-137517223D01*
X101200983Y-137485983D01*
X101232223Y-137460346D01*
X101267862Y-137441296D01*
X101306532Y-137429565D01*
X101352888Y-137425000D01*
X102004112Y-137425000D01*
X102050468Y-137429565D01*
G37*
G36*
X139657062Y-135469468D02*
G01*
X139966624Y-135597693D01*
X139992208Y-135614788D01*
X140245224Y-135783847D01*
X140482153Y-136020776D01*
X140544368Y-136113888D01*
X140668307Y-136299376D01*
X140796532Y-136608938D01*
X140861900Y-136937565D01*
X140861900Y-137272635D01*
X140796532Y-137601262D01*
X140668307Y-137910824D01*
X140608629Y-138000138D01*
X140482153Y-138189424D01*
X140245224Y-138426353D01*
X140059070Y-138550737D01*
X139966624Y-138612507D01*
X139657062Y-138740732D01*
X139328435Y-138806100D01*
X138993365Y-138806100D01*
X138664738Y-138740732D01*
X138355176Y-138612507D01*
X138262730Y-138550737D01*
X138076576Y-138426353D01*
X137839647Y-138189424D01*
X137713171Y-138000138D01*
X137653493Y-137910824D01*
X137525268Y-137601262D01*
X137459900Y-137272635D01*
X137459900Y-136937565D01*
X137525268Y-136608938D01*
X137653493Y-136299376D01*
X137777432Y-136113888D01*
X137839647Y-136020776D01*
X138076576Y-135783847D01*
X138329592Y-135614788D01*
X138355176Y-135597693D01*
X138664738Y-135469468D01*
X138993365Y-135404100D01*
X139328435Y-135404100D01*
X139657062Y-135469468D01*
G37*
G36*
X133977062Y-135469468D02*
G01*
X134286624Y-135597693D01*
X134312208Y-135614788D01*
X134565224Y-135783847D01*
X134802153Y-136020776D01*
X134864368Y-136113888D01*
X134988307Y-136299376D01*
X135116532Y-136608938D01*
X135181900Y-136937565D01*
X135181900Y-137272635D01*
X135116532Y-137601262D01*
X134988307Y-137910824D01*
X134928629Y-138000138D01*
X134802153Y-138189424D01*
X134565224Y-138426353D01*
X134379070Y-138550737D01*
X134286624Y-138612507D01*
X133977062Y-138740732D01*
X133648435Y-138806100D01*
X133313365Y-138806100D01*
X132984738Y-138740732D01*
X132675176Y-138612507D01*
X132582730Y-138550737D01*
X132396576Y-138426353D01*
X132159647Y-138189424D01*
X132033171Y-138000138D01*
X131973493Y-137910824D01*
X131845268Y-137601262D01*
X131779900Y-137272635D01*
X131779900Y-136937565D01*
X131845268Y-136608938D01*
X131973493Y-136299376D01*
X132097432Y-136113888D01*
X132159647Y-136020776D01*
X132396576Y-135783847D01*
X132649592Y-135614788D01*
X132675176Y-135597693D01*
X132984738Y-135469468D01*
X133313365Y-135404100D01*
X133648435Y-135404100D01*
X133977062Y-135469468D01*
G37*
G36*
X92495468Y-136921565D02*
G01*
X92534138Y-136933296D01*
X92569777Y-136952346D01*
X92601017Y-136977983D01*
X92626654Y-137009223D01*
X92645704Y-137044862D01*
X92657435Y-137083532D01*
X92662000Y-137129888D01*
X92662000Y-138206112D01*
X92657435Y-138252468D01*
X92645704Y-138291138D01*
X92626654Y-138326777D01*
X92601017Y-138358017D01*
X92569777Y-138383654D01*
X92534138Y-138402704D01*
X92495468Y-138414435D01*
X92449112Y-138419000D01*
X91797888Y-138419000D01*
X91751532Y-138414435D01*
X91712862Y-138402704D01*
X91677223Y-138383654D01*
X91645983Y-138358017D01*
X91620346Y-138326777D01*
X91601296Y-138291138D01*
X91589565Y-138252468D01*
X91585000Y-138206112D01*
X91585000Y-137129888D01*
X91589565Y-137083532D01*
X91601296Y-137044862D01*
X91620346Y-137009223D01*
X91645983Y-136977983D01*
X91677223Y-136952346D01*
X91712862Y-136933296D01*
X91751532Y-136921565D01*
X91797888Y-136917000D01*
X92449112Y-136917000D01*
X92495468Y-136921565D01*
G37*
G36*
X90620468Y-136921565D02*
G01*
X90659138Y-136933296D01*
X90694777Y-136952346D01*
X90726017Y-136977983D01*
X90751654Y-137009223D01*
X90770704Y-137044862D01*
X90782435Y-137083532D01*
X90787000Y-137129888D01*
X90787000Y-138206112D01*
X90782435Y-138252468D01*
X90770704Y-138291138D01*
X90751654Y-138326777D01*
X90726017Y-138358017D01*
X90694777Y-138383654D01*
X90659138Y-138402704D01*
X90620468Y-138414435D01*
X90574112Y-138419000D01*
X89922888Y-138419000D01*
X89876532Y-138414435D01*
X89837862Y-138402704D01*
X89802223Y-138383654D01*
X89770983Y-138358017D01*
X89745346Y-138326777D01*
X89726296Y-138291138D01*
X89714565Y-138252468D01*
X89710000Y-138206112D01*
X89710000Y-137129888D01*
X89714565Y-137083532D01*
X89726296Y-137044862D01*
X89745346Y-137009223D01*
X89770983Y-136977983D01*
X89802223Y-136952346D01*
X89837862Y-136933296D01*
X89876532Y-136921565D01*
X89922888Y-136917000D01*
X90574112Y-136917000D01*
X90620468Y-136921565D01*
G37*
G36*
X98120468Y-137055565D02*
G01*
X98159138Y-137067296D01*
X98194777Y-137086346D01*
X98226017Y-137111983D01*
X98251654Y-137143223D01*
X98270704Y-137178862D01*
X98282435Y-137217532D01*
X98287000Y-137263888D01*
X98287000Y-137915112D01*
X98282435Y-137961468D01*
X98270704Y-138000138D01*
X98251654Y-138035777D01*
X98226017Y-138067017D01*
X98194777Y-138092654D01*
X98159138Y-138111704D01*
X98120468Y-138123435D01*
X98074112Y-138128000D01*
X96997888Y-138128000D01*
X96951532Y-138123435D01*
X96912862Y-138111704D01*
X96877223Y-138092654D01*
X96845983Y-138067017D01*
X96820346Y-138035777D01*
X96801296Y-138000138D01*
X96789565Y-137961468D01*
X96785000Y-137915112D01*
X96785000Y-137263888D01*
X96789565Y-137217532D01*
X96801296Y-137178862D01*
X96820346Y-137143223D01*
X96845983Y-137111983D01*
X96877223Y-137086346D01*
X96912862Y-137067296D01*
X96951532Y-137055565D01*
X96997888Y-137051000D01*
X98074112Y-137051000D01*
X98120468Y-137055565D01*
G37*
G36*
X107010468Y-137055565D02*
G01*
X107049138Y-137067296D01*
X107084777Y-137086346D01*
X107116017Y-137111983D01*
X107141654Y-137143223D01*
X107160704Y-137178862D01*
X107172435Y-137217532D01*
X107177000Y-137263888D01*
X107177000Y-137915112D01*
X107172435Y-137961468D01*
X107160704Y-138000138D01*
X107141654Y-138035777D01*
X107116017Y-138067017D01*
X107084777Y-138092654D01*
X107049138Y-138111704D01*
X107010468Y-138123435D01*
X106964112Y-138128000D01*
X105887888Y-138128000D01*
X105841532Y-138123435D01*
X105802862Y-138111704D01*
X105767223Y-138092654D01*
X105735983Y-138067017D01*
X105710346Y-138035777D01*
X105691296Y-138000138D01*
X105679565Y-137961468D01*
X105675000Y-137915112D01*
X105675000Y-137263888D01*
X105679565Y-137217532D01*
X105691296Y-137178862D01*
X105710346Y-137143223D01*
X105735983Y-137111983D01*
X105767223Y-137086346D01*
X105802862Y-137067296D01*
X105841532Y-137055565D01*
X105887888Y-137051000D01*
X106964112Y-137051000D01*
X107010468Y-137055565D01*
G37*
G36*
X80811468Y-135905565D02*
G01*
X80850138Y-135917296D01*
X80885777Y-135936346D01*
X80917017Y-135961983D01*
X80942654Y-135993223D01*
X80961704Y-136028862D01*
X80973435Y-136067532D01*
X80978000Y-136113888D01*
X80978000Y-137190112D01*
X80973435Y-137236468D01*
X80961704Y-137275138D01*
X80942654Y-137310777D01*
X80917017Y-137342017D01*
X80885777Y-137367654D01*
X80850138Y-137386704D01*
X80811468Y-137398435D01*
X80765112Y-137403000D01*
X80113888Y-137403000D01*
X80067532Y-137398435D01*
X80028862Y-137386704D01*
X79993223Y-137367654D01*
X79961983Y-137342017D01*
X79936346Y-137310777D01*
X79917296Y-137275138D01*
X79905565Y-137236468D01*
X79901000Y-137190112D01*
X79901000Y-136113888D01*
X79905565Y-136067532D01*
X79917296Y-136028862D01*
X79936346Y-135993223D01*
X79961983Y-135961983D01*
X79993223Y-135936346D01*
X80028862Y-135917296D01*
X80067532Y-135905565D01*
X80113888Y-135901000D01*
X80765112Y-135901000D01*
X80811468Y-135905565D01*
G37*
G36*
X78936468Y-135905565D02*
G01*
X78975138Y-135917296D01*
X79010777Y-135936346D01*
X79042017Y-135961983D01*
X79067654Y-135993223D01*
X79086704Y-136028862D01*
X79098435Y-136067532D01*
X79103000Y-136113888D01*
X79103000Y-137190112D01*
X79098435Y-137236468D01*
X79086704Y-137275138D01*
X79067654Y-137310777D01*
X79042017Y-137342017D01*
X79010777Y-137367654D01*
X78975138Y-137386704D01*
X78936468Y-137398435D01*
X78890112Y-137403000D01*
X78238888Y-137403000D01*
X78192532Y-137398435D01*
X78153862Y-137386704D01*
X78118223Y-137367654D01*
X78086983Y-137342017D01*
X78061346Y-137310777D01*
X78042296Y-137275138D01*
X78030565Y-137236468D01*
X78026000Y-137190112D01*
X78026000Y-136113888D01*
X78030565Y-136067532D01*
X78042296Y-136028862D01*
X78061346Y-135993223D01*
X78086983Y-135961983D01*
X78118223Y-135936346D01*
X78153862Y-135917296D01*
X78192532Y-135905565D01*
X78238888Y-135901000D01*
X78890112Y-135901000D01*
X78936468Y-135905565D01*
G37*
G36*
X84591000Y-136683000D02*
G01*
X83089000Y-136683000D01*
X83089000Y-134081000D01*
X84591000Y-134081000D01*
X84591000Y-136683000D01*
G37*
G36*
X87091000Y-136683000D02*
G01*
X85589000Y-136683000D01*
X85589000Y-134081000D01*
X87091000Y-134081000D01*
X87091000Y-136683000D01*
G37*
G36*
X107010468Y-135180565D02*
G01*
X107049138Y-135192296D01*
X107084777Y-135211346D01*
X107116017Y-135236983D01*
X107141654Y-135268223D01*
X107160704Y-135303862D01*
X107172435Y-135342532D01*
X107177000Y-135388888D01*
X107177000Y-136040112D01*
X107172435Y-136086468D01*
X107160704Y-136125138D01*
X107141654Y-136160777D01*
X107116017Y-136192017D01*
X107084777Y-136217654D01*
X107049138Y-136236704D01*
X107010468Y-136248435D01*
X106964112Y-136253000D01*
X105887888Y-136253000D01*
X105841532Y-136248435D01*
X105802862Y-136236704D01*
X105767223Y-136217654D01*
X105735983Y-136192017D01*
X105710346Y-136160777D01*
X105691296Y-136125138D01*
X105679565Y-136086468D01*
X105675000Y-136040112D01*
X105675000Y-135388888D01*
X105679565Y-135342532D01*
X105691296Y-135303862D01*
X105710346Y-135268223D01*
X105735983Y-135236983D01*
X105767223Y-135211346D01*
X105802862Y-135192296D01*
X105841532Y-135180565D01*
X105887888Y-135176000D01*
X106964112Y-135176000D01*
X107010468Y-135180565D01*
G37*
G36*
X98120468Y-135180565D02*
G01*
X98159138Y-135192296D01*
X98194777Y-135211346D01*
X98226017Y-135236983D01*
X98251654Y-135268223D01*
X98270704Y-135303862D01*
X98282435Y-135342532D01*
X98287000Y-135388888D01*
X98287000Y-136040112D01*
X98282435Y-136086468D01*
X98270704Y-136125138D01*
X98251654Y-136160777D01*
X98226017Y-136192017D01*
X98194777Y-136217654D01*
X98159138Y-136236704D01*
X98120468Y-136248435D01*
X98074112Y-136253000D01*
X96997888Y-136253000D01*
X96951532Y-136248435D01*
X96912862Y-136236704D01*
X96877223Y-136217654D01*
X96845983Y-136192017D01*
X96820346Y-136160777D01*
X96801296Y-136125138D01*
X96789565Y-136086468D01*
X96785000Y-136040112D01*
X96785000Y-135388888D01*
X96789565Y-135342532D01*
X96801296Y-135303862D01*
X96820346Y-135268223D01*
X96845983Y-135236983D01*
X96877223Y-135211346D01*
X96912862Y-135192296D01*
X96951532Y-135180565D01*
X96997888Y-135176000D01*
X98074112Y-135176000D01*
X98120468Y-135180565D01*
G37*
G36*
X102050468Y-134283565D02*
G01*
X102089138Y-134295296D01*
X102124777Y-134314346D01*
X102156017Y-134339983D01*
X102181654Y-134371223D01*
X102200704Y-134406862D01*
X102212435Y-134445532D01*
X102217000Y-134491888D01*
X102217000Y-135568112D01*
X102212435Y-135614468D01*
X102200704Y-135653138D01*
X102181654Y-135688777D01*
X102156017Y-135720017D01*
X102124777Y-135745654D01*
X102089138Y-135764704D01*
X102050468Y-135776435D01*
X102004112Y-135781000D01*
X101352888Y-135781000D01*
X101306532Y-135776435D01*
X101267862Y-135764704D01*
X101232223Y-135745654D01*
X101200983Y-135720017D01*
X101175346Y-135688777D01*
X101156296Y-135653138D01*
X101144565Y-135614468D01*
X101140000Y-135568112D01*
X101140000Y-134491888D01*
X101144565Y-134445532D01*
X101156296Y-134406862D01*
X101175346Y-134371223D01*
X101200983Y-134339983D01*
X101232223Y-134314346D01*
X101267862Y-134295296D01*
X101306532Y-134283565D01*
X101352888Y-134279000D01*
X102004112Y-134279000D01*
X102050468Y-134283565D01*
G37*
G36*
X103925468Y-134283565D02*
G01*
X103964138Y-134295296D01*
X103999777Y-134314346D01*
X104031017Y-134339983D01*
X104056654Y-134371223D01*
X104075704Y-134406862D01*
X104087435Y-134445532D01*
X104092000Y-134491888D01*
X104092000Y-135568112D01*
X104087435Y-135614468D01*
X104075704Y-135653138D01*
X104056654Y-135688777D01*
X104031017Y-135720017D01*
X103999777Y-135745654D01*
X103964138Y-135764704D01*
X103925468Y-135776435D01*
X103879112Y-135781000D01*
X103227888Y-135781000D01*
X103181532Y-135776435D01*
X103142862Y-135764704D01*
X103107223Y-135745654D01*
X103075983Y-135720017D01*
X103050346Y-135688777D01*
X103031296Y-135653138D01*
X103019565Y-135614468D01*
X103015000Y-135568112D01*
X103015000Y-134491888D01*
X103019565Y-134445532D01*
X103031296Y-134406862D01*
X103050346Y-134371223D01*
X103075983Y-134339983D01*
X103107223Y-134314346D01*
X103142862Y-134295296D01*
X103181532Y-134283565D01*
X103227888Y-134279000D01*
X103879112Y-134279000D01*
X103925468Y-134283565D01*
G37*
G36*
X90620468Y-133619565D02*
G01*
X90659138Y-133631296D01*
X90694777Y-133650346D01*
X90726017Y-133675983D01*
X90751654Y-133707223D01*
X90770704Y-133742862D01*
X90782435Y-133781532D01*
X90787000Y-133827888D01*
X90787000Y-134904112D01*
X90782435Y-134950468D01*
X90770704Y-134989138D01*
X90751654Y-135024777D01*
X90726017Y-135056017D01*
X90694777Y-135081654D01*
X90659138Y-135100704D01*
X90620468Y-135112435D01*
X90574112Y-135117000D01*
X89922888Y-135117000D01*
X89876532Y-135112435D01*
X89837862Y-135100704D01*
X89802223Y-135081654D01*
X89770983Y-135056017D01*
X89745346Y-135024777D01*
X89726296Y-134989138D01*
X89714565Y-134950468D01*
X89710000Y-134904112D01*
X89710000Y-133827888D01*
X89714565Y-133781532D01*
X89726296Y-133742862D01*
X89745346Y-133707223D01*
X89770983Y-133675983D01*
X89802223Y-133650346D01*
X89837862Y-133631296D01*
X89876532Y-133619565D01*
X89922888Y-133615000D01*
X90574112Y-133615000D01*
X90620468Y-133619565D01*
G37*
G36*
X92495468Y-133619565D02*
G01*
X92534138Y-133631296D01*
X92569777Y-133650346D01*
X92601017Y-133675983D01*
X92626654Y-133707223D01*
X92645704Y-133742862D01*
X92657435Y-133781532D01*
X92662000Y-133827888D01*
X92662000Y-134904112D01*
X92657435Y-134950468D01*
X92645704Y-134989138D01*
X92626654Y-135024777D01*
X92601017Y-135056017D01*
X92569777Y-135081654D01*
X92534138Y-135100704D01*
X92495468Y-135112435D01*
X92449112Y-135117000D01*
X91797888Y-135117000D01*
X91751532Y-135112435D01*
X91712862Y-135100704D01*
X91677223Y-135081654D01*
X91645983Y-135056017D01*
X91620346Y-135024777D01*
X91601296Y-134989138D01*
X91589565Y-134950468D01*
X91585000Y-134904112D01*
X91585000Y-133827888D01*
X91589565Y-133781532D01*
X91601296Y-133742862D01*
X91620346Y-133707223D01*
X91645983Y-133675983D01*
X91677223Y-133650346D01*
X91712862Y-133631296D01*
X91751532Y-133619565D01*
X91797888Y-133615000D01*
X92449112Y-133615000D01*
X92495468Y-133619565D01*
G37*
G36*
X78936468Y-132603565D02*
G01*
X78975138Y-132615296D01*
X79010777Y-132634346D01*
X79042017Y-132659983D01*
X79067654Y-132691223D01*
X79086704Y-132726862D01*
X79098435Y-132765532D01*
X79103000Y-132811888D01*
X79103000Y-133888112D01*
X79098435Y-133934468D01*
X79086704Y-133973138D01*
X79067654Y-134008777D01*
X79042017Y-134040017D01*
X79010777Y-134065654D01*
X78975138Y-134084704D01*
X78936468Y-134096435D01*
X78890112Y-134101000D01*
X78238888Y-134101000D01*
X78192532Y-134096435D01*
X78153862Y-134084704D01*
X78118223Y-134065654D01*
X78086983Y-134040017D01*
X78061346Y-134008777D01*
X78042296Y-133973138D01*
X78030565Y-133934468D01*
X78026000Y-133888112D01*
X78026000Y-132811888D01*
X78030565Y-132765532D01*
X78042296Y-132726862D01*
X78061346Y-132691223D01*
X78086983Y-132659983D01*
X78118223Y-132634346D01*
X78153862Y-132615296D01*
X78192532Y-132603565D01*
X78238888Y-132599000D01*
X78890112Y-132599000D01*
X78936468Y-132603565D01*
G37*
G36*
X80811468Y-132603565D02*
G01*
X80850138Y-132615296D01*
X80885777Y-132634346D01*
X80917017Y-132659983D01*
X80942654Y-132691223D01*
X80961704Y-132726862D01*
X80973435Y-132765532D01*
X80978000Y-132811888D01*
X80978000Y-133888112D01*
X80973435Y-133934468D01*
X80961704Y-133973138D01*
X80942654Y-134008777D01*
X80917017Y-134040017D01*
X80885777Y-134065654D01*
X80850138Y-134084704D01*
X80811468Y-134096435D01*
X80765112Y-134101000D01*
X80113888Y-134101000D01*
X80067532Y-134096435D01*
X80028862Y-134084704D01*
X79993223Y-134065654D01*
X79961983Y-134040017D01*
X79936346Y-134008777D01*
X79917296Y-133973138D01*
X79905565Y-133934468D01*
X79901000Y-133888112D01*
X79901000Y-132811888D01*
X79905565Y-132765532D01*
X79917296Y-132726862D01*
X79936346Y-132691223D01*
X79961983Y-132659983D01*
X79993223Y-132634346D01*
X80028862Y-132615296D01*
X80067532Y-132603565D01*
X80113888Y-132599000D01*
X80765112Y-132599000D01*
X80811468Y-132603565D01*
G37*
G36*
X110074808Y-130434405D02*
G01*
X110113478Y-130446136D01*
X110149117Y-130465186D01*
X110180357Y-130490823D01*
X110205994Y-130522063D01*
X110225044Y-130557702D01*
X110236775Y-130596372D01*
X110241340Y-130642728D01*
X110241340Y-131718952D01*
X110236775Y-131765308D01*
X110225044Y-131803978D01*
X110205994Y-131839617D01*
X110180357Y-131870857D01*
X110149117Y-131896494D01*
X110113478Y-131915544D01*
X110074808Y-131927275D01*
X110028452Y-131931840D01*
X109377228Y-131931840D01*
X109330872Y-131927275D01*
X109292202Y-131915544D01*
X109256563Y-131896494D01*
X109225323Y-131870857D01*
X109199686Y-131839617D01*
X109180636Y-131803978D01*
X109168905Y-131765308D01*
X109164340Y-131718952D01*
X109164340Y-130642728D01*
X109168905Y-130596372D01*
X109180636Y-130557702D01*
X109199686Y-130522063D01*
X109225323Y-130490823D01*
X109256563Y-130465186D01*
X109292202Y-130446136D01*
X109330872Y-130434405D01*
X109377228Y-130429840D01*
X110028452Y-130429840D01*
X110074808Y-130434405D01*
G37*
G36*
X108199808Y-130434405D02*
G01*
X108238478Y-130446136D01*
X108274117Y-130465186D01*
X108305357Y-130490823D01*
X108330994Y-130522063D01*
X108350044Y-130557702D01*
X108361775Y-130596372D01*
X108366340Y-130642728D01*
X108366340Y-131718952D01*
X108361775Y-131765308D01*
X108350044Y-131803978D01*
X108330994Y-131839617D01*
X108305357Y-131870857D01*
X108274117Y-131896494D01*
X108238478Y-131915544D01*
X108199808Y-131927275D01*
X108153452Y-131931840D01*
X107502228Y-131931840D01*
X107455872Y-131927275D01*
X107417202Y-131915544D01*
X107381563Y-131896494D01*
X107350323Y-131870857D01*
X107324686Y-131839617D01*
X107305636Y-131803978D01*
X107293905Y-131765308D01*
X107289340Y-131718952D01*
X107289340Y-130642728D01*
X107293905Y-130596372D01*
X107305636Y-130557702D01*
X107324686Y-130522063D01*
X107350323Y-130490823D01*
X107381563Y-130465186D01*
X107417202Y-130446136D01*
X107455872Y-130434405D01*
X107502228Y-130429840D01*
X108153452Y-130429840D01*
X108199808Y-130434405D01*
G37*
G36*
X100466000Y-131821000D02*
G01*
X98836000Y-131821000D01*
X98836000Y-131069000D01*
X100466000Y-131069000D01*
X100466000Y-131821000D01*
G37*
G36*
X105888000Y-131821000D02*
G01*
X104258000Y-131821000D01*
X104258000Y-131069000D01*
X105888000Y-131069000D01*
X105888000Y-131821000D01*
G37*
G36*
X65391512Y-129913927D02*
G01*
X65540812Y-129943624D01*
X65704784Y-130011544D01*
X65852354Y-130110147D01*
X65977853Y-130235646D01*
X66076456Y-130383216D01*
X66144376Y-130547188D01*
X66179000Y-130721259D01*
X66179000Y-130898741D01*
X66144376Y-131072812D01*
X66076456Y-131236784D01*
X65977853Y-131384354D01*
X65852354Y-131509853D01*
X65704784Y-131608456D01*
X65540812Y-131676376D01*
X65391512Y-131706073D01*
X65366742Y-131711000D01*
X65189258Y-131711000D01*
X65164488Y-131706073D01*
X65015188Y-131676376D01*
X64851216Y-131608456D01*
X64703646Y-131509853D01*
X64578147Y-131384354D01*
X64479544Y-131236784D01*
X64411624Y-131072812D01*
X64377000Y-130898741D01*
X64377000Y-130721259D01*
X64411624Y-130547188D01*
X64479544Y-130383216D01*
X64578147Y-130235646D01*
X64703646Y-130110147D01*
X64851216Y-130011544D01*
X65015188Y-129943624D01*
X65164488Y-129913927D01*
X65189258Y-129909000D01*
X65366742Y-129909000D01*
X65391512Y-129913927D01*
G37*
G36*
X100466000Y-130551000D02*
G01*
X98836000Y-130551000D01*
X98836000Y-129799000D01*
X100466000Y-129799000D01*
X100466000Y-130551000D01*
G37*
G36*
X105888000Y-130551000D02*
G01*
X104258000Y-130551000D01*
X104258000Y-129799000D01*
X105888000Y-129799000D01*
X105888000Y-130551000D01*
G37*
G36*
X139701765Y-125669467D02*
G01*
X140053093Y-125814992D01*
X140053095Y-125814993D01*
X140126717Y-125864186D01*
X140369281Y-126026262D01*
X140638178Y-126295159D01*
X140849448Y-126611347D01*
X140994973Y-126962675D01*
X141069160Y-127335641D01*
X141069160Y-127715919D01*
X140994973Y-128088885D01*
X140849448Y-128440213D01*
X140849447Y-128440215D01*
X140638177Y-128756402D01*
X140369282Y-129025297D01*
X140053095Y-129236567D01*
X140053094Y-129236568D01*
X140053093Y-129236568D01*
X139701765Y-129382093D01*
X139328799Y-129456280D01*
X138948521Y-129456280D01*
X138575555Y-129382093D01*
X138224227Y-129236568D01*
X138224226Y-129236568D01*
X138224225Y-129236567D01*
X137908038Y-129025297D01*
X137639143Y-128756402D01*
X137427873Y-128440215D01*
X137427872Y-128440213D01*
X137282347Y-128088885D01*
X137208160Y-127715919D01*
X137208160Y-127335641D01*
X137282347Y-126962675D01*
X137427872Y-126611347D01*
X137639142Y-126295159D01*
X137908039Y-126026262D01*
X138150603Y-125864186D01*
X138224225Y-125814993D01*
X138224227Y-125814992D01*
X138575555Y-125669467D01*
X138948521Y-125595280D01*
X139328799Y-125595280D01*
X139701765Y-125669467D01*
G37*
G36*
X105888000Y-129281000D02*
G01*
X104258000Y-129281000D01*
X104258000Y-128529000D01*
X105888000Y-128529000D01*
X105888000Y-129281000D01*
G37*
G36*
X100466000Y-129281000D02*
G01*
X98836000Y-129281000D01*
X98836000Y-128529000D01*
X100466000Y-128529000D01*
X100466000Y-129281000D01*
G37*
G36*
X134895384Y-125814992D02*
G01*
X135142699Y-125864186D01*
X135457175Y-125994446D01*
X135740196Y-126183555D01*
X135980885Y-126424244D01*
X136169994Y-126707265D01*
X136290549Y-126998310D01*
X136300254Y-127021742D01*
X136366660Y-127355586D01*
X136366660Y-127695974D01*
X136333457Y-127862896D01*
X136300254Y-128029819D01*
X136169994Y-128344295D01*
X135980885Y-128627316D01*
X135740196Y-128868005D01*
X135457175Y-129057114D01*
X135142699Y-129187374D01*
X134975776Y-129220577D01*
X134808854Y-129253780D01*
X134468466Y-129253780D01*
X134301544Y-129220577D01*
X134134621Y-129187374D01*
X133820145Y-129057114D01*
X133537124Y-128868005D01*
X133296435Y-128627316D01*
X133107326Y-128344295D01*
X132977066Y-128029819D01*
X132943863Y-127862896D01*
X132910660Y-127695974D01*
X132910660Y-127355586D01*
X132977066Y-127021742D01*
X132986772Y-126998310D01*
X133107326Y-126707265D01*
X133296435Y-126424244D01*
X133537124Y-126183555D01*
X133820145Y-125994446D01*
X134134621Y-125864186D01*
X134381936Y-125814992D01*
X134468466Y-125797780D01*
X134808854Y-125797780D01*
X134895384Y-125814992D01*
G37*
G36*
X66179000Y-129171000D02*
G01*
X64377000Y-129171000D01*
X64377000Y-127369000D01*
X66179000Y-127369000D01*
X66179000Y-129171000D01*
G37*
G36*
X110143388Y-126733625D02*
G01*
X110182058Y-126745356D01*
X110217697Y-126764406D01*
X110248937Y-126790043D01*
X110274574Y-126821283D01*
X110293624Y-126856922D01*
X110305355Y-126895592D01*
X110309920Y-126941948D01*
X110309920Y-128018172D01*
X110305355Y-128064528D01*
X110293624Y-128103198D01*
X110274574Y-128138837D01*
X110248937Y-128170077D01*
X110217697Y-128195714D01*
X110182058Y-128214764D01*
X110143388Y-128226495D01*
X110097032Y-128231060D01*
X109445808Y-128231060D01*
X109399452Y-128226495D01*
X109360782Y-128214764D01*
X109325143Y-128195714D01*
X109293903Y-128170077D01*
X109268266Y-128138837D01*
X109249216Y-128103198D01*
X109237485Y-128064528D01*
X109232920Y-128018172D01*
X109232920Y-126941948D01*
X109237485Y-126895592D01*
X109249216Y-126856922D01*
X109268266Y-126821283D01*
X109293903Y-126790043D01*
X109325143Y-126764406D01*
X109360782Y-126745356D01*
X109399452Y-126733625D01*
X109445808Y-126729060D01*
X110097032Y-126729060D01*
X110143388Y-126733625D01*
G37*
G36*
X108268388Y-126733625D02*
G01*
X108307058Y-126745356D01*
X108342697Y-126764406D01*
X108373937Y-126790043D01*
X108399574Y-126821283D01*
X108418624Y-126856922D01*
X108430355Y-126895592D01*
X108434920Y-126941948D01*
X108434920Y-128018172D01*
X108430355Y-128064528D01*
X108418624Y-128103198D01*
X108399574Y-128138837D01*
X108373937Y-128170077D01*
X108342697Y-128195714D01*
X108307058Y-128214764D01*
X108268388Y-128226495D01*
X108222032Y-128231060D01*
X107570808Y-128231060D01*
X107524452Y-128226495D01*
X107485782Y-128214764D01*
X107450143Y-128195714D01*
X107418903Y-128170077D01*
X107393266Y-128138837D01*
X107374216Y-128103198D01*
X107362485Y-128064528D01*
X107357920Y-128018172D01*
X107357920Y-126941948D01*
X107362485Y-126895592D01*
X107374216Y-126856922D01*
X107393266Y-126821283D01*
X107418903Y-126790043D01*
X107450143Y-126764406D01*
X107485782Y-126745356D01*
X107524452Y-126733625D01*
X107570808Y-126729060D01*
X108222032Y-126729060D01*
X108268388Y-126733625D01*
G37*
G36*
X105888000Y-128011000D02*
G01*
X104258000Y-128011000D01*
X104258000Y-127259000D01*
X105888000Y-127259000D01*
X105888000Y-128011000D01*
G37*
G36*
X100466000Y-128011000D02*
G01*
X98836000Y-128011000D01*
X98836000Y-127259000D01*
X100466000Y-127259000D01*
X100466000Y-128011000D01*
G37*
G36*
X78936468Y-124729565D02*
G01*
X78975138Y-124741296D01*
X79010777Y-124760346D01*
X79042017Y-124785983D01*
X79067654Y-124817223D01*
X79086704Y-124852862D01*
X79098435Y-124891532D01*
X79103000Y-124937888D01*
X79103000Y-126014112D01*
X79098435Y-126060468D01*
X79086704Y-126099138D01*
X79067654Y-126134777D01*
X79042017Y-126166017D01*
X79010777Y-126191654D01*
X78975138Y-126210704D01*
X78936468Y-126222435D01*
X78890112Y-126227000D01*
X78238888Y-126227000D01*
X78192532Y-126222435D01*
X78153862Y-126210704D01*
X78118223Y-126191654D01*
X78086983Y-126166017D01*
X78061346Y-126134777D01*
X78042296Y-126099138D01*
X78030565Y-126060468D01*
X78026000Y-126014112D01*
X78026000Y-124937888D01*
X78030565Y-124891532D01*
X78042296Y-124852862D01*
X78061346Y-124817223D01*
X78086983Y-124785983D01*
X78118223Y-124760346D01*
X78153862Y-124741296D01*
X78192532Y-124729565D01*
X78238888Y-124725000D01*
X78890112Y-124725000D01*
X78936468Y-124729565D01*
G37*
G36*
X80811468Y-124729565D02*
G01*
X80850138Y-124741296D01*
X80885777Y-124760346D01*
X80917017Y-124785983D01*
X80942654Y-124817223D01*
X80961704Y-124852862D01*
X80973435Y-124891532D01*
X80978000Y-124937888D01*
X80978000Y-126014112D01*
X80973435Y-126060468D01*
X80961704Y-126099138D01*
X80942654Y-126134777D01*
X80917017Y-126166017D01*
X80885777Y-126191654D01*
X80850138Y-126210704D01*
X80811468Y-126222435D01*
X80765112Y-126227000D01*
X80113888Y-126227000D01*
X80067532Y-126222435D01*
X80028862Y-126210704D01*
X79993223Y-126191654D01*
X79961983Y-126166017D01*
X79936346Y-126134777D01*
X79917296Y-126099138D01*
X79905565Y-126060468D01*
X79901000Y-126014112D01*
X79901000Y-124937888D01*
X79905565Y-124891532D01*
X79917296Y-124852862D01*
X79936346Y-124817223D01*
X79961983Y-124785983D01*
X79993223Y-124760346D01*
X80028862Y-124741296D01*
X80067532Y-124729565D01*
X80113888Y-124725000D01*
X80765112Y-124725000D01*
X80811468Y-124729565D01*
G37*
G36*
X87091000Y-125761000D02*
G01*
X85589000Y-125761000D01*
X85589000Y-123159000D01*
X87091000Y-123159000D01*
X87091000Y-125761000D01*
G37*
G36*
X84591000Y-125761000D02*
G01*
X83089000Y-125761000D01*
X83089000Y-123159000D01*
X84591000Y-123159000D01*
X84591000Y-125761000D01*
G37*
G36*
X92241468Y-123713565D02*
G01*
X92280138Y-123725296D01*
X92315777Y-123744346D01*
X92347017Y-123769983D01*
X92372654Y-123801223D01*
X92391704Y-123836862D01*
X92403435Y-123875532D01*
X92408000Y-123921888D01*
X92408000Y-124998112D01*
X92403435Y-125044468D01*
X92391704Y-125083138D01*
X92372654Y-125118777D01*
X92347017Y-125150017D01*
X92315777Y-125175654D01*
X92280138Y-125194704D01*
X92241468Y-125206435D01*
X92195112Y-125211000D01*
X91543888Y-125211000D01*
X91497532Y-125206435D01*
X91458862Y-125194704D01*
X91423223Y-125175654D01*
X91391983Y-125150017D01*
X91366346Y-125118777D01*
X91347296Y-125083138D01*
X91335565Y-125044468D01*
X91331000Y-124998112D01*
X91331000Y-123921888D01*
X91335565Y-123875532D01*
X91347296Y-123836862D01*
X91366346Y-123801223D01*
X91391983Y-123769983D01*
X91423223Y-123744346D01*
X91458862Y-123725296D01*
X91497532Y-123713565D01*
X91543888Y-123709000D01*
X92195112Y-123709000D01*
X92241468Y-123713565D01*
G37*
G36*
X90366468Y-123713565D02*
G01*
X90405138Y-123725296D01*
X90440777Y-123744346D01*
X90472017Y-123769983D01*
X90497654Y-123801223D01*
X90516704Y-123836862D01*
X90528435Y-123875532D01*
X90533000Y-123921888D01*
X90533000Y-124998112D01*
X90528435Y-125044468D01*
X90516704Y-125083138D01*
X90497654Y-125118777D01*
X90472017Y-125150017D01*
X90440777Y-125175654D01*
X90405138Y-125194704D01*
X90366468Y-125206435D01*
X90320112Y-125211000D01*
X89668888Y-125211000D01*
X89622532Y-125206435D01*
X89583862Y-125194704D01*
X89548223Y-125175654D01*
X89516983Y-125150017D01*
X89491346Y-125118777D01*
X89472296Y-125083138D01*
X89460565Y-125044468D01*
X89456000Y-124998112D01*
X89456000Y-123921888D01*
X89460565Y-123875532D01*
X89472296Y-123836862D01*
X89491346Y-123801223D01*
X89516983Y-123769983D01*
X89548223Y-123744346D01*
X89583862Y-123725296D01*
X89622532Y-123713565D01*
X89668888Y-123709000D01*
X90320112Y-123709000D01*
X90366468Y-123713565D01*
G37*
G36*
X107264468Y-123593565D02*
G01*
X107303138Y-123605296D01*
X107338777Y-123624346D01*
X107370017Y-123649983D01*
X107395654Y-123681223D01*
X107414704Y-123716862D01*
X107426435Y-123755532D01*
X107431000Y-123801888D01*
X107431000Y-124453112D01*
X107426435Y-124499468D01*
X107414704Y-124538138D01*
X107395654Y-124573777D01*
X107370017Y-124605017D01*
X107338777Y-124630654D01*
X107303138Y-124649704D01*
X107264468Y-124661435D01*
X107218112Y-124666000D01*
X106141888Y-124666000D01*
X106095532Y-124661435D01*
X106056862Y-124649704D01*
X106021223Y-124630654D01*
X105989983Y-124605017D01*
X105964346Y-124573777D01*
X105945296Y-124538138D01*
X105933565Y-124499468D01*
X105929000Y-124453112D01*
X105929000Y-123801888D01*
X105933565Y-123755532D01*
X105945296Y-123716862D01*
X105964346Y-123681223D01*
X105989983Y-123649983D01*
X106021223Y-123624346D01*
X106056862Y-123605296D01*
X106095532Y-123593565D01*
X106141888Y-123589000D01*
X107218112Y-123589000D01*
X107264468Y-123593565D01*
G37*
G36*
X98120468Y-123593565D02*
G01*
X98159138Y-123605296D01*
X98194777Y-123624346D01*
X98226017Y-123649983D01*
X98251654Y-123681223D01*
X98270704Y-123716862D01*
X98282435Y-123755532D01*
X98287000Y-123801888D01*
X98287000Y-124453112D01*
X98282435Y-124499468D01*
X98270704Y-124538138D01*
X98251654Y-124573777D01*
X98226017Y-124605017D01*
X98194777Y-124630654D01*
X98159138Y-124649704D01*
X98120468Y-124661435D01*
X98074112Y-124666000D01*
X96997888Y-124666000D01*
X96951532Y-124661435D01*
X96912862Y-124649704D01*
X96877223Y-124630654D01*
X96845983Y-124605017D01*
X96820346Y-124573777D01*
X96801296Y-124538138D01*
X96789565Y-124499468D01*
X96785000Y-124453112D01*
X96785000Y-123801888D01*
X96789565Y-123755532D01*
X96801296Y-123716862D01*
X96820346Y-123681223D01*
X96845983Y-123649983D01*
X96877223Y-123624346D01*
X96912862Y-123605296D01*
X96951532Y-123593565D01*
X96997888Y-123589000D01*
X98074112Y-123589000D01*
X98120468Y-123593565D01*
G37*
G36*
X65391512Y-121785927D02*
G01*
X65540812Y-121815624D01*
X65704784Y-121883544D01*
X65852354Y-121982147D01*
X65977853Y-122107646D01*
X66076456Y-122255216D01*
X66144376Y-122419188D01*
X66164776Y-122521750D01*
X66179000Y-122593258D01*
X66179000Y-122770742D01*
X66175878Y-122786435D01*
X66144376Y-122944812D01*
X66076456Y-123108784D01*
X65977853Y-123256354D01*
X65852354Y-123381853D01*
X65704784Y-123480456D01*
X65540812Y-123548376D01*
X65391512Y-123578073D01*
X65366742Y-123583000D01*
X65189258Y-123583000D01*
X65164488Y-123578073D01*
X65015188Y-123548376D01*
X64851216Y-123480456D01*
X64703646Y-123381853D01*
X64578147Y-123256354D01*
X64479544Y-123108784D01*
X64411624Y-122944812D01*
X64380122Y-122786435D01*
X64377000Y-122770742D01*
X64377000Y-122593258D01*
X64391224Y-122521750D01*
X64411624Y-122419188D01*
X64479544Y-122255216D01*
X64578147Y-122107646D01*
X64703646Y-121982147D01*
X64851216Y-121883544D01*
X65015188Y-121815624D01*
X65164488Y-121785927D01*
X65189258Y-121781000D01*
X65366742Y-121781000D01*
X65391512Y-121785927D01*
G37*
G36*
X80811468Y-121427565D02*
G01*
X80850138Y-121439296D01*
X80885777Y-121458346D01*
X80917017Y-121483983D01*
X80942654Y-121515223D01*
X80961704Y-121550862D01*
X80973435Y-121589532D01*
X80978000Y-121635888D01*
X80978000Y-122712112D01*
X80973435Y-122758468D01*
X80961704Y-122797138D01*
X80942654Y-122832777D01*
X80917017Y-122864017D01*
X80885777Y-122889654D01*
X80850138Y-122908704D01*
X80811468Y-122920435D01*
X80765112Y-122925000D01*
X80113888Y-122925000D01*
X80067532Y-122920435D01*
X80028862Y-122908704D01*
X79993223Y-122889654D01*
X79961983Y-122864017D01*
X79936346Y-122832777D01*
X79917296Y-122797138D01*
X79905565Y-122758468D01*
X79901000Y-122712112D01*
X79901000Y-121635888D01*
X79905565Y-121589532D01*
X79917296Y-121550862D01*
X79936346Y-121515223D01*
X79961983Y-121483983D01*
X79993223Y-121458346D01*
X80028862Y-121439296D01*
X80067532Y-121427565D01*
X80113888Y-121423000D01*
X80765112Y-121423000D01*
X80811468Y-121427565D01*
G37*
G36*
X78936468Y-121427565D02*
G01*
X78975138Y-121439296D01*
X79010777Y-121458346D01*
X79042017Y-121483983D01*
X79067654Y-121515223D01*
X79086704Y-121550862D01*
X79098435Y-121589532D01*
X79103000Y-121635888D01*
X79103000Y-122712112D01*
X79098435Y-122758468D01*
X79086704Y-122797138D01*
X79067654Y-122832777D01*
X79042017Y-122864017D01*
X79010777Y-122889654D01*
X78975138Y-122908704D01*
X78936468Y-122920435D01*
X78890112Y-122925000D01*
X78238888Y-122925000D01*
X78192532Y-122920435D01*
X78153862Y-122908704D01*
X78118223Y-122889654D01*
X78086983Y-122864017D01*
X78061346Y-122832777D01*
X78042296Y-122797138D01*
X78030565Y-122758468D01*
X78026000Y-122712112D01*
X78026000Y-121635888D01*
X78030565Y-121589532D01*
X78042296Y-121550862D01*
X78061346Y-121515223D01*
X78086983Y-121483983D01*
X78118223Y-121458346D01*
X78153862Y-121439296D01*
X78192532Y-121427565D01*
X78238888Y-121423000D01*
X78890112Y-121423000D01*
X78936468Y-121427565D01*
G37*
G36*
X73112293Y-120077373D02*
G01*
X73202517Y-120095319D01*
X73308127Y-120139065D01*
X73457481Y-120200929D01*
X73457482Y-120200930D01*
X73686946Y-120354252D01*
X73882088Y-120549394D01*
X73898216Y-120573532D01*
X74035411Y-120778859D01*
X74141021Y-121033824D01*
X74194860Y-121304492D01*
X74194860Y-121580468D01*
X74183068Y-121639750D01*
X74141021Y-121851137D01*
X74108055Y-121930722D01*
X74035411Y-122106101D01*
X74034378Y-122107647D01*
X73882088Y-122335566D01*
X73686946Y-122530708D01*
X73593331Y-122593259D01*
X73457481Y-122684031D01*
X73389687Y-122712112D01*
X73202517Y-122789641D01*
X73164826Y-122797138D01*
X72931848Y-122843480D01*
X72655872Y-122843480D01*
X72422894Y-122797138D01*
X72385203Y-122789641D01*
X72198033Y-122712112D01*
X72130239Y-122684031D01*
X71994389Y-122593259D01*
X71900774Y-122530708D01*
X71705632Y-122335566D01*
X71553342Y-122107647D01*
X71552309Y-122106101D01*
X71479665Y-121930722D01*
X71446699Y-121851137D01*
X71404652Y-121639750D01*
X71392860Y-121580468D01*
X71392860Y-121304492D01*
X71446699Y-121033824D01*
X71552309Y-120778859D01*
X71689504Y-120573532D01*
X71705632Y-120549394D01*
X71900774Y-120354252D01*
X72130238Y-120200930D01*
X72130239Y-120200929D01*
X72279593Y-120139065D01*
X72385203Y-120095319D01*
X72475427Y-120077373D01*
X72655872Y-120041480D01*
X72931848Y-120041480D01*
X73112293Y-120077373D01*
G37*
G36*
X98120468Y-121718565D02*
G01*
X98159138Y-121730296D01*
X98194777Y-121749346D01*
X98226017Y-121774983D01*
X98251654Y-121806223D01*
X98270704Y-121841862D01*
X98282435Y-121880532D01*
X98287000Y-121926888D01*
X98287000Y-122578112D01*
X98282435Y-122624468D01*
X98270704Y-122663138D01*
X98251654Y-122698777D01*
X98226017Y-122730017D01*
X98194777Y-122755654D01*
X98159138Y-122774704D01*
X98120468Y-122786435D01*
X98074112Y-122791000D01*
X96997888Y-122791000D01*
X96951532Y-122786435D01*
X96912862Y-122774704D01*
X96877223Y-122755654D01*
X96845983Y-122730017D01*
X96820346Y-122698777D01*
X96801296Y-122663138D01*
X96789565Y-122624468D01*
X96785000Y-122578112D01*
X96785000Y-121926888D01*
X96789565Y-121880532D01*
X96801296Y-121841862D01*
X96820346Y-121806223D01*
X96845983Y-121774983D01*
X96877223Y-121749346D01*
X96912862Y-121730296D01*
X96951532Y-121718565D01*
X96997888Y-121714000D01*
X98074112Y-121714000D01*
X98120468Y-121718565D01*
G37*
G36*
X107264468Y-121718565D02*
G01*
X107303138Y-121730296D01*
X107338777Y-121749346D01*
X107370017Y-121774983D01*
X107395654Y-121806223D01*
X107414704Y-121841862D01*
X107426435Y-121880532D01*
X107431000Y-121926888D01*
X107431000Y-122578112D01*
X107426435Y-122624468D01*
X107414704Y-122663138D01*
X107395654Y-122698777D01*
X107370017Y-122730017D01*
X107338777Y-122755654D01*
X107303138Y-122774704D01*
X107264468Y-122786435D01*
X107218112Y-122791000D01*
X106141888Y-122791000D01*
X106095532Y-122786435D01*
X106056862Y-122774704D01*
X106021223Y-122755654D01*
X105989983Y-122730017D01*
X105964346Y-122698777D01*
X105945296Y-122663138D01*
X105933565Y-122624468D01*
X105929000Y-122578112D01*
X105929000Y-121926888D01*
X105933565Y-121880532D01*
X105945296Y-121841862D01*
X105964346Y-121806223D01*
X105989983Y-121774983D01*
X106021223Y-121749346D01*
X106056862Y-121730296D01*
X106095532Y-121718565D01*
X106141888Y-121714000D01*
X107218112Y-121714000D01*
X107264468Y-121718565D01*
G37*
G36*
X92241468Y-120411565D02*
G01*
X92280138Y-120423296D01*
X92315777Y-120442346D01*
X92347017Y-120467983D01*
X92372654Y-120499223D01*
X92391704Y-120534862D01*
X92403435Y-120573532D01*
X92408000Y-120619888D01*
X92408000Y-121696112D01*
X92403435Y-121742468D01*
X92391704Y-121781138D01*
X92372654Y-121816777D01*
X92347017Y-121848017D01*
X92315777Y-121873654D01*
X92280138Y-121892704D01*
X92241468Y-121904435D01*
X92195112Y-121909000D01*
X91543888Y-121909000D01*
X91497532Y-121904435D01*
X91458862Y-121892704D01*
X91423223Y-121873654D01*
X91391983Y-121848017D01*
X91366346Y-121816777D01*
X91347296Y-121781138D01*
X91335565Y-121742468D01*
X91331000Y-121696112D01*
X91331000Y-120619888D01*
X91335565Y-120573532D01*
X91347296Y-120534862D01*
X91366346Y-120499223D01*
X91391983Y-120467983D01*
X91423223Y-120442346D01*
X91458862Y-120423296D01*
X91497532Y-120411565D01*
X91543888Y-120407000D01*
X92195112Y-120407000D01*
X92241468Y-120411565D01*
G37*
G36*
X90366468Y-120411565D02*
G01*
X90405138Y-120423296D01*
X90440777Y-120442346D01*
X90472017Y-120467983D01*
X90497654Y-120499223D01*
X90516704Y-120534862D01*
X90528435Y-120573532D01*
X90533000Y-120619888D01*
X90533000Y-121696112D01*
X90528435Y-121742468D01*
X90516704Y-121781138D01*
X90497654Y-121816777D01*
X90472017Y-121848017D01*
X90440777Y-121873654D01*
X90405138Y-121892704D01*
X90366468Y-121904435D01*
X90320112Y-121909000D01*
X89668888Y-121909000D01*
X89622532Y-121904435D01*
X89583862Y-121892704D01*
X89548223Y-121873654D01*
X89516983Y-121848017D01*
X89491346Y-121816777D01*
X89472296Y-121781138D01*
X89460565Y-121742468D01*
X89456000Y-121696112D01*
X89456000Y-120619888D01*
X89460565Y-120573532D01*
X89472296Y-120534862D01*
X89491346Y-120499223D01*
X89516983Y-120467983D01*
X89548223Y-120442346D01*
X89583862Y-120423296D01*
X89622532Y-120411565D01*
X89668888Y-120407000D01*
X90320112Y-120407000D01*
X90366468Y-120411565D01*
G37*
G36*
X87116220Y-121446860D02*
G01*
X85314220Y-121446860D01*
X85314220Y-119644860D01*
X87116220Y-119644860D01*
X87116220Y-121446860D01*
G37*
G36*
X65391512Y-119245927D02*
G01*
X65540812Y-119275624D01*
X65704784Y-119343544D01*
X65852354Y-119442147D01*
X65977853Y-119567646D01*
X66076456Y-119715216D01*
X66144376Y-119879188D01*
X66179000Y-120053259D01*
X66179000Y-120230741D01*
X66144376Y-120404812D01*
X66076456Y-120568784D01*
X65977853Y-120716354D01*
X65852354Y-120841853D01*
X65704784Y-120940456D01*
X65540812Y-121008376D01*
X65391512Y-121038073D01*
X65366742Y-121043000D01*
X65189258Y-121043000D01*
X65164488Y-121038073D01*
X65015188Y-121008376D01*
X64851216Y-120940456D01*
X64703646Y-120841853D01*
X64578147Y-120716354D01*
X64479544Y-120568784D01*
X64411624Y-120404812D01*
X64377000Y-120230741D01*
X64377000Y-120053259D01*
X64411624Y-119879188D01*
X64479544Y-119715216D01*
X64578147Y-119567646D01*
X64703646Y-119442147D01*
X64851216Y-119343544D01*
X65015188Y-119275624D01*
X65164488Y-119245927D01*
X65189258Y-119241000D01*
X65366742Y-119241000D01*
X65391512Y-119245927D01*
G37*
G36*
X86322291Y-117108506D02*
G01*
X86478032Y-117139484D01*
X86642004Y-117207404D01*
X86789574Y-117306007D01*
X86915073Y-117431506D01*
X87013676Y-117579076D01*
X87081596Y-117743048D01*
X87116220Y-117917119D01*
X87116220Y-118094601D01*
X87081596Y-118268672D01*
X87013676Y-118432644D01*
X86915073Y-118580214D01*
X86789574Y-118705713D01*
X86642004Y-118804316D01*
X86478032Y-118872236D01*
X86328732Y-118901933D01*
X86303962Y-118906860D01*
X86126478Y-118906860D01*
X86101708Y-118901933D01*
X85952408Y-118872236D01*
X85788436Y-118804316D01*
X85640866Y-118705713D01*
X85515367Y-118580214D01*
X85416764Y-118432644D01*
X85348844Y-118268672D01*
X85314220Y-118094601D01*
X85314220Y-117917119D01*
X85348844Y-117743048D01*
X85416764Y-117579076D01*
X85515367Y-117431506D01*
X85640866Y-117306007D01*
X85788436Y-117207404D01*
X85952408Y-117139484D01*
X86108149Y-117108506D01*
X86126478Y-117104860D01*
X86303962Y-117104860D01*
X86322291Y-117108506D01*
G37*
G36*
X84576220Y-118904320D02*
G01*
X82774220Y-118904320D01*
X82774220Y-117102320D01*
X84576220Y-117102320D01*
X84576220Y-118904320D01*
G37*
G36*
X89656220Y-118904320D02*
G01*
X87854220Y-118904320D01*
X87854220Y-117102320D01*
X89656220Y-117102320D01*
X89656220Y-118904320D01*
G37*
G36*
X65391512Y-116705927D02*
G01*
X65540812Y-116735624D01*
X65704784Y-116803544D01*
X65852354Y-116902147D01*
X65977853Y-117027646D01*
X66076456Y-117175216D01*
X66144376Y-117339188D01*
X66179000Y-117513259D01*
X66179000Y-117690741D01*
X66144376Y-117864812D01*
X66076456Y-118028784D01*
X65977853Y-118176354D01*
X65852354Y-118301853D01*
X65704784Y-118400456D01*
X65540812Y-118468376D01*
X65391512Y-118498073D01*
X65366742Y-118503000D01*
X65189258Y-118503000D01*
X65164488Y-118498073D01*
X65015188Y-118468376D01*
X64851216Y-118400456D01*
X64703646Y-118301853D01*
X64578147Y-118176354D01*
X64479544Y-118028784D01*
X64411624Y-117864812D01*
X64377000Y-117690741D01*
X64377000Y-117513259D01*
X64411624Y-117339188D01*
X64479544Y-117175216D01*
X64578147Y-117027646D01*
X64703646Y-116902147D01*
X64851216Y-116803544D01*
X65015188Y-116735624D01*
X65164488Y-116705927D01*
X65189258Y-116701000D01*
X65366742Y-116701000D01*
X65391512Y-116705927D01*
G37*
G36*
X101599212Y-115994727D02*
G01*
X101748512Y-116024424D01*
X101912484Y-116092344D01*
X102060054Y-116190947D01*
X102185553Y-116316446D01*
X102284156Y-116464016D01*
X102352076Y-116627988D01*
X102386700Y-116802059D01*
X102386700Y-116979541D01*
X102352076Y-117153612D01*
X102284156Y-117317584D01*
X102185553Y-117465154D01*
X102060054Y-117590653D01*
X101912484Y-117689256D01*
X101748512Y-117757176D01*
X101599212Y-117786873D01*
X101574442Y-117791800D01*
X101396958Y-117791800D01*
X101372188Y-117786873D01*
X101222888Y-117757176D01*
X101058916Y-117689256D01*
X100911346Y-117590653D01*
X100785847Y-117465154D01*
X100687244Y-117317584D01*
X100619324Y-117153612D01*
X100584700Y-116979541D01*
X100584700Y-116802059D01*
X100619324Y-116627988D01*
X100687244Y-116464016D01*
X100785847Y-116316446D01*
X100911346Y-116190947D01*
X101058916Y-116092344D01*
X101222888Y-116024424D01*
X101372188Y-115994727D01*
X101396958Y-115989800D01*
X101574442Y-115989800D01*
X101599212Y-115994727D01*
G37*
G36*
X94766700Y-117791800D02*
G01*
X92964700Y-117791800D01*
X92964700Y-115989800D01*
X94766700Y-115989800D01*
X94766700Y-117791800D01*
G37*
G36*
X96519212Y-115994727D02*
G01*
X96668512Y-116024424D01*
X96832484Y-116092344D01*
X96980054Y-116190947D01*
X97105553Y-116316446D01*
X97204156Y-116464016D01*
X97272076Y-116627988D01*
X97306700Y-116802059D01*
X97306700Y-116979541D01*
X97272076Y-117153612D01*
X97204156Y-117317584D01*
X97105553Y-117465154D01*
X96980054Y-117590653D01*
X96832484Y-117689256D01*
X96668512Y-117757176D01*
X96519212Y-117786873D01*
X96494442Y-117791800D01*
X96316958Y-117791800D01*
X96292188Y-117786873D01*
X96142888Y-117757176D01*
X95978916Y-117689256D01*
X95831346Y-117590653D01*
X95705847Y-117465154D01*
X95607244Y-117317584D01*
X95539324Y-117153612D01*
X95504700Y-116979541D01*
X95504700Y-116802059D01*
X95539324Y-116627988D01*
X95607244Y-116464016D01*
X95705847Y-116316446D01*
X95831346Y-116190947D01*
X95978916Y-116092344D01*
X96142888Y-116024424D01*
X96292188Y-115994727D01*
X96316958Y-115989800D01*
X96494442Y-115989800D01*
X96519212Y-115994727D01*
G37*
G36*
X99059212Y-115994727D02*
G01*
X99208512Y-116024424D01*
X99372484Y-116092344D01*
X99520054Y-116190947D01*
X99645553Y-116316446D01*
X99744156Y-116464016D01*
X99812076Y-116627988D01*
X99846700Y-116802059D01*
X99846700Y-116979541D01*
X99812076Y-117153612D01*
X99744156Y-117317584D01*
X99645553Y-117465154D01*
X99520054Y-117590653D01*
X99372484Y-117689256D01*
X99208512Y-117757176D01*
X99059212Y-117786873D01*
X99034442Y-117791800D01*
X98856958Y-117791800D01*
X98832188Y-117786873D01*
X98682888Y-117757176D01*
X98518916Y-117689256D01*
X98371346Y-117590653D01*
X98245847Y-117465154D01*
X98147244Y-117317584D01*
X98079324Y-117153612D01*
X98044700Y-116979541D01*
X98044700Y-116802059D01*
X98079324Y-116627988D01*
X98147244Y-116464016D01*
X98245847Y-116316446D01*
X98371346Y-116190947D01*
X98518916Y-116092344D01*
X98682888Y-116024424D01*
X98832188Y-115994727D01*
X98856958Y-115989800D01*
X99034442Y-115989800D01*
X99059212Y-115994727D01*
G37*
G36*
X131369418Y-113693307D02*
G01*
X131404987Y-113704097D01*
X131437759Y-113721614D01*
X131466489Y-113745191D01*
X131490066Y-113773921D01*
X131507583Y-113806693D01*
X131518373Y-113842262D01*
X131522620Y-113885385D01*
X131522620Y-116944735D01*
X131518373Y-116987858D01*
X131507583Y-117023427D01*
X131490066Y-117056199D01*
X131466489Y-117084929D01*
X131437759Y-117108506D01*
X131404987Y-117126023D01*
X131369418Y-117136813D01*
X131326295Y-117141060D01*
X130266945Y-117141060D01*
X130223822Y-117136813D01*
X130188253Y-117126023D01*
X130155481Y-117108506D01*
X130126751Y-117084929D01*
X130103174Y-117056199D01*
X130085657Y-117023427D01*
X130074867Y-116987858D01*
X130070620Y-116944735D01*
X130070620Y-113885385D01*
X130074867Y-113842262D01*
X130085657Y-113806693D01*
X130103174Y-113773921D01*
X130126751Y-113745191D01*
X130155481Y-113721614D01*
X130188253Y-113704097D01*
X130223822Y-113693307D01*
X130266945Y-113689060D01*
X131326295Y-113689060D01*
X131369418Y-113693307D01*
G37*
G36*
X125569418Y-113693307D02*
G01*
X125604987Y-113704097D01*
X125637759Y-113721614D01*
X125666489Y-113745191D01*
X125690066Y-113773921D01*
X125707583Y-113806693D01*
X125718373Y-113842262D01*
X125722620Y-113885385D01*
X125722620Y-116944735D01*
X125718373Y-116987858D01*
X125707583Y-117023427D01*
X125690066Y-117056199D01*
X125666489Y-117084929D01*
X125637759Y-117108506D01*
X125604987Y-117126023D01*
X125569418Y-117136813D01*
X125526295Y-117141060D01*
X124466945Y-117141060D01*
X124423822Y-117136813D01*
X124388253Y-117126023D01*
X124355481Y-117108506D01*
X124326751Y-117084929D01*
X124303174Y-117056199D01*
X124285657Y-117023427D01*
X124274867Y-116987858D01*
X124270620Y-116944735D01*
X124270620Y-113885385D01*
X124274867Y-113842262D01*
X124285657Y-113806693D01*
X124303174Y-113773921D01*
X124326751Y-113745191D01*
X124355481Y-113721614D01*
X124388253Y-113704097D01*
X124423822Y-113693307D01*
X124466945Y-113689060D01*
X125526295Y-113689060D01*
X125569418Y-113693307D01*
G37*
G36*
X86328732Y-114569787D02*
G01*
X86478032Y-114599484D01*
X86642004Y-114667404D01*
X86789574Y-114766007D01*
X86915073Y-114891506D01*
X87013676Y-115039076D01*
X87081596Y-115203048D01*
X87116220Y-115377119D01*
X87116220Y-115554601D01*
X87081596Y-115728672D01*
X87013676Y-115892644D01*
X86915073Y-116040214D01*
X86789574Y-116165713D01*
X86642004Y-116264316D01*
X86478032Y-116332236D01*
X86328732Y-116361933D01*
X86303962Y-116366860D01*
X86126478Y-116366860D01*
X86101708Y-116361933D01*
X85952408Y-116332236D01*
X85788436Y-116264316D01*
X85640866Y-116165713D01*
X85515367Y-116040214D01*
X85416764Y-115892644D01*
X85348844Y-115728672D01*
X85314220Y-115554601D01*
X85314220Y-115377119D01*
X85348844Y-115203048D01*
X85416764Y-115039076D01*
X85515367Y-114891506D01*
X85640866Y-114766007D01*
X85788436Y-114667404D01*
X85952408Y-114599484D01*
X86101708Y-114569787D01*
X86126478Y-114564860D01*
X86303962Y-114564860D01*
X86328732Y-114569787D01*
G37*
G36*
X65391512Y-114165927D02*
G01*
X65540812Y-114195624D01*
X65704784Y-114263544D01*
X65852354Y-114362147D01*
X65977853Y-114487646D01*
X66076456Y-114635216D01*
X66144376Y-114799188D01*
X66179000Y-114973259D01*
X66179000Y-115150741D01*
X66144376Y-115324812D01*
X66076456Y-115488784D01*
X65977853Y-115636354D01*
X65852354Y-115761853D01*
X65704784Y-115860456D01*
X65540812Y-115928376D01*
X65391512Y-115958073D01*
X65366742Y-115963000D01*
X65189258Y-115963000D01*
X65164488Y-115958073D01*
X65015188Y-115928376D01*
X64851216Y-115860456D01*
X64703646Y-115761853D01*
X64578147Y-115636354D01*
X64479544Y-115488784D01*
X64411624Y-115324812D01*
X64377000Y-115150741D01*
X64377000Y-114973259D01*
X64411624Y-114799188D01*
X64479544Y-114635216D01*
X64578147Y-114487646D01*
X64703646Y-114362147D01*
X64851216Y-114263544D01*
X65015188Y-114195624D01*
X65164488Y-114165927D01*
X65189258Y-114161000D01*
X65366742Y-114161000D01*
X65391512Y-114165927D01*
G37*
G36*
X114847468Y-113045565D02*
G01*
X114886138Y-113057296D01*
X114921777Y-113076346D01*
X114953017Y-113101983D01*
X114978654Y-113133223D01*
X114997704Y-113168862D01*
X115009435Y-113207532D01*
X115014000Y-113253888D01*
X115014000Y-114330112D01*
X115009435Y-114376468D01*
X114997704Y-114415138D01*
X114978654Y-114450777D01*
X114953017Y-114482017D01*
X114921777Y-114507654D01*
X114886138Y-114526704D01*
X114847468Y-114538435D01*
X114801112Y-114543000D01*
X114149888Y-114543000D01*
X114103532Y-114538435D01*
X114064862Y-114526704D01*
X114029223Y-114507654D01*
X113997983Y-114482017D01*
X113972346Y-114450777D01*
X113953296Y-114415138D01*
X113941565Y-114376468D01*
X113937000Y-114330112D01*
X113937000Y-113253888D01*
X113941565Y-113207532D01*
X113953296Y-113168862D01*
X113972346Y-113133223D01*
X113997983Y-113101983D01*
X114029223Y-113076346D01*
X114064862Y-113057296D01*
X114103532Y-113045565D01*
X114149888Y-113041000D01*
X114801112Y-113041000D01*
X114847468Y-113045565D01*
G37*
G36*
X112972468Y-113045565D02*
G01*
X113011138Y-113057296D01*
X113046777Y-113076346D01*
X113078017Y-113101983D01*
X113103654Y-113133223D01*
X113122704Y-113168862D01*
X113134435Y-113207532D01*
X113139000Y-113253888D01*
X113139000Y-114330112D01*
X113134435Y-114376468D01*
X113122704Y-114415138D01*
X113103654Y-114450777D01*
X113078017Y-114482017D01*
X113046777Y-114507654D01*
X113011138Y-114526704D01*
X112972468Y-114538435D01*
X112926112Y-114543000D01*
X112274888Y-114543000D01*
X112228532Y-114538435D01*
X112189862Y-114526704D01*
X112154223Y-114507654D01*
X112122983Y-114482017D01*
X112097346Y-114450777D01*
X112078296Y-114415138D01*
X112066565Y-114376468D01*
X112062000Y-114330112D01*
X112062000Y-113253888D01*
X112066565Y-113207532D01*
X112078296Y-113168862D01*
X112097346Y-113133223D01*
X112122983Y-113101983D01*
X112154223Y-113076346D01*
X112189862Y-113057296D01*
X112228532Y-113045565D01*
X112274888Y-113041000D01*
X112926112Y-113041000D01*
X112972468Y-113045565D01*
G37*
G36*
X118670508Y-113629184D02*
G01*
X118691589Y-113635580D01*
X118711025Y-113645968D01*
X118728056Y-113659944D01*
X118742032Y-113676975D01*
X118752420Y-113696411D01*
X118758816Y-113717492D01*
X118761580Y-113745560D01*
X118761580Y-114209280D01*
X118758816Y-114237348D01*
X118752420Y-114258429D01*
X118742032Y-114277865D01*
X118728056Y-114294896D01*
X118711025Y-114308872D01*
X118691589Y-114319260D01*
X118670508Y-114325656D01*
X118642440Y-114328420D01*
X116828720Y-114328420D01*
X116800652Y-114325656D01*
X116779571Y-114319260D01*
X116760135Y-114308872D01*
X116743104Y-114294896D01*
X116729128Y-114277865D01*
X116718740Y-114258429D01*
X116712344Y-114237348D01*
X116709580Y-114209280D01*
X116709580Y-113745560D01*
X116712344Y-113717492D01*
X116718740Y-113696411D01*
X116729128Y-113676975D01*
X116743104Y-113659944D01*
X116760135Y-113645968D01*
X116779571Y-113635580D01*
X116800652Y-113629184D01*
X116828720Y-113626420D01*
X118642440Y-113626420D01*
X118670508Y-113629184D01*
G37*
G36*
X123620508Y-113629184D02*
G01*
X123641589Y-113635580D01*
X123661025Y-113645968D01*
X123678056Y-113659944D01*
X123692032Y-113676975D01*
X123702420Y-113696411D01*
X123708816Y-113717492D01*
X123711580Y-113745560D01*
X123711580Y-114209280D01*
X123708816Y-114237348D01*
X123702420Y-114258429D01*
X123692032Y-114277865D01*
X123678056Y-114294896D01*
X123661025Y-114308872D01*
X123641589Y-114319260D01*
X123620508Y-114325656D01*
X123592440Y-114328420D01*
X121778720Y-114328420D01*
X121750652Y-114325656D01*
X121729571Y-114319260D01*
X121710135Y-114308872D01*
X121693104Y-114294896D01*
X121679128Y-114277865D01*
X121668740Y-114258429D01*
X121662344Y-114237348D01*
X121659580Y-114209280D01*
X121659580Y-113745560D01*
X121662344Y-113717492D01*
X121668740Y-113696411D01*
X121679128Y-113676975D01*
X121693104Y-113659944D01*
X121710135Y-113645968D01*
X121729571Y-113635580D01*
X121750652Y-113629184D01*
X121778720Y-113626420D01*
X123592440Y-113626420D01*
X123620508Y-113629184D01*
G37*
G36*
X139701765Y-110353267D02*
G01*
X140019545Y-110484896D01*
X140053095Y-110498793D01*
X140146965Y-110561515D01*
X140369281Y-110710062D01*
X140638178Y-110978959D01*
X140729473Y-111115592D01*
X140827247Y-111261920D01*
X140849448Y-111295147D01*
X140994973Y-111646475D01*
X141069160Y-112019441D01*
X141069160Y-112399719D01*
X140994973Y-112772685D01*
X140875344Y-113061495D01*
X140849447Y-113124015D01*
X140762668Y-113253888D01*
X140638178Y-113440201D01*
X140369281Y-113709098D01*
X140281604Y-113767682D01*
X140053095Y-113920367D01*
X140053094Y-113920368D01*
X140053093Y-113920368D01*
X139701765Y-114065893D01*
X139328799Y-114140080D01*
X138948521Y-114140080D01*
X138575555Y-114065893D01*
X138224227Y-113920368D01*
X138224226Y-113920368D01*
X138224225Y-113920367D01*
X137995716Y-113767682D01*
X137908039Y-113709098D01*
X137639142Y-113440201D01*
X137514652Y-113253888D01*
X137427873Y-113124015D01*
X137401976Y-113061495D01*
X137282347Y-112772685D01*
X137208160Y-112399719D01*
X137208160Y-112019441D01*
X137282347Y-111646475D01*
X137427872Y-111295147D01*
X137450074Y-111261920D01*
X137547847Y-111115592D01*
X137639142Y-110978959D01*
X137908039Y-110710062D01*
X138130355Y-110561515D01*
X138224225Y-110498793D01*
X138257775Y-110484896D01*
X138575555Y-110353267D01*
X138948521Y-110279080D01*
X139328799Y-110279080D01*
X139701765Y-110353267D01*
G37*
G36*
X106313452Y-112232987D02*
G01*
X106462752Y-112262684D01*
X106626724Y-112330604D01*
X106774294Y-112429207D01*
X106899793Y-112554706D01*
X106998396Y-112702276D01*
X107066316Y-112866248D01*
X107100940Y-113040319D01*
X107100940Y-113217801D01*
X107066316Y-113391872D01*
X106998396Y-113555844D01*
X106899793Y-113703414D01*
X106774294Y-113828913D01*
X106626724Y-113927516D01*
X106462752Y-113995436D01*
X106313452Y-114025133D01*
X106288682Y-114030060D01*
X106111198Y-114030060D01*
X106086428Y-114025133D01*
X105937128Y-113995436D01*
X105773156Y-113927516D01*
X105625586Y-113828913D01*
X105500087Y-113703414D01*
X105401484Y-113555844D01*
X105333564Y-113391872D01*
X105298940Y-113217801D01*
X105298940Y-113040319D01*
X105333564Y-112866248D01*
X105401484Y-112702276D01*
X105500087Y-112554706D01*
X105625586Y-112429207D01*
X105773156Y-112330604D01*
X105937128Y-112262684D01*
X106086428Y-112232987D01*
X106111198Y-112228060D01*
X106288682Y-112228060D01*
X106313452Y-112232987D01*
G37*
G36*
X134926900Y-110505061D02*
G01*
X135142699Y-110547986D01*
X135316269Y-110619881D01*
X135434569Y-110668882D01*
X135457175Y-110678246D01*
X135740196Y-110867355D01*
X135980885Y-111108044D01*
X136169994Y-111391065D01*
X136300254Y-111705541D01*
X136333457Y-111872464D01*
X136366660Y-112039386D01*
X136366660Y-112379774D01*
X136336396Y-112531920D01*
X136300254Y-112713619D01*
X136169994Y-113028095D01*
X135980885Y-113311116D01*
X135740196Y-113551805D01*
X135457175Y-113740914D01*
X135457174Y-113740915D01*
X135457173Y-113740915D01*
X135445959Y-113745560D01*
X135142699Y-113871174D01*
X135071255Y-113885385D01*
X134808854Y-113937580D01*
X134468466Y-113937580D01*
X134206065Y-113885385D01*
X134134621Y-113871174D01*
X133831361Y-113745560D01*
X133820147Y-113740915D01*
X133820146Y-113740915D01*
X133820145Y-113740914D01*
X133537124Y-113551805D01*
X133296435Y-113311116D01*
X133107326Y-113028095D01*
X132977066Y-112713619D01*
X132940924Y-112531920D01*
X132910660Y-112379774D01*
X132910660Y-112039386D01*
X132943863Y-111872464D01*
X132977066Y-111705541D01*
X133107326Y-111391065D01*
X133296435Y-111108044D01*
X133537124Y-110867355D01*
X133820145Y-110678246D01*
X133842752Y-110668882D01*
X133961051Y-110619881D01*
X134134621Y-110547986D01*
X134350420Y-110505061D01*
X134468466Y-110481580D01*
X134808854Y-110481580D01*
X134926900Y-110505061D01*
G37*
G36*
X65391512Y-111625927D02*
G01*
X65540812Y-111655624D01*
X65704784Y-111723544D01*
X65852354Y-111822147D01*
X65977853Y-111947646D01*
X66076456Y-112095216D01*
X66144376Y-112259188D01*
X66179000Y-112433259D01*
X66179000Y-112610741D01*
X66144376Y-112784812D01*
X66076456Y-112948784D01*
X65977853Y-113096354D01*
X65852354Y-113221853D01*
X65704784Y-113320456D01*
X65540812Y-113388376D01*
X65391512Y-113418073D01*
X65366742Y-113423000D01*
X65189258Y-113423000D01*
X65164488Y-113418073D01*
X65015188Y-113388376D01*
X64851216Y-113320456D01*
X64703646Y-113221853D01*
X64578147Y-113096354D01*
X64479544Y-112948784D01*
X64411624Y-112784812D01*
X64377000Y-112610741D01*
X64377000Y-112433259D01*
X64411624Y-112259188D01*
X64479544Y-112095216D01*
X64578147Y-111947646D01*
X64703646Y-111822147D01*
X64851216Y-111723544D01*
X65015188Y-111655624D01*
X65164488Y-111625927D01*
X65189258Y-111621000D01*
X65366742Y-111621000D01*
X65391512Y-111625927D01*
G37*
G36*
X118670508Y-112359184D02*
G01*
X118691589Y-112365580D01*
X118711025Y-112375968D01*
X118728056Y-112389944D01*
X118742032Y-112406975D01*
X118752420Y-112426411D01*
X118758816Y-112447492D01*
X118761580Y-112475560D01*
X118761580Y-112939280D01*
X118758816Y-112967348D01*
X118752420Y-112988429D01*
X118742032Y-113007865D01*
X118728056Y-113024896D01*
X118711025Y-113038872D01*
X118691589Y-113049260D01*
X118670508Y-113055656D01*
X118642440Y-113058420D01*
X116828720Y-113058420D01*
X116800652Y-113055656D01*
X116779571Y-113049260D01*
X116760135Y-113038872D01*
X116743104Y-113024896D01*
X116729128Y-113007865D01*
X116718740Y-112988429D01*
X116712344Y-112967348D01*
X116709580Y-112939280D01*
X116709580Y-112475560D01*
X116712344Y-112447492D01*
X116718740Y-112426411D01*
X116729128Y-112406975D01*
X116743104Y-112389944D01*
X116760135Y-112375968D01*
X116779571Y-112365580D01*
X116800652Y-112359184D01*
X116828720Y-112356420D01*
X118642440Y-112356420D01*
X118670508Y-112359184D01*
G37*
G36*
X123620508Y-112359184D02*
G01*
X123641589Y-112365580D01*
X123661025Y-112375968D01*
X123678056Y-112389944D01*
X123692032Y-112406975D01*
X123702420Y-112426411D01*
X123708816Y-112447492D01*
X123711580Y-112475560D01*
X123711580Y-112939280D01*
X123708816Y-112967348D01*
X123702420Y-112988429D01*
X123692032Y-113007865D01*
X123678056Y-113024896D01*
X123661025Y-113038872D01*
X123641589Y-113049260D01*
X123620508Y-113055656D01*
X123592440Y-113058420D01*
X121778720Y-113058420D01*
X121750652Y-113055656D01*
X121729571Y-113049260D01*
X121710135Y-113038872D01*
X121693104Y-113024896D01*
X121679128Y-113007865D01*
X121668740Y-112988429D01*
X121662344Y-112967348D01*
X121659580Y-112939280D01*
X121659580Y-112475560D01*
X121662344Y-112447492D01*
X121668740Y-112426411D01*
X121679128Y-112406975D01*
X121693104Y-112389944D01*
X121710135Y-112375968D01*
X121729571Y-112365580D01*
X121750652Y-112359184D01*
X121778720Y-112356420D01*
X123592440Y-112356420D01*
X123620508Y-112359184D01*
G37*
G36*
X118670508Y-111089184D02*
G01*
X118691589Y-111095580D01*
X118711025Y-111105968D01*
X118728056Y-111119944D01*
X118742032Y-111136975D01*
X118752420Y-111156411D01*
X118758816Y-111177492D01*
X118761580Y-111205560D01*
X118761580Y-111669280D01*
X118758816Y-111697348D01*
X118752420Y-111718429D01*
X118742032Y-111737865D01*
X118728056Y-111754896D01*
X118711025Y-111768872D01*
X118691589Y-111779260D01*
X118670508Y-111785656D01*
X118642440Y-111788420D01*
X116828720Y-111788420D01*
X116800652Y-111785656D01*
X116779571Y-111779260D01*
X116760135Y-111768872D01*
X116743104Y-111754896D01*
X116729128Y-111737865D01*
X116718740Y-111718429D01*
X116712344Y-111697348D01*
X116709580Y-111669280D01*
X116709580Y-111205560D01*
X116712344Y-111177492D01*
X116718740Y-111156411D01*
X116729128Y-111136975D01*
X116743104Y-111119944D01*
X116760135Y-111105968D01*
X116779571Y-111095580D01*
X116800652Y-111089184D01*
X116828720Y-111086420D01*
X118642440Y-111086420D01*
X118670508Y-111089184D01*
G37*
G36*
X123620508Y-111089184D02*
G01*
X123641589Y-111095580D01*
X123661025Y-111105968D01*
X123678056Y-111119944D01*
X123692032Y-111136975D01*
X123702420Y-111156411D01*
X123708816Y-111177492D01*
X123711580Y-111205560D01*
X123711580Y-111669280D01*
X123708816Y-111697348D01*
X123702420Y-111718429D01*
X123692032Y-111737865D01*
X123678056Y-111754896D01*
X123661025Y-111768872D01*
X123641589Y-111779260D01*
X123620508Y-111785656D01*
X123592440Y-111788420D01*
X121778720Y-111788420D01*
X121750652Y-111785656D01*
X121729571Y-111779260D01*
X121710135Y-111768872D01*
X121693104Y-111754896D01*
X121679128Y-111737865D01*
X121668740Y-111718429D01*
X121662344Y-111697348D01*
X121659580Y-111669280D01*
X121659580Y-111205560D01*
X121662344Y-111177492D01*
X121668740Y-111156411D01*
X121679128Y-111136975D01*
X121693104Y-111119944D01*
X121710135Y-111105968D01*
X121729571Y-111095580D01*
X121750652Y-111089184D01*
X121778720Y-111086420D01*
X123592440Y-111086420D01*
X123620508Y-111089184D01*
G37*
G36*
X89573368Y-110545585D02*
G01*
X89612038Y-110557316D01*
X89647677Y-110576366D01*
X89678917Y-110602003D01*
X89704554Y-110633243D01*
X89723604Y-110668882D01*
X89735335Y-110707552D01*
X89739900Y-110753908D01*
X89739900Y-111405132D01*
X89735335Y-111451488D01*
X89723604Y-111490158D01*
X89704554Y-111525797D01*
X89678917Y-111557037D01*
X89647677Y-111582674D01*
X89612038Y-111601724D01*
X89573368Y-111613455D01*
X89527012Y-111618020D01*
X88450788Y-111618020D01*
X88404432Y-111613455D01*
X88365762Y-111601724D01*
X88330123Y-111582674D01*
X88298883Y-111557037D01*
X88273246Y-111525797D01*
X88254196Y-111490158D01*
X88242465Y-111451488D01*
X88237900Y-111405132D01*
X88237900Y-110753908D01*
X88242465Y-110707552D01*
X88254196Y-110668882D01*
X88273246Y-110633243D01*
X88298883Y-110602003D01*
X88330123Y-110576366D01*
X88365762Y-110557316D01*
X88404432Y-110545585D01*
X88450788Y-110541020D01*
X89527012Y-110541020D01*
X89573368Y-110545585D01*
G37*
G36*
X106313452Y-109692987D02*
G01*
X106462752Y-109722684D01*
X106626724Y-109790604D01*
X106774294Y-109889207D01*
X106899793Y-110014706D01*
X106998396Y-110162276D01*
X107066316Y-110326248D01*
X107091629Y-110453508D01*
X107100940Y-110500318D01*
X107100940Y-110677802D01*
X107096013Y-110702572D01*
X107066316Y-110851872D01*
X106998396Y-111015844D01*
X106899793Y-111163414D01*
X106774294Y-111288913D01*
X106626724Y-111387516D01*
X106462752Y-111455436D01*
X106313452Y-111485133D01*
X106288682Y-111490060D01*
X106111198Y-111490060D01*
X106086428Y-111485133D01*
X105937128Y-111455436D01*
X105773156Y-111387516D01*
X105625586Y-111288913D01*
X105500087Y-111163414D01*
X105401484Y-111015844D01*
X105333564Y-110851872D01*
X105303867Y-110702572D01*
X105298940Y-110677802D01*
X105298940Y-110500318D01*
X105308251Y-110453508D01*
X105333564Y-110326248D01*
X105401484Y-110162276D01*
X105500087Y-110014706D01*
X105625586Y-109889207D01*
X105773156Y-109790604D01*
X105937128Y-109722684D01*
X106086428Y-109692987D01*
X106111198Y-109688060D01*
X106288682Y-109688060D01*
X106313452Y-109692987D01*
G37*
G36*
X109640940Y-111487520D02*
G01*
X107838940Y-111487520D01*
X107838940Y-109685520D01*
X109640940Y-109685520D01*
X109640940Y-111487520D01*
G37*
G36*
X104563480Y-111484980D02*
G01*
X102761480Y-111484980D01*
X102761480Y-109682980D01*
X104563480Y-109682980D01*
X104563480Y-111484980D01*
G37*
G36*
X114847468Y-109743565D02*
G01*
X114886138Y-109755296D01*
X114921777Y-109774346D01*
X114953017Y-109799983D01*
X114978654Y-109831223D01*
X114997704Y-109866862D01*
X115009435Y-109905532D01*
X115014000Y-109951888D01*
X115014000Y-111028112D01*
X115009435Y-111074468D01*
X114997704Y-111113138D01*
X114978654Y-111148777D01*
X114953017Y-111180017D01*
X114921777Y-111205654D01*
X114886138Y-111224704D01*
X114847468Y-111236435D01*
X114801112Y-111241000D01*
X114149888Y-111241000D01*
X114103532Y-111236435D01*
X114064862Y-111224704D01*
X114029223Y-111205654D01*
X113997983Y-111180017D01*
X113972346Y-111148777D01*
X113953296Y-111113138D01*
X113941565Y-111074468D01*
X113937000Y-111028112D01*
X113937000Y-109951888D01*
X113941565Y-109905532D01*
X113953296Y-109866862D01*
X113972346Y-109831223D01*
X113997983Y-109799983D01*
X114029223Y-109774346D01*
X114064862Y-109755296D01*
X114103532Y-109743565D01*
X114149888Y-109739000D01*
X114801112Y-109739000D01*
X114847468Y-109743565D01*
G37*
G36*
X112972468Y-109743565D02*
G01*
X113011138Y-109755296D01*
X113046777Y-109774346D01*
X113078017Y-109799983D01*
X113103654Y-109831223D01*
X113122704Y-109866862D01*
X113134435Y-109905532D01*
X113139000Y-109951888D01*
X113139000Y-111028112D01*
X113134435Y-111074468D01*
X113122704Y-111113138D01*
X113103654Y-111148777D01*
X113078017Y-111180017D01*
X113046777Y-111205654D01*
X113011138Y-111224704D01*
X112972468Y-111236435D01*
X112926112Y-111241000D01*
X112274888Y-111241000D01*
X112228532Y-111236435D01*
X112189862Y-111224704D01*
X112154223Y-111205654D01*
X112122983Y-111180017D01*
X112097346Y-111148777D01*
X112078296Y-111113138D01*
X112066565Y-111074468D01*
X112062000Y-111028112D01*
X112062000Y-109951888D01*
X112066565Y-109905532D01*
X112078296Y-109866862D01*
X112097346Y-109831223D01*
X112122983Y-109799983D01*
X112154223Y-109774346D01*
X112189862Y-109755296D01*
X112228532Y-109743565D01*
X112274888Y-109739000D01*
X112926112Y-109739000D01*
X112972468Y-109743565D01*
G37*
G36*
X83352847Y-108917986D02*
G01*
X83526456Y-108970650D01*
X83526458Y-108970651D01*
X83686455Y-109056171D01*
X83826697Y-109171263D01*
X83906029Y-109267931D01*
X83941789Y-109311504D01*
X84027310Y-109471503D01*
X84079974Y-109645112D01*
X84083954Y-109685520D01*
X84093300Y-109780415D01*
X84093300Y-110330904D01*
X84091097Y-110353267D01*
X84079974Y-110466208D01*
X84027310Y-110639817D01*
X83941789Y-110799816D01*
X83906029Y-110843389D01*
X83826697Y-110940057D01*
X83738732Y-111012247D01*
X83686456Y-111055149D01*
X83526457Y-111140670D01*
X83352848Y-111193334D01*
X83172300Y-111211116D01*
X82991753Y-111193334D01*
X82818144Y-111140670D01*
X82658145Y-111055149D01*
X82605869Y-111012247D01*
X82517904Y-110940057D01*
X82402813Y-110799817D01*
X82402812Y-110799815D01*
X82317290Y-110639817D01*
X82264626Y-110466208D01*
X82253503Y-110353268D01*
X82251300Y-110330905D01*
X82251300Y-109780416D01*
X82264626Y-109645115D01*
X82264626Y-109645113D01*
X82317290Y-109471504D01*
X82402811Y-109311505D01*
X82402812Y-109311504D01*
X82517903Y-109171263D01*
X82643688Y-109068035D01*
X82658144Y-109056171D01*
X82818143Y-108970650D01*
X82991752Y-108917986D01*
X83172300Y-108900204D01*
X83352847Y-108917986D01*
G37*
G36*
X85892847Y-108917986D02*
G01*
X86066456Y-108970650D01*
X86066458Y-108970651D01*
X86226455Y-109056171D01*
X86366697Y-109171263D01*
X86446029Y-109267931D01*
X86481789Y-109311504D01*
X86567310Y-109471503D01*
X86619974Y-109645112D01*
X86623954Y-109685520D01*
X86633300Y-109780415D01*
X86633300Y-110330904D01*
X86631097Y-110353267D01*
X86619974Y-110466208D01*
X86567310Y-110639817D01*
X86481789Y-110799816D01*
X86446029Y-110843389D01*
X86366697Y-110940057D01*
X86278732Y-111012247D01*
X86226456Y-111055149D01*
X86066457Y-111140670D01*
X85892848Y-111193334D01*
X85712300Y-111211116D01*
X85531753Y-111193334D01*
X85358144Y-111140670D01*
X85198145Y-111055149D01*
X85145869Y-111012247D01*
X85057904Y-110940057D01*
X84942813Y-110799817D01*
X84942812Y-110799815D01*
X84857290Y-110639817D01*
X84804626Y-110466208D01*
X84793503Y-110353268D01*
X84791300Y-110330905D01*
X84791300Y-109780416D01*
X84804626Y-109645115D01*
X84804626Y-109645113D01*
X84857290Y-109471504D01*
X84942811Y-109311505D01*
X84942812Y-109311504D01*
X85057903Y-109171263D01*
X85183688Y-109068035D01*
X85198144Y-109056171D01*
X85358143Y-108970650D01*
X85531752Y-108917986D01*
X85712300Y-108900204D01*
X85892847Y-108917986D01*
G37*
G36*
X81411861Y-108908626D02*
G01*
X81444683Y-108918583D01*
X81474932Y-108934752D01*
X81501448Y-108956512D01*
X81523208Y-108983028D01*
X81539377Y-109013277D01*
X81549334Y-109046099D01*
X81553300Y-109086373D01*
X81553300Y-111024947D01*
X81549334Y-111065221D01*
X81539377Y-111098043D01*
X81523208Y-111128292D01*
X81501448Y-111154808D01*
X81474932Y-111176568D01*
X81444683Y-111192737D01*
X81411861Y-111202694D01*
X81371587Y-111206660D01*
X79893013Y-111206660D01*
X79852739Y-111202694D01*
X79819917Y-111192737D01*
X79789668Y-111176568D01*
X79763152Y-111154808D01*
X79741392Y-111128292D01*
X79725223Y-111098043D01*
X79715266Y-111065221D01*
X79711300Y-111024947D01*
X79711300Y-109086373D01*
X79715266Y-109046099D01*
X79725223Y-109013277D01*
X79741392Y-108983028D01*
X79763152Y-108956512D01*
X79789668Y-108934752D01*
X79819917Y-108918583D01*
X79852739Y-108908626D01*
X79893013Y-108904660D01*
X81371587Y-108904660D01*
X81411861Y-108908626D01*
G37*
G36*
X97698767Y-108905286D02*
G01*
X97872376Y-108957950D01*
X97872378Y-108957951D01*
X98032375Y-109043471D01*
X98172617Y-109158563D01*
X98251949Y-109255231D01*
X98287709Y-109298804D01*
X98373230Y-109458803D01*
X98425894Y-109632412D01*
X98439220Y-109767716D01*
X98439220Y-110318203D01*
X98425894Y-110453508D01*
X98373230Y-110627117D01*
X98287709Y-110787116D01*
X98251949Y-110830689D01*
X98172617Y-110927357D01*
X98091853Y-110993637D01*
X98032376Y-111042449D01*
X97872377Y-111127970D01*
X97698768Y-111180634D01*
X97518220Y-111198416D01*
X97337673Y-111180634D01*
X97164064Y-111127970D01*
X97004065Y-111042449D01*
X96944588Y-110993637D01*
X96863824Y-110927357D01*
X96748733Y-110787117D01*
X96748732Y-110787115D01*
X96663210Y-110627117D01*
X96610546Y-110453508D01*
X96597220Y-110318204D01*
X96597220Y-109767717D01*
X96610546Y-109632413D01*
X96663210Y-109458804D01*
X96748731Y-109298805D01*
X96748732Y-109298804D01*
X96863823Y-109158563D01*
X96974133Y-109068035D01*
X97004064Y-109043471D01*
X97164063Y-108957950D01*
X97337672Y-108905286D01*
X97518220Y-108887504D01*
X97698767Y-108905286D01*
G37*
G36*
X95158767Y-108905286D02*
G01*
X95332376Y-108957950D01*
X95332378Y-108957951D01*
X95492375Y-109043471D01*
X95632617Y-109158563D01*
X95711949Y-109255231D01*
X95747709Y-109298804D01*
X95833230Y-109458803D01*
X95885894Y-109632412D01*
X95899220Y-109767716D01*
X95899220Y-110318203D01*
X95885894Y-110453508D01*
X95833230Y-110627117D01*
X95747709Y-110787116D01*
X95711949Y-110830689D01*
X95632617Y-110927357D01*
X95551853Y-110993637D01*
X95492376Y-111042449D01*
X95332377Y-111127970D01*
X95158768Y-111180634D01*
X94978220Y-111198416D01*
X94797673Y-111180634D01*
X94624064Y-111127970D01*
X94464065Y-111042449D01*
X94404588Y-110993637D01*
X94323824Y-110927357D01*
X94208733Y-110787117D01*
X94208732Y-110787115D01*
X94123210Y-110627117D01*
X94070546Y-110453508D01*
X94057220Y-110318204D01*
X94057220Y-109767717D01*
X94070546Y-109632413D01*
X94123210Y-109458804D01*
X94208731Y-109298805D01*
X94208732Y-109298804D01*
X94323823Y-109158563D01*
X94434133Y-109068035D01*
X94464064Y-109043471D01*
X94624063Y-108957950D01*
X94797672Y-108905286D01*
X94978220Y-108887504D01*
X95158767Y-108905286D01*
G37*
G36*
X93217781Y-108895926D02*
G01*
X93250603Y-108905883D01*
X93280852Y-108922052D01*
X93307368Y-108943812D01*
X93329128Y-108970328D01*
X93345297Y-109000577D01*
X93355254Y-109033399D01*
X93359220Y-109073673D01*
X93359220Y-111012247D01*
X93355254Y-111052521D01*
X93345297Y-111085343D01*
X93329128Y-111115592D01*
X93307368Y-111142108D01*
X93280852Y-111163868D01*
X93250603Y-111180037D01*
X93217781Y-111189994D01*
X93177507Y-111193960D01*
X91698933Y-111193960D01*
X91658659Y-111189994D01*
X91625837Y-111180037D01*
X91595588Y-111163868D01*
X91569072Y-111142108D01*
X91547312Y-111115592D01*
X91531143Y-111085343D01*
X91521186Y-111052521D01*
X91517220Y-111012247D01*
X91517220Y-109073673D01*
X91521186Y-109033399D01*
X91531143Y-109000577D01*
X91547312Y-108970328D01*
X91569072Y-108943812D01*
X91595588Y-108922052D01*
X91625837Y-108905883D01*
X91658659Y-108895926D01*
X91698933Y-108891960D01*
X93177507Y-108891960D01*
X93217781Y-108895926D01*
G37*
G36*
X66179000Y-110883000D02*
G01*
X64377000Y-110883000D01*
X64377000Y-109081000D01*
X66179000Y-109081000D01*
X66179000Y-110883000D01*
G37*
G36*
X123620508Y-109819184D02*
G01*
X123641589Y-109825580D01*
X123661025Y-109835968D01*
X123678056Y-109849944D01*
X123692032Y-109866975D01*
X123702420Y-109886411D01*
X123708816Y-109907492D01*
X123711580Y-109935560D01*
X123711580Y-110399280D01*
X123708816Y-110427348D01*
X123702420Y-110448429D01*
X123692032Y-110467865D01*
X123678056Y-110484896D01*
X123661025Y-110498872D01*
X123641589Y-110509260D01*
X123620508Y-110515656D01*
X123592440Y-110518420D01*
X121778720Y-110518420D01*
X121750652Y-110515656D01*
X121729571Y-110509260D01*
X121710135Y-110498872D01*
X121693104Y-110484896D01*
X121679128Y-110467865D01*
X121668740Y-110448429D01*
X121662344Y-110427348D01*
X121659580Y-110399280D01*
X121659580Y-109935560D01*
X121662344Y-109907492D01*
X121668740Y-109886411D01*
X121679128Y-109866975D01*
X121693104Y-109849944D01*
X121710135Y-109835968D01*
X121729571Y-109825580D01*
X121750652Y-109819184D01*
X121778720Y-109816420D01*
X123592440Y-109816420D01*
X123620508Y-109819184D01*
G37*
G36*
X118670508Y-109819184D02*
G01*
X118691589Y-109825580D01*
X118711025Y-109835968D01*
X118728056Y-109849944D01*
X118742032Y-109866975D01*
X118752420Y-109886411D01*
X118758816Y-109907492D01*
X118761580Y-109935560D01*
X118761580Y-110399280D01*
X118758816Y-110427348D01*
X118752420Y-110448429D01*
X118742032Y-110467865D01*
X118728056Y-110484896D01*
X118711025Y-110498872D01*
X118691589Y-110509260D01*
X118670508Y-110515656D01*
X118642440Y-110518420D01*
X116828720Y-110518420D01*
X116800652Y-110515656D01*
X116779571Y-110509260D01*
X116760135Y-110498872D01*
X116743104Y-110484896D01*
X116729128Y-110467865D01*
X116718740Y-110448429D01*
X116712344Y-110427348D01*
X116709580Y-110399280D01*
X116709580Y-109935560D01*
X116712344Y-109907492D01*
X116718740Y-109886411D01*
X116729128Y-109866975D01*
X116743104Y-109849944D01*
X116760135Y-109835968D01*
X116779571Y-109825580D01*
X116800652Y-109819184D01*
X116828720Y-109816420D01*
X118642440Y-109816420D01*
X118670508Y-109819184D01*
G37*
G36*
X89573368Y-108670585D02*
G01*
X89612038Y-108682316D01*
X89647677Y-108701366D01*
X89678917Y-108727003D01*
X89704554Y-108758243D01*
X89723604Y-108793882D01*
X89735335Y-108832552D01*
X89739900Y-108878908D01*
X89739900Y-109530132D01*
X89735335Y-109576488D01*
X89723604Y-109615158D01*
X89704554Y-109650797D01*
X89678917Y-109682037D01*
X89647677Y-109707674D01*
X89612038Y-109726724D01*
X89573368Y-109738455D01*
X89527012Y-109743020D01*
X88450788Y-109743020D01*
X88404432Y-109738455D01*
X88365762Y-109726724D01*
X88330123Y-109707674D01*
X88298883Y-109682037D01*
X88273246Y-109650797D01*
X88254196Y-109615158D01*
X88242465Y-109576488D01*
X88237900Y-109530132D01*
X88237900Y-108878908D01*
X88242465Y-108832552D01*
X88254196Y-108793882D01*
X88273246Y-108758243D01*
X88298883Y-108727003D01*
X88330123Y-108701366D01*
X88365762Y-108682316D01*
X88404432Y-108670585D01*
X88450788Y-108666020D01*
X89527012Y-108666020D01*
X89573368Y-108670585D01*
G37*
G36*
X107100940Y-108950060D02*
G01*
X105298940Y-108950060D01*
X105298940Y-107148060D01*
X107100940Y-107148060D01*
X107100940Y-108950060D01*
G37*
G36*
X75442292Y-102161887D02*
G01*
X75591592Y-102191584D01*
X75755564Y-102259504D01*
X75903134Y-102358107D01*
X76028633Y-102483606D01*
X76127236Y-102631176D01*
X76195156Y-102795148D01*
X76229780Y-102969219D01*
X76229780Y-103146701D01*
X76195156Y-103320772D01*
X76127236Y-103484744D01*
X76028633Y-103632314D01*
X75903134Y-103757813D01*
X75755564Y-103856416D01*
X75591592Y-103924336D01*
X75442292Y-103954033D01*
X75417522Y-103958960D01*
X75240038Y-103958960D01*
X75215268Y-103954033D01*
X75065968Y-103924336D01*
X74901996Y-103856416D01*
X74754426Y-103757813D01*
X74628927Y-103632314D01*
X74530324Y-103484744D01*
X74462404Y-103320772D01*
X74427780Y-103146701D01*
X74427780Y-102969219D01*
X74462404Y-102795148D01*
X74530324Y-102631176D01*
X74628927Y-102483606D01*
X74754426Y-102358107D01*
X74901996Y-102259504D01*
X75065968Y-102191584D01*
X75215268Y-102161887D01*
X75240038Y-102156960D01*
X75417522Y-102156960D01*
X75442292Y-102161887D01*
G37*
G36*
X80522292Y-102161887D02*
G01*
X80671592Y-102191584D01*
X80835564Y-102259504D01*
X80983134Y-102358107D01*
X81108633Y-102483606D01*
X81207236Y-102631176D01*
X81275156Y-102795148D01*
X81309780Y-102969219D01*
X81309780Y-103146701D01*
X81275156Y-103320772D01*
X81207236Y-103484744D01*
X81108633Y-103632314D01*
X80983134Y-103757813D01*
X80835564Y-103856416D01*
X80671592Y-103924336D01*
X80522292Y-103954033D01*
X80497522Y-103958960D01*
X80320038Y-103958960D01*
X80295268Y-103954033D01*
X80145968Y-103924336D01*
X79981996Y-103856416D01*
X79834426Y-103757813D01*
X79708927Y-103632314D01*
X79610324Y-103484744D01*
X79542404Y-103320772D01*
X79507780Y-103146701D01*
X79507780Y-102969219D01*
X79542404Y-102795148D01*
X79610324Y-102631176D01*
X79708927Y-102483606D01*
X79834426Y-102358107D01*
X79981996Y-102259504D01*
X80145968Y-102191584D01*
X80295268Y-102161887D01*
X80320038Y-102156960D01*
X80497522Y-102156960D01*
X80522292Y-102161887D01*
G37*
G36*
X83062292Y-102161887D02*
G01*
X83211592Y-102191584D01*
X83375564Y-102259504D01*
X83523134Y-102358107D01*
X83648633Y-102483606D01*
X83747236Y-102631176D01*
X83815156Y-102795148D01*
X83849780Y-102969219D01*
X83849780Y-103146701D01*
X83815156Y-103320772D01*
X83747236Y-103484744D01*
X83648633Y-103632314D01*
X83523134Y-103757813D01*
X83375564Y-103856416D01*
X83211592Y-103924336D01*
X83062292Y-103954033D01*
X83037522Y-103958960D01*
X82860038Y-103958960D01*
X82835268Y-103954033D01*
X82685968Y-103924336D01*
X82521996Y-103856416D01*
X82374426Y-103757813D01*
X82248927Y-103632314D01*
X82150324Y-103484744D01*
X82082404Y-103320772D01*
X82047780Y-103146701D01*
X82047780Y-102969219D01*
X82082404Y-102795148D01*
X82150324Y-102631176D01*
X82248927Y-102483606D01*
X82374426Y-102358107D01*
X82521996Y-102259504D01*
X82685968Y-102191584D01*
X82835268Y-102161887D01*
X82860038Y-102156960D01*
X83037522Y-102156960D01*
X83062292Y-102161887D01*
G37*
G36*
X85602292Y-102161887D02*
G01*
X85751592Y-102191584D01*
X85915564Y-102259504D01*
X86063134Y-102358107D01*
X86188633Y-102483606D01*
X86287236Y-102631176D01*
X86355156Y-102795148D01*
X86389780Y-102969219D01*
X86389780Y-103146701D01*
X86355156Y-103320772D01*
X86287236Y-103484744D01*
X86188633Y-103632314D01*
X86063134Y-103757813D01*
X85915564Y-103856416D01*
X85751592Y-103924336D01*
X85602292Y-103954033D01*
X85577522Y-103958960D01*
X85400038Y-103958960D01*
X85375268Y-103954033D01*
X85225968Y-103924336D01*
X85061996Y-103856416D01*
X84914426Y-103757813D01*
X84788927Y-103632314D01*
X84690324Y-103484744D01*
X84622404Y-103320772D01*
X84587780Y-103146701D01*
X84587780Y-102969219D01*
X84622404Y-102795148D01*
X84690324Y-102631176D01*
X84788927Y-102483606D01*
X84914426Y-102358107D01*
X85061996Y-102259504D01*
X85225968Y-102191584D01*
X85375268Y-102161887D01*
X85400038Y-102156960D01*
X85577522Y-102156960D01*
X85602292Y-102161887D01*
G37*
G36*
X118622292Y-102161887D02*
G01*
X118771592Y-102191584D01*
X118935564Y-102259504D01*
X119083134Y-102358107D01*
X119208633Y-102483606D01*
X119307236Y-102631176D01*
X119375156Y-102795148D01*
X119409780Y-102969219D01*
X119409780Y-103146701D01*
X119375156Y-103320772D01*
X119307236Y-103484744D01*
X119208633Y-103632314D01*
X119083134Y-103757813D01*
X118935564Y-103856416D01*
X118771592Y-103924336D01*
X118622292Y-103954033D01*
X118597522Y-103958960D01*
X118420038Y-103958960D01*
X118395268Y-103954033D01*
X118245968Y-103924336D01*
X118081996Y-103856416D01*
X117934426Y-103757813D01*
X117808927Y-103632314D01*
X117710324Y-103484744D01*
X117642404Y-103320772D01*
X117607780Y-103146701D01*
X117607780Y-102969219D01*
X117642404Y-102795148D01*
X117710324Y-102631176D01*
X117808927Y-102483606D01*
X117934426Y-102358107D01*
X118081996Y-102259504D01*
X118245968Y-102191584D01*
X118395268Y-102161887D01*
X118420038Y-102156960D01*
X118597522Y-102156960D01*
X118622292Y-102161887D01*
G37*
G36*
X116082292Y-102161887D02*
G01*
X116231592Y-102191584D01*
X116395564Y-102259504D01*
X116543134Y-102358107D01*
X116668633Y-102483606D01*
X116767236Y-102631176D01*
X116835156Y-102795148D01*
X116869780Y-102969219D01*
X116869780Y-103146701D01*
X116835156Y-103320772D01*
X116767236Y-103484744D01*
X116668633Y-103632314D01*
X116543134Y-103757813D01*
X116395564Y-103856416D01*
X116231592Y-103924336D01*
X116082292Y-103954033D01*
X116057522Y-103958960D01*
X115880038Y-103958960D01*
X115855268Y-103954033D01*
X115705968Y-103924336D01*
X115541996Y-103856416D01*
X115394426Y-103757813D01*
X115268927Y-103632314D01*
X115170324Y-103484744D01*
X115102404Y-103320772D01*
X115067780Y-103146701D01*
X115067780Y-102969219D01*
X115102404Y-102795148D01*
X115170324Y-102631176D01*
X115268927Y-102483606D01*
X115394426Y-102358107D01*
X115541996Y-102259504D01*
X115705968Y-102191584D01*
X115855268Y-102161887D01*
X115880038Y-102156960D01*
X116057522Y-102156960D01*
X116082292Y-102161887D01*
G37*
G36*
X111002292Y-102161887D02*
G01*
X111151592Y-102191584D01*
X111315564Y-102259504D01*
X111463134Y-102358107D01*
X111588633Y-102483606D01*
X111687236Y-102631176D01*
X111755156Y-102795148D01*
X111789780Y-102969219D01*
X111789780Y-103146701D01*
X111755156Y-103320772D01*
X111687236Y-103484744D01*
X111588633Y-103632314D01*
X111463134Y-103757813D01*
X111315564Y-103856416D01*
X111151592Y-103924336D01*
X111002292Y-103954033D01*
X110977522Y-103958960D01*
X110800038Y-103958960D01*
X110775268Y-103954033D01*
X110625968Y-103924336D01*
X110461996Y-103856416D01*
X110314426Y-103757813D01*
X110188927Y-103632314D01*
X110090324Y-103484744D01*
X110022404Y-103320772D01*
X109987780Y-103146701D01*
X109987780Y-102969219D01*
X110022404Y-102795148D01*
X110090324Y-102631176D01*
X110188927Y-102483606D01*
X110314426Y-102358107D01*
X110461996Y-102259504D01*
X110625968Y-102191584D01*
X110775268Y-102161887D01*
X110800038Y-102156960D01*
X110977522Y-102156960D01*
X111002292Y-102161887D01*
G37*
G36*
X108462292Y-102161887D02*
G01*
X108611592Y-102191584D01*
X108775564Y-102259504D01*
X108923134Y-102358107D01*
X109048633Y-102483606D01*
X109147236Y-102631176D01*
X109215156Y-102795148D01*
X109249780Y-102969219D01*
X109249780Y-103146701D01*
X109215156Y-103320772D01*
X109147236Y-103484744D01*
X109048633Y-103632314D01*
X108923134Y-103757813D01*
X108775564Y-103856416D01*
X108611592Y-103924336D01*
X108462292Y-103954033D01*
X108437522Y-103958960D01*
X108260038Y-103958960D01*
X108235268Y-103954033D01*
X108085968Y-103924336D01*
X107921996Y-103856416D01*
X107774426Y-103757813D01*
X107648927Y-103632314D01*
X107550324Y-103484744D01*
X107482404Y-103320772D01*
X107447780Y-103146701D01*
X107447780Y-102969219D01*
X107482404Y-102795148D01*
X107550324Y-102631176D01*
X107648927Y-102483606D01*
X107774426Y-102358107D01*
X107921996Y-102259504D01*
X108085968Y-102191584D01*
X108235268Y-102161887D01*
X108260038Y-102156960D01*
X108437522Y-102156960D01*
X108462292Y-102161887D01*
G37*
G36*
X105922292Y-102161887D02*
G01*
X106071592Y-102191584D01*
X106235564Y-102259504D01*
X106383134Y-102358107D01*
X106508633Y-102483606D01*
X106607236Y-102631176D01*
X106675156Y-102795148D01*
X106709780Y-102969219D01*
X106709780Y-103146701D01*
X106675156Y-103320772D01*
X106607236Y-103484744D01*
X106508633Y-103632314D01*
X106383134Y-103757813D01*
X106235564Y-103856416D01*
X106071592Y-103924336D01*
X105922292Y-103954033D01*
X105897522Y-103958960D01*
X105720038Y-103958960D01*
X105695268Y-103954033D01*
X105545968Y-103924336D01*
X105381996Y-103856416D01*
X105234426Y-103757813D01*
X105108927Y-103632314D01*
X105010324Y-103484744D01*
X104942404Y-103320772D01*
X104907780Y-103146701D01*
X104907780Y-102969219D01*
X104942404Y-102795148D01*
X105010324Y-102631176D01*
X105108927Y-102483606D01*
X105234426Y-102358107D01*
X105381996Y-102259504D01*
X105545968Y-102191584D01*
X105695268Y-102161887D01*
X105720038Y-102156960D01*
X105897522Y-102156960D01*
X105922292Y-102161887D01*
G37*
G36*
X103382292Y-102161887D02*
G01*
X103531592Y-102191584D01*
X103695564Y-102259504D01*
X103843134Y-102358107D01*
X103968633Y-102483606D01*
X104067236Y-102631176D01*
X104135156Y-102795148D01*
X104169780Y-102969219D01*
X104169780Y-103146701D01*
X104135156Y-103320772D01*
X104067236Y-103484744D01*
X103968633Y-103632314D01*
X103843134Y-103757813D01*
X103695564Y-103856416D01*
X103531592Y-103924336D01*
X103382292Y-103954033D01*
X103357522Y-103958960D01*
X103180038Y-103958960D01*
X103155268Y-103954033D01*
X103005968Y-103924336D01*
X102841996Y-103856416D01*
X102694426Y-103757813D01*
X102568927Y-103632314D01*
X102470324Y-103484744D01*
X102402404Y-103320772D01*
X102367780Y-103146701D01*
X102367780Y-102969219D01*
X102402404Y-102795148D01*
X102470324Y-102631176D01*
X102568927Y-102483606D01*
X102694426Y-102358107D01*
X102841996Y-102259504D01*
X103005968Y-102191584D01*
X103155268Y-102161887D01*
X103180038Y-102156960D01*
X103357522Y-102156960D01*
X103382292Y-102161887D01*
G37*
G36*
X98302292Y-102161887D02*
G01*
X98451592Y-102191584D01*
X98615564Y-102259504D01*
X98763134Y-102358107D01*
X98888633Y-102483606D01*
X98987236Y-102631176D01*
X99055156Y-102795148D01*
X99089780Y-102969219D01*
X99089780Y-103146701D01*
X99055156Y-103320772D01*
X98987236Y-103484744D01*
X98888633Y-103632314D01*
X98763134Y-103757813D01*
X98615564Y-103856416D01*
X98451592Y-103924336D01*
X98302292Y-103954033D01*
X98277522Y-103958960D01*
X98100038Y-103958960D01*
X98075268Y-103954033D01*
X97925968Y-103924336D01*
X97761996Y-103856416D01*
X97614426Y-103757813D01*
X97488927Y-103632314D01*
X97390324Y-103484744D01*
X97322404Y-103320772D01*
X97287780Y-103146701D01*
X97287780Y-102969219D01*
X97322404Y-102795148D01*
X97390324Y-102631176D01*
X97488927Y-102483606D01*
X97614426Y-102358107D01*
X97761996Y-102259504D01*
X97925968Y-102191584D01*
X98075268Y-102161887D01*
X98100038Y-102156960D01*
X98277522Y-102156960D01*
X98302292Y-102161887D01*
G37*
G36*
X95762292Y-102161887D02*
G01*
X95911592Y-102191584D01*
X96075564Y-102259504D01*
X96223134Y-102358107D01*
X96348633Y-102483606D01*
X96447236Y-102631176D01*
X96515156Y-102795148D01*
X96549780Y-102969219D01*
X96549780Y-103146701D01*
X96515156Y-103320772D01*
X96447236Y-103484744D01*
X96348633Y-103632314D01*
X96223134Y-103757813D01*
X96075564Y-103856416D01*
X95911592Y-103924336D01*
X95762292Y-103954033D01*
X95737522Y-103958960D01*
X95560038Y-103958960D01*
X95535268Y-103954033D01*
X95385968Y-103924336D01*
X95221996Y-103856416D01*
X95074426Y-103757813D01*
X94948927Y-103632314D01*
X94850324Y-103484744D01*
X94782404Y-103320772D01*
X94747780Y-103146701D01*
X94747780Y-102969219D01*
X94782404Y-102795148D01*
X94850324Y-102631176D01*
X94948927Y-102483606D01*
X95074426Y-102358107D01*
X95221996Y-102259504D01*
X95385968Y-102191584D01*
X95535268Y-102161887D01*
X95560038Y-102156960D01*
X95737522Y-102156960D01*
X95762292Y-102161887D01*
G37*
G36*
X93222292Y-102161887D02*
G01*
X93371592Y-102191584D01*
X93535564Y-102259504D01*
X93683134Y-102358107D01*
X93808633Y-102483606D01*
X93907236Y-102631176D01*
X93975156Y-102795148D01*
X94009780Y-102969219D01*
X94009780Y-103146701D01*
X93975156Y-103320772D01*
X93907236Y-103484744D01*
X93808633Y-103632314D01*
X93683134Y-103757813D01*
X93535564Y-103856416D01*
X93371592Y-103924336D01*
X93222292Y-103954033D01*
X93197522Y-103958960D01*
X93020038Y-103958960D01*
X92995268Y-103954033D01*
X92845968Y-103924336D01*
X92681996Y-103856416D01*
X92534426Y-103757813D01*
X92408927Y-103632314D01*
X92310324Y-103484744D01*
X92242404Y-103320772D01*
X92207780Y-103146701D01*
X92207780Y-102969219D01*
X92242404Y-102795148D01*
X92310324Y-102631176D01*
X92408927Y-102483606D01*
X92534426Y-102358107D01*
X92681996Y-102259504D01*
X92845968Y-102191584D01*
X92995268Y-102161887D01*
X93020038Y-102156960D01*
X93197522Y-102156960D01*
X93222292Y-102161887D01*
G37*
G36*
X90682292Y-102161887D02*
G01*
X90831592Y-102191584D01*
X90995564Y-102259504D01*
X91143134Y-102358107D01*
X91268633Y-102483606D01*
X91367236Y-102631176D01*
X91435156Y-102795148D01*
X91469780Y-102969219D01*
X91469780Y-103146701D01*
X91435156Y-103320772D01*
X91367236Y-103484744D01*
X91268633Y-103632314D01*
X91143134Y-103757813D01*
X90995564Y-103856416D01*
X90831592Y-103924336D01*
X90682292Y-103954033D01*
X90657522Y-103958960D01*
X90480038Y-103958960D01*
X90455268Y-103954033D01*
X90305968Y-103924336D01*
X90141996Y-103856416D01*
X89994426Y-103757813D01*
X89868927Y-103632314D01*
X89770324Y-103484744D01*
X89702404Y-103320772D01*
X89667780Y-103146701D01*
X89667780Y-102969219D01*
X89702404Y-102795148D01*
X89770324Y-102631176D01*
X89868927Y-102483606D01*
X89994426Y-102358107D01*
X90141996Y-102259504D01*
X90305968Y-102191584D01*
X90455268Y-102161887D01*
X90480038Y-102156960D01*
X90657522Y-102156960D01*
X90682292Y-102161887D01*
G37*
G36*
X88142292Y-102161887D02*
G01*
X88291592Y-102191584D01*
X88455564Y-102259504D01*
X88603134Y-102358107D01*
X88728633Y-102483606D01*
X88827236Y-102631176D01*
X88895156Y-102795148D01*
X88929780Y-102969219D01*
X88929780Y-103146701D01*
X88895156Y-103320772D01*
X88827236Y-103484744D01*
X88728633Y-103632314D01*
X88603134Y-103757813D01*
X88455564Y-103856416D01*
X88291592Y-103924336D01*
X88142292Y-103954033D01*
X88117522Y-103958960D01*
X87940038Y-103958960D01*
X87915268Y-103954033D01*
X87765968Y-103924336D01*
X87601996Y-103856416D01*
X87454426Y-103757813D01*
X87328927Y-103632314D01*
X87230324Y-103484744D01*
X87162404Y-103320772D01*
X87127780Y-103146701D01*
X87127780Y-102969219D01*
X87162404Y-102795148D01*
X87230324Y-102631176D01*
X87328927Y-102483606D01*
X87454426Y-102358107D01*
X87601996Y-102259504D01*
X87765968Y-102191584D01*
X87915268Y-102161887D01*
X87940038Y-102156960D01*
X88117522Y-102156960D01*
X88142292Y-102161887D01*
G37*
G36*
X113542292Y-102161887D02*
G01*
X113691592Y-102191584D01*
X113855564Y-102259504D01*
X114003134Y-102358107D01*
X114128633Y-102483606D01*
X114227236Y-102631176D01*
X114295156Y-102795148D01*
X114329780Y-102969219D01*
X114329780Y-103146701D01*
X114295156Y-103320772D01*
X114227236Y-103484744D01*
X114128633Y-103632314D01*
X114003134Y-103757813D01*
X113855564Y-103856416D01*
X113691592Y-103924336D01*
X113542292Y-103954033D01*
X113517522Y-103958960D01*
X113340038Y-103958960D01*
X113315268Y-103954033D01*
X113165968Y-103924336D01*
X113001996Y-103856416D01*
X112854426Y-103757813D01*
X112728927Y-103632314D01*
X112630324Y-103484744D01*
X112562404Y-103320772D01*
X112527780Y-103146701D01*
X112527780Y-102969219D01*
X112562404Y-102795148D01*
X112630324Y-102631176D01*
X112728927Y-102483606D01*
X112854426Y-102358107D01*
X113001996Y-102259504D01*
X113165968Y-102191584D01*
X113315268Y-102161887D01*
X113340038Y-102156960D01*
X113517522Y-102156960D01*
X113542292Y-102161887D01*
G37*
G36*
X77982292Y-102161887D02*
G01*
X78131592Y-102191584D01*
X78295564Y-102259504D01*
X78443134Y-102358107D01*
X78568633Y-102483606D01*
X78667236Y-102631176D01*
X78735156Y-102795148D01*
X78769780Y-102969219D01*
X78769780Y-103146701D01*
X78735156Y-103320772D01*
X78667236Y-103484744D01*
X78568633Y-103632314D01*
X78443134Y-103757813D01*
X78295564Y-103856416D01*
X78131592Y-103924336D01*
X77982292Y-103954033D01*
X77957522Y-103958960D01*
X77780038Y-103958960D01*
X77755268Y-103954033D01*
X77605968Y-103924336D01*
X77441996Y-103856416D01*
X77294426Y-103757813D01*
X77168927Y-103632314D01*
X77070324Y-103484744D01*
X77002404Y-103320772D01*
X76967780Y-103146701D01*
X76967780Y-102969219D01*
X77002404Y-102795148D01*
X77070324Y-102631176D01*
X77168927Y-102483606D01*
X77294426Y-102358107D01*
X77441996Y-102259504D01*
X77605968Y-102191584D01*
X77755268Y-102161887D01*
X77780038Y-102156960D01*
X77957522Y-102156960D01*
X77982292Y-102161887D01*
G37*
G36*
X72902292Y-102161887D02*
G01*
X73051592Y-102191584D01*
X73215564Y-102259504D01*
X73363134Y-102358107D01*
X73488633Y-102483606D01*
X73587236Y-102631176D01*
X73655156Y-102795148D01*
X73689780Y-102969219D01*
X73689780Y-103146701D01*
X73655156Y-103320772D01*
X73587236Y-103484744D01*
X73488633Y-103632314D01*
X73363134Y-103757813D01*
X73215564Y-103856416D01*
X73051592Y-103924336D01*
X72902292Y-103954033D01*
X72877522Y-103958960D01*
X72700038Y-103958960D01*
X72675268Y-103954033D01*
X72525968Y-103924336D01*
X72361996Y-103856416D01*
X72214426Y-103757813D01*
X72088927Y-103632314D01*
X71990324Y-103484744D01*
X71922404Y-103320772D01*
X71887780Y-103146701D01*
X71887780Y-102969219D01*
X71922404Y-102795148D01*
X71990324Y-102631176D01*
X72088927Y-102483606D01*
X72214426Y-102358107D01*
X72361996Y-102259504D01*
X72525968Y-102191584D01*
X72675268Y-102161887D01*
X72700038Y-102156960D01*
X72877522Y-102156960D01*
X72902292Y-102161887D01*
G37*
G36*
X71149780Y-103958960D02*
G01*
X69347780Y-103958960D01*
X69347780Y-102156960D01*
X71149780Y-102156960D01*
X71149780Y-103958960D01*
G37*
G36*
X100842292Y-102161887D02*
G01*
X100991592Y-102191584D01*
X101155564Y-102259504D01*
X101303134Y-102358107D01*
X101428633Y-102483606D01*
X101527236Y-102631176D01*
X101595156Y-102795148D01*
X101629780Y-102969219D01*
X101629780Y-103146701D01*
X101595156Y-103320772D01*
X101527236Y-103484744D01*
X101428633Y-103632314D01*
X101303134Y-103757813D01*
X101155564Y-103856416D01*
X100991592Y-103924336D01*
X100842292Y-103954033D01*
X100817522Y-103958960D01*
X100640038Y-103958960D01*
X100615268Y-103954033D01*
X100465968Y-103924336D01*
X100301996Y-103856416D01*
X100154426Y-103757813D01*
X100028927Y-103632314D01*
X99930324Y-103484744D01*
X99862404Y-103320772D01*
X99827780Y-103146701D01*
X99827780Y-102969219D01*
X99862404Y-102795148D01*
X99930324Y-102631176D01*
X100028927Y-102483606D01*
X100154426Y-102358107D01*
X100301996Y-102259504D01*
X100465968Y-102191584D01*
X100615268Y-102161887D01*
X100640038Y-102156960D01*
X100817522Y-102156960D01*
X100842292Y-102161887D01*
G37*
G36*
X123667017Y-100429218D02*
G01*
X123801857Y-100456039D01*
X123907467Y-100499785D01*
X124056821Y-100561649D01*
X124132963Y-100612525D01*
X124286286Y-100714972D01*
X124481428Y-100910114D01*
X124583875Y-101063437D01*
X124634751Y-101139579D01*
X124696615Y-101288933D01*
X124740361Y-101394543D01*
X124794200Y-101665214D01*
X124794200Y-101941186D01*
X124751281Y-102156960D01*
X124740361Y-102211856D01*
X124634751Y-102466821D01*
X124623535Y-102483607D01*
X124481428Y-102696286D01*
X124286286Y-102891428D01*
X124169864Y-102969218D01*
X124056821Y-103044751D01*
X123907467Y-103106615D01*
X123801857Y-103150361D01*
X123711633Y-103168307D01*
X123531188Y-103204200D01*
X123255212Y-103204200D01*
X123074767Y-103168307D01*
X122984543Y-103150361D01*
X122878933Y-103106615D01*
X122729579Y-103044751D01*
X122616536Y-102969218D01*
X122500114Y-102891428D01*
X122304972Y-102696286D01*
X122162865Y-102483607D01*
X122151649Y-102466821D01*
X122046039Y-102211856D01*
X122035120Y-102156960D01*
X121992200Y-101941186D01*
X121992200Y-101665214D01*
X122046039Y-101394543D01*
X122089785Y-101288933D01*
X122151649Y-101139579D01*
X122202525Y-101063437D01*
X122304972Y-100910114D01*
X122500114Y-100714972D01*
X122653437Y-100612525D01*
X122729579Y-100561649D01*
X122878933Y-100499785D01*
X122984543Y-100456039D01*
X123119383Y-100429218D01*
X123255212Y-100402200D01*
X123531188Y-100402200D01*
X123667017Y-100429218D01*
G37*
G36*
X65653417Y-100429218D02*
G01*
X65788257Y-100456039D01*
X65893867Y-100499785D01*
X66043221Y-100561649D01*
X66119363Y-100612525D01*
X66272686Y-100714972D01*
X66467828Y-100910114D01*
X66570275Y-101063437D01*
X66621151Y-101139579D01*
X66683015Y-101288933D01*
X66726761Y-101394543D01*
X66780600Y-101665214D01*
X66780600Y-101941186D01*
X66737681Y-102156960D01*
X66726761Y-102211856D01*
X66621151Y-102466821D01*
X66609935Y-102483607D01*
X66467828Y-102696286D01*
X66272686Y-102891428D01*
X66156264Y-102969218D01*
X66043221Y-103044751D01*
X65893867Y-103106615D01*
X65788257Y-103150361D01*
X65698033Y-103168307D01*
X65517588Y-103204200D01*
X65241612Y-103204200D01*
X65061167Y-103168307D01*
X64970943Y-103150361D01*
X64865333Y-103106615D01*
X64715979Y-103044751D01*
X64602936Y-102969218D01*
X64486514Y-102891428D01*
X64291372Y-102696286D01*
X64149265Y-102483607D01*
X64138049Y-102466821D01*
X64032439Y-102211856D01*
X64021520Y-102156960D01*
X63978600Y-101941186D01*
X63978600Y-101665214D01*
X64032439Y-101394543D01*
X64076185Y-101288933D01*
X64138049Y-101139579D01*
X64188925Y-101063437D01*
X64291372Y-100910114D01*
X64486514Y-100714972D01*
X64639837Y-100612525D01*
X64715979Y-100561649D01*
X64865333Y-100499785D01*
X64970943Y-100456039D01*
X65105783Y-100429218D01*
X65241612Y-100402200D01*
X65517588Y-100402200D01*
X65653417Y-100429218D01*
G37*
G36*
X118622292Y-99621887D02*
G01*
X118771592Y-99651584D01*
X118935564Y-99719504D01*
X119083134Y-99818107D01*
X119208633Y-99943606D01*
X119307236Y-100091176D01*
X119375156Y-100255148D01*
X119409780Y-100429219D01*
X119409780Y-100606701D01*
X119375156Y-100780772D01*
X119307236Y-100944744D01*
X119208633Y-101092314D01*
X119083134Y-101217813D01*
X118935564Y-101316416D01*
X118771592Y-101384336D01*
X118622292Y-101414033D01*
X118597522Y-101418960D01*
X118420038Y-101418960D01*
X118395268Y-101414033D01*
X118245968Y-101384336D01*
X118081996Y-101316416D01*
X117934426Y-101217813D01*
X117808927Y-101092314D01*
X117710324Y-100944744D01*
X117642404Y-100780772D01*
X117607780Y-100606701D01*
X117607780Y-100429219D01*
X117642404Y-100255148D01*
X117710324Y-100091176D01*
X117808927Y-99943606D01*
X117934426Y-99818107D01*
X118081996Y-99719504D01*
X118245968Y-99651584D01*
X118395268Y-99621887D01*
X118420038Y-99616960D01*
X118597522Y-99616960D01*
X118622292Y-99621887D01*
G37*
G36*
X70362292Y-99621887D02*
G01*
X70511592Y-99651584D01*
X70675564Y-99719504D01*
X70823134Y-99818107D01*
X70948633Y-99943606D01*
X71047236Y-100091176D01*
X71115156Y-100255148D01*
X71149780Y-100429219D01*
X71149780Y-100606701D01*
X71115156Y-100780772D01*
X71047236Y-100944744D01*
X70948633Y-101092314D01*
X70823134Y-101217813D01*
X70675564Y-101316416D01*
X70511592Y-101384336D01*
X70362292Y-101414033D01*
X70337522Y-101418960D01*
X70160038Y-101418960D01*
X70135268Y-101414033D01*
X69985968Y-101384336D01*
X69821996Y-101316416D01*
X69674426Y-101217813D01*
X69548927Y-101092314D01*
X69450324Y-100944744D01*
X69382404Y-100780772D01*
X69347780Y-100606701D01*
X69347780Y-100429219D01*
X69382404Y-100255148D01*
X69450324Y-100091176D01*
X69548927Y-99943606D01*
X69674426Y-99818107D01*
X69821996Y-99719504D01*
X69985968Y-99651584D01*
X70135268Y-99621887D01*
X70160038Y-99616960D01*
X70337522Y-99616960D01*
X70362292Y-99621887D01*
G37*
G36*
X72902292Y-99621887D02*
G01*
X73051592Y-99651584D01*
X73215564Y-99719504D01*
X73363134Y-99818107D01*
X73488633Y-99943606D01*
X73587236Y-100091176D01*
X73655156Y-100255148D01*
X73689780Y-100429219D01*
X73689780Y-100606701D01*
X73655156Y-100780772D01*
X73587236Y-100944744D01*
X73488633Y-101092314D01*
X73363134Y-101217813D01*
X73215564Y-101316416D01*
X73051592Y-101384336D01*
X72902292Y-101414033D01*
X72877522Y-101418960D01*
X72700038Y-101418960D01*
X72675268Y-101414033D01*
X72525968Y-101384336D01*
X72361996Y-101316416D01*
X72214426Y-101217813D01*
X72088927Y-101092314D01*
X71990324Y-100944744D01*
X71922404Y-100780772D01*
X71887780Y-100606701D01*
X71887780Y-100429219D01*
X71922404Y-100255148D01*
X71990324Y-100091176D01*
X72088927Y-99943606D01*
X72214426Y-99818107D01*
X72361996Y-99719504D01*
X72525968Y-99651584D01*
X72675268Y-99621887D01*
X72700038Y-99616960D01*
X72877522Y-99616960D01*
X72902292Y-99621887D01*
G37*
G36*
X75442292Y-99621887D02*
G01*
X75591592Y-99651584D01*
X75755564Y-99719504D01*
X75903134Y-99818107D01*
X76028633Y-99943606D01*
X76127236Y-100091176D01*
X76195156Y-100255148D01*
X76229780Y-100429219D01*
X76229780Y-100606701D01*
X76195156Y-100780772D01*
X76127236Y-100944744D01*
X76028633Y-101092314D01*
X75903134Y-101217813D01*
X75755564Y-101316416D01*
X75591592Y-101384336D01*
X75442292Y-101414033D01*
X75417522Y-101418960D01*
X75240038Y-101418960D01*
X75215268Y-101414033D01*
X75065968Y-101384336D01*
X74901996Y-101316416D01*
X74754426Y-101217813D01*
X74628927Y-101092314D01*
X74530324Y-100944744D01*
X74462404Y-100780772D01*
X74427780Y-100606701D01*
X74427780Y-100429219D01*
X74462404Y-100255148D01*
X74530324Y-100091176D01*
X74628927Y-99943606D01*
X74754426Y-99818107D01*
X74901996Y-99719504D01*
X75065968Y-99651584D01*
X75215268Y-99621887D01*
X75240038Y-99616960D01*
X75417522Y-99616960D01*
X75442292Y-99621887D01*
G37*
G36*
X93222292Y-99621887D02*
G01*
X93371592Y-99651584D01*
X93535564Y-99719504D01*
X93683134Y-99818107D01*
X93808633Y-99943606D01*
X93907236Y-100091176D01*
X93975156Y-100255148D01*
X94009780Y-100429219D01*
X94009780Y-100606701D01*
X93975156Y-100780772D01*
X93907236Y-100944744D01*
X93808633Y-101092314D01*
X93683134Y-101217813D01*
X93535564Y-101316416D01*
X93371592Y-101384336D01*
X93222292Y-101414033D01*
X93197522Y-101418960D01*
X93020038Y-101418960D01*
X92995268Y-101414033D01*
X92845968Y-101384336D01*
X92681996Y-101316416D01*
X92534426Y-101217813D01*
X92408927Y-101092314D01*
X92310324Y-100944744D01*
X92242404Y-100780772D01*
X92207780Y-100606701D01*
X92207780Y-100429219D01*
X92242404Y-100255148D01*
X92310324Y-100091176D01*
X92408927Y-99943606D01*
X92534426Y-99818107D01*
X92681996Y-99719504D01*
X92845968Y-99651584D01*
X92995268Y-99621887D01*
X93020038Y-99616960D01*
X93197522Y-99616960D01*
X93222292Y-99621887D01*
G37*
G36*
X90682292Y-99621887D02*
G01*
X90831592Y-99651584D01*
X90995564Y-99719504D01*
X91143134Y-99818107D01*
X91268633Y-99943606D01*
X91367236Y-100091176D01*
X91435156Y-100255148D01*
X91469780Y-100429219D01*
X91469780Y-100606701D01*
X91435156Y-100780772D01*
X91367236Y-100944744D01*
X91268633Y-101092314D01*
X91143134Y-101217813D01*
X90995564Y-101316416D01*
X90831592Y-101384336D01*
X90682292Y-101414033D01*
X90657522Y-101418960D01*
X90480038Y-101418960D01*
X90455268Y-101414033D01*
X90305968Y-101384336D01*
X90141996Y-101316416D01*
X89994426Y-101217813D01*
X89868927Y-101092314D01*
X89770324Y-100944744D01*
X89702404Y-100780772D01*
X89667780Y-100606701D01*
X89667780Y-100429219D01*
X89702404Y-100255148D01*
X89770324Y-100091176D01*
X89868927Y-99943606D01*
X89994426Y-99818107D01*
X90141996Y-99719504D01*
X90305968Y-99651584D01*
X90455268Y-99621887D01*
X90480038Y-99616960D01*
X90657522Y-99616960D01*
X90682292Y-99621887D01*
G37*
G36*
X88142292Y-99621887D02*
G01*
X88291592Y-99651584D01*
X88455564Y-99719504D01*
X88603134Y-99818107D01*
X88728633Y-99943606D01*
X88827236Y-100091176D01*
X88895156Y-100255148D01*
X88929780Y-100429219D01*
X88929780Y-100606701D01*
X88895156Y-100780772D01*
X88827236Y-100944744D01*
X88728633Y-101092314D01*
X88603134Y-101217813D01*
X88455564Y-101316416D01*
X88291592Y-101384336D01*
X88142292Y-101414033D01*
X88117522Y-101418960D01*
X87940038Y-101418960D01*
X87915268Y-101414033D01*
X87765968Y-101384336D01*
X87601996Y-101316416D01*
X87454426Y-101217813D01*
X87328927Y-101092314D01*
X87230324Y-100944744D01*
X87162404Y-100780772D01*
X87127780Y-100606701D01*
X87127780Y-100429219D01*
X87162404Y-100255148D01*
X87230324Y-100091176D01*
X87328927Y-99943606D01*
X87454426Y-99818107D01*
X87601996Y-99719504D01*
X87765968Y-99651584D01*
X87915268Y-99621887D01*
X87940038Y-99616960D01*
X88117522Y-99616960D01*
X88142292Y-99621887D01*
G37*
G36*
X95762292Y-99621887D02*
G01*
X95911592Y-99651584D01*
X96075564Y-99719504D01*
X96223134Y-99818107D01*
X96348633Y-99943606D01*
X96447236Y-100091176D01*
X96515156Y-100255148D01*
X96549780Y-100429219D01*
X96549780Y-100606701D01*
X96515156Y-100780772D01*
X96447236Y-100944744D01*
X96348633Y-101092314D01*
X96223134Y-101217813D01*
X96075564Y-101316416D01*
X95911592Y-101384336D01*
X95762292Y-101414033D01*
X95737522Y-101418960D01*
X95560038Y-101418960D01*
X95535268Y-101414033D01*
X95385968Y-101384336D01*
X95221996Y-101316416D01*
X95074426Y-101217813D01*
X94948927Y-101092314D01*
X94850324Y-100944744D01*
X94782404Y-100780772D01*
X94747780Y-100606701D01*
X94747780Y-100429219D01*
X94782404Y-100255148D01*
X94850324Y-100091176D01*
X94948927Y-99943606D01*
X95074426Y-99818107D01*
X95221996Y-99719504D01*
X95385968Y-99651584D01*
X95535268Y-99621887D01*
X95560038Y-99616960D01*
X95737522Y-99616960D01*
X95762292Y-99621887D01*
G37*
G36*
X98302292Y-99621887D02*
G01*
X98451592Y-99651584D01*
X98615564Y-99719504D01*
X98763134Y-99818107D01*
X98888633Y-99943606D01*
X98987236Y-100091176D01*
X99055156Y-100255148D01*
X99089780Y-100429219D01*
X99089780Y-100606701D01*
X99055156Y-100780772D01*
X98987236Y-100944744D01*
X98888633Y-101092314D01*
X98763134Y-101217813D01*
X98615564Y-101316416D01*
X98451592Y-101384336D01*
X98302292Y-101414033D01*
X98277522Y-101418960D01*
X98100038Y-101418960D01*
X98075268Y-101414033D01*
X97925968Y-101384336D01*
X97761996Y-101316416D01*
X97614426Y-101217813D01*
X97488927Y-101092314D01*
X97390324Y-100944744D01*
X97322404Y-100780772D01*
X97287780Y-100606701D01*
X97287780Y-100429219D01*
X97322404Y-100255148D01*
X97390324Y-100091176D01*
X97488927Y-99943606D01*
X97614426Y-99818107D01*
X97761996Y-99719504D01*
X97925968Y-99651584D01*
X98075268Y-99621887D01*
X98100038Y-99616960D01*
X98277522Y-99616960D01*
X98302292Y-99621887D01*
G37*
G36*
X100842292Y-99621887D02*
G01*
X100991592Y-99651584D01*
X101155564Y-99719504D01*
X101303134Y-99818107D01*
X101428633Y-99943606D01*
X101527236Y-100091176D01*
X101595156Y-100255148D01*
X101629780Y-100429219D01*
X101629780Y-100606701D01*
X101595156Y-100780772D01*
X101527236Y-100944744D01*
X101428633Y-101092314D01*
X101303134Y-101217813D01*
X101155564Y-101316416D01*
X100991592Y-101384336D01*
X100842292Y-101414033D01*
X100817522Y-101418960D01*
X100640038Y-101418960D01*
X100615268Y-101414033D01*
X100465968Y-101384336D01*
X100301996Y-101316416D01*
X100154426Y-101217813D01*
X100028927Y-101092314D01*
X99930324Y-100944744D01*
X99862404Y-100780772D01*
X99827780Y-100606701D01*
X99827780Y-100429219D01*
X99862404Y-100255148D01*
X99930324Y-100091176D01*
X100028927Y-99943606D01*
X100154426Y-99818107D01*
X100301996Y-99719504D01*
X100465968Y-99651584D01*
X100615268Y-99621887D01*
X100640038Y-99616960D01*
X100817522Y-99616960D01*
X100842292Y-99621887D01*
G37*
G36*
X103382292Y-99621887D02*
G01*
X103531592Y-99651584D01*
X103695564Y-99719504D01*
X103843134Y-99818107D01*
X103968633Y-99943606D01*
X104067236Y-100091176D01*
X104135156Y-100255148D01*
X104169780Y-100429219D01*
X104169780Y-100606701D01*
X104135156Y-100780772D01*
X104067236Y-100944744D01*
X103968633Y-101092314D01*
X103843134Y-101217813D01*
X103695564Y-101316416D01*
X103531592Y-101384336D01*
X103382292Y-101414033D01*
X103357522Y-101418960D01*
X103180038Y-101418960D01*
X103155268Y-101414033D01*
X103005968Y-101384336D01*
X102841996Y-101316416D01*
X102694426Y-101217813D01*
X102568927Y-101092314D01*
X102470324Y-100944744D01*
X102402404Y-100780772D01*
X102367780Y-100606701D01*
X102367780Y-100429219D01*
X102402404Y-100255148D01*
X102470324Y-100091176D01*
X102568927Y-99943606D01*
X102694426Y-99818107D01*
X102841996Y-99719504D01*
X103005968Y-99651584D01*
X103155268Y-99621887D01*
X103180038Y-99616960D01*
X103357522Y-99616960D01*
X103382292Y-99621887D01*
G37*
G36*
X105922292Y-99621887D02*
G01*
X106071592Y-99651584D01*
X106235564Y-99719504D01*
X106383134Y-99818107D01*
X106508633Y-99943606D01*
X106607236Y-100091176D01*
X106675156Y-100255148D01*
X106709780Y-100429219D01*
X106709780Y-100606701D01*
X106675156Y-100780772D01*
X106607236Y-100944744D01*
X106508633Y-101092314D01*
X106383134Y-101217813D01*
X106235564Y-101316416D01*
X106071592Y-101384336D01*
X105922292Y-101414033D01*
X105897522Y-101418960D01*
X105720038Y-101418960D01*
X105695268Y-101414033D01*
X105545968Y-101384336D01*
X105381996Y-101316416D01*
X105234426Y-101217813D01*
X105108927Y-101092314D01*
X105010324Y-100944744D01*
X104942404Y-100780772D01*
X104907780Y-100606701D01*
X104907780Y-100429219D01*
X104942404Y-100255148D01*
X105010324Y-100091176D01*
X105108927Y-99943606D01*
X105234426Y-99818107D01*
X105381996Y-99719504D01*
X105545968Y-99651584D01*
X105695268Y-99621887D01*
X105720038Y-99616960D01*
X105897522Y-99616960D01*
X105922292Y-99621887D01*
G37*
G36*
X108462292Y-99621887D02*
G01*
X108611592Y-99651584D01*
X108775564Y-99719504D01*
X108923134Y-99818107D01*
X109048633Y-99943606D01*
X109147236Y-100091176D01*
X109215156Y-100255148D01*
X109249780Y-100429219D01*
X109249780Y-100606701D01*
X109215156Y-100780772D01*
X109147236Y-100944744D01*
X109048633Y-101092314D01*
X108923134Y-101217813D01*
X108775564Y-101316416D01*
X108611592Y-101384336D01*
X108462292Y-101414033D01*
X108437522Y-101418960D01*
X108260038Y-101418960D01*
X108235268Y-101414033D01*
X108085968Y-101384336D01*
X107921996Y-101316416D01*
X107774426Y-101217813D01*
X107648927Y-101092314D01*
X107550324Y-100944744D01*
X107482404Y-100780772D01*
X107447780Y-100606701D01*
X107447780Y-100429219D01*
X107482404Y-100255148D01*
X107550324Y-100091176D01*
X107648927Y-99943606D01*
X107774426Y-99818107D01*
X107921996Y-99719504D01*
X108085968Y-99651584D01*
X108235268Y-99621887D01*
X108260038Y-99616960D01*
X108437522Y-99616960D01*
X108462292Y-99621887D01*
G37*
G36*
X111002292Y-99621887D02*
G01*
X111151592Y-99651584D01*
X111315564Y-99719504D01*
X111463134Y-99818107D01*
X111588633Y-99943606D01*
X111687236Y-100091176D01*
X111755156Y-100255148D01*
X111789780Y-100429219D01*
X111789780Y-100606701D01*
X111755156Y-100780772D01*
X111687236Y-100944744D01*
X111588633Y-101092314D01*
X111463134Y-101217813D01*
X111315564Y-101316416D01*
X111151592Y-101384336D01*
X111002292Y-101414033D01*
X110977522Y-101418960D01*
X110800038Y-101418960D01*
X110775268Y-101414033D01*
X110625968Y-101384336D01*
X110461996Y-101316416D01*
X110314426Y-101217813D01*
X110188927Y-101092314D01*
X110090324Y-100944744D01*
X110022404Y-100780772D01*
X109987780Y-100606701D01*
X109987780Y-100429219D01*
X110022404Y-100255148D01*
X110090324Y-100091176D01*
X110188927Y-99943606D01*
X110314426Y-99818107D01*
X110461996Y-99719504D01*
X110625968Y-99651584D01*
X110775268Y-99621887D01*
X110800038Y-99616960D01*
X110977522Y-99616960D01*
X111002292Y-99621887D01*
G37*
G36*
X85602292Y-99621887D02*
G01*
X85751592Y-99651584D01*
X85915564Y-99719504D01*
X86063134Y-99818107D01*
X86188633Y-99943606D01*
X86287236Y-100091176D01*
X86355156Y-100255148D01*
X86389780Y-100429219D01*
X86389780Y-100606701D01*
X86355156Y-100780772D01*
X86287236Y-100944744D01*
X86188633Y-101092314D01*
X86063134Y-101217813D01*
X85915564Y-101316416D01*
X85751592Y-101384336D01*
X85602292Y-101414033D01*
X85577522Y-101418960D01*
X85400038Y-101418960D01*
X85375268Y-101414033D01*
X85225968Y-101384336D01*
X85061996Y-101316416D01*
X84914426Y-101217813D01*
X84788927Y-101092314D01*
X84690324Y-100944744D01*
X84622404Y-100780772D01*
X84587780Y-100606701D01*
X84587780Y-100429219D01*
X84622404Y-100255148D01*
X84690324Y-100091176D01*
X84788927Y-99943606D01*
X84914426Y-99818107D01*
X85061996Y-99719504D01*
X85225968Y-99651584D01*
X85375268Y-99621887D01*
X85400038Y-99616960D01*
X85577522Y-99616960D01*
X85602292Y-99621887D01*
G37*
G36*
X113542292Y-99621887D02*
G01*
X113691592Y-99651584D01*
X113855564Y-99719504D01*
X114003134Y-99818107D01*
X114128633Y-99943606D01*
X114227236Y-100091176D01*
X114295156Y-100255148D01*
X114329780Y-100429219D01*
X114329780Y-100606701D01*
X114295156Y-100780772D01*
X114227236Y-100944744D01*
X114128633Y-101092314D01*
X114003134Y-101217813D01*
X113855564Y-101316416D01*
X113691592Y-101384336D01*
X113542292Y-101414033D01*
X113517522Y-101418960D01*
X113340038Y-101418960D01*
X113315268Y-101414033D01*
X113165968Y-101384336D01*
X113001996Y-101316416D01*
X112854426Y-101217813D01*
X112728927Y-101092314D01*
X112630324Y-100944744D01*
X112562404Y-100780772D01*
X112527780Y-100606701D01*
X112527780Y-100429219D01*
X112562404Y-100255148D01*
X112630324Y-100091176D01*
X112728927Y-99943606D01*
X112854426Y-99818107D01*
X113001996Y-99719504D01*
X113165968Y-99651584D01*
X113315268Y-99621887D01*
X113340038Y-99616960D01*
X113517522Y-99616960D01*
X113542292Y-99621887D01*
G37*
G36*
X116082292Y-99621887D02*
G01*
X116231592Y-99651584D01*
X116395564Y-99719504D01*
X116543134Y-99818107D01*
X116668633Y-99943606D01*
X116767236Y-100091176D01*
X116835156Y-100255148D01*
X116869780Y-100429219D01*
X116869780Y-100606701D01*
X116835156Y-100780772D01*
X116767236Y-100944744D01*
X116668633Y-101092314D01*
X116543134Y-101217813D01*
X116395564Y-101316416D01*
X116231592Y-101384336D01*
X116082292Y-101414033D01*
X116057522Y-101418960D01*
X115880038Y-101418960D01*
X115855268Y-101414033D01*
X115705968Y-101384336D01*
X115541996Y-101316416D01*
X115394426Y-101217813D01*
X115268927Y-101092314D01*
X115170324Y-100944744D01*
X115102404Y-100780772D01*
X115067780Y-100606701D01*
X115067780Y-100429219D01*
X115102404Y-100255148D01*
X115170324Y-100091176D01*
X115268927Y-99943606D01*
X115394426Y-99818107D01*
X115541996Y-99719504D01*
X115705968Y-99651584D01*
X115855268Y-99621887D01*
X115880038Y-99616960D01*
X116057522Y-99616960D01*
X116082292Y-99621887D01*
G37*
G36*
X83062292Y-99621887D02*
G01*
X83211592Y-99651584D01*
X83375564Y-99719504D01*
X83523134Y-99818107D01*
X83648633Y-99943606D01*
X83747236Y-100091176D01*
X83815156Y-100255148D01*
X83849780Y-100429219D01*
X83849780Y-100606701D01*
X83815156Y-100780772D01*
X83747236Y-100944744D01*
X83648633Y-101092314D01*
X83523134Y-101217813D01*
X83375564Y-101316416D01*
X83211592Y-101384336D01*
X83062292Y-101414033D01*
X83037522Y-101418960D01*
X82860038Y-101418960D01*
X82835268Y-101414033D01*
X82685968Y-101384336D01*
X82521996Y-101316416D01*
X82374426Y-101217813D01*
X82248927Y-101092314D01*
X82150324Y-100944744D01*
X82082404Y-100780772D01*
X82047780Y-100606701D01*
X82047780Y-100429219D01*
X82082404Y-100255148D01*
X82150324Y-100091176D01*
X82248927Y-99943606D01*
X82374426Y-99818107D01*
X82521996Y-99719504D01*
X82685968Y-99651584D01*
X82835268Y-99621887D01*
X82860038Y-99616960D01*
X83037522Y-99616960D01*
X83062292Y-99621887D01*
G37*
G36*
X80522292Y-99621887D02*
G01*
X80671592Y-99651584D01*
X80835564Y-99719504D01*
X80983134Y-99818107D01*
X81108633Y-99943606D01*
X81207236Y-100091176D01*
X81275156Y-100255148D01*
X81309780Y-100429219D01*
X81309780Y-100606701D01*
X81275156Y-100780772D01*
X81207236Y-100944744D01*
X81108633Y-101092314D01*
X80983134Y-101217813D01*
X80835564Y-101316416D01*
X80671592Y-101384336D01*
X80522292Y-101414033D01*
X80497522Y-101418960D01*
X80320038Y-101418960D01*
X80295268Y-101414033D01*
X80145968Y-101384336D01*
X79981996Y-101316416D01*
X79834426Y-101217813D01*
X79708927Y-101092314D01*
X79610324Y-100944744D01*
X79542404Y-100780772D01*
X79507780Y-100606701D01*
X79507780Y-100429219D01*
X79542404Y-100255148D01*
X79610324Y-100091176D01*
X79708927Y-99943606D01*
X79834426Y-99818107D01*
X79981996Y-99719504D01*
X80145968Y-99651584D01*
X80295268Y-99621887D01*
X80320038Y-99616960D01*
X80497522Y-99616960D01*
X80522292Y-99621887D01*
G37*
G36*
X77982292Y-99621887D02*
G01*
X78131592Y-99651584D01*
X78295564Y-99719504D01*
X78443134Y-99818107D01*
X78568633Y-99943606D01*
X78667236Y-100091176D01*
X78735156Y-100255148D01*
X78769780Y-100429219D01*
X78769780Y-100606701D01*
X78735156Y-100780772D01*
X78667236Y-100944744D01*
X78568633Y-101092314D01*
X78443134Y-101217813D01*
X78295564Y-101316416D01*
X78131592Y-101384336D01*
X77982292Y-101414033D01*
X77957522Y-101418960D01*
X77780038Y-101418960D01*
X77755268Y-101414033D01*
X77605968Y-101384336D01*
X77441996Y-101316416D01*
X77294426Y-101217813D01*
X77168927Y-101092314D01*
X77070324Y-100944744D01*
X77002404Y-100780772D01*
X76967780Y-100606701D01*
X76967780Y-100429219D01*
X77002404Y-100255148D01*
X77070324Y-100091176D01*
X77168927Y-99943606D01*
X77294426Y-99818107D01*
X77441996Y-99719504D01*
X77605968Y-99651584D01*
X77755268Y-99621887D01*
X77780038Y-99616960D01*
X77957522Y-99616960D01*
X77982292Y-99621887D01*
G37*
M02*
