G04 #@! TF.GenerationSoftware,KiCad,Pcbnew,5.1.7-a382d34a8~88~ubuntu18.04.1*
G04 #@! TF.CreationDate,2020-12-27T20:30:07+01:00*
G04 #@! TF.ProjectId,res_hat,7265735f-6861-4742-9e6b-696361645f70,V3*
G04 #@! TF.SameCoordinates,Original*
G04 #@! TF.FileFunction,Copper,L1,Top*
G04 #@! TF.FilePolarity,Positive*
%FSLAX46Y46*%
G04 Gerber Fmt 4.6, Leading zero omitted, Abs format (unit mm)*
G04 Created by KiCad (PCBNEW 5.1.7-a382d34a8~88~ubuntu18.04.1) date 2020-12-27 20:30:07*
%MOMM*%
%LPD*%
G01*
G04 APERTURE LIST*
G04 #@! TA.AperFunction,ComponentPad*
%ADD10O,2.200000X1.740000*%
G04 #@! TD*
G04 #@! TA.AperFunction,ComponentPad*
%ADD11O,1.700000X1.700000*%
G04 #@! TD*
G04 #@! TA.AperFunction,ComponentPad*
%ADD12R,1.700000X1.700000*%
G04 #@! TD*
G04 #@! TA.AperFunction,ComponentPad*
%ADD13R,3.500000X3.500000*%
G04 #@! TD*
G04 #@! TA.AperFunction,ComponentPad*
%ADD14C,3.354000*%
G04 #@! TD*
G04 #@! TA.AperFunction,ComponentPad*
%ADD15C,3.759000*%
G04 #@! TD*
G04 #@! TA.AperFunction,ComponentPad*
%ADD16C,3.300000*%
G04 #@! TD*
G04 #@! TA.AperFunction,ComponentPad*
%ADD17C,1.400000*%
G04 #@! TD*
G04 #@! TA.AperFunction,ViaPad*
%ADD18C,1.000000*%
G04 #@! TD*
G04 #@! TA.AperFunction,ViaPad*
%ADD19C,0.800000*%
G04 #@! TD*
G04 #@! TA.AperFunction,Conductor*
%ADD20C,2.000000*%
G04 #@! TD*
G04 #@! TA.AperFunction,Conductor*
%ADD21C,1.200000*%
G04 #@! TD*
G04 #@! TA.AperFunction,Conductor*
%ADD22C,0.400000*%
G04 #@! TD*
G04 #@! TA.AperFunction,Conductor*
%ADD23C,1.000000*%
G04 #@! TD*
G04 #@! TA.AperFunction,Conductor*
%ADD24C,0.250000*%
G04 #@! TD*
G04 #@! TA.AperFunction,Conductor*
%ADD25C,0.254000*%
G04 #@! TD*
G04 #@! TA.AperFunction,Conductor*
%ADD26C,0.100000*%
G04 #@! TD*
G04 APERTURE END LIST*
D10*
X97457260Y-106916220D03*
X97457260Y-109456220D03*
G04 #@! TA.AperFunction,ComponentPad*
G36*
G01*
X98307261Y-112866220D02*
X96607259Y-112866220D01*
G75*
G02*
X96357260Y-112616221I0J249999D01*
G01*
X96357260Y-111376219D01*
G75*
G02*
X96607259Y-111126220I249999J0D01*
G01*
X98307261Y-111126220D01*
G75*
G02*
X98557260Y-111376219I0J-249999D01*
G01*
X98557260Y-112616221D01*
G75*
G02*
X98307261Y-112866220I-249999J0D01*
G01*
G37*
G04 #@! TD.AperFunction*
D11*
X106199940Y-113129060D03*
X106199940Y-110589060D03*
D12*
X106199940Y-108049060D03*
D11*
X101485700Y-116890800D03*
X98945700Y-116890800D03*
X96405700Y-116890800D03*
D12*
X93865700Y-116890800D03*
X108739940Y-110586520D03*
X88755220Y-118003320D03*
X103662480Y-110583980D03*
X83675220Y-118003320D03*
D11*
X86215220Y-115465860D03*
X86215220Y-118005860D03*
D12*
X86215220Y-120545860D03*
D11*
X65278000Y-130810000D03*
D12*
X65278000Y-128270000D03*
G04 #@! TA.AperFunction,ComponentPad*
G36*
G01*
X67411400Y-144563800D02*
X67411400Y-142813800D01*
G75*
G02*
X68286400Y-141938800I875000J0D01*
G01*
X70036400Y-141938800D01*
G75*
G02*
X70911400Y-142813800I0J-875000D01*
G01*
X70911400Y-144563800D01*
G75*
G02*
X70036400Y-145438800I-875000J0D01*
G01*
X68286400Y-145438800D01*
G75*
G02*
X67411400Y-144563800I0J875000D01*
G01*
G37*
G04 #@! TD.AperFunction*
G04 #@! TA.AperFunction,ComponentPad*
G36*
G01*
X64661400Y-139988800D02*
X64661400Y-137988800D01*
G75*
G02*
X65411400Y-137238800I750000J0D01*
G01*
X66911400Y-137238800D01*
G75*
G02*
X67661400Y-137988800I0J-750000D01*
G01*
X67661400Y-139988800D01*
G75*
G02*
X66911400Y-140738800I-750000J0D01*
G01*
X65411400Y-140738800D01*
G75*
G02*
X64661400Y-139988800I0J750000D01*
G01*
G37*
G04 #@! TD.AperFunction*
D13*
X72161400Y-138988800D03*
D10*
X83126580Y-106916220D03*
X83126580Y-109456220D03*
G04 #@! TA.AperFunction,ComponentPad*
G36*
G01*
X83976581Y-112866220D02*
X82276579Y-112866220D01*
G75*
G02*
X82026580Y-112616221I0J249999D01*
G01*
X82026580Y-111376219D01*
G75*
G02*
X82276579Y-111126220I249999J0D01*
G01*
X83976581Y-111126220D01*
G75*
G02*
X84226580Y-111376219I0J-249999D01*
G01*
X84226580Y-112616221D01*
G75*
G02*
X83976581Y-112866220I-249999J0D01*
G01*
G37*
G04 #@! TD.AperFunction*
X90307160Y-106916220D03*
X90307160Y-109456220D03*
G04 #@! TA.AperFunction,ComponentPad*
G36*
G01*
X91157161Y-112866220D02*
X89457159Y-112866220D01*
G75*
G02*
X89207160Y-112616221I0J249999D01*
G01*
X89207160Y-111376219D01*
G75*
G02*
X89457159Y-111126220I249999J0D01*
G01*
X91157161Y-111126220D01*
G75*
G02*
X91407160Y-111376219I0J-249999D01*
G01*
X91407160Y-112616221D01*
G75*
G02*
X91157161Y-112866220I-249999J0D01*
G01*
G37*
G04 #@! TD.AperFunction*
D14*
X134638660Y-127525780D03*
D15*
X139138660Y-127525780D03*
D14*
X134638660Y-112209580D03*
D15*
X139138660Y-112209580D03*
D11*
X118508780Y-100517960D03*
X118508780Y-103057960D03*
X115968780Y-100517960D03*
X115968780Y-103057960D03*
X113428780Y-100517960D03*
X113428780Y-103057960D03*
X110888780Y-100517960D03*
X110888780Y-103057960D03*
X108348780Y-100517960D03*
X108348780Y-103057960D03*
X105808780Y-100517960D03*
X105808780Y-103057960D03*
X103268780Y-100517960D03*
X103268780Y-103057960D03*
X100728780Y-100517960D03*
X100728780Y-103057960D03*
X98188780Y-100517960D03*
X98188780Y-103057960D03*
X95648780Y-100517960D03*
X95648780Y-103057960D03*
X93108780Y-100517960D03*
X93108780Y-103057960D03*
X90568780Y-100517960D03*
X90568780Y-103057960D03*
X88028780Y-100517960D03*
X88028780Y-103057960D03*
X85488780Y-100517960D03*
X85488780Y-103057960D03*
X82948780Y-100517960D03*
X82948780Y-103057960D03*
X80408780Y-100517960D03*
X80408780Y-103057960D03*
X77868780Y-100517960D03*
X77868780Y-103057960D03*
X75328780Y-100517960D03*
X75328780Y-103057960D03*
X72788780Y-100517960D03*
X72788780Y-103057960D03*
X70248780Y-100517960D03*
D12*
X70248780Y-103057960D03*
D11*
X65278000Y-122682000D03*
X65278000Y-120142000D03*
X65278000Y-117602000D03*
X65278000Y-115062000D03*
X65278000Y-112522000D03*
D12*
X65278000Y-109982000D03*
D11*
X117602000Y-150622000D03*
X115062000Y-150622000D03*
D12*
X112522000Y-150622000D03*
D11*
X79639160Y-152034240D03*
X79639160Y-149494240D03*
X77099160Y-152034240D03*
X77099160Y-149494240D03*
X74559160Y-152034240D03*
X74559160Y-149494240D03*
X72019160Y-152034240D03*
D12*
X72019160Y-149494240D03*
D16*
X139160900Y-150245100D03*
X139160900Y-137105100D03*
X133480900Y-137105100D03*
X133480900Y-150245100D03*
D17*
X136450900Y-140175100D03*
X136450900Y-142675100D03*
X136450900Y-144675100D03*
X136450900Y-147175100D03*
X133830900Y-140175100D03*
X133830900Y-142675100D03*
X133830900Y-144675100D03*
X133830900Y-147175100D03*
D18*
X142308220Y-133282920D03*
X142365841Y-134595299D03*
X142308220Y-136012920D03*
X142368220Y-137442920D03*
X134635240Y-121325900D03*
X134635240Y-120085900D03*
X134635240Y-118955900D03*
X134635240Y-117845900D03*
X126788220Y-120162920D03*
X126788220Y-118902920D03*
X126788220Y-117832920D03*
X126788220Y-116531660D03*
X119461680Y-146336380D03*
X120934760Y-146336380D03*
X122264760Y-146336380D03*
X123834760Y-146336380D03*
D19*
X103807500Y-140208000D03*
X91188540Y-117571520D03*
X101485700Y-122153200D03*
X95250000Y-124439680D03*
X95711619Y-139413881D03*
X92820219Y-127399779D03*
X89994500Y-122674620D03*
X89821478Y-135978900D03*
D18*
X114147139Y-125514001D03*
X115367139Y-125514001D03*
X116647139Y-125514001D03*
X117907139Y-125514001D03*
X115168220Y-137109101D03*
X116632039Y-137109101D03*
X118132039Y-137109101D03*
X119612039Y-137109101D03*
D19*
X128718220Y-150672920D03*
X130578220Y-119522920D03*
X97388220Y-132782920D03*
X110368220Y-122772920D03*
X141918220Y-143362920D03*
X116438220Y-152702920D03*
X139068220Y-132112920D03*
X93726000Y-134366000D03*
X93741240Y-122547380D03*
X94947740Y-114711480D03*
X116078000Y-139700000D03*
X74422000Y-109474000D03*
X110891320Y-115135660D03*
X115770660Y-110484920D03*
X84790280Y-132816600D03*
X76784200Y-131147820D03*
X89329140Y-140462000D03*
X75438000Y-116586000D03*
X116078000Y-143002000D03*
X78206600Y-143027400D03*
X121158000Y-114808000D03*
X115867180Y-112438180D03*
X85882480Y-125016260D03*
X80248760Y-127497840D03*
X77127100Y-127497840D03*
X80721200Y-138666220D03*
X86113620Y-133906260D03*
X81848220Y-143642920D03*
X103098600Y-132267960D03*
X102397560Y-128661160D03*
X106629200Y-127480060D03*
X106601260Y-133637020D03*
X109608220Y-118272920D03*
X121609740Y-117462920D03*
X110568220Y-129342920D03*
X122528220Y-132322920D03*
X95653860Y-105229660D03*
X83535520Y-114400190D03*
X81827310Y-114529930D03*
X109608620Y-116227860D03*
X93703140Y-113809780D03*
X95250000Y-129794000D03*
X91948000Y-130048000D03*
X95250000Y-135890000D03*
X98112580Y-126217680D03*
X89318220Y-139342920D03*
D20*
X134635240Y-114584636D02*
X134635240Y-117845900D01*
X134638660Y-114581216D02*
X134635240Y-114584636D01*
X134638660Y-112209580D02*
X134638660Y-114581216D01*
X134635240Y-121518680D02*
X137689222Y-121518680D01*
X142365841Y-135925299D02*
X142388220Y-135947678D01*
X142365841Y-126195299D02*
X142365841Y-134595299D01*
X137689222Y-121518680D02*
X142365841Y-126195299D01*
X142388220Y-135947678D02*
X142388220Y-137852920D01*
X142365841Y-134595299D02*
X142365841Y-135925299D01*
X142388220Y-137852920D02*
X142388220Y-138072920D01*
X134635240Y-121325900D02*
X134635240Y-121518680D01*
X134635240Y-120085900D02*
X134635240Y-121325900D01*
X134635240Y-118955900D02*
X134635240Y-120085900D01*
X134635240Y-117845900D02*
X134635240Y-118955900D01*
D21*
X123756420Y-146126200D02*
X123756420Y-146126200D01*
D20*
X123190735Y-146126200D02*
X123756420Y-146126200D01*
X115551999Y-149637999D02*
X119063798Y-146126200D01*
X119063798Y-146126200D02*
X123190735Y-146126200D01*
X115551999Y-150159141D02*
X115551999Y-149637999D01*
X115089140Y-150622000D02*
X115551999Y-150159141D01*
X115062000Y-150622000D02*
X115089140Y-150622000D01*
X126746000Y-145810700D02*
X126746000Y-139192000D01*
X126748220Y-145812920D02*
X126746000Y-145810700D01*
X123756420Y-146126200D02*
X126434940Y-146126200D01*
X126746000Y-139192000D02*
X126788220Y-116531660D01*
X126434940Y-146126200D02*
X126748220Y-145812920D01*
D22*
X65278000Y-138105400D02*
X66161400Y-138988800D01*
X65278000Y-130810000D02*
X65278000Y-138105400D01*
D21*
X77099160Y-152034240D02*
X79639160Y-149494240D01*
X74559160Y-149494240D02*
X77099160Y-152034240D01*
X72019160Y-152034240D02*
X70817079Y-152034240D01*
X66161400Y-145952960D02*
X67729100Y-147520660D01*
X66161400Y-138988800D02*
X66161400Y-145952960D01*
X68947699Y-147662299D02*
X68010439Y-147662299D01*
D23*
X67833240Y-147485100D02*
X67729100Y-147520660D01*
D21*
X73929300Y-147662299D02*
X74559160Y-148292159D01*
X68947699Y-147662299D02*
X73929300Y-147662299D01*
D22*
X101485700Y-118092881D02*
X101485700Y-122153200D01*
X101485700Y-116890800D02*
X101485700Y-118092881D01*
D21*
X90747999Y-129471999D02*
X92820219Y-127399779D01*
X93730538Y-125959142D02*
X95250000Y-124439680D01*
X93730538Y-126489460D02*
X93730538Y-125959142D01*
X92820219Y-127399779D02*
X93730538Y-126489460D01*
D22*
X91188540Y-121480580D02*
X89994500Y-122674620D01*
X91188540Y-117571520D02*
X91188540Y-121480580D01*
D21*
X89821478Y-135978900D02*
X89821478Y-135978900D01*
D22*
X103013381Y-139413881D02*
X103807500Y-140208000D01*
X95711619Y-139413881D02*
X103013381Y-139413881D01*
D20*
X74559160Y-148292159D02*
X74559160Y-149494240D01*
X66161400Y-145373308D02*
X68232331Y-147444239D01*
X73711240Y-147444239D02*
X74559160Y-148292159D01*
X66161400Y-138988800D02*
X66161400Y-145373308D01*
X69758220Y-151093302D02*
X69758220Y-147522920D01*
X70699158Y-152034240D02*
X69758220Y-151093302D01*
X72019160Y-152034240D02*
X70699158Y-152034240D01*
X68232331Y-147444239D02*
X69758220Y-147522920D01*
X89821478Y-135978900D02*
X89821478Y-132119662D01*
X89821478Y-132119662D02*
X89828220Y-132112920D01*
X90347999Y-129341681D02*
X95250000Y-124439680D01*
X95250000Y-123406622D02*
X95341241Y-123315381D01*
X95250000Y-124439680D02*
X95250000Y-123406622D01*
X95341241Y-123315381D02*
X95341241Y-122312920D01*
X95341241Y-122312920D02*
X95341241Y-122312920D01*
X95341241Y-123315381D02*
X95341241Y-123315381D01*
X95341241Y-122312920D02*
X107319580Y-122312920D01*
X79639160Y-148292159D02*
X79908220Y-148023099D01*
X79639160Y-149494240D02*
X79639160Y-148292159D01*
X79908220Y-148023099D02*
X79908220Y-141752920D01*
X79908220Y-141752920D02*
X82685887Y-141752920D01*
X89821478Y-129868202D02*
X95250000Y-124439680D01*
X89821478Y-135978900D02*
X89821478Y-129868202D01*
X85409149Y-140391229D02*
X89421479Y-136378899D01*
X83359911Y-140391229D02*
X85409149Y-140391229D01*
X82685887Y-141065253D02*
X83359911Y-140391229D01*
X89421479Y-136378899D02*
X89821478Y-135978900D01*
X82685887Y-141752920D02*
X82685887Y-141065253D01*
X109618220Y-124611560D02*
X107319580Y-122312920D01*
X110520661Y-125514001D02*
X109618220Y-124611560D01*
X117907139Y-125514001D02*
X110520661Y-125514001D01*
X115168220Y-137109101D02*
X119612039Y-137109101D01*
X117907139Y-125514001D02*
X123070839Y-125514001D01*
X123070839Y-125514001D02*
X124568679Y-127011842D01*
X124568679Y-127011842D02*
X124551282Y-136349858D01*
X123792039Y-137109101D02*
X119612039Y-137109101D01*
X124551282Y-136349858D02*
X123792039Y-137109101D01*
D22*
X94037720Y-116718780D02*
X93865700Y-116890800D01*
X93726000Y-117030500D02*
X93865700Y-116890800D01*
X93741240Y-122547380D02*
X93726000Y-117030500D01*
D24*
X97282000Y-109982000D02*
X97515680Y-110176320D01*
D22*
X95957260Y-109456220D02*
X97457260Y-109456220D01*
X94947740Y-110465740D02*
X95957260Y-109456220D01*
X94947740Y-114711480D02*
X94947740Y-110465740D01*
D24*
X75328780Y-109364780D02*
X75328780Y-103057960D01*
X75219560Y-109474000D02*
X75328780Y-109364780D01*
X74422000Y-109474000D02*
X75219560Y-109474000D01*
X115092480Y-140685520D02*
X116078000Y-139700000D01*
X114554000Y-110490000D02*
X110891320Y-115135660D01*
X115770660Y-110484920D02*
X114554000Y-110490000D01*
X83121500Y-131147820D02*
X84790280Y-132816600D01*
X76784200Y-131147820D02*
X83121500Y-131147820D01*
X114844999Y-140933001D02*
X115678001Y-140099999D01*
X89894825Y-140462000D02*
X90365826Y-140933001D01*
X115678001Y-140099999D02*
X116078000Y-139700000D01*
X90365826Y-140933001D02*
X114844999Y-140933001D01*
X89329140Y-140462000D02*
X89894825Y-140462000D01*
X73406000Y-103675180D02*
X72788780Y-103057960D01*
X73406000Y-116586000D02*
X73406000Y-103675180D01*
X72390000Y-117602000D02*
X65278000Y-117602000D01*
X73406000Y-116586000D02*
X72390000Y-117602000D01*
X73406000Y-116586000D02*
X75438000Y-116586000D01*
X90126820Y-142958820D02*
X84617560Y-142958820D01*
X90170000Y-143002000D02*
X90126820Y-142958820D01*
X116078000Y-143002000D02*
X90170000Y-143002000D01*
X118618000Y-114808000D02*
X121158000Y-114808000D01*
X115867180Y-112438180D02*
X118618000Y-114808000D01*
X82730340Y-125016260D02*
X80248760Y-127497840D01*
X85882480Y-125016260D02*
X82730340Y-125016260D01*
X76812140Y-127497840D02*
X77127100Y-127497840D01*
X74588001Y-129721979D02*
X76812140Y-127497840D01*
X74588001Y-136875003D02*
X74588001Y-129721979D01*
X78232000Y-143052800D02*
X78232000Y-140519002D01*
X78232000Y-140519002D02*
X74588001Y-136875003D01*
X77127100Y-127497840D02*
X80248760Y-127497840D01*
X81121199Y-139066219D02*
X83498741Y-139066219D01*
X80721200Y-138666220D02*
X81121199Y-139066219D01*
X86113620Y-136451340D02*
X86113620Y-133906260D01*
X83498741Y-139066219D02*
X86113620Y-136451340D01*
X78868418Y-140519002D02*
X80721200Y-138666220D01*
X78232000Y-140519002D02*
X78868418Y-140519002D01*
X82413905Y-143642920D02*
X81848220Y-143642920D01*
X84051875Y-142958820D02*
X83367775Y-143642920D01*
X83367775Y-143642920D02*
X82413905Y-143642920D01*
X84617560Y-142958820D02*
X84051875Y-142958820D01*
X102397560Y-131566920D02*
X103098600Y-132267960D01*
X102397560Y-128661160D02*
X102397560Y-131566920D01*
X106629200Y-133609080D02*
X106601260Y-133637020D01*
X106629200Y-127480060D02*
X106629200Y-133609080D01*
D22*
X110418220Y-117462920D02*
X109608220Y-118272920D01*
X121609740Y-117462920D02*
X110418220Y-117462920D01*
D24*
X113008220Y-128962920D02*
X113008220Y-128962920D01*
X117838219Y-129422919D02*
X120738220Y-132322920D01*
X120738220Y-132322920D02*
X122528220Y-132322920D01*
X122528220Y-132322920D02*
X122528220Y-132322920D01*
X117378220Y-128962920D02*
X120738220Y-132322920D01*
X111513905Y-128962920D02*
X117378220Y-128962920D01*
X110568220Y-129342920D02*
X111133905Y-129342920D01*
X111133905Y-129342920D02*
X111513905Y-128962920D01*
D21*
X77099160Y-148292159D02*
X77099160Y-149494240D01*
X77099160Y-146876560D02*
X77099160Y-148292159D01*
D20*
X72161400Y-141938800D02*
X77099160Y-146876560D01*
X72161400Y-138988800D02*
X72161400Y-141938800D01*
X77099160Y-146876560D02*
X77099160Y-149488642D01*
D24*
X96107260Y-106916220D02*
X90307160Y-106916220D01*
X97457260Y-106916220D02*
X96107260Y-106916220D01*
X88957160Y-106916220D02*
X83126580Y-106916220D01*
X90307160Y-106916220D02*
X88957160Y-106916220D01*
D22*
X70248780Y-100517960D02*
X72788780Y-100517960D01*
D20*
X132961661Y-129202779D02*
X134638660Y-127525780D01*
X130630899Y-131533541D02*
X132961661Y-129202779D01*
X130630899Y-138445599D02*
X130630899Y-131533541D01*
X132360400Y-140175100D02*
X130630899Y-138445599D01*
X133830900Y-140175100D02*
X132360400Y-140175100D01*
X133480900Y-137105100D02*
X139160900Y-137105100D01*
X139160900Y-137105100D02*
X139160900Y-150245100D01*
X139160900Y-150245100D02*
X133480900Y-150245100D01*
D22*
X76618779Y-101807959D02*
X75328780Y-100517960D01*
X76618779Y-123787221D02*
X76618779Y-101807959D01*
X65278000Y-128270000D02*
X72136000Y-128270000D01*
X72136000Y-128270000D02*
X76618779Y-123787221D01*
D24*
X107532170Y-115253770D02*
X100582730Y-115253770D01*
X107533440Y-115252500D02*
X107532170Y-115253770D01*
X100582730Y-115253770D02*
X98945700Y-116890800D01*
X107533440Y-111922560D02*
X107533440Y-115252500D01*
X106199940Y-110589060D02*
X107533440Y-111922560D01*
X103662480Y-109197140D02*
X103662480Y-110583980D01*
X83535520Y-114400190D02*
X83535520Y-114400190D01*
X87233055Y-110702655D02*
X83535520Y-114400190D01*
X95653860Y-105229660D02*
X102440740Y-105229660D01*
X103662480Y-106451400D02*
X103662480Y-110583980D01*
X102440740Y-105229660D02*
X103662480Y-106451400D01*
X102439710Y-108261210D02*
X103662480Y-109483980D01*
X87511830Y-108261210D02*
X102439710Y-108261210D01*
X87233055Y-108539985D02*
X87511830Y-108261210D01*
X103662480Y-109483980D02*
X103662480Y-110583980D01*
X87233055Y-110702655D02*
X87233055Y-108539985D01*
X108739940Y-110586520D02*
X107567479Y-109414059D01*
X107567479Y-109414059D02*
X105279937Y-109414059D01*
X93108780Y-103057960D02*
X91875441Y-104291299D01*
X91875441Y-104291299D02*
X86439841Y-104291299D01*
X81827310Y-114529930D02*
X81827310Y-114529930D01*
X81427311Y-114129931D02*
X80746711Y-114129931D01*
X81827310Y-114529930D02*
X81427311Y-114129931D01*
X80746711Y-114129931D02*
X80088740Y-113471960D01*
X80088740Y-113471960D02*
X80088740Y-106768900D01*
X81955640Y-104902000D02*
X85933280Y-104902000D01*
X80088740Y-106768900D02*
X81955640Y-104902000D01*
X86439841Y-104291299D02*
X85933280Y-104902000D01*
X94489270Y-104438450D02*
X102817930Y-104438450D01*
X94489270Y-104438450D02*
X93108780Y-103057960D01*
X104241600Y-105862120D02*
X104241600Y-108310680D01*
X102817930Y-104438450D02*
X104241600Y-105862120D01*
X105279937Y-109414059D02*
X104241600Y-108310680D01*
X110008619Y-109570197D02*
X108418902Y-107980480D01*
X109608620Y-116227860D02*
X110008619Y-115827861D01*
X110008619Y-115827861D02*
X110008619Y-109570197D01*
X106268520Y-107980480D02*
X106199940Y-108049060D01*
X108418902Y-107980480D02*
X106268520Y-107980480D01*
X79233779Y-101692961D02*
X80408780Y-100517960D01*
X79233779Y-103509061D02*
X79233779Y-101692961D01*
X77751940Y-104990900D02*
X79233779Y-103509061D01*
X77751940Y-116080540D02*
X77751940Y-104990900D01*
X82217260Y-120545860D02*
X77751940Y-116080540D01*
X86215220Y-120545860D02*
X82217260Y-120545860D01*
X81773779Y-99589339D02*
X81527399Y-99342959D01*
X81773779Y-104306621D02*
X81773779Y-99589339D01*
X86215220Y-115465860D02*
X80424020Y-115465860D01*
X81527399Y-99342959D02*
X79043781Y-99342959D01*
X80424020Y-115465860D02*
X79233779Y-114275619D01*
X79233779Y-114275619D02*
X79233779Y-106455461D01*
X79233779Y-106455461D02*
X81382619Y-104306621D01*
X79043781Y-99342959D02*
X77868780Y-100517960D01*
X81382619Y-104306621D02*
X81773779Y-104306621D01*
X87871300Y-113809780D02*
X86215220Y-115465860D01*
X87871300Y-113809780D02*
X93703140Y-113809780D01*
X93703140Y-113809780D02*
X93703140Y-113809780D01*
X94850001Y-130193999D02*
X92093999Y-130193999D01*
X95250000Y-129794000D02*
X94850001Y-130193999D01*
X92093999Y-130193999D02*
X91948000Y-130048000D01*
X91948000Y-130048000D02*
X91948000Y-130048000D01*
X98112580Y-126217680D02*
X98112580Y-128539240D01*
X95250000Y-131401820D02*
X95250000Y-135890000D01*
X98112580Y-128539240D02*
X95250000Y-131401820D01*
X95250000Y-135890000D02*
X91797080Y-139342920D01*
X91797080Y-139342920D02*
X89318220Y-139342920D01*
D25*
X78235188Y-99076750D02*
X78015040Y-99032960D01*
X77722520Y-99032960D01*
X77435622Y-99090028D01*
X77165369Y-99201970D01*
X76922148Y-99364485D01*
X76715305Y-99571328D01*
X76598780Y-99745720D01*
X76482255Y-99571328D01*
X76275412Y-99364485D01*
X76032191Y-99201970D01*
X75761938Y-99090028D01*
X75475040Y-99032960D01*
X75182520Y-99032960D01*
X74895622Y-99090028D01*
X74625369Y-99201970D01*
X74382148Y-99364485D01*
X74175305Y-99571328D01*
X74058780Y-99745720D01*
X73942255Y-99571328D01*
X73735412Y-99364485D01*
X73492191Y-99201970D01*
X73221938Y-99090028D01*
X72935040Y-99032960D01*
X72642520Y-99032960D01*
X72355622Y-99090028D01*
X72085369Y-99201970D01*
X71842148Y-99364485D01*
X71635305Y-99571328D01*
X71560715Y-99682960D01*
X71476845Y-99682960D01*
X71402255Y-99571328D01*
X71195412Y-99364485D01*
X70952191Y-99201970D01*
X70681938Y-99090028D01*
X70395040Y-99032960D01*
X70102520Y-99032960D01*
X69815622Y-99090028D01*
X69545369Y-99201970D01*
X69302148Y-99364485D01*
X69095305Y-99571328D01*
X68932790Y-99814549D01*
X68820848Y-100084802D01*
X68763780Y-100371700D01*
X68763780Y-100664220D01*
X68820848Y-100951118D01*
X68932790Y-101221371D01*
X69095305Y-101464592D01*
X69227160Y-101596447D01*
X69154600Y-101618458D01*
X69044286Y-101677423D01*
X68947595Y-101756775D01*
X68868243Y-101853466D01*
X68809278Y-101963780D01*
X68772968Y-102083478D01*
X68760708Y-102207960D01*
X68760708Y-103907960D01*
X68772968Y-104032442D01*
X68809278Y-104152140D01*
X68868243Y-104262454D01*
X68947595Y-104359145D01*
X69044286Y-104438497D01*
X69154600Y-104497462D01*
X69274298Y-104533772D01*
X69398780Y-104546032D01*
X71098780Y-104546032D01*
X71223262Y-104533772D01*
X71342960Y-104497462D01*
X71453274Y-104438497D01*
X71549965Y-104359145D01*
X71629317Y-104262454D01*
X71688282Y-104152140D01*
X71710293Y-104079580D01*
X71842148Y-104211435D01*
X72085369Y-104373950D01*
X72355622Y-104485892D01*
X72642520Y-104542960D01*
X72646001Y-104542960D01*
X72646000Y-116271198D01*
X72075199Y-116842000D01*
X66556178Y-116842000D01*
X66431475Y-116655368D01*
X66224632Y-116448525D01*
X66050240Y-116332000D01*
X66224632Y-116215475D01*
X66431475Y-116008632D01*
X66593990Y-115765411D01*
X66705932Y-115495158D01*
X66763000Y-115208260D01*
X66763000Y-114915740D01*
X66705932Y-114628842D01*
X66593990Y-114358589D01*
X66431475Y-114115368D01*
X66224632Y-113908525D01*
X66042466Y-113786805D01*
X66159355Y-113717178D01*
X66375588Y-113522269D01*
X66549641Y-113288920D01*
X66674825Y-113026099D01*
X66719476Y-112878890D01*
X66598155Y-112649000D01*
X65405000Y-112649000D01*
X65405000Y-112669000D01*
X65151000Y-112669000D01*
X65151000Y-112649000D01*
X63957845Y-112649000D01*
X63836524Y-112878890D01*
X63881175Y-113026099D01*
X64006359Y-113288920D01*
X64180412Y-113522269D01*
X64396645Y-113717178D01*
X64513534Y-113786805D01*
X64331368Y-113908525D01*
X64124525Y-114115368D01*
X63962010Y-114358589D01*
X63850068Y-114628842D01*
X63793000Y-114915740D01*
X63793000Y-115208260D01*
X63850068Y-115495158D01*
X63962010Y-115765411D01*
X64124525Y-116008632D01*
X64331368Y-116215475D01*
X64505760Y-116332000D01*
X64331368Y-116448525D01*
X64124525Y-116655368D01*
X63962010Y-116898589D01*
X63850068Y-117168842D01*
X63793000Y-117455740D01*
X63793000Y-117748260D01*
X63850068Y-118035158D01*
X63962010Y-118305411D01*
X64124525Y-118548632D01*
X64331368Y-118755475D01*
X64505760Y-118872000D01*
X64331368Y-118988525D01*
X64124525Y-119195368D01*
X63962010Y-119438589D01*
X63850068Y-119708842D01*
X63793000Y-119995740D01*
X63793000Y-120288260D01*
X63850068Y-120575158D01*
X63962010Y-120845411D01*
X64124525Y-121088632D01*
X64331368Y-121295475D01*
X64505760Y-121412000D01*
X64331368Y-121528525D01*
X64124525Y-121735368D01*
X63962010Y-121978589D01*
X63850068Y-122248842D01*
X63793000Y-122535740D01*
X63793000Y-122828260D01*
X63850068Y-123115158D01*
X63962010Y-123385411D01*
X64124525Y-123628632D01*
X64331368Y-123835475D01*
X64574589Y-123997990D01*
X64844842Y-124109932D01*
X65131740Y-124167000D01*
X65424260Y-124167000D01*
X65711158Y-124109932D01*
X65981411Y-123997990D01*
X66224632Y-123835475D01*
X66431475Y-123628632D01*
X66593990Y-123385411D01*
X66705932Y-123115158D01*
X66763000Y-122828260D01*
X66763000Y-122535740D01*
X66705932Y-122248842D01*
X66593990Y-121978589D01*
X66431475Y-121735368D01*
X66224632Y-121528525D01*
X66050240Y-121412000D01*
X66224632Y-121295475D01*
X66297755Y-121222352D01*
X70558860Y-121222352D01*
X70558860Y-121662608D01*
X70644750Y-122094405D01*
X70813229Y-122501149D01*
X71057822Y-122867209D01*
X71369131Y-123178518D01*
X71735191Y-123423111D01*
X72141935Y-123591590D01*
X72573732Y-123677480D01*
X73013988Y-123677480D01*
X73445785Y-123591590D01*
X73852529Y-123423111D01*
X74218589Y-123178518D01*
X74529898Y-122867209D01*
X74774491Y-122501149D01*
X74942970Y-122094405D01*
X75028860Y-121662608D01*
X75028860Y-121222352D01*
X74942970Y-120790555D01*
X74774491Y-120383811D01*
X74529898Y-120017751D01*
X74218589Y-119706442D01*
X73852529Y-119461849D01*
X73445785Y-119293370D01*
X73013988Y-119207480D01*
X72573732Y-119207480D01*
X72141935Y-119293370D01*
X71735191Y-119461849D01*
X71369131Y-119706442D01*
X71057822Y-120017751D01*
X70813229Y-120383811D01*
X70644750Y-120790555D01*
X70558860Y-121222352D01*
X66297755Y-121222352D01*
X66431475Y-121088632D01*
X66593990Y-120845411D01*
X66705932Y-120575158D01*
X66763000Y-120288260D01*
X66763000Y-119995740D01*
X66705932Y-119708842D01*
X66593990Y-119438589D01*
X66431475Y-119195368D01*
X66224632Y-118988525D01*
X66050240Y-118872000D01*
X66224632Y-118755475D01*
X66431475Y-118548632D01*
X66556178Y-118362000D01*
X72352678Y-118362000D01*
X72390000Y-118365676D01*
X72427322Y-118362000D01*
X72427333Y-118362000D01*
X72538986Y-118351003D01*
X72682247Y-118307546D01*
X72814276Y-118236974D01*
X72930001Y-118142001D01*
X72953804Y-118112998D01*
X73720802Y-117346000D01*
X74734289Y-117346000D01*
X74778226Y-117389937D01*
X74947744Y-117503205D01*
X75136102Y-117581226D01*
X75336061Y-117621000D01*
X75539939Y-117621000D01*
X75739898Y-117581226D01*
X75783779Y-117563050D01*
X75783779Y-123441352D01*
X71790133Y-127435000D01*
X66766072Y-127435000D01*
X66766072Y-127420000D01*
X66753812Y-127295518D01*
X66717502Y-127175820D01*
X66658537Y-127065506D01*
X66579185Y-126968815D01*
X66482494Y-126889463D01*
X66372180Y-126830498D01*
X66252482Y-126794188D01*
X66128000Y-126781928D01*
X64428000Y-126781928D01*
X64303518Y-126794188D01*
X64183820Y-126830498D01*
X64073506Y-126889463D01*
X63976815Y-126968815D01*
X63897463Y-127065506D01*
X63838498Y-127175820D01*
X63802188Y-127295518D01*
X63789928Y-127420000D01*
X63789928Y-129120000D01*
X63802188Y-129244482D01*
X63838498Y-129364180D01*
X63897463Y-129474494D01*
X63976815Y-129571185D01*
X64073506Y-129650537D01*
X64183820Y-129709502D01*
X64264466Y-129733966D01*
X64180412Y-129809731D01*
X64006359Y-130043080D01*
X63881175Y-130305901D01*
X63836524Y-130453110D01*
X63957845Y-130683000D01*
X65151000Y-130683000D01*
X65151000Y-130663000D01*
X65405000Y-130663000D01*
X65405000Y-130683000D01*
X66598155Y-130683000D01*
X66719476Y-130453110D01*
X66674825Y-130305901D01*
X66549641Y-130043080D01*
X66375588Y-129809731D01*
X66291534Y-129733966D01*
X66372180Y-129709502D01*
X66482494Y-129650537D01*
X66579185Y-129571185D01*
X66658537Y-129474494D01*
X66717502Y-129364180D01*
X66753812Y-129244482D01*
X66766072Y-129120000D01*
X66766072Y-129105000D01*
X72094982Y-129105000D01*
X72136000Y-129109040D01*
X72177018Y-129105000D01*
X72177019Y-129105000D01*
X72299689Y-129092918D01*
X72457087Y-129045172D01*
X72602146Y-128967636D01*
X72729291Y-128863291D01*
X72755446Y-128831421D01*
X77180212Y-124406657D01*
X77212070Y-124380512D01*
X77316415Y-124253367D01*
X77393951Y-124108308D01*
X77441697Y-123950910D01*
X77453779Y-123828240D01*
X77453779Y-123828239D01*
X77457819Y-123787221D01*
X77453779Y-123746203D01*
X77453779Y-116857180D01*
X81653461Y-121056863D01*
X81677259Y-121085861D01*
X81706257Y-121109659D01*
X81792983Y-121180834D01*
X81914110Y-121245578D01*
X81925013Y-121251406D01*
X82068274Y-121294863D01*
X82179927Y-121305860D01*
X82179936Y-121305860D01*
X82217259Y-121309536D01*
X82254582Y-121305860D01*
X84727148Y-121305860D01*
X84727148Y-121395860D01*
X84739408Y-121520342D01*
X84775718Y-121640040D01*
X84834683Y-121750354D01*
X84914035Y-121847045D01*
X85010726Y-121926397D01*
X85121040Y-121985362D01*
X85240738Y-122021672D01*
X85365220Y-122033932D01*
X87065220Y-122033932D01*
X87189702Y-122021672D01*
X87309400Y-121985362D01*
X87419714Y-121926397D01*
X87516405Y-121847045D01*
X87595757Y-121750354D01*
X87654722Y-121640040D01*
X87691032Y-121520342D01*
X87703292Y-121395860D01*
X87703292Y-119695860D01*
X87691032Y-119571378D01*
X87654722Y-119451680D01*
X87645566Y-119434551D01*
X87661040Y-119442822D01*
X87780738Y-119479132D01*
X87905220Y-119491392D01*
X89605220Y-119491392D01*
X89729702Y-119479132D01*
X89849400Y-119442822D01*
X89959714Y-119383857D01*
X90056405Y-119304505D01*
X90135757Y-119207814D01*
X90194722Y-119097500D01*
X90231032Y-118977802D01*
X90243292Y-118853320D01*
X90243292Y-117153320D01*
X90231032Y-117028838D01*
X90194722Y-116909140D01*
X90135757Y-116798826D01*
X90056405Y-116702135D01*
X89959714Y-116622783D01*
X89849400Y-116563818D01*
X89729702Y-116527508D01*
X89605220Y-116515248D01*
X87905220Y-116515248D01*
X87780738Y-116527508D01*
X87661040Y-116563818D01*
X87550726Y-116622783D01*
X87454035Y-116702135D01*
X87374683Y-116798826D01*
X87315718Y-116909140D01*
X87293116Y-116983649D01*
X87161852Y-116852385D01*
X86987460Y-116735860D01*
X87161852Y-116619335D01*
X87368695Y-116412492D01*
X87531210Y-116169271D01*
X87643152Y-115899018D01*
X87700220Y-115612120D01*
X87700220Y-115319600D01*
X87656430Y-115099452D01*
X88186102Y-114569780D01*
X92999429Y-114569780D01*
X93043366Y-114613717D01*
X93212884Y-114726985D01*
X93401242Y-114805006D01*
X93601201Y-114844780D01*
X93805079Y-114844780D01*
X93914643Y-114822987D01*
X93952514Y-115013378D01*
X94030535Y-115201736D01*
X94143803Y-115371254D01*
X94175277Y-115402728D01*
X93015700Y-115402728D01*
X92891218Y-115414988D01*
X92771520Y-115451298D01*
X92661206Y-115510263D01*
X92564515Y-115589615D01*
X92485163Y-115686306D01*
X92426198Y-115796620D01*
X92389888Y-115916318D01*
X92377628Y-116040800D01*
X92377628Y-117740800D01*
X92389888Y-117865282D01*
X92426198Y-117984980D01*
X92485163Y-118095294D01*
X92564515Y-118191985D01*
X92661206Y-118271337D01*
X92771520Y-118330302D01*
X92891218Y-118366612D01*
X92894689Y-118366954D01*
X92904550Y-121936624D01*
X92824035Y-122057124D01*
X92746014Y-122245482D01*
X92706240Y-122445441D01*
X92706240Y-122649319D01*
X92746014Y-122849278D01*
X92824035Y-123037636D01*
X92937303Y-123207154D01*
X93081466Y-123351317D01*
X93250984Y-123464585D01*
X93439342Y-123542606D01*
X93639301Y-123582380D01*
X93843179Y-123582380D01*
X94043138Y-123542606D01*
X94231496Y-123464585D01*
X94401014Y-123351317D01*
X94545177Y-123207154D01*
X94658445Y-123037636D01*
X94736466Y-122849278D01*
X94776240Y-122649319D01*
X94776240Y-122445441D01*
X94736466Y-122245482D01*
X94658445Y-122057124D01*
X94574542Y-121931554D01*
X94564728Y-118378872D01*
X94715700Y-118378872D01*
X94840182Y-118366612D01*
X94959880Y-118330302D01*
X95070194Y-118271337D01*
X95166885Y-118191985D01*
X95246237Y-118095294D01*
X95305202Y-117984980D01*
X95327213Y-117912420D01*
X95459068Y-118044275D01*
X95702289Y-118206790D01*
X95972542Y-118318732D01*
X96259440Y-118375800D01*
X96551960Y-118375800D01*
X96838858Y-118318732D01*
X97109111Y-118206790D01*
X97352332Y-118044275D01*
X97559175Y-117837432D01*
X97675700Y-117663040D01*
X97792225Y-117837432D01*
X97999068Y-118044275D01*
X98242289Y-118206790D01*
X98512542Y-118318732D01*
X98799440Y-118375800D01*
X99091960Y-118375800D01*
X99378858Y-118318732D01*
X99649111Y-118206790D01*
X99892332Y-118044275D01*
X100099175Y-117837432D01*
X100220895Y-117655266D01*
X100290522Y-117772155D01*
X100485431Y-117988388D01*
X100718780Y-118162441D01*
X100981601Y-118287625D01*
X101128810Y-118332276D01*
X101358700Y-118210955D01*
X101358700Y-117017800D01*
X101612700Y-117017800D01*
X101612700Y-118210955D01*
X101842590Y-118332276D01*
X101989799Y-118287625D01*
X102252620Y-118162441D01*
X102485969Y-117988388D01*
X102680878Y-117772155D01*
X102829857Y-117522052D01*
X102927181Y-117247691D01*
X102806514Y-117017800D01*
X101612700Y-117017800D01*
X101358700Y-117017800D01*
X101338700Y-117017800D01*
X101338700Y-116763800D01*
X101358700Y-116763800D01*
X101358700Y-116743800D01*
X101612700Y-116743800D01*
X101612700Y-116763800D01*
X102806514Y-116763800D01*
X102927181Y-116533909D01*
X102829857Y-116259548D01*
X102683454Y-116013770D01*
X107494848Y-116013770D01*
X107532170Y-116017446D01*
X107569492Y-116013770D01*
X107569503Y-116013770D01*
X107681156Y-116002773D01*
X107824417Y-115959316D01*
X107956446Y-115888744D01*
X108072171Y-115793771D01*
X108072743Y-115793073D01*
X108073441Y-115792501D01*
X108168414Y-115676776D01*
X108238986Y-115544747D01*
X108282443Y-115401486D01*
X108293440Y-115289833D01*
X108293440Y-115289823D01*
X108297116Y-115252501D01*
X108293440Y-115215178D01*
X108293440Y-112074592D01*
X109248620Y-112074592D01*
X109248619Y-115256701D01*
X109118364Y-115310655D01*
X108948846Y-115423923D01*
X108804683Y-115568086D01*
X108691415Y-115737604D01*
X108613394Y-115925962D01*
X108573620Y-116125921D01*
X108573620Y-116329799D01*
X108613394Y-116529758D01*
X108691415Y-116718116D01*
X108804683Y-116887634D01*
X108948846Y-117031797D01*
X109118364Y-117145065D01*
X109306722Y-117223086D01*
X109443790Y-117250350D01*
X109306322Y-117277694D01*
X109117964Y-117355715D01*
X108948446Y-117468983D01*
X108804283Y-117613146D01*
X108691015Y-117782664D01*
X108612994Y-117971022D01*
X108573220Y-118170981D01*
X108573220Y-118374859D01*
X108612994Y-118574818D01*
X108691015Y-118763176D01*
X108804283Y-118932694D01*
X108948446Y-119076857D01*
X109117964Y-119190125D01*
X109306322Y-119268146D01*
X109506281Y-119307920D01*
X109710159Y-119307920D01*
X109910118Y-119268146D01*
X110098476Y-119190125D01*
X110267994Y-119076857D01*
X110412157Y-118932694D01*
X110525425Y-118763176D01*
X110603446Y-118574818D01*
X110632313Y-118429695D01*
X110764088Y-118297920D01*
X120996455Y-118297920D01*
X121119484Y-118380125D01*
X121307842Y-118458146D01*
X121507801Y-118497920D01*
X121711679Y-118497920D01*
X121911638Y-118458146D01*
X122099996Y-118380125D01*
X122269514Y-118266857D01*
X122413677Y-118122694D01*
X122526945Y-117953176D01*
X122604966Y-117764818D01*
X122644740Y-117564859D01*
X122644740Y-117360981D01*
X122604966Y-117161022D01*
X122526945Y-116972664D01*
X122413677Y-116803146D01*
X122269514Y-116658983D01*
X122099996Y-116545715D01*
X121911638Y-116467694D01*
X121711679Y-116427920D01*
X121507801Y-116427920D01*
X121307842Y-116467694D01*
X121119484Y-116545715D01*
X120996455Y-116627920D01*
X110563186Y-116627920D01*
X110603846Y-116529758D01*
X110643620Y-116329799D01*
X110643620Y-116252086D01*
X110696969Y-116152278D01*
X110789381Y-116170660D01*
X110993259Y-116170660D01*
X111193218Y-116130886D01*
X111381576Y-116052865D01*
X111551094Y-115939597D01*
X111695257Y-115795434D01*
X111808525Y-115625916D01*
X111886546Y-115437558D01*
X111926320Y-115237599D01*
X111926320Y-115050419D01*
X114923818Y-111248462D01*
X115069881Y-111247852D01*
X115110886Y-111288857D01*
X115280404Y-111402125D01*
X115468762Y-111480146D01*
X115473309Y-111481051D01*
X115376924Y-111520975D01*
X115207406Y-111634243D01*
X115063243Y-111778406D01*
X114949975Y-111947924D01*
X114871954Y-112136282D01*
X114832180Y-112336241D01*
X114832180Y-112540119D01*
X114871954Y-112740078D01*
X114949975Y-112928436D01*
X115063243Y-113097954D01*
X115207406Y-113242117D01*
X115376924Y-113355385D01*
X115565282Y-113433406D01*
X115765241Y-113473180D01*
X115904169Y-113473180D01*
X118072188Y-115340921D01*
X118077999Y-115348001D01*
X118128822Y-115389710D01*
X118150239Y-115408161D01*
X118157688Y-115413400D01*
X118193724Y-115442974D01*
X118218778Y-115456366D01*
X118242008Y-115472704D01*
X118284628Y-115491564D01*
X118325753Y-115513546D01*
X118352940Y-115521793D01*
X118378910Y-115533285D01*
X118424396Y-115543469D01*
X118469014Y-115557003D01*
X118497288Y-115559788D01*
X118525000Y-115565992D01*
X118571592Y-115567106D01*
X118580667Y-115568000D01*
X118608969Y-115568000D01*
X118674664Y-115569571D01*
X118683684Y-115568000D01*
X120454289Y-115568000D01*
X120498226Y-115611937D01*
X120667744Y-115725205D01*
X120856102Y-115803226D01*
X121056061Y-115843000D01*
X121259939Y-115843000D01*
X121459898Y-115803226D01*
X121648256Y-115725205D01*
X121817774Y-115611937D01*
X121961937Y-115467774D01*
X122075205Y-115298256D01*
X122153226Y-115109898D01*
X122193000Y-114909939D01*
X122193000Y-114706061D01*
X122153226Y-114506102D01*
X122075205Y-114317744D01*
X121961937Y-114148226D01*
X121817774Y-114004063D01*
X121648256Y-113890795D01*
X121459898Y-113812774D01*
X121259939Y-113773000D01*
X121056061Y-113773000D01*
X120856102Y-113812774D01*
X120667744Y-113890795D01*
X120498226Y-114004063D01*
X120454289Y-114048000D01*
X118900224Y-114048000D01*
X116899888Y-112324719D01*
X116862406Y-112136282D01*
X116784385Y-111947924D01*
X116671117Y-111778406D01*
X116526954Y-111634243D01*
X116357436Y-111520975D01*
X116169078Y-111442954D01*
X116164531Y-111442049D01*
X116260916Y-111402125D01*
X116430434Y-111288857D01*
X116574597Y-111144694D01*
X116687865Y-110975176D01*
X116765886Y-110786818D01*
X116805660Y-110586859D01*
X116805660Y-110382981D01*
X116765886Y-110183022D01*
X116687865Y-109994664D01*
X116574597Y-109825146D01*
X116430434Y-109680983D01*
X116260916Y-109567715D01*
X116072558Y-109489694D01*
X115872599Y-109449920D01*
X115668721Y-109449920D01*
X115468762Y-109489694D01*
X115280404Y-109567715D01*
X115110886Y-109680983D01*
X115064005Y-109727864D01*
X114619764Y-109729719D01*
X114613951Y-109728681D01*
X114545044Y-109730031D01*
X114513495Y-109730163D01*
X114507642Y-109730764D01*
X114464273Y-109731614D01*
X114433373Y-109738392D01*
X114401888Y-109741626D01*
X114360411Y-109754397D01*
X114318043Y-109763691D01*
X114289058Y-109776367D01*
X114258810Y-109785681D01*
X114220638Y-109806290D01*
X114180880Y-109823678D01*
X114154908Y-109841778D01*
X114127077Y-109856804D01*
X114093666Y-109884458D01*
X114058057Y-109909274D01*
X114036118Y-109932090D01*
X114011750Y-109952259D01*
X113984375Y-109985901D01*
X113980293Y-109990146D01*
X113960742Y-110014944D01*
X113917261Y-110068379D01*
X113914500Y-110073596D01*
X110768619Y-114063762D01*
X110768619Y-109607519D01*
X110772295Y-109570196D01*
X110768619Y-109532873D01*
X110768619Y-109532864D01*
X110757622Y-109421211D01*
X110714165Y-109277950D01*
X110643593Y-109145921D01*
X110548620Y-109030196D01*
X110519622Y-109006398D01*
X108982706Y-107469483D01*
X108958903Y-107440479D01*
X108843178Y-107345506D01*
X108711149Y-107274934D01*
X108567888Y-107231477D01*
X108456235Y-107220480D01*
X108456224Y-107220480D01*
X108418902Y-107216804D01*
X108381580Y-107220480D01*
X107688012Y-107220480D01*
X107688012Y-107199060D01*
X107675752Y-107074578D01*
X107639442Y-106954880D01*
X107580477Y-106844566D01*
X107501125Y-106747875D01*
X107404434Y-106668523D01*
X107294120Y-106609558D01*
X107174422Y-106573248D01*
X107049940Y-106560988D01*
X105349940Y-106560988D01*
X105225458Y-106573248D01*
X105105760Y-106609558D01*
X105001600Y-106665234D01*
X105001600Y-105899442D01*
X105005276Y-105862119D01*
X105001600Y-105824796D01*
X105001600Y-105824787D01*
X104990603Y-105713134D01*
X104947146Y-105569873D01*
X104876574Y-105437844D01*
X104854724Y-105411220D01*
X104805399Y-105351116D01*
X104805395Y-105351112D01*
X104781601Y-105322119D01*
X104752609Y-105298326D01*
X103870396Y-104416115D01*
X103972191Y-104373950D01*
X104215412Y-104211435D01*
X104422255Y-104004592D01*
X104538780Y-103830200D01*
X104655305Y-104004592D01*
X104862148Y-104211435D01*
X105105369Y-104373950D01*
X105375622Y-104485892D01*
X105662520Y-104542960D01*
X105955040Y-104542960D01*
X106241938Y-104485892D01*
X106512191Y-104373950D01*
X106755412Y-104211435D01*
X106962255Y-104004592D01*
X107078780Y-103830200D01*
X107195305Y-104004592D01*
X107402148Y-104211435D01*
X107645369Y-104373950D01*
X107915622Y-104485892D01*
X108202520Y-104542960D01*
X108495040Y-104542960D01*
X108781938Y-104485892D01*
X109052191Y-104373950D01*
X109295412Y-104211435D01*
X109502255Y-104004592D01*
X109618780Y-103830200D01*
X109735305Y-104004592D01*
X109942148Y-104211435D01*
X110185369Y-104373950D01*
X110455622Y-104485892D01*
X110742520Y-104542960D01*
X111035040Y-104542960D01*
X111321938Y-104485892D01*
X111592191Y-104373950D01*
X111835412Y-104211435D01*
X112042255Y-104004592D01*
X112158780Y-103830200D01*
X112275305Y-104004592D01*
X112482148Y-104211435D01*
X112725369Y-104373950D01*
X112995622Y-104485892D01*
X113282520Y-104542960D01*
X113575040Y-104542960D01*
X113861938Y-104485892D01*
X114132191Y-104373950D01*
X114375412Y-104211435D01*
X114582255Y-104004592D01*
X114698780Y-103830200D01*
X114815305Y-104004592D01*
X115022148Y-104211435D01*
X115265369Y-104373950D01*
X115535622Y-104485892D01*
X115822520Y-104542960D01*
X116115040Y-104542960D01*
X116401938Y-104485892D01*
X116672191Y-104373950D01*
X116915412Y-104211435D01*
X117122255Y-104004592D01*
X117238780Y-103830200D01*
X117355305Y-104004592D01*
X117562148Y-104211435D01*
X117805369Y-104373950D01*
X118075622Y-104485892D01*
X118362520Y-104542960D01*
X118655040Y-104542960D01*
X118941938Y-104485892D01*
X119212191Y-104373950D01*
X119455412Y-104211435D01*
X119662255Y-104004592D01*
X119824770Y-103761371D01*
X119936712Y-103491118D01*
X119993780Y-103204220D01*
X119993780Y-102911700D01*
X119936712Y-102624802D01*
X119824770Y-102354549D01*
X119662255Y-102111328D01*
X119455412Y-101904485D01*
X119281020Y-101787960D01*
X119455412Y-101671435D01*
X119662255Y-101464592D01*
X119824770Y-101221371D01*
X119936712Y-100951118D01*
X119993780Y-100664220D01*
X119993780Y-100371700D01*
X119936712Y-100084802D01*
X119824770Y-99814549D01*
X119662255Y-99571328D01*
X119455412Y-99364485D01*
X119212191Y-99201970D01*
X118941938Y-99090028D01*
X118655040Y-99032960D01*
X118362520Y-99032960D01*
X118075622Y-99090028D01*
X117805369Y-99201970D01*
X117562148Y-99364485D01*
X117355305Y-99571328D01*
X117238780Y-99745720D01*
X117122255Y-99571328D01*
X116915412Y-99364485D01*
X116672191Y-99201970D01*
X116401938Y-99090028D01*
X116115040Y-99032960D01*
X115822520Y-99032960D01*
X115535622Y-99090028D01*
X115265369Y-99201970D01*
X115022148Y-99364485D01*
X114815305Y-99571328D01*
X114698780Y-99745720D01*
X114582255Y-99571328D01*
X114375412Y-99364485D01*
X114132191Y-99201970D01*
X113861938Y-99090028D01*
X113575040Y-99032960D01*
X113282520Y-99032960D01*
X112995622Y-99090028D01*
X112725369Y-99201970D01*
X112482148Y-99364485D01*
X112275305Y-99571328D01*
X112158780Y-99745720D01*
X112042255Y-99571328D01*
X111835412Y-99364485D01*
X111592191Y-99201970D01*
X111321938Y-99090028D01*
X111035040Y-99032960D01*
X110742520Y-99032960D01*
X110455622Y-99090028D01*
X110185369Y-99201970D01*
X109942148Y-99364485D01*
X109735305Y-99571328D01*
X109618780Y-99745720D01*
X109502255Y-99571328D01*
X109295412Y-99364485D01*
X109052191Y-99201970D01*
X108781938Y-99090028D01*
X108495040Y-99032960D01*
X108202520Y-99032960D01*
X107915622Y-99090028D01*
X107645369Y-99201970D01*
X107402148Y-99364485D01*
X107195305Y-99571328D01*
X107078780Y-99745720D01*
X106962255Y-99571328D01*
X106755412Y-99364485D01*
X106512191Y-99201970D01*
X106241938Y-99090028D01*
X105955040Y-99032960D01*
X105662520Y-99032960D01*
X105375622Y-99090028D01*
X105105369Y-99201970D01*
X104862148Y-99364485D01*
X104655305Y-99571328D01*
X104538780Y-99745720D01*
X104422255Y-99571328D01*
X104215412Y-99364485D01*
X103972191Y-99201970D01*
X103701938Y-99090028D01*
X103415040Y-99032960D01*
X103122520Y-99032960D01*
X102835622Y-99090028D01*
X102565369Y-99201970D01*
X102322148Y-99364485D01*
X102115305Y-99571328D01*
X101998780Y-99745720D01*
X101882255Y-99571328D01*
X101675412Y-99364485D01*
X101432191Y-99201970D01*
X101161938Y-99090028D01*
X100875040Y-99032960D01*
X100582520Y-99032960D01*
X100295622Y-99090028D01*
X100025369Y-99201970D01*
X99782148Y-99364485D01*
X99575305Y-99571328D01*
X99458780Y-99745720D01*
X99342255Y-99571328D01*
X99135412Y-99364485D01*
X98892191Y-99201970D01*
X98621938Y-99090028D01*
X98335040Y-99032960D01*
X98042520Y-99032960D01*
X97755622Y-99090028D01*
X97485369Y-99201970D01*
X97242148Y-99364485D01*
X97035305Y-99571328D01*
X96918780Y-99745720D01*
X96802255Y-99571328D01*
X96595412Y-99364485D01*
X96352191Y-99201970D01*
X96081938Y-99090028D01*
X95795040Y-99032960D01*
X95502520Y-99032960D01*
X95215622Y-99090028D01*
X94945369Y-99201970D01*
X94702148Y-99364485D01*
X94495305Y-99571328D01*
X94378780Y-99745720D01*
X94262255Y-99571328D01*
X94055412Y-99364485D01*
X93812191Y-99201970D01*
X93541938Y-99090028D01*
X93255040Y-99032960D01*
X92962520Y-99032960D01*
X92675622Y-99090028D01*
X92405369Y-99201970D01*
X92162148Y-99364485D01*
X91955305Y-99571328D01*
X91838780Y-99745720D01*
X91722255Y-99571328D01*
X91515412Y-99364485D01*
X91272191Y-99201970D01*
X91001938Y-99090028D01*
X90715040Y-99032960D01*
X90422520Y-99032960D01*
X90135622Y-99090028D01*
X89865369Y-99201970D01*
X89622148Y-99364485D01*
X89415305Y-99571328D01*
X89298780Y-99745720D01*
X89182255Y-99571328D01*
X88975412Y-99364485D01*
X88732191Y-99201970D01*
X88461938Y-99090028D01*
X88175040Y-99032960D01*
X87882520Y-99032960D01*
X87595622Y-99090028D01*
X87325369Y-99201970D01*
X87082148Y-99364485D01*
X86875305Y-99571328D01*
X86758780Y-99745720D01*
X86642255Y-99571328D01*
X86435412Y-99364485D01*
X86192191Y-99201970D01*
X85921938Y-99090028D01*
X85635040Y-99032960D01*
X85342520Y-99032960D01*
X85055622Y-99090028D01*
X84785369Y-99201970D01*
X84542148Y-99364485D01*
X84335305Y-99571328D01*
X84218780Y-99745720D01*
X84102255Y-99571328D01*
X83895412Y-99364485D01*
X83652191Y-99201970D01*
X83381938Y-99090028D01*
X83095040Y-99032960D01*
X82802520Y-99032960D01*
X82515622Y-99090028D01*
X82389908Y-99142100D01*
X82313780Y-99049338D01*
X82284776Y-99025535D01*
X82284241Y-99025000D01*
X121742623Y-99025000D01*
X121336107Y-99296625D01*
X120886625Y-99746107D01*
X120533470Y-100274642D01*
X120290212Y-100861919D01*
X120166200Y-101485368D01*
X120166200Y-102121032D01*
X120290212Y-102744481D01*
X120533470Y-103331758D01*
X120886625Y-103860293D01*
X121336107Y-104309775D01*
X121864642Y-104662930D01*
X122451919Y-104906188D01*
X123075368Y-105030200D01*
X123711032Y-105030200D01*
X124334481Y-104906188D01*
X124921758Y-104662930D01*
X125450293Y-104309775D01*
X125899775Y-103860293D01*
X126252930Y-103331758D01*
X126496188Y-102744481D01*
X126620200Y-102121032D01*
X126620200Y-101485368D01*
X126496188Y-100861919D01*
X126252930Y-100274642D01*
X125899775Y-99746107D01*
X125450293Y-99296625D01*
X125043777Y-99025000D01*
X143844055Y-99025000D01*
X144319255Y-99071593D01*
X144741781Y-99199161D01*
X145131481Y-99406368D01*
X145473511Y-99685320D01*
X145754848Y-100025398D01*
X145964770Y-100413639D01*
X146095285Y-100835268D01*
X146145001Y-101308272D01*
X146145000Y-151254046D01*
X146098406Y-151729256D01*
X145970837Y-152151782D01*
X145763631Y-152541480D01*
X145484676Y-152883514D01*
X145144604Y-153164847D01*
X144756356Y-153374772D01*
X144334736Y-153505284D01*
X143861737Y-153555000D01*
X125052799Y-153555000D01*
X125424893Y-153306375D01*
X125874375Y-152856893D01*
X126227530Y-152328358D01*
X126470788Y-151741081D01*
X126594800Y-151117632D01*
X126594800Y-150481968D01*
X126470788Y-149858519D01*
X126227530Y-149271242D01*
X125874375Y-148742707D01*
X125424893Y-148293225D01*
X124896358Y-147940070D01*
X124464527Y-147761200D01*
X126354621Y-147761200D01*
X126434940Y-147769111D01*
X126515259Y-147761200D01*
X126515262Y-147761200D01*
X126755456Y-147737543D01*
X127063655Y-147644052D01*
X127347692Y-147492231D01*
X127596654Y-147287914D01*
X127647865Y-147225513D01*
X127847542Y-147025836D01*
X127909933Y-146974633D01*
X128114250Y-146725672D01*
X128266072Y-146441635D01*
X128359563Y-146133436D01*
X128391132Y-145812920D01*
X128381000Y-145710051D01*
X128381000Y-139193249D01*
X128395271Y-131533541D01*
X128987988Y-131533541D01*
X128995900Y-131613870D01*
X128995899Y-138365279D01*
X128987988Y-138445599D01*
X128995899Y-138525918D01*
X128995899Y-138525920D01*
X129019556Y-138766114D01*
X129113047Y-139074313D01*
X129264868Y-139358350D01*
X129469185Y-139607313D01*
X129531585Y-139658524D01*
X131147479Y-141274418D01*
X131198686Y-141336814D01*
X131447648Y-141541131D01*
X131711201Y-141682003D01*
X131731685Y-141692952D01*
X132039883Y-141786443D01*
X132360400Y-141818011D01*
X132440722Y-141810100D01*
X132807925Y-141810100D01*
X132793938Y-141824087D01*
X132647839Y-142042741D01*
X132547204Y-142285695D01*
X132495900Y-142543614D01*
X132495900Y-142806586D01*
X132547204Y-143064505D01*
X132647839Y-143307459D01*
X132793938Y-143526113D01*
X132942925Y-143675100D01*
X132793938Y-143824087D01*
X132647839Y-144042741D01*
X132547204Y-144285695D01*
X132495900Y-144543614D01*
X132495900Y-144806586D01*
X132547204Y-145064505D01*
X132647839Y-145307459D01*
X132793938Y-145526113D01*
X132979887Y-145712062D01*
X133198541Y-145858161D01*
X133360146Y-145925100D01*
X133198541Y-145992039D01*
X132979887Y-146138138D01*
X132793938Y-146324087D01*
X132647839Y-146542741D01*
X132547204Y-146785695D01*
X132495900Y-147043614D01*
X132495900Y-147306586D01*
X132547204Y-147564505D01*
X132647839Y-147807459D01*
X132793938Y-148026113D01*
X132815513Y-148047688D01*
X132814390Y-148047911D01*
X132398547Y-148220159D01*
X132024297Y-148470225D01*
X131706025Y-148788497D01*
X131455959Y-149162747D01*
X131283711Y-149578590D01*
X131195900Y-150020047D01*
X131195900Y-150470153D01*
X131283711Y-150911610D01*
X131455959Y-151327453D01*
X131706025Y-151701703D01*
X132024297Y-152019975D01*
X132398547Y-152270041D01*
X132814390Y-152442289D01*
X133255847Y-152530100D01*
X133705953Y-152530100D01*
X134147410Y-152442289D01*
X134563253Y-152270041D01*
X134937503Y-152019975D01*
X135077378Y-151880100D01*
X137564422Y-151880100D01*
X137704297Y-152019975D01*
X138078547Y-152270041D01*
X138494390Y-152442289D01*
X138935847Y-152530100D01*
X139385953Y-152530100D01*
X139827410Y-152442289D01*
X140243253Y-152270041D01*
X140617503Y-152019975D01*
X140935775Y-151701703D01*
X141185841Y-151327453D01*
X141358089Y-150911610D01*
X141445900Y-150470153D01*
X141445900Y-150020047D01*
X141358089Y-149578590D01*
X141185841Y-149162747D01*
X140935775Y-148788497D01*
X140795900Y-148648622D01*
X140795900Y-138701578D01*
X140853023Y-138644455D01*
X140870368Y-138701635D01*
X141022189Y-138985672D01*
X141226506Y-139234634D01*
X141475469Y-139438951D01*
X141759506Y-139590772D01*
X142067705Y-139684263D01*
X142388220Y-139715831D01*
X142708736Y-139684263D01*
X143016935Y-139590772D01*
X143300972Y-139438951D01*
X143549934Y-139234634D01*
X143754251Y-138985672D01*
X143906072Y-138701634D01*
X143999563Y-138393435D01*
X144023220Y-138153241D01*
X144023220Y-136028000D01*
X144031131Y-135947678D01*
X144000841Y-135640138D01*
X144000841Y-126275618D01*
X144008752Y-126195298D01*
X144000841Y-126114977D01*
X143977184Y-125874783D01*
X143883693Y-125566584D01*
X143731872Y-125282547D01*
X143527555Y-125033585D01*
X143465161Y-124982380D01*
X138902147Y-120419367D01*
X138850936Y-120356966D01*
X138601974Y-120152649D01*
X138317937Y-120000828D01*
X138009738Y-119907337D01*
X137769544Y-119883680D01*
X137769541Y-119883680D01*
X137689222Y-119875769D01*
X137608903Y-119883680D01*
X136270240Y-119883680D01*
X136270240Y-114696262D01*
X136273660Y-114661538D01*
X136281571Y-114581216D01*
X136273660Y-114500894D01*
X136273660Y-113844242D01*
X136434508Y-113683394D01*
X136687528Y-113304723D01*
X136779067Y-113083727D01*
X136910339Y-113400643D01*
X137185520Y-113812481D01*
X137535759Y-114162720D01*
X137947597Y-114437901D01*
X138405207Y-114627450D01*
X138891003Y-114724080D01*
X139386317Y-114724080D01*
X139872113Y-114627450D01*
X140329723Y-114437901D01*
X140741561Y-114162720D01*
X141091800Y-113812481D01*
X141366981Y-113400643D01*
X141556530Y-112943033D01*
X141653160Y-112457237D01*
X141653160Y-111961923D01*
X141556530Y-111476127D01*
X141366981Y-111018517D01*
X141091800Y-110606679D01*
X140741561Y-110256440D01*
X140329723Y-109981259D01*
X139872113Y-109791710D01*
X139386317Y-109695080D01*
X138891003Y-109695080D01*
X138405207Y-109791710D01*
X137947597Y-109981259D01*
X137535759Y-110256440D01*
X137185520Y-110606679D01*
X136910339Y-111018517D01*
X136779067Y-111335433D01*
X136687528Y-111114437D01*
X136434508Y-110735766D01*
X136112474Y-110413732D01*
X135733803Y-110160712D01*
X135313046Y-109986429D01*
X134866372Y-109897580D01*
X134410948Y-109897580D01*
X133964274Y-109986429D01*
X133543517Y-110160712D01*
X133164846Y-110413732D01*
X132842812Y-110735766D01*
X132589792Y-111114437D01*
X132415509Y-111535194D01*
X132326660Y-111981868D01*
X132326660Y-112437292D01*
X132415509Y-112883966D01*
X132589792Y-113304723D01*
X132842812Y-113683394D01*
X133003661Y-113844243D01*
X133003661Y-114469582D01*
X133000240Y-114504314D01*
X132992329Y-114584636D01*
X133000240Y-114664956D01*
X133000241Y-117765569D01*
X133000240Y-117765579D01*
X133000240Y-121438358D01*
X132992329Y-121518680D01*
X133023897Y-121839196D01*
X133117388Y-122147395D01*
X133269209Y-122431432D01*
X133473526Y-122680394D01*
X133722488Y-122884711D01*
X134006525Y-123036532D01*
X134314724Y-123130023D01*
X134554918Y-123153680D01*
X134635240Y-123161591D01*
X134715562Y-123153680D01*
X137011984Y-123153680D01*
X138873137Y-125014834D01*
X138405207Y-125107910D01*
X137947597Y-125297459D01*
X137535759Y-125572640D01*
X137185520Y-125922879D01*
X136910339Y-126334717D01*
X136779067Y-126651633D01*
X136687528Y-126430637D01*
X136434508Y-126051966D01*
X136112474Y-125729932D01*
X135733803Y-125476912D01*
X135313046Y-125302629D01*
X134866372Y-125213780D01*
X134410948Y-125213780D01*
X133964274Y-125302629D01*
X133543517Y-125476912D01*
X133164846Y-125729932D01*
X132842812Y-126051966D01*
X132589792Y-126430637D01*
X132415509Y-126851394D01*
X132326660Y-127298068D01*
X132326660Y-127525541D01*
X131862342Y-127989860D01*
X131862337Y-127989864D01*
X129531581Y-130320621D01*
X129469186Y-130371827D01*
X129332602Y-130538256D01*
X129264869Y-130620789D01*
X129113047Y-130904827D01*
X129019557Y-131213025D01*
X128987988Y-131533541D01*
X128395271Y-131533541D01*
X128423366Y-116454385D01*
X128400157Y-116214148D01*
X128307240Y-115905775D01*
X128155949Y-115621456D01*
X127952096Y-115372113D01*
X127703515Y-115167333D01*
X127419761Y-115014983D01*
X127111737Y-114920918D01*
X126791281Y-114888753D01*
X126470707Y-114919723D01*
X126162335Y-115012640D01*
X125878015Y-115163932D01*
X125628673Y-115367784D01*
X125423892Y-115616365D01*
X125271543Y-115900119D01*
X125177477Y-116208143D01*
X125153373Y-116448293D01*
X125111150Y-139110161D01*
X125111001Y-139111678D01*
X125111001Y-139190383D01*
X125110854Y-139269275D01*
X125111001Y-139270796D01*
X125111000Y-144491200D01*
X119144120Y-144491200D01*
X119063798Y-144483289D01*
X118743281Y-144514857D01*
X118462586Y-144600005D01*
X118435083Y-144608348D01*
X118151046Y-144760169D01*
X117902084Y-144964486D01*
X117850878Y-145026881D01*
X114452685Y-148425075D01*
X114390285Y-148476285D01*
X114185968Y-148725247D01*
X114034147Y-149009284D01*
X113940656Y-149317483D01*
X113928904Y-149436800D01*
X113917745Y-149445958D01*
X113902537Y-149417506D01*
X113823185Y-149320815D01*
X113726494Y-149241463D01*
X113616180Y-149182498D01*
X113496482Y-149146188D01*
X113372000Y-149133928D01*
X111672000Y-149133928D01*
X111547518Y-149146188D01*
X111427820Y-149182498D01*
X111317506Y-149241463D01*
X111220815Y-149320815D01*
X111141463Y-149417506D01*
X111082498Y-149527820D01*
X111046188Y-149647518D01*
X111033928Y-149772000D01*
X111033928Y-151472000D01*
X111046188Y-151596482D01*
X111082498Y-151716180D01*
X111141463Y-151826494D01*
X111220815Y-151923185D01*
X111317506Y-152002537D01*
X111427820Y-152061502D01*
X111547518Y-152097812D01*
X111672000Y-152110072D01*
X113372000Y-152110072D01*
X113496482Y-152097812D01*
X113616180Y-152061502D01*
X113726494Y-152002537D01*
X113823185Y-151923185D01*
X113902537Y-151826494D01*
X113917745Y-151798042D01*
X114149248Y-151988031D01*
X114433285Y-152139852D01*
X114741484Y-152233343D01*
X114981678Y-152257000D01*
X115008821Y-152257000D01*
X115089140Y-152264911D01*
X115169459Y-152257000D01*
X115169462Y-152257000D01*
X115409656Y-152233343D01*
X115717855Y-152139852D01*
X116001892Y-151988031D01*
X116250854Y-151783714D01*
X116302065Y-151721313D01*
X116451636Y-151571743D01*
X116655368Y-151775475D01*
X116898589Y-151937990D01*
X117168842Y-152049932D01*
X117455740Y-152107000D01*
X117748260Y-152107000D01*
X118035158Y-152049932D01*
X118305411Y-151937990D01*
X118548632Y-151775475D01*
X118755475Y-151568632D01*
X118917990Y-151325411D01*
X119029932Y-151055158D01*
X119087000Y-150768260D01*
X119087000Y-150475740D01*
X119029932Y-150188842D01*
X118917990Y-149918589D01*
X118755475Y-149675368D01*
X118548632Y-149468525D01*
X118305411Y-149306010D01*
X118228206Y-149274031D01*
X119741037Y-147761200D01*
X122271073Y-147761200D01*
X121839242Y-147940070D01*
X121310707Y-148293225D01*
X120861225Y-148742707D01*
X120508070Y-149271242D01*
X120264812Y-149858519D01*
X120140800Y-150481968D01*
X120140800Y-151117632D01*
X120264812Y-151741081D01*
X120508070Y-152328358D01*
X120861225Y-152856893D01*
X121310707Y-153306375D01*
X121682801Y-153555000D01*
X67064599Y-153555000D01*
X67436693Y-153306375D01*
X67886175Y-152856893D01*
X68197386Y-152391131D01*
X70577679Y-152391131D01*
X70675003Y-152665492D01*
X70823982Y-152915595D01*
X71018891Y-153131828D01*
X71252240Y-153305881D01*
X71515061Y-153431065D01*
X71662270Y-153475716D01*
X71892160Y-153354395D01*
X71892160Y-152161240D01*
X70698346Y-152161240D01*
X70577679Y-152391131D01*
X68197386Y-152391131D01*
X68239330Y-152328358D01*
X68482588Y-151741081D01*
X68606600Y-151117632D01*
X68606600Y-150481968D01*
X68482588Y-149858519D01*
X68239330Y-149271242D01*
X67886175Y-148742707D01*
X67436693Y-148293225D01*
X66908158Y-147940070D01*
X66320881Y-147696812D01*
X65697432Y-147572800D01*
X65061768Y-147572800D01*
X64438319Y-147696812D01*
X63851042Y-147940070D01*
X63322507Y-148293225D01*
X62873025Y-148742707D01*
X62615000Y-149128870D01*
X62615000Y-142813800D01*
X66773328Y-142813800D01*
X66773328Y-144563800D01*
X66802401Y-144858986D01*
X66888504Y-145142828D01*
X67028327Y-145404418D01*
X67216497Y-145633703D01*
X67445782Y-145821873D01*
X67707372Y-145961696D01*
X67991214Y-146047799D01*
X68286400Y-146076872D01*
X70036400Y-146076872D01*
X70331586Y-146047799D01*
X70615428Y-145961696D01*
X70877018Y-145821873D01*
X71106303Y-145633703D01*
X71294473Y-145404418D01*
X71434296Y-145142828D01*
X71520399Y-144858986D01*
X71549472Y-144563800D01*
X71549472Y-143639110D01*
X75464160Y-147553799D01*
X75464161Y-148325592D01*
X75326080Y-148222599D01*
X75063259Y-148097415D01*
X74916050Y-148052764D01*
X74686160Y-148174085D01*
X74686160Y-149367240D01*
X74706160Y-149367240D01*
X74706160Y-149621240D01*
X74686160Y-149621240D01*
X74686160Y-149641240D01*
X74432160Y-149641240D01*
X74432160Y-149621240D01*
X74412160Y-149621240D01*
X74412160Y-149367240D01*
X74432160Y-149367240D01*
X74432160Y-148174085D01*
X74202270Y-148052764D01*
X74055061Y-148097415D01*
X73792240Y-148222599D01*
X73558891Y-148396652D01*
X73483126Y-148480706D01*
X73458662Y-148400060D01*
X73399697Y-148289746D01*
X73320345Y-148193055D01*
X73223654Y-148113703D01*
X73113340Y-148054738D01*
X72993642Y-148018428D01*
X72869160Y-148006168D01*
X71169160Y-148006168D01*
X71044678Y-148018428D01*
X70924980Y-148054738D01*
X70814666Y-148113703D01*
X70717975Y-148193055D01*
X70638623Y-148289746D01*
X70579658Y-148400060D01*
X70543348Y-148519758D01*
X70531088Y-148644240D01*
X70531088Y-150344240D01*
X70543348Y-150468722D01*
X70579658Y-150588420D01*
X70638623Y-150698734D01*
X70717975Y-150795425D01*
X70814666Y-150874777D01*
X70924980Y-150933742D01*
X71000786Y-150956738D01*
X70823982Y-151152885D01*
X70675003Y-151402988D01*
X70577679Y-151677349D01*
X70698346Y-151907240D01*
X71892160Y-151907240D01*
X71892160Y-151887240D01*
X72146160Y-151887240D01*
X72146160Y-151907240D01*
X72166160Y-151907240D01*
X72166160Y-152161240D01*
X72146160Y-152161240D01*
X72146160Y-153354395D01*
X72376050Y-153475716D01*
X72523259Y-153431065D01*
X72786080Y-153305881D01*
X73019429Y-153131828D01*
X73214338Y-152915595D01*
X73283965Y-152798706D01*
X73405685Y-152980872D01*
X73612528Y-153187715D01*
X73855749Y-153350230D01*
X74126002Y-153462172D01*
X74412900Y-153519240D01*
X74705420Y-153519240D01*
X74992318Y-153462172D01*
X75262571Y-153350230D01*
X75505792Y-153187715D01*
X75712635Y-152980872D01*
X75834355Y-152798706D01*
X75903982Y-152915595D01*
X76098891Y-153131828D01*
X76332240Y-153305881D01*
X76595061Y-153431065D01*
X76742270Y-153475716D01*
X76972160Y-153354395D01*
X76972160Y-152161240D01*
X76952160Y-152161240D01*
X76952160Y-151907240D01*
X76972160Y-151907240D01*
X76972160Y-151887240D01*
X77226160Y-151887240D01*
X77226160Y-151907240D01*
X77246160Y-151907240D01*
X77246160Y-152161240D01*
X77226160Y-152161240D01*
X77226160Y-153354395D01*
X77456050Y-153475716D01*
X77603259Y-153431065D01*
X77866080Y-153305881D01*
X78099429Y-153131828D01*
X78294338Y-152915595D01*
X78363965Y-152798706D01*
X78485685Y-152980872D01*
X78692528Y-153187715D01*
X78935749Y-153350230D01*
X79206002Y-153462172D01*
X79492900Y-153519240D01*
X79785420Y-153519240D01*
X80072318Y-153462172D01*
X80342571Y-153350230D01*
X80585792Y-153187715D01*
X80792635Y-152980872D01*
X80955150Y-152737651D01*
X81067092Y-152467398D01*
X81124160Y-152180500D01*
X81124160Y-151887980D01*
X81067092Y-151601082D01*
X80955150Y-151330829D01*
X80792635Y-151087608D01*
X80585792Y-150880765D01*
X80409754Y-150763140D01*
X80639429Y-150591828D01*
X80834338Y-150375595D01*
X80983317Y-150125492D01*
X81080641Y-149851131D01*
X80959974Y-149621240D01*
X79766160Y-149621240D01*
X79766160Y-149641240D01*
X79512160Y-149641240D01*
X79512160Y-149621240D01*
X79492160Y-149621240D01*
X79492160Y-149367240D01*
X79512160Y-149367240D01*
X79512160Y-148174085D01*
X79766160Y-148174085D01*
X79766160Y-149367240D01*
X80959974Y-149367240D01*
X81080641Y-149137349D01*
X80983317Y-148862988D01*
X80834338Y-148612885D01*
X80639429Y-148396652D01*
X80406080Y-148222599D01*
X80143259Y-148097415D01*
X79996050Y-148052764D01*
X79766160Y-148174085D01*
X79512160Y-148174085D01*
X79282270Y-148052764D01*
X79135061Y-148097415D01*
X78872240Y-148222599D01*
X78734160Y-148325592D01*
X78734160Y-147742492D01*
X85141000Y-147742492D01*
X85141000Y-148182748D01*
X85226890Y-148614545D01*
X85395369Y-149021289D01*
X85639962Y-149387349D01*
X85951271Y-149698658D01*
X86317331Y-149943251D01*
X86724075Y-150111730D01*
X87155872Y-150197620D01*
X87596128Y-150197620D01*
X88027925Y-150111730D01*
X88434669Y-149943251D01*
X88800729Y-149698658D01*
X89112038Y-149387349D01*
X89356631Y-149021289D01*
X89525110Y-148614545D01*
X89611000Y-148182748D01*
X89611000Y-147823772D01*
X105717540Y-147823772D01*
X105717540Y-148264028D01*
X105803430Y-148695825D01*
X105971909Y-149102569D01*
X106216502Y-149468629D01*
X106527811Y-149779938D01*
X106893871Y-150024531D01*
X107300615Y-150193010D01*
X107732412Y-150278900D01*
X108172668Y-150278900D01*
X108604465Y-150193010D01*
X109011209Y-150024531D01*
X109377269Y-149779938D01*
X109688578Y-149468629D01*
X109933171Y-149102569D01*
X110101650Y-148695825D01*
X110187540Y-148264028D01*
X110187540Y-147823772D01*
X110101650Y-147391975D01*
X109933171Y-146985231D01*
X109688578Y-146619171D01*
X109377269Y-146307862D01*
X109011209Y-146063269D01*
X108604465Y-145894790D01*
X108172668Y-145808900D01*
X107732412Y-145808900D01*
X107300615Y-145894790D01*
X106893871Y-146063269D01*
X106527811Y-146307862D01*
X106216502Y-146619171D01*
X105971909Y-146985231D01*
X105803430Y-147391975D01*
X105717540Y-147823772D01*
X89611000Y-147823772D01*
X89611000Y-147742492D01*
X89525110Y-147310695D01*
X89356631Y-146903951D01*
X89112038Y-146537891D01*
X88800729Y-146226582D01*
X88434669Y-145981989D01*
X88027925Y-145813510D01*
X87596128Y-145727620D01*
X87155872Y-145727620D01*
X86724075Y-145813510D01*
X86317331Y-145981989D01*
X85951271Y-146226582D01*
X85639962Y-146537891D01*
X85395369Y-146903951D01*
X85226890Y-147310695D01*
X85141000Y-147742492D01*
X78734160Y-147742492D01*
X78734160Y-146956879D01*
X78742071Y-146876559D01*
X78734160Y-146796238D01*
X78710503Y-146556044D01*
X78617012Y-146247845D01*
X78465191Y-145963808D01*
X78260874Y-145714846D01*
X78198480Y-145663641D01*
X73911682Y-141376844D01*
X74035882Y-141364612D01*
X74155580Y-141328302D01*
X74265894Y-141269337D01*
X74362585Y-141189985D01*
X74441937Y-141093294D01*
X74500902Y-140982980D01*
X74537212Y-140863282D01*
X74549472Y-140738800D01*
X74549472Y-137911275D01*
X77472001Y-140833805D01*
X77472000Y-142298289D01*
X77402663Y-142367626D01*
X77289395Y-142537144D01*
X77211374Y-142725502D01*
X77171600Y-142925461D01*
X77171600Y-143129339D01*
X77211374Y-143329298D01*
X77289395Y-143517656D01*
X77402663Y-143687174D01*
X77546826Y-143831337D01*
X77716344Y-143944605D01*
X77904702Y-144022626D01*
X78104661Y-144062400D01*
X78308539Y-144062400D01*
X78508498Y-144022626D01*
X78696856Y-143944605D01*
X78866374Y-143831337D01*
X79010537Y-143687174D01*
X79108219Y-143540981D01*
X80813220Y-143540981D01*
X80813220Y-143744859D01*
X80852994Y-143944818D01*
X80931015Y-144133176D01*
X81044283Y-144302694D01*
X81188446Y-144446857D01*
X81357964Y-144560125D01*
X81546322Y-144638146D01*
X81746281Y-144677920D01*
X81950159Y-144677920D01*
X82150118Y-144638146D01*
X82338476Y-144560125D01*
X82507994Y-144446857D01*
X82551931Y-144402920D01*
X83330453Y-144402920D01*
X83367775Y-144406596D01*
X83405097Y-144402920D01*
X83405108Y-144402920D01*
X83516761Y-144391923D01*
X83660022Y-144348466D01*
X83792051Y-144277894D01*
X83907776Y-144182921D01*
X83931578Y-144153918D01*
X84366677Y-143718820D01*
X89914919Y-143718820D01*
X90021014Y-143751003D01*
X90132667Y-143762000D01*
X90132675Y-143762000D01*
X90170000Y-143765676D01*
X90207325Y-143762000D01*
X115374289Y-143762000D01*
X115418226Y-143805937D01*
X115587744Y-143919205D01*
X115776102Y-143997226D01*
X115976061Y-144037000D01*
X116179939Y-144037000D01*
X116379898Y-143997226D01*
X116568256Y-143919205D01*
X116737774Y-143805937D01*
X116881937Y-143661774D01*
X116995205Y-143492256D01*
X117073226Y-143303898D01*
X117113000Y-143103939D01*
X117113000Y-142900061D01*
X117073226Y-142700102D01*
X116995205Y-142511744D01*
X116881937Y-142342226D01*
X116737774Y-142198063D01*
X116568256Y-142084795D01*
X116379898Y-142006774D01*
X116179939Y-141967000D01*
X115976061Y-141967000D01*
X115776102Y-142006774D01*
X115587744Y-142084795D01*
X115418226Y-142198063D01*
X115374289Y-142242000D01*
X90381901Y-142242000D01*
X90275806Y-142209817D01*
X90164153Y-142198820D01*
X90164142Y-142198820D01*
X90126820Y-142195144D01*
X90089498Y-142198820D01*
X84089197Y-142198820D01*
X84051874Y-142195144D01*
X84014551Y-142198820D01*
X84014542Y-142198820D01*
X83902889Y-142209817D01*
X83759628Y-142253274D01*
X83627599Y-142323846D01*
X83627597Y-142323847D01*
X83627598Y-142323847D01*
X83540871Y-142395021D01*
X83540867Y-142395025D01*
X83511874Y-142418819D01*
X83488080Y-142447812D01*
X83052973Y-142882920D01*
X82551931Y-142882920D01*
X82507994Y-142838983D01*
X82338476Y-142725715D01*
X82150118Y-142647694D01*
X81950159Y-142607920D01*
X81746281Y-142607920D01*
X81546322Y-142647694D01*
X81357964Y-142725715D01*
X81188446Y-142838983D01*
X81044283Y-142983146D01*
X80931015Y-143152664D01*
X80852994Y-143341022D01*
X80813220Y-143540981D01*
X79108219Y-143540981D01*
X79123805Y-143517656D01*
X79201826Y-143329298D01*
X79241600Y-143129339D01*
X79241600Y-142925461D01*
X79201826Y-142725502D01*
X79123805Y-142537144D01*
X79010537Y-142367626D01*
X78992000Y-142349089D01*
X78992000Y-141270507D01*
X79017404Y-141268005D01*
X79160665Y-141224548D01*
X79292694Y-141153976D01*
X79408419Y-141059003D01*
X79432221Y-141030000D01*
X80738699Y-139723523D01*
X80828952Y-139771765D01*
X80972213Y-139815222D01*
X81083866Y-139826219D01*
X81083876Y-139826219D01*
X81121198Y-139829895D01*
X81158521Y-139826219D01*
X83461419Y-139826219D01*
X83498741Y-139829895D01*
X83536063Y-139826219D01*
X83536074Y-139826219D01*
X83647727Y-139815222D01*
X83790988Y-139771765D01*
X83923017Y-139701193D01*
X84038742Y-139606220D01*
X84062545Y-139577216D01*
X84398780Y-139240981D01*
X88283220Y-139240981D01*
X88283220Y-139444859D01*
X88322994Y-139644818D01*
X88401015Y-139833176D01*
X88452769Y-139910631D01*
X88411935Y-139971744D01*
X88333914Y-140160102D01*
X88294140Y-140360061D01*
X88294140Y-140563939D01*
X88333914Y-140763898D01*
X88411935Y-140952256D01*
X88525203Y-141121774D01*
X88669366Y-141265937D01*
X88838884Y-141379205D01*
X89027242Y-141457226D01*
X89227201Y-141497000D01*
X89431079Y-141497000D01*
X89631038Y-141457226D01*
X89761295Y-141403271D01*
X89802022Y-141443998D01*
X89825825Y-141473002D01*
X89898972Y-141533032D01*
X89941549Y-141567975D01*
X90035670Y-141618284D01*
X90073579Y-141638547D01*
X90216840Y-141682004D01*
X90328493Y-141693001D01*
X90328503Y-141693001D01*
X90365825Y-141696677D01*
X90403148Y-141693001D01*
X114807677Y-141693001D01*
X114844999Y-141696677D01*
X114882321Y-141693001D01*
X114882332Y-141693001D01*
X114993985Y-141682004D01*
X115137246Y-141638547D01*
X115269275Y-141567975D01*
X115385000Y-141473002D01*
X115408802Y-141443999D01*
X116117802Y-140735000D01*
X116179939Y-140735000D01*
X116379898Y-140695226D01*
X116568256Y-140617205D01*
X116737774Y-140503937D01*
X116881937Y-140359774D01*
X116995205Y-140190256D01*
X117073226Y-140001898D01*
X117113000Y-139801939D01*
X117113000Y-139598061D01*
X117073226Y-139398102D01*
X116995205Y-139209744D01*
X116881937Y-139040226D01*
X116737774Y-138896063D01*
X116568256Y-138782795D01*
X116379898Y-138704774D01*
X116179939Y-138665000D01*
X115976061Y-138665000D01*
X115776102Y-138704774D01*
X115587744Y-138782795D01*
X115418226Y-138896063D01*
X115274063Y-139040226D01*
X115160795Y-139209744D01*
X115082774Y-139398102D01*
X115043000Y-139598061D01*
X115043000Y-139660198D01*
X114530198Y-140173001D01*
X90680627Y-140173001D01*
X90610546Y-140102920D01*
X91759758Y-140102920D01*
X91797080Y-140106596D01*
X91834402Y-140102920D01*
X91834413Y-140102920D01*
X91946066Y-140091923D01*
X92089327Y-140048466D01*
X92221356Y-139977894D01*
X92337081Y-139882921D01*
X92360884Y-139853917D01*
X95289802Y-136925000D01*
X95351939Y-136925000D01*
X95551898Y-136885226D01*
X95740256Y-136807205D01*
X95909774Y-136693937D01*
X96053937Y-136549774D01*
X96167205Y-136380256D01*
X96245226Y-136191898D01*
X96285000Y-135991939D01*
X96285000Y-135788061D01*
X96245226Y-135588102D01*
X96167205Y-135399744D01*
X96053937Y-135230226D01*
X96010000Y-135186289D01*
X96010000Y-133535081D01*
X105566260Y-133535081D01*
X105566260Y-133738959D01*
X105606034Y-133938918D01*
X105684055Y-134127276D01*
X105797323Y-134296794D01*
X105941486Y-134440957D01*
X106111004Y-134554225D01*
X106299362Y-134632246D01*
X106499321Y-134672020D01*
X106703199Y-134672020D01*
X106903158Y-134632246D01*
X107091516Y-134554225D01*
X107261034Y-134440957D01*
X107405197Y-134296794D01*
X107518465Y-134127276D01*
X107596486Y-133938918D01*
X107636260Y-133738959D01*
X107636260Y-133535081D01*
X107596486Y-133335122D01*
X107518465Y-133146764D01*
X107405197Y-132977246D01*
X107389200Y-132961249D01*
X107389200Y-129240981D01*
X109533220Y-129240981D01*
X109533220Y-129444859D01*
X109572994Y-129644818D01*
X109651015Y-129833176D01*
X109764283Y-130002694D01*
X109908446Y-130146857D01*
X110077964Y-130260125D01*
X110266322Y-130338146D01*
X110466281Y-130377920D01*
X110670159Y-130377920D01*
X110870118Y-130338146D01*
X111058476Y-130260125D01*
X111227994Y-130146857D01*
X111282944Y-130091907D01*
X111426152Y-130048466D01*
X111558181Y-129977894D01*
X111673906Y-129882921D01*
X111697709Y-129853917D01*
X111828706Y-129722920D01*
X117063419Y-129722920D01*
X120174421Y-132833923D01*
X120198219Y-132862921D01*
X120313944Y-132957894D01*
X120445973Y-133028466D01*
X120589234Y-133071923D01*
X120645320Y-133077447D01*
X120738220Y-133086597D01*
X120775553Y-133082920D01*
X121824509Y-133082920D01*
X121868446Y-133126857D01*
X122037964Y-133240125D01*
X122226322Y-133318146D01*
X122426281Y-133357920D01*
X122630159Y-133357920D01*
X122830118Y-133318146D01*
X123018476Y-133240125D01*
X123187994Y-133126857D01*
X123332157Y-132982694D01*
X123445425Y-132813176D01*
X123523446Y-132624818D01*
X123563220Y-132424859D01*
X123563220Y-132220981D01*
X123523446Y-132021022D01*
X123445425Y-131832664D01*
X123332157Y-131663146D01*
X123187994Y-131518983D01*
X123018476Y-131405715D01*
X122830118Y-131327694D01*
X122630159Y-131287920D01*
X122426281Y-131287920D01*
X122226322Y-131327694D01*
X122037964Y-131405715D01*
X121868446Y-131518983D01*
X121824509Y-131562920D01*
X121053022Y-131562920D01*
X117942024Y-128451923D01*
X117918221Y-128422919D01*
X117802496Y-128327946D01*
X117670467Y-128257374D01*
X117527206Y-128213917D01*
X117415553Y-128202920D01*
X117415542Y-128202920D01*
X117378220Y-128199244D01*
X117340898Y-128202920D01*
X111551227Y-128202920D01*
X111513904Y-128199244D01*
X111476581Y-128202920D01*
X111476572Y-128202920D01*
X111364919Y-128213917D01*
X111221658Y-128257374D01*
X111089629Y-128327946D01*
X111000008Y-128401496D01*
X110870118Y-128347694D01*
X110670159Y-128307920D01*
X110466281Y-128307920D01*
X110266322Y-128347694D01*
X110077964Y-128425715D01*
X109908446Y-128538983D01*
X109764283Y-128683146D01*
X109651015Y-128852664D01*
X109572994Y-129041022D01*
X109533220Y-129240981D01*
X107389200Y-129240981D01*
X107389200Y-128183771D01*
X107433137Y-128139834D01*
X107546405Y-127970316D01*
X107624426Y-127781958D01*
X107664200Y-127581999D01*
X107664200Y-127378121D01*
X107624426Y-127178162D01*
X107546405Y-126989804D01*
X107433137Y-126820286D01*
X107288974Y-126676123D01*
X107119456Y-126562855D01*
X106931098Y-126484834D01*
X106731139Y-126445060D01*
X106527261Y-126445060D01*
X106327302Y-126484834D01*
X106138944Y-126562855D01*
X105969426Y-126676123D01*
X105825263Y-126820286D01*
X105711995Y-126989804D01*
X105633974Y-127178162D01*
X105594200Y-127378121D01*
X105594200Y-127581999D01*
X105633974Y-127781958D01*
X105711995Y-127970316D01*
X105825263Y-128139834D01*
X105869200Y-128183771D01*
X105869201Y-132905368D01*
X105797323Y-132977246D01*
X105684055Y-133146764D01*
X105606034Y-133335122D01*
X105566260Y-133535081D01*
X96010000Y-133535081D01*
X96010000Y-131716621D01*
X98623588Y-129103035D01*
X98652581Y-129079241D01*
X98676375Y-129050248D01*
X98676379Y-129050244D01*
X98747553Y-128963517D01*
X98747554Y-128963516D01*
X98818126Y-128831487D01*
X98861583Y-128688226D01*
X98872580Y-128576573D01*
X98872580Y-128576564D01*
X98874288Y-128559221D01*
X101362560Y-128559221D01*
X101362560Y-128763099D01*
X101402334Y-128963058D01*
X101480355Y-129151416D01*
X101593623Y-129320934D01*
X101637560Y-129364871D01*
X101637561Y-131529588D01*
X101633884Y-131566920D01*
X101648558Y-131715905D01*
X101692014Y-131859166D01*
X101762586Y-131991196D01*
X101800008Y-132036794D01*
X101857560Y-132106921D01*
X101886558Y-132130719D01*
X102063600Y-132307761D01*
X102063600Y-132369899D01*
X102103374Y-132569858D01*
X102181395Y-132758216D01*
X102294663Y-132927734D01*
X102438826Y-133071897D01*
X102608344Y-133185165D01*
X102796702Y-133263186D01*
X102996661Y-133302960D01*
X103200539Y-133302960D01*
X103400498Y-133263186D01*
X103588856Y-133185165D01*
X103758374Y-133071897D01*
X103902537Y-132927734D01*
X104015805Y-132758216D01*
X104093826Y-132569858D01*
X104133600Y-132369899D01*
X104133600Y-132166021D01*
X104093826Y-131966062D01*
X104015805Y-131777704D01*
X103902537Y-131608186D01*
X103758374Y-131464023D01*
X103588856Y-131350755D01*
X103400498Y-131272734D01*
X103200539Y-131232960D01*
X103157560Y-131232960D01*
X103157560Y-129364871D01*
X103201497Y-129320934D01*
X103314765Y-129151416D01*
X103392786Y-128963058D01*
X103432560Y-128763099D01*
X103432560Y-128559221D01*
X103392786Y-128359262D01*
X103314765Y-128170904D01*
X103201497Y-128001386D01*
X103057334Y-127857223D01*
X102887816Y-127743955D01*
X102699458Y-127665934D01*
X102499499Y-127626160D01*
X102295621Y-127626160D01*
X102095662Y-127665934D01*
X101907304Y-127743955D01*
X101737786Y-127857223D01*
X101593623Y-128001386D01*
X101480355Y-128170904D01*
X101402334Y-128359262D01*
X101362560Y-128559221D01*
X98874288Y-128559221D01*
X98876256Y-128539241D01*
X98872580Y-128501918D01*
X98872580Y-126921391D01*
X98916517Y-126877454D01*
X99029785Y-126707936D01*
X99107806Y-126519578D01*
X99147580Y-126319619D01*
X99147580Y-126115741D01*
X99107806Y-125915782D01*
X99029785Y-125727424D01*
X98916517Y-125557906D01*
X98772354Y-125413743D01*
X98602836Y-125300475D01*
X98414478Y-125222454D01*
X98214519Y-125182680D01*
X98010641Y-125182680D01*
X97810682Y-125222454D01*
X97622324Y-125300475D01*
X97452806Y-125413743D01*
X97308643Y-125557906D01*
X97195375Y-125727424D01*
X97117354Y-125915782D01*
X97077580Y-126115741D01*
X97077580Y-126319619D01*
X97117354Y-126519578D01*
X97195375Y-126707936D01*
X97308643Y-126877454D01*
X97352580Y-126921391D01*
X97352581Y-128224436D01*
X96198272Y-129378746D01*
X96167205Y-129303744D01*
X96053937Y-129134226D01*
X95909774Y-128990063D01*
X95740256Y-128876795D01*
X95551898Y-128798774D01*
X95351939Y-128759000D01*
X95148061Y-128759000D01*
X94948102Y-128798774D01*
X94759744Y-128876795D01*
X94590226Y-128990063D01*
X94446063Y-129134226D01*
X94332795Y-129303744D01*
X94278841Y-129433999D01*
X92782521Y-129433999D01*
X92751937Y-129388226D01*
X92607774Y-129244063D01*
X92438256Y-129130795D01*
X92249898Y-129052774D01*
X92049939Y-129013000D01*
X91846061Y-129013000D01*
X91646102Y-129052774D01*
X91457744Y-129130795D01*
X91288226Y-129244063D01*
X91144063Y-129388226D01*
X91030795Y-129557744D01*
X90952774Y-129746102D01*
X90913000Y-129946061D01*
X90913000Y-130149939D01*
X90952774Y-130349898D01*
X91030795Y-130538256D01*
X91144063Y-130707774D01*
X91288226Y-130851937D01*
X91457744Y-130965205D01*
X91646102Y-131043226D01*
X91846061Y-131083000D01*
X92049939Y-131083000D01*
X92249898Y-131043226D01*
X92438256Y-130965205D01*
X92455027Y-130953999D01*
X94634349Y-130953999D01*
X94615026Y-130977544D01*
X94579918Y-131043226D01*
X94544454Y-131109574D01*
X94500997Y-131252835D01*
X94490000Y-131364488D01*
X94490000Y-131364498D01*
X94486324Y-131401820D01*
X94490000Y-131439143D01*
X94490001Y-133666290D01*
X94385774Y-133562063D01*
X94216256Y-133448795D01*
X94027898Y-133370774D01*
X93827939Y-133331000D01*
X93624061Y-133331000D01*
X93424102Y-133370774D01*
X93235744Y-133448795D01*
X93066226Y-133562063D01*
X92922063Y-133706226D01*
X92808795Y-133875744D01*
X92730774Y-134064102D01*
X92691000Y-134264061D01*
X92691000Y-134467939D01*
X92730774Y-134667898D01*
X92808795Y-134856256D01*
X92922063Y-135025774D01*
X93066226Y-135169937D01*
X93235744Y-135283205D01*
X93424102Y-135361226D01*
X93624061Y-135401000D01*
X93827939Y-135401000D01*
X94027898Y-135361226D01*
X94216256Y-135283205D01*
X94385774Y-135169937D01*
X94490001Y-135065710D01*
X94490001Y-135186288D01*
X94446063Y-135230226D01*
X94332795Y-135399744D01*
X94254774Y-135588102D01*
X94215000Y-135788061D01*
X94215000Y-135850198D01*
X91482279Y-138582920D01*
X90021931Y-138582920D01*
X89977994Y-138538983D01*
X89808476Y-138425715D01*
X89620118Y-138347694D01*
X89420159Y-138307920D01*
X89216281Y-138307920D01*
X89016322Y-138347694D01*
X88827964Y-138425715D01*
X88658446Y-138538983D01*
X88514283Y-138683146D01*
X88401015Y-138852664D01*
X88322994Y-139041022D01*
X88283220Y-139240981D01*
X84398780Y-139240981D01*
X86624624Y-137015138D01*
X86653621Y-136991341D01*
X86748594Y-136875616D01*
X86819166Y-136743587D01*
X86862623Y-136600326D01*
X86873620Y-136488673D01*
X86873620Y-136488664D01*
X86877296Y-136451341D01*
X86873620Y-136414018D01*
X86873620Y-134609971D01*
X86917557Y-134566034D01*
X87030825Y-134396516D01*
X87108846Y-134208158D01*
X87148620Y-134008199D01*
X87148620Y-133804321D01*
X87108846Y-133604362D01*
X87030825Y-133416004D01*
X86917557Y-133246486D01*
X86773394Y-133102323D01*
X86603876Y-132989055D01*
X86415518Y-132911034D01*
X86215559Y-132871260D01*
X86011681Y-132871260D01*
X85825280Y-132908337D01*
X85825280Y-132714661D01*
X85785506Y-132514702D01*
X85707485Y-132326344D01*
X85594217Y-132156826D01*
X85450054Y-132012663D01*
X85280536Y-131899395D01*
X85092178Y-131821374D01*
X84892219Y-131781600D01*
X84830082Y-131781600D01*
X83685304Y-130636823D01*
X83661501Y-130607819D01*
X83545776Y-130512846D01*
X83413747Y-130442274D01*
X83270486Y-130398817D01*
X83158833Y-130387820D01*
X83158822Y-130387820D01*
X83121500Y-130384144D01*
X83084178Y-130387820D01*
X77487911Y-130387820D01*
X77443974Y-130343883D01*
X77274456Y-130230615D01*
X77086098Y-130152594D01*
X76886139Y-130112820D01*
X76682261Y-130112820D01*
X76482302Y-130152594D01*
X76293944Y-130230615D01*
X76124426Y-130343883D01*
X75980263Y-130488046D01*
X75866995Y-130657564D01*
X75788974Y-130845922D01*
X75749200Y-131045881D01*
X75749200Y-131249759D01*
X75788974Y-131449718D01*
X75866995Y-131638076D01*
X75980263Y-131807594D01*
X76124426Y-131951757D01*
X76293944Y-132065025D01*
X76482302Y-132143046D01*
X76682261Y-132182820D01*
X76886139Y-132182820D01*
X77086098Y-132143046D01*
X77274456Y-132065025D01*
X77443974Y-131951757D01*
X77487911Y-131907820D01*
X82806699Y-131907820D01*
X83755280Y-132856402D01*
X83755280Y-132918539D01*
X83795054Y-133118498D01*
X83873075Y-133306856D01*
X83986343Y-133476374D01*
X84130506Y-133620537D01*
X84300024Y-133733805D01*
X84488382Y-133811826D01*
X84688341Y-133851600D01*
X84892219Y-133851600D01*
X85078620Y-133814523D01*
X85078620Y-134008199D01*
X85118394Y-134208158D01*
X85196415Y-134396516D01*
X85309683Y-134566034D01*
X85353621Y-134609972D01*
X85353620Y-136136538D01*
X83183940Y-138306219D01*
X81692359Y-138306219D01*
X81638405Y-138175964D01*
X81525137Y-138006446D01*
X81380974Y-137862283D01*
X81211456Y-137749015D01*
X81023098Y-137670994D01*
X80823139Y-137631220D01*
X80619261Y-137631220D01*
X80419302Y-137670994D01*
X80230944Y-137749015D01*
X80061426Y-137862283D01*
X79917263Y-138006446D01*
X79803995Y-138175964D01*
X79725974Y-138364322D01*
X79686200Y-138564281D01*
X79686200Y-138626418D01*
X78553617Y-139759002D01*
X78546802Y-139759002D01*
X75348001Y-136560202D01*
X75348001Y-130036780D01*
X76880681Y-128504101D01*
X77025161Y-128532840D01*
X77229039Y-128532840D01*
X77428998Y-128493066D01*
X77617356Y-128415045D01*
X77786874Y-128301777D01*
X77830811Y-128257840D01*
X79545049Y-128257840D01*
X79588986Y-128301777D01*
X79758504Y-128415045D01*
X79946862Y-128493066D01*
X80146821Y-128532840D01*
X80350699Y-128532840D01*
X80550658Y-128493066D01*
X80739016Y-128415045D01*
X80908534Y-128301777D01*
X81052697Y-128157614D01*
X81165965Y-127988096D01*
X81243986Y-127799738D01*
X81283760Y-127599779D01*
X81283760Y-127537641D01*
X83045142Y-125776260D01*
X85178769Y-125776260D01*
X85222706Y-125820197D01*
X85392224Y-125933465D01*
X85580582Y-126011486D01*
X85780541Y-126051260D01*
X85984419Y-126051260D01*
X86184378Y-126011486D01*
X86372736Y-125933465D01*
X86542254Y-125820197D01*
X86686417Y-125676034D01*
X86799685Y-125506516D01*
X86877706Y-125318158D01*
X86917480Y-125118199D01*
X86917480Y-124914321D01*
X86877706Y-124714362D01*
X86799685Y-124526004D01*
X86686417Y-124356486D01*
X86542254Y-124212323D01*
X86372736Y-124099055D01*
X86184378Y-124021034D01*
X85984419Y-123981260D01*
X85780541Y-123981260D01*
X85580582Y-124021034D01*
X85392224Y-124099055D01*
X85222706Y-124212323D01*
X85178769Y-124256260D01*
X82767662Y-124256260D01*
X82730339Y-124252584D01*
X82693016Y-124256260D01*
X82693007Y-124256260D01*
X82581354Y-124267257D01*
X82438093Y-124310714D01*
X82306063Y-124381286D01*
X82222423Y-124449928D01*
X82190339Y-124476259D01*
X82166541Y-124505257D01*
X80208959Y-126462840D01*
X80146821Y-126462840D01*
X79946862Y-126502614D01*
X79758504Y-126580635D01*
X79588986Y-126693903D01*
X79545049Y-126737840D01*
X77830811Y-126737840D01*
X77786874Y-126693903D01*
X77617356Y-126580635D01*
X77428998Y-126502614D01*
X77229039Y-126462840D01*
X77025161Y-126462840D01*
X76825202Y-126502614D01*
X76636844Y-126580635D01*
X76467326Y-126693903D01*
X76323163Y-126838066D01*
X76209895Y-127007584D01*
X76197380Y-127037798D01*
X74076999Y-129158180D01*
X74048001Y-129181978D01*
X74024203Y-129210976D01*
X74024202Y-129210977D01*
X73953027Y-129297703D01*
X73882455Y-129429733D01*
X73860609Y-129501754D01*
X73838999Y-129572993D01*
X73831021Y-129653998D01*
X73824325Y-129721979D01*
X73828002Y-129759311D01*
X73828001Y-136600728D01*
X70411400Y-136600728D01*
X70286918Y-136612988D01*
X70167220Y-136649298D01*
X70056906Y-136708263D01*
X69960215Y-136787615D01*
X69880863Y-136884306D01*
X69821898Y-136994620D01*
X69785588Y-137114318D01*
X69773328Y-137238800D01*
X69773328Y-140738800D01*
X69785588Y-140863282D01*
X69821898Y-140982980D01*
X69880863Y-141093294D01*
X69960215Y-141189985D01*
X70056906Y-141269337D01*
X70133531Y-141310294D01*
X70036400Y-141300728D01*
X68286400Y-141300728D01*
X67991214Y-141329801D01*
X67707372Y-141415904D01*
X67445782Y-141555727D01*
X67216497Y-141743897D01*
X67028327Y-141973182D01*
X66888504Y-142234772D01*
X66802401Y-142518614D01*
X66773328Y-142813800D01*
X62615000Y-142813800D01*
X62615000Y-140738800D01*
X64023328Y-140738800D01*
X64035588Y-140863282D01*
X64071898Y-140982980D01*
X64130863Y-141093294D01*
X64210215Y-141189985D01*
X64306906Y-141269337D01*
X64417220Y-141328302D01*
X64536918Y-141364612D01*
X64661400Y-141376872D01*
X65875650Y-141373800D01*
X66034400Y-141215050D01*
X66034400Y-139115800D01*
X66288400Y-139115800D01*
X66288400Y-141215050D01*
X66447150Y-141373800D01*
X67661400Y-141376872D01*
X67785882Y-141364612D01*
X67905580Y-141328302D01*
X68015894Y-141269337D01*
X68112585Y-141189985D01*
X68191937Y-141093294D01*
X68250902Y-140982980D01*
X68287212Y-140863282D01*
X68299472Y-140738800D01*
X68296400Y-139274550D01*
X68137650Y-139115800D01*
X66288400Y-139115800D01*
X66034400Y-139115800D01*
X64185150Y-139115800D01*
X64026400Y-139274550D01*
X64023328Y-140738800D01*
X62615000Y-140738800D01*
X62615000Y-137238800D01*
X64023328Y-137238800D01*
X64026400Y-138703050D01*
X64185150Y-138861800D01*
X66034400Y-138861800D01*
X66034400Y-136762550D01*
X66288400Y-136762550D01*
X66288400Y-138861800D01*
X68137650Y-138861800D01*
X68296400Y-138703050D01*
X68299472Y-137238800D01*
X68287212Y-137114318D01*
X68250902Y-136994620D01*
X68191937Y-136884306D01*
X68112585Y-136787615D01*
X68015894Y-136708263D01*
X67905580Y-136649298D01*
X67785882Y-136612988D01*
X67661400Y-136600728D01*
X66447150Y-136603800D01*
X66288400Y-136762550D01*
X66034400Y-136762550D01*
X65875650Y-136603800D01*
X64661400Y-136600728D01*
X64536918Y-136612988D01*
X64417220Y-136649298D01*
X64306906Y-136708263D01*
X64210215Y-136787615D01*
X64130863Y-136884306D01*
X64071898Y-136994620D01*
X64035588Y-137114318D01*
X64023328Y-137238800D01*
X62615000Y-137238800D01*
X62615000Y-131166890D01*
X63836524Y-131166890D01*
X63881175Y-131314099D01*
X64006359Y-131576920D01*
X64180412Y-131810269D01*
X64396645Y-132005178D01*
X64646748Y-132154157D01*
X64921109Y-132251481D01*
X65151000Y-132130814D01*
X65151000Y-130937000D01*
X65405000Y-130937000D01*
X65405000Y-132130814D01*
X65634891Y-132251481D01*
X65909252Y-132154157D01*
X66159355Y-132005178D01*
X66375588Y-131810269D01*
X66549641Y-131576920D01*
X66674825Y-131314099D01*
X66719476Y-131166890D01*
X66598155Y-130937000D01*
X65405000Y-130937000D01*
X65151000Y-130937000D01*
X63957845Y-130937000D01*
X63836524Y-131166890D01*
X62615000Y-131166890D01*
X62615000Y-109132000D01*
X63789928Y-109132000D01*
X63789928Y-110832000D01*
X63802188Y-110956482D01*
X63838498Y-111076180D01*
X63897463Y-111186494D01*
X63976815Y-111283185D01*
X64073506Y-111362537D01*
X64183820Y-111421502D01*
X64264466Y-111445966D01*
X64180412Y-111521731D01*
X64006359Y-111755080D01*
X63881175Y-112017901D01*
X63836524Y-112165110D01*
X63957845Y-112395000D01*
X65151000Y-112395000D01*
X65151000Y-112375000D01*
X65405000Y-112375000D01*
X65405000Y-112395000D01*
X66598155Y-112395000D01*
X66719476Y-112165110D01*
X66674825Y-112017901D01*
X66549641Y-111755080D01*
X66375588Y-111521731D01*
X66291534Y-111445966D01*
X66372180Y-111421502D01*
X66482494Y-111362537D01*
X66579185Y-111283185D01*
X66658537Y-111186494D01*
X66717502Y-111076180D01*
X66753812Y-110956482D01*
X66766072Y-110832000D01*
X66766072Y-109132000D01*
X66753812Y-109007518D01*
X66717502Y-108887820D01*
X66658537Y-108777506D01*
X66579185Y-108680815D01*
X66482494Y-108601463D01*
X66372180Y-108542498D01*
X66252482Y-108506188D01*
X66128000Y-108493928D01*
X64428000Y-108493928D01*
X64303518Y-108506188D01*
X64183820Y-108542498D01*
X64073506Y-108601463D01*
X63976815Y-108680815D01*
X63897463Y-108777506D01*
X63838498Y-108887820D01*
X63802188Y-109007518D01*
X63789928Y-109132000D01*
X62615000Y-109132000D01*
X62615000Y-103474130D01*
X62873025Y-103860293D01*
X63322507Y-104309775D01*
X63851042Y-104662930D01*
X64438319Y-104906188D01*
X65061768Y-105030200D01*
X65697432Y-105030200D01*
X66320881Y-104906188D01*
X66908158Y-104662930D01*
X67436693Y-104309775D01*
X67886175Y-103860293D01*
X68239330Y-103331758D01*
X68482588Y-102744481D01*
X68606600Y-102121032D01*
X68606600Y-101485368D01*
X68482588Y-100861919D01*
X68239330Y-100274642D01*
X67886175Y-99746107D01*
X67436693Y-99296625D01*
X67030177Y-99025000D01*
X78286938Y-99025000D01*
X78235188Y-99076750D01*
G04 #@! TA.AperFunction,Conductor*
D26*
G36*
X78235188Y-99076750D02*
G01*
X78015040Y-99032960D01*
X77722520Y-99032960D01*
X77435622Y-99090028D01*
X77165369Y-99201970D01*
X76922148Y-99364485D01*
X76715305Y-99571328D01*
X76598780Y-99745720D01*
X76482255Y-99571328D01*
X76275412Y-99364485D01*
X76032191Y-99201970D01*
X75761938Y-99090028D01*
X75475040Y-99032960D01*
X75182520Y-99032960D01*
X74895622Y-99090028D01*
X74625369Y-99201970D01*
X74382148Y-99364485D01*
X74175305Y-99571328D01*
X74058780Y-99745720D01*
X73942255Y-99571328D01*
X73735412Y-99364485D01*
X73492191Y-99201970D01*
X73221938Y-99090028D01*
X72935040Y-99032960D01*
X72642520Y-99032960D01*
X72355622Y-99090028D01*
X72085369Y-99201970D01*
X71842148Y-99364485D01*
X71635305Y-99571328D01*
X71560715Y-99682960D01*
X71476845Y-99682960D01*
X71402255Y-99571328D01*
X71195412Y-99364485D01*
X70952191Y-99201970D01*
X70681938Y-99090028D01*
X70395040Y-99032960D01*
X70102520Y-99032960D01*
X69815622Y-99090028D01*
X69545369Y-99201970D01*
X69302148Y-99364485D01*
X69095305Y-99571328D01*
X68932790Y-99814549D01*
X68820848Y-100084802D01*
X68763780Y-100371700D01*
X68763780Y-100664220D01*
X68820848Y-100951118D01*
X68932790Y-101221371D01*
X69095305Y-101464592D01*
X69227160Y-101596447D01*
X69154600Y-101618458D01*
X69044286Y-101677423D01*
X68947595Y-101756775D01*
X68868243Y-101853466D01*
X68809278Y-101963780D01*
X68772968Y-102083478D01*
X68760708Y-102207960D01*
X68760708Y-103907960D01*
X68772968Y-104032442D01*
X68809278Y-104152140D01*
X68868243Y-104262454D01*
X68947595Y-104359145D01*
X69044286Y-104438497D01*
X69154600Y-104497462D01*
X69274298Y-104533772D01*
X69398780Y-104546032D01*
X71098780Y-104546032D01*
X71223262Y-104533772D01*
X71342960Y-104497462D01*
X71453274Y-104438497D01*
X71549965Y-104359145D01*
X71629317Y-104262454D01*
X71688282Y-104152140D01*
X71710293Y-104079580D01*
X71842148Y-104211435D01*
X72085369Y-104373950D01*
X72355622Y-104485892D01*
X72642520Y-104542960D01*
X72646001Y-104542960D01*
X72646000Y-116271198D01*
X72075199Y-116842000D01*
X66556178Y-116842000D01*
X66431475Y-116655368D01*
X66224632Y-116448525D01*
X66050240Y-116332000D01*
X66224632Y-116215475D01*
X66431475Y-116008632D01*
X66593990Y-115765411D01*
X66705932Y-115495158D01*
X66763000Y-115208260D01*
X66763000Y-114915740D01*
X66705932Y-114628842D01*
X66593990Y-114358589D01*
X66431475Y-114115368D01*
X66224632Y-113908525D01*
X66042466Y-113786805D01*
X66159355Y-113717178D01*
X66375588Y-113522269D01*
X66549641Y-113288920D01*
X66674825Y-113026099D01*
X66719476Y-112878890D01*
X66598155Y-112649000D01*
X65405000Y-112649000D01*
X65405000Y-112669000D01*
X65151000Y-112669000D01*
X65151000Y-112649000D01*
X63957845Y-112649000D01*
X63836524Y-112878890D01*
X63881175Y-113026099D01*
X64006359Y-113288920D01*
X64180412Y-113522269D01*
X64396645Y-113717178D01*
X64513534Y-113786805D01*
X64331368Y-113908525D01*
X64124525Y-114115368D01*
X63962010Y-114358589D01*
X63850068Y-114628842D01*
X63793000Y-114915740D01*
X63793000Y-115208260D01*
X63850068Y-115495158D01*
X63962010Y-115765411D01*
X64124525Y-116008632D01*
X64331368Y-116215475D01*
X64505760Y-116332000D01*
X64331368Y-116448525D01*
X64124525Y-116655368D01*
X63962010Y-116898589D01*
X63850068Y-117168842D01*
X63793000Y-117455740D01*
X63793000Y-117748260D01*
X63850068Y-118035158D01*
X63962010Y-118305411D01*
X64124525Y-118548632D01*
X64331368Y-118755475D01*
X64505760Y-118872000D01*
X64331368Y-118988525D01*
X64124525Y-119195368D01*
X63962010Y-119438589D01*
X63850068Y-119708842D01*
X63793000Y-119995740D01*
X63793000Y-120288260D01*
X63850068Y-120575158D01*
X63962010Y-120845411D01*
X64124525Y-121088632D01*
X64331368Y-121295475D01*
X64505760Y-121412000D01*
X64331368Y-121528525D01*
X64124525Y-121735368D01*
X63962010Y-121978589D01*
X63850068Y-122248842D01*
X63793000Y-122535740D01*
X63793000Y-122828260D01*
X63850068Y-123115158D01*
X63962010Y-123385411D01*
X64124525Y-123628632D01*
X64331368Y-123835475D01*
X64574589Y-123997990D01*
X64844842Y-124109932D01*
X65131740Y-124167000D01*
X65424260Y-124167000D01*
X65711158Y-124109932D01*
X65981411Y-123997990D01*
X66224632Y-123835475D01*
X66431475Y-123628632D01*
X66593990Y-123385411D01*
X66705932Y-123115158D01*
X66763000Y-122828260D01*
X66763000Y-122535740D01*
X66705932Y-122248842D01*
X66593990Y-121978589D01*
X66431475Y-121735368D01*
X66224632Y-121528525D01*
X66050240Y-121412000D01*
X66224632Y-121295475D01*
X66297755Y-121222352D01*
X70558860Y-121222352D01*
X70558860Y-121662608D01*
X70644750Y-122094405D01*
X70813229Y-122501149D01*
X71057822Y-122867209D01*
X71369131Y-123178518D01*
X71735191Y-123423111D01*
X72141935Y-123591590D01*
X72573732Y-123677480D01*
X73013988Y-123677480D01*
X73445785Y-123591590D01*
X73852529Y-123423111D01*
X74218589Y-123178518D01*
X74529898Y-122867209D01*
X74774491Y-122501149D01*
X74942970Y-122094405D01*
X75028860Y-121662608D01*
X75028860Y-121222352D01*
X74942970Y-120790555D01*
X74774491Y-120383811D01*
X74529898Y-120017751D01*
X74218589Y-119706442D01*
X73852529Y-119461849D01*
X73445785Y-119293370D01*
X73013988Y-119207480D01*
X72573732Y-119207480D01*
X72141935Y-119293370D01*
X71735191Y-119461849D01*
X71369131Y-119706442D01*
X71057822Y-120017751D01*
X70813229Y-120383811D01*
X70644750Y-120790555D01*
X70558860Y-121222352D01*
X66297755Y-121222352D01*
X66431475Y-121088632D01*
X66593990Y-120845411D01*
X66705932Y-120575158D01*
X66763000Y-120288260D01*
X66763000Y-119995740D01*
X66705932Y-119708842D01*
X66593990Y-119438589D01*
X66431475Y-119195368D01*
X66224632Y-118988525D01*
X66050240Y-118872000D01*
X66224632Y-118755475D01*
X66431475Y-118548632D01*
X66556178Y-118362000D01*
X72352678Y-118362000D01*
X72390000Y-118365676D01*
X72427322Y-118362000D01*
X72427333Y-118362000D01*
X72538986Y-118351003D01*
X72682247Y-118307546D01*
X72814276Y-118236974D01*
X72930001Y-118142001D01*
X72953804Y-118112998D01*
X73720802Y-117346000D01*
X74734289Y-117346000D01*
X74778226Y-117389937D01*
X74947744Y-117503205D01*
X75136102Y-117581226D01*
X75336061Y-117621000D01*
X75539939Y-117621000D01*
X75739898Y-117581226D01*
X75783779Y-117563050D01*
X75783779Y-123441352D01*
X71790133Y-127435000D01*
X66766072Y-127435000D01*
X66766072Y-127420000D01*
X66753812Y-127295518D01*
X66717502Y-127175820D01*
X66658537Y-127065506D01*
X66579185Y-126968815D01*
X66482494Y-126889463D01*
X66372180Y-126830498D01*
X66252482Y-126794188D01*
X66128000Y-126781928D01*
X64428000Y-126781928D01*
X64303518Y-126794188D01*
X64183820Y-126830498D01*
X64073506Y-126889463D01*
X63976815Y-126968815D01*
X63897463Y-127065506D01*
X63838498Y-127175820D01*
X63802188Y-127295518D01*
X63789928Y-127420000D01*
X63789928Y-129120000D01*
X63802188Y-129244482D01*
X63838498Y-129364180D01*
X63897463Y-129474494D01*
X63976815Y-129571185D01*
X64073506Y-129650537D01*
X64183820Y-129709502D01*
X64264466Y-129733966D01*
X64180412Y-129809731D01*
X64006359Y-130043080D01*
X63881175Y-130305901D01*
X63836524Y-130453110D01*
X63957845Y-130683000D01*
X65151000Y-130683000D01*
X65151000Y-130663000D01*
X65405000Y-130663000D01*
X65405000Y-130683000D01*
X66598155Y-130683000D01*
X66719476Y-130453110D01*
X66674825Y-130305901D01*
X66549641Y-130043080D01*
X66375588Y-129809731D01*
X66291534Y-129733966D01*
X66372180Y-129709502D01*
X66482494Y-129650537D01*
X66579185Y-129571185D01*
X66658537Y-129474494D01*
X66717502Y-129364180D01*
X66753812Y-129244482D01*
X66766072Y-129120000D01*
X66766072Y-129105000D01*
X72094982Y-129105000D01*
X72136000Y-129109040D01*
X72177018Y-129105000D01*
X72177019Y-129105000D01*
X72299689Y-129092918D01*
X72457087Y-129045172D01*
X72602146Y-128967636D01*
X72729291Y-128863291D01*
X72755446Y-128831421D01*
X77180212Y-124406657D01*
X77212070Y-124380512D01*
X77316415Y-124253367D01*
X77393951Y-124108308D01*
X77441697Y-123950910D01*
X77453779Y-123828240D01*
X77453779Y-123828239D01*
X77457819Y-123787221D01*
X77453779Y-123746203D01*
X77453779Y-116857180D01*
X81653461Y-121056863D01*
X81677259Y-121085861D01*
X81706257Y-121109659D01*
X81792983Y-121180834D01*
X81914110Y-121245578D01*
X81925013Y-121251406D01*
X82068274Y-121294863D01*
X82179927Y-121305860D01*
X82179936Y-121305860D01*
X82217259Y-121309536D01*
X82254582Y-121305860D01*
X84727148Y-121305860D01*
X84727148Y-121395860D01*
X84739408Y-121520342D01*
X84775718Y-121640040D01*
X84834683Y-121750354D01*
X84914035Y-121847045D01*
X85010726Y-121926397D01*
X85121040Y-121985362D01*
X85240738Y-122021672D01*
X85365220Y-122033932D01*
X87065220Y-122033932D01*
X87189702Y-122021672D01*
X87309400Y-121985362D01*
X87419714Y-121926397D01*
X87516405Y-121847045D01*
X87595757Y-121750354D01*
X87654722Y-121640040D01*
X87691032Y-121520342D01*
X87703292Y-121395860D01*
X87703292Y-119695860D01*
X87691032Y-119571378D01*
X87654722Y-119451680D01*
X87645566Y-119434551D01*
X87661040Y-119442822D01*
X87780738Y-119479132D01*
X87905220Y-119491392D01*
X89605220Y-119491392D01*
X89729702Y-119479132D01*
X89849400Y-119442822D01*
X89959714Y-119383857D01*
X90056405Y-119304505D01*
X90135757Y-119207814D01*
X90194722Y-119097500D01*
X90231032Y-118977802D01*
X90243292Y-118853320D01*
X90243292Y-117153320D01*
X90231032Y-117028838D01*
X90194722Y-116909140D01*
X90135757Y-116798826D01*
X90056405Y-116702135D01*
X89959714Y-116622783D01*
X89849400Y-116563818D01*
X89729702Y-116527508D01*
X89605220Y-116515248D01*
X87905220Y-116515248D01*
X87780738Y-116527508D01*
X87661040Y-116563818D01*
X87550726Y-116622783D01*
X87454035Y-116702135D01*
X87374683Y-116798826D01*
X87315718Y-116909140D01*
X87293116Y-116983649D01*
X87161852Y-116852385D01*
X86987460Y-116735860D01*
X87161852Y-116619335D01*
X87368695Y-116412492D01*
X87531210Y-116169271D01*
X87643152Y-115899018D01*
X87700220Y-115612120D01*
X87700220Y-115319600D01*
X87656430Y-115099452D01*
X88186102Y-114569780D01*
X92999429Y-114569780D01*
X93043366Y-114613717D01*
X93212884Y-114726985D01*
X93401242Y-114805006D01*
X93601201Y-114844780D01*
X93805079Y-114844780D01*
X93914643Y-114822987D01*
X93952514Y-115013378D01*
X94030535Y-115201736D01*
X94143803Y-115371254D01*
X94175277Y-115402728D01*
X93015700Y-115402728D01*
X92891218Y-115414988D01*
X92771520Y-115451298D01*
X92661206Y-115510263D01*
X92564515Y-115589615D01*
X92485163Y-115686306D01*
X92426198Y-115796620D01*
X92389888Y-115916318D01*
X92377628Y-116040800D01*
X92377628Y-117740800D01*
X92389888Y-117865282D01*
X92426198Y-117984980D01*
X92485163Y-118095294D01*
X92564515Y-118191985D01*
X92661206Y-118271337D01*
X92771520Y-118330302D01*
X92891218Y-118366612D01*
X92894689Y-118366954D01*
X92904550Y-121936624D01*
X92824035Y-122057124D01*
X92746014Y-122245482D01*
X92706240Y-122445441D01*
X92706240Y-122649319D01*
X92746014Y-122849278D01*
X92824035Y-123037636D01*
X92937303Y-123207154D01*
X93081466Y-123351317D01*
X93250984Y-123464585D01*
X93439342Y-123542606D01*
X93639301Y-123582380D01*
X93843179Y-123582380D01*
X94043138Y-123542606D01*
X94231496Y-123464585D01*
X94401014Y-123351317D01*
X94545177Y-123207154D01*
X94658445Y-123037636D01*
X94736466Y-122849278D01*
X94776240Y-122649319D01*
X94776240Y-122445441D01*
X94736466Y-122245482D01*
X94658445Y-122057124D01*
X94574542Y-121931554D01*
X94564728Y-118378872D01*
X94715700Y-118378872D01*
X94840182Y-118366612D01*
X94959880Y-118330302D01*
X95070194Y-118271337D01*
X95166885Y-118191985D01*
X95246237Y-118095294D01*
X95305202Y-117984980D01*
X95327213Y-117912420D01*
X95459068Y-118044275D01*
X95702289Y-118206790D01*
X95972542Y-118318732D01*
X96259440Y-118375800D01*
X96551960Y-118375800D01*
X96838858Y-118318732D01*
X97109111Y-118206790D01*
X97352332Y-118044275D01*
X97559175Y-117837432D01*
X97675700Y-117663040D01*
X97792225Y-117837432D01*
X97999068Y-118044275D01*
X98242289Y-118206790D01*
X98512542Y-118318732D01*
X98799440Y-118375800D01*
X99091960Y-118375800D01*
X99378858Y-118318732D01*
X99649111Y-118206790D01*
X99892332Y-118044275D01*
X100099175Y-117837432D01*
X100220895Y-117655266D01*
X100290522Y-117772155D01*
X100485431Y-117988388D01*
X100718780Y-118162441D01*
X100981601Y-118287625D01*
X101128810Y-118332276D01*
X101358700Y-118210955D01*
X101358700Y-117017800D01*
X101612700Y-117017800D01*
X101612700Y-118210955D01*
X101842590Y-118332276D01*
X101989799Y-118287625D01*
X102252620Y-118162441D01*
X102485969Y-117988388D01*
X102680878Y-117772155D01*
X102829857Y-117522052D01*
X102927181Y-117247691D01*
X102806514Y-117017800D01*
X101612700Y-117017800D01*
X101358700Y-117017800D01*
X101338700Y-117017800D01*
X101338700Y-116763800D01*
X101358700Y-116763800D01*
X101358700Y-116743800D01*
X101612700Y-116743800D01*
X101612700Y-116763800D01*
X102806514Y-116763800D01*
X102927181Y-116533909D01*
X102829857Y-116259548D01*
X102683454Y-116013770D01*
X107494848Y-116013770D01*
X107532170Y-116017446D01*
X107569492Y-116013770D01*
X107569503Y-116013770D01*
X107681156Y-116002773D01*
X107824417Y-115959316D01*
X107956446Y-115888744D01*
X108072171Y-115793771D01*
X108072743Y-115793073D01*
X108073441Y-115792501D01*
X108168414Y-115676776D01*
X108238986Y-115544747D01*
X108282443Y-115401486D01*
X108293440Y-115289833D01*
X108293440Y-115289823D01*
X108297116Y-115252501D01*
X108293440Y-115215178D01*
X108293440Y-112074592D01*
X109248620Y-112074592D01*
X109248619Y-115256701D01*
X109118364Y-115310655D01*
X108948846Y-115423923D01*
X108804683Y-115568086D01*
X108691415Y-115737604D01*
X108613394Y-115925962D01*
X108573620Y-116125921D01*
X108573620Y-116329799D01*
X108613394Y-116529758D01*
X108691415Y-116718116D01*
X108804683Y-116887634D01*
X108948846Y-117031797D01*
X109118364Y-117145065D01*
X109306722Y-117223086D01*
X109443790Y-117250350D01*
X109306322Y-117277694D01*
X109117964Y-117355715D01*
X108948446Y-117468983D01*
X108804283Y-117613146D01*
X108691015Y-117782664D01*
X108612994Y-117971022D01*
X108573220Y-118170981D01*
X108573220Y-118374859D01*
X108612994Y-118574818D01*
X108691015Y-118763176D01*
X108804283Y-118932694D01*
X108948446Y-119076857D01*
X109117964Y-119190125D01*
X109306322Y-119268146D01*
X109506281Y-119307920D01*
X109710159Y-119307920D01*
X109910118Y-119268146D01*
X110098476Y-119190125D01*
X110267994Y-119076857D01*
X110412157Y-118932694D01*
X110525425Y-118763176D01*
X110603446Y-118574818D01*
X110632313Y-118429695D01*
X110764088Y-118297920D01*
X120996455Y-118297920D01*
X121119484Y-118380125D01*
X121307842Y-118458146D01*
X121507801Y-118497920D01*
X121711679Y-118497920D01*
X121911638Y-118458146D01*
X122099996Y-118380125D01*
X122269514Y-118266857D01*
X122413677Y-118122694D01*
X122526945Y-117953176D01*
X122604966Y-117764818D01*
X122644740Y-117564859D01*
X122644740Y-117360981D01*
X122604966Y-117161022D01*
X122526945Y-116972664D01*
X122413677Y-116803146D01*
X122269514Y-116658983D01*
X122099996Y-116545715D01*
X121911638Y-116467694D01*
X121711679Y-116427920D01*
X121507801Y-116427920D01*
X121307842Y-116467694D01*
X121119484Y-116545715D01*
X120996455Y-116627920D01*
X110563186Y-116627920D01*
X110603846Y-116529758D01*
X110643620Y-116329799D01*
X110643620Y-116252086D01*
X110696969Y-116152278D01*
X110789381Y-116170660D01*
X110993259Y-116170660D01*
X111193218Y-116130886D01*
X111381576Y-116052865D01*
X111551094Y-115939597D01*
X111695257Y-115795434D01*
X111808525Y-115625916D01*
X111886546Y-115437558D01*
X111926320Y-115237599D01*
X111926320Y-115050419D01*
X114923818Y-111248462D01*
X115069881Y-111247852D01*
X115110886Y-111288857D01*
X115280404Y-111402125D01*
X115468762Y-111480146D01*
X115473309Y-111481051D01*
X115376924Y-111520975D01*
X115207406Y-111634243D01*
X115063243Y-111778406D01*
X114949975Y-111947924D01*
X114871954Y-112136282D01*
X114832180Y-112336241D01*
X114832180Y-112540119D01*
X114871954Y-112740078D01*
X114949975Y-112928436D01*
X115063243Y-113097954D01*
X115207406Y-113242117D01*
X115376924Y-113355385D01*
X115565282Y-113433406D01*
X115765241Y-113473180D01*
X115904169Y-113473180D01*
X118072188Y-115340921D01*
X118077999Y-115348001D01*
X118128822Y-115389710D01*
X118150239Y-115408161D01*
X118157688Y-115413400D01*
X118193724Y-115442974D01*
X118218778Y-115456366D01*
X118242008Y-115472704D01*
X118284628Y-115491564D01*
X118325753Y-115513546D01*
X118352940Y-115521793D01*
X118378910Y-115533285D01*
X118424396Y-115543469D01*
X118469014Y-115557003D01*
X118497288Y-115559788D01*
X118525000Y-115565992D01*
X118571592Y-115567106D01*
X118580667Y-115568000D01*
X118608969Y-115568000D01*
X118674664Y-115569571D01*
X118683684Y-115568000D01*
X120454289Y-115568000D01*
X120498226Y-115611937D01*
X120667744Y-115725205D01*
X120856102Y-115803226D01*
X121056061Y-115843000D01*
X121259939Y-115843000D01*
X121459898Y-115803226D01*
X121648256Y-115725205D01*
X121817774Y-115611937D01*
X121961937Y-115467774D01*
X122075205Y-115298256D01*
X122153226Y-115109898D01*
X122193000Y-114909939D01*
X122193000Y-114706061D01*
X122153226Y-114506102D01*
X122075205Y-114317744D01*
X121961937Y-114148226D01*
X121817774Y-114004063D01*
X121648256Y-113890795D01*
X121459898Y-113812774D01*
X121259939Y-113773000D01*
X121056061Y-113773000D01*
X120856102Y-113812774D01*
X120667744Y-113890795D01*
X120498226Y-114004063D01*
X120454289Y-114048000D01*
X118900224Y-114048000D01*
X116899888Y-112324719D01*
X116862406Y-112136282D01*
X116784385Y-111947924D01*
X116671117Y-111778406D01*
X116526954Y-111634243D01*
X116357436Y-111520975D01*
X116169078Y-111442954D01*
X116164531Y-111442049D01*
X116260916Y-111402125D01*
X116430434Y-111288857D01*
X116574597Y-111144694D01*
X116687865Y-110975176D01*
X116765886Y-110786818D01*
X116805660Y-110586859D01*
X116805660Y-110382981D01*
X116765886Y-110183022D01*
X116687865Y-109994664D01*
X116574597Y-109825146D01*
X116430434Y-109680983D01*
X116260916Y-109567715D01*
X116072558Y-109489694D01*
X115872599Y-109449920D01*
X115668721Y-109449920D01*
X115468762Y-109489694D01*
X115280404Y-109567715D01*
X115110886Y-109680983D01*
X115064005Y-109727864D01*
X114619764Y-109729719D01*
X114613951Y-109728681D01*
X114545044Y-109730031D01*
X114513495Y-109730163D01*
X114507642Y-109730764D01*
X114464273Y-109731614D01*
X114433373Y-109738392D01*
X114401888Y-109741626D01*
X114360411Y-109754397D01*
X114318043Y-109763691D01*
X114289058Y-109776367D01*
X114258810Y-109785681D01*
X114220638Y-109806290D01*
X114180880Y-109823678D01*
X114154908Y-109841778D01*
X114127077Y-109856804D01*
X114093666Y-109884458D01*
X114058057Y-109909274D01*
X114036118Y-109932090D01*
X114011750Y-109952259D01*
X113984375Y-109985901D01*
X113980293Y-109990146D01*
X113960742Y-110014944D01*
X113917261Y-110068379D01*
X113914500Y-110073596D01*
X110768619Y-114063762D01*
X110768619Y-109607519D01*
X110772295Y-109570196D01*
X110768619Y-109532873D01*
X110768619Y-109532864D01*
X110757622Y-109421211D01*
X110714165Y-109277950D01*
X110643593Y-109145921D01*
X110548620Y-109030196D01*
X110519622Y-109006398D01*
X108982706Y-107469483D01*
X108958903Y-107440479D01*
X108843178Y-107345506D01*
X108711149Y-107274934D01*
X108567888Y-107231477D01*
X108456235Y-107220480D01*
X108456224Y-107220480D01*
X108418902Y-107216804D01*
X108381580Y-107220480D01*
X107688012Y-107220480D01*
X107688012Y-107199060D01*
X107675752Y-107074578D01*
X107639442Y-106954880D01*
X107580477Y-106844566D01*
X107501125Y-106747875D01*
X107404434Y-106668523D01*
X107294120Y-106609558D01*
X107174422Y-106573248D01*
X107049940Y-106560988D01*
X105349940Y-106560988D01*
X105225458Y-106573248D01*
X105105760Y-106609558D01*
X105001600Y-106665234D01*
X105001600Y-105899442D01*
X105005276Y-105862119D01*
X105001600Y-105824796D01*
X105001600Y-105824787D01*
X104990603Y-105713134D01*
X104947146Y-105569873D01*
X104876574Y-105437844D01*
X104854724Y-105411220D01*
X104805399Y-105351116D01*
X104805395Y-105351112D01*
X104781601Y-105322119D01*
X104752609Y-105298326D01*
X103870396Y-104416115D01*
X103972191Y-104373950D01*
X104215412Y-104211435D01*
X104422255Y-104004592D01*
X104538780Y-103830200D01*
X104655305Y-104004592D01*
X104862148Y-104211435D01*
X105105369Y-104373950D01*
X105375622Y-104485892D01*
X105662520Y-104542960D01*
X105955040Y-104542960D01*
X106241938Y-104485892D01*
X106512191Y-104373950D01*
X106755412Y-104211435D01*
X106962255Y-104004592D01*
X107078780Y-103830200D01*
X107195305Y-104004592D01*
X107402148Y-104211435D01*
X107645369Y-104373950D01*
X107915622Y-104485892D01*
X108202520Y-104542960D01*
X108495040Y-104542960D01*
X108781938Y-104485892D01*
X109052191Y-104373950D01*
X109295412Y-104211435D01*
X109502255Y-104004592D01*
X109618780Y-103830200D01*
X109735305Y-104004592D01*
X109942148Y-104211435D01*
X110185369Y-104373950D01*
X110455622Y-104485892D01*
X110742520Y-104542960D01*
X111035040Y-104542960D01*
X111321938Y-104485892D01*
X111592191Y-104373950D01*
X111835412Y-104211435D01*
X112042255Y-104004592D01*
X112158780Y-103830200D01*
X112275305Y-104004592D01*
X112482148Y-104211435D01*
X112725369Y-104373950D01*
X112995622Y-104485892D01*
X113282520Y-104542960D01*
X113575040Y-104542960D01*
X113861938Y-104485892D01*
X114132191Y-104373950D01*
X114375412Y-104211435D01*
X114582255Y-104004592D01*
X114698780Y-103830200D01*
X114815305Y-104004592D01*
X115022148Y-104211435D01*
X115265369Y-104373950D01*
X115535622Y-104485892D01*
X115822520Y-104542960D01*
X116115040Y-104542960D01*
X116401938Y-104485892D01*
X116672191Y-104373950D01*
X116915412Y-104211435D01*
X117122255Y-104004592D01*
X117238780Y-103830200D01*
X117355305Y-104004592D01*
X117562148Y-104211435D01*
X117805369Y-104373950D01*
X118075622Y-104485892D01*
X118362520Y-104542960D01*
X118655040Y-104542960D01*
X118941938Y-104485892D01*
X119212191Y-104373950D01*
X119455412Y-104211435D01*
X119662255Y-104004592D01*
X119824770Y-103761371D01*
X119936712Y-103491118D01*
X119993780Y-103204220D01*
X119993780Y-102911700D01*
X119936712Y-102624802D01*
X119824770Y-102354549D01*
X119662255Y-102111328D01*
X119455412Y-101904485D01*
X119281020Y-101787960D01*
X119455412Y-101671435D01*
X119662255Y-101464592D01*
X119824770Y-101221371D01*
X119936712Y-100951118D01*
X119993780Y-100664220D01*
X119993780Y-100371700D01*
X119936712Y-100084802D01*
X119824770Y-99814549D01*
X119662255Y-99571328D01*
X119455412Y-99364485D01*
X119212191Y-99201970D01*
X118941938Y-99090028D01*
X118655040Y-99032960D01*
X118362520Y-99032960D01*
X118075622Y-99090028D01*
X117805369Y-99201970D01*
X117562148Y-99364485D01*
X117355305Y-99571328D01*
X117238780Y-99745720D01*
X117122255Y-99571328D01*
X116915412Y-99364485D01*
X116672191Y-99201970D01*
X116401938Y-99090028D01*
X116115040Y-99032960D01*
X115822520Y-99032960D01*
X115535622Y-99090028D01*
X115265369Y-99201970D01*
X115022148Y-99364485D01*
X114815305Y-99571328D01*
X114698780Y-99745720D01*
X114582255Y-99571328D01*
X114375412Y-99364485D01*
X114132191Y-99201970D01*
X113861938Y-99090028D01*
X113575040Y-99032960D01*
X113282520Y-99032960D01*
X112995622Y-99090028D01*
X112725369Y-99201970D01*
X112482148Y-99364485D01*
X112275305Y-99571328D01*
X112158780Y-99745720D01*
X112042255Y-99571328D01*
X111835412Y-99364485D01*
X111592191Y-99201970D01*
X111321938Y-99090028D01*
X111035040Y-99032960D01*
X110742520Y-99032960D01*
X110455622Y-99090028D01*
X110185369Y-99201970D01*
X109942148Y-99364485D01*
X109735305Y-99571328D01*
X109618780Y-99745720D01*
X109502255Y-99571328D01*
X109295412Y-99364485D01*
X109052191Y-99201970D01*
X108781938Y-99090028D01*
X108495040Y-99032960D01*
X108202520Y-99032960D01*
X107915622Y-99090028D01*
X107645369Y-99201970D01*
X107402148Y-99364485D01*
X107195305Y-99571328D01*
X107078780Y-99745720D01*
X106962255Y-99571328D01*
X106755412Y-99364485D01*
X106512191Y-99201970D01*
X106241938Y-99090028D01*
X105955040Y-99032960D01*
X105662520Y-99032960D01*
X105375622Y-99090028D01*
X105105369Y-99201970D01*
X104862148Y-99364485D01*
X104655305Y-99571328D01*
X104538780Y-99745720D01*
X104422255Y-99571328D01*
X104215412Y-99364485D01*
X103972191Y-99201970D01*
X103701938Y-99090028D01*
X103415040Y-99032960D01*
X103122520Y-99032960D01*
X102835622Y-99090028D01*
X102565369Y-99201970D01*
X102322148Y-99364485D01*
X102115305Y-99571328D01*
X101998780Y-99745720D01*
X101882255Y-99571328D01*
X101675412Y-99364485D01*
X101432191Y-99201970D01*
X101161938Y-99090028D01*
X100875040Y-99032960D01*
X100582520Y-99032960D01*
X100295622Y-99090028D01*
X100025369Y-99201970D01*
X99782148Y-99364485D01*
X99575305Y-99571328D01*
X99458780Y-99745720D01*
X99342255Y-99571328D01*
X99135412Y-99364485D01*
X98892191Y-99201970D01*
X98621938Y-99090028D01*
X98335040Y-99032960D01*
X98042520Y-99032960D01*
X97755622Y-99090028D01*
X97485369Y-99201970D01*
X97242148Y-99364485D01*
X97035305Y-99571328D01*
X96918780Y-99745720D01*
X96802255Y-99571328D01*
X96595412Y-99364485D01*
X96352191Y-99201970D01*
X96081938Y-99090028D01*
X95795040Y-99032960D01*
X95502520Y-99032960D01*
X95215622Y-99090028D01*
X94945369Y-99201970D01*
X94702148Y-99364485D01*
X94495305Y-99571328D01*
X94378780Y-99745720D01*
X94262255Y-99571328D01*
X94055412Y-99364485D01*
X93812191Y-99201970D01*
X93541938Y-99090028D01*
X93255040Y-99032960D01*
X92962520Y-99032960D01*
X92675622Y-99090028D01*
X92405369Y-99201970D01*
X92162148Y-99364485D01*
X91955305Y-99571328D01*
X91838780Y-99745720D01*
X91722255Y-99571328D01*
X91515412Y-99364485D01*
X91272191Y-99201970D01*
X91001938Y-99090028D01*
X90715040Y-99032960D01*
X90422520Y-99032960D01*
X90135622Y-99090028D01*
X89865369Y-99201970D01*
X89622148Y-99364485D01*
X89415305Y-99571328D01*
X89298780Y-99745720D01*
X89182255Y-99571328D01*
X88975412Y-99364485D01*
X88732191Y-99201970D01*
X88461938Y-99090028D01*
X88175040Y-99032960D01*
X87882520Y-99032960D01*
X87595622Y-99090028D01*
X87325369Y-99201970D01*
X87082148Y-99364485D01*
X86875305Y-99571328D01*
X86758780Y-99745720D01*
X86642255Y-99571328D01*
X86435412Y-99364485D01*
X86192191Y-99201970D01*
X85921938Y-99090028D01*
X85635040Y-99032960D01*
X85342520Y-99032960D01*
X85055622Y-99090028D01*
X84785369Y-99201970D01*
X84542148Y-99364485D01*
X84335305Y-99571328D01*
X84218780Y-99745720D01*
X84102255Y-99571328D01*
X83895412Y-99364485D01*
X83652191Y-99201970D01*
X83381938Y-99090028D01*
X83095040Y-99032960D01*
X82802520Y-99032960D01*
X82515622Y-99090028D01*
X82389908Y-99142100D01*
X82313780Y-99049338D01*
X82284776Y-99025535D01*
X82284241Y-99025000D01*
X121742623Y-99025000D01*
X121336107Y-99296625D01*
X120886625Y-99746107D01*
X120533470Y-100274642D01*
X120290212Y-100861919D01*
X120166200Y-101485368D01*
X120166200Y-102121032D01*
X120290212Y-102744481D01*
X120533470Y-103331758D01*
X120886625Y-103860293D01*
X121336107Y-104309775D01*
X121864642Y-104662930D01*
X122451919Y-104906188D01*
X123075368Y-105030200D01*
X123711032Y-105030200D01*
X124334481Y-104906188D01*
X124921758Y-104662930D01*
X125450293Y-104309775D01*
X125899775Y-103860293D01*
X126252930Y-103331758D01*
X126496188Y-102744481D01*
X126620200Y-102121032D01*
X126620200Y-101485368D01*
X126496188Y-100861919D01*
X126252930Y-100274642D01*
X125899775Y-99746107D01*
X125450293Y-99296625D01*
X125043777Y-99025000D01*
X143844055Y-99025000D01*
X144319255Y-99071593D01*
X144741781Y-99199161D01*
X145131481Y-99406368D01*
X145473511Y-99685320D01*
X145754848Y-100025398D01*
X145964770Y-100413639D01*
X146095285Y-100835268D01*
X146145001Y-101308272D01*
X146145000Y-151254046D01*
X146098406Y-151729256D01*
X145970837Y-152151782D01*
X145763631Y-152541480D01*
X145484676Y-152883514D01*
X145144604Y-153164847D01*
X144756356Y-153374772D01*
X144334736Y-153505284D01*
X143861737Y-153555000D01*
X125052799Y-153555000D01*
X125424893Y-153306375D01*
X125874375Y-152856893D01*
X126227530Y-152328358D01*
X126470788Y-151741081D01*
X126594800Y-151117632D01*
X126594800Y-150481968D01*
X126470788Y-149858519D01*
X126227530Y-149271242D01*
X125874375Y-148742707D01*
X125424893Y-148293225D01*
X124896358Y-147940070D01*
X124464527Y-147761200D01*
X126354621Y-147761200D01*
X126434940Y-147769111D01*
X126515259Y-147761200D01*
X126515262Y-147761200D01*
X126755456Y-147737543D01*
X127063655Y-147644052D01*
X127347692Y-147492231D01*
X127596654Y-147287914D01*
X127647865Y-147225513D01*
X127847542Y-147025836D01*
X127909933Y-146974633D01*
X128114250Y-146725672D01*
X128266072Y-146441635D01*
X128359563Y-146133436D01*
X128391132Y-145812920D01*
X128381000Y-145710051D01*
X128381000Y-139193249D01*
X128395271Y-131533541D01*
X128987988Y-131533541D01*
X128995900Y-131613870D01*
X128995899Y-138365279D01*
X128987988Y-138445599D01*
X128995899Y-138525918D01*
X128995899Y-138525920D01*
X129019556Y-138766114D01*
X129113047Y-139074313D01*
X129264868Y-139358350D01*
X129469185Y-139607313D01*
X129531585Y-139658524D01*
X131147479Y-141274418D01*
X131198686Y-141336814D01*
X131447648Y-141541131D01*
X131711201Y-141682003D01*
X131731685Y-141692952D01*
X132039883Y-141786443D01*
X132360400Y-141818011D01*
X132440722Y-141810100D01*
X132807925Y-141810100D01*
X132793938Y-141824087D01*
X132647839Y-142042741D01*
X132547204Y-142285695D01*
X132495900Y-142543614D01*
X132495900Y-142806586D01*
X132547204Y-143064505D01*
X132647839Y-143307459D01*
X132793938Y-143526113D01*
X132942925Y-143675100D01*
X132793938Y-143824087D01*
X132647839Y-144042741D01*
X132547204Y-144285695D01*
X132495900Y-144543614D01*
X132495900Y-144806586D01*
X132547204Y-145064505D01*
X132647839Y-145307459D01*
X132793938Y-145526113D01*
X132979887Y-145712062D01*
X133198541Y-145858161D01*
X133360146Y-145925100D01*
X133198541Y-145992039D01*
X132979887Y-146138138D01*
X132793938Y-146324087D01*
X132647839Y-146542741D01*
X132547204Y-146785695D01*
X132495900Y-147043614D01*
X132495900Y-147306586D01*
X132547204Y-147564505D01*
X132647839Y-147807459D01*
X132793938Y-148026113D01*
X132815513Y-148047688D01*
X132814390Y-148047911D01*
X132398547Y-148220159D01*
X132024297Y-148470225D01*
X131706025Y-148788497D01*
X131455959Y-149162747D01*
X131283711Y-149578590D01*
X131195900Y-150020047D01*
X131195900Y-150470153D01*
X131283711Y-150911610D01*
X131455959Y-151327453D01*
X131706025Y-151701703D01*
X132024297Y-152019975D01*
X132398547Y-152270041D01*
X132814390Y-152442289D01*
X133255847Y-152530100D01*
X133705953Y-152530100D01*
X134147410Y-152442289D01*
X134563253Y-152270041D01*
X134937503Y-152019975D01*
X135077378Y-151880100D01*
X137564422Y-151880100D01*
X137704297Y-152019975D01*
X138078547Y-152270041D01*
X138494390Y-152442289D01*
X138935847Y-152530100D01*
X139385953Y-152530100D01*
X139827410Y-152442289D01*
X140243253Y-152270041D01*
X140617503Y-152019975D01*
X140935775Y-151701703D01*
X141185841Y-151327453D01*
X141358089Y-150911610D01*
X141445900Y-150470153D01*
X141445900Y-150020047D01*
X141358089Y-149578590D01*
X141185841Y-149162747D01*
X140935775Y-148788497D01*
X140795900Y-148648622D01*
X140795900Y-138701578D01*
X140853023Y-138644455D01*
X140870368Y-138701635D01*
X141022189Y-138985672D01*
X141226506Y-139234634D01*
X141475469Y-139438951D01*
X141759506Y-139590772D01*
X142067705Y-139684263D01*
X142388220Y-139715831D01*
X142708736Y-139684263D01*
X143016935Y-139590772D01*
X143300972Y-139438951D01*
X143549934Y-139234634D01*
X143754251Y-138985672D01*
X143906072Y-138701634D01*
X143999563Y-138393435D01*
X144023220Y-138153241D01*
X144023220Y-136028000D01*
X144031131Y-135947678D01*
X144000841Y-135640138D01*
X144000841Y-126275618D01*
X144008752Y-126195298D01*
X144000841Y-126114977D01*
X143977184Y-125874783D01*
X143883693Y-125566584D01*
X143731872Y-125282547D01*
X143527555Y-125033585D01*
X143465161Y-124982380D01*
X138902147Y-120419367D01*
X138850936Y-120356966D01*
X138601974Y-120152649D01*
X138317937Y-120000828D01*
X138009738Y-119907337D01*
X137769544Y-119883680D01*
X137769541Y-119883680D01*
X137689222Y-119875769D01*
X137608903Y-119883680D01*
X136270240Y-119883680D01*
X136270240Y-114696262D01*
X136273660Y-114661538D01*
X136281571Y-114581216D01*
X136273660Y-114500894D01*
X136273660Y-113844242D01*
X136434508Y-113683394D01*
X136687528Y-113304723D01*
X136779067Y-113083727D01*
X136910339Y-113400643D01*
X137185520Y-113812481D01*
X137535759Y-114162720D01*
X137947597Y-114437901D01*
X138405207Y-114627450D01*
X138891003Y-114724080D01*
X139386317Y-114724080D01*
X139872113Y-114627450D01*
X140329723Y-114437901D01*
X140741561Y-114162720D01*
X141091800Y-113812481D01*
X141366981Y-113400643D01*
X141556530Y-112943033D01*
X141653160Y-112457237D01*
X141653160Y-111961923D01*
X141556530Y-111476127D01*
X141366981Y-111018517D01*
X141091800Y-110606679D01*
X140741561Y-110256440D01*
X140329723Y-109981259D01*
X139872113Y-109791710D01*
X139386317Y-109695080D01*
X138891003Y-109695080D01*
X138405207Y-109791710D01*
X137947597Y-109981259D01*
X137535759Y-110256440D01*
X137185520Y-110606679D01*
X136910339Y-111018517D01*
X136779067Y-111335433D01*
X136687528Y-111114437D01*
X136434508Y-110735766D01*
X136112474Y-110413732D01*
X135733803Y-110160712D01*
X135313046Y-109986429D01*
X134866372Y-109897580D01*
X134410948Y-109897580D01*
X133964274Y-109986429D01*
X133543517Y-110160712D01*
X133164846Y-110413732D01*
X132842812Y-110735766D01*
X132589792Y-111114437D01*
X132415509Y-111535194D01*
X132326660Y-111981868D01*
X132326660Y-112437292D01*
X132415509Y-112883966D01*
X132589792Y-113304723D01*
X132842812Y-113683394D01*
X133003661Y-113844243D01*
X133003661Y-114469582D01*
X133000240Y-114504314D01*
X132992329Y-114584636D01*
X133000240Y-114664956D01*
X133000241Y-117765569D01*
X133000240Y-117765579D01*
X133000240Y-121438358D01*
X132992329Y-121518680D01*
X133023897Y-121839196D01*
X133117388Y-122147395D01*
X133269209Y-122431432D01*
X133473526Y-122680394D01*
X133722488Y-122884711D01*
X134006525Y-123036532D01*
X134314724Y-123130023D01*
X134554918Y-123153680D01*
X134635240Y-123161591D01*
X134715562Y-123153680D01*
X137011984Y-123153680D01*
X138873137Y-125014834D01*
X138405207Y-125107910D01*
X137947597Y-125297459D01*
X137535759Y-125572640D01*
X137185520Y-125922879D01*
X136910339Y-126334717D01*
X136779067Y-126651633D01*
X136687528Y-126430637D01*
X136434508Y-126051966D01*
X136112474Y-125729932D01*
X135733803Y-125476912D01*
X135313046Y-125302629D01*
X134866372Y-125213780D01*
X134410948Y-125213780D01*
X133964274Y-125302629D01*
X133543517Y-125476912D01*
X133164846Y-125729932D01*
X132842812Y-126051966D01*
X132589792Y-126430637D01*
X132415509Y-126851394D01*
X132326660Y-127298068D01*
X132326660Y-127525541D01*
X131862342Y-127989860D01*
X131862337Y-127989864D01*
X129531581Y-130320621D01*
X129469186Y-130371827D01*
X129332602Y-130538256D01*
X129264869Y-130620789D01*
X129113047Y-130904827D01*
X129019557Y-131213025D01*
X128987988Y-131533541D01*
X128395271Y-131533541D01*
X128423366Y-116454385D01*
X128400157Y-116214148D01*
X128307240Y-115905775D01*
X128155949Y-115621456D01*
X127952096Y-115372113D01*
X127703515Y-115167333D01*
X127419761Y-115014983D01*
X127111737Y-114920918D01*
X126791281Y-114888753D01*
X126470707Y-114919723D01*
X126162335Y-115012640D01*
X125878015Y-115163932D01*
X125628673Y-115367784D01*
X125423892Y-115616365D01*
X125271543Y-115900119D01*
X125177477Y-116208143D01*
X125153373Y-116448293D01*
X125111150Y-139110161D01*
X125111001Y-139111678D01*
X125111001Y-139190383D01*
X125110854Y-139269275D01*
X125111001Y-139270796D01*
X125111000Y-144491200D01*
X119144120Y-144491200D01*
X119063798Y-144483289D01*
X118743281Y-144514857D01*
X118462586Y-144600005D01*
X118435083Y-144608348D01*
X118151046Y-144760169D01*
X117902084Y-144964486D01*
X117850878Y-145026881D01*
X114452685Y-148425075D01*
X114390285Y-148476285D01*
X114185968Y-148725247D01*
X114034147Y-149009284D01*
X113940656Y-149317483D01*
X113928904Y-149436800D01*
X113917745Y-149445958D01*
X113902537Y-149417506D01*
X113823185Y-149320815D01*
X113726494Y-149241463D01*
X113616180Y-149182498D01*
X113496482Y-149146188D01*
X113372000Y-149133928D01*
X111672000Y-149133928D01*
X111547518Y-149146188D01*
X111427820Y-149182498D01*
X111317506Y-149241463D01*
X111220815Y-149320815D01*
X111141463Y-149417506D01*
X111082498Y-149527820D01*
X111046188Y-149647518D01*
X111033928Y-149772000D01*
X111033928Y-151472000D01*
X111046188Y-151596482D01*
X111082498Y-151716180D01*
X111141463Y-151826494D01*
X111220815Y-151923185D01*
X111317506Y-152002537D01*
X111427820Y-152061502D01*
X111547518Y-152097812D01*
X111672000Y-152110072D01*
X113372000Y-152110072D01*
X113496482Y-152097812D01*
X113616180Y-152061502D01*
X113726494Y-152002537D01*
X113823185Y-151923185D01*
X113902537Y-151826494D01*
X113917745Y-151798042D01*
X114149248Y-151988031D01*
X114433285Y-152139852D01*
X114741484Y-152233343D01*
X114981678Y-152257000D01*
X115008821Y-152257000D01*
X115089140Y-152264911D01*
X115169459Y-152257000D01*
X115169462Y-152257000D01*
X115409656Y-152233343D01*
X115717855Y-152139852D01*
X116001892Y-151988031D01*
X116250854Y-151783714D01*
X116302065Y-151721313D01*
X116451636Y-151571743D01*
X116655368Y-151775475D01*
X116898589Y-151937990D01*
X117168842Y-152049932D01*
X117455740Y-152107000D01*
X117748260Y-152107000D01*
X118035158Y-152049932D01*
X118305411Y-151937990D01*
X118548632Y-151775475D01*
X118755475Y-151568632D01*
X118917990Y-151325411D01*
X119029932Y-151055158D01*
X119087000Y-150768260D01*
X119087000Y-150475740D01*
X119029932Y-150188842D01*
X118917990Y-149918589D01*
X118755475Y-149675368D01*
X118548632Y-149468525D01*
X118305411Y-149306010D01*
X118228206Y-149274031D01*
X119741037Y-147761200D01*
X122271073Y-147761200D01*
X121839242Y-147940070D01*
X121310707Y-148293225D01*
X120861225Y-148742707D01*
X120508070Y-149271242D01*
X120264812Y-149858519D01*
X120140800Y-150481968D01*
X120140800Y-151117632D01*
X120264812Y-151741081D01*
X120508070Y-152328358D01*
X120861225Y-152856893D01*
X121310707Y-153306375D01*
X121682801Y-153555000D01*
X67064599Y-153555000D01*
X67436693Y-153306375D01*
X67886175Y-152856893D01*
X68197386Y-152391131D01*
X70577679Y-152391131D01*
X70675003Y-152665492D01*
X70823982Y-152915595D01*
X71018891Y-153131828D01*
X71252240Y-153305881D01*
X71515061Y-153431065D01*
X71662270Y-153475716D01*
X71892160Y-153354395D01*
X71892160Y-152161240D01*
X70698346Y-152161240D01*
X70577679Y-152391131D01*
X68197386Y-152391131D01*
X68239330Y-152328358D01*
X68482588Y-151741081D01*
X68606600Y-151117632D01*
X68606600Y-150481968D01*
X68482588Y-149858519D01*
X68239330Y-149271242D01*
X67886175Y-148742707D01*
X67436693Y-148293225D01*
X66908158Y-147940070D01*
X66320881Y-147696812D01*
X65697432Y-147572800D01*
X65061768Y-147572800D01*
X64438319Y-147696812D01*
X63851042Y-147940070D01*
X63322507Y-148293225D01*
X62873025Y-148742707D01*
X62615000Y-149128870D01*
X62615000Y-142813800D01*
X66773328Y-142813800D01*
X66773328Y-144563800D01*
X66802401Y-144858986D01*
X66888504Y-145142828D01*
X67028327Y-145404418D01*
X67216497Y-145633703D01*
X67445782Y-145821873D01*
X67707372Y-145961696D01*
X67991214Y-146047799D01*
X68286400Y-146076872D01*
X70036400Y-146076872D01*
X70331586Y-146047799D01*
X70615428Y-145961696D01*
X70877018Y-145821873D01*
X71106303Y-145633703D01*
X71294473Y-145404418D01*
X71434296Y-145142828D01*
X71520399Y-144858986D01*
X71549472Y-144563800D01*
X71549472Y-143639110D01*
X75464160Y-147553799D01*
X75464161Y-148325592D01*
X75326080Y-148222599D01*
X75063259Y-148097415D01*
X74916050Y-148052764D01*
X74686160Y-148174085D01*
X74686160Y-149367240D01*
X74706160Y-149367240D01*
X74706160Y-149621240D01*
X74686160Y-149621240D01*
X74686160Y-149641240D01*
X74432160Y-149641240D01*
X74432160Y-149621240D01*
X74412160Y-149621240D01*
X74412160Y-149367240D01*
X74432160Y-149367240D01*
X74432160Y-148174085D01*
X74202270Y-148052764D01*
X74055061Y-148097415D01*
X73792240Y-148222599D01*
X73558891Y-148396652D01*
X73483126Y-148480706D01*
X73458662Y-148400060D01*
X73399697Y-148289746D01*
X73320345Y-148193055D01*
X73223654Y-148113703D01*
X73113340Y-148054738D01*
X72993642Y-148018428D01*
X72869160Y-148006168D01*
X71169160Y-148006168D01*
X71044678Y-148018428D01*
X70924980Y-148054738D01*
X70814666Y-148113703D01*
X70717975Y-148193055D01*
X70638623Y-148289746D01*
X70579658Y-148400060D01*
X70543348Y-148519758D01*
X70531088Y-148644240D01*
X70531088Y-150344240D01*
X70543348Y-150468722D01*
X70579658Y-150588420D01*
X70638623Y-150698734D01*
X70717975Y-150795425D01*
X70814666Y-150874777D01*
X70924980Y-150933742D01*
X71000786Y-150956738D01*
X70823982Y-151152885D01*
X70675003Y-151402988D01*
X70577679Y-151677349D01*
X70698346Y-151907240D01*
X71892160Y-151907240D01*
X71892160Y-151887240D01*
X72146160Y-151887240D01*
X72146160Y-151907240D01*
X72166160Y-151907240D01*
X72166160Y-152161240D01*
X72146160Y-152161240D01*
X72146160Y-153354395D01*
X72376050Y-153475716D01*
X72523259Y-153431065D01*
X72786080Y-153305881D01*
X73019429Y-153131828D01*
X73214338Y-152915595D01*
X73283965Y-152798706D01*
X73405685Y-152980872D01*
X73612528Y-153187715D01*
X73855749Y-153350230D01*
X74126002Y-153462172D01*
X74412900Y-153519240D01*
X74705420Y-153519240D01*
X74992318Y-153462172D01*
X75262571Y-153350230D01*
X75505792Y-153187715D01*
X75712635Y-152980872D01*
X75834355Y-152798706D01*
X75903982Y-152915595D01*
X76098891Y-153131828D01*
X76332240Y-153305881D01*
X76595061Y-153431065D01*
X76742270Y-153475716D01*
X76972160Y-153354395D01*
X76972160Y-152161240D01*
X76952160Y-152161240D01*
X76952160Y-151907240D01*
X76972160Y-151907240D01*
X76972160Y-151887240D01*
X77226160Y-151887240D01*
X77226160Y-151907240D01*
X77246160Y-151907240D01*
X77246160Y-152161240D01*
X77226160Y-152161240D01*
X77226160Y-153354395D01*
X77456050Y-153475716D01*
X77603259Y-153431065D01*
X77866080Y-153305881D01*
X78099429Y-153131828D01*
X78294338Y-152915595D01*
X78363965Y-152798706D01*
X78485685Y-152980872D01*
X78692528Y-153187715D01*
X78935749Y-153350230D01*
X79206002Y-153462172D01*
X79492900Y-153519240D01*
X79785420Y-153519240D01*
X80072318Y-153462172D01*
X80342571Y-153350230D01*
X80585792Y-153187715D01*
X80792635Y-152980872D01*
X80955150Y-152737651D01*
X81067092Y-152467398D01*
X81124160Y-152180500D01*
X81124160Y-151887980D01*
X81067092Y-151601082D01*
X80955150Y-151330829D01*
X80792635Y-151087608D01*
X80585792Y-150880765D01*
X80409754Y-150763140D01*
X80639429Y-150591828D01*
X80834338Y-150375595D01*
X80983317Y-150125492D01*
X81080641Y-149851131D01*
X80959974Y-149621240D01*
X79766160Y-149621240D01*
X79766160Y-149641240D01*
X79512160Y-149641240D01*
X79512160Y-149621240D01*
X79492160Y-149621240D01*
X79492160Y-149367240D01*
X79512160Y-149367240D01*
X79512160Y-148174085D01*
X79766160Y-148174085D01*
X79766160Y-149367240D01*
X80959974Y-149367240D01*
X81080641Y-149137349D01*
X80983317Y-148862988D01*
X80834338Y-148612885D01*
X80639429Y-148396652D01*
X80406080Y-148222599D01*
X80143259Y-148097415D01*
X79996050Y-148052764D01*
X79766160Y-148174085D01*
X79512160Y-148174085D01*
X79282270Y-148052764D01*
X79135061Y-148097415D01*
X78872240Y-148222599D01*
X78734160Y-148325592D01*
X78734160Y-147742492D01*
X85141000Y-147742492D01*
X85141000Y-148182748D01*
X85226890Y-148614545D01*
X85395369Y-149021289D01*
X85639962Y-149387349D01*
X85951271Y-149698658D01*
X86317331Y-149943251D01*
X86724075Y-150111730D01*
X87155872Y-150197620D01*
X87596128Y-150197620D01*
X88027925Y-150111730D01*
X88434669Y-149943251D01*
X88800729Y-149698658D01*
X89112038Y-149387349D01*
X89356631Y-149021289D01*
X89525110Y-148614545D01*
X89611000Y-148182748D01*
X89611000Y-147823772D01*
X105717540Y-147823772D01*
X105717540Y-148264028D01*
X105803430Y-148695825D01*
X105971909Y-149102569D01*
X106216502Y-149468629D01*
X106527811Y-149779938D01*
X106893871Y-150024531D01*
X107300615Y-150193010D01*
X107732412Y-150278900D01*
X108172668Y-150278900D01*
X108604465Y-150193010D01*
X109011209Y-150024531D01*
X109377269Y-149779938D01*
X109688578Y-149468629D01*
X109933171Y-149102569D01*
X110101650Y-148695825D01*
X110187540Y-148264028D01*
X110187540Y-147823772D01*
X110101650Y-147391975D01*
X109933171Y-146985231D01*
X109688578Y-146619171D01*
X109377269Y-146307862D01*
X109011209Y-146063269D01*
X108604465Y-145894790D01*
X108172668Y-145808900D01*
X107732412Y-145808900D01*
X107300615Y-145894790D01*
X106893871Y-146063269D01*
X106527811Y-146307862D01*
X106216502Y-146619171D01*
X105971909Y-146985231D01*
X105803430Y-147391975D01*
X105717540Y-147823772D01*
X89611000Y-147823772D01*
X89611000Y-147742492D01*
X89525110Y-147310695D01*
X89356631Y-146903951D01*
X89112038Y-146537891D01*
X88800729Y-146226582D01*
X88434669Y-145981989D01*
X88027925Y-145813510D01*
X87596128Y-145727620D01*
X87155872Y-145727620D01*
X86724075Y-145813510D01*
X86317331Y-145981989D01*
X85951271Y-146226582D01*
X85639962Y-146537891D01*
X85395369Y-146903951D01*
X85226890Y-147310695D01*
X85141000Y-147742492D01*
X78734160Y-147742492D01*
X78734160Y-146956879D01*
X78742071Y-146876559D01*
X78734160Y-146796238D01*
X78710503Y-146556044D01*
X78617012Y-146247845D01*
X78465191Y-145963808D01*
X78260874Y-145714846D01*
X78198480Y-145663641D01*
X73911682Y-141376844D01*
X74035882Y-141364612D01*
X74155580Y-141328302D01*
X74265894Y-141269337D01*
X74362585Y-141189985D01*
X74441937Y-141093294D01*
X74500902Y-140982980D01*
X74537212Y-140863282D01*
X74549472Y-140738800D01*
X74549472Y-137911275D01*
X77472001Y-140833805D01*
X77472000Y-142298289D01*
X77402663Y-142367626D01*
X77289395Y-142537144D01*
X77211374Y-142725502D01*
X77171600Y-142925461D01*
X77171600Y-143129339D01*
X77211374Y-143329298D01*
X77289395Y-143517656D01*
X77402663Y-143687174D01*
X77546826Y-143831337D01*
X77716344Y-143944605D01*
X77904702Y-144022626D01*
X78104661Y-144062400D01*
X78308539Y-144062400D01*
X78508498Y-144022626D01*
X78696856Y-143944605D01*
X78866374Y-143831337D01*
X79010537Y-143687174D01*
X79108219Y-143540981D01*
X80813220Y-143540981D01*
X80813220Y-143744859D01*
X80852994Y-143944818D01*
X80931015Y-144133176D01*
X81044283Y-144302694D01*
X81188446Y-144446857D01*
X81357964Y-144560125D01*
X81546322Y-144638146D01*
X81746281Y-144677920D01*
X81950159Y-144677920D01*
X82150118Y-144638146D01*
X82338476Y-144560125D01*
X82507994Y-144446857D01*
X82551931Y-144402920D01*
X83330453Y-144402920D01*
X83367775Y-144406596D01*
X83405097Y-144402920D01*
X83405108Y-144402920D01*
X83516761Y-144391923D01*
X83660022Y-144348466D01*
X83792051Y-144277894D01*
X83907776Y-144182921D01*
X83931578Y-144153918D01*
X84366677Y-143718820D01*
X89914919Y-143718820D01*
X90021014Y-143751003D01*
X90132667Y-143762000D01*
X90132675Y-143762000D01*
X90170000Y-143765676D01*
X90207325Y-143762000D01*
X115374289Y-143762000D01*
X115418226Y-143805937D01*
X115587744Y-143919205D01*
X115776102Y-143997226D01*
X115976061Y-144037000D01*
X116179939Y-144037000D01*
X116379898Y-143997226D01*
X116568256Y-143919205D01*
X116737774Y-143805937D01*
X116881937Y-143661774D01*
X116995205Y-143492256D01*
X117073226Y-143303898D01*
X117113000Y-143103939D01*
X117113000Y-142900061D01*
X117073226Y-142700102D01*
X116995205Y-142511744D01*
X116881937Y-142342226D01*
X116737774Y-142198063D01*
X116568256Y-142084795D01*
X116379898Y-142006774D01*
X116179939Y-141967000D01*
X115976061Y-141967000D01*
X115776102Y-142006774D01*
X115587744Y-142084795D01*
X115418226Y-142198063D01*
X115374289Y-142242000D01*
X90381901Y-142242000D01*
X90275806Y-142209817D01*
X90164153Y-142198820D01*
X90164142Y-142198820D01*
X90126820Y-142195144D01*
X90089498Y-142198820D01*
X84089197Y-142198820D01*
X84051874Y-142195144D01*
X84014551Y-142198820D01*
X84014542Y-142198820D01*
X83902889Y-142209817D01*
X83759628Y-142253274D01*
X83627599Y-142323846D01*
X83627597Y-142323847D01*
X83627598Y-142323847D01*
X83540871Y-142395021D01*
X83540867Y-142395025D01*
X83511874Y-142418819D01*
X83488080Y-142447812D01*
X83052973Y-142882920D01*
X82551931Y-142882920D01*
X82507994Y-142838983D01*
X82338476Y-142725715D01*
X82150118Y-142647694D01*
X81950159Y-142607920D01*
X81746281Y-142607920D01*
X81546322Y-142647694D01*
X81357964Y-142725715D01*
X81188446Y-142838983D01*
X81044283Y-142983146D01*
X80931015Y-143152664D01*
X80852994Y-143341022D01*
X80813220Y-143540981D01*
X79108219Y-143540981D01*
X79123805Y-143517656D01*
X79201826Y-143329298D01*
X79241600Y-143129339D01*
X79241600Y-142925461D01*
X79201826Y-142725502D01*
X79123805Y-142537144D01*
X79010537Y-142367626D01*
X78992000Y-142349089D01*
X78992000Y-141270507D01*
X79017404Y-141268005D01*
X79160665Y-141224548D01*
X79292694Y-141153976D01*
X79408419Y-141059003D01*
X79432221Y-141030000D01*
X80738699Y-139723523D01*
X80828952Y-139771765D01*
X80972213Y-139815222D01*
X81083866Y-139826219D01*
X81083876Y-139826219D01*
X81121198Y-139829895D01*
X81158521Y-139826219D01*
X83461419Y-139826219D01*
X83498741Y-139829895D01*
X83536063Y-139826219D01*
X83536074Y-139826219D01*
X83647727Y-139815222D01*
X83790988Y-139771765D01*
X83923017Y-139701193D01*
X84038742Y-139606220D01*
X84062545Y-139577216D01*
X84398780Y-139240981D01*
X88283220Y-139240981D01*
X88283220Y-139444859D01*
X88322994Y-139644818D01*
X88401015Y-139833176D01*
X88452769Y-139910631D01*
X88411935Y-139971744D01*
X88333914Y-140160102D01*
X88294140Y-140360061D01*
X88294140Y-140563939D01*
X88333914Y-140763898D01*
X88411935Y-140952256D01*
X88525203Y-141121774D01*
X88669366Y-141265937D01*
X88838884Y-141379205D01*
X89027242Y-141457226D01*
X89227201Y-141497000D01*
X89431079Y-141497000D01*
X89631038Y-141457226D01*
X89761295Y-141403271D01*
X89802022Y-141443998D01*
X89825825Y-141473002D01*
X89898972Y-141533032D01*
X89941549Y-141567975D01*
X90035670Y-141618284D01*
X90073579Y-141638547D01*
X90216840Y-141682004D01*
X90328493Y-141693001D01*
X90328503Y-141693001D01*
X90365825Y-141696677D01*
X90403148Y-141693001D01*
X114807677Y-141693001D01*
X114844999Y-141696677D01*
X114882321Y-141693001D01*
X114882332Y-141693001D01*
X114993985Y-141682004D01*
X115137246Y-141638547D01*
X115269275Y-141567975D01*
X115385000Y-141473002D01*
X115408802Y-141443999D01*
X116117802Y-140735000D01*
X116179939Y-140735000D01*
X116379898Y-140695226D01*
X116568256Y-140617205D01*
X116737774Y-140503937D01*
X116881937Y-140359774D01*
X116995205Y-140190256D01*
X117073226Y-140001898D01*
X117113000Y-139801939D01*
X117113000Y-139598061D01*
X117073226Y-139398102D01*
X116995205Y-139209744D01*
X116881937Y-139040226D01*
X116737774Y-138896063D01*
X116568256Y-138782795D01*
X116379898Y-138704774D01*
X116179939Y-138665000D01*
X115976061Y-138665000D01*
X115776102Y-138704774D01*
X115587744Y-138782795D01*
X115418226Y-138896063D01*
X115274063Y-139040226D01*
X115160795Y-139209744D01*
X115082774Y-139398102D01*
X115043000Y-139598061D01*
X115043000Y-139660198D01*
X114530198Y-140173001D01*
X90680627Y-140173001D01*
X90610546Y-140102920D01*
X91759758Y-140102920D01*
X91797080Y-140106596D01*
X91834402Y-140102920D01*
X91834413Y-140102920D01*
X91946066Y-140091923D01*
X92089327Y-140048466D01*
X92221356Y-139977894D01*
X92337081Y-139882921D01*
X92360884Y-139853917D01*
X95289802Y-136925000D01*
X95351939Y-136925000D01*
X95551898Y-136885226D01*
X95740256Y-136807205D01*
X95909774Y-136693937D01*
X96053937Y-136549774D01*
X96167205Y-136380256D01*
X96245226Y-136191898D01*
X96285000Y-135991939D01*
X96285000Y-135788061D01*
X96245226Y-135588102D01*
X96167205Y-135399744D01*
X96053937Y-135230226D01*
X96010000Y-135186289D01*
X96010000Y-133535081D01*
X105566260Y-133535081D01*
X105566260Y-133738959D01*
X105606034Y-133938918D01*
X105684055Y-134127276D01*
X105797323Y-134296794D01*
X105941486Y-134440957D01*
X106111004Y-134554225D01*
X106299362Y-134632246D01*
X106499321Y-134672020D01*
X106703199Y-134672020D01*
X106903158Y-134632246D01*
X107091516Y-134554225D01*
X107261034Y-134440957D01*
X107405197Y-134296794D01*
X107518465Y-134127276D01*
X107596486Y-133938918D01*
X107636260Y-133738959D01*
X107636260Y-133535081D01*
X107596486Y-133335122D01*
X107518465Y-133146764D01*
X107405197Y-132977246D01*
X107389200Y-132961249D01*
X107389200Y-129240981D01*
X109533220Y-129240981D01*
X109533220Y-129444859D01*
X109572994Y-129644818D01*
X109651015Y-129833176D01*
X109764283Y-130002694D01*
X109908446Y-130146857D01*
X110077964Y-130260125D01*
X110266322Y-130338146D01*
X110466281Y-130377920D01*
X110670159Y-130377920D01*
X110870118Y-130338146D01*
X111058476Y-130260125D01*
X111227994Y-130146857D01*
X111282944Y-130091907D01*
X111426152Y-130048466D01*
X111558181Y-129977894D01*
X111673906Y-129882921D01*
X111697709Y-129853917D01*
X111828706Y-129722920D01*
X117063419Y-129722920D01*
X120174421Y-132833923D01*
X120198219Y-132862921D01*
X120313944Y-132957894D01*
X120445973Y-133028466D01*
X120589234Y-133071923D01*
X120645320Y-133077447D01*
X120738220Y-133086597D01*
X120775553Y-133082920D01*
X121824509Y-133082920D01*
X121868446Y-133126857D01*
X122037964Y-133240125D01*
X122226322Y-133318146D01*
X122426281Y-133357920D01*
X122630159Y-133357920D01*
X122830118Y-133318146D01*
X123018476Y-133240125D01*
X123187994Y-133126857D01*
X123332157Y-132982694D01*
X123445425Y-132813176D01*
X123523446Y-132624818D01*
X123563220Y-132424859D01*
X123563220Y-132220981D01*
X123523446Y-132021022D01*
X123445425Y-131832664D01*
X123332157Y-131663146D01*
X123187994Y-131518983D01*
X123018476Y-131405715D01*
X122830118Y-131327694D01*
X122630159Y-131287920D01*
X122426281Y-131287920D01*
X122226322Y-131327694D01*
X122037964Y-131405715D01*
X121868446Y-131518983D01*
X121824509Y-131562920D01*
X121053022Y-131562920D01*
X117942024Y-128451923D01*
X117918221Y-128422919D01*
X117802496Y-128327946D01*
X117670467Y-128257374D01*
X117527206Y-128213917D01*
X117415553Y-128202920D01*
X117415542Y-128202920D01*
X117378220Y-128199244D01*
X117340898Y-128202920D01*
X111551227Y-128202920D01*
X111513904Y-128199244D01*
X111476581Y-128202920D01*
X111476572Y-128202920D01*
X111364919Y-128213917D01*
X111221658Y-128257374D01*
X111089629Y-128327946D01*
X111000008Y-128401496D01*
X110870118Y-128347694D01*
X110670159Y-128307920D01*
X110466281Y-128307920D01*
X110266322Y-128347694D01*
X110077964Y-128425715D01*
X109908446Y-128538983D01*
X109764283Y-128683146D01*
X109651015Y-128852664D01*
X109572994Y-129041022D01*
X109533220Y-129240981D01*
X107389200Y-129240981D01*
X107389200Y-128183771D01*
X107433137Y-128139834D01*
X107546405Y-127970316D01*
X107624426Y-127781958D01*
X107664200Y-127581999D01*
X107664200Y-127378121D01*
X107624426Y-127178162D01*
X107546405Y-126989804D01*
X107433137Y-126820286D01*
X107288974Y-126676123D01*
X107119456Y-126562855D01*
X106931098Y-126484834D01*
X106731139Y-126445060D01*
X106527261Y-126445060D01*
X106327302Y-126484834D01*
X106138944Y-126562855D01*
X105969426Y-126676123D01*
X105825263Y-126820286D01*
X105711995Y-126989804D01*
X105633974Y-127178162D01*
X105594200Y-127378121D01*
X105594200Y-127581999D01*
X105633974Y-127781958D01*
X105711995Y-127970316D01*
X105825263Y-128139834D01*
X105869200Y-128183771D01*
X105869201Y-132905368D01*
X105797323Y-132977246D01*
X105684055Y-133146764D01*
X105606034Y-133335122D01*
X105566260Y-133535081D01*
X96010000Y-133535081D01*
X96010000Y-131716621D01*
X98623588Y-129103035D01*
X98652581Y-129079241D01*
X98676375Y-129050248D01*
X98676379Y-129050244D01*
X98747553Y-128963517D01*
X98747554Y-128963516D01*
X98818126Y-128831487D01*
X98861583Y-128688226D01*
X98872580Y-128576573D01*
X98872580Y-128576564D01*
X98874288Y-128559221D01*
X101362560Y-128559221D01*
X101362560Y-128763099D01*
X101402334Y-128963058D01*
X101480355Y-129151416D01*
X101593623Y-129320934D01*
X101637560Y-129364871D01*
X101637561Y-131529588D01*
X101633884Y-131566920D01*
X101648558Y-131715905D01*
X101692014Y-131859166D01*
X101762586Y-131991196D01*
X101800008Y-132036794D01*
X101857560Y-132106921D01*
X101886558Y-132130719D01*
X102063600Y-132307761D01*
X102063600Y-132369899D01*
X102103374Y-132569858D01*
X102181395Y-132758216D01*
X102294663Y-132927734D01*
X102438826Y-133071897D01*
X102608344Y-133185165D01*
X102796702Y-133263186D01*
X102996661Y-133302960D01*
X103200539Y-133302960D01*
X103400498Y-133263186D01*
X103588856Y-133185165D01*
X103758374Y-133071897D01*
X103902537Y-132927734D01*
X104015805Y-132758216D01*
X104093826Y-132569858D01*
X104133600Y-132369899D01*
X104133600Y-132166021D01*
X104093826Y-131966062D01*
X104015805Y-131777704D01*
X103902537Y-131608186D01*
X103758374Y-131464023D01*
X103588856Y-131350755D01*
X103400498Y-131272734D01*
X103200539Y-131232960D01*
X103157560Y-131232960D01*
X103157560Y-129364871D01*
X103201497Y-129320934D01*
X103314765Y-129151416D01*
X103392786Y-128963058D01*
X103432560Y-128763099D01*
X103432560Y-128559221D01*
X103392786Y-128359262D01*
X103314765Y-128170904D01*
X103201497Y-128001386D01*
X103057334Y-127857223D01*
X102887816Y-127743955D01*
X102699458Y-127665934D01*
X102499499Y-127626160D01*
X102295621Y-127626160D01*
X102095662Y-127665934D01*
X101907304Y-127743955D01*
X101737786Y-127857223D01*
X101593623Y-128001386D01*
X101480355Y-128170904D01*
X101402334Y-128359262D01*
X101362560Y-128559221D01*
X98874288Y-128559221D01*
X98876256Y-128539241D01*
X98872580Y-128501918D01*
X98872580Y-126921391D01*
X98916517Y-126877454D01*
X99029785Y-126707936D01*
X99107806Y-126519578D01*
X99147580Y-126319619D01*
X99147580Y-126115741D01*
X99107806Y-125915782D01*
X99029785Y-125727424D01*
X98916517Y-125557906D01*
X98772354Y-125413743D01*
X98602836Y-125300475D01*
X98414478Y-125222454D01*
X98214519Y-125182680D01*
X98010641Y-125182680D01*
X97810682Y-125222454D01*
X97622324Y-125300475D01*
X97452806Y-125413743D01*
X97308643Y-125557906D01*
X97195375Y-125727424D01*
X97117354Y-125915782D01*
X97077580Y-126115741D01*
X97077580Y-126319619D01*
X97117354Y-126519578D01*
X97195375Y-126707936D01*
X97308643Y-126877454D01*
X97352580Y-126921391D01*
X97352581Y-128224436D01*
X96198272Y-129378746D01*
X96167205Y-129303744D01*
X96053937Y-129134226D01*
X95909774Y-128990063D01*
X95740256Y-128876795D01*
X95551898Y-128798774D01*
X95351939Y-128759000D01*
X95148061Y-128759000D01*
X94948102Y-128798774D01*
X94759744Y-128876795D01*
X94590226Y-128990063D01*
X94446063Y-129134226D01*
X94332795Y-129303744D01*
X94278841Y-129433999D01*
X92782521Y-129433999D01*
X92751937Y-129388226D01*
X92607774Y-129244063D01*
X92438256Y-129130795D01*
X92249898Y-129052774D01*
X92049939Y-129013000D01*
X91846061Y-129013000D01*
X91646102Y-129052774D01*
X91457744Y-129130795D01*
X91288226Y-129244063D01*
X91144063Y-129388226D01*
X91030795Y-129557744D01*
X90952774Y-129746102D01*
X90913000Y-129946061D01*
X90913000Y-130149939D01*
X90952774Y-130349898D01*
X91030795Y-130538256D01*
X91144063Y-130707774D01*
X91288226Y-130851937D01*
X91457744Y-130965205D01*
X91646102Y-131043226D01*
X91846061Y-131083000D01*
X92049939Y-131083000D01*
X92249898Y-131043226D01*
X92438256Y-130965205D01*
X92455027Y-130953999D01*
X94634349Y-130953999D01*
X94615026Y-130977544D01*
X94579918Y-131043226D01*
X94544454Y-131109574D01*
X94500997Y-131252835D01*
X94490000Y-131364488D01*
X94490000Y-131364498D01*
X94486324Y-131401820D01*
X94490000Y-131439143D01*
X94490001Y-133666290D01*
X94385774Y-133562063D01*
X94216256Y-133448795D01*
X94027898Y-133370774D01*
X93827939Y-133331000D01*
X93624061Y-133331000D01*
X93424102Y-133370774D01*
X93235744Y-133448795D01*
X93066226Y-133562063D01*
X92922063Y-133706226D01*
X92808795Y-133875744D01*
X92730774Y-134064102D01*
X92691000Y-134264061D01*
X92691000Y-134467939D01*
X92730774Y-134667898D01*
X92808795Y-134856256D01*
X92922063Y-135025774D01*
X93066226Y-135169937D01*
X93235744Y-135283205D01*
X93424102Y-135361226D01*
X93624061Y-135401000D01*
X93827939Y-135401000D01*
X94027898Y-135361226D01*
X94216256Y-135283205D01*
X94385774Y-135169937D01*
X94490001Y-135065710D01*
X94490001Y-135186288D01*
X94446063Y-135230226D01*
X94332795Y-135399744D01*
X94254774Y-135588102D01*
X94215000Y-135788061D01*
X94215000Y-135850198D01*
X91482279Y-138582920D01*
X90021931Y-138582920D01*
X89977994Y-138538983D01*
X89808476Y-138425715D01*
X89620118Y-138347694D01*
X89420159Y-138307920D01*
X89216281Y-138307920D01*
X89016322Y-138347694D01*
X88827964Y-138425715D01*
X88658446Y-138538983D01*
X88514283Y-138683146D01*
X88401015Y-138852664D01*
X88322994Y-139041022D01*
X88283220Y-139240981D01*
X84398780Y-139240981D01*
X86624624Y-137015138D01*
X86653621Y-136991341D01*
X86748594Y-136875616D01*
X86819166Y-136743587D01*
X86862623Y-136600326D01*
X86873620Y-136488673D01*
X86873620Y-136488664D01*
X86877296Y-136451341D01*
X86873620Y-136414018D01*
X86873620Y-134609971D01*
X86917557Y-134566034D01*
X87030825Y-134396516D01*
X87108846Y-134208158D01*
X87148620Y-134008199D01*
X87148620Y-133804321D01*
X87108846Y-133604362D01*
X87030825Y-133416004D01*
X86917557Y-133246486D01*
X86773394Y-133102323D01*
X86603876Y-132989055D01*
X86415518Y-132911034D01*
X86215559Y-132871260D01*
X86011681Y-132871260D01*
X85825280Y-132908337D01*
X85825280Y-132714661D01*
X85785506Y-132514702D01*
X85707485Y-132326344D01*
X85594217Y-132156826D01*
X85450054Y-132012663D01*
X85280536Y-131899395D01*
X85092178Y-131821374D01*
X84892219Y-131781600D01*
X84830082Y-131781600D01*
X83685304Y-130636823D01*
X83661501Y-130607819D01*
X83545776Y-130512846D01*
X83413747Y-130442274D01*
X83270486Y-130398817D01*
X83158833Y-130387820D01*
X83158822Y-130387820D01*
X83121500Y-130384144D01*
X83084178Y-130387820D01*
X77487911Y-130387820D01*
X77443974Y-130343883D01*
X77274456Y-130230615D01*
X77086098Y-130152594D01*
X76886139Y-130112820D01*
X76682261Y-130112820D01*
X76482302Y-130152594D01*
X76293944Y-130230615D01*
X76124426Y-130343883D01*
X75980263Y-130488046D01*
X75866995Y-130657564D01*
X75788974Y-130845922D01*
X75749200Y-131045881D01*
X75749200Y-131249759D01*
X75788974Y-131449718D01*
X75866995Y-131638076D01*
X75980263Y-131807594D01*
X76124426Y-131951757D01*
X76293944Y-132065025D01*
X76482302Y-132143046D01*
X76682261Y-132182820D01*
X76886139Y-132182820D01*
X77086098Y-132143046D01*
X77274456Y-132065025D01*
X77443974Y-131951757D01*
X77487911Y-131907820D01*
X82806699Y-131907820D01*
X83755280Y-132856402D01*
X83755280Y-132918539D01*
X83795054Y-133118498D01*
X83873075Y-133306856D01*
X83986343Y-133476374D01*
X84130506Y-133620537D01*
X84300024Y-133733805D01*
X84488382Y-133811826D01*
X84688341Y-133851600D01*
X84892219Y-133851600D01*
X85078620Y-133814523D01*
X85078620Y-134008199D01*
X85118394Y-134208158D01*
X85196415Y-134396516D01*
X85309683Y-134566034D01*
X85353621Y-134609972D01*
X85353620Y-136136538D01*
X83183940Y-138306219D01*
X81692359Y-138306219D01*
X81638405Y-138175964D01*
X81525137Y-138006446D01*
X81380974Y-137862283D01*
X81211456Y-137749015D01*
X81023098Y-137670994D01*
X80823139Y-137631220D01*
X80619261Y-137631220D01*
X80419302Y-137670994D01*
X80230944Y-137749015D01*
X80061426Y-137862283D01*
X79917263Y-138006446D01*
X79803995Y-138175964D01*
X79725974Y-138364322D01*
X79686200Y-138564281D01*
X79686200Y-138626418D01*
X78553617Y-139759002D01*
X78546802Y-139759002D01*
X75348001Y-136560202D01*
X75348001Y-130036780D01*
X76880681Y-128504101D01*
X77025161Y-128532840D01*
X77229039Y-128532840D01*
X77428998Y-128493066D01*
X77617356Y-128415045D01*
X77786874Y-128301777D01*
X77830811Y-128257840D01*
X79545049Y-128257840D01*
X79588986Y-128301777D01*
X79758504Y-128415045D01*
X79946862Y-128493066D01*
X80146821Y-128532840D01*
X80350699Y-128532840D01*
X80550658Y-128493066D01*
X80739016Y-128415045D01*
X80908534Y-128301777D01*
X81052697Y-128157614D01*
X81165965Y-127988096D01*
X81243986Y-127799738D01*
X81283760Y-127599779D01*
X81283760Y-127537641D01*
X83045142Y-125776260D01*
X85178769Y-125776260D01*
X85222706Y-125820197D01*
X85392224Y-125933465D01*
X85580582Y-126011486D01*
X85780541Y-126051260D01*
X85984419Y-126051260D01*
X86184378Y-126011486D01*
X86372736Y-125933465D01*
X86542254Y-125820197D01*
X86686417Y-125676034D01*
X86799685Y-125506516D01*
X86877706Y-125318158D01*
X86917480Y-125118199D01*
X86917480Y-124914321D01*
X86877706Y-124714362D01*
X86799685Y-124526004D01*
X86686417Y-124356486D01*
X86542254Y-124212323D01*
X86372736Y-124099055D01*
X86184378Y-124021034D01*
X85984419Y-123981260D01*
X85780541Y-123981260D01*
X85580582Y-124021034D01*
X85392224Y-124099055D01*
X85222706Y-124212323D01*
X85178769Y-124256260D01*
X82767662Y-124256260D01*
X82730339Y-124252584D01*
X82693016Y-124256260D01*
X82693007Y-124256260D01*
X82581354Y-124267257D01*
X82438093Y-124310714D01*
X82306063Y-124381286D01*
X82222423Y-124449928D01*
X82190339Y-124476259D01*
X82166541Y-124505257D01*
X80208959Y-126462840D01*
X80146821Y-126462840D01*
X79946862Y-126502614D01*
X79758504Y-126580635D01*
X79588986Y-126693903D01*
X79545049Y-126737840D01*
X77830811Y-126737840D01*
X77786874Y-126693903D01*
X77617356Y-126580635D01*
X77428998Y-126502614D01*
X77229039Y-126462840D01*
X77025161Y-126462840D01*
X76825202Y-126502614D01*
X76636844Y-126580635D01*
X76467326Y-126693903D01*
X76323163Y-126838066D01*
X76209895Y-127007584D01*
X76197380Y-127037798D01*
X74076999Y-129158180D01*
X74048001Y-129181978D01*
X74024203Y-129210976D01*
X74024202Y-129210977D01*
X73953027Y-129297703D01*
X73882455Y-129429733D01*
X73860609Y-129501754D01*
X73838999Y-129572993D01*
X73831021Y-129653998D01*
X73824325Y-129721979D01*
X73828002Y-129759311D01*
X73828001Y-136600728D01*
X70411400Y-136600728D01*
X70286918Y-136612988D01*
X70167220Y-136649298D01*
X70056906Y-136708263D01*
X69960215Y-136787615D01*
X69880863Y-136884306D01*
X69821898Y-136994620D01*
X69785588Y-137114318D01*
X69773328Y-137238800D01*
X69773328Y-140738800D01*
X69785588Y-140863282D01*
X69821898Y-140982980D01*
X69880863Y-141093294D01*
X69960215Y-141189985D01*
X70056906Y-141269337D01*
X70133531Y-141310294D01*
X70036400Y-141300728D01*
X68286400Y-141300728D01*
X67991214Y-141329801D01*
X67707372Y-141415904D01*
X67445782Y-141555727D01*
X67216497Y-141743897D01*
X67028327Y-141973182D01*
X66888504Y-142234772D01*
X66802401Y-142518614D01*
X66773328Y-142813800D01*
X62615000Y-142813800D01*
X62615000Y-140738800D01*
X64023328Y-140738800D01*
X64035588Y-140863282D01*
X64071898Y-140982980D01*
X64130863Y-141093294D01*
X64210215Y-141189985D01*
X64306906Y-141269337D01*
X64417220Y-141328302D01*
X64536918Y-141364612D01*
X64661400Y-141376872D01*
X65875650Y-141373800D01*
X66034400Y-141215050D01*
X66034400Y-139115800D01*
X66288400Y-139115800D01*
X66288400Y-141215050D01*
X66447150Y-141373800D01*
X67661400Y-141376872D01*
X67785882Y-141364612D01*
X67905580Y-141328302D01*
X68015894Y-141269337D01*
X68112585Y-141189985D01*
X68191937Y-141093294D01*
X68250902Y-140982980D01*
X68287212Y-140863282D01*
X68299472Y-140738800D01*
X68296400Y-139274550D01*
X68137650Y-139115800D01*
X66288400Y-139115800D01*
X66034400Y-139115800D01*
X64185150Y-139115800D01*
X64026400Y-139274550D01*
X64023328Y-140738800D01*
X62615000Y-140738800D01*
X62615000Y-137238800D01*
X64023328Y-137238800D01*
X64026400Y-138703050D01*
X64185150Y-138861800D01*
X66034400Y-138861800D01*
X66034400Y-136762550D01*
X66288400Y-136762550D01*
X66288400Y-138861800D01*
X68137650Y-138861800D01*
X68296400Y-138703050D01*
X68299472Y-137238800D01*
X68287212Y-137114318D01*
X68250902Y-136994620D01*
X68191937Y-136884306D01*
X68112585Y-136787615D01*
X68015894Y-136708263D01*
X67905580Y-136649298D01*
X67785882Y-136612988D01*
X67661400Y-136600728D01*
X66447150Y-136603800D01*
X66288400Y-136762550D01*
X66034400Y-136762550D01*
X65875650Y-136603800D01*
X64661400Y-136600728D01*
X64536918Y-136612988D01*
X64417220Y-136649298D01*
X64306906Y-136708263D01*
X64210215Y-136787615D01*
X64130863Y-136884306D01*
X64071898Y-136994620D01*
X64035588Y-137114318D01*
X64023328Y-137238800D01*
X62615000Y-137238800D01*
X62615000Y-131166890D01*
X63836524Y-131166890D01*
X63881175Y-131314099D01*
X64006359Y-131576920D01*
X64180412Y-131810269D01*
X64396645Y-132005178D01*
X64646748Y-132154157D01*
X64921109Y-132251481D01*
X65151000Y-132130814D01*
X65151000Y-130937000D01*
X65405000Y-130937000D01*
X65405000Y-132130814D01*
X65634891Y-132251481D01*
X65909252Y-132154157D01*
X66159355Y-132005178D01*
X66375588Y-131810269D01*
X66549641Y-131576920D01*
X66674825Y-131314099D01*
X66719476Y-131166890D01*
X66598155Y-130937000D01*
X65405000Y-130937000D01*
X65151000Y-130937000D01*
X63957845Y-130937000D01*
X63836524Y-131166890D01*
X62615000Y-131166890D01*
X62615000Y-109132000D01*
X63789928Y-109132000D01*
X63789928Y-110832000D01*
X63802188Y-110956482D01*
X63838498Y-111076180D01*
X63897463Y-111186494D01*
X63976815Y-111283185D01*
X64073506Y-111362537D01*
X64183820Y-111421502D01*
X64264466Y-111445966D01*
X64180412Y-111521731D01*
X64006359Y-111755080D01*
X63881175Y-112017901D01*
X63836524Y-112165110D01*
X63957845Y-112395000D01*
X65151000Y-112395000D01*
X65151000Y-112375000D01*
X65405000Y-112375000D01*
X65405000Y-112395000D01*
X66598155Y-112395000D01*
X66719476Y-112165110D01*
X66674825Y-112017901D01*
X66549641Y-111755080D01*
X66375588Y-111521731D01*
X66291534Y-111445966D01*
X66372180Y-111421502D01*
X66482494Y-111362537D01*
X66579185Y-111283185D01*
X66658537Y-111186494D01*
X66717502Y-111076180D01*
X66753812Y-110956482D01*
X66766072Y-110832000D01*
X66766072Y-109132000D01*
X66753812Y-109007518D01*
X66717502Y-108887820D01*
X66658537Y-108777506D01*
X66579185Y-108680815D01*
X66482494Y-108601463D01*
X66372180Y-108542498D01*
X66252482Y-108506188D01*
X66128000Y-108493928D01*
X64428000Y-108493928D01*
X64303518Y-108506188D01*
X64183820Y-108542498D01*
X64073506Y-108601463D01*
X63976815Y-108680815D01*
X63897463Y-108777506D01*
X63838498Y-108887820D01*
X63802188Y-109007518D01*
X63789928Y-109132000D01*
X62615000Y-109132000D01*
X62615000Y-103474130D01*
X62873025Y-103860293D01*
X63322507Y-104309775D01*
X63851042Y-104662930D01*
X64438319Y-104906188D01*
X65061768Y-105030200D01*
X65697432Y-105030200D01*
X66320881Y-104906188D01*
X66908158Y-104662930D01*
X67436693Y-104309775D01*
X67886175Y-103860293D01*
X68239330Y-103331758D01*
X68482588Y-102744481D01*
X68606600Y-102121032D01*
X68606600Y-101485368D01*
X68482588Y-100861919D01*
X68239330Y-100274642D01*
X67886175Y-99746107D01*
X67436693Y-99296625D01*
X67030177Y-99025000D01*
X78286938Y-99025000D01*
X78235188Y-99076750D01*
G37*
G04 #@! TD.AperFunction*
D25*
X136910339Y-128716843D02*
X137185520Y-129128681D01*
X137535759Y-129478920D01*
X137947597Y-129754101D01*
X138405207Y-129943650D01*
X138891003Y-130040280D01*
X139386317Y-130040280D01*
X139872113Y-129943650D01*
X140329723Y-129754101D01*
X140730841Y-129486083D01*
X140730842Y-134514968D01*
X140730841Y-134514978D01*
X140730841Y-135443563D01*
X140617503Y-135330225D01*
X140243253Y-135080159D01*
X139827410Y-134907911D01*
X139385953Y-134820100D01*
X138935847Y-134820100D01*
X138494390Y-134907911D01*
X138078547Y-135080159D01*
X137704297Y-135330225D01*
X137564422Y-135470100D01*
X135077378Y-135470100D01*
X134937503Y-135330225D01*
X134563253Y-135080159D01*
X134147410Y-134907911D01*
X133705953Y-134820100D01*
X133255847Y-134820100D01*
X132814390Y-134907911D01*
X132398547Y-135080159D01*
X132265899Y-135168792D01*
X132265899Y-132210779D01*
X134174576Y-130302103D01*
X134174580Y-130302098D01*
X134638899Y-129837780D01*
X134866372Y-129837780D01*
X135313046Y-129748931D01*
X135733803Y-129574648D01*
X136112474Y-129321628D01*
X136434508Y-128999594D01*
X136687528Y-128620923D01*
X136779067Y-128399927D01*
X136910339Y-128716843D01*
G04 #@! TA.AperFunction,Conductor*
D26*
G36*
X136910339Y-128716843D02*
G01*
X137185520Y-129128681D01*
X137535759Y-129478920D01*
X137947597Y-129754101D01*
X138405207Y-129943650D01*
X138891003Y-130040280D01*
X139386317Y-130040280D01*
X139872113Y-129943650D01*
X140329723Y-129754101D01*
X140730841Y-129486083D01*
X140730842Y-134514968D01*
X140730841Y-134514978D01*
X140730841Y-135443563D01*
X140617503Y-135330225D01*
X140243253Y-135080159D01*
X139827410Y-134907911D01*
X139385953Y-134820100D01*
X138935847Y-134820100D01*
X138494390Y-134907911D01*
X138078547Y-135080159D01*
X137704297Y-135330225D01*
X137564422Y-135470100D01*
X135077378Y-135470100D01*
X134937503Y-135330225D01*
X134563253Y-135080159D01*
X134147410Y-134907911D01*
X133705953Y-134820100D01*
X133255847Y-134820100D01*
X132814390Y-134907911D01*
X132398547Y-135080159D01*
X132265899Y-135168792D01*
X132265899Y-132210779D01*
X134174576Y-130302103D01*
X134174580Y-130302098D01*
X134638899Y-129837780D01*
X134866372Y-129837780D01*
X135313046Y-129748931D01*
X135733803Y-129574648D01*
X136112474Y-129321628D01*
X136434508Y-128999594D01*
X136687528Y-128620923D01*
X136779067Y-128399927D01*
X136910339Y-128716843D01*
G37*
G04 #@! TD.AperFunction*
D25*
X102375135Y-109271437D02*
X102361295Y-109282795D01*
X102281943Y-109379486D01*
X102222978Y-109489800D01*
X102186668Y-109609498D01*
X102174408Y-109733980D01*
X102174408Y-111433980D01*
X102186668Y-111558462D01*
X102222978Y-111678160D01*
X102281943Y-111788474D01*
X102361295Y-111885165D01*
X102457986Y-111964517D01*
X102568300Y-112023482D01*
X102687998Y-112059792D01*
X102812480Y-112072052D01*
X104512480Y-112072052D01*
X104636962Y-112059792D01*
X104756660Y-112023482D01*
X104866974Y-111964517D01*
X104963665Y-111885165D01*
X105043017Y-111788474D01*
X105101982Y-111678160D01*
X105122219Y-111611446D01*
X105253308Y-111742535D01*
X105427700Y-111859060D01*
X105253308Y-111975585D01*
X105046465Y-112182428D01*
X104883950Y-112425649D01*
X104772008Y-112695902D01*
X104714940Y-112982800D01*
X104714940Y-113275320D01*
X104772008Y-113562218D01*
X104883950Y-113832471D01*
X105046465Y-114075692D01*
X105253308Y-114282535D01*
X105496529Y-114445050D01*
X105614150Y-114493770D01*
X100620052Y-114493770D01*
X100582729Y-114490094D01*
X100545406Y-114493770D01*
X100545397Y-114493770D01*
X100433744Y-114504767D01*
X100294670Y-114546954D01*
X100290483Y-114548224D01*
X100158453Y-114618796D01*
X100074813Y-114687438D01*
X100042729Y-114713769D01*
X100018931Y-114742767D01*
X99312108Y-115449590D01*
X99091960Y-115405800D01*
X98799440Y-115405800D01*
X98512542Y-115462868D01*
X98242289Y-115574810D01*
X97999068Y-115737325D01*
X97792225Y-115944168D01*
X97675700Y-116118560D01*
X97559175Y-115944168D01*
X97352332Y-115737325D01*
X97109111Y-115574810D01*
X96838858Y-115462868D01*
X96551960Y-115405800D01*
X96259440Y-115405800D01*
X95972542Y-115462868D01*
X95702289Y-115574810D01*
X95459068Y-115737325D01*
X95327213Y-115869180D01*
X95305202Y-115796620D01*
X95255781Y-115704161D01*
X95437996Y-115628685D01*
X95607514Y-115515417D01*
X95751677Y-115371254D01*
X95864945Y-115201736D01*
X95942966Y-115013378D01*
X95982740Y-114813419D01*
X95982740Y-114609541D01*
X95942966Y-114409582D01*
X95864945Y-114221224D01*
X95782740Y-114098195D01*
X95782740Y-113138429D01*
X95826723Y-113220714D01*
X95906075Y-113317405D01*
X96002766Y-113396757D01*
X96113080Y-113455722D01*
X96232778Y-113492032D01*
X96357260Y-113504292D01*
X97171510Y-113501220D01*
X97330260Y-113342470D01*
X97330260Y-112123220D01*
X97584260Y-112123220D01*
X97584260Y-113342470D01*
X97743010Y-113501220D01*
X98557260Y-113504292D01*
X98681742Y-113492032D01*
X98801440Y-113455722D01*
X98911754Y-113396757D01*
X99008445Y-113317405D01*
X99087797Y-113220714D01*
X99146762Y-113110400D01*
X99183072Y-112990702D01*
X99195332Y-112866220D01*
X99192260Y-112281970D01*
X99033510Y-112123220D01*
X97584260Y-112123220D01*
X97330260Y-112123220D01*
X97310260Y-112123220D01*
X97310260Y-111869220D01*
X97330260Y-111869220D01*
X97330260Y-111849220D01*
X97584260Y-111849220D01*
X97584260Y-111869220D01*
X99033510Y-111869220D01*
X99192260Y-111710470D01*
X99195332Y-111126220D01*
X99183072Y-111001738D01*
X99146762Y-110882040D01*
X99087797Y-110771726D01*
X99008445Y-110675035D01*
X98911754Y-110595683D01*
X98801440Y-110536718D01*
X98758213Y-110523605D01*
X98944677Y-110296399D01*
X99084426Y-110034945D01*
X99170484Y-109751252D01*
X99199542Y-109456220D01*
X99170484Y-109161188D01*
X99128022Y-109021210D01*
X102124909Y-109021210D01*
X102375135Y-109271437D01*
G04 #@! TA.AperFunction,Conductor*
D26*
G36*
X102375135Y-109271437D02*
G01*
X102361295Y-109282795D01*
X102281943Y-109379486D01*
X102222978Y-109489800D01*
X102186668Y-109609498D01*
X102174408Y-109733980D01*
X102174408Y-111433980D01*
X102186668Y-111558462D01*
X102222978Y-111678160D01*
X102281943Y-111788474D01*
X102361295Y-111885165D01*
X102457986Y-111964517D01*
X102568300Y-112023482D01*
X102687998Y-112059792D01*
X102812480Y-112072052D01*
X104512480Y-112072052D01*
X104636962Y-112059792D01*
X104756660Y-112023482D01*
X104866974Y-111964517D01*
X104963665Y-111885165D01*
X105043017Y-111788474D01*
X105101982Y-111678160D01*
X105122219Y-111611446D01*
X105253308Y-111742535D01*
X105427700Y-111859060D01*
X105253308Y-111975585D01*
X105046465Y-112182428D01*
X104883950Y-112425649D01*
X104772008Y-112695902D01*
X104714940Y-112982800D01*
X104714940Y-113275320D01*
X104772008Y-113562218D01*
X104883950Y-113832471D01*
X105046465Y-114075692D01*
X105253308Y-114282535D01*
X105496529Y-114445050D01*
X105614150Y-114493770D01*
X100620052Y-114493770D01*
X100582729Y-114490094D01*
X100545406Y-114493770D01*
X100545397Y-114493770D01*
X100433744Y-114504767D01*
X100294670Y-114546954D01*
X100290483Y-114548224D01*
X100158453Y-114618796D01*
X100074813Y-114687438D01*
X100042729Y-114713769D01*
X100018931Y-114742767D01*
X99312108Y-115449590D01*
X99091960Y-115405800D01*
X98799440Y-115405800D01*
X98512542Y-115462868D01*
X98242289Y-115574810D01*
X97999068Y-115737325D01*
X97792225Y-115944168D01*
X97675700Y-116118560D01*
X97559175Y-115944168D01*
X97352332Y-115737325D01*
X97109111Y-115574810D01*
X96838858Y-115462868D01*
X96551960Y-115405800D01*
X96259440Y-115405800D01*
X95972542Y-115462868D01*
X95702289Y-115574810D01*
X95459068Y-115737325D01*
X95327213Y-115869180D01*
X95305202Y-115796620D01*
X95255781Y-115704161D01*
X95437996Y-115628685D01*
X95607514Y-115515417D01*
X95751677Y-115371254D01*
X95864945Y-115201736D01*
X95942966Y-115013378D01*
X95982740Y-114813419D01*
X95982740Y-114609541D01*
X95942966Y-114409582D01*
X95864945Y-114221224D01*
X95782740Y-114098195D01*
X95782740Y-113138429D01*
X95826723Y-113220714D01*
X95906075Y-113317405D01*
X96002766Y-113396757D01*
X96113080Y-113455722D01*
X96232778Y-113492032D01*
X96357260Y-113504292D01*
X97171510Y-113501220D01*
X97330260Y-113342470D01*
X97330260Y-112123220D01*
X97584260Y-112123220D01*
X97584260Y-113342470D01*
X97743010Y-113501220D01*
X98557260Y-113504292D01*
X98681742Y-113492032D01*
X98801440Y-113455722D01*
X98911754Y-113396757D01*
X99008445Y-113317405D01*
X99087797Y-113220714D01*
X99146762Y-113110400D01*
X99183072Y-112990702D01*
X99195332Y-112866220D01*
X99192260Y-112281970D01*
X99033510Y-112123220D01*
X97584260Y-112123220D01*
X97330260Y-112123220D01*
X97310260Y-112123220D01*
X97310260Y-111869220D01*
X97330260Y-111869220D01*
X97330260Y-111849220D01*
X97584260Y-111849220D01*
X97584260Y-111869220D01*
X99033510Y-111869220D01*
X99192260Y-111710470D01*
X99195332Y-111126220D01*
X99183072Y-111001738D01*
X99146762Y-110882040D01*
X99087797Y-110771726D01*
X99008445Y-110675035D01*
X98911754Y-110595683D01*
X98801440Y-110536718D01*
X98758213Y-110523605D01*
X98944677Y-110296399D01*
X99084426Y-110034945D01*
X99170484Y-109751252D01*
X99199542Y-109456220D01*
X99170484Y-109161188D01*
X99128022Y-109021210D01*
X102124909Y-109021210D01*
X102375135Y-109271437D01*
G37*
G04 #@! TD.AperFunction*
D25*
X88593936Y-109161188D02*
X88564878Y-109456220D01*
X88593936Y-109751252D01*
X88679994Y-110034945D01*
X88819743Y-110296399D01*
X89006207Y-110523605D01*
X88962980Y-110536718D01*
X88852666Y-110595683D01*
X88755975Y-110675035D01*
X88676623Y-110771726D01*
X88617658Y-110882040D01*
X88581348Y-111001738D01*
X88569088Y-111126220D01*
X88572160Y-111710470D01*
X88730910Y-111869220D01*
X90180160Y-111869220D01*
X90180160Y-111849220D01*
X90434160Y-111849220D01*
X90434160Y-111869220D01*
X91883410Y-111869220D01*
X92042160Y-111710470D01*
X92045232Y-111126220D01*
X92032972Y-111001738D01*
X91996662Y-110882040D01*
X91937697Y-110771726D01*
X91858345Y-110675035D01*
X91761654Y-110595683D01*
X91651340Y-110536718D01*
X91608113Y-110523605D01*
X91794577Y-110296399D01*
X91934326Y-110034945D01*
X92020384Y-109751252D01*
X92049442Y-109456220D01*
X92020384Y-109161188D01*
X91977922Y-109021210D01*
X95211401Y-109021210D01*
X94386314Y-109846299D01*
X94354450Y-109872449D01*
X94296821Y-109942670D01*
X94250104Y-109999595D01*
X94172568Y-110144654D01*
X94124822Y-110302052D01*
X94108700Y-110465740D01*
X94112741Y-110506768D01*
X94112740Y-112859166D01*
X94005038Y-112814554D01*
X93805079Y-112774780D01*
X93601201Y-112774780D01*
X93401242Y-112814554D01*
X93212884Y-112892575D01*
X93043366Y-113005843D01*
X92999429Y-113049780D01*
X92015051Y-113049780D01*
X92032972Y-112990702D01*
X92045232Y-112866220D01*
X92042160Y-112281970D01*
X91883410Y-112123220D01*
X90434160Y-112123220D01*
X90434160Y-112143220D01*
X90180160Y-112143220D01*
X90180160Y-112123220D01*
X88730910Y-112123220D01*
X88572160Y-112281970D01*
X88569088Y-112866220D01*
X88581348Y-112990702D01*
X88599269Y-113049780D01*
X87908625Y-113049780D01*
X87871300Y-113046104D01*
X87833975Y-113049780D01*
X87833967Y-113049780D01*
X87722314Y-113060777D01*
X87579053Y-113104234D01*
X87447024Y-113174806D01*
X87331299Y-113269779D01*
X87307501Y-113298777D01*
X86581628Y-114024650D01*
X86361480Y-113980860D01*
X86068960Y-113980860D01*
X85782062Y-114037928D01*
X85511809Y-114149870D01*
X85268588Y-114312385D01*
X85061745Y-114519228D01*
X84937042Y-114705860D01*
X84529184Y-114705860D01*
X84530746Y-114702088D01*
X84570520Y-114502129D01*
X84570520Y-114439991D01*
X87744059Y-111266453D01*
X87773056Y-111242656D01*
X87829764Y-111173557D01*
X87868029Y-111126932D01*
X87938601Y-110994902D01*
X87950255Y-110956482D01*
X87982058Y-110851641D01*
X87993055Y-110739988D01*
X87993055Y-110739979D01*
X87996731Y-110702656D01*
X87993055Y-110665333D01*
X87993055Y-109021210D01*
X88636398Y-109021210D01*
X88593936Y-109161188D01*
G04 #@! TA.AperFunction,Conductor*
D26*
G36*
X88593936Y-109161188D02*
G01*
X88564878Y-109456220D01*
X88593936Y-109751252D01*
X88679994Y-110034945D01*
X88819743Y-110296399D01*
X89006207Y-110523605D01*
X88962980Y-110536718D01*
X88852666Y-110595683D01*
X88755975Y-110675035D01*
X88676623Y-110771726D01*
X88617658Y-110882040D01*
X88581348Y-111001738D01*
X88569088Y-111126220D01*
X88572160Y-111710470D01*
X88730910Y-111869220D01*
X90180160Y-111869220D01*
X90180160Y-111849220D01*
X90434160Y-111849220D01*
X90434160Y-111869220D01*
X91883410Y-111869220D01*
X92042160Y-111710470D01*
X92045232Y-111126220D01*
X92032972Y-111001738D01*
X91996662Y-110882040D01*
X91937697Y-110771726D01*
X91858345Y-110675035D01*
X91761654Y-110595683D01*
X91651340Y-110536718D01*
X91608113Y-110523605D01*
X91794577Y-110296399D01*
X91934326Y-110034945D01*
X92020384Y-109751252D01*
X92049442Y-109456220D01*
X92020384Y-109161188D01*
X91977922Y-109021210D01*
X95211401Y-109021210D01*
X94386314Y-109846299D01*
X94354450Y-109872449D01*
X94296821Y-109942670D01*
X94250104Y-109999595D01*
X94172568Y-110144654D01*
X94124822Y-110302052D01*
X94108700Y-110465740D01*
X94112741Y-110506768D01*
X94112740Y-112859166D01*
X94005038Y-112814554D01*
X93805079Y-112774780D01*
X93601201Y-112774780D01*
X93401242Y-112814554D01*
X93212884Y-112892575D01*
X93043366Y-113005843D01*
X92999429Y-113049780D01*
X92015051Y-113049780D01*
X92032972Y-112990702D01*
X92045232Y-112866220D01*
X92042160Y-112281970D01*
X91883410Y-112123220D01*
X90434160Y-112123220D01*
X90434160Y-112143220D01*
X90180160Y-112143220D01*
X90180160Y-112123220D01*
X88730910Y-112123220D01*
X88572160Y-112281970D01*
X88569088Y-112866220D01*
X88581348Y-112990702D01*
X88599269Y-113049780D01*
X87908625Y-113049780D01*
X87871300Y-113046104D01*
X87833975Y-113049780D01*
X87833967Y-113049780D01*
X87722314Y-113060777D01*
X87579053Y-113104234D01*
X87447024Y-113174806D01*
X87331299Y-113269779D01*
X87307501Y-113298777D01*
X86581628Y-114024650D01*
X86361480Y-113980860D01*
X86068960Y-113980860D01*
X85782062Y-114037928D01*
X85511809Y-114149870D01*
X85268588Y-114312385D01*
X85061745Y-114519228D01*
X84937042Y-114705860D01*
X84529184Y-114705860D01*
X84530746Y-114702088D01*
X84570520Y-114502129D01*
X84570520Y-114439991D01*
X87744059Y-111266453D01*
X87773056Y-111242656D01*
X87829764Y-111173557D01*
X87868029Y-111126932D01*
X87938601Y-110994902D01*
X87950255Y-110956482D01*
X87982058Y-110851641D01*
X87993055Y-110739988D01*
X87993055Y-110739979D01*
X87996731Y-110702656D01*
X87993055Y-110665333D01*
X87993055Y-109021210D01*
X88636398Y-109021210D01*
X88593936Y-109161188D01*
G37*
G04 #@! TD.AperFunction*
D25*
X81413356Y-106621188D02*
X81384298Y-106916220D01*
X81413356Y-107211252D01*
X81499414Y-107494945D01*
X81639163Y-107756399D01*
X81827235Y-107985565D01*
X82056401Y-108173637D01*
X82079942Y-108186220D01*
X82056401Y-108198803D01*
X81827235Y-108386875D01*
X81639163Y-108616041D01*
X81499414Y-108877495D01*
X81413356Y-109161188D01*
X81384298Y-109456220D01*
X81413356Y-109751252D01*
X81499414Y-110034945D01*
X81639163Y-110296399D01*
X81825627Y-110523605D01*
X81782400Y-110536718D01*
X81672086Y-110595683D01*
X81575395Y-110675035D01*
X81496043Y-110771726D01*
X81437078Y-110882040D01*
X81400768Y-111001738D01*
X81388508Y-111126220D01*
X81391580Y-111710470D01*
X81550330Y-111869220D01*
X82999580Y-111869220D01*
X82999580Y-111849220D01*
X83253580Y-111849220D01*
X83253580Y-111869220D01*
X84702830Y-111869220D01*
X84861580Y-111710470D01*
X84864652Y-111126220D01*
X84852392Y-111001738D01*
X84816082Y-110882040D01*
X84757117Y-110771726D01*
X84677765Y-110675035D01*
X84581074Y-110595683D01*
X84470760Y-110536718D01*
X84427533Y-110523605D01*
X84613997Y-110296399D01*
X84753746Y-110034945D01*
X84839804Y-109751252D01*
X84868862Y-109456220D01*
X84839804Y-109161188D01*
X84753746Y-108877495D01*
X84613997Y-108616041D01*
X84425925Y-108386875D01*
X84196759Y-108198803D01*
X84173218Y-108186220D01*
X84196759Y-108173637D01*
X84425925Y-107985565D01*
X84613997Y-107756399D01*
X84656853Y-107676220D01*
X87026648Y-107676220D01*
X86971829Y-107721209D01*
X86948030Y-107750208D01*
X86722052Y-107976187D01*
X86693055Y-107999984D01*
X86669257Y-108028982D01*
X86669256Y-108028983D01*
X86598081Y-108115709D01*
X86527509Y-108247739D01*
X86507596Y-108313386D01*
X86484053Y-108390999D01*
X86479871Y-108433463D01*
X86469379Y-108539985D01*
X86473056Y-108577317D01*
X86473055Y-110387853D01*
X84720259Y-112140649D01*
X84702830Y-112123220D01*
X83253580Y-112123220D01*
X83253580Y-112143220D01*
X82999580Y-112143220D01*
X82999580Y-112123220D01*
X81550330Y-112123220D01*
X81391580Y-112281970D01*
X81388508Y-112866220D01*
X81400768Y-112990702D01*
X81437078Y-113110400D01*
X81496043Y-113220714D01*
X81575395Y-113317405D01*
X81672086Y-113396757D01*
X81782400Y-113455722D01*
X81902098Y-113492032D01*
X82026580Y-113504292D01*
X82840830Y-113501220D01*
X82999578Y-113342472D01*
X82999578Y-113501220D01*
X83017973Y-113501220D01*
X82875746Y-113596253D01*
X82731583Y-113740416D01*
X82638070Y-113880368D01*
X82631247Y-113870156D01*
X82487084Y-113725993D01*
X82317566Y-113612725D01*
X82129208Y-113534704D01*
X81929249Y-113494930D01*
X81851536Y-113494930D01*
X81719558Y-113424385D01*
X81576297Y-113380928D01*
X81464644Y-113369931D01*
X81464633Y-113369931D01*
X81427311Y-113366255D01*
X81389989Y-113369931D01*
X81061513Y-113369931D01*
X80848740Y-113157159D01*
X80848740Y-107083701D01*
X81457815Y-106474626D01*
X81413356Y-106621188D01*
G04 #@! TA.AperFunction,Conductor*
D26*
G36*
X81413356Y-106621188D02*
G01*
X81384298Y-106916220D01*
X81413356Y-107211252D01*
X81499414Y-107494945D01*
X81639163Y-107756399D01*
X81827235Y-107985565D01*
X82056401Y-108173637D01*
X82079942Y-108186220D01*
X82056401Y-108198803D01*
X81827235Y-108386875D01*
X81639163Y-108616041D01*
X81499414Y-108877495D01*
X81413356Y-109161188D01*
X81384298Y-109456220D01*
X81413356Y-109751252D01*
X81499414Y-110034945D01*
X81639163Y-110296399D01*
X81825627Y-110523605D01*
X81782400Y-110536718D01*
X81672086Y-110595683D01*
X81575395Y-110675035D01*
X81496043Y-110771726D01*
X81437078Y-110882040D01*
X81400768Y-111001738D01*
X81388508Y-111126220D01*
X81391580Y-111710470D01*
X81550330Y-111869220D01*
X82999580Y-111869220D01*
X82999580Y-111849220D01*
X83253580Y-111849220D01*
X83253580Y-111869220D01*
X84702830Y-111869220D01*
X84861580Y-111710470D01*
X84864652Y-111126220D01*
X84852392Y-111001738D01*
X84816082Y-110882040D01*
X84757117Y-110771726D01*
X84677765Y-110675035D01*
X84581074Y-110595683D01*
X84470760Y-110536718D01*
X84427533Y-110523605D01*
X84613997Y-110296399D01*
X84753746Y-110034945D01*
X84839804Y-109751252D01*
X84868862Y-109456220D01*
X84839804Y-109161188D01*
X84753746Y-108877495D01*
X84613997Y-108616041D01*
X84425925Y-108386875D01*
X84196759Y-108198803D01*
X84173218Y-108186220D01*
X84196759Y-108173637D01*
X84425925Y-107985565D01*
X84613997Y-107756399D01*
X84656853Y-107676220D01*
X87026648Y-107676220D01*
X86971829Y-107721209D01*
X86948030Y-107750208D01*
X86722052Y-107976187D01*
X86693055Y-107999984D01*
X86669257Y-108028982D01*
X86669256Y-108028983D01*
X86598081Y-108115709D01*
X86527509Y-108247739D01*
X86507596Y-108313386D01*
X86484053Y-108390999D01*
X86479871Y-108433463D01*
X86469379Y-108539985D01*
X86473056Y-108577317D01*
X86473055Y-110387853D01*
X84720259Y-112140649D01*
X84702830Y-112123220D01*
X83253580Y-112123220D01*
X83253580Y-112143220D01*
X82999580Y-112143220D01*
X82999580Y-112123220D01*
X81550330Y-112123220D01*
X81391580Y-112281970D01*
X81388508Y-112866220D01*
X81400768Y-112990702D01*
X81437078Y-113110400D01*
X81496043Y-113220714D01*
X81575395Y-113317405D01*
X81672086Y-113396757D01*
X81782400Y-113455722D01*
X81902098Y-113492032D01*
X82026580Y-113504292D01*
X82840830Y-113501220D01*
X82999578Y-113342472D01*
X82999578Y-113501220D01*
X83017973Y-113501220D01*
X82875746Y-113596253D01*
X82731583Y-113740416D01*
X82638070Y-113880368D01*
X82631247Y-113870156D01*
X82487084Y-113725993D01*
X82317566Y-113612725D01*
X82129208Y-113534704D01*
X81929249Y-113494930D01*
X81851536Y-113494930D01*
X81719558Y-113424385D01*
X81576297Y-113380928D01*
X81464644Y-113369931D01*
X81464633Y-113369931D01*
X81427311Y-113366255D01*
X81389989Y-113369931D01*
X81061513Y-113369931D01*
X80848740Y-113157159D01*
X80848740Y-107083701D01*
X81457815Y-106474626D01*
X81413356Y-106621188D01*
G37*
G04 #@! TD.AperFunction*
M02*
