G04 #@! TF.GenerationSoftware,KiCad,Pcbnew,5.1.6-c6e7f7d~87~ubuntu18.04.1*
G04 #@! TF.CreationDate,2020-09-01T17:04:55+02:00*
G04 #@! TF.ProjectId,res_hat,7265735f-6861-4742-9e6b-696361645f70,rev?*
G04 #@! TF.SameCoordinates,Original*
G04 #@! TF.FileFunction,Paste,Bot*
G04 #@! TF.FilePolarity,Positive*
%FSLAX46Y46*%
G04 Gerber Fmt 4.6, Leading zero omitted, Abs format (unit mm)*
G04 Created by KiCad (PCBNEW 5.1.6-c6e7f7d~87~ubuntu18.04.1) date 2020-09-01 17:04:55*
%MOMM*%
%LPD*%
G01*
G04 APERTURE LIST*
%ADD10R,1.528000X0.650000*%
%ADD11R,1.400000X0.600000*%
G04 APERTURE END LIST*
G36*
G01*
X130522940Y-147086381D02*
X130522940Y-144236379D01*
G75*
G02*
X130772939Y-143986380I249999J0D01*
G01*
X131622941Y-143986380D01*
G75*
G02*
X131872940Y-144236379I0J-249999D01*
G01*
X131872940Y-147086381D01*
G75*
G02*
X131622941Y-147336380I-249999J0D01*
G01*
X130772939Y-147336380D01*
G75*
G02*
X130522940Y-147086381I0J249999D01*
G01*
G37*
G36*
G01*
X124722940Y-147086381D02*
X124722940Y-144236379D01*
G75*
G02*
X124972939Y-143986380I249999J0D01*
G01*
X125822941Y-143986380D01*
G75*
G02*
X126072940Y-144236379I0J-249999D01*
G01*
X126072940Y-147086381D01*
G75*
G02*
X125822941Y-147336380I-249999J0D01*
G01*
X124972939Y-147336380D01*
G75*
G02*
X124722940Y-147086381I0J249999D01*
G01*
G37*
G36*
G01*
X130121620Y-116840061D02*
X130121620Y-113990059D01*
G75*
G02*
X130371619Y-113740060I249999J0D01*
G01*
X131221621Y-113740060D01*
G75*
G02*
X131471620Y-113990059I0J-249999D01*
G01*
X131471620Y-116840061D01*
G75*
G02*
X131221621Y-117090060I-249999J0D01*
G01*
X130371619Y-117090060D01*
G75*
G02*
X130121620Y-116840061I0J249999D01*
G01*
G37*
G36*
G01*
X124321620Y-116840061D02*
X124321620Y-113990059D01*
G75*
G02*
X124571619Y-113740060I249999J0D01*
G01*
X125421621Y-113740060D01*
G75*
G02*
X125671620Y-113990059I0J-249999D01*
G01*
X125671620Y-116840061D01*
G75*
G02*
X125421621Y-117090060I-249999J0D01*
G01*
X124571619Y-117090060D01*
G75*
G02*
X124321620Y-116840061I0J249999D01*
G01*
G37*
G36*
G01*
X89445150Y-109692020D02*
X88532650Y-109692020D01*
G75*
G02*
X88288900Y-109448270I0J243750D01*
G01*
X88288900Y-108960770D01*
G75*
G02*
X88532650Y-108717020I243750J0D01*
G01*
X89445150Y-108717020D01*
G75*
G02*
X89688900Y-108960770I0J-243750D01*
G01*
X89688900Y-109448270D01*
G75*
G02*
X89445150Y-109692020I-243750J0D01*
G01*
G37*
G36*
G01*
X89445150Y-111567020D02*
X88532650Y-111567020D01*
G75*
G02*
X88288900Y-111323270I0J243750D01*
G01*
X88288900Y-110835770D01*
G75*
G02*
X88532650Y-110592020I243750J0D01*
G01*
X89445150Y-110592020D01*
G75*
G02*
X89688900Y-110835770I0J-243750D01*
G01*
X89688900Y-111323270D01*
G75*
G02*
X89445150Y-111567020I-243750J0D01*
G01*
G37*
G36*
G01*
X103066000Y-138632250D02*
X103066000Y-137719750D01*
G75*
G02*
X103309750Y-137476000I243750J0D01*
G01*
X103797250Y-137476000D01*
G75*
G02*
X104041000Y-137719750I0J-243750D01*
G01*
X104041000Y-138632250D01*
G75*
G02*
X103797250Y-138876000I-243750J0D01*
G01*
X103309750Y-138876000D01*
G75*
G02*
X103066000Y-138632250I0J243750D01*
G01*
G37*
G36*
G01*
X101191000Y-138632250D02*
X101191000Y-137719750D01*
G75*
G02*
X101434750Y-137476000I243750J0D01*
G01*
X101922250Y-137476000D01*
G75*
G02*
X102166000Y-137719750I0J-243750D01*
G01*
X102166000Y-138632250D01*
G75*
G02*
X101922250Y-138876000I-243750J0D01*
G01*
X101434750Y-138876000D01*
G75*
G02*
X101191000Y-138632250I0J243750D01*
G01*
G37*
G36*
G01*
X103066000Y-135486250D02*
X103066000Y-134573750D01*
G75*
G02*
X103309750Y-134330000I243750J0D01*
G01*
X103797250Y-134330000D01*
G75*
G02*
X104041000Y-134573750I0J-243750D01*
G01*
X104041000Y-135486250D01*
G75*
G02*
X103797250Y-135730000I-243750J0D01*
G01*
X103309750Y-135730000D01*
G75*
G02*
X103066000Y-135486250I0J243750D01*
G01*
G37*
G36*
G01*
X101191000Y-135486250D02*
X101191000Y-134573750D01*
G75*
G02*
X101434750Y-134330000I243750J0D01*
G01*
X101922250Y-134330000D01*
G75*
G02*
X102166000Y-134573750I0J-243750D01*
G01*
X102166000Y-135486250D01*
G75*
G02*
X101922250Y-135730000I-243750J0D01*
G01*
X101434750Y-135730000D01*
G75*
G02*
X101191000Y-135486250I0J243750D01*
G01*
G37*
G36*
G01*
X91636000Y-134822250D02*
X91636000Y-133909750D01*
G75*
G02*
X91879750Y-133666000I243750J0D01*
G01*
X92367250Y-133666000D01*
G75*
G02*
X92611000Y-133909750I0J-243750D01*
G01*
X92611000Y-134822250D01*
G75*
G02*
X92367250Y-135066000I-243750J0D01*
G01*
X91879750Y-135066000D01*
G75*
G02*
X91636000Y-134822250I0J243750D01*
G01*
G37*
G36*
G01*
X89761000Y-134822250D02*
X89761000Y-133909750D01*
G75*
G02*
X90004750Y-133666000I243750J0D01*
G01*
X90492250Y-133666000D01*
G75*
G02*
X90736000Y-133909750I0J-243750D01*
G01*
X90736000Y-134822250D01*
G75*
G02*
X90492250Y-135066000I-243750J0D01*
G01*
X90004750Y-135066000D01*
G75*
G02*
X89761000Y-134822250I0J243750D01*
G01*
G37*
G36*
G01*
X91636000Y-138124250D02*
X91636000Y-137211750D01*
G75*
G02*
X91879750Y-136968000I243750J0D01*
G01*
X92367250Y-136968000D01*
G75*
G02*
X92611000Y-137211750I0J-243750D01*
G01*
X92611000Y-138124250D01*
G75*
G02*
X92367250Y-138368000I-243750J0D01*
G01*
X91879750Y-138368000D01*
G75*
G02*
X91636000Y-138124250I0J243750D01*
G01*
G37*
G36*
G01*
X89761000Y-138124250D02*
X89761000Y-137211750D01*
G75*
G02*
X90004750Y-136968000I243750J0D01*
G01*
X90492250Y-136968000D01*
G75*
G02*
X90736000Y-137211750I0J-243750D01*
G01*
X90736000Y-138124250D01*
G75*
G02*
X90492250Y-138368000I-243750J0D01*
G01*
X90004750Y-138368000D01*
G75*
G02*
X89761000Y-138124250I0J243750D01*
G01*
G37*
G36*
G01*
X91382000Y-124916250D02*
X91382000Y-124003750D01*
G75*
G02*
X91625750Y-123760000I243750J0D01*
G01*
X92113250Y-123760000D01*
G75*
G02*
X92357000Y-124003750I0J-243750D01*
G01*
X92357000Y-124916250D01*
G75*
G02*
X92113250Y-125160000I-243750J0D01*
G01*
X91625750Y-125160000D01*
G75*
G02*
X91382000Y-124916250I0J243750D01*
G01*
G37*
G36*
G01*
X89507000Y-124916250D02*
X89507000Y-124003750D01*
G75*
G02*
X89750750Y-123760000I243750J0D01*
G01*
X90238250Y-123760000D01*
G75*
G02*
X90482000Y-124003750I0J-243750D01*
G01*
X90482000Y-124916250D01*
G75*
G02*
X90238250Y-125160000I-243750J0D01*
G01*
X89750750Y-125160000D01*
G75*
G02*
X89507000Y-124916250I0J243750D01*
G01*
G37*
G36*
G01*
X91382000Y-121614250D02*
X91382000Y-120701750D01*
G75*
G02*
X91625750Y-120458000I243750J0D01*
G01*
X92113250Y-120458000D01*
G75*
G02*
X92357000Y-120701750I0J-243750D01*
G01*
X92357000Y-121614250D01*
G75*
G02*
X92113250Y-121858000I-243750J0D01*
G01*
X91625750Y-121858000D01*
G75*
G02*
X91382000Y-121614250I0J243750D01*
G01*
G37*
G36*
G01*
X89507000Y-121614250D02*
X89507000Y-120701750D01*
G75*
G02*
X89750750Y-120458000I243750J0D01*
G01*
X90238250Y-120458000D01*
G75*
G02*
X90482000Y-120701750I0J-243750D01*
G01*
X90482000Y-121614250D01*
G75*
G02*
X90238250Y-121858000I-243750J0D01*
G01*
X89750750Y-121858000D01*
G75*
G02*
X89507000Y-121614250I0J243750D01*
G01*
G37*
G36*
G01*
X112834000Y-142545750D02*
X112834000Y-143458250D01*
G75*
G02*
X112590250Y-143702000I-243750J0D01*
G01*
X112102750Y-143702000D01*
G75*
G02*
X111859000Y-143458250I0J243750D01*
G01*
X111859000Y-142545750D01*
G75*
G02*
X112102750Y-142302000I243750J0D01*
G01*
X112590250Y-142302000D01*
G75*
G02*
X112834000Y-142545750I0J-243750D01*
G01*
G37*
G36*
G01*
X114709000Y-142545750D02*
X114709000Y-143458250D01*
G75*
G02*
X114465250Y-143702000I-243750J0D01*
G01*
X113977750Y-143702000D01*
G75*
G02*
X113734000Y-143458250I0J243750D01*
G01*
X113734000Y-142545750D01*
G75*
G02*
X113977750Y-142302000I243750J0D01*
G01*
X114465250Y-142302000D01*
G75*
G02*
X114709000Y-142545750I0J-243750D01*
G01*
G37*
G36*
G01*
X113734000Y-140156250D02*
X113734000Y-139243750D01*
G75*
G02*
X113977750Y-139000000I243750J0D01*
G01*
X114465250Y-139000000D01*
G75*
G02*
X114709000Y-139243750I0J-243750D01*
G01*
X114709000Y-140156250D01*
G75*
G02*
X114465250Y-140400000I-243750J0D01*
G01*
X113977750Y-140400000D01*
G75*
G02*
X113734000Y-140156250I0J243750D01*
G01*
G37*
G36*
G01*
X111859000Y-140156250D02*
X111859000Y-139243750D01*
G75*
G02*
X112102750Y-139000000I243750J0D01*
G01*
X112590250Y-139000000D01*
G75*
G02*
X112834000Y-139243750I0J-243750D01*
G01*
X112834000Y-140156250D01*
G75*
G02*
X112590250Y-140400000I-243750J0D01*
G01*
X112102750Y-140400000D01*
G75*
G02*
X111859000Y-140156250I0J243750D01*
G01*
G37*
G36*
G01*
X113088000Y-113335750D02*
X113088000Y-114248250D01*
G75*
G02*
X112844250Y-114492000I-243750J0D01*
G01*
X112356750Y-114492000D01*
G75*
G02*
X112113000Y-114248250I0J243750D01*
G01*
X112113000Y-113335750D01*
G75*
G02*
X112356750Y-113092000I243750J0D01*
G01*
X112844250Y-113092000D01*
G75*
G02*
X113088000Y-113335750I0J-243750D01*
G01*
G37*
G36*
G01*
X114963000Y-113335750D02*
X114963000Y-114248250D01*
G75*
G02*
X114719250Y-114492000I-243750J0D01*
G01*
X114231750Y-114492000D01*
G75*
G02*
X113988000Y-114248250I0J243750D01*
G01*
X113988000Y-113335750D01*
G75*
G02*
X114231750Y-113092000I243750J0D01*
G01*
X114719250Y-113092000D01*
G75*
G02*
X114963000Y-113335750I0J-243750D01*
G01*
G37*
G36*
G01*
X113988000Y-110946250D02*
X113988000Y-110033750D01*
G75*
G02*
X114231750Y-109790000I243750J0D01*
G01*
X114719250Y-109790000D01*
G75*
G02*
X114963000Y-110033750I0J-243750D01*
G01*
X114963000Y-110946250D01*
G75*
G02*
X114719250Y-111190000I-243750J0D01*
G01*
X114231750Y-111190000D01*
G75*
G02*
X113988000Y-110946250I0J243750D01*
G01*
G37*
G36*
G01*
X112113000Y-110946250D02*
X112113000Y-110033750D01*
G75*
G02*
X112356750Y-109790000I243750J0D01*
G01*
X112844250Y-109790000D01*
G75*
G02*
X113088000Y-110033750I0J-243750D01*
G01*
X113088000Y-110946250D01*
G75*
G02*
X112844250Y-111190000I-243750J0D01*
G01*
X112356750Y-111190000D01*
G75*
G02*
X112113000Y-110946250I0J243750D01*
G01*
G37*
G36*
G01*
X108383920Y-127023810D02*
X108383920Y-127936310D01*
G75*
G02*
X108140170Y-128180060I-243750J0D01*
G01*
X107652670Y-128180060D01*
G75*
G02*
X107408920Y-127936310I0J243750D01*
G01*
X107408920Y-127023810D01*
G75*
G02*
X107652670Y-126780060I243750J0D01*
G01*
X108140170Y-126780060D01*
G75*
G02*
X108383920Y-127023810I0J-243750D01*
G01*
G37*
G36*
G01*
X110258920Y-127023810D02*
X110258920Y-127936310D01*
G75*
G02*
X110015170Y-128180060I-243750J0D01*
G01*
X109527670Y-128180060D01*
G75*
G02*
X109283920Y-127936310I0J243750D01*
G01*
X109283920Y-127023810D01*
G75*
G02*
X109527670Y-126780060I243750J0D01*
G01*
X110015170Y-126780060D01*
G75*
G02*
X110258920Y-127023810I0J-243750D01*
G01*
G37*
G36*
G01*
X108315340Y-130724590D02*
X108315340Y-131637090D01*
G75*
G02*
X108071590Y-131880840I-243750J0D01*
G01*
X107584090Y-131880840D01*
G75*
G02*
X107340340Y-131637090I0J243750D01*
G01*
X107340340Y-130724590D01*
G75*
G02*
X107584090Y-130480840I243750J0D01*
G01*
X108071590Y-130480840D01*
G75*
G02*
X108315340Y-130724590I0J-243750D01*
G01*
G37*
G36*
G01*
X110190340Y-130724590D02*
X110190340Y-131637090D01*
G75*
G02*
X109946590Y-131880840I-243750J0D01*
G01*
X109459090Y-131880840D01*
G75*
G02*
X109215340Y-131637090I0J243750D01*
G01*
X109215340Y-130724590D01*
G75*
G02*
X109459090Y-130480840I243750J0D01*
G01*
X109946590Y-130480840D01*
G75*
G02*
X110190340Y-130724590I0J-243750D01*
G01*
G37*
G36*
G01*
X105969750Y-137102000D02*
X106882250Y-137102000D01*
G75*
G02*
X107126000Y-137345750I0J-243750D01*
G01*
X107126000Y-137833250D01*
G75*
G02*
X106882250Y-138077000I-243750J0D01*
G01*
X105969750Y-138077000D01*
G75*
G02*
X105726000Y-137833250I0J243750D01*
G01*
X105726000Y-137345750D01*
G75*
G02*
X105969750Y-137102000I243750J0D01*
G01*
G37*
G36*
G01*
X105969750Y-135227000D02*
X106882250Y-135227000D01*
G75*
G02*
X107126000Y-135470750I0J-243750D01*
G01*
X107126000Y-135958250D01*
G75*
G02*
X106882250Y-136202000I-243750J0D01*
G01*
X105969750Y-136202000D01*
G75*
G02*
X105726000Y-135958250I0J243750D01*
G01*
X105726000Y-135470750D01*
G75*
G02*
X105969750Y-135227000I243750J0D01*
G01*
G37*
G36*
G01*
X106223750Y-123640000D02*
X107136250Y-123640000D01*
G75*
G02*
X107380000Y-123883750I0J-243750D01*
G01*
X107380000Y-124371250D01*
G75*
G02*
X107136250Y-124615000I-243750J0D01*
G01*
X106223750Y-124615000D01*
G75*
G02*
X105980000Y-124371250I0J243750D01*
G01*
X105980000Y-123883750D01*
G75*
G02*
X106223750Y-123640000I243750J0D01*
G01*
G37*
G36*
G01*
X106223750Y-121765000D02*
X107136250Y-121765000D01*
G75*
G02*
X107380000Y-122008750I0J-243750D01*
G01*
X107380000Y-122496250D01*
G75*
G02*
X107136250Y-122740000I-243750J0D01*
G01*
X106223750Y-122740000D01*
G75*
G02*
X105980000Y-122496250I0J243750D01*
G01*
X105980000Y-122008750D01*
G75*
G02*
X106223750Y-121765000I243750J0D01*
G01*
G37*
G36*
G01*
X97079750Y-123640000D02*
X97992250Y-123640000D01*
G75*
G02*
X98236000Y-123883750I0J-243750D01*
G01*
X98236000Y-124371250D01*
G75*
G02*
X97992250Y-124615000I-243750J0D01*
G01*
X97079750Y-124615000D01*
G75*
G02*
X96836000Y-124371250I0J243750D01*
G01*
X96836000Y-123883750D01*
G75*
G02*
X97079750Y-123640000I243750J0D01*
G01*
G37*
G36*
G01*
X97079750Y-121765000D02*
X97992250Y-121765000D01*
G75*
G02*
X98236000Y-122008750I0J-243750D01*
G01*
X98236000Y-122496250D01*
G75*
G02*
X97992250Y-122740000I-243750J0D01*
G01*
X97079750Y-122740000D01*
G75*
G02*
X96836000Y-122496250I0J243750D01*
G01*
X96836000Y-122008750D01*
G75*
G02*
X97079750Y-121765000I243750J0D01*
G01*
G37*
G36*
G01*
X97079750Y-137102000D02*
X97992250Y-137102000D01*
G75*
G02*
X98236000Y-137345750I0J-243750D01*
G01*
X98236000Y-137833250D01*
G75*
G02*
X97992250Y-138077000I-243750J0D01*
G01*
X97079750Y-138077000D01*
G75*
G02*
X96836000Y-137833250I0J243750D01*
G01*
X96836000Y-137345750D01*
G75*
G02*
X97079750Y-137102000I243750J0D01*
G01*
G37*
G36*
G01*
X97079750Y-135227000D02*
X97992250Y-135227000D01*
G75*
G02*
X98236000Y-135470750I0J-243750D01*
G01*
X98236000Y-135958250D01*
G75*
G02*
X97992250Y-136202000I-243750J0D01*
G01*
X97079750Y-136202000D01*
G75*
G02*
X96836000Y-135958250I0J243750D01*
G01*
X96836000Y-135470750D01*
G75*
G02*
X97079750Y-135227000I243750J0D01*
G01*
G37*
G36*
G01*
X79952000Y-133806250D02*
X79952000Y-132893750D01*
G75*
G02*
X80195750Y-132650000I243750J0D01*
G01*
X80683250Y-132650000D01*
G75*
G02*
X80927000Y-132893750I0J-243750D01*
G01*
X80927000Y-133806250D01*
G75*
G02*
X80683250Y-134050000I-243750J0D01*
G01*
X80195750Y-134050000D01*
G75*
G02*
X79952000Y-133806250I0J243750D01*
G01*
G37*
G36*
G01*
X78077000Y-133806250D02*
X78077000Y-132893750D01*
G75*
G02*
X78320750Y-132650000I243750J0D01*
G01*
X78808250Y-132650000D01*
G75*
G02*
X79052000Y-132893750I0J-243750D01*
G01*
X79052000Y-133806250D01*
G75*
G02*
X78808250Y-134050000I-243750J0D01*
G01*
X78320750Y-134050000D01*
G75*
G02*
X78077000Y-133806250I0J243750D01*
G01*
G37*
G36*
G01*
X79952000Y-122630250D02*
X79952000Y-121717750D01*
G75*
G02*
X80195750Y-121474000I243750J0D01*
G01*
X80683250Y-121474000D01*
G75*
G02*
X80927000Y-121717750I0J-243750D01*
G01*
X80927000Y-122630250D01*
G75*
G02*
X80683250Y-122874000I-243750J0D01*
G01*
X80195750Y-122874000D01*
G75*
G02*
X79952000Y-122630250I0J243750D01*
G01*
G37*
G36*
G01*
X78077000Y-122630250D02*
X78077000Y-121717750D01*
G75*
G02*
X78320750Y-121474000I243750J0D01*
G01*
X78808250Y-121474000D01*
G75*
G02*
X79052000Y-121717750I0J-243750D01*
G01*
X79052000Y-122630250D01*
G75*
G02*
X78808250Y-122874000I-243750J0D01*
G01*
X78320750Y-122874000D01*
G75*
G02*
X78077000Y-122630250I0J243750D01*
G01*
G37*
G36*
G01*
X79952000Y-137108250D02*
X79952000Y-136195750D01*
G75*
G02*
X80195750Y-135952000I243750J0D01*
G01*
X80683250Y-135952000D01*
G75*
G02*
X80927000Y-136195750I0J-243750D01*
G01*
X80927000Y-137108250D01*
G75*
G02*
X80683250Y-137352000I-243750J0D01*
G01*
X80195750Y-137352000D01*
G75*
G02*
X79952000Y-137108250I0J243750D01*
G01*
G37*
G36*
G01*
X78077000Y-137108250D02*
X78077000Y-136195750D01*
G75*
G02*
X78320750Y-135952000I243750J0D01*
G01*
X78808250Y-135952000D01*
G75*
G02*
X79052000Y-136195750I0J-243750D01*
G01*
X79052000Y-137108250D01*
G75*
G02*
X78808250Y-137352000I-243750J0D01*
G01*
X78320750Y-137352000D01*
G75*
G02*
X78077000Y-137108250I0J243750D01*
G01*
G37*
G36*
G01*
X79052000Y-125019750D02*
X79052000Y-125932250D01*
G75*
G02*
X78808250Y-126176000I-243750J0D01*
G01*
X78320750Y-126176000D01*
G75*
G02*
X78077000Y-125932250I0J243750D01*
G01*
X78077000Y-125019750D01*
G75*
G02*
X78320750Y-124776000I243750J0D01*
G01*
X78808250Y-124776000D01*
G75*
G02*
X79052000Y-125019750I0J-243750D01*
G01*
G37*
G36*
G01*
X80927000Y-125019750D02*
X80927000Y-125932250D01*
G75*
G02*
X80683250Y-126176000I-243750J0D01*
G01*
X80195750Y-126176000D01*
G75*
G02*
X79952000Y-125932250I0J243750D01*
G01*
X79952000Y-125019750D01*
G75*
G02*
X80195750Y-124776000I243750J0D01*
G01*
X80683250Y-124776000D01*
G75*
G02*
X80927000Y-125019750I0J-243750D01*
G01*
G37*
D10*
X105073000Y-131445000D03*
X105073000Y-130175000D03*
X105073000Y-128905000D03*
X105073000Y-127635000D03*
X99651000Y-127635000D03*
X99651000Y-128905000D03*
X99651000Y-130175000D03*
X99651000Y-131445000D03*
D11*
X83840000Y-134432000D03*
X83840000Y-135382000D03*
X83840000Y-136332000D03*
X86340000Y-136332000D03*
X86340000Y-135382000D03*
X86340000Y-134432000D03*
X83840000Y-123510000D03*
X83840000Y-124460000D03*
X83840000Y-125410000D03*
X86340000Y-125410000D03*
X86340000Y-124460000D03*
X86340000Y-123510000D03*
G36*
G01*
X122106820Y-144576940D02*
X122106820Y-144276940D01*
G75*
G02*
X122256820Y-144126940I150000J0D01*
G01*
X123906820Y-144126940D01*
G75*
G02*
X124056820Y-144276940I0J-150000D01*
G01*
X124056820Y-144576940D01*
G75*
G02*
X123906820Y-144726940I-150000J0D01*
G01*
X122256820Y-144726940D01*
G75*
G02*
X122106820Y-144576940I0J150000D01*
G01*
G37*
G36*
G01*
X122106820Y-143306940D02*
X122106820Y-143006940D01*
G75*
G02*
X122256820Y-142856940I150000J0D01*
G01*
X123906820Y-142856940D01*
G75*
G02*
X124056820Y-143006940I0J-150000D01*
G01*
X124056820Y-143306940D01*
G75*
G02*
X123906820Y-143456940I-150000J0D01*
G01*
X122256820Y-143456940D01*
G75*
G02*
X122106820Y-143306940I0J150000D01*
G01*
G37*
G36*
G01*
X122106820Y-142036940D02*
X122106820Y-141736940D01*
G75*
G02*
X122256820Y-141586940I150000J0D01*
G01*
X123906820Y-141586940D01*
G75*
G02*
X124056820Y-141736940I0J-150000D01*
G01*
X124056820Y-142036940D01*
G75*
G02*
X123906820Y-142186940I-150000J0D01*
G01*
X122256820Y-142186940D01*
G75*
G02*
X122106820Y-142036940I0J150000D01*
G01*
G37*
G36*
G01*
X122106820Y-140766940D02*
X122106820Y-140466940D01*
G75*
G02*
X122256820Y-140316940I150000J0D01*
G01*
X123906820Y-140316940D01*
G75*
G02*
X124056820Y-140466940I0J-150000D01*
G01*
X124056820Y-140766940D01*
G75*
G02*
X123906820Y-140916940I-150000J0D01*
G01*
X122256820Y-140916940D01*
G75*
G02*
X122106820Y-140766940I0J150000D01*
G01*
G37*
G36*
G01*
X117156820Y-140766940D02*
X117156820Y-140466940D01*
G75*
G02*
X117306820Y-140316940I150000J0D01*
G01*
X118956820Y-140316940D01*
G75*
G02*
X119106820Y-140466940I0J-150000D01*
G01*
X119106820Y-140766940D01*
G75*
G02*
X118956820Y-140916940I-150000J0D01*
G01*
X117306820Y-140916940D01*
G75*
G02*
X117156820Y-140766940I0J150000D01*
G01*
G37*
G36*
G01*
X117156820Y-142036940D02*
X117156820Y-141736940D01*
G75*
G02*
X117306820Y-141586940I150000J0D01*
G01*
X118956820Y-141586940D01*
G75*
G02*
X119106820Y-141736940I0J-150000D01*
G01*
X119106820Y-142036940D01*
G75*
G02*
X118956820Y-142186940I-150000J0D01*
G01*
X117306820Y-142186940D01*
G75*
G02*
X117156820Y-142036940I0J150000D01*
G01*
G37*
G36*
G01*
X117156820Y-143306940D02*
X117156820Y-143006940D01*
G75*
G02*
X117306820Y-142856940I150000J0D01*
G01*
X118956820Y-142856940D01*
G75*
G02*
X119106820Y-143006940I0J-150000D01*
G01*
X119106820Y-143306940D01*
G75*
G02*
X118956820Y-143456940I-150000J0D01*
G01*
X117306820Y-143456940D01*
G75*
G02*
X117156820Y-143306940I0J150000D01*
G01*
G37*
G36*
G01*
X117156820Y-144576940D02*
X117156820Y-144276940D01*
G75*
G02*
X117306820Y-144126940I150000J0D01*
G01*
X118956820Y-144126940D01*
G75*
G02*
X119106820Y-144276940I0J-150000D01*
G01*
X119106820Y-144576940D01*
G75*
G02*
X118956820Y-144726940I-150000J0D01*
G01*
X117306820Y-144726940D01*
G75*
G02*
X117156820Y-144576940I0J150000D01*
G01*
G37*
G36*
G01*
X121710580Y-114127420D02*
X121710580Y-113827420D01*
G75*
G02*
X121860580Y-113677420I150000J0D01*
G01*
X123510580Y-113677420D01*
G75*
G02*
X123660580Y-113827420I0J-150000D01*
G01*
X123660580Y-114127420D01*
G75*
G02*
X123510580Y-114277420I-150000J0D01*
G01*
X121860580Y-114277420D01*
G75*
G02*
X121710580Y-114127420I0J150000D01*
G01*
G37*
G36*
G01*
X121710580Y-112857420D02*
X121710580Y-112557420D01*
G75*
G02*
X121860580Y-112407420I150000J0D01*
G01*
X123510580Y-112407420D01*
G75*
G02*
X123660580Y-112557420I0J-150000D01*
G01*
X123660580Y-112857420D01*
G75*
G02*
X123510580Y-113007420I-150000J0D01*
G01*
X121860580Y-113007420D01*
G75*
G02*
X121710580Y-112857420I0J150000D01*
G01*
G37*
G36*
G01*
X121710580Y-111587420D02*
X121710580Y-111287420D01*
G75*
G02*
X121860580Y-111137420I150000J0D01*
G01*
X123510580Y-111137420D01*
G75*
G02*
X123660580Y-111287420I0J-150000D01*
G01*
X123660580Y-111587420D01*
G75*
G02*
X123510580Y-111737420I-150000J0D01*
G01*
X121860580Y-111737420D01*
G75*
G02*
X121710580Y-111587420I0J150000D01*
G01*
G37*
G36*
G01*
X121710580Y-110317420D02*
X121710580Y-110017420D01*
G75*
G02*
X121860580Y-109867420I150000J0D01*
G01*
X123510580Y-109867420D01*
G75*
G02*
X123660580Y-110017420I0J-150000D01*
G01*
X123660580Y-110317420D01*
G75*
G02*
X123510580Y-110467420I-150000J0D01*
G01*
X121860580Y-110467420D01*
G75*
G02*
X121710580Y-110317420I0J150000D01*
G01*
G37*
G36*
G01*
X116760580Y-110317420D02*
X116760580Y-110017420D01*
G75*
G02*
X116910580Y-109867420I150000J0D01*
G01*
X118560580Y-109867420D01*
G75*
G02*
X118710580Y-110017420I0J-150000D01*
G01*
X118710580Y-110317420D01*
G75*
G02*
X118560580Y-110467420I-150000J0D01*
G01*
X116910580Y-110467420D01*
G75*
G02*
X116760580Y-110317420I0J150000D01*
G01*
G37*
G36*
G01*
X116760580Y-111587420D02*
X116760580Y-111287420D01*
G75*
G02*
X116910580Y-111137420I150000J0D01*
G01*
X118560580Y-111137420D01*
G75*
G02*
X118710580Y-111287420I0J-150000D01*
G01*
X118710580Y-111587420D01*
G75*
G02*
X118560580Y-111737420I-150000J0D01*
G01*
X116910580Y-111737420D01*
G75*
G02*
X116760580Y-111587420I0J150000D01*
G01*
G37*
G36*
G01*
X116760580Y-112857420D02*
X116760580Y-112557420D01*
G75*
G02*
X116910580Y-112407420I150000J0D01*
G01*
X118560580Y-112407420D01*
G75*
G02*
X118710580Y-112557420I0J-150000D01*
G01*
X118710580Y-112857420D01*
G75*
G02*
X118560580Y-113007420I-150000J0D01*
G01*
X116910580Y-113007420D01*
G75*
G02*
X116760580Y-112857420I0J150000D01*
G01*
G37*
G36*
G01*
X116760580Y-114127420D02*
X116760580Y-113827420D01*
G75*
G02*
X116910580Y-113677420I150000J0D01*
G01*
X118560580Y-113677420D01*
G75*
G02*
X118710580Y-113827420I0J-150000D01*
G01*
X118710580Y-114127420D01*
G75*
G02*
X118560580Y-114277420I-150000J0D01*
G01*
X116910580Y-114277420D01*
G75*
G02*
X116760580Y-114127420I0J150000D01*
G01*
G37*
M02*
