M48
; DRILL file {KiCad (5.1.5)-3} date 24/10/2020 17:44:39
; FORMAT={-:-/ absolute / inch / decimal}
; #@! TF.CreationDate,2020-10-24T17:44:39+02:00
; #@! TF.GenerationSoftware,Kicad,Pcbnew,(5.1.5)-3
; #@! TF.FileFunction,Plated,1,2,PTH
FMAT,2
INCH
T1C0.0157
T2C0.0354
T3C0.0394
T4C0.0472
T5C0.0880
T6C0.0906
T7C0.0987
%
G90
G05
T1
X2.93Y-4.31
X2.97Y-4.59
X3.023Y-5.1633
X3.0365Y-5.0196
X3.079Y-5.631
X3.1594Y-5.0196
X3.178Y-5.4593
X3.2215Y-4.5091
X3.2888Y-4.5039
X3.3314Y-5.6283
X3.3382Y-5.229
X3.3812Y-4.9219
X3.3903Y-5.2719
X3.5363Y-5.3535
X3.5431Y-4.8297
X3.55Y-5.59
X3.5901Y-4.6288
X3.62Y-5.12
X3.6543Y-5.0157
X3.6891Y-4.4807
X3.69Y-5.29
X3.6906Y-4.8247
X3.7381Y-4.5162
X3.75Y-4.8992
X3.75Y-5.11
X3.75Y-5.35
X3.7659Y-4.1429
X3.7682Y-5.4887
X3.8326Y-5.2191
X3.8627Y-4.9692
X3.9955Y-4.8092
X4.0314Y-5.0654
X4.059Y-5.2074
X4.0869Y-5.52
X4.1969Y-5.2613
X4.198Y-5.0189
X4.3153Y-4.5759
X4.344Y-4.6966
X4.3658Y-4.5329
X4.385Y-5.395
X4.4592Y-4.99
X4.5579Y-4.3498
X4.5617Y-4.4267
X4.57Y-5.5
X4.57Y-5.63
X4.623Y-4.6121
X4.77Y-4.52
X4.8723Y-5.753
X4.91Y-5.16
X4.99Y-5.48
X5.1299Y-4.884
X5.5234Y-5.209
X5.5861Y-5.6425
X5.6413Y-5.5187
T2
X5.2689Y-5.5187
X5.2689Y-5.6171
X5.2689Y-5.6959
X5.2689Y-5.7943
X5.3721Y-5.5187
X5.3721Y-5.6171
X5.3721Y-5.6959
X5.3721Y-5.7943
T3
X4.1811Y-4.2539
X4.1811Y-4.3539
X4.1811Y-4.4539
X4.2811Y-4.3538
X2.57Y-4.33
X2.57Y-4.43
X2.57Y-4.53
X2.57Y-4.63
X2.57Y-4.73
X2.57Y-4.83
X3.6955Y-4.602
X3.7955Y-4.602
X3.8955Y-4.602
X3.9955Y-4.602
X3.2943Y-4.6458
X2.8354Y-5.8856
X2.8354Y-5.9856
X2.9354Y-5.8856
X2.9354Y-5.9856
X3.0354Y-5.8856
X3.0354Y-5.9856
X3.1354Y-5.8856
X3.1354Y-5.9856
X2.7657Y-3.9574
X2.7657Y-4.0574
X2.8657Y-3.9574
X2.8657Y-4.0574
X2.9657Y-3.9574
X2.9657Y-4.0574
X3.0657Y-3.9574
X3.0657Y-4.0574
X3.1657Y-3.9574
X3.1657Y-4.0574
X3.2657Y-3.9574
X3.2657Y-4.0574
X3.3657Y-3.9574
X3.3657Y-4.0574
X3.4657Y-3.9574
X3.4657Y-4.0574
X3.5657Y-3.9574
X3.5657Y-4.0574
X3.6657Y-3.9574
X3.6657Y-4.0574
X3.7657Y-3.9574
X3.7657Y-4.0574
X3.8657Y-3.9574
X3.8657Y-4.0574
X3.9657Y-3.9574
X3.9657Y-4.0574
X4.0657Y-3.9574
X4.0657Y-4.0574
X4.1657Y-3.9574
X4.1657Y-4.0574
X4.2657Y-3.9574
X4.2657Y-4.0574
X4.3657Y-3.9574
X4.3657Y-4.0574
X4.4657Y-3.9574
X4.4657Y-4.0574
X4.5657Y-3.9574
X4.5657Y-4.0574
X4.6657Y-3.9574
X4.6657Y-4.0574
X2.57Y-5.05
X2.57Y-5.15
X4.0812Y-4.3537
X4.43Y-5.93
X4.53Y-5.93
X4.63Y-5.93
X3.4943Y-4.6458
X3.3943Y-4.5459
X3.3943Y-4.6459
X3.3943Y-4.7459
T4
X3.2727Y-4.2093
X3.2727Y-4.3093
X3.2727Y-4.4093
X3.8369Y-4.2093
X3.8369Y-4.3093
X3.8369Y-4.4093
X3.5554Y-4.2093
X3.5554Y-4.3093
X3.5554Y-4.4093
T5
X5.3007Y-5.0207
X5.3007Y-4.4177
T6
X5.2552Y-5.3978
X5.2552Y-5.9152
X5.4788Y-5.3978
X5.4788Y-5.9152
T7
X5.4779Y-5.0207
X5.4779Y-4.4177
T3
G00X2.6048Y-5.4326
M15
G01X2.6048Y-5.5114
M16
G05
G00X2.6835Y-5.657
M15
G01X2.7623Y-5.657
M16
G05
G00X2.841Y-5.4326
M15
G01X2.841Y-5.5114
M16
G05
T0
M30
