G04 #@! TF.GenerationSoftware,KiCad,Pcbnew,(5.1.5)-3*
G04 #@! TF.CreationDate,2020-09-05T22:43:29+02:00*
G04 #@! TF.ProjectId,res_hat,7265735f-6861-4742-9e6b-696361645f70,rev?*
G04 #@! TF.SameCoordinates,Original*
G04 #@! TF.FileFunction,Legend,Top*
G04 #@! TF.FilePolarity,Positive*
%FSLAX46Y46*%
G04 Gerber Fmt 4.6, Leading zero omitted, Abs format (unit mm)*
G04 Created by KiCad (PCBNEW (5.1.5)-3) date 2020-09-05 22:43:29*
%MOMM*%
%LPD*%
G04 APERTURE LIST*
%ADD10C,0.120000*%
%ADD11C,0.200000*%
%ADD12C,0.100000*%
%ADD13C,0.254000*%
%ADD14C,0.150000*%
G04 APERTURE END LIST*
D10*
X104869940Y-106719060D02*
X106199940Y-106719060D01*
X104869940Y-108049060D02*
X104869940Y-106719060D01*
X104869940Y-109319060D02*
X107529940Y-109319060D01*
X107529940Y-109319060D02*
X107529940Y-114459060D01*
X104869940Y-109319060D02*
X104869940Y-114459060D01*
X104869940Y-114459060D02*
X107529940Y-114459060D01*
X92535700Y-116890800D02*
X92535700Y-115560800D01*
X92535700Y-115560800D02*
X93865700Y-115560800D01*
X95135700Y-115560800D02*
X102815700Y-115560800D01*
X102815700Y-118220800D02*
X102815700Y-115560800D01*
X95135700Y-118220800D02*
X102815700Y-118220800D01*
X95135700Y-118220800D02*
X95135700Y-115560800D01*
X107409940Y-109256520D02*
X108739940Y-109256520D01*
X107409940Y-110586520D02*
X107409940Y-109256520D01*
X107409940Y-111856520D02*
X110069940Y-111856520D01*
X110069940Y-111856520D02*
X110069940Y-111916520D01*
X107409940Y-111856520D02*
X107409940Y-111916520D01*
X107409940Y-111916520D02*
X110069940Y-111916520D01*
X87425220Y-116673320D02*
X88755220Y-116673320D01*
X87425220Y-118003320D02*
X87425220Y-116673320D01*
X87425220Y-119273320D02*
X90085220Y-119273320D01*
X90085220Y-119273320D02*
X90085220Y-119333320D01*
X87425220Y-119273320D02*
X87425220Y-119333320D01*
X87425220Y-119333320D02*
X90085220Y-119333320D01*
X102332480Y-109253980D02*
X103662480Y-109253980D01*
X102332480Y-110583980D02*
X102332480Y-109253980D01*
X102332480Y-111853980D02*
X104992480Y-111853980D01*
X104992480Y-111853980D02*
X104992480Y-111913980D01*
X102332480Y-111853980D02*
X102332480Y-111913980D01*
X102332480Y-111913980D02*
X104992480Y-111913980D01*
X82345220Y-116673320D02*
X83675220Y-116673320D01*
X82345220Y-118003320D02*
X82345220Y-116673320D01*
X82345220Y-119273320D02*
X85005220Y-119273320D01*
X85005220Y-119273320D02*
X85005220Y-119333320D01*
X82345220Y-119273320D02*
X82345220Y-119333320D01*
X82345220Y-119333320D02*
X85005220Y-119333320D01*
X87545220Y-121875860D02*
X86215220Y-121875860D01*
X87545220Y-120545860D02*
X87545220Y-121875860D01*
X87545220Y-119275860D02*
X84885220Y-119275860D01*
X84885220Y-119275860D02*
X84885220Y-114135860D01*
X87545220Y-119275860D02*
X87545220Y-114135860D01*
X87545220Y-114135860D02*
X84885220Y-114135860D01*
X63948000Y-126940000D02*
X65278000Y-126940000D01*
X63948000Y-128270000D02*
X63948000Y-126940000D01*
X63948000Y-129540000D02*
X66608000Y-129540000D01*
X66608000Y-129540000D02*
X66608000Y-132140000D01*
X63948000Y-129540000D02*
X63948000Y-132140000D01*
X63948000Y-132140000D02*
X66608000Y-132140000D01*
X73061400Y-134388800D02*
X73061400Y-136988800D01*
X58361400Y-134388800D02*
X73061400Y-134388800D01*
X73061400Y-143588800D02*
X71161400Y-143588800D01*
X73061400Y-140888800D02*
X73061400Y-143588800D01*
X58361400Y-143588800D02*
X58361400Y-134388800D01*
X67161400Y-143588800D02*
X58361400Y-143588800D01*
X72211400Y-134188800D02*
X73261400Y-134188800D01*
X73261400Y-135238800D02*
X73261400Y-134188800D01*
X86512300Y-107625660D02*
X86512300Y-107025660D01*
X84912300Y-107625660D02*
X86512300Y-107625660D01*
X84912300Y-107025660D02*
X84912300Y-107625660D01*
X83972300Y-107625660D02*
X83972300Y-107025660D01*
X82372300Y-107625660D02*
X83972300Y-107625660D01*
X82372300Y-107025660D02*
X82372300Y-107625660D01*
X81432300Y-107625660D02*
X81432300Y-107025660D01*
X79832300Y-107625660D02*
X81432300Y-107625660D01*
X79832300Y-107025660D02*
X79832300Y-107625660D01*
X85462300Y-113045660D02*
X85462300Y-112045660D01*
X80882300Y-113045660D02*
X80882300Y-112045660D01*
X85462300Y-111515660D02*
X85712300Y-112045660D01*
X80882300Y-111515660D02*
X85462300Y-111515660D01*
X80632300Y-112045660D02*
X80882300Y-111515660D01*
X85712300Y-112045660D02*
X85712300Y-113045660D01*
X80632300Y-112045660D02*
X85712300Y-112045660D01*
X80632300Y-113045660D02*
X80632300Y-112045660D01*
X78962300Y-108055660D02*
X78962300Y-112055660D01*
X87092300Y-107025660D02*
X79252300Y-107025660D01*
X87092300Y-113045660D02*
X87092300Y-107025660D01*
X79252300Y-113045660D02*
X87092300Y-113045660D01*
X79252300Y-107025660D02*
X79252300Y-113045660D01*
X98318220Y-107612960D02*
X98318220Y-107012960D01*
X96718220Y-107612960D02*
X98318220Y-107612960D01*
X96718220Y-107012960D02*
X96718220Y-107612960D01*
X95778220Y-107612960D02*
X95778220Y-107012960D01*
X94178220Y-107612960D02*
X95778220Y-107612960D01*
X94178220Y-107012960D02*
X94178220Y-107612960D01*
X93238220Y-107612960D02*
X93238220Y-107012960D01*
X91638220Y-107612960D02*
X93238220Y-107612960D01*
X91638220Y-107012960D02*
X91638220Y-107612960D01*
X97268220Y-113032960D02*
X97268220Y-112032960D01*
X92688220Y-113032960D02*
X92688220Y-112032960D01*
X97268220Y-111502960D02*
X97518220Y-112032960D01*
X92688220Y-111502960D02*
X97268220Y-111502960D01*
X92438220Y-112032960D02*
X92688220Y-111502960D01*
X97518220Y-112032960D02*
X97518220Y-113032960D01*
X92438220Y-112032960D02*
X97518220Y-112032960D01*
X92438220Y-113032960D02*
X92438220Y-112032960D01*
X90768220Y-108042960D02*
X90768220Y-112042960D01*
X98898220Y-107012960D02*
X91058220Y-107012960D01*
X98898220Y-113032960D02*
X98898220Y-107012960D01*
X91058220Y-113032960D02*
X98898220Y-113032960D01*
X91058220Y-107012960D02*
X91058220Y-113032960D01*
D11*
X139038660Y-122025780D02*
X139038660Y-122025780D01*
X139238660Y-122025780D02*
X139238660Y-122025780D01*
D12*
X133138660Y-122525780D02*
X133138660Y-124985780D01*
X143138660Y-122525780D02*
X133138660Y-122525780D01*
X143138660Y-123375780D02*
X143138660Y-122525780D01*
X152638660Y-123375780D02*
X143138660Y-123375780D01*
X152638660Y-131675780D02*
X152638660Y-123375780D01*
X143138660Y-131675780D02*
X152638660Y-131675780D01*
X143138660Y-132525780D02*
X143138660Y-131675780D01*
X133138660Y-132525780D02*
X143138660Y-132525780D01*
X133138660Y-130065780D02*
X133138660Y-132525780D01*
D11*
X139238660Y-122025780D02*
G75*
G02X139038660Y-122025780I-100000J0D01*
G01*
X139038660Y-122025780D02*
G75*
G02X139238660Y-122025780I100000J0D01*
G01*
X139038660Y-106709580D02*
X139038660Y-106709580D01*
X139238660Y-106709580D02*
X139238660Y-106709580D01*
D12*
X133138660Y-107209580D02*
X133138660Y-109669580D01*
X143138660Y-107209580D02*
X133138660Y-107209580D01*
X143138660Y-108059580D02*
X143138660Y-107209580D01*
X152638660Y-108059580D02*
X143138660Y-108059580D01*
X152638660Y-116359580D02*
X152638660Y-108059580D01*
X143138660Y-116359580D02*
X152638660Y-116359580D01*
X143138660Y-117209580D02*
X143138660Y-116359580D01*
X133138660Y-117209580D02*
X143138660Y-117209580D01*
X133138660Y-114749580D02*
X133138660Y-117209580D01*
D11*
X139238660Y-106709580D02*
G75*
G02X139038660Y-106709580I-100000J0D01*
G01*
X139038660Y-106709580D02*
G75*
G02X139238660Y-106709580I100000J0D01*
G01*
D10*
X68918780Y-104387960D02*
X68918780Y-103057960D01*
X70248780Y-104387960D02*
X68918780Y-104387960D01*
X68918780Y-101787960D02*
X68918780Y-99187960D01*
X71518780Y-101787960D02*
X68918780Y-101787960D01*
X71518780Y-104387960D02*
X71518780Y-101787960D01*
X68918780Y-99187960D02*
X119838780Y-99187960D01*
X71518780Y-104387960D02*
X119838780Y-104387960D01*
X119838780Y-104387960D02*
X119838780Y-99187960D01*
X63948000Y-108652000D02*
X65278000Y-108652000D01*
X63948000Y-109982000D02*
X63948000Y-108652000D01*
X63948000Y-111252000D02*
X66608000Y-111252000D01*
X66608000Y-111252000D02*
X66608000Y-124012000D01*
X63948000Y-111252000D02*
X63948000Y-124012000D01*
X63948000Y-124012000D02*
X66608000Y-124012000D01*
X111192000Y-151952000D02*
X111192000Y-150622000D01*
X112522000Y-151952000D02*
X111192000Y-151952000D01*
X113792000Y-151952000D02*
X113792000Y-149292000D01*
X113792000Y-149292000D02*
X118932000Y-149292000D01*
X113792000Y-151952000D02*
X118932000Y-151952000D01*
X118932000Y-151952000D02*
X118932000Y-149292000D01*
D11*
X124164940Y-135334100D02*
X124164940Y-135334100D01*
X124164940Y-135534100D02*
X124164940Y-135534100D01*
D12*
X120304940Y-129884100D02*
X114204940Y-129884100D01*
X120304940Y-136384100D02*
X120304940Y-129884100D01*
X114204940Y-136384100D02*
X120304940Y-136384100D01*
D11*
X124164940Y-135534100D02*
G75*
G02X124164940Y-135334100I0J100000D01*
G01*
X124164940Y-135334100D02*
G75*
G02X124164940Y-135534100I0J-100000D01*
G01*
X124220820Y-123739000D02*
X124220820Y-123739000D01*
X124220820Y-123939000D02*
X124220820Y-123939000D01*
D12*
X120360820Y-118289000D02*
X114260820Y-118289000D01*
X120360820Y-124789000D02*
X120360820Y-118289000D01*
X114260820Y-124789000D02*
X120360820Y-124789000D01*
D11*
X124220820Y-123939000D02*
G75*
G02X124220820Y-123739000I0J100000D01*
G01*
X124220820Y-123739000D02*
G75*
G02X124220820Y-123939000I0J-100000D01*
G01*
D13*
X131505600Y-147207100D02*
G75*
G03X131505600Y-147207100I-120700J0D01*
G01*
X132440900Y-148475100D02*
X132440900Y-138875100D01*
X149440900Y-150925100D02*
X140940900Y-150925100D01*
X149440900Y-136425100D02*
X140940900Y-136425100D01*
X149440900Y-150925100D02*
X149440900Y-136425100D01*
D14*
X103104701Y-105171440D02*
X103676130Y-105171440D01*
X103390416Y-106171440D02*
X103390416Y-105171440D01*
X103914225Y-105171440D02*
X104580892Y-106171440D01*
X104580892Y-105171440D02*
X103914225Y-106171440D01*
X104723749Y-106266679D02*
X105485654Y-106266679D01*
X106247559Y-105219060D02*
X106152320Y-105171440D01*
X106009463Y-105171440D01*
X105866606Y-105219060D01*
X105771368Y-105314298D01*
X105723749Y-105409536D01*
X105676130Y-105600012D01*
X105676130Y-105742869D01*
X105723749Y-105933345D01*
X105771368Y-106028583D01*
X105866606Y-106123821D01*
X106009463Y-106171440D01*
X106104701Y-106171440D01*
X106247559Y-106123821D01*
X106295178Y-106076202D01*
X106295178Y-105742869D01*
X106104701Y-105742869D01*
X106723749Y-106171440D02*
X106723749Y-105171440D01*
X107104701Y-105171440D01*
X107199940Y-105219060D01*
X107247559Y-105266679D01*
X107295178Y-105361917D01*
X107295178Y-105504774D01*
X107247559Y-105600012D01*
X107199940Y-105647631D01*
X107104701Y-105695250D01*
X106723749Y-105695250D01*
X107676130Y-106123821D02*
X107818987Y-106171440D01*
X108057082Y-106171440D01*
X108152320Y-106123821D01*
X108199940Y-106076202D01*
X108247559Y-105980964D01*
X108247559Y-105885726D01*
X108199940Y-105790488D01*
X108152320Y-105742869D01*
X108057082Y-105695250D01*
X107866606Y-105647631D01*
X107771368Y-105600012D01*
X107723749Y-105552393D01*
X107676130Y-105457155D01*
X107676130Y-105361917D01*
X107723749Y-105266679D01*
X107771368Y-105219060D01*
X107866606Y-105171440D01*
X108104701Y-105171440D01*
X108247559Y-105219060D01*
X109199940Y-106171440D02*
X108628511Y-106171440D01*
X108914225Y-106171440D02*
X108914225Y-105171440D01*
X108818987Y-105314298D01*
X108723749Y-105409536D01*
X108628511Y-105457155D01*
X86614095Y-144715000D02*
X86614095Y-143715000D01*
X86614095Y-144191191D02*
X87185523Y-144191191D01*
X87185523Y-144715000D02*
X87185523Y-143715000D01*
X87566476Y-143715000D02*
X88233142Y-143715000D01*
X87804571Y-144715000D01*
X107190635Y-144796280D02*
X107190635Y-143796280D01*
X107190635Y-144272471D02*
X107762063Y-144272471D01*
X107762063Y-144796280D02*
X107762063Y-143796280D01*
X108666825Y-143796280D02*
X108476349Y-143796280D01*
X108381111Y-143843900D01*
X108333492Y-143891519D01*
X108238254Y-144034376D01*
X108190635Y-144224852D01*
X108190635Y-144605804D01*
X108238254Y-144701042D01*
X108285873Y-144748661D01*
X108381111Y-144796280D01*
X108571587Y-144796280D01*
X108666825Y-144748661D01*
X108714444Y-144701042D01*
X108762063Y-144605804D01*
X108762063Y-144367709D01*
X108714444Y-144272471D01*
X108666825Y-144224852D01*
X108571587Y-144177233D01*
X108381111Y-144177233D01*
X108285873Y-144224852D01*
X108238254Y-144272471D01*
X108190635Y-144367709D01*
X90595700Y-118081276D02*
X90548080Y-118176514D01*
X90548080Y-118319371D01*
X90595700Y-118462228D01*
X90690938Y-118557466D01*
X90786176Y-118605085D01*
X90976652Y-118652704D01*
X91119509Y-118652704D01*
X91309985Y-118605085D01*
X91405223Y-118557466D01*
X91500461Y-118462228D01*
X91548080Y-118319371D01*
X91548080Y-118224133D01*
X91500461Y-118081276D01*
X91452842Y-118033657D01*
X91119509Y-118033657D01*
X91119509Y-118224133D01*
X91548080Y-117605085D02*
X90548080Y-117605085D01*
X90548080Y-117224133D01*
X90595700Y-117128895D01*
X90643319Y-117081276D01*
X90738557Y-117033657D01*
X90881414Y-117033657D01*
X90976652Y-117081276D01*
X91024271Y-117128895D01*
X91071890Y-117224133D01*
X91071890Y-117605085D01*
X91500461Y-116652704D02*
X91548080Y-116509847D01*
X91548080Y-116271752D01*
X91500461Y-116176514D01*
X91452842Y-116128895D01*
X91357604Y-116081276D01*
X91262366Y-116081276D01*
X91167128Y-116128895D01*
X91119509Y-116176514D01*
X91071890Y-116271752D01*
X91024271Y-116462228D01*
X90976652Y-116557466D01*
X90929033Y-116605085D01*
X90833795Y-116652704D01*
X90738557Y-116652704D01*
X90643319Y-116605085D01*
X90595700Y-116557466D01*
X90548080Y-116462228D01*
X90548080Y-116224133D01*
X90595700Y-116081276D01*
X91548080Y-115128895D02*
X91548080Y-115700323D01*
X91548080Y-115414609D02*
X90548080Y-115414609D01*
X90690938Y-115509847D01*
X90786176Y-115605085D01*
X90833795Y-115700323D01*
X107906987Y-108006900D02*
X108478416Y-108006900D01*
X108192701Y-109006900D02*
X108192701Y-108006900D01*
X108716511Y-108006900D02*
X109383178Y-109006900D01*
X109383178Y-108006900D02*
X108716511Y-109006900D01*
X109526035Y-109102139D02*
X110287940Y-109102139D01*
X110526035Y-109006900D02*
X110526035Y-108006900D01*
X111097463Y-109006900D01*
X111097463Y-108006900D01*
X112002225Y-109006900D02*
X112002225Y-108483091D01*
X111954606Y-108387853D01*
X111859368Y-108340234D01*
X111668892Y-108340234D01*
X111573654Y-108387853D01*
X112002225Y-108959281D02*
X111906987Y-109006900D01*
X111668892Y-109006900D01*
X111573654Y-108959281D01*
X111526035Y-108864043D01*
X111526035Y-108768805D01*
X111573654Y-108673567D01*
X111668892Y-108625948D01*
X111906987Y-108625948D01*
X112002225Y-108578329D01*
X112478416Y-108340234D02*
X112478416Y-109006900D01*
X112478416Y-108435472D02*
X112526035Y-108387853D01*
X112621273Y-108340234D01*
X112764130Y-108340234D01*
X112859368Y-108387853D01*
X112906987Y-108483091D01*
X112906987Y-109006900D01*
X113526035Y-109006900D02*
X113430797Y-108959281D01*
X113383178Y-108911662D01*
X113335559Y-108816424D01*
X113335559Y-108530710D01*
X113383178Y-108435472D01*
X113430797Y-108387853D01*
X113526035Y-108340234D01*
X113668892Y-108340234D01*
X113764130Y-108387853D01*
X113811749Y-108435472D01*
X113859368Y-108530710D01*
X113859368Y-108816424D01*
X113811749Y-108911662D01*
X113764130Y-108959281D01*
X113668892Y-109006900D01*
X113526035Y-109006900D01*
X114049844Y-109102139D02*
X114811749Y-109102139D01*
X115002225Y-108102139D02*
X115049844Y-108054520D01*
X115145082Y-108006900D01*
X115383178Y-108006900D01*
X115478416Y-108054520D01*
X115526035Y-108102139D01*
X115573654Y-108197377D01*
X115573654Y-108292615D01*
X115526035Y-108435472D01*
X114954606Y-109006900D01*
X115573654Y-109006900D01*
X88430267Y-114915700D02*
X89001696Y-114915700D01*
X88715981Y-115915700D02*
X88715981Y-114915700D01*
X89239791Y-114915700D02*
X89906458Y-115915700D01*
X89906458Y-114915700D02*
X89239791Y-115915700D01*
X90049315Y-116010939D02*
X90811220Y-116010939D01*
X91049315Y-115915700D02*
X91049315Y-114915700D01*
X91620743Y-115915700D01*
X91620743Y-114915700D01*
X92525505Y-115915700D02*
X92525505Y-115391891D01*
X92477886Y-115296653D01*
X92382648Y-115249034D01*
X92192172Y-115249034D01*
X92096934Y-115296653D01*
X92525505Y-115868081D02*
X92430267Y-115915700D01*
X92192172Y-115915700D01*
X92096934Y-115868081D01*
X92049315Y-115772843D01*
X92049315Y-115677605D01*
X92096934Y-115582367D01*
X92192172Y-115534748D01*
X92430267Y-115534748D01*
X92525505Y-115487129D01*
X93001696Y-115249034D02*
X93001696Y-115915700D01*
X93001696Y-115344272D02*
X93049315Y-115296653D01*
X93144553Y-115249034D01*
X93287410Y-115249034D01*
X93382648Y-115296653D01*
X93430267Y-115391891D01*
X93430267Y-115915700D01*
X94049315Y-115915700D02*
X93954077Y-115868081D01*
X93906458Y-115820462D01*
X93858839Y-115725224D01*
X93858839Y-115439510D01*
X93906458Y-115344272D01*
X93954077Y-115296653D01*
X94049315Y-115249034D01*
X94192172Y-115249034D01*
X94287410Y-115296653D01*
X94335029Y-115344272D01*
X94382648Y-115439510D01*
X94382648Y-115725224D01*
X94335029Y-115820462D01*
X94287410Y-115868081D01*
X94192172Y-115915700D01*
X94049315Y-115915700D01*
X94573124Y-116010939D02*
X95335029Y-116010939D01*
X96096934Y-115915700D02*
X95525505Y-115915700D01*
X95811220Y-115915700D02*
X95811220Y-114915700D01*
X95715981Y-115058558D01*
X95620743Y-115153796D01*
X95525505Y-115201415D01*
X97328765Y-108496360D02*
X96995432Y-108020170D01*
X96757337Y-108496360D02*
X96757337Y-107496360D01*
X97138289Y-107496360D01*
X97233527Y-107543980D01*
X97281146Y-107591599D01*
X97328765Y-107686837D01*
X97328765Y-107829694D01*
X97281146Y-107924932D01*
X97233527Y-107972551D01*
X97138289Y-108020170D01*
X96757337Y-108020170D01*
X97662099Y-107496360D02*
X98328765Y-108496360D01*
X98328765Y-107496360D02*
X97662099Y-108496360D01*
X98471622Y-108591599D02*
X99233527Y-108591599D01*
X99471622Y-108496360D02*
X99471622Y-107496360D01*
X100043051Y-108496360D01*
X100043051Y-107496360D01*
X100947813Y-108496360D02*
X100947813Y-107972551D01*
X100900194Y-107877313D01*
X100804956Y-107829694D01*
X100614480Y-107829694D01*
X100519241Y-107877313D01*
X100947813Y-108448741D02*
X100852575Y-108496360D01*
X100614480Y-108496360D01*
X100519241Y-108448741D01*
X100471622Y-108353503D01*
X100471622Y-108258265D01*
X100519241Y-108163027D01*
X100614480Y-108115408D01*
X100852575Y-108115408D01*
X100947813Y-108067789D01*
X101424003Y-107829694D02*
X101424003Y-108496360D01*
X101424003Y-107924932D02*
X101471622Y-107877313D01*
X101566860Y-107829694D01*
X101709718Y-107829694D01*
X101804956Y-107877313D01*
X101852575Y-107972551D01*
X101852575Y-108496360D01*
X102471622Y-108496360D02*
X102376384Y-108448741D01*
X102328765Y-108401122D01*
X102281146Y-108305884D01*
X102281146Y-108020170D01*
X102328765Y-107924932D01*
X102376384Y-107877313D01*
X102471622Y-107829694D01*
X102614480Y-107829694D01*
X102709718Y-107877313D01*
X102757337Y-107924932D01*
X102804956Y-108020170D01*
X102804956Y-108305884D01*
X102757337Y-108401122D01*
X102709718Y-108448741D01*
X102614480Y-108496360D01*
X102471622Y-108496360D01*
X102995432Y-108591599D02*
X103757337Y-108591599D01*
X103947813Y-107591599D02*
X103995432Y-107543980D01*
X104090670Y-107496360D01*
X104328765Y-107496360D01*
X104424003Y-107543980D01*
X104471622Y-107591599D01*
X104519241Y-107686837D01*
X104519241Y-107782075D01*
X104471622Y-107924932D01*
X103900194Y-108496360D01*
X104519241Y-108496360D01*
X76833505Y-115661700D02*
X76500172Y-115185510D01*
X76262077Y-115661700D02*
X76262077Y-114661700D01*
X76643029Y-114661700D01*
X76738267Y-114709320D01*
X76785886Y-114756939D01*
X76833505Y-114852177D01*
X76833505Y-114995034D01*
X76785886Y-115090272D01*
X76738267Y-115137891D01*
X76643029Y-115185510D01*
X76262077Y-115185510D01*
X77166839Y-114661700D02*
X77833505Y-115661700D01*
X77833505Y-114661700D02*
X77166839Y-115661700D01*
X77976362Y-115756939D02*
X78738267Y-115756939D01*
X78976362Y-115661700D02*
X78976362Y-114661700D01*
X79547791Y-115661700D01*
X79547791Y-114661700D01*
X80452553Y-115661700D02*
X80452553Y-115137891D01*
X80404934Y-115042653D01*
X80309696Y-114995034D01*
X80119220Y-114995034D01*
X80023981Y-115042653D01*
X80452553Y-115614081D02*
X80357315Y-115661700D01*
X80119220Y-115661700D01*
X80023981Y-115614081D01*
X79976362Y-115518843D01*
X79976362Y-115423605D01*
X80023981Y-115328367D01*
X80119220Y-115280748D01*
X80357315Y-115280748D01*
X80452553Y-115233129D01*
X80928743Y-114995034D02*
X80928743Y-115661700D01*
X80928743Y-115090272D02*
X80976362Y-115042653D01*
X81071600Y-114995034D01*
X81214458Y-114995034D01*
X81309696Y-115042653D01*
X81357315Y-115137891D01*
X81357315Y-115661700D01*
X81976362Y-115661700D02*
X81881124Y-115614081D01*
X81833505Y-115566462D01*
X81785886Y-115471224D01*
X81785886Y-115185510D01*
X81833505Y-115090272D01*
X81881124Y-115042653D01*
X81976362Y-114995034D01*
X82119220Y-114995034D01*
X82214458Y-115042653D01*
X82262077Y-115090272D01*
X82309696Y-115185510D01*
X82309696Y-115471224D01*
X82262077Y-115566462D01*
X82214458Y-115614081D01*
X82119220Y-115661700D01*
X81976362Y-115661700D01*
X82500172Y-115756939D02*
X83262077Y-115756939D01*
X84023981Y-115661700D02*
X83452553Y-115661700D01*
X83738267Y-115661700D02*
X83738267Y-114661700D01*
X83643029Y-114804558D01*
X83547791Y-114899796D01*
X83452553Y-114947415D01*
X83715220Y-123328240D02*
X83381886Y-122852050D01*
X83143791Y-123328240D02*
X83143791Y-122328240D01*
X83524743Y-122328240D01*
X83619981Y-122375860D01*
X83667600Y-122423479D01*
X83715220Y-122518717D01*
X83715220Y-122661574D01*
X83667600Y-122756812D01*
X83619981Y-122804431D01*
X83524743Y-122852050D01*
X83143791Y-122852050D01*
X84048553Y-122328240D02*
X84715220Y-123328240D01*
X84715220Y-122328240D02*
X84048553Y-123328240D01*
X84858077Y-123423479D02*
X85619981Y-123423479D01*
X86381886Y-122375860D02*
X86286648Y-122328240D01*
X86143791Y-122328240D01*
X86000934Y-122375860D01*
X85905696Y-122471098D01*
X85858077Y-122566336D01*
X85810458Y-122756812D01*
X85810458Y-122899669D01*
X85858077Y-123090145D01*
X85905696Y-123185383D01*
X86000934Y-123280621D01*
X86143791Y-123328240D01*
X86239029Y-123328240D01*
X86381886Y-123280621D01*
X86429505Y-123233002D01*
X86429505Y-122899669D01*
X86239029Y-122899669D01*
X86858077Y-123328240D02*
X86858077Y-122328240D01*
X87239029Y-122328240D01*
X87334267Y-122375860D01*
X87381886Y-122423479D01*
X87429505Y-122518717D01*
X87429505Y-122661574D01*
X87381886Y-122756812D01*
X87334267Y-122804431D01*
X87239029Y-122852050D01*
X86858077Y-122852050D01*
X87810458Y-123280621D02*
X87953315Y-123328240D01*
X88191410Y-123328240D01*
X88286648Y-123280621D01*
X88334267Y-123233002D01*
X88381886Y-123137764D01*
X88381886Y-123042526D01*
X88334267Y-122947288D01*
X88286648Y-122899669D01*
X88191410Y-122852050D01*
X88000934Y-122804431D01*
X87905696Y-122756812D01*
X87858077Y-122709193D01*
X87810458Y-122613955D01*
X87810458Y-122518717D01*
X87858077Y-122423479D01*
X87905696Y-122375860D01*
X88000934Y-122328240D01*
X88239029Y-122328240D01*
X88381886Y-122375860D01*
X89334267Y-123328240D02*
X88762839Y-123328240D01*
X89048553Y-123328240D02*
X89048553Y-122328240D01*
X88953315Y-122471098D01*
X88858077Y-122566336D01*
X88762839Y-122613955D01*
X72031955Y-118194860D02*
X72031955Y-117194860D01*
X72031955Y-117671051D02*
X72603383Y-117671051D01*
X72603383Y-118194860D02*
X72603383Y-117194860D01*
X73555764Y-117194860D02*
X73079574Y-117194860D01*
X73031955Y-117671051D01*
X73079574Y-117623432D01*
X73174812Y-117575813D01*
X73412907Y-117575813D01*
X73508145Y-117623432D01*
X73555764Y-117671051D01*
X73603383Y-117766289D01*
X73603383Y-118004384D01*
X73555764Y-118099622D01*
X73508145Y-118147241D01*
X73412907Y-118194860D01*
X73174812Y-118194860D01*
X73079574Y-118147241D01*
X73031955Y-118099622D01*
X64468476Y-125392380D02*
X64468476Y-126106666D01*
X64420857Y-126249523D01*
X64325619Y-126344761D01*
X64182761Y-126392380D01*
X64087523Y-126392380D01*
X65468476Y-126392380D02*
X64897047Y-126392380D01*
X65182761Y-126392380D02*
X65182761Y-125392380D01*
X65087523Y-125535238D01*
X64992285Y-125630476D01*
X64897047Y-125678095D01*
X66087523Y-125392380D02*
X66182761Y-125392380D01*
X66278000Y-125440000D01*
X66325619Y-125487619D01*
X66373238Y-125582857D01*
X66420857Y-125773333D01*
X66420857Y-126011428D01*
X66373238Y-126201904D01*
X66325619Y-126297142D01*
X66278000Y-126344761D01*
X66182761Y-126392380D01*
X66087523Y-126392380D01*
X65992285Y-126344761D01*
X65944666Y-126297142D01*
X65897047Y-126201904D01*
X65849428Y-126011428D01*
X65849428Y-125773333D01*
X65897047Y-125582857D01*
X65944666Y-125487619D01*
X65992285Y-125440000D01*
X66087523Y-125392380D01*
X62901876Y-144191180D02*
X62901876Y-144905466D01*
X62854257Y-145048323D01*
X62759019Y-145143561D01*
X62616161Y-145191180D01*
X62520923Y-145191180D01*
X63901876Y-145191180D02*
X63330447Y-145191180D01*
X63616161Y-145191180D02*
X63616161Y-144191180D01*
X63520923Y-144334038D01*
X63425685Y-144429276D01*
X63330447Y-144476895D01*
X64854257Y-145191180D02*
X64282828Y-145191180D01*
X64568542Y-145191180D02*
X64568542Y-144191180D01*
X64473304Y-144334038D01*
X64378066Y-144429276D01*
X64282828Y-144476895D01*
X122605895Y-147552180D02*
X122605895Y-146552180D01*
X122605895Y-147028371D02*
X123177323Y-147028371D01*
X123177323Y-147552180D02*
X123177323Y-146552180D01*
X124082085Y-146885514D02*
X124082085Y-147552180D01*
X123843990Y-146504561D02*
X123605895Y-147218847D01*
X124224942Y-147218847D01*
X122631295Y-98555580D02*
X122631295Y-97555580D01*
X122631295Y-98031771D02*
X123202723Y-98031771D01*
X123202723Y-98555580D02*
X123202723Y-97555580D01*
X123583676Y-97555580D02*
X124202723Y-97555580D01*
X123869390Y-97936533D01*
X124012247Y-97936533D01*
X124107485Y-97984152D01*
X124155104Y-98031771D01*
X124202723Y-98127009D01*
X124202723Y-98365104D01*
X124155104Y-98460342D01*
X124107485Y-98507961D01*
X124012247Y-98555580D01*
X123726533Y-98555580D01*
X123631295Y-98507961D01*
X123583676Y-98460342D01*
X64617695Y-147552180D02*
X64617695Y-146552180D01*
X64617695Y-147028371D02*
X65189123Y-147028371D01*
X65189123Y-147552180D02*
X65189123Y-146552180D01*
X65617695Y-146647419D02*
X65665314Y-146599800D01*
X65760552Y-146552180D01*
X65998647Y-146552180D01*
X66093885Y-146599800D01*
X66141504Y-146647419D01*
X66189123Y-146742657D01*
X66189123Y-146837895D01*
X66141504Y-146980752D01*
X65570076Y-147552180D01*
X66189123Y-147552180D01*
X64617695Y-98555580D02*
X64617695Y-97555580D01*
X64617695Y-98031771D02*
X65189123Y-98031771D01*
X65189123Y-98555580D02*
X65189123Y-97555580D01*
X66189123Y-98555580D02*
X65617695Y-98555580D01*
X65903409Y-98555580D02*
X65903409Y-97555580D01*
X65808171Y-97698438D01*
X65712933Y-97793676D01*
X65617695Y-97841295D01*
X82838966Y-105388040D02*
X82838966Y-106102326D01*
X82791347Y-106245183D01*
X82696109Y-106340421D01*
X82553252Y-106388040D01*
X82458014Y-106388040D01*
X83458014Y-105816612D02*
X83362776Y-105768993D01*
X83315157Y-105721374D01*
X83267538Y-105626136D01*
X83267538Y-105578517D01*
X83315157Y-105483279D01*
X83362776Y-105435660D01*
X83458014Y-105388040D01*
X83648490Y-105388040D01*
X83743728Y-105435660D01*
X83791347Y-105483279D01*
X83838966Y-105578517D01*
X83838966Y-105626136D01*
X83791347Y-105721374D01*
X83743728Y-105768993D01*
X83648490Y-105816612D01*
X83458014Y-105816612D01*
X83362776Y-105864231D01*
X83315157Y-105911850D01*
X83267538Y-106007088D01*
X83267538Y-106197564D01*
X83315157Y-106292802D01*
X83362776Y-106340421D01*
X83458014Y-106388040D01*
X83648490Y-106388040D01*
X83743728Y-106340421D01*
X83791347Y-106292802D01*
X83838966Y-106197564D01*
X83838966Y-106007088D01*
X83791347Y-105911850D01*
X83743728Y-105864231D01*
X83648490Y-105816612D01*
X94644886Y-105375340D02*
X94644886Y-106089626D01*
X94597267Y-106232483D01*
X94502029Y-106327721D01*
X94359172Y-106375340D01*
X94263934Y-106375340D01*
X95025839Y-105375340D02*
X95692505Y-105375340D01*
X95263934Y-106375340D01*
D13*
X142376326Y-126870303D02*
X142376326Y-127777446D01*
X142315850Y-127958875D01*
X142194898Y-128079827D01*
X142013469Y-128140303D01*
X141892517Y-128140303D01*
X143525374Y-126870303D02*
X143283469Y-126870303D01*
X143162517Y-126930780D01*
X143102040Y-126991256D01*
X142981088Y-127172684D01*
X142920612Y-127414589D01*
X142920612Y-127898399D01*
X142981088Y-128019351D01*
X143041564Y-128079827D01*
X143162517Y-128140303D01*
X143404421Y-128140303D01*
X143525374Y-128079827D01*
X143585850Y-128019351D01*
X143646326Y-127898399D01*
X143646326Y-127596018D01*
X143585850Y-127475065D01*
X143525374Y-127414589D01*
X143404421Y-127354113D01*
X143162517Y-127354113D01*
X143041564Y-127414589D01*
X142981088Y-127475065D01*
X142920612Y-127596018D01*
X142376326Y-111554103D02*
X142376326Y-112461246D01*
X142315850Y-112642675D01*
X142194898Y-112763627D01*
X142013469Y-112824103D01*
X141892517Y-112824103D01*
X143585850Y-111554103D02*
X142981088Y-111554103D01*
X142920612Y-112158865D01*
X142981088Y-112098389D01*
X143102040Y-112037913D01*
X143404421Y-112037913D01*
X143525374Y-112098389D01*
X143585850Y-112158865D01*
X143646326Y-112279818D01*
X143646326Y-112582199D01*
X143585850Y-112703151D01*
X143525374Y-112763627D01*
X143404421Y-112824103D01*
X143102040Y-112824103D01*
X142981088Y-112763627D01*
X142920612Y-112703151D01*
D14*
X67371160Y-102121293D02*
X68085446Y-102121293D01*
X68228303Y-102168912D01*
X68323541Y-102264150D01*
X68371160Y-102407007D01*
X68371160Y-102502245D01*
X68371160Y-101121293D02*
X68371160Y-101692721D01*
X68371160Y-101407007D02*
X67371160Y-101407007D01*
X67514018Y-101502245D01*
X67609256Y-101597483D01*
X67656875Y-101692721D01*
X64944666Y-107104380D02*
X64944666Y-107818666D01*
X64897047Y-107961523D01*
X64801809Y-108056761D01*
X64658952Y-108104380D01*
X64563714Y-108104380D01*
X65849428Y-107437714D02*
X65849428Y-108104380D01*
X65611333Y-107056761D02*
X65373238Y-107771047D01*
X65992285Y-107771047D01*
X109644380Y-150955333D02*
X110358666Y-150955333D01*
X110501523Y-151002952D01*
X110596761Y-151098190D01*
X110644380Y-151241047D01*
X110644380Y-151336285D01*
X109644380Y-150574380D02*
X109644380Y-149955333D01*
X110025333Y-150288666D01*
X110025333Y-150145809D01*
X110072952Y-150050571D01*
X110120571Y-150002952D01*
X110215809Y-149955333D01*
X110453904Y-149955333D01*
X110549142Y-150002952D01*
X110596761Y-150050571D01*
X110644380Y-150145809D01*
X110644380Y-150431523D01*
X110596761Y-150526761D01*
X110549142Y-150574380D01*
D13*
X118907416Y-133255052D02*
X118846940Y-133376004D01*
X118725987Y-133496957D01*
X118544559Y-133678385D01*
X118484082Y-133799338D01*
X118484082Y-133920290D01*
X118786463Y-133859814D02*
X118725987Y-133980766D01*
X118605035Y-134101719D01*
X118363130Y-134162195D01*
X117939797Y-134162195D01*
X117697892Y-134101719D01*
X117576940Y-133980766D01*
X117516463Y-133859814D01*
X117516463Y-133617909D01*
X117576940Y-133496957D01*
X117697892Y-133376004D01*
X117939797Y-133315528D01*
X118363130Y-133315528D01*
X118605035Y-133376004D01*
X118725987Y-133496957D01*
X118786463Y-133617909D01*
X118786463Y-133859814D01*
X117637416Y-132831719D02*
X117576940Y-132771242D01*
X117516463Y-132650290D01*
X117516463Y-132347909D01*
X117576940Y-132226957D01*
X117637416Y-132166480D01*
X117758368Y-132106004D01*
X117879320Y-132106004D01*
X118060749Y-132166480D01*
X118786463Y-132892195D01*
X118786463Y-132106004D01*
X118963296Y-121659952D02*
X118902820Y-121780904D01*
X118781867Y-121901857D01*
X118600439Y-122083285D01*
X118539962Y-122204238D01*
X118539962Y-122325190D01*
X118842343Y-122264714D02*
X118781867Y-122385666D01*
X118660915Y-122506619D01*
X118419010Y-122567095D01*
X117995677Y-122567095D01*
X117753772Y-122506619D01*
X117632820Y-122385666D01*
X117572343Y-122264714D01*
X117572343Y-122022809D01*
X117632820Y-121901857D01*
X117753772Y-121780904D01*
X117995677Y-121720428D01*
X118419010Y-121720428D01*
X118660915Y-121780904D01*
X118781867Y-121901857D01*
X118842343Y-122022809D01*
X118842343Y-122264714D01*
X118842343Y-120510904D02*
X118842343Y-121236619D01*
X118842343Y-120873761D02*
X117572343Y-120873761D01*
X117753772Y-120994714D01*
X117874724Y-121115666D01*
X117935200Y-121236619D01*
X138428423Y-144458433D02*
X139335566Y-144458433D01*
X139516995Y-144518909D01*
X139637947Y-144639861D01*
X139698423Y-144821290D01*
X139698423Y-144942242D01*
X139698423Y-143793195D02*
X139698423Y-143551290D01*
X139637947Y-143430338D01*
X139577471Y-143369861D01*
X139396042Y-143248909D01*
X139154138Y-143188433D01*
X138670328Y-143188433D01*
X138549376Y-143248909D01*
X138488900Y-143309385D01*
X138428423Y-143430338D01*
X138428423Y-143672242D01*
X138488900Y-143793195D01*
X138549376Y-143853671D01*
X138670328Y-143914147D01*
X138972709Y-143914147D01*
X139093661Y-143853671D01*
X139154138Y-143793195D01*
X139214614Y-143672242D01*
X139214614Y-143430338D01*
X139154138Y-143309385D01*
X139093661Y-143248909D01*
X138972709Y-143188433D01*
M02*
