G04 #@! TF.GenerationSoftware,KiCad,Pcbnew,(5.1.5)-3*
G04 #@! TF.CreationDate,2020-09-05T22:43:29+02:00*
G04 #@! TF.ProjectId,res_hat,7265735f-6861-4742-9e6b-696361645f70,rev?*
G04 #@! TF.SameCoordinates,Original*
G04 #@! TF.FileFunction,Legend,Bot*
G04 #@! TF.FilePolarity,Positive*
%FSLAX46Y46*%
G04 Gerber Fmt 4.6, Leading zero omitted, Abs format (unit mm)*
G04 Created by KiCad (PCBNEW (5.1.5)-3) date 2020-09-05 22:43:29*
%MOMM*%
%LPD*%
G04 APERTURE LIST*
%ADD10C,0.120000*%
%ADD11C,0.200000*%
%ADD12C,0.150000*%
%ADD13C,0.254000*%
G04 APERTURE END LIST*
D10*
X126245876Y-143951380D02*
X130350004Y-143951380D01*
X126245876Y-147371380D02*
X130350004Y-147371380D01*
X125844556Y-113705060D02*
X129948684Y-113705060D01*
X125844556Y-117125060D02*
X129948684Y-117125060D01*
X88278900Y-110400598D02*
X88278900Y-109883442D01*
X89698900Y-110400598D02*
X89698900Y-109883442D01*
X70689160Y-148164240D02*
X70689160Y-149494240D01*
X72019160Y-148164240D02*
X70689160Y-148164240D01*
X70689160Y-150764240D02*
X70689160Y-153364240D01*
X73289160Y-150764240D02*
X70689160Y-150764240D01*
X73289160Y-148164240D02*
X73289160Y-150764240D01*
X70689160Y-153364240D02*
X80969160Y-153364240D01*
X73289160Y-148164240D02*
X80969160Y-148164240D01*
X80969160Y-148164240D02*
X80969160Y-153364240D01*
X102357422Y-137466000D02*
X102874578Y-137466000D01*
X102357422Y-138886000D02*
X102874578Y-138886000D01*
X102357422Y-134320000D02*
X102874578Y-134320000D01*
X102357422Y-135740000D02*
X102874578Y-135740000D01*
X90927422Y-133656000D02*
X91444578Y-133656000D01*
X90927422Y-135076000D02*
X91444578Y-135076000D01*
X90927422Y-136958000D02*
X91444578Y-136958000D01*
X90927422Y-138378000D02*
X91444578Y-138378000D01*
X90673422Y-123750000D02*
X91190578Y-123750000D01*
X90673422Y-125170000D02*
X91190578Y-125170000D01*
X90673422Y-120448000D02*
X91190578Y-120448000D01*
X90673422Y-121868000D02*
X91190578Y-121868000D01*
X113542578Y-143712000D02*
X113025422Y-143712000D01*
X113542578Y-142292000D02*
X113025422Y-142292000D01*
X113025422Y-138990000D02*
X113542578Y-138990000D01*
X113025422Y-140410000D02*
X113542578Y-140410000D01*
X113796578Y-114502000D02*
X113279422Y-114502000D01*
X113796578Y-113082000D02*
X113279422Y-113082000D01*
X113279422Y-109780000D02*
X113796578Y-109780000D01*
X113279422Y-111200000D02*
X113796578Y-111200000D01*
X109092498Y-128190060D02*
X108575342Y-128190060D01*
X109092498Y-126770060D02*
X108575342Y-126770060D01*
X109023918Y-131890840D02*
X108506762Y-131890840D01*
X109023918Y-130470840D02*
X108506762Y-130470840D01*
X107136000Y-136393422D02*
X107136000Y-136910578D01*
X105716000Y-136393422D02*
X105716000Y-136910578D01*
X107390000Y-122931422D02*
X107390000Y-123448578D01*
X105970000Y-122931422D02*
X105970000Y-123448578D01*
X98246000Y-122931422D02*
X98246000Y-123448578D01*
X96826000Y-122931422D02*
X96826000Y-123448578D01*
X98246000Y-136393422D02*
X98246000Y-136910578D01*
X96826000Y-136393422D02*
X96826000Y-136910578D01*
X79243422Y-132640000D02*
X79760578Y-132640000D01*
X79243422Y-134060000D02*
X79760578Y-134060000D01*
X79243422Y-121464000D02*
X79760578Y-121464000D01*
X79243422Y-122884000D02*
X79760578Y-122884000D01*
X79243422Y-135942000D02*
X79760578Y-135942000D01*
X79243422Y-137362000D02*
X79760578Y-137362000D01*
X79760578Y-126186000D02*
X79243422Y-126186000D01*
X79760578Y-124766000D02*
X79243422Y-124766000D01*
D11*
X98887000Y-132120000D02*
X100414000Y-132120000D01*
X100764000Y-127088000D02*
X100764000Y-131992000D01*
X103960000Y-127088000D02*
X100764000Y-127088000D01*
X103960000Y-131992000D02*
X103960000Y-127088000D01*
X100764000Y-131992000D02*
X103960000Y-131992000D01*
X87040000Y-133782000D02*
X85640000Y-133782000D01*
X85290000Y-136832000D02*
X85290000Y-133932000D01*
X84890000Y-136832000D02*
X85290000Y-136832000D01*
X84890000Y-133932000D02*
X84890000Y-136832000D01*
X85290000Y-133932000D02*
X84890000Y-133932000D01*
X87040000Y-122860000D02*
X85640000Y-122860000D01*
X85290000Y-125910000D02*
X85290000Y-123010000D01*
X84890000Y-125910000D02*
X85290000Y-125910000D01*
X84890000Y-123010000D02*
X84890000Y-125910000D01*
X85290000Y-123010000D02*
X84890000Y-123010000D01*
D10*
X120606820Y-145081940D02*
X117156820Y-145081940D01*
X120606820Y-145081940D02*
X122556820Y-145081940D01*
X120606820Y-139961940D02*
X118656820Y-139961940D01*
X120606820Y-139961940D02*
X122556820Y-139961940D01*
X120210580Y-114632420D02*
X116760580Y-114632420D01*
X120210580Y-114632420D02*
X122160580Y-114632420D01*
X120210580Y-109512420D02*
X118260580Y-109512420D01*
X120210580Y-109512420D02*
X122160580Y-109512420D01*
D12*
X128940797Y-148733760D02*
X129274130Y-148257570D01*
X129512225Y-148733760D02*
X129512225Y-147733760D01*
X129131273Y-147733760D01*
X129036035Y-147781380D01*
X128988416Y-147828999D01*
X128940797Y-147924237D01*
X128940797Y-148067094D01*
X128988416Y-148162332D01*
X129036035Y-148209951D01*
X129131273Y-148257570D01*
X129512225Y-148257570D01*
X127988416Y-148733760D02*
X128559844Y-148733760D01*
X128274130Y-148733760D02*
X128274130Y-147733760D01*
X128369368Y-147876618D01*
X128464606Y-147971856D01*
X128559844Y-148019475D01*
X127655082Y-147733760D02*
X127036035Y-147733760D01*
X127369368Y-148114713D01*
X127226511Y-148114713D01*
X127131273Y-148162332D01*
X127083654Y-148209951D01*
X127036035Y-148305189D01*
X127036035Y-148543284D01*
X127083654Y-148638522D01*
X127131273Y-148686141D01*
X127226511Y-148733760D01*
X127512225Y-148733760D01*
X127607463Y-148686141D01*
X127655082Y-148638522D01*
X128539477Y-118487440D02*
X128872810Y-118011250D01*
X129110905Y-118487440D02*
X129110905Y-117487440D01*
X128729953Y-117487440D01*
X128634715Y-117535060D01*
X128587096Y-117582679D01*
X128539477Y-117677917D01*
X128539477Y-117820774D01*
X128587096Y-117916012D01*
X128634715Y-117963631D01*
X128729953Y-118011250D01*
X129110905Y-118011250D01*
X127587096Y-118487440D02*
X128158524Y-118487440D01*
X127872810Y-118487440D02*
X127872810Y-117487440D01*
X127968048Y-117630298D01*
X128063286Y-117725536D01*
X128158524Y-117773155D01*
X126634715Y-118487440D02*
X127206143Y-118487440D01*
X126920429Y-118487440D02*
X126920429Y-117487440D01*
X127015667Y-117630298D01*
X127110905Y-117725536D01*
X127206143Y-117773155D01*
X91091280Y-109499162D02*
X90615090Y-109165829D01*
X91091280Y-108927734D02*
X90091280Y-108927734D01*
X90091280Y-109308686D01*
X90138900Y-109403924D01*
X90186519Y-109451543D01*
X90281757Y-109499162D01*
X90424614Y-109499162D01*
X90519852Y-109451543D01*
X90567471Y-109403924D01*
X90615090Y-109308686D01*
X90615090Y-108927734D01*
X91091280Y-110451543D02*
X91091280Y-109880115D01*
X91091280Y-110165829D02*
X90091280Y-110165829D01*
X90234138Y-110070591D01*
X90329376Y-109975353D01*
X90376995Y-109880115D01*
X90091280Y-111356305D02*
X90091280Y-110880115D01*
X90567471Y-110832496D01*
X90519852Y-110880115D01*
X90472233Y-110975353D01*
X90472233Y-111213448D01*
X90519852Y-111308686D01*
X90567471Y-111356305D01*
X90662709Y-111403924D01*
X90900804Y-111403924D01*
X90996042Y-111356305D01*
X91043661Y-111308686D01*
X91091280Y-111213448D01*
X91091280Y-110975353D01*
X91043661Y-110880115D01*
X90996042Y-110832496D01*
X69141540Y-150430906D02*
X69855826Y-150430906D01*
X69998683Y-150383287D01*
X70093921Y-150288049D01*
X70141540Y-150145192D01*
X70141540Y-150049954D01*
X69236779Y-150859478D02*
X69189160Y-150907097D01*
X69141540Y-151002335D01*
X69141540Y-151240430D01*
X69189160Y-151335668D01*
X69236779Y-151383287D01*
X69332017Y-151430906D01*
X69427255Y-151430906D01*
X69570112Y-151383287D01*
X70141540Y-150811859D01*
X70141540Y-151430906D01*
X102782666Y-140183142D02*
X102830285Y-140230761D01*
X102973142Y-140278380D01*
X103068380Y-140278380D01*
X103211238Y-140230761D01*
X103306476Y-140135523D01*
X103354095Y-140040285D01*
X103401714Y-139849809D01*
X103401714Y-139706952D01*
X103354095Y-139516476D01*
X103306476Y-139421238D01*
X103211238Y-139326000D01*
X103068380Y-139278380D01*
X102973142Y-139278380D01*
X102830285Y-139326000D01*
X102782666Y-139373619D01*
X101925523Y-139278380D02*
X102116000Y-139278380D01*
X102211238Y-139326000D01*
X102258857Y-139373619D01*
X102354095Y-139516476D01*
X102401714Y-139706952D01*
X102401714Y-140087904D01*
X102354095Y-140183142D01*
X102306476Y-140230761D01*
X102211238Y-140278380D01*
X102020761Y-140278380D01*
X101925523Y-140230761D01*
X101877904Y-140183142D01*
X101830285Y-140087904D01*
X101830285Y-139849809D01*
X101877904Y-139754571D01*
X101925523Y-139706952D01*
X102020761Y-139659333D01*
X102211238Y-139659333D01*
X102306476Y-139706952D01*
X102354095Y-139754571D01*
X102401714Y-139849809D01*
X102782666Y-137037142D02*
X102830285Y-137084761D01*
X102973142Y-137132380D01*
X103068380Y-137132380D01*
X103211238Y-137084761D01*
X103306476Y-136989523D01*
X103354095Y-136894285D01*
X103401714Y-136703809D01*
X103401714Y-136560952D01*
X103354095Y-136370476D01*
X103306476Y-136275238D01*
X103211238Y-136180000D01*
X103068380Y-136132380D01*
X102973142Y-136132380D01*
X102830285Y-136180000D01*
X102782666Y-136227619D01*
X101877904Y-136132380D02*
X102354095Y-136132380D01*
X102401714Y-136608571D01*
X102354095Y-136560952D01*
X102258857Y-136513333D01*
X102020761Y-136513333D01*
X101925523Y-136560952D01*
X101877904Y-136608571D01*
X101830285Y-136703809D01*
X101830285Y-136941904D01*
X101877904Y-137037142D01*
X101925523Y-137084761D01*
X102020761Y-137132380D01*
X102258857Y-137132380D01*
X102354095Y-137084761D01*
X102401714Y-137037142D01*
X91352666Y-136373142D02*
X91400285Y-136420761D01*
X91543142Y-136468380D01*
X91638380Y-136468380D01*
X91781238Y-136420761D01*
X91876476Y-136325523D01*
X91924095Y-136230285D01*
X91971714Y-136039809D01*
X91971714Y-135896952D01*
X91924095Y-135706476D01*
X91876476Y-135611238D01*
X91781238Y-135516000D01*
X91638380Y-135468380D01*
X91543142Y-135468380D01*
X91400285Y-135516000D01*
X91352666Y-135563619D01*
X90495523Y-135801714D02*
X90495523Y-136468380D01*
X90733619Y-135420761D02*
X90971714Y-136135047D01*
X90352666Y-136135047D01*
X91352666Y-139675142D02*
X91400285Y-139722761D01*
X91543142Y-139770380D01*
X91638380Y-139770380D01*
X91781238Y-139722761D01*
X91876476Y-139627523D01*
X91924095Y-139532285D01*
X91971714Y-139341809D01*
X91971714Y-139198952D01*
X91924095Y-139008476D01*
X91876476Y-138913238D01*
X91781238Y-138818000D01*
X91638380Y-138770380D01*
X91543142Y-138770380D01*
X91400285Y-138818000D01*
X91352666Y-138865619D01*
X91019333Y-138770380D02*
X90400285Y-138770380D01*
X90733619Y-139151333D01*
X90590761Y-139151333D01*
X90495523Y-139198952D01*
X90447904Y-139246571D01*
X90400285Y-139341809D01*
X90400285Y-139579904D01*
X90447904Y-139675142D01*
X90495523Y-139722761D01*
X90590761Y-139770380D01*
X90876476Y-139770380D01*
X90971714Y-139722761D01*
X91019333Y-139675142D01*
X91098666Y-126467142D02*
X91146285Y-126514761D01*
X91289142Y-126562380D01*
X91384380Y-126562380D01*
X91527238Y-126514761D01*
X91622476Y-126419523D01*
X91670095Y-126324285D01*
X91717714Y-126133809D01*
X91717714Y-125990952D01*
X91670095Y-125800476D01*
X91622476Y-125705238D01*
X91527238Y-125610000D01*
X91384380Y-125562380D01*
X91289142Y-125562380D01*
X91146285Y-125610000D01*
X91098666Y-125657619D01*
X90717714Y-125657619D02*
X90670095Y-125610000D01*
X90574857Y-125562380D01*
X90336761Y-125562380D01*
X90241523Y-125610000D01*
X90193904Y-125657619D01*
X90146285Y-125752857D01*
X90146285Y-125848095D01*
X90193904Y-125990952D01*
X90765333Y-126562380D01*
X90146285Y-126562380D01*
X91098666Y-123165142D02*
X91146285Y-123212761D01*
X91289142Y-123260380D01*
X91384380Y-123260380D01*
X91527238Y-123212761D01*
X91622476Y-123117523D01*
X91670095Y-123022285D01*
X91717714Y-122831809D01*
X91717714Y-122688952D01*
X91670095Y-122498476D01*
X91622476Y-122403238D01*
X91527238Y-122308000D01*
X91384380Y-122260380D01*
X91289142Y-122260380D01*
X91146285Y-122308000D01*
X91098666Y-122355619D01*
X90146285Y-123260380D02*
X90717714Y-123260380D01*
X90432000Y-123260380D02*
X90432000Y-122260380D01*
X90527238Y-122403238D01*
X90622476Y-122498476D01*
X90717714Y-122546095D01*
X113926857Y-145232380D02*
X114260190Y-144756190D01*
X114498285Y-145232380D02*
X114498285Y-144232380D01*
X114117333Y-144232380D01*
X114022095Y-144280000D01*
X113974476Y-144327619D01*
X113926857Y-144422857D01*
X113926857Y-144565714D01*
X113974476Y-144660952D01*
X114022095Y-144708571D01*
X114117333Y-144756190D01*
X114498285Y-144756190D01*
X112974476Y-145232380D02*
X113545904Y-145232380D01*
X113260190Y-145232380D02*
X113260190Y-144232380D01*
X113355428Y-144375238D01*
X113450666Y-144470476D01*
X113545904Y-144518095D01*
X112641142Y-144232380D02*
X111974476Y-144232380D01*
X112403047Y-145232380D01*
X113926857Y-141802380D02*
X114260190Y-141326190D01*
X114498285Y-141802380D02*
X114498285Y-140802380D01*
X114117333Y-140802380D01*
X114022095Y-140850000D01*
X113974476Y-140897619D01*
X113926857Y-140992857D01*
X113926857Y-141135714D01*
X113974476Y-141230952D01*
X114022095Y-141278571D01*
X114117333Y-141326190D01*
X114498285Y-141326190D01*
X112974476Y-141802380D02*
X113545904Y-141802380D01*
X113260190Y-141802380D02*
X113260190Y-140802380D01*
X113355428Y-140945238D01*
X113450666Y-141040476D01*
X113545904Y-141088095D01*
X112117333Y-140802380D02*
X112307809Y-140802380D01*
X112403047Y-140850000D01*
X112450666Y-140897619D01*
X112545904Y-141040476D01*
X112593523Y-141230952D01*
X112593523Y-141611904D01*
X112545904Y-141707142D01*
X112498285Y-141754761D01*
X112403047Y-141802380D01*
X112212571Y-141802380D01*
X112117333Y-141754761D01*
X112069714Y-141707142D01*
X112022095Y-141611904D01*
X112022095Y-141373809D01*
X112069714Y-141278571D01*
X112117333Y-141230952D01*
X112212571Y-141183333D01*
X112403047Y-141183333D01*
X112498285Y-141230952D01*
X112545904Y-141278571D01*
X112593523Y-141373809D01*
X114180857Y-116022380D02*
X114514190Y-115546190D01*
X114752285Y-116022380D02*
X114752285Y-115022380D01*
X114371333Y-115022380D01*
X114276095Y-115070000D01*
X114228476Y-115117619D01*
X114180857Y-115212857D01*
X114180857Y-115355714D01*
X114228476Y-115450952D01*
X114276095Y-115498571D01*
X114371333Y-115546190D01*
X114752285Y-115546190D01*
X113228476Y-116022380D02*
X113799904Y-116022380D01*
X113514190Y-116022380D02*
X113514190Y-115022380D01*
X113609428Y-115165238D01*
X113704666Y-115260476D01*
X113799904Y-115308095D01*
X112371333Y-115355714D02*
X112371333Y-116022380D01*
X112609428Y-114974761D02*
X112847523Y-115689047D01*
X112228476Y-115689047D01*
X114180857Y-112592380D02*
X114514190Y-112116190D01*
X114752285Y-112592380D02*
X114752285Y-111592380D01*
X114371333Y-111592380D01*
X114276095Y-111640000D01*
X114228476Y-111687619D01*
X114180857Y-111782857D01*
X114180857Y-111925714D01*
X114228476Y-112020952D01*
X114276095Y-112068571D01*
X114371333Y-112116190D01*
X114752285Y-112116190D01*
X113228476Y-112592380D02*
X113799904Y-112592380D01*
X113514190Y-112592380D02*
X113514190Y-111592380D01*
X113609428Y-111735238D01*
X113704666Y-111830476D01*
X113799904Y-111878095D01*
X112847523Y-111687619D02*
X112799904Y-111640000D01*
X112704666Y-111592380D01*
X112466571Y-111592380D01*
X112371333Y-111640000D01*
X112323714Y-111687619D01*
X112276095Y-111782857D01*
X112276095Y-111878095D01*
X112323714Y-112020952D01*
X112895142Y-112592380D01*
X112276095Y-112592380D01*
X109476777Y-126282440D02*
X109810110Y-125806250D01*
X110048205Y-126282440D02*
X110048205Y-125282440D01*
X109667253Y-125282440D01*
X109572015Y-125330060D01*
X109524396Y-125377679D01*
X109476777Y-125472917D01*
X109476777Y-125615774D01*
X109524396Y-125711012D01*
X109572015Y-125758631D01*
X109667253Y-125806250D01*
X110048205Y-125806250D01*
X108524396Y-126282440D02*
X109095824Y-126282440D01*
X108810110Y-126282440D02*
X108810110Y-125282440D01*
X108905348Y-125425298D01*
X109000586Y-125520536D01*
X109095824Y-125568155D01*
X107905348Y-125282440D02*
X107810110Y-125282440D01*
X107714872Y-125330060D01*
X107667253Y-125377679D01*
X107619634Y-125472917D01*
X107572015Y-125663393D01*
X107572015Y-125901488D01*
X107619634Y-126091964D01*
X107667253Y-126187202D01*
X107714872Y-126234821D01*
X107810110Y-126282440D01*
X107905348Y-126282440D01*
X108000586Y-126234821D01*
X108048205Y-126187202D01*
X108095824Y-126091964D01*
X108143443Y-125901488D01*
X108143443Y-125663393D01*
X108095824Y-125472917D01*
X108048205Y-125377679D01*
X108000586Y-125330060D01*
X107905348Y-125282440D01*
X108932006Y-129983220D02*
X109265340Y-129507030D01*
X109503435Y-129983220D02*
X109503435Y-128983220D01*
X109122482Y-128983220D01*
X109027244Y-129030840D01*
X108979625Y-129078459D01*
X108932006Y-129173697D01*
X108932006Y-129316554D01*
X108979625Y-129411792D01*
X109027244Y-129459411D01*
X109122482Y-129507030D01*
X109503435Y-129507030D01*
X108455816Y-129983220D02*
X108265340Y-129983220D01*
X108170101Y-129935601D01*
X108122482Y-129887982D01*
X108027244Y-129745125D01*
X107979625Y-129554649D01*
X107979625Y-129173697D01*
X108027244Y-129078459D01*
X108074863Y-129030840D01*
X108170101Y-128983220D01*
X108360578Y-128983220D01*
X108455816Y-129030840D01*
X108503435Y-129078459D01*
X108551054Y-129173697D01*
X108551054Y-129411792D01*
X108503435Y-129507030D01*
X108455816Y-129554649D01*
X108360578Y-129602268D01*
X108170101Y-129602268D01*
X108074863Y-129554649D01*
X108027244Y-129507030D01*
X107979625Y-129411792D01*
X105228380Y-136485333D02*
X104752190Y-136152000D01*
X105228380Y-135913904D02*
X104228380Y-135913904D01*
X104228380Y-136294857D01*
X104276000Y-136390095D01*
X104323619Y-136437714D01*
X104418857Y-136485333D01*
X104561714Y-136485333D01*
X104656952Y-136437714D01*
X104704571Y-136390095D01*
X104752190Y-136294857D01*
X104752190Y-135913904D01*
X104656952Y-137056761D02*
X104609333Y-136961523D01*
X104561714Y-136913904D01*
X104466476Y-136866285D01*
X104418857Y-136866285D01*
X104323619Y-136913904D01*
X104276000Y-136961523D01*
X104228380Y-137056761D01*
X104228380Y-137247238D01*
X104276000Y-137342476D01*
X104323619Y-137390095D01*
X104418857Y-137437714D01*
X104466476Y-137437714D01*
X104561714Y-137390095D01*
X104609333Y-137342476D01*
X104656952Y-137247238D01*
X104656952Y-137056761D01*
X104704571Y-136961523D01*
X104752190Y-136913904D01*
X104847428Y-136866285D01*
X105037904Y-136866285D01*
X105133142Y-136913904D01*
X105180761Y-136961523D01*
X105228380Y-137056761D01*
X105228380Y-137247238D01*
X105180761Y-137342476D01*
X105133142Y-137390095D01*
X105037904Y-137437714D01*
X104847428Y-137437714D01*
X104752190Y-137390095D01*
X104704571Y-137342476D01*
X104656952Y-137247238D01*
X105482380Y-123023333D02*
X105006190Y-122690000D01*
X105482380Y-122451904D02*
X104482380Y-122451904D01*
X104482380Y-122832857D01*
X104530000Y-122928095D01*
X104577619Y-122975714D01*
X104672857Y-123023333D01*
X104815714Y-123023333D01*
X104910952Y-122975714D01*
X104958571Y-122928095D01*
X105006190Y-122832857D01*
X105006190Y-122451904D01*
X104482380Y-123356666D02*
X104482380Y-124023333D01*
X105482380Y-123594761D01*
X96338380Y-123023333D02*
X95862190Y-122690000D01*
X96338380Y-122451904D02*
X95338380Y-122451904D01*
X95338380Y-122832857D01*
X95386000Y-122928095D01*
X95433619Y-122975714D01*
X95528857Y-123023333D01*
X95671714Y-123023333D01*
X95766952Y-122975714D01*
X95814571Y-122928095D01*
X95862190Y-122832857D01*
X95862190Y-122451904D01*
X95338380Y-123880476D02*
X95338380Y-123690000D01*
X95386000Y-123594761D01*
X95433619Y-123547142D01*
X95576476Y-123451904D01*
X95766952Y-123404285D01*
X96147904Y-123404285D01*
X96243142Y-123451904D01*
X96290761Y-123499523D01*
X96338380Y-123594761D01*
X96338380Y-123785238D01*
X96290761Y-123880476D01*
X96243142Y-123928095D01*
X96147904Y-123975714D01*
X95909809Y-123975714D01*
X95814571Y-123928095D01*
X95766952Y-123880476D01*
X95719333Y-123785238D01*
X95719333Y-123594761D01*
X95766952Y-123499523D01*
X95814571Y-123451904D01*
X95909809Y-123404285D01*
X96338380Y-136485333D02*
X95862190Y-136152000D01*
X96338380Y-135913904D02*
X95338380Y-135913904D01*
X95338380Y-136294857D01*
X95386000Y-136390095D01*
X95433619Y-136437714D01*
X95528857Y-136485333D01*
X95671714Y-136485333D01*
X95766952Y-136437714D01*
X95814571Y-136390095D01*
X95862190Y-136294857D01*
X95862190Y-135913904D01*
X95338380Y-137390095D02*
X95338380Y-136913904D01*
X95814571Y-136866285D01*
X95766952Y-136913904D01*
X95719333Y-137009142D01*
X95719333Y-137247238D01*
X95766952Y-137342476D01*
X95814571Y-137390095D01*
X95909809Y-137437714D01*
X96147904Y-137437714D01*
X96243142Y-137390095D01*
X96290761Y-137342476D01*
X96338380Y-137247238D01*
X96338380Y-137009142D01*
X96290761Y-136913904D01*
X96243142Y-136866285D01*
X79668666Y-135452380D02*
X80002000Y-134976190D01*
X80240095Y-135452380D02*
X80240095Y-134452380D01*
X79859142Y-134452380D01*
X79763904Y-134500000D01*
X79716285Y-134547619D01*
X79668666Y-134642857D01*
X79668666Y-134785714D01*
X79716285Y-134880952D01*
X79763904Y-134928571D01*
X79859142Y-134976190D01*
X80240095Y-134976190D01*
X78811523Y-134785714D02*
X78811523Y-135452380D01*
X79049619Y-134404761D02*
X79287714Y-135119047D01*
X78668666Y-135119047D01*
X79668666Y-124276380D02*
X80002000Y-123800190D01*
X80240095Y-124276380D02*
X80240095Y-123276380D01*
X79859142Y-123276380D01*
X79763904Y-123324000D01*
X79716285Y-123371619D01*
X79668666Y-123466857D01*
X79668666Y-123609714D01*
X79716285Y-123704952D01*
X79763904Y-123752571D01*
X79859142Y-123800190D01*
X80240095Y-123800190D01*
X79335333Y-123276380D02*
X78716285Y-123276380D01*
X79049619Y-123657333D01*
X78906761Y-123657333D01*
X78811523Y-123704952D01*
X78763904Y-123752571D01*
X78716285Y-123847809D01*
X78716285Y-124085904D01*
X78763904Y-124181142D01*
X78811523Y-124228761D01*
X78906761Y-124276380D01*
X79192476Y-124276380D01*
X79287714Y-124228761D01*
X79335333Y-124181142D01*
X79668666Y-138754380D02*
X80002000Y-138278190D01*
X80240095Y-138754380D02*
X80240095Y-137754380D01*
X79859142Y-137754380D01*
X79763904Y-137802000D01*
X79716285Y-137849619D01*
X79668666Y-137944857D01*
X79668666Y-138087714D01*
X79716285Y-138182952D01*
X79763904Y-138230571D01*
X79859142Y-138278190D01*
X80240095Y-138278190D01*
X79287714Y-137849619D02*
X79240095Y-137802000D01*
X79144857Y-137754380D01*
X78906761Y-137754380D01*
X78811523Y-137802000D01*
X78763904Y-137849619D01*
X78716285Y-137944857D01*
X78716285Y-138040095D01*
X78763904Y-138182952D01*
X79335333Y-138754380D01*
X78716285Y-138754380D01*
X79668666Y-124278380D02*
X80002000Y-123802190D01*
X80240095Y-124278380D02*
X80240095Y-123278380D01*
X79859142Y-123278380D01*
X79763904Y-123326000D01*
X79716285Y-123373619D01*
X79668666Y-123468857D01*
X79668666Y-123611714D01*
X79716285Y-123706952D01*
X79763904Y-123754571D01*
X79859142Y-123802190D01*
X80240095Y-123802190D01*
X78716285Y-124278380D02*
X79287714Y-124278380D01*
X79002000Y-124278380D02*
X79002000Y-123278380D01*
X79097238Y-123421238D01*
X79192476Y-123516476D01*
X79287714Y-123564095D01*
D13*
X103601761Y-130114523D02*
X103601761Y-128844523D01*
X102271285Y-129993571D02*
X102331761Y-130054047D01*
X102513190Y-130114523D01*
X102634142Y-130114523D01*
X102815571Y-130054047D01*
X102936523Y-129933095D01*
X102997000Y-129812142D01*
X103057476Y-129570238D01*
X103057476Y-129388809D01*
X102997000Y-129146904D01*
X102936523Y-129025952D01*
X102815571Y-128905000D01*
X102634142Y-128844523D01*
X102513190Y-128844523D01*
X102331761Y-128905000D01*
X102271285Y-128965476D01*
X101847952Y-128844523D02*
X101061761Y-128844523D01*
X101485095Y-129328333D01*
X101303666Y-129328333D01*
X101182714Y-129388809D01*
X101122238Y-129449285D01*
X101061761Y-129570238D01*
X101061761Y-129872619D01*
X101122238Y-129993571D01*
X101182714Y-130054047D01*
X101303666Y-130114523D01*
X101666523Y-130114523D01*
X101787476Y-130054047D01*
X101847952Y-129993571D01*
X86329761Y-135956523D02*
X86329761Y-134686523D01*
X84999285Y-135835571D02*
X85059761Y-135896047D01*
X85241190Y-135956523D01*
X85362142Y-135956523D01*
X85543571Y-135896047D01*
X85664523Y-135775095D01*
X85725000Y-135654142D01*
X85785476Y-135412238D01*
X85785476Y-135230809D01*
X85725000Y-134988904D01*
X85664523Y-134867952D01*
X85543571Y-134747000D01*
X85362142Y-134686523D01*
X85241190Y-134686523D01*
X85059761Y-134747000D01*
X84999285Y-134807476D01*
X84515476Y-134807476D02*
X84455000Y-134747000D01*
X84334047Y-134686523D01*
X84031666Y-134686523D01*
X83910714Y-134747000D01*
X83850238Y-134807476D01*
X83789761Y-134928428D01*
X83789761Y-135049380D01*
X83850238Y-135230809D01*
X84575952Y-135956523D01*
X83789761Y-135956523D01*
X86329761Y-125034523D02*
X86329761Y-123764523D01*
X84999285Y-124913571D02*
X85059761Y-124974047D01*
X85241190Y-125034523D01*
X85362142Y-125034523D01*
X85543571Y-124974047D01*
X85664523Y-124853095D01*
X85725000Y-124732142D01*
X85785476Y-124490238D01*
X85785476Y-124308809D01*
X85725000Y-124066904D01*
X85664523Y-123945952D01*
X85543571Y-123825000D01*
X85362142Y-123764523D01*
X85241190Y-123764523D01*
X85059761Y-123825000D01*
X84999285Y-123885476D01*
X83789761Y-125034523D02*
X84515476Y-125034523D01*
X84152619Y-125034523D02*
X84152619Y-123764523D01*
X84273571Y-123945952D01*
X84394523Y-124066904D01*
X84515476Y-124127380D01*
D12*
X121368724Y-145374320D02*
X121368724Y-146183844D01*
X121321105Y-146279082D01*
X121273486Y-146326701D01*
X121178248Y-146374320D01*
X120987772Y-146374320D01*
X120892534Y-146326701D01*
X120844915Y-146279082D01*
X120797296Y-146183844D01*
X120797296Y-145374320D01*
X120368724Y-145469559D02*
X120321105Y-145421940D01*
X120225867Y-145374320D01*
X119987772Y-145374320D01*
X119892534Y-145421940D01*
X119844915Y-145469559D01*
X119797296Y-145564797D01*
X119797296Y-145660035D01*
X119844915Y-145802892D01*
X120416343Y-146374320D01*
X119797296Y-146374320D01*
X120972484Y-114924800D02*
X120972484Y-115734324D01*
X120924865Y-115829562D01*
X120877246Y-115877181D01*
X120782008Y-115924800D01*
X120591532Y-115924800D01*
X120496294Y-115877181D01*
X120448675Y-115829562D01*
X120401056Y-115734324D01*
X120401056Y-114924800D01*
X119401056Y-115924800D02*
X119972484Y-115924800D01*
X119686770Y-115924800D02*
X119686770Y-114924800D01*
X119782008Y-115067658D01*
X119877246Y-115162896D01*
X119972484Y-115210515D01*
M02*
