G04 #@! TF.GenerationSoftware,KiCad,Pcbnew,5.1.6-c6e7f7d~87~ubuntu18.04.1*
G04 #@! TF.CreationDate,2020-09-01T17:04:55+02:00*
G04 #@! TF.ProjectId,res_hat,7265735f-6861-4742-9e6b-696361645f70,rev?*
G04 #@! TF.SameCoordinates,Original*
G04 #@! TF.FileFunction,Copper,L1,Top*
G04 #@! TF.FilePolarity,Positive*
%FSLAX46Y46*%
G04 Gerber Fmt 4.6, Leading zero omitted, Abs format (unit mm)*
G04 Created by KiCad (PCBNEW 5.1.6-c6e7f7d~87~ubuntu18.04.1) date 2020-09-01 17:04:55*
%MOMM*%
%LPD*%
G01*
G04 APERTURE LIST*
G04 #@! TA.AperFunction,ComponentPad*
%ADD10O,1.700000X1.700000*%
G04 #@! TD*
G04 #@! TA.AperFunction,ComponentPad*
%ADD11R,1.700000X1.700000*%
G04 #@! TD*
G04 #@! TA.AperFunction,ComponentPad*
%ADD12R,3.500000X3.500000*%
G04 #@! TD*
G04 #@! TA.AperFunction,ComponentPad*
%ADD13O,1.740000X2.200000*%
G04 #@! TD*
G04 #@! TA.AperFunction,ComponentPad*
%ADD14C,3.354000*%
G04 #@! TD*
G04 #@! TA.AperFunction,ComponentPad*
%ADD15C,3.759000*%
G04 #@! TD*
G04 #@! TA.AperFunction,SMDPad,CuDef*
%ADD16R,2.850000X1.250000*%
G04 #@! TD*
G04 #@! TA.AperFunction,SMDPad,CuDef*
%ADD17R,6.500000X5.550000*%
G04 #@! TD*
G04 #@! TA.AperFunction,ComponentPad*
%ADD18C,3.300000*%
G04 #@! TD*
G04 #@! TA.AperFunction,ComponentPad*
%ADD19C,1.400000*%
G04 #@! TD*
G04 #@! TA.AperFunction,ViaPad*
%ADD20C,1.000000*%
G04 #@! TD*
G04 #@! TA.AperFunction,ViaPad*
%ADD21C,0.800000*%
G04 #@! TD*
G04 #@! TA.AperFunction,Conductor*
%ADD22C,1.000000*%
G04 #@! TD*
G04 #@! TA.AperFunction,Conductor*
%ADD23C,0.400000*%
G04 #@! TD*
G04 #@! TA.AperFunction,Conductor*
%ADD24C,0.250000*%
G04 #@! TD*
G04 #@! TA.AperFunction,Conductor*
%ADD25C,0.254000*%
G04 #@! TD*
G04 APERTURE END LIST*
D10*
X106199940Y-113129060D03*
X106199940Y-110589060D03*
D11*
X106199940Y-108049060D03*
D10*
X101485700Y-116890800D03*
X98945700Y-116890800D03*
X96405700Y-116890800D03*
D11*
X93865700Y-116890800D03*
X108739940Y-110586520D03*
X88755220Y-118003320D03*
X103662480Y-110583980D03*
X83675220Y-118003320D03*
D10*
X86215220Y-115465860D03*
X86215220Y-118005860D03*
D11*
X86215220Y-120545860D03*
D10*
X65278000Y-130810000D03*
D11*
X65278000Y-128270000D03*
G04 #@! TA.AperFunction,ComponentPad*
G36*
G01*
X67411400Y-144563800D02*
X67411400Y-142813800D01*
G75*
G02*
X68286400Y-141938800I875000J0D01*
G01*
X70036400Y-141938800D01*
G75*
G02*
X70911400Y-142813800I0J-875000D01*
G01*
X70911400Y-144563800D01*
G75*
G02*
X70036400Y-145438800I-875000J0D01*
G01*
X68286400Y-145438800D01*
G75*
G02*
X67411400Y-144563800I0J875000D01*
G01*
G37*
G04 #@! TD.AperFunction*
G04 #@! TA.AperFunction,ComponentPad*
G36*
G01*
X64661400Y-139988800D02*
X64661400Y-137988800D01*
G75*
G02*
X65411400Y-137238800I750000J0D01*
G01*
X66911400Y-137238800D01*
G75*
G02*
X67661400Y-137988800I0J-750000D01*
G01*
X67661400Y-139988800D01*
G75*
G02*
X66911400Y-140738800I-750000J0D01*
G01*
X65411400Y-140738800D01*
G75*
G02*
X64661400Y-139988800I0J750000D01*
G01*
G37*
G04 #@! TD.AperFunction*
D12*
X72161400Y-138988800D03*
D13*
X85712300Y-110055660D03*
X83172300Y-110055660D03*
G04 #@! TA.AperFunction,ComponentPad*
G36*
G01*
X79762300Y-110905661D02*
X79762300Y-109205659D01*
G75*
G02*
X80012299Y-108955660I249999J0D01*
G01*
X81252301Y-108955660D01*
G75*
G02*
X81502300Y-109205659I0J-249999D01*
G01*
X81502300Y-110905661D01*
G75*
G02*
X81252301Y-111155660I-249999J0D01*
G01*
X80012299Y-111155660D01*
G75*
G02*
X79762300Y-110905661I0J249999D01*
G01*
G37*
G04 #@! TD.AperFunction*
X97518220Y-110042960D03*
X94978220Y-110042960D03*
G04 #@! TA.AperFunction,ComponentPad*
G36*
G01*
X91568220Y-110892961D02*
X91568220Y-109192959D01*
G75*
G02*
X91818219Y-108942960I249999J0D01*
G01*
X93058221Y-108942960D01*
G75*
G02*
X93308220Y-109192959I0J-249999D01*
G01*
X93308220Y-110892961D01*
G75*
G02*
X93058221Y-111142960I-249999J0D01*
G01*
X91818219Y-111142960D01*
G75*
G02*
X91568220Y-110892961I0J249999D01*
G01*
G37*
G04 #@! TD.AperFunction*
D14*
X134638660Y-127525780D03*
D15*
X139138660Y-127525780D03*
D14*
X134638660Y-112209580D03*
D15*
X139138660Y-112209580D03*
D10*
X118508780Y-100517960D03*
X118508780Y-103057960D03*
X115968780Y-100517960D03*
X115968780Y-103057960D03*
X113428780Y-100517960D03*
X113428780Y-103057960D03*
X110888780Y-100517960D03*
X110888780Y-103057960D03*
X108348780Y-100517960D03*
X108348780Y-103057960D03*
X105808780Y-100517960D03*
X105808780Y-103057960D03*
X103268780Y-100517960D03*
X103268780Y-103057960D03*
X100728780Y-100517960D03*
X100728780Y-103057960D03*
X98188780Y-100517960D03*
X98188780Y-103057960D03*
X95648780Y-100517960D03*
X95648780Y-103057960D03*
X93108780Y-100517960D03*
X93108780Y-103057960D03*
X90568780Y-100517960D03*
X90568780Y-103057960D03*
X88028780Y-100517960D03*
X88028780Y-103057960D03*
X85488780Y-100517960D03*
X85488780Y-103057960D03*
X82948780Y-100517960D03*
X82948780Y-103057960D03*
X80408780Y-100517960D03*
X80408780Y-103057960D03*
X77868780Y-100517960D03*
X77868780Y-103057960D03*
X75328780Y-100517960D03*
X75328780Y-103057960D03*
X72788780Y-100517960D03*
X72788780Y-103057960D03*
X70248780Y-100517960D03*
D11*
X70248780Y-103057960D03*
D10*
X65278000Y-122682000D03*
X65278000Y-120142000D03*
X65278000Y-117602000D03*
X65278000Y-115062000D03*
X65278000Y-112522000D03*
D11*
X65278000Y-109982000D03*
D10*
X117602000Y-150622000D03*
X115062000Y-150622000D03*
D11*
X112522000Y-150622000D03*
D10*
X78848000Y-152042300D03*
X78848000Y-149502300D03*
X76308000Y-152042300D03*
X76308000Y-149502300D03*
X73768000Y-152042300D03*
X73768000Y-149502300D03*
X71228000Y-152042300D03*
D11*
X71228000Y-149502300D03*
D16*
X122324940Y-130854100D03*
D17*
X115924940Y-133134100D03*
D16*
X122324940Y-135414100D03*
X122380820Y-119259000D03*
D17*
X115980820Y-121539000D03*
D16*
X122380820Y-123819000D03*
D18*
X139160900Y-150245100D03*
X139160900Y-137105100D03*
X133480900Y-137105100D03*
X133480900Y-150245100D03*
D19*
X136450900Y-140175100D03*
X136450900Y-142675100D03*
X136450900Y-144675100D03*
X136450900Y-147175100D03*
X133830900Y-140175100D03*
X133830900Y-142675100D03*
X133830900Y-144675100D03*
X133830900Y-147175100D03*
D20*
X143288900Y-140175100D03*
X126746000Y-139192000D03*
X119888000Y-146558000D03*
D21*
X124714000Y-131064000D03*
X117094000Y-128270000D03*
X103807500Y-140208000D03*
X91188540Y-117571520D03*
X92435680Y-115232180D03*
X87993220Y-137429240D03*
X101485700Y-122153200D03*
X111531400Y-119761000D03*
X95250000Y-124439680D03*
X95711619Y-139413881D03*
X130299460Y-124053600D03*
X140294360Y-132308600D03*
X86116160Y-129557780D03*
X77713840Y-129847340D03*
X88290400Y-132742940D03*
X141886940Y-143319500D03*
X97561400Y-132598160D03*
X93726000Y-134366000D03*
X94037720Y-113780000D03*
X93741240Y-122547380D03*
X116078000Y-139700000D03*
X90170000Y-141986000D03*
X74422000Y-109474000D03*
X110891320Y-115135660D03*
X84235290Y-127260350D03*
X78677770Y-127260350D03*
X82207100Y-134622540D03*
X81634450Y-137846950D03*
X115770660Y-110484920D03*
X75438000Y-116586000D03*
X116078000Y-143002000D03*
X78206600Y-143027400D03*
X121158000Y-114808000D03*
X82031840Y-130291840D03*
X81832450Y-132195570D03*
X84617560Y-142958820D03*
X115867180Y-112438180D03*
X95250000Y-129794000D03*
X91948000Y-130048000D03*
X89019380Y-129570480D03*
X88013540Y-122796300D03*
X95250000Y-135890000D03*
X98112580Y-126217680D03*
X103098600Y-132267960D03*
X102397560Y-128661160D03*
X106629200Y-127480060D03*
X106601260Y-133637020D03*
X113263680Y-126746000D03*
X109220000Y-134874000D03*
X111379000Y-137033000D03*
X85514180Y-106281220D03*
X89461340Y-112603280D03*
X95902780Y-106080560D03*
X83535520Y-114400190D03*
X81827310Y-114529930D03*
X109608620Y-116227860D03*
D22*
X115980820Y-121539000D02*
X128397000Y-121539000D01*
X134638660Y-115297340D02*
X134638660Y-112209580D01*
X128397000Y-121539000D02*
X134638660Y-115297340D01*
X128397000Y-121539000D02*
X140589000Y-121539000D01*
X140589000Y-121539000D02*
X144526000Y-125476000D01*
X144526000Y-125476000D02*
X144526000Y-138938000D01*
X143288900Y-140175100D02*
X143288900Y-140175100D01*
X144526000Y-138938000D02*
X143288900Y-140175100D01*
X119888000Y-146558000D02*
X125984000Y-146558000D01*
X126746000Y-145796000D02*
X126746000Y-139192000D01*
X125984000Y-146558000D02*
X126746000Y-145796000D01*
X115911999Y-149772001D02*
X115911999Y-147486001D01*
X115062000Y-150622000D02*
X115911999Y-149772001D01*
X116840000Y-146558000D02*
X119888000Y-146558000D01*
X115911999Y-147486001D02*
X116840000Y-146558000D01*
X90248500Y-138368000D02*
X90248500Y-137668000D01*
X90248500Y-139413881D02*
X90248500Y-138368000D01*
X90248500Y-134366000D02*
X90248500Y-135745460D01*
X90248500Y-139413881D02*
X92996119Y-139413881D01*
X95711619Y-139413881D02*
X95711619Y-139413881D01*
X103807500Y-140208000D02*
X103807500Y-140208000D01*
X96505738Y-140208000D02*
X103807500Y-140208000D01*
X89994500Y-121158000D02*
X89994500Y-123045460D01*
X90248500Y-124714000D02*
X89994500Y-124460000D01*
X90248500Y-127683500D02*
X92026500Y-127683500D01*
X90248500Y-127683500D02*
X90248500Y-124714000D01*
X90248500Y-134366000D02*
X90248500Y-127683500D01*
X95250000Y-124460000D02*
X95250000Y-124439680D01*
X111859000Y-116586000D02*
X121920000Y-116586000D01*
X122380820Y-117046820D02*
X122380820Y-119259000D01*
X121920000Y-116586000D02*
X122380820Y-117046820D01*
X122324940Y-129229100D02*
X122324940Y-130854100D01*
X121365840Y-128270000D02*
X122324940Y-129229100D01*
X92026500Y-127683500D02*
X93472000Y-126238000D01*
X93472000Y-126238000D02*
X95250000Y-124460000D01*
D23*
X122324940Y-130854100D02*
X124504100Y-130854100D01*
X124504100Y-130854100D02*
X124714000Y-131064000D01*
X124714000Y-131064000D02*
X124714000Y-131064000D01*
D22*
X117094000Y-128270000D02*
X121365840Y-128270000D01*
D23*
X65278000Y-138105400D02*
X66161400Y-138988800D01*
X65278000Y-130810000D02*
X65278000Y-138105400D01*
D22*
X84582000Y-140716000D02*
X89154000Y-140716000D01*
X79248000Y-146050000D02*
X84582000Y-140716000D01*
X89154000Y-140716000D02*
X90248500Y-139413881D01*
X92996119Y-139413881D02*
X95711619Y-139413881D01*
X79248000Y-147900219D02*
X79248000Y-146050000D01*
X78848000Y-148300219D02*
X79248000Y-147900219D01*
X78848000Y-149502300D02*
X78848000Y-148300219D01*
X66161400Y-140738800D02*
X66161400Y-138988800D01*
X65024000Y-140970000D02*
X65930200Y-140970000D01*
X65024000Y-145034000D02*
X65024000Y-140970000D01*
X73768000Y-149502300D02*
X73768000Y-148300219D01*
X67652299Y-147662299D02*
X65024000Y-145034000D01*
X65930200Y-140970000D02*
X66161400Y-140738800D01*
X73768000Y-148300219D02*
X73820080Y-148248139D01*
X73820080Y-148248139D02*
X73820080Y-147662299D01*
X70025919Y-152042300D02*
X71228000Y-152042300D01*
X68947699Y-147662299D02*
X68947699Y-150964080D01*
X68947699Y-147662299D02*
X67652299Y-147662299D01*
X68947699Y-150964080D02*
X70025919Y-152042300D01*
X73820080Y-147662299D02*
X68947699Y-147662299D01*
X73768000Y-149502300D02*
X76308000Y-152042300D01*
X78848000Y-149502300D02*
X76308000Y-152042300D01*
X92435680Y-112626320D02*
X92466160Y-110398560D01*
X111531400Y-119761000D02*
X111531400Y-116735860D01*
X111531400Y-116735860D02*
X111859000Y-116586000D01*
X92435680Y-115257580D02*
X92435680Y-115232180D01*
X89994500Y-120458000D02*
X91188540Y-119263960D01*
X89994500Y-121158000D02*
X89994500Y-120458000D01*
X91188540Y-119263960D02*
X91188540Y-117571520D01*
X101485700Y-122153200D02*
X101585000Y-122252500D01*
X101485700Y-116890800D02*
X101485700Y-122153200D01*
X92435680Y-115232180D02*
X92435680Y-112626320D01*
X89994500Y-123045460D02*
X89994500Y-124460000D01*
X90248500Y-135745460D02*
X90248500Y-137668000D01*
D23*
X90009740Y-137429240D02*
X90248500Y-137668000D01*
X87993220Y-137429240D02*
X90009740Y-137429240D01*
D22*
X101485700Y-122153200D02*
X101485700Y-122153200D01*
X112522000Y-128270000D02*
X117094000Y-128270000D01*
X104663240Y-140208000D02*
X105100120Y-139771120D01*
X103807500Y-140208000D02*
X104663240Y-140208000D01*
X105100120Y-139771120D02*
X106608880Y-139771120D01*
X106608880Y-139771120D02*
X111760000Y-134620000D01*
X111760000Y-134620000D02*
X111760000Y-129032000D01*
X111760000Y-129032000D02*
X112522000Y-128270000D01*
X95711619Y-139413881D02*
X96505738Y-140208000D01*
D23*
X94037720Y-116718780D02*
X93865700Y-116890800D01*
X94037720Y-113780000D02*
X94037720Y-116718780D01*
X93726000Y-117030500D02*
X93865700Y-116890800D01*
X93741240Y-122547380D02*
X93726000Y-117030500D01*
D24*
X90170000Y-141986000D02*
X90170000Y-141986000D01*
X75328780Y-109364780D02*
X75328780Y-103057960D01*
X75219560Y-109474000D02*
X75328780Y-109364780D01*
X74422000Y-109474000D02*
X75219560Y-109474000D01*
X84235290Y-127260350D02*
X78677770Y-127260350D01*
X78677770Y-127260350D02*
X78677770Y-127260350D01*
X82207100Y-137274300D02*
X81634450Y-137846950D01*
X82207100Y-134622540D02*
X82207100Y-137274300D01*
X115092480Y-140685520D02*
X116078000Y-139700000D01*
X113792000Y-141986000D02*
X115092480Y-140685520D01*
X90170000Y-141986000D02*
X113792000Y-141986000D01*
X114554000Y-110490000D02*
X110891320Y-115135660D01*
X115770660Y-110484920D02*
X114554000Y-110490000D01*
X73406000Y-103675180D02*
X72788780Y-103057960D01*
X73406000Y-116586000D02*
X73406000Y-103675180D01*
X72390000Y-117602000D02*
X65278000Y-117602000D01*
X73406000Y-116586000D02*
X72390000Y-117602000D01*
X73406000Y-116586000D02*
X75438000Y-116586000D01*
X78232000Y-140519002D02*
X78232000Y-143052800D01*
X74588001Y-136875003D02*
X78232000Y-140519002D01*
X82031840Y-130291840D02*
X82031840Y-131996180D01*
X82031840Y-131996180D02*
X81832450Y-132195570D01*
X81825199Y-132202821D02*
X74588001Y-132202821D01*
X74588001Y-132202821D02*
X74588001Y-136875003D01*
X81832450Y-132195570D02*
X81825199Y-132202821D01*
X90126820Y-142958820D02*
X84617560Y-142958820D01*
X90170000Y-143002000D02*
X90126820Y-142958820D01*
X116078000Y-143002000D02*
X90170000Y-143002000D01*
X118618000Y-114808000D02*
X121158000Y-114808000D01*
X115867180Y-112438180D02*
X118618000Y-114808000D01*
X94850001Y-130193999D02*
X92093999Y-130193999D01*
X95250000Y-129794000D02*
X94850001Y-130193999D01*
X92093999Y-130193999D02*
X91948000Y-130048000D01*
X91948000Y-130048000D02*
X91948000Y-130048000D01*
X89019380Y-123802140D02*
X88013540Y-122796300D01*
X89019380Y-129570480D02*
X89019380Y-123802140D01*
X98112580Y-126217680D02*
X98112580Y-128539240D01*
X95250000Y-131401820D02*
X95250000Y-135890000D01*
X98112580Y-128539240D02*
X95250000Y-131401820D01*
X102397560Y-131566920D02*
X103098600Y-132267960D01*
X102397560Y-128661160D02*
X102397560Y-131566920D01*
X106629200Y-133609080D02*
X106601260Y-133637020D01*
X106629200Y-127480060D02*
X106629200Y-133609080D01*
D23*
X122380820Y-124844000D02*
X122380820Y-123819000D01*
X120478820Y-126746000D02*
X122380820Y-124844000D01*
X113263680Y-126746000D02*
X120478820Y-126746000D01*
X109220000Y-134874000D02*
X109220000Y-134874000D01*
X111506000Y-137160000D02*
X112268000Y-137922000D01*
X112268000Y-137922000D02*
X122174000Y-137922000D01*
X122324940Y-137771060D02*
X122174000Y-137922000D01*
X122324940Y-135414100D02*
X122324940Y-137771060D01*
D22*
X75858001Y-144946001D02*
X75858001Y-149052301D01*
X72161400Y-138988800D02*
X72161400Y-141249400D01*
X75858001Y-149052301D02*
X76308000Y-149502300D01*
X72161400Y-141249400D02*
X75858001Y-144946001D01*
D24*
X97282000Y-109982000D02*
X97515680Y-110176320D01*
X85758020Y-108606600D02*
X85520520Y-108369100D01*
X85758020Y-109956600D02*
X85758020Y-108606600D01*
X97546160Y-110398560D02*
X97546160Y-109048560D01*
X85514180Y-106281220D02*
X85520520Y-108369100D01*
X97518220Y-110042960D02*
X97518220Y-108963460D01*
X97518220Y-108963460D02*
X97017840Y-108463080D01*
X91734910Y-108463080D02*
X90281760Y-109916230D01*
X97017840Y-108463080D02*
X91734910Y-108463080D01*
X90281760Y-109916230D02*
X90281760Y-111782860D01*
X90281760Y-111782860D02*
X89461340Y-112603280D01*
X89461340Y-112603280D02*
X89461340Y-112603280D01*
D23*
X70248780Y-100517960D02*
X72788780Y-100517960D01*
D22*
X132062220Y-127525780D02*
X134638660Y-127525780D01*
X115924940Y-133134100D02*
X126453900Y-133134100D01*
X126453900Y-133134100D02*
X132062220Y-127525780D01*
X126453900Y-133134100D02*
X126453900Y-136105900D01*
X130523100Y-140175100D02*
X133830900Y-140175100D01*
X126453900Y-136105900D02*
X130523100Y-140175100D01*
X133480900Y-150245100D02*
X139160900Y-150245100D01*
X133480900Y-137105100D02*
X139160900Y-137105100D01*
X139160900Y-139438552D02*
X139160900Y-150245100D01*
X139160900Y-137105100D02*
X139160900Y-139438552D01*
D23*
X76618779Y-101807959D02*
X75328780Y-100517960D01*
X76618779Y-123787221D02*
X76618779Y-101807959D01*
X65278000Y-128270000D02*
X72136000Y-128270000D01*
X72136000Y-128270000D02*
X76618779Y-123787221D01*
D24*
X107532170Y-115253770D02*
X100582730Y-115253770D01*
X107533440Y-115252500D02*
X107532170Y-115253770D01*
X100582730Y-115253770D02*
X98945700Y-116890800D01*
X107533440Y-111922560D02*
X107533440Y-115252500D01*
X106199940Y-110589060D02*
X107533440Y-111922560D01*
X95902780Y-106080560D02*
X95902780Y-106080560D01*
X95902780Y-106080560D02*
X100545900Y-106080560D01*
X103662480Y-109197140D02*
X103662480Y-110583980D01*
X100545900Y-106080560D02*
X103662480Y-109197140D01*
X83535520Y-114400190D02*
X83535520Y-114400190D01*
X87233055Y-110702655D02*
X87233055Y-107465565D01*
X87233055Y-110702655D02*
X83535520Y-114400190D01*
X88618060Y-106080560D02*
X92321380Y-106080560D01*
X87233055Y-107465565D02*
X88618060Y-106080560D01*
X95902780Y-106080560D02*
X92321380Y-106080560D01*
X105279937Y-109414059D02*
X100916740Y-105050862D01*
X108739940Y-110586520D02*
X107567479Y-109414059D01*
X107567479Y-109414059D02*
X105279937Y-109414059D01*
X95101682Y-105050862D02*
X93108780Y-103057960D01*
X100916740Y-105050862D02*
X95101682Y-105050862D01*
X81827310Y-108903830D02*
X81827310Y-114529930D01*
X93108780Y-103057960D02*
X91875441Y-104291299D01*
X86439841Y-104291299D02*
X81827310Y-108903830D01*
X91875441Y-104291299D02*
X86439841Y-104291299D01*
X81827310Y-114529930D02*
X81827310Y-114529930D01*
X110008619Y-109570197D02*
X108418902Y-107980480D01*
X109608620Y-116227860D02*
X110008619Y-115827861D01*
X110008619Y-115827861D02*
X110008619Y-109570197D01*
X106268520Y-107980480D02*
X106199940Y-108049060D01*
X108418902Y-107980480D02*
X106268520Y-107980480D01*
X79233779Y-101692961D02*
X80408780Y-100517960D01*
X79233779Y-103509061D02*
X79233779Y-101692961D01*
X77751940Y-104990900D02*
X79233779Y-103509061D01*
X77751940Y-116080540D02*
X77751940Y-104990900D01*
X82217260Y-120545860D02*
X77751940Y-116080540D01*
X86215220Y-120545860D02*
X82217260Y-120545860D01*
X80424020Y-115465860D02*
X86215220Y-115465860D01*
X79233779Y-114275619D02*
X80424020Y-115465860D01*
X79043781Y-99342959D02*
X81527399Y-99342959D01*
X77868780Y-100517960D02*
X79043781Y-99342959D01*
X81773779Y-99589339D02*
X81773779Y-106061761D01*
X81527399Y-99342959D02*
X81773779Y-99589339D01*
X79840839Y-107994701D02*
X79233779Y-107994701D01*
X81773779Y-106061761D02*
X79840839Y-107994701D01*
X79233779Y-107994701D02*
X79233779Y-114275619D01*
X102336600Y-113129060D02*
X106199940Y-113129060D01*
X87871300Y-113809780D02*
X87871300Y-107833160D01*
X86215220Y-115465860D02*
X87871300Y-113809780D01*
X87929720Y-107774740D02*
X100055680Y-107774740D01*
X87871300Y-107833160D02*
X87929720Y-107774740D01*
X100055680Y-107774740D02*
X100055680Y-110848140D01*
X100055680Y-110848140D02*
X102336600Y-113129060D01*
D25*
G36*
X78235188Y-99076750D02*
G01*
X78015040Y-99032960D01*
X77722520Y-99032960D01*
X77435622Y-99090028D01*
X77165369Y-99201970D01*
X76922148Y-99364485D01*
X76715305Y-99571328D01*
X76598780Y-99745720D01*
X76482255Y-99571328D01*
X76275412Y-99364485D01*
X76032191Y-99201970D01*
X75761938Y-99090028D01*
X75475040Y-99032960D01*
X75182520Y-99032960D01*
X74895622Y-99090028D01*
X74625369Y-99201970D01*
X74382148Y-99364485D01*
X74175305Y-99571328D01*
X74058780Y-99745720D01*
X73942255Y-99571328D01*
X73735412Y-99364485D01*
X73492191Y-99201970D01*
X73221938Y-99090028D01*
X72935040Y-99032960D01*
X72642520Y-99032960D01*
X72355622Y-99090028D01*
X72085369Y-99201970D01*
X71842148Y-99364485D01*
X71635305Y-99571328D01*
X71560715Y-99682960D01*
X71476845Y-99682960D01*
X71402255Y-99571328D01*
X71195412Y-99364485D01*
X70952191Y-99201970D01*
X70681938Y-99090028D01*
X70395040Y-99032960D01*
X70102520Y-99032960D01*
X69815622Y-99090028D01*
X69545369Y-99201970D01*
X69302148Y-99364485D01*
X69095305Y-99571328D01*
X68932790Y-99814549D01*
X68820848Y-100084802D01*
X68763780Y-100371700D01*
X68763780Y-100664220D01*
X68820848Y-100951118D01*
X68932790Y-101221371D01*
X69095305Y-101464592D01*
X69227160Y-101596447D01*
X69154600Y-101618458D01*
X69044286Y-101677423D01*
X68947595Y-101756775D01*
X68868243Y-101853466D01*
X68809278Y-101963780D01*
X68772968Y-102083478D01*
X68760708Y-102207960D01*
X68760708Y-103907960D01*
X68772968Y-104032442D01*
X68809278Y-104152140D01*
X68868243Y-104262454D01*
X68947595Y-104359145D01*
X69044286Y-104438497D01*
X69154600Y-104497462D01*
X69274298Y-104533772D01*
X69398780Y-104546032D01*
X71098780Y-104546032D01*
X71223262Y-104533772D01*
X71342960Y-104497462D01*
X71453274Y-104438497D01*
X71549965Y-104359145D01*
X71629317Y-104262454D01*
X71688282Y-104152140D01*
X71710293Y-104079580D01*
X71842148Y-104211435D01*
X72085369Y-104373950D01*
X72355622Y-104485892D01*
X72642520Y-104542960D01*
X72646001Y-104542960D01*
X72646000Y-116271198D01*
X72075199Y-116842000D01*
X66556178Y-116842000D01*
X66431475Y-116655368D01*
X66224632Y-116448525D01*
X66050240Y-116332000D01*
X66224632Y-116215475D01*
X66431475Y-116008632D01*
X66593990Y-115765411D01*
X66705932Y-115495158D01*
X66763000Y-115208260D01*
X66763000Y-114915740D01*
X66705932Y-114628842D01*
X66593990Y-114358589D01*
X66431475Y-114115368D01*
X66224632Y-113908525D01*
X66042466Y-113786805D01*
X66159355Y-113717178D01*
X66375588Y-113522269D01*
X66549641Y-113288920D01*
X66674825Y-113026099D01*
X66719476Y-112878890D01*
X66598155Y-112649000D01*
X65405000Y-112649000D01*
X65405000Y-112669000D01*
X65151000Y-112669000D01*
X65151000Y-112649000D01*
X63957845Y-112649000D01*
X63836524Y-112878890D01*
X63881175Y-113026099D01*
X64006359Y-113288920D01*
X64180412Y-113522269D01*
X64396645Y-113717178D01*
X64513534Y-113786805D01*
X64331368Y-113908525D01*
X64124525Y-114115368D01*
X63962010Y-114358589D01*
X63850068Y-114628842D01*
X63793000Y-114915740D01*
X63793000Y-115208260D01*
X63850068Y-115495158D01*
X63962010Y-115765411D01*
X64124525Y-116008632D01*
X64331368Y-116215475D01*
X64505760Y-116332000D01*
X64331368Y-116448525D01*
X64124525Y-116655368D01*
X63962010Y-116898589D01*
X63850068Y-117168842D01*
X63793000Y-117455740D01*
X63793000Y-117748260D01*
X63850068Y-118035158D01*
X63962010Y-118305411D01*
X64124525Y-118548632D01*
X64331368Y-118755475D01*
X64505760Y-118872000D01*
X64331368Y-118988525D01*
X64124525Y-119195368D01*
X63962010Y-119438589D01*
X63850068Y-119708842D01*
X63793000Y-119995740D01*
X63793000Y-120288260D01*
X63850068Y-120575158D01*
X63962010Y-120845411D01*
X64124525Y-121088632D01*
X64331368Y-121295475D01*
X64505760Y-121412000D01*
X64331368Y-121528525D01*
X64124525Y-121735368D01*
X63962010Y-121978589D01*
X63850068Y-122248842D01*
X63793000Y-122535740D01*
X63793000Y-122828260D01*
X63850068Y-123115158D01*
X63962010Y-123385411D01*
X64124525Y-123628632D01*
X64331368Y-123835475D01*
X64574589Y-123997990D01*
X64844842Y-124109932D01*
X65131740Y-124167000D01*
X65424260Y-124167000D01*
X65711158Y-124109932D01*
X65981411Y-123997990D01*
X66224632Y-123835475D01*
X66431475Y-123628632D01*
X66593990Y-123385411D01*
X66705932Y-123115158D01*
X66763000Y-122828260D01*
X66763000Y-122535740D01*
X66705932Y-122248842D01*
X66593990Y-121978589D01*
X66431475Y-121735368D01*
X66224632Y-121528525D01*
X66050240Y-121412000D01*
X66224632Y-121295475D01*
X66273132Y-121246975D01*
X70808860Y-121246975D01*
X70808860Y-121637985D01*
X70885142Y-122021483D01*
X71034775Y-122382730D01*
X71252009Y-122707844D01*
X71528496Y-122984331D01*
X71853610Y-123201565D01*
X72214857Y-123351198D01*
X72598355Y-123427480D01*
X72989365Y-123427480D01*
X73372863Y-123351198D01*
X73734110Y-123201565D01*
X74059224Y-122984331D01*
X74335711Y-122707844D01*
X74552945Y-122382730D01*
X74702578Y-122021483D01*
X74778860Y-121637985D01*
X74778860Y-121246975D01*
X74702578Y-120863477D01*
X74552945Y-120502230D01*
X74335711Y-120177116D01*
X74059224Y-119900629D01*
X73734110Y-119683395D01*
X73372863Y-119533762D01*
X72989365Y-119457480D01*
X72598355Y-119457480D01*
X72214857Y-119533762D01*
X71853610Y-119683395D01*
X71528496Y-119900629D01*
X71252009Y-120177116D01*
X71034775Y-120502230D01*
X70885142Y-120863477D01*
X70808860Y-121246975D01*
X66273132Y-121246975D01*
X66431475Y-121088632D01*
X66593990Y-120845411D01*
X66705932Y-120575158D01*
X66763000Y-120288260D01*
X66763000Y-119995740D01*
X66705932Y-119708842D01*
X66593990Y-119438589D01*
X66431475Y-119195368D01*
X66224632Y-118988525D01*
X66050240Y-118872000D01*
X66224632Y-118755475D01*
X66431475Y-118548632D01*
X66556178Y-118362000D01*
X72352678Y-118362000D01*
X72390000Y-118365676D01*
X72427322Y-118362000D01*
X72427333Y-118362000D01*
X72538986Y-118351003D01*
X72682247Y-118307546D01*
X72814276Y-118236974D01*
X72930001Y-118142001D01*
X72953804Y-118112998D01*
X73720802Y-117346000D01*
X74734289Y-117346000D01*
X74778226Y-117389937D01*
X74947744Y-117503205D01*
X75136102Y-117581226D01*
X75336061Y-117621000D01*
X75539939Y-117621000D01*
X75739898Y-117581226D01*
X75783779Y-117563050D01*
X75783779Y-123441352D01*
X71790133Y-127435000D01*
X66766072Y-127435000D01*
X66766072Y-127420000D01*
X66753812Y-127295518D01*
X66717502Y-127175820D01*
X66658537Y-127065506D01*
X66579185Y-126968815D01*
X66482494Y-126889463D01*
X66372180Y-126830498D01*
X66252482Y-126794188D01*
X66128000Y-126781928D01*
X64428000Y-126781928D01*
X64303518Y-126794188D01*
X64183820Y-126830498D01*
X64073506Y-126889463D01*
X63976815Y-126968815D01*
X63897463Y-127065506D01*
X63838498Y-127175820D01*
X63802188Y-127295518D01*
X63789928Y-127420000D01*
X63789928Y-129120000D01*
X63802188Y-129244482D01*
X63838498Y-129364180D01*
X63897463Y-129474494D01*
X63976815Y-129571185D01*
X64073506Y-129650537D01*
X64183820Y-129709502D01*
X64264466Y-129733966D01*
X64180412Y-129809731D01*
X64006359Y-130043080D01*
X63881175Y-130305901D01*
X63836524Y-130453110D01*
X63957845Y-130683000D01*
X65151000Y-130683000D01*
X65151000Y-130663000D01*
X65405000Y-130663000D01*
X65405000Y-130683000D01*
X66598155Y-130683000D01*
X66719476Y-130453110D01*
X66674825Y-130305901D01*
X66549641Y-130043080D01*
X66375588Y-129809731D01*
X66291534Y-129733966D01*
X66372180Y-129709502D01*
X66482494Y-129650537D01*
X66579185Y-129571185D01*
X66658537Y-129474494D01*
X66717502Y-129364180D01*
X66753812Y-129244482D01*
X66766072Y-129120000D01*
X66766072Y-129105000D01*
X72094982Y-129105000D01*
X72136000Y-129109040D01*
X72177018Y-129105000D01*
X72177019Y-129105000D01*
X72299689Y-129092918D01*
X72457087Y-129045172D01*
X72602146Y-128967636D01*
X72729291Y-128863291D01*
X72755446Y-128831421D01*
X74428456Y-127158411D01*
X77642770Y-127158411D01*
X77642770Y-127362289D01*
X77682544Y-127562248D01*
X77760565Y-127750606D01*
X77873833Y-127920124D01*
X78017996Y-128064287D01*
X78187514Y-128177555D01*
X78375872Y-128255576D01*
X78575831Y-128295350D01*
X78779709Y-128295350D01*
X78979668Y-128255576D01*
X79168026Y-128177555D01*
X79337544Y-128064287D01*
X79381481Y-128020350D01*
X83531579Y-128020350D01*
X83575516Y-128064287D01*
X83745034Y-128177555D01*
X83933392Y-128255576D01*
X84133351Y-128295350D01*
X84337229Y-128295350D01*
X84537188Y-128255576D01*
X84725546Y-128177555D01*
X84895064Y-128064287D01*
X85039227Y-127920124D01*
X85152495Y-127750606D01*
X85230516Y-127562248D01*
X85270290Y-127362289D01*
X85270290Y-127158411D01*
X85230516Y-126958452D01*
X85152495Y-126770094D01*
X85039227Y-126600576D01*
X84895064Y-126456413D01*
X84725546Y-126343145D01*
X84537188Y-126265124D01*
X84337229Y-126225350D01*
X84133351Y-126225350D01*
X83933392Y-126265124D01*
X83745034Y-126343145D01*
X83575516Y-126456413D01*
X83531579Y-126500350D01*
X79381481Y-126500350D01*
X79337544Y-126456413D01*
X79168026Y-126343145D01*
X78979668Y-126265124D01*
X78779709Y-126225350D01*
X78575831Y-126225350D01*
X78375872Y-126265124D01*
X78187514Y-126343145D01*
X78017996Y-126456413D01*
X77873833Y-126600576D01*
X77760565Y-126770094D01*
X77682544Y-126958452D01*
X77642770Y-127158411D01*
X74428456Y-127158411D01*
X77180212Y-124406657D01*
X77212070Y-124380512D01*
X77243561Y-124342141D01*
X77316415Y-124253367D01*
X77393951Y-124108308D01*
X77441697Y-123950910D01*
X77457819Y-123787221D01*
X77453779Y-123746203D01*
X77453779Y-122694361D01*
X86978540Y-122694361D01*
X86978540Y-122898239D01*
X87018314Y-123098198D01*
X87096335Y-123286556D01*
X87209603Y-123456074D01*
X87353766Y-123600237D01*
X87523284Y-123713505D01*
X87711642Y-123791526D01*
X87911601Y-123831300D01*
X87973739Y-123831300D01*
X88259381Y-124116943D01*
X88259380Y-128866769D01*
X88215443Y-128910706D01*
X88102175Y-129080224D01*
X88024154Y-129268582D01*
X87984380Y-129468541D01*
X87984380Y-129672419D01*
X88024154Y-129872378D01*
X88102175Y-130060736D01*
X88215443Y-130230254D01*
X88359606Y-130374417D01*
X88529124Y-130487685D01*
X88717482Y-130565706D01*
X88917441Y-130605480D01*
X89121319Y-130605480D01*
X89321278Y-130565706D01*
X89509636Y-130487685D01*
X89679154Y-130374417D01*
X89823317Y-130230254D01*
X89936585Y-130060736D01*
X89984085Y-129946061D01*
X90913000Y-129946061D01*
X90913000Y-130149939D01*
X90952774Y-130349898D01*
X91030795Y-130538256D01*
X91144063Y-130707774D01*
X91288226Y-130851937D01*
X91457744Y-130965205D01*
X91646102Y-131043226D01*
X91846061Y-131083000D01*
X92049939Y-131083000D01*
X92249898Y-131043226D01*
X92438256Y-130965205D01*
X92455027Y-130953999D01*
X94634349Y-130953999D01*
X94615026Y-130977544D01*
X94579918Y-131043226D01*
X94544454Y-131109574D01*
X94500997Y-131252835D01*
X94490000Y-131364488D01*
X94490000Y-131364498D01*
X94486324Y-131401820D01*
X94490000Y-131439143D01*
X94490001Y-133666290D01*
X94385774Y-133562063D01*
X94216256Y-133448795D01*
X94027898Y-133370774D01*
X93827939Y-133331000D01*
X93624061Y-133331000D01*
X93424102Y-133370774D01*
X93235744Y-133448795D01*
X93066226Y-133562063D01*
X92922063Y-133706226D01*
X92808795Y-133875744D01*
X92730774Y-134064102D01*
X92691000Y-134264061D01*
X92691000Y-134467939D01*
X92730774Y-134667898D01*
X92808795Y-134856256D01*
X92922063Y-135025774D01*
X93066226Y-135169937D01*
X93235744Y-135283205D01*
X93424102Y-135361226D01*
X93624061Y-135401000D01*
X93827939Y-135401000D01*
X94027898Y-135361226D01*
X94216256Y-135283205D01*
X94385774Y-135169937D01*
X94490001Y-135065710D01*
X94490001Y-135186288D01*
X94446063Y-135230226D01*
X94332795Y-135399744D01*
X94254774Y-135588102D01*
X94215000Y-135788061D01*
X94215000Y-135991939D01*
X94254774Y-136191898D01*
X94332795Y-136380256D01*
X94446063Y-136549774D01*
X94590226Y-136693937D01*
X94759744Y-136807205D01*
X94948102Y-136885226D01*
X95148061Y-136925000D01*
X95351939Y-136925000D01*
X95551898Y-136885226D01*
X95740256Y-136807205D01*
X95909774Y-136693937D01*
X96053937Y-136549774D01*
X96167205Y-136380256D01*
X96245226Y-136191898D01*
X96285000Y-135991939D01*
X96285000Y-135788061D01*
X96245226Y-135588102D01*
X96167205Y-135399744D01*
X96053937Y-135230226D01*
X96010000Y-135186289D01*
X96010000Y-134772061D01*
X108185000Y-134772061D01*
X108185000Y-134975939D01*
X108224774Y-135175898D01*
X108302795Y-135364256D01*
X108416063Y-135533774D01*
X108560226Y-135677937D01*
X108729744Y-135791205D01*
X108918102Y-135869226D01*
X109118061Y-135909000D01*
X109321939Y-135909000D01*
X109521898Y-135869226D01*
X109710256Y-135791205D01*
X109879774Y-135677937D01*
X110023937Y-135533774D01*
X110137205Y-135364256D01*
X110215226Y-135175898D01*
X110255000Y-134975939D01*
X110255000Y-134772061D01*
X110215226Y-134572102D01*
X110137205Y-134383744D01*
X110023937Y-134214226D01*
X109879774Y-134070063D01*
X109710256Y-133956795D01*
X109521898Y-133878774D01*
X109321939Y-133839000D01*
X109118061Y-133839000D01*
X108918102Y-133878774D01*
X108729744Y-133956795D01*
X108560226Y-134070063D01*
X108416063Y-134214226D01*
X108302795Y-134383744D01*
X108224774Y-134572102D01*
X108185000Y-134772061D01*
X96010000Y-134772061D01*
X96010000Y-133535081D01*
X105566260Y-133535081D01*
X105566260Y-133738959D01*
X105606034Y-133938918D01*
X105684055Y-134127276D01*
X105797323Y-134296794D01*
X105941486Y-134440957D01*
X106111004Y-134554225D01*
X106299362Y-134632246D01*
X106499321Y-134672020D01*
X106703199Y-134672020D01*
X106903158Y-134632246D01*
X107091516Y-134554225D01*
X107261034Y-134440957D01*
X107405197Y-134296794D01*
X107518465Y-134127276D01*
X107596486Y-133938918D01*
X107636260Y-133738959D01*
X107636260Y-133535081D01*
X107596486Y-133335122D01*
X107518465Y-133146764D01*
X107405197Y-132977246D01*
X107389200Y-132961249D01*
X107389200Y-128183771D01*
X107433137Y-128139834D01*
X107546405Y-127970316D01*
X107624426Y-127781958D01*
X107664200Y-127581999D01*
X107664200Y-127378121D01*
X107624426Y-127178162D01*
X107546405Y-126989804D01*
X107433137Y-126820286D01*
X107288974Y-126676123D01*
X107119456Y-126562855D01*
X106931098Y-126484834D01*
X106731139Y-126445060D01*
X106527261Y-126445060D01*
X106327302Y-126484834D01*
X106138944Y-126562855D01*
X105969426Y-126676123D01*
X105825263Y-126820286D01*
X105711995Y-126989804D01*
X105633974Y-127178162D01*
X105594200Y-127378121D01*
X105594200Y-127581999D01*
X105633974Y-127781958D01*
X105711995Y-127970316D01*
X105825263Y-128139834D01*
X105869200Y-128183771D01*
X105869201Y-132905368D01*
X105797323Y-132977246D01*
X105684055Y-133146764D01*
X105606034Y-133335122D01*
X105566260Y-133535081D01*
X96010000Y-133535081D01*
X96010000Y-131716621D01*
X98623588Y-129103035D01*
X98652581Y-129079241D01*
X98676375Y-129050248D01*
X98676379Y-129050244D01*
X98747553Y-128963517D01*
X98747554Y-128963516D01*
X98818126Y-128831487D01*
X98861583Y-128688226D01*
X98872580Y-128576573D01*
X98872580Y-128576564D01*
X98874288Y-128559221D01*
X101362560Y-128559221D01*
X101362560Y-128763099D01*
X101402334Y-128963058D01*
X101480355Y-129151416D01*
X101593623Y-129320934D01*
X101637560Y-129364871D01*
X101637561Y-131529588D01*
X101633884Y-131566920D01*
X101637561Y-131604253D01*
X101645472Y-131684568D01*
X101648558Y-131715905D01*
X101692014Y-131859166D01*
X101762586Y-131991196D01*
X101813993Y-132053835D01*
X101857560Y-132106921D01*
X101886558Y-132130719D01*
X102063600Y-132307761D01*
X102063600Y-132369899D01*
X102103374Y-132569858D01*
X102181395Y-132758216D01*
X102294663Y-132927734D01*
X102438826Y-133071897D01*
X102608344Y-133185165D01*
X102796702Y-133263186D01*
X102996661Y-133302960D01*
X103200539Y-133302960D01*
X103400498Y-133263186D01*
X103588856Y-133185165D01*
X103758374Y-133071897D01*
X103902537Y-132927734D01*
X104015805Y-132758216D01*
X104093826Y-132569858D01*
X104133600Y-132369899D01*
X104133600Y-132166021D01*
X104093826Y-131966062D01*
X104015805Y-131777704D01*
X103902537Y-131608186D01*
X103758374Y-131464023D01*
X103588856Y-131350755D01*
X103400498Y-131272734D01*
X103200539Y-131232960D01*
X103157560Y-131232960D01*
X103157560Y-129364871D01*
X103201497Y-129320934D01*
X103314765Y-129151416D01*
X103392786Y-128963058D01*
X103432560Y-128763099D01*
X103432560Y-128559221D01*
X103392786Y-128359262D01*
X103314765Y-128170904D01*
X103201497Y-128001386D01*
X103057334Y-127857223D01*
X102887816Y-127743955D01*
X102699458Y-127665934D01*
X102499499Y-127626160D01*
X102295621Y-127626160D01*
X102095662Y-127665934D01*
X101907304Y-127743955D01*
X101737786Y-127857223D01*
X101593623Y-128001386D01*
X101480355Y-128170904D01*
X101402334Y-128359262D01*
X101362560Y-128559221D01*
X98874288Y-128559221D01*
X98876256Y-128539241D01*
X98872580Y-128501918D01*
X98872580Y-126921391D01*
X98916517Y-126877454D01*
X99029785Y-126707936D01*
X99107806Y-126519578D01*
X99147580Y-126319619D01*
X99147580Y-126115741D01*
X99107806Y-125915782D01*
X99029785Y-125727424D01*
X98916517Y-125557906D01*
X98772354Y-125413743D01*
X98602836Y-125300475D01*
X98414478Y-125222454D01*
X98214519Y-125182680D01*
X98010641Y-125182680D01*
X97810682Y-125222454D01*
X97622324Y-125300475D01*
X97452806Y-125413743D01*
X97308643Y-125557906D01*
X97195375Y-125727424D01*
X97117354Y-125915782D01*
X97077580Y-126115741D01*
X97077580Y-126319619D01*
X97117354Y-126519578D01*
X97195375Y-126707936D01*
X97308643Y-126877454D01*
X97352580Y-126921391D01*
X97352581Y-128224436D01*
X96198272Y-129378746D01*
X96167205Y-129303744D01*
X96053937Y-129134226D01*
X95909774Y-128990063D01*
X95740256Y-128876795D01*
X95551898Y-128798774D01*
X95351939Y-128759000D01*
X95148061Y-128759000D01*
X94948102Y-128798774D01*
X94759744Y-128876795D01*
X94590226Y-128990063D01*
X94446063Y-129134226D01*
X94332795Y-129303744D01*
X94278841Y-129433999D01*
X92782521Y-129433999D01*
X92751937Y-129388226D01*
X92607774Y-129244063D01*
X92438256Y-129130795D01*
X92249898Y-129052774D01*
X92049939Y-129013000D01*
X91846061Y-129013000D01*
X91646102Y-129052774D01*
X91457744Y-129130795D01*
X91288226Y-129244063D01*
X91144063Y-129388226D01*
X91030795Y-129557744D01*
X90952774Y-129746102D01*
X90913000Y-129946061D01*
X89984085Y-129946061D01*
X90014606Y-129872378D01*
X90054380Y-129672419D01*
X90054380Y-129468541D01*
X90014606Y-129268582D01*
X89936585Y-129080224D01*
X89823317Y-128910706D01*
X89779380Y-128866769D01*
X89779380Y-123839473D01*
X89783057Y-123802140D01*
X89768383Y-123653154D01*
X89724926Y-123509893D01*
X89654354Y-123377864D01*
X89583179Y-123291137D01*
X89559381Y-123262139D01*
X89530383Y-123238341D01*
X89048540Y-122756499D01*
X89048540Y-122694361D01*
X89008766Y-122494402D01*
X88930745Y-122306044D01*
X88817477Y-122136526D01*
X88673314Y-121992363D01*
X88503796Y-121879095D01*
X88315438Y-121801074D01*
X88115479Y-121761300D01*
X87911601Y-121761300D01*
X87711642Y-121801074D01*
X87523284Y-121879095D01*
X87353766Y-121992363D01*
X87209603Y-122136526D01*
X87096335Y-122306044D01*
X87018314Y-122494402D01*
X86978540Y-122694361D01*
X77453779Y-122694361D01*
X77453779Y-116857180D01*
X81653461Y-121056863D01*
X81677259Y-121085861D01*
X81706257Y-121109659D01*
X81792983Y-121180834D01*
X81916723Y-121246975D01*
X81925013Y-121251406D01*
X82068274Y-121294863D01*
X82179927Y-121305860D01*
X82179936Y-121305860D01*
X82217259Y-121309536D01*
X82254582Y-121305860D01*
X84727148Y-121305860D01*
X84727148Y-121395860D01*
X84739408Y-121520342D01*
X84775718Y-121640040D01*
X84834683Y-121750354D01*
X84914035Y-121847045D01*
X85010726Y-121926397D01*
X85121040Y-121985362D01*
X85240738Y-122021672D01*
X85365220Y-122033932D01*
X87065220Y-122033932D01*
X87189702Y-122021672D01*
X87309400Y-121985362D01*
X87419714Y-121926397D01*
X87516405Y-121847045D01*
X87595757Y-121750354D01*
X87654722Y-121640040D01*
X87691032Y-121520342D01*
X87703292Y-121395860D01*
X87703292Y-119695860D01*
X87691032Y-119571378D01*
X87654722Y-119451680D01*
X87645566Y-119434551D01*
X87661040Y-119442822D01*
X87780738Y-119479132D01*
X87905220Y-119491392D01*
X89605220Y-119491392D01*
X89729702Y-119479132D01*
X89849400Y-119442822D01*
X89959714Y-119383857D01*
X90056405Y-119304505D01*
X90135757Y-119207814D01*
X90194722Y-119097500D01*
X90231032Y-118977802D01*
X90243292Y-118853320D01*
X90243292Y-117153320D01*
X90231032Y-117028838D01*
X90194722Y-116909140D01*
X90135757Y-116798826D01*
X90056405Y-116702135D01*
X89959714Y-116622783D01*
X89849400Y-116563818D01*
X89729702Y-116527508D01*
X89605220Y-116515248D01*
X87905220Y-116515248D01*
X87780738Y-116527508D01*
X87661040Y-116563818D01*
X87550726Y-116622783D01*
X87454035Y-116702135D01*
X87374683Y-116798826D01*
X87315718Y-116909140D01*
X87293116Y-116983649D01*
X87161852Y-116852385D01*
X86987460Y-116735860D01*
X87161852Y-116619335D01*
X87368695Y-116412492D01*
X87531210Y-116169271D01*
X87643152Y-115899018D01*
X87700220Y-115612120D01*
X87700220Y-115319600D01*
X87656430Y-115099452D01*
X88382304Y-114373578D01*
X88411301Y-114349781D01*
X88506274Y-114234056D01*
X88576846Y-114102027D01*
X88620303Y-113958766D01*
X88631300Y-113847113D01*
X88631300Y-113847105D01*
X88634976Y-113809780D01*
X88631300Y-113772455D01*
X88631300Y-113223988D01*
X88657403Y-113263054D01*
X88801566Y-113407217D01*
X88971084Y-113520485D01*
X89159442Y-113598506D01*
X89359401Y-113638280D01*
X89563279Y-113638280D01*
X89763238Y-113598506D01*
X89951596Y-113520485D01*
X90121114Y-113407217D01*
X90265277Y-113263054D01*
X90378545Y-113093536D01*
X90456566Y-112905178D01*
X90496340Y-112705219D01*
X90496340Y-112643082D01*
X90792762Y-112346659D01*
X90821761Y-112322861D01*
X90848092Y-112290777D01*
X90916734Y-112207137D01*
X90987306Y-112075107D01*
X90991952Y-112059792D01*
X91030763Y-111931846D01*
X91041760Y-111820193D01*
X91041760Y-111820184D01*
X91045436Y-111782861D01*
X91041760Y-111745538D01*
X91041760Y-111502422D01*
X91117035Y-111594145D01*
X91213726Y-111673497D01*
X91324040Y-111732462D01*
X91443738Y-111768772D01*
X91568220Y-111781032D01*
X92152470Y-111777960D01*
X92311220Y-111619210D01*
X92311220Y-110169960D01*
X92291220Y-110169960D01*
X92291220Y-109915960D01*
X92311220Y-109915960D01*
X92311220Y-109895960D01*
X92565220Y-109895960D01*
X92565220Y-109915960D01*
X92585220Y-109915960D01*
X92585220Y-110169960D01*
X92565220Y-110169960D01*
X92565220Y-111619210D01*
X92723970Y-111777960D01*
X93308220Y-111781032D01*
X93432702Y-111768772D01*
X93552400Y-111732462D01*
X93662714Y-111673497D01*
X93759405Y-111594145D01*
X93838757Y-111497454D01*
X93897722Y-111387140D01*
X93910835Y-111343913D01*
X94138042Y-111530377D01*
X94399496Y-111670126D01*
X94683189Y-111756184D01*
X94978220Y-111785242D01*
X95273252Y-111756184D01*
X95556945Y-111670126D01*
X95818399Y-111530377D01*
X96047565Y-111342305D01*
X96235637Y-111113139D01*
X96248220Y-111089598D01*
X96260803Y-111113139D01*
X96448875Y-111342305D01*
X96678042Y-111530377D01*
X96939496Y-111670126D01*
X97223189Y-111756184D01*
X97518220Y-111785242D01*
X97813252Y-111756184D01*
X98096945Y-111670126D01*
X98358399Y-111530377D01*
X98587565Y-111342305D01*
X98775637Y-111113139D01*
X98915386Y-110851684D01*
X99001444Y-110567991D01*
X99023220Y-110346895D01*
X99023220Y-109739024D01*
X99001444Y-109517928D01*
X98915386Y-109234235D01*
X98775637Y-108972781D01*
X98587565Y-108743615D01*
X98358398Y-108555543D01*
X98319478Y-108534740D01*
X99295680Y-108534740D01*
X99295681Y-110810808D01*
X99292004Y-110848140D01*
X99295681Y-110885473D01*
X99306678Y-110997126D01*
X99314424Y-111022661D01*
X99350134Y-111140386D01*
X99420706Y-111272416D01*
X99484539Y-111350196D01*
X99515680Y-111388141D01*
X99544678Y-111411939D01*
X101772801Y-113640063D01*
X101796599Y-113669061D01*
X101825597Y-113692859D01*
X101912323Y-113764034D01*
X102025229Y-113824384D01*
X102044353Y-113834606D01*
X102187614Y-113878063D01*
X102299267Y-113889060D01*
X102299277Y-113889060D01*
X102336600Y-113892736D01*
X102373922Y-113889060D01*
X104921762Y-113889060D01*
X105046465Y-114075692D01*
X105253308Y-114282535D01*
X105496529Y-114445050D01*
X105614150Y-114493770D01*
X100620052Y-114493770D01*
X100582729Y-114490094D01*
X100545406Y-114493770D01*
X100545397Y-114493770D01*
X100433744Y-114504767D01*
X100294670Y-114546954D01*
X100290483Y-114548224D01*
X100158453Y-114618796D01*
X100074813Y-114687438D01*
X100042729Y-114713769D01*
X100018931Y-114742767D01*
X99312108Y-115449590D01*
X99091960Y-115405800D01*
X98799440Y-115405800D01*
X98512542Y-115462868D01*
X98242289Y-115574810D01*
X97999068Y-115737325D01*
X97792225Y-115944168D01*
X97675700Y-116118560D01*
X97559175Y-115944168D01*
X97352332Y-115737325D01*
X97109111Y-115574810D01*
X96838858Y-115462868D01*
X96551960Y-115405800D01*
X96259440Y-115405800D01*
X95972542Y-115462868D01*
X95702289Y-115574810D01*
X95459068Y-115737325D01*
X95327213Y-115869180D01*
X95305202Y-115796620D01*
X95246237Y-115686306D01*
X95166885Y-115589615D01*
X95070194Y-115510263D01*
X94959880Y-115451298D01*
X94872720Y-115424858D01*
X94872720Y-114393285D01*
X94954925Y-114270256D01*
X95032946Y-114081898D01*
X95072720Y-113881939D01*
X95072720Y-113678061D01*
X95032946Y-113478102D01*
X94954925Y-113289744D01*
X94841657Y-113120226D01*
X94697494Y-112976063D01*
X94527976Y-112862795D01*
X94339618Y-112784774D01*
X94139659Y-112745000D01*
X93935781Y-112745000D01*
X93735822Y-112784774D01*
X93547464Y-112862795D01*
X93377946Y-112976063D01*
X93233783Y-113120226D01*
X93120515Y-113289744D01*
X93042494Y-113478102D01*
X93002720Y-113678061D01*
X93002720Y-113881939D01*
X93042494Y-114081898D01*
X93120515Y-114270256D01*
X93202720Y-114393285D01*
X93202721Y-115402728D01*
X93015700Y-115402728D01*
X92891218Y-115414988D01*
X92771520Y-115451298D01*
X92661206Y-115510263D01*
X92564515Y-115589615D01*
X92485163Y-115686306D01*
X92426198Y-115796620D01*
X92389888Y-115916318D01*
X92377628Y-116040800D01*
X92377628Y-117740800D01*
X92389888Y-117865282D01*
X92426198Y-117984980D01*
X92485163Y-118095294D01*
X92564515Y-118191985D01*
X92661206Y-118271337D01*
X92771520Y-118330302D01*
X92891218Y-118366612D01*
X92894689Y-118366954D01*
X92904550Y-121936624D01*
X92824035Y-122057124D01*
X92746014Y-122245482D01*
X92706240Y-122445441D01*
X92706240Y-122649319D01*
X92746014Y-122849278D01*
X92824035Y-123037636D01*
X92937303Y-123207154D01*
X93081466Y-123351317D01*
X93250984Y-123464585D01*
X93439342Y-123542606D01*
X93639301Y-123582380D01*
X93843179Y-123582380D01*
X94043138Y-123542606D01*
X94231496Y-123464585D01*
X94401014Y-123351317D01*
X94545177Y-123207154D01*
X94658445Y-123037636D01*
X94736466Y-122849278D01*
X94776240Y-122649319D01*
X94776240Y-122445441D01*
X94736466Y-122245482D01*
X94658445Y-122057124D01*
X94574542Y-121931554D01*
X94565792Y-118764000D01*
X112092748Y-118764000D01*
X112092748Y-124314000D01*
X112105008Y-124438482D01*
X112141318Y-124558180D01*
X112200283Y-124668494D01*
X112279635Y-124765185D01*
X112376326Y-124844537D01*
X112486640Y-124903502D01*
X112606338Y-124939812D01*
X112730820Y-124952072D01*
X119230820Y-124952072D01*
X119355302Y-124939812D01*
X119475000Y-124903502D01*
X119585314Y-124844537D01*
X119682005Y-124765185D01*
X119761357Y-124668494D01*
X119820322Y-124558180D01*
X119856632Y-124438482D01*
X119868892Y-124314000D01*
X119868892Y-122674000D01*
X120588487Y-122674000D01*
X120504635Y-122742815D01*
X120425283Y-122839506D01*
X120366318Y-122949820D01*
X120330008Y-123069518D01*
X120317748Y-123194000D01*
X120317748Y-124444000D01*
X120330008Y-124568482D01*
X120366318Y-124688180D01*
X120425283Y-124798494D01*
X120504635Y-124895185D01*
X120601326Y-124974537D01*
X120711640Y-125033502D01*
X120831338Y-125069812D01*
X120955820Y-125082072D01*
X120961880Y-125082072D01*
X120132953Y-125911000D01*
X113876965Y-125911000D01*
X113753936Y-125828795D01*
X113565578Y-125750774D01*
X113365619Y-125711000D01*
X113161741Y-125711000D01*
X112961782Y-125750774D01*
X112773424Y-125828795D01*
X112603906Y-125942063D01*
X112459743Y-126086226D01*
X112346475Y-126255744D01*
X112268454Y-126444102D01*
X112228680Y-126644061D01*
X112228680Y-126847939D01*
X112268454Y-127047898D01*
X112346475Y-127236256D01*
X112459743Y-127405774D01*
X112603906Y-127549937D01*
X112773424Y-127663205D01*
X112961782Y-127741226D01*
X113161741Y-127781000D01*
X113365619Y-127781000D01*
X113565578Y-127741226D01*
X113753936Y-127663205D01*
X113876965Y-127581000D01*
X120437802Y-127581000D01*
X120478820Y-127585040D01*
X120519838Y-127581000D01*
X120519839Y-127581000D01*
X120642509Y-127568918D01*
X120799907Y-127521172D01*
X120944966Y-127443636D01*
X121072111Y-127339291D01*
X121098266Y-127307421D01*
X122942248Y-125463440D01*
X122974111Y-125437291D01*
X123078456Y-125310146D01*
X123155992Y-125165087D01*
X123181174Y-125082072D01*
X123805820Y-125082072D01*
X123930302Y-125069812D01*
X124050000Y-125033502D01*
X124160314Y-124974537D01*
X124257005Y-124895185D01*
X124336357Y-124798494D01*
X124395322Y-124688180D01*
X124431632Y-124568482D01*
X124443892Y-124444000D01*
X124443892Y-123194000D01*
X124431632Y-123069518D01*
X124395322Y-122949820D01*
X124336357Y-122839506D01*
X124257005Y-122742815D01*
X124173153Y-122674000D01*
X128341249Y-122674000D01*
X128397000Y-122679491D01*
X128452751Y-122674000D01*
X140118869Y-122674000D01*
X143391000Y-125946132D01*
X143391001Y-138467867D01*
X142525759Y-139333109D01*
X142482451Y-139368651D01*
X142446911Y-139411957D01*
X142407288Y-139451580D01*
X142376159Y-139498168D01*
X142340616Y-139541477D01*
X142314207Y-139590886D01*
X142283076Y-139637476D01*
X142261631Y-139689249D01*
X142235224Y-139738653D01*
X142218963Y-139792258D01*
X142197517Y-139844033D01*
X142186585Y-139898994D01*
X142170323Y-139952601D01*
X142164832Y-140008353D01*
X142153900Y-140063312D01*
X142153900Y-140119348D01*
X142148409Y-140175100D01*
X142153900Y-140230852D01*
X142153900Y-140286888D01*
X142164832Y-140341847D01*
X142170323Y-140397599D01*
X142186585Y-140451206D01*
X142197517Y-140506167D01*
X142218963Y-140557942D01*
X142235224Y-140611547D01*
X142261631Y-140660951D01*
X142283076Y-140712724D01*
X142314207Y-140759314D01*
X142340616Y-140808723D01*
X142376159Y-140852032D01*
X142407288Y-140898620D01*
X142446909Y-140938241D01*
X142482451Y-140981549D01*
X142525759Y-141017091D01*
X142565380Y-141056712D01*
X142611968Y-141087841D01*
X142655277Y-141123384D01*
X142704686Y-141149793D01*
X142751276Y-141180924D01*
X142803049Y-141202369D01*
X142852453Y-141228776D01*
X142906058Y-141245037D01*
X142957833Y-141266483D01*
X143012794Y-141277415D01*
X143066401Y-141293677D01*
X143122153Y-141299168D01*
X143177112Y-141310100D01*
X143233149Y-141310100D01*
X143288900Y-141315591D01*
X143344651Y-141310100D01*
X143400688Y-141310100D01*
X143455647Y-141299168D01*
X143511399Y-141293677D01*
X143565006Y-141277415D01*
X143619967Y-141266483D01*
X143671742Y-141245037D01*
X143725347Y-141228776D01*
X143774751Y-141202369D01*
X143826524Y-141180924D01*
X143873114Y-141149793D01*
X143922523Y-141123384D01*
X143965832Y-141087841D01*
X144012420Y-141056712D01*
X144052041Y-141017091D01*
X144095349Y-140981549D01*
X144130891Y-140938241D01*
X144170514Y-140898618D01*
X145289146Y-139779987D01*
X145332449Y-139744449D01*
X145368928Y-139700000D01*
X145474284Y-139571623D01*
X145579676Y-139374447D01*
X145644577Y-139160499D01*
X145652139Y-139083717D01*
X145661000Y-138993752D01*
X145666491Y-138938000D01*
X145661000Y-138882248D01*
X145661000Y-125531752D01*
X145666491Y-125476000D01*
X145644577Y-125253501D01*
X145579676Y-125039553D01*
X145474284Y-124842377D01*
X145410934Y-124765185D01*
X145332449Y-124669551D01*
X145289141Y-124634009D01*
X141430996Y-120775865D01*
X141395449Y-120732551D01*
X141222623Y-120590716D01*
X141025447Y-120485324D01*
X140811499Y-120420423D01*
X140644752Y-120404000D01*
X140644751Y-120404000D01*
X140589000Y-120398509D01*
X140533249Y-120404000D01*
X131137131Y-120404000D01*
X135401801Y-116139331D01*
X135445109Y-116103789D01*
X135586944Y-115930963D01*
X135692336Y-115733787D01*
X135749681Y-115544747D01*
X135757237Y-115519840D01*
X135762848Y-115462868D01*
X135773660Y-115353092D01*
X135773660Y-115353085D01*
X135779150Y-115297341D01*
X135773660Y-115241597D01*
X135773660Y-114231816D01*
X136112474Y-114005428D01*
X136434508Y-113683394D01*
X136687528Y-113304723D01*
X136779067Y-113083727D01*
X136910339Y-113400643D01*
X137185520Y-113812481D01*
X137535759Y-114162720D01*
X137947597Y-114437901D01*
X138405207Y-114627450D01*
X138891003Y-114724080D01*
X139386317Y-114724080D01*
X139872113Y-114627450D01*
X140329723Y-114437901D01*
X140741561Y-114162720D01*
X141091800Y-113812481D01*
X141366981Y-113400643D01*
X141556530Y-112943033D01*
X141653160Y-112457237D01*
X141653160Y-111961923D01*
X141556530Y-111476127D01*
X141366981Y-111018517D01*
X141091800Y-110606679D01*
X140741561Y-110256440D01*
X140329723Y-109981259D01*
X139872113Y-109791710D01*
X139386317Y-109695080D01*
X138891003Y-109695080D01*
X138405207Y-109791710D01*
X137947597Y-109981259D01*
X137535759Y-110256440D01*
X137185520Y-110606679D01*
X136910339Y-111018517D01*
X136779067Y-111335433D01*
X136687528Y-111114437D01*
X136434508Y-110735766D01*
X136112474Y-110413732D01*
X135733803Y-110160712D01*
X135313046Y-109986429D01*
X134866372Y-109897580D01*
X134410948Y-109897580D01*
X133964274Y-109986429D01*
X133543517Y-110160712D01*
X133164846Y-110413732D01*
X132842812Y-110735766D01*
X132589792Y-111114437D01*
X132415509Y-111535194D01*
X132326660Y-111981868D01*
X132326660Y-112437292D01*
X132415509Y-112883966D01*
X132589792Y-113304723D01*
X132842812Y-113683394D01*
X133164846Y-114005428D01*
X133503660Y-114231817D01*
X133503660Y-114827208D01*
X127926869Y-120404000D01*
X124173153Y-120404000D01*
X124257005Y-120335185D01*
X124336357Y-120238494D01*
X124395322Y-120128180D01*
X124431632Y-120008482D01*
X124443892Y-119884000D01*
X124440820Y-119544750D01*
X124282070Y-119386000D01*
X122507820Y-119386000D01*
X122507820Y-119406000D01*
X122253820Y-119406000D01*
X122253820Y-119386000D01*
X120479570Y-119386000D01*
X120320820Y-119544750D01*
X120317748Y-119884000D01*
X120330008Y-120008482D01*
X120366318Y-120128180D01*
X120425283Y-120238494D01*
X120504635Y-120335185D01*
X120588487Y-120404000D01*
X119868892Y-120404000D01*
X119868892Y-118764000D01*
X119856632Y-118639518D01*
X119854959Y-118634000D01*
X120317748Y-118634000D01*
X120320820Y-118973250D01*
X120479570Y-119132000D01*
X122253820Y-119132000D01*
X122253820Y-118157750D01*
X122507820Y-118157750D01*
X122507820Y-119132000D01*
X124282070Y-119132000D01*
X124440820Y-118973250D01*
X124443892Y-118634000D01*
X124431632Y-118509518D01*
X124395322Y-118389820D01*
X124336357Y-118279506D01*
X124257005Y-118182815D01*
X124160314Y-118103463D01*
X124050000Y-118044498D01*
X123930302Y-118008188D01*
X123805820Y-117995928D01*
X122666570Y-117999000D01*
X122507820Y-118157750D01*
X122253820Y-118157750D01*
X122095070Y-117999000D01*
X120955820Y-117995928D01*
X120831338Y-118008188D01*
X120711640Y-118044498D01*
X120601326Y-118103463D01*
X120504635Y-118182815D01*
X120425283Y-118279506D01*
X120366318Y-118389820D01*
X120330008Y-118509518D01*
X120317748Y-118634000D01*
X119854959Y-118634000D01*
X119820322Y-118519820D01*
X119761357Y-118409506D01*
X119682005Y-118312815D01*
X119585314Y-118233463D01*
X119475000Y-118174498D01*
X119355302Y-118138188D01*
X119230820Y-118125928D01*
X112730820Y-118125928D01*
X112606338Y-118138188D01*
X112486640Y-118174498D01*
X112376326Y-118233463D01*
X112279635Y-118312815D01*
X112200283Y-118409506D01*
X112141318Y-118519820D01*
X112105008Y-118639518D01*
X112092748Y-118764000D01*
X94565792Y-118764000D01*
X94564728Y-118378872D01*
X94715700Y-118378872D01*
X94840182Y-118366612D01*
X94959880Y-118330302D01*
X95070194Y-118271337D01*
X95166885Y-118191985D01*
X95246237Y-118095294D01*
X95305202Y-117984980D01*
X95327213Y-117912420D01*
X95459068Y-118044275D01*
X95702289Y-118206790D01*
X95972542Y-118318732D01*
X96259440Y-118375800D01*
X96551960Y-118375800D01*
X96838858Y-118318732D01*
X97109111Y-118206790D01*
X97352332Y-118044275D01*
X97559175Y-117837432D01*
X97675700Y-117663040D01*
X97792225Y-117837432D01*
X97999068Y-118044275D01*
X98242289Y-118206790D01*
X98512542Y-118318732D01*
X98799440Y-118375800D01*
X99091960Y-118375800D01*
X99378858Y-118318732D01*
X99649111Y-118206790D01*
X99892332Y-118044275D01*
X100099175Y-117837432D01*
X100220895Y-117655266D01*
X100290522Y-117772155D01*
X100485431Y-117988388D01*
X100718780Y-118162441D01*
X100981601Y-118287625D01*
X101128810Y-118332276D01*
X101358700Y-118210955D01*
X101358700Y-117017800D01*
X101612700Y-117017800D01*
X101612700Y-118210955D01*
X101842590Y-118332276D01*
X101989799Y-118287625D01*
X102252620Y-118162441D01*
X102485969Y-117988388D01*
X102680878Y-117772155D01*
X102829857Y-117522052D01*
X102927181Y-117247691D01*
X102806514Y-117017800D01*
X101612700Y-117017800D01*
X101358700Y-117017800D01*
X101338700Y-117017800D01*
X101338700Y-116763800D01*
X101358700Y-116763800D01*
X101358700Y-116743800D01*
X101612700Y-116743800D01*
X101612700Y-116763800D01*
X102806514Y-116763800D01*
X102927181Y-116533909D01*
X102829857Y-116259548D01*
X102683454Y-116013770D01*
X107494848Y-116013770D01*
X107532170Y-116017446D01*
X107569492Y-116013770D01*
X107569503Y-116013770D01*
X107681156Y-116002773D01*
X107824417Y-115959316D01*
X107956446Y-115888744D01*
X108072171Y-115793771D01*
X108072743Y-115793073D01*
X108073441Y-115792501D01*
X108168414Y-115676776D01*
X108238986Y-115544747D01*
X108282443Y-115401486D01*
X108293440Y-115289833D01*
X108293440Y-115289823D01*
X108297116Y-115252501D01*
X108293440Y-115215178D01*
X108293440Y-112074592D01*
X109248620Y-112074592D01*
X109248619Y-115256701D01*
X109118364Y-115310655D01*
X108948846Y-115423923D01*
X108804683Y-115568086D01*
X108691415Y-115737604D01*
X108613394Y-115925962D01*
X108573620Y-116125921D01*
X108573620Y-116329799D01*
X108613394Y-116529758D01*
X108691415Y-116718116D01*
X108804683Y-116887634D01*
X108948846Y-117031797D01*
X109118364Y-117145065D01*
X109306722Y-117223086D01*
X109506681Y-117262860D01*
X109710559Y-117262860D01*
X109910518Y-117223086D01*
X110098876Y-117145065D01*
X110268394Y-117031797D01*
X110412557Y-116887634D01*
X110525825Y-116718116D01*
X110603846Y-116529758D01*
X110643620Y-116329799D01*
X110643620Y-116252086D01*
X110696969Y-116152278D01*
X110789381Y-116170660D01*
X110993259Y-116170660D01*
X111193218Y-116130886D01*
X111381576Y-116052865D01*
X111551094Y-115939597D01*
X111695257Y-115795434D01*
X111808525Y-115625916D01*
X111886546Y-115437558D01*
X111926320Y-115237599D01*
X111926320Y-115050419D01*
X114923818Y-111248462D01*
X115069881Y-111247852D01*
X115110886Y-111288857D01*
X115280404Y-111402125D01*
X115468762Y-111480146D01*
X115473309Y-111481051D01*
X115376924Y-111520975D01*
X115207406Y-111634243D01*
X115063243Y-111778406D01*
X114949975Y-111947924D01*
X114871954Y-112136282D01*
X114832180Y-112336241D01*
X114832180Y-112540119D01*
X114871954Y-112740078D01*
X114949975Y-112928436D01*
X115063243Y-113097954D01*
X115207406Y-113242117D01*
X115376924Y-113355385D01*
X115565282Y-113433406D01*
X115765241Y-113473180D01*
X115904169Y-113473180D01*
X118072188Y-115340921D01*
X118077999Y-115348001D01*
X118128822Y-115389710D01*
X118150239Y-115408161D01*
X118157688Y-115413400D01*
X118193724Y-115442974D01*
X118218778Y-115456366D01*
X118242008Y-115472704D01*
X118284628Y-115491564D01*
X118325753Y-115513546D01*
X118352940Y-115521793D01*
X118378910Y-115533285D01*
X118424396Y-115543469D01*
X118469014Y-115557003D01*
X118497288Y-115559788D01*
X118525000Y-115565992D01*
X118571592Y-115567106D01*
X118580667Y-115568000D01*
X118608969Y-115568000D01*
X118674664Y-115569571D01*
X118683684Y-115568000D01*
X120454289Y-115568000D01*
X120498226Y-115611937D01*
X120667744Y-115725205D01*
X120856102Y-115803226D01*
X121056061Y-115843000D01*
X121259939Y-115843000D01*
X121459898Y-115803226D01*
X121648256Y-115725205D01*
X121817774Y-115611937D01*
X121961937Y-115467774D01*
X122075205Y-115298256D01*
X122153226Y-115109898D01*
X122193000Y-114909939D01*
X122193000Y-114706061D01*
X122153226Y-114506102D01*
X122075205Y-114317744D01*
X121961937Y-114148226D01*
X121817774Y-114004063D01*
X121648256Y-113890795D01*
X121459898Y-113812774D01*
X121259939Y-113773000D01*
X121056061Y-113773000D01*
X120856102Y-113812774D01*
X120667744Y-113890795D01*
X120498226Y-114004063D01*
X120454289Y-114048000D01*
X118900224Y-114048000D01*
X116899888Y-112324719D01*
X116862406Y-112136282D01*
X116784385Y-111947924D01*
X116671117Y-111778406D01*
X116526954Y-111634243D01*
X116357436Y-111520975D01*
X116169078Y-111442954D01*
X116164531Y-111442049D01*
X116260916Y-111402125D01*
X116430434Y-111288857D01*
X116574597Y-111144694D01*
X116687865Y-110975176D01*
X116765886Y-110786818D01*
X116805660Y-110586859D01*
X116805660Y-110382981D01*
X116765886Y-110183022D01*
X116687865Y-109994664D01*
X116574597Y-109825146D01*
X116430434Y-109680983D01*
X116260916Y-109567715D01*
X116072558Y-109489694D01*
X115872599Y-109449920D01*
X115668721Y-109449920D01*
X115468762Y-109489694D01*
X115280404Y-109567715D01*
X115110886Y-109680983D01*
X115064005Y-109727864D01*
X114619764Y-109729719D01*
X114613951Y-109728681D01*
X114545044Y-109730031D01*
X114513495Y-109730163D01*
X114507642Y-109730764D01*
X114464273Y-109731614D01*
X114433373Y-109738392D01*
X114401888Y-109741626D01*
X114360411Y-109754397D01*
X114318043Y-109763691D01*
X114289058Y-109776367D01*
X114258810Y-109785681D01*
X114220638Y-109806290D01*
X114180880Y-109823678D01*
X114154908Y-109841778D01*
X114127077Y-109856804D01*
X114093666Y-109884458D01*
X114058057Y-109909274D01*
X114036118Y-109932090D01*
X114011750Y-109952259D01*
X113984375Y-109985901D01*
X113980293Y-109990146D01*
X113960742Y-110014944D01*
X113917261Y-110068379D01*
X113914500Y-110073596D01*
X110768619Y-114063762D01*
X110768619Y-109607519D01*
X110772295Y-109570196D01*
X110768619Y-109532873D01*
X110768619Y-109532864D01*
X110757622Y-109421211D01*
X110714165Y-109277950D01*
X110643593Y-109145921D01*
X110548620Y-109030196D01*
X110519622Y-109006398D01*
X108982706Y-107469483D01*
X108958903Y-107440479D01*
X108843178Y-107345506D01*
X108711149Y-107274934D01*
X108567888Y-107231477D01*
X108456235Y-107220480D01*
X108456224Y-107220480D01*
X108418902Y-107216804D01*
X108381580Y-107220480D01*
X107688012Y-107220480D01*
X107688012Y-107199060D01*
X107675752Y-107074578D01*
X107639442Y-106954880D01*
X107580477Y-106844566D01*
X107501125Y-106747875D01*
X107404434Y-106668523D01*
X107294120Y-106609558D01*
X107174422Y-106573248D01*
X107049940Y-106560988D01*
X105349940Y-106560988D01*
X105225458Y-106573248D01*
X105105760Y-106609558D01*
X104995446Y-106668523D01*
X104898755Y-106747875D01*
X104819403Y-106844566D01*
X104760438Y-106954880D01*
X104724128Y-107074578D01*
X104711868Y-107199060D01*
X104711868Y-107771188D01*
X101480544Y-104539865D01*
X101456741Y-104510861D01*
X101341016Y-104415888D01*
X101336618Y-104413537D01*
X101432191Y-104373950D01*
X101675412Y-104211435D01*
X101882255Y-104004592D01*
X101998780Y-103830200D01*
X102115305Y-104004592D01*
X102322148Y-104211435D01*
X102565369Y-104373950D01*
X102835622Y-104485892D01*
X103122520Y-104542960D01*
X103415040Y-104542960D01*
X103701938Y-104485892D01*
X103972191Y-104373950D01*
X104215412Y-104211435D01*
X104422255Y-104004592D01*
X104538780Y-103830200D01*
X104655305Y-104004592D01*
X104862148Y-104211435D01*
X105105369Y-104373950D01*
X105375622Y-104485892D01*
X105662520Y-104542960D01*
X105955040Y-104542960D01*
X106241938Y-104485892D01*
X106512191Y-104373950D01*
X106755412Y-104211435D01*
X106962255Y-104004592D01*
X107078780Y-103830200D01*
X107195305Y-104004592D01*
X107402148Y-104211435D01*
X107645369Y-104373950D01*
X107915622Y-104485892D01*
X108202520Y-104542960D01*
X108495040Y-104542960D01*
X108781938Y-104485892D01*
X109052191Y-104373950D01*
X109295412Y-104211435D01*
X109502255Y-104004592D01*
X109618780Y-103830200D01*
X109735305Y-104004592D01*
X109942148Y-104211435D01*
X110185369Y-104373950D01*
X110455622Y-104485892D01*
X110742520Y-104542960D01*
X111035040Y-104542960D01*
X111321938Y-104485892D01*
X111592191Y-104373950D01*
X111835412Y-104211435D01*
X112042255Y-104004592D01*
X112158780Y-103830200D01*
X112275305Y-104004592D01*
X112482148Y-104211435D01*
X112725369Y-104373950D01*
X112995622Y-104485892D01*
X113282520Y-104542960D01*
X113575040Y-104542960D01*
X113861938Y-104485892D01*
X114132191Y-104373950D01*
X114375412Y-104211435D01*
X114582255Y-104004592D01*
X114698780Y-103830200D01*
X114815305Y-104004592D01*
X115022148Y-104211435D01*
X115265369Y-104373950D01*
X115535622Y-104485892D01*
X115822520Y-104542960D01*
X116115040Y-104542960D01*
X116401938Y-104485892D01*
X116672191Y-104373950D01*
X116915412Y-104211435D01*
X117122255Y-104004592D01*
X117238780Y-103830200D01*
X117355305Y-104004592D01*
X117562148Y-104211435D01*
X117805369Y-104373950D01*
X118075622Y-104485892D01*
X118362520Y-104542960D01*
X118655040Y-104542960D01*
X118941938Y-104485892D01*
X119212191Y-104373950D01*
X119455412Y-104211435D01*
X119662255Y-104004592D01*
X119824770Y-103761371D01*
X119936712Y-103491118D01*
X119993780Y-103204220D01*
X119993780Y-102911700D01*
X119936712Y-102624802D01*
X119824770Y-102354549D01*
X119662255Y-102111328D01*
X119455412Y-101904485D01*
X119281020Y-101787960D01*
X119455412Y-101671435D01*
X119519152Y-101607695D01*
X121408200Y-101607695D01*
X121408200Y-101998705D01*
X121484482Y-102382203D01*
X121634115Y-102743450D01*
X121851349Y-103068564D01*
X122127836Y-103345051D01*
X122452950Y-103562285D01*
X122814197Y-103711918D01*
X123197695Y-103788200D01*
X123588705Y-103788200D01*
X123972203Y-103711918D01*
X124333450Y-103562285D01*
X124658564Y-103345051D01*
X124935051Y-103068564D01*
X125152285Y-102743450D01*
X125301918Y-102382203D01*
X125378200Y-101998705D01*
X125378200Y-101607695D01*
X125301918Y-101224197D01*
X125152285Y-100862950D01*
X124935051Y-100537836D01*
X124658564Y-100261349D01*
X124333450Y-100044115D01*
X123972203Y-99894482D01*
X123588705Y-99818200D01*
X123197695Y-99818200D01*
X122814197Y-99894482D01*
X122452950Y-100044115D01*
X122127836Y-100261349D01*
X121851349Y-100537836D01*
X121634115Y-100862950D01*
X121484482Y-101224197D01*
X121408200Y-101607695D01*
X119519152Y-101607695D01*
X119662255Y-101464592D01*
X119824770Y-101221371D01*
X119936712Y-100951118D01*
X119993780Y-100664220D01*
X119993780Y-100371700D01*
X119936712Y-100084802D01*
X119824770Y-99814549D01*
X119662255Y-99571328D01*
X119455412Y-99364485D01*
X119212191Y-99201970D01*
X118941938Y-99090028D01*
X118655040Y-99032960D01*
X118362520Y-99032960D01*
X118075622Y-99090028D01*
X117805369Y-99201970D01*
X117562148Y-99364485D01*
X117355305Y-99571328D01*
X117238780Y-99745720D01*
X117122255Y-99571328D01*
X116915412Y-99364485D01*
X116672191Y-99201970D01*
X116401938Y-99090028D01*
X116115040Y-99032960D01*
X115822520Y-99032960D01*
X115535622Y-99090028D01*
X115265369Y-99201970D01*
X115022148Y-99364485D01*
X114815305Y-99571328D01*
X114698780Y-99745720D01*
X114582255Y-99571328D01*
X114375412Y-99364485D01*
X114132191Y-99201970D01*
X113861938Y-99090028D01*
X113575040Y-99032960D01*
X113282520Y-99032960D01*
X112995622Y-99090028D01*
X112725369Y-99201970D01*
X112482148Y-99364485D01*
X112275305Y-99571328D01*
X112158780Y-99745720D01*
X112042255Y-99571328D01*
X111835412Y-99364485D01*
X111592191Y-99201970D01*
X111321938Y-99090028D01*
X111035040Y-99032960D01*
X110742520Y-99032960D01*
X110455622Y-99090028D01*
X110185369Y-99201970D01*
X109942148Y-99364485D01*
X109735305Y-99571328D01*
X109618780Y-99745720D01*
X109502255Y-99571328D01*
X109295412Y-99364485D01*
X109052191Y-99201970D01*
X108781938Y-99090028D01*
X108495040Y-99032960D01*
X108202520Y-99032960D01*
X107915622Y-99090028D01*
X107645369Y-99201970D01*
X107402148Y-99364485D01*
X107195305Y-99571328D01*
X107078780Y-99745720D01*
X106962255Y-99571328D01*
X106755412Y-99364485D01*
X106512191Y-99201970D01*
X106241938Y-99090028D01*
X105955040Y-99032960D01*
X105662520Y-99032960D01*
X105375622Y-99090028D01*
X105105369Y-99201970D01*
X104862148Y-99364485D01*
X104655305Y-99571328D01*
X104538780Y-99745720D01*
X104422255Y-99571328D01*
X104215412Y-99364485D01*
X103972191Y-99201970D01*
X103701938Y-99090028D01*
X103415040Y-99032960D01*
X103122520Y-99032960D01*
X102835622Y-99090028D01*
X102565369Y-99201970D01*
X102322148Y-99364485D01*
X102115305Y-99571328D01*
X101998780Y-99745720D01*
X101882255Y-99571328D01*
X101675412Y-99364485D01*
X101432191Y-99201970D01*
X101161938Y-99090028D01*
X100875040Y-99032960D01*
X100582520Y-99032960D01*
X100295622Y-99090028D01*
X100025369Y-99201970D01*
X99782148Y-99364485D01*
X99575305Y-99571328D01*
X99458780Y-99745720D01*
X99342255Y-99571328D01*
X99135412Y-99364485D01*
X98892191Y-99201970D01*
X98621938Y-99090028D01*
X98335040Y-99032960D01*
X98042520Y-99032960D01*
X97755622Y-99090028D01*
X97485369Y-99201970D01*
X97242148Y-99364485D01*
X97035305Y-99571328D01*
X96918780Y-99745720D01*
X96802255Y-99571328D01*
X96595412Y-99364485D01*
X96352191Y-99201970D01*
X96081938Y-99090028D01*
X95795040Y-99032960D01*
X95502520Y-99032960D01*
X95215622Y-99090028D01*
X94945369Y-99201970D01*
X94702148Y-99364485D01*
X94495305Y-99571328D01*
X94378780Y-99745720D01*
X94262255Y-99571328D01*
X94055412Y-99364485D01*
X93812191Y-99201970D01*
X93541938Y-99090028D01*
X93255040Y-99032960D01*
X92962520Y-99032960D01*
X92675622Y-99090028D01*
X92405369Y-99201970D01*
X92162148Y-99364485D01*
X91955305Y-99571328D01*
X91838780Y-99745720D01*
X91722255Y-99571328D01*
X91515412Y-99364485D01*
X91272191Y-99201970D01*
X91001938Y-99090028D01*
X90715040Y-99032960D01*
X90422520Y-99032960D01*
X90135622Y-99090028D01*
X89865369Y-99201970D01*
X89622148Y-99364485D01*
X89415305Y-99571328D01*
X89298780Y-99745720D01*
X89182255Y-99571328D01*
X88975412Y-99364485D01*
X88732191Y-99201970D01*
X88461938Y-99090028D01*
X88175040Y-99032960D01*
X87882520Y-99032960D01*
X87595622Y-99090028D01*
X87325369Y-99201970D01*
X87082148Y-99364485D01*
X86875305Y-99571328D01*
X86758780Y-99745720D01*
X86642255Y-99571328D01*
X86435412Y-99364485D01*
X86192191Y-99201970D01*
X85921938Y-99090028D01*
X85635040Y-99032960D01*
X85342520Y-99032960D01*
X85055622Y-99090028D01*
X84785369Y-99201970D01*
X84542148Y-99364485D01*
X84335305Y-99571328D01*
X84218780Y-99745720D01*
X84102255Y-99571328D01*
X83895412Y-99364485D01*
X83652191Y-99201970D01*
X83381938Y-99090028D01*
X83095040Y-99032960D01*
X82802520Y-99032960D01*
X82515622Y-99090028D01*
X82389908Y-99142100D01*
X82313780Y-99049338D01*
X82284777Y-99025536D01*
X82284241Y-99025000D01*
X143844055Y-99025000D01*
X144319255Y-99071593D01*
X144741781Y-99199161D01*
X145131481Y-99406368D01*
X145473511Y-99685320D01*
X145754848Y-100025398D01*
X145964770Y-100413639D01*
X146095285Y-100835268D01*
X146145001Y-101308272D01*
X146145000Y-151254046D01*
X146098406Y-151729256D01*
X145970837Y-152151782D01*
X145763631Y-152541480D01*
X145484676Y-152883514D01*
X145144604Y-153164847D01*
X144756356Y-153374772D01*
X144334736Y-153505284D01*
X143861737Y-153555000D01*
X64915943Y-153555000D01*
X64440744Y-153508407D01*
X64018216Y-153380838D01*
X63628519Y-153173632D01*
X63286486Y-152894677D01*
X63005153Y-152554604D01*
X62795228Y-152166356D01*
X62664715Y-151744740D01*
X62615000Y-151271730D01*
X62615000Y-150604295D01*
X63394600Y-150604295D01*
X63394600Y-150995305D01*
X63470882Y-151378803D01*
X63620515Y-151740050D01*
X63837749Y-152065164D01*
X64114236Y-152341651D01*
X64439350Y-152558885D01*
X64800597Y-152708518D01*
X65184095Y-152784800D01*
X65575105Y-152784800D01*
X65958603Y-152708518D01*
X66319850Y-152558885D01*
X66558849Y-152399191D01*
X69786519Y-152399191D01*
X69883843Y-152673552D01*
X70032822Y-152923655D01*
X70227731Y-153139888D01*
X70461080Y-153313941D01*
X70723901Y-153439125D01*
X70871110Y-153483776D01*
X71101000Y-153362455D01*
X71101000Y-152169300D01*
X69907186Y-152169300D01*
X69786519Y-152399191D01*
X66558849Y-152399191D01*
X66644964Y-152341651D01*
X66921451Y-152065164D01*
X67138685Y-151740050D01*
X67288318Y-151378803D01*
X67364600Y-150995305D01*
X67364600Y-150604295D01*
X67288318Y-150220797D01*
X67138685Y-149859550D01*
X66921451Y-149534436D01*
X66644964Y-149257949D01*
X66319850Y-149040715D01*
X65958603Y-148891082D01*
X65575105Y-148814800D01*
X65184095Y-148814800D01*
X64800597Y-148891082D01*
X64439350Y-149040715D01*
X64114236Y-149257949D01*
X63837749Y-149534436D01*
X63620515Y-149859550D01*
X63470882Y-150220797D01*
X63394600Y-150604295D01*
X62615000Y-150604295D01*
X62615000Y-142813800D01*
X66773328Y-142813800D01*
X66773328Y-144563800D01*
X66802401Y-144858986D01*
X66888504Y-145142828D01*
X67028327Y-145404418D01*
X67216497Y-145633703D01*
X67445782Y-145821873D01*
X67707372Y-145961696D01*
X67991214Y-146047799D01*
X68286400Y-146076872D01*
X70036400Y-146076872D01*
X70331586Y-146047799D01*
X70615428Y-145961696D01*
X70877018Y-145821873D01*
X71106303Y-145633703D01*
X71294473Y-145404418D01*
X71434296Y-145142828D01*
X71520399Y-144858986D01*
X71549472Y-144563800D01*
X71549472Y-142813800D01*
X71520399Y-142518614D01*
X71434296Y-142234772D01*
X71308228Y-141998916D01*
X71354952Y-142055849D01*
X71398260Y-142091391D01*
X74723001Y-145416133D01*
X74723002Y-148370948D01*
X74534920Y-148230659D01*
X74272099Y-148105475D01*
X74124890Y-148060824D01*
X73895000Y-148182145D01*
X73895000Y-149375300D01*
X73915000Y-149375300D01*
X73915000Y-149629300D01*
X73895000Y-149629300D01*
X73895000Y-149649300D01*
X73641000Y-149649300D01*
X73641000Y-149629300D01*
X73621000Y-149629300D01*
X73621000Y-149375300D01*
X73641000Y-149375300D01*
X73641000Y-148182145D01*
X73411110Y-148060824D01*
X73263901Y-148105475D01*
X73001080Y-148230659D01*
X72767731Y-148404712D01*
X72691966Y-148488766D01*
X72667502Y-148408120D01*
X72608537Y-148297806D01*
X72529185Y-148201115D01*
X72432494Y-148121763D01*
X72322180Y-148062798D01*
X72202482Y-148026488D01*
X72078000Y-148014228D01*
X70378000Y-148014228D01*
X70253518Y-148026488D01*
X70133820Y-148062798D01*
X70023506Y-148121763D01*
X69926815Y-148201115D01*
X69847463Y-148297806D01*
X69788498Y-148408120D01*
X69752188Y-148527818D01*
X69739928Y-148652300D01*
X69739928Y-150352300D01*
X69752188Y-150476782D01*
X69788498Y-150596480D01*
X69847463Y-150706794D01*
X69926815Y-150803485D01*
X70023506Y-150882837D01*
X70133820Y-150941802D01*
X70209626Y-150964798D01*
X70032822Y-151160945D01*
X69883843Y-151411048D01*
X69786519Y-151685409D01*
X69907186Y-151915300D01*
X71101000Y-151915300D01*
X71101000Y-151895300D01*
X71355000Y-151895300D01*
X71355000Y-151915300D01*
X71375000Y-151915300D01*
X71375000Y-152169300D01*
X71355000Y-152169300D01*
X71355000Y-153362455D01*
X71584890Y-153483776D01*
X71732099Y-153439125D01*
X71994920Y-153313941D01*
X72228269Y-153139888D01*
X72423178Y-152923655D01*
X72492805Y-152806766D01*
X72614525Y-152988932D01*
X72821368Y-153195775D01*
X73064589Y-153358290D01*
X73334842Y-153470232D01*
X73621740Y-153527300D01*
X73914260Y-153527300D01*
X74201158Y-153470232D01*
X74471411Y-153358290D01*
X74714632Y-153195775D01*
X74921475Y-152988932D01*
X75043195Y-152806766D01*
X75112822Y-152923655D01*
X75307731Y-153139888D01*
X75541080Y-153313941D01*
X75803901Y-153439125D01*
X75951110Y-153483776D01*
X76181000Y-153362455D01*
X76181000Y-152169300D01*
X76161000Y-152169300D01*
X76161000Y-151915300D01*
X76181000Y-151915300D01*
X76181000Y-151895300D01*
X76435000Y-151895300D01*
X76435000Y-151915300D01*
X76455000Y-151915300D01*
X76455000Y-152169300D01*
X76435000Y-152169300D01*
X76435000Y-153362455D01*
X76664890Y-153483776D01*
X76812099Y-153439125D01*
X77074920Y-153313941D01*
X77308269Y-153139888D01*
X77503178Y-152923655D01*
X77572805Y-152806766D01*
X77694525Y-152988932D01*
X77901368Y-153195775D01*
X78144589Y-153358290D01*
X78414842Y-153470232D01*
X78701740Y-153527300D01*
X78994260Y-153527300D01*
X79281158Y-153470232D01*
X79551411Y-153358290D01*
X79794632Y-153195775D01*
X80001475Y-152988932D01*
X80163990Y-152745711D01*
X80275932Y-152475458D01*
X80333000Y-152188560D01*
X80333000Y-151896040D01*
X80275932Y-151609142D01*
X80163990Y-151338889D01*
X80001475Y-151095668D01*
X79794632Y-150888825D01*
X79618594Y-150771200D01*
X79848269Y-150599888D01*
X80043178Y-150383655D01*
X80192157Y-150133552D01*
X80289481Y-149859191D01*
X80168814Y-149629300D01*
X78975000Y-149629300D01*
X78975000Y-149649300D01*
X78721000Y-149649300D01*
X78721000Y-149629300D01*
X78701000Y-149629300D01*
X78701000Y-149375300D01*
X78721000Y-149375300D01*
X78721000Y-148182145D01*
X78975000Y-148182145D01*
X78975000Y-149375300D01*
X80168814Y-149375300D01*
X80289481Y-149145409D01*
X80192157Y-148871048D01*
X80043178Y-148620945D01*
X79848269Y-148404712D01*
X79614920Y-148230659D01*
X79352099Y-148105475D01*
X79204890Y-148060824D01*
X78975000Y-148182145D01*
X78721000Y-148182145D01*
X78491110Y-148060824D01*
X78343901Y-148105475D01*
X78081080Y-148230659D01*
X77847731Y-148404712D01*
X77652822Y-148620945D01*
X77583195Y-148737834D01*
X77461475Y-148555668D01*
X77254632Y-148348825D01*
X77011411Y-148186310D01*
X76993001Y-148178684D01*
X76993001Y-147767115D01*
X85391000Y-147767115D01*
X85391000Y-148158125D01*
X85467282Y-148541623D01*
X85616915Y-148902870D01*
X85834149Y-149227984D01*
X86110636Y-149504471D01*
X86435750Y-149721705D01*
X86796997Y-149871338D01*
X87180495Y-149947620D01*
X87571505Y-149947620D01*
X87955003Y-149871338D01*
X88316250Y-149721705D01*
X88641364Y-149504471D01*
X88917851Y-149227984D01*
X89135085Y-148902870D01*
X89284718Y-148541623D01*
X89361000Y-148158125D01*
X89361000Y-147848395D01*
X105967540Y-147848395D01*
X105967540Y-148239405D01*
X106043822Y-148622903D01*
X106193455Y-148984150D01*
X106410689Y-149309264D01*
X106687176Y-149585751D01*
X107012290Y-149802985D01*
X107373537Y-149952618D01*
X107757035Y-150028900D01*
X108148045Y-150028900D01*
X108531543Y-149952618D01*
X108892790Y-149802985D01*
X109217904Y-149585751D01*
X109494391Y-149309264D01*
X109711625Y-148984150D01*
X109861258Y-148622903D01*
X109937540Y-148239405D01*
X109937540Y-147848395D01*
X109861258Y-147464897D01*
X109711625Y-147103650D01*
X109494391Y-146778536D01*
X109217904Y-146502049D01*
X108892790Y-146284815D01*
X108531543Y-146135182D01*
X108148045Y-146058900D01*
X107757035Y-146058900D01*
X107373537Y-146135182D01*
X107012290Y-146284815D01*
X106687176Y-146502049D01*
X106410689Y-146778536D01*
X106193455Y-147103650D01*
X106043822Y-147464897D01*
X105967540Y-147848395D01*
X89361000Y-147848395D01*
X89361000Y-147767115D01*
X89284718Y-147383617D01*
X89135085Y-147022370D01*
X88917851Y-146697256D01*
X88641364Y-146420769D01*
X88316250Y-146203535D01*
X87955003Y-146053902D01*
X87571505Y-145977620D01*
X87180495Y-145977620D01*
X86796997Y-146053902D01*
X86435750Y-146203535D01*
X86110636Y-146420769D01*
X85834149Y-146697256D01*
X85616915Y-147022370D01*
X85467282Y-147383617D01*
X85391000Y-147767115D01*
X76993001Y-147767115D01*
X76993001Y-145001742D01*
X76998491Y-144946000D01*
X76993001Y-144890258D01*
X76993001Y-144890249D01*
X76976578Y-144723502D01*
X76911677Y-144509554D01*
X76806285Y-144312378D01*
X76664450Y-144139552D01*
X76621142Y-144104010D01*
X73894003Y-141376872D01*
X73911400Y-141376872D01*
X74035882Y-141364612D01*
X74155580Y-141328302D01*
X74265894Y-141269337D01*
X74362585Y-141189985D01*
X74441937Y-141093294D01*
X74500902Y-140982980D01*
X74537212Y-140863282D01*
X74549472Y-140738800D01*
X74549472Y-137911275D01*
X77472000Y-140833804D01*
X77472001Y-142298288D01*
X77402663Y-142367626D01*
X77289395Y-142537144D01*
X77211374Y-142725502D01*
X77171600Y-142925461D01*
X77171600Y-143129339D01*
X77211374Y-143329298D01*
X77289395Y-143517656D01*
X77402663Y-143687174D01*
X77546826Y-143831337D01*
X77716344Y-143944605D01*
X77904702Y-144022626D01*
X78104661Y-144062400D01*
X78308539Y-144062400D01*
X78508498Y-144022626D01*
X78696856Y-143944605D01*
X78866374Y-143831337D01*
X79010537Y-143687174D01*
X79123805Y-143517656D01*
X79201826Y-143329298D01*
X79241600Y-143129339D01*
X79241600Y-142925461D01*
X79227959Y-142856881D01*
X83582560Y-142856881D01*
X83582560Y-143060759D01*
X83622334Y-143260718D01*
X83700355Y-143449076D01*
X83813623Y-143618594D01*
X83957786Y-143762757D01*
X84127304Y-143876025D01*
X84315662Y-143954046D01*
X84515621Y-143993820D01*
X84719499Y-143993820D01*
X84919458Y-143954046D01*
X85107816Y-143876025D01*
X85277334Y-143762757D01*
X85321271Y-143718820D01*
X89914919Y-143718820D01*
X90021014Y-143751003D01*
X90132667Y-143762000D01*
X90132675Y-143762000D01*
X90170000Y-143765676D01*
X90207325Y-143762000D01*
X115374289Y-143762000D01*
X115418226Y-143805937D01*
X115587744Y-143919205D01*
X115776102Y-143997226D01*
X115976061Y-144037000D01*
X116179939Y-144037000D01*
X116379898Y-143997226D01*
X116568256Y-143919205D01*
X116737774Y-143805937D01*
X116881937Y-143661774D01*
X116995205Y-143492256D01*
X117073226Y-143303898D01*
X117113000Y-143103939D01*
X117113000Y-142900061D01*
X117073226Y-142700102D01*
X116995205Y-142511744D01*
X116881937Y-142342226D01*
X116737774Y-142198063D01*
X116568256Y-142084795D01*
X116379898Y-142006774D01*
X116179939Y-141967000D01*
X115976061Y-141967000D01*
X115776102Y-142006774D01*
X115587744Y-142084795D01*
X115418226Y-142198063D01*
X115374289Y-142242000D01*
X114610801Y-142242000D01*
X115656279Y-141196524D01*
X115656288Y-141196513D01*
X116117801Y-140735000D01*
X116179939Y-140735000D01*
X116379898Y-140695226D01*
X116568256Y-140617205D01*
X116737774Y-140503937D01*
X116881937Y-140359774D01*
X116995205Y-140190256D01*
X117073226Y-140001898D01*
X117113000Y-139801939D01*
X117113000Y-139598061D01*
X117073226Y-139398102D01*
X116995205Y-139209744D01*
X116881937Y-139040226D01*
X116737774Y-138896063D01*
X116568256Y-138782795D01*
X116505982Y-138757000D01*
X122132982Y-138757000D01*
X122174000Y-138761040D01*
X122215018Y-138757000D01*
X122215019Y-138757000D01*
X122337689Y-138744918D01*
X122495087Y-138697172D01*
X122640146Y-138619636D01*
X122767291Y-138515291D01*
X122793446Y-138483421D01*
X122886361Y-138390506D01*
X122918231Y-138364351D01*
X123022576Y-138237206D01*
X123100112Y-138092147D01*
X123147858Y-137934749D01*
X123159940Y-137812079D01*
X123159940Y-137812069D01*
X123163979Y-137771061D01*
X123159940Y-137730053D01*
X123159940Y-136677172D01*
X123749940Y-136677172D01*
X123874422Y-136664912D01*
X123994120Y-136628602D01*
X124104434Y-136569637D01*
X124201125Y-136490285D01*
X124280477Y-136393594D01*
X124339442Y-136283280D01*
X124375752Y-136163582D01*
X124388012Y-136039100D01*
X124388012Y-134789100D01*
X124375752Y-134664618D01*
X124339442Y-134544920D01*
X124280477Y-134434606D01*
X124201125Y-134337915D01*
X124117273Y-134269100D01*
X125318900Y-134269100D01*
X125318901Y-136050139D01*
X125313409Y-136105900D01*
X125335323Y-136328398D01*
X125400224Y-136542346D01*
X125421824Y-136582757D01*
X125505617Y-136739523D01*
X125647452Y-136912349D01*
X125690760Y-136947891D01*
X126799663Y-138056794D01*
X126746000Y-138051509D01*
X126690249Y-138057000D01*
X126634212Y-138057000D01*
X126579252Y-138067932D01*
X126523502Y-138073423D01*
X126469897Y-138089684D01*
X126414933Y-138100617D01*
X126363155Y-138122064D01*
X126309554Y-138138324D01*
X126260153Y-138164729D01*
X126208376Y-138186176D01*
X126161782Y-138217309D01*
X126112378Y-138243716D01*
X126069074Y-138279255D01*
X126022480Y-138310388D01*
X125982855Y-138350013D01*
X125939552Y-138385551D01*
X125904014Y-138428854D01*
X125864388Y-138468480D01*
X125833254Y-138515075D01*
X125797717Y-138558377D01*
X125771312Y-138607778D01*
X125740176Y-138654376D01*
X125718728Y-138706157D01*
X125692325Y-138755553D01*
X125676067Y-138809149D01*
X125654617Y-138860933D01*
X125643683Y-138915904D01*
X125627424Y-138969501D01*
X125621934Y-139025243D01*
X125611000Y-139080212D01*
X125611000Y-139303788D01*
X125611001Y-139303793D01*
X125611000Y-145325868D01*
X125513869Y-145423000D01*
X116895752Y-145423000D01*
X116840000Y-145417509D01*
X116617501Y-145439423D01*
X116403553Y-145504324D01*
X116206377Y-145609716D01*
X116076856Y-145716011D01*
X116076854Y-145716013D01*
X116033551Y-145751551D01*
X115998013Y-145794855D01*
X115148858Y-146644010D01*
X115105551Y-146679552D01*
X114963716Y-146852378D01*
X114930470Y-146914577D01*
X114858323Y-147049555D01*
X114793422Y-147263503D01*
X114771508Y-147486001D01*
X114777000Y-147541762D01*
X114776999Y-149164597D01*
X114628842Y-149194068D01*
X114358589Y-149306010D01*
X114115368Y-149468525D01*
X113983513Y-149600380D01*
X113961502Y-149527820D01*
X113902537Y-149417506D01*
X113823185Y-149320815D01*
X113726494Y-149241463D01*
X113616180Y-149182498D01*
X113496482Y-149146188D01*
X113372000Y-149133928D01*
X111672000Y-149133928D01*
X111547518Y-149146188D01*
X111427820Y-149182498D01*
X111317506Y-149241463D01*
X111220815Y-149320815D01*
X111141463Y-149417506D01*
X111082498Y-149527820D01*
X111046188Y-149647518D01*
X111033928Y-149772000D01*
X111033928Y-151472000D01*
X111046188Y-151596482D01*
X111082498Y-151716180D01*
X111141463Y-151826494D01*
X111220815Y-151923185D01*
X111317506Y-152002537D01*
X111427820Y-152061502D01*
X111547518Y-152097812D01*
X111672000Y-152110072D01*
X113372000Y-152110072D01*
X113496482Y-152097812D01*
X113616180Y-152061502D01*
X113726494Y-152002537D01*
X113823185Y-151923185D01*
X113902537Y-151826494D01*
X113961502Y-151716180D01*
X113983513Y-151643620D01*
X114115368Y-151775475D01*
X114358589Y-151937990D01*
X114628842Y-152049932D01*
X114915740Y-152107000D01*
X115208260Y-152107000D01*
X115495158Y-152049932D01*
X115765411Y-151937990D01*
X116008632Y-151775475D01*
X116215475Y-151568632D01*
X116332000Y-151394240D01*
X116448525Y-151568632D01*
X116655368Y-151775475D01*
X116898589Y-151937990D01*
X117168842Y-152049932D01*
X117455740Y-152107000D01*
X117748260Y-152107000D01*
X118035158Y-152049932D01*
X118305411Y-151937990D01*
X118548632Y-151775475D01*
X118755475Y-151568632D01*
X118917990Y-151325411D01*
X119029932Y-151055158D01*
X119087000Y-150768260D01*
X119087000Y-150583675D01*
X121285136Y-150583675D01*
X121285136Y-150996327D01*
X121365641Y-151401050D01*
X121523556Y-151782291D01*
X121752813Y-152125399D01*
X122044602Y-152417188D01*
X122387710Y-152646445D01*
X122768951Y-152804360D01*
X123173674Y-152884865D01*
X123586326Y-152884865D01*
X123991049Y-152804360D01*
X124372290Y-152646445D01*
X124715398Y-152417188D01*
X125007187Y-152125399D01*
X125236444Y-151782291D01*
X125394359Y-151401050D01*
X125474864Y-150996327D01*
X125474864Y-150583675D01*
X125394359Y-150178952D01*
X125236444Y-149797711D01*
X125007187Y-149454603D01*
X124715398Y-149162814D01*
X124372290Y-148933557D01*
X123991049Y-148775642D01*
X123586326Y-148695137D01*
X123173674Y-148695137D01*
X122768951Y-148775642D01*
X122387710Y-148933557D01*
X122044602Y-149162814D01*
X121752813Y-149454603D01*
X121523556Y-149797711D01*
X121365641Y-150178952D01*
X121285136Y-150583675D01*
X119087000Y-150583675D01*
X119087000Y-150475740D01*
X119029932Y-150188842D01*
X118917990Y-149918589D01*
X118755475Y-149675368D01*
X118548632Y-149468525D01*
X118305411Y-149306010D01*
X118035158Y-149194068D01*
X117748260Y-149137000D01*
X117455740Y-149137000D01*
X117168842Y-149194068D01*
X117046999Y-149244537D01*
X117046999Y-147956133D01*
X117310132Y-147693000D01*
X125928249Y-147693000D01*
X125984000Y-147698491D01*
X126039751Y-147693000D01*
X126039752Y-147693000D01*
X126206499Y-147676577D01*
X126420447Y-147611676D01*
X126617623Y-147506284D01*
X126790449Y-147364449D01*
X126825995Y-147321136D01*
X127509140Y-146637992D01*
X127552449Y-146602449D01*
X127694284Y-146429623D01*
X127799676Y-146232447D01*
X127864577Y-146018499D01*
X127881000Y-145851752D01*
X127881000Y-145851751D01*
X127886491Y-145796000D01*
X127881000Y-145740248D01*
X127881000Y-139138132D01*
X129681109Y-140938241D01*
X129716651Y-140981549D01*
X129872920Y-141109796D01*
X129889477Y-141123384D01*
X130086653Y-141228776D01*
X130300601Y-141293677D01*
X130523100Y-141315591D01*
X130578852Y-141310100D01*
X133126612Y-141310100D01*
X133198541Y-141358161D01*
X133360146Y-141425100D01*
X133198541Y-141492039D01*
X132979887Y-141638138D01*
X132793938Y-141824087D01*
X132647839Y-142042741D01*
X132547204Y-142285695D01*
X132495900Y-142543614D01*
X132495900Y-142806586D01*
X132547204Y-143064505D01*
X132647839Y-143307459D01*
X132793938Y-143526113D01*
X132942925Y-143675100D01*
X132793938Y-143824087D01*
X132647839Y-144042741D01*
X132547204Y-144285695D01*
X132495900Y-144543614D01*
X132495900Y-144806586D01*
X132547204Y-145064505D01*
X132647839Y-145307459D01*
X132793938Y-145526113D01*
X132979887Y-145712062D01*
X133198541Y-145858161D01*
X133360146Y-145925100D01*
X133198541Y-145992039D01*
X132979887Y-146138138D01*
X132793938Y-146324087D01*
X132647839Y-146542741D01*
X132547204Y-146785695D01*
X132495900Y-147043614D01*
X132495900Y-147306586D01*
X132547204Y-147564505D01*
X132647839Y-147807459D01*
X132793938Y-148026113D01*
X132815513Y-148047688D01*
X132814390Y-148047911D01*
X132398547Y-148220159D01*
X132024297Y-148470225D01*
X131706025Y-148788497D01*
X131455959Y-149162747D01*
X131283711Y-149578590D01*
X131195900Y-150020047D01*
X131195900Y-150470153D01*
X131283711Y-150911610D01*
X131455959Y-151327453D01*
X131706025Y-151701703D01*
X132024297Y-152019975D01*
X132398547Y-152270041D01*
X132814390Y-152442289D01*
X133255847Y-152530100D01*
X133705953Y-152530100D01*
X134147410Y-152442289D01*
X134563253Y-152270041D01*
X134937503Y-152019975D01*
X135255775Y-151701703D01*
X135470663Y-151380100D01*
X137171137Y-151380100D01*
X137386025Y-151701703D01*
X137704297Y-152019975D01*
X138078547Y-152270041D01*
X138494390Y-152442289D01*
X138935847Y-152530100D01*
X139385953Y-152530100D01*
X139827410Y-152442289D01*
X140243253Y-152270041D01*
X140617503Y-152019975D01*
X140935775Y-151701703D01*
X141185841Y-151327453D01*
X141358089Y-150911610D01*
X141445900Y-150470153D01*
X141445900Y-150020047D01*
X141358089Y-149578590D01*
X141185841Y-149162747D01*
X140935775Y-148788497D01*
X140617503Y-148470225D01*
X140295900Y-148255337D01*
X140295900Y-139094863D01*
X140617503Y-138879975D01*
X140935775Y-138561703D01*
X141185841Y-138187453D01*
X141358089Y-137771610D01*
X141445900Y-137330153D01*
X141445900Y-136880047D01*
X141358089Y-136438590D01*
X141185841Y-136022747D01*
X140935775Y-135648497D01*
X140617503Y-135330225D01*
X140243253Y-135080159D01*
X139827410Y-134907911D01*
X139385953Y-134820100D01*
X138935847Y-134820100D01*
X138494390Y-134907911D01*
X138078547Y-135080159D01*
X137704297Y-135330225D01*
X137386025Y-135648497D01*
X137171137Y-135970100D01*
X135470663Y-135970100D01*
X135255775Y-135648497D01*
X134937503Y-135330225D01*
X134563253Y-135080159D01*
X134147410Y-134907911D01*
X133705953Y-134820100D01*
X133255847Y-134820100D01*
X132814390Y-134907911D01*
X132398547Y-135080159D01*
X132024297Y-135330225D01*
X131706025Y-135648497D01*
X131455959Y-136022747D01*
X131283711Y-136438590D01*
X131195900Y-136880047D01*
X131195900Y-137330153D01*
X131283711Y-137771610D01*
X131455959Y-138187453D01*
X131706025Y-138561703D01*
X132024297Y-138879975D01*
X132263941Y-139040100D01*
X130993232Y-139040100D01*
X127588900Y-135635769D01*
X127588900Y-133604231D01*
X132532352Y-128660780D01*
X132616424Y-128660780D01*
X132842812Y-128999594D01*
X133164846Y-129321628D01*
X133543517Y-129574648D01*
X133964274Y-129748931D01*
X134410948Y-129837780D01*
X134866372Y-129837780D01*
X135313046Y-129748931D01*
X135733803Y-129574648D01*
X136112474Y-129321628D01*
X136434508Y-128999594D01*
X136687528Y-128620923D01*
X136779067Y-128399927D01*
X136910339Y-128716843D01*
X137185520Y-129128681D01*
X137535759Y-129478920D01*
X137947597Y-129754101D01*
X138405207Y-129943650D01*
X138891003Y-130040280D01*
X139386317Y-130040280D01*
X139872113Y-129943650D01*
X140329723Y-129754101D01*
X140741561Y-129478920D01*
X141091800Y-129128681D01*
X141366981Y-128716843D01*
X141556530Y-128259233D01*
X141653160Y-127773437D01*
X141653160Y-127278123D01*
X141556530Y-126792327D01*
X141366981Y-126334717D01*
X141091800Y-125922879D01*
X140741561Y-125572640D01*
X140329723Y-125297459D01*
X139872113Y-125107910D01*
X139386317Y-125011280D01*
X138891003Y-125011280D01*
X138405207Y-125107910D01*
X137947597Y-125297459D01*
X137535759Y-125572640D01*
X137185520Y-125922879D01*
X136910339Y-126334717D01*
X136779067Y-126651633D01*
X136687528Y-126430637D01*
X136434508Y-126051966D01*
X136112474Y-125729932D01*
X135733803Y-125476912D01*
X135313046Y-125302629D01*
X134866372Y-125213780D01*
X134410948Y-125213780D01*
X133964274Y-125302629D01*
X133543517Y-125476912D01*
X133164846Y-125729932D01*
X132842812Y-126051966D01*
X132616424Y-126390780D01*
X132117963Y-126390780D01*
X132062219Y-126385290D01*
X132006475Y-126390780D01*
X132006468Y-126390780D01*
X131860713Y-126405136D01*
X131839720Y-126407203D01*
X131789925Y-126422309D01*
X131625773Y-126472104D01*
X131428597Y-126577496D01*
X131255771Y-126719331D01*
X131220229Y-126762639D01*
X125983769Y-131999100D01*
X124117273Y-131999100D01*
X124201125Y-131930285D01*
X124280477Y-131833594D01*
X124339442Y-131723280D01*
X124375752Y-131603582D01*
X124388012Y-131479100D01*
X124384940Y-131139850D01*
X124226190Y-130981100D01*
X122451940Y-130981100D01*
X122451940Y-131001100D01*
X122197940Y-131001100D01*
X122197940Y-130981100D01*
X120423690Y-130981100D01*
X120264940Y-131139850D01*
X120261868Y-131479100D01*
X120274128Y-131603582D01*
X120310438Y-131723280D01*
X120369403Y-131833594D01*
X120448755Y-131930285D01*
X120532607Y-131999100D01*
X119813012Y-131999100D01*
X119813012Y-130359100D01*
X119800752Y-130234618D01*
X119799079Y-130229100D01*
X120261868Y-130229100D01*
X120264940Y-130568350D01*
X120423690Y-130727100D01*
X122197940Y-130727100D01*
X122197940Y-129752850D01*
X122451940Y-129752850D01*
X122451940Y-130727100D01*
X124226190Y-130727100D01*
X124384940Y-130568350D01*
X124388012Y-130229100D01*
X124375752Y-130104618D01*
X124339442Y-129984920D01*
X124280477Y-129874606D01*
X124201125Y-129777915D01*
X124104434Y-129698563D01*
X123994120Y-129639598D01*
X123874422Y-129603288D01*
X123749940Y-129591028D01*
X122610690Y-129594100D01*
X122451940Y-129752850D01*
X122197940Y-129752850D01*
X122039190Y-129594100D01*
X120899940Y-129591028D01*
X120775458Y-129603288D01*
X120655760Y-129639598D01*
X120545446Y-129698563D01*
X120448755Y-129777915D01*
X120369403Y-129874606D01*
X120310438Y-129984920D01*
X120274128Y-130104618D01*
X120261868Y-130229100D01*
X119799079Y-130229100D01*
X119764442Y-130114920D01*
X119705477Y-130004606D01*
X119626125Y-129907915D01*
X119529434Y-129828563D01*
X119419120Y-129769598D01*
X119299422Y-129733288D01*
X119174940Y-129721028D01*
X112674940Y-129721028D01*
X112550458Y-129733288D01*
X112430760Y-129769598D01*
X112320446Y-129828563D01*
X112223755Y-129907915D01*
X112144403Y-130004606D01*
X112085438Y-130114920D01*
X112049128Y-130234618D01*
X112036868Y-130359100D01*
X112036868Y-135909100D01*
X112049128Y-136033582D01*
X112085438Y-136153280D01*
X112144403Y-136263594D01*
X112223755Y-136360285D01*
X112320446Y-136439637D01*
X112430760Y-136498602D01*
X112550458Y-136534912D01*
X112674940Y-136547172D01*
X119174940Y-136547172D01*
X119299422Y-136534912D01*
X119419120Y-136498602D01*
X119529434Y-136439637D01*
X119626125Y-136360285D01*
X119705477Y-136263594D01*
X119764442Y-136153280D01*
X119800752Y-136033582D01*
X119813012Y-135909100D01*
X119813012Y-134269100D01*
X120532607Y-134269100D01*
X120448755Y-134337915D01*
X120369403Y-134434606D01*
X120310438Y-134544920D01*
X120274128Y-134664618D01*
X120261868Y-134789100D01*
X120261868Y-136039100D01*
X120274128Y-136163582D01*
X120310438Y-136283280D01*
X120369403Y-136393594D01*
X120448755Y-136490285D01*
X120545446Y-136569637D01*
X120655760Y-136628602D01*
X120775458Y-136664912D01*
X120899940Y-136677172D01*
X121489941Y-136677172D01*
X121489941Y-137087000D01*
X112613868Y-137087000D01*
X112403092Y-136876225D01*
X112374226Y-136731102D01*
X112296205Y-136542744D01*
X112182937Y-136373226D01*
X112038774Y-136229063D01*
X111869256Y-136115795D01*
X111680898Y-136037774D01*
X111480939Y-135998000D01*
X111277061Y-135998000D01*
X111077102Y-136037774D01*
X110888744Y-136115795D01*
X110719226Y-136229063D01*
X110575063Y-136373226D01*
X110461795Y-136542744D01*
X110383774Y-136731102D01*
X110344000Y-136931061D01*
X110344000Y-137134939D01*
X110383774Y-137334898D01*
X110461795Y-137523256D01*
X110575063Y-137692774D01*
X110719226Y-137836937D01*
X110888744Y-137950205D01*
X111077102Y-138028226D01*
X111222225Y-138057092D01*
X111648563Y-138483431D01*
X111674709Y-138515291D01*
X111706568Y-138541437D01*
X111706570Y-138541439D01*
X111772995Y-138595952D01*
X111801854Y-138619636D01*
X111946913Y-138697172D01*
X112104311Y-138744918D01*
X112226981Y-138757000D01*
X112226982Y-138757000D01*
X112268000Y-138761040D01*
X112309018Y-138757000D01*
X115650018Y-138757000D01*
X115587744Y-138782795D01*
X115418226Y-138896063D01*
X115274063Y-139040226D01*
X115160795Y-139209744D01*
X115082774Y-139398102D01*
X115043000Y-139598061D01*
X115043000Y-139660199D01*
X114581487Y-140121712D01*
X114581476Y-140121721D01*
X113477199Y-141226000D01*
X90873711Y-141226000D01*
X90829774Y-141182063D01*
X90660256Y-141068795D01*
X90471898Y-140990774D01*
X90271939Y-140951000D01*
X90068061Y-140951000D01*
X89868102Y-140990774D01*
X89679744Y-141068795D01*
X89510226Y-141182063D01*
X89366063Y-141326226D01*
X89252795Y-141495744D01*
X89174774Y-141684102D01*
X89135000Y-141884061D01*
X89135000Y-142087939D01*
X89157055Y-142198820D01*
X85321271Y-142198820D01*
X85277334Y-142154883D01*
X85107816Y-142041615D01*
X84919458Y-141963594D01*
X84719499Y-141923820D01*
X84515621Y-141923820D01*
X84315662Y-141963594D01*
X84127304Y-142041615D01*
X83957786Y-142154883D01*
X83813623Y-142299046D01*
X83700355Y-142468564D01*
X83622334Y-142656922D01*
X83582560Y-142856881D01*
X79227959Y-142856881D01*
X79201826Y-142725502D01*
X79123805Y-142537144D01*
X79010537Y-142367626D01*
X78992000Y-142349089D01*
X78992000Y-140556325D01*
X78995676Y-140519002D01*
X78992000Y-140481679D01*
X78992000Y-140481669D01*
X78981003Y-140370016D01*
X78937546Y-140226755D01*
X78866974Y-140094726D01*
X78772001Y-139979001D01*
X78743004Y-139955204D01*
X76532811Y-137745011D01*
X80599450Y-137745011D01*
X80599450Y-137948889D01*
X80639224Y-138148848D01*
X80717245Y-138337206D01*
X80830513Y-138506724D01*
X80974676Y-138650887D01*
X81144194Y-138764155D01*
X81332552Y-138842176D01*
X81532511Y-138881950D01*
X81736389Y-138881950D01*
X81936348Y-138842176D01*
X82124706Y-138764155D01*
X82294224Y-138650887D01*
X82438387Y-138506724D01*
X82551655Y-138337206D01*
X82629676Y-138148848D01*
X82669450Y-137948889D01*
X82669450Y-137886753D01*
X82718107Y-137838095D01*
X82747101Y-137814301D01*
X82770895Y-137785308D01*
X82770899Y-137785304D01*
X82842073Y-137698577D01*
X82842074Y-137698576D01*
X82912646Y-137566547D01*
X82956103Y-137423286D01*
X82967100Y-137311633D01*
X82967100Y-137311624D01*
X82970776Y-137274301D01*
X82967100Y-137236978D01*
X82967100Y-135326251D01*
X83011037Y-135282314D01*
X83124305Y-135112796D01*
X83202326Y-134924438D01*
X83242100Y-134724479D01*
X83242100Y-134520601D01*
X83202326Y-134320642D01*
X83124305Y-134132284D01*
X83011037Y-133962766D01*
X82866874Y-133818603D01*
X82697356Y-133705335D01*
X82508998Y-133627314D01*
X82309039Y-133587540D01*
X82105161Y-133587540D01*
X81905202Y-133627314D01*
X81716844Y-133705335D01*
X81547326Y-133818603D01*
X81403163Y-133962766D01*
X81289895Y-134132284D01*
X81211874Y-134320642D01*
X81172100Y-134520601D01*
X81172100Y-134724479D01*
X81211874Y-134924438D01*
X81289895Y-135112796D01*
X81403163Y-135282314D01*
X81447100Y-135326251D01*
X81447101Y-136828939D01*
X81332552Y-136851724D01*
X81144194Y-136929745D01*
X80974676Y-137043013D01*
X80830513Y-137187176D01*
X80717245Y-137356694D01*
X80639224Y-137545052D01*
X80599450Y-137745011D01*
X76532811Y-137745011D01*
X75348001Y-136560202D01*
X75348001Y-132962821D01*
X81135990Y-132962821D01*
X81172676Y-132999507D01*
X81342194Y-133112775D01*
X81530552Y-133190796D01*
X81730511Y-133230570D01*
X81934389Y-133230570D01*
X82134348Y-133190796D01*
X82322706Y-133112775D01*
X82492224Y-132999507D01*
X82636387Y-132855344D01*
X82749655Y-132685826D01*
X82827676Y-132497468D01*
X82867450Y-132297509D01*
X82867450Y-132093631D01*
X82827676Y-131893672D01*
X82791840Y-131807157D01*
X82791840Y-130995551D01*
X82835777Y-130951614D01*
X82949045Y-130782096D01*
X83027066Y-130593738D01*
X83066840Y-130393779D01*
X83066840Y-130189901D01*
X83027066Y-129989942D01*
X82949045Y-129801584D01*
X82835777Y-129632066D01*
X82691614Y-129487903D01*
X82522096Y-129374635D01*
X82333738Y-129296614D01*
X82133779Y-129256840D01*
X81929901Y-129256840D01*
X81729942Y-129296614D01*
X81541584Y-129374635D01*
X81372066Y-129487903D01*
X81227903Y-129632066D01*
X81114635Y-129801584D01*
X81036614Y-129989942D01*
X80996840Y-130189901D01*
X80996840Y-130393779D01*
X81036614Y-130593738D01*
X81114635Y-130782096D01*
X81227903Y-130951614D01*
X81271840Y-130995551D01*
X81271841Y-131325374D01*
X81172676Y-131391633D01*
X81121488Y-131442821D01*
X74625334Y-131442821D01*
X74588001Y-131439144D01*
X74550668Y-131442821D01*
X74439015Y-131453818D01*
X74295754Y-131497275D01*
X74163725Y-131567847D01*
X74048000Y-131662820D01*
X73953027Y-131778545D01*
X73882455Y-131910574D01*
X73838998Y-132053835D01*
X73824324Y-132202821D01*
X73828001Y-132240154D01*
X73828002Y-136600728D01*
X70411400Y-136600728D01*
X70286918Y-136612988D01*
X70167220Y-136649298D01*
X70056906Y-136708263D01*
X69960215Y-136787615D01*
X69880863Y-136884306D01*
X69821898Y-136994620D01*
X69785588Y-137114318D01*
X69773328Y-137238800D01*
X69773328Y-140738800D01*
X69785588Y-140863282D01*
X69821898Y-140982980D01*
X69880863Y-141093294D01*
X69960215Y-141189985D01*
X70056906Y-141269337D01*
X70133531Y-141310294D01*
X70036400Y-141300728D01*
X68286400Y-141300728D01*
X67991214Y-141329801D01*
X67707372Y-141415904D01*
X67445782Y-141555727D01*
X67216497Y-141743897D01*
X67028327Y-141973182D01*
X66888504Y-142234772D01*
X66802401Y-142518614D01*
X66773328Y-142813800D01*
X62615000Y-142813800D01*
X62615000Y-140738800D01*
X64023328Y-140738800D01*
X64035588Y-140863282D01*
X64071898Y-140982980D01*
X64130863Y-141093294D01*
X64210215Y-141189985D01*
X64306906Y-141269337D01*
X64417220Y-141328302D01*
X64536918Y-141364612D01*
X64661400Y-141376872D01*
X65875650Y-141373800D01*
X66034400Y-141215050D01*
X66034400Y-139115800D01*
X66288400Y-139115800D01*
X66288400Y-141215050D01*
X66447150Y-141373800D01*
X67661400Y-141376872D01*
X67785882Y-141364612D01*
X67905580Y-141328302D01*
X68015894Y-141269337D01*
X68112585Y-141189985D01*
X68191937Y-141093294D01*
X68250902Y-140982980D01*
X68287212Y-140863282D01*
X68299472Y-140738800D01*
X68296400Y-139274550D01*
X68137650Y-139115800D01*
X66288400Y-139115800D01*
X66034400Y-139115800D01*
X64185150Y-139115800D01*
X64026400Y-139274550D01*
X64023328Y-140738800D01*
X62615000Y-140738800D01*
X62615000Y-137238800D01*
X64023328Y-137238800D01*
X64026400Y-138703050D01*
X64185150Y-138861800D01*
X66034400Y-138861800D01*
X66034400Y-136762550D01*
X66288400Y-136762550D01*
X66288400Y-138861800D01*
X68137650Y-138861800D01*
X68296400Y-138703050D01*
X68299472Y-137238800D01*
X68287212Y-137114318D01*
X68250902Y-136994620D01*
X68191937Y-136884306D01*
X68112585Y-136787615D01*
X68015894Y-136708263D01*
X67905580Y-136649298D01*
X67785882Y-136612988D01*
X67661400Y-136600728D01*
X66447150Y-136603800D01*
X66288400Y-136762550D01*
X66034400Y-136762550D01*
X65875650Y-136603800D01*
X64661400Y-136600728D01*
X64536918Y-136612988D01*
X64417220Y-136649298D01*
X64306906Y-136708263D01*
X64210215Y-136787615D01*
X64130863Y-136884306D01*
X64071898Y-136994620D01*
X64035588Y-137114318D01*
X64023328Y-137238800D01*
X62615000Y-137238800D01*
X62615000Y-131166890D01*
X63836524Y-131166890D01*
X63881175Y-131314099D01*
X64006359Y-131576920D01*
X64180412Y-131810269D01*
X64396645Y-132005178D01*
X64646748Y-132154157D01*
X64921109Y-132251481D01*
X65151000Y-132130814D01*
X65151000Y-130937000D01*
X65405000Y-130937000D01*
X65405000Y-132130814D01*
X65634891Y-132251481D01*
X65909252Y-132154157D01*
X66159355Y-132005178D01*
X66375588Y-131810269D01*
X66549641Y-131576920D01*
X66674825Y-131314099D01*
X66719476Y-131166890D01*
X66598155Y-130937000D01*
X65405000Y-130937000D01*
X65151000Y-130937000D01*
X63957845Y-130937000D01*
X63836524Y-131166890D01*
X62615000Y-131166890D01*
X62615000Y-109132000D01*
X63789928Y-109132000D01*
X63789928Y-110832000D01*
X63802188Y-110956482D01*
X63838498Y-111076180D01*
X63897463Y-111186494D01*
X63976815Y-111283185D01*
X64073506Y-111362537D01*
X64183820Y-111421502D01*
X64264466Y-111445966D01*
X64180412Y-111521731D01*
X64006359Y-111755080D01*
X63881175Y-112017901D01*
X63836524Y-112165110D01*
X63957845Y-112395000D01*
X65151000Y-112395000D01*
X65151000Y-112375000D01*
X65405000Y-112375000D01*
X65405000Y-112395000D01*
X66598155Y-112395000D01*
X66719476Y-112165110D01*
X66674825Y-112017901D01*
X66549641Y-111755080D01*
X66375588Y-111521731D01*
X66291534Y-111445966D01*
X66372180Y-111421502D01*
X66482494Y-111362537D01*
X66579185Y-111283185D01*
X66658537Y-111186494D01*
X66717502Y-111076180D01*
X66753812Y-110956482D01*
X66766072Y-110832000D01*
X66766072Y-109132000D01*
X66753812Y-109007518D01*
X66717502Y-108887820D01*
X66658537Y-108777506D01*
X66579185Y-108680815D01*
X66482494Y-108601463D01*
X66372180Y-108542498D01*
X66252482Y-108506188D01*
X66128000Y-108493928D01*
X64428000Y-108493928D01*
X64303518Y-108506188D01*
X64183820Y-108542498D01*
X64073506Y-108601463D01*
X63976815Y-108680815D01*
X63897463Y-108777506D01*
X63838498Y-108887820D01*
X63802188Y-109007518D01*
X63789928Y-109132000D01*
X62615000Y-109132000D01*
X62615000Y-101607695D01*
X63394600Y-101607695D01*
X63394600Y-101998705D01*
X63470882Y-102382203D01*
X63620515Y-102743450D01*
X63837749Y-103068564D01*
X64114236Y-103345051D01*
X64439350Y-103562285D01*
X64800597Y-103711918D01*
X65184095Y-103788200D01*
X65575105Y-103788200D01*
X65958603Y-103711918D01*
X66319850Y-103562285D01*
X66644964Y-103345051D01*
X66921451Y-103068564D01*
X67138685Y-102743450D01*
X67288318Y-102382203D01*
X67364600Y-101998705D01*
X67364600Y-101607695D01*
X67288318Y-101224197D01*
X67138685Y-100862950D01*
X66921451Y-100537836D01*
X66644964Y-100261349D01*
X66319850Y-100044115D01*
X65958603Y-99894482D01*
X65575105Y-99818200D01*
X65184095Y-99818200D01*
X64800597Y-99894482D01*
X64439350Y-100044115D01*
X64114236Y-100261349D01*
X63837749Y-100537836D01*
X63620515Y-100862950D01*
X63470882Y-101224197D01*
X63394600Y-101607695D01*
X62615000Y-101607695D01*
X62615000Y-101325934D01*
X62661592Y-100850744D01*
X62789161Y-100428218D01*
X62996367Y-100038518D01*
X63275322Y-99696487D01*
X63615396Y-99415153D01*
X64003641Y-99205229D01*
X64425262Y-99074715D01*
X64898270Y-99025000D01*
X78286938Y-99025000D01*
X78235188Y-99076750D01*
G37*
X78235188Y-99076750D02*
X78015040Y-99032960D01*
X77722520Y-99032960D01*
X77435622Y-99090028D01*
X77165369Y-99201970D01*
X76922148Y-99364485D01*
X76715305Y-99571328D01*
X76598780Y-99745720D01*
X76482255Y-99571328D01*
X76275412Y-99364485D01*
X76032191Y-99201970D01*
X75761938Y-99090028D01*
X75475040Y-99032960D01*
X75182520Y-99032960D01*
X74895622Y-99090028D01*
X74625369Y-99201970D01*
X74382148Y-99364485D01*
X74175305Y-99571328D01*
X74058780Y-99745720D01*
X73942255Y-99571328D01*
X73735412Y-99364485D01*
X73492191Y-99201970D01*
X73221938Y-99090028D01*
X72935040Y-99032960D01*
X72642520Y-99032960D01*
X72355622Y-99090028D01*
X72085369Y-99201970D01*
X71842148Y-99364485D01*
X71635305Y-99571328D01*
X71560715Y-99682960D01*
X71476845Y-99682960D01*
X71402255Y-99571328D01*
X71195412Y-99364485D01*
X70952191Y-99201970D01*
X70681938Y-99090028D01*
X70395040Y-99032960D01*
X70102520Y-99032960D01*
X69815622Y-99090028D01*
X69545369Y-99201970D01*
X69302148Y-99364485D01*
X69095305Y-99571328D01*
X68932790Y-99814549D01*
X68820848Y-100084802D01*
X68763780Y-100371700D01*
X68763780Y-100664220D01*
X68820848Y-100951118D01*
X68932790Y-101221371D01*
X69095305Y-101464592D01*
X69227160Y-101596447D01*
X69154600Y-101618458D01*
X69044286Y-101677423D01*
X68947595Y-101756775D01*
X68868243Y-101853466D01*
X68809278Y-101963780D01*
X68772968Y-102083478D01*
X68760708Y-102207960D01*
X68760708Y-103907960D01*
X68772968Y-104032442D01*
X68809278Y-104152140D01*
X68868243Y-104262454D01*
X68947595Y-104359145D01*
X69044286Y-104438497D01*
X69154600Y-104497462D01*
X69274298Y-104533772D01*
X69398780Y-104546032D01*
X71098780Y-104546032D01*
X71223262Y-104533772D01*
X71342960Y-104497462D01*
X71453274Y-104438497D01*
X71549965Y-104359145D01*
X71629317Y-104262454D01*
X71688282Y-104152140D01*
X71710293Y-104079580D01*
X71842148Y-104211435D01*
X72085369Y-104373950D01*
X72355622Y-104485892D01*
X72642520Y-104542960D01*
X72646001Y-104542960D01*
X72646000Y-116271198D01*
X72075199Y-116842000D01*
X66556178Y-116842000D01*
X66431475Y-116655368D01*
X66224632Y-116448525D01*
X66050240Y-116332000D01*
X66224632Y-116215475D01*
X66431475Y-116008632D01*
X66593990Y-115765411D01*
X66705932Y-115495158D01*
X66763000Y-115208260D01*
X66763000Y-114915740D01*
X66705932Y-114628842D01*
X66593990Y-114358589D01*
X66431475Y-114115368D01*
X66224632Y-113908525D01*
X66042466Y-113786805D01*
X66159355Y-113717178D01*
X66375588Y-113522269D01*
X66549641Y-113288920D01*
X66674825Y-113026099D01*
X66719476Y-112878890D01*
X66598155Y-112649000D01*
X65405000Y-112649000D01*
X65405000Y-112669000D01*
X65151000Y-112669000D01*
X65151000Y-112649000D01*
X63957845Y-112649000D01*
X63836524Y-112878890D01*
X63881175Y-113026099D01*
X64006359Y-113288920D01*
X64180412Y-113522269D01*
X64396645Y-113717178D01*
X64513534Y-113786805D01*
X64331368Y-113908525D01*
X64124525Y-114115368D01*
X63962010Y-114358589D01*
X63850068Y-114628842D01*
X63793000Y-114915740D01*
X63793000Y-115208260D01*
X63850068Y-115495158D01*
X63962010Y-115765411D01*
X64124525Y-116008632D01*
X64331368Y-116215475D01*
X64505760Y-116332000D01*
X64331368Y-116448525D01*
X64124525Y-116655368D01*
X63962010Y-116898589D01*
X63850068Y-117168842D01*
X63793000Y-117455740D01*
X63793000Y-117748260D01*
X63850068Y-118035158D01*
X63962010Y-118305411D01*
X64124525Y-118548632D01*
X64331368Y-118755475D01*
X64505760Y-118872000D01*
X64331368Y-118988525D01*
X64124525Y-119195368D01*
X63962010Y-119438589D01*
X63850068Y-119708842D01*
X63793000Y-119995740D01*
X63793000Y-120288260D01*
X63850068Y-120575158D01*
X63962010Y-120845411D01*
X64124525Y-121088632D01*
X64331368Y-121295475D01*
X64505760Y-121412000D01*
X64331368Y-121528525D01*
X64124525Y-121735368D01*
X63962010Y-121978589D01*
X63850068Y-122248842D01*
X63793000Y-122535740D01*
X63793000Y-122828260D01*
X63850068Y-123115158D01*
X63962010Y-123385411D01*
X64124525Y-123628632D01*
X64331368Y-123835475D01*
X64574589Y-123997990D01*
X64844842Y-124109932D01*
X65131740Y-124167000D01*
X65424260Y-124167000D01*
X65711158Y-124109932D01*
X65981411Y-123997990D01*
X66224632Y-123835475D01*
X66431475Y-123628632D01*
X66593990Y-123385411D01*
X66705932Y-123115158D01*
X66763000Y-122828260D01*
X66763000Y-122535740D01*
X66705932Y-122248842D01*
X66593990Y-121978589D01*
X66431475Y-121735368D01*
X66224632Y-121528525D01*
X66050240Y-121412000D01*
X66224632Y-121295475D01*
X66273132Y-121246975D01*
X70808860Y-121246975D01*
X70808860Y-121637985D01*
X70885142Y-122021483D01*
X71034775Y-122382730D01*
X71252009Y-122707844D01*
X71528496Y-122984331D01*
X71853610Y-123201565D01*
X72214857Y-123351198D01*
X72598355Y-123427480D01*
X72989365Y-123427480D01*
X73372863Y-123351198D01*
X73734110Y-123201565D01*
X74059224Y-122984331D01*
X74335711Y-122707844D01*
X74552945Y-122382730D01*
X74702578Y-122021483D01*
X74778860Y-121637985D01*
X74778860Y-121246975D01*
X74702578Y-120863477D01*
X74552945Y-120502230D01*
X74335711Y-120177116D01*
X74059224Y-119900629D01*
X73734110Y-119683395D01*
X73372863Y-119533762D01*
X72989365Y-119457480D01*
X72598355Y-119457480D01*
X72214857Y-119533762D01*
X71853610Y-119683395D01*
X71528496Y-119900629D01*
X71252009Y-120177116D01*
X71034775Y-120502230D01*
X70885142Y-120863477D01*
X70808860Y-121246975D01*
X66273132Y-121246975D01*
X66431475Y-121088632D01*
X66593990Y-120845411D01*
X66705932Y-120575158D01*
X66763000Y-120288260D01*
X66763000Y-119995740D01*
X66705932Y-119708842D01*
X66593990Y-119438589D01*
X66431475Y-119195368D01*
X66224632Y-118988525D01*
X66050240Y-118872000D01*
X66224632Y-118755475D01*
X66431475Y-118548632D01*
X66556178Y-118362000D01*
X72352678Y-118362000D01*
X72390000Y-118365676D01*
X72427322Y-118362000D01*
X72427333Y-118362000D01*
X72538986Y-118351003D01*
X72682247Y-118307546D01*
X72814276Y-118236974D01*
X72930001Y-118142001D01*
X72953804Y-118112998D01*
X73720802Y-117346000D01*
X74734289Y-117346000D01*
X74778226Y-117389937D01*
X74947744Y-117503205D01*
X75136102Y-117581226D01*
X75336061Y-117621000D01*
X75539939Y-117621000D01*
X75739898Y-117581226D01*
X75783779Y-117563050D01*
X75783779Y-123441352D01*
X71790133Y-127435000D01*
X66766072Y-127435000D01*
X66766072Y-127420000D01*
X66753812Y-127295518D01*
X66717502Y-127175820D01*
X66658537Y-127065506D01*
X66579185Y-126968815D01*
X66482494Y-126889463D01*
X66372180Y-126830498D01*
X66252482Y-126794188D01*
X66128000Y-126781928D01*
X64428000Y-126781928D01*
X64303518Y-126794188D01*
X64183820Y-126830498D01*
X64073506Y-126889463D01*
X63976815Y-126968815D01*
X63897463Y-127065506D01*
X63838498Y-127175820D01*
X63802188Y-127295518D01*
X63789928Y-127420000D01*
X63789928Y-129120000D01*
X63802188Y-129244482D01*
X63838498Y-129364180D01*
X63897463Y-129474494D01*
X63976815Y-129571185D01*
X64073506Y-129650537D01*
X64183820Y-129709502D01*
X64264466Y-129733966D01*
X64180412Y-129809731D01*
X64006359Y-130043080D01*
X63881175Y-130305901D01*
X63836524Y-130453110D01*
X63957845Y-130683000D01*
X65151000Y-130683000D01*
X65151000Y-130663000D01*
X65405000Y-130663000D01*
X65405000Y-130683000D01*
X66598155Y-130683000D01*
X66719476Y-130453110D01*
X66674825Y-130305901D01*
X66549641Y-130043080D01*
X66375588Y-129809731D01*
X66291534Y-129733966D01*
X66372180Y-129709502D01*
X66482494Y-129650537D01*
X66579185Y-129571185D01*
X66658537Y-129474494D01*
X66717502Y-129364180D01*
X66753812Y-129244482D01*
X66766072Y-129120000D01*
X66766072Y-129105000D01*
X72094982Y-129105000D01*
X72136000Y-129109040D01*
X72177018Y-129105000D01*
X72177019Y-129105000D01*
X72299689Y-129092918D01*
X72457087Y-129045172D01*
X72602146Y-128967636D01*
X72729291Y-128863291D01*
X72755446Y-128831421D01*
X74428456Y-127158411D01*
X77642770Y-127158411D01*
X77642770Y-127362289D01*
X77682544Y-127562248D01*
X77760565Y-127750606D01*
X77873833Y-127920124D01*
X78017996Y-128064287D01*
X78187514Y-128177555D01*
X78375872Y-128255576D01*
X78575831Y-128295350D01*
X78779709Y-128295350D01*
X78979668Y-128255576D01*
X79168026Y-128177555D01*
X79337544Y-128064287D01*
X79381481Y-128020350D01*
X83531579Y-128020350D01*
X83575516Y-128064287D01*
X83745034Y-128177555D01*
X83933392Y-128255576D01*
X84133351Y-128295350D01*
X84337229Y-128295350D01*
X84537188Y-128255576D01*
X84725546Y-128177555D01*
X84895064Y-128064287D01*
X85039227Y-127920124D01*
X85152495Y-127750606D01*
X85230516Y-127562248D01*
X85270290Y-127362289D01*
X85270290Y-127158411D01*
X85230516Y-126958452D01*
X85152495Y-126770094D01*
X85039227Y-126600576D01*
X84895064Y-126456413D01*
X84725546Y-126343145D01*
X84537188Y-126265124D01*
X84337229Y-126225350D01*
X84133351Y-126225350D01*
X83933392Y-126265124D01*
X83745034Y-126343145D01*
X83575516Y-126456413D01*
X83531579Y-126500350D01*
X79381481Y-126500350D01*
X79337544Y-126456413D01*
X79168026Y-126343145D01*
X78979668Y-126265124D01*
X78779709Y-126225350D01*
X78575831Y-126225350D01*
X78375872Y-126265124D01*
X78187514Y-126343145D01*
X78017996Y-126456413D01*
X77873833Y-126600576D01*
X77760565Y-126770094D01*
X77682544Y-126958452D01*
X77642770Y-127158411D01*
X74428456Y-127158411D01*
X77180212Y-124406657D01*
X77212070Y-124380512D01*
X77243561Y-124342141D01*
X77316415Y-124253367D01*
X77393951Y-124108308D01*
X77441697Y-123950910D01*
X77457819Y-123787221D01*
X77453779Y-123746203D01*
X77453779Y-122694361D01*
X86978540Y-122694361D01*
X86978540Y-122898239D01*
X87018314Y-123098198D01*
X87096335Y-123286556D01*
X87209603Y-123456074D01*
X87353766Y-123600237D01*
X87523284Y-123713505D01*
X87711642Y-123791526D01*
X87911601Y-123831300D01*
X87973739Y-123831300D01*
X88259381Y-124116943D01*
X88259380Y-128866769D01*
X88215443Y-128910706D01*
X88102175Y-129080224D01*
X88024154Y-129268582D01*
X87984380Y-129468541D01*
X87984380Y-129672419D01*
X88024154Y-129872378D01*
X88102175Y-130060736D01*
X88215443Y-130230254D01*
X88359606Y-130374417D01*
X88529124Y-130487685D01*
X88717482Y-130565706D01*
X88917441Y-130605480D01*
X89121319Y-130605480D01*
X89321278Y-130565706D01*
X89509636Y-130487685D01*
X89679154Y-130374417D01*
X89823317Y-130230254D01*
X89936585Y-130060736D01*
X89984085Y-129946061D01*
X90913000Y-129946061D01*
X90913000Y-130149939D01*
X90952774Y-130349898D01*
X91030795Y-130538256D01*
X91144063Y-130707774D01*
X91288226Y-130851937D01*
X91457744Y-130965205D01*
X91646102Y-131043226D01*
X91846061Y-131083000D01*
X92049939Y-131083000D01*
X92249898Y-131043226D01*
X92438256Y-130965205D01*
X92455027Y-130953999D01*
X94634349Y-130953999D01*
X94615026Y-130977544D01*
X94579918Y-131043226D01*
X94544454Y-131109574D01*
X94500997Y-131252835D01*
X94490000Y-131364488D01*
X94490000Y-131364498D01*
X94486324Y-131401820D01*
X94490000Y-131439143D01*
X94490001Y-133666290D01*
X94385774Y-133562063D01*
X94216256Y-133448795D01*
X94027898Y-133370774D01*
X93827939Y-133331000D01*
X93624061Y-133331000D01*
X93424102Y-133370774D01*
X93235744Y-133448795D01*
X93066226Y-133562063D01*
X92922063Y-133706226D01*
X92808795Y-133875744D01*
X92730774Y-134064102D01*
X92691000Y-134264061D01*
X92691000Y-134467939D01*
X92730774Y-134667898D01*
X92808795Y-134856256D01*
X92922063Y-135025774D01*
X93066226Y-135169937D01*
X93235744Y-135283205D01*
X93424102Y-135361226D01*
X93624061Y-135401000D01*
X93827939Y-135401000D01*
X94027898Y-135361226D01*
X94216256Y-135283205D01*
X94385774Y-135169937D01*
X94490001Y-135065710D01*
X94490001Y-135186288D01*
X94446063Y-135230226D01*
X94332795Y-135399744D01*
X94254774Y-135588102D01*
X94215000Y-135788061D01*
X94215000Y-135991939D01*
X94254774Y-136191898D01*
X94332795Y-136380256D01*
X94446063Y-136549774D01*
X94590226Y-136693937D01*
X94759744Y-136807205D01*
X94948102Y-136885226D01*
X95148061Y-136925000D01*
X95351939Y-136925000D01*
X95551898Y-136885226D01*
X95740256Y-136807205D01*
X95909774Y-136693937D01*
X96053937Y-136549774D01*
X96167205Y-136380256D01*
X96245226Y-136191898D01*
X96285000Y-135991939D01*
X96285000Y-135788061D01*
X96245226Y-135588102D01*
X96167205Y-135399744D01*
X96053937Y-135230226D01*
X96010000Y-135186289D01*
X96010000Y-134772061D01*
X108185000Y-134772061D01*
X108185000Y-134975939D01*
X108224774Y-135175898D01*
X108302795Y-135364256D01*
X108416063Y-135533774D01*
X108560226Y-135677937D01*
X108729744Y-135791205D01*
X108918102Y-135869226D01*
X109118061Y-135909000D01*
X109321939Y-135909000D01*
X109521898Y-135869226D01*
X109710256Y-135791205D01*
X109879774Y-135677937D01*
X110023937Y-135533774D01*
X110137205Y-135364256D01*
X110215226Y-135175898D01*
X110255000Y-134975939D01*
X110255000Y-134772061D01*
X110215226Y-134572102D01*
X110137205Y-134383744D01*
X110023937Y-134214226D01*
X109879774Y-134070063D01*
X109710256Y-133956795D01*
X109521898Y-133878774D01*
X109321939Y-133839000D01*
X109118061Y-133839000D01*
X108918102Y-133878774D01*
X108729744Y-133956795D01*
X108560226Y-134070063D01*
X108416063Y-134214226D01*
X108302795Y-134383744D01*
X108224774Y-134572102D01*
X108185000Y-134772061D01*
X96010000Y-134772061D01*
X96010000Y-133535081D01*
X105566260Y-133535081D01*
X105566260Y-133738959D01*
X105606034Y-133938918D01*
X105684055Y-134127276D01*
X105797323Y-134296794D01*
X105941486Y-134440957D01*
X106111004Y-134554225D01*
X106299362Y-134632246D01*
X106499321Y-134672020D01*
X106703199Y-134672020D01*
X106903158Y-134632246D01*
X107091516Y-134554225D01*
X107261034Y-134440957D01*
X107405197Y-134296794D01*
X107518465Y-134127276D01*
X107596486Y-133938918D01*
X107636260Y-133738959D01*
X107636260Y-133535081D01*
X107596486Y-133335122D01*
X107518465Y-133146764D01*
X107405197Y-132977246D01*
X107389200Y-132961249D01*
X107389200Y-128183771D01*
X107433137Y-128139834D01*
X107546405Y-127970316D01*
X107624426Y-127781958D01*
X107664200Y-127581999D01*
X107664200Y-127378121D01*
X107624426Y-127178162D01*
X107546405Y-126989804D01*
X107433137Y-126820286D01*
X107288974Y-126676123D01*
X107119456Y-126562855D01*
X106931098Y-126484834D01*
X106731139Y-126445060D01*
X106527261Y-126445060D01*
X106327302Y-126484834D01*
X106138944Y-126562855D01*
X105969426Y-126676123D01*
X105825263Y-126820286D01*
X105711995Y-126989804D01*
X105633974Y-127178162D01*
X105594200Y-127378121D01*
X105594200Y-127581999D01*
X105633974Y-127781958D01*
X105711995Y-127970316D01*
X105825263Y-128139834D01*
X105869200Y-128183771D01*
X105869201Y-132905368D01*
X105797323Y-132977246D01*
X105684055Y-133146764D01*
X105606034Y-133335122D01*
X105566260Y-133535081D01*
X96010000Y-133535081D01*
X96010000Y-131716621D01*
X98623588Y-129103035D01*
X98652581Y-129079241D01*
X98676375Y-129050248D01*
X98676379Y-129050244D01*
X98747553Y-128963517D01*
X98747554Y-128963516D01*
X98818126Y-128831487D01*
X98861583Y-128688226D01*
X98872580Y-128576573D01*
X98872580Y-128576564D01*
X98874288Y-128559221D01*
X101362560Y-128559221D01*
X101362560Y-128763099D01*
X101402334Y-128963058D01*
X101480355Y-129151416D01*
X101593623Y-129320934D01*
X101637560Y-129364871D01*
X101637561Y-131529588D01*
X101633884Y-131566920D01*
X101637561Y-131604253D01*
X101645472Y-131684568D01*
X101648558Y-131715905D01*
X101692014Y-131859166D01*
X101762586Y-131991196D01*
X101813993Y-132053835D01*
X101857560Y-132106921D01*
X101886558Y-132130719D01*
X102063600Y-132307761D01*
X102063600Y-132369899D01*
X102103374Y-132569858D01*
X102181395Y-132758216D01*
X102294663Y-132927734D01*
X102438826Y-133071897D01*
X102608344Y-133185165D01*
X102796702Y-133263186D01*
X102996661Y-133302960D01*
X103200539Y-133302960D01*
X103400498Y-133263186D01*
X103588856Y-133185165D01*
X103758374Y-133071897D01*
X103902537Y-132927734D01*
X104015805Y-132758216D01*
X104093826Y-132569858D01*
X104133600Y-132369899D01*
X104133600Y-132166021D01*
X104093826Y-131966062D01*
X104015805Y-131777704D01*
X103902537Y-131608186D01*
X103758374Y-131464023D01*
X103588856Y-131350755D01*
X103400498Y-131272734D01*
X103200539Y-131232960D01*
X103157560Y-131232960D01*
X103157560Y-129364871D01*
X103201497Y-129320934D01*
X103314765Y-129151416D01*
X103392786Y-128963058D01*
X103432560Y-128763099D01*
X103432560Y-128559221D01*
X103392786Y-128359262D01*
X103314765Y-128170904D01*
X103201497Y-128001386D01*
X103057334Y-127857223D01*
X102887816Y-127743955D01*
X102699458Y-127665934D01*
X102499499Y-127626160D01*
X102295621Y-127626160D01*
X102095662Y-127665934D01*
X101907304Y-127743955D01*
X101737786Y-127857223D01*
X101593623Y-128001386D01*
X101480355Y-128170904D01*
X101402334Y-128359262D01*
X101362560Y-128559221D01*
X98874288Y-128559221D01*
X98876256Y-128539241D01*
X98872580Y-128501918D01*
X98872580Y-126921391D01*
X98916517Y-126877454D01*
X99029785Y-126707936D01*
X99107806Y-126519578D01*
X99147580Y-126319619D01*
X99147580Y-126115741D01*
X99107806Y-125915782D01*
X99029785Y-125727424D01*
X98916517Y-125557906D01*
X98772354Y-125413743D01*
X98602836Y-125300475D01*
X98414478Y-125222454D01*
X98214519Y-125182680D01*
X98010641Y-125182680D01*
X97810682Y-125222454D01*
X97622324Y-125300475D01*
X97452806Y-125413743D01*
X97308643Y-125557906D01*
X97195375Y-125727424D01*
X97117354Y-125915782D01*
X97077580Y-126115741D01*
X97077580Y-126319619D01*
X97117354Y-126519578D01*
X97195375Y-126707936D01*
X97308643Y-126877454D01*
X97352580Y-126921391D01*
X97352581Y-128224436D01*
X96198272Y-129378746D01*
X96167205Y-129303744D01*
X96053937Y-129134226D01*
X95909774Y-128990063D01*
X95740256Y-128876795D01*
X95551898Y-128798774D01*
X95351939Y-128759000D01*
X95148061Y-128759000D01*
X94948102Y-128798774D01*
X94759744Y-128876795D01*
X94590226Y-128990063D01*
X94446063Y-129134226D01*
X94332795Y-129303744D01*
X94278841Y-129433999D01*
X92782521Y-129433999D01*
X92751937Y-129388226D01*
X92607774Y-129244063D01*
X92438256Y-129130795D01*
X92249898Y-129052774D01*
X92049939Y-129013000D01*
X91846061Y-129013000D01*
X91646102Y-129052774D01*
X91457744Y-129130795D01*
X91288226Y-129244063D01*
X91144063Y-129388226D01*
X91030795Y-129557744D01*
X90952774Y-129746102D01*
X90913000Y-129946061D01*
X89984085Y-129946061D01*
X90014606Y-129872378D01*
X90054380Y-129672419D01*
X90054380Y-129468541D01*
X90014606Y-129268582D01*
X89936585Y-129080224D01*
X89823317Y-128910706D01*
X89779380Y-128866769D01*
X89779380Y-123839473D01*
X89783057Y-123802140D01*
X89768383Y-123653154D01*
X89724926Y-123509893D01*
X89654354Y-123377864D01*
X89583179Y-123291137D01*
X89559381Y-123262139D01*
X89530383Y-123238341D01*
X89048540Y-122756499D01*
X89048540Y-122694361D01*
X89008766Y-122494402D01*
X88930745Y-122306044D01*
X88817477Y-122136526D01*
X88673314Y-121992363D01*
X88503796Y-121879095D01*
X88315438Y-121801074D01*
X88115479Y-121761300D01*
X87911601Y-121761300D01*
X87711642Y-121801074D01*
X87523284Y-121879095D01*
X87353766Y-121992363D01*
X87209603Y-122136526D01*
X87096335Y-122306044D01*
X87018314Y-122494402D01*
X86978540Y-122694361D01*
X77453779Y-122694361D01*
X77453779Y-116857180D01*
X81653461Y-121056863D01*
X81677259Y-121085861D01*
X81706257Y-121109659D01*
X81792983Y-121180834D01*
X81916723Y-121246975D01*
X81925013Y-121251406D01*
X82068274Y-121294863D01*
X82179927Y-121305860D01*
X82179936Y-121305860D01*
X82217259Y-121309536D01*
X82254582Y-121305860D01*
X84727148Y-121305860D01*
X84727148Y-121395860D01*
X84739408Y-121520342D01*
X84775718Y-121640040D01*
X84834683Y-121750354D01*
X84914035Y-121847045D01*
X85010726Y-121926397D01*
X85121040Y-121985362D01*
X85240738Y-122021672D01*
X85365220Y-122033932D01*
X87065220Y-122033932D01*
X87189702Y-122021672D01*
X87309400Y-121985362D01*
X87419714Y-121926397D01*
X87516405Y-121847045D01*
X87595757Y-121750354D01*
X87654722Y-121640040D01*
X87691032Y-121520342D01*
X87703292Y-121395860D01*
X87703292Y-119695860D01*
X87691032Y-119571378D01*
X87654722Y-119451680D01*
X87645566Y-119434551D01*
X87661040Y-119442822D01*
X87780738Y-119479132D01*
X87905220Y-119491392D01*
X89605220Y-119491392D01*
X89729702Y-119479132D01*
X89849400Y-119442822D01*
X89959714Y-119383857D01*
X90056405Y-119304505D01*
X90135757Y-119207814D01*
X90194722Y-119097500D01*
X90231032Y-118977802D01*
X90243292Y-118853320D01*
X90243292Y-117153320D01*
X90231032Y-117028838D01*
X90194722Y-116909140D01*
X90135757Y-116798826D01*
X90056405Y-116702135D01*
X89959714Y-116622783D01*
X89849400Y-116563818D01*
X89729702Y-116527508D01*
X89605220Y-116515248D01*
X87905220Y-116515248D01*
X87780738Y-116527508D01*
X87661040Y-116563818D01*
X87550726Y-116622783D01*
X87454035Y-116702135D01*
X87374683Y-116798826D01*
X87315718Y-116909140D01*
X87293116Y-116983649D01*
X87161852Y-116852385D01*
X86987460Y-116735860D01*
X87161852Y-116619335D01*
X87368695Y-116412492D01*
X87531210Y-116169271D01*
X87643152Y-115899018D01*
X87700220Y-115612120D01*
X87700220Y-115319600D01*
X87656430Y-115099452D01*
X88382304Y-114373578D01*
X88411301Y-114349781D01*
X88506274Y-114234056D01*
X88576846Y-114102027D01*
X88620303Y-113958766D01*
X88631300Y-113847113D01*
X88631300Y-113847105D01*
X88634976Y-113809780D01*
X88631300Y-113772455D01*
X88631300Y-113223988D01*
X88657403Y-113263054D01*
X88801566Y-113407217D01*
X88971084Y-113520485D01*
X89159442Y-113598506D01*
X89359401Y-113638280D01*
X89563279Y-113638280D01*
X89763238Y-113598506D01*
X89951596Y-113520485D01*
X90121114Y-113407217D01*
X90265277Y-113263054D01*
X90378545Y-113093536D01*
X90456566Y-112905178D01*
X90496340Y-112705219D01*
X90496340Y-112643082D01*
X90792762Y-112346659D01*
X90821761Y-112322861D01*
X90848092Y-112290777D01*
X90916734Y-112207137D01*
X90987306Y-112075107D01*
X90991952Y-112059792D01*
X91030763Y-111931846D01*
X91041760Y-111820193D01*
X91041760Y-111820184D01*
X91045436Y-111782861D01*
X91041760Y-111745538D01*
X91041760Y-111502422D01*
X91117035Y-111594145D01*
X91213726Y-111673497D01*
X91324040Y-111732462D01*
X91443738Y-111768772D01*
X91568220Y-111781032D01*
X92152470Y-111777960D01*
X92311220Y-111619210D01*
X92311220Y-110169960D01*
X92291220Y-110169960D01*
X92291220Y-109915960D01*
X92311220Y-109915960D01*
X92311220Y-109895960D01*
X92565220Y-109895960D01*
X92565220Y-109915960D01*
X92585220Y-109915960D01*
X92585220Y-110169960D01*
X92565220Y-110169960D01*
X92565220Y-111619210D01*
X92723970Y-111777960D01*
X93308220Y-111781032D01*
X93432702Y-111768772D01*
X93552400Y-111732462D01*
X93662714Y-111673497D01*
X93759405Y-111594145D01*
X93838757Y-111497454D01*
X93897722Y-111387140D01*
X93910835Y-111343913D01*
X94138042Y-111530377D01*
X94399496Y-111670126D01*
X94683189Y-111756184D01*
X94978220Y-111785242D01*
X95273252Y-111756184D01*
X95556945Y-111670126D01*
X95818399Y-111530377D01*
X96047565Y-111342305D01*
X96235637Y-111113139D01*
X96248220Y-111089598D01*
X96260803Y-111113139D01*
X96448875Y-111342305D01*
X96678042Y-111530377D01*
X96939496Y-111670126D01*
X97223189Y-111756184D01*
X97518220Y-111785242D01*
X97813252Y-111756184D01*
X98096945Y-111670126D01*
X98358399Y-111530377D01*
X98587565Y-111342305D01*
X98775637Y-111113139D01*
X98915386Y-110851684D01*
X99001444Y-110567991D01*
X99023220Y-110346895D01*
X99023220Y-109739024D01*
X99001444Y-109517928D01*
X98915386Y-109234235D01*
X98775637Y-108972781D01*
X98587565Y-108743615D01*
X98358398Y-108555543D01*
X98319478Y-108534740D01*
X99295680Y-108534740D01*
X99295681Y-110810808D01*
X99292004Y-110848140D01*
X99295681Y-110885473D01*
X99306678Y-110997126D01*
X99314424Y-111022661D01*
X99350134Y-111140386D01*
X99420706Y-111272416D01*
X99484539Y-111350196D01*
X99515680Y-111388141D01*
X99544678Y-111411939D01*
X101772801Y-113640063D01*
X101796599Y-113669061D01*
X101825597Y-113692859D01*
X101912323Y-113764034D01*
X102025229Y-113824384D01*
X102044353Y-113834606D01*
X102187614Y-113878063D01*
X102299267Y-113889060D01*
X102299277Y-113889060D01*
X102336600Y-113892736D01*
X102373922Y-113889060D01*
X104921762Y-113889060D01*
X105046465Y-114075692D01*
X105253308Y-114282535D01*
X105496529Y-114445050D01*
X105614150Y-114493770D01*
X100620052Y-114493770D01*
X100582729Y-114490094D01*
X100545406Y-114493770D01*
X100545397Y-114493770D01*
X100433744Y-114504767D01*
X100294670Y-114546954D01*
X100290483Y-114548224D01*
X100158453Y-114618796D01*
X100074813Y-114687438D01*
X100042729Y-114713769D01*
X100018931Y-114742767D01*
X99312108Y-115449590D01*
X99091960Y-115405800D01*
X98799440Y-115405800D01*
X98512542Y-115462868D01*
X98242289Y-115574810D01*
X97999068Y-115737325D01*
X97792225Y-115944168D01*
X97675700Y-116118560D01*
X97559175Y-115944168D01*
X97352332Y-115737325D01*
X97109111Y-115574810D01*
X96838858Y-115462868D01*
X96551960Y-115405800D01*
X96259440Y-115405800D01*
X95972542Y-115462868D01*
X95702289Y-115574810D01*
X95459068Y-115737325D01*
X95327213Y-115869180D01*
X95305202Y-115796620D01*
X95246237Y-115686306D01*
X95166885Y-115589615D01*
X95070194Y-115510263D01*
X94959880Y-115451298D01*
X94872720Y-115424858D01*
X94872720Y-114393285D01*
X94954925Y-114270256D01*
X95032946Y-114081898D01*
X95072720Y-113881939D01*
X95072720Y-113678061D01*
X95032946Y-113478102D01*
X94954925Y-113289744D01*
X94841657Y-113120226D01*
X94697494Y-112976063D01*
X94527976Y-112862795D01*
X94339618Y-112784774D01*
X94139659Y-112745000D01*
X93935781Y-112745000D01*
X93735822Y-112784774D01*
X93547464Y-112862795D01*
X93377946Y-112976063D01*
X93233783Y-113120226D01*
X93120515Y-113289744D01*
X93042494Y-113478102D01*
X93002720Y-113678061D01*
X93002720Y-113881939D01*
X93042494Y-114081898D01*
X93120515Y-114270256D01*
X93202720Y-114393285D01*
X93202721Y-115402728D01*
X93015700Y-115402728D01*
X92891218Y-115414988D01*
X92771520Y-115451298D01*
X92661206Y-115510263D01*
X92564515Y-115589615D01*
X92485163Y-115686306D01*
X92426198Y-115796620D01*
X92389888Y-115916318D01*
X92377628Y-116040800D01*
X92377628Y-117740800D01*
X92389888Y-117865282D01*
X92426198Y-117984980D01*
X92485163Y-118095294D01*
X92564515Y-118191985D01*
X92661206Y-118271337D01*
X92771520Y-118330302D01*
X92891218Y-118366612D01*
X92894689Y-118366954D01*
X92904550Y-121936624D01*
X92824035Y-122057124D01*
X92746014Y-122245482D01*
X92706240Y-122445441D01*
X92706240Y-122649319D01*
X92746014Y-122849278D01*
X92824035Y-123037636D01*
X92937303Y-123207154D01*
X93081466Y-123351317D01*
X93250984Y-123464585D01*
X93439342Y-123542606D01*
X93639301Y-123582380D01*
X93843179Y-123582380D01*
X94043138Y-123542606D01*
X94231496Y-123464585D01*
X94401014Y-123351317D01*
X94545177Y-123207154D01*
X94658445Y-123037636D01*
X94736466Y-122849278D01*
X94776240Y-122649319D01*
X94776240Y-122445441D01*
X94736466Y-122245482D01*
X94658445Y-122057124D01*
X94574542Y-121931554D01*
X94565792Y-118764000D01*
X112092748Y-118764000D01*
X112092748Y-124314000D01*
X112105008Y-124438482D01*
X112141318Y-124558180D01*
X112200283Y-124668494D01*
X112279635Y-124765185D01*
X112376326Y-124844537D01*
X112486640Y-124903502D01*
X112606338Y-124939812D01*
X112730820Y-124952072D01*
X119230820Y-124952072D01*
X119355302Y-124939812D01*
X119475000Y-124903502D01*
X119585314Y-124844537D01*
X119682005Y-124765185D01*
X119761357Y-124668494D01*
X119820322Y-124558180D01*
X119856632Y-124438482D01*
X119868892Y-124314000D01*
X119868892Y-122674000D01*
X120588487Y-122674000D01*
X120504635Y-122742815D01*
X120425283Y-122839506D01*
X120366318Y-122949820D01*
X120330008Y-123069518D01*
X120317748Y-123194000D01*
X120317748Y-124444000D01*
X120330008Y-124568482D01*
X120366318Y-124688180D01*
X120425283Y-124798494D01*
X120504635Y-124895185D01*
X120601326Y-124974537D01*
X120711640Y-125033502D01*
X120831338Y-125069812D01*
X120955820Y-125082072D01*
X120961880Y-125082072D01*
X120132953Y-125911000D01*
X113876965Y-125911000D01*
X113753936Y-125828795D01*
X113565578Y-125750774D01*
X113365619Y-125711000D01*
X113161741Y-125711000D01*
X112961782Y-125750774D01*
X112773424Y-125828795D01*
X112603906Y-125942063D01*
X112459743Y-126086226D01*
X112346475Y-126255744D01*
X112268454Y-126444102D01*
X112228680Y-126644061D01*
X112228680Y-126847939D01*
X112268454Y-127047898D01*
X112346475Y-127236256D01*
X112459743Y-127405774D01*
X112603906Y-127549937D01*
X112773424Y-127663205D01*
X112961782Y-127741226D01*
X113161741Y-127781000D01*
X113365619Y-127781000D01*
X113565578Y-127741226D01*
X113753936Y-127663205D01*
X113876965Y-127581000D01*
X120437802Y-127581000D01*
X120478820Y-127585040D01*
X120519838Y-127581000D01*
X120519839Y-127581000D01*
X120642509Y-127568918D01*
X120799907Y-127521172D01*
X120944966Y-127443636D01*
X121072111Y-127339291D01*
X121098266Y-127307421D01*
X122942248Y-125463440D01*
X122974111Y-125437291D01*
X123078456Y-125310146D01*
X123155992Y-125165087D01*
X123181174Y-125082072D01*
X123805820Y-125082072D01*
X123930302Y-125069812D01*
X124050000Y-125033502D01*
X124160314Y-124974537D01*
X124257005Y-124895185D01*
X124336357Y-124798494D01*
X124395322Y-124688180D01*
X124431632Y-124568482D01*
X124443892Y-124444000D01*
X124443892Y-123194000D01*
X124431632Y-123069518D01*
X124395322Y-122949820D01*
X124336357Y-122839506D01*
X124257005Y-122742815D01*
X124173153Y-122674000D01*
X128341249Y-122674000D01*
X128397000Y-122679491D01*
X128452751Y-122674000D01*
X140118869Y-122674000D01*
X143391000Y-125946132D01*
X143391001Y-138467867D01*
X142525759Y-139333109D01*
X142482451Y-139368651D01*
X142446911Y-139411957D01*
X142407288Y-139451580D01*
X142376159Y-139498168D01*
X142340616Y-139541477D01*
X142314207Y-139590886D01*
X142283076Y-139637476D01*
X142261631Y-139689249D01*
X142235224Y-139738653D01*
X142218963Y-139792258D01*
X142197517Y-139844033D01*
X142186585Y-139898994D01*
X142170323Y-139952601D01*
X142164832Y-140008353D01*
X142153900Y-140063312D01*
X142153900Y-140119348D01*
X142148409Y-140175100D01*
X142153900Y-140230852D01*
X142153900Y-140286888D01*
X142164832Y-140341847D01*
X142170323Y-140397599D01*
X142186585Y-140451206D01*
X142197517Y-140506167D01*
X142218963Y-140557942D01*
X142235224Y-140611547D01*
X142261631Y-140660951D01*
X142283076Y-140712724D01*
X142314207Y-140759314D01*
X142340616Y-140808723D01*
X142376159Y-140852032D01*
X142407288Y-140898620D01*
X142446909Y-140938241D01*
X142482451Y-140981549D01*
X142525759Y-141017091D01*
X142565380Y-141056712D01*
X142611968Y-141087841D01*
X142655277Y-141123384D01*
X142704686Y-141149793D01*
X142751276Y-141180924D01*
X142803049Y-141202369D01*
X142852453Y-141228776D01*
X142906058Y-141245037D01*
X142957833Y-141266483D01*
X143012794Y-141277415D01*
X143066401Y-141293677D01*
X143122153Y-141299168D01*
X143177112Y-141310100D01*
X143233149Y-141310100D01*
X143288900Y-141315591D01*
X143344651Y-141310100D01*
X143400688Y-141310100D01*
X143455647Y-141299168D01*
X143511399Y-141293677D01*
X143565006Y-141277415D01*
X143619967Y-141266483D01*
X143671742Y-141245037D01*
X143725347Y-141228776D01*
X143774751Y-141202369D01*
X143826524Y-141180924D01*
X143873114Y-141149793D01*
X143922523Y-141123384D01*
X143965832Y-141087841D01*
X144012420Y-141056712D01*
X144052041Y-141017091D01*
X144095349Y-140981549D01*
X144130891Y-140938241D01*
X144170514Y-140898618D01*
X145289146Y-139779987D01*
X145332449Y-139744449D01*
X145368928Y-139700000D01*
X145474284Y-139571623D01*
X145579676Y-139374447D01*
X145644577Y-139160499D01*
X145652139Y-139083717D01*
X145661000Y-138993752D01*
X145666491Y-138938000D01*
X145661000Y-138882248D01*
X145661000Y-125531752D01*
X145666491Y-125476000D01*
X145644577Y-125253501D01*
X145579676Y-125039553D01*
X145474284Y-124842377D01*
X145410934Y-124765185D01*
X145332449Y-124669551D01*
X145289141Y-124634009D01*
X141430996Y-120775865D01*
X141395449Y-120732551D01*
X141222623Y-120590716D01*
X141025447Y-120485324D01*
X140811499Y-120420423D01*
X140644752Y-120404000D01*
X140644751Y-120404000D01*
X140589000Y-120398509D01*
X140533249Y-120404000D01*
X131137131Y-120404000D01*
X135401801Y-116139331D01*
X135445109Y-116103789D01*
X135586944Y-115930963D01*
X135692336Y-115733787D01*
X135749681Y-115544747D01*
X135757237Y-115519840D01*
X135762848Y-115462868D01*
X135773660Y-115353092D01*
X135773660Y-115353085D01*
X135779150Y-115297341D01*
X135773660Y-115241597D01*
X135773660Y-114231816D01*
X136112474Y-114005428D01*
X136434508Y-113683394D01*
X136687528Y-113304723D01*
X136779067Y-113083727D01*
X136910339Y-113400643D01*
X137185520Y-113812481D01*
X137535759Y-114162720D01*
X137947597Y-114437901D01*
X138405207Y-114627450D01*
X138891003Y-114724080D01*
X139386317Y-114724080D01*
X139872113Y-114627450D01*
X140329723Y-114437901D01*
X140741561Y-114162720D01*
X141091800Y-113812481D01*
X141366981Y-113400643D01*
X141556530Y-112943033D01*
X141653160Y-112457237D01*
X141653160Y-111961923D01*
X141556530Y-111476127D01*
X141366981Y-111018517D01*
X141091800Y-110606679D01*
X140741561Y-110256440D01*
X140329723Y-109981259D01*
X139872113Y-109791710D01*
X139386317Y-109695080D01*
X138891003Y-109695080D01*
X138405207Y-109791710D01*
X137947597Y-109981259D01*
X137535759Y-110256440D01*
X137185520Y-110606679D01*
X136910339Y-111018517D01*
X136779067Y-111335433D01*
X136687528Y-111114437D01*
X136434508Y-110735766D01*
X136112474Y-110413732D01*
X135733803Y-110160712D01*
X135313046Y-109986429D01*
X134866372Y-109897580D01*
X134410948Y-109897580D01*
X133964274Y-109986429D01*
X133543517Y-110160712D01*
X133164846Y-110413732D01*
X132842812Y-110735766D01*
X132589792Y-111114437D01*
X132415509Y-111535194D01*
X132326660Y-111981868D01*
X132326660Y-112437292D01*
X132415509Y-112883966D01*
X132589792Y-113304723D01*
X132842812Y-113683394D01*
X133164846Y-114005428D01*
X133503660Y-114231817D01*
X133503660Y-114827208D01*
X127926869Y-120404000D01*
X124173153Y-120404000D01*
X124257005Y-120335185D01*
X124336357Y-120238494D01*
X124395322Y-120128180D01*
X124431632Y-120008482D01*
X124443892Y-119884000D01*
X124440820Y-119544750D01*
X124282070Y-119386000D01*
X122507820Y-119386000D01*
X122507820Y-119406000D01*
X122253820Y-119406000D01*
X122253820Y-119386000D01*
X120479570Y-119386000D01*
X120320820Y-119544750D01*
X120317748Y-119884000D01*
X120330008Y-120008482D01*
X120366318Y-120128180D01*
X120425283Y-120238494D01*
X120504635Y-120335185D01*
X120588487Y-120404000D01*
X119868892Y-120404000D01*
X119868892Y-118764000D01*
X119856632Y-118639518D01*
X119854959Y-118634000D01*
X120317748Y-118634000D01*
X120320820Y-118973250D01*
X120479570Y-119132000D01*
X122253820Y-119132000D01*
X122253820Y-118157750D01*
X122507820Y-118157750D01*
X122507820Y-119132000D01*
X124282070Y-119132000D01*
X124440820Y-118973250D01*
X124443892Y-118634000D01*
X124431632Y-118509518D01*
X124395322Y-118389820D01*
X124336357Y-118279506D01*
X124257005Y-118182815D01*
X124160314Y-118103463D01*
X124050000Y-118044498D01*
X123930302Y-118008188D01*
X123805820Y-117995928D01*
X122666570Y-117999000D01*
X122507820Y-118157750D01*
X122253820Y-118157750D01*
X122095070Y-117999000D01*
X120955820Y-117995928D01*
X120831338Y-118008188D01*
X120711640Y-118044498D01*
X120601326Y-118103463D01*
X120504635Y-118182815D01*
X120425283Y-118279506D01*
X120366318Y-118389820D01*
X120330008Y-118509518D01*
X120317748Y-118634000D01*
X119854959Y-118634000D01*
X119820322Y-118519820D01*
X119761357Y-118409506D01*
X119682005Y-118312815D01*
X119585314Y-118233463D01*
X119475000Y-118174498D01*
X119355302Y-118138188D01*
X119230820Y-118125928D01*
X112730820Y-118125928D01*
X112606338Y-118138188D01*
X112486640Y-118174498D01*
X112376326Y-118233463D01*
X112279635Y-118312815D01*
X112200283Y-118409506D01*
X112141318Y-118519820D01*
X112105008Y-118639518D01*
X112092748Y-118764000D01*
X94565792Y-118764000D01*
X94564728Y-118378872D01*
X94715700Y-118378872D01*
X94840182Y-118366612D01*
X94959880Y-118330302D01*
X95070194Y-118271337D01*
X95166885Y-118191985D01*
X95246237Y-118095294D01*
X95305202Y-117984980D01*
X95327213Y-117912420D01*
X95459068Y-118044275D01*
X95702289Y-118206790D01*
X95972542Y-118318732D01*
X96259440Y-118375800D01*
X96551960Y-118375800D01*
X96838858Y-118318732D01*
X97109111Y-118206790D01*
X97352332Y-118044275D01*
X97559175Y-117837432D01*
X97675700Y-117663040D01*
X97792225Y-117837432D01*
X97999068Y-118044275D01*
X98242289Y-118206790D01*
X98512542Y-118318732D01*
X98799440Y-118375800D01*
X99091960Y-118375800D01*
X99378858Y-118318732D01*
X99649111Y-118206790D01*
X99892332Y-118044275D01*
X100099175Y-117837432D01*
X100220895Y-117655266D01*
X100290522Y-117772155D01*
X100485431Y-117988388D01*
X100718780Y-118162441D01*
X100981601Y-118287625D01*
X101128810Y-118332276D01*
X101358700Y-118210955D01*
X101358700Y-117017800D01*
X101612700Y-117017800D01*
X101612700Y-118210955D01*
X101842590Y-118332276D01*
X101989799Y-118287625D01*
X102252620Y-118162441D01*
X102485969Y-117988388D01*
X102680878Y-117772155D01*
X102829857Y-117522052D01*
X102927181Y-117247691D01*
X102806514Y-117017800D01*
X101612700Y-117017800D01*
X101358700Y-117017800D01*
X101338700Y-117017800D01*
X101338700Y-116763800D01*
X101358700Y-116763800D01*
X101358700Y-116743800D01*
X101612700Y-116743800D01*
X101612700Y-116763800D01*
X102806514Y-116763800D01*
X102927181Y-116533909D01*
X102829857Y-116259548D01*
X102683454Y-116013770D01*
X107494848Y-116013770D01*
X107532170Y-116017446D01*
X107569492Y-116013770D01*
X107569503Y-116013770D01*
X107681156Y-116002773D01*
X107824417Y-115959316D01*
X107956446Y-115888744D01*
X108072171Y-115793771D01*
X108072743Y-115793073D01*
X108073441Y-115792501D01*
X108168414Y-115676776D01*
X108238986Y-115544747D01*
X108282443Y-115401486D01*
X108293440Y-115289833D01*
X108293440Y-115289823D01*
X108297116Y-115252501D01*
X108293440Y-115215178D01*
X108293440Y-112074592D01*
X109248620Y-112074592D01*
X109248619Y-115256701D01*
X109118364Y-115310655D01*
X108948846Y-115423923D01*
X108804683Y-115568086D01*
X108691415Y-115737604D01*
X108613394Y-115925962D01*
X108573620Y-116125921D01*
X108573620Y-116329799D01*
X108613394Y-116529758D01*
X108691415Y-116718116D01*
X108804683Y-116887634D01*
X108948846Y-117031797D01*
X109118364Y-117145065D01*
X109306722Y-117223086D01*
X109506681Y-117262860D01*
X109710559Y-117262860D01*
X109910518Y-117223086D01*
X110098876Y-117145065D01*
X110268394Y-117031797D01*
X110412557Y-116887634D01*
X110525825Y-116718116D01*
X110603846Y-116529758D01*
X110643620Y-116329799D01*
X110643620Y-116252086D01*
X110696969Y-116152278D01*
X110789381Y-116170660D01*
X110993259Y-116170660D01*
X111193218Y-116130886D01*
X111381576Y-116052865D01*
X111551094Y-115939597D01*
X111695257Y-115795434D01*
X111808525Y-115625916D01*
X111886546Y-115437558D01*
X111926320Y-115237599D01*
X111926320Y-115050419D01*
X114923818Y-111248462D01*
X115069881Y-111247852D01*
X115110886Y-111288857D01*
X115280404Y-111402125D01*
X115468762Y-111480146D01*
X115473309Y-111481051D01*
X115376924Y-111520975D01*
X115207406Y-111634243D01*
X115063243Y-111778406D01*
X114949975Y-111947924D01*
X114871954Y-112136282D01*
X114832180Y-112336241D01*
X114832180Y-112540119D01*
X114871954Y-112740078D01*
X114949975Y-112928436D01*
X115063243Y-113097954D01*
X115207406Y-113242117D01*
X115376924Y-113355385D01*
X115565282Y-113433406D01*
X115765241Y-113473180D01*
X115904169Y-113473180D01*
X118072188Y-115340921D01*
X118077999Y-115348001D01*
X118128822Y-115389710D01*
X118150239Y-115408161D01*
X118157688Y-115413400D01*
X118193724Y-115442974D01*
X118218778Y-115456366D01*
X118242008Y-115472704D01*
X118284628Y-115491564D01*
X118325753Y-115513546D01*
X118352940Y-115521793D01*
X118378910Y-115533285D01*
X118424396Y-115543469D01*
X118469014Y-115557003D01*
X118497288Y-115559788D01*
X118525000Y-115565992D01*
X118571592Y-115567106D01*
X118580667Y-115568000D01*
X118608969Y-115568000D01*
X118674664Y-115569571D01*
X118683684Y-115568000D01*
X120454289Y-115568000D01*
X120498226Y-115611937D01*
X120667744Y-115725205D01*
X120856102Y-115803226D01*
X121056061Y-115843000D01*
X121259939Y-115843000D01*
X121459898Y-115803226D01*
X121648256Y-115725205D01*
X121817774Y-115611937D01*
X121961937Y-115467774D01*
X122075205Y-115298256D01*
X122153226Y-115109898D01*
X122193000Y-114909939D01*
X122193000Y-114706061D01*
X122153226Y-114506102D01*
X122075205Y-114317744D01*
X121961937Y-114148226D01*
X121817774Y-114004063D01*
X121648256Y-113890795D01*
X121459898Y-113812774D01*
X121259939Y-113773000D01*
X121056061Y-113773000D01*
X120856102Y-113812774D01*
X120667744Y-113890795D01*
X120498226Y-114004063D01*
X120454289Y-114048000D01*
X118900224Y-114048000D01*
X116899888Y-112324719D01*
X116862406Y-112136282D01*
X116784385Y-111947924D01*
X116671117Y-111778406D01*
X116526954Y-111634243D01*
X116357436Y-111520975D01*
X116169078Y-111442954D01*
X116164531Y-111442049D01*
X116260916Y-111402125D01*
X116430434Y-111288857D01*
X116574597Y-111144694D01*
X116687865Y-110975176D01*
X116765886Y-110786818D01*
X116805660Y-110586859D01*
X116805660Y-110382981D01*
X116765886Y-110183022D01*
X116687865Y-109994664D01*
X116574597Y-109825146D01*
X116430434Y-109680983D01*
X116260916Y-109567715D01*
X116072558Y-109489694D01*
X115872599Y-109449920D01*
X115668721Y-109449920D01*
X115468762Y-109489694D01*
X115280404Y-109567715D01*
X115110886Y-109680983D01*
X115064005Y-109727864D01*
X114619764Y-109729719D01*
X114613951Y-109728681D01*
X114545044Y-109730031D01*
X114513495Y-109730163D01*
X114507642Y-109730764D01*
X114464273Y-109731614D01*
X114433373Y-109738392D01*
X114401888Y-109741626D01*
X114360411Y-109754397D01*
X114318043Y-109763691D01*
X114289058Y-109776367D01*
X114258810Y-109785681D01*
X114220638Y-109806290D01*
X114180880Y-109823678D01*
X114154908Y-109841778D01*
X114127077Y-109856804D01*
X114093666Y-109884458D01*
X114058057Y-109909274D01*
X114036118Y-109932090D01*
X114011750Y-109952259D01*
X113984375Y-109985901D01*
X113980293Y-109990146D01*
X113960742Y-110014944D01*
X113917261Y-110068379D01*
X113914500Y-110073596D01*
X110768619Y-114063762D01*
X110768619Y-109607519D01*
X110772295Y-109570196D01*
X110768619Y-109532873D01*
X110768619Y-109532864D01*
X110757622Y-109421211D01*
X110714165Y-109277950D01*
X110643593Y-109145921D01*
X110548620Y-109030196D01*
X110519622Y-109006398D01*
X108982706Y-107469483D01*
X108958903Y-107440479D01*
X108843178Y-107345506D01*
X108711149Y-107274934D01*
X108567888Y-107231477D01*
X108456235Y-107220480D01*
X108456224Y-107220480D01*
X108418902Y-107216804D01*
X108381580Y-107220480D01*
X107688012Y-107220480D01*
X107688012Y-107199060D01*
X107675752Y-107074578D01*
X107639442Y-106954880D01*
X107580477Y-106844566D01*
X107501125Y-106747875D01*
X107404434Y-106668523D01*
X107294120Y-106609558D01*
X107174422Y-106573248D01*
X107049940Y-106560988D01*
X105349940Y-106560988D01*
X105225458Y-106573248D01*
X105105760Y-106609558D01*
X104995446Y-106668523D01*
X104898755Y-106747875D01*
X104819403Y-106844566D01*
X104760438Y-106954880D01*
X104724128Y-107074578D01*
X104711868Y-107199060D01*
X104711868Y-107771188D01*
X101480544Y-104539865D01*
X101456741Y-104510861D01*
X101341016Y-104415888D01*
X101336618Y-104413537D01*
X101432191Y-104373950D01*
X101675412Y-104211435D01*
X101882255Y-104004592D01*
X101998780Y-103830200D01*
X102115305Y-104004592D01*
X102322148Y-104211435D01*
X102565369Y-104373950D01*
X102835622Y-104485892D01*
X103122520Y-104542960D01*
X103415040Y-104542960D01*
X103701938Y-104485892D01*
X103972191Y-104373950D01*
X104215412Y-104211435D01*
X104422255Y-104004592D01*
X104538780Y-103830200D01*
X104655305Y-104004592D01*
X104862148Y-104211435D01*
X105105369Y-104373950D01*
X105375622Y-104485892D01*
X105662520Y-104542960D01*
X105955040Y-104542960D01*
X106241938Y-104485892D01*
X106512191Y-104373950D01*
X106755412Y-104211435D01*
X106962255Y-104004592D01*
X107078780Y-103830200D01*
X107195305Y-104004592D01*
X107402148Y-104211435D01*
X107645369Y-104373950D01*
X107915622Y-104485892D01*
X108202520Y-104542960D01*
X108495040Y-104542960D01*
X108781938Y-104485892D01*
X109052191Y-104373950D01*
X109295412Y-104211435D01*
X109502255Y-104004592D01*
X109618780Y-103830200D01*
X109735305Y-104004592D01*
X109942148Y-104211435D01*
X110185369Y-104373950D01*
X110455622Y-104485892D01*
X110742520Y-104542960D01*
X111035040Y-104542960D01*
X111321938Y-104485892D01*
X111592191Y-104373950D01*
X111835412Y-104211435D01*
X112042255Y-104004592D01*
X112158780Y-103830200D01*
X112275305Y-104004592D01*
X112482148Y-104211435D01*
X112725369Y-104373950D01*
X112995622Y-104485892D01*
X113282520Y-104542960D01*
X113575040Y-104542960D01*
X113861938Y-104485892D01*
X114132191Y-104373950D01*
X114375412Y-104211435D01*
X114582255Y-104004592D01*
X114698780Y-103830200D01*
X114815305Y-104004592D01*
X115022148Y-104211435D01*
X115265369Y-104373950D01*
X115535622Y-104485892D01*
X115822520Y-104542960D01*
X116115040Y-104542960D01*
X116401938Y-104485892D01*
X116672191Y-104373950D01*
X116915412Y-104211435D01*
X117122255Y-104004592D01*
X117238780Y-103830200D01*
X117355305Y-104004592D01*
X117562148Y-104211435D01*
X117805369Y-104373950D01*
X118075622Y-104485892D01*
X118362520Y-104542960D01*
X118655040Y-104542960D01*
X118941938Y-104485892D01*
X119212191Y-104373950D01*
X119455412Y-104211435D01*
X119662255Y-104004592D01*
X119824770Y-103761371D01*
X119936712Y-103491118D01*
X119993780Y-103204220D01*
X119993780Y-102911700D01*
X119936712Y-102624802D01*
X119824770Y-102354549D01*
X119662255Y-102111328D01*
X119455412Y-101904485D01*
X119281020Y-101787960D01*
X119455412Y-101671435D01*
X119519152Y-101607695D01*
X121408200Y-101607695D01*
X121408200Y-101998705D01*
X121484482Y-102382203D01*
X121634115Y-102743450D01*
X121851349Y-103068564D01*
X122127836Y-103345051D01*
X122452950Y-103562285D01*
X122814197Y-103711918D01*
X123197695Y-103788200D01*
X123588705Y-103788200D01*
X123972203Y-103711918D01*
X124333450Y-103562285D01*
X124658564Y-103345051D01*
X124935051Y-103068564D01*
X125152285Y-102743450D01*
X125301918Y-102382203D01*
X125378200Y-101998705D01*
X125378200Y-101607695D01*
X125301918Y-101224197D01*
X125152285Y-100862950D01*
X124935051Y-100537836D01*
X124658564Y-100261349D01*
X124333450Y-100044115D01*
X123972203Y-99894482D01*
X123588705Y-99818200D01*
X123197695Y-99818200D01*
X122814197Y-99894482D01*
X122452950Y-100044115D01*
X122127836Y-100261349D01*
X121851349Y-100537836D01*
X121634115Y-100862950D01*
X121484482Y-101224197D01*
X121408200Y-101607695D01*
X119519152Y-101607695D01*
X119662255Y-101464592D01*
X119824770Y-101221371D01*
X119936712Y-100951118D01*
X119993780Y-100664220D01*
X119993780Y-100371700D01*
X119936712Y-100084802D01*
X119824770Y-99814549D01*
X119662255Y-99571328D01*
X119455412Y-99364485D01*
X119212191Y-99201970D01*
X118941938Y-99090028D01*
X118655040Y-99032960D01*
X118362520Y-99032960D01*
X118075622Y-99090028D01*
X117805369Y-99201970D01*
X117562148Y-99364485D01*
X117355305Y-99571328D01*
X117238780Y-99745720D01*
X117122255Y-99571328D01*
X116915412Y-99364485D01*
X116672191Y-99201970D01*
X116401938Y-99090028D01*
X116115040Y-99032960D01*
X115822520Y-99032960D01*
X115535622Y-99090028D01*
X115265369Y-99201970D01*
X115022148Y-99364485D01*
X114815305Y-99571328D01*
X114698780Y-99745720D01*
X114582255Y-99571328D01*
X114375412Y-99364485D01*
X114132191Y-99201970D01*
X113861938Y-99090028D01*
X113575040Y-99032960D01*
X113282520Y-99032960D01*
X112995622Y-99090028D01*
X112725369Y-99201970D01*
X112482148Y-99364485D01*
X112275305Y-99571328D01*
X112158780Y-99745720D01*
X112042255Y-99571328D01*
X111835412Y-99364485D01*
X111592191Y-99201970D01*
X111321938Y-99090028D01*
X111035040Y-99032960D01*
X110742520Y-99032960D01*
X110455622Y-99090028D01*
X110185369Y-99201970D01*
X109942148Y-99364485D01*
X109735305Y-99571328D01*
X109618780Y-99745720D01*
X109502255Y-99571328D01*
X109295412Y-99364485D01*
X109052191Y-99201970D01*
X108781938Y-99090028D01*
X108495040Y-99032960D01*
X108202520Y-99032960D01*
X107915622Y-99090028D01*
X107645369Y-99201970D01*
X107402148Y-99364485D01*
X107195305Y-99571328D01*
X107078780Y-99745720D01*
X106962255Y-99571328D01*
X106755412Y-99364485D01*
X106512191Y-99201970D01*
X106241938Y-99090028D01*
X105955040Y-99032960D01*
X105662520Y-99032960D01*
X105375622Y-99090028D01*
X105105369Y-99201970D01*
X104862148Y-99364485D01*
X104655305Y-99571328D01*
X104538780Y-99745720D01*
X104422255Y-99571328D01*
X104215412Y-99364485D01*
X103972191Y-99201970D01*
X103701938Y-99090028D01*
X103415040Y-99032960D01*
X103122520Y-99032960D01*
X102835622Y-99090028D01*
X102565369Y-99201970D01*
X102322148Y-99364485D01*
X102115305Y-99571328D01*
X101998780Y-99745720D01*
X101882255Y-99571328D01*
X101675412Y-99364485D01*
X101432191Y-99201970D01*
X101161938Y-99090028D01*
X100875040Y-99032960D01*
X100582520Y-99032960D01*
X100295622Y-99090028D01*
X100025369Y-99201970D01*
X99782148Y-99364485D01*
X99575305Y-99571328D01*
X99458780Y-99745720D01*
X99342255Y-99571328D01*
X99135412Y-99364485D01*
X98892191Y-99201970D01*
X98621938Y-99090028D01*
X98335040Y-99032960D01*
X98042520Y-99032960D01*
X97755622Y-99090028D01*
X97485369Y-99201970D01*
X97242148Y-99364485D01*
X97035305Y-99571328D01*
X96918780Y-99745720D01*
X96802255Y-99571328D01*
X96595412Y-99364485D01*
X96352191Y-99201970D01*
X96081938Y-99090028D01*
X95795040Y-99032960D01*
X95502520Y-99032960D01*
X95215622Y-99090028D01*
X94945369Y-99201970D01*
X94702148Y-99364485D01*
X94495305Y-99571328D01*
X94378780Y-99745720D01*
X94262255Y-99571328D01*
X94055412Y-99364485D01*
X93812191Y-99201970D01*
X93541938Y-99090028D01*
X93255040Y-99032960D01*
X92962520Y-99032960D01*
X92675622Y-99090028D01*
X92405369Y-99201970D01*
X92162148Y-99364485D01*
X91955305Y-99571328D01*
X91838780Y-99745720D01*
X91722255Y-99571328D01*
X91515412Y-99364485D01*
X91272191Y-99201970D01*
X91001938Y-99090028D01*
X90715040Y-99032960D01*
X90422520Y-99032960D01*
X90135622Y-99090028D01*
X89865369Y-99201970D01*
X89622148Y-99364485D01*
X89415305Y-99571328D01*
X89298780Y-99745720D01*
X89182255Y-99571328D01*
X88975412Y-99364485D01*
X88732191Y-99201970D01*
X88461938Y-99090028D01*
X88175040Y-99032960D01*
X87882520Y-99032960D01*
X87595622Y-99090028D01*
X87325369Y-99201970D01*
X87082148Y-99364485D01*
X86875305Y-99571328D01*
X86758780Y-99745720D01*
X86642255Y-99571328D01*
X86435412Y-99364485D01*
X86192191Y-99201970D01*
X85921938Y-99090028D01*
X85635040Y-99032960D01*
X85342520Y-99032960D01*
X85055622Y-99090028D01*
X84785369Y-99201970D01*
X84542148Y-99364485D01*
X84335305Y-99571328D01*
X84218780Y-99745720D01*
X84102255Y-99571328D01*
X83895412Y-99364485D01*
X83652191Y-99201970D01*
X83381938Y-99090028D01*
X83095040Y-99032960D01*
X82802520Y-99032960D01*
X82515622Y-99090028D01*
X82389908Y-99142100D01*
X82313780Y-99049338D01*
X82284777Y-99025536D01*
X82284241Y-99025000D01*
X143844055Y-99025000D01*
X144319255Y-99071593D01*
X144741781Y-99199161D01*
X145131481Y-99406368D01*
X145473511Y-99685320D01*
X145754848Y-100025398D01*
X145964770Y-100413639D01*
X146095285Y-100835268D01*
X146145001Y-101308272D01*
X146145000Y-151254046D01*
X146098406Y-151729256D01*
X145970837Y-152151782D01*
X145763631Y-152541480D01*
X145484676Y-152883514D01*
X145144604Y-153164847D01*
X144756356Y-153374772D01*
X144334736Y-153505284D01*
X143861737Y-153555000D01*
X64915943Y-153555000D01*
X64440744Y-153508407D01*
X64018216Y-153380838D01*
X63628519Y-153173632D01*
X63286486Y-152894677D01*
X63005153Y-152554604D01*
X62795228Y-152166356D01*
X62664715Y-151744740D01*
X62615000Y-151271730D01*
X62615000Y-150604295D01*
X63394600Y-150604295D01*
X63394600Y-150995305D01*
X63470882Y-151378803D01*
X63620515Y-151740050D01*
X63837749Y-152065164D01*
X64114236Y-152341651D01*
X64439350Y-152558885D01*
X64800597Y-152708518D01*
X65184095Y-152784800D01*
X65575105Y-152784800D01*
X65958603Y-152708518D01*
X66319850Y-152558885D01*
X66558849Y-152399191D01*
X69786519Y-152399191D01*
X69883843Y-152673552D01*
X70032822Y-152923655D01*
X70227731Y-153139888D01*
X70461080Y-153313941D01*
X70723901Y-153439125D01*
X70871110Y-153483776D01*
X71101000Y-153362455D01*
X71101000Y-152169300D01*
X69907186Y-152169300D01*
X69786519Y-152399191D01*
X66558849Y-152399191D01*
X66644964Y-152341651D01*
X66921451Y-152065164D01*
X67138685Y-151740050D01*
X67288318Y-151378803D01*
X67364600Y-150995305D01*
X67364600Y-150604295D01*
X67288318Y-150220797D01*
X67138685Y-149859550D01*
X66921451Y-149534436D01*
X66644964Y-149257949D01*
X66319850Y-149040715D01*
X65958603Y-148891082D01*
X65575105Y-148814800D01*
X65184095Y-148814800D01*
X64800597Y-148891082D01*
X64439350Y-149040715D01*
X64114236Y-149257949D01*
X63837749Y-149534436D01*
X63620515Y-149859550D01*
X63470882Y-150220797D01*
X63394600Y-150604295D01*
X62615000Y-150604295D01*
X62615000Y-142813800D01*
X66773328Y-142813800D01*
X66773328Y-144563800D01*
X66802401Y-144858986D01*
X66888504Y-145142828D01*
X67028327Y-145404418D01*
X67216497Y-145633703D01*
X67445782Y-145821873D01*
X67707372Y-145961696D01*
X67991214Y-146047799D01*
X68286400Y-146076872D01*
X70036400Y-146076872D01*
X70331586Y-146047799D01*
X70615428Y-145961696D01*
X70877018Y-145821873D01*
X71106303Y-145633703D01*
X71294473Y-145404418D01*
X71434296Y-145142828D01*
X71520399Y-144858986D01*
X71549472Y-144563800D01*
X71549472Y-142813800D01*
X71520399Y-142518614D01*
X71434296Y-142234772D01*
X71308228Y-141998916D01*
X71354952Y-142055849D01*
X71398260Y-142091391D01*
X74723001Y-145416133D01*
X74723002Y-148370948D01*
X74534920Y-148230659D01*
X74272099Y-148105475D01*
X74124890Y-148060824D01*
X73895000Y-148182145D01*
X73895000Y-149375300D01*
X73915000Y-149375300D01*
X73915000Y-149629300D01*
X73895000Y-149629300D01*
X73895000Y-149649300D01*
X73641000Y-149649300D01*
X73641000Y-149629300D01*
X73621000Y-149629300D01*
X73621000Y-149375300D01*
X73641000Y-149375300D01*
X73641000Y-148182145D01*
X73411110Y-148060824D01*
X73263901Y-148105475D01*
X73001080Y-148230659D01*
X72767731Y-148404712D01*
X72691966Y-148488766D01*
X72667502Y-148408120D01*
X72608537Y-148297806D01*
X72529185Y-148201115D01*
X72432494Y-148121763D01*
X72322180Y-148062798D01*
X72202482Y-148026488D01*
X72078000Y-148014228D01*
X70378000Y-148014228D01*
X70253518Y-148026488D01*
X70133820Y-148062798D01*
X70023506Y-148121763D01*
X69926815Y-148201115D01*
X69847463Y-148297806D01*
X69788498Y-148408120D01*
X69752188Y-148527818D01*
X69739928Y-148652300D01*
X69739928Y-150352300D01*
X69752188Y-150476782D01*
X69788498Y-150596480D01*
X69847463Y-150706794D01*
X69926815Y-150803485D01*
X70023506Y-150882837D01*
X70133820Y-150941802D01*
X70209626Y-150964798D01*
X70032822Y-151160945D01*
X69883843Y-151411048D01*
X69786519Y-151685409D01*
X69907186Y-151915300D01*
X71101000Y-151915300D01*
X71101000Y-151895300D01*
X71355000Y-151895300D01*
X71355000Y-151915300D01*
X71375000Y-151915300D01*
X71375000Y-152169300D01*
X71355000Y-152169300D01*
X71355000Y-153362455D01*
X71584890Y-153483776D01*
X71732099Y-153439125D01*
X71994920Y-153313941D01*
X72228269Y-153139888D01*
X72423178Y-152923655D01*
X72492805Y-152806766D01*
X72614525Y-152988932D01*
X72821368Y-153195775D01*
X73064589Y-153358290D01*
X73334842Y-153470232D01*
X73621740Y-153527300D01*
X73914260Y-153527300D01*
X74201158Y-153470232D01*
X74471411Y-153358290D01*
X74714632Y-153195775D01*
X74921475Y-152988932D01*
X75043195Y-152806766D01*
X75112822Y-152923655D01*
X75307731Y-153139888D01*
X75541080Y-153313941D01*
X75803901Y-153439125D01*
X75951110Y-153483776D01*
X76181000Y-153362455D01*
X76181000Y-152169300D01*
X76161000Y-152169300D01*
X76161000Y-151915300D01*
X76181000Y-151915300D01*
X76181000Y-151895300D01*
X76435000Y-151895300D01*
X76435000Y-151915300D01*
X76455000Y-151915300D01*
X76455000Y-152169300D01*
X76435000Y-152169300D01*
X76435000Y-153362455D01*
X76664890Y-153483776D01*
X76812099Y-153439125D01*
X77074920Y-153313941D01*
X77308269Y-153139888D01*
X77503178Y-152923655D01*
X77572805Y-152806766D01*
X77694525Y-152988932D01*
X77901368Y-153195775D01*
X78144589Y-153358290D01*
X78414842Y-153470232D01*
X78701740Y-153527300D01*
X78994260Y-153527300D01*
X79281158Y-153470232D01*
X79551411Y-153358290D01*
X79794632Y-153195775D01*
X80001475Y-152988932D01*
X80163990Y-152745711D01*
X80275932Y-152475458D01*
X80333000Y-152188560D01*
X80333000Y-151896040D01*
X80275932Y-151609142D01*
X80163990Y-151338889D01*
X80001475Y-151095668D01*
X79794632Y-150888825D01*
X79618594Y-150771200D01*
X79848269Y-150599888D01*
X80043178Y-150383655D01*
X80192157Y-150133552D01*
X80289481Y-149859191D01*
X80168814Y-149629300D01*
X78975000Y-149629300D01*
X78975000Y-149649300D01*
X78721000Y-149649300D01*
X78721000Y-149629300D01*
X78701000Y-149629300D01*
X78701000Y-149375300D01*
X78721000Y-149375300D01*
X78721000Y-148182145D01*
X78975000Y-148182145D01*
X78975000Y-149375300D01*
X80168814Y-149375300D01*
X80289481Y-149145409D01*
X80192157Y-148871048D01*
X80043178Y-148620945D01*
X79848269Y-148404712D01*
X79614920Y-148230659D01*
X79352099Y-148105475D01*
X79204890Y-148060824D01*
X78975000Y-148182145D01*
X78721000Y-148182145D01*
X78491110Y-148060824D01*
X78343901Y-148105475D01*
X78081080Y-148230659D01*
X77847731Y-148404712D01*
X77652822Y-148620945D01*
X77583195Y-148737834D01*
X77461475Y-148555668D01*
X77254632Y-148348825D01*
X77011411Y-148186310D01*
X76993001Y-148178684D01*
X76993001Y-147767115D01*
X85391000Y-147767115D01*
X85391000Y-148158125D01*
X85467282Y-148541623D01*
X85616915Y-148902870D01*
X85834149Y-149227984D01*
X86110636Y-149504471D01*
X86435750Y-149721705D01*
X86796997Y-149871338D01*
X87180495Y-149947620D01*
X87571505Y-149947620D01*
X87955003Y-149871338D01*
X88316250Y-149721705D01*
X88641364Y-149504471D01*
X88917851Y-149227984D01*
X89135085Y-148902870D01*
X89284718Y-148541623D01*
X89361000Y-148158125D01*
X89361000Y-147848395D01*
X105967540Y-147848395D01*
X105967540Y-148239405D01*
X106043822Y-148622903D01*
X106193455Y-148984150D01*
X106410689Y-149309264D01*
X106687176Y-149585751D01*
X107012290Y-149802985D01*
X107373537Y-149952618D01*
X107757035Y-150028900D01*
X108148045Y-150028900D01*
X108531543Y-149952618D01*
X108892790Y-149802985D01*
X109217904Y-149585751D01*
X109494391Y-149309264D01*
X109711625Y-148984150D01*
X109861258Y-148622903D01*
X109937540Y-148239405D01*
X109937540Y-147848395D01*
X109861258Y-147464897D01*
X109711625Y-147103650D01*
X109494391Y-146778536D01*
X109217904Y-146502049D01*
X108892790Y-146284815D01*
X108531543Y-146135182D01*
X108148045Y-146058900D01*
X107757035Y-146058900D01*
X107373537Y-146135182D01*
X107012290Y-146284815D01*
X106687176Y-146502049D01*
X106410689Y-146778536D01*
X106193455Y-147103650D01*
X106043822Y-147464897D01*
X105967540Y-147848395D01*
X89361000Y-147848395D01*
X89361000Y-147767115D01*
X89284718Y-147383617D01*
X89135085Y-147022370D01*
X88917851Y-146697256D01*
X88641364Y-146420769D01*
X88316250Y-146203535D01*
X87955003Y-146053902D01*
X87571505Y-145977620D01*
X87180495Y-145977620D01*
X86796997Y-146053902D01*
X86435750Y-146203535D01*
X86110636Y-146420769D01*
X85834149Y-146697256D01*
X85616915Y-147022370D01*
X85467282Y-147383617D01*
X85391000Y-147767115D01*
X76993001Y-147767115D01*
X76993001Y-145001742D01*
X76998491Y-144946000D01*
X76993001Y-144890258D01*
X76993001Y-144890249D01*
X76976578Y-144723502D01*
X76911677Y-144509554D01*
X76806285Y-144312378D01*
X76664450Y-144139552D01*
X76621142Y-144104010D01*
X73894003Y-141376872D01*
X73911400Y-141376872D01*
X74035882Y-141364612D01*
X74155580Y-141328302D01*
X74265894Y-141269337D01*
X74362585Y-141189985D01*
X74441937Y-141093294D01*
X74500902Y-140982980D01*
X74537212Y-140863282D01*
X74549472Y-140738800D01*
X74549472Y-137911275D01*
X77472000Y-140833804D01*
X77472001Y-142298288D01*
X77402663Y-142367626D01*
X77289395Y-142537144D01*
X77211374Y-142725502D01*
X77171600Y-142925461D01*
X77171600Y-143129339D01*
X77211374Y-143329298D01*
X77289395Y-143517656D01*
X77402663Y-143687174D01*
X77546826Y-143831337D01*
X77716344Y-143944605D01*
X77904702Y-144022626D01*
X78104661Y-144062400D01*
X78308539Y-144062400D01*
X78508498Y-144022626D01*
X78696856Y-143944605D01*
X78866374Y-143831337D01*
X79010537Y-143687174D01*
X79123805Y-143517656D01*
X79201826Y-143329298D01*
X79241600Y-143129339D01*
X79241600Y-142925461D01*
X79227959Y-142856881D01*
X83582560Y-142856881D01*
X83582560Y-143060759D01*
X83622334Y-143260718D01*
X83700355Y-143449076D01*
X83813623Y-143618594D01*
X83957786Y-143762757D01*
X84127304Y-143876025D01*
X84315662Y-143954046D01*
X84515621Y-143993820D01*
X84719499Y-143993820D01*
X84919458Y-143954046D01*
X85107816Y-143876025D01*
X85277334Y-143762757D01*
X85321271Y-143718820D01*
X89914919Y-143718820D01*
X90021014Y-143751003D01*
X90132667Y-143762000D01*
X90132675Y-143762000D01*
X90170000Y-143765676D01*
X90207325Y-143762000D01*
X115374289Y-143762000D01*
X115418226Y-143805937D01*
X115587744Y-143919205D01*
X115776102Y-143997226D01*
X115976061Y-144037000D01*
X116179939Y-144037000D01*
X116379898Y-143997226D01*
X116568256Y-143919205D01*
X116737774Y-143805937D01*
X116881937Y-143661774D01*
X116995205Y-143492256D01*
X117073226Y-143303898D01*
X117113000Y-143103939D01*
X117113000Y-142900061D01*
X117073226Y-142700102D01*
X116995205Y-142511744D01*
X116881937Y-142342226D01*
X116737774Y-142198063D01*
X116568256Y-142084795D01*
X116379898Y-142006774D01*
X116179939Y-141967000D01*
X115976061Y-141967000D01*
X115776102Y-142006774D01*
X115587744Y-142084795D01*
X115418226Y-142198063D01*
X115374289Y-142242000D01*
X114610801Y-142242000D01*
X115656279Y-141196524D01*
X115656288Y-141196513D01*
X116117801Y-140735000D01*
X116179939Y-140735000D01*
X116379898Y-140695226D01*
X116568256Y-140617205D01*
X116737774Y-140503937D01*
X116881937Y-140359774D01*
X116995205Y-140190256D01*
X117073226Y-140001898D01*
X117113000Y-139801939D01*
X117113000Y-139598061D01*
X117073226Y-139398102D01*
X116995205Y-139209744D01*
X116881937Y-139040226D01*
X116737774Y-138896063D01*
X116568256Y-138782795D01*
X116505982Y-138757000D01*
X122132982Y-138757000D01*
X122174000Y-138761040D01*
X122215018Y-138757000D01*
X122215019Y-138757000D01*
X122337689Y-138744918D01*
X122495087Y-138697172D01*
X122640146Y-138619636D01*
X122767291Y-138515291D01*
X122793446Y-138483421D01*
X122886361Y-138390506D01*
X122918231Y-138364351D01*
X123022576Y-138237206D01*
X123100112Y-138092147D01*
X123147858Y-137934749D01*
X123159940Y-137812079D01*
X123159940Y-137812069D01*
X123163979Y-137771061D01*
X123159940Y-137730053D01*
X123159940Y-136677172D01*
X123749940Y-136677172D01*
X123874422Y-136664912D01*
X123994120Y-136628602D01*
X124104434Y-136569637D01*
X124201125Y-136490285D01*
X124280477Y-136393594D01*
X124339442Y-136283280D01*
X124375752Y-136163582D01*
X124388012Y-136039100D01*
X124388012Y-134789100D01*
X124375752Y-134664618D01*
X124339442Y-134544920D01*
X124280477Y-134434606D01*
X124201125Y-134337915D01*
X124117273Y-134269100D01*
X125318900Y-134269100D01*
X125318901Y-136050139D01*
X125313409Y-136105900D01*
X125335323Y-136328398D01*
X125400224Y-136542346D01*
X125421824Y-136582757D01*
X125505617Y-136739523D01*
X125647452Y-136912349D01*
X125690760Y-136947891D01*
X126799663Y-138056794D01*
X126746000Y-138051509D01*
X126690249Y-138057000D01*
X126634212Y-138057000D01*
X126579252Y-138067932D01*
X126523502Y-138073423D01*
X126469897Y-138089684D01*
X126414933Y-138100617D01*
X126363155Y-138122064D01*
X126309554Y-138138324D01*
X126260153Y-138164729D01*
X126208376Y-138186176D01*
X126161782Y-138217309D01*
X126112378Y-138243716D01*
X126069074Y-138279255D01*
X126022480Y-138310388D01*
X125982855Y-138350013D01*
X125939552Y-138385551D01*
X125904014Y-138428854D01*
X125864388Y-138468480D01*
X125833254Y-138515075D01*
X125797717Y-138558377D01*
X125771312Y-138607778D01*
X125740176Y-138654376D01*
X125718728Y-138706157D01*
X125692325Y-138755553D01*
X125676067Y-138809149D01*
X125654617Y-138860933D01*
X125643683Y-138915904D01*
X125627424Y-138969501D01*
X125621934Y-139025243D01*
X125611000Y-139080212D01*
X125611000Y-139303788D01*
X125611001Y-139303793D01*
X125611000Y-145325868D01*
X125513869Y-145423000D01*
X116895752Y-145423000D01*
X116840000Y-145417509D01*
X116617501Y-145439423D01*
X116403553Y-145504324D01*
X116206377Y-145609716D01*
X116076856Y-145716011D01*
X116076854Y-145716013D01*
X116033551Y-145751551D01*
X115998013Y-145794855D01*
X115148858Y-146644010D01*
X115105551Y-146679552D01*
X114963716Y-146852378D01*
X114930470Y-146914577D01*
X114858323Y-147049555D01*
X114793422Y-147263503D01*
X114771508Y-147486001D01*
X114777000Y-147541762D01*
X114776999Y-149164597D01*
X114628842Y-149194068D01*
X114358589Y-149306010D01*
X114115368Y-149468525D01*
X113983513Y-149600380D01*
X113961502Y-149527820D01*
X113902537Y-149417506D01*
X113823185Y-149320815D01*
X113726494Y-149241463D01*
X113616180Y-149182498D01*
X113496482Y-149146188D01*
X113372000Y-149133928D01*
X111672000Y-149133928D01*
X111547518Y-149146188D01*
X111427820Y-149182498D01*
X111317506Y-149241463D01*
X111220815Y-149320815D01*
X111141463Y-149417506D01*
X111082498Y-149527820D01*
X111046188Y-149647518D01*
X111033928Y-149772000D01*
X111033928Y-151472000D01*
X111046188Y-151596482D01*
X111082498Y-151716180D01*
X111141463Y-151826494D01*
X111220815Y-151923185D01*
X111317506Y-152002537D01*
X111427820Y-152061502D01*
X111547518Y-152097812D01*
X111672000Y-152110072D01*
X113372000Y-152110072D01*
X113496482Y-152097812D01*
X113616180Y-152061502D01*
X113726494Y-152002537D01*
X113823185Y-151923185D01*
X113902537Y-151826494D01*
X113961502Y-151716180D01*
X113983513Y-151643620D01*
X114115368Y-151775475D01*
X114358589Y-151937990D01*
X114628842Y-152049932D01*
X114915740Y-152107000D01*
X115208260Y-152107000D01*
X115495158Y-152049932D01*
X115765411Y-151937990D01*
X116008632Y-151775475D01*
X116215475Y-151568632D01*
X116332000Y-151394240D01*
X116448525Y-151568632D01*
X116655368Y-151775475D01*
X116898589Y-151937990D01*
X117168842Y-152049932D01*
X117455740Y-152107000D01*
X117748260Y-152107000D01*
X118035158Y-152049932D01*
X118305411Y-151937990D01*
X118548632Y-151775475D01*
X118755475Y-151568632D01*
X118917990Y-151325411D01*
X119029932Y-151055158D01*
X119087000Y-150768260D01*
X119087000Y-150583675D01*
X121285136Y-150583675D01*
X121285136Y-150996327D01*
X121365641Y-151401050D01*
X121523556Y-151782291D01*
X121752813Y-152125399D01*
X122044602Y-152417188D01*
X122387710Y-152646445D01*
X122768951Y-152804360D01*
X123173674Y-152884865D01*
X123586326Y-152884865D01*
X123991049Y-152804360D01*
X124372290Y-152646445D01*
X124715398Y-152417188D01*
X125007187Y-152125399D01*
X125236444Y-151782291D01*
X125394359Y-151401050D01*
X125474864Y-150996327D01*
X125474864Y-150583675D01*
X125394359Y-150178952D01*
X125236444Y-149797711D01*
X125007187Y-149454603D01*
X124715398Y-149162814D01*
X124372290Y-148933557D01*
X123991049Y-148775642D01*
X123586326Y-148695137D01*
X123173674Y-148695137D01*
X122768951Y-148775642D01*
X122387710Y-148933557D01*
X122044602Y-149162814D01*
X121752813Y-149454603D01*
X121523556Y-149797711D01*
X121365641Y-150178952D01*
X121285136Y-150583675D01*
X119087000Y-150583675D01*
X119087000Y-150475740D01*
X119029932Y-150188842D01*
X118917990Y-149918589D01*
X118755475Y-149675368D01*
X118548632Y-149468525D01*
X118305411Y-149306010D01*
X118035158Y-149194068D01*
X117748260Y-149137000D01*
X117455740Y-149137000D01*
X117168842Y-149194068D01*
X117046999Y-149244537D01*
X117046999Y-147956133D01*
X117310132Y-147693000D01*
X125928249Y-147693000D01*
X125984000Y-147698491D01*
X126039751Y-147693000D01*
X126039752Y-147693000D01*
X126206499Y-147676577D01*
X126420447Y-147611676D01*
X126617623Y-147506284D01*
X126790449Y-147364449D01*
X126825995Y-147321136D01*
X127509140Y-146637992D01*
X127552449Y-146602449D01*
X127694284Y-146429623D01*
X127799676Y-146232447D01*
X127864577Y-146018499D01*
X127881000Y-145851752D01*
X127881000Y-145851751D01*
X127886491Y-145796000D01*
X127881000Y-145740248D01*
X127881000Y-139138132D01*
X129681109Y-140938241D01*
X129716651Y-140981549D01*
X129872920Y-141109796D01*
X129889477Y-141123384D01*
X130086653Y-141228776D01*
X130300601Y-141293677D01*
X130523100Y-141315591D01*
X130578852Y-141310100D01*
X133126612Y-141310100D01*
X133198541Y-141358161D01*
X133360146Y-141425100D01*
X133198541Y-141492039D01*
X132979887Y-141638138D01*
X132793938Y-141824087D01*
X132647839Y-142042741D01*
X132547204Y-142285695D01*
X132495900Y-142543614D01*
X132495900Y-142806586D01*
X132547204Y-143064505D01*
X132647839Y-143307459D01*
X132793938Y-143526113D01*
X132942925Y-143675100D01*
X132793938Y-143824087D01*
X132647839Y-144042741D01*
X132547204Y-144285695D01*
X132495900Y-144543614D01*
X132495900Y-144806586D01*
X132547204Y-145064505D01*
X132647839Y-145307459D01*
X132793938Y-145526113D01*
X132979887Y-145712062D01*
X133198541Y-145858161D01*
X133360146Y-145925100D01*
X133198541Y-145992039D01*
X132979887Y-146138138D01*
X132793938Y-146324087D01*
X132647839Y-146542741D01*
X132547204Y-146785695D01*
X132495900Y-147043614D01*
X132495900Y-147306586D01*
X132547204Y-147564505D01*
X132647839Y-147807459D01*
X132793938Y-148026113D01*
X132815513Y-148047688D01*
X132814390Y-148047911D01*
X132398547Y-148220159D01*
X132024297Y-148470225D01*
X131706025Y-148788497D01*
X131455959Y-149162747D01*
X131283711Y-149578590D01*
X131195900Y-150020047D01*
X131195900Y-150470153D01*
X131283711Y-150911610D01*
X131455959Y-151327453D01*
X131706025Y-151701703D01*
X132024297Y-152019975D01*
X132398547Y-152270041D01*
X132814390Y-152442289D01*
X133255847Y-152530100D01*
X133705953Y-152530100D01*
X134147410Y-152442289D01*
X134563253Y-152270041D01*
X134937503Y-152019975D01*
X135255775Y-151701703D01*
X135470663Y-151380100D01*
X137171137Y-151380100D01*
X137386025Y-151701703D01*
X137704297Y-152019975D01*
X138078547Y-152270041D01*
X138494390Y-152442289D01*
X138935847Y-152530100D01*
X139385953Y-152530100D01*
X139827410Y-152442289D01*
X140243253Y-152270041D01*
X140617503Y-152019975D01*
X140935775Y-151701703D01*
X141185841Y-151327453D01*
X141358089Y-150911610D01*
X141445900Y-150470153D01*
X141445900Y-150020047D01*
X141358089Y-149578590D01*
X141185841Y-149162747D01*
X140935775Y-148788497D01*
X140617503Y-148470225D01*
X140295900Y-148255337D01*
X140295900Y-139094863D01*
X140617503Y-138879975D01*
X140935775Y-138561703D01*
X141185841Y-138187453D01*
X141358089Y-137771610D01*
X141445900Y-137330153D01*
X141445900Y-136880047D01*
X141358089Y-136438590D01*
X141185841Y-136022747D01*
X140935775Y-135648497D01*
X140617503Y-135330225D01*
X140243253Y-135080159D01*
X139827410Y-134907911D01*
X139385953Y-134820100D01*
X138935847Y-134820100D01*
X138494390Y-134907911D01*
X138078547Y-135080159D01*
X137704297Y-135330225D01*
X137386025Y-135648497D01*
X137171137Y-135970100D01*
X135470663Y-135970100D01*
X135255775Y-135648497D01*
X134937503Y-135330225D01*
X134563253Y-135080159D01*
X134147410Y-134907911D01*
X133705953Y-134820100D01*
X133255847Y-134820100D01*
X132814390Y-134907911D01*
X132398547Y-135080159D01*
X132024297Y-135330225D01*
X131706025Y-135648497D01*
X131455959Y-136022747D01*
X131283711Y-136438590D01*
X131195900Y-136880047D01*
X131195900Y-137330153D01*
X131283711Y-137771610D01*
X131455959Y-138187453D01*
X131706025Y-138561703D01*
X132024297Y-138879975D01*
X132263941Y-139040100D01*
X130993232Y-139040100D01*
X127588900Y-135635769D01*
X127588900Y-133604231D01*
X132532352Y-128660780D01*
X132616424Y-128660780D01*
X132842812Y-128999594D01*
X133164846Y-129321628D01*
X133543517Y-129574648D01*
X133964274Y-129748931D01*
X134410948Y-129837780D01*
X134866372Y-129837780D01*
X135313046Y-129748931D01*
X135733803Y-129574648D01*
X136112474Y-129321628D01*
X136434508Y-128999594D01*
X136687528Y-128620923D01*
X136779067Y-128399927D01*
X136910339Y-128716843D01*
X137185520Y-129128681D01*
X137535759Y-129478920D01*
X137947597Y-129754101D01*
X138405207Y-129943650D01*
X138891003Y-130040280D01*
X139386317Y-130040280D01*
X139872113Y-129943650D01*
X140329723Y-129754101D01*
X140741561Y-129478920D01*
X141091800Y-129128681D01*
X141366981Y-128716843D01*
X141556530Y-128259233D01*
X141653160Y-127773437D01*
X141653160Y-127278123D01*
X141556530Y-126792327D01*
X141366981Y-126334717D01*
X141091800Y-125922879D01*
X140741561Y-125572640D01*
X140329723Y-125297459D01*
X139872113Y-125107910D01*
X139386317Y-125011280D01*
X138891003Y-125011280D01*
X138405207Y-125107910D01*
X137947597Y-125297459D01*
X137535759Y-125572640D01*
X137185520Y-125922879D01*
X136910339Y-126334717D01*
X136779067Y-126651633D01*
X136687528Y-126430637D01*
X136434508Y-126051966D01*
X136112474Y-125729932D01*
X135733803Y-125476912D01*
X135313046Y-125302629D01*
X134866372Y-125213780D01*
X134410948Y-125213780D01*
X133964274Y-125302629D01*
X133543517Y-125476912D01*
X133164846Y-125729932D01*
X132842812Y-126051966D01*
X132616424Y-126390780D01*
X132117963Y-126390780D01*
X132062219Y-126385290D01*
X132006475Y-126390780D01*
X132006468Y-126390780D01*
X131860713Y-126405136D01*
X131839720Y-126407203D01*
X131789925Y-126422309D01*
X131625773Y-126472104D01*
X131428597Y-126577496D01*
X131255771Y-126719331D01*
X131220229Y-126762639D01*
X125983769Y-131999100D01*
X124117273Y-131999100D01*
X124201125Y-131930285D01*
X124280477Y-131833594D01*
X124339442Y-131723280D01*
X124375752Y-131603582D01*
X124388012Y-131479100D01*
X124384940Y-131139850D01*
X124226190Y-130981100D01*
X122451940Y-130981100D01*
X122451940Y-131001100D01*
X122197940Y-131001100D01*
X122197940Y-130981100D01*
X120423690Y-130981100D01*
X120264940Y-131139850D01*
X120261868Y-131479100D01*
X120274128Y-131603582D01*
X120310438Y-131723280D01*
X120369403Y-131833594D01*
X120448755Y-131930285D01*
X120532607Y-131999100D01*
X119813012Y-131999100D01*
X119813012Y-130359100D01*
X119800752Y-130234618D01*
X119799079Y-130229100D01*
X120261868Y-130229100D01*
X120264940Y-130568350D01*
X120423690Y-130727100D01*
X122197940Y-130727100D01*
X122197940Y-129752850D01*
X122451940Y-129752850D01*
X122451940Y-130727100D01*
X124226190Y-130727100D01*
X124384940Y-130568350D01*
X124388012Y-130229100D01*
X124375752Y-130104618D01*
X124339442Y-129984920D01*
X124280477Y-129874606D01*
X124201125Y-129777915D01*
X124104434Y-129698563D01*
X123994120Y-129639598D01*
X123874422Y-129603288D01*
X123749940Y-129591028D01*
X122610690Y-129594100D01*
X122451940Y-129752850D01*
X122197940Y-129752850D01*
X122039190Y-129594100D01*
X120899940Y-129591028D01*
X120775458Y-129603288D01*
X120655760Y-129639598D01*
X120545446Y-129698563D01*
X120448755Y-129777915D01*
X120369403Y-129874606D01*
X120310438Y-129984920D01*
X120274128Y-130104618D01*
X120261868Y-130229100D01*
X119799079Y-130229100D01*
X119764442Y-130114920D01*
X119705477Y-130004606D01*
X119626125Y-129907915D01*
X119529434Y-129828563D01*
X119419120Y-129769598D01*
X119299422Y-129733288D01*
X119174940Y-129721028D01*
X112674940Y-129721028D01*
X112550458Y-129733288D01*
X112430760Y-129769598D01*
X112320446Y-129828563D01*
X112223755Y-129907915D01*
X112144403Y-130004606D01*
X112085438Y-130114920D01*
X112049128Y-130234618D01*
X112036868Y-130359100D01*
X112036868Y-135909100D01*
X112049128Y-136033582D01*
X112085438Y-136153280D01*
X112144403Y-136263594D01*
X112223755Y-136360285D01*
X112320446Y-136439637D01*
X112430760Y-136498602D01*
X112550458Y-136534912D01*
X112674940Y-136547172D01*
X119174940Y-136547172D01*
X119299422Y-136534912D01*
X119419120Y-136498602D01*
X119529434Y-136439637D01*
X119626125Y-136360285D01*
X119705477Y-136263594D01*
X119764442Y-136153280D01*
X119800752Y-136033582D01*
X119813012Y-135909100D01*
X119813012Y-134269100D01*
X120532607Y-134269100D01*
X120448755Y-134337915D01*
X120369403Y-134434606D01*
X120310438Y-134544920D01*
X120274128Y-134664618D01*
X120261868Y-134789100D01*
X120261868Y-136039100D01*
X120274128Y-136163582D01*
X120310438Y-136283280D01*
X120369403Y-136393594D01*
X120448755Y-136490285D01*
X120545446Y-136569637D01*
X120655760Y-136628602D01*
X120775458Y-136664912D01*
X120899940Y-136677172D01*
X121489941Y-136677172D01*
X121489941Y-137087000D01*
X112613868Y-137087000D01*
X112403092Y-136876225D01*
X112374226Y-136731102D01*
X112296205Y-136542744D01*
X112182937Y-136373226D01*
X112038774Y-136229063D01*
X111869256Y-136115795D01*
X111680898Y-136037774D01*
X111480939Y-135998000D01*
X111277061Y-135998000D01*
X111077102Y-136037774D01*
X110888744Y-136115795D01*
X110719226Y-136229063D01*
X110575063Y-136373226D01*
X110461795Y-136542744D01*
X110383774Y-136731102D01*
X110344000Y-136931061D01*
X110344000Y-137134939D01*
X110383774Y-137334898D01*
X110461795Y-137523256D01*
X110575063Y-137692774D01*
X110719226Y-137836937D01*
X110888744Y-137950205D01*
X111077102Y-138028226D01*
X111222225Y-138057092D01*
X111648563Y-138483431D01*
X111674709Y-138515291D01*
X111706568Y-138541437D01*
X111706570Y-138541439D01*
X111772995Y-138595952D01*
X111801854Y-138619636D01*
X111946913Y-138697172D01*
X112104311Y-138744918D01*
X112226981Y-138757000D01*
X112226982Y-138757000D01*
X112268000Y-138761040D01*
X112309018Y-138757000D01*
X115650018Y-138757000D01*
X115587744Y-138782795D01*
X115418226Y-138896063D01*
X115274063Y-139040226D01*
X115160795Y-139209744D01*
X115082774Y-139398102D01*
X115043000Y-139598061D01*
X115043000Y-139660199D01*
X114581487Y-140121712D01*
X114581476Y-140121721D01*
X113477199Y-141226000D01*
X90873711Y-141226000D01*
X90829774Y-141182063D01*
X90660256Y-141068795D01*
X90471898Y-140990774D01*
X90271939Y-140951000D01*
X90068061Y-140951000D01*
X89868102Y-140990774D01*
X89679744Y-141068795D01*
X89510226Y-141182063D01*
X89366063Y-141326226D01*
X89252795Y-141495744D01*
X89174774Y-141684102D01*
X89135000Y-141884061D01*
X89135000Y-142087939D01*
X89157055Y-142198820D01*
X85321271Y-142198820D01*
X85277334Y-142154883D01*
X85107816Y-142041615D01*
X84919458Y-141963594D01*
X84719499Y-141923820D01*
X84515621Y-141923820D01*
X84315662Y-141963594D01*
X84127304Y-142041615D01*
X83957786Y-142154883D01*
X83813623Y-142299046D01*
X83700355Y-142468564D01*
X83622334Y-142656922D01*
X83582560Y-142856881D01*
X79227959Y-142856881D01*
X79201826Y-142725502D01*
X79123805Y-142537144D01*
X79010537Y-142367626D01*
X78992000Y-142349089D01*
X78992000Y-140556325D01*
X78995676Y-140519002D01*
X78992000Y-140481679D01*
X78992000Y-140481669D01*
X78981003Y-140370016D01*
X78937546Y-140226755D01*
X78866974Y-140094726D01*
X78772001Y-139979001D01*
X78743004Y-139955204D01*
X76532811Y-137745011D01*
X80599450Y-137745011D01*
X80599450Y-137948889D01*
X80639224Y-138148848D01*
X80717245Y-138337206D01*
X80830513Y-138506724D01*
X80974676Y-138650887D01*
X81144194Y-138764155D01*
X81332552Y-138842176D01*
X81532511Y-138881950D01*
X81736389Y-138881950D01*
X81936348Y-138842176D01*
X82124706Y-138764155D01*
X82294224Y-138650887D01*
X82438387Y-138506724D01*
X82551655Y-138337206D01*
X82629676Y-138148848D01*
X82669450Y-137948889D01*
X82669450Y-137886753D01*
X82718107Y-137838095D01*
X82747101Y-137814301D01*
X82770895Y-137785308D01*
X82770899Y-137785304D01*
X82842073Y-137698577D01*
X82842074Y-137698576D01*
X82912646Y-137566547D01*
X82956103Y-137423286D01*
X82967100Y-137311633D01*
X82967100Y-137311624D01*
X82970776Y-137274301D01*
X82967100Y-137236978D01*
X82967100Y-135326251D01*
X83011037Y-135282314D01*
X83124305Y-135112796D01*
X83202326Y-134924438D01*
X83242100Y-134724479D01*
X83242100Y-134520601D01*
X83202326Y-134320642D01*
X83124305Y-134132284D01*
X83011037Y-133962766D01*
X82866874Y-133818603D01*
X82697356Y-133705335D01*
X82508998Y-133627314D01*
X82309039Y-133587540D01*
X82105161Y-133587540D01*
X81905202Y-133627314D01*
X81716844Y-133705335D01*
X81547326Y-133818603D01*
X81403163Y-133962766D01*
X81289895Y-134132284D01*
X81211874Y-134320642D01*
X81172100Y-134520601D01*
X81172100Y-134724479D01*
X81211874Y-134924438D01*
X81289895Y-135112796D01*
X81403163Y-135282314D01*
X81447100Y-135326251D01*
X81447101Y-136828939D01*
X81332552Y-136851724D01*
X81144194Y-136929745D01*
X80974676Y-137043013D01*
X80830513Y-137187176D01*
X80717245Y-137356694D01*
X80639224Y-137545052D01*
X80599450Y-137745011D01*
X76532811Y-137745011D01*
X75348001Y-136560202D01*
X75348001Y-132962821D01*
X81135990Y-132962821D01*
X81172676Y-132999507D01*
X81342194Y-133112775D01*
X81530552Y-133190796D01*
X81730511Y-133230570D01*
X81934389Y-133230570D01*
X82134348Y-133190796D01*
X82322706Y-133112775D01*
X82492224Y-132999507D01*
X82636387Y-132855344D01*
X82749655Y-132685826D01*
X82827676Y-132497468D01*
X82867450Y-132297509D01*
X82867450Y-132093631D01*
X82827676Y-131893672D01*
X82791840Y-131807157D01*
X82791840Y-130995551D01*
X82835777Y-130951614D01*
X82949045Y-130782096D01*
X83027066Y-130593738D01*
X83066840Y-130393779D01*
X83066840Y-130189901D01*
X83027066Y-129989942D01*
X82949045Y-129801584D01*
X82835777Y-129632066D01*
X82691614Y-129487903D01*
X82522096Y-129374635D01*
X82333738Y-129296614D01*
X82133779Y-129256840D01*
X81929901Y-129256840D01*
X81729942Y-129296614D01*
X81541584Y-129374635D01*
X81372066Y-129487903D01*
X81227903Y-129632066D01*
X81114635Y-129801584D01*
X81036614Y-129989942D01*
X80996840Y-130189901D01*
X80996840Y-130393779D01*
X81036614Y-130593738D01*
X81114635Y-130782096D01*
X81227903Y-130951614D01*
X81271840Y-130995551D01*
X81271841Y-131325374D01*
X81172676Y-131391633D01*
X81121488Y-131442821D01*
X74625334Y-131442821D01*
X74588001Y-131439144D01*
X74550668Y-131442821D01*
X74439015Y-131453818D01*
X74295754Y-131497275D01*
X74163725Y-131567847D01*
X74048000Y-131662820D01*
X73953027Y-131778545D01*
X73882455Y-131910574D01*
X73838998Y-132053835D01*
X73824324Y-132202821D01*
X73828001Y-132240154D01*
X73828002Y-136600728D01*
X70411400Y-136600728D01*
X70286918Y-136612988D01*
X70167220Y-136649298D01*
X70056906Y-136708263D01*
X69960215Y-136787615D01*
X69880863Y-136884306D01*
X69821898Y-136994620D01*
X69785588Y-137114318D01*
X69773328Y-137238800D01*
X69773328Y-140738800D01*
X69785588Y-140863282D01*
X69821898Y-140982980D01*
X69880863Y-141093294D01*
X69960215Y-141189985D01*
X70056906Y-141269337D01*
X70133531Y-141310294D01*
X70036400Y-141300728D01*
X68286400Y-141300728D01*
X67991214Y-141329801D01*
X67707372Y-141415904D01*
X67445782Y-141555727D01*
X67216497Y-141743897D01*
X67028327Y-141973182D01*
X66888504Y-142234772D01*
X66802401Y-142518614D01*
X66773328Y-142813800D01*
X62615000Y-142813800D01*
X62615000Y-140738800D01*
X64023328Y-140738800D01*
X64035588Y-140863282D01*
X64071898Y-140982980D01*
X64130863Y-141093294D01*
X64210215Y-141189985D01*
X64306906Y-141269337D01*
X64417220Y-141328302D01*
X64536918Y-141364612D01*
X64661400Y-141376872D01*
X65875650Y-141373800D01*
X66034400Y-141215050D01*
X66034400Y-139115800D01*
X66288400Y-139115800D01*
X66288400Y-141215050D01*
X66447150Y-141373800D01*
X67661400Y-141376872D01*
X67785882Y-141364612D01*
X67905580Y-141328302D01*
X68015894Y-141269337D01*
X68112585Y-141189985D01*
X68191937Y-141093294D01*
X68250902Y-140982980D01*
X68287212Y-140863282D01*
X68299472Y-140738800D01*
X68296400Y-139274550D01*
X68137650Y-139115800D01*
X66288400Y-139115800D01*
X66034400Y-139115800D01*
X64185150Y-139115800D01*
X64026400Y-139274550D01*
X64023328Y-140738800D01*
X62615000Y-140738800D01*
X62615000Y-137238800D01*
X64023328Y-137238800D01*
X64026400Y-138703050D01*
X64185150Y-138861800D01*
X66034400Y-138861800D01*
X66034400Y-136762550D01*
X66288400Y-136762550D01*
X66288400Y-138861800D01*
X68137650Y-138861800D01*
X68296400Y-138703050D01*
X68299472Y-137238800D01*
X68287212Y-137114318D01*
X68250902Y-136994620D01*
X68191937Y-136884306D01*
X68112585Y-136787615D01*
X68015894Y-136708263D01*
X67905580Y-136649298D01*
X67785882Y-136612988D01*
X67661400Y-136600728D01*
X66447150Y-136603800D01*
X66288400Y-136762550D01*
X66034400Y-136762550D01*
X65875650Y-136603800D01*
X64661400Y-136600728D01*
X64536918Y-136612988D01*
X64417220Y-136649298D01*
X64306906Y-136708263D01*
X64210215Y-136787615D01*
X64130863Y-136884306D01*
X64071898Y-136994620D01*
X64035588Y-137114318D01*
X64023328Y-137238800D01*
X62615000Y-137238800D01*
X62615000Y-131166890D01*
X63836524Y-131166890D01*
X63881175Y-131314099D01*
X64006359Y-131576920D01*
X64180412Y-131810269D01*
X64396645Y-132005178D01*
X64646748Y-132154157D01*
X64921109Y-132251481D01*
X65151000Y-132130814D01*
X65151000Y-130937000D01*
X65405000Y-130937000D01*
X65405000Y-132130814D01*
X65634891Y-132251481D01*
X65909252Y-132154157D01*
X66159355Y-132005178D01*
X66375588Y-131810269D01*
X66549641Y-131576920D01*
X66674825Y-131314099D01*
X66719476Y-131166890D01*
X66598155Y-130937000D01*
X65405000Y-130937000D01*
X65151000Y-130937000D01*
X63957845Y-130937000D01*
X63836524Y-131166890D01*
X62615000Y-131166890D01*
X62615000Y-109132000D01*
X63789928Y-109132000D01*
X63789928Y-110832000D01*
X63802188Y-110956482D01*
X63838498Y-111076180D01*
X63897463Y-111186494D01*
X63976815Y-111283185D01*
X64073506Y-111362537D01*
X64183820Y-111421502D01*
X64264466Y-111445966D01*
X64180412Y-111521731D01*
X64006359Y-111755080D01*
X63881175Y-112017901D01*
X63836524Y-112165110D01*
X63957845Y-112395000D01*
X65151000Y-112395000D01*
X65151000Y-112375000D01*
X65405000Y-112375000D01*
X65405000Y-112395000D01*
X66598155Y-112395000D01*
X66719476Y-112165110D01*
X66674825Y-112017901D01*
X66549641Y-111755080D01*
X66375588Y-111521731D01*
X66291534Y-111445966D01*
X66372180Y-111421502D01*
X66482494Y-111362537D01*
X66579185Y-111283185D01*
X66658537Y-111186494D01*
X66717502Y-111076180D01*
X66753812Y-110956482D01*
X66766072Y-110832000D01*
X66766072Y-109132000D01*
X66753812Y-109007518D01*
X66717502Y-108887820D01*
X66658537Y-108777506D01*
X66579185Y-108680815D01*
X66482494Y-108601463D01*
X66372180Y-108542498D01*
X66252482Y-108506188D01*
X66128000Y-108493928D01*
X64428000Y-108493928D01*
X64303518Y-108506188D01*
X64183820Y-108542498D01*
X64073506Y-108601463D01*
X63976815Y-108680815D01*
X63897463Y-108777506D01*
X63838498Y-108887820D01*
X63802188Y-109007518D01*
X63789928Y-109132000D01*
X62615000Y-109132000D01*
X62615000Y-101607695D01*
X63394600Y-101607695D01*
X63394600Y-101998705D01*
X63470882Y-102382203D01*
X63620515Y-102743450D01*
X63837749Y-103068564D01*
X64114236Y-103345051D01*
X64439350Y-103562285D01*
X64800597Y-103711918D01*
X65184095Y-103788200D01*
X65575105Y-103788200D01*
X65958603Y-103711918D01*
X66319850Y-103562285D01*
X66644964Y-103345051D01*
X66921451Y-103068564D01*
X67138685Y-102743450D01*
X67288318Y-102382203D01*
X67364600Y-101998705D01*
X67364600Y-101607695D01*
X67288318Y-101224197D01*
X67138685Y-100862950D01*
X66921451Y-100537836D01*
X66644964Y-100261349D01*
X66319850Y-100044115D01*
X65958603Y-99894482D01*
X65575105Y-99818200D01*
X65184095Y-99818200D01*
X64800597Y-99894482D01*
X64439350Y-100044115D01*
X64114236Y-100261349D01*
X63837749Y-100537836D01*
X63620515Y-100862950D01*
X63470882Y-101224197D01*
X63394600Y-101607695D01*
X62615000Y-101607695D01*
X62615000Y-101325934D01*
X62661592Y-100850744D01*
X62789161Y-100428218D01*
X62996367Y-100038518D01*
X63275322Y-99696487D01*
X63615396Y-99415153D01*
X64003641Y-99205229D01*
X64425262Y-99074715D01*
X64898270Y-99025000D01*
X78286938Y-99025000D01*
X78235188Y-99076750D01*
G36*
X84335305Y-104004592D02*
G01*
X84542148Y-104211435D01*
X84785369Y-104373950D01*
X85055622Y-104485892D01*
X85151395Y-104504943D01*
X81337886Y-108318452D01*
X80918050Y-108320660D01*
X80759300Y-108479410D01*
X80759300Y-109928660D01*
X80779300Y-109928660D01*
X80779300Y-110182660D01*
X80759300Y-110182660D01*
X80759300Y-111631910D01*
X80918050Y-111790660D01*
X81067311Y-111791445D01*
X81067311Y-113826218D01*
X81023373Y-113870156D01*
X80910105Y-114039674D01*
X80832084Y-114228032D01*
X80792310Y-114427991D01*
X80792310Y-114631869D01*
X80807028Y-114705860D01*
X80738822Y-114705860D01*
X79993779Y-113960818D01*
X79993779Y-111792515D01*
X80346550Y-111790660D01*
X80505300Y-111631910D01*
X80505300Y-110182660D01*
X80485300Y-110182660D01*
X80485300Y-109928660D01*
X80505300Y-109928660D01*
X80505300Y-108479410D01*
X80468116Y-108442226D01*
X82284782Y-106625560D01*
X82313780Y-106601762D01*
X82347242Y-106560988D01*
X82408753Y-106486038D01*
X82479325Y-106354008D01*
X82522782Y-106210747D01*
X82533779Y-106099094D01*
X82533779Y-106099084D01*
X82537455Y-106061761D01*
X82533779Y-106024438D01*
X82533779Y-104489504D01*
X82802520Y-104542960D01*
X83095040Y-104542960D01*
X83381938Y-104485892D01*
X83652191Y-104373950D01*
X83895412Y-104211435D01*
X84102255Y-104004592D01*
X84218780Y-103830200D01*
X84335305Y-104004592D01*
G37*
X84335305Y-104004592D02*
X84542148Y-104211435D01*
X84785369Y-104373950D01*
X85055622Y-104485892D01*
X85151395Y-104504943D01*
X81337886Y-108318452D01*
X80918050Y-108320660D01*
X80759300Y-108479410D01*
X80759300Y-109928660D01*
X80779300Y-109928660D01*
X80779300Y-110182660D01*
X80759300Y-110182660D01*
X80759300Y-111631910D01*
X80918050Y-111790660D01*
X81067311Y-111791445D01*
X81067311Y-113826218D01*
X81023373Y-113870156D01*
X80910105Y-114039674D01*
X80832084Y-114228032D01*
X80792310Y-114427991D01*
X80792310Y-114631869D01*
X80807028Y-114705860D01*
X80738822Y-114705860D01*
X79993779Y-113960818D01*
X79993779Y-111792515D01*
X80346550Y-111790660D01*
X80505300Y-111631910D01*
X80505300Y-110182660D01*
X80485300Y-110182660D01*
X80485300Y-109928660D01*
X80505300Y-109928660D01*
X80505300Y-108479410D01*
X80468116Y-108442226D01*
X82284782Y-106625560D01*
X82313780Y-106601762D01*
X82347242Y-106560988D01*
X82408753Y-106486038D01*
X82479325Y-106354008D01*
X82522782Y-106210747D01*
X82533779Y-106099094D01*
X82533779Y-106099084D01*
X82537455Y-106061761D01*
X82533779Y-106024438D01*
X82533779Y-104489504D01*
X82802520Y-104542960D01*
X83095040Y-104542960D01*
X83381938Y-104485892D01*
X83652191Y-104373950D01*
X83895412Y-104211435D01*
X84102255Y-104004592D01*
X84218780Y-103830200D01*
X84335305Y-104004592D01*
M02*
