G04 #@! TF.GenerationSoftware,KiCad,Pcbnew,5.1.7-a382d34a8~88~ubuntu18.04.1*
G04 #@! TF.CreationDate,2020-12-27T20:30:07+01:00*
G04 #@! TF.ProjectId,res_hat,7265735f-6861-4742-9e6b-696361645f70,V3*
G04 #@! TF.SameCoordinates,Original*
G04 #@! TF.FileFunction,Soldermask,Top*
G04 #@! TF.FilePolarity,Negative*
%FSLAX46Y46*%
G04 Gerber Fmt 4.6, Leading zero omitted, Abs format (unit mm)*
G04 Created by KiCad (PCBNEW 5.1.7-a382d34a8~88~ubuntu18.04.1) date 2020-12-27 20:30:07*
%MOMM*%
%LPD*%
G01*
G04 APERTURE LIST*
%ADD10O,2.302000X1.842000*%
%ADD11O,1.802000X1.802000*%
%ADD12C,3.302000*%
%ADD13C,6.200000*%
%ADD14C,3.456000*%
%ADD15C,3.861000*%
%ADD16C,3.402000*%
%ADD17C,1.502000*%
%ADD18C,0.100000*%
G04 APERTURE END LIST*
D10*
X97457260Y-106916220D03*
X97457260Y-109456220D03*
G36*
G01*
X98343606Y-112917220D02*
X96570914Y-112917220D01*
G75*
G02*
X96306260Y-112652566I0J264654D01*
G01*
X96306260Y-111339874D01*
G75*
G02*
X96570914Y-111075220I264654J0D01*
G01*
X98343606Y-111075220D01*
G75*
G02*
X98608260Y-111339874I0J-264654D01*
G01*
X98608260Y-112652566D01*
G75*
G02*
X98343606Y-112917220I-264654J0D01*
G01*
G37*
D11*
X106199940Y-113129060D03*
X106199940Y-110589060D03*
G36*
G01*
X105298940Y-108899060D02*
X105298940Y-107199060D01*
G75*
G02*
X105349940Y-107148060I51000J0D01*
G01*
X107049940Y-107148060D01*
G75*
G02*
X107100940Y-107199060I0J-51000D01*
G01*
X107100940Y-108899060D01*
G75*
G02*
X107049940Y-108950060I-51000J0D01*
G01*
X105349940Y-108950060D01*
G75*
G02*
X105298940Y-108899060I0J51000D01*
G01*
G37*
D12*
X87376000Y-147962620D03*
X107952540Y-148043900D03*
D11*
X101485700Y-116890800D03*
X98945700Y-116890800D03*
X96405700Y-116890800D03*
G36*
G01*
X94715700Y-117791800D02*
X93015700Y-117791800D01*
G75*
G02*
X92964700Y-117740800I0J51000D01*
G01*
X92964700Y-116040800D01*
G75*
G02*
X93015700Y-115989800I51000J0D01*
G01*
X94715700Y-115989800D01*
G75*
G02*
X94766700Y-116040800I0J-51000D01*
G01*
X94766700Y-117740800D01*
G75*
G02*
X94715700Y-117791800I-51000J0D01*
G01*
G37*
G36*
G01*
X107838940Y-111436520D02*
X107838940Y-109736520D01*
G75*
G02*
X107889940Y-109685520I51000J0D01*
G01*
X109589940Y-109685520D01*
G75*
G02*
X109640940Y-109736520I0J-51000D01*
G01*
X109640940Y-111436520D01*
G75*
G02*
X109589940Y-111487520I-51000J0D01*
G01*
X107889940Y-111487520D01*
G75*
G02*
X107838940Y-111436520I0J51000D01*
G01*
G37*
G36*
G01*
X87854220Y-118853320D02*
X87854220Y-117153320D01*
G75*
G02*
X87905220Y-117102320I51000J0D01*
G01*
X89605220Y-117102320D01*
G75*
G02*
X89656220Y-117153320I0J-51000D01*
G01*
X89656220Y-118853320D01*
G75*
G02*
X89605220Y-118904320I-51000J0D01*
G01*
X87905220Y-118904320D01*
G75*
G02*
X87854220Y-118853320I0J51000D01*
G01*
G37*
G36*
G01*
X102761480Y-111433980D02*
X102761480Y-109733980D01*
G75*
G02*
X102812480Y-109682980I51000J0D01*
G01*
X104512480Y-109682980D01*
G75*
G02*
X104563480Y-109733980I0J-51000D01*
G01*
X104563480Y-111433980D01*
G75*
G02*
X104512480Y-111484980I-51000J0D01*
G01*
X102812480Y-111484980D01*
G75*
G02*
X102761480Y-111433980I0J51000D01*
G01*
G37*
G36*
G01*
X82774220Y-118853320D02*
X82774220Y-117153320D01*
G75*
G02*
X82825220Y-117102320I51000J0D01*
G01*
X84525220Y-117102320D01*
G75*
G02*
X84576220Y-117153320I0J-51000D01*
G01*
X84576220Y-118853320D01*
G75*
G02*
X84525220Y-118904320I-51000J0D01*
G01*
X82825220Y-118904320D01*
G75*
G02*
X82774220Y-118853320I0J51000D01*
G01*
G37*
X86215220Y-115465860D03*
X86215220Y-118005860D03*
G36*
G01*
X87116220Y-119695860D02*
X87116220Y-121395860D01*
G75*
G02*
X87065220Y-121446860I-51000J0D01*
G01*
X85365220Y-121446860D01*
G75*
G02*
X85314220Y-121395860I0J51000D01*
G01*
X85314220Y-119695860D01*
G75*
G02*
X85365220Y-119644860I51000J0D01*
G01*
X87065220Y-119644860D01*
G75*
G02*
X87116220Y-119695860I0J-51000D01*
G01*
G37*
D12*
X72793860Y-121442480D03*
D11*
X65278000Y-130810000D03*
G36*
G01*
X64377000Y-129120000D02*
X64377000Y-127420000D01*
G75*
G02*
X64428000Y-127369000I51000J0D01*
G01*
X66128000Y-127369000D01*
G75*
G02*
X66179000Y-127420000I0J-51000D01*
G01*
X66179000Y-129120000D01*
G75*
G02*
X66128000Y-129171000I-51000J0D01*
G01*
X64428000Y-129171000D01*
G75*
G02*
X64377000Y-129120000I0J51000D01*
G01*
G37*
G36*
G01*
X67360400Y-144589300D02*
X67360400Y-142788300D01*
G75*
G02*
X68260900Y-141887800I900500J0D01*
G01*
X70061900Y-141887800D01*
G75*
G02*
X70962400Y-142788300I0J-900500D01*
G01*
X70962400Y-144589300D01*
G75*
G02*
X70061900Y-145489800I-900500J0D01*
G01*
X68260900Y-145489800D01*
G75*
G02*
X67360400Y-144589300I0J900500D01*
G01*
G37*
G36*
G01*
X64610400Y-140014300D02*
X64610400Y-137963300D01*
G75*
G02*
X65385900Y-137187800I775500J0D01*
G01*
X66936900Y-137187800D01*
G75*
G02*
X67712400Y-137963300I0J-775500D01*
G01*
X67712400Y-140014300D01*
G75*
G02*
X66936900Y-140789800I-775500J0D01*
G01*
X65385900Y-140789800D01*
G75*
G02*
X64610400Y-140014300I0J775500D01*
G01*
G37*
G36*
G01*
X70360400Y-140738800D02*
X70360400Y-137238800D01*
G75*
G02*
X70411400Y-137187800I51000J0D01*
G01*
X73911400Y-137187800D01*
G75*
G02*
X73962400Y-137238800I0J-51000D01*
G01*
X73962400Y-140738800D01*
G75*
G02*
X73911400Y-140789800I-51000J0D01*
G01*
X70411400Y-140789800D01*
G75*
G02*
X70360400Y-140738800I0J51000D01*
G01*
G37*
D13*
X123367800Y-150799800D03*
X123393200Y-101803200D03*
X65379600Y-150799800D03*
X65379600Y-101803200D03*
D10*
X83126580Y-106916220D03*
X83126580Y-109456220D03*
G36*
G01*
X84012926Y-112917220D02*
X82240234Y-112917220D01*
G75*
G02*
X81975580Y-112652566I0J264654D01*
G01*
X81975580Y-111339874D01*
G75*
G02*
X82240234Y-111075220I264654J0D01*
G01*
X84012926Y-111075220D01*
G75*
G02*
X84277580Y-111339874I0J-264654D01*
G01*
X84277580Y-112652566D01*
G75*
G02*
X84012926Y-112917220I-264654J0D01*
G01*
G37*
X90307160Y-106916220D03*
X90307160Y-109456220D03*
G36*
G01*
X91193506Y-112917220D02*
X89420814Y-112917220D01*
G75*
G02*
X89156160Y-112652566I0J264654D01*
G01*
X89156160Y-111339874D01*
G75*
G02*
X89420814Y-111075220I264654J0D01*
G01*
X91193506Y-111075220D01*
G75*
G02*
X91458160Y-111339874I0J-264654D01*
G01*
X91458160Y-112652566D01*
G75*
G02*
X91193506Y-112917220I-264654J0D01*
G01*
G37*
D14*
X134638660Y-127525780D03*
D15*
X139138660Y-127525780D03*
D14*
X134638660Y-112209580D03*
D15*
X139138660Y-112209580D03*
D11*
X118508780Y-100517960D03*
X118508780Y-103057960D03*
X115968780Y-100517960D03*
X115968780Y-103057960D03*
X113428780Y-100517960D03*
X113428780Y-103057960D03*
X110888780Y-100517960D03*
X110888780Y-103057960D03*
X108348780Y-100517960D03*
X108348780Y-103057960D03*
X105808780Y-100517960D03*
X105808780Y-103057960D03*
X103268780Y-100517960D03*
X103268780Y-103057960D03*
X100728780Y-100517960D03*
X100728780Y-103057960D03*
X98188780Y-100517960D03*
X98188780Y-103057960D03*
X95648780Y-100517960D03*
X95648780Y-103057960D03*
X93108780Y-100517960D03*
X93108780Y-103057960D03*
X90568780Y-100517960D03*
X90568780Y-103057960D03*
X88028780Y-100517960D03*
X88028780Y-103057960D03*
X85488780Y-100517960D03*
X85488780Y-103057960D03*
X82948780Y-100517960D03*
X82948780Y-103057960D03*
X80408780Y-100517960D03*
X80408780Y-103057960D03*
X77868780Y-100517960D03*
X77868780Y-103057960D03*
X75328780Y-100517960D03*
X75328780Y-103057960D03*
X72788780Y-100517960D03*
X72788780Y-103057960D03*
X70248780Y-100517960D03*
G36*
G01*
X71098780Y-103958960D02*
X69398780Y-103958960D01*
G75*
G02*
X69347780Y-103907960I0J51000D01*
G01*
X69347780Y-102207960D01*
G75*
G02*
X69398780Y-102156960I51000J0D01*
G01*
X71098780Y-102156960D01*
G75*
G02*
X71149780Y-102207960I0J-51000D01*
G01*
X71149780Y-103907960D01*
G75*
G02*
X71098780Y-103958960I-51000J0D01*
G01*
G37*
X65278000Y-122682000D03*
X65278000Y-120142000D03*
X65278000Y-117602000D03*
X65278000Y-115062000D03*
X65278000Y-112522000D03*
G36*
G01*
X64377000Y-110832000D02*
X64377000Y-109132000D01*
G75*
G02*
X64428000Y-109081000I51000J0D01*
G01*
X66128000Y-109081000D01*
G75*
G02*
X66179000Y-109132000I0J-51000D01*
G01*
X66179000Y-110832000D01*
G75*
G02*
X66128000Y-110883000I-51000J0D01*
G01*
X64428000Y-110883000D01*
G75*
G02*
X64377000Y-110832000I0J51000D01*
G01*
G37*
X117602000Y-150622000D03*
X115062000Y-150622000D03*
G36*
G01*
X113372000Y-151523000D02*
X111672000Y-151523000D01*
G75*
G02*
X111621000Y-151472000I0J51000D01*
G01*
X111621000Y-149772000D01*
G75*
G02*
X111672000Y-149721000I51000J0D01*
G01*
X113372000Y-149721000D01*
G75*
G02*
X113423000Y-149772000I0J-51000D01*
G01*
X113423000Y-151472000D01*
G75*
G02*
X113372000Y-151523000I-51000J0D01*
G01*
G37*
X79639160Y-152034240D03*
X79639160Y-149494240D03*
X77099160Y-152034240D03*
X77099160Y-149494240D03*
X74559160Y-152034240D03*
X74559160Y-149494240D03*
X72019160Y-152034240D03*
G36*
G01*
X71169160Y-148593240D02*
X72869160Y-148593240D01*
G75*
G02*
X72920160Y-148644240I0J-51000D01*
G01*
X72920160Y-150344240D01*
G75*
G02*
X72869160Y-150395240I-51000J0D01*
G01*
X71169160Y-150395240D01*
G75*
G02*
X71118160Y-150344240I0J51000D01*
G01*
X71118160Y-148644240D01*
G75*
G02*
X71169160Y-148593240I51000J0D01*
G01*
G37*
D16*
X139160900Y-150245100D03*
X139160900Y-137105100D03*
X133480900Y-137105100D03*
X133480900Y-150245100D03*
D17*
X136450900Y-140175100D03*
X136450900Y-142675100D03*
X136450900Y-144675100D03*
X136450900Y-147175100D03*
X133830900Y-140175100D03*
X133830900Y-142675100D03*
X133830900Y-144675100D03*
X133830900Y-147175100D03*
D18*
G36*
X70963565Y-144587674D02*
G01*
X70964400Y-144589300D01*
X70964400Y-144645660D01*
X70964390Y-144645856D01*
X70947695Y-144815362D01*
X70947619Y-144815747D01*
X70899965Y-144972841D01*
X70899815Y-144973203D01*
X70822433Y-145117974D01*
X70822215Y-145118300D01*
X70718074Y-145245197D01*
X70717797Y-145245474D01*
X70590900Y-145349615D01*
X70590574Y-145349833D01*
X70445803Y-145427215D01*
X70445441Y-145427365D01*
X70288347Y-145475019D01*
X70287962Y-145475095D01*
X70118456Y-145491790D01*
X70118260Y-145491800D01*
X70061900Y-145491800D01*
X70060168Y-145490800D01*
X70060168Y-145488800D01*
X70061704Y-145487810D01*
X70237184Y-145470527D01*
X70405737Y-145419397D01*
X70561075Y-145336367D01*
X70697229Y-145224629D01*
X70808967Y-145088475D01*
X70891997Y-144933137D01*
X70943127Y-144764584D01*
X70960410Y-144589104D01*
X70961575Y-144587478D01*
X70963565Y-144587674D01*
G37*
G36*
X67362390Y-144589104D02*
G01*
X67379673Y-144764584D01*
X67430803Y-144933137D01*
X67513833Y-145088475D01*
X67625571Y-145224629D01*
X67761725Y-145336367D01*
X67917063Y-145419397D01*
X68085616Y-145470527D01*
X68261096Y-145487810D01*
X68262722Y-145488975D01*
X68262526Y-145490965D01*
X68260900Y-145491800D01*
X68204540Y-145491800D01*
X68204344Y-145491790D01*
X68034838Y-145475095D01*
X68034453Y-145475019D01*
X67877359Y-145427365D01*
X67876997Y-145427215D01*
X67732226Y-145349833D01*
X67731900Y-145349615D01*
X67605003Y-145245474D01*
X67604726Y-145245197D01*
X67500585Y-145118300D01*
X67500367Y-145117974D01*
X67422985Y-144973203D01*
X67422835Y-144972841D01*
X67375181Y-144815747D01*
X67375105Y-144815362D01*
X67358410Y-144645856D01*
X67358400Y-144645660D01*
X67358400Y-144589300D01*
X67359400Y-144587568D01*
X67361400Y-144587568D01*
X67362390Y-144589104D01*
G37*
G36*
X68262632Y-141886800D02*
G01*
X68262632Y-141888800D01*
X68261096Y-141889790D01*
X68085616Y-141907073D01*
X67917063Y-141958203D01*
X67761725Y-142041233D01*
X67625571Y-142152971D01*
X67513833Y-142289125D01*
X67430803Y-142444463D01*
X67379673Y-142613016D01*
X67362390Y-142788496D01*
X67361225Y-142790122D01*
X67359235Y-142789926D01*
X67358400Y-142788300D01*
X67358400Y-142731940D01*
X67358410Y-142731744D01*
X67375105Y-142562238D01*
X67375181Y-142561853D01*
X67422835Y-142404759D01*
X67422985Y-142404397D01*
X67500367Y-142259626D01*
X67500585Y-142259300D01*
X67604726Y-142132403D01*
X67605003Y-142132126D01*
X67731900Y-142027985D01*
X67732226Y-142027767D01*
X67876997Y-141950385D01*
X67877359Y-141950235D01*
X68034453Y-141902581D01*
X68034838Y-141902505D01*
X68204344Y-141885810D01*
X68204540Y-141885800D01*
X68260900Y-141885800D01*
X68262632Y-141886800D01*
G37*
G36*
X70118456Y-141885810D02*
G01*
X70287962Y-141902505D01*
X70288347Y-141902581D01*
X70445441Y-141950235D01*
X70445803Y-141950385D01*
X70590574Y-142027767D01*
X70590900Y-142027985D01*
X70717797Y-142132126D01*
X70718074Y-142132403D01*
X70822215Y-142259300D01*
X70822433Y-142259626D01*
X70899815Y-142404397D01*
X70899965Y-142404759D01*
X70947619Y-142561853D01*
X70947695Y-142562238D01*
X70964390Y-142731744D01*
X70964400Y-142731940D01*
X70964400Y-142788300D01*
X70963400Y-142790032D01*
X70961400Y-142790032D01*
X70960410Y-142788496D01*
X70943127Y-142613016D01*
X70891997Y-142444463D01*
X70808967Y-142289125D01*
X70697229Y-142152971D01*
X70561075Y-142041233D01*
X70405737Y-141958203D01*
X70237184Y-141907073D01*
X70061704Y-141889790D01*
X70060078Y-141888625D01*
X70060274Y-141886635D01*
X70061900Y-141885800D01*
X70118260Y-141885800D01*
X70118456Y-141885810D01*
G37*
G36*
X67713565Y-140012674D02*
G01*
X67714400Y-140014300D01*
X67714400Y-140070660D01*
X67714390Y-140070856D01*
X67700097Y-140215975D01*
X67700021Y-140216360D01*
X67659480Y-140350006D01*
X67659330Y-140350368D01*
X67593500Y-140473527D01*
X67593282Y-140473853D01*
X67504686Y-140581809D01*
X67504409Y-140582086D01*
X67396453Y-140670682D01*
X67396127Y-140670900D01*
X67272968Y-140736730D01*
X67272606Y-140736880D01*
X67138960Y-140777421D01*
X67138575Y-140777497D01*
X66993456Y-140791790D01*
X66993260Y-140791800D01*
X66936900Y-140791800D01*
X66935168Y-140790800D01*
X66935168Y-140788800D01*
X66936704Y-140787810D01*
X67087798Y-140772929D01*
X67232902Y-140728912D01*
X67366629Y-140657434D01*
X67483840Y-140561240D01*
X67580034Y-140444029D01*
X67651512Y-140310302D01*
X67695529Y-140165198D01*
X67710410Y-140014104D01*
X67711575Y-140012478D01*
X67713565Y-140012674D01*
G37*
G36*
X64612390Y-140014104D02*
G01*
X64627271Y-140165198D01*
X64671288Y-140310302D01*
X64742766Y-140444029D01*
X64838960Y-140561240D01*
X64956171Y-140657434D01*
X65089898Y-140728912D01*
X65235002Y-140772929D01*
X65386096Y-140787810D01*
X65387722Y-140788975D01*
X65387526Y-140790965D01*
X65385900Y-140791800D01*
X65329540Y-140791800D01*
X65329344Y-140791790D01*
X65184225Y-140777497D01*
X65183840Y-140777421D01*
X65050194Y-140736880D01*
X65049832Y-140736730D01*
X64926673Y-140670900D01*
X64926347Y-140670682D01*
X64818391Y-140582086D01*
X64818114Y-140581809D01*
X64729518Y-140473853D01*
X64729300Y-140473527D01*
X64663470Y-140350368D01*
X64663320Y-140350006D01*
X64622779Y-140216360D01*
X64622703Y-140215975D01*
X64608410Y-140070856D01*
X64608400Y-140070660D01*
X64608400Y-140014300D01*
X64609400Y-140012568D01*
X64611400Y-140012568D01*
X64612390Y-140014104D01*
G37*
G36*
X65387632Y-137186800D02*
G01*
X65387632Y-137188800D01*
X65386096Y-137189790D01*
X65235002Y-137204671D01*
X65089898Y-137248688D01*
X64956171Y-137320166D01*
X64838960Y-137416360D01*
X64742766Y-137533571D01*
X64671288Y-137667298D01*
X64627271Y-137812402D01*
X64612390Y-137963496D01*
X64611225Y-137965122D01*
X64609235Y-137964926D01*
X64608400Y-137963300D01*
X64608400Y-137906940D01*
X64608410Y-137906744D01*
X64622703Y-137761625D01*
X64622779Y-137761240D01*
X64663320Y-137627594D01*
X64663470Y-137627232D01*
X64729300Y-137504073D01*
X64729518Y-137503747D01*
X64818114Y-137395791D01*
X64818391Y-137395514D01*
X64926347Y-137306918D01*
X64926673Y-137306700D01*
X65049832Y-137240870D01*
X65050194Y-137240720D01*
X65183840Y-137200179D01*
X65184225Y-137200103D01*
X65329344Y-137185810D01*
X65329540Y-137185800D01*
X65385900Y-137185800D01*
X65387632Y-137186800D01*
G37*
G36*
X66993456Y-137185810D02*
G01*
X67138575Y-137200103D01*
X67138960Y-137200179D01*
X67272606Y-137240720D01*
X67272968Y-137240870D01*
X67396127Y-137306700D01*
X67396453Y-137306918D01*
X67504409Y-137395514D01*
X67504686Y-137395791D01*
X67593282Y-137503747D01*
X67593500Y-137504073D01*
X67659330Y-137627232D01*
X67659480Y-137627594D01*
X67700021Y-137761240D01*
X67700097Y-137761625D01*
X67714390Y-137906744D01*
X67714400Y-137906940D01*
X67714400Y-137963300D01*
X67713400Y-137965032D01*
X67711400Y-137965032D01*
X67710410Y-137963496D01*
X67695529Y-137812402D01*
X67651512Y-137667298D01*
X67580034Y-137533571D01*
X67483840Y-137416360D01*
X67366629Y-137320166D01*
X67232902Y-137248688D01*
X67087798Y-137204671D01*
X66936704Y-137189790D01*
X66935078Y-137188625D01*
X66935274Y-137186635D01*
X66936900Y-137185800D01*
X66993260Y-137185800D01*
X66993456Y-137185810D01*
G37*
G36*
X91459325Y-112650940D02*
G01*
X91460160Y-112652566D01*
X91460160Y-112735508D01*
X91460150Y-112735704D01*
X91456184Y-112775976D01*
X91456108Y-112776361D01*
X91446150Y-112809185D01*
X91446000Y-112809547D01*
X91429832Y-112839795D01*
X91429614Y-112840121D01*
X91407854Y-112866637D01*
X91407577Y-112866914D01*
X91381061Y-112888674D01*
X91380735Y-112888892D01*
X91350487Y-112905060D01*
X91350125Y-112905210D01*
X91317301Y-112915168D01*
X91316916Y-112915244D01*
X91276644Y-112919210D01*
X91276448Y-112919220D01*
X91193506Y-112919220D01*
X91191774Y-112918220D01*
X91191774Y-112916220D01*
X91193310Y-112915230D01*
X91244742Y-112910165D01*
X91294016Y-112895217D01*
X91339424Y-112870947D01*
X91379224Y-112838284D01*
X91411887Y-112798484D01*
X91436157Y-112753076D01*
X91451105Y-112703802D01*
X91456170Y-112652370D01*
X91457335Y-112650744D01*
X91459325Y-112650940D01*
G37*
G36*
X96308250Y-112652370D02*
G01*
X96313315Y-112703802D01*
X96328263Y-112753076D01*
X96352533Y-112798484D01*
X96385196Y-112838284D01*
X96424996Y-112870947D01*
X96470404Y-112895217D01*
X96519678Y-112910165D01*
X96571110Y-112915230D01*
X96572736Y-112916395D01*
X96572540Y-112918385D01*
X96570914Y-112919220D01*
X96487972Y-112919220D01*
X96487776Y-112919210D01*
X96447504Y-112915244D01*
X96447119Y-112915168D01*
X96414295Y-112905210D01*
X96413933Y-112905060D01*
X96383685Y-112888892D01*
X96383359Y-112888674D01*
X96356843Y-112866914D01*
X96356566Y-112866637D01*
X96334806Y-112840121D01*
X96334588Y-112839795D01*
X96318420Y-112809547D01*
X96318270Y-112809185D01*
X96308312Y-112776361D01*
X96308236Y-112775976D01*
X96304270Y-112735704D01*
X96304260Y-112735508D01*
X96304260Y-112652566D01*
X96305260Y-112650834D01*
X96307260Y-112650834D01*
X96308250Y-112652370D01*
G37*
G36*
X84278745Y-112650940D02*
G01*
X84279580Y-112652566D01*
X84279580Y-112735508D01*
X84279570Y-112735704D01*
X84275604Y-112775976D01*
X84275528Y-112776361D01*
X84265570Y-112809185D01*
X84265420Y-112809547D01*
X84249252Y-112839795D01*
X84249034Y-112840121D01*
X84227274Y-112866637D01*
X84226997Y-112866914D01*
X84200481Y-112888674D01*
X84200155Y-112888892D01*
X84169907Y-112905060D01*
X84169545Y-112905210D01*
X84136721Y-112915168D01*
X84136336Y-112915244D01*
X84096064Y-112919210D01*
X84095868Y-112919220D01*
X84012926Y-112919220D01*
X84011194Y-112918220D01*
X84011194Y-112916220D01*
X84012730Y-112915230D01*
X84064162Y-112910165D01*
X84113436Y-112895217D01*
X84158844Y-112870947D01*
X84198644Y-112838284D01*
X84231307Y-112798484D01*
X84255577Y-112753076D01*
X84270525Y-112703802D01*
X84275590Y-112652370D01*
X84276755Y-112650744D01*
X84278745Y-112650940D01*
G37*
G36*
X89158150Y-112652370D02*
G01*
X89163215Y-112703802D01*
X89178163Y-112753076D01*
X89202433Y-112798484D01*
X89235096Y-112838284D01*
X89274896Y-112870947D01*
X89320304Y-112895217D01*
X89369578Y-112910165D01*
X89421010Y-112915230D01*
X89422636Y-112916395D01*
X89422440Y-112918385D01*
X89420814Y-112919220D01*
X89337872Y-112919220D01*
X89337676Y-112919210D01*
X89297404Y-112915244D01*
X89297019Y-112915168D01*
X89264195Y-112905210D01*
X89263833Y-112905060D01*
X89233585Y-112888892D01*
X89233259Y-112888674D01*
X89206743Y-112866914D01*
X89206466Y-112866637D01*
X89184706Y-112840121D01*
X89184488Y-112839795D01*
X89168320Y-112809547D01*
X89168170Y-112809185D01*
X89158212Y-112776361D01*
X89158136Y-112775976D01*
X89154170Y-112735704D01*
X89154160Y-112735508D01*
X89154160Y-112652566D01*
X89155160Y-112650834D01*
X89157160Y-112650834D01*
X89158150Y-112652370D01*
G37*
G36*
X98609425Y-112650940D02*
G01*
X98610260Y-112652566D01*
X98610260Y-112735508D01*
X98610250Y-112735704D01*
X98606284Y-112775976D01*
X98606208Y-112776361D01*
X98596250Y-112809185D01*
X98596100Y-112809547D01*
X98579932Y-112839795D01*
X98579714Y-112840121D01*
X98557954Y-112866637D01*
X98557677Y-112866914D01*
X98531161Y-112888674D01*
X98530835Y-112888892D01*
X98500587Y-112905060D01*
X98500225Y-112905210D01*
X98467401Y-112915168D01*
X98467016Y-112915244D01*
X98426744Y-112919210D01*
X98426548Y-112919220D01*
X98343606Y-112919220D01*
X98341874Y-112918220D01*
X98341874Y-112916220D01*
X98343410Y-112915230D01*
X98394842Y-112910165D01*
X98444116Y-112895217D01*
X98489524Y-112870947D01*
X98529324Y-112838284D01*
X98561987Y-112798484D01*
X98586257Y-112753076D01*
X98601205Y-112703802D01*
X98606270Y-112652370D01*
X98607435Y-112650744D01*
X98609425Y-112650940D01*
G37*
G36*
X81977570Y-112652370D02*
G01*
X81982635Y-112703802D01*
X81997583Y-112753076D01*
X82021853Y-112798484D01*
X82054516Y-112838284D01*
X82094316Y-112870947D01*
X82139724Y-112895217D01*
X82188998Y-112910165D01*
X82240430Y-112915230D01*
X82242056Y-112916395D01*
X82241860Y-112918385D01*
X82240234Y-112919220D01*
X82157292Y-112919220D01*
X82157096Y-112919210D01*
X82116824Y-112915244D01*
X82116439Y-112915168D01*
X82083615Y-112905210D01*
X82083253Y-112905060D01*
X82053005Y-112888892D01*
X82052679Y-112888674D01*
X82026163Y-112866914D01*
X82025886Y-112866637D01*
X82004126Y-112840121D01*
X82003908Y-112839795D01*
X81987740Y-112809547D01*
X81987590Y-112809185D01*
X81977632Y-112776361D01*
X81977556Y-112775976D01*
X81973590Y-112735704D01*
X81973580Y-112735508D01*
X81973580Y-112652566D01*
X81974580Y-112650834D01*
X81976580Y-112650834D01*
X81977570Y-112652370D01*
G37*
G36*
X82241966Y-111074220D02*
G01*
X82241966Y-111076220D01*
X82240430Y-111077210D01*
X82188998Y-111082275D01*
X82139724Y-111097223D01*
X82094316Y-111121493D01*
X82054516Y-111154156D01*
X82021853Y-111193956D01*
X81997583Y-111239364D01*
X81982635Y-111288638D01*
X81977570Y-111340070D01*
X81976405Y-111341696D01*
X81974415Y-111341500D01*
X81973580Y-111339874D01*
X81973580Y-111256932D01*
X81973590Y-111256736D01*
X81977556Y-111216464D01*
X81977632Y-111216079D01*
X81987590Y-111183255D01*
X81987740Y-111182893D01*
X82003908Y-111152645D01*
X82004126Y-111152319D01*
X82025886Y-111125803D01*
X82026163Y-111125526D01*
X82052679Y-111103766D01*
X82053005Y-111103548D01*
X82083253Y-111087380D01*
X82083615Y-111087230D01*
X82116439Y-111077272D01*
X82116824Y-111077196D01*
X82157096Y-111073230D01*
X82157292Y-111073220D01*
X82240234Y-111073220D01*
X82241966Y-111074220D01*
G37*
G36*
X89422546Y-111074220D02*
G01*
X89422546Y-111076220D01*
X89421010Y-111077210D01*
X89369578Y-111082275D01*
X89320304Y-111097223D01*
X89274896Y-111121493D01*
X89235096Y-111154156D01*
X89202433Y-111193956D01*
X89178163Y-111239364D01*
X89163215Y-111288638D01*
X89158150Y-111340070D01*
X89156985Y-111341696D01*
X89154995Y-111341500D01*
X89154160Y-111339874D01*
X89154160Y-111256932D01*
X89154170Y-111256736D01*
X89158136Y-111216464D01*
X89158212Y-111216079D01*
X89168170Y-111183255D01*
X89168320Y-111182893D01*
X89184488Y-111152645D01*
X89184706Y-111152319D01*
X89206466Y-111125803D01*
X89206743Y-111125526D01*
X89233259Y-111103766D01*
X89233585Y-111103548D01*
X89263833Y-111087380D01*
X89264195Y-111087230D01*
X89297019Y-111077272D01*
X89297404Y-111077196D01*
X89337676Y-111073230D01*
X89337872Y-111073220D01*
X89420814Y-111073220D01*
X89422546Y-111074220D01*
G37*
G36*
X96572646Y-111074220D02*
G01*
X96572646Y-111076220D01*
X96571110Y-111077210D01*
X96519678Y-111082275D01*
X96470404Y-111097223D01*
X96424996Y-111121493D01*
X96385196Y-111154156D01*
X96352533Y-111193956D01*
X96328263Y-111239364D01*
X96313315Y-111288638D01*
X96308250Y-111340070D01*
X96307085Y-111341696D01*
X96305095Y-111341500D01*
X96304260Y-111339874D01*
X96304260Y-111256932D01*
X96304270Y-111256736D01*
X96308236Y-111216464D01*
X96308312Y-111216079D01*
X96318270Y-111183255D01*
X96318420Y-111182893D01*
X96334588Y-111152645D01*
X96334806Y-111152319D01*
X96356566Y-111125803D01*
X96356843Y-111125526D01*
X96383359Y-111103766D01*
X96383685Y-111103548D01*
X96413933Y-111087380D01*
X96414295Y-111087230D01*
X96447119Y-111077272D01*
X96447504Y-111077196D01*
X96487776Y-111073230D01*
X96487972Y-111073220D01*
X96570914Y-111073220D01*
X96572646Y-111074220D01*
G37*
G36*
X84096064Y-111073230D02*
G01*
X84136336Y-111077196D01*
X84136721Y-111077272D01*
X84169545Y-111087230D01*
X84169907Y-111087380D01*
X84200155Y-111103548D01*
X84200481Y-111103766D01*
X84226997Y-111125526D01*
X84227274Y-111125803D01*
X84249034Y-111152319D01*
X84249252Y-111152645D01*
X84265420Y-111182893D01*
X84265570Y-111183255D01*
X84275528Y-111216079D01*
X84275604Y-111216464D01*
X84279570Y-111256736D01*
X84279580Y-111256932D01*
X84279580Y-111339874D01*
X84278580Y-111341606D01*
X84276580Y-111341606D01*
X84275590Y-111340070D01*
X84270525Y-111288638D01*
X84255577Y-111239364D01*
X84231307Y-111193956D01*
X84198644Y-111154156D01*
X84158844Y-111121493D01*
X84113436Y-111097223D01*
X84064162Y-111082275D01*
X84012730Y-111077210D01*
X84011104Y-111076045D01*
X84011300Y-111074055D01*
X84012926Y-111073220D01*
X84095868Y-111073220D01*
X84096064Y-111073230D01*
G37*
G36*
X98426744Y-111073230D02*
G01*
X98467016Y-111077196D01*
X98467401Y-111077272D01*
X98500225Y-111087230D01*
X98500587Y-111087380D01*
X98530835Y-111103548D01*
X98531161Y-111103766D01*
X98557677Y-111125526D01*
X98557954Y-111125803D01*
X98579714Y-111152319D01*
X98579932Y-111152645D01*
X98596100Y-111182893D01*
X98596250Y-111183255D01*
X98606208Y-111216079D01*
X98606284Y-111216464D01*
X98610250Y-111256736D01*
X98610260Y-111256932D01*
X98610260Y-111339874D01*
X98609260Y-111341606D01*
X98607260Y-111341606D01*
X98606270Y-111340070D01*
X98601205Y-111288638D01*
X98586257Y-111239364D01*
X98561987Y-111193956D01*
X98529324Y-111154156D01*
X98489524Y-111121493D01*
X98444116Y-111097223D01*
X98394842Y-111082275D01*
X98343410Y-111077210D01*
X98341784Y-111076045D01*
X98341980Y-111074055D01*
X98343606Y-111073220D01*
X98426548Y-111073220D01*
X98426744Y-111073230D01*
G37*
G36*
X91276644Y-111073230D02*
G01*
X91316916Y-111077196D01*
X91317301Y-111077272D01*
X91350125Y-111087230D01*
X91350487Y-111087380D01*
X91380735Y-111103548D01*
X91381061Y-111103766D01*
X91407577Y-111125526D01*
X91407854Y-111125803D01*
X91429614Y-111152319D01*
X91429832Y-111152645D01*
X91446000Y-111182893D01*
X91446150Y-111183255D01*
X91456108Y-111216079D01*
X91456184Y-111216464D01*
X91460150Y-111256736D01*
X91460160Y-111256932D01*
X91460160Y-111339874D01*
X91459160Y-111341606D01*
X91457160Y-111341606D01*
X91456170Y-111340070D01*
X91451105Y-111288638D01*
X91436157Y-111239364D01*
X91411887Y-111193956D01*
X91379224Y-111154156D01*
X91339424Y-111121493D01*
X91294016Y-111097223D01*
X91244742Y-111082275D01*
X91193310Y-111077210D01*
X91191684Y-111076045D01*
X91191880Y-111074055D01*
X91193506Y-111073220D01*
X91276448Y-111073220D01*
X91276644Y-111073230D01*
G37*
M02*
