M48
; DRILL file {KiCad 5.1.6-c6e7f7d~87~ubuntu18.04.1} date Tue Sep  1 17:05:05 2020
; FORMAT={-:-/ absolute / inch / decimal}
; #@! TF.CreationDate,2020-09-01T17:05:05+02:00
; #@! TF.GenerationSoftware,Kicad,Pcbnew,5.1.6-c6e7f7d~87~ubuntu18.04.1
; #@! TF.FileFunction,Plated,1,2,PTH
FMAT,2
INCH
T1C0.0157
T2C0.0354
T3C0.0394
T4C0.0472
T5C0.0880
T6C0.0906
T7C0.0987
%
G90
G05
T1
X2.93Y-4.31
X2.97Y-4.59
X3.0596Y-5.1121
X3.079Y-5.631
X3.0976Y-5.0103
X3.214Y-5.427
X3.2215Y-4.5091
X3.2218Y-5.2046
X3.2296Y-5.1296
X3.2365Y-5.3001
X3.2888Y-4.5039
X3.3163Y-5.0103
X3.3314Y-5.6283
X3.3667Y-4.1843
X3.3904Y-5.1007
X3.4643Y-5.4106
X3.4651Y-4.8345
X3.476Y-5.2261
X3.5047Y-5.1012
X3.5221Y-4.4332
X3.55Y-5.59
X3.5901Y-4.6288
X3.62Y-5.12
X3.6392Y-4.5367
X3.69Y-5.29
X3.6906Y-4.8247
X3.7023Y-4.4795
X3.75Y-4.8992
X3.75Y-5.11
X3.75Y-5.35
X3.7682Y-5.4887
X3.7757Y-4.1764
X3.841Y-5.2204
X3.8627Y-4.9692
X3.9955Y-4.8092
X4.0314Y-5.0654
X4.059Y-5.2074
X4.0869Y-5.52
X4.1969Y-5.2613
X4.198Y-5.0189
X4.3Y-5.31
X4.3153Y-4.5759
X4.3658Y-4.5329
X4.385Y-5.395
X4.391Y-4.715
X4.4592Y-4.99
X4.5579Y-4.3498
X4.5617Y-4.4267
X4.57Y-5.5
X4.57Y-5.63
X4.61Y-5.05
X4.72Y-5.77
X4.77Y-4.52
X4.91Y-5.16
X4.99Y-5.48
X5.1299Y-4.884
X5.5234Y-5.209
X5.5861Y-5.6425
X5.6413Y-5.5187
T2
X5.2689Y-5.5187
X5.2689Y-5.6171
X5.2689Y-5.6959
X5.2689Y-5.7943
X5.3721Y-5.5187
X5.3721Y-5.6171
X5.3721Y-5.6959
X5.3721Y-5.7943
T3
X3.3943Y-4.5459
X3.3943Y-4.6459
X3.3943Y-4.7459
X3.2943Y-4.6458
X2.7657Y-3.9574
X2.7657Y-4.0574
X2.8657Y-3.9574
X2.8657Y-4.0574
X2.9657Y-3.9574
X2.9657Y-4.0574
X3.0657Y-3.9574
X3.0657Y-4.0574
X3.1657Y-3.9574
X3.1657Y-4.0574
X3.2657Y-3.9574
X3.2657Y-4.0574
X3.3657Y-3.9574
X3.3657Y-4.0574
X3.4657Y-3.9574
X3.4657Y-4.0574
X3.5657Y-3.9574
X3.5657Y-4.0574
X3.6657Y-3.9574
X3.6657Y-4.0574
X3.7657Y-3.9574
X3.7657Y-4.0574
X3.8657Y-3.9574
X3.8657Y-4.0574
X3.9657Y-3.9574
X3.9657Y-4.0574
X4.0657Y-3.9574
X4.0657Y-4.0574
X4.1657Y-3.9574
X4.1657Y-4.0574
X4.2657Y-3.9574
X4.2657Y-4.0574
X4.3657Y-3.9574
X4.3657Y-4.0574
X4.4657Y-3.9574
X4.4657Y-4.0574
X4.5657Y-3.9574
X4.5657Y-4.0574
X4.6657Y-3.9574
X4.6657Y-4.0574
X3.4943Y-4.6458
X2.8043Y-5.8859
X2.8043Y-5.9859
X2.9043Y-5.8859
X2.9043Y-5.9859
X3.0043Y-5.8859
X3.0043Y-5.9859
X3.1043Y-5.8859
X3.1043Y-5.9859
X3.6955Y-4.602
X3.7955Y-4.602
X3.8955Y-4.602
X3.9955Y-4.602
X2.57Y-4.33
X2.57Y-4.43
X2.57Y-4.53
X2.57Y-4.63
X2.57Y-4.73
X2.57Y-4.83
X4.43Y-5.93
X4.53Y-5.93
X4.63Y-5.93
X4.2811Y-4.3538
X4.1811Y-4.2539
X4.1811Y-4.3539
X4.1811Y-4.4539
X4.0812Y-4.3537
X2.57Y-5.05
X2.57Y-5.15
T4
X3.6393Y-4.3324
X3.7393Y-4.3324
X3.8393Y-4.3324
X3.1745Y-4.3329
X3.2745Y-4.3329
X3.3745Y-4.3329
T5
X5.3007Y-5.0207
X5.3007Y-4.4177
T6
X5.2552Y-5.3978
X5.2552Y-5.9152
X5.4788Y-5.3978
X5.4788Y-5.9152
T7
X5.4779Y-5.0207
X5.4779Y-4.4177
T3
G00X2.6048Y-5.4326
M15
G01X2.6048Y-5.5114
M16
G05
G00X2.6835Y-5.657
M15
G01X2.7623Y-5.657
M16
G05
G00X2.841Y-5.4326
M15
G01X2.841Y-5.5114
M16
G05
T0
M30
