M48
; DRILL file {KiCad (5.1.5)-3} date 13/11/2020 15:56:32
; FORMAT={-:-/ absolute / inch / decimal}
; #@! TF.CreationDate,2020-11-13T15:56:32+01:00
; #@! TF.GenerationSoftware,Kicad,Pcbnew,(5.1.5)-3
; #@! TF.FileFunction,Plated,1,2,PTH
FMAT,2
INCH
T1C0.0157
T2C0.0197
T3C0.0354
T4C0.0394
T5C0.0472
T6C0.0880
T7C0.0906
T8C0.0987
%
G90
G05
T1
X2.93Y-4.31
X2.97Y-4.59
X3.023Y-5.1633
X3.0365Y-5.0196
X3.079Y-5.631
X3.1594Y-5.0196
X3.178Y-5.4593
X3.2215Y-4.5091
X3.2224Y-5.6552
X3.2888Y-4.5039
X3.3382Y-5.229
X3.3812Y-4.9219
X3.3903Y-5.2719
X3.5165Y-5.4859
X3.5169Y-5.53
X3.5363Y-5.3535
X3.5431Y-4.8297
X3.5901Y-4.6288
X3.62Y-5.12
X3.6543Y-5.0157
X3.6891Y-4.4807
X3.69Y-5.29
X3.6906Y-4.8247
X3.7381Y-4.5162
X3.75Y-4.8992
X3.75Y-5.11
X3.75Y-5.35
X3.7659Y-4.1429
X3.7682Y-5.4887
X3.8342Y-5.2277
X3.8627Y-4.9692
X3.9955Y-4.8092
X4.0314Y-5.0654
X4.059Y-5.2074
X4.0869Y-5.52
X4.1969Y-5.2613
X4.198Y-5.0189
X4.3153Y-4.6564
X4.3153Y-4.5759
X4.3452Y-4.8336
X4.3531Y-5.0922
X4.3658Y-4.5329
X4.5579Y-4.3498
X4.5617Y-4.4267
X4.57Y-5.5
X4.57Y-5.63
X4.5842Y-6.0119
X4.77Y-4.52
X4.7878Y-4.6245
X4.8239Y-5.2096
X5.0676Y-5.932
X5.1409Y-4.7056
X5.4751Y-5.2013
X5.5873Y-5.6442
T2
X4.494Y-4.9415
X4.5342Y-5.398
X4.542Y-4.9415
X4.5918Y-5.398
X4.5924Y-4.9415
X4.642Y-4.9415
X4.6509Y-5.398
X4.7032Y-5.7613
X4.7091Y-5.398
X4.7612Y-5.7613
X4.8136Y-5.7613
X4.8754Y-5.7613
X4.9917Y-4.5879
X4.9917Y-4.6391
X4.9917Y-4.6812
X4.9917Y-4.7308
X5.3006Y-4.6396
X5.3006Y-4.6833
X5.3006Y-4.7278
X5.3006Y-4.7766
X5.6027Y-5.2474
X5.6027Y-5.3548
X5.605Y-5.299
X5.605Y-5.4111
T3
X5.2689Y-5.5187
X5.2689Y-5.6171
X5.2689Y-5.6959
X5.2689Y-5.7943
X5.3721Y-5.5187
X5.3721Y-5.6171
X5.3721Y-5.6959
X5.3721Y-5.7943
T4
X3.6955Y-4.602
X3.7955Y-4.602
X3.8955Y-4.602
X3.9955Y-4.602
X2.7657Y-3.9574
X2.7657Y-4.0574
X2.8657Y-3.9574
X2.8657Y-4.0574
X2.9657Y-3.9574
X2.9657Y-4.0574
X3.0657Y-3.9574
X3.0657Y-4.0574
X3.1657Y-3.9574
X3.1657Y-4.0574
X3.2657Y-3.9574
X3.2657Y-4.0574
X3.3657Y-3.9574
X3.3657Y-4.0574
X3.4657Y-3.9574
X3.4657Y-4.0574
X3.5657Y-3.9574
X3.5657Y-4.0574
X3.6657Y-3.9574
X3.6657Y-4.0574
X3.7657Y-3.9574
X3.7657Y-4.0574
X3.8657Y-3.9574
X3.8657Y-4.0574
X3.9657Y-3.9574
X3.9657Y-4.0574
X4.0657Y-3.9574
X4.0657Y-4.0574
X4.1657Y-3.9574
X4.1657Y-4.0574
X4.2657Y-3.9574
X4.2657Y-4.0574
X4.3657Y-3.9574
X4.3657Y-4.0574
X4.4657Y-3.9574
X4.4657Y-4.0574
X4.5657Y-3.9574
X4.5657Y-4.0574
X4.6657Y-3.9574
X4.6657Y-4.0574
X3.3943Y-4.5459
X3.3943Y-4.6459
X3.3943Y-4.7459
X3.4943Y-4.6458
X3.2943Y-4.6458
X4.1811Y-4.2539
X4.1811Y-4.3539
X4.1811Y-4.4539
X4.43Y-5.93
X4.53Y-5.93
X4.63Y-5.93
X4.0812Y-4.3537
X2.8354Y-5.8856
X2.8354Y-5.9856
X2.9354Y-5.8856
X2.9354Y-5.9856
X3.0354Y-5.8856
X3.0354Y-5.9856
X3.1354Y-5.8856
X3.1354Y-5.9856
X2.57Y-5.05
X2.57Y-5.15
X4.2811Y-4.3538
X2.57Y-4.33
X2.57Y-4.43
X2.57Y-4.53
X2.57Y-4.63
X2.57Y-4.73
X2.57Y-4.83
T5
X3.2727Y-4.2093
X3.2727Y-4.3093
X3.2727Y-4.4093
X3.8369Y-4.2093
X3.8369Y-4.3093
X3.8369Y-4.4093
X3.5554Y-4.2093
X3.5554Y-4.3093
X3.5554Y-4.4093
T6
X5.3007Y-4.4177
X5.3007Y-5.0207
T7
X5.2552Y-5.3978
X5.2552Y-5.9152
X5.4788Y-5.3978
X5.4788Y-5.9152
T8
X5.4779Y-4.4177
X5.4779Y-5.0207
T4
G00X2.6048Y-5.4326
M15
G01X2.6048Y-5.5114
M16
G05
G00X2.6835Y-5.657
M15
G01X2.7623Y-5.657
M16
G05
G00X2.841Y-5.4326
M15
G01X2.841Y-5.5114
M16
G05
T0
M30
