G04 #@! TF.GenerationSoftware,KiCad,Pcbnew,5.1.7-a382d34a8~88~ubuntu18.04.1*
G04 #@! TF.CreationDate,2020-12-27T20:30:07+01:00*
G04 #@! TF.ProjectId,res_hat,7265735f-6861-4742-9e6b-696361645f70,V3*
G04 #@! TF.SameCoordinates,Original*
G04 #@! TF.FileFunction,Soldermask,Bot*
G04 #@! TF.FilePolarity,Negative*
%FSLAX46Y46*%
G04 Gerber Fmt 4.6, Leading zero omitted, Abs format (unit mm)*
G04 Created by KiCad (PCBNEW 5.1.7-a382d34a8~88~ubuntu18.04.1) date 2020-12-27 20:30:07*
%MOMM*%
%LPD*%
G01*
G04 APERTURE LIST*
%ADD10O,2.302000X1.842000*%
%ADD11O,1.802000X1.802000*%
%ADD12C,3.302000*%
%ADD13C,6.200000*%
%ADD14C,3.456000*%
%ADD15C,3.861000*%
%ADD16C,3.402000*%
%ADD17C,1.502000*%
%ADD18C,0.100000*%
G04 APERTURE END LIST*
G36*
G01*
X83427521Y-133555820D02*
X81902519Y-133555820D01*
G75*
G02*
X81851520Y-133504821I0J50999D01*
G01*
X81851520Y-132854819D01*
G75*
G02*
X81902519Y-132803820I50999J0D01*
G01*
X83427521Y-132803820D01*
G75*
G02*
X83478520Y-132854819I0J-50999D01*
G01*
X83478520Y-133504821D01*
G75*
G02*
X83427521Y-133555820I-50999J0D01*
G01*
G37*
G36*
G01*
X83427521Y-134825820D02*
X81902519Y-134825820D01*
G75*
G02*
X81851520Y-134774821I0J50999D01*
G01*
X81851520Y-134124819D01*
G75*
G02*
X81902519Y-134073820I50999J0D01*
G01*
X83427521Y-134073820D01*
G75*
G02*
X83478520Y-134124819I0J-50999D01*
G01*
X83478520Y-134774821D01*
G75*
G02*
X83427521Y-134825820I-50999J0D01*
G01*
G37*
G36*
G01*
X83427521Y-136095820D02*
X81902519Y-136095820D01*
G75*
G02*
X81851520Y-136044821I0J50999D01*
G01*
X81851520Y-135394819D01*
G75*
G02*
X81902519Y-135343820I50999J0D01*
G01*
X83427521Y-135343820D01*
G75*
G02*
X83478520Y-135394819I0J-50999D01*
G01*
X83478520Y-136044821D01*
G75*
G02*
X83427521Y-136095820I-50999J0D01*
G01*
G37*
G36*
G01*
X83427521Y-137365820D02*
X81902519Y-137365820D01*
G75*
G02*
X81851520Y-137314821I0J50999D01*
G01*
X81851520Y-136664819D01*
G75*
G02*
X81902519Y-136613820I50999J0D01*
G01*
X83427521Y-136613820D01*
G75*
G02*
X83478520Y-136664819I0J-50999D01*
G01*
X83478520Y-137314821D01*
G75*
G02*
X83427521Y-137365820I-50999J0D01*
G01*
G37*
G36*
G01*
X88851521Y-137365820D02*
X87326519Y-137365820D01*
G75*
G02*
X87275520Y-137314821I0J50999D01*
G01*
X87275520Y-136664819D01*
G75*
G02*
X87326519Y-136613820I50999J0D01*
G01*
X88851521Y-136613820D01*
G75*
G02*
X88902520Y-136664819I0J-50999D01*
G01*
X88902520Y-137314821D01*
G75*
G02*
X88851521Y-137365820I-50999J0D01*
G01*
G37*
G36*
G01*
X88851521Y-136095820D02*
X87326519Y-136095820D01*
G75*
G02*
X87275520Y-136044821I0J50999D01*
G01*
X87275520Y-135394819D01*
G75*
G02*
X87326519Y-135343820I50999J0D01*
G01*
X88851521Y-135343820D01*
G75*
G02*
X88902520Y-135394819I0J-50999D01*
G01*
X88902520Y-136044821D01*
G75*
G02*
X88851521Y-136095820I-50999J0D01*
G01*
G37*
G36*
G01*
X88851521Y-134825820D02*
X87326519Y-134825820D01*
G75*
G02*
X87275520Y-134774821I0J50999D01*
G01*
X87275520Y-134124819D01*
G75*
G02*
X87326519Y-134073820I50999J0D01*
G01*
X88851521Y-134073820D01*
G75*
G02*
X88902520Y-134124819I0J-50999D01*
G01*
X88902520Y-134774821D01*
G75*
G02*
X88851521Y-134825820I-50999J0D01*
G01*
G37*
G36*
G01*
X88851521Y-133555820D02*
X87326519Y-133555820D01*
G75*
G02*
X87275520Y-133504821I0J50999D01*
G01*
X87275520Y-132854819D01*
G75*
G02*
X87326519Y-132803820I50999J0D01*
G01*
X88851521Y-132803820D01*
G75*
G02*
X88902520Y-132854819I0J-50999D01*
G01*
X88902520Y-133504821D01*
G75*
G02*
X88851521Y-133555820I-50999J0D01*
G01*
G37*
G36*
G01*
X83244641Y-124101940D02*
X81719639Y-124101940D01*
G75*
G02*
X81668640Y-124050941I0J50999D01*
G01*
X81668640Y-123400939D01*
G75*
G02*
X81719639Y-123349940I50999J0D01*
G01*
X83244641Y-123349940D01*
G75*
G02*
X83295640Y-123400939I0J-50999D01*
G01*
X83295640Y-124050941D01*
G75*
G02*
X83244641Y-124101940I-50999J0D01*
G01*
G37*
G36*
G01*
X83244641Y-125371940D02*
X81719639Y-125371940D01*
G75*
G02*
X81668640Y-125320941I0J50999D01*
G01*
X81668640Y-124670939D01*
G75*
G02*
X81719639Y-124619940I50999J0D01*
G01*
X83244641Y-124619940D01*
G75*
G02*
X83295640Y-124670939I0J-50999D01*
G01*
X83295640Y-125320941D01*
G75*
G02*
X83244641Y-125371940I-50999J0D01*
G01*
G37*
G36*
G01*
X83244641Y-126641940D02*
X81719639Y-126641940D01*
G75*
G02*
X81668640Y-126590941I0J50999D01*
G01*
X81668640Y-125940939D01*
G75*
G02*
X81719639Y-125889940I50999J0D01*
G01*
X83244641Y-125889940D01*
G75*
G02*
X83295640Y-125940939I0J-50999D01*
G01*
X83295640Y-126590941D01*
G75*
G02*
X83244641Y-126641940I-50999J0D01*
G01*
G37*
G36*
G01*
X83244641Y-127911940D02*
X81719639Y-127911940D01*
G75*
G02*
X81668640Y-127860941I0J50999D01*
G01*
X81668640Y-127210939D01*
G75*
G02*
X81719639Y-127159940I50999J0D01*
G01*
X83244641Y-127159940D01*
G75*
G02*
X83295640Y-127210939I0J-50999D01*
G01*
X83295640Y-127860941D01*
G75*
G02*
X83244641Y-127911940I-50999J0D01*
G01*
G37*
G36*
G01*
X88668641Y-127911940D02*
X87143639Y-127911940D01*
G75*
G02*
X87092640Y-127860941I0J50999D01*
G01*
X87092640Y-127210939D01*
G75*
G02*
X87143639Y-127159940I50999J0D01*
G01*
X88668641Y-127159940D01*
G75*
G02*
X88719640Y-127210939I0J-50999D01*
G01*
X88719640Y-127860941D01*
G75*
G02*
X88668641Y-127911940I-50999J0D01*
G01*
G37*
G36*
G01*
X88668641Y-126641940D02*
X87143639Y-126641940D01*
G75*
G02*
X87092640Y-126590941I0J50999D01*
G01*
X87092640Y-125940939D01*
G75*
G02*
X87143639Y-125889940I50999J0D01*
G01*
X88668641Y-125889940D01*
G75*
G02*
X88719640Y-125940939I0J-50999D01*
G01*
X88719640Y-126590941D01*
G75*
G02*
X88668641Y-126641940I-50999J0D01*
G01*
G37*
G36*
G01*
X88668641Y-125371940D02*
X87143639Y-125371940D01*
G75*
G02*
X87092640Y-125320941I0J50999D01*
G01*
X87092640Y-124670939D01*
G75*
G02*
X87143639Y-124619940I50999J0D01*
G01*
X88668641Y-124619940D01*
G75*
G02*
X88719640Y-124670939I0J-50999D01*
G01*
X88719640Y-125320941D01*
G75*
G02*
X88668641Y-125371940I-50999J0D01*
G01*
G37*
G36*
G01*
X88668641Y-124101940D02*
X87143639Y-124101940D01*
G75*
G02*
X87092640Y-124050941I0J50999D01*
G01*
X87092640Y-123400939D01*
G75*
G02*
X87143639Y-123349940I50999J0D01*
G01*
X88668641Y-123349940D01*
G75*
G02*
X88719640Y-123400939I0J-50999D01*
G01*
X88719640Y-124050941D01*
G75*
G02*
X88668641Y-124101940I-50999J0D01*
G01*
G37*
D10*
X97457260Y-106916220D03*
X97457260Y-109456220D03*
G36*
G01*
X98343606Y-112917220D02*
X96570914Y-112917220D01*
G75*
G02*
X96306260Y-112652566I0J264654D01*
G01*
X96306260Y-111339874D01*
G75*
G02*
X96570914Y-111075220I264654J0D01*
G01*
X98343606Y-111075220D01*
G75*
G02*
X98608260Y-111339874I0J-264654D01*
G01*
X98608260Y-112652566D01*
G75*
G02*
X98343606Y-112917220I-264654J0D01*
G01*
G37*
G36*
G01*
X130471940Y-147118493D02*
X130471940Y-144204267D01*
G75*
G02*
X130740827Y-143935380I268887J0D01*
G01*
X131655053Y-143935380D01*
G75*
G02*
X131923940Y-144204267I0J-268887D01*
G01*
X131923940Y-147118493D01*
G75*
G02*
X131655053Y-147387380I-268887J0D01*
G01*
X130740827Y-147387380D01*
G75*
G02*
X130471940Y-147118493I0J268887D01*
G01*
G37*
G36*
G01*
X124671940Y-147118493D02*
X124671940Y-144204267D01*
G75*
G02*
X124940827Y-143935380I268887J0D01*
G01*
X125855053Y-143935380D01*
G75*
G02*
X126123940Y-144204267I0J-268887D01*
G01*
X126123940Y-147118493D01*
G75*
G02*
X125855053Y-147387380I-268887J0D01*
G01*
X124940827Y-147387380D01*
G75*
G02*
X124671940Y-147118493I0J268887D01*
G01*
G37*
G36*
G01*
X130062220Y-116720033D02*
X130062220Y-113805807D01*
G75*
G02*
X130331107Y-113536920I268887J0D01*
G01*
X131245333Y-113536920D01*
G75*
G02*
X131514220Y-113805807I0J-268887D01*
G01*
X131514220Y-116720033D01*
G75*
G02*
X131245333Y-116988920I-268887J0D01*
G01*
X130331107Y-116988920D01*
G75*
G02*
X130062220Y-116720033I0J268887D01*
G01*
G37*
G36*
G01*
X124262220Y-116720033D02*
X124262220Y-113805807D01*
G75*
G02*
X124531107Y-113536920I268887J0D01*
G01*
X125445333Y-113536920D01*
G75*
G02*
X125714220Y-113805807I0J-268887D01*
G01*
X125714220Y-116720033D01*
G75*
G02*
X125445333Y-116988920I-268887J0D01*
G01*
X124531107Y-116988920D01*
G75*
G02*
X124262220Y-116720033I0J268887D01*
G01*
G37*
D11*
X106199940Y-113129060D03*
X106199940Y-110589060D03*
G36*
G01*
X105298940Y-108899060D02*
X105298940Y-107199060D01*
G75*
G02*
X105349940Y-107148060I51000J0D01*
G01*
X107049940Y-107148060D01*
G75*
G02*
X107100940Y-107199060I0J-51000D01*
G01*
X107100940Y-108899060D01*
G75*
G02*
X107049940Y-108950060I-51000J0D01*
G01*
X105349940Y-108950060D01*
G75*
G02*
X105298940Y-108899060I0J51000D01*
G01*
G37*
D12*
X87376000Y-147962620D03*
X107952540Y-148043900D03*
D11*
X101485700Y-116890800D03*
X98945700Y-116890800D03*
X96405700Y-116890800D03*
G36*
G01*
X94715700Y-117791800D02*
X93015700Y-117791800D01*
G75*
G02*
X92964700Y-117740800I0J51000D01*
G01*
X92964700Y-116040800D01*
G75*
G02*
X93015700Y-115989800I51000J0D01*
G01*
X94715700Y-115989800D01*
G75*
G02*
X94766700Y-116040800I0J-51000D01*
G01*
X94766700Y-117740800D01*
G75*
G02*
X94715700Y-117791800I-51000J0D01*
G01*
G37*
G36*
G01*
X107838940Y-111436520D02*
X107838940Y-109736520D01*
G75*
G02*
X107889940Y-109685520I51000J0D01*
G01*
X109589940Y-109685520D01*
G75*
G02*
X109640940Y-109736520I0J-51000D01*
G01*
X109640940Y-111436520D01*
G75*
G02*
X109589940Y-111487520I-51000J0D01*
G01*
X107889940Y-111487520D01*
G75*
G02*
X107838940Y-111436520I0J51000D01*
G01*
G37*
G36*
G01*
X87854220Y-118853320D02*
X87854220Y-117153320D01*
G75*
G02*
X87905220Y-117102320I51000J0D01*
G01*
X89605220Y-117102320D01*
G75*
G02*
X89656220Y-117153320I0J-51000D01*
G01*
X89656220Y-118853320D01*
G75*
G02*
X89605220Y-118904320I-51000J0D01*
G01*
X87905220Y-118904320D01*
G75*
G02*
X87854220Y-118853320I0J51000D01*
G01*
G37*
G36*
G01*
X102761480Y-111433980D02*
X102761480Y-109733980D01*
G75*
G02*
X102812480Y-109682980I51000J0D01*
G01*
X104512480Y-109682980D01*
G75*
G02*
X104563480Y-109733980I0J-51000D01*
G01*
X104563480Y-111433980D01*
G75*
G02*
X104512480Y-111484980I-51000J0D01*
G01*
X102812480Y-111484980D01*
G75*
G02*
X102761480Y-111433980I0J51000D01*
G01*
G37*
G36*
G01*
X82774220Y-118853320D02*
X82774220Y-117153320D01*
G75*
G02*
X82825220Y-117102320I51000J0D01*
G01*
X84525220Y-117102320D01*
G75*
G02*
X84576220Y-117153320I0J-51000D01*
G01*
X84576220Y-118853320D01*
G75*
G02*
X84525220Y-118904320I-51000J0D01*
G01*
X82825220Y-118904320D01*
G75*
G02*
X82774220Y-118853320I0J51000D01*
G01*
G37*
X86215220Y-115465860D03*
X86215220Y-118005860D03*
G36*
G01*
X87116220Y-119695860D02*
X87116220Y-121395860D01*
G75*
G02*
X87065220Y-121446860I-51000J0D01*
G01*
X85365220Y-121446860D01*
G75*
G02*
X85314220Y-121395860I0J51000D01*
G01*
X85314220Y-119695860D01*
G75*
G02*
X85365220Y-119644860I51000J0D01*
G01*
X87065220Y-119644860D01*
G75*
G02*
X87116220Y-119695860I0J-51000D01*
G01*
G37*
D12*
X72793860Y-121442480D03*
D11*
X65278000Y-130810000D03*
G36*
G01*
X64377000Y-129120000D02*
X64377000Y-127420000D01*
G75*
G02*
X64428000Y-127369000I51000J0D01*
G01*
X66128000Y-127369000D01*
G75*
G02*
X66179000Y-127420000I0J-51000D01*
G01*
X66179000Y-129120000D01*
G75*
G02*
X66128000Y-129171000I-51000J0D01*
G01*
X64428000Y-129171000D01*
G75*
G02*
X64377000Y-129120000I0J51000D01*
G01*
G37*
G36*
G01*
X67360400Y-144589300D02*
X67360400Y-142788300D01*
G75*
G02*
X68260900Y-141887800I900500J0D01*
G01*
X70061900Y-141887800D01*
G75*
G02*
X70962400Y-142788300I0J-900500D01*
G01*
X70962400Y-144589300D01*
G75*
G02*
X70061900Y-145489800I-900500J0D01*
G01*
X68260900Y-145489800D01*
G75*
G02*
X67360400Y-144589300I0J900500D01*
G01*
G37*
G36*
G01*
X64610400Y-140014300D02*
X64610400Y-137963300D01*
G75*
G02*
X65385900Y-137187800I775500J0D01*
G01*
X66936900Y-137187800D01*
G75*
G02*
X67712400Y-137963300I0J-775500D01*
G01*
X67712400Y-140014300D01*
G75*
G02*
X66936900Y-140789800I-775500J0D01*
G01*
X65385900Y-140789800D01*
G75*
G02*
X64610400Y-140014300I0J775500D01*
G01*
G37*
G36*
G01*
X70360400Y-140738800D02*
X70360400Y-137238800D01*
G75*
G02*
X70411400Y-137187800I51000J0D01*
G01*
X73911400Y-137187800D01*
G75*
G02*
X73962400Y-137238800I0J-51000D01*
G01*
X73962400Y-140738800D01*
G75*
G02*
X73911400Y-140789800I-51000J0D01*
G01*
X70411400Y-140789800D01*
G75*
G02*
X70360400Y-140738800I0J51000D01*
G01*
G37*
D13*
X123367800Y-150799800D03*
X123393200Y-101803200D03*
X65379600Y-150799800D03*
X65379600Y-101803200D03*
D10*
X83126580Y-106916220D03*
X83126580Y-109456220D03*
G36*
G01*
X84012926Y-112917220D02*
X82240234Y-112917220D01*
G75*
G02*
X81975580Y-112652566I0J264654D01*
G01*
X81975580Y-111339874D01*
G75*
G02*
X82240234Y-111075220I264654J0D01*
G01*
X84012926Y-111075220D01*
G75*
G02*
X84277580Y-111339874I0J-264654D01*
G01*
X84277580Y-112652566D01*
G75*
G02*
X84012926Y-112917220I-264654J0D01*
G01*
G37*
X90307160Y-106916220D03*
X90307160Y-109456220D03*
G36*
G01*
X91193506Y-112917220D02*
X89420814Y-112917220D01*
G75*
G02*
X89156160Y-112652566I0J264654D01*
G01*
X89156160Y-111339874D01*
G75*
G02*
X89420814Y-111075220I264654J0D01*
G01*
X91193506Y-111075220D01*
G75*
G02*
X91458160Y-111339874I0J-264654D01*
G01*
X91458160Y-112652566D01*
G75*
G02*
X91193506Y-112917220I-264654J0D01*
G01*
G37*
D14*
X134638660Y-127525780D03*
D15*
X139138660Y-127525780D03*
D14*
X134638660Y-112209580D03*
D15*
X139138660Y-112209580D03*
D11*
X118508780Y-100517960D03*
X118508780Y-103057960D03*
X115968780Y-100517960D03*
X115968780Y-103057960D03*
X113428780Y-100517960D03*
X113428780Y-103057960D03*
X110888780Y-100517960D03*
X110888780Y-103057960D03*
X108348780Y-100517960D03*
X108348780Y-103057960D03*
X105808780Y-100517960D03*
X105808780Y-103057960D03*
X103268780Y-100517960D03*
X103268780Y-103057960D03*
X100728780Y-100517960D03*
X100728780Y-103057960D03*
X98188780Y-100517960D03*
X98188780Y-103057960D03*
X95648780Y-100517960D03*
X95648780Y-103057960D03*
X93108780Y-100517960D03*
X93108780Y-103057960D03*
X90568780Y-100517960D03*
X90568780Y-103057960D03*
X88028780Y-100517960D03*
X88028780Y-103057960D03*
X85488780Y-100517960D03*
X85488780Y-103057960D03*
X82948780Y-100517960D03*
X82948780Y-103057960D03*
X80408780Y-100517960D03*
X80408780Y-103057960D03*
X77868780Y-100517960D03*
X77868780Y-103057960D03*
X75328780Y-100517960D03*
X75328780Y-103057960D03*
X72788780Y-100517960D03*
X72788780Y-103057960D03*
X70248780Y-100517960D03*
G36*
G01*
X71098780Y-103958960D02*
X69398780Y-103958960D01*
G75*
G02*
X69347780Y-103907960I0J51000D01*
G01*
X69347780Y-102207960D01*
G75*
G02*
X69398780Y-102156960I51000J0D01*
G01*
X71098780Y-102156960D01*
G75*
G02*
X71149780Y-102207960I0J-51000D01*
G01*
X71149780Y-103907960D01*
G75*
G02*
X71098780Y-103958960I-51000J0D01*
G01*
G37*
G36*
G01*
X76994800Y-105263530D02*
X76994800Y-106227030D01*
G75*
G02*
X76725550Y-106496280I-269250J0D01*
G01*
X76187050Y-106496280D01*
G75*
G02*
X75917800Y-106227030I0J269250D01*
G01*
X75917800Y-105263530D01*
G75*
G02*
X76187050Y-104994280I269250J0D01*
G01*
X76725550Y-104994280D01*
G75*
G02*
X76994800Y-105263530I0J-269250D01*
G01*
G37*
G36*
G01*
X78869800Y-105263530D02*
X78869800Y-106227030D01*
G75*
G02*
X78600550Y-106496280I-269250J0D01*
G01*
X78062050Y-106496280D01*
G75*
G02*
X77792800Y-106227030I0J269250D01*
G01*
X77792800Y-105263530D01*
G75*
G02*
X78062050Y-104994280I269250J0D01*
G01*
X78600550Y-104994280D01*
G75*
G02*
X78869800Y-105263530I0J-269250D01*
G01*
G37*
X65278000Y-122682000D03*
X65278000Y-120142000D03*
X65278000Y-117602000D03*
X65278000Y-115062000D03*
X65278000Y-112522000D03*
G36*
G01*
X64377000Y-110832000D02*
X64377000Y-109132000D01*
G75*
G02*
X64428000Y-109081000I51000J0D01*
G01*
X66128000Y-109081000D01*
G75*
G02*
X66179000Y-109132000I0J-51000D01*
G01*
X66179000Y-110832000D01*
G75*
G02*
X66128000Y-110883000I-51000J0D01*
G01*
X64428000Y-110883000D01*
G75*
G02*
X64377000Y-110832000I0J51000D01*
G01*
G37*
X117602000Y-150622000D03*
X115062000Y-150622000D03*
G36*
G01*
X113372000Y-151523000D02*
X111672000Y-151523000D01*
G75*
G02*
X111621000Y-151472000I0J51000D01*
G01*
X111621000Y-149772000D01*
G75*
G02*
X111672000Y-149721000I51000J0D01*
G01*
X113372000Y-149721000D01*
G75*
G02*
X113423000Y-149772000I0J-51000D01*
G01*
X113423000Y-151472000D01*
G75*
G02*
X113372000Y-151523000I-51000J0D01*
G01*
G37*
X79639160Y-152034240D03*
X79639160Y-149494240D03*
X77099160Y-152034240D03*
X77099160Y-149494240D03*
X74559160Y-152034240D03*
X74559160Y-149494240D03*
X72019160Y-152034240D03*
G36*
G01*
X71169160Y-148593240D02*
X72869160Y-148593240D01*
G75*
G02*
X72920160Y-148644240I0J-51000D01*
G01*
X72920160Y-150344240D01*
G75*
G02*
X72869160Y-150395240I-51000J0D01*
G01*
X71169160Y-150395240D01*
G75*
G02*
X71118160Y-150344240I0J51000D01*
G01*
X71118160Y-148644240D01*
G75*
G02*
X71169160Y-148593240I51000J0D01*
G01*
G37*
G36*
G01*
X103015000Y-138657750D02*
X103015000Y-137694250D01*
G75*
G02*
X103284250Y-137425000I269250J0D01*
G01*
X103822750Y-137425000D01*
G75*
G02*
X104092000Y-137694250I0J-269250D01*
G01*
X104092000Y-138657750D01*
G75*
G02*
X103822750Y-138927000I-269250J0D01*
G01*
X103284250Y-138927000D01*
G75*
G02*
X103015000Y-138657750I0J269250D01*
G01*
G37*
G36*
G01*
X101140000Y-138657750D02*
X101140000Y-137694250D01*
G75*
G02*
X101409250Y-137425000I269250J0D01*
G01*
X101947750Y-137425000D01*
G75*
G02*
X102217000Y-137694250I0J-269250D01*
G01*
X102217000Y-138657750D01*
G75*
G02*
X101947750Y-138927000I-269250J0D01*
G01*
X101409250Y-138927000D01*
G75*
G02*
X101140000Y-138657750I0J269250D01*
G01*
G37*
G36*
G01*
X103015000Y-135511750D02*
X103015000Y-134548250D01*
G75*
G02*
X103284250Y-134279000I269250J0D01*
G01*
X103822750Y-134279000D01*
G75*
G02*
X104092000Y-134548250I0J-269250D01*
G01*
X104092000Y-135511750D01*
G75*
G02*
X103822750Y-135781000I-269250J0D01*
G01*
X103284250Y-135781000D01*
G75*
G02*
X103015000Y-135511750I0J269250D01*
G01*
G37*
G36*
G01*
X101140000Y-135511750D02*
X101140000Y-134548250D01*
G75*
G02*
X101409250Y-134279000I269250J0D01*
G01*
X101947750Y-134279000D01*
G75*
G02*
X102217000Y-134548250I0J-269250D01*
G01*
X102217000Y-135511750D01*
G75*
G02*
X101947750Y-135781000I-269250J0D01*
G01*
X101409250Y-135781000D01*
G75*
G02*
X101140000Y-135511750I0J269250D01*
G01*
G37*
G36*
G01*
X91917740Y-134822350D02*
X91917740Y-133858850D01*
G75*
G02*
X92186990Y-133589600I269250J0D01*
G01*
X92725490Y-133589600D01*
G75*
G02*
X92994740Y-133858850I0J-269250D01*
G01*
X92994740Y-134822350D01*
G75*
G02*
X92725490Y-135091600I-269250J0D01*
G01*
X92186990Y-135091600D01*
G75*
G02*
X91917740Y-134822350I0J269250D01*
G01*
G37*
G36*
G01*
X90042740Y-134822350D02*
X90042740Y-133858850D01*
G75*
G02*
X90311990Y-133589600I269250J0D01*
G01*
X90850490Y-133589600D01*
G75*
G02*
X91119740Y-133858850I0J-269250D01*
G01*
X91119740Y-134822350D01*
G75*
G02*
X90850490Y-135091600I-269250J0D01*
G01*
X90311990Y-135091600D01*
G75*
G02*
X90042740Y-134822350I0J269250D01*
G01*
G37*
G36*
G01*
X91943140Y-138291990D02*
X91943140Y-137328490D01*
G75*
G02*
X92212390Y-137059240I269250J0D01*
G01*
X92750890Y-137059240D01*
G75*
G02*
X93020140Y-137328490I0J-269250D01*
G01*
X93020140Y-138291990D01*
G75*
G02*
X92750890Y-138561240I-269250J0D01*
G01*
X92212390Y-138561240D01*
G75*
G02*
X91943140Y-138291990I0J269250D01*
G01*
G37*
G36*
G01*
X90068140Y-138291990D02*
X90068140Y-137328490D01*
G75*
G02*
X90337390Y-137059240I269250J0D01*
G01*
X90875890Y-137059240D01*
G75*
G02*
X91145140Y-137328490I0J-269250D01*
G01*
X91145140Y-138291990D01*
G75*
G02*
X90875890Y-138561240I-269250J0D01*
G01*
X90337390Y-138561240D01*
G75*
G02*
X90068140Y-138291990I0J269250D01*
G01*
G37*
G36*
G01*
X91676440Y-124974770D02*
X91676440Y-124011270D01*
G75*
G02*
X91945690Y-123742020I269250J0D01*
G01*
X92484190Y-123742020D01*
G75*
G02*
X92753440Y-124011270I0J-269250D01*
G01*
X92753440Y-124974770D01*
G75*
G02*
X92484190Y-125244020I-269250J0D01*
G01*
X91945690Y-125244020D01*
G75*
G02*
X91676440Y-124974770I0J269250D01*
G01*
G37*
G36*
G01*
X89801440Y-124974770D02*
X89801440Y-124011270D01*
G75*
G02*
X90070690Y-123742020I269250J0D01*
G01*
X90609190Y-123742020D01*
G75*
G02*
X90878440Y-124011270I0J-269250D01*
G01*
X90878440Y-124974770D01*
G75*
G02*
X90609190Y-125244020I-269250J0D01*
G01*
X90070690Y-125244020D01*
G75*
G02*
X89801440Y-124974770I0J269250D01*
G01*
G37*
G36*
G01*
X91597700Y-121637210D02*
X91597700Y-120673710D01*
G75*
G02*
X91866950Y-120404460I269250J0D01*
G01*
X92405450Y-120404460D01*
G75*
G02*
X92674700Y-120673710I0J-269250D01*
G01*
X92674700Y-121637210D01*
G75*
G02*
X92405450Y-121906460I-269250J0D01*
G01*
X91866950Y-121906460D01*
G75*
G02*
X91597700Y-121637210I0J269250D01*
G01*
G37*
G36*
G01*
X89722700Y-121637210D02*
X89722700Y-120673710D01*
G75*
G02*
X89991950Y-120404460I269250J0D01*
G01*
X90530450Y-120404460D01*
G75*
G02*
X90799700Y-120673710I0J-269250D01*
G01*
X90799700Y-121637210D01*
G75*
G02*
X90530450Y-121906460I-269250J0D01*
G01*
X89991950Y-121906460D01*
G75*
G02*
X89722700Y-121637210I0J269250D01*
G01*
G37*
G36*
G01*
X112885000Y-142520250D02*
X112885000Y-143483750D01*
G75*
G02*
X112615750Y-143753000I-269250J0D01*
G01*
X112077250Y-143753000D01*
G75*
G02*
X111808000Y-143483750I0J269250D01*
G01*
X111808000Y-142520250D01*
G75*
G02*
X112077250Y-142251000I269250J0D01*
G01*
X112615750Y-142251000D01*
G75*
G02*
X112885000Y-142520250I0J-269250D01*
G01*
G37*
G36*
G01*
X114760000Y-142520250D02*
X114760000Y-143483750D01*
G75*
G02*
X114490750Y-143753000I-269250J0D01*
G01*
X113952250Y-143753000D01*
G75*
G02*
X113683000Y-143483750I0J269250D01*
G01*
X113683000Y-142520250D01*
G75*
G02*
X113952250Y-142251000I269250J0D01*
G01*
X114490750Y-142251000D01*
G75*
G02*
X114760000Y-142520250I0J-269250D01*
G01*
G37*
G36*
G01*
X113683000Y-140181750D02*
X113683000Y-139218250D01*
G75*
G02*
X113952250Y-138949000I269250J0D01*
G01*
X114490750Y-138949000D01*
G75*
G02*
X114760000Y-139218250I0J-269250D01*
G01*
X114760000Y-140181750D01*
G75*
G02*
X114490750Y-140451000I-269250J0D01*
G01*
X113952250Y-140451000D01*
G75*
G02*
X113683000Y-140181750I0J269250D01*
G01*
G37*
G36*
G01*
X111808000Y-140181750D02*
X111808000Y-139218250D01*
G75*
G02*
X112077250Y-138949000I269250J0D01*
G01*
X112615750Y-138949000D01*
G75*
G02*
X112885000Y-139218250I0J-269250D01*
G01*
X112885000Y-140181750D01*
G75*
G02*
X112615750Y-140451000I-269250J0D01*
G01*
X112077250Y-140451000D01*
G75*
G02*
X111808000Y-140181750I0J269250D01*
G01*
G37*
G36*
G01*
X113139000Y-113310250D02*
X113139000Y-114273750D01*
G75*
G02*
X112869750Y-114543000I-269250J0D01*
G01*
X112331250Y-114543000D01*
G75*
G02*
X112062000Y-114273750I0J269250D01*
G01*
X112062000Y-113310250D01*
G75*
G02*
X112331250Y-113041000I269250J0D01*
G01*
X112869750Y-113041000D01*
G75*
G02*
X113139000Y-113310250I0J-269250D01*
G01*
G37*
G36*
G01*
X115014000Y-113310250D02*
X115014000Y-114273750D01*
G75*
G02*
X114744750Y-114543000I-269250J0D01*
G01*
X114206250Y-114543000D01*
G75*
G02*
X113937000Y-114273750I0J269250D01*
G01*
X113937000Y-113310250D01*
G75*
G02*
X114206250Y-113041000I269250J0D01*
G01*
X114744750Y-113041000D01*
G75*
G02*
X115014000Y-113310250I0J-269250D01*
G01*
G37*
G36*
G01*
X113937000Y-110971750D02*
X113937000Y-110008250D01*
G75*
G02*
X114206250Y-109739000I269250J0D01*
G01*
X114744750Y-109739000D01*
G75*
G02*
X115014000Y-110008250I0J-269250D01*
G01*
X115014000Y-110971750D01*
G75*
G02*
X114744750Y-111241000I-269250J0D01*
G01*
X114206250Y-111241000D01*
G75*
G02*
X113937000Y-110971750I0J269250D01*
G01*
G37*
G36*
G01*
X112062000Y-110971750D02*
X112062000Y-110008250D01*
G75*
G02*
X112331250Y-109739000I269250J0D01*
G01*
X112869750Y-109739000D01*
G75*
G02*
X113139000Y-110008250I0J-269250D01*
G01*
X113139000Y-110971750D01*
G75*
G02*
X112869750Y-111241000I-269250J0D01*
G01*
X112331250Y-111241000D01*
G75*
G02*
X112062000Y-110971750I0J269250D01*
G01*
G37*
G36*
G01*
X108434920Y-126998310D02*
X108434920Y-127961810D01*
G75*
G02*
X108165670Y-128231060I-269250J0D01*
G01*
X107627170Y-128231060D01*
G75*
G02*
X107357920Y-127961810I0J269250D01*
G01*
X107357920Y-126998310D01*
G75*
G02*
X107627170Y-126729060I269250J0D01*
G01*
X108165670Y-126729060D01*
G75*
G02*
X108434920Y-126998310I0J-269250D01*
G01*
G37*
G36*
G01*
X110309920Y-126998310D02*
X110309920Y-127961810D01*
G75*
G02*
X110040670Y-128231060I-269250J0D01*
G01*
X109502170Y-128231060D01*
G75*
G02*
X109232920Y-127961810I0J269250D01*
G01*
X109232920Y-126998310D01*
G75*
G02*
X109502170Y-126729060I269250J0D01*
G01*
X110040670Y-126729060D01*
G75*
G02*
X110309920Y-126998310I0J-269250D01*
G01*
G37*
G36*
G01*
X108366340Y-130699090D02*
X108366340Y-131662590D01*
G75*
G02*
X108097090Y-131931840I-269250J0D01*
G01*
X107558590Y-131931840D01*
G75*
G02*
X107289340Y-131662590I0J269250D01*
G01*
X107289340Y-130699090D01*
G75*
G02*
X107558590Y-130429840I269250J0D01*
G01*
X108097090Y-130429840D01*
G75*
G02*
X108366340Y-130699090I0J-269250D01*
G01*
G37*
G36*
G01*
X110241340Y-130699090D02*
X110241340Y-131662590D01*
G75*
G02*
X109972090Y-131931840I-269250J0D01*
G01*
X109433590Y-131931840D01*
G75*
G02*
X109164340Y-131662590I0J269250D01*
G01*
X109164340Y-130699090D01*
G75*
G02*
X109433590Y-130429840I269250J0D01*
G01*
X109972090Y-130429840D01*
G75*
G02*
X110241340Y-130699090I0J-269250D01*
G01*
G37*
G36*
G01*
X105944250Y-137051000D02*
X106907750Y-137051000D01*
G75*
G02*
X107177000Y-137320250I0J-269250D01*
G01*
X107177000Y-137858750D01*
G75*
G02*
X106907750Y-138128000I-269250J0D01*
G01*
X105944250Y-138128000D01*
G75*
G02*
X105675000Y-137858750I0J269250D01*
G01*
X105675000Y-137320250D01*
G75*
G02*
X105944250Y-137051000I269250J0D01*
G01*
G37*
G36*
G01*
X105944250Y-135176000D02*
X106907750Y-135176000D01*
G75*
G02*
X107177000Y-135445250I0J-269250D01*
G01*
X107177000Y-135983750D01*
G75*
G02*
X106907750Y-136253000I-269250J0D01*
G01*
X105944250Y-136253000D01*
G75*
G02*
X105675000Y-135983750I0J269250D01*
G01*
X105675000Y-135445250D01*
G75*
G02*
X105944250Y-135176000I269250J0D01*
G01*
G37*
G36*
G01*
X106198250Y-123589000D02*
X107161750Y-123589000D01*
G75*
G02*
X107431000Y-123858250I0J-269250D01*
G01*
X107431000Y-124396750D01*
G75*
G02*
X107161750Y-124666000I-269250J0D01*
G01*
X106198250Y-124666000D01*
G75*
G02*
X105929000Y-124396750I0J269250D01*
G01*
X105929000Y-123858250D01*
G75*
G02*
X106198250Y-123589000I269250J0D01*
G01*
G37*
G36*
G01*
X106198250Y-121714000D02*
X107161750Y-121714000D01*
G75*
G02*
X107431000Y-121983250I0J-269250D01*
G01*
X107431000Y-122521750D01*
G75*
G02*
X107161750Y-122791000I-269250J0D01*
G01*
X106198250Y-122791000D01*
G75*
G02*
X105929000Y-122521750I0J269250D01*
G01*
X105929000Y-121983250D01*
G75*
G02*
X106198250Y-121714000I269250J0D01*
G01*
G37*
G36*
G01*
X97054250Y-123589000D02*
X98017750Y-123589000D01*
G75*
G02*
X98287000Y-123858250I0J-269250D01*
G01*
X98287000Y-124396750D01*
G75*
G02*
X98017750Y-124666000I-269250J0D01*
G01*
X97054250Y-124666000D01*
G75*
G02*
X96785000Y-124396750I0J269250D01*
G01*
X96785000Y-123858250D01*
G75*
G02*
X97054250Y-123589000I269250J0D01*
G01*
G37*
G36*
G01*
X97054250Y-121714000D02*
X98017750Y-121714000D01*
G75*
G02*
X98287000Y-121983250I0J-269250D01*
G01*
X98287000Y-122521750D01*
G75*
G02*
X98017750Y-122791000I-269250J0D01*
G01*
X97054250Y-122791000D01*
G75*
G02*
X96785000Y-122521750I0J269250D01*
G01*
X96785000Y-121983250D01*
G75*
G02*
X97054250Y-121714000I269250J0D01*
G01*
G37*
G36*
G01*
X97054250Y-137051000D02*
X98017750Y-137051000D01*
G75*
G02*
X98287000Y-137320250I0J-269250D01*
G01*
X98287000Y-137858750D01*
G75*
G02*
X98017750Y-138128000I-269250J0D01*
G01*
X97054250Y-138128000D01*
G75*
G02*
X96785000Y-137858750I0J269250D01*
G01*
X96785000Y-137320250D01*
G75*
G02*
X97054250Y-137051000I269250J0D01*
G01*
G37*
G36*
G01*
X97054250Y-135176000D02*
X98017750Y-135176000D01*
G75*
G02*
X98287000Y-135445250I0J-269250D01*
G01*
X98287000Y-135983750D01*
G75*
G02*
X98017750Y-136253000I-269250J0D01*
G01*
X97054250Y-136253000D01*
G75*
G02*
X96785000Y-135983750I0J269250D01*
G01*
X96785000Y-135445250D01*
G75*
G02*
X97054250Y-135176000I269250J0D01*
G01*
G37*
G36*
G01*
X79901000Y-133831750D02*
X79901000Y-132868250D01*
G75*
G02*
X80170250Y-132599000I269250J0D01*
G01*
X80708750Y-132599000D01*
G75*
G02*
X80978000Y-132868250I0J-269250D01*
G01*
X80978000Y-133831750D01*
G75*
G02*
X80708750Y-134101000I-269250J0D01*
G01*
X80170250Y-134101000D01*
G75*
G02*
X79901000Y-133831750I0J269250D01*
G01*
G37*
G36*
G01*
X78026000Y-133831750D02*
X78026000Y-132868250D01*
G75*
G02*
X78295250Y-132599000I269250J0D01*
G01*
X78833750Y-132599000D01*
G75*
G02*
X79103000Y-132868250I0J-269250D01*
G01*
X79103000Y-133831750D01*
G75*
G02*
X78833750Y-134101000I-269250J0D01*
G01*
X78295250Y-134101000D01*
G75*
G02*
X78026000Y-133831750I0J269250D01*
G01*
G37*
G36*
G01*
X79901000Y-122655750D02*
X79901000Y-121692250D01*
G75*
G02*
X80170250Y-121423000I269250J0D01*
G01*
X80708750Y-121423000D01*
G75*
G02*
X80978000Y-121692250I0J-269250D01*
G01*
X80978000Y-122655750D01*
G75*
G02*
X80708750Y-122925000I-269250J0D01*
G01*
X80170250Y-122925000D01*
G75*
G02*
X79901000Y-122655750I0J269250D01*
G01*
G37*
G36*
G01*
X78026000Y-122655750D02*
X78026000Y-121692250D01*
G75*
G02*
X78295250Y-121423000I269250J0D01*
G01*
X78833750Y-121423000D01*
G75*
G02*
X79103000Y-121692250I0J-269250D01*
G01*
X79103000Y-122655750D01*
G75*
G02*
X78833750Y-122925000I-269250J0D01*
G01*
X78295250Y-122925000D01*
G75*
G02*
X78026000Y-122655750I0J269250D01*
G01*
G37*
G36*
G01*
X79901000Y-137133750D02*
X79901000Y-136170250D01*
G75*
G02*
X80170250Y-135901000I269250J0D01*
G01*
X80708750Y-135901000D01*
G75*
G02*
X80978000Y-136170250I0J-269250D01*
G01*
X80978000Y-137133750D01*
G75*
G02*
X80708750Y-137403000I-269250J0D01*
G01*
X80170250Y-137403000D01*
G75*
G02*
X79901000Y-137133750I0J269250D01*
G01*
G37*
G36*
G01*
X78026000Y-137133750D02*
X78026000Y-136170250D01*
G75*
G02*
X78295250Y-135901000I269250J0D01*
G01*
X78833750Y-135901000D01*
G75*
G02*
X79103000Y-136170250I0J-269250D01*
G01*
X79103000Y-137133750D01*
G75*
G02*
X78833750Y-137403000I-269250J0D01*
G01*
X78295250Y-137403000D01*
G75*
G02*
X78026000Y-137133750I0J269250D01*
G01*
G37*
G36*
G01*
X79901000Y-125957750D02*
X79901000Y-124994250D01*
G75*
G02*
X80170250Y-124725000I269250J0D01*
G01*
X80708750Y-124725000D01*
G75*
G02*
X80978000Y-124994250I0J-269250D01*
G01*
X80978000Y-125957750D01*
G75*
G02*
X80708750Y-126227000I-269250J0D01*
G01*
X80170250Y-126227000D01*
G75*
G02*
X79901000Y-125957750I0J269250D01*
G01*
G37*
G36*
G01*
X78026000Y-125957750D02*
X78026000Y-124994250D01*
G75*
G02*
X78295250Y-124725000I269250J0D01*
G01*
X78833750Y-124725000D01*
G75*
G02*
X79103000Y-124994250I0J-269250D01*
G01*
X79103000Y-125957750D01*
G75*
G02*
X78833750Y-126227000I-269250J0D01*
G01*
X78295250Y-126227000D01*
G75*
G02*
X78026000Y-125957750I0J269250D01*
G01*
G37*
G36*
G01*
X120899940Y-134738100D02*
X123749940Y-134738100D01*
G75*
G02*
X123800940Y-134789100I0J-51000D01*
G01*
X123800940Y-136039100D01*
G75*
G02*
X123749940Y-136090100I-51000J0D01*
G01*
X120899940Y-136090100D01*
G75*
G02*
X120848940Y-136039100I0J51000D01*
G01*
X120848940Y-134789100D01*
G75*
G02*
X120899940Y-134738100I51000J0D01*
G01*
G37*
G36*
G01*
X112674940Y-130308100D02*
X119174940Y-130308100D01*
G75*
G02*
X119225940Y-130359100I0J-51000D01*
G01*
X119225940Y-135909100D01*
G75*
G02*
X119174940Y-135960100I-51000J0D01*
G01*
X112674940Y-135960100D01*
G75*
G02*
X112623940Y-135909100I0J51000D01*
G01*
X112623940Y-130359100D01*
G75*
G02*
X112674940Y-130308100I51000J0D01*
G01*
G37*
G36*
G01*
X120899940Y-130178100D02*
X123749940Y-130178100D01*
G75*
G02*
X123800940Y-130229100I0J-51000D01*
G01*
X123800940Y-131479100D01*
G75*
G02*
X123749940Y-131530100I-51000J0D01*
G01*
X120899940Y-131530100D01*
G75*
G02*
X120848940Y-131479100I0J51000D01*
G01*
X120848940Y-130229100D01*
G75*
G02*
X120899940Y-130178100I51000J0D01*
G01*
G37*
G36*
G01*
X120955820Y-123143000D02*
X123805820Y-123143000D01*
G75*
G02*
X123856820Y-123194000I0J-51000D01*
G01*
X123856820Y-124444000D01*
G75*
G02*
X123805820Y-124495000I-51000J0D01*
G01*
X120955820Y-124495000D01*
G75*
G02*
X120904820Y-124444000I0J51000D01*
G01*
X120904820Y-123194000D01*
G75*
G02*
X120955820Y-123143000I51000J0D01*
G01*
G37*
G36*
G01*
X112730820Y-118713000D02*
X119230820Y-118713000D01*
G75*
G02*
X119281820Y-118764000I0J-51000D01*
G01*
X119281820Y-124314000D01*
G75*
G02*
X119230820Y-124365000I-51000J0D01*
G01*
X112730820Y-124365000D01*
G75*
G02*
X112679820Y-124314000I0J51000D01*
G01*
X112679820Y-118764000D01*
G75*
G02*
X112730820Y-118713000I51000J0D01*
G01*
G37*
G36*
G01*
X120955820Y-118583000D02*
X123805820Y-118583000D01*
G75*
G02*
X123856820Y-118634000I0J-51000D01*
G01*
X123856820Y-119884000D01*
G75*
G02*
X123805820Y-119935000I-51000J0D01*
G01*
X120955820Y-119935000D01*
G75*
G02*
X120904820Y-119884000I0J51000D01*
G01*
X120904820Y-118634000D01*
G75*
G02*
X120955820Y-118583000I51000J0D01*
G01*
G37*
G36*
G01*
X104308999Y-131069000D02*
X105837001Y-131069000D01*
G75*
G02*
X105888000Y-131119999I0J-50999D01*
G01*
X105888000Y-131770001D01*
G75*
G02*
X105837001Y-131821000I-50999J0D01*
G01*
X104308999Y-131821000D01*
G75*
G02*
X104258000Y-131770001I0J50999D01*
G01*
X104258000Y-131119999D01*
G75*
G02*
X104308999Y-131069000I50999J0D01*
G01*
G37*
G36*
G01*
X104308999Y-129799000D02*
X105837001Y-129799000D01*
G75*
G02*
X105888000Y-129849999I0J-50999D01*
G01*
X105888000Y-130500001D01*
G75*
G02*
X105837001Y-130551000I-50999J0D01*
G01*
X104308999Y-130551000D01*
G75*
G02*
X104258000Y-130500001I0J50999D01*
G01*
X104258000Y-129849999D01*
G75*
G02*
X104308999Y-129799000I50999J0D01*
G01*
G37*
G36*
G01*
X104308999Y-128529000D02*
X105837001Y-128529000D01*
G75*
G02*
X105888000Y-128579999I0J-50999D01*
G01*
X105888000Y-129230001D01*
G75*
G02*
X105837001Y-129281000I-50999J0D01*
G01*
X104308999Y-129281000D01*
G75*
G02*
X104258000Y-129230001I0J50999D01*
G01*
X104258000Y-128579999D01*
G75*
G02*
X104308999Y-128529000I50999J0D01*
G01*
G37*
G36*
G01*
X104308999Y-127259000D02*
X105837001Y-127259000D01*
G75*
G02*
X105888000Y-127309999I0J-50999D01*
G01*
X105888000Y-127960001D01*
G75*
G02*
X105837001Y-128011000I-50999J0D01*
G01*
X104308999Y-128011000D01*
G75*
G02*
X104258000Y-127960001I0J50999D01*
G01*
X104258000Y-127309999D01*
G75*
G02*
X104308999Y-127259000I50999J0D01*
G01*
G37*
G36*
G01*
X98886999Y-127259000D02*
X100415001Y-127259000D01*
G75*
G02*
X100466000Y-127309999I0J-50999D01*
G01*
X100466000Y-127960001D01*
G75*
G02*
X100415001Y-128011000I-50999J0D01*
G01*
X98886999Y-128011000D01*
G75*
G02*
X98836000Y-127960001I0J50999D01*
G01*
X98836000Y-127309999D01*
G75*
G02*
X98886999Y-127259000I50999J0D01*
G01*
G37*
G36*
G01*
X98886999Y-128529000D02*
X100415001Y-128529000D01*
G75*
G02*
X100466000Y-128579999I0J-50999D01*
G01*
X100466000Y-129230001D01*
G75*
G02*
X100415001Y-129281000I-50999J0D01*
G01*
X98886999Y-129281000D01*
G75*
G02*
X98836000Y-129230001I0J50999D01*
G01*
X98836000Y-128579999D01*
G75*
G02*
X98886999Y-128529000I50999J0D01*
G01*
G37*
G36*
G01*
X98886999Y-129799000D02*
X100415001Y-129799000D01*
G75*
G02*
X100466000Y-129849999I0J-50999D01*
G01*
X100466000Y-130500001D01*
G75*
G02*
X100415001Y-130551000I-50999J0D01*
G01*
X98886999Y-130551000D01*
G75*
G02*
X98836000Y-130500001I0J50999D01*
G01*
X98836000Y-129849999D01*
G75*
G02*
X98886999Y-129799000I50999J0D01*
G01*
G37*
G36*
G01*
X98886999Y-131069000D02*
X100415001Y-131069000D01*
G75*
G02*
X100466000Y-131119999I0J-50999D01*
G01*
X100466000Y-131770001D01*
G75*
G02*
X100415001Y-131821000I-50999J0D01*
G01*
X98886999Y-131821000D01*
G75*
G02*
X98836000Y-131770001I0J50999D01*
G01*
X98836000Y-131119999D01*
G75*
G02*
X98886999Y-131069000I50999J0D01*
G01*
G37*
G36*
G01*
X122055820Y-144602440D02*
X122055820Y-144251440D01*
G75*
G02*
X122231320Y-144075940I175500J0D01*
G01*
X123932320Y-144075940D01*
G75*
G02*
X124107820Y-144251440I0J-175500D01*
G01*
X124107820Y-144602440D01*
G75*
G02*
X123932320Y-144777940I-175500J0D01*
G01*
X122231320Y-144777940D01*
G75*
G02*
X122055820Y-144602440I0J175500D01*
G01*
G37*
G36*
G01*
X122055820Y-143332440D02*
X122055820Y-142981440D01*
G75*
G02*
X122231320Y-142805940I175500J0D01*
G01*
X123932320Y-142805940D01*
G75*
G02*
X124107820Y-142981440I0J-175500D01*
G01*
X124107820Y-143332440D01*
G75*
G02*
X123932320Y-143507940I-175500J0D01*
G01*
X122231320Y-143507940D01*
G75*
G02*
X122055820Y-143332440I0J175500D01*
G01*
G37*
G36*
G01*
X122055820Y-142062440D02*
X122055820Y-141711440D01*
G75*
G02*
X122231320Y-141535940I175500J0D01*
G01*
X123932320Y-141535940D01*
G75*
G02*
X124107820Y-141711440I0J-175500D01*
G01*
X124107820Y-142062440D01*
G75*
G02*
X123932320Y-142237940I-175500J0D01*
G01*
X122231320Y-142237940D01*
G75*
G02*
X122055820Y-142062440I0J175500D01*
G01*
G37*
G36*
G01*
X122055820Y-140792440D02*
X122055820Y-140441440D01*
G75*
G02*
X122231320Y-140265940I175500J0D01*
G01*
X123932320Y-140265940D01*
G75*
G02*
X124107820Y-140441440I0J-175500D01*
G01*
X124107820Y-140792440D01*
G75*
G02*
X123932320Y-140967940I-175500J0D01*
G01*
X122231320Y-140967940D01*
G75*
G02*
X122055820Y-140792440I0J175500D01*
G01*
G37*
G36*
G01*
X117105820Y-140792440D02*
X117105820Y-140441440D01*
G75*
G02*
X117281320Y-140265940I175500J0D01*
G01*
X118982320Y-140265940D01*
G75*
G02*
X119157820Y-140441440I0J-175500D01*
G01*
X119157820Y-140792440D01*
G75*
G02*
X118982320Y-140967940I-175500J0D01*
G01*
X117281320Y-140967940D01*
G75*
G02*
X117105820Y-140792440I0J175500D01*
G01*
G37*
G36*
G01*
X117105820Y-142062440D02*
X117105820Y-141711440D01*
G75*
G02*
X117281320Y-141535940I175500J0D01*
G01*
X118982320Y-141535940D01*
G75*
G02*
X119157820Y-141711440I0J-175500D01*
G01*
X119157820Y-142062440D01*
G75*
G02*
X118982320Y-142237940I-175500J0D01*
G01*
X117281320Y-142237940D01*
G75*
G02*
X117105820Y-142062440I0J175500D01*
G01*
G37*
G36*
G01*
X117105820Y-143332440D02*
X117105820Y-142981440D01*
G75*
G02*
X117281320Y-142805940I175500J0D01*
G01*
X118982320Y-142805940D01*
G75*
G02*
X119157820Y-142981440I0J-175500D01*
G01*
X119157820Y-143332440D01*
G75*
G02*
X118982320Y-143507940I-175500J0D01*
G01*
X117281320Y-143507940D01*
G75*
G02*
X117105820Y-143332440I0J175500D01*
G01*
G37*
G36*
G01*
X117105820Y-144602440D02*
X117105820Y-144251440D01*
G75*
G02*
X117281320Y-144075940I175500J0D01*
G01*
X118982320Y-144075940D01*
G75*
G02*
X119157820Y-144251440I0J-175500D01*
G01*
X119157820Y-144602440D01*
G75*
G02*
X118982320Y-144777940I-175500J0D01*
G01*
X117281320Y-144777940D01*
G75*
G02*
X117105820Y-144602440I0J175500D01*
G01*
G37*
G36*
G01*
X121659580Y-114152920D02*
X121659580Y-113801920D01*
G75*
G02*
X121835080Y-113626420I175500J0D01*
G01*
X123536080Y-113626420D01*
G75*
G02*
X123711580Y-113801920I0J-175500D01*
G01*
X123711580Y-114152920D01*
G75*
G02*
X123536080Y-114328420I-175500J0D01*
G01*
X121835080Y-114328420D01*
G75*
G02*
X121659580Y-114152920I0J175500D01*
G01*
G37*
G36*
G01*
X121659580Y-112882920D02*
X121659580Y-112531920D01*
G75*
G02*
X121835080Y-112356420I175500J0D01*
G01*
X123536080Y-112356420D01*
G75*
G02*
X123711580Y-112531920I0J-175500D01*
G01*
X123711580Y-112882920D01*
G75*
G02*
X123536080Y-113058420I-175500J0D01*
G01*
X121835080Y-113058420D01*
G75*
G02*
X121659580Y-112882920I0J175500D01*
G01*
G37*
G36*
G01*
X121659580Y-111612920D02*
X121659580Y-111261920D01*
G75*
G02*
X121835080Y-111086420I175500J0D01*
G01*
X123536080Y-111086420D01*
G75*
G02*
X123711580Y-111261920I0J-175500D01*
G01*
X123711580Y-111612920D01*
G75*
G02*
X123536080Y-111788420I-175500J0D01*
G01*
X121835080Y-111788420D01*
G75*
G02*
X121659580Y-111612920I0J175500D01*
G01*
G37*
G36*
G01*
X121659580Y-110342920D02*
X121659580Y-109991920D01*
G75*
G02*
X121835080Y-109816420I175500J0D01*
G01*
X123536080Y-109816420D01*
G75*
G02*
X123711580Y-109991920I0J-175500D01*
G01*
X123711580Y-110342920D01*
G75*
G02*
X123536080Y-110518420I-175500J0D01*
G01*
X121835080Y-110518420D01*
G75*
G02*
X121659580Y-110342920I0J175500D01*
G01*
G37*
G36*
G01*
X116709580Y-110342920D02*
X116709580Y-109991920D01*
G75*
G02*
X116885080Y-109816420I175500J0D01*
G01*
X118586080Y-109816420D01*
G75*
G02*
X118761580Y-109991920I0J-175500D01*
G01*
X118761580Y-110342920D01*
G75*
G02*
X118586080Y-110518420I-175500J0D01*
G01*
X116885080Y-110518420D01*
G75*
G02*
X116709580Y-110342920I0J175500D01*
G01*
G37*
G36*
G01*
X116709580Y-111612920D02*
X116709580Y-111261920D01*
G75*
G02*
X116885080Y-111086420I175500J0D01*
G01*
X118586080Y-111086420D01*
G75*
G02*
X118761580Y-111261920I0J-175500D01*
G01*
X118761580Y-111612920D01*
G75*
G02*
X118586080Y-111788420I-175500J0D01*
G01*
X116885080Y-111788420D01*
G75*
G02*
X116709580Y-111612920I0J175500D01*
G01*
G37*
G36*
G01*
X116709580Y-112882920D02*
X116709580Y-112531920D01*
G75*
G02*
X116885080Y-112356420I175500J0D01*
G01*
X118586080Y-112356420D01*
G75*
G02*
X118761580Y-112531920I0J-175500D01*
G01*
X118761580Y-112882920D01*
G75*
G02*
X118586080Y-113058420I-175500J0D01*
G01*
X116885080Y-113058420D01*
G75*
G02*
X116709580Y-112882920I0J175500D01*
G01*
G37*
G36*
G01*
X116709580Y-114152920D02*
X116709580Y-113801920D01*
G75*
G02*
X116885080Y-113626420I175500J0D01*
G01*
X118586080Y-113626420D01*
G75*
G02*
X118761580Y-113801920I0J-175500D01*
G01*
X118761580Y-114152920D01*
G75*
G02*
X118586080Y-114328420I-175500J0D01*
G01*
X116885080Y-114328420D01*
G75*
G02*
X116709580Y-114152920I0J175500D01*
G01*
G37*
D16*
X139160900Y-150245100D03*
X139160900Y-137105100D03*
X133480900Y-137105100D03*
X133480900Y-150245100D03*
D17*
X136450900Y-140175100D03*
X136450900Y-142675100D03*
X136450900Y-144675100D03*
X136450900Y-147175100D03*
X133830900Y-140175100D03*
X133830900Y-142675100D03*
X133830900Y-144675100D03*
X133830900Y-147175100D03*
D18*
G36*
X67362390Y-144589104D02*
G01*
X67379673Y-144764581D01*
X67430803Y-144933137D01*
X67513833Y-145088475D01*
X67625571Y-145224629D01*
X67761725Y-145336367D01*
X67917063Y-145419397D01*
X68085616Y-145470527D01*
X68261096Y-145487810D01*
X68262722Y-145488975D01*
X68262526Y-145490965D01*
X68260900Y-145491800D01*
X68204540Y-145491800D01*
X68204344Y-145491790D01*
X68034838Y-145475095D01*
X68034453Y-145475019D01*
X67877359Y-145427365D01*
X67876997Y-145427215D01*
X67732226Y-145349833D01*
X67731900Y-145349615D01*
X67605003Y-145245474D01*
X67604726Y-145245197D01*
X67500585Y-145118300D01*
X67500367Y-145117974D01*
X67422985Y-144973203D01*
X67422835Y-144972841D01*
X67375181Y-144815747D01*
X67375105Y-144815362D01*
X67358410Y-144645856D01*
X67358400Y-144645660D01*
X67358400Y-144589300D01*
X67359400Y-144587568D01*
X67361400Y-144587568D01*
X67362390Y-144589104D01*
G37*
G36*
X70963565Y-144587674D02*
G01*
X70964400Y-144589300D01*
X70964400Y-144645660D01*
X70964390Y-144645856D01*
X70947695Y-144815362D01*
X70947619Y-144815747D01*
X70899965Y-144972841D01*
X70899815Y-144973203D01*
X70822433Y-145117974D01*
X70822215Y-145118300D01*
X70718074Y-145245197D01*
X70717797Y-145245474D01*
X70590900Y-145349615D01*
X70590574Y-145349833D01*
X70445803Y-145427215D01*
X70445441Y-145427365D01*
X70288347Y-145475019D01*
X70287962Y-145475095D01*
X70118456Y-145491790D01*
X70118260Y-145491800D01*
X70061900Y-145491800D01*
X70060168Y-145490800D01*
X70060168Y-145488800D01*
X70061704Y-145487810D01*
X70237184Y-145470527D01*
X70405737Y-145419397D01*
X70561075Y-145336367D01*
X70697229Y-145224629D01*
X70808967Y-145088475D01*
X70891997Y-144933137D01*
X70943127Y-144764581D01*
X70960410Y-144589104D01*
X70961575Y-144587478D01*
X70963565Y-144587674D01*
G37*
G36*
X68262632Y-141886800D02*
G01*
X68262632Y-141888800D01*
X68261096Y-141889790D01*
X68085616Y-141907073D01*
X67917063Y-141958203D01*
X67761725Y-142041233D01*
X67625571Y-142152971D01*
X67513833Y-142289125D01*
X67430803Y-142444463D01*
X67379673Y-142613016D01*
X67362390Y-142788496D01*
X67361225Y-142790122D01*
X67359235Y-142789926D01*
X67358400Y-142788300D01*
X67358400Y-142731940D01*
X67358410Y-142731744D01*
X67375105Y-142562238D01*
X67375181Y-142561853D01*
X67422835Y-142404759D01*
X67422985Y-142404397D01*
X67500367Y-142259626D01*
X67500585Y-142259300D01*
X67604726Y-142132403D01*
X67605003Y-142132126D01*
X67731900Y-142027985D01*
X67732226Y-142027767D01*
X67876997Y-141950385D01*
X67877359Y-141950235D01*
X68034453Y-141902581D01*
X68034838Y-141902505D01*
X68204344Y-141885810D01*
X68204540Y-141885800D01*
X68260900Y-141885800D01*
X68262632Y-141886800D01*
G37*
G36*
X70118456Y-141885810D02*
G01*
X70287962Y-141902505D01*
X70288347Y-141902581D01*
X70445441Y-141950235D01*
X70445803Y-141950385D01*
X70590574Y-142027767D01*
X70590900Y-142027985D01*
X70717797Y-142132126D01*
X70718074Y-142132403D01*
X70822215Y-142259300D01*
X70822433Y-142259626D01*
X70899815Y-142404397D01*
X70899965Y-142404759D01*
X70947619Y-142561853D01*
X70947695Y-142562238D01*
X70964390Y-142731744D01*
X70964400Y-142731940D01*
X70964400Y-142788300D01*
X70963400Y-142790032D01*
X70961400Y-142790032D01*
X70960410Y-142788496D01*
X70943127Y-142613016D01*
X70891997Y-142444463D01*
X70808967Y-142289125D01*
X70697229Y-142152971D01*
X70561075Y-142041233D01*
X70405737Y-141958203D01*
X70237184Y-141907073D01*
X70061704Y-141889790D01*
X70060078Y-141888625D01*
X70060274Y-141886635D01*
X70061900Y-141885800D01*
X70118260Y-141885800D01*
X70118456Y-141885810D01*
G37*
G36*
X64612390Y-140014104D02*
G01*
X64627271Y-140165198D01*
X64671288Y-140310302D01*
X64742766Y-140444029D01*
X64838960Y-140561240D01*
X64956171Y-140657434D01*
X65089898Y-140728912D01*
X65235002Y-140772929D01*
X65386096Y-140787810D01*
X65387722Y-140788975D01*
X65387526Y-140790965D01*
X65385900Y-140791800D01*
X65329540Y-140791800D01*
X65329344Y-140791790D01*
X65184225Y-140777497D01*
X65183840Y-140777421D01*
X65050194Y-140736880D01*
X65049832Y-140736730D01*
X64926673Y-140670900D01*
X64926347Y-140670682D01*
X64818391Y-140582086D01*
X64818114Y-140581809D01*
X64729518Y-140473853D01*
X64729300Y-140473527D01*
X64663470Y-140350368D01*
X64663320Y-140350006D01*
X64622779Y-140216360D01*
X64622703Y-140215975D01*
X64608410Y-140070856D01*
X64608400Y-140070660D01*
X64608400Y-140014300D01*
X64609400Y-140012568D01*
X64611400Y-140012568D01*
X64612390Y-140014104D01*
G37*
G36*
X67713565Y-140012674D02*
G01*
X67714400Y-140014300D01*
X67714400Y-140070660D01*
X67714390Y-140070856D01*
X67700097Y-140215975D01*
X67700021Y-140216360D01*
X67659480Y-140350006D01*
X67659330Y-140350368D01*
X67593500Y-140473527D01*
X67593282Y-140473853D01*
X67504686Y-140581809D01*
X67504409Y-140582086D01*
X67396453Y-140670682D01*
X67396127Y-140670900D01*
X67272968Y-140736730D01*
X67272606Y-140736880D01*
X67138960Y-140777421D01*
X67138575Y-140777497D01*
X66993456Y-140791790D01*
X66993260Y-140791800D01*
X66936900Y-140791800D01*
X66935168Y-140790800D01*
X66935168Y-140788800D01*
X66936704Y-140787810D01*
X67087798Y-140772929D01*
X67232902Y-140728912D01*
X67366629Y-140657434D01*
X67483840Y-140561240D01*
X67580034Y-140444029D01*
X67651512Y-140310302D01*
X67695529Y-140165198D01*
X67710410Y-140014104D01*
X67711575Y-140012478D01*
X67713565Y-140012674D01*
G37*
G36*
X65387632Y-137186800D02*
G01*
X65387632Y-137188800D01*
X65386096Y-137189790D01*
X65235002Y-137204671D01*
X65089898Y-137248688D01*
X64956171Y-137320166D01*
X64838960Y-137416360D01*
X64742766Y-137533571D01*
X64671288Y-137667298D01*
X64627271Y-137812402D01*
X64612390Y-137963496D01*
X64611225Y-137965122D01*
X64609235Y-137964926D01*
X64608400Y-137963300D01*
X64608400Y-137906940D01*
X64608410Y-137906744D01*
X64622703Y-137761625D01*
X64622779Y-137761240D01*
X64663320Y-137627594D01*
X64663470Y-137627232D01*
X64729300Y-137504073D01*
X64729518Y-137503747D01*
X64818114Y-137395791D01*
X64818391Y-137395514D01*
X64926347Y-137306918D01*
X64926673Y-137306700D01*
X65049832Y-137240870D01*
X65050194Y-137240720D01*
X65183840Y-137200179D01*
X65184225Y-137200103D01*
X65329344Y-137185810D01*
X65329540Y-137185800D01*
X65385900Y-137185800D01*
X65387632Y-137186800D01*
G37*
G36*
X66993456Y-137185810D02*
G01*
X67138575Y-137200103D01*
X67138960Y-137200179D01*
X67272606Y-137240720D01*
X67272968Y-137240870D01*
X67396127Y-137306700D01*
X67396453Y-137306918D01*
X67504409Y-137395514D01*
X67504686Y-137395791D01*
X67593282Y-137503747D01*
X67593500Y-137504073D01*
X67659330Y-137627232D01*
X67659480Y-137627594D01*
X67700021Y-137761240D01*
X67700097Y-137761625D01*
X67714390Y-137906744D01*
X67714400Y-137906940D01*
X67714400Y-137963300D01*
X67713400Y-137965032D01*
X67711400Y-137965032D01*
X67710410Y-137963496D01*
X67695529Y-137812402D01*
X67651512Y-137667298D01*
X67580034Y-137533571D01*
X67483840Y-137416360D01*
X67366629Y-137320166D01*
X67232902Y-137248688D01*
X67087798Y-137204671D01*
X66936704Y-137189790D01*
X66935078Y-137188625D01*
X66935274Y-137186635D01*
X66936900Y-137185800D01*
X66993260Y-137185800D01*
X66993456Y-137185810D01*
G37*
G36*
X91459325Y-112650940D02*
G01*
X91460160Y-112652566D01*
X91460160Y-112735508D01*
X91460150Y-112735704D01*
X91456184Y-112775976D01*
X91456108Y-112776361D01*
X91446150Y-112809185D01*
X91446000Y-112809547D01*
X91429832Y-112839795D01*
X91429614Y-112840121D01*
X91407854Y-112866637D01*
X91407577Y-112866914D01*
X91381061Y-112888674D01*
X91380735Y-112888892D01*
X91350487Y-112905060D01*
X91350125Y-112905210D01*
X91317301Y-112915168D01*
X91316916Y-112915244D01*
X91276644Y-112919210D01*
X91276448Y-112919220D01*
X91193506Y-112919220D01*
X91191774Y-112918220D01*
X91191774Y-112916220D01*
X91193310Y-112915230D01*
X91244742Y-112910165D01*
X91294016Y-112895217D01*
X91339424Y-112870947D01*
X91379224Y-112838284D01*
X91411887Y-112798484D01*
X91436157Y-112753076D01*
X91451105Y-112703802D01*
X91456170Y-112652370D01*
X91457335Y-112650744D01*
X91459325Y-112650940D01*
G37*
G36*
X89158150Y-112652370D02*
G01*
X89163215Y-112703802D01*
X89178163Y-112753076D01*
X89202433Y-112798484D01*
X89235096Y-112838284D01*
X89274896Y-112870947D01*
X89320304Y-112895217D01*
X89369578Y-112910165D01*
X89421010Y-112915230D01*
X89422636Y-112916395D01*
X89422440Y-112918385D01*
X89420814Y-112919220D01*
X89337872Y-112919220D01*
X89337676Y-112919210D01*
X89297404Y-112915244D01*
X89297019Y-112915168D01*
X89264195Y-112905210D01*
X89263833Y-112905060D01*
X89233585Y-112888892D01*
X89233259Y-112888674D01*
X89206743Y-112866914D01*
X89206466Y-112866637D01*
X89184706Y-112840121D01*
X89184488Y-112839795D01*
X89168320Y-112809547D01*
X89168170Y-112809185D01*
X89158212Y-112776361D01*
X89158136Y-112775976D01*
X89154170Y-112735704D01*
X89154160Y-112735508D01*
X89154160Y-112652566D01*
X89155160Y-112650834D01*
X89157160Y-112650834D01*
X89158150Y-112652370D01*
G37*
G36*
X84278745Y-112650940D02*
G01*
X84279580Y-112652566D01*
X84279580Y-112735508D01*
X84279570Y-112735704D01*
X84275604Y-112775976D01*
X84275528Y-112776361D01*
X84265570Y-112809185D01*
X84265420Y-112809547D01*
X84249252Y-112839795D01*
X84249034Y-112840121D01*
X84227274Y-112866637D01*
X84226997Y-112866914D01*
X84200481Y-112888674D01*
X84200155Y-112888892D01*
X84169907Y-112905060D01*
X84169545Y-112905210D01*
X84136721Y-112915168D01*
X84136336Y-112915244D01*
X84096064Y-112919210D01*
X84095868Y-112919220D01*
X84012926Y-112919220D01*
X84011194Y-112918220D01*
X84011194Y-112916220D01*
X84012730Y-112915230D01*
X84064162Y-112910165D01*
X84113436Y-112895217D01*
X84158844Y-112870947D01*
X84198644Y-112838284D01*
X84231307Y-112798484D01*
X84255577Y-112753076D01*
X84270525Y-112703802D01*
X84275590Y-112652370D01*
X84276755Y-112650744D01*
X84278745Y-112650940D01*
G37*
G36*
X96308250Y-112652370D02*
G01*
X96313315Y-112703802D01*
X96328263Y-112753076D01*
X96352533Y-112798484D01*
X96385196Y-112838284D01*
X96424996Y-112870947D01*
X96470404Y-112895217D01*
X96519678Y-112910165D01*
X96571110Y-112915230D01*
X96572736Y-112916395D01*
X96572540Y-112918385D01*
X96570914Y-112919220D01*
X96487972Y-112919220D01*
X96487776Y-112919210D01*
X96447504Y-112915244D01*
X96447119Y-112915168D01*
X96414295Y-112905210D01*
X96413933Y-112905060D01*
X96383685Y-112888892D01*
X96383359Y-112888674D01*
X96356843Y-112866914D01*
X96356566Y-112866637D01*
X96334806Y-112840121D01*
X96334588Y-112839795D01*
X96318420Y-112809547D01*
X96318270Y-112809185D01*
X96308312Y-112776361D01*
X96308236Y-112775976D01*
X96304270Y-112735704D01*
X96304260Y-112735508D01*
X96304260Y-112652566D01*
X96305260Y-112650834D01*
X96307260Y-112650834D01*
X96308250Y-112652370D01*
G37*
G36*
X81977570Y-112652370D02*
G01*
X81982635Y-112703802D01*
X81997583Y-112753076D01*
X82021853Y-112798484D01*
X82054516Y-112838284D01*
X82094316Y-112870947D01*
X82139724Y-112895217D01*
X82188998Y-112910165D01*
X82240430Y-112915230D01*
X82242056Y-112916395D01*
X82241860Y-112918385D01*
X82240234Y-112919220D01*
X82157292Y-112919220D01*
X82157096Y-112919210D01*
X82116824Y-112915244D01*
X82116439Y-112915168D01*
X82083615Y-112905210D01*
X82083253Y-112905060D01*
X82053005Y-112888892D01*
X82052679Y-112888674D01*
X82026163Y-112866914D01*
X82025886Y-112866637D01*
X82004126Y-112840121D01*
X82003908Y-112839795D01*
X81987740Y-112809547D01*
X81987590Y-112809185D01*
X81977632Y-112776361D01*
X81977556Y-112775976D01*
X81973590Y-112735704D01*
X81973580Y-112735508D01*
X81973580Y-112652566D01*
X81974580Y-112650834D01*
X81976580Y-112650834D01*
X81977570Y-112652370D01*
G37*
G36*
X98609425Y-112650940D02*
G01*
X98610260Y-112652566D01*
X98610260Y-112735508D01*
X98610250Y-112735704D01*
X98606284Y-112775976D01*
X98606208Y-112776361D01*
X98596250Y-112809185D01*
X98596100Y-112809547D01*
X98579932Y-112839795D01*
X98579714Y-112840121D01*
X98557954Y-112866637D01*
X98557677Y-112866914D01*
X98531161Y-112888674D01*
X98530835Y-112888892D01*
X98500587Y-112905060D01*
X98500225Y-112905210D01*
X98467401Y-112915168D01*
X98467016Y-112915244D01*
X98426744Y-112919210D01*
X98426548Y-112919220D01*
X98343606Y-112919220D01*
X98341874Y-112918220D01*
X98341874Y-112916220D01*
X98343410Y-112915230D01*
X98394842Y-112910165D01*
X98444116Y-112895217D01*
X98489524Y-112870947D01*
X98529324Y-112838284D01*
X98561987Y-112798484D01*
X98586257Y-112753076D01*
X98601205Y-112703802D01*
X98606270Y-112652370D01*
X98607435Y-112650744D01*
X98609425Y-112650940D01*
G37*
G36*
X89422546Y-111074220D02*
G01*
X89422546Y-111076220D01*
X89421010Y-111077210D01*
X89369578Y-111082275D01*
X89320304Y-111097223D01*
X89274896Y-111121493D01*
X89235096Y-111154156D01*
X89202433Y-111193956D01*
X89178163Y-111239364D01*
X89163215Y-111288638D01*
X89158150Y-111340070D01*
X89156985Y-111341696D01*
X89154995Y-111341500D01*
X89154160Y-111339874D01*
X89154160Y-111256932D01*
X89154170Y-111256736D01*
X89158136Y-111216464D01*
X89158212Y-111216079D01*
X89168170Y-111183255D01*
X89168320Y-111182893D01*
X89184488Y-111152645D01*
X89184706Y-111152319D01*
X89206466Y-111125803D01*
X89206743Y-111125526D01*
X89233259Y-111103766D01*
X89233585Y-111103548D01*
X89263833Y-111087380D01*
X89264195Y-111087230D01*
X89297019Y-111077272D01*
X89297404Y-111077196D01*
X89337676Y-111073230D01*
X89337872Y-111073220D01*
X89420814Y-111073220D01*
X89422546Y-111074220D01*
G37*
G36*
X82241966Y-111074220D02*
G01*
X82241966Y-111076220D01*
X82240430Y-111077210D01*
X82188998Y-111082275D01*
X82139724Y-111097223D01*
X82094316Y-111121493D01*
X82054516Y-111154156D01*
X82021853Y-111193956D01*
X81997583Y-111239364D01*
X81982635Y-111288638D01*
X81977570Y-111340070D01*
X81976405Y-111341696D01*
X81974415Y-111341500D01*
X81973580Y-111339874D01*
X81973580Y-111256932D01*
X81973590Y-111256736D01*
X81977556Y-111216464D01*
X81977632Y-111216079D01*
X81987590Y-111183255D01*
X81987740Y-111182893D01*
X82003908Y-111152645D01*
X82004126Y-111152319D01*
X82025886Y-111125803D01*
X82026163Y-111125526D01*
X82052679Y-111103766D01*
X82053005Y-111103548D01*
X82083253Y-111087380D01*
X82083615Y-111087230D01*
X82116439Y-111077272D01*
X82116824Y-111077196D01*
X82157096Y-111073230D01*
X82157292Y-111073220D01*
X82240234Y-111073220D01*
X82241966Y-111074220D01*
G37*
G36*
X96572646Y-111074220D02*
G01*
X96572646Y-111076220D01*
X96571110Y-111077210D01*
X96519678Y-111082275D01*
X96470404Y-111097223D01*
X96424996Y-111121493D01*
X96385196Y-111154156D01*
X96352533Y-111193956D01*
X96328263Y-111239364D01*
X96313315Y-111288638D01*
X96308250Y-111340070D01*
X96307085Y-111341696D01*
X96305095Y-111341500D01*
X96304260Y-111339874D01*
X96304260Y-111256932D01*
X96304270Y-111256736D01*
X96308236Y-111216464D01*
X96308312Y-111216079D01*
X96318270Y-111183255D01*
X96318420Y-111182893D01*
X96334588Y-111152645D01*
X96334806Y-111152319D01*
X96356566Y-111125803D01*
X96356843Y-111125526D01*
X96383359Y-111103766D01*
X96383685Y-111103548D01*
X96413933Y-111087380D01*
X96414295Y-111087230D01*
X96447119Y-111077272D01*
X96447504Y-111077196D01*
X96487776Y-111073230D01*
X96487972Y-111073220D01*
X96570914Y-111073220D01*
X96572646Y-111074220D01*
G37*
G36*
X91276644Y-111073230D02*
G01*
X91316916Y-111077196D01*
X91317301Y-111077272D01*
X91350125Y-111087230D01*
X91350487Y-111087380D01*
X91380735Y-111103548D01*
X91381061Y-111103766D01*
X91407577Y-111125526D01*
X91407854Y-111125803D01*
X91429614Y-111152319D01*
X91429832Y-111152645D01*
X91446000Y-111182893D01*
X91446150Y-111183255D01*
X91456108Y-111216079D01*
X91456184Y-111216464D01*
X91460150Y-111256736D01*
X91460160Y-111256932D01*
X91460160Y-111339874D01*
X91459160Y-111341606D01*
X91457160Y-111341606D01*
X91456170Y-111340070D01*
X91451105Y-111288638D01*
X91436157Y-111239364D01*
X91411887Y-111193956D01*
X91379224Y-111154156D01*
X91339424Y-111121493D01*
X91294016Y-111097223D01*
X91244742Y-111082275D01*
X91193310Y-111077210D01*
X91191684Y-111076045D01*
X91191880Y-111074055D01*
X91193506Y-111073220D01*
X91276448Y-111073220D01*
X91276644Y-111073230D01*
G37*
G36*
X98426744Y-111073230D02*
G01*
X98467016Y-111077196D01*
X98467401Y-111077272D01*
X98500225Y-111087230D01*
X98500587Y-111087380D01*
X98530835Y-111103548D01*
X98531161Y-111103766D01*
X98557677Y-111125526D01*
X98557954Y-111125803D01*
X98579714Y-111152319D01*
X98579932Y-111152645D01*
X98596100Y-111182893D01*
X98596250Y-111183255D01*
X98606208Y-111216079D01*
X98606284Y-111216464D01*
X98610250Y-111256736D01*
X98610260Y-111256932D01*
X98610260Y-111339874D01*
X98609260Y-111341606D01*
X98607260Y-111341606D01*
X98606270Y-111340070D01*
X98601205Y-111288638D01*
X98586257Y-111239364D01*
X98561987Y-111193956D01*
X98529324Y-111154156D01*
X98489524Y-111121493D01*
X98444116Y-111097223D01*
X98394842Y-111082275D01*
X98343410Y-111077210D01*
X98341784Y-111076045D01*
X98341980Y-111074055D01*
X98343606Y-111073220D01*
X98426548Y-111073220D01*
X98426744Y-111073230D01*
G37*
G36*
X84096064Y-111073230D02*
G01*
X84136336Y-111077196D01*
X84136721Y-111077272D01*
X84169545Y-111087230D01*
X84169907Y-111087380D01*
X84200155Y-111103548D01*
X84200481Y-111103766D01*
X84226997Y-111125526D01*
X84227274Y-111125803D01*
X84249034Y-111152319D01*
X84249252Y-111152645D01*
X84265420Y-111182893D01*
X84265570Y-111183255D01*
X84275528Y-111216079D01*
X84275604Y-111216464D01*
X84279570Y-111256736D01*
X84279580Y-111256932D01*
X84279580Y-111339874D01*
X84278580Y-111341606D01*
X84276580Y-111341606D01*
X84275590Y-111340070D01*
X84270525Y-111288638D01*
X84255577Y-111239364D01*
X84231307Y-111193956D01*
X84198644Y-111154156D01*
X84158844Y-111121493D01*
X84113436Y-111097223D01*
X84064162Y-111082275D01*
X84012730Y-111077210D01*
X84011104Y-111076045D01*
X84011300Y-111074055D01*
X84012926Y-111073220D01*
X84095868Y-111073220D01*
X84096064Y-111073230D01*
G37*
M02*
