G04 #@! TF.GenerationSoftware,KiCad,Pcbnew,5.1.6-c6e7f7d~87~ubuntu18.04.1*
G04 #@! TF.CreationDate,2020-09-01T15:08:19+02:00*
G04 #@! TF.ProjectId,alim_hat,616c696d-5f68-4617-942e-6b696361645f,rev?*
G04 #@! TF.SameCoordinates,Original*
G04 #@! TF.FileFunction,Paste,Bot*
G04 #@! TF.FilePolarity,Positive*
%FSLAX46Y46*%
G04 Gerber Fmt 4.6, Leading zero omitted, Abs format (unit mm)*
G04 Created by KiCad (PCBNEW 5.1.6-c6e7f7d~87~ubuntu18.04.1) date 2020-09-01 15:08:19*
%MOMM*%
%LPD*%
G01*
G04 APERTURE LIST*
%ADD10R,2.900000X5.450000*%
G04 APERTURE END LIST*
G36*
G01*
X267154999Y-139525000D02*
X270005001Y-139525000D01*
G75*
G02*
X270255000Y-139774999I0J-249999D01*
G01*
X270255000Y-140625001D01*
G75*
G02*
X270005001Y-140875000I-249999J0D01*
G01*
X267154999Y-140875000D01*
G75*
G02*
X266905000Y-140625001I0J249999D01*
G01*
X266905000Y-139774999D01*
G75*
G02*
X267154999Y-139525000I249999J0D01*
G01*
G37*
G36*
G01*
X267154999Y-133725000D02*
X270005001Y-133725000D01*
G75*
G02*
X270255000Y-133974999I0J-249999D01*
G01*
X270255000Y-134825001D01*
G75*
G02*
X270005001Y-135075000I-249999J0D01*
G01*
X267154999Y-135075000D01*
G75*
G02*
X266905000Y-134825001I0J249999D01*
G01*
X266905000Y-133974999D01*
G75*
G02*
X267154999Y-133725000I249999J0D01*
G01*
G37*
G36*
G01*
X267154999Y-128095000D02*
X270005001Y-128095000D01*
G75*
G02*
X270255000Y-128344999I0J-249999D01*
G01*
X270255000Y-129195001D01*
G75*
G02*
X270005001Y-129445000I-249999J0D01*
G01*
X267154999Y-129445000D01*
G75*
G02*
X266905000Y-129195001I0J249999D01*
G01*
X266905000Y-128344999D01*
G75*
G02*
X267154999Y-128095000I249999J0D01*
G01*
G37*
G36*
G01*
X267154999Y-122295000D02*
X270005001Y-122295000D01*
G75*
G02*
X270255000Y-122544999I0J-249999D01*
G01*
X270255000Y-123395001D01*
G75*
G02*
X270005001Y-123645000I-249999J0D01*
G01*
X267154999Y-123645000D01*
G75*
G02*
X266905000Y-123395001I0J249999D01*
G01*
X266905000Y-122544999D01*
G75*
G02*
X267154999Y-122295000I249999J0D01*
G01*
G37*
G36*
G01*
X267154999Y-115395000D02*
X270005001Y-115395000D01*
G75*
G02*
X270255000Y-115644999I0J-249999D01*
G01*
X270255000Y-116495001D01*
G75*
G02*
X270005001Y-116745000I-249999J0D01*
G01*
X267154999Y-116745000D01*
G75*
G02*
X266905000Y-116495001I0J249999D01*
G01*
X266905000Y-115644999D01*
G75*
G02*
X267154999Y-115395000I249999J0D01*
G01*
G37*
G36*
G01*
X267154999Y-109595000D02*
X270005001Y-109595000D01*
G75*
G02*
X270255000Y-109844999I0J-249999D01*
G01*
X270255000Y-110695001D01*
G75*
G02*
X270005001Y-110945000I-249999J0D01*
G01*
X267154999Y-110945000D01*
G75*
G02*
X266905000Y-110695001I0J249999D01*
G01*
X266905000Y-109844999D01*
G75*
G02*
X267154999Y-109595000I249999J0D01*
G01*
G37*
G36*
G01*
X267144839Y-104627940D02*
X269994841Y-104627940D01*
G75*
G02*
X270244840Y-104877939I0J-249999D01*
G01*
X270244840Y-105727941D01*
G75*
G02*
X269994841Y-105977940I-249999J0D01*
G01*
X267144839Y-105977940D01*
G75*
G02*
X266894840Y-105727941I0J249999D01*
G01*
X266894840Y-104877939D01*
G75*
G02*
X267144839Y-104627940I249999J0D01*
G01*
G37*
G36*
G01*
X267144839Y-98827940D02*
X269994841Y-98827940D01*
G75*
G02*
X270244840Y-99077939I0J-249999D01*
G01*
X270244840Y-99927941D01*
G75*
G02*
X269994841Y-100177940I-249999J0D01*
G01*
X267144839Y-100177940D01*
G75*
G02*
X266894840Y-99927941I0J249999D01*
G01*
X266894840Y-99077939D01*
G75*
G02*
X267144839Y-98827940I249999J0D01*
G01*
G37*
D10*
X259394000Y-139586000D03*
X253594000Y-139586000D03*
X259140000Y-128156000D03*
X253340000Y-128156000D03*
X259288000Y-115456000D03*
X253488000Y-115456000D03*
X259288000Y-105296000D03*
X253488000Y-105296000D03*
M02*
