G04 #@! TF.GenerationSoftware,KiCad,Pcbnew,5.1.7-a382d34a8~88~ubuntu18.04.1*
G04 #@! TF.CreationDate,2021-04-23T16:21:05+02:00*
G04 #@! TF.ProjectId,alim_hat,616c696d-5f68-4617-942e-6b696361645f,4.1*
G04 #@! TF.SameCoordinates,Original*
G04 #@! TF.FileFunction,Soldermask,Bot*
G04 #@! TF.FilePolarity,Negative*
%FSLAX46Y46*%
G04 Gerber Fmt 4.6, Leading zero omitted, Abs format (unit mm)*
G04 Created by KiCad (PCBNEW 5.1.7-a382d34a8~88~ubuntu18.04.1) date 2021-04-23 16:21:05*
%MOMM*%
%LPD*%
G01*
G04 APERTURE LIST*
%ADD10C,3.500000*%
%ADD11R,3.500000X3.500000*%
%ADD12C,1.400000*%
%ADD13O,1.700000X1.700000*%
%ADD14R,1.700000X1.700000*%
%ADD15C,5.600000*%
%ADD16C,6.200000*%
%ADD17C,3.200000*%
%ADD18C,2.250000*%
%ADD19C,3.000000*%
%ADD20R,3.000000X3.000000*%
G04 APERTURE END LIST*
D10*
X213100000Y-113800000D03*
D11*
X213100000Y-108800000D03*
D12*
X203100000Y-116800000D03*
X203100000Y-105800000D03*
D13*
X252070000Y-116980000D03*
D14*
X252070000Y-114440000D03*
D13*
X252070000Y-141110000D03*
D14*
X252070000Y-138570000D03*
D13*
X252070000Y-129680000D03*
D14*
X252070000Y-127140000D03*
D13*
X252070000Y-106820000D03*
D14*
X252070000Y-104280000D03*
D15*
X261510000Y-146190000D03*
D16*
X203510000Y-146200000D03*
X261510000Y-97200000D03*
D17*
X203510000Y-97200000D03*
D13*
X215176500Y-121143060D03*
D14*
X215176500Y-118603060D03*
D18*
X241820000Y-104100000D03*
X241820000Y-114260000D03*
X241820000Y-124420000D03*
X221500000Y-116800000D03*
X221500000Y-111720000D03*
X221500000Y-104100000D03*
D13*
X249530000Y-116980000D03*
D14*
X249530000Y-114440000D03*
D13*
X249530000Y-141110000D03*
D14*
X249530000Y-138570000D03*
D13*
X249530000Y-129680000D03*
D14*
X249530000Y-127140000D03*
D13*
X249530000Y-106820000D03*
D14*
X249530000Y-104280000D03*
G36*
G01*
X279680000Y-135535000D02*
X279680000Y-137285000D01*
G75*
G02*
X278805000Y-138160000I-875000J0D01*
G01*
X277055000Y-138160000D01*
G75*
G02*
X276180000Y-137285000I0J875000D01*
G01*
X276180000Y-135535000D01*
G75*
G02*
X277055000Y-134660000I875000J0D01*
G01*
X278805000Y-134660000D01*
G75*
G02*
X279680000Y-135535000I0J-875000D01*
G01*
G37*
G36*
G01*
X282430000Y-140110000D02*
X282430000Y-142110000D01*
G75*
G02*
X281680000Y-142860000I-750000J0D01*
G01*
X280180000Y-142860000D01*
G75*
G02*
X279430000Y-142110000I0J750000D01*
G01*
X279430000Y-140110000D01*
G75*
G02*
X280180000Y-139360000I750000J0D01*
G01*
X281680000Y-139360000D01*
G75*
G02*
X282430000Y-140110000I0J-750000D01*
G01*
G37*
D11*
X274930000Y-141110000D03*
G36*
G01*
X279680000Y-110135000D02*
X279680000Y-111885000D01*
G75*
G02*
X278805000Y-112760000I-875000J0D01*
G01*
X277055000Y-112760000D01*
G75*
G02*
X276180000Y-111885000I0J875000D01*
G01*
X276180000Y-110135000D01*
G75*
G02*
X277055000Y-109260000I875000J0D01*
G01*
X278805000Y-109260000D01*
G75*
G02*
X279680000Y-110135000I0J-875000D01*
G01*
G37*
G36*
G01*
X282430000Y-114710000D02*
X282430000Y-116710000D01*
G75*
G02*
X281680000Y-117460000I-750000J0D01*
G01*
X280180000Y-117460000D01*
G75*
G02*
X279430000Y-116710000I0J750000D01*
G01*
X279430000Y-114710000D01*
G75*
G02*
X280180000Y-113960000I750000J0D01*
G01*
X281680000Y-113960000D01*
G75*
G02*
X282430000Y-114710000I0J-750000D01*
G01*
G37*
X274930000Y-115710000D03*
G36*
G01*
X279680000Y-122835000D02*
X279680000Y-124585000D01*
G75*
G02*
X278805000Y-125460000I-875000J0D01*
G01*
X277055000Y-125460000D01*
G75*
G02*
X276180000Y-124585000I0J875000D01*
G01*
X276180000Y-122835000D01*
G75*
G02*
X277055000Y-121960000I875000J0D01*
G01*
X278805000Y-121960000D01*
G75*
G02*
X279680000Y-122835000I0J-875000D01*
G01*
G37*
G36*
G01*
X282430000Y-127410000D02*
X282430000Y-129410000D01*
G75*
G02*
X281680000Y-130160000I-750000J0D01*
G01*
X280180000Y-130160000D01*
G75*
G02*
X279430000Y-129410000I0J750000D01*
G01*
X279430000Y-127410000D01*
G75*
G02*
X280180000Y-126660000I750000J0D01*
G01*
X281680000Y-126660000D01*
G75*
G02*
X282430000Y-127410000I0J-750000D01*
G01*
G37*
X274930000Y-128410000D03*
G36*
G01*
X279680000Y-97435000D02*
X279680000Y-99185000D01*
G75*
G02*
X278805000Y-100060000I-875000J0D01*
G01*
X277055000Y-100060000D01*
G75*
G02*
X276180000Y-99185000I0J875000D01*
G01*
X276180000Y-97435000D01*
G75*
G02*
X277055000Y-96560000I875000J0D01*
G01*
X278805000Y-96560000D01*
G75*
G02*
X279680000Y-97435000I0J-875000D01*
G01*
G37*
G36*
G01*
X282430000Y-102010000D02*
X282430000Y-104010000D01*
G75*
G02*
X281680000Y-104760000I-750000J0D01*
G01*
X280180000Y-104760000D01*
G75*
G02*
X279430000Y-104010000I0J750000D01*
G01*
X279430000Y-102010000D01*
G75*
G02*
X280180000Y-101260000I750000J0D01*
G01*
X281680000Y-101260000D01*
G75*
G02*
X282430000Y-102010000I0J-750000D01*
G01*
G37*
X274930000Y-103010000D03*
D14*
X208382000Y-98438000D03*
D13*
X208382000Y-95898000D03*
X210922000Y-98438000D03*
X210922000Y-95898000D03*
X213462000Y-98438000D03*
X213462000Y-95898000D03*
X216002000Y-98438000D03*
X216002000Y-95898000D03*
X218542000Y-98438000D03*
X218542000Y-95898000D03*
X221082000Y-98438000D03*
X221082000Y-95898000D03*
X223622000Y-98438000D03*
X223622000Y-95898000D03*
X226162000Y-98438000D03*
X226162000Y-95898000D03*
X228702000Y-98438000D03*
X228702000Y-95898000D03*
X231242000Y-98438000D03*
X231242000Y-95898000D03*
X233782000Y-98438000D03*
X233782000Y-95898000D03*
X236322000Y-98438000D03*
X236322000Y-95898000D03*
X238862000Y-98438000D03*
X238862000Y-95898000D03*
X241402000Y-98438000D03*
X241402000Y-95898000D03*
X243942000Y-98438000D03*
X243942000Y-95898000D03*
X246482000Y-98438000D03*
X246482000Y-95898000D03*
X249022000Y-98438000D03*
X249022000Y-95898000D03*
X251562000Y-98438000D03*
X251562000Y-95898000D03*
X254102000Y-98438000D03*
X254102000Y-95898000D03*
X256642000Y-98438000D03*
X256642000Y-95898000D03*
D19*
X204710000Y-138800000D03*
D20*
X204710000Y-123560000D03*
D19*
X204710000Y-133720000D03*
X204710000Y-128640000D03*
D13*
X217785080Y-147447300D03*
X217785080Y-144907300D03*
X215245080Y-147447300D03*
X215245080Y-144907300D03*
X212705080Y-147447300D03*
X212705080Y-144907300D03*
X210165080Y-147447300D03*
D14*
X210165080Y-144907300D03*
M02*
