G04 #@! TF.GenerationSoftware,KiCad,Pcbnew,(5.1.5)-3*
G04 #@! TF.CreationDate,2020-10-29T22:53:37+01:00*
G04 #@! TF.ProjectId,alim_hat,616c696d-5f68-4617-942e-6b696361645f,rev?*
G04 #@! TF.SameCoordinates,Original*
G04 #@! TF.FileFunction,Copper,L4,Bot*
G04 #@! TF.FilePolarity,Positive*
%FSLAX46Y46*%
G04 Gerber Fmt 4.6, Leading zero omitted, Abs format (unit mm)*
G04 Created by KiCad (PCBNEW (5.1.5)-3) date 2020-10-29 22:53:37*
%MOMM*%
%LPD*%
G04 APERTURE LIST*
%ADD10O,1.700000X1.700000*%
%ADD11R,1.700000X1.700000*%
%ADD12C,3.500000*%
%ADD13R,3.500000X3.500000*%
%ADD14C,1.400000*%
%ADD15C,2.250000*%
%ADD16C,0.150000*%
%ADD17R,2.900000X5.450000*%
%ADD18C,3.000000*%
%ADD19R,3.000000X3.000000*%
%ADD20C,0.900000*%
%ADD21C,0.200000*%
%ADD22C,0.500000*%
%ADD23C,1.000000*%
%ADD24C,2.000000*%
%ADD25C,1.200000*%
%ADD26C,0.400000*%
%ADD27C,5.000000*%
%ADD28C,0.254000*%
G04 APERTURE END LIST*
D10*
X252070000Y-116980000D03*
D11*
X252070000Y-114440000D03*
D10*
X252070000Y-141110000D03*
D11*
X252070000Y-138570000D03*
D10*
X252070000Y-129680000D03*
D11*
X252070000Y-127140000D03*
D10*
X252070000Y-106820000D03*
D11*
X252070000Y-104280000D03*
D12*
X213030200Y-113793580D03*
D13*
X213030200Y-108793580D03*
D14*
X203030200Y-116793580D03*
X203030200Y-105793580D03*
D10*
X215176500Y-121143060D03*
D11*
X215176500Y-118603060D03*
D15*
X241820000Y-104100000D03*
X241820000Y-114260000D03*
X241820000Y-124420000D03*
X221500000Y-116800000D03*
X221500000Y-111720000D03*
X221500000Y-104100000D03*
D10*
X249530000Y-116980000D03*
D11*
X249530000Y-114440000D03*
D10*
X249530000Y-141110000D03*
D11*
X249530000Y-138570000D03*
D10*
X249530000Y-129680000D03*
D11*
X249530000Y-127140000D03*
D10*
X249530000Y-106820000D03*
D11*
X249530000Y-104280000D03*
G04 #@! TA.AperFunction,ComponentPad*
D16*
G36*
X278890765Y-134664213D02*
G01*
X278975704Y-134676813D01*
X279058999Y-134697677D01*
X279139848Y-134726605D01*
X279217472Y-134763319D01*
X279291124Y-134807464D01*
X279360094Y-134858616D01*
X279423718Y-134916282D01*
X279481384Y-134979906D01*
X279532536Y-135048876D01*
X279576681Y-135122528D01*
X279613395Y-135200152D01*
X279642323Y-135281001D01*
X279663187Y-135364296D01*
X279675787Y-135449235D01*
X279680000Y-135535000D01*
X279680000Y-137285000D01*
X279675787Y-137370765D01*
X279663187Y-137455704D01*
X279642323Y-137538999D01*
X279613395Y-137619848D01*
X279576681Y-137697472D01*
X279532536Y-137771124D01*
X279481384Y-137840094D01*
X279423718Y-137903718D01*
X279360094Y-137961384D01*
X279291124Y-138012536D01*
X279217472Y-138056681D01*
X279139848Y-138093395D01*
X279058999Y-138122323D01*
X278975704Y-138143187D01*
X278890765Y-138155787D01*
X278805000Y-138160000D01*
X277055000Y-138160000D01*
X276969235Y-138155787D01*
X276884296Y-138143187D01*
X276801001Y-138122323D01*
X276720152Y-138093395D01*
X276642528Y-138056681D01*
X276568876Y-138012536D01*
X276499906Y-137961384D01*
X276436282Y-137903718D01*
X276378616Y-137840094D01*
X276327464Y-137771124D01*
X276283319Y-137697472D01*
X276246605Y-137619848D01*
X276217677Y-137538999D01*
X276196813Y-137455704D01*
X276184213Y-137370765D01*
X276180000Y-137285000D01*
X276180000Y-135535000D01*
X276184213Y-135449235D01*
X276196813Y-135364296D01*
X276217677Y-135281001D01*
X276246605Y-135200152D01*
X276283319Y-135122528D01*
X276327464Y-135048876D01*
X276378616Y-134979906D01*
X276436282Y-134916282D01*
X276499906Y-134858616D01*
X276568876Y-134807464D01*
X276642528Y-134763319D01*
X276720152Y-134726605D01*
X276801001Y-134697677D01*
X276884296Y-134676813D01*
X276969235Y-134664213D01*
X277055000Y-134660000D01*
X278805000Y-134660000D01*
X278890765Y-134664213D01*
G37*
G04 #@! TD.AperFunction*
G04 #@! TA.AperFunction,ComponentPad*
G36*
X281753513Y-139363611D02*
G01*
X281826318Y-139374411D01*
X281897714Y-139392295D01*
X281967013Y-139417090D01*
X282033548Y-139448559D01*
X282096678Y-139486398D01*
X282155795Y-139530242D01*
X282210330Y-139579670D01*
X282259758Y-139634205D01*
X282303602Y-139693322D01*
X282341441Y-139756452D01*
X282372910Y-139822987D01*
X282397705Y-139892286D01*
X282415589Y-139963682D01*
X282426389Y-140036487D01*
X282430000Y-140110000D01*
X282430000Y-142110000D01*
X282426389Y-142183513D01*
X282415589Y-142256318D01*
X282397705Y-142327714D01*
X282372910Y-142397013D01*
X282341441Y-142463548D01*
X282303602Y-142526678D01*
X282259758Y-142585795D01*
X282210330Y-142640330D01*
X282155795Y-142689758D01*
X282096678Y-142733602D01*
X282033548Y-142771441D01*
X281967013Y-142802910D01*
X281897714Y-142827705D01*
X281826318Y-142845589D01*
X281753513Y-142856389D01*
X281680000Y-142860000D01*
X280180000Y-142860000D01*
X280106487Y-142856389D01*
X280033682Y-142845589D01*
X279962286Y-142827705D01*
X279892987Y-142802910D01*
X279826452Y-142771441D01*
X279763322Y-142733602D01*
X279704205Y-142689758D01*
X279649670Y-142640330D01*
X279600242Y-142585795D01*
X279556398Y-142526678D01*
X279518559Y-142463548D01*
X279487090Y-142397013D01*
X279462295Y-142327714D01*
X279444411Y-142256318D01*
X279433611Y-142183513D01*
X279430000Y-142110000D01*
X279430000Y-140110000D01*
X279433611Y-140036487D01*
X279444411Y-139963682D01*
X279462295Y-139892286D01*
X279487090Y-139822987D01*
X279518559Y-139756452D01*
X279556398Y-139693322D01*
X279600242Y-139634205D01*
X279649670Y-139579670D01*
X279704205Y-139530242D01*
X279763322Y-139486398D01*
X279826452Y-139448559D01*
X279892987Y-139417090D01*
X279962286Y-139392295D01*
X280033682Y-139374411D01*
X280106487Y-139363611D01*
X280180000Y-139360000D01*
X281680000Y-139360000D01*
X281753513Y-139363611D01*
G37*
G04 #@! TD.AperFunction*
D13*
X274930000Y-141110000D03*
G04 #@! TA.AperFunction,ComponentPad*
D16*
G36*
X278890765Y-109264213D02*
G01*
X278975704Y-109276813D01*
X279058999Y-109297677D01*
X279139848Y-109326605D01*
X279217472Y-109363319D01*
X279291124Y-109407464D01*
X279360094Y-109458616D01*
X279423718Y-109516282D01*
X279481384Y-109579906D01*
X279532536Y-109648876D01*
X279576681Y-109722528D01*
X279613395Y-109800152D01*
X279642323Y-109881001D01*
X279663187Y-109964296D01*
X279675787Y-110049235D01*
X279680000Y-110135000D01*
X279680000Y-111885000D01*
X279675787Y-111970765D01*
X279663187Y-112055704D01*
X279642323Y-112138999D01*
X279613395Y-112219848D01*
X279576681Y-112297472D01*
X279532536Y-112371124D01*
X279481384Y-112440094D01*
X279423718Y-112503718D01*
X279360094Y-112561384D01*
X279291124Y-112612536D01*
X279217472Y-112656681D01*
X279139848Y-112693395D01*
X279058999Y-112722323D01*
X278975704Y-112743187D01*
X278890765Y-112755787D01*
X278805000Y-112760000D01*
X277055000Y-112760000D01*
X276969235Y-112755787D01*
X276884296Y-112743187D01*
X276801001Y-112722323D01*
X276720152Y-112693395D01*
X276642528Y-112656681D01*
X276568876Y-112612536D01*
X276499906Y-112561384D01*
X276436282Y-112503718D01*
X276378616Y-112440094D01*
X276327464Y-112371124D01*
X276283319Y-112297472D01*
X276246605Y-112219848D01*
X276217677Y-112138999D01*
X276196813Y-112055704D01*
X276184213Y-111970765D01*
X276180000Y-111885000D01*
X276180000Y-110135000D01*
X276184213Y-110049235D01*
X276196813Y-109964296D01*
X276217677Y-109881001D01*
X276246605Y-109800152D01*
X276283319Y-109722528D01*
X276327464Y-109648876D01*
X276378616Y-109579906D01*
X276436282Y-109516282D01*
X276499906Y-109458616D01*
X276568876Y-109407464D01*
X276642528Y-109363319D01*
X276720152Y-109326605D01*
X276801001Y-109297677D01*
X276884296Y-109276813D01*
X276969235Y-109264213D01*
X277055000Y-109260000D01*
X278805000Y-109260000D01*
X278890765Y-109264213D01*
G37*
G04 #@! TD.AperFunction*
G04 #@! TA.AperFunction,ComponentPad*
G36*
X281753513Y-113963611D02*
G01*
X281826318Y-113974411D01*
X281897714Y-113992295D01*
X281967013Y-114017090D01*
X282033548Y-114048559D01*
X282096678Y-114086398D01*
X282155795Y-114130242D01*
X282210330Y-114179670D01*
X282259758Y-114234205D01*
X282303602Y-114293322D01*
X282341441Y-114356452D01*
X282372910Y-114422987D01*
X282397705Y-114492286D01*
X282415589Y-114563682D01*
X282426389Y-114636487D01*
X282430000Y-114710000D01*
X282430000Y-116710000D01*
X282426389Y-116783513D01*
X282415589Y-116856318D01*
X282397705Y-116927714D01*
X282372910Y-116997013D01*
X282341441Y-117063548D01*
X282303602Y-117126678D01*
X282259758Y-117185795D01*
X282210330Y-117240330D01*
X282155795Y-117289758D01*
X282096678Y-117333602D01*
X282033548Y-117371441D01*
X281967013Y-117402910D01*
X281897714Y-117427705D01*
X281826318Y-117445589D01*
X281753513Y-117456389D01*
X281680000Y-117460000D01*
X280180000Y-117460000D01*
X280106487Y-117456389D01*
X280033682Y-117445589D01*
X279962286Y-117427705D01*
X279892987Y-117402910D01*
X279826452Y-117371441D01*
X279763322Y-117333602D01*
X279704205Y-117289758D01*
X279649670Y-117240330D01*
X279600242Y-117185795D01*
X279556398Y-117126678D01*
X279518559Y-117063548D01*
X279487090Y-116997013D01*
X279462295Y-116927714D01*
X279444411Y-116856318D01*
X279433611Y-116783513D01*
X279430000Y-116710000D01*
X279430000Y-114710000D01*
X279433611Y-114636487D01*
X279444411Y-114563682D01*
X279462295Y-114492286D01*
X279487090Y-114422987D01*
X279518559Y-114356452D01*
X279556398Y-114293322D01*
X279600242Y-114234205D01*
X279649670Y-114179670D01*
X279704205Y-114130242D01*
X279763322Y-114086398D01*
X279826452Y-114048559D01*
X279892987Y-114017090D01*
X279962286Y-113992295D01*
X280033682Y-113974411D01*
X280106487Y-113963611D01*
X280180000Y-113960000D01*
X281680000Y-113960000D01*
X281753513Y-113963611D01*
G37*
G04 #@! TD.AperFunction*
D13*
X274930000Y-115710000D03*
G04 #@! TA.AperFunction,ComponentPad*
D16*
G36*
X278890765Y-121964213D02*
G01*
X278975704Y-121976813D01*
X279058999Y-121997677D01*
X279139848Y-122026605D01*
X279217472Y-122063319D01*
X279291124Y-122107464D01*
X279360094Y-122158616D01*
X279423718Y-122216282D01*
X279481384Y-122279906D01*
X279532536Y-122348876D01*
X279576681Y-122422528D01*
X279613395Y-122500152D01*
X279642323Y-122581001D01*
X279663187Y-122664296D01*
X279675787Y-122749235D01*
X279680000Y-122835000D01*
X279680000Y-124585000D01*
X279675787Y-124670765D01*
X279663187Y-124755704D01*
X279642323Y-124838999D01*
X279613395Y-124919848D01*
X279576681Y-124997472D01*
X279532536Y-125071124D01*
X279481384Y-125140094D01*
X279423718Y-125203718D01*
X279360094Y-125261384D01*
X279291124Y-125312536D01*
X279217472Y-125356681D01*
X279139848Y-125393395D01*
X279058999Y-125422323D01*
X278975704Y-125443187D01*
X278890765Y-125455787D01*
X278805000Y-125460000D01*
X277055000Y-125460000D01*
X276969235Y-125455787D01*
X276884296Y-125443187D01*
X276801001Y-125422323D01*
X276720152Y-125393395D01*
X276642528Y-125356681D01*
X276568876Y-125312536D01*
X276499906Y-125261384D01*
X276436282Y-125203718D01*
X276378616Y-125140094D01*
X276327464Y-125071124D01*
X276283319Y-124997472D01*
X276246605Y-124919848D01*
X276217677Y-124838999D01*
X276196813Y-124755704D01*
X276184213Y-124670765D01*
X276180000Y-124585000D01*
X276180000Y-122835000D01*
X276184213Y-122749235D01*
X276196813Y-122664296D01*
X276217677Y-122581001D01*
X276246605Y-122500152D01*
X276283319Y-122422528D01*
X276327464Y-122348876D01*
X276378616Y-122279906D01*
X276436282Y-122216282D01*
X276499906Y-122158616D01*
X276568876Y-122107464D01*
X276642528Y-122063319D01*
X276720152Y-122026605D01*
X276801001Y-121997677D01*
X276884296Y-121976813D01*
X276969235Y-121964213D01*
X277055000Y-121960000D01*
X278805000Y-121960000D01*
X278890765Y-121964213D01*
G37*
G04 #@! TD.AperFunction*
G04 #@! TA.AperFunction,ComponentPad*
G36*
X281753513Y-126663611D02*
G01*
X281826318Y-126674411D01*
X281897714Y-126692295D01*
X281967013Y-126717090D01*
X282033548Y-126748559D01*
X282096678Y-126786398D01*
X282155795Y-126830242D01*
X282210330Y-126879670D01*
X282259758Y-126934205D01*
X282303602Y-126993322D01*
X282341441Y-127056452D01*
X282372910Y-127122987D01*
X282397705Y-127192286D01*
X282415589Y-127263682D01*
X282426389Y-127336487D01*
X282430000Y-127410000D01*
X282430000Y-129410000D01*
X282426389Y-129483513D01*
X282415589Y-129556318D01*
X282397705Y-129627714D01*
X282372910Y-129697013D01*
X282341441Y-129763548D01*
X282303602Y-129826678D01*
X282259758Y-129885795D01*
X282210330Y-129940330D01*
X282155795Y-129989758D01*
X282096678Y-130033602D01*
X282033548Y-130071441D01*
X281967013Y-130102910D01*
X281897714Y-130127705D01*
X281826318Y-130145589D01*
X281753513Y-130156389D01*
X281680000Y-130160000D01*
X280180000Y-130160000D01*
X280106487Y-130156389D01*
X280033682Y-130145589D01*
X279962286Y-130127705D01*
X279892987Y-130102910D01*
X279826452Y-130071441D01*
X279763322Y-130033602D01*
X279704205Y-129989758D01*
X279649670Y-129940330D01*
X279600242Y-129885795D01*
X279556398Y-129826678D01*
X279518559Y-129763548D01*
X279487090Y-129697013D01*
X279462295Y-129627714D01*
X279444411Y-129556318D01*
X279433611Y-129483513D01*
X279430000Y-129410000D01*
X279430000Y-127410000D01*
X279433611Y-127336487D01*
X279444411Y-127263682D01*
X279462295Y-127192286D01*
X279487090Y-127122987D01*
X279518559Y-127056452D01*
X279556398Y-126993322D01*
X279600242Y-126934205D01*
X279649670Y-126879670D01*
X279704205Y-126830242D01*
X279763322Y-126786398D01*
X279826452Y-126748559D01*
X279892987Y-126717090D01*
X279962286Y-126692295D01*
X280033682Y-126674411D01*
X280106487Y-126663611D01*
X280180000Y-126660000D01*
X281680000Y-126660000D01*
X281753513Y-126663611D01*
G37*
G04 #@! TD.AperFunction*
D13*
X274930000Y-128410000D03*
G04 #@! TA.AperFunction,ComponentPad*
D16*
G36*
X278890765Y-96564213D02*
G01*
X278975704Y-96576813D01*
X279058999Y-96597677D01*
X279139848Y-96626605D01*
X279217472Y-96663319D01*
X279291124Y-96707464D01*
X279360094Y-96758616D01*
X279423718Y-96816282D01*
X279481384Y-96879906D01*
X279532536Y-96948876D01*
X279576681Y-97022528D01*
X279613395Y-97100152D01*
X279642323Y-97181001D01*
X279663187Y-97264296D01*
X279675787Y-97349235D01*
X279680000Y-97435000D01*
X279680000Y-99185000D01*
X279675787Y-99270765D01*
X279663187Y-99355704D01*
X279642323Y-99438999D01*
X279613395Y-99519848D01*
X279576681Y-99597472D01*
X279532536Y-99671124D01*
X279481384Y-99740094D01*
X279423718Y-99803718D01*
X279360094Y-99861384D01*
X279291124Y-99912536D01*
X279217472Y-99956681D01*
X279139848Y-99993395D01*
X279058999Y-100022323D01*
X278975704Y-100043187D01*
X278890765Y-100055787D01*
X278805000Y-100060000D01*
X277055000Y-100060000D01*
X276969235Y-100055787D01*
X276884296Y-100043187D01*
X276801001Y-100022323D01*
X276720152Y-99993395D01*
X276642528Y-99956681D01*
X276568876Y-99912536D01*
X276499906Y-99861384D01*
X276436282Y-99803718D01*
X276378616Y-99740094D01*
X276327464Y-99671124D01*
X276283319Y-99597472D01*
X276246605Y-99519848D01*
X276217677Y-99438999D01*
X276196813Y-99355704D01*
X276184213Y-99270765D01*
X276180000Y-99185000D01*
X276180000Y-97435000D01*
X276184213Y-97349235D01*
X276196813Y-97264296D01*
X276217677Y-97181001D01*
X276246605Y-97100152D01*
X276283319Y-97022528D01*
X276327464Y-96948876D01*
X276378616Y-96879906D01*
X276436282Y-96816282D01*
X276499906Y-96758616D01*
X276568876Y-96707464D01*
X276642528Y-96663319D01*
X276720152Y-96626605D01*
X276801001Y-96597677D01*
X276884296Y-96576813D01*
X276969235Y-96564213D01*
X277055000Y-96560000D01*
X278805000Y-96560000D01*
X278890765Y-96564213D01*
G37*
G04 #@! TD.AperFunction*
G04 #@! TA.AperFunction,ComponentPad*
G36*
X281753513Y-101263611D02*
G01*
X281826318Y-101274411D01*
X281897714Y-101292295D01*
X281967013Y-101317090D01*
X282033548Y-101348559D01*
X282096678Y-101386398D01*
X282155795Y-101430242D01*
X282210330Y-101479670D01*
X282259758Y-101534205D01*
X282303602Y-101593322D01*
X282341441Y-101656452D01*
X282372910Y-101722987D01*
X282397705Y-101792286D01*
X282415589Y-101863682D01*
X282426389Y-101936487D01*
X282430000Y-102010000D01*
X282430000Y-104010000D01*
X282426389Y-104083513D01*
X282415589Y-104156318D01*
X282397705Y-104227714D01*
X282372910Y-104297013D01*
X282341441Y-104363548D01*
X282303602Y-104426678D01*
X282259758Y-104485795D01*
X282210330Y-104540330D01*
X282155795Y-104589758D01*
X282096678Y-104633602D01*
X282033548Y-104671441D01*
X281967013Y-104702910D01*
X281897714Y-104727705D01*
X281826318Y-104745589D01*
X281753513Y-104756389D01*
X281680000Y-104760000D01*
X280180000Y-104760000D01*
X280106487Y-104756389D01*
X280033682Y-104745589D01*
X279962286Y-104727705D01*
X279892987Y-104702910D01*
X279826452Y-104671441D01*
X279763322Y-104633602D01*
X279704205Y-104589758D01*
X279649670Y-104540330D01*
X279600242Y-104485795D01*
X279556398Y-104426678D01*
X279518559Y-104363548D01*
X279487090Y-104297013D01*
X279462295Y-104227714D01*
X279444411Y-104156318D01*
X279433611Y-104083513D01*
X279430000Y-104010000D01*
X279430000Y-102010000D01*
X279433611Y-101936487D01*
X279444411Y-101863682D01*
X279462295Y-101792286D01*
X279487090Y-101722987D01*
X279518559Y-101656452D01*
X279556398Y-101593322D01*
X279600242Y-101534205D01*
X279649670Y-101479670D01*
X279704205Y-101430242D01*
X279763322Y-101386398D01*
X279826452Y-101348559D01*
X279892987Y-101317090D01*
X279962286Y-101292295D01*
X280033682Y-101274411D01*
X280106487Y-101263611D01*
X280180000Y-101260000D01*
X281680000Y-101260000D01*
X281753513Y-101263611D01*
G37*
G04 #@! TD.AperFunction*
D13*
X274930000Y-103010000D03*
D17*
X261830000Y-139240000D03*
X256030000Y-139240000D03*
X262070000Y-128430000D03*
X256270000Y-128430000D03*
X261900000Y-115770000D03*
X256100000Y-115770000D03*
X261830000Y-105630000D03*
X256030000Y-105630000D03*
D11*
X208382000Y-98438000D03*
D10*
X208382000Y-95898000D03*
X210922000Y-98438000D03*
X210922000Y-95898000D03*
X213462000Y-98438000D03*
X213462000Y-95898000D03*
X216002000Y-98438000D03*
X216002000Y-95898000D03*
X218542000Y-98438000D03*
X218542000Y-95898000D03*
X221082000Y-98438000D03*
X221082000Y-95898000D03*
X223622000Y-98438000D03*
X223622000Y-95898000D03*
X226162000Y-98438000D03*
X226162000Y-95898000D03*
X228702000Y-98438000D03*
X228702000Y-95898000D03*
X231242000Y-98438000D03*
X231242000Y-95898000D03*
X233782000Y-98438000D03*
X233782000Y-95898000D03*
X236322000Y-98438000D03*
X236322000Y-95898000D03*
X238862000Y-98438000D03*
X238862000Y-95898000D03*
X241402000Y-98438000D03*
X241402000Y-95898000D03*
X243942000Y-98438000D03*
X243942000Y-95898000D03*
X246482000Y-98438000D03*
X246482000Y-95898000D03*
X249022000Y-98438000D03*
X249022000Y-95898000D03*
X251562000Y-98438000D03*
X251562000Y-95898000D03*
X254102000Y-98438000D03*
X254102000Y-95898000D03*
X256642000Y-98438000D03*
X256642000Y-95898000D03*
D18*
X204710000Y-138800000D03*
D19*
X204710000Y-123560000D03*
D18*
X204710000Y-133720000D03*
X204710000Y-128640000D03*
D10*
X217785080Y-147447300D03*
X217785080Y-144907300D03*
X215245080Y-147447300D03*
X215245080Y-144907300D03*
X212705080Y-147447300D03*
X212705080Y-144907300D03*
X210165080Y-147447300D03*
D11*
X210165080Y-144907300D03*
D20*
X229972000Y-100470000D03*
X229972000Y-103010000D03*
X219050000Y-123330000D03*
X221390000Y-123330000D03*
X229300000Y-147700000D03*
X227400000Y-147700000D03*
X229200000Y-144900000D03*
X227400000Y-144800000D03*
X227400000Y-146300000D03*
X240383460Y-132613700D03*
X226670000Y-132800000D03*
X229200000Y-146300000D03*
X270358000Y-106346608D03*
X270358000Y-117313000D03*
X270358000Y-130702000D03*
X270358000Y-140842000D03*
X226085700Y-139314300D03*
X218200000Y-136300000D03*
X266232000Y-144412000D03*
X265130000Y-131210000D03*
X265278000Y-125616000D03*
X265260000Y-118870000D03*
X264785000Y-108675000D03*
X256409000Y-101761000D03*
X264900000Y-101690000D03*
X265610000Y-100970000D03*
X269342000Y-131712000D03*
X266548000Y-143396000D03*
X266140000Y-118080000D03*
X265532000Y-107328000D03*
X261900000Y-111045000D03*
X263420000Y-110870000D03*
X262150000Y-122900000D03*
X263900000Y-122900000D03*
X263980000Y-134630000D03*
X261860000Y-134660000D03*
X240750000Y-145340000D03*
X240760000Y-143650000D03*
X240800000Y-141710000D03*
X242790000Y-143610000D03*
X238760000Y-143690000D03*
X238760000Y-145340000D03*
X242790000Y-145370000D03*
X242790000Y-141730000D03*
X238730000Y-141710000D03*
D21*
X229972000Y-100470000D02*
X229972000Y-103010000D01*
D22*
X219050000Y-123330000D02*
X219050000Y-123330000D01*
D23*
X216535400Y-104015840D02*
X216630000Y-103820000D01*
X206604000Y-100645260D02*
X206660000Y-101150000D01*
D24*
X219050000Y-123330000D02*
X221240000Y-123330000D01*
X207179919Y-95898000D02*
X207171919Y-95890000D01*
X207171919Y-95890000D02*
X206610000Y-95890000D01*
X208382000Y-95898000D02*
X207179919Y-95898000D01*
X206331999Y-96168001D02*
X206610000Y-95890000D01*
X206331999Y-100373259D02*
X206331999Y-96168001D01*
X206310001Y-100800001D02*
X206310001Y-97750000D01*
X207410000Y-101900000D02*
X206310001Y-100800001D01*
X207410000Y-101900000D02*
X206660000Y-101150000D01*
X209525840Y-104015840D02*
X207410000Y-101900000D01*
X208382000Y-95898000D02*
X210922000Y-95898000D01*
X216535400Y-104015840D02*
X213105840Y-104015840D01*
X213105840Y-104015840D02*
X209525840Y-104015840D01*
X218120000Y-118200000D02*
X219050000Y-119130000D01*
X218120000Y-104450000D02*
X218120000Y-118200000D01*
X219050000Y-119130000D02*
X219050000Y-123330000D01*
X216535400Y-104015840D02*
X217685840Y-104015840D01*
X217685840Y-104015840D02*
X218120000Y-104450000D01*
D23*
X256134000Y-100470000D02*
X239370000Y-100470000D01*
X238862000Y-98438000D02*
X239370000Y-100470000D01*
X256642000Y-99962000D02*
X256134000Y-100470000D01*
X256642000Y-98438000D02*
X256642000Y-99962000D01*
X212705080Y-143705219D02*
X212700000Y-143700139D01*
X208615079Y-143497299D02*
X208615079Y-147099380D01*
X208755079Y-143357299D02*
X208615079Y-143497299D01*
X212357160Y-143357299D02*
X208755079Y-143357299D01*
X212705080Y-143705219D02*
X212357160Y-143357299D01*
D25*
X212705080Y-144907300D02*
X215245080Y-147447300D01*
X217785080Y-144907300D02*
X215245080Y-147447300D01*
D26*
X242691999Y-97148001D02*
X243092001Y-96747999D01*
X243092001Y-96747999D02*
X243942000Y-95898000D01*
X240151999Y-97148001D02*
X242691999Y-97148001D01*
X238862000Y-98438000D02*
X240151999Y-97148001D01*
X249022000Y-94695919D02*
X249022000Y-95898000D01*
X248567591Y-94241510D02*
X249022000Y-94695919D01*
X217692001Y-97588001D02*
X218542000Y-98438000D01*
X217291999Y-97187999D02*
X217692001Y-97588001D01*
X214751999Y-97187999D02*
X217291999Y-97187999D01*
X213462000Y-95898000D02*
X214751999Y-97187999D01*
X220521997Y-97148001D02*
X222371999Y-97148001D01*
X222371999Y-97148001D02*
X222772001Y-96747999D01*
X219231998Y-98438000D02*
X220521997Y-97148001D01*
X222772001Y-96747999D02*
X223622000Y-95898000D01*
X218542000Y-98438000D02*
X219231998Y-98438000D01*
X230392001Y-95048001D02*
X231242000Y-95898000D01*
X229991999Y-94647999D02*
X230392001Y-95048001D01*
X224872001Y-94647999D02*
X229991999Y-94647999D01*
X223622000Y-95898000D02*
X224872001Y-94647999D01*
X245595540Y-94244460D02*
X245643800Y-94244460D01*
X245598490Y-94241510D02*
X245643800Y-94244460D01*
X243942000Y-95898000D02*
X245595540Y-94244460D01*
X245643800Y-94244460D02*
X248567591Y-94241510D01*
D24*
X208272700Y-147447300D02*
X208270000Y-147450000D01*
X210165080Y-147447300D02*
X208272700Y-147447300D01*
D23*
X208615079Y-147099380D02*
X208270000Y-147450000D01*
D24*
X212705080Y-144907300D02*
X212705080Y-143705219D01*
X217785080Y-144907300D02*
X217785080Y-143705219D01*
X217810000Y-143680299D02*
X217785080Y-143705219D01*
X217785080Y-144907300D02*
X218987161Y-144907300D01*
X218999861Y-144920000D02*
X218987161Y-144907300D01*
D27*
X280930000Y-115710000D02*
X280930000Y-117460000D01*
X280920000Y-117470000D02*
X280930000Y-117460000D01*
X280960000Y-104790000D02*
X280960000Y-105140000D01*
X280930000Y-103010000D02*
X280960000Y-105140000D01*
X280910000Y-130180000D02*
X280910000Y-130890000D01*
X280930000Y-128410000D02*
X280910000Y-130890000D01*
X280930000Y-141110000D02*
X280930000Y-142860000D01*
X280910000Y-142880000D02*
X280930000Y-142860000D01*
D24*
X218542000Y-99640081D02*
X218550000Y-99648081D01*
X218542000Y-98438000D02*
X218542000Y-99640081D01*
X218550000Y-99648081D02*
X218550000Y-100720000D01*
X221500000Y-111720000D02*
X223090990Y-111720000D01*
X223110990Y-111740000D02*
X223090990Y-111720000D01*
X241820000Y-104100000D02*
X241820000Y-105690990D01*
X241790000Y-105720990D02*
X241820000Y-105690990D01*
D23*
X212700000Y-147460000D02*
X212700000Y-147705998D01*
D24*
X261830000Y-104750000D02*
X265610000Y-100970000D01*
X261830000Y-105630000D02*
X261830000Y-104750000D01*
X261900000Y-111045000D02*
X261900000Y-111045000D01*
X261900000Y-115770000D02*
X261900000Y-111045000D01*
X262105000Y-110840000D02*
X263520000Y-110840000D01*
X261900000Y-111045000D02*
X262105000Y-110840000D01*
X274640000Y-115420000D02*
X274930000Y-115710000D01*
X262070000Y-128430000D02*
X262070000Y-122980000D01*
X262070000Y-122980000D02*
X262150000Y-122900000D01*
X262150000Y-122900000D02*
X263900000Y-122900000D01*
X262150000Y-122900000D02*
X262150000Y-122900000D01*
X263900000Y-122900000D02*
X263900000Y-122900000D01*
X274640000Y-128120000D02*
X274930000Y-128410000D01*
D21*
X261044000Y-139586000D02*
X261208920Y-139750920D01*
D24*
X261830000Y-139240000D02*
X261830000Y-134690000D01*
X261830000Y-134690000D02*
X261860000Y-134660000D01*
X261920000Y-134600000D02*
X264050000Y-134600000D01*
X261860000Y-134660000D02*
X261920000Y-134600000D01*
X251964000Y-106820000D02*
X249530000Y-106820000D01*
X254840000Y-106820000D02*
X256030000Y-105630000D01*
X252070000Y-106820000D02*
X254840000Y-106820000D01*
X251964000Y-116980000D02*
X249530000Y-116980000D01*
X254890000Y-116980000D02*
X256100000Y-115770000D01*
X252070000Y-116980000D02*
X254890000Y-116980000D01*
X251816000Y-129680000D02*
X249530000Y-129680000D01*
X255020000Y-129680000D02*
X256270000Y-128430000D01*
X252070000Y-129680000D02*
X255020000Y-129680000D01*
X249530000Y-141110000D02*
X252070000Y-141110000D01*
X254160000Y-141110000D02*
X256030000Y-139240000D01*
X252070000Y-141110000D02*
X254160000Y-141110000D01*
D28*
G36*
X205697248Y-94523969D02*
G01*
X205448286Y-94728286D01*
X205397075Y-94790687D01*
X205232681Y-94955081D01*
X205170286Y-95006287D01*
X204991500Y-95224139D01*
X204965969Y-95255249D01*
X204875546Y-95424417D01*
X204568669Y-95219369D01*
X204161925Y-95050890D01*
X203730128Y-94965000D01*
X203289872Y-94965000D01*
X202858075Y-95050890D01*
X202451331Y-95219369D01*
X202085271Y-95463962D01*
X201773962Y-95775271D01*
X201529369Y-96141331D01*
X201360890Y-96548075D01*
X201275000Y-96979872D01*
X201275000Y-97420128D01*
X201360890Y-97851925D01*
X201529369Y-98258669D01*
X201773962Y-98624729D01*
X202085271Y-98936038D01*
X202451331Y-99180631D01*
X202858075Y-99349110D01*
X203289872Y-99435000D01*
X203730128Y-99435000D01*
X204161925Y-99349110D01*
X204568669Y-99180631D01*
X204675002Y-99109582D01*
X204675001Y-100719681D01*
X204667090Y-100800001D01*
X204675001Y-100880320D01*
X204675001Y-100880322D01*
X204698658Y-101120516D01*
X204792149Y-101428715D01*
X204943970Y-101712752D01*
X205148287Y-101961715D01*
X205210687Y-102012925D01*
X206310676Y-103112916D01*
X206310687Y-103112925D01*
X208312923Y-105115163D01*
X208364126Y-105177554D01*
X208613088Y-105381871D01*
X208747974Y-105453969D01*
X208897125Y-105533692D01*
X209205323Y-105627183D01*
X209525840Y-105658751D01*
X209606162Y-105650840D01*
X216485000Y-105650840D01*
X216485001Y-117310790D01*
X216477685Y-117301875D01*
X216380994Y-117222523D01*
X216270680Y-117163558D01*
X216150982Y-117127248D01*
X216026500Y-117114988D01*
X214326500Y-117114988D01*
X214202018Y-117127248D01*
X214082320Y-117163558D01*
X213972006Y-117222523D01*
X213875315Y-117301875D01*
X213795963Y-117398566D01*
X213736998Y-117508880D01*
X213700688Y-117628578D01*
X213688428Y-117753060D01*
X213688428Y-119453060D01*
X213700688Y-119577542D01*
X213736998Y-119697240D01*
X213795963Y-119807554D01*
X213875315Y-119904245D01*
X213972006Y-119983597D01*
X214082320Y-120042562D01*
X214154880Y-120064573D01*
X214023025Y-120196428D01*
X213860510Y-120439649D01*
X213748568Y-120709902D01*
X213691500Y-120996800D01*
X213691500Y-121289320D01*
X213748568Y-121576218D01*
X213860510Y-121846471D01*
X214023025Y-122089692D01*
X214229868Y-122296535D01*
X214473089Y-122459050D01*
X214743342Y-122570992D01*
X215030240Y-122628060D01*
X215322760Y-122628060D01*
X215609658Y-122570992D01*
X215879911Y-122459050D01*
X216123132Y-122296535D01*
X216329975Y-122089692D01*
X216492490Y-121846471D01*
X216604432Y-121576218D01*
X216661500Y-121289320D01*
X216661500Y-120996800D01*
X216604432Y-120709902D01*
X216492490Y-120439649D01*
X216329975Y-120196428D01*
X216198120Y-120064573D01*
X216270680Y-120042562D01*
X216380994Y-119983597D01*
X216477685Y-119904245D01*
X216557037Y-119807554D01*
X216616002Y-119697240D01*
X216652312Y-119577542D01*
X216664572Y-119453060D01*
X216664572Y-118945501D01*
X216715893Y-119041515D01*
X216753970Y-119112752D01*
X216958287Y-119361714D01*
X217020682Y-119412920D01*
X217415000Y-119807239D01*
X217415001Y-123249668D01*
X217407089Y-123330000D01*
X217438657Y-123650516D01*
X217532148Y-123958715D01*
X217683969Y-124242752D01*
X217888286Y-124491714D01*
X218137248Y-124696031D01*
X218421285Y-124847852D01*
X218729484Y-124941343D01*
X218969678Y-124965000D01*
X219050000Y-124972911D01*
X219130322Y-124965000D01*
X221320322Y-124965000D01*
X221560516Y-124941343D01*
X221868715Y-124847852D01*
X222152752Y-124696031D01*
X222401714Y-124491714D01*
X222602827Y-124246655D01*
X240060000Y-124246655D01*
X240060000Y-124593345D01*
X240127636Y-124933373D01*
X240260308Y-125253673D01*
X240452919Y-125541935D01*
X240698065Y-125787081D01*
X240986327Y-125979692D01*
X241306627Y-126112364D01*
X241646655Y-126180000D01*
X241993345Y-126180000D01*
X242333373Y-126112364D01*
X242653673Y-125979692D01*
X242941935Y-125787081D01*
X243187081Y-125541935D01*
X243379692Y-125253673D01*
X243512364Y-124933373D01*
X243580000Y-124593345D01*
X243580000Y-124246655D01*
X243512364Y-123906627D01*
X243379692Y-123586327D01*
X243187081Y-123298065D01*
X242941935Y-123052919D01*
X242653673Y-122860308D01*
X242333373Y-122727636D01*
X241993345Y-122660000D01*
X241646655Y-122660000D01*
X241306627Y-122727636D01*
X240986327Y-122860308D01*
X240698065Y-123052919D01*
X240452919Y-123298065D01*
X240260308Y-123586327D01*
X240127636Y-123906627D01*
X240060000Y-124246655D01*
X222602827Y-124246655D01*
X222606031Y-124242752D01*
X222757852Y-123958715D01*
X222851343Y-123650516D01*
X222882911Y-123330000D01*
X222851343Y-123009484D01*
X222757852Y-122701285D01*
X222606031Y-122417248D01*
X222401714Y-122168286D01*
X222152752Y-121963969D01*
X221868715Y-121812148D01*
X221560516Y-121718657D01*
X221320322Y-121695000D01*
X220685000Y-121695000D01*
X220685000Y-119210322D01*
X220692911Y-119130000D01*
X220661343Y-118809483D01*
X220567852Y-118501285D01*
X220492169Y-118359692D01*
X220416031Y-118217248D01*
X220360193Y-118149209D01*
X220378065Y-118167081D01*
X220666327Y-118359692D01*
X220986627Y-118492364D01*
X221326655Y-118560000D01*
X221673345Y-118560000D01*
X222013373Y-118492364D01*
X222333673Y-118359692D01*
X222621935Y-118167081D01*
X222867081Y-117921935D01*
X223059692Y-117633673D01*
X223192364Y-117313373D01*
X223258676Y-116980000D01*
X247887089Y-116980000D01*
X247918657Y-117300516D01*
X248012148Y-117608715D01*
X248163969Y-117892752D01*
X248368286Y-118141714D01*
X248617248Y-118346031D01*
X248901285Y-118497852D01*
X249209484Y-118591343D01*
X249449678Y-118615000D01*
X254023747Y-118615000D01*
X254024188Y-118619482D01*
X254060498Y-118739180D01*
X254119463Y-118849494D01*
X254198815Y-118946185D01*
X254295506Y-119025537D01*
X254405820Y-119084502D01*
X254525518Y-119120812D01*
X254650000Y-119133072D01*
X257550000Y-119133072D01*
X257674482Y-119120812D01*
X257794180Y-119084502D01*
X257904494Y-119025537D01*
X258001185Y-118946185D01*
X258080537Y-118849494D01*
X258139502Y-118739180D01*
X258175812Y-118619482D01*
X258188072Y-118495000D01*
X258188072Y-113045000D01*
X258175812Y-112920518D01*
X258139502Y-112800820D01*
X258080537Y-112690506D01*
X258001185Y-112593815D01*
X257904494Y-112514463D01*
X257794180Y-112455498D01*
X257674482Y-112419188D01*
X257550000Y-112406928D01*
X254650000Y-112406928D01*
X254525518Y-112419188D01*
X254405820Y-112455498D01*
X254295506Y-112514463D01*
X254198815Y-112593815D01*
X254119463Y-112690506D01*
X254060498Y-112800820D01*
X254024188Y-112920518D01*
X254011928Y-113045000D01*
X254011928Y-115345000D01*
X253552655Y-115345000D01*
X253558072Y-115290000D01*
X253558072Y-113590000D01*
X253545812Y-113465518D01*
X253509502Y-113345820D01*
X253450537Y-113235506D01*
X253371185Y-113138815D01*
X253274494Y-113059463D01*
X253164180Y-113000498D01*
X253044482Y-112964188D01*
X252920000Y-112951928D01*
X251220000Y-112951928D01*
X251095518Y-112964188D01*
X250975820Y-113000498D01*
X250865506Y-113059463D01*
X250800000Y-113113222D01*
X250734494Y-113059463D01*
X250624180Y-113000498D01*
X250504482Y-112964188D01*
X250380000Y-112951928D01*
X248680000Y-112951928D01*
X248555518Y-112964188D01*
X248435820Y-113000498D01*
X248325506Y-113059463D01*
X248228815Y-113138815D01*
X248149463Y-113235506D01*
X248090498Y-113345820D01*
X248054188Y-113465518D01*
X248041928Y-113590000D01*
X248041928Y-115290000D01*
X248054188Y-115414482D01*
X248090498Y-115534180D01*
X248149463Y-115644494D01*
X248228815Y-115741185D01*
X248325506Y-115820537D01*
X248353958Y-115835745D01*
X248163969Y-116067248D01*
X248012148Y-116351285D01*
X247918657Y-116659484D01*
X247887089Y-116980000D01*
X223258676Y-116980000D01*
X223260000Y-116973345D01*
X223260000Y-116626655D01*
X223192364Y-116286627D01*
X223059692Y-115966327D01*
X222867081Y-115678065D01*
X222621935Y-115432919D01*
X222333673Y-115240308D01*
X222013373Y-115107636D01*
X221673345Y-115040000D01*
X221326655Y-115040000D01*
X220986627Y-115107636D01*
X220666327Y-115240308D01*
X220378065Y-115432919D01*
X220132919Y-115678065D01*
X219940308Y-115966327D01*
X219807636Y-116286627D01*
X219755000Y-116551245D01*
X219755000Y-114086655D01*
X240060000Y-114086655D01*
X240060000Y-114433345D01*
X240127636Y-114773373D01*
X240260308Y-115093673D01*
X240452919Y-115381935D01*
X240698065Y-115627081D01*
X240986327Y-115819692D01*
X241306627Y-115952364D01*
X241646655Y-116020000D01*
X241993345Y-116020000D01*
X242333373Y-115952364D01*
X242653673Y-115819692D01*
X242941935Y-115627081D01*
X243187081Y-115381935D01*
X243379692Y-115093673D01*
X243512364Y-114773373D01*
X243580000Y-114433345D01*
X243580000Y-114086655D01*
X243512364Y-113746627D01*
X243379692Y-113426327D01*
X243187081Y-113138065D01*
X242941935Y-112892919D01*
X242653673Y-112700308D01*
X242333373Y-112567636D01*
X241993345Y-112500000D01*
X241646655Y-112500000D01*
X241306627Y-112567636D01*
X240986327Y-112700308D01*
X240698065Y-112892919D01*
X240452919Y-113138065D01*
X240260308Y-113426327D01*
X240127636Y-113746627D01*
X240060000Y-114086655D01*
X219755000Y-114086655D01*
X219755000Y-112944531D01*
X220455074Y-112944531D01*
X220565921Y-113221714D01*
X220876840Y-113375089D01*
X221211705Y-113464860D01*
X221557650Y-113487576D01*
X221901380Y-113442366D01*
X222229685Y-113330966D01*
X222434079Y-113221714D01*
X222544926Y-112944531D01*
X221500000Y-111899605D01*
X220455074Y-112944531D01*
X219755000Y-112944531D01*
X219755000Y-111949295D01*
X219777634Y-112121380D01*
X219889034Y-112449685D01*
X219998286Y-112654079D01*
X220275469Y-112764926D01*
X221320395Y-111720000D01*
X221679605Y-111720000D01*
X222724531Y-112764926D01*
X223001714Y-112654079D01*
X223155089Y-112343160D01*
X223244860Y-112008295D01*
X223267576Y-111662350D01*
X223222366Y-111318620D01*
X223110966Y-110990315D01*
X223001714Y-110785921D01*
X222724531Y-110675074D01*
X221679605Y-111720000D01*
X221320395Y-111720000D01*
X220275469Y-110675074D01*
X219998286Y-110785921D01*
X219844911Y-111096840D01*
X219755140Y-111431705D01*
X219755000Y-111433837D01*
X219755000Y-110495469D01*
X220455074Y-110495469D01*
X221500000Y-111540395D01*
X222544926Y-110495469D01*
X222434079Y-110218286D01*
X222123160Y-110064911D01*
X221788295Y-109975140D01*
X221442350Y-109952424D01*
X221098620Y-109997634D01*
X220770315Y-110109034D01*
X220565921Y-110218286D01*
X220455074Y-110495469D01*
X219755000Y-110495469D01*
X219755000Y-106820000D01*
X247887089Y-106820000D01*
X247918657Y-107140516D01*
X248012148Y-107448715D01*
X248163969Y-107732752D01*
X248368286Y-107981714D01*
X248617248Y-108186031D01*
X248901285Y-108337852D01*
X249209484Y-108431343D01*
X249449678Y-108455000D01*
X253951777Y-108455000D01*
X253954188Y-108479482D01*
X253990498Y-108599180D01*
X254049463Y-108709494D01*
X254128815Y-108806185D01*
X254225506Y-108885537D01*
X254335820Y-108944502D01*
X254455518Y-108980812D01*
X254580000Y-108993072D01*
X257480000Y-108993072D01*
X257604482Y-108980812D01*
X257724180Y-108944502D01*
X257834494Y-108885537D01*
X257931185Y-108806185D01*
X258010537Y-108709494D01*
X258069502Y-108599180D01*
X258105812Y-108479482D01*
X258118072Y-108355000D01*
X258118072Y-102905000D01*
X259741928Y-102905000D01*
X259741928Y-108355000D01*
X259754188Y-108479482D01*
X259790498Y-108599180D01*
X259849463Y-108709494D01*
X259928815Y-108806185D01*
X260025506Y-108885537D01*
X260135820Y-108944502D01*
X260255518Y-108980812D01*
X260380000Y-108993072D01*
X263280000Y-108993072D01*
X263404482Y-108980812D01*
X263524180Y-108944502D01*
X263634494Y-108885537D01*
X263708535Y-108824773D01*
X263741696Y-108991483D01*
X263823485Y-109188940D01*
X263852440Y-109232274D01*
X263840516Y-109228657D01*
X263600322Y-109205000D01*
X262185322Y-109205000D01*
X262105000Y-109197089D01*
X262024678Y-109205000D01*
X261784484Y-109228657D01*
X261476285Y-109322148D01*
X261192248Y-109473969D01*
X260943286Y-109678286D01*
X260892075Y-109740687D01*
X260800687Y-109832075D01*
X260738286Y-109883286D01*
X260533969Y-110132248D01*
X260382148Y-110416285D01*
X260288657Y-110724484D01*
X260257089Y-111045000D01*
X260265001Y-111125332D01*
X260265001Y-112437546D01*
X260205820Y-112455498D01*
X260095506Y-112514463D01*
X259998815Y-112593815D01*
X259919463Y-112690506D01*
X259860498Y-112800820D01*
X259824188Y-112920518D01*
X259811928Y-113045000D01*
X259811928Y-118495000D01*
X259824188Y-118619482D01*
X259860498Y-118739180D01*
X259919463Y-118849494D01*
X259998815Y-118946185D01*
X260095506Y-119025537D01*
X260205820Y-119084502D01*
X260325518Y-119120812D01*
X260450000Y-119133072D01*
X263350000Y-119133072D01*
X263474482Y-119120812D01*
X263594180Y-119084502D01*
X263704494Y-119025537D01*
X263801185Y-118946185D01*
X263880537Y-118849494D01*
X263926696Y-118763137D01*
X264175000Y-118763137D01*
X264175000Y-118976863D01*
X264216696Y-119186483D01*
X264298485Y-119383940D01*
X264417225Y-119561647D01*
X264568353Y-119712775D01*
X264746060Y-119831515D01*
X264943517Y-119913304D01*
X265153137Y-119955000D01*
X265366863Y-119955000D01*
X265576483Y-119913304D01*
X265773940Y-119831515D01*
X265951647Y-119712775D01*
X266102775Y-119561647D01*
X266221515Y-119383940D01*
X266303304Y-119186483D01*
X266310078Y-119152426D01*
X266456483Y-119123304D01*
X266653940Y-119041515D01*
X266831647Y-118922775D01*
X266982775Y-118771647D01*
X267101515Y-118593940D01*
X267183304Y-118396483D01*
X267225000Y-118186863D01*
X267225000Y-117973137D01*
X267183304Y-117763517D01*
X267101515Y-117566060D01*
X266982775Y-117388353D01*
X266831647Y-117237225D01*
X266653940Y-117118485D01*
X266456483Y-117036696D01*
X266246863Y-116995000D01*
X266033137Y-116995000D01*
X265823517Y-117036696D01*
X265626060Y-117118485D01*
X265448353Y-117237225D01*
X265297225Y-117388353D01*
X265178485Y-117566060D01*
X265096696Y-117763517D01*
X265089922Y-117797574D01*
X264943517Y-117826696D01*
X264746060Y-117908485D01*
X264568353Y-118027225D01*
X264417225Y-118178353D01*
X264298485Y-118356060D01*
X264216696Y-118553517D01*
X264175000Y-118763137D01*
X263926696Y-118763137D01*
X263939502Y-118739180D01*
X263975812Y-118619482D01*
X263988072Y-118495000D01*
X263988072Y-113960000D01*
X272541928Y-113960000D01*
X272541928Y-117460000D01*
X272554188Y-117584482D01*
X272590498Y-117704180D01*
X272649463Y-117814494D01*
X272728815Y-117911185D01*
X272825506Y-117990537D01*
X272935820Y-118049502D01*
X273055518Y-118085812D01*
X273180000Y-118098072D01*
X276680000Y-118098072D01*
X276804482Y-118085812D01*
X276924180Y-118049502D01*
X277034494Y-117990537D01*
X277131185Y-117911185D01*
X277210537Y-117814494D01*
X277269502Y-117704180D01*
X277305812Y-117584482D01*
X277318072Y-117460000D01*
X278791928Y-117460000D01*
X278804188Y-117584482D01*
X278840498Y-117704180D01*
X278899463Y-117814494D01*
X278978815Y-117911185D01*
X279075506Y-117990537D01*
X279185820Y-118049502D01*
X279305518Y-118085812D01*
X279430000Y-118098072D01*
X280644250Y-118095000D01*
X280803000Y-117936250D01*
X280803000Y-115837000D01*
X281057000Y-115837000D01*
X281057000Y-117936250D01*
X281215750Y-118095000D01*
X282430000Y-118098072D01*
X282554482Y-118085812D01*
X282674180Y-118049502D01*
X282784494Y-117990537D01*
X282881185Y-117911185D01*
X282960537Y-117814494D01*
X283019502Y-117704180D01*
X283055812Y-117584482D01*
X283068072Y-117460000D01*
X283065000Y-115995750D01*
X282906250Y-115837000D01*
X281057000Y-115837000D01*
X280803000Y-115837000D01*
X278953750Y-115837000D01*
X278795000Y-115995750D01*
X278791928Y-117460000D01*
X277318072Y-117460000D01*
X277318072Y-113960000D01*
X278791928Y-113960000D01*
X278795000Y-115424250D01*
X278953750Y-115583000D01*
X280803000Y-115583000D01*
X280803000Y-113483750D01*
X281057000Y-113483750D01*
X281057000Y-115583000D01*
X282906250Y-115583000D01*
X283065000Y-115424250D01*
X283068072Y-113960000D01*
X283055812Y-113835518D01*
X283019502Y-113715820D01*
X282960537Y-113605506D01*
X282881185Y-113508815D01*
X282784494Y-113429463D01*
X282674180Y-113370498D01*
X282554482Y-113334188D01*
X282430000Y-113321928D01*
X281215750Y-113325000D01*
X281057000Y-113483750D01*
X280803000Y-113483750D01*
X280644250Y-113325000D01*
X279430000Y-113321928D01*
X279305518Y-113334188D01*
X279185820Y-113370498D01*
X279075506Y-113429463D01*
X278978815Y-113508815D01*
X278899463Y-113605506D01*
X278840498Y-113715820D01*
X278804188Y-113835518D01*
X278791928Y-113960000D01*
X277318072Y-113960000D01*
X277305812Y-113835518D01*
X277269502Y-113715820D01*
X277210537Y-113605506D01*
X277131185Y-113508815D01*
X277034494Y-113429463D01*
X276957869Y-113388506D01*
X277055000Y-113398072D01*
X278805000Y-113398072D01*
X279100186Y-113368999D01*
X279384028Y-113282896D01*
X279645618Y-113143073D01*
X279874903Y-112954903D01*
X280063073Y-112725618D01*
X280202896Y-112464028D01*
X280288999Y-112180186D01*
X280318072Y-111885000D01*
X280318072Y-110135000D01*
X280288999Y-109839814D01*
X280202896Y-109555972D01*
X280063073Y-109294382D01*
X279874903Y-109065097D01*
X279645618Y-108876927D01*
X279384028Y-108737104D01*
X279100186Y-108651001D01*
X278805000Y-108621928D01*
X277055000Y-108621928D01*
X276759814Y-108651001D01*
X276475972Y-108737104D01*
X276214382Y-108876927D01*
X275985097Y-109065097D01*
X275796927Y-109294382D01*
X275657104Y-109555972D01*
X275571001Y-109839814D01*
X275541928Y-110135000D01*
X275541928Y-111885000D01*
X275571001Y-112180186D01*
X275657104Y-112464028D01*
X275796927Y-112725618D01*
X275985097Y-112954903D01*
X276214382Y-113143073D01*
X276475972Y-113282896D01*
X276604643Y-113321928D01*
X273180000Y-113321928D01*
X273055518Y-113334188D01*
X272935820Y-113370498D01*
X272825506Y-113429463D01*
X272728815Y-113508815D01*
X272649463Y-113605506D01*
X272590498Y-113715820D01*
X272554188Y-113835518D01*
X272541928Y-113960000D01*
X263988072Y-113960000D01*
X263988072Y-113045000D01*
X263975812Y-112920518D01*
X263939502Y-112800820D01*
X263880537Y-112690506D01*
X263801185Y-112593815D01*
X263704494Y-112514463D01*
X263625944Y-112472476D01*
X263840516Y-112451343D01*
X264148715Y-112357852D01*
X264432752Y-112206031D01*
X264681714Y-112001714D01*
X264886031Y-111752752D01*
X265037852Y-111468715D01*
X265131343Y-111160516D01*
X265162911Y-110840000D01*
X265131343Y-110519484D01*
X265037852Y-110211285D01*
X264886031Y-109927248D01*
X264748775Y-109760000D01*
X264891863Y-109760000D01*
X265101483Y-109718304D01*
X265298940Y-109636515D01*
X265476647Y-109517775D01*
X265627775Y-109366647D01*
X265746515Y-109188940D01*
X265828304Y-108991483D01*
X265870000Y-108781863D01*
X265870000Y-108568137D01*
X265831519Y-108374678D01*
X265848483Y-108371304D01*
X266045940Y-108289515D01*
X266223647Y-108170775D01*
X266374775Y-108019647D01*
X266493515Y-107841940D01*
X266575304Y-107644483D01*
X266617000Y-107434863D01*
X266617000Y-107221137D01*
X266575304Y-107011517D01*
X266493515Y-106814060D01*
X266374775Y-106636353D01*
X266223647Y-106485225D01*
X266045940Y-106366485D01*
X265848483Y-106284696D01*
X265638863Y-106243000D01*
X265425137Y-106243000D01*
X265215517Y-106284696D01*
X265018060Y-106366485D01*
X264840353Y-106485225D01*
X264689225Y-106636353D01*
X264570485Y-106814060D01*
X264488696Y-107011517D01*
X264447000Y-107221137D01*
X264447000Y-107434863D01*
X264485481Y-107628322D01*
X264468517Y-107631696D01*
X264271060Y-107713485D01*
X264093353Y-107832225D01*
X263942225Y-107983353D01*
X263918072Y-108019501D01*
X263918072Y-104974166D01*
X266822915Y-102069324D01*
X266976030Y-101882753D01*
X267127851Y-101598715D01*
X267221342Y-101290517D01*
X267224347Y-101260000D01*
X272541928Y-101260000D01*
X272541928Y-104760000D01*
X272554188Y-104884482D01*
X272590498Y-105004180D01*
X272649463Y-105114494D01*
X272728815Y-105211185D01*
X272825506Y-105290537D01*
X272935820Y-105349502D01*
X273055518Y-105385812D01*
X273180000Y-105398072D01*
X276680000Y-105398072D01*
X276804482Y-105385812D01*
X276924180Y-105349502D01*
X277034494Y-105290537D01*
X277131185Y-105211185D01*
X277210537Y-105114494D01*
X277269502Y-105004180D01*
X277305812Y-104884482D01*
X277318072Y-104760000D01*
X278791928Y-104760000D01*
X278804188Y-104884482D01*
X278840498Y-105004180D01*
X278899463Y-105114494D01*
X278978815Y-105211185D01*
X279075506Y-105290537D01*
X279185820Y-105349502D01*
X279305518Y-105385812D01*
X279430000Y-105398072D01*
X280644250Y-105395000D01*
X280803000Y-105236250D01*
X280803000Y-103137000D01*
X281057000Y-103137000D01*
X281057000Y-105236250D01*
X281215750Y-105395000D01*
X282430000Y-105398072D01*
X282554482Y-105385812D01*
X282674180Y-105349502D01*
X282784494Y-105290537D01*
X282881185Y-105211185D01*
X282960537Y-105114494D01*
X283019502Y-105004180D01*
X283055812Y-104884482D01*
X283068072Y-104760000D01*
X283065000Y-103295750D01*
X282906250Y-103137000D01*
X281057000Y-103137000D01*
X280803000Y-103137000D01*
X278953750Y-103137000D01*
X278795000Y-103295750D01*
X278791928Y-104760000D01*
X277318072Y-104760000D01*
X277318072Y-101260000D01*
X278791928Y-101260000D01*
X278795000Y-102724250D01*
X278953750Y-102883000D01*
X280803000Y-102883000D01*
X280803000Y-100783750D01*
X281057000Y-100783750D01*
X281057000Y-102883000D01*
X282906250Y-102883000D01*
X283065000Y-102724250D01*
X283068072Y-101260000D01*
X283055812Y-101135518D01*
X283019502Y-101015820D01*
X282960537Y-100905506D01*
X282881185Y-100808815D01*
X282784494Y-100729463D01*
X282674180Y-100670498D01*
X282554482Y-100634188D01*
X282430000Y-100621928D01*
X281215750Y-100625000D01*
X281057000Y-100783750D01*
X280803000Y-100783750D01*
X280644250Y-100625000D01*
X279430000Y-100621928D01*
X279305518Y-100634188D01*
X279185820Y-100670498D01*
X279075506Y-100729463D01*
X278978815Y-100808815D01*
X278899463Y-100905506D01*
X278840498Y-101015820D01*
X278804188Y-101135518D01*
X278791928Y-101260000D01*
X277318072Y-101260000D01*
X277305812Y-101135518D01*
X277269502Y-101015820D01*
X277210537Y-100905506D01*
X277131185Y-100808815D01*
X277034494Y-100729463D01*
X276957869Y-100688506D01*
X277055000Y-100698072D01*
X278805000Y-100698072D01*
X279100186Y-100668999D01*
X279384028Y-100582896D01*
X279645618Y-100443073D01*
X279874903Y-100254903D01*
X280063073Y-100025618D01*
X280202896Y-99764028D01*
X280288999Y-99480186D01*
X280318072Y-99185000D01*
X280318072Y-97435000D01*
X280288999Y-97139814D01*
X280202896Y-96855972D01*
X280063073Y-96594382D01*
X279874903Y-96365097D01*
X279645618Y-96176927D01*
X279384028Y-96037104D01*
X279100186Y-95951001D01*
X278805000Y-95921928D01*
X277055000Y-95921928D01*
X276759814Y-95951001D01*
X276475972Y-96037104D01*
X276214382Y-96176927D01*
X275985097Y-96365097D01*
X275796927Y-96594382D01*
X275657104Y-96855972D01*
X275571001Y-97139814D01*
X275541928Y-97435000D01*
X275541928Y-99185000D01*
X275571001Y-99480186D01*
X275657104Y-99764028D01*
X275796927Y-100025618D01*
X275985097Y-100254903D01*
X276214382Y-100443073D01*
X276475972Y-100582896D01*
X276604643Y-100621928D01*
X273180000Y-100621928D01*
X273055518Y-100634188D01*
X272935820Y-100670498D01*
X272825506Y-100729463D01*
X272728815Y-100808815D01*
X272649463Y-100905506D01*
X272590498Y-101015820D01*
X272554188Y-101135518D01*
X272541928Y-101260000D01*
X267224347Y-101260000D01*
X267252911Y-100970001D01*
X267221342Y-100649484D01*
X267127851Y-100341286D01*
X266976030Y-100057248D01*
X266771713Y-99808287D01*
X266522752Y-99603970D01*
X266238714Y-99452149D01*
X265930516Y-99358658D01*
X265609999Y-99327089D01*
X265289483Y-99358658D01*
X264981285Y-99452149D01*
X264697247Y-99603970D01*
X264510676Y-99757085D01*
X262000834Y-102266928D01*
X260380000Y-102266928D01*
X260255518Y-102279188D01*
X260135820Y-102315498D01*
X260025506Y-102374463D01*
X259928815Y-102453815D01*
X259849463Y-102550506D01*
X259790498Y-102660820D01*
X259754188Y-102780518D01*
X259741928Y-102905000D01*
X258118072Y-102905000D01*
X258105812Y-102780518D01*
X258069502Y-102660820D01*
X258010537Y-102550506D01*
X257931185Y-102453815D01*
X257834494Y-102374463D01*
X257724180Y-102315498D01*
X257604482Y-102279188D01*
X257480000Y-102266928D01*
X257373834Y-102266928D01*
X257452304Y-102077483D01*
X257494000Y-101867863D01*
X257494000Y-101654137D01*
X257452304Y-101444517D01*
X257370515Y-101247060D01*
X257251775Y-101069353D01*
X257100647Y-100918225D01*
X256922940Y-100799485D01*
X256725483Y-100717696D01*
X256515863Y-100676000D01*
X256302137Y-100676000D01*
X256092517Y-100717696D01*
X255895060Y-100799485D01*
X255717353Y-100918225D01*
X255566225Y-101069353D01*
X255447485Y-101247060D01*
X255365696Y-101444517D01*
X255324000Y-101654137D01*
X255324000Y-101867863D01*
X255365696Y-102077483D01*
X255444166Y-102266928D01*
X254580000Y-102266928D01*
X254455518Y-102279188D01*
X254335820Y-102315498D01*
X254225506Y-102374463D01*
X254128815Y-102453815D01*
X254049463Y-102550506D01*
X253990498Y-102660820D01*
X253954188Y-102780518D01*
X253941928Y-102905000D01*
X253941928Y-105185000D01*
X253552655Y-105185000D01*
X253558072Y-105130000D01*
X253558072Y-103430000D01*
X253545812Y-103305518D01*
X253509502Y-103185820D01*
X253450537Y-103075506D01*
X253371185Y-102978815D01*
X253274494Y-102899463D01*
X253164180Y-102840498D01*
X253044482Y-102804188D01*
X252920000Y-102791928D01*
X251220000Y-102791928D01*
X251095518Y-102804188D01*
X250975820Y-102840498D01*
X250865506Y-102899463D01*
X250800000Y-102953222D01*
X250734494Y-102899463D01*
X250624180Y-102840498D01*
X250504482Y-102804188D01*
X250380000Y-102791928D01*
X248680000Y-102791928D01*
X248555518Y-102804188D01*
X248435820Y-102840498D01*
X248325506Y-102899463D01*
X248228815Y-102978815D01*
X248149463Y-103075506D01*
X248090498Y-103185820D01*
X248054188Y-103305518D01*
X248041928Y-103430000D01*
X248041928Y-105130000D01*
X248054188Y-105254482D01*
X248090498Y-105374180D01*
X248149463Y-105484494D01*
X248228815Y-105581185D01*
X248325506Y-105660537D01*
X248353958Y-105675745D01*
X248163969Y-105907248D01*
X248012148Y-106191285D01*
X247918657Y-106499484D01*
X247887089Y-106820000D01*
X219755000Y-106820000D01*
X219755000Y-104530319D01*
X219762911Y-104450000D01*
X219751718Y-104336356D01*
X219750918Y-104328234D01*
X219807636Y-104613373D01*
X219940308Y-104933673D01*
X220132919Y-105221935D01*
X220378065Y-105467081D01*
X220666327Y-105659692D01*
X220986627Y-105792364D01*
X221326655Y-105860000D01*
X221673345Y-105860000D01*
X222013373Y-105792364D01*
X222333673Y-105659692D01*
X222621935Y-105467081D01*
X222764485Y-105324531D01*
X240775074Y-105324531D01*
X240885921Y-105601714D01*
X241196840Y-105755089D01*
X241531705Y-105844860D01*
X241877650Y-105867576D01*
X242221380Y-105822366D01*
X242549685Y-105710966D01*
X242754079Y-105601714D01*
X242864926Y-105324531D01*
X241820000Y-104279605D01*
X240775074Y-105324531D01*
X222764485Y-105324531D01*
X222867081Y-105221935D01*
X223059692Y-104933673D01*
X223192364Y-104613373D01*
X223260000Y-104273345D01*
X223260000Y-104157650D01*
X240052424Y-104157650D01*
X240097634Y-104501380D01*
X240209034Y-104829685D01*
X240318286Y-105034079D01*
X240595469Y-105144926D01*
X241640395Y-104100000D01*
X241999605Y-104100000D01*
X243044531Y-105144926D01*
X243321714Y-105034079D01*
X243475089Y-104723160D01*
X243564860Y-104388295D01*
X243587576Y-104042350D01*
X243542366Y-103698620D01*
X243430966Y-103370315D01*
X243321714Y-103165921D01*
X243044531Y-103055074D01*
X241999605Y-104100000D01*
X241640395Y-104100000D01*
X240595469Y-103055074D01*
X240318286Y-103165921D01*
X240164911Y-103476840D01*
X240075140Y-103811705D01*
X240052424Y-104157650D01*
X223260000Y-104157650D01*
X223260000Y-103926655D01*
X223192364Y-103586627D01*
X223059692Y-103266327D01*
X222867081Y-102978065D01*
X222621935Y-102732919D01*
X222333673Y-102540308D01*
X222013373Y-102407636D01*
X221673345Y-102340000D01*
X221326655Y-102340000D01*
X220986627Y-102407636D01*
X220666327Y-102540308D01*
X220378065Y-102732919D01*
X220132919Y-102978065D01*
X219940308Y-103266327D01*
X219807636Y-103586627D01*
X219740000Y-103926655D01*
X219740000Y-104217380D01*
X219731343Y-104129484D01*
X219637852Y-103821285D01*
X219486031Y-103537248D01*
X219281714Y-103288286D01*
X219219314Y-103237076D01*
X218898765Y-102916527D01*
X218847554Y-102854126D01*
X218598592Y-102649809D01*
X218314555Y-102497988D01*
X218006356Y-102404497D01*
X217766162Y-102380840D01*
X217766159Y-102380840D01*
X217685840Y-102372929D01*
X217605521Y-102380840D01*
X210203080Y-102380840D01*
X208622925Y-100800687D01*
X208622916Y-100800676D01*
X207966999Y-100144760D01*
X207966999Y-99926072D01*
X209232000Y-99926072D01*
X209356482Y-99913812D01*
X209476180Y-99877502D01*
X209586494Y-99818537D01*
X209683185Y-99739185D01*
X209762537Y-99642494D01*
X209821502Y-99532180D01*
X209843513Y-99459620D01*
X209975368Y-99591475D01*
X210218589Y-99753990D01*
X210488842Y-99865932D01*
X210775740Y-99923000D01*
X211068260Y-99923000D01*
X211355158Y-99865932D01*
X211625411Y-99753990D01*
X211868632Y-99591475D01*
X212075475Y-99384632D01*
X212192000Y-99210240D01*
X212308525Y-99384632D01*
X212515368Y-99591475D01*
X212758589Y-99753990D01*
X213028842Y-99865932D01*
X213315740Y-99923000D01*
X213608260Y-99923000D01*
X213895158Y-99865932D01*
X214165411Y-99753990D01*
X214408632Y-99591475D01*
X214615475Y-99384632D01*
X214732000Y-99210240D01*
X214848525Y-99384632D01*
X215055368Y-99591475D01*
X215298589Y-99753990D01*
X215568842Y-99865932D01*
X215855740Y-99923000D01*
X216148260Y-99923000D01*
X216435158Y-99865932D01*
X216705411Y-99753990D01*
X216948632Y-99591475D01*
X217155475Y-99384632D01*
X217277195Y-99202466D01*
X217346822Y-99319355D01*
X217541731Y-99535588D01*
X217775080Y-99709641D01*
X218037901Y-99834825D01*
X218185110Y-99879476D01*
X218415000Y-99758155D01*
X218415000Y-98565000D01*
X218395000Y-98565000D01*
X218395000Y-98311000D01*
X218415000Y-98311000D01*
X218415000Y-98291000D01*
X218669000Y-98291000D01*
X218669000Y-98311000D01*
X218689000Y-98311000D01*
X218689000Y-98565000D01*
X218669000Y-98565000D01*
X218669000Y-99758155D01*
X218898890Y-99879476D01*
X219046099Y-99834825D01*
X219308920Y-99709641D01*
X219542269Y-99535588D01*
X219737178Y-99319355D01*
X219806805Y-99202466D01*
X219928525Y-99384632D01*
X220135368Y-99591475D01*
X220378589Y-99753990D01*
X220648842Y-99865932D01*
X220935740Y-99923000D01*
X221228260Y-99923000D01*
X221515158Y-99865932D01*
X221785411Y-99753990D01*
X222028632Y-99591475D01*
X222235475Y-99384632D01*
X222352000Y-99210240D01*
X222468525Y-99384632D01*
X222675368Y-99591475D01*
X222918589Y-99753990D01*
X223188842Y-99865932D01*
X223475740Y-99923000D01*
X223768260Y-99923000D01*
X224055158Y-99865932D01*
X224325411Y-99753990D01*
X224568632Y-99591475D01*
X224775475Y-99384632D01*
X224892000Y-99210240D01*
X225008525Y-99384632D01*
X225215368Y-99591475D01*
X225458589Y-99753990D01*
X225728842Y-99865932D01*
X226015740Y-99923000D01*
X226308260Y-99923000D01*
X226595158Y-99865932D01*
X226865411Y-99753990D01*
X227108632Y-99591475D01*
X227315475Y-99384632D01*
X227432000Y-99210240D01*
X227548525Y-99384632D01*
X227755368Y-99591475D01*
X227998589Y-99753990D01*
X228268842Y-99865932D01*
X228555740Y-99923000D01*
X228848260Y-99923000D01*
X229060827Y-99880717D01*
X229010485Y-99956060D01*
X228928696Y-100153517D01*
X228887000Y-100363137D01*
X228887000Y-100576863D01*
X228928696Y-100786483D01*
X229010485Y-100983940D01*
X229129225Y-101161647D01*
X229237000Y-101269422D01*
X229237001Y-102210577D01*
X229129225Y-102318353D01*
X229010485Y-102496060D01*
X228928696Y-102693517D01*
X228887000Y-102903137D01*
X228887000Y-103116863D01*
X228928696Y-103326483D01*
X229010485Y-103523940D01*
X229129225Y-103701647D01*
X229280353Y-103852775D01*
X229458060Y-103971515D01*
X229655517Y-104053304D01*
X229865137Y-104095000D01*
X230078863Y-104095000D01*
X230288483Y-104053304D01*
X230485940Y-103971515D01*
X230663647Y-103852775D01*
X230814775Y-103701647D01*
X230933515Y-103523940D01*
X231015304Y-103326483D01*
X231057000Y-103116863D01*
X231057000Y-102903137D01*
X231051497Y-102875469D01*
X240775074Y-102875469D01*
X241820000Y-103920395D01*
X242864926Y-102875469D01*
X242754079Y-102598286D01*
X242443160Y-102444911D01*
X242108295Y-102355140D01*
X241762350Y-102332424D01*
X241418620Y-102377634D01*
X241090315Y-102489034D01*
X240885921Y-102598286D01*
X240775074Y-102875469D01*
X231051497Y-102875469D01*
X231015304Y-102693517D01*
X230933515Y-102496060D01*
X230814775Y-102318353D01*
X230707000Y-102210578D01*
X230707000Y-101269422D01*
X230814775Y-101161647D01*
X230933515Y-100983940D01*
X231015304Y-100786483D01*
X231057000Y-100576863D01*
X231057000Y-100363137D01*
X231015304Y-100153517D01*
X230933515Y-99956060D01*
X230883173Y-99880717D01*
X231095740Y-99923000D01*
X231388260Y-99923000D01*
X231675158Y-99865932D01*
X231945411Y-99753990D01*
X232188632Y-99591475D01*
X232395475Y-99384632D01*
X232512000Y-99210240D01*
X232628525Y-99384632D01*
X232835368Y-99591475D01*
X233078589Y-99753990D01*
X233348842Y-99865932D01*
X233635740Y-99923000D01*
X233928260Y-99923000D01*
X234215158Y-99865932D01*
X234485411Y-99753990D01*
X234728632Y-99591475D01*
X234935475Y-99384632D01*
X235052000Y-99210240D01*
X235168525Y-99384632D01*
X235375368Y-99591475D01*
X235618589Y-99753990D01*
X235888842Y-99865932D01*
X236175740Y-99923000D01*
X236468260Y-99923000D01*
X236755158Y-99865932D01*
X237025411Y-99753990D01*
X237268632Y-99591475D01*
X237475475Y-99384632D01*
X237597195Y-99202466D01*
X237666822Y-99319355D01*
X237861731Y-99535588D01*
X238095080Y-99709641D01*
X238357901Y-99834825D01*
X238505110Y-99879476D01*
X238735000Y-99758155D01*
X238735000Y-98565000D01*
X238715000Y-98565000D01*
X238715000Y-98311000D01*
X238735000Y-98311000D01*
X238735000Y-98291000D01*
X238989000Y-98291000D01*
X238989000Y-98311000D01*
X239009000Y-98311000D01*
X239009000Y-98565000D01*
X238989000Y-98565000D01*
X238989000Y-99758155D01*
X239218890Y-99879476D01*
X239366099Y-99834825D01*
X239628920Y-99709641D01*
X239862269Y-99535588D01*
X240057178Y-99319355D01*
X240126805Y-99202466D01*
X240248525Y-99384632D01*
X240455368Y-99591475D01*
X240698589Y-99753990D01*
X240968842Y-99865932D01*
X241255740Y-99923000D01*
X241548260Y-99923000D01*
X241835158Y-99865932D01*
X242105411Y-99753990D01*
X242348632Y-99591475D01*
X242555475Y-99384632D01*
X242672000Y-99210240D01*
X242788525Y-99384632D01*
X242995368Y-99591475D01*
X243238589Y-99753990D01*
X243508842Y-99865932D01*
X243795740Y-99923000D01*
X244088260Y-99923000D01*
X244375158Y-99865932D01*
X244645411Y-99753990D01*
X244888632Y-99591475D01*
X245095475Y-99384632D01*
X245212000Y-99210240D01*
X245328525Y-99384632D01*
X245535368Y-99591475D01*
X245778589Y-99753990D01*
X246048842Y-99865932D01*
X246335740Y-99923000D01*
X246628260Y-99923000D01*
X246915158Y-99865932D01*
X247185411Y-99753990D01*
X247428632Y-99591475D01*
X247635475Y-99384632D01*
X247752000Y-99210240D01*
X247868525Y-99384632D01*
X248075368Y-99591475D01*
X248318589Y-99753990D01*
X248588842Y-99865932D01*
X248875740Y-99923000D01*
X249168260Y-99923000D01*
X249455158Y-99865932D01*
X249725411Y-99753990D01*
X249968632Y-99591475D01*
X250175475Y-99384632D01*
X250292000Y-99210240D01*
X250408525Y-99384632D01*
X250615368Y-99591475D01*
X250858589Y-99753990D01*
X251128842Y-99865932D01*
X251415740Y-99923000D01*
X251708260Y-99923000D01*
X251995158Y-99865932D01*
X252265411Y-99753990D01*
X252508632Y-99591475D01*
X252715475Y-99384632D01*
X252832000Y-99210240D01*
X252948525Y-99384632D01*
X253155368Y-99591475D01*
X253398589Y-99753990D01*
X253668842Y-99865932D01*
X253955740Y-99923000D01*
X254248260Y-99923000D01*
X254535158Y-99865932D01*
X254805411Y-99753990D01*
X255048632Y-99591475D01*
X255255475Y-99384632D01*
X255377195Y-99202466D01*
X255446822Y-99319355D01*
X255641731Y-99535588D01*
X255875080Y-99709641D01*
X256137901Y-99834825D01*
X256285110Y-99879476D01*
X256515000Y-99758155D01*
X256515000Y-98565000D01*
X256769000Y-98565000D01*
X256769000Y-99758155D01*
X256998890Y-99879476D01*
X257146099Y-99834825D01*
X257408920Y-99709641D01*
X257642269Y-99535588D01*
X257837178Y-99319355D01*
X257986157Y-99069252D01*
X258083481Y-98794891D01*
X257962814Y-98565000D01*
X256769000Y-98565000D01*
X256515000Y-98565000D01*
X256495000Y-98565000D01*
X256495000Y-98311000D01*
X256515000Y-98311000D01*
X256515000Y-98291000D01*
X256769000Y-98291000D01*
X256769000Y-98311000D01*
X257962814Y-98311000D01*
X258083481Y-98081109D01*
X257986157Y-97806748D01*
X257837178Y-97556645D01*
X257642269Y-97340412D01*
X257412594Y-97169100D01*
X257588632Y-97051475D01*
X257795475Y-96844632D01*
X257957990Y-96601411D01*
X258069932Y-96331158D01*
X258127000Y-96044260D01*
X258127000Y-95751740D01*
X258069932Y-95464842D01*
X257957990Y-95194589D01*
X257795475Y-94951368D01*
X257588632Y-94744525D01*
X257345411Y-94582010D01*
X257075158Y-94470068D01*
X256856129Y-94426500D01*
X259852389Y-94426500D01*
X259452907Y-94693425D01*
X259003425Y-95142907D01*
X258650270Y-95671442D01*
X258407012Y-96258719D01*
X258283000Y-96882168D01*
X258283000Y-97517832D01*
X258407012Y-98141281D01*
X258650270Y-98728558D01*
X259003425Y-99257093D01*
X259452907Y-99706575D01*
X259981442Y-100059730D01*
X260568719Y-100302988D01*
X261192168Y-100427000D01*
X261827832Y-100427000D01*
X262451281Y-100302988D01*
X263038558Y-100059730D01*
X263567093Y-99706575D01*
X264016575Y-99257093D01*
X264369730Y-98728558D01*
X264612988Y-98141281D01*
X264737000Y-97517832D01*
X264737000Y-96882168D01*
X264612988Y-96258719D01*
X264369730Y-95671442D01*
X264016575Y-95142907D01*
X263567093Y-94693425D01*
X263167611Y-94426500D01*
X281974155Y-94426500D01*
X282449355Y-94473093D01*
X282871881Y-94600661D01*
X283261581Y-94807868D01*
X283603611Y-95086820D01*
X283884948Y-95426898D01*
X284094870Y-95815139D01*
X284225385Y-96236768D01*
X284275101Y-96709772D01*
X284275100Y-146655546D01*
X284228506Y-147130756D01*
X284100937Y-147553282D01*
X283893731Y-147942980D01*
X283614776Y-148285014D01*
X283274704Y-148566347D01*
X282886456Y-148776272D01*
X282464836Y-148906784D01*
X281991837Y-148956500D01*
X262479700Y-148956500D01*
X262896455Y-148783874D01*
X263375854Y-148463550D01*
X263783550Y-148055854D01*
X264103874Y-147576455D01*
X264324518Y-147043775D01*
X264437000Y-146478284D01*
X264437000Y-145901716D01*
X264324518Y-145336225D01*
X264103874Y-144803545D01*
X263783550Y-144324146D01*
X263764541Y-144305137D01*
X265147000Y-144305137D01*
X265147000Y-144518863D01*
X265188696Y-144728483D01*
X265270485Y-144925940D01*
X265389225Y-145103647D01*
X265540353Y-145254775D01*
X265718060Y-145373515D01*
X265915517Y-145455304D01*
X266125137Y-145497000D01*
X266338863Y-145497000D01*
X266548483Y-145455304D01*
X266745940Y-145373515D01*
X266923647Y-145254775D01*
X267074775Y-145103647D01*
X267193515Y-144925940D01*
X267275304Y-144728483D01*
X267317000Y-144518863D01*
X267317000Y-144305137D01*
X267293156Y-144185266D01*
X267390775Y-144087647D01*
X267509515Y-143909940D01*
X267591304Y-143712483D01*
X267633000Y-143502863D01*
X267633000Y-143289137D01*
X267591304Y-143079517D01*
X267509515Y-142882060D01*
X267390775Y-142704353D01*
X267239647Y-142553225D01*
X267061940Y-142434485D01*
X266864483Y-142352696D01*
X266654863Y-142311000D01*
X266441137Y-142311000D01*
X266231517Y-142352696D01*
X266034060Y-142434485D01*
X265856353Y-142553225D01*
X265705225Y-142704353D01*
X265586485Y-142882060D01*
X265504696Y-143079517D01*
X265463000Y-143289137D01*
X265463000Y-143502863D01*
X265486844Y-143622734D01*
X265389225Y-143720353D01*
X265270485Y-143898060D01*
X265188696Y-144095517D01*
X265147000Y-144305137D01*
X263764541Y-144305137D01*
X263375854Y-143916450D01*
X262896455Y-143596126D01*
X262363775Y-143375482D01*
X261798284Y-143263000D01*
X261221716Y-143263000D01*
X260656225Y-143375482D01*
X260123545Y-143596126D01*
X259644146Y-143916450D01*
X259236450Y-144324146D01*
X258916126Y-144803545D01*
X258695482Y-145336225D01*
X258583000Y-145901716D01*
X258583000Y-146478284D01*
X258695482Y-147043775D01*
X258916126Y-147576455D01*
X259236450Y-148055854D01*
X259644146Y-148463550D01*
X260123545Y-148783874D01*
X260540300Y-148956500D01*
X205193053Y-148956500D01*
X205567093Y-148706575D01*
X206016575Y-148257093D01*
X206319193Y-147804191D01*
X208723599Y-147804191D01*
X208820923Y-148078552D01*
X208969902Y-148328655D01*
X209164811Y-148544888D01*
X209398160Y-148718941D01*
X209660981Y-148844125D01*
X209808190Y-148888776D01*
X210038080Y-148767455D01*
X210038080Y-147574300D01*
X208844266Y-147574300D01*
X208723599Y-147804191D01*
X206319193Y-147804191D01*
X206369730Y-147728558D01*
X206612988Y-147141281D01*
X206737000Y-146517832D01*
X206737000Y-145882168D01*
X206612988Y-145258719D01*
X206369730Y-144671442D01*
X206016575Y-144142907D01*
X205930968Y-144057300D01*
X208677008Y-144057300D01*
X208677008Y-145757300D01*
X208689268Y-145881782D01*
X208725578Y-146001480D01*
X208784543Y-146111794D01*
X208863895Y-146208485D01*
X208960586Y-146287837D01*
X209070900Y-146346802D01*
X209146706Y-146369798D01*
X208969902Y-146565945D01*
X208820923Y-146816048D01*
X208723599Y-147090409D01*
X208844266Y-147320300D01*
X210038080Y-147320300D01*
X210038080Y-147300300D01*
X210292080Y-147300300D01*
X210292080Y-147320300D01*
X210312080Y-147320300D01*
X210312080Y-147574300D01*
X210292080Y-147574300D01*
X210292080Y-148767455D01*
X210521970Y-148888776D01*
X210669179Y-148844125D01*
X210932000Y-148718941D01*
X211165349Y-148544888D01*
X211360258Y-148328655D01*
X211429885Y-148211766D01*
X211551605Y-148393932D01*
X211758448Y-148600775D01*
X212001669Y-148763290D01*
X212271922Y-148875232D01*
X212558820Y-148932300D01*
X212851340Y-148932300D01*
X213138238Y-148875232D01*
X213408491Y-148763290D01*
X213651712Y-148600775D01*
X213858555Y-148393932D01*
X213980275Y-148211766D01*
X214049902Y-148328655D01*
X214244811Y-148544888D01*
X214478160Y-148718941D01*
X214740981Y-148844125D01*
X214888190Y-148888776D01*
X215118080Y-148767455D01*
X215118080Y-147574300D01*
X215098080Y-147574300D01*
X215098080Y-147320300D01*
X215118080Y-147320300D01*
X215118080Y-147300300D01*
X215372080Y-147300300D01*
X215372080Y-147320300D01*
X215392080Y-147320300D01*
X215392080Y-147574300D01*
X215372080Y-147574300D01*
X215372080Y-148767455D01*
X215601970Y-148888776D01*
X215749179Y-148844125D01*
X216012000Y-148718941D01*
X216245349Y-148544888D01*
X216440258Y-148328655D01*
X216509885Y-148211766D01*
X216631605Y-148393932D01*
X216838448Y-148600775D01*
X217081669Y-148763290D01*
X217351922Y-148875232D01*
X217638820Y-148932300D01*
X217931340Y-148932300D01*
X218218238Y-148875232D01*
X218488491Y-148763290D01*
X218731712Y-148600775D01*
X218938555Y-148393932D01*
X219101070Y-148150711D01*
X219213012Y-147880458D01*
X219270080Y-147593560D01*
X219270080Y-147301040D01*
X219213012Y-147014142D01*
X219101070Y-146743889D01*
X218938555Y-146500668D01*
X218731712Y-146293825D01*
X218555674Y-146176200D01*
X218785349Y-146004888D01*
X218980258Y-145788655D01*
X219129237Y-145538552D01*
X219226561Y-145264191D01*
X219105894Y-145034300D01*
X217912080Y-145034300D01*
X217912080Y-145054300D01*
X217658080Y-145054300D01*
X217658080Y-145034300D01*
X217638080Y-145034300D01*
X217638080Y-144780300D01*
X217658080Y-144780300D01*
X217658080Y-143587145D01*
X217912080Y-143587145D01*
X217912080Y-144780300D01*
X219105894Y-144780300D01*
X219226561Y-144550409D01*
X219129237Y-144276048D01*
X218980258Y-144025945D01*
X218785349Y-143809712D01*
X218552000Y-143635659D01*
X218289179Y-143510475D01*
X218141970Y-143465824D01*
X217912080Y-143587145D01*
X217658080Y-143587145D01*
X217428190Y-143465824D01*
X217280981Y-143510475D01*
X217018160Y-143635659D01*
X216784811Y-143809712D01*
X216589902Y-144025945D01*
X216520275Y-144142834D01*
X216398555Y-143960668D01*
X216191712Y-143753825D01*
X215948491Y-143591310D01*
X215678238Y-143479368D01*
X215391340Y-143422300D01*
X215098820Y-143422300D01*
X214811922Y-143479368D01*
X214541669Y-143591310D01*
X214298448Y-143753825D01*
X214091605Y-143960668D01*
X213969885Y-144142834D01*
X213900258Y-144025945D01*
X213705349Y-143809712D01*
X213472000Y-143635659D01*
X213209179Y-143510475D01*
X213061970Y-143465824D01*
X212832080Y-143587145D01*
X212832080Y-144780300D01*
X212852080Y-144780300D01*
X212852080Y-145034300D01*
X212832080Y-145034300D01*
X212832080Y-145054300D01*
X212578080Y-145054300D01*
X212578080Y-145034300D01*
X212558080Y-145034300D01*
X212558080Y-144780300D01*
X212578080Y-144780300D01*
X212578080Y-143587145D01*
X212348190Y-143465824D01*
X212200981Y-143510475D01*
X211938160Y-143635659D01*
X211704811Y-143809712D01*
X211629046Y-143893766D01*
X211604582Y-143813120D01*
X211545617Y-143702806D01*
X211466265Y-143606115D01*
X211369574Y-143526763D01*
X211259260Y-143467798D01*
X211139562Y-143431488D01*
X211015080Y-143419228D01*
X209315080Y-143419228D01*
X209190598Y-143431488D01*
X209070900Y-143467798D01*
X208960586Y-143526763D01*
X208863895Y-143606115D01*
X208784543Y-143702806D01*
X208725578Y-143813120D01*
X208689268Y-143932818D01*
X208677008Y-144057300D01*
X205930968Y-144057300D01*
X205567093Y-143693425D01*
X205038558Y-143340270D01*
X204451281Y-143097012D01*
X203827832Y-142973000D01*
X203192168Y-142973000D01*
X202568719Y-143097012D01*
X201981442Y-143340270D01*
X201452907Y-143693425D01*
X201003425Y-144142907D01*
X200745100Y-144529519D01*
X200745100Y-141603137D01*
X237645000Y-141603137D01*
X237645000Y-141816863D01*
X237686696Y-142026483D01*
X237768485Y-142223940D01*
X237887225Y-142401647D01*
X238038353Y-142552775D01*
X238216060Y-142671515D01*
X238299829Y-142706213D01*
X238246060Y-142728485D01*
X238068353Y-142847225D01*
X237917225Y-142998353D01*
X237798485Y-143176060D01*
X237716696Y-143373517D01*
X237675000Y-143583137D01*
X237675000Y-143796863D01*
X237716696Y-144006483D01*
X237798485Y-144203940D01*
X237917225Y-144381647D01*
X238050578Y-144515000D01*
X237917225Y-144648353D01*
X237798485Y-144826060D01*
X237716696Y-145023517D01*
X237675000Y-145233137D01*
X237675000Y-145446863D01*
X237716696Y-145656483D01*
X237798485Y-145853940D01*
X237917225Y-146031647D01*
X238068353Y-146182775D01*
X238246060Y-146301515D01*
X238443517Y-146383304D01*
X238653137Y-146425000D01*
X238866863Y-146425000D01*
X239076483Y-146383304D01*
X239273940Y-146301515D01*
X239451647Y-146182775D01*
X239602775Y-146031647D01*
X239721515Y-145853940D01*
X239755000Y-145773100D01*
X239788485Y-145853940D01*
X239907225Y-146031647D01*
X240058353Y-146182775D01*
X240236060Y-146301515D01*
X240433517Y-146383304D01*
X240643137Y-146425000D01*
X240856863Y-146425000D01*
X241066483Y-146383304D01*
X241263940Y-146301515D01*
X241441647Y-146182775D01*
X241592775Y-146031647D01*
X241711515Y-145853940D01*
X241763787Y-145727744D01*
X241828485Y-145883940D01*
X241947225Y-146061647D01*
X242098353Y-146212775D01*
X242276060Y-146331515D01*
X242473517Y-146413304D01*
X242683137Y-146455000D01*
X242896863Y-146455000D01*
X243106483Y-146413304D01*
X243303940Y-146331515D01*
X243481647Y-146212775D01*
X243632775Y-146061647D01*
X243751515Y-145883940D01*
X243833304Y-145686483D01*
X243875000Y-145476863D01*
X243875000Y-145263137D01*
X243833304Y-145053517D01*
X243751515Y-144856060D01*
X243632775Y-144678353D01*
X243481647Y-144527225D01*
X243425936Y-144490000D01*
X243481647Y-144452775D01*
X243632775Y-144301647D01*
X243751515Y-144123940D01*
X243833304Y-143926483D01*
X243875000Y-143716863D01*
X243875000Y-143503137D01*
X243833304Y-143293517D01*
X243751515Y-143096060D01*
X243632775Y-142918353D01*
X243481647Y-142767225D01*
X243336139Y-142670000D01*
X243481647Y-142572775D01*
X243632775Y-142421647D01*
X243751515Y-142243940D01*
X243833304Y-142046483D01*
X243875000Y-141836863D01*
X243875000Y-141623137D01*
X243833304Y-141413517D01*
X243751515Y-141216060D01*
X243680648Y-141110000D01*
X247887089Y-141110000D01*
X247918657Y-141430516D01*
X248012148Y-141738715D01*
X248163969Y-142022752D01*
X248368286Y-142271714D01*
X248617248Y-142476031D01*
X248901285Y-142627852D01*
X249209484Y-142721343D01*
X249449678Y-142745000D01*
X254079681Y-142745000D01*
X254160000Y-142752911D01*
X254240319Y-142745000D01*
X254240322Y-142745000D01*
X254480516Y-142721343D01*
X254788715Y-142627852D01*
X254835075Y-142603072D01*
X257480000Y-142603072D01*
X257604482Y-142590812D01*
X257724180Y-142554502D01*
X257834494Y-142495537D01*
X257931185Y-142416185D01*
X258010537Y-142319494D01*
X258069502Y-142209180D01*
X258105812Y-142089482D01*
X258118072Y-141965000D01*
X258118072Y-136515000D01*
X259741928Y-136515000D01*
X259741928Y-141965000D01*
X259754188Y-142089482D01*
X259790498Y-142209180D01*
X259849463Y-142319494D01*
X259928815Y-142416185D01*
X260025506Y-142495537D01*
X260135820Y-142554502D01*
X260255518Y-142590812D01*
X260380000Y-142603072D01*
X263280000Y-142603072D01*
X263404482Y-142590812D01*
X263524180Y-142554502D01*
X263634494Y-142495537D01*
X263731185Y-142416185D01*
X263810537Y-142319494D01*
X263869502Y-142209180D01*
X263905812Y-142089482D01*
X263918072Y-141965000D01*
X263918072Y-139360000D01*
X272541928Y-139360000D01*
X272541928Y-142860000D01*
X272554188Y-142984482D01*
X272590498Y-143104180D01*
X272649463Y-143214494D01*
X272728815Y-143311185D01*
X272825506Y-143390537D01*
X272935820Y-143449502D01*
X273055518Y-143485812D01*
X273180000Y-143498072D01*
X276680000Y-143498072D01*
X276804482Y-143485812D01*
X276924180Y-143449502D01*
X277034494Y-143390537D01*
X277131185Y-143311185D01*
X277210537Y-143214494D01*
X277269502Y-143104180D01*
X277305812Y-142984482D01*
X277318072Y-142860000D01*
X278791928Y-142860000D01*
X278804188Y-142984482D01*
X278840498Y-143104180D01*
X278899463Y-143214494D01*
X278978815Y-143311185D01*
X279075506Y-143390537D01*
X279185820Y-143449502D01*
X279305518Y-143485812D01*
X279430000Y-143498072D01*
X280644250Y-143495000D01*
X280803000Y-143336250D01*
X280803000Y-141237000D01*
X281057000Y-141237000D01*
X281057000Y-143336250D01*
X281215750Y-143495000D01*
X282430000Y-143498072D01*
X282554482Y-143485812D01*
X282674180Y-143449502D01*
X282784494Y-143390537D01*
X282881185Y-143311185D01*
X282960537Y-143214494D01*
X283019502Y-143104180D01*
X283055812Y-142984482D01*
X283068072Y-142860000D01*
X283065000Y-141395750D01*
X282906250Y-141237000D01*
X281057000Y-141237000D01*
X280803000Y-141237000D01*
X278953750Y-141237000D01*
X278795000Y-141395750D01*
X278791928Y-142860000D01*
X277318072Y-142860000D01*
X277318072Y-139360000D01*
X278791928Y-139360000D01*
X278795000Y-140824250D01*
X278953750Y-140983000D01*
X280803000Y-140983000D01*
X280803000Y-138883750D01*
X281057000Y-138883750D01*
X281057000Y-140983000D01*
X282906250Y-140983000D01*
X283065000Y-140824250D01*
X283068072Y-139360000D01*
X283055812Y-139235518D01*
X283019502Y-139115820D01*
X282960537Y-139005506D01*
X282881185Y-138908815D01*
X282784494Y-138829463D01*
X282674180Y-138770498D01*
X282554482Y-138734188D01*
X282430000Y-138721928D01*
X281215750Y-138725000D01*
X281057000Y-138883750D01*
X280803000Y-138883750D01*
X280644250Y-138725000D01*
X279430000Y-138721928D01*
X279305518Y-138734188D01*
X279185820Y-138770498D01*
X279075506Y-138829463D01*
X278978815Y-138908815D01*
X278899463Y-139005506D01*
X278840498Y-139115820D01*
X278804188Y-139235518D01*
X278791928Y-139360000D01*
X277318072Y-139360000D01*
X277305812Y-139235518D01*
X277269502Y-139115820D01*
X277210537Y-139005506D01*
X277131185Y-138908815D01*
X277034494Y-138829463D01*
X276957869Y-138788506D01*
X277055000Y-138798072D01*
X278805000Y-138798072D01*
X279100186Y-138768999D01*
X279384028Y-138682896D01*
X279645618Y-138543073D01*
X279874903Y-138354903D01*
X280063073Y-138125618D01*
X280202896Y-137864028D01*
X280288999Y-137580186D01*
X280318072Y-137285000D01*
X280318072Y-135535000D01*
X280288999Y-135239814D01*
X280202896Y-134955972D01*
X280063073Y-134694382D01*
X279874903Y-134465097D01*
X279645618Y-134276927D01*
X279384028Y-134137104D01*
X279100186Y-134051001D01*
X278805000Y-134021928D01*
X277055000Y-134021928D01*
X276759814Y-134051001D01*
X276475972Y-134137104D01*
X276214382Y-134276927D01*
X275985097Y-134465097D01*
X275796927Y-134694382D01*
X275657104Y-134955972D01*
X275571001Y-135239814D01*
X275541928Y-135535000D01*
X275541928Y-137285000D01*
X275571001Y-137580186D01*
X275657104Y-137864028D01*
X275796927Y-138125618D01*
X275985097Y-138354903D01*
X276214382Y-138543073D01*
X276475972Y-138682896D01*
X276604643Y-138721928D01*
X273180000Y-138721928D01*
X273055518Y-138734188D01*
X272935820Y-138770498D01*
X272825506Y-138829463D01*
X272728815Y-138908815D01*
X272649463Y-139005506D01*
X272590498Y-139115820D01*
X272554188Y-139235518D01*
X272541928Y-139360000D01*
X263918072Y-139360000D01*
X263918072Y-136515000D01*
X263905812Y-136390518D01*
X263869502Y-136270820D01*
X263850356Y-136235000D01*
X264130322Y-136235000D01*
X264370516Y-136211343D01*
X264678715Y-136117852D01*
X264962752Y-135966031D01*
X265211714Y-135761714D01*
X265416031Y-135512752D01*
X265567852Y-135228715D01*
X265661343Y-134920516D01*
X265692911Y-134600000D01*
X265661343Y-134279484D01*
X265567852Y-133971285D01*
X265416031Y-133687248D01*
X265211714Y-133438286D01*
X264962752Y-133233969D01*
X264678715Y-133082148D01*
X264370516Y-132988657D01*
X264130322Y-132965000D01*
X262000322Y-132965000D01*
X261920000Y-132957089D01*
X261839678Y-132965000D01*
X261599484Y-132988657D01*
X261291285Y-133082148D01*
X261007248Y-133233969D01*
X260758286Y-133438286D01*
X260717716Y-133487721D01*
X260668287Y-133528286D01*
X260537831Y-133687248D01*
X260463970Y-133777248D01*
X260312148Y-134061286D01*
X260218658Y-134369484D01*
X260187089Y-134690000D01*
X260195001Y-134770329D01*
X260195001Y-135907546D01*
X260135820Y-135925498D01*
X260025506Y-135984463D01*
X259928815Y-136063815D01*
X259849463Y-136160506D01*
X259790498Y-136270820D01*
X259754188Y-136390518D01*
X259741928Y-136515000D01*
X258118072Y-136515000D01*
X258105812Y-136390518D01*
X258069502Y-136270820D01*
X258010537Y-136160506D01*
X257931185Y-136063815D01*
X257834494Y-135984463D01*
X257724180Y-135925498D01*
X257604482Y-135889188D01*
X257480000Y-135876928D01*
X254580000Y-135876928D01*
X254455518Y-135889188D01*
X254335820Y-135925498D01*
X254225506Y-135984463D01*
X254128815Y-136063815D01*
X254049463Y-136160506D01*
X253990498Y-136270820D01*
X253954188Y-136390518D01*
X253941928Y-136515000D01*
X253941928Y-139015833D01*
X253558072Y-139399690D01*
X253558072Y-137720000D01*
X253545812Y-137595518D01*
X253509502Y-137475820D01*
X253450537Y-137365506D01*
X253371185Y-137268815D01*
X253274494Y-137189463D01*
X253164180Y-137130498D01*
X253044482Y-137094188D01*
X252920000Y-137081928D01*
X251220000Y-137081928D01*
X251095518Y-137094188D01*
X250975820Y-137130498D01*
X250865506Y-137189463D01*
X250800000Y-137243222D01*
X250734494Y-137189463D01*
X250624180Y-137130498D01*
X250504482Y-137094188D01*
X250380000Y-137081928D01*
X248680000Y-137081928D01*
X248555518Y-137094188D01*
X248435820Y-137130498D01*
X248325506Y-137189463D01*
X248228815Y-137268815D01*
X248149463Y-137365506D01*
X248090498Y-137475820D01*
X248054188Y-137595518D01*
X248041928Y-137720000D01*
X248041928Y-139420000D01*
X248054188Y-139544482D01*
X248090498Y-139664180D01*
X248149463Y-139774494D01*
X248228815Y-139871185D01*
X248325506Y-139950537D01*
X248353958Y-139965745D01*
X248163969Y-140197248D01*
X248012148Y-140481285D01*
X247918657Y-140789484D01*
X247887089Y-141110000D01*
X243680648Y-141110000D01*
X243632775Y-141038353D01*
X243481647Y-140887225D01*
X243303940Y-140768485D01*
X243106483Y-140686696D01*
X242896863Y-140645000D01*
X242683137Y-140645000D01*
X242473517Y-140686696D01*
X242276060Y-140768485D01*
X242098353Y-140887225D01*
X241947225Y-141038353D01*
X241828485Y-141216060D01*
X241799142Y-141286900D01*
X241761515Y-141196060D01*
X241642775Y-141018353D01*
X241491647Y-140867225D01*
X241313940Y-140748485D01*
X241116483Y-140666696D01*
X240906863Y-140625000D01*
X240693137Y-140625000D01*
X240483517Y-140666696D01*
X240286060Y-140748485D01*
X240108353Y-140867225D01*
X239957225Y-141018353D01*
X239838485Y-141196060D01*
X239765000Y-141373469D01*
X239691515Y-141196060D01*
X239572775Y-141018353D01*
X239421647Y-140867225D01*
X239243940Y-140748485D01*
X239046483Y-140666696D01*
X238836863Y-140625000D01*
X238623137Y-140625000D01*
X238413517Y-140666696D01*
X238216060Y-140748485D01*
X238038353Y-140867225D01*
X237887225Y-141018353D01*
X237768485Y-141196060D01*
X237686696Y-141393517D01*
X237645000Y-141603137D01*
X200745100Y-141603137D01*
X200745100Y-138589721D01*
X202575000Y-138589721D01*
X202575000Y-139010279D01*
X202657047Y-139422756D01*
X202817988Y-139811302D01*
X203051637Y-140160983D01*
X203349017Y-140458363D01*
X203698698Y-140692012D01*
X204087244Y-140852953D01*
X204499721Y-140935000D01*
X204920279Y-140935000D01*
X205332756Y-140852953D01*
X205721302Y-140692012D01*
X206070983Y-140458363D01*
X206368363Y-140160983D01*
X206602012Y-139811302D01*
X206762953Y-139422756D01*
X206805782Y-139207437D01*
X225000700Y-139207437D01*
X225000700Y-139421163D01*
X225042396Y-139630783D01*
X225124185Y-139828240D01*
X225242925Y-140005947D01*
X225394053Y-140157075D01*
X225571760Y-140275815D01*
X225769217Y-140357604D01*
X225978837Y-140399300D01*
X226192563Y-140399300D01*
X226402183Y-140357604D01*
X226599640Y-140275815D01*
X226777347Y-140157075D01*
X226928475Y-140005947D01*
X227047215Y-139828240D01*
X227129004Y-139630783D01*
X227170700Y-139421163D01*
X227170700Y-139207437D01*
X227129004Y-138997817D01*
X227047215Y-138800360D01*
X226928475Y-138622653D01*
X226777347Y-138471525D01*
X226599640Y-138352785D01*
X226402183Y-138270996D01*
X226192563Y-138229300D01*
X225978837Y-138229300D01*
X225769217Y-138270996D01*
X225571760Y-138352785D01*
X225394053Y-138471525D01*
X225242925Y-138622653D01*
X225124185Y-138800360D01*
X225042396Y-138997817D01*
X225000700Y-139207437D01*
X206805782Y-139207437D01*
X206845000Y-139010279D01*
X206845000Y-138589721D01*
X206762953Y-138177244D01*
X206602012Y-137788698D01*
X206368363Y-137439017D01*
X206070983Y-137141637D01*
X205721302Y-136907988D01*
X205332756Y-136747047D01*
X204920279Y-136665000D01*
X204499721Y-136665000D01*
X204087244Y-136747047D01*
X203698698Y-136907988D01*
X203349017Y-137141637D01*
X203051637Y-137439017D01*
X202817988Y-137788698D01*
X202657047Y-138177244D01*
X202575000Y-138589721D01*
X200745100Y-138589721D01*
X200745100Y-136193137D01*
X217115000Y-136193137D01*
X217115000Y-136406863D01*
X217156696Y-136616483D01*
X217238485Y-136813940D01*
X217357225Y-136991647D01*
X217508353Y-137142775D01*
X217686060Y-137261515D01*
X217883517Y-137343304D01*
X218093137Y-137385000D01*
X218306863Y-137385000D01*
X218516483Y-137343304D01*
X218713940Y-137261515D01*
X218891647Y-137142775D01*
X219042775Y-136991647D01*
X219161515Y-136813940D01*
X219243304Y-136616483D01*
X219285000Y-136406863D01*
X219285000Y-136193137D01*
X219243304Y-135983517D01*
X219161515Y-135786060D01*
X219042775Y-135608353D01*
X218891647Y-135457225D01*
X218713940Y-135338485D01*
X218516483Y-135256696D01*
X218306863Y-135215000D01*
X218093137Y-135215000D01*
X217883517Y-135256696D01*
X217686060Y-135338485D01*
X217508353Y-135457225D01*
X217357225Y-135608353D01*
X217238485Y-135786060D01*
X217156696Y-135983517D01*
X217115000Y-136193137D01*
X200745100Y-136193137D01*
X200745100Y-133509721D01*
X202575000Y-133509721D01*
X202575000Y-133930279D01*
X202657047Y-134342756D01*
X202817988Y-134731302D01*
X203051637Y-135080983D01*
X203349017Y-135378363D01*
X203698698Y-135612012D01*
X204087244Y-135772953D01*
X204499721Y-135855000D01*
X204920279Y-135855000D01*
X205332756Y-135772953D01*
X205721302Y-135612012D01*
X206070983Y-135378363D01*
X206368363Y-135080983D01*
X206602012Y-134731302D01*
X206762953Y-134342756D01*
X206845000Y-133930279D01*
X206845000Y-133509721D01*
X206762953Y-133097244D01*
X206602012Y-132708698D01*
X206368363Y-132359017D01*
X206070983Y-132061637D01*
X205721302Y-131827988D01*
X205332756Y-131667047D01*
X204920279Y-131585000D01*
X204499721Y-131585000D01*
X204087244Y-131667047D01*
X203698698Y-131827988D01*
X203349017Y-132061637D01*
X203051637Y-132359017D01*
X202817988Y-132708698D01*
X202657047Y-133097244D01*
X202575000Y-133509721D01*
X200745100Y-133509721D01*
X200745100Y-128429721D01*
X202575000Y-128429721D01*
X202575000Y-128850279D01*
X202657047Y-129262756D01*
X202817988Y-129651302D01*
X203051637Y-130000983D01*
X203349017Y-130298363D01*
X203698698Y-130532012D01*
X204087244Y-130692953D01*
X204499721Y-130775000D01*
X204920279Y-130775000D01*
X205332756Y-130692953D01*
X205721302Y-130532012D01*
X206070983Y-130298363D01*
X206368363Y-130000983D01*
X206582836Y-129680000D01*
X247887089Y-129680000D01*
X247918657Y-130000516D01*
X248012148Y-130308715D01*
X248163969Y-130592752D01*
X248368286Y-130841714D01*
X248617248Y-131046031D01*
X248901285Y-131197852D01*
X249209484Y-131291343D01*
X249449678Y-131315000D01*
X251896322Y-131315000D01*
X251943000Y-131310403D01*
X251989678Y-131315000D01*
X254204962Y-131315000D01*
X254230498Y-131399180D01*
X254289463Y-131509494D01*
X254368815Y-131606185D01*
X254465506Y-131685537D01*
X254575820Y-131744502D01*
X254695518Y-131780812D01*
X254820000Y-131793072D01*
X257720000Y-131793072D01*
X257844482Y-131780812D01*
X257964180Y-131744502D01*
X258074494Y-131685537D01*
X258171185Y-131606185D01*
X258250537Y-131509494D01*
X258309502Y-131399180D01*
X258345812Y-131279482D01*
X258358072Y-131155000D01*
X258358072Y-125705000D01*
X259981928Y-125705000D01*
X259981928Y-131155000D01*
X259994188Y-131279482D01*
X260030498Y-131399180D01*
X260089463Y-131509494D01*
X260168815Y-131606185D01*
X260265506Y-131685537D01*
X260375820Y-131744502D01*
X260495518Y-131780812D01*
X260620000Y-131793072D01*
X263520000Y-131793072D01*
X263644482Y-131780812D01*
X263764180Y-131744502D01*
X263874494Y-131685537D01*
X263971185Y-131606185D01*
X264050537Y-131509494D01*
X264074427Y-131464800D01*
X264086696Y-131526483D01*
X264168485Y-131723940D01*
X264287225Y-131901647D01*
X264438353Y-132052775D01*
X264616060Y-132171515D01*
X264813517Y-132253304D01*
X265023137Y-132295000D01*
X265236863Y-132295000D01*
X265446483Y-132253304D01*
X265643940Y-132171515D01*
X265821647Y-132052775D01*
X265972775Y-131901647D01*
X266091515Y-131723940D01*
X266140724Y-131605137D01*
X268257000Y-131605137D01*
X268257000Y-131818863D01*
X268298696Y-132028483D01*
X268380485Y-132225940D01*
X268499225Y-132403647D01*
X268650353Y-132554775D01*
X268828060Y-132673515D01*
X269025517Y-132755304D01*
X269235137Y-132797000D01*
X269448863Y-132797000D01*
X269658483Y-132755304D01*
X269855940Y-132673515D01*
X270033647Y-132554775D01*
X270184775Y-132403647D01*
X270303515Y-132225940D01*
X270385304Y-132028483D01*
X270427000Y-131818863D01*
X270427000Y-131605137D01*
X270385304Y-131395517D01*
X270303515Y-131198060D01*
X270184775Y-131020353D01*
X270033647Y-130869225D01*
X269855940Y-130750485D01*
X269658483Y-130668696D01*
X269448863Y-130627000D01*
X269235137Y-130627000D01*
X269025517Y-130668696D01*
X268828060Y-130750485D01*
X268650353Y-130869225D01*
X268499225Y-131020353D01*
X268380485Y-131198060D01*
X268298696Y-131395517D01*
X268257000Y-131605137D01*
X266140724Y-131605137D01*
X266173304Y-131526483D01*
X266215000Y-131316863D01*
X266215000Y-131103137D01*
X266173304Y-130893517D01*
X266091515Y-130696060D01*
X265972775Y-130518353D01*
X265821647Y-130367225D01*
X265643940Y-130248485D01*
X265446483Y-130166696D01*
X265236863Y-130125000D01*
X265023137Y-130125000D01*
X264813517Y-130166696D01*
X264616060Y-130248485D01*
X264438353Y-130367225D01*
X264287225Y-130518353D01*
X264168485Y-130696060D01*
X264158072Y-130721199D01*
X264158072Y-125705000D01*
X264145812Y-125580518D01*
X264124159Y-125509137D01*
X264193000Y-125509137D01*
X264193000Y-125722863D01*
X264234696Y-125932483D01*
X264316485Y-126129940D01*
X264435225Y-126307647D01*
X264586353Y-126458775D01*
X264764060Y-126577515D01*
X264961517Y-126659304D01*
X265171137Y-126701000D01*
X265384863Y-126701000D01*
X265590983Y-126660000D01*
X272541928Y-126660000D01*
X272541928Y-130160000D01*
X272554188Y-130284482D01*
X272590498Y-130404180D01*
X272649463Y-130514494D01*
X272728815Y-130611185D01*
X272825506Y-130690537D01*
X272935820Y-130749502D01*
X273055518Y-130785812D01*
X273180000Y-130798072D01*
X276680000Y-130798072D01*
X276804482Y-130785812D01*
X276924180Y-130749502D01*
X277034494Y-130690537D01*
X277131185Y-130611185D01*
X277210537Y-130514494D01*
X277269502Y-130404180D01*
X277305812Y-130284482D01*
X277318072Y-130160000D01*
X278791928Y-130160000D01*
X278804188Y-130284482D01*
X278840498Y-130404180D01*
X278899463Y-130514494D01*
X278978815Y-130611185D01*
X279075506Y-130690537D01*
X279185820Y-130749502D01*
X279305518Y-130785812D01*
X279430000Y-130798072D01*
X280644250Y-130795000D01*
X280803000Y-130636250D01*
X280803000Y-128537000D01*
X281057000Y-128537000D01*
X281057000Y-130636250D01*
X281215750Y-130795000D01*
X282430000Y-130798072D01*
X282554482Y-130785812D01*
X282674180Y-130749502D01*
X282784494Y-130690537D01*
X282881185Y-130611185D01*
X282960537Y-130514494D01*
X283019502Y-130404180D01*
X283055812Y-130284482D01*
X283068072Y-130160000D01*
X283065000Y-128695750D01*
X282906250Y-128537000D01*
X281057000Y-128537000D01*
X280803000Y-128537000D01*
X278953750Y-128537000D01*
X278795000Y-128695750D01*
X278791928Y-130160000D01*
X277318072Y-130160000D01*
X277318072Y-126660000D01*
X278791928Y-126660000D01*
X278795000Y-128124250D01*
X278953750Y-128283000D01*
X280803000Y-128283000D01*
X280803000Y-126183750D01*
X281057000Y-126183750D01*
X281057000Y-128283000D01*
X282906250Y-128283000D01*
X283065000Y-128124250D01*
X283068072Y-126660000D01*
X283055812Y-126535518D01*
X283019502Y-126415820D01*
X282960537Y-126305506D01*
X282881185Y-126208815D01*
X282784494Y-126129463D01*
X282674180Y-126070498D01*
X282554482Y-126034188D01*
X282430000Y-126021928D01*
X281215750Y-126025000D01*
X281057000Y-126183750D01*
X280803000Y-126183750D01*
X280644250Y-126025000D01*
X279430000Y-126021928D01*
X279305518Y-126034188D01*
X279185820Y-126070498D01*
X279075506Y-126129463D01*
X278978815Y-126208815D01*
X278899463Y-126305506D01*
X278840498Y-126415820D01*
X278804188Y-126535518D01*
X278791928Y-126660000D01*
X277318072Y-126660000D01*
X277305812Y-126535518D01*
X277269502Y-126415820D01*
X277210537Y-126305506D01*
X277131185Y-126208815D01*
X277034494Y-126129463D01*
X276957869Y-126088506D01*
X277055000Y-126098072D01*
X278805000Y-126098072D01*
X279100186Y-126068999D01*
X279384028Y-125982896D01*
X279645618Y-125843073D01*
X279874903Y-125654903D01*
X280063073Y-125425618D01*
X280202896Y-125164028D01*
X280288999Y-124880186D01*
X280318072Y-124585000D01*
X280318072Y-122835000D01*
X280288999Y-122539814D01*
X280202896Y-122255972D01*
X280063073Y-121994382D01*
X279874903Y-121765097D01*
X279645618Y-121576927D01*
X279384028Y-121437104D01*
X279100186Y-121351001D01*
X278805000Y-121321928D01*
X277055000Y-121321928D01*
X276759814Y-121351001D01*
X276475972Y-121437104D01*
X276214382Y-121576927D01*
X275985097Y-121765097D01*
X275796927Y-121994382D01*
X275657104Y-122255972D01*
X275571001Y-122539814D01*
X275541928Y-122835000D01*
X275541928Y-124585000D01*
X275571001Y-124880186D01*
X275657104Y-125164028D01*
X275796927Y-125425618D01*
X275985097Y-125654903D01*
X276214382Y-125843073D01*
X276475972Y-125982896D01*
X276604643Y-126021928D01*
X273180000Y-126021928D01*
X273055518Y-126034188D01*
X272935820Y-126070498D01*
X272825506Y-126129463D01*
X272728815Y-126208815D01*
X272649463Y-126305506D01*
X272590498Y-126415820D01*
X272554188Y-126535518D01*
X272541928Y-126660000D01*
X265590983Y-126660000D01*
X265594483Y-126659304D01*
X265791940Y-126577515D01*
X265969647Y-126458775D01*
X266120775Y-126307647D01*
X266239515Y-126129940D01*
X266321304Y-125932483D01*
X266363000Y-125722863D01*
X266363000Y-125509137D01*
X266321304Y-125299517D01*
X266239515Y-125102060D01*
X266120775Y-124924353D01*
X265969647Y-124773225D01*
X265791940Y-124654485D01*
X265594483Y-124572696D01*
X265384863Y-124531000D01*
X265171137Y-124531000D01*
X264961517Y-124572696D01*
X264764060Y-124654485D01*
X264586353Y-124773225D01*
X264435225Y-124924353D01*
X264316485Y-125102060D01*
X264234696Y-125299517D01*
X264193000Y-125509137D01*
X264124159Y-125509137D01*
X264109502Y-125460820D01*
X264050537Y-125350506D01*
X263971185Y-125253815D01*
X263874494Y-125174463D01*
X263764180Y-125115498D01*
X263705000Y-125097546D01*
X263705000Y-124535000D01*
X263980322Y-124535000D01*
X264220516Y-124511343D01*
X264528715Y-124417852D01*
X264812752Y-124266031D01*
X265061714Y-124061714D01*
X265266031Y-123812752D01*
X265417852Y-123528715D01*
X265511343Y-123220516D01*
X265542911Y-122900000D01*
X265511343Y-122579484D01*
X265417852Y-122271285D01*
X265266031Y-121987248D01*
X265061714Y-121738286D01*
X264812752Y-121533969D01*
X264528715Y-121382148D01*
X264220516Y-121288657D01*
X263980322Y-121265000D01*
X262230319Y-121265000D01*
X262149999Y-121257089D01*
X262069680Y-121265000D01*
X262069678Y-121265000D01*
X261829484Y-121288657D01*
X261521285Y-121382148D01*
X261237248Y-121533969D01*
X260988286Y-121738286D01*
X260952224Y-121782228D01*
X260908287Y-121818286D01*
X260712196Y-122057225D01*
X260703970Y-122067248D01*
X260552148Y-122351286D01*
X260458658Y-122659484D01*
X260427089Y-122980000D01*
X260435001Y-123060329D01*
X260435001Y-125097546D01*
X260375820Y-125115498D01*
X260265506Y-125174463D01*
X260168815Y-125253815D01*
X260089463Y-125350506D01*
X260030498Y-125460820D01*
X259994188Y-125580518D01*
X259981928Y-125705000D01*
X258358072Y-125705000D01*
X258345812Y-125580518D01*
X258309502Y-125460820D01*
X258250537Y-125350506D01*
X258171185Y-125253815D01*
X258074494Y-125174463D01*
X257964180Y-125115498D01*
X257844482Y-125079188D01*
X257720000Y-125066928D01*
X254820000Y-125066928D01*
X254695518Y-125079188D01*
X254575820Y-125115498D01*
X254465506Y-125174463D01*
X254368815Y-125253815D01*
X254289463Y-125350506D01*
X254230498Y-125460820D01*
X254194188Y-125580518D01*
X254181928Y-125705000D01*
X254181928Y-128045000D01*
X253552655Y-128045000D01*
X253558072Y-127990000D01*
X253558072Y-126290000D01*
X253545812Y-126165518D01*
X253509502Y-126045820D01*
X253450537Y-125935506D01*
X253371185Y-125838815D01*
X253274494Y-125759463D01*
X253164180Y-125700498D01*
X253044482Y-125664188D01*
X252920000Y-125651928D01*
X251220000Y-125651928D01*
X251095518Y-125664188D01*
X250975820Y-125700498D01*
X250865506Y-125759463D01*
X250800000Y-125813222D01*
X250734494Y-125759463D01*
X250624180Y-125700498D01*
X250504482Y-125664188D01*
X250380000Y-125651928D01*
X248680000Y-125651928D01*
X248555518Y-125664188D01*
X248435820Y-125700498D01*
X248325506Y-125759463D01*
X248228815Y-125838815D01*
X248149463Y-125935506D01*
X248090498Y-126045820D01*
X248054188Y-126165518D01*
X248041928Y-126290000D01*
X248041928Y-127990000D01*
X248054188Y-128114482D01*
X248090498Y-128234180D01*
X248149463Y-128344494D01*
X248228815Y-128441185D01*
X248325506Y-128520537D01*
X248353958Y-128535745D01*
X248163969Y-128767248D01*
X248012148Y-129051285D01*
X247918657Y-129359484D01*
X247887089Y-129680000D01*
X206582836Y-129680000D01*
X206602012Y-129651302D01*
X206762953Y-129262756D01*
X206845000Y-128850279D01*
X206845000Y-128429721D01*
X206762953Y-128017244D01*
X206602012Y-127628698D01*
X206368363Y-127279017D01*
X206070983Y-126981637D01*
X205721302Y-126747988D01*
X205332756Y-126587047D01*
X204920279Y-126505000D01*
X204499721Y-126505000D01*
X204087244Y-126587047D01*
X203698698Y-126747988D01*
X203349017Y-126981637D01*
X203051637Y-127279017D01*
X202817988Y-127628698D01*
X202657047Y-128017244D01*
X202575000Y-128429721D01*
X200745100Y-128429721D01*
X200745100Y-122060000D01*
X202571928Y-122060000D01*
X202571928Y-125060000D01*
X202584188Y-125184482D01*
X202620498Y-125304180D01*
X202679463Y-125414494D01*
X202758815Y-125511185D01*
X202855506Y-125590537D01*
X202965820Y-125649502D01*
X203085518Y-125685812D01*
X203210000Y-125698072D01*
X206210000Y-125698072D01*
X206334482Y-125685812D01*
X206454180Y-125649502D01*
X206564494Y-125590537D01*
X206661185Y-125511185D01*
X206740537Y-125414494D01*
X206799502Y-125304180D01*
X206835812Y-125184482D01*
X206848072Y-125060000D01*
X206848072Y-122060000D01*
X206835812Y-121935518D01*
X206799502Y-121815820D01*
X206740537Y-121705506D01*
X206661185Y-121608815D01*
X206564494Y-121529463D01*
X206454180Y-121470498D01*
X206334482Y-121434188D01*
X206210000Y-121421928D01*
X203210000Y-121421928D01*
X203085518Y-121434188D01*
X202965820Y-121470498D01*
X202855506Y-121529463D01*
X202758815Y-121608815D01*
X202679463Y-121705506D01*
X202620498Y-121815820D01*
X202584188Y-121935518D01*
X202571928Y-122060000D01*
X200745100Y-122060000D01*
X200745100Y-116662094D01*
X201695200Y-116662094D01*
X201695200Y-116925066D01*
X201746504Y-117182985D01*
X201847139Y-117425939D01*
X201993238Y-117644593D01*
X202179187Y-117830542D01*
X202397841Y-117976641D01*
X202640795Y-118077276D01*
X202898714Y-118128580D01*
X203161686Y-118128580D01*
X203419605Y-118077276D01*
X203662559Y-117976641D01*
X203881213Y-117830542D01*
X204067162Y-117644593D01*
X204213261Y-117425939D01*
X204313896Y-117182985D01*
X204365200Y-116925066D01*
X204365200Y-116662094D01*
X204313896Y-116404175D01*
X204213261Y-116161221D01*
X204067162Y-115942567D01*
X203881213Y-115756618D01*
X203662559Y-115610519D01*
X203419605Y-115509884D01*
X203161686Y-115458580D01*
X202898714Y-115458580D01*
X202640795Y-115509884D01*
X202397841Y-115610519D01*
X202179187Y-115756618D01*
X201993238Y-115942567D01*
X201847139Y-116161221D01*
X201746504Y-116404175D01*
X201695200Y-116662094D01*
X200745100Y-116662094D01*
X200745100Y-113558678D01*
X210645200Y-113558678D01*
X210645200Y-114028482D01*
X210736854Y-114489259D01*
X210916640Y-114923301D01*
X211177650Y-115313929D01*
X211509851Y-115646130D01*
X211900479Y-115907140D01*
X212334521Y-116086926D01*
X212795298Y-116178580D01*
X213265102Y-116178580D01*
X213725879Y-116086926D01*
X214159921Y-115907140D01*
X214550549Y-115646130D01*
X214882750Y-115313929D01*
X215143760Y-114923301D01*
X215323546Y-114489259D01*
X215415200Y-114028482D01*
X215415200Y-113558678D01*
X215323546Y-113097901D01*
X215143760Y-112663859D01*
X214882750Y-112273231D01*
X214550549Y-111941030D01*
X214159921Y-111680020D01*
X213725879Y-111500234D01*
X213265102Y-111408580D01*
X212795298Y-111408580D01*
X212334521Y-111500234D01*
X211900479Y-111680020D01*
X211509851Y-111941030D01*
X211177650Y-112273231D01*
X210916640Y-112663859D01*
X210736854Y-113097901D01*
X210645200Y-113558678D01*
X200745100Y-113558678D01*
X200745100Y-105662094D01*
X201695200Y-105662094D01*
X201695200Y-105925066D01*
X201746504Y-106182985D01*
X201847139Y-106425939D01*
X201993238Y-106644593D01*
X202179187Y-106830542D01*
X202397841Y-106976641D01*
X202640795Y-107077276D01*
X202898714Y-107128580D01*
X203161686Y-107128580D01*
X203419605Y-107077276D01*
X203500954Y-107043580D01*
X210642128Y-107043580D01*
X210642128Y-110543580D01*
X210654388Y-110668062D01*
X210690698Y-110787760D01*
X210749663Y-110898074D01*
X210829015Y-110994765D01*
X210925706Y-111074117D01*
X211036020Y-111133082D01*
X211155718Y-111169392D01*
X211280200Y-111181652D01*
X214780200Y-111181652D01*
X214904682Y-111169392D01*
X215024380Y-111133082D01*
X215134694Y-111074117D01*
X215231385Y-110994765D01*
X215310737Y-110898074D01*
X215369702Y-110787760D01*
X215406012Y-110668062D01*
X215418272Y-110543580D01*
X215418272Y-107043580D01*
X215406012Y-106919098D01*
X215369702Y-106799400D01*
X215310737Y-106689086D01*
X215231385Y-106592395D01*
X215134694Y-106513043D01*
X215024380Y-106454078D01*
X214904682Y-106417768D01*
X214780200Y-106405508D01*
X211280200Y-106405508D01*
X211155718Y-106417768D01*
X211036020Y-106454078D01*
X210925706Y-106513043D01*
X210829015Y-106592395D01*
X210749663Y-106689086D01*
X210690698Y-106799400D01*
X210654388Y-106919098D01*
X210642128Y-107043580D01*
X203500954Y-107043580D01*
X203662559Y-106976641D01*
X203881213Y-106830542D01*
X204067162Y-106644593D01*
X204213261Y-106425939D01*
X204313896Y-106182985D01*
X204365200Y-105925066D01*
X204365200Y-105662094D01*
X204313896Y-105404175D01*
X204213261Y-105161221D01*
X204067162Y-104942567D01*
X203881213Y-104756618D01*
X203662559Y-104610519D01*
X203419605Y-104509884D01*
X203161686Y-104458580D01*
X202898714Y-104458580D01*
X202640795Y-104509884D01*
X202397841Y-104610519D01*
X202179187Y-104756618D01*
X201993238Y-104942567D01*
X201847139Y-105161221D01*
X201746504Y-105404175D01*
X201695200Y-105662094D01*
X200745100Y-105662094D01*
X200745100Y-96727434D01*
X200791692Y-96252244D01*
X200919261Y-95829718D01*
X201126467Y-95440018D01*
X201405422Y-95097987D01*
X201745496Y-94816653D01*
X202133741Y-94606729D01*
X202555362Y-94476215D01*
X203028370Y-94426500D01*
X205879600Y-94426500D01*
X205697248Y-94523969D01*
G37*
X205697248Y-94523969D02*
X205448286Y-94728286D01*
X205397075Y-94790687D01*
X205232681Y-94955081D01*
X205170286Y-95006287D01*
X204991500Y-95224139D01*
X204965969Y-95255249D01*
X204875546Y-95424417D01*
X204568669Y-95219369D01*
X204161925Y-95050890D01*
X203730128Y-94965000D01*
X203289872Y-94965000D01*
X202858075Y-95050890D01*
X202451331Y-95219369D01*
X202085271Y-95463962D01*
X201773962Y-95775271D01*
X201529369Y-96141331D01*
X201360890Y-96548075D01*
X201275000Y-96979872D01*
X201275000Y-97420128D01*
X201360890Y-97851925D01*
X201529369Y-98258669D01*
X201773962Y-98624729D01*
X202085271Y-98936038D01*
X202451331Y-99180631D01*
X202858075Y-99349110D01*
X203289872Y-99435000D01*
X203730128Y-99435000D01*
X204161925Y-99349110D01*
X204568669Y-99180631D01*
X204675002Y-99109582D01*
X204675001Y-100719681D01*
X204667090Y-100800001D01*
X204675001Y-100880320D01*
X204675001Y-100880322D01*
X204698658Y-101120516D01*
X204792149Y-101428715D01*
X204943970Y-101712752D01*
X205148287Y-101961715D01*
X205210687Y-102012925D01*
X206310676Y-103112916D01*
X206310687Y-103112925D01*
X208312923Y-105115163D01*
X208364126Y-105177554D01*
X208613088Y-105381871D01*
X208747974Y-105453969D01*
X208897125Y-105533692D01*
X209205323Y-105627183D01*
X209525840Y-105658751D01*
X209606162Y-105650840D01*
X216485000Y-105650840D01*
X216485001Y-117310790D01*
X216477685Y-117301875D01*
X216380994Y-117222523D01*
X216270680Y-117163558D01*
X216150982Y-117127248D01*
X216026500Y-117114988D01*
X214326500Y-117114988D01*
X214202018Y-117127248D01*
X214082320Y-117163558D01*
X213972006Y-117222523D01*
X213875315Y-117301875D01*
X213795963Y-117398566D01*
X213736998Y-117508880D01*
X213700688Y-117628578D01*
X213688428Y-117753060D01*
X213688428Y-119453060D01*
X213700688Y-119577542D01*
X213736998Y-119697240D01*
X213795963Y-119807554D01*
X213875315Y-119904245D01*
X213972006Y-119983597D01*
X214082320Y-120042562D01*
X214154880Y-120064573D01*
X214023025Y-120196428D01*
X213860510Y-120439649D01*
X213748568Y-120709902D01*
X213691500Y-120996800D01*
X213691500Y-121289320D01*
X213748568Y-121576218D01*
X213860510Y-121846471D01*
X214023025Y-122089692D01*
X214229868Y-122296535D01*
X214473089Y-122459050D01*
X214743342Y-122570992D01*
X215030240Y-122628060D01*
X215322760Y-122628060D01*
X215609658Y-122570992D01*
X215879911Y-122459050D01*
X216123132Y-122296535D01*
X216329975Y-122089692D01*
X216492490Y-121846471D01*
X216604432Y-121576218D01*
X216661500Y-121289320D01*
X216661500Y-120996800D01*
X216604432Y-120709902D01*
X216492490Y-120439649D01*
X216329975Y-120196428D01*
X216198120Y-120064573D01*
X216270680Y-120042562D01*
X216380994Y-119983597D01*
X216477685Y-119904245D01*
X216557037Y-119807554D01*
X216616002Y-119697240D01*
X216652312Y-119577542D01*
X216664572Y-119453060D01*
X216664572Y-118945501D01*
X216715893Y-119041515D01*
X216753970Y-119112752D01*
X216958287Y-119361714D01*
X217020682Y-119412920D01*
X217415000Y-119807239D01*
X217415001Y-123249668D01*
X217407089Y-123330000D01*
X217438657Y-123650516D01*
X217532148Y-123958715D01*
X217683969Y-124242752D01*
X217888286Y-124491714D01*
X218137248Y-124696031D01*
X218421285Y-124847852D01*
X218729484Y-124941343D01*
X218969678Y-124965000D01*
X219050000Y-124972911D01*
X219130322Y-124965000D01*
X221320322Y-124965000D01*
X221560516Y-124941343D01*
X221868715Y-124847852D01*
X222152752Y-124696031D01*
X222401714Y-124491714D01*
X222602827Y-124246655D01*
X240060000Y-124246655D01*
X240060000Y-124593345D01*
X240127636Y-124933373D01*
X240260308Y-125253673D01*
X240452919Y-125541935D01*
X240698065Y-125787081D01*
X240986327Y-125979692D01*
X241306627Y-126112364D01*
X241646655Y-126180000D01*
X241993345Y-126180000D01*
X242333373Y-126112364D01*
X242653673Y-125979692D01*
X242941935Y-125787081D01*
X243187081Y-125541935D01*
X243379692Y-125253673D01*
X243512364Y-124933373D01*
X243580000Y-124593345D01*
X243580000Y-124246655D01*
X243512364Y-123906627D01*
X243379692Y-123586327D01*
X243187081Y-123298065D01*
X242941935Y-123052919D01*
X242653673Y-122860308D01*
X242333373Y-122727636D01*
X241993345Y-122660000D01*
X241646655Y-122660000D01*
X241306627Y-122727636D01*
X240986327Y-122860308D01*
X240698065Y-123052919D01*
X240452919Y-123298065D01*
X240260308Y-123586327D01*
X240127636Y-123906627D01*
X240060000Y-124246655D01*
X222602827Y-124246655D01*
X222606031Y-124242752D01*
X222757852Y-123958715D01*
X222851343Y-123650516D01*
X222882911Y-123330000D01*
X222851343Y-123009484D01*
X222757852Y-122701285D01*
X222606031Y-122417248D01*
X222401714Y-122168286D01*
X222152752Y-121963969D01*
X221868715Y-121812148D01*
X221560516Y-121718657D01*
X221320322Y-121695000D01*
X220685000Y-121695000D01*
X220685000Y-119210322D01*
X220692911Y-119130000D01*
X220661343Y-118809483D01*
X220567852Y-118501285D01*
X220492169Y-118359692D01*
X220416031Y-118217248D01*
X220360193Y-118149209D01*
X220378065Y-118167081D01*
X220666327Y-118359692D01*
X220986627Y-118492364D01*
X221326655Y-118560000D01*
X221673345Y-118560000D01*
X222013373Y-118492364D01*
X222333673Y-118359692D01*
X222621935Y-118167081D01*
X222867081Y-117921935D01*
X223059692Y-117633673D01*
X223192364Y-117313373D01*
X223258676Y-116980000D01*
X247887089Y-116980000D01*
X247918657Y-117300516D01*
X248012148Y-117608715D01*
X248163969Y-117892752D01*
X248368286Y-118141714D01*
X248617248Y-118346031D01*
X248901285Y-118497852D01*
X249209484Y-118591343D01*
X249449678Y-118615000D01*
X254023747Y-118615000D01*
X254024188Y-118619482D01*
X254060498Y-118739180D01*
X254119463Y-118849494D01*
X254198815Y-118946185D01*
X254295506Y-119025537D01*
X254405820Y-119084502D01*
X254525518Y-119120812D01*
X254650000Y-119133072D01*
X257550000Y-119133072D01*
X257674482Y-119120812D01*
X257794180Y-119084502D01*
X257904494Y-119025537D01*
X258001185Y-118946185D01*
X258080537Y-118849494D01*
X258139502Y-118739180D01*
X258175812Y-118619482D01*
X258188072Y-118495000D01*
X258188072Y-113045000D01*
X258175812Y-112920518D01*
X258139502Y-112800820D01*
X258080537Y-112690506D01*
X258001185Y-112593815D01*
X257904494Y-112514463D01*
X257794180Y-112455498D01*
X257674482Y-112419188D01*
X257550000Y-112406928D01*
X254650000Y-112406928D01*
X254525518Y-112419188D01*
X254405820Y-112455498D01*
X254295506Y-112514463D01*
X254198815Y-112593815D01*
X254119463Y-112690506D01*
X254060498Y-112800820D01*
X254024188Y-112920518D01*
X254011928Y-113045000D01*
X254011928Y-115345000D01*
X253552655Y-115345000D01*
X253558072Y-115290000D01*
X253558072Y-113590000D01*
X253545812Y-113465518D01*
X253509502Y-113345820D01*
X253450537Y-113235506D01*
X253371185Y-113138815D01*
X253274494Y-113059463D01*
X253164180Y-113000498D01*
X253044482Y-112964188D01*
X252920000Y-112951928D01*
X251220000Y-112951928D01*
X251095518Y-112964188D01*
X250975820Y-113000498D01*
X250865506Y-113059463D01*
X250800000Y-113113222D01*
X250734494Y-113059463D01*
X250624180Y-113000498D01*
X250504482Y-112964188D01*
X250380000Y-112951928D01*
X248680000Y-112951928D01*
X248555518Y-112964188D01*
X248435820Y-113000498D01*
X248325506Y-113059463D01*
X248228815Y-113138815D01*
X248149463Y-113235506D01*
X248090498Y-113345820D01*
X248054188Y-113465518D01*
X248041928Y-113590000D01*
X248041928Y-115290000D01*
X248054188Y-115414482D01*
X248090498Y-115534180D01*
X248149463Y-115644494D01*
X248228815Y-115741185D01*
X248325506Y-115820537D01*
X248353958Y-115835745D01*
X248163969Y-116067248D01*
X248012148Y-116351285D01*
X247918657Y-116659484D01*
X247887089Y-116980000D01*
X223258676Y-116980000D01*
X223260000Y-116973345D01*
X223260000Y-116626655D01*
X223192364Y-116286627D01*
X223059692Y-115966327D01*
X222867081Y-115678065D01*
X222621935Y-115432919D01*
X222333673Y-115240308D01*
X222013373Y-115107636D01*
X221673345Y-115040000D01*
X221326655Y-115040000D01*
X220986627Y-115107636D01*
X220666327Y-115240308D01*
X220378065Y-115432919D01*
X220132919Y-115678065D01*
X219940308Y-115966327D01*
X219807636Y-116286627D01*
X219755000Y-116551245D01*
X219755000Y-114086655D01*
X240060000Y-114086655D01*
X240060000Y-114433345D01*
X240127636Y-114773373D01*
X240260308Y-115093673D01*
X240452919Y-115381935D01*
X240698065Y-115627081D01*
X240986327Y-115819692D01*
X241306627Y-115952364D01*
X241646655Y-116020000D01*
X241993345Y-116020000D01*
X242333373Y-115952364D01*
X242653673Y-115819692D01*
X242941935Y-115627081D01*
X243187081Y-115381935D01*
X243379692Y-115093673D01*
X243512364Y-114773373D01*
X243580000Y-114433345D01*
X243580000Y-114086655D01*
X243512364Y-113746627D01*
X243379692Y-113426327D01*
X243187081Y-113138065D01*
X242941935Y-112892919D01*
X242653673Y-112700308D01*
X242333373Y-112567636D01*
X241993345Y-112500000D01*
X241646655Y-112500000D01*
X241306627Y-112567636D01*
X240986327Y-112700308D01*
X240698065Y-112892919D01*
X240452919Y-113138065D01*
X240260308Y-113426327D01*
X240127636Y-113746627D01*
X240060000Y-114086655D01*
X219755000Y-114086655D01*
X219755000Y-112944531D01*
X220455074Y-112944531D01*
X220565921Y-113221714D01*
X220876840Y-113375089D01*
X221211705Y-113464860D01*
X221557650Y-113487576D01*
X221901380Y-113442366D01*
X222229685Y-113330966D01*
X222434079Y-113221714D01*
X222544926Y-112944531D01*
X221500000Y-111899605D01*
X220455074Y-112944531D01*
X219755000Y-112944531D01*
X219755000Y-111949295D01*
X219777634Y-112121380D01*
X219889034Y-112449685D01*
X219998286Y-112654079D01*
X220275469Y-112764926D01*
X221320395Y-111720000D01*
X221679605Y-111720000D01*
X222724531Y-112764926D01*
X223001714Y-112654079D01*
X223155089Y-112343160D01*
X223244860Y-112008295D01*
X223267576Y-111662350D01*
X223222366Y-111318620D01*
X223110966Y-110990315D01*
X223001714Y-110785921D01*
X222724531Y-110675074D01*
X221679605Y-111720000D01*
X221320395Y-111720000D01*
X220275469Y-110675074D01*
X219998286Y-110785921D01*
X219844911Y-111096840D01*
X219755140Y-111431705D01*
X219755000Y-111433837D01*
X219755000Y-110495469D01*
X220455074Y-110495469D01*
X221500000Y-111540395D01*
X222544926Y-110495469D01*
X222434079Y-110218286D01*
X222123160Y-110064911D01*
X221788295Y-109975140D01*
X221442350Y-109952424D01*
X221098620Y-109997634D01*
X220770315Y-110109034D01*
X220565921Y-110218286D01*
X220455074Y-110495469D01*
X219755000Y-110495469D01*
X219755000Y-106820000D01*
X247887089Y-106820000D01*
X247918657Y-107140516D01*
X248012148Y-107448715D01*
X248163969Y-107732752D01*
X248368286Y-107981714D01*
X248617248Y-108186031D01*
X248901285Y-108337852D01*
X249209484Y-108431343D01*
X249449678Y-108455000D01*
X253951777Y-108455000D01*
X253954188Y-108479482D01*
X253990498Y-108599180D01*
X254049463Y-108709494D01*
X254128815Y-108806185D01*
X254225506Y-108885537D01*
X254335820Y-108944502D01*
X254455518Y-108980812D01*
X254580000Y-108993072D01*
X257480000Y-108993072D01*
X257604482Y-108980812D01*
X257724180Y-108944502D01*
X257834494Y-108885537D01*
X257931185Y-108806185D01*
X258010537Y-108709494D01*
X258069502Y-108599180D01*
X258105812Y-108479482D01*
X258118072Y-108355000D01*
X258118072Y-102905000D01*
X259741928Y-102905000D01*
X259741928Y-108355000D01*
X259754188Y-108479482D01*
X259790498Y-108599180D01*
X259849463Y-108709494D01*
X259928815Y-108806185D01*
X260025506Y-108885537D01*
X260135820Y-108944502D01*
X260255518Y-108980812D01*
X260380000Y-108993072D01*
X263280000Y-108993072D01*
X263404482Y-108980812D01*
X263524180Y-108944502D01*
X263634494Y-108885537D01*
X263708535Y-108824773D01*
X263741696Y-108991483D01*
X263823485Y-109188940D01*
X263852440Y-109232274D01*
X263840516Y-109228657D01*
X263600322Y-109205000D01*
X262185322Y-109205000D01*
X262105000Y-109197089D01*
X262024678Y-109205000D01*
X261784484Y-109228657D01*
X261476285Y-109322148D01*
X261192248Y-109473969D01*
X260943286Y-109678286D01*
X260892075Y-109740687D01*
X260800687Y-109832075D01*
X260738286Y-109883286D01*
X260533969Y-110132248D01*
X260382148Y-110416285D01*
X260288657Y-110724484D01*
X260257089Y-111045000D01*
X260265001Y-111125332D01*
X260265001Y-112437546D01*
X260205820Y-112455498D01*
X260095506Y-112514463D01*
X259998815Y-112593815D01*
X259919463Y-112690506D01*
X259860498Y-112800820D01*
X259824188Y-112920518D01*
X259811928Y-113045000D01*
X259811928Y-118495000D01*
X259824188Y-118619482D01*
X259860498Y-118739180D01*
X259919463Y-118849494D01*
X259998815Y-118946185D01*
X260095506Y-119025537D01*
X260205820Y-119084502D01*
X260325518Y-119120812D01*
X260450000Y-119133072D01*
X263350000Y-119133072D01*
X263474482Y-119120812D01*
X263594180Y-119084502D01*
X263704494Y-119025537D01*
X263801185Y-118946185D01*
X263880537Y-118849494D01*
X263926696Y-118763137D01*
X264175000Y-118763137D01*
X264175000Y-118976863D01*
X264216696Y-119186483D01*
X264298485Y-119383940D01*
X264417225Y-119561647D01*
X264568353Y-119712775D01*
X264746060Y-119831515D01*
X264943517Y-119913304D01*
X265153137Y-119955000D01*
X265366863Y-119955000D01*
X265576483Y-119913304D01*
X265773940Y-119831515D01*
X265951647Y-119712775D01*
X266102775Y-119561647D01*
X266221515Y-119383940D01*
X266303304Y-119186483D01*
X266310078Y-119152426D01*
X266456483Y-119123304D01*
X266653940Y-119041515D01*
X266831647Y-118922775D01*
X266982775Y-118771647D01*
X267101515Y-118593940D01*
X267183304Y-118396483D01*
X267225000Y-118186863D01*
X267225000Y-117973137D01*
X267183304Y-117763517D01*
X267101515Y-117566060D01*
X266982775Y-117388353D01*
X266831647Y-117237225D01*
X266653940Y-117118485D01*
X266456483Y-117036696D01*
X266246863Y-116995000D01*
X266033137Y-116995000D01*
X265823517Y-117036696D01*
X265626060Y-117118485D01*
X265448353Y-117237225D01*
X265297225Y-117388353D01*
X265178485Y-117566060D01*
X265096696Y-117763517D01*
X265089922Y-117797574D01*
X264943517Y-117826696D01*
X264746060Y-117908485D01*
X264568353Y-118027225D01*
X264417225Y-118178353D01*
X264298485Y-118356060D01*
X264216696Y-118553517D01*
X264175000Y-118763137D01*
X263926696Y-118763137D01*
X263939502Y-118739180D01*
X263975812Y-118619482D01*
X263988072Y-118495000D01*
X263988072Y-113960000D01*
X272541928Y-113960000D01*
X272541928Y-117460000D01*
X272554188Y-117584482D01*
X272590498Y-117704180D01*
X272649463Y-117814494D01*
X272728815Y-117911185D01*
X272825506Y-117990537D01*
X272935820Y-118049502D01*
X273055518Y-118085812D01*
X273180000Y-118098072D01*
X276680000Y-118098072D01*
X276804482Y-118085812D01*
X276924180Y-118049502D01*
X277034494Y-117990537D01*
X277131185Y-117911185D01*
X277210537Y-117814494D01*
X277269502Y-117704180D01*
X277305812Y-117584482D01*
X277318072Y-117460000D01*
X278791928Y-117460000D01*
X278804188Y-117584482D01*
X278840498Y-117704180D01*
X278899463Y-117814494D01*
X278978815Y-117911185D01*
X279075506Y-117990537D01*
X279185820Y-118049502D01*
X279305518Y-118085812D01*
X279430000Y-118098072D01*
X280644250Y-118095000D01*
X280803000Y-117936250D01*
X280803000Y-115837000D01*
X281057000Y-115837000D01*
X281057000Y-117936250D01*
X281215750Y-118095000D01*
X282430000Y-118098072D01*
X282554482Y-118085812D01*
X282674180Y-118049502D01*
X282784494Y-117990537D01*
X282881185Y-117911185D01*
X282960537Y-117814494D01*
X283019502Y-117704180D01*
X283055812Y-117584482D01*
X283068072Y-117460000D01*
X283065000Y-115995750D01*
X282906250Y-115837000D01*
X281057000Y-115837000D01*
X280803000Y-115837000D01*
X278953750Y-115837000D01*
X278795000Y-115995750D01*
X278791928Y-117460000D01*
X277318072Y-117460000D01*
X277318072Y-113960000D01*
X278791928Y-113960000D01*
X278795000Y-115424250D01*
X278953750Y-115583000D01*
X280803000Y-115583000D01*
X280803000Y-113483750D01*
X281057000Y-113483750D01*
X281057000Y-115583000D01*
X282906250Y-115583000D01*
X283065000Y-115424250D01*
X283068072Y-113960000D01*
X283055812Y-113835518D01*
X283019502Y-113715820D01*
X282960537Y-113605506D01*
X282881185Y-113508815D01*
X282784494Y-113429463D01*
X282674180Y-113370498D01*
X282554482Y-113334188D01*
X282430000Y-113321928D01*
X281215750Y-113325000D01*
X281057000Y-113483750D01*
X280803000Y-113483750D01*
X280644250Y-113325000D01*
X279430000Y-113321928D01*
X279305518Y-113334188D01*
X279185820Y-113370498D01*
X279075506Y-113429463D01*
X278978815Y-113508815D01*
X278899463Y-113605506D01*
X278840498Y-113715820D01*
X278804188Y-113835518D01*
X278791928Y-113960000D01*
X277318072Y-113960000D01*
X277305812Y-113835518D01*
X277269502Y-113715820D01*
X277210537Y-113605506D01*
X277131185Y-113508815D01*
X277034494Y-113429463D01*
X276957869Y-113388506D01*
X277055000Y-113398072D01*
X278805000Y-113398072D01*
X279100186Y-113368999D01*
X279384028Y-113282896D01*
X279645618Y-113143073D01*
X279874903Y-112954903D01*
X280063073Y-112725618D01*
X280202896Y-112464028D01*
X280288999Y-112180186D01*
X280318072Y-111885000D01*
X280318072Y-110135000D01*
X280288999Y-109839814D01*
X280202896Y-109555972D01*
X280063073Y-109294382D01*
X279874903Y-109065097D01*
X279645618Y-108876927D01*
X279384028Y-108737104D01*
X279100186Y-108651001D01*
X278805000Y-108621928D01*
X277055000Y-108621928D01*
X276759814Y-108651001D01*
X276475972Y-108737104D01*
X276214382Y-108876927D01*
X275985097Y-109065097D01*
X275796927Y-109294382D01*
X275657104Y-109555972D01*
X275571001Y-109839814D01*
X275541928Y-110135000D01*
X275541928Y-111885000D01*
X275571001Y-112180186D01*
X275657104Y-112464028D01*
X275796927Y-112725618D01*
X275985097Y-112954903D01*
X276214382Y-113143073D01*
X276475972Y-113282896D01*
X276604643Y-113321928D01*
X273180000Y-113321928D01*
X273055518Y-113334188D01*
X272935820Y-113370498D01*
X272825506Y-113429463D01*
X272728815Y-113508815D01*
X272649463Y-113605506D01*
X272590498Y-113715820D01*
X272554188Y-113835518D01*
X272541928Y-113960000D01*
X263988072Y-113960000D01*
X263988072Y-113045000D01*
X263975812Y-112920518D01*
X263939502Y-112800820D01*
X263880537Y-112690506D01*
X263801185Y-112593815D01*
X263704494Y-112514463D01*
X263625944Y-112472476D01*
X263840516Y-112451343D01*
X264148715Y-112357852D01*
X264432752Y-112206031D01*
X264681714Y-112001714D01*
X264886031Y-111752752D01*
X265037852Y-111468715D01*
X265131343Y-111160516D01*
X265162911Y-110840000D01*
X265131343Y-110519484D01*
X265037852Y-110211285D01*
X264886031Y-109927248D01*
X264748775Y-109760000D01*
X264891863Y-109760000D01*
X265101483Y-109718304D01*
X265298940Y-109636515D01*
X265476647Y-109517775D01*
X265627775Y-109366647D01*
X265746515Y-109188940D01*
X265828304Y-108991483D01*
X265870000Y-108781863D01*
X265870000Y-108568137D01*
X265831519Y-108374678D01*
X265848483Y-108371304D01*
X266045940Y-108289515D01*
X266223647Y-108170775D01*
X266374775Y-108019647D01*
X266493515Y-107841940D01*
X266575304Y-107644483D01*
X266617000Y-107434863D01*
X266617000Y-107221137D01*
X266575304Y-107011517D01*
X266493515Y-106814060D01*
X266374775Y-106636353D01*
X266223647Y-106485225D01*
X266045940Y-106366485D01*
X265848483Y-106284696D01*
X265638863Y-106243000D01*
X265425137Y-106243000D01*
X265215517Y-106284696D01*
X265018060Y-106366485D01*
X264840353Y-106485225D01*
X264689225Y-106636353D01*
X264570485Y-106814060D01*
X264488696Y-107011517D01*
X264447000Y-107221137D01*
X264447000Y-107434863D01*
X264485481Y-107628322D01*
X264468517Y-107631696D01*
X264271060Y-107713485D01*
X264093353Y-107832225D01*
X263942225Y-107983353D01*
X263918072Y-108019501D01*
X263918072Y-104974166D01*
X266822915Y-102069324D01*
X266976030Y-101882753D01*
X267127851Y-101598715D01*
X267221342Y-101290517D01*
X267224347Y-101260000D01*
X272541928Y-101260000D01*
X272541928Y-104760000D01*
X272554188Y-104884482D01*
X272590498Y-105004180D01*
X272649463Y-105114494D01*
X272728815Y-105211185D01*
X272825506Y-105290537D01*
X272935820Y-105349502D01*
X273055518Y-105385812D01*
X273180000Y-105398072D01*
X276680000Y-105398072D01*
X276804482Y-105385812D01*
X276924180Y-105349502D01*
X277034494Y-105290537D01*
X277131185Y-105211185D01*
X277210537Y-105114494D01*
X277269502Y-105004180D01*
X277305812Y-104884482D01*
X277318072Y-104760000D01*
X278791928Y-104760000D01*
X278804188Y-104884482D01*
X278840498Y-105004180D01*
X278899463Y-105114494D01*
X278978815Y-105211185D01*
X279075506Y-105290537D01*
X279185820Y-105349502D01*
X279305518Y-105385812D01*
X279430000Y-105398072D01*
X280644250Y-105395000D01*
X280803000Y-105236250D01*
X280803000Y-103137000D01*
X281057000Y-103137000D01*
X281057000Y-105236250D01*
X281215750Y-105395000D01*
X282430000Y-105398072D01*
X282554482Y-105385812D01*
X282674180Y-105349502D01*
X282784494Y-105290537D01*
X282881185Y-105211185D01*
X282960537Y-105114494D01*
X283019502Y-105004180D01*
X283055812Y-104884482D01*
X283068072Y-104760000D01*
X283065000Y-103295750D01*
X282906250Y-103137000D01*
X281057000Y-103137000D01*
X280803000Y-103137000D01*
X278953750Y-103137000D01*
X278795000Y-103295750D01*
X278791928Y-104760000D01*
X277318072Y-104760000D01*
X277318072Y-101260000D01*
X278791928Y-101260000D01*
X278795000Y-102724250D01*
X278953750Y-102883000D01*
X280803000Y-102883000D01*
X280803000Y-100783750D01*
X281057000Y-100783750D01*
X281057000Y-102883000D01*
X282906250Y-102883000D01*
X283065000Y-102724250D01*
X283068072Y-101260000D01*
X283055812Y-101135518D01*
X283019502Y-101015820D01*
X282960537Y-100905506D01*
X282881185Y-100808815D01*
X282784494Y-100729463D01*
X282674180Y-100670498D01*
X282554482Y-100634188D01*
X282430000Y-100621928D01*
X281215750Y-100625000D01*
X281057000Y-100783750D01*
X280803000Y-100783750D01*
X280644250Y-100625000D01*
X279430000Y-100621928D01*
X279305518Y-100634188D01*
X279185820Y-100670498D01*
X279075506Y-100729463D01*
X278978815Y-100808815D01*
X278899463Y-100905506D01*
X278840498Y-101015820D01*
X278804188Y-101135518D01*
X278791928Y-101260000D01*
X277318072Y-101260000D01*
X277305812Y-101135518D01*
X277269502Y-101015820D01*
X277210537Y-100905506D01*
X277131185Y-100808815D01*
X277034494Y-100729463D01*
X276957869Y-100688506D01*
X277055000Y-100698072D01*
X278805000Y-100698072D01*
X279100186Y-100668999D01*
X279384028Y-100582896D01*
X279645618Y-100443073D01*
X279874903Y-100254903D01*
X280063073Y-100025618D01*
X280202896Y-99764028D01*
X280288999Y-99480186D01*
X280318072Y-99185000D01*
X280318072Y-97435000D01*
X280288999Y-97139814D01*
X280202896Y-96855972D01*
X280063073Y-96594382D01*
X279874903Y-96365097D01*
X279645618Y-96176927D01*
X279384028Y-96037104D01*
X279100186Y-95951001D01*
X278805000Y-95921928D01*
X277055000Y-95921928D01*
X276759814Y-95951001D01*
X276475972Y-96037104D01*
X276214382Y-96176927D01*
X275985097Y-96365097D01*
X275796927Y-96594382D01*
X275657104Y-96855972D01*
X275571001Y-97139814D01*
X275541928Y-97435000D01*
X275541928Y-99185000D01*
X275571001Y-99480186D01*
X275657104Y-99764028D01*
X275796927Y-100025618D01*
X275985097Y-100254903D01*
X276214382Y-100443073D01*
X276475972Y-100582896D01*
X276604643Y-100621928D01*
X273180000Y-100621928D01*
X273055518Y-100634188D01*
X272935820Y-100670498D01*
X272825506Y-100729463D01*
X272728815Y-100808815D01*
X272649463Y-100905506D01*
X272590498Y-101015820D01*
X272554188Y-101135518D01*
X272541928Y-101260000D01*
X267224347Y-101260000D01*
X267252911Y-100970001D01*
X267221342Y-100649484D01*
X267127851Y-100341286D01*
X266976030Y-100057248D01*
X266771713Y-99808287D01*
X266522752Y-99603970D01*
X266238714Y-99452149D01*
X265930516Y-99358658D01*
X265609999Y-99327089D01*
X265289483Y-99358658D01*
X264981285Y-99452149D01*
X264697247Y-99603970D01*
X264510676Y-99757085D01*
X262000834Y-102266928D01*
X260380000Y-102266928D01*
X260255518Y-102279188D01*
X260135820Y-102315498D01*
X260025506Y-102374463D01*
X259928815Y-102453815D01*
X259849463Y-102550506D01*
X259790498Y-102660820D01*
X259754188Y-102780518D01*
X259741928Y-102905000D01*
X258118072Y-102905000D01*
X258105812Y-102780518D01*
X258069502Y-102660820D01*
X258010537Y-102550506D01*
X257931185Y-102453815D01*
X257834494Y-102374463D01*
X257724180Y-102315498D01*
X257604482Y-102279188D01*
X257480000Y-102266928D01*
X257373834Y-102266928D01*
X257452304Y-102077483D01*
X257494000Y-101867863D01*
X257494000Y-101654137D01*
X257452304Y-101444517D01*
X257370515Y-101247060D01*
X257251775Y-101069353D01*
X257100647Y-100918225D01*
X256922940Y-100799485D01*
X256725483Y-100717696D01*
X256515863Y-100676000D01*
X256302137Y-100676000D01*
X256092517Y-100717696D01*
X255895060Y-100799485D01*
X255717353Y-100918225D01*
X255566225Y-101069353D01*
X255447485Y-101247060D01*
X255365696Y-101444517D01*
X255324000Y-101654137D01*
X255324000Y-101867863D01*
X255365696Y-102077483D01*
X255444166Y-102266928D01*
X254580000Y-102266928D01*
X254455518Y-102279188D01*
X254335820Y-102315498D01*
X254225506Y-102374463D01*
X254128815Y-102453815D01*
X254049463Y-102550506D01*
X253990498Y-102660820D01*
X253954188Y-102780518D01*
X253941928Y-102905000D01*
X253941928Y-105185000D01*
X253552655Y-105185000D01*
X253558072Y-105130000D01*
X253558072Y-103430000D01*
X253545812Y-103305518D01*
X253509502Y-103185820D01*
X253450537Y-103075506D01*
X253371185Y-102978815D01*
X253274494Y-102899463D01*
X253164180Y-102840498D01*
X253044482Y-102804188D01*
X252920000Y-102791928D01*
X251220000Y-102791928D01*
X251095518Y-102804188D01*
X250975820Y-102840498D01*
X250865506Y-102899463D01*
X250800000Y-102953222D01*
X250734494Y-102899463D01*
X250624180Y-102840498D01*
X250504482Y-102804188D01*
X250380000Y-102791928D01*
X248680000Y-102791928D01*
X248555518Y-102804188D01*
X248435820Y-102840498D01*
X248325506Y-102899463D01*
X248228815Y-102978815D01*
X248149463Y-103075506D01*
X248090498Y-103185820D01*
X248054188Y-103305518D01*
X248041928Y-103430000D01*
X248041928Y-105130000D01*
X248054188Y-105254482D01*
X248090498Y-105374180D01*
X248149463Y-105484494D01*
X248228815Y-105581185D01*
X248325506Y-105660537D01*
X248353958Y-105675745D01*
X248163969Y-105907248D01*
X248012148Y-106191285D01*
X247918657Y-106499484D01*
X247887089Y-106820000D01*
X219755000Y-106820000D01*
X219755000Y-104530319D01*
X219762911Y-104450000D01*
X219751718Y-104336356D01*
X219750918Y-104328234D01*
X219807636Y-104613373D01*
X219940308Y-104933673D01*
X220132919Y-105221935D01*
X220378065Y-105467081D01*
X220666327Y-105659692D01*
X220986627Y-105792364D01*
X221326655Y-105860000D01*
X221673345Y-105860000D01*
X222013373Y-105792364D01*
X222333673Y-105659692D01*
X222621935Y-105467081D01*
X222764485Y-105324531D01*
X240775074Y-105324531D01*
X240885921Y-105601714D01*
X241196840Y-105755089D01*
X241531705Y-105844860D01*
X241877650Y-105867576D01*
X242221380Y-105822366D01*
X242549685Y-105710966D01*
X242754079Y-105601714D01*
X242864926Y-105324531D01*
X241820000Y-104279605D01*
X240775074Y-105324531D01*
X222764485Y-105324531D01*
X222867081Y-105221935D01*
X223059692Y-104933673D01*
X223192364Y-104613373D01*
X223260000Y-104273345D01*
X223260000Y-104157650D01*
X240052424Y-104157650D01*
X240097634Y-104501380D01*
X240209034Y-104829685D01*
X240318286Y-105034079D01*
X240595469Y-105144926D01*
X241640395Y-104100000D01*
X241999605Y-104100000D01*
X243044531Y-105144926D01*
X243321714Y-105034079D01*
X243475089Y-104723160D01*
X243564860Y-104388295D01*
X243587576Y-104042350D01*
X243542366Y-103698620D01*
X243430966Y-103370315D01*
X243321714Y-103165921D01*
X243044531Y-103055074D01*
X241999605Y-104100000D01*
X241640395Y-104100000D01*
X240595469Y-103055074D01*
X240318286Y-103165921D01*
X240164911Y-103476840D01*
X240075140Y-103811705D01*
X240052424Y-104157650D01*
X223260000Y-104157650D01*
X223260000Y-103926655D01*
X223192364Y-103586627D01*
X223059692Y-103266327D01*
X222867081Y-102978065D01*
X222621935Y-102732919D01*
X222333673Y-102540308D01*
X222013373Y-102407636D01*
X221673345Y-102340000D01*
X221326655Y-102340000D01*
X220986627Y-102407636D01*
X220666327Y-102540308D01*
X220378065Y-102732919D01*
X220132919Y-102978065D01*
X219940308Y-103266327D01*
X219807636Y-103586627D01*
X219740000Y-103926655D01*
X219740000Y-104217380D01*
X219731343Y-104129484D01*
X219637852Y-103821285D01*
X219486031Y-103537248D01*
X219281714Y-103288286D01*
X219219314Y-103237076D01*
X218898765Y-102916527D01*
X218847554Y-102854126D01*
X218598592Y-102649809D01*
X218314555Y-102497988D01*
X218006356Y-102404497D01*
X217766162Y-102380840D01*
X217766159Y-102380840D01*
X217685840Y-102372929D01*
X217605521Y-102380840D01*
X210203080Y-102380840D01*
X208622925Y-100800687D01*
X208622916Y-100800676D01*
X207966999Y-100144760D01*
X207966999Y-99926072D01*
X209232000Y-99926072D01*
X209356482Y-99913812D01*
X209476180Y-99877502D01*
X209586494Y-99818537D01*
X209683185Y-99739185D01*
X209762537Y-99642494D01*
X209821502Y-99532180D01*
X209843513Y-99459620D01*
X209975368Y-99591475D01*
X210218589Y-99753990D01*
X210488842Y-99865932D01*
X210775740Y-99923000D01*
X211068260Y-99923000D01*
X211355158Y-99865932D01*
X211625411Y-99753990D01*
X211868632Y-99591475D01*
X212075475Y-99384632D01*
X212192000Y-99210240D01*
X212308525Y-99384632D01*
X212515368Y-99591475D01*
X212758589Y-99753990D01*
X213028842Y-99865932D01*
X213315740Y-99923000D01*
X213608260Y-99923000D01*
X213895158Y-99865932D01*
X214165411Y-99753990D01*
X214408632Y-99591475D01*
X214615475Y-99384632D01*
X214732000Y-99210240D01*
X214848525Y-99384632D01*
X215055368Y-99591475D01*
X215298589Y-99753990D01*
X215568842Y-99865932D01*
X215855740Y-99923000D01*
X216148260Y-99923000D01*
X216435158Y-99865932D01*
X216705411Y-99753990D01*
X216948632Y-99591475D01*
X217155475Y-99384632D01*
X217277195Y-99202466D01*
X217346822Y-99319355D01*
X217541731Y-99535588D01*
X217775080Y-99709641D01*
X218037901Y-99834825D01*
X218185110Y-99879476D01*
X218415000Y-99758155D01*
X218415000Y-98565000D01*
X218395000Y-98565000D01*
X218395000Y-98311000D01*
X218415000Y-98311000D01*
X218415000Y-98291000D01*
X218669000Y-98291000D01*
X218669000Y-98311000D01*
X218689000Y-98311000D01*
X218689000Y-98565000D01*
X218669000Y-98565000D01*
X218669000Y-99758155D01*
X218898890Y-99879476D01*
X219046099Y-99834825D01*
X219308920Y-99709641D01*
X219542269Y-99535588D01*
X219737178Y-99319355D01*
X219806805Y-99202466D01*
X219928525Y-99384632D01*
X220135368Y-99591475D01*
X220378589Y-99753990D01*
X220648842Y-99865932D01*
X220935740Y-99923000D01*
X221228260Y-99923000D01*
X221515158Y-99865932D01*
X221785411Y-99753990D01*
X222028632Y-99591475D01*
X222235475Y-99384632D01*
X222352000Y-99210240D01*
X222468525Y-99384632D01*
X222675368Y-99591475D01*
X222918589Y-99753990D01*
X223188842Y-99865932D01*
X223475740Y-99923000D01*
X223768260Y-99923000D01*
X224055158Y-99865932D01*
X224325411Y-99753990D01*
X224568632Y-99591475D01*
X224775475Y-99384632D01*
X224892000Y-99210240D01*
X225008525Y-99384632D01*
X225215368Y-99591475D01*
X225458589Y-99753990D01*
X225728842Y-99865932D01*
X226015740Y-99923000D01*
X226308260Y-99923000D01*
X226595158Y-99865932D01*
X226865411Y-99753990D01*
X227108632Y-99591475D01*
X227315475Y-99384632D01*
X227432000Y-99210240D01*
X227548525Y-99384632D01*
X227755368Y-99591475D01*
X227998589Y-99753990D01*
X228268842Y-99865932D01*
X228555740Y-99923000D01*
X228848260Y-99923000D01*
X229060827Y-99880717D01*
X229010485Y-99956060D01*
X228928696Y-100153517D01*
X228887000Y-100363137D01*
X228887000Y-100576863D01*
X228928696Y-100786483D01*
X229010485Y-100983940D01*
X229129225Y-101161647D01*
X229237000Y-101269422D01*
X229237001Y-102210577D01*
X229129225Y-102318353D01*
X229010485Y-102496060D01*
X228928696Y-102693517D01*
X228887000Y-102903137D01*
X228887000Y-103116863D01*
X228928696Y-103326483D01*
X229010485Y-103523940D01*
X229129225Y-103701647D01*
X229280353Y-103852775D01*
X229458060Y-103971515D01*
X229655517Y-104053304D01*
X229865137Y-104095000D01*
X230078863Y-104095000D01*
X230288483Y-104053304D01*
X230485940Y-103971515D01*
X230663647Y-103852775D01*
X230814775Y-103701647D01*
X230933515Y-103523940D01*
X231015304Y-103326483D01*
X231057000Y-103116863D01*
X231057000Y-102903137D01*
X231051497Y-102875469D01*
X240775074Y-102875469D01*
X241820000Y-103920395D01*
X242864926Y-102875469D01*
X242754079Y-102598286D01*
X242443160Y-102444911D01*
X242108295Y-102355140D01*
X241762350Y-102332424D01*
X241418620Y-102377634D01*
X241090315Y-102489034D01*
X240885921Y-102598286D01*
X240775074Y-102875469D01*
X231051497Y-102875469D01*
X231015304Y-102693517D01*
X230933515Y-102496060D01*
X230814775Y-102318353D01*
X230707000Y-102210578D01*
X230707000Y-101269422D01*
X230814775Y-101161647D01*
X230933515Y-100983940D01*
X231015304Y-100786483D01*
X231057000Y-100576863D01*
X231057000Y-100363137D01*
X231015304Y-100153517D01*
X230933515Y-99956060D01*
X230883173Y-99880717D01*
X231095740Y-99923000D01*
X231388260Y-99923000D01*
X231675158Y-99865932D01*
X231945411Y-99753990D01*
X232188632Y-99591475D01*
X232395475Y-99384632D01*
X232512000Y-99210240D01*
X232628525Y-99384632D01*
X232835368Y-99591475D01*
X233078589Y-99753990D01*
X233348842Y-99865932D01*
X233635740Y-99923000D01*
X233928260Y-99923000D01*
X234215158Y-99865932D01*
X234485411Y-99753990D01*
X234728632Y-99591475D01*
X234935475Y-99384632D01*
X235052000Y-99210240D01*
X235168525Y-99384632D01*
X235375368Y-99591475D01*
X235618589Y-99753990D01*
X235888842Y-99865932D01*
X236175740Y-99923000D01*
X236468260Y-99923000D01*
X236755158Y-99865932D01*
X237025411Y-99753990D01*
X237268632Y-99591475D01*
X237475475Y-99384632D01*
X237597195Y-99202466D01*
X237666822Y-99319355D01*
X237861731Y-99535588D01*
X238095080Y-99709641D01*
X238357901Y-99834825D01*
X238505110Y-99879476D01*
X238735000Y-99758155D01*
X238735000Y-98565000D01*
X238715000Y-98565000D01*
X238715000Y-98311000D01*
X238735000Y-98311000D01*
X238735000Y-98291000D01*
X238989000Y-98291000D01*
X238989000Y-98311000D01*
X239009000Y-98311000D01*
X239009000Y-98565000D01*
X238989000Y-98565000D01*
X238989000Y-99758155D01*
X239218890Y-99879476D01*
X239366099Y-99834825D01*
X239628920Y-99709641D01*
X239862269Y-99535588D01*
X240057178Y-99319355D01*
X240126805Y-99202466D01*
X240248525Y-99384632D01*
X240455368Y-99591475D01*
X240698589Y-99753990D01*
X240968842Y-99865932D01*
X241255740Y-99923000D01*
X241548260Y-99923000D01*
X241835158Y-99865932D01*
X242105411Y-99753990D01*
X242348632Y-99591475D01*
X242555475Y-99384632D01*
X242672000Y-99210240D01*
X242788525Y-99384632D01*
X242995368Y-99591475D01*
X243238589Y-99753990D01*
X243508842Y-99865932D01*
X243795740Y-99923000D01*
X244088260Y-99923000D01*
X244375158Y-99865932D01*
X244645411Y-99753990D01*
X244888632Y-99591475D01*
X245095475Y-99384632D01*
X245212000Y-99210240D01*
X245328525Y-99384632D01*
X245535368Y-99591475D01*
X245778589Y-99753990D01*
X246048842Y-99865932D01*
X246335740Y-99923000D01*
X246628260Y-99923000D01*
X246915158Y-99865932D01*
X247185411Y-99753990D01*
X247428632Y-99591475D01*
X247635475Y-99384632D01*
X247752000Y-99210240D01*
X247868525Y-99384632D01*
X248075368Y-99591475D01*
X248318589Y-99753990D01*
X248588842Y-99865932D01*
X248875740Y-99923000D01*
X249168260Y-99923000D01*
X249455158Y-99865932D01*
X249725411Y-99753990D01*
X249968632Y-99591475D01*
X250175475Y-99384632D01*
X250292000Y-99210240D01*
X250408525Y-99384632D01*
X250615368Y-99591475D01*
X250858589Y-99753990D01*
X251128842Y-99865932D01*
X251415740Y-99923000D01*
X251708260Y-99923000D01*
X251995158Y-99865932D01*
X252265411Y-99753990D01*
X252508632Y-99591475D01*
X252715475Y-99384632D01*
X252832000Y-99210240D01*
X252948525Y-99384632D01*
X253155368Y-99591475D01*
X253398589Y-99753990D01*
X253668842Y-99865932D01*
X253955740Y-99923000D01*
X254248260Y-99923000D01*
X254535158Y-99865932D01*
X254805411Y-99753990D01*
X255048632Y-99591475D01*
X255255475Y-99384632D01*
X255377195Y-99202466D01*
X255446822Y-99319355D01*
X255641731Y-99535588D01*
X255875080Y-99709641D01*
X256137901Y-99834825D01*
X256285110Y-99879476D01*
X256515000Y-99758155D01*
X256515000Y-98565000D01*
X256769000Y-98565000D01*
X256769000Y-99758155D01*
X256998890Y-99879476D01*
X257146099Y-99834825D01*
X257408920Y-99709641D01*
X257642269Y-99535588D01*
X257837178Y-99319355D01*
X257986157Y-99069252D01*
X258083481Y-98794891D01*
X257962814Y-98565000D01*
X256769000Y-98565000D01*
X256515000Y-98565000D01*
X256495000Y-98565000D01*
X256495000Y-98311000D01*
X256515000Y-98311000D01*
X256515000Y-98291000D01*
X256769000Y-98291000D01*
X256769000Y-98311000D01*
X257962814Y-98311000D01*
X258083481Y-98081109D01*
X257986157Y-97806748D01*
X257837178Y-97556645D01*
X257642269Y-97340412D01*
X257412594Y-97169100D01*
X257588632Y-97051475D01*
X257795475Y-96844632D01*
X257957990Y-96601411D01*
X258069932Y-96331158D01*
X258127000Y-96044260D01*
X258127000Y-95751740D01*
X258069932Y-95464842D01*
X257957990Y-95194589D01*
X257795475Y-94951368D01*
X257588632Y-94744525D01*
X257345411Y-94582010D01*
X257075158Y-94470068D01*
X256856129Y-94426500D01*
X259852389Y-94426500D01*
X259452907Y-94693425D01*
X259003425Y-95142907D01*
X258650270Y-95671442D01*
X258407012Y-96258719D01*
X258283000Y-96882168D01*
X258283000Y-97517832D01*
X258407012Y-98141281D01*
X258650270Y-98728558D01*
X259003425Y-99257093D01*
X259452907Y-99706575D01*
X259981442Y-100059730D01*
X260568719Y-100302988D01*
X261192168Y-100427000D01*
X261827832Y-100427000D01*
X262451281Y-100302988D01*
X263038558Y-100059730D01*
X263567093Y-99706575D01*
X264016575Y-99257093D01*
X264369730Y-98728558D01*
X264612988Y-98141281D01*
X264737000Y-97517832D01*
X264737000Y-96882168D01*
X264612988Y-96258719D01*
X264369730Y-95671442D01*
X264016575Y-95142907D01*
X263567093Y-94693425D01*
X263167611Y-94426500D01*
X281974155Y-94426500D01*
X282449355Y-94473093D01*
X282871881Y-94600661D01*
X283261581Y-94807868D01*
X283603611Y-95086820D01*
X283884948Y-95426898D01*
X284094870Y-95815139D01*
X284225385Y-96236768D01*
X284275101Y-96709772D01*
X284275100Y-146655546D01*
X284228506Y-147130756D01*
X284100937Y-147553282D01*
X283893731Y-147942980D01*
X283614776Y-148285014D01*
X283274704Y-148566347D01*
X282886456Y-148776272D01*
X282464836Y-148906784D01*
X281991837Y-148956500D01*
X262479700Y-148956500D01*
X262896455Y-148783874D01*
X263375854Y-148463550D01*
X263783550Y-148055854D01*
X264103874Y-147576455D01*
X264324518Y-147043775D01*
X264437000Y-146478284D01*
X264437000Y-145901716D01*
X264324518Y-145336225D01*
X264103874Y-144803545D01*
X263783550Y-144324146D01*
X263764541Y-144305137D01*
X265147000Y-144305137D01*
X265147000Y-144518863D01*
X265188696Y-144728483D01*
X265270485Y-144925940D01*
X265389225Y-145103647D01*
X265540353Y-145254775D01*
X265718060Y-145373515D01*
X265915517Y-145455304D01*
X266125137Y-145497000D01*
X266338863Y-145497000D01*
X266548483Y-145455304D01*
X266745940Y-145373515D01*
X266923647Y-145254775D01*
X267074775Y-145103647D01*
X267193515Y-144925940D01*
X267275304Y-144728483D01*
X267317000Y-144518863D01*
X267317000Y-144305137D01*
X267293156Y-144185266D01*
X267390775Y-144087647D01*
X267509515Y-143909940D01*
X267591304Y-143712483D01*
X267633000Y-143502863D01*
X267633000Y-143289137D01*
X267591304Y-143079517D01*
X267509515Y-142882060D01*
X267390775Y-142704353D01*
X267239647Y-142553225D01*
X267061940Y-142434485D01*
X266864483Y-142352696D01*
X266654863Y-142311000D01*
X266441137Y-142311000D01*
X266231517Y-142352696D01*
X266034060Y-142434485D01*
X265856353Y-142553225D01*
X265705225Y-142704353D01*
X265586485Y-142882060D01*
X265504696Y-143079517D01*
X265463000Y-143289137D01*
X265463000Y-143502863D01*
X265486844Y-143622734D01*
X265389225Y-143720353D01*
X265270485Y-143898060D01*
X265188696Y-144095517D01*
X265147000Y-144305137D01*
X263764541Y-144305137D01*
X263375854Y-143916450D01*
X262896455Y-143596126D01*
X262363775Y-143375482D01*
X261798284Y-143263000D01*
X261221716Y-143263000D01*
X260656225Y-143375482D01*
X260123545Y-143596126D01*
X259644146Y-143916450D01*
X259236450Y-144324146D01*
X258916126Y-144803545D01*
X258695482Y-145336225D01*
X258583000Y-145901716D01*
X258583000Y-146478284D01*
X258695482Y-147043775D01*
X258916126Y-147576455D01*
X259236450Y-148055854D01*
X259644146Y-148463550D01*
X260123545Y-148783874D01*
X260540300Y-148956500D01*
X205193053Y-148956500D01*
X205567093Y-148706575D01*
X206016575Y-148257093D01*
X206319193Y-147804191D01*
X208723599Y-147804191D01*
X208820923Y-148078552D01*
X208969902Y-148328655D01*
X209164811Y-148544888D01*
X209398160Y-148718941D01*
X209660981Y-148844125D01*
X209808190Y-148888776D01*
X210038080Y-148767455D01*
X210038080Y-147574300D01*
X208844266Y-147574300D01*
X208723599Y-147804191D01*
X206319193Y-147804191D01*
X206369730Y-147728558D01*
X206612988Y-147141281D01*
X206737000Y-146517832D01*
X206737000Y-145882168D01*
X206612988Y-145258719D01*
X206369730Y-144671442D01*
X206016575Y-144142907D01*
X205930968Y-144057300D01*
X208677008Y-144057300D01*
X208677008Y-145757300D01*
X208689268Y-145881782D01*
X208725578Y-146001480D01*
X208784543Y-146111794D01*
X208863895Y-146208485D01*
X208960586Y-146287837D01*
X209070900Y-146346802D01*
X209146706Y-146369798D01*
X208969902Y-146565945D01*
X208820923Y-146816048D01*
X208723599Y-147090409D01*
X208844266Y-147320300D01*
X210038080Y-147320300D01*
X210038080Y-147300300D01*
X210292080Y-147300300D01*
X210292080Y-147320300D01*
X210312080Y-147320300D01*
X210312080Y-147574300D01*
X210292080Y-147574300D01*
X210292080Y-148767455D01*
X210521970Y-148888776D01*
X210669179Y-148844125D01*
X210932000Y-148718941D01*
X211165349Y-148544888D01*
X211360258Y-148328655D01*
X211429885Y-148211766D01*
X211551605Y-148393932D01*
X211758448Y-148600775D01*
X212001669Y-148763290D01*
X212271922Y-148875232D01*
X212558820Y-148932300D01*
X212851340Y-148932300D01*
X213138238Y-148875232D01*
X213408491Y-148763290D01*
X213651712Y-148600775D01*
X213858555Y-148393932D01*
X213980275Y-148211766D01*
X214049902Y-148328655D01*
X214244811Y-148544888D01*
X214478160Y-148718941D01*
X214740981Y-148844125D01*
X214888190Y-148888776D01*
X215118080Y-148767455D01*
X215118080Y-147574300D01*
X215098080Y-147574300D01*
X215098080Y-147320300D01*
X215118080Y-147320300D01*
X215118080Y-147300300D01*
X215372080Y-147300300D01*
X215372080Y-147320300D01*
X215392080Y-147320300D01*
X215392080Y-147574300D01*
X215372080Y-147574300D01*
X215372080Y-148767455D01*
X215601970Y-148888776D01*
X215749179Y-148844125D01*
X216012000Y-148718941D01*
X216245349Y-148544888D01*
X216440258Y-148328655D01*
X216509885Y-148211766D01*
X216631605Y-148393932D01*
X216838448Y-148600775D01*
X217081669Y-148763290D01*
X217351922Y-148875232D01*
X217638820Y-148932300D01*
X217931340Y-148932300D01*
X218218238Y-148875232D01*
X218488491Y-148763290D01*
X218731712Y-148600775D01*
X218938555Y-148393932D01*
X219101070Y-148150711D01*
X219213012Y-147880458D01*
X219270080Y-147593560D01*
X219270080Y-147301040D01*
X219213012Y-147014142D01*
X219101070Y-146743889D01*
X218938555Y-146500668D01*
X218731712Y-146293825D01*
X218555674Y-146176200D01*
X218785349Y-146004888D01*
X218980258Y-145788655D01*
X219129237Y-145538552D01*
X219226561Y-145264191D01*
X219105894Y-145034300D01*
X217912080Y-145034300D01*
X217912080Y-145054300D01*
X217658080Y-145054300D01*
X217658080Y-145034300D01*
X217638080Y-145034300D01*
X217638080Y-144780300D01*
X217658080Y-144780300D01*
X217658080Y-143587145D01*
X217912080Y-143587145D01*
X217912080Y-144780300D01*
X219105894Y-144780300D01*
X219226561Y-144550409D01*
X219129237Y-144276048D01*
X218980258Y-144025945D01*
X218785349Y-143809712D01*
X218552000Y-143635659D01*
X218289179Y-143510475D01*
X218141970Y-143465824D01*
X217912080Y-143587145D01*
X217658080Y-143587145D01*
X217428190Y-143465824D01*
X217280981Y-143510475D01*
X217018160Y-143635659D01*
X216784811Y-143809712D01*
X216589902Y-144025945D01*
X216520275Y-144142834D01*
X216398555Y-143960668D01*
X216191712Y-143753825D01*
X215948491Y-143591310D01*
X215678238Y-143479368D01*
X215391340Y-143422300D01*
X215098820Y-143422300D01*
X214811922Y-143479368D01*
X214541669Y-143591310D01*
X214298448Y-143753825D01*
X214091605Y-143960668D01*
X213969885Y-144142834D01*
X213900258Y-144025945D01*
X213705349Y-143809712D01*
X213472000Y-143635659D01*
X213209179Y-143510475D01*
X213061970Y-143465824D01*
X212832080Y-143587145D01*
X212832080Y-144780300D01*
X212852080Y-144780300D01*
X212852080Y-145034300D01*
X212832080Y-145034300D01*
X212832080Y-145054300D01*
X212578080Y-145054300D01*
X212578080Y-145034300D01*
X212558080Y-145034300D01*
X212558080Y-144780300D01*
X212578080Y-144780300D01*
X212578080Y-143587145D01*
X212348190Y-143465824D01*
X212200981Y-143510475D01*
X211938160Y-143635659D01*
X211704811Y-143809712D01*
X211629046Y-143893766D01*
X211604582Y-143813120D01*
X211545617Y-143702806D01*
X211466265Y-143606115D01*
X211369574Y-143526763D01*
X211259260Y-143467798D01*
X211139562Y-143431488D01*
X211015080Y-143419228D01*
X209315080Y-143419228D01*
X209190598Y-143431488D01*
X209070900Y-143467798D01*
X208960586Y-143526763D01*
X208863895Y-143606115D01*
X208784543Y-143702806D01*
X208725578Y-143813120D01*
X208689268Y-143932818D01*
X208677008Y-144057300D01*
X205930968Y-144057300D01*
X205567093Y-143693425D01*
X205038558Y-143340270D01*
X204451281Y-143097012D01*
X203827832Y-142973000D01*
X203192168Y-142973000D01*
X202568719Y-143097012D01*
X201981442Y-143340270D01*
X201452907Y-143693425D01*
X201003425Y-144142907D01*
X200745100Y-144529519D01*
X200745100Y-141603137D01*
X237645000Y-141603137D01*
X237645000Y-141816863D01*
X237686696Y-142026483D01*
X237768485Y-142223940D01*
X237887225Y-142401647D01*
X238038353Y-142552775D01*
X238216060Y-142671515D01*
X238299829Y-142706213D01*
X238246060Y-142728485D01*
X238068353Y-142847225D01*
X237917225Y-142998353D01*
X237798485Y-143176060D01*
X237716696Y-143373517D01*
X237675000Y-143583137D01*
X237675000Y-143796863D01*
X237716696Y-144006483D01*
X237798485Y-144203940D01*
X237917225Y-144381647D01*
X238050578Y-144515000D01*
X237917225Y-144648353D01*
X237798485Y-144826060D01*
X237716696Y-145023517D01*
X237675000Y-145233137D01*
X237675000Y-145446863D01*
X237716696Y-145656483D01*
X237798485Y-145853940D01*
X237917225Y-146031647D01*
X238068353Y-146182775D01*
X238246060Y-146301515D01*
X238443517Y-146383304D01*
X238653137Y-146425000D01*
X238866863Y-146425000D01*
X239076483Y-146383304D01*
X239273940Y-146301515D01*
X239451647Y-146182775D01*
X239602775Y-146031647D01*
X239721515Y-145853940D01*
X239755000Y-145773100D01*
X239788485Y-145853940D01*
X239907225Y-146031647D01*
X240058353Y-146182775D01*
X240236060Y-146301515D01*
X240433517Y-146383304D01*
X240643137Y-146425000D01*
X240856863Y-146425000D01*
X241066483Y-146383304D01*
X241263940Y-146301515D01*
X241441647Y-146182775D01*
X241592775Y-146031647D01*
X241711515Y-145853940D01*
X241763787Y-145727744D01*
X241828485Y-145883940D01*
X241947225Y-146061647D01*
X242098353Y-146212775D01*
X242276060Y-146331515D01*
X242473517Y-146413304D01*
X242683137Y-146455000D01*
X242896863Y-146455000D01*
X243106483Y-146413304D01*
X243303940Y-146331515D01*
X243481647Y-146212775D01*
X243632775Y-146061647D01*
X243751515Y-145883940D01*
X243833304Y-145686483D01*
X243875000Y-145476863D01*
X243875000Y-145263137D01*
X243833304Y-145053517D01*
X243751515Y-144856060D01*
X243632775Y-144678353D01*
X243481647Y-144527225D01*
X243425936Y-144490000D01*
X243481647Y-144452775D01*
X243632775Y-144301647D01*
X243751515Y-144123940D01*
X243833304Y-143926483D01*
X243875000Y-143716863D01*
X243875000Y-143503137D01*
X243833304Y-143293517D01*
X243751515Y-143096060D01*
X243632775Y-142918353D01*
X243481647Y-142767225D01*
X243336139Y-142670000D01*
X243481647Y-142572775D01*
X243632775Y-142421647D01*
X243751515Y-142243940D01*
X243833304Y-142046483D01*
X243875000Y-141836863D01*
X243875000Y-141623137D01*
X243833304Y-141413517D01*
X243751515Y-141216060D01*
X243680648Y-141110000D01*
X247887089Y-141110000D01*
X247918657Y-141430516D01*
X248012148Y-141738715D01*
X248163969Y-142022752D01*
X248368286Y-142271714D01*
X248617248Y-142476031D01*
X248901285Y-142627852D01*
X249209484Y-142721343D01*
X249449678Y-142745000D01*
X254079681Y-142745000D01*
X254160000Y-142752911D01*
X254240319Y-142745000D01*
X254240322Y-142745000D01*
X254480516Y-142721343D01*
X254788715Y-142627852D01*
X254835075Y-142603072D01*
X257480000Y-142603072D01*
X257604482Y-142590812D01*
X257724180Y-142554502D01*
X257834494Y-142495537D01*
X257931185Y-142416185D01*
X258010537Y-142319494D01*
X258069502Y-142209180D01*
X258105812Y-142089482D01*
X258118072Y-141965000D01*
X258118072Y-136515000D01*
X259741928Y-136515000D01*
X259741928Y-141965000D01*
X259754188Y-142089482D01*
X259790498Y-142209180D01*
X259849463Y-142319494D01*
X259928815Y-142416185D01*
X260025506Y-142495537D01*
X260135820Y-142554502D01*
X260255518Y-142590812D01*
X260380000Y-142603072D01*
X263280000Y-142603072D01*
X263404482Y-142590812D01*
X263524180Y-142554502D01*
X263634494Y-142495537D01*
X263731185Y-142416185D01*
X263810537Y-142319494D01*
X263869502Y-142209180D01*
X263905812Y-142089482D01*
X263918072Y-141965000D01*
X263918072Y-139360000D01*
X272541928Y-139360000D01*
X272541928Y-142860000D01*
X272554188Y-142984482D01*
X272590498Y-143104180D01*
X272649463Y-143214494D01*
X272728815Y-143311185D01*
X272825506Y-143390537D01*
X272935820Y-143449502D01*
X273055518Y-143485812D01*
X273180000Y-143498072D01*
X276680000Y-143498072D01*
X276804482Y-143485812D01*
X276924180Y-143449502D01*
X277034494Y-143390537D01*
X277131185Y-143311185D01*
X277210537Y-143214494D01*
X277269502Y-143104180D01*
X277305812Y-142984482D01*
X277318072Y-142860000D01*
X278791928Y-142860000D01*
X278804188Y-142984482D01*
X278840498Y-143104180D01*
X278899463Y-143214494D01*
X278978815Y-143311185D01*
X279075506Y-143390537D01*
X279185820Y-143449502D01*
X279305518Y-143485812D01*
X279430000Y-143498072D01*
X280644250Y-143495000D01*
X280803000Y-143336250D01*
X280803000Y-141237000D01*
X281057000Y-141237000D01*
X281057000Y-143336250D01*
X281215750Y-143495000D01*
X282430000Y-143498072D01*
X282554482Y-143485812D01*
X282674180Y-143449502D01*
X282784494Y-143390537D01*
X282881185Y-143311185D01*
X282960537Y-143214494D01*
X283019502Y-143104180D01*
X283055812Y-142984482D01*
X283068072Y-142860000D01*
X283065000Y-141395750D01*
X282906250Y-141237000D01*
X281057000Y-141237000D01*
X280803000Y-141237000D01*
X278953750Y-141237000D01*
X278795000Y-141395750D01*
X278791928Y-142860000D01*
X277318072Y-142860000D01*
X277318072Y-139360000D01*
X278791928Y-139360000D01*
X278795000Y-140824250D01*
X278953750Y-140983000D01*
X280803000Y-140983000D01*
X280803000Y-138883750D01*
X281057000Y-138883750D01*
X281057000Y-140983000D01*
X282906250Y-140983000D01*
X283065000Y-140824250D01*
X283068072Y-139360000D01*
X283055812Y-139235518D01*
X283019502Y-139115820D01*
X282960537Y-139005506D01*
X282881185Y-138908815D01*
X282784494Y-138829463D01*
X282674180Y-138770498D01*
X282554482Y-138734188D01*
X282430000Y-138721928D01*
X281215750Y-138725000D01*
X281057000Y-138883750D01*
X280803000Y-138883750D01*
X280644250Y-138725000D01*
X279430000Y-138721928D01*
X279305518Y-138734188D01*
X279185820Y-138770498D01*
X279075506Y-138829463D01*
X278978815Y-138908815D01*
X278899463Y-139005506D01*
X278840498Y-139115820D01*
X278804188Y-139235518D01*
X278791928Y-139360000D01*
X277318072Y-139360000D01*
X277305812Y-139235518D01*
X277269502Y-139115820D01*
X277210537Y-139005506D01*
X277131185Y-138908815D01*
X277034494Y-138829463D01*
X276957869Y-138788506D01*
X277055000Y-138798072D01*
X278805000Y-138798072D01*
X279100186Y-138768999D01*
X279384028Y-138682896D01*
X279645618Y-138543073D01*
X279874903Y-138354903D01*
X280063073Y-138125618D01*
X280202896Y-137864028D01*
X280288999Y-137580186D01*
X280318072Y-137285000D01*
X280318072Y-135535000D01*
X280288999Y-135239814D01*
X280202896Y-134955972D01*
X280063073Y-134694382D01*
X279874903Y-134465097D01*
X279645618Y-134276927D01*
X279384028Y-134137104D01*
X279100186Y-134051001D01*
X278805000Y-134021928D01*
X277055000Y-134021928D01*
X276759814Y-134051001D01*
X276475972Y-134137104D01*
X276214382Y-134276927D01*
X275985097Y-134465097D01*
X275796927Y-134694382D01*
X275657104Y-134955972D01*
X275571001Y-135239814D01*
X275541928Y-135535000D01*
X275541928Y-137285000D01*
X275571001Y-137580186D01*
X275657104Y-137864028D01*
X275796927Y-138125618D01*
X275985097Y-138354903D01*
X276214382Y-138543073D01*
X276475972Y-138682896D01*
X276604643Y-138721928D01*
X273180000Y-138721928D01*
X273055518Y-138734188D01*
X272935820Y-138770498D01*
X272825506Y-138829463D01*
X272728815Y-138908815D01*
X272649463Y-139005506D01*
X272590498Y-139115820D01*
X272554188Y-139235518D01*
X272541928Y-139360000D01*
X263918072Y-139360000D01*
X263918072Y-136515000D01*
X263905812Y-136390518D01*
X263869502Y-136270820D01*
X263850356Y-136235000D01*
X264130322Y-136235000D01*
X264370516Y-136211343D01*
X264678715Y-136117852D01*
X264962752Y-135966031D01*
X265211714Y-135761714D01*
X265416031Y-135512752D01*
X265567852Y-135228715D01*
X265661343Y-134920516D01*
X265692911Y-134600000D01*
X265661343Y-134279484D01*
X265567852Y-133971285D01*
X265416031Y-133687248D01*
X265211714Y-133438286D01*
X264962752Y-133233969D01*
X264678715Y-133082148D01*
X264370516Y-132988657D01*
X264130322Y-132965000D01*
X262000322Y-132965000D01*
X261920000Y-132957089D01*
X261839678Y-132965000D01*
X261599484Y-132988657D01*
X261291285Y-133082148D01*
X261007248Y-133233969D01*
X260758286Y-133438286D01*
X260717716Y-133487721D01*
X260668287Y-133528286D01*
X260537831Y-133687248D01*
X260463970Y-133777248D01*
X260312148Y-134061286D01*
X260218658Y-134369484D01*
X260187089Y-134690000D01*
X260195001Y-134770329D01*
X260195001Y-135907546D01*
X260135820Y-135925498D01*
X260025506Y-135984463D01*
X259928815Y-136063815D01*
X259849463Y-136160506D01*
X259790498Y-136270820D01*
X259754188Y-136390518D01*
X259741928Y-136515000D01*
X258118072Y-136515000D01*
X258105812Y-136390518D01*
X258069502Y-136270820D01*
X258010537Y-136160506D01*
X257931185Y-136063815D01*
X257834494Y-135984463D01*
X257724180Y-135925498D01*
X257604482Y-135889188D01*
X257480000Y-135876928D01*
X254580000Y-135876928D01*
X254455518Y-135889188D01*
X254335820Y-135925498D01*
X254225506Y-135984463D01*
X254128815Y-136063815D01*
X254049463Y-136160506D01*
X253990498Y-136270820D01*
X253954188Y-136390518D01*
X253941928Y-136515000D01*
X253941928Y-139015833D01*
X253558072Y-139399690D01*
X253558072Y-137720000D01*
X253545812Y-137595518D01*
X253509502Y-137475820D01*
X253450537Y-137365506D01*
X253371185Y-137268815D01*
X253274494Y-137189463D01*
X253164180Y-137130498D01*
X253044482Y-137094188D01*
X252920000Y-137081928D01*
X251220000Y-137081928D01*
X251095518Y-137094188D01*
X250975820Y-137130498D01*
X250865506Y-137189463D01*
X250800000Y-137243222D01*
X250734494Y-137189463D01*
X250624180Y-137130498D01*
X250504482Y-137094188D01*
X250380000Y-137081928D01*
X248680000Y-137081928D01*
X248555518Y-137094188D01*
X248435820Y-137130498D01*
X248325506Y-137189463D01*
X248228815Y-137268815D01*
X248149463Y-137365506D01*
X248090498Y-137475820D01*
X248054188Y-137595518D01*
X248041928Y-137720000D01*
X248041928Y-139420000D01*
X248054188Y-139544482D01*
X248090498Y-139664180D01*
X248149463Y-139774494D01*
X248228815Y-139871185D01*
X248325506Y-139950537D01*
X248353958Y-139965745D01*
X248163969Y-140197248D01*
X248012148Y-140481285D01*
X247918657Y-140789484D01*
X247887089Y-141110000D01*
X243680648Y-141110000D01*
X243632775Y-141038353D01*
X243481647Y-140887225D01*
X243303940Y-140768485D01*
X243106483Y-140686696D01*
X242896863Y-140645000D01*
X242683137Y-140645000D01*
X242473517Y-140686696D01*
X242276060Y-140768485D01*
X242098353Y-140887225D01*
X241947225Y-141038353D01*
X241828485Y-141216060D01*
X241799142Y-141286900D01*
X241761515Y-141196060D01*
X241642775Y-141018353D01*
X241491647Y-140867225D01*
X241313940Y-140748485D01*
X241116483Y-140666696D01*
X240906863Y-140625000D01*
X240693137Y-140625000D01*
X240483517Y-140666696D01*
X240286060Y-140748485D01*
X240108353Y-140867225D01*
X239957225Y-141018353D01*
X239838485Y-141196060D01*
X239765000Y-141373469D01*
X239691515Y-141196060D01*
X239572775Y-141018353D01*
X239421647Y-140867225D01*
X239243940Y-140748485D01*
X239046483Y-140666696D01*
X238836863Y-140625000D01*
X238623137Y-140625000D01*
X238413517Y-140666696D01*
X238216060Y-140748485D01*
X238038353Y-140867225D01*
X237887225Y-141018353D01*
X237768485Y-141196060D01*
X237686696Y-141393517D01*
X237645000Y-141603137D01*
X200745100Y-141603137D01*
X200745100Y-138589721D01*
X202575000Y-138589721D01*
X202575000Y-139010279D01*
X202657047Y-139422756D01*
X202817988Y-139811302D01*
X203051637Y-140160983D01*
X203349017Y-140458363D01*
X203698698Y-140692012D01*
X204087244Y-140852953D01*
X204499721Y-140935000D01*
X204920279Y-140935000D01*
X205332756Y-140852953D01*
X205721302Y-140692012D01*
X206070983Y-140458363D01*
X206368363Y-140160983D01*
X206602012Y-139811302D01*
X206762953Y-139422756D01*
X206805782Y-139207437D01*
X225000700Y-139207437D01*
X225000700Y-139421163D01*
X225042396Y-139630783D01*
X225124185Y-139828240D01*
X225242925Y-140005947D01*
X225394053Y-140157075D01*
X225571760Y-140275815D01*
X225769217Y-140357604D01*
X225978837Y-140399300D01*
X226192563Y-140399300D01*
X226402183Y-140357604D01*
X226599640Y-140275815D01*
X226777347Y-140157075D01*
X226928475Y-140005947D01*
X227047215Y-139828240D01*
X227129004Y-139630783D01*
X227170700Y-139421163D01*
X227170700Y-139207437D01*
X227129004Y-138997817D01*
X227047215Y-138800360D01*
X226928475Y-138622653D01*
X226777347Y-138471525D01*
X226599640Y-138352785D01*
X226402183Y-138270996D01*
X226192563Y-138229300D01*
X225978837Y-138229300D01*
X225769217Y-138270996D01*
X225571760Y-138352785D01*
X225394053Y-138471525D01*
X225242925Y-138622653D01*
X225124185Y-138800360D01*
X225042396Y-138997817D01*
X225000700Y-139207437D01*
X206805782Y-139207437D01*
X206845000Y-139010279D01*
X206845000Y-138589721D01*
X206762953Y-138177244D01*
X206602012Y-137788698D01*
X206368363Y-137439017D01*
X206070983Y-137141637D01*
X205721302Y-136907988D01*
X205332756Y-136747047D01*
X204920279Y-136665000D01*
X204499721Y-136665000D01*
X204087244Y-136747047D01*
X203698698Y-136907988D01*
X203349017Y-137141637D01*
X203051637Y-137439017D01*
X202817988Y-137788698D01*
X202657047Y-138177244D01*
X202575000Y-138589721D01*
X200745100Y-138589721D01*
X200745100Y-136193137D01*
X217115000Y-136193137D01*
X217115000Y-136406863D01*
X217156696Y-136616483D01*
X217238485Y-136813940D01*
X217357225Y-136991647D01*
X217508353Y-137142775D01*
X217686060Y-137261515D01*
X217883517Y-137343304D01*
X218093137Y-137385000D01*
X218306863Y-137385000D01*
X218516483Y-137343304D01*
X218713940Y-137261515D01*
X218891647Y-137142775D01*
X219042775Y-136991647D01*
X219161515Y-136813940D01*
X219243304Y-136616483D01*
X219285000Y-136406863D01*
X219285000Y-136193137D01*
X219243304Y-135983517D01*
X219161515Y-135786060D01*
X219042775Y-135608353D01*
X218891647Y-135457225D01*
X218713940Y-135338485D01*
X218516483Y-135256696D01*
X218306863Y-135215000D01*
X218093137Y-135215000D01*
X217883517Y-135256696D01*
X217686060Y-135338485D01*
X217508353Y-135457225D01*
X217357225Y-135608353D01*
X217238485Y-135786060D01*
X217156696Y-135983517D01*
X217115000Y-136193137D01*
X200745100Y-136193137D01*
X200745100Y-133509721D01*
X202575000Y-133509721D01*
X202575000Y-133930279D01*
X202657047Y-134342756D01*
X202817988Y-134731302D01*
X203051637Y-135080983D01*
X203349017Y-135378363D01*
X203698698Y-135612012D01*
X204087244Y-135772953D01*
X204499721Y-135855000D01*
X204920279Y-135855000D01*
X205332756Y-135772953D01*
X205721302Y-135612012D01*
X206070983Y-135378363D01*
X206368363Y-135080983D01*
X206602012Y-134731302D01*
X206762953Y-134342756D01*
X206845000Y-133930279D01*
X206845000Y-133509721D01*
X206762953Y-133097244D01*
X206602012Y-132708698D01*
X206368363Y-132359017D01*
X206070983Y-132061637D01*
X205721302Y-131827988D01*
X205332756Y-131667047D01*
X204920279Y-131585000D01*
X204499721Y-131585000D01*
X204087244Y-131667047D01*
X203698698Y-131827988D01*
X203349017Y-132061637D01*
X203051637Y-132359017D01*
X202817988Y-132708698D01*
X202657047Y-133097244D01*
X202575000Y-133509721D01*
X200745100Y-133509721D01*
X200745100Y-128429721D01*
X202575000Y-128429721D01*
X202575000Y-128850279D01*
X202657047Y-129262756D01*
X202817988Y-129651302D01*
X203051637Y-130000983D01*
X203349017Y-130298363D01*
X203698698Y-130532012D01*
X204087244Y-130692953D01*
X204499721Y-130775000D01*
X204920279Y-130775000D01*
X205332756Y-130692953D01*
X205721302Y-130532012D01*
X206070983Y-130298363D01*
X206368363Y-130000983D01*
X206582836Y-129680000D01*
X247887089Y-129680000D01*
X247918657Y-130000516D01*
X248012148Y-130308715D01*
X248163969Y-130592752D01*
X248368286Y-130841714D01*
X248617248Y-131046031D01*
X248901285Y-131197852D01*
X249209484Y-131291343D01*
X249449678Y-131315000D01*
X251896322Y-131315000D01*
X251943000Y-131310403D01*
X251989678Y-131315000D01*
X254204962Y-131315000D01*
X254230498Y-131399180D01*
X254289463Y-131509494D01*
X254368815Y-131606185D01*
X254465506Y-131685537D01*
X254575820Y-131744502D01*
X254695518Y-131780812D01*
X254820000Y-131793072D01*
X257720000Y-131793072D01*
X257844482Y-131780812D01*
X257964180Y-131744502D01*
X258074494Y-131685537D01*
X258171185Y-131606185D01*
X258250537Y-131509494D01*
X258309502Y-131399180D01*
X258345812Y-131279482D01*
X258358072Y-131155000D01*
X258358072Y-125705000D01*
X259981928Y-125705000D01*
X259981928Y-131155000D01*
X259994188Y-131279482D01*
X260030498Y-131399180D01*
X260089463Y-131509494D01*
X260168815Y-131606185D01*
X260265506Y-131685537D01*
X260375820Y-131744502D01*
X260495518Y-131780812D01*
X260620000Y-131793072D01*
X263520000Y-131793072D01*
X263644482Y-131780812D01*
X263764180Y-131744502D01*
X263874494Y-131685537D01*
X263971185Y-131606185D01*
X264050537Y-131509494D01*
X264074427Y-131464800D01*
X264086696Y-131526483D01*
X264168485Y-131723940D01*
X264287225Y-131901647D01*
X264438353Y-132052775D01*
X264616060Y-132171515D01*
X264813517Y-132253304D01*
X265023137Y-132295000D01*
X265236863Y-132295000D01*
X265446483Y-132253304D01*
X265643940Y-132171515D01*
X265821647Y-132052775D01*
X265972775Y-131901647D01*
X266091515Y-131723940D01*
X266140724Y-131605137D01*
X268257000Y-131605137D01*
X268257000Y-131818863D01*
X268298696Y-132028483D01*
X268380485Y-132225940D01*
X268499225Y-132403647D01*
X268650353Y-132554775D01*
X268828060Y-132673515D01*
X269025517Y-132755304D01*
X269235137Y-132797000D01*
X269448863Y-132797000D01*
X269658483Y-132755304D01*
X269855940Y-132673515D01*
X270033647Y-132554775D01*
X270184775Y-132403647D01*
X270303515Y-132225940D01*
X270385304Y-132028483D01*
X270427000Y-131818863D01*
X270427000Y-131605137D01*
X270385304Y-131395517D01*
X270303515Y-131198060D01*
X270184775Y-131020353D01*
X270033647Y-130869225D01*
X269855940Y-130750485D01*
X269658483Y-130668696D01*
X269448863Y-130627000D01*
X269235137Y-130627000D01*
X269025517Y-130668696D01*
X268828060Y-130750485D01*
X268650353Y-130869225D01*
X268499225Y-131020353D01*
X268380485Y-131198060D01*
X268298696Y-131395517D01*
X268257000Y-131605137D01*
X266140724Y-131605137D01*
X266173304Y-131526483D01*
X266215000Y-131316863D01*
X266215000Y-131103137D01*
X266173304Y-130893517D01*
X266091515Y-130696060D01*
X265972775Y-130518353D01*
X265821647Y-130367225D01*
X265643940Y-130248485D01*
X265446483Y-130166696D01*
X265236863Y-130125000D01*
X265023137Y-130125000D01*
X264813517Y-130166696D01*
X264616060Y-130248485D01*
X264438353Y-130367225D01*
X264287225Y-130518353D01*
X264168485Y-130696060D01*
X264158072Y-130721199D01*
X264158072Y-125705000D01*
X264145812Y-125580518D01*
X264124159Y-125509137D01*
X264193000Y-125509137D01*
X264193000Y-125722863D01*
X264234696Y-125932483D01*
X264316485Y-126129940D01*
X264435225Y-126307647D01*
X264586353Y-126458775D01*
X264764060Y-126577515D01*
X264961517Y-126659304D01*
X265171137Y-126701000D01*
X265384863Y-126701000D01*
X265590983Y-126660000D01*
X272541928Y-126660000D01*
X272541928Y-130160000D01*
X272554188Y-130284482D01*
X272590498Y-130404180D01*
X272649463Y-130514494D01*
X272728815Y-130611185D01*
X272825506Y-130690537D01*
X272935820Y-130749502D01*
X273055518Y-130785812D01*
X273180000Y-130798072D01*
X276680000Y-130798072D01*
X276804482Y-130785812D01*
X276924180Y-130749502D01*
X277034494Y-130690537D01*
X277131185Y-130611185D01*
X277210537Y-130514494D01*
X277269502Y-130404180D01*
X277305812Y-130284482D01*
X277318072Y-130160000D01*
X278791928Y-130160000D01*
X278804188Y-130284482D01*
X278840498Y-130404180D01*
X278899463Y-130514494D01*
X278978815Y-130611185D01*
X279075506Y-130690537D01*
X279185820Y-130749502D01*
X279305518Y-130785812D01*
X279430000Y-130798072D01*
X280644250Y-130795000D01*
X280803000Y-130636250D01*
X280803000Y-128537000D01*
X281057000Y-128537000D01*
X281057000Y-130636250D01*
X281215750Y-130795000D01*
X282430000Y-130798072D01*
X282554482Y-130785812D01*
X282674180Y-130749502D01*
X282784494Y-130690537D01*
X282881185Y-130611185D01*
X282960537Y-130514494D01*
X283019502Y-130404180D01*
X283055812Y-130284482D01*
X283068072Y-130160000D01*
X283065000Y-128695750D01*
X282906250Y-128537000D01*
X281057000Y-128537000D01*
X280803000Y-128537000D01*
X278953750Y-128537000D01*
X278795000Y-128695750D01*
X278791928Y-130160000D01*
X277318072Y-130160000D01*
X277318072Y-126660000D01*
X278791928Y-126660000D01*
X278795000Y-128124250D01*
X278953750Y-128283000D01*
X280803000Y-128283000D01*
X280803000Y-126183750D01*
X281057000Y-126183750D01*
X281057000Y-128283000D01*
X282906250Y-128283000D01*
X283065000Y-128124250D01*
X283068072Y-126660000D01*
X283055812Y-126535518D01*
X283019502Y-126415820D01*
X282960537Y-126305506D01*
X282881185Y-126208815D01*
X282784494Y-126129463D01*
X282674180Y-126070498D01*
X282554482Y-126034188D01*
X282430000Y-126021928D01*
X281215750Y-126025000D01*
X281057000Y-126183750D01*
X280803000Y-126183750D01*
X280644250Y-126025000D01*
X279430000Y-126021928D01*
X279305518Y-126034188D01*
X279185820Y-126070498D01*
X279075506Y-126129463D01*
X278978815Y-126208815D01*
X278899463Y-126305506D01*
X278840498Y-126415820D01*
X278804188Y-126535518D01*
X278791928Y-126660000D01*
X277318072Y-126660000D01*
X277305812Y-126535518D01*
X277269502Y-126415820D01*
X277210537Y-126305506D01*
X277131185Y-126208815D01*
X277034494Y-126129463D01*
X276957869Y-126088506D01*
X277055000Y-126098072D01*
X278805000Y-126098072D01*
X279100186Y-126068999D01*
X279384028Y-125982896D01*
X279645618Y-125843073D01*
X279874903Y-125654903D01*
X280063073Y-125425618D01*
X280202896Y-125164028D01*
X280288999Y-124880186D01*
X280318072Y-124585000D01*
X280318072Y-122835000D01*
X280288999Y-122539814D01*
X280202896Y-122255972D01*
X280063073Y-121994382D01*
X279874903Y-121765097D01*
X279645618Y-121576927D01*
X279384028Y-121437104D01*
X279100186Y-121351001D01*
X278805000Y-121321928D01*
X277055000Y-121321928D01*
X276759814Y-121351001D01*
X276475972Y-121437104D01*
X276214382Y-121576927D01*
X275985097Y-121765097D01*
X275796927Y-121994382D01*
X275657104Y-122255972D01*
X275571001Y-122539814D01*
X275541928Y-122835000D01*
X275541928Y-124585000D01*
X275571001Y-124880186D01*
X275657104Y-125164028D01*
X275796927Y-125425618D01*
X275985097Y-125654903D01*
X276214382Y-125843073D01*
X276475972Y-125982896D01*
X276604643Y-126021928D01*
X273180000Y-126021928D01*
X273055518Y-126034188D01*
X272935820Y-126070498D01*
X272825506Y-126129463D01*
X272728815Y-126208815D01*
X272649463Y-126305506D01*
X272590498Y-126415820D01*
X272554188Y-126535518D01*
X272541928Y-126660000D01*
X265590983Y-126660000D01*
X265594483Y-126659304D01*
X265791940Y-126577515D01*
X265969647Y-126458775D01*
X266120775Y-126307647D01*
X266239515Y-126129940D01*
X266321304Y-125932483D01*
X266363000Y-125722863D01*
X266363000Y-125509137D01*
X266321304Y-125299517D01*
X266239515Y-125102060D01*
X266120775Y-124924353D01*
X265969647Y-124773225D01*
X265791940Y-124654485D01*
X265594483Y-124572696D01*
X265384863Y-124531000D01*
X265171137Y-124531000D01*
X264961517Y-124572696D01*
X264764060Y-124654485D01*
X264586353Y-124773225D01*
X264435225Y-124924353D01*
X264316485Y-125102060D01*
X264234696Y-125299517D01*
X264193000Y-125509137D01*
X264124159Y-125509137D01*
X264109502Y-125460820D01*
X264050537Y-125350506D01*
X263971185Y-125253815D01*
X263874494Y-125174463D01*
X263764180Y-125115498D01*
X263705000Y-125097546D01*
X263705000Y-124535000D01*
X263980322Y-124535000D01*
X264220516Y-124511343D01*
X264528715Y-124417852D01*
X264812752Y-124266031D01*
X265061714Y-124061714D01*
X265266031Y-123812752D01*
X265417852Y-123528715D01*
X265511343Y-123220516D01*
X265542911Y-122900000D01*
X265511343Y-122579484D01*
X265417852Y-122271285D01*
X265266031Y-121987248D01*
X265061714Y-121738286D01*
X264812752Y-121533969D01*
X264528715Y-121382148D01*
X264220516Y-121288657D01*
X263980322Y-121265000D01*
X262230319Y-121265000D01*
X262149999Y-121257089D01*
X262069680Y-121265000D01*
X262069678Y-121265000D01*
X261829484Y-121288657D01*
X261521285Y-121382148D01*
X261237248Y-121533969D01*
X260988286Y-121738286D01*
X260952224Y-121782228D01*
X260908287Y-121818286D01*
X260712196Y-122057225D01*
X260703970Y-122067248D01*
X260552148Y-122351286D01*
X260458658Y-122659484D01*
X260427089Y-122980000D01*
X260435001Y-123060329D01*
X260435001Y-125097546D01*
X260375820Y-125115498D01*
X260265506Y-125174463D01*
X260168815Y-125253815D01*
X260089463Y-125350506D01*
X260030498Y-125460820D01*
X259994188Y-125580518D01*
X259981928Y-125705000D01*
X258358072Y-125705000D01*
X258345812Y-125580518D01*
X258309502Y-125460820D01*
X258250537Y-125350506D01*
X258171185Y-125253815D01*
X258074494Y-125174463D01*
X257964180Y-125115498D01*
X257844482Y-125079188D01*
X257720000Y-125066928D01*
X254820000Y-125066928D01*
X254695518Y-125079188D01*
X254575820Y-125115498D01*
X254465506Y-125174463D01*
X254368815Y-125253815D01*
X254289463Y-125350506D01*
X254230498Y-125460820D01*
X254194188Y-125580518D01*
X254181928Y-125705000D01*
X254181928Y-128045000D01*
X253552655Y-128045000D01*
X253558072Y-127990000D01*
X253558072Y-126290000D01*
X253545812Y-126165518D01*
X253509502Y-126045820D01*
X253450537Y-125935506D01*
X253371185Y-125838815D01*
X253274494Y-125759463D01*
X253164180Y-125700498D01*
X253044482Y-125664188D01*
X252920000Y-125651928D01*
X251220000Y-125651928D01*
X251095518Y-125664188D01*
X250975820Y-125700498D01*
X250865506Y-125759463D01*
X250800000Y-125813222D01*
X250734494Y-125759463D01*
X250624180Y-125700498D01*
X250504482Y-125664188D01*
X250380000Y-125651928D01*
X248680000Y-125651928D01*
X248555518Y-125664188D01*
X248435820Y-125700498D01*
X248325506Y-125759463D01*
X248228815Y-125838815D01*
X248149463Y-125935506D01*
X248090498Y-126045820D01*
X248054188Y-126165518D01*
X248041928Y-126290000D01*
X248041928Y-127990000D01*
X248054188Y-128114482D01*
X248090498Y-128234180D01*
X248149463Y-128344494D01*
X248228815Y-128441185D01*
X248325506Y-128520537D01*
X248353958Y-128535745D01*
X248163969Y-128767248D01*
X248012148Y-129051285D01*
X247918657Y-129359484D01*
X247887089Y-129680000D01*
X206582836Y-129680000D01*
X206602012Y-129651302D01*
X206762953Y-129262756D01*
X206845000Y-128850279D01*
X206845000Y-128429721D01*
X206762953Y-128017244D01*
X206602012Y-127628698D01*
X206368363Y-127279017D01*
X206070983Y-126981637D01*
X205721302Y-126747988D01*
X205332756Y-126587047D01*
X204920279Y-126505000D01*
X204499721Y-126505000D01*
X204087244Y-126587047D01*
X203698698Y-126747988D01*
X203349017Y-126981637D01*
X203051637Y-127279017D01*
X202817988Y-127628698D01*
X202657047Y-128017244D01*
X202575000Y-128429721D01*
X200745100Y-128429721D01*
X200745100Y-122060000D01*
X202571928Y-122060000D01*
X202571928Y-125060000D01*
X202584188Y-125184482D01*
X202620498Y-125304180D01*
X202679463Y-125414494D01*
X202758815Y-125511185D01*
X202855506Y-125590537D01*
X202965820Y-125649502D01*
X203085518Y-125685812D01*
X203210000Y-125698072D01*
X206210000Y-125698072D01*
X206334482Y-125685812D01*
X206454180Y-125649502D01*
X206564494Y-125590537D01*
X206661185Y-125511185D01*
X206740537Y-125414494D01*
X206799502Y-125304180D01*
X206835812Y-125184482D01*
X206848072Y-125060000D01*
X206848072Y-122060000D01*
X206835812Y-121935518D01*
X206799502Y-121815820D01*
X206740537Y-121705506D01*
X206661185Y-121608815D01*
X206564494Y-121529463D01*
X206454180Y-121470498D01*
X206334482Y-121434188D01*
X206210000Y-121421928D01*
X203210000Y-121421928D01*
X203085518Y-121434188D01*
X202965820Y-121470498D01*
X202855506Y-121529463D01*
X202758815Y-121608815D01*
X202679463Y-121705506D01*
X202620498Y-121815820D01*
X202584188Y-121935518D01*
X202571928Y-122060000D01*
X200745100Y-122060000D01*
X200745100Y-116662094D01*
X201695200Y-116662094D01*
X201695200Y-116925066D01*
X201746504Y-117182985D01*
X201847139Y-117425939D01*
X201993238Y-117644593D01*
X202179187Y-117830542D01*
X202397841Y-117976641D01*
X202640795Y-118077276D01*
X202898714Y-118128580D01*
X203161686Y-118128580D01*
X203419605Y-118077276D01*
X203662559Y-117976641D01*
X203881213Y-117830542D01*
X204067162Y-117644593D01*
X204213261Y-117425939D01*
X204313896Y-117182985D01*
X204365200Y-116925066D01*
X204365200Y-116662094D01*
X204313896Y-116404175D01*
X204213261Y-116161221D01*
X204067162Y-115942567D01*
X203881213Y-115756618D01*
X203662559Y-115610519D01*
X203419605Y-115509884D01*
X203161686Y-115458580D01*
X202898714Y-115458580D01*
X202640795Y-115509884D01*
X202397841Y-115610519D01*
X202179187Y-115756618D01*
X201993238Y-115942567D01*
X201847139Y-116161221D01*
X201746504Y-116404175D01*
X201695200Y-116662094D01*
X200745100Y-116662094D01*
X200745100Y-113558678D01*
X210645200Y-113558678D01*
X210645200Y-114028482D01*
X210736854Y-114489259D01*
X210916640Y-114923301D01*
X211177650Y-115313929D01*
X211509851Y-115646130D01*
X211900479Y-115907140D01*
X212334521Y-116086926D01*
X212795298Y-116178580D01*
X213265102Y-116178580D01*
X213725879Y-116086926D01*
X214159921Y-115907140D01*
X214550549Y-115646130D01*
X214882750Y-115313929D01*
X215143760Y-114923301D01*
X215323546Y-114489259D01*
X215415200Y-114028482D01*
X215415200Y-113558678D01*
X215323546Y-113097901D01*
X215143760Y-112663859D01*
X214882750Y-112273231D01*
X214550549Y-111941030D01*
X214159921Y-111680020D01*
X213725879Y-111500234D01*
X213265102Y-111408580D01*
X212795298Y-111408580D01*
X212334521Y-111500234D01*
X211900479Y-111680020D01*
X211509851Y-111941030D01*
X211177650Y-112273231D01*
X210916640Y-112663859D01*
X210736854Y-113097901D01*
X210645200Y-113558678D01*
X200745100Y-113558678D01*
X200745100Y-105662094D01*
X201695200Y-105662094D01*
X201695200Y-105925066D01*
X201746504Y-106182985D01*
X201847139Y-106425939D01*
X201993238Y-106644593D01*
X202179187Y-106830542D01*
X202397841Y-106976641D01*
X202640795Y-107077276D01*
X202898714Y-107128580D01*
X203161686Y-107128580D01*
X203419605Y-107077276D01*
X203500954Y-107043580D01*
X210642128Y-107043580D01*
X210642128Y-110543580D01*
X210654388Y-110668062D01*
X210690698Y-110787760D01*
X210749663Y-110898074D01*
X210829015Y-110994765D01*
X210925706Y-111074117D01*
X211036020Y-111133082D01*
X211155718Y-111169392D01*
X211280200Y-111181652D01*
X214780200Y-111181652D01*
X214904682Y-111169392D01*
X215024380Y-111133082D01*
X215134694Y-111074117D01*
X215231385Y-110994765D01*
X215310737Y-110898074D01*
X215369702Y-110787760D01*
X215406012Y-110668062D01*
X215418272Y-110543580D01*
X215418272Y-107043580D01*
X215406012Y-106919098D01*
X215369702Y-106799400D01*
X215310737Y-106689086D01*
X215231385Y-106592395D01*
X215134694Y-106513043D01*
X215024380Y-106454078D01*
X214904682Y-106417768D01*
X214780200Y-106405508D01*
X211280200Y-106405508D01*
X211155718Y-106417768D01*
X211036020Y-106454078D01*
X210925706Y-106513043D01*
X210829015Y-106592395D01*
X210749663Y-106689086D01*
X210690698Y-106799400D01*
X210654388Y-106919098D01*
X210642128Y-107043580D01*
X203500954Y-107043580D01*
X203662559Y-106976641D01*
X203881213Y-106830542D01*
X204067162Y-106644593D01*
X204213261Y-106425939D01*
X204313896Y-106182985D01*
X204365200Y-105925066D01*
X204365200Y-105662094D01*
X204313896Y-105404175D01*
X204213261Y-105161221D01*
X204067162Y-104942567D01*
X203881213Y-104756618D01*
X203662559Y-104610519D01*
X203419605Y-104509884D01*
X203161686Y-104458580D01*
X202898714Y-104458580D01*
X202640795Y-104509884D01*
X202397841Y-104610519D01*
X202179187Y-104756618D01*
X201993238Y-104942567D01*
X201847139Y-105161221D01*
X201746504Y-105404175D01*
X201695200Y-105662094D01*
X200745100Y-105662094D01*
X200745100Y-96727434D01*
X200791692Y-96252244D01*
X200919261Y-95829718D01*
X201126467Y-95440018D01*
X201405422Y-95097987D01*
X201745496Y-94816653D01*
X202133741Y-94606729D01*
X202555362Y-94476215D01*
X203028370Y-94426500D01*
X205879600Y-94426500D01*
X205697248Y-94523969D01*
G36*
X240248525Y-96844632D02*
G01*
X240455368Y-97051475D01*
X240629760Y-97168000D01*
X240455368Y-97284525D01*
X240248525Y-97491368D01*
X240126805Y-97673534D01*
X240057178Y-97556645D01*
X239862269Y-97340412D01*
X239632594Y-97169100D01*
X239808632Y-97051475D01*
X240015475Y-96844632D01*
X240132000Y-96670240D01*
X240248525Y-96844632D01*
G37*
X240248525Y-96844632D02*
X240455368Y-97051475D01*
X240629760Y-97168000D01*
X240455368Y-97284525D01*
X240248525Y-97491368D01*
X240126805Y-97673534D01*
X240057178Y-97556645D01*
X239862269Y-97340412D01*
X239632594Y-97169100D01*
X239808632Y-97051475D01*
X240015475Y-96844632D01*
X240132000Y-96670240D01*
X240248525Y-96844632D01*
G36*
X217388525Y-96844632D02*
G01*
X217595368Y-97051475D01*
X217771406Y-97169100D01*
X217541731Y-97340412D01*
X217346822Y-97556645D01*
X217277195Y-97673534D01*
X217155475Y-97491368D01*
X216948632Y-97284525D01*
X216774240Y-97168000D01*
X216948632Y-97051475D01*
X217155475Y-96844632D01*
X217272000Y-96670240D01*
X217388525Y-96844632D01*
G37*
X217388525Y-96844632D02*
X217595368Y-97051475D01*
X217771406Y-97169100D01*
X217541731Y-97340412D01*
X217346822Y-97556645D01*
X217277195Y-97673534D01*
X217155475Y-97491368D01*
X216948632Y-97284525D01*
X216774240Y-97168000D01*
X216948632Y-97051475D01*
X217155475Y-96844632D01*
X217272000Y-96670240D01*
X217388525Y-96844632D01*
G36*
X242746822Y-96779355D02*
G01*
X242941731Y-96995588D01*
X243171406Y-97166900D01*
X242995368Y-97284525D01*
X242788525Y-97491368D01*
X242672000Y-97665760D01*
X242555475Y-97491368D01*
X242348632Y-97284525D01*
X242174240Y-97168000D01*
X242348632Y-97051475D01*
X242555475Y-96844632D01*
X242677195Y-96662466D01*
X242746822Y-96779355D01*
G37*
X242746822Y-96779355D02*
X242941731Y-96995588D01*
X243171406Y-97166900D01*
X242995368Y-97284525D01*
X242788525Y-97491368D01*
X242672000Y-97665760D01*
X242555475Y-97491368D01*
X242348632Y-97284525D01*
X242174240Y-97168000D01*
X242348632Y-97051475D01*
X242555475Y-96844632D01*
X242677195Y-96662466D01*
X242746822Y-96779355D01*
G36*
X222426822Y-96779355D02*
G01*
X222621731Y-96995588D01*
X222851406Y-97166900D01*
X222675368Y-97284525D01*
X222468525Y-97491368D01*
X222352000Y-97665760D01*
X222235475Y-97491368D01*
X222028632Y-97284525D01*
X221854240Y-97168000D01*
X222028632Y-97051475D01*
X222235475Y-96844632D01*
X222357195Y-96662466D01*
X222426822Y-96779355D01*
G37*
X222426822Y-96779355D02*
X222621731Y-96995588D01*
X222851406Y-97166900D01*
X222675368Y-97284525D01*
X222468525Y-97491368D01*
X222352000Y-97665760D01*
X222235475Y-97491368D01*
X222028632Y-97284525D01*
X221854240Y-97168000D01*
X222028632Y-97051475D01*
X222235475Y-96844632D01*
X222357195Y-96662466D01*
X222426822Y-96779355D01*
G36*
X214848525Y-96844632D02*
G01*
X215055368Y-97051475D01*
X215229760Y-97168000D01*
X215055368Y-97284525D01*
X214848525Y-97491368D01*
X214732000Y-97665760D01*
X214615475Y-97491368D01*
X214408632Y-97284525D01*
X214232594Y-97166900D01*
X214462269Y-96995588D01*
X214657178Y-96779355D01*
X214726805Y-96662466D01*
X214848525Y-96844632D01*
G37*
X214848525Y-96844632D02*
X215055368Y-97051475D01*
X215229760Y-97168000D01*
X215055368Y-97284525D01*
X214848525Y-97491368D01*
X214732000Y-97665760D01*
X214615475Y-97491368D01*
X214408632Y-97284525D01*
X214232594Y-97166900D01*
X214462269Y-96995588D01*
X214657178Y-96779355D01*
X214726805Y-96662466D01*
X214848525Y-96844632D01*
G36*
X244069000Y-95771000D02*
G01*
X244089000Y-95771000D01*
X244089000Y-96025000D01*
X244069000Y-96025000D01*
X244069000Y-96045000D01*
X243815000Y-96045000D01*
X243815000Y-96025000D01*
X243795000Y-96025000D01*
X243795000Y-95771000D01*
X243815000Y-95771000D01*
X243815000Y-95751000D01*
X244069000Y-95751000D01*
X244069000Y-95771000D01*
G37*
X244069000Y-95771000D02*
X244089000Y-95771000D01*
X244089000Y-96025000D01*
X244069000Y-96025000D01*
X244069000Y-96045000D01*
X243815000Y-96045000D01*
X243815000Y-96025000D01*
X243795000Y-96025000D01*
X243795000Y-95771000D01*
X243815000Y-95771000D01*
X243815000Y-95751000D01*
X244069000Y-95751000D01*
X244069000Y-95771000D01*
G36*
X223749000Y-95771000D02*
G01*
X223769000Y-95771000D01*
X223769000Y-96025000D01*
X223749000Y-96025000D01*
X223749000Y-96045000D01*
X223495000Y-96045000D01*
X223495000Y-96025000D01*
X223475000Y-96025000D01*
X223475000Y-95771000D01*
X223495000Y-95771000D01*
X223495000Y-95751000D01*
X223749000Y-95751000D01*
X223749000Y-95771000D01*
G37*
X223749000Y-95771000D02*
X223769000Y-95771000D01*
X223769000Y-96025000D01*
X223749000Y-96025000D01*
X223749000Y-96045000D01*
X223495000Y-96045000D01*
X223495000Y-96025000D01*
X223475000Y-96025000D01*
X223475000Y-95771000D01*
X223495000Y-95771000D01*
X223495000Y-95751000D01*
X223749000Y-95751000D01*
X223749000Y-95771000D01*
G36*
X231369000Y-95771000D02*
G01*
X231389000Y-95771000D01*
X231389000Y-96025000D01*
X231369000Y-96025000D01*
X231369000Y-96045000D01*
X231115000Y-96045000D01*
X231115000Y-96025000D01*
X231095000Y-96025000D01*
X231095000Y-95771000D01*
X231115000Y-95771000D01*
X231115000Y-95751000D01*
X231369000Y-95751000D01*
X231369000Y-95771000D01*
G37*
X231369000Y-95771000D02*
X231389000Y-95771000D01*
X231389000Y-96025000D01*
X231369000Y-96025000D01*
X231369000Y-96045000D01*
X231115000Y-96045000D01*
X231115000Y-96025000D01*
X231095000Y-96025000D01*
X231095000Y-95771000D01*
X231115000Y-95771000D01*
X231115000Y-95751000D01*
X231369000Y-95751000D01*
X231369000Y-95771000D01*
G36*
X249149000Y-95771000D02*
G01*
X249169000Y-95771000D01*
X249169000Y-96025000D01*
X249149000Y-96025000D01*
X249149000Y-96045000D01*
X248895000Y-96045000D01*
X248895000Y-96025000D01*
X248875000Y-96025000D01*
X248875000Y-95771000D01*
X248895000Y-95771000D01*
X248895000Y-95751000D01*
X249149000Y-95751000D01*
X249149000Y-95771000D01*
G37*
X249149000Y-95771000D02*
X249169000Y-95771000D01*
X249169000Y-96025000D01*
X249149000Y-96025000D01*
X249149000Y-96045000D01*
X248895000Y-96045000D01*
X248895000Y-96025000D01*
X248875000Y-96025000D01*
X248875000Y-95771000D01*
X248895000Y-95771000D01*
X248895000Y-95751000D01*
X249149000Y-95751000D01*
X249149000Y-95771000D01*
G36*
X213589000Y-95771000D02*
G01*
X213609000Y-95771000D01*
X213609000Y-96025000D01*
X213589000Y-96025000D01*
X213589000Y-96045000D01*
X213335000Y-96045000D01*
X213335000Y-96025000D01*
X213315000Y-96025000D01*
X213315000Y-95771000D01*
X213335000Y-95771000D01*
X213335000Y-95751000D01*
X213589000Y-95751000D01*
X213589000Y-95771000D01*
G37*
X213589000Y-95771000D02*
X213609000Y-95771000D01*
X213609000Y-96025000D01*
X213589000Y-96025000D01*
X213589000Y-96045000D01*
X213335000Y-96045000D01*
X213335000Y-96025000D01*
X213315000Y-96025000D01*
X213315000Y-95771000D01*
X213335000Y-95771000D01*
X213335000Y-95751000D01*
X213589000Y-95751000D01*
X213589000Y-95771000D01*
G36*
X225728842Y-94470068D02*
G01*
X225458589Y-94582010D01*
X225215368Y-94744525D01*
X225008525Y-94951368D01*
X224886805Y-95133534D01*
X224817178Y-95016645D01*
X224622269Y-94800412D01*
X224388920Y-94626359D01*
X224126099Y-94501175D01*
X223978890Y-94456524D01*
X223749002Y-94577844D01*
X223749002Y-94426500D01*
X225947871Y-94426500D01*
X225728842Y-94470068D01*
G37*
X225728842Y-94470068D02*
X225458589Y-94582010D01*
X225215368Y-94744525D01*
X225008525Y-94951368D01*
X224886805Y-95133534D01*
X224817178Y-95016645D01*
X224622269Y-94800412D01*
X224388920Y-94626359D01*
X224126099Y-94501175D01*
X223978890Y-94456524D01*
X223749002Y-94577844D01*
X223749002Y-94426500D01*
X225947871Y-94426500D01*
X225728842Y-94470068D01*
G36*
X231114998Y-94577844D02*
G01*
X230885110Y-94456524D01*
X230737901Y-94501175D01*
X230475080Y-94626359D01*
X230241731Y-94800412D01*
X230046822Y-95016645D01*
X229977195Y-95133534D01*
X229855475Y-94951368D01*
X229648632Y-94744525D01*
X229405411Y-94582010D01*
X229135158Y-94470068D01*
X228916129Y-94426500D01*
X231114998Y-94426500D01*
X231114998Y-94577844D01*
G37*
X231114998Y-94577844D02*
X230885110Y-94456524D01*
X230737901Y-94501175D01*
X230475080Y-94626359D01*
X230241731Y-94800412D01*
X230046822Y-95016645D01*
X229977195Y-95133534D01*
X229855475Y-94951368D01*
X229648632Y-94744525D01*
X229405411Y-94582010D01*
X229135158Y-94470068D01*
X228916129Y-94426500D01*
X231114998Y-94426500D01*
X231114998Y-94577844D01*
M02*
