G04 #@! TF.GenerationSoftware,KiCad,Pcbnew,(5.1.5)-3*
G04 #@! TF.CreationDate,2020-09-22T10:03:05+02:00*
G04 #@! TF.ProjectId,alim_hat,616c696d-5f68-4617-942e-6b696361645f,rev?*
G04 #@! TF.SameCoordinates,Original*
G04 #@! TF.FileFunction,Paste,Top*
G04 #@! TF.FilePolarity,Positive*
%FSLAX46Y46*%
G04 Gerber Fmt 4.6, Leading zero omitted, Abs format (unit mm)*
G04 Created by KiCad (PCBNEW (5.1.5)-3) date 2020-09-22 10:03:05*
%MOMM*%
%LPD*%
G04 APERTURE LIST*
%ADD10R,1.200000X0.900000*%
%ADD11C,0.150000*%
%ADD12R,1.160000X1.820000*%
%ADD13R,3.400000X1.800000*%
G04 APERTURE END LIST*
D10*
X217216120Y-111842580D03*
X217216120Y-115142580D03*
D11*
G36*
X259657062Y-137141094D02*
G01*
X259680723Y-137144604D01*
X259703927Y-137150416D01*
X259726449Y-137158474D01*
X259748073Y-137168702D01*
X259768590Y-137180999D01*
X259787803Y-137195249D01*
X259805527Y-137211313D01*
X259821591Y-137229037D01*
X259835841Y-137248250D01*
X259848138Y-137268767D01*
X259858366Y-137290391D01*
X259866424Y-137312913D01*
X259872236Y-137336117D01*
X259875746Y-137359778D01*
X259876920Y-137383670D01*
X259876920Y-137871170D01*
X259875746Y-137895062D01*
X259872236Y-137918723D01*
X259866424Y-137941927D01*
X259858366Y-137964449D01*
X259848138Y-137986073D01*
X259835841Y-138006590D01*
X259821591Y-138025803D01*
X259805527Y-138043527D01*
X259787803Y-138059591D01*
X259768590Y-138073841D01*
X259748073Y-138086138D01*
X259726449Y-138096366D01*
X259703927Y-138104424D01*
X259680723Y-138110236D01*
X259657062Y-138113746D01*
X259633170Y-138114920D01*
X258720670Y-138114920D01*
X258696778Y-138113746D01*
X258673117Y-138110236D01*
X258649913Y-138104424D01*
X258627391Y-138096366D01*
X258605767Y-138086138D01*
X258585250Y-138073841D01*
X258566037Y-138059591D01*
X258548313Y-138043527D01*
X258532249Y-138025803D01*
X258517999Y-138006590D01*
X258505702Y-137986073D01*
X258495474Y-137964449D01*
X258487416Y-137941927D01*
X258481604Y-137918723D01*
X258478094Y-137895062D01*
X258476920Y-137871170D01*
X258476920Y-137383670D01*
X258478094Y-137359778D01*
X258481604Y-137336117D01*
X258487416Y-137312913D01*
X258495474Y-137290391D01*
X258505702Y-137268767D01*
X258517999Y-137248250D01*
X258532249Y-137229037D01*
X258548313Y-137211313D01*
X258566037Y-137195249D01*
X258585250Y-137180999D01*
X258605767Y-137168702D01*
X258627391Y-137158474D01*
X258649913Y-137150416D01*
X258673117Y-137144604D01*
X258696778Y-137141094D01*
X258720670Y-137139920D01*
X259633170Y-137139920D01*
X259657062Y-137141094D01*
G37*
G36*
X259657062Y-139016094D02*
G01*
X259680723Y-139019604D01*
X259703927Y-139025416D01*
X259726449Y-139033474D01*
X259748073Y-139043702D01*
X259768590Y-139055999D01*
X259787803Y-139070249D01*
X259805527Y-139086313D01*
X259821591Y-139104037D01*
X259835841Y-139123250D01*
X259848138Y-139143767D01*
X259858366Y-139165391D01*
X259866424Y-139187913D01*
X259872236Y-139211117D01*
X259875746Y-139234778D01*
X259876920Y-139258670D01*
X259876920Y-139746170D01*
X259875746Y-139770062D01*
X259872236Y-139793723D01*
X259866424Y-139816927D01*
X259858366Y-139839449D01*
X259848138Y-139861073D01*
X259835841Y-139881590D01*
X259821591Y-139900803D01*
X259805527Y-139918527D01*
X259787803Y-139934591D01*
X259768590Y-139948841D01*
X259748073Y-139961138D01*
X259726449Y-139971366D01*
X259703927Y-139979424D01*
X259680723Y-139985236D01*
X259657062Y-139988746D01*
X259633170Y-139989920D01*
X258720670Y-139989920D01*
X258696778Y-139988746D01*
X258673117Y-139985236D01*
X258649913Y-139979424D01*
X258627391Y-139971366D01*
X258605767Y-139961138D01*
X258585250Y-139948841D01*
X258566037Y-139934591D01*
X258548313Y-139918527D01*
X258532249Y-139900803D01*
X258517999Y-139881590D01*
X258505702Y-139861073D01*
X258495474Y-139839449D01*
X258487416Y-139816927D01*
X258481604Y-139793723D01*
X258478094Y-139770062D01*
X258476920Y-139746170D01*
X258476920Y-139258670D01*
X258478094Y-139234778D01*
X258481604Y-139211117D01*
X258487416Y-139187913D01*
X258495474Y-139165391D01*
X258505702Y-139143767D01*
X258517999Y-139123250D01*
X258532249Y-139104037D01*
X258548313Y-139086313D01*
X258566037Y-139070249D01*
X258585250Y-139055999D01*
X258605767Y-139043702D01*
X258627391Y-139033474D01*
X258649913Y-139025416D01*
X258673117Y-139019604D01*
X258696778Y-139016094D01*
X258720670Y-139014920D01*
X259633170Y-139014920D01*
X259657062Y-139016094D01*
G37*
G36*
X259392902Y-140607954D02*
G01*
X259416563Y-140611464D01*
X259439767Y-140617276D01*
X259462289Y-140625334D01*
X259483913Y-140635562D01*
X259504430Y-140647859D01*
X259523643Y-140662109D01*
X259541367Y-140678173D01*
X259557431Y-140695897D01*
X259571681Y-140715110D01*
X259583978Y-140735627D01*
X259594206Y-140757251D01*
X259602264Y-140779773D01*
X259608076Y-140802977D01*
X259611586Y-140826638D01*
X259612760Y-140850530D01*
X259612760Y-141338030D01*
X259611586Y-141361922D01*
X259608076Y-141385583D01*
X259602264Y-141408787D01*
X259594206Y-141431309D01*
X259583978Y-141452933D01*
X259571681Y-141473450D01*
X259557431Y-141492663D01*
X259541367Y-141510387D01*
X259523643Y-141526451D01*
X259504430Y-141540701D01*
X259483913Y-141552998D01*
X259462289Y-141563226D01*
X259439767Y-141571284D01*
X259416563Y-141577096D01*
X259392902Y-141580606D01*
X259369010Y-141581780D01*
X258456510Y-141581780D01*
X258432618Y-141580606D01*
X258408957Y-141577096D01*
X258385753Y-141571284D01*
X258363231Y-141563226D01*
X258341607Y-141552998D01*
X258321090Y-141540701D01*
X258301877Y-141526451D01*
X258284153Y-141510387D01*
X258268089Y-141492663D01*
X258253839Y-141473450D01*
X258241542Y-141452933D01*
X258231314Y-141431309D01*
X258223256Y-141408787D01*
X258217444Y-141385583D01*
X258213934Y-141361922D01*
X258212760Y-141338030D01*
X258212760Y-140850530D01*
X258213934Y-140826638D01*
X258217444Y-140802977D01*
X258223256Y-140779773D01*
X258231314Y-140757251D01*
X258241542Y-140735627D01*
X258253839Y-140715110D01*
X258268089Y-140695897D01*
X258284153Y-140678173D01*
X258301877Y-140662109D01*
X258321090Y-140647859D01*
X258341607Y-140635562D01*
X258363231Y-140625334D01*
X258385753Y-140617276D01*
X258408957Y-140611464D01*
X258432618Y-140607954D01*
X258456510Y-140606780D01*
X259369010Y-140606780D01*
X259392902Y-140607954D01*
G37*
G36*
X259392902Y-142482954D02*
G01*
X259416563Y-142486464D01*
X259439767Y-142492276D01*
X259462289Y-142500334D01*
X259483913Y-142510562D01*
X259504430Y-142522859D01*
X259523643Y-142537109D01*
X259541367Y-142553173D01*
X259557431Y-142570897D01*
X259571681Y-142590110D01*
X259583978Y-142610627D01*
X259594206Y-142632251D01*
X259602264Y-142654773D01*
X259608076Y-142677977D01*
X259611586Y-142701638D01*
X259612760Y-142725530D01*
X259612760Y-143213030D01*
X259611586Y-143236922D01*
X259608076Y-143260583D01*
X259602264Y-143283787D01*
X259594206Y-143306309D01*
X259583978Y-143327933D01*
X259571681Y-143348450D01*
X259557431Y-143367663D01*
X259541367Y-143385387D01*
X259523643Y-143401451D01*
X259504430Y-143415701D01*
X259483913Y-143427998D01*
X259462289Y-143438226D01*
X259439767Y-143446284D01*
X259416563Y-143452096D01*
X259392902Y-143455606D01*
X259369010Y-143456780D01*
X258456510Y-143456780D01*
X258432618Y-143455606D01*
X258408957Y-143452096D01*
X258385753Y-143446284D01*
X258363231Y-143438226D01*
X258341607Y-143427998D01*
X258321090Y-143415701D01*
X258301877Y-143401451D01*
X258284153Y-143385387D01*
X258268089Y-143367663D01*
X258253839Y-143348450D01*
X258241542Y-143327933D01*
X258231314Y-143306309D01*
X258223256Y-143283787D01*
X258217444Y-143260583D01*
X258213934Y-143236922D01*
X258212760Y-143213030D01*
X258212760Y-142725530D01*
X258213934Y-142701638D01*
X258217444Y-142677977D01*
X258223256Y-142654773D01*
X258231314Y-142632251D01*
X258241542Y-142610627D01*
X258253839Y-142590110D01*
X258268089Y-142570897D01*
X258284153Y-142553173D01*
X258301877Y-142537109D01*
X258321090Y-142522859D01*
X258341607Y-142510562D01*
X258363231Y-142500334D01*
X258385753Y-142492276D01*
X258408957Y-142486464D01*
X258432618Y-142482954D01*
X258456510Y-142481780D01*
X259369010Y-142481780D01*
X259392902Y-142482954D01*
G37*
G36*
X259020142Y-127711174D02*
G01*
X259043803Y-127714684D01*
X259067007Y-127720496D01*
X259089529Y-127728554D01*
X259111153Y-127738782D01*
X259131670Y-127751079D01*
X259150883Y-127765329D01*
X259168607Y-127781393D01*
X259184671Y-127799117D01*
X259198921Y-127818330D01*
X259211218Y-127838847D01*
X259221446Y-127860471D01*
X259229504Y-127882993D01*
X259235316Y-127906197D01*
X259238826Y-127929858D01*
X259240000Y-127953750D01*
X259240000Y-128866250D01*
X259238826Y-128890142D01*
X259235316Y-128913803D01*
X259229504Y-128937007D01*
X259221446Y-128959529D01*
X259211218Y-128981153D01*
X259198921Y-129001670D01*
X259184671Y-129020883D01*
X259168607Y-129038607D01*
X259150883Y-129054671D01*
X259131670Y-129068921D01*
X259111153Y-129081218D01*
X259089529Y-129091446D01*
X259067007Y-129099504D01*
X259043803Y-129105316D01*
X259020142Y-129108826D01*
X258996250Y-129110000D01*
X258508750Y-129110000D01*
X258484858Y-129108826D01*
X258461197Y-129105316D01*
X258437993Y-129099504D01*
X258415471Y-129091446D01*
X258393847Y-129081218D01*
X258373330Y-129068921D01*
X258354117Y-129054671D01*
X258336393Y-129038607D01*
X258320329Y-129020883D01*
X258306079Y-129001670D01*
X258293782Y-128981153D01*
X258283554Y-128959529D01*
X258275496Y-128937007D01*
X258269684Y-128913803D01*
X258266174Y-128890142D01*
X258265000Y-128866250D01*
X258265000Y-127953750D01*
X258266174Y-127929858D01*
X258269684Y-127906197D01*
X258275496Y-127882993D01*
X258283554Y-127860471D01*
X258293782Y-127838847D01*
X258306079Y-127818330D01*
X258320329Y-127799117D01*
X258336393Y-127781393D01*
X258354117Y-127765329D01*
X258373330Y-127751079D01*
X258393847Y-127738782D01*
X258415471Y-127728554D01*
X258437993Y-127720496D01*
X258461197Y-127714684D01*
X258484858Y-127711174D01*
X258508750Y-127710000D01*
X258996250Y-127710000D01*
X259020142Y-127711174D01*
G37*
G36*
X260895142Y-127711174D02*
G01*
X260918803Y-127714684D01*
X260942007Y-127720496D01*
X260964529Y-127728554D01*
X260986153Y-127738782D01*
X261006670Y-127751079D01*
X261025883Y-127765329D01*
X261043607Y-127781393D01*
X261059671Y-127799117D01*
X261073921Y-127818330D01*
X261086218Y-127838847D01*
X261096446Y-127860471D01*
X261104504Y-127882993D01*
X261110316Y-127906197D01*
X261113826Y-127929858D01*
X261115000Y-127953750D01*
X261115000Y-128866250D01*
X261113826Y-128890142D01*
X261110316Y-128913803D01*
X261104504Y-128937007D01*
X261096446Y-128959529D01*
X261086218Y-128981153D01*
X261073921Y-129001670D01*
X261059671Y-129020883D01*
X261043607Y-129038607D01*
X261025883Y-129054671D01*
X261006670Y-129068921D01*
X260986153Y-129081218D01*
X260964529Y-129091446D01*
X260942007Y-129099504D01*
X260918803Y-129105316D01*
X260895142Y-129108826D01*
X260871250Y-129110000D01*
X260383750Y-129110000D01*
X260359858Y-129108826D01*
X260336197Y-129105316D01*
X260312993Y-129099504D01*
X260290471Y-129091446D01*
X260268847Y-129081218D01*
X260248330Y-129068921D01*
X260229117Y-129054671D01*
X260211393Y-129038607D01*
X260195329Y-129020883D01*
X260181079Y-129001670D01*
X260168782Y-128981153D01*
X260158554Y-128959529D01*
X260150496Y-128937007D01*
X260144684Y-128913803D01*
X260141174Y-128890142D01*
X260140000Y-128866250D01*
X260140000Y-127953750D01*
X260141174Y-127929858D01*
X260144684Y-127906197D01*
X260150496Y-127882993D01*
X260158554Y-127860471D01*
X260168782Y-127838847D01*
X260181079Y-127818330D01*
X260195329Y-127799117D01*
X260211393Y-127781393D01*
X260229117Y-127765329D01*
X260248330Y-127751079D01*
X260268847Y-127738782D01*
X260290471Y-127728554D01*
X260312993Y-127720496D01*
X260336197Y-127714684D01*
X260359858Y-127711174D01*
X260383750Y-127710000D01*
X260871250Y-127710000D01*
X260895142Y-127711174D01*
G37*
G36*
X261275142Y-130251174D02*
G01*
X261298803Y-130254684D01*
X261322007Y-130260496D01*
X261344529Y-130268554D01*
X261366153Y-130278782D01*
X261386670Y-130291079D01*
X261405883Y-130305329D01*
X261423607Y-130321393D01*
X261439671Y-130339117D01*
X261453921Y-130358330D01*
X261466218Y-130378847D01*
X261476446Y-130400471D01*
X261484504Y-130422993D01*
X261490316Y-130446197D01*
X261493826Y-130469858D01*
X261495000Y-130493750D01*
X261495000Y-131406250D01*
X261493826Y-131430142D01*
X261490316Y-131453803D01*
X261484504Y-131477007D01*
X261476446Y-131499529D01*
X261466218Y-131521153D01*
X261453921Y-131541670D01*
X261439671Y-131560883D01*
X261423607Y-131578607D01*
X261405883Y-131594671D01*
X261386670Y-131608921D01*
X261366153Y-131621218D01*
X261344529Y-131631446D01*
X261322007Y-131639504D01*
X261298803Y-131645316D01*
X261275142Y-131648826D01*
X261251250Y-131650000D01*
X260763750Y-131650000D01*
X260739858Y-131648826D01*
X260716197Y-131645316D01*
X260692993Y-131639504D01*
X260670471Y-131631446D01*
X260648847Y-131621218D01*
X260628330Y-131608921D01*
X260609117Y-131594671D01*
X260591393Y-131578607D01*
X260575329Y-131560883D01*
X260561079Y-131541670D01*
X260548782Y-131521153D01*
X260538554Y-131499529D01*
X260530496Y-131477007D01*
X260524684Y-131453803D01*
X260521174Y-131430142D01*
X260520000Y-131406250D01*
X260520000Y-130493750D01*
X260521174Y-130469858D01*
X260524684Y-130446197D01*
X260530496Y-130422993D01*
X260538554Y-130400471D01*
X260548782Y-130378847D01*
X260561079Y-130358330D01*
X260575329Y-130339117D01*
X260591393Y-130321393D01*
X260609117Y-130305329D01*
X260628330Y-130291079D01*
X260648847Y-130278782D01*
X260670471Y-130268554D01*
X260692993Y-130260496D01*
X260716197Y-130254684D01*
X260739858Y-130251174D01*
X260763750Y-130250000D01*
X261251250Y-130250000D01*
X261275142Y-130251174D01*
G37*
G36*
X259400142Y-130251174D02*
G01*
X259423803Y-130254684D01*
X259447007Y-130260496D01*
X259469529Y-130268554D01*
X259491153Y-130278782D01*
X259511670Y-130291079D01*
X259530883Y-130305329D01*
X259548607Y-130321393D01*
X259564671Y-130339117D01*
X259578921Y-130358330D01*
X259591218Y-130378847D01*
X259601446Y-130400471D01*
X259609504Y-130422993D01*
X259615316Y-130446197D01*
X259618826Y-130469858D01*
X259620000Y-130493750D01*
X259620000Y-131406250D01*
X259618826Y-131430142D01*
X259615316Y-131453803D01*
X259609504Y-131477007D01*
X259601446Y-131499529D01*
X259591218Y-131521153D01*
X259578921Y-131541670D01*
X259564671Y-131560883D01*
X259548607Y-131578607D01*
X259530883Y-131594671D01*
X259511670Y-131608921D01*
X259491153Y-131621218D01*
X259469529Y-131631446D01*
X259447007Y-131639504D01*
X259423803Y-131645316D01*
X259400142Y-131648826D01*
X259376250Y-131650000D01*
X258888750Y-131650000D01*
X258864858Y-131648826D01*
X258841197Y-131645316D01*
X258817993Y-131639504D01*
X258795471Y-131631446D01*
X258773847Y-131621218D01*
X258753330Y-131608921D01*
X258734117Y-131594671D01*
X258716393Y-131578607D01*
X258700329Y-131560883D01*
X258686079Y-131541670D01*
X258673782Y-131521153D01*
X258663554Y-131499529D01*
X258655496Y-131477007D01*
X258649684Y-131453803D01*
X258646174Y-131430142D01*
X258645000Y-131406250D01*
X258645000Y-130493750D01*
X258646174Y-130469858D01*
X258649684Y-130446197D01*
X258655496Y-130422993D01*
X258663554Y-130400471D01*
X258673782Y-130378847D01*
X258686079Y-130358330D01*
X258700329Y-130339117D01*
X258716393Y-130321393D01*
X258734117Y-130305329D01*
X258753330Y-130291079D01*
X258773847Y-130278782D01*
X258795471Y-130268554D01*
X258817993Y-130260496D01*
X258841197Y-130254684D01*
X258864858Y-130251174D01*
X258888750Y-130250000D01*
X259376250Y-130250000D01*
X259400142Y-130251174D01*
G37*
G36*
X259020142Y-115011174D02*
G01*
X259043803Y-115014684D01*
X259067007Y-115020496D01*
X259089529Y-115028554D01*
X259111153Y-115038782D01*
X259131670Y-115051079D01*
X259150883Y-115065329D01*
X259168607Y-115081393D01*
X259184671Y-115099117D01*
X259198921Y-115118330D01*
X259211218Y-115138847D01*
X259221446Y-115160471D01*
X259229504Y-115182993D01*
X259235316Y-115206197D01*
X259238826Y-115229858D01*
X259240000Y-115253750D01*
X259240000Y-116166250D01*
X259238826Y-116190142D01*
X259235316Y-116213803D01*
X259229504Y-116237007D01*
X259221446Y-116259529D01*
X259211218Y-116281153D01*
X259198921Y-116301670D01*
X259184671Y-116320883D01*
X259168607Y-116338607D01*
X259150883Y-116354671D01*
X259131670Y-116368921D01*
X259111153Y-116381218D01*
X259089529Y-116391446D01*
X259067007Y-116399504D01*
X259043803Y-116405316D01*
X259020142Y-116408826D01*
X258996250Y-116410000D01*
X258508750Y-116410000D01*
X258484858Y-116408826D01*
X258461197Y-116405316D01*
X258437993Y-116399504D01*
X258415471Y-116391446D01*
X258393847Y-116381218D01*
X258373330Y-116368921D01*
X258354117Y-116354671D01*
X258336393Y-116338607D01*
X258320329Y-116320883D01*
X258306079Y-116301670D01*
X258293782Y-116281153D01*
X258283554Y-116259529D01*
X258275496Y-116237007D01*
X258269684Y-116213803D01*
X258266174Y-116190142D01*
X258265000Y-116166250D01*
X258265000Y-115253750D01*
X258266174Y-115229858D01*
X258269684Y-115206197D01*
X258275496Y-115182993D01*
X258283554Y-115160471D01*
X258293782Y-115138847D01*
X258306079Y-115118330D01*
X258320329Y-115099117D01*
X258336393Y-115081393D01*
X258354117Y-115065329D01*
X258373330Y-115051079D01*
X258393847Y-115038782D01*
X258415471Y-115028554D01*
X258437993Y-115020496D01*
X258461197Y-115014684D01*
X258484858Y-115011174D01*
X258508750Y-115010000D01*
X258996250Y-115010000D01*
X259020142Y-115011174D01*
G37*
G36*
X260895142Y-115011174D02*
G01*
X260918803Y-115014684D01*
X260942007Y-115020496D01*
X260964529Y-115028554D01*
X260986153Y-115038782D01*
X261006670Y-115051079D01*
X261025883Y-115065329D01*
X261043607Y-115081393D01*
X261059671Y-115099117D01*
X261073921Y-115118330D01*
X261086218Y-115138847D01*
X261096446Y-115160471D01*
X261104504Y-115182993D01*
X261110316Y-115206197D01*
X261113826Y-115229858D01*
X261115000Y-115253750D01*
X261115000Y-116166250D01*
X261113826Y-116190142D01*
X261110316Y-116213803D01*
X261104504Y-116237007D01*
X261096446Y-116259529D01*
X261086218Y-116281153D01*
X261073921Y-116301670D01*
X261059671Y-116320883D01*
X261043607Y-116338607D01*
X261025883Y-116354671D01*
X261006670Y-116368921D01*
X260986153Y-116381218D01*
X260964529Y-116391446D01*
X260942007Y-116399504D01*
X260918803Y-116405316D01*
X260895142Y-116408826D01*
X260871250Y-116410000D01*
X260383750Y-116410000D01*
X260359858Y-116408826D01*
X260336197Y-116405316D01*
X260312993Y-116399504D01*
X260290471Y-116391446D01*
X260268847Y-116381218D01*
X260248330Y-116368921D01*
X260229117Y-116354671D01*
X260211393Y-116338607D01*
X260195329Y-116320883D01*
X260181079Y-116301670D01*
X260168782Y-116281153D01*
X260158554Y-116259529D01*
X260150496Y-116237007D01*
X260144684Y-116213803D01*
X260141174Y-116190142D01*
X260140000Y-116166250D01*
X260140000Y-115253750D01*
X260141174Y-115229858D01*
X260144684Y-115206197D01*
X260150496Y-115182993D01*
X260158554Y-115160471D01*
X260168782Y-115138847D01*
X260181079Y-115118330D01*
X260195329Y-115099117D01*
X260211393Y-115081393D01*
X260229117Y-115065329D01*
X260248330Y-115051079D01*
X260268847Y-115038782D01*
X260290471Y-115028554D01*
X260312993Y-115020496D01*
X260336197Y-115014684D01*
X260359858Y-115011174D01*
X260383750Y-115010000D01*
X260871250Y-115010000D01*
X260895142Y-115011174D01*
G37*
G36*
X260675142Y-117551174D02*
G01*
X260698803Y-117554684D01*
X260722007Y-117560496D01*
X260744529Y-117568554D01*
X260766153Y-117578782D01*
X260786670Y-117591079D01*
X260805883Y-117605329D01*
X260823607Y-117621393D01*
X260839671Y-117639117D01*
X260853921Y-117658330D01*
X260866218Y-117678847D01*
X260876446Y-117700471D01*
X260884504Y-117722993D01*
X260890316Y-117746197D01*
X260893826Y-117769858D01*
X260895000Y-117793750D01*
X260895000Y-118706250D01*
X260893826Y-118730142D01*
X260890316Y-118753803D01*
X260884504Y-118777007D01*
X260876446Y-118799529D01*
X260866218Y-118821153D01*
X260853921Y-118841670D01*
X260839671Y-118860883D01*
X260823607Y-118878607D01*
X260805883Y-118894671D01*
X260786670Y-118908921D01*
X260766153Y-118921218D01*
X260744529Y-118931446D01*
X260722007Y-118939504D01*
X260698803Y-118945316D01*
X260675142Y-118948826D01*
X260651250Y-118950000D01*
X260163750Y-118950000D01*
X260139858Y-118948826D01*
X260116197Y-118945316D01*
X260092993Y-118939504D01*
X260070471Y-118931446D01*
X260048847Y-118921218D01*
X260028330Y-118908921D01*
X260009117Y-118894671D01*
X259991393Y-118878607D01*
X259975329Y-118860883D01*
X259961079Y-118841670D01*
X259948782Y-118821153D01*
X259938554Y-118799529D01*
X259930496Y-118777007D01*
X259924684Y-118753803D01*
X259921174Y-118730142D01*
X259920000Y-118706250D01*
X259920000Y-117793750D01*
X259921174Y-117769858D01*
X259924684Y-117746197D01*
X259930496Y-117722993D01*
X259938554Y-117700471D01*
X259948782Y-117678847D01*
X259961079Y-117658330D01*
X259975329Y-117639117D01*
X259991393Y-117621393D01*
X260009117Y-117605329D01*
X260028330Y-117591079D01*
X260048847Y-117578782D01*
X260070471Y-117568554D01*
X260092993Y-117560496D01*
X260116197Y-117554684D01*
X260139858Y-117551174D01*
X260163750Y-117550000D01*
X260651250Y-117550000D01*
X260675142Y-117551174D01*
G37*
G36*
X258800142Y-117551174D02*
G01*
X258823803Y-117554684D01*
X258847007Y-117560496D01*
X258869529Y-117568554D01*
X258891153Y-117578782D01*
X258911670Y-117591079D01*
X258930883Y-117605329D01*
X258948607Y-117621393D01*
X258964671Y-117639117D01*
X258978921Y-117658330D01*
X258991218Y-117678847D01*
X259001446Y-117700471D01*
X259009504Y-117722993D01*
X259015316Y-117746197D01*
X259018826Y-117769858D01*
X259020000Y-117793750D01*
X259020000Y-118706250D01*
X259018826Y-118730142D01*
X259015316Y-118753803D01*
X259009504Y-118777007D01*
X259001446Y-118799529D01*
X258991218Y-118821153D01*
X258978921Y-118841670D01*
X258964671Y-118860883D01*
X258948607Y-118878607D01*
X258930883Y-118894671D01*
X258911670Y-118908921D01*
X258891153Y-118921218D01*
X258869529Y-118931446D01*
X258847007Y-118939504D01*
X258823803Y-118945316D01*
X258800142Y-118948826D01*
X258776250Y-118950000D01*
X258288750Y-118950000D01*
X258264858Y-118948826D01*
X258241197Y-118945316D01*
X258217993Y-118939504D01*
X258195471Y-118931446D01*
X258173847Y-118921218D01*
X258153330Y-118908921D01*
X258134117Y-118894671D01*
X258116393Y-118878607D01*
X258100329Y-118860883D01*
X258086079Y-118841670D01*
X258073782Y-118821153D01*
X258063554Y-118799529D01*
X258055496Y-118777007D01*
X258049684Y-118753803D01*
X258046174Y-118730142D01*
X258045000Y-118706250D01*
X258045000Y-117793750D01*
X258046174Y-117769858D01*
X258049684Y-117746197D01*
X258055496Y-117722993D01*
X258063554Y-117700471D01*
X258073782Y-117678847D01*
X258086079Y-117658330D01*
X258100329Y-117639117D01*
X258116393Y-117621393D01*
X258134117Y-117605329D01*
X258153330Y-117591079D01*
X258173847Y-117578782D01*
X258195471Y-117568554D01*
X258217993Y-117560496D01*
X258241197Y-117554684D01*
X258264858Y-117551174D01*
X258288750Y-117550000D01*
X258776250Y-117550000D01*
X258800142Y-117551174D01*
G37*
G36*
X260170142Y-102856174D02*
G01*
X260193803Y-102859684D01*
X260217007Y-102865496D01*
X260239529Y-102873554D01*
X260261153Y-102883782D01*
X260281670Y-102896079D01*
X260300883Y-102910329D01*
X260318607Y-102926393D01*
X260334671Y-102944117D01*
X260348921Y-102963330D01*
X260361218Y-102983847D01*
X260371446Y-103005471D01*
X260379504Y-103027993D01*
X260385316Y-103051197D01*
X260388826Y-103074858D01*
X260390000Y-103098750D01*
X260390000Y-103586250D01*
X260388826Y-103610142D01*
X260385316Y-103633803D01*
X260379504Y-103657007D01*
X260371446Y-103679529D01*
X260361218Y-103701153D01*
X260348921Y-103721670D01*
X260334671Y-103740883D01*
X260318607Y-103758607D01*
X260300883Y-103774671D01*
X260281670Y-103788921D01*
X260261153Y-103801218D01*
X260239529Y-103811446D01*
X260217007Y-103819504D01*
X260193803Y-103825316D01*
X260170142Y-103828826D01*
X260146250Y-103830000D01*
X259233750Y-103830000D01*
X259209858Y-103828826D01*
X259186197Y-103825316D01*
X259162993Y-103819504D01*
X259140471Y-103811446D01*
X259118847Y-103801218D01*
X259098330Y-103788921D01*
X259079117Y-103774671D01*
X259061393Y-103758607D01*
X259045329Y-103740883D01*
X259031079Y-103721670D01*
X259018782Y-103701153D01*
X259008554Y-103679529D01*
X259000496Y-103657007D01*
X258994684Y-103633803D01*
X258991174Y-103610142D01*
X258990000Y-103586250D01*
X258990000Y-103098750D01*
X258991174Y-103074858D01*
X258994684Y-103051197D01*
X259000496Y-103027993D01*
X259008554Y-103005471D01*
X259018782Y-102983847D01*
X259031079Y-102963330D01*
X259045329Y-102944117D01*
X259061393Y-102926393D01*
X259079117Y-102910329D01*
X259098330Y-102896079D01*
X259118847Y-102883782D01*
X259140471Y-102873554D01*
X259162993Y-102865496D01*
X259186197Y-102859684D01*
X259209858Y-102856174D01*
X259233750Y-102855000D01*
X260146250Y-102855000D01*
X260170142Y-102856174D01*
G37*
G36*
X260170142Y-104731174D02*
G01*
X260193803Y-104734684D01*
X260217007Y-104740496D01*
X260239529Y-104748554D01*
X260261153Y-104758782D01*
X260281670Y-104771079D01*
X260300883Y-104785329D01*
X260318607Y-104801393D01*
X260334671Y-104819117D01*
X260348921Y-104838330D01*
X260361218Y-104858847D01*
X260371446Y-104880471D01*
X260379504Y-104902993D01*
X260385316Y-104926197D01*
X260388826Y-104949858D01*
X260390000Y-104973750D01*
X260390000Y-105461250D01*
X260388826Y-105485142D01*
X260385316Y-105508803D01*
X260379504Y-105532007D01*
X260371446Y-105554529D01*
X260361218Y-105576153D01*
X260348921Y-105596670D01*
X260334671Y-105615883D01*
X260318607Y-105633607D01*
X260300883Y-105649671D01*
X260281670Y-105663921D01*
X260261153Y-105676218D01*
X260239529Y-105686446D01*
X260217007Y-105694504D01*
X260193803Y-105700316D01*
X260170142Y-105703826D01*
X260146250Y-105705000D01*
X259233750Y-105705000D01*
X259209858Y-105703826D01*
X259186197Y-105700316D01*
X259162993Y-105694504D01*
X259140471Y-105686446D01*
X259118847Y-105676218D01*
X259098330Y-105663921D01*
X259079117Y-105649671D01*
X259061393Y-105633607D01*
X259045329Y-105615883D01*
X259031079Y-105596670D01*
X259018782Y-105576153D01*
X259008554Y-105554529D01*
X259000496Y-105532007D01*
X258994684Y-105508803D01*
X258991174Y-105485142D01*
X258990000Y-105461250D01*
X258990000Y-104973750D01*
X258991174Y-104949858D01*
X258994684Y-104926197D01*
X259000496Y-104902993D01*
X259008554Y-104880471D01*
X259018782Y-104858847D01*
X259031079Y-104838330D01*
X259045329Y-104819117D01*
X259061393Y-104801393D01*
X259079117Y-104785329D01*
X259098330Y-104771079D01*
X259118847Y-104758782D01*
X259140471Y-104748554D01*
X259162993Y-104740496D01*
X259186197Y-104734684D01*
X259209858Y-104731174D01*
X259233750Y-104730000D01*
X260146250Y-104730000D01*
X260170142Y-104731174D01*
G37*
G36*
X260170142Y-106666174D02*
G01*
X260193803Y-106669684D01*
X260217007Y-106675496D01*
X260239529Y-106683554D01*
X260261153Y-106693782D01*
X260281670Y-106706079D01*
X260300883Y-106720329D01*
X260318607Y-106736393D01*
X260334671Y-106754117D01*
X260348921Y-106773330D01*
X260361218Y-106793847D01*
X260371446Y-106815471D01*
X260379504Y-106837993D01*
X260385316Y-106861197D01*
X260388826Y-106884858D01*
X260390000Y-106908750D01*
X260390000Y-107396250D01*
X260388826Y-107420142D01*
X260385316Y-107443803D01*
X260379504Y-107467007D01*
X260371446Y-107489529D01*
X260361218Y-107511153D01*
X260348921Y-107531670D01*
X260334671Y-107550883D01*
X260318607Y-107568607D01*
X260300883Y-107584671D01*
X260281670Y-107598921D01*
X260261153Y-107611218D01*
X260239529Y-107621446D01*
X260217007Y-107629504D01*
X260193803Y-107635316D01*
X260170142Y-107638826D01*
X260146250Y-107640000D01*
X259233750Y-107640000D01*
X259209858Y-107638826D01*
X259186197Y-107635316D01*
X259162993Y-107629504D01*
X259140471Y-107621446D01*
X259118847Y-107611218D01*
X259098330Y-107598921D01*
X259079117Y-107584671D01*
X259061393Y-107568607D01*
X259045329Y-107550883D01*
X259031079Y-107531670D01*
X259018782Y-107511153D01*
X259008554Y-107489529D01*
X259000496Y-107467007D01*
X258994684Y-107443803D01*
X258991174Y-107420142D01*
X258990000Y-107396250D01*
X258990000Y-106908750D01*
X258991174Y-106884858D01*
X258994684Y-106861197D01*
X259000496Y-106837993D01*
X259008554Y-106815471D01*
X259018782Y-106793847D01*
X259031079Y-106773330D01*
X259045329Y-106754117D01*
X259061393Y-106736393D01*
X259079117Y-106720329D01*
X259098330Y-106706079D01*
X259118847Y-106693782D01*
X259140471Y-106683554D01*
X259162993Y-106675496D01*
X259186197Y-106669684D01*
X259209858Y-106666174D01*
X259233750Y-106665000D01*
X260146250Y-106665000D01*
X260170142Y-106666174D01*
G37*
G36*
X260170142Y-108541174D02*
G01*
X260193803Y-108544684D01*
X260217007Y-108550496D01*
X260239529Y-108558554D01*
X260261153Y-108568782D01*
X260281670Y-108581079D01*
X260300883Y-108595329D01*
X260318607Y-108611393D01*
X260334671Y-108629117D01*
X260348921Y-108648330D01*
X260361218Y-108668847D01*
X260371446Y-108690471D01*
X260379504Y-108712993D01*
X260385316Y-108736197D01*
X260388826Y-108759858D01*
X260390000Y-108783750D01*
X260390000Y-109271250D01*
X260388826Y-109295142D01*
X260385316Y-109318803D01*
X260379504Y-109342007D01*
X260371446Y-109364529D01*
X260361218Y-109386153D01*
X260348921Y-109406670D01*
X260334671Y-109425883D01*
X260318607Y-109443607D01*
X260300883Y-109459671D01*
X260281670Y-109473921D01*
X260261153Y-109486218D01*
X260239529Y-109496446D01*
X260217007Y-109504504D01*
X260193803Y-109510316D01*
X260170142Y-109513826D01*
X260146250Y-109515000D01*
X259233750Y-109515000D01*
X259209858Y-109513826D01*
X259186197Y-109510316D01*
X259162993Y-109504504D01*
X259140471Y-109496446D01*
X259118847Y-109486218D01*
X259098330Y-109473921D01*
X259079117Y-109459671D01*
X259061393Y-109443607D01*
X259045329Y-109425883D01*
X259031079Y-109406670D01*
X259018782Y-109386153D01*
X259008554Y-109364529D01*
X259000496Y-109342007D01*
X258994684Y-109318803D01*
X258991174Y-109295142D01*
X258990000Y-109271250D01*
X258990000Y-108783750D01*
X258991174Y-108759858D01*
X258994684Y-108736197D01*
X259000496Y-108712993D01*
X259008554Y-108690471D01*
X259018782Y-108668847D01*
X259031079Y-108648330D01*
X259045329Y-108629117D01*
X259061393Y-108611393D01*
X259079117Y-108595329D01*
X259098330Y-108581079D01*
X259118847Y-108568782D01*
X259140471Y-108558554D01*
X259162993Y-108550496D01*
X259186197Y-108544684D01*
X259209858Y-108541174D01*
X259233750Y-108540000D01*
X260146250Y-108540000D01*
X260170142Y-108541174D01*
G37*
G36*
X269354703Y-137635722D02*
G01*
X269369264Y-137637882D01*
X269383543Y-137641459D01*
X269397403Y-137646418D01*
X269410710Y-137652712D01*
X269423336Y-137660280D01*
X269435159Y-137669048D01*
X269446066Y-137678934D01*
X269455952Y-137689841D01*
X269464720Y-137701664D01*
X269472288Y-137714290D01*
X269478582Y-137727597D01*
X269483541Y-137741457D01*
X269487118Y-137755736D01*
X269489278Y-137770297D01*
X269490000Y-137785000D01*
X269490000Y-138085000D01*
X269489278Y-138099703D01*
X269487118Y-138114264D01*
X269483541Y-138128543D01*
X269478582Y-138142403D01*
X269472288Y-138155710D01*
X269464720Y-138168336D01*
X269455952Y-138180159D01*
X269446066Y-138191066D01*
X269435159Y-138200952D01*
X269423336Y-138209720D01*
X269410710Y-138217288D01*
X269397403Y-138223582D01*
X269383543Y-138228541D01*
X269369264Y-138232118D01*
X269354703Y-138234278D01*
X269340000Y-138235000D01*
X267690000Y-138235000D01*
X267675297Y-138234278D01*
X267660736Y-138232118D01*
X267646457Y-138228541D01*
X267632597Y-138223582D01*
X267619290Y-138217288D01*
X267606664Y-138209720D01*
X267594841Y-138200952D01*
X267583934Y-138191066D01*
X267574048Y-138180159D01*
X267565280Y-138168336D01*
X267557712Y-138155710D01*
X267551418Y-138142403D01*
X267546459Y-138128543D01*
X267542882Y-138114264D01*
X267540722Y-138099703D01*
X267540000Y-138085000D01*
X267540000Y-137785000D01*
X267540722Y-137770297D01*
X267542882Y-137755736D01*
X267546459Y-137741457D01*
X267551418Y-137727597D01*
X267557712Y-137714290D01*
X267565280Y-137701664D01*
X267574048Y-137689841D01*
X267583934Y-137678934D01*
X267594841Y-137669048D01*
X267606664Y-137660280D01*
X267619290Y-137652712D01*
X267632597Y-137646418D01*
X267646457Y-137641459D01*
X267660736Y-137637882D01*
X267675297Y-137635722D01*
X267690000Y-137635000D01*
X269340000Y-137635000D01*
X269354703Y-137635722D01*
G37*
G36*
X269354703Y-138905722D02*
G01*
X269369264Y-138907882D01*
X269383543Y-138911459D01*
X269397403Y-138916418D01*
X269410710Y-138922712D01*
X269423336Y-138930280D01*
X269435159Y-138939048D01*
X269446066Y-138948934D01*
X269455952Y-138959841D01*
X269464720Y-138971664D01*
X269472288Y-138984290D01*
X269478582Y-138997597D01*
X269483541Y-139011457D01*
X269487118Y-139025736D01*
X269489278Y-139040297D01*
X269490000Y-139055000D01*
X269490000Y-139355000D01*
X269489278Y-139369703D01*
X269487118Y-139384264D01*
X269483541Y-139398543D01*
X269478582Y-139412403D01*
X269472288Y-139425710D01*
X269464720Y-139438336D01*
X269455952Y-139450159D01*
X269446066Y-139461066D01*
X269435159Y-139470952D01*
X269423336Y-139479720D01*
X269410710Y-139487288D01*
X269397403Y-139493582D01*
X269383543Y-139498541D01*
X269369264Y-139502118D01*
X269354703Y-139504278D01*
X269340000Y-139505000D01*
X267690000Y-139505000D01*
X267675297Y-139504278D01*
X267660736Y-139502118D01*
X267646457Y-139498541D01*
X267632597Y-139493582D01*
X267619290Y-139487288D01*
X267606664Y-139479720D01*
X267594841Y-139470952D01*
X267583934Y-139461066D01*
X267574048Y-139450159D01*
X267565280Y-139438336D01*
X267557712Y-139425710D01*
X267551418Y-139412403D01*
X267546459Y-139398543D01*
X267542882Y-139384264D01*
X267540722Y-139369703D01*
X267540000Y-139355000D01*
X267540000Y-139055000D01*
X267540722Y-139040297D01*
X267542882Y-139025736D01*
X267546459Y-139011457D01*
X267551418Y-138997597D01*
X267557712Y-138984290D01*
X267565280Y-138971664D01*
X267574048Y-138959841D01*
X267583934Y-138948934D01*
X267594841Y-138939048D01*
X267606664Y-138930280D01*
X267619290Y-138922712D01*
X267632597Y-138916418D01*
X267646457Y-138911459D01*
X267660736Y-138907882D01*
X267675297Y-138905722D01*
X267690000Y-138905000D01*
X269340000Y-138905000D01*
X269354703Y-138905722D01*
G37*
G36*
X269354703Y-140175722D02*
G01*
X269369264Y-140177882D01*
X269383543Y-140181459D01*
X269397403Y-140186418D01*
X269410710Y-140192712D01*
X269423336Y-140200280D01*
X269435159Y-140209048D01*
X269446066Y-140218934D01*
X269455952Y-140229841D01*
X269464720Y-140241664D01*
X269472288Y-140254290D01*
X269478582Y-140267597D01*
X269483541Y-140281457D01*
X269487118Y-140295736D01*
X269489278Y-140310297D01*
X269490000Y-140325000D01*
X269490000Y-140625000D01*
X269489278Y-140639703D01*
X269487118Y-140654264D01*
X269483541Y-140668543D01*
X269478582Y-140682403D01*
X269472288Y-140695710D01*
X269464720Y-140708336D01*
X269455952Y-140720159D01*
X269446066Y-140731066D01*
X269435159Y-140740952D01*
X269423336Y-140749720D01*
X269410710Y-140757288D01*
X269397403Y-140763582D01*
X269383543Y-140768541D01*
X269369264Y-140772118D01*
X269354703Y-140774278D01*
X269340000Y-140775000D01*
X267690000Y-140775000D01*
X267675297Y-140774278D01*
X267660736Y-140772118D01*
X267646457Y-140768541D01*
X267632597Y-140763582D01*
X267619290Y-140757288D01*
X267606664Y-140749720D01*
X267594841Y-140740952D01*
X267583934Y-140731066D01*
X267574048Y-140720159D01*
X267565280Y-140708336D01*
X267557712Y-140695710D01*
X267551418Y-140682403D01*
X267546459Y-140668543D01*
X267542882Y-140654264D01*
X267540722Y-140639703D01*
X267540000Y-140625000D01*
X267540000Y-140325000D01*
X267540722Y-140310297D01*
X267542882Y-140295736D01*
X267546459Y-140281457D01*
X267551418Y-140267597D01*
X267557712Y-140254290D01*
X267565280Y-140241664D01*
X267574048Y-140229841D01*
X267583934Y-140218934D01*
X267594841Y-140209048D01*
X267606664Y-140200280D01*
X267619290Y-140192712D01*
X267632597Y-140186418D01*
X267646457Y-140181459D01*
X267660736Y-140177882D01*
X267675297Y-140175722D01*
X267690000Y-140175000D01*
X269340000Y-140175000D01*
X269354703Y-140175722D01*
G37*
G36*
X269354703Y-141445722D02*
G01*
X269369264Y-141447882D01*
X269383543Y-141451459D01*
X269397403Y-141456418D01*
X269410710Y-141462712D01*
X269423336Y-141470280D01*
X269435159Y-141479048D01*
X269446066Y-141488934D01*
X269455952Y-141499841D01*
X269464720Y-141511664D01*
X269472288Y-141524290D01*
X269478582Y-141537597D01*
X269483541Y-141551457D01*
X269487118Y-141565736D01*
X269489278Y-141580297D01*
X269490000Y-141595000D01*
X269490000Y-141895000D01*
X269489278Y-141909703D01*
X269487118Y-141924264D01*
X269483541Y-141938543D01*
X269478582Y-141952403D01*
X269472288Y-141965710D01*
X269464720Y-141978336D01*
X269455952Y-141990159D01*
X269446066Y-142001066D01*
X269435159Y-142010952D01*
X269423336Y-142019720D01*
X269410710Y-142027288D01*
X269397403Y-142033582D01*
X269383543Y-142038541D01*
X269369264Y-142042118D01*
X269354703Y-142044278D01*
X269340000Y-142045000D01*
X267690000Y-142045000D01*
X267675297Y-142044278D01*
X267660736Y-142042118D01*
X267646457Y-142038541D01*
X267632597Y-142033582D01*
X267619290Y-142027288D01*
X267606664Y-142019720D01*
X267594841Y-142010952D01*
X267583934Y-142001066D01*
X267574048Y-141990159D01*
X267565280Y-141978336D01*
X267557712Y-141965710D01*
X267551418Y-141952403D01*
X267546459Y-141938543D01*
X267542882Y-141924264D01*
X267540722Y-141909703D01*
X267540000Y-141895000D01*
X267540000Y-141595000D01*
X267540722Y-141580297D01*
X267542882Y-141565736D01*
X267546459Y-141551457D01*
X267551418Y-141537597D01*
X267557712Y-141524290D01*
X267565280Y-141511664D01*
X267574048Y-141499841D01*
X267583934Y-141488934D01*
X267594841Y-141479048D01*
X267606664Y-141470280D01*
X267619290Y-141462712D01*
X267632597Y-141456418D01*
X267646457Y-141451459D01*
X267660736Y-141447882D01*
X267675297Y-141445722D01*
X267690000Y-141445000D01*
X269340000Y-141445000D01*
X269354703Y-141445722D01*
G37*
G36*
X264404703Y-141445722D02*
G01*
X264419264Y-141447882D01*
X264433543Y-141451459D01*
X264447403Y-141456418D01*
X264460710Y-141462712D01*
X264473336Y-141470280D01*
X264485159Y-141479048D01*
X264496066Y-141488934D01*
X264505952Y-141499841D01*
X264514720Y-141511664D01*
X264522288Y-141524290D01*
X264528582Y-141537597D01*
X264533541Y-141551457D01*
X264537118Y-141565736D01*
X264539278Y-141580297D01*
X264540000Y-141595000D01*
X264540000Y-141895000D01*
X264539278Y-141909703D01*
X264537118Y-141924264D01*
X264533541Y-141938543D01*
X264528582Y-141952403D01*
X264522288Y-141965710D01*
X264514720Y-141978336D01*
X264505952Y-141990159D01*
X264496066Y-142001066D01*
X264485159Y-142010952D01*
X264473336Y-142019720D01*
X264460710Y-142027288D01*
X264447403Y-142033582D01*
X264433543Y-142038541D01*
X264419264Y-142042118D01*
X264404703Y-142044278D01*
X264390000Y-142045000D01*
X262740000Y-142045000D01*
X262725297Y-142044278D01*
X262710736Y-142042118D01*
X262696457Y-142038541D01*
X262682597Y-142033582D01*
X262669290Y-142027288D01*
X262656664Y-142019720D01*
X262644841Y-142010952D01*
X262633934Y-142001066D01*
X262624048Y-141990159D01*
X262615280Y-141978336D01*
X262607712Y-141965710D01*
X262601418Y-141952403D01*
X262596459Y-141938543D01*
X262592882Y-141924264D01*
X262590722Y-141909703D01*
X262590000Y-141895000D01*
X262590000Y-141595000D01*
X262590722Y-141580297D01*
X262592882Y-141565736D01*
X262596459Y-141551457D01*
X262601418Y-141537597D01*
X262607712Y-141524290D01*
X262615280Y-141511664D01*
X262624048Y-141499841D01*
X262633934Y-141488934D01*
X262644841Y-141479048D01*
X262656664Y-141470280D01*
X262669290Y-141462712D01*
X262682597Y-141456418D01*
X262696457Y-141451459D01*
X262710736Y-141447882D01*
X262725297Y-141445722D01*
X262740000Y-141445000D01*
X264390000Y-141445000D01*
X264404703Y-141445722D01*
G37*
G36*
X264404703Y-140175722D02*
G01*
X264419264Y-140177882D01*
X264433543Y-140181459D01*
X264447403Y-140186418D01*
X264460710Y-140192712D01*
X264473336Y-140200280D01*
X264485159Y-140209048D01*
X264496066Y-140218934D01*
X264505952Y-140229841D01*
X264514720Y-140241664D01*
X264522288Y-140254290D01*
X264528582Y-140267597D01*
X264533541Y-140281457D01*
X264537118Y-140295736D01*
X264539278Y-140310297D01*
X264540000Y-140325000D01*
X264540000Y-140625000D01*
X264539278Y-140639703D01*
X264537118Y-140654264D01*
X264533541Y-140668543D01*
X264528582Y-140682403D01*
X264522288Y-140695710D01*
X264514720Y-140708336D01*
X264505952Y-140720159D01*
X264496066Y-140731066D01*
X264485159Y-140740952D01*
X264473336Y-140749720D01*
X264460710Y-140757288D01*
X264447403Y-140763582D01*
X264433543Y-140768541D01*
X264419264Y-140772118D01*
X264404703Y-140774278D01*
X264390000Y-140775000D01*
X262740000Y-140775000D01*
X262725297Y-140774278D01*
X262710736Y-140772118D01*
X262696457Y-140768541D01*
X262682597Y-140763582D01*
X262669290Y-140757288D01*
X262656664Y-140749720D01*
X262644841Y-140740952D01*
X262633934Y-140731066D01*
X262624048Y-140720159D01*
X262615280Y-140708336D01*
X262607712Y-140695710D01*
X262601418Y-140682403D01*
X262596459Y-140668543D01*
X262592882Y-140654264D01*
X262590722Y-140639703D01*
X262590000Y-140625000D01*
X262590000Y-140325000D01*
X262590722Y-140310297D01*
X262592882Y-140295736D01*
X262596459Y-140281457D01*
X262601418Y-140267597D01*
X262607712Y-140254290D01*
X262615280Y-140241664D01*
X262624048Y-140229841D01*
X262633934Y-140218934D01*
X262644841Y-140209048D01*
X262656664Y-140200280D01*
X262669290Y-140192712D01*
X262682597Y-140186418D01*
X262696457Y-140181459D01*
X262710736Y-140177882D01*
X262725297Y-140175722D01*
X262740000Y-140175000D01*
X264390000Y-140175000D01*
X264404703Y-140175722D01*
G37*
G36*
X264404703Y-138905722D02*
G01*
X264419264Y-138907882D01*
X264433543Y-138911459D01*
X264447403Y-138916418D01*
X264460710Y-138922712D01*
X264473336Y-138930280D01*
X264485159Y-138939048D01*
X264496066Y-138948934D01*
X264505952Y-138959841D01*
X264514720Y-138971664D01*
X264522288Y-138984290D01*
X264528582Y-138997597D01*
X264533541Y-139011457D01*
X264537118Y-139025736D01*
X264539278Y-139040297D01*
X264540000Y-139055000D01*
X264540000Y-139355000D01*
X264539278Y-139369703D01*
X264537118Y-139384264D01*
X264533541Y-139398543D01*
X264528582Y-139412403D01*
X264522288Y-139425710D01*
X264514720Y-139438336D01*
X264505952Y-139450159D01*
X264496066Y-139461066D01*
X264485159Y-139470952D01*
X264473336Y-139479720D01*
X264460710Y-139487288D01*
X264447403Y-139493582D01*
X264433543Y-139498541D01*
X264419264Y-139502118D01*
X264404703Y-139504278D01*
X264390000Y-139505000D01*
X262740000Y-139505000D01*
X262725297Y-139504278D01*
X262710736Y-139502118D01*
X262696457Y-139498541D01*
X262682597Y-139493582D01*
X262669290Y-139487288D01*
X262656664Y-139479720D01*
X262644841Y-139470952D01*
X262633934Y-139461066D01*
X262624048Y-139450159D01*
X262615280Y-139438336D01*
X262607712Y-139425710D01*
X262601418Y-139412403D01*
X262596459Y-139398543D01*
X262592882Y-139384264D01*
X262590722Y-139369703D01*
X262590000Y-139355000D01*
X262590000Y-139055000D01*
X262590722Y-139040297D01*
X262592882Y-139025736D01*
X262596459Y-139011457D01*
X262601418Y-138997597D01*
X262607712Y-138984290D01*
X262615280Y-138971664D01*
X262624048Y-138959841D01*
X262633934Y-138948934D01*
X262644841Y-138939048D01*
X262656664Y-138930280D01*
X262669290Y-138922712D01*
X262682597Y-138916418D01*
X262696457Y-138911459D01*
X262710736Y-138907882D01*
X262725297Y-138905722D01*
X262740000Y-138905000D01*
X264390000Y-138905000D01*
X264404703Y-138905722D01*
G37*
G36*
X264404703Y-137635722D02*
G01*
X264419264Y-137637882D01*
X264433543Y-137641459D01*
X264447403Y-137646418D01*
X264460710Y-137652712D01*
X264473336Y-137660280D01*
X264485159Y-137669048D01*
X264496066Y-137678934D01*
X264505952Y-137689841D01*
X264514720Y-137701664D01*
X264522288Y-137714290D01*
X264528582Y-137727597D01*
X264533541Y-137741457D01*
X264537118Y-137755736D01*
X264539278Y-137770297D01*
X264540000Y-137785000D01*
X264540000Y-138085000D01*
X264539278Y-138099703D01*
X264537118Y-138114264D01*
X264533541Y-138128543D01*
X264528582Y-138142403D01*
X264522288Y-138155710D01*
X264514720Y-138168336D01*
X264505952Y-138180159D01*
X264496066Y-138191066D01*
X264485159Y-138200952D01*
X264473336Y-138209720D01*
X264460710Y-138217288D01*
X264447403Y-138223582D01*
X264433543Y-138228541D01*
X264419264Y-138232118D01*
X264404703Y-138234278D01*
X264390000Y-138235000D01*
X262740000Y-138235000D01*
X262725297Y-138234278D01*
X262710736Y-138232118D01*
X262696457Y-138228541D01*
X262682597Y-138223582D01*
X262669290Y-138217288D01*
X262656664Y-138209720D01*
X262644841Y-138200952D01*
X262633934Y-138191066D01*
X262624048Y-138180159D01*
X262615280Y-138168336D01*
X262607712Y-138155710D01*
X262601418Y-138142403D01*
X262596459Y-138128543D01*
X262592882Y-138114264D01*
X262590722Y-138099703D01*
X262590000Y-138085000D01*
X262590000Y-137785000D01*
X262590722Y-137770297D01*
X262592882Y-137755736D01*
X262596459Y-137741457D01*
X262601418Y-137727597D01*
X262607712Y-137714290D01*
X262615280Y-137701664D01*
X262624048Y-137689841D01*
X262633934Y-137678934D01*
X262644841Y-137669048D01*
X262656664Y-137660280D01*
X262669290Y-137652712D01*
X262682597Y-137646418D01*
X262696457Y-137641459D01*
X262710736Y-137637882D01*
X262725297Y-137635722D01*
X262740000Y-137635000D01*
X264390000Y-137635000D01*
X264404703Y-137635722D01*
G37*
G36*
X269354703Y-126205722D02*
G01*
X269369264Y-126207882D01*
X269383543Y-126211459D01*
X269397403Y-126216418D01*
X269410710Y-126222712D01*
X269423336Y-126230280D01*
X269435159Y-126239048D01*
X269446066Y-126248934D01*
X269455952Y-126259841D01*
X269464720Y-126271664D01*
X269472288Y-126284290D01*
X269478582Y-126297597D01*
X269483541Y-126311457D01*
X269487118Y-126325736D01*
X269489278Y-126340297D01*
X269490000Y-126355000D01*
X269490000Y-126655000D01*
X269489278Y-126669703D01*
X269487118Y-126684264D01*
X269483541Y-126698543D01*
X269478582Y-126712403D01*
X269472288Y-126725710D01*
X269464720Y-126738336D01*
X269455952Y-126750159D01*
X269446066Y-126761066D01*
X269435159Y-126770952D01*
X269423336Y-126779720D01*
X269410710Y-126787288D01*
X269397403Y-126793582D01*
X269383543Y-126798541D01*
X269369264Y-126802118D01*
X269354703Y-126804278D01*
X269340000Y-126805000D01*
X267690000Y-126805000D01*
X267675297Y-126804278D01*
X267660736Y-126802118D01*
X267646457Y-126798541D01*
X267632597Y-126793582D01*
X267619290Y-126787288D01*
X267606664Y-126779720D01*
X267594841Y-126770952D01*
X267583934Y-126761066D01*
X267574048Y-126750159D01*
X267565280Y-126738336D01*
X267557712Y-126725710D01*
X267551418Y-126712403D01*
X267546459Y-126698543D01*
X267542882Y-126684264D01*
X267540722Y-126669703D01*
X267540000Y-126655000D01*
X267540000Y-126355000D01*
X267540722Y-126340297D01*
X267542882Y-126325736D01*
X267546459Y-126311457D01*
X267551418Y-126297597D01*
X267557712Y-126284290D01*
X267565280Y-126271664D01*
X267574048Y-126259841D01*
X267583934Y-126248934D01*
X267594841Y-126239048D01*
X267606664Y-126230280D01*
X267619290Y-126222712D01*
X267632597Y-126216418D01*
X267646457Y-126211459D01*
X267660736Y-126207882D01*
X267675297Y-126205722D01*
X267690000Y-126205000D01*
X269340000Y-126205000D01*
X269354703Y-126205722D01*
G37*
G36*
X269354703Y-127475722D02*
G01*
X269369264Y-127477882D01*
X269383543Y-127481459D01*
X269397403Y-127486418D01*
X269410710Y-127492712D01*
X269423336Y-127500280D01*
X269435159Y-127509048D01*
X269446066Y-127518934D01*
X269455952Y-127529841D01*
X269464720Y-127541664D01*
X269472288Y-127554290D01*
X269478582Y-127567597D01*
X269483541Y-127581457D01*
X269487118Y-127595736D01*
X269489278Y-127610297D01*
X269490000Y-127625000D01*
X269490000Y-127925000D01*
X269489278Y-127939703D01*
X269487118Y-127954264D01*
X269483541Y-127968543D01*
X269478582Y-127982403D01*
X269472288Y-127995710D01*
X269464720Y-128008336D01*
X269455952Y-128020159D01*
X269446066Y-128031066D01*
X269435159Y-128040952D01*
X269423336Y-128049720D01*
X269410710Y-128057288D01*
X269397403Y-128063582D01*
X269383543Y-128068541D01*
X269369264Y-128072118D01*
X269354703Y-128074278D01*
X269340000Y-128075000D01*
X267690000Y-128075000D01*
X267675297Y-128074278D01*
X267660736Y-128072118D01*
X267646457Y-128068541D01*
X267632597Y-128063582D01*
X267619290Y-128057288D01*
X267606664Y-128049720D01*
X267594841Y-128040952D01*
X267583934Y-128031066D01*
X267574048Y-128020159D01*
X267565280Y-128008336D01*
X267557712Y-127995710D01*
X267551418Y-127982403D01*
X267546459Y-127968543D01*
X267542882Y-127954264D01*
X267540722Y-127939703D01*
X267540000Y-127925000D01*
X267540000Y-127625000D01*
X267540722Y-127610297D01*
X267542882Y-127595736D01*
X267546459Y-127581457D01*
X267551418Y-127567597D01*
X267557712Y-127554290D01*
X267565280Y-127541664D01*
X267574048Y-127529841D01*
X267583934Y-127518934D01*
X267594841Y-127509048D01*
X267606664Y-127500280D01*
X267619290Y-127492712D01*
X267632597Y-127486418D01*
X267646457Y-127481459D01*
X267660736Y-127477882D01*
X267675297Y-127475722D01*
X267690000Y-127475000D01*
X269340000Y-127475000D01*
X269354703Y-127475722D01*
G37*
G36*
X269354703Y-128745722D02*
G01*
X269369264Y-128747882D01*
X269383543Y-128751459D01*
X269397403Y-128756418D01*
X269410710Y-128762712D01*
X269423336Y-128770280D01*
X269435159Y-128779048D01*
X269446066Y-128788934D01*
X269455952Y-128799841D01*
X269464720Y-128811664D01*
X269472288Y-128824290D01*
X269478582Y-128837597D01*
X269483541Y-128851457D01*
X269487118Y-128865736D01*
X269489278Y-128880297D01*
X269490000Y-128895000D01*
X269490000Y-129195000D01*
X269489278Y-129209703D01*
X269487118Y-129224264D01*
X269483541Y-129238543D01*
X269478582Y-129252403D01*
X269472288Y-129265710D01*
X269464720Y-129278336D01*
X269455952Y-129290159D01*
X269446066Y-129301066D01*
X269435159Y-129310952D01*
X269423336Y-129319720D01*
X269410710Y-129327288D01*
X269397403Y-129333582D01*
X269383543Y-129338541D01*
X269369264Y-129342118D01*
X269354703Y-129344278D01*
X269340000Y-129345000D01*
X267690000Y-129345000D01*
X267675297Y-129344278D01*
X267660736Y-129342118D01*
X267646457Y-129338541D01*
X267632597Y-129333582D01*
X267619290Y-129327288D01*
X267606664Y-129319720D01*
X267594841Y-129310952D01*
X267583934Y-129301066D01*
X267574048Y-129290159D01*
X267565280Y-129278336D01*
X267557712Y-129265710D01*
X267551418Y-129252403D01*
X267546459Y-129238543D01*
X267542882Y-129224264D01*
X267540722Y-129209703D01*
X267540000Y-129195000D01*
X267540000Y-128895000D01*
X267540722Y-128880297D01*
X267542882Y-128865736D01*
X267546459Y-128851457D01*
X267551418Y-128837597D01*
X267557712Y-128824290D01*
X267565280Y-128811664D01*
X267574048Y-128799841D01*
X267583934Y-128788934D01*
X267594841Y-128779048D01*
X267606664Y-128770280D01*
X267619290Y-128762712D01*
X267632597Y-128756418D01*
X267646457Y-128751459D01*
X267660736Y-128747882D01*
X267675297Y-128745722D01*
X267690000Y-128745000D01*
X269340000Y-128745000D01*
X269354703Y-128745722D01*
G37*
G36*
X269354703Y-130015722D02*
G01*
X269369264Y-130017882D01*
X269383543Y-130021459D01*
X269397403Y-130026418D01*
X269410710Y-130032712D01*
X269423336Y-130040280D01*
X269435159Y-130049048D01*
X269446066Y-130058934D01*
X269455952Y-130069841D01*
X269464720Y-130081664D01*
X269472288Y-130094290D01*
X269478582Y-130107597D01*
X269483541Y-130121457D01*
X269487118Y-130135736D01*
X269489278Y-130150297D01*
X269490000Y-130165000D01*
X269490000Y-130465000D01*
X269489278Y-130479703D01*
X269487118Y-130494264D01*
X269483541Y-130508543D01*
X269478582Y-130522403D01*
X269472288Y-130535710D01*
X269464720Y-130548336D01*
X269455952Y-130560159D01*
X269446066Y-130571066D01*
X269435159Y-130580952D01*
X269423336Y-130589720D01*
X269410710Y-130597288D01*
X269397403Y-130603582D01*
X269383543Y-130608541D01*
X269369264Y-130612118D01*
X269354703Y-130614278D01*
X269340000Y-130615000D01*
X267690000Y-130615000D01*
X267675297Y-130614278D01*
X267660736Y-130612118D01*
X267646457Y-130608541D01*
X267632597Y-130603582D01*
X267619290Y-130597288D01*
X267606664Y-130589720D01*
X267594841Y-130580952D01*
X267583934Y-130571066D01*
X267574048Y-130560159D01*
X267565280Y-130548336D01*
X267557712Y-130535710D01*
X267551418Y-130522403D01*
X267546459Y-130508543D01*
X267542882Y-130494264D01*
X267540722Y-130479703D01*
X267540000Y-130465000D01*
X267540000Y-130165000D01*
X267540722Y-130150297D01*
X267542882Y-130135736D01*
X267546459Y-130121457D01*
X267551418Y-130107597D01*
X267557712Y-130094290D01*
X267565280Y-130081664D01*
X267574048Y-130069841D01*
X267583934Y-130058934D01*
X267594841Y-130049048D01*
X267606664Y-130040280D01*
X267619290Y-130032712D01*
X267632597Y-130026418D01*
X267646457Y-130021459D01*
X267660736Y-130017882D01*
X267675297Y-130015722D01*
X267690000Y-130015000D01*
X269340000Y-130015000D01*
X269354703Y-130015722D01*
G37*
G36*
X264404703Y-130015722D02*
G01*
X264419264Y-130017882D01*
X264433543Y-130021459D01*
X264447403Y-130026418D01*
X264460710Y-130032712D01*
X264473336Y-130040280D01*
X264485159Y-130049048D01*
X264496066Y-130058934D01*
X264505952Y-130069841D01*
X264514720Y-130081664D01*
X264522288Y-130094290D01*
X264528582Y-130107597D01*
X264533541Y-130121457D01*
X264537118Y-130135736D01*
X264539278Y-130150297D01*
X264540000Y-130165000D01*
X264540000Y-130465000D01*
X264539278Y-130479703D01*
X264537118Y-130494264D01*
X264533541Y-130508543D01*
X264528582Y-130522403D01*
X264522288Y-130535710D01*
X264514720Y-130548336D01*
X264505952Y-130560159D01*
X264496066Y-130571066D01*
X264485159Y-130580952D01*
X264473336Y-130589720D01*
X264460710Y-130597288D01*
X264447403Y-130603582D01*
X264433543Y-130608541D01*
X264419264Y-130612118D01*
X264404703Y-130614278D01*
X264390000Y-130615000D01*
X262740000Y-130615000D01*
X262725297Y-130614278D01*
X262710736Y-130612118D01*
X262696457Y-130608541D01*
X262682597Y-130603582D01*
X262669290Y-130597288D01*
X262656664Y-130589720D01*
X262644841Y-130580952D01*
X262633934Y-130571066D01*
X262624048Y-130560159D01*
X262615280Y-130548336D01*
X262607712Y-130535710D01*
X262601418Y-130522403D01*
X262596459Y-130508543D01*
X262592882Y-130494264D01*
X262590722Y-130479703D01*
X262590000Y-130465000D01*
X262590000Y-130165000D01*
X262590722Y-130150297D01*
X262592882Y-130135736D01*
X262596459Y-130121457D01*
X262601418Y-130107597D01*
X262607712Y-130094290D01*
X262615280Y-130081664D01*
X262624048Y-130069841D01*
X262633934Y-130058934D01*
X262644841Y-130049048D01*
X262656664Y-130040280D01*
X262669290Y-130032712D01*
X262682597Y-130026418D01*
X262696457Y-130021459D01*
X262710736Y-130017882D01*
X262725297Y-130015722D01*
X262740000Y-130015000D01*
X264390000Y-130015000D01*
X264404703Y-130015722D01*
G37*
G36*
X264404703Y-128745722D02*
G01*
X264419264Y-128747882D01*
X264433543Y-128751459D01*
X264447403Y-128756418D01*
X264460710Y-128762712D01*
X264473336Y-128770280D01*
X264485159Y-128779048D01*
X264496066Y-128788934D01*
X264505952Y-128799841D01*
X264514720Y-128811664D01*
X264522288Y-128824290D01*
X264528582Y-128837597D01*
X264533541Y-128851457D01*
X264537118Y-128865736D01*
X264539278Y-128880297D01*
X264540000Y-128895000D01*
X264540000Y-129195000D01*
X264539278Y-129209703D01*
X264537118Y-129224264D01*
X264533541Y-129238543D01*
X264528582Y-129252403D01*
X264522288Y-129265710D01*
X264514720Y-129278336D01*
X264505952Y-129290159D01*
X264496066Y-129301066D01*
X264485159Y-129310952D01*
X264473336Y-129319720D01*
X264460710Y-129327288D01*
X264447403Y-129333582D01*
X264433543Y-129338541D01*
X264419264Y-129342118D01*
X264404703Y-129344278D01*
X264390000Y-129345000D01*
X262740000Y-129345000D01*
X262725297Y-129344278D01*
X262710736Y-129342118D01*
X262696457Y-129338541D01*
X262682597Y-129333582D01*
X262669290Y-129327288D01*
X262656664Y-129319720D01*
X262644841Y-129310952D01*
X262633934Y-129301066D01*
X262624048Y-129290159D01*
X262615280Y-129278336D01*
X262607712Y-129265710D01*
X262601418Y-129252403D01*
X262596459Y-129238543D01*
X262592882Y-129224264D01*
X262590722Y-129209703D01*
X262590000Y-129195000D01*
X262590000Y-128895000D01*
X262590722Y-128880297D01*
X262592882Y-128865736D01*
X262596459Y-128851457D01*
X262601418Y-128837597D01*
X262607712Y-128824290D01*
X262615280Y-128811664D01*
X262624048Y-128799841D01*
X262633934Y-128788934D01*
X262644841Y-128779048D01*
X262656664Y-128770280D01*
X262669290Y-128762712D01*
X262682597Y-128756418D01*
X262696457Y-128751459D01*
X262710736Y-128747882D01*
X262725297Y-128745722D01*
X262740000Y-128745000D01*
X264390000Y-128745000D01*
X264404703Y-128745722D01*
G37*
G36*
X264404703Y-127475722D02*
G01*
X264419264Y-127477882D01*
X264433543Y-127481459D01*
X264447403Y-127486418D01*
X264460710Y-127492712D01*
X264473336Y-127500280D01*
X264485159Y-127509048D01*
X264496066Y-127518934D01*
X264505952Y-127529841D01*
X264514720Y-127541664D01*
X264522288Y-127554290D01*
X264528582Y-127567597D01*
X264533541Y-127581457D01*
X264537118Y-127595736D01*
X264539278Y-127610297D01*
X264540000Y-127625000D01*
X264540000Y-127925000D01*
X264539278Y-127939703D01*
X264537118Y-127954264D01*
X264533541Y-127968543D01*
X264528582Y-127982403D01*
X264522288Y-127995710D01*
X264514720Y-128008336D01*
X264505952Y-128020159D01*
X264496066Y-128031066D01*
X264485159Y-128040952D01*
X264473336Y-128049720D01*
X264460710Y-128057288D01*
X264447403Y-128063582D01*
X264433543Y-128068541D01*
X264419264Y-128072118D01*
X264404703Y-128074278D01*
X264390000Y-128075000D01*
X262740000Y-128075000D01*
X262725297Y-128074278D01*
X262710736Y-128072118D01*
X262696457Y-128068541D01*
X262682597Y-128063582D01*
X262669290Y-128057288D01*
X262656664Y-128049720D01*
X262644841Y-128040952D01*
X262633934Y-128031066D01*
X262624048Y-128020159D01*
X262615280Y-128008336D01*
X262607712Y-127995710D01*
X262601418Y-127982403D01*
X262596459Y-127968543D01*
X262592882Y-127954264D01*
X262590722Y-127939703D01*
X262590000Y-127925000D01*
X262590000Y-127625000D01*
X262590722Y-127610297D01*
X262592882Y-127595736D01*
X262596459Y-127581457D01*
X262601418Y-127567597D01*
X262607712Y-127554290D01*
X262615280Y-127541664D01*
X262624048Y-127529841D01*
X262633934Y-127518934D01*
X262644841Y-127509048D01*
X262656664Y-127500280D01*
X262669290Y-127492712D01*
X262682597Y-127486418D01*
X262696457Y-127481459D01*
X262710736Y-127477882D01*
X262725297Y-127475722D01*
X262740000Y-127475000D01*
X264390000Y-127475000D01*
X264404703Y-127475722D01*
G37*
G36*
X264404703Y-126205722D02*
G01*
X264419264Y-126207882D01*
X264433543Y-126211459D01*
X264447403Y-126216418D01*
X264460710Y-126222712D01*
X264473336Y-126230280D01*
X264485159Y-126239048D01*
X264496066Y-126248934D01*
X264505952Y-126259841D01*
X264514720Y-126271664D01*
X264522288Y-126284290D01*
X264528582Y-126297597D01*
X264533541Y-126311457D01*
X264537118Y-126325736D01*
X264539278Y-126340297D01*
X264540000Y-126355000D01*
X264540000Y-126655000D01*
X264539278Y-126669703D01*
X264537118Y-126684264D01*
X264533541Y-126698543D01*
X264528582Y-126712403D01*
X264522288Y-126725710D01*
X264514720Y-126738336D01*
X264505952Y-126750159D01*
X264496066Y-126761066D01*
X264485159Y-126770952D01*
X264473336Y-126779720D01*
X264460710Y-126787288D01*
X264447403Y-126793582D01*
X264433543Y-126798541D01*
X264419264Y-126802118D01*
X264404703Y-126804278D01*
X264390000Y-126805000D01*
X262740000Y-126805000D01*
X262725297Y-126804278D01*
X262710736Y-126802118D01*
X262696457Y-126798541D01*
X262682597Y-126793582D01*
X262669290Y-126787288D01*
X262656664Y-126779720D01*
X262644841Y-126770952D01*
X262633934Y-126761066D01*
X262624048Y-126750159D01*
X262615280Y-126738336D01*
X262607712Y-126725710D01*
X262601418Y-126712403D01*
X262596459Y-126698543D01*
X262592882Y-126684264D01*
X262590722Y-126669703D01*
X262590000Y-126655000D01*
X262590000Y-126355000D01*
X262590722Y-126340297D01*
X262592882Y-126325736D01*
X262596459Y-126311457D01*
X262601418Y-126297597D01*
X262607712Y-126284290D01*
X262615280Y-126271664D01*
X262624048Y-126259841D01*
X262633934Y-126248934D01*
X262644841Y-126239048D01*
X262656664Y-126230280D01*
X262669290Y-126222712D01*
X262682597Y-126216418D01*
X262696457Y-126211459D01*
X262710736Y-126207882D01*
X262725297Y-126205722D01*
X262740000Y-126205000D01*
X264390000Y-126205000D01*
X264404703Y-126205722D01*
G37*
G36*
X269354703Y-113605722D02*
G01*
X269369264Y-113607882D01*
X269383543Y-113611459D01*
X269397403Y-113616418D01*
X269410710Y-113622712D01*
X269423336Y-113630280D01*
X269435159Y-113639048D01*
X269446066Y-113648934D01*
X269455952Y-113659841D01*
X269464720Y-113671664D01*
X269472288Y-113684290D01*
X269478582Y-113697597D01*
X269483541Y-113711457D01*
X269487118Y-113725736D01*
X269489278Y-113740297D01*
X269490000Y-113755000D01*
X269490000Y-114055000D01*
X269489278Y-114069703D01*
X269487118Y-114084264D01*
X269483541Y-114098543D01*
X269478582Y-114112403D01*
X269472288Y-114125710D01*
X269464720Y-114138336D01*
X269455952Y-114150159D01*
X269446066Y-114161066D01*
X269435159Y-114170952D01*
X269423336Y-114179720D01*
X269410710Y-114187288D01*
X269397403Y-114193582D01*
X269383543Y-114198541D01*
X269369264Y-114202118D01*
X269354703Y-114204278D01*
X269340000Y-114205000D01*
X267690000Y-114205000D01*
X267675297Y-114204278D01*
X267660736Y-114202118D01*
X267646457Y-114198541D01*
X267632597Y-114193582D01*
X267619290Y-114187288D01*
X267606664Y-114179720D01*
X267594841Y-114170952D01*
X267583934Y-114161066D01*
X267574048Y-114150159D01*
X267565280Y-114138336D01*
X267557712Y-114125710D01*
X267551418Y-114112403D01*
X267546459Y-114098543D01*
X267542882Y-114084264D01*
X267540722Y-114069703D01*
X267540000Y-114055000D01*
X267540000Y-113755000D01*
X267540722Y-113740297D01*
X267542882Y-113725736D01*
X267546459Y-113711457D01*
X267551418Y-113697597D01*
X267557712Y-113684290D01*
X267565280Y-113671664D01*
X267574048Y-113659841D01*
X267583934Y-113648934D01*
X267594841Y-113639048D01*
X267606664Y-113630280D01*
X267619290Y-113622712D01*
X267632597Y-113616418D01*
X267646457Y-113611459D01*
X267660736Y-113607882D01*
X267675297Y-113605722D01*
X267690000Y-113605000D01*
X269340000Y-113605000D01*
X269354703Y-113605722D01*
G37*
G36*
X269354703Y-114875722D02*
G01*
X269369264Y-114877882D01*
X269383543Y-114881459D01*
X269397403Y-114886418D01*
X269410710Y-114892712D01*
X269423336Y-114900280D01*
X269435159Y-114909048D01*
X269446066Y-114918934D01*
X269455952Y-114929841D01*
X269464720Y-114941664D01*
X269472288Y-114954290D01*
X269478582Y-114967597D01*
X269483541Y-114981457D01*
X269487118Y-114995736D01*
X269489278Y-115010297D01*
X269490000Y-115025000D01*
X269490000Y-115325000D01*
X269489278Y-115339703D01*
X269487118Y-115354264D01*
X269483541Y-115368543D01*
X269478582Y-115382403D01*
X269472288Y-115395710D01*
X269464720Y-115408336D01*
X269455952Y-115420159D01*
X269446066Y-115431066D01*
X269435159Y-115440952D01*
X269423336Y-115449720D01*
X269410710Y-115457288D01*
X269397403Y-115463582D01*
X269383543Y-115468541D01*
X269369264Y-115472118D01*
X269354703Y-115474278D01*
X269340000Y-115475000D01*
X267690000Y-115475000D01*
X267675297Y-115474278D01*
X267660736Y-115472118D01*
X267646457Y-115468541D01*
X267632597Y-115463582D01*
X267619290Y-115457288D01*
X267606664Y-115449720D01*
X267594841Y-115440952D01*
X267583934Y-115431066D01*
X267574048Y-115420159D01*
X267565280Y-115408336D01*
X267557712Y-115395710D01*
X267551418Y-115382403D01*
X267546459Y-115368543D01*
X267542882Y-115354264D01*
X267540722Y-115339703D01*
X267540000Y-115325000D01*
X267540000Y-115025000D01*
X267540722Y-115010297D01*
X267542882Y-114995736D01*
X267546459Y-114981457D01*
X267551418Y-114967597D01*
X267557712Y-114954290D01*
X267565280Y-114941664D01*
X267574048Y-114929841D01*
X267583934Y-114918934D01*
X267594841Y-114909048D01*
X267606664Y-114900280D01*
X267619290Y-114892712D01*
X267632597Y-114886418D01*
X267646457Y-114881459D01*
X267660736Y-114877882D01*
X267675297Y-114875722D01*
X267690000Y-114875000D01*
X269340000Y-114875000D01*
X269354703Y-114875722D01*
G37*
G36*
X269354703Y-116145722D02*
G01*
X269369264Y-116147882D01*
X269383543Y-116151459D01*
X269397403Y-116156418D01*
X269410710Y-116162712D01*
X269423336Y-116170280D01*
X269435159Y-116179048D01*
X269446066Y-116188934D01*
X269455952Y-116199841D01*
X269464720Y-116211664D01*
X269472288Y-116224290D01*
X269478582Y-116237597D01*
X269483541Y-116251457D01*
X269487118Y-116265736D01*
X269489278Y-116280297D01*
X269490000Y-116295000D01*
X269490000Y-116595000D01*
X269489278Y-116609703D01*
X269487118Y-116624264D01*
X269483541Y-116638543D01*
X269478582Y-116652403D01*
X269472288Y-116665710D01*
X269464720Y-116678336D01*
X269455952Y-116690159D01*
X269446066Y-116701066D01*
X269435159Y-116710952D01*
X269423336Y-116719720D01*
X269410710Y-116727288D01*
X269397403Y-116733582D01*
X269383543Y-116738541D01*
X269369264Y-116742118D01*
X269354703Y-116744278D01*
X269340000Y-116745000D01*
X267690000Y-116745000D01*
X267675297Y-116744278D01*
X267660736Y-116742118D01*
X267646457Y-116738541D01*
X267632597Y-116733582D01*
X267619290Y-116727288D01*
X267606664Y-116719720D01*
X267594841Y-116710952D01*
X267583934Y-116701066D01*
X267574048Y-116690159D01*
X267565280Y-116678336D01*
X267557712Y-116665710D01*
X267551418Y-116652403D01*
X267546459Y-116638543D01*
X267542882Y-116624264D01*
X267540722Y-116609703D01*
X267540000Y-116595000D01*
X267540000Y-116295000D01*
X267540722Y-116280297D01*
X267542882Y-116265736D01*
X267546459Y-116251457D01*
X267551418Y-116237597D01*
X267557712Y-116224290D01*
X267565280Y-116211664D01*
X267574048Y-116199841D01*
X267583934Y-116188934D01*
X267594841Y-116179048D01*
X267606664Y-116170280D01*
X267619290Y-116162712D01*
X267632597Y-116156418D01*
X267646457Y-116151459D01*
X267660736Y-116147882D01*
X267675297Y-116145722D01*
X267690000Y-116145000D01*
X269340000Y-116145000D01*
X269354703Y-116145722D01*
G37*
G36*
X269354703Y-117415722D02*
G01*
X269369264Y-117417882D01*
X269383543Y-117421459D01*
X269397403Y-117426418D01*
X269410710Y-117432712D01*
X269423336Y-117440280D01*
X269435159Y-117449048D01*
X269446066Y-117458934D01*
X269455952Y-117469841D01*
X269464720Y-117481664D01*
X269472288Y-117494290D01*
X269478582Y-117507597D01*
X269483541Y-117521457D01*
X269487118Y-117535736D01*
X269489278Y-117550297D01*
X269490000Y-117565000D01*
X269490000Y-117865000D01*
X269489278Y-117879703D01*
X269487118Y-117894264D01*
X269483541Y-117908543D01*
X269478582Y-117922403D01*
X269472288Y-117935710D01*
X269464720Y-117948336D01*
X269455952Y-117960159D01*
X269446066Y-117971066D01*
X269435159Y-117980952D01*
X269423336Y-117989720D01*
X269410710Y-117997288D01*
X269397403Y-118003582D01*
X269383543Y-118008541D01*
X269369264Y-118012118D01*
X269354703Y-118014278D01*
X269340000Y-118015000D01*
X267690000Y-118015000D01*
X267675297Y-118014278D01*
X267660736Y-118012118D01*
X267646457Y-118008541D01*
X267632597Y-118003582D01*
X267619290Y-117997288D01*
X267606664Y-117989720D01*
X267594841Y-117980952D01*
X267583934Y-117971066D01*
X267574048Y-117960159D01*
X267565280Y-117948336D01*
X267557712Y-117935710D01*
X267551418Y-117922403D01*
X267546459Y-117908543D01*
X267542882Y-117894264D01*
X267540722Y-117879703D01*
X267540000Y-117865000D01*
X267540000Y-117565000D01*
X267540722Y-117550297D01*
X267542882Y-117535736D01*
X267546459Y-117521457D01*
X267551418Y-117507597D01*
X267557712Y-117494290D01*
X267565280Y-117481664D01*
X267574048Y-117469841D01*
X267583934Y-117458934D01*
X267594841Y-117449048D01*
X267606664Y-117440280D01*
X267619290Y-117432712D01*
X267632597Y-117426418D01*
X267646457Y-117421459D01*
X267660736Y-117417882D01*
X267675297Y-117415722D01*
X267690000Y-117415000D01*
X269340000Y-117415000D01*
X269354703Y-117415722D01*
G37*
G36*
X264404703Y-117415722D02*
G01*
X264419264Y-117417882D01*
X264433543Y-117421459D01*
X264447403Y-117426418D01*
X264460710Y-117432712D01*
X264473336Y-117440280D01*
X264485159Y-117449048D01*
X264496066Y-117458934D01*
X264505952Y-117469841D01*
X264514720Y-117481664D01*
X264522288Y-117494290D01*
X264528582Y-117507597D01*
X264533541Y-117521457D01*
X264537118Y-117535736D01*
X264539278Y-117550297D01*
X264540000Y-117565000D01*
X264540000Y-117865000D01*
X264539278Y-117879703D01*
X264537118Y-117894264D01*
X264533541Y-117908543D01*
X264528582Y-117922403D01*
X264522288Y-117935710D01*
X264514720Y-117948336D01*
X264505952Y-117960159D01*
X264496066Y-117971066D01*
X264485159Y-117980952D01*
X264473336Y-117989720D01*
X264460710Y-117997288D01*
X264447403Y-118003582D01*
X264433543Y-118008541D01*
X264419264Y-118012118D01*
X264404703Y-118014278D01*
X264390000Y-118015000D01*
X262740000Y-118015000D01*
X262725297Y-118014278D01*
X262710736Y-118012118D01*
X262696457Y-118008541D01*
X262682597Y-118003582D01*
X262669290Y-117997288D01*
X262656664Y-117989720D01*
X262644841Y-117980952D01*
X262633934Y-117971066D01*
X262624048Y-117960159D01*
X262615280Y-117948336D01*
X262607712Y-117935710D01*
X262601418Y-117922403D01*
X262596459Y-117908543D01*
X262592882Y-117894264D01*
X262590722Y-117879703D01*
X262590000Y-117865000D01*
X262590000Y-117565000D01*
X262590722Y-117550297D01*
X262592882Y-117535736D01*
X262596459Y-117521457D01*
X262601418Y-117507597D01*
X262607712Y-117494290D01*
X262615280Y-117481664D01*
X262624048Y-117469841D01*
X262633934Y-117458934D01*
X262644841Y-117449048D01*
X262656664Y-117440280D01*
X262669290Y-117432712D01*
X262682597Y-117426418D01*
X262696457Y-117421459D01*
X262710736Y-117417882D01*
X262725297Y-117415722D01*
X262740000Y-117415000D01*
X264390000Y-117415000D01*
X264404703Y-117415722D01*
G37*
G36*
X264404703Y-116145722D02*
G01*
X264419264Y-116147882D01*
X264433543Y-116151459D01*
X264447403Y-116156418D01*
X264460710Y-116162712D01*
X264473336Y-116170280D01*
X264485159Y-116179048D01*
X264496066Y-116188934D01*
X264505952Y-116199841D01*
X264514720Y-116211664D01*
X264522288Y-116224290D01*
X264528582Y-116237597D01*
X264533541Y-116251457D01*
X264537118Y-116265736D01*
X264539278Y-116280297D01*
X264540000Y-116295000D01*
X264540000Y-116595000D01*
X264539278Y-116609703D01*
X264537118Y-116624264D01*
X264533541Y-116638543D01*
X264528582Y-116652403D01*
X264522288Y-116665710D01*
X264514720Y-116678336D01*
X264505952Y-116690159D01*
X264496066Y-116701066D01*
X264485159Y-116710952D01*
X264473336Y-116719720D01*
X264460710Y-116727288D01*
X264447403Y-116733582D01*
X264433543Y-116738541D01*
X264419264Y-116742118D01*
X264404703Y-116744278D01*
X264390000Y-116745000D01*
X262740000Y-116745000D01*
X262725297Y-116744278D01*
X262710736Y-116742118D01*
X262696457Y-116738541D01*
X262682597Y-116733582D01*
X262669290Y-116727288D01*
X262656664Y-116719720D01*
X262644841Y-116710952D01*
X262633934Y-116701066D01*
X262624048Y-116690159D01*
X262615280Y-116678336D01*
X262607712Y-116665710D01*
X262601418Y-116652403D01*
X262596459Y-116638543D01*
X262592882Y-116624264D01*
X262590722Y-116609703D01*
X262590000Y-116595000D01*
X262590000Y-116295000D01*
X262590722Y-116280297D01*
X262592882Y-116265736D01*
X262596459Y-116251457D01*
X262601418Y-116237597D01*
X262607712Y-116224290D01*
X262615280Y-116211664D01*
X262624048Y-116199841D01*
X262633934Y-116188934D01*
X262644841Y-116179048D01*
X262656664Y-116170280D01*
X262669290Y-116162712D01*
X262682597Y-116156418D01*
X262696457Y-116151459D01*
X262710736Y-116147882D01*
X262725297Y-116145722D01*
X262740000Y-116145000D01*
X264390000Y-116145000D01*
X264404703Y-116145722D01*
G37*
G36*
X264404703Y-114875722D02*
G01*
X264419264Y-114877882D01*
X264433543Y-114881459D01*
X264447403Y-114886418D01*
X264460710Y-114892712D01*
X264473336Y-114900280D01*
X264485159Y-114909048D01*
X264496066Y-114918934D01*
X264505952Y-114929841D01*
X264514720Y-114941664D01*
X264522288Y-114954290D01*
X264528582Y-114967597D01*
X264533541Y-114981457D01*
X264537118Y-114995736D01*
X264539278Y-115010297D01*
X264540000Y-115025000D01*
X264540000Y-115325000D01*
X264539278Y-115339703D01*
X264537118Y-115354264D01*
X264533541Y-115368543D01*
X264528582Y-115382403D01*
X264522288Y-115395710D01*
X264514720Y-115408336D01*
X264505952Y-115420159D01*
X264496066Y-115431066D01*
X264485159Y-115440952D01*
X264473336Y-115449720D01*
X264460710Y-115457288D01*
X264447403Y-115463582D01*
X264433543Y-115468541D01*
X264419264Y-115472118D01*
X264404703Y-115474278D01*
X264390000Y-115475000D01*
X262740000Y-115475000D01*
X262725297Y-115474278D01*
X262710736Y-115472118D01*
X262696457Y-115468541D01*
X262682597Y-115463582D01*
X262669290Y-115457288D01*
X262656664Y-115449720D01*
X262644841Y-115440952D01*
X262633934Y-115431066D01*
X262624048Y-115420159D01*
X262615280Y-115408336D01*
X262607712Y-115395710D01*
X262601418Y-115382403D01*
X262596459Y-115368543D01*
X262592882Y-115354264D01*
X262590722Y-115339703D01*
X262590000Y-115325000D01*
X262590000Y-115025000D01*
X262590722Y-115010297D01*
X262592882Y-114995736D01*
X262596459Y-114981457D01*
X262601418Y-114967597D01*
X262607712Y-114954290D01*
X262615280Y-114941664D01*
X262624048Y-114929841D01*
X262633934Y-114918934D01*
X262644841Y-114909048D01*
X262656664Y-114900280D01*
X262669290Y-114892712D01*
X262682597Y-114886418D01*
X262696457Y-114881459D01*
X262710736Y-114877882D01*
X262725297Y-114875722D01*
X262740000Y-114875000D01*
X264390000Y-114875000D01*
X264404703Y-114875722D01*
G37*
G36*
X264404703Y-113605722D02*
G01*
X264419264Y-113607882D01*
X264433543Y-113611459D01*
X264447403Y-113616418D01*
X264460710Y-113622712D01*
X264473336Y-113630280D01*
X264485159Y-113639048D01*
X264496066Y-113648934D01*
X264505952Y-113659841D01*
X264514720Y-113671664D01*
X264522288Y-113684290D01*
X264528582Y-113697597D01*
X264533541Y-113711457D01*
X264537118Y-113725736D01*
X264539278Y-113740297D01*
X264540000Y-113755000D01*
X264540000Y-114055000D01*
X264539278Y-114069703D01*
X264537118Y-114084264D01*
X264533541Y-114098543D01*
X264528582Y-114112403D01*
X264522288Y-114125710D01*
X264514720Y-114138336D01*
X264505952Y-114150159D01*
X264496066Y-114161066D01*
X264485159Y-114170952D01*
X264473336Y-114179720D01*
X264460710Y-114187288D01*
X264447403Y-114193582D01*
X264433543Y-114198541D01*
X264419264Y-114202118D01*
X264404703Y-114204278D01*
X264390000Y-114205000D01*
X262740000Y-114205000D01*
X262725297Y-114204278D01*
X262710736Y-114202118D01*
X262696457Y-114198541D01*
X262682597Y-114193582D01*
X262669290Y-114187288D01*
X262656664Y-114179720D01*
X262644841Y-114170952D01*
X262633934Y-114161066D01*
X262624048Y-114150159D01*
X262615280Y-114138336D01*
X262607712Y-114125710D01*
X262601418Y-114112403D01*
X262596459Y-114098543D01*
X262592882Y-114084264D01*
X262590722Y-114069703D01*
X262590000Y-114055000D01*
X262590000Y-113755000D01*
X262590722Y-113740297D01*
X262592882Y-113725736D01*
X262596459Y-113711457D01*
X262601418Y-113697597D01*
X262607712Y-113684290D01*
X262615280Y-113671664D01*
X262624048Y-113659841D01*
X262633934Y-113648934D01*
X262644841Y-113639048D01*
X262656664Y-113630280D01*
X262669290Y-113622712D01*
X262682597Y-113616418D01*
X262696457Y-113611459D01*
X262710736Y-113607882D01*
X262725297Y-113605722D01*
X262740000Y-113605000D01*
X264390000Y-113605000D01*
X264404703Y-113605722D01*
G37*
G36*
X269354703Y-103345722D02*
G01*
X269369264Y-103347882D01*
X269383543Y-103351459D01*
X269397403Y-103356418D01*
X269410710Y-103362712D01*
X269423336Y-103370280D01*
X269435159Y-103379048D01*
X269446066Y-103388934D01*
X269455952Y-103399841D01*
X269464720Y-103411664D01*
X269472288Y-103424290D01*
X269478582Y-103437597D01*
X269483541Y-103451457D01*
X269487118Y-103465736D01*
X269489278Y-103480297D01*
X269490000Y-103495000D01*
X269490000Y-103795000D01*
X269489278Y-103809703D01*
X269487118Y-103824264D01*
X269483541Y-103838543D01*
X269478582Y-103852403D01*
X269472288Y-103865710D01*
X269464720Y-103878336D01*
X269455952Y-103890159D01*
X269446066Y-103901066D01*
X269435159Y-103910952D01*
X269423336Y-103919720D01*
X269410710Y-103927288D01*
X269397403Y-103933582D01*
X269383543Y-103938541D01*
X269369264Y-103942118D01*
X269354703Y-103944278D01*
X269340000Y-103945000D01*
X267690000Y-103945000D01*
X267675297Y-103944278D01*
X267660736Y-103942118D01*
X267646457Y-103938541D01*
X267632597Y-103933582D01*
X267619290Y-103927288D01*
X267606664Y-103919720D01*
X267594841Y-103910952D01*
X267583934Y-103901066D01*
X267574048Y-103890159D01*
X267565280Y-103878336D01*
X267557712Y-103865710D01*
X267551418Y-103852403D01*
X267546459Y-103838543D01*
X267542882Y-103824264D01*
X267540722Y-103809703D01*
X267540000Y-103795000D01*
X267540000Y-103495000D01*
X267540722Y-103480297D01*
X267542882Y-103465736D01*
X267546459Y-103451457D01*
X267551418Y-103437597D01*
X267557712Y-103424290D01*
X267565280Y-103411664D01*
X267574048Y-103399841D01*
X267583934Y-103388934D01*
X267594841Y-103379048D01*
X267606664Y-103370280D01*
X267619290Y-103362712D01*
X267632597Y-103356418D01*
X267646457Y-103351459D01*
X267660736Y-103347882D01*
X267675297Y-103345722D01*
X267690000Y-103345000D01*
X269340000Y-103345000D01*
X269354703Y-103345722D01*
G37*
G36*
X269354703Y-104615722D02*
G01*
X269369264Y-104617882D01*
X269383543Y-104621459D01*
X269397403Y-104626418D01*
X269410710Y-104632712D01*
X269423336Y-104640280D01*
X269435159Y-104649048D01*
X269446066Y-104658934D01*
X269455952Y-104669841D01*
X269464720Y-104681664D01*
X269472288Y-104694290D01*
X269478582Y-104707597D01*
X269483541Y-104721457D01*
X269487118Y-104735736D01*
X269489278Y-104750297D01*
X269490000Y-104765000D01*
X269490000Y-105065000D01*
X269489278Y-105079703D01*
X269487118Y-105094264D01*
X269483541Y-105108543D01*
X269478582Y-105122403D01*
X269472288Y-105135710D01*
X269464720Y-105148336D01*
X269455952Y-105160159D01*
X269446066Y-105171066D01*
X269435159Y-105180952D01*
X269423336Y-105189720D01*
X269410710Y-105197288D01*
X269397403Y-105203582D01*
X269383543Y-105208541D01*
X269369264Y-105212118D01*
X269354703Y-105214278D01*
X269340000Y-105215000D01*
X267690000Y-105215000D01*
X267675297Y-105214278D01*
X267660736Y-105212118D01*
X267646457Y-105208541D01*
X267632597Y-105203582D01*
X267619290Y-105197288D01*
X267606664Y-105189720D01*
X267594841Y-105180952D01*
X267583934Y-105171066D01*
X267574048Y-105160159D01*
X267565280Y-105148336D01*
X267557712Y-105135710D01*
X267551418Y-105122403D01*
X267546459Y-105108543D01*
X267542882Y-105094264D01*
X267540722Y-105079703D01*
X267540000Y-105065000D01*
X267540000Y-104765000D01*
X267540722Y-104750297D01*
X267542882Y-104735736D01*
X267546459Y-104721457D01*
X267551418Y-104707597D01*
X267557712Y-104694290D01*
X267565280Y-104681664D01*
X267574048Y-104669841D01*
X267583934Y-104658934D01*
X267594841Y-104649048D01*
X267606664Y-104640280D01*
X267619290Y-104632712D01*
X267632597Y-104626418D01*
X267646457Y-104621459D01*
X267660736Y-104617882D01*
X267675297Y-104615722D01*
X267690000Y-104615000D01*
X269340000Y-104615000D01*
X269354703Y-104615722D01*
G37*
G36*
X269354703Y-105885722D02*
G01*
X269369264Y-105887882D01*
X269383543Y-105891459D01*
X269397403Y-105896418D01*
X269410710Y-105902712D01*
X269423336Y-105910280D01*
X269435159Y-105919048D01*
X269446066Y-105928934D01*
X269455952Y-105939841D01*
X269464720Y-105951664D01*
X269472288Y-105964290D01*
X269478582Y-105977597D01*
X269483541Y-105991457D01*
X269487118Y-106005736D01*
X269489278Y-106020297D01*
X269490000Y-106035000D01*
X269490000Y-106335000D01*
X269489278Y-106349703D01*
X269487118Y-106364264D01*
X269483541Y-106378543D01*
X269478582Y-106392403D01*
X269472288Y-106405710D01*
X269464720Y-106418336D01*
X269455952Y-106430159D01*
X269446066Y-106441066D01*
X269435159Y-106450952D01*
X269423336Y-106459720D01*
X269410710Y-106467288D01*
X269397403Y-106473582D01*
X269383543Y-106478541D01*
X269369264Y-106482118D01*
X269354703Y-106484278D01*
X269340000Y-106485000D01*
X267690000Y-106485000D01*
X267675297Y-106484278D01*
X267660736Y-106482118D01*
X267646457Y-106478541D01*
X267632597Y-106473582D01*
X267619290Y-106467288D01*
X267606664Y-106459720D01*
X267594841Y-106450952D01*
X267583934Y-106441066D01*
X267574048Y-106430159D01*
X267565280Y-106418336D01*
X267557712Y-106405710D01*
X267551418Y-106392403D01*
X267546459Y-106378543D01*
X267542882Y-106364264D01*
X267540722Y-106349703D01*
X267540000Y-106335000D01*
X267540000Y-106035000D01*
X267540722Y-106020297D01*
X267542882Y-106005736D01*
X267546459Y-105991457D01*
X267551418Y-105977597D01*
X267557712Y-105964290D01*
X267565280Y-105951664D01*
X267574048Y-105939841D01*
X267583934Y-105928934D01*
X267594841Y-105919048D01*
X267606664Y-105910280D01*
X267619290Y-105902712D01*
X267632597Y-105896418D01*
X267646457Y-105891459D01*
X267660736Y-105887882D01*
X267675297Y-105885722D01*
X267690000Y-105885000D01*
X269340000Y-105885000D01*
X269354703Y-105885722D01*
G37*
G36*
X269354703Y-107155722D02*
G01*
X269369264Y-107157882D01*
X269383543Y-107161459D01*
X269397403Y-107166418D01*
X269410710Y-107172712D01*
X269423336Y-107180280D01*
X269435159Y-107189048D01*
X269446066Y-107198934D01*
X269455952Y-107209841D01*
X269464720Y-107221664D01*
X269472288Y-107234290D01*
X269478582Y-107247597D01*
X269483541Y-107261457D01*
X269487118Y-107275736D01*
X269489278Y-107290297D01*
X269490000Y-107305000D01*
X269490000Y-107605000D01*
X269489278Y-107619703D01*
X269487118Y-107634264D01*
X269483541Y-107648543D01*
X269478582Y-107662403D01*
X269472288Y-107675710D01*
X269464720Y-107688336D01*
X269455952Y-107700159D01*
X269446066Y-107711066D01*
X269435159Y-107720952D01*
X269423336Y-107729720D01*
X269410710Y-107737288D01*
X269397403Y-107743582D01*
X269383543Y-107748541D01*
X269369264Y-107752118D01*
X269354703Y-107754278D01*
X269340000Y-107755000D01*
X267690000Y-107755000D01*
X267675297Y-107754278D01*
X267660736Y-107752118D01*
X267646457Y-107748541D01*
X267632597Y-107743582D01*
X267619290Y-107737288D01*
X267606664Y-107729720D01*
X267594841Y-107720952D01*
X267583934Y-107711066D01*
X267574048Y-107700159D01*
X267565280Y-107688336D01*
X267557712Y-107675710D01*
X267551418Y-107662403D01*
X267546459Y-107648543D01*
X267542882Y-107634264D01*
X267540722Y-107619703D01*
X267540000Y-107605000D01*
X267540000Y-107305000D01*
X267540722Y-107290297D01*
X267542882Y-107275736D01*
X267546459Y-107261457D01*
X267551418Y-107247597D01*
X267557712Y-107234290D01*
X267565280Y-107221664D01*
X267574048Y-107209841D01*
X267583934Y-107198934D01*
X267594841Y-107189048D01*
X267606664Y-107180280D01*
X267619290Y-107172712D01*
X267632597Y-107166418D01*
X267646457Y-107161459D01*
X267660736Y-107157882D01*
X267675297Y-107155722D01*
X267690000Y-107155000D01*
X269340000Y-107155000D01*
X269354703Y-107155722D01*
G37*
G36*
X264404703Y-107155722D02*
G01*
X264419264Y-107157882D01*
X264433543Y-107161459D01*
X264447403Y-107166418D01*
X264460710Y-107172712D01*
X264473336Y-107180280D01*
X264485159Y-107189048D01*
X264496066Y-107198934D01*
X264505952Y-107209841D01*
X264514720Y-107221664D01*
X264522288Y-107234290D01*
X264528582Y-107247597D01*
X264533541Y-107261457D01*
X264537118Y-107275736D01*
X264539278Y-107290297D01*
X264540000Y-107305000D01*
X264540000Y-107605000D01*
X264539278Y-107619703D01*
X264537118Y-107634264D01*
X264533541Y-107648543D01*
X264528582Y-107662403D01*
X264522288Y-107675710D01*
X264514720Y-107688336D01*
X264505952Y-107700159D01*
X264496066Y-107711066D01*
X264485159Y-107720952D01*
X264473336Y-107729720D01*
X264460710Y-107737288D01*
X264447403Y-107743582D01*
X264433543Y-107748541D01*
X264419264Y-107752118D01*
X264404703Y-107754278D01*
X264390000Y-107755000D01*
X262740000Y-107755000D01*
X262725297Y-107754278D01*
X262710736Y-107752118D01*
X262696457Y-107748541D01*
X262682597Y-107743582D01*
X262669290Y-107737288D01*
X262656664Y-107729720D01*
X262644841Y-107720952D01*
X262633934Y-107711066D01*
X262624048Y-107700159D01*
X262615280Y-107688336D01*
X262607712Y-107675710D01*
X262601418Y-107662403D01*
X262596459Y-107648543D01*
X262592882Y-107634264D01*
X262590722Y-107619703D01*
X262590000Y-107605000D01*
X262590000Y-107305000D01*
X262590722Y-107290297D01*
X262592882Y-107275736D01*
X262596459Y-107261457D01*
X262601418Y-107247597D01*
X262607712Y-107234290D01*
X262615280Y-107221664D01*
X262624048Y-107209841D01*
X262633934Y-107198934D01*
X262644841Y-107189048D01*
X262656664Y-107180280D01*
X262669290Y-107172712D01*
X262682597Y-107166418D01*
X262696457Y-107161459D01*
X262710736Y-107157882D01*
X262725297Y-107155722D01*
X262740000Y-107155000D01*
X264390000Y-107155000D01*
X264404703Y-107155722D01*
G37*
G36*
X264404703Y-105885722D02*
G01*
X264419264Y-105887882D01*
X264433543Y-105891459D01*
X264447403Y-105896418D01*
X264460710Y-105902712D01*
X264473336Y-105910280D01*
X264485159Y-105919048D01*
X264496066Y-105928934D01*
X264505952Y-105939841D01*
X264514720Y-105951664D01*
X264522288Y-105964290D01*
X264528582Y-105977597D01*
X264533541Y-105991457D01*
X264537118Y-106005736D01*
X264539278Y-106020297D01*
X264540000Y-106035000D01*
X264540000Y-106335000D01*
X264539278Y-106349703D01*
X264537118Y-106364264D01*
X264533541Y-106378543D01*
X264528582Y-106392403D01*
X264522288Y-106405710D01*
X264514720Y-106418336D01*
X264505952Y-106430159D01*
X264496066Y-106441066D01*
X264485159Y-106450952D01*
X264473336Y-106459720D01*
X264460710Y-106467288D01*
X264447403Y-106473582D01*
X264433543Y-106478541D01*
X264419264Y-106482118D01*
X264404703Y-106484278D01*
X264390000Y-106485000D01*
X262740000Y-106485000D01*
X262725297Y-106484278D01*
X262710736Y-106482118D01*
X262696457Y-106478541D01*
X262682597Y-106473582D01*
X262669290Y-106467288D01*
X262656664Y-106459720D01*
X262644841Y-106450952D01*
X262633934Y-106441066D01*
X262624048Y-106430159D01*
X262615280Y-106418336D01*
X262607712Y-106405710D01*
X262601418Y-106392403D01*
X262596459Y-106378543D01*
X262592882Y-106364264D01*
X262590722Y-106349703D01*
X262590000Y-106335000D01*
X262590000Y-106035000D01*
X262590722Y-106020297D01*
X262592882Y-106005736D01*
X262596459Y-105991457D01*
X262601418Y-105977597D01*
X262607712Y-105964290D01*
X262615280Y-105951664D01*
X262624048Y-105939841D01*
X262633934Y-105928934D01*
X262644841Y-105919048D01*
X262656664Y-105910280D01*
X262669290Y-105902712D01*
X262682597Y-105896418D01*
X262696457Y-105891459D01*
X262710736Y-105887882D01*
X262725297Y-105885722D01*
X262740000Y-105885000D01*
X264390000Y-105885000D01*
X264404703Y-105885722D01*
G37*
G36*
X264404703Y-104615722D02*
G01*
X264419264Y-104617882D01*
X264433543Y-104621459D01*
X264447403Y-104626418D01*
X264460710Y-104632712D01*
X264473336Y-104640280D01*
X264485159Y-104649048D01*
X264496066Y-104658934D01*
X264505952Y-104669841D01*
X264514720Y-104681664D01*
X264522288Y-104694290D01*
X264528582Y-104707597D01*
X264533541Y-104721457D01*
X264537118Y-104735736D01*
X264539278Y-104750297D01*
X264540000Y-104765000D01*
X264540000Y-105065000D01*
X264539278Y-105079703D01*
X264537118Y-105094264D01*
X264533541Y-105108543D01*
X264528582Y-105122403D01*
X264522288Y-105135710D01*
X264514720Y-105148336D01*
X264505952Y-105160159D01*
X264496066Y-105171066D01*
X264485159Y-105180952D01*
X264473336Y-105189720D01*
X264460710Y-105197288D01*
X264447403Y-105203582D01*
X264433543Y-105208541D01*
X264419264Y-105212118D01*
X264404703Y-105214278D01*
X264390000Y-105215000D01*
X262740000Y-105215000D01*
X262725297Y-105214278D01*
X262710736Y-105212118D01*
X262696457Y-105208541D01*
X262682597Y-105203582D01*
X262669290Y-105197288D01*
X262656664Y-105189720D01*
X262644841Y-105180952D01*
X262633934Y-105171066D01*
X262624048Y-105160159D01*
X262615280Y-105148336D01*
X262607712Y-105135710D01*
X262601418Y-105122403D01*
X262596459Y-105108543D01*
X262592882Y-105094264D01*
X262590722Y-105079703D01*
X262590000Y-105065000D01*
X262590000Y-104765000D01*
X262590722Y-104750297D01*
X262592882Y-104735736D01*
X262596459Y-104721457D01*
X262601418Y-104707597D01*
X262607712Y-104694290D01*
X262615280Y-104681664D01*
X262624048Y-104669841D01*
X262633934Y-104658934D01*
X262644841Y-104649048D01*
X262656664Y-104640280D01*
X262669290Y-104632712D01*
X262682597Y-104626418D01*
X262696457Y-104621459D01*
X262710736Y-104617882D01*
X262725297Y-104615722D01*
X262740000Y-104615000D01*
X264390000Y-104615000D01*
X264404703Y-104615722D01*
G37*
G36*
X264404703Y-103345722D02*
G01*
X264419264Y-103347882D01*
X264433543Y-103351459D01*
X264447403Y-103356418D01*
X264460710Y-103362712D01*
X264473336Y-103370280D01*
X264485159Y-103379048D01*
X264496066Y-103388934D01*
X264505952Y-103399841D01*
X264514720Y-103411664D01*
X264522288Y-103424290D01*
X264528582Y-103437597D01*
X264533541Y-103451457D01*
X264537118Y-103465736D01*
X264539278Y-103480297D01*
X264540000Y-103495000D01*
X264540000Y-103795000D01*
X264539278Y-103809703D01*
X264537118Y-103824264D01*
X264533541Y-103838543D01*
X264528582Y-103852403D01*
X264522288Y-103865710D01*
X264514720Y-103878336D01*
X264505952Y-103890159D01*
X264496066Y-103901066D01*
X264485159Y-103910952D01*
X264473336Y-103919720D01*
X264460710Y-103927288D01*
X264447403Y-103933582D01*
X264433543Y-103938541D01*
X264419264Y-103942118D01*
X264404703Y-103944278D01*
X264390000Y-103945000D01*
X262740000Y-103945000D01*
X262725297Y-103944278D01*
X262710736Y-103942118D01*
X262696457Y-103938541D01*
X262682597Y-103933582D01*
X262669290Y-103927288D01*
X262656664Y-103919720D01*
X262644841Y-103910952D01*
X262633934Y-103901066D01*
X262624048Y-103890159D01*
X262615280Y-103878336D01*
X262607712Y-103865710D01*
X262601418Y-103852403D01*
X262596459Y-103838543D01*
X262592882Y-103824264D01*
X262590722Y-103809703D01*
X262590000Y-103795000D01*
X262590000Y-103495000D01*
X262590722Y-103480297D01*
X262592882Y-103465736D01*
X262596459Y-103451457D01*
X262601418Y-103437597D01*
X262607712Y-103424290D01*
X262615280Y-103411664D01*
X262624048Y-103399841D01*
X262633934Y-103388934D01*
X262644841Y-103379048D01*
X262656664Y-103370280D01*
X262669290Y-103362712D01*
X262682597Y-103356418D01*
X262696457Y-103351459D01*
X262710736Y-103347882D01*
X262725297Y-103345722D01*
X262740000Y-103345000D01*
X264390000Y-103345000D01*
X264404703Y-103345722D01*
G37*
D12*
X204376420Y-117371160D03*
X207326420Y-117371160D03*
D13*
X228750000Y-133490000D03*
X234750000Y-133490000D03*
X223320000Y-133490000D03*
X217320000Y-133490000D03*
M02*
