M48
; DRILL file {KiCad (5.1.5)-3} date 29/10/2020 22:27:44
; FORMAT={-:-/ absolute / inch / decimal}
; #@! TF.CreationDate,2020-10-29T22:27:44+01:00
; #@! TF.GenerationSoftware,Kicad,Pcbnew,(5.1.5)-3
; #@! TF.FileFunction,Plated,1,4,PTH
FMAT,2
INCH
T1C0.0236
T2C0.0394
T3C0.0591
T4C0.0598
T5C0.0748
%
G90
G05
T1
X8.5906Y-5.3661
X8.624Y-4.8555
X8.7161Y-4.8555
X8.901Y-5.4848
X8.924Y-5.2283
X8.9528Y-5.7008
X8.9528Y-5.7598
X8.9528Y-5.815
X9.0236Y-5.7047
X9.0236Y-5.7598
X9.0276Y-5.815
X9.054Y-3.9555
X9.054Y-4.0555
X9.3988Y-5.5791
X9.4Y-5.6571
X9.4Y-5.722
X9.4639Y-5.221
X9.4783Y-5.722
X9.4787Y-5.6555
X9.4803Y-5.5791
X9.5587Y-5.5799
X9.5587Y-5.6539
X9.5587Y-5.7232
X10.0948Y-4.0063
X10.3094Y-5.3016
X10.311Y-4.3719
X10.3209Y-4.8386
X10.3709Y-4.365
X10.3898Y-4.8386
X10.3929Y-5.3004
X10.4246Y-4.2785
X10.4291Y-4.0035
X10.4382Y-5.1657
X10.4433Y-4.6799
X10.444Y-4.9455
X10.454Y-4.2255
X10.4571Y-3.9752
X10.478Y-4.6488
X10.4816Y-5.6855
X10.494Y-5.6455
X10.604Y-5.1855
X10.644Y-4.1869
X10.644Y-4.6186
X10.644Y-5.1457
X10.644Y-5.545
T2
X8.204Y-3.7755
X8.204Y-3.8755
X8.304Y-3.7755
X8.304Y-3.8755
X8.404Y-3.7755
X8.404Y-3.8755
X8.504Y-3.7755
X8.504Y-3.8755
X8.604Y-3.7755
X8.604Y-3.8755
X8.704Y-3.7755
X8.704Y-3.8755
X8.804Y-3.7755
X8.804Y-3.8755
X8.904Y-3.7755
X8.904Y-3.8755
X9.004Y-3.7755
X9.004Y-3.8755
X9.104Y-3.7755
X9.104Y-3.8755
X9.204Y-3.7755
X9.204Y-3.8755
X9.304Y-3.7755
X9.304Y-3.8755
X9.404Y-3.7755
X9.404Y-3.8755
X9.504Y-3.7755
X9.504Y-3.8755
X9.604Y-3.7755
X9.604Y-3.8755
X9.704Y-3.7755
X9.704Y-3.8755
X9.804Y-3.7755
X9.804Y-3.8755
X9.904Y-3.7755
X9.904Y-3.8755
X10.004Y-3.7755
X10.004Y-3.8755
X10.104Y-3.7755
X10.104Y-3.8755
X9.824Y-4.5055
X9.824Y-4.6055
X9.824Y-4.1055
X9.824Y-4.2055
X8.4715Y-4.6694
X8.4715Y-4.7694
X8.2742Y-5.705
X8.2742Y-5.805
X8.3742Y-5.705
X8.3742Y-5.805
X8.4742Y-5.705
X8.4742Y-5.805
X8.5742Y-5.705
X8.5742Y-5.805
X9.824Y-5.4555
X9.824Y-5.5555
X9.924Y-5.0055
X9.924Y-5.1055
X9.924Y-5.4555
X9.924Y-5.5555
X9.924Y-4.1055
X9.924Y-4.2055
X9.924Y-4.5055
X9.924Y-4.6055
X9.824Y-5.0055
X9.824Y-5.1055
X7.9933Y-4.1651
X7.9933Y-4.5982
T3
X8.7205Y-4.0984
X8.7205Y-4.3984
X8.7205Y-4.5984
X9.5205Y-4.0984
X9.5205Y-4.4984
X9.5205Y-4.8984
T4
X8.0594Y-4.8646
X8.0594Y-5.0646
X8.0594Y-5.2646
X8.0594Y-5.4646
T5
X8.387Y-4.2832
X8.387Y-4.4801
T2
G00X10.824Y-5.5949
M15
G01X10.824Y-5.5161
M16
G05
G00X10.9815Y-5.3705
M15
G01X10.9028Y-5.3705
M16
G05
G00X11.0602Y-5.5949
M15
G01X11.0602Y-5.5161
M16
G05
G00X10.824Y-5.0949
M15
G01X10.824Y-5.0161
M16
G05
G00X10.9815Y-4.8705
M15
G01X10.9028Y-4.8705
M16
G05
G00X11.0602Y-5.0949
M15
G01X11.0602Y-5.0161
M16
G05
G00X10.824Y-4.0949
M15
G01X10.824Y-4.0161
M16
G05
G00X10.9815Y-3.8705
M15
G01X10.9028Y-3.8705
M16
G05
G00X11.0602Y-4.0949
M15
G01X11.0602Y-4.0161
M16
G05
G00X10.824Y-4.5949
M15
G01X10.824Y-4.5161
M16
G05
G00X10.9815Y-4.3705
M15
G01X10.9028Y-4.3705
M16
G05
G00X11.0602Y-4.5949
M15
G01X11.0602Y-4.5161
M16
G05
T0
M30
