G04 #@! TF.GenerationSoftware,KiCad,Pcbnew,(5.1.5)-3*
G04 #@! TF.CreationDate,2020-10-29T22:53:37+01:00*
G04 #@! TF.ProjectId,alim_hat,616c696d-5f68-4617-942e-6b696361645f,rev?*
G04 #@! TF.SameCoordinates,Original*
G04 #@! TF.FileFunction,Legend,Bot*
G04 #@! TF.FilePolarity,Positive*
%FSLAX46Y46*%
G04 Gerber Fmt 4.6, Leading zero omitted, Abs format (unit mm)*
G04 Created by KiCad (PCBNEW (5.1.5)-3) date 2020-10-29 22:53:37*
%MOMM*%
%LPD*%
G04 APERTURE LIST*
%ADD10C,0.200000*%
%ADD11C,0.120000*%
%ADD12C,0.254000*%
%ADD13C,0.150000*%
G04 APERTURE END LIST*
D10*
X258930000Y-141700000D02*
X258930000Y-136780000D01*
X259170000Y-130890000D02*
X259170000Y-125970000D01*
X259000000Y-118230000D02*
X259000000Y-113310000D01*
X258930000Y-108090000D02*
X258930000Y-103170000D01*
D11*
X207052000Y-94568000D02*
X207052000Y-97168000D01*
X207052000Y-94568000D02*
X257972000Y-94568000D01*
X257972000Y-94568000D02*
X257972000Y-99768000D01*
X209652000Y-99768000D02*
X257972000Y-99768000D01*
X209652000Y-97168000D02*
X209652000Y-99768000D01*
X207052000Y-97168000D02*
X209652000Y-97168000D01*
X207052000Y-99768000D02*
X208382000Y-99768000D01*
X207052000Y-98438000D02*
X207052000Y-99768000D01*
X208835080Y-143577300D02*
X208835080Y-144907300D01*
X210165080Y-143577300D02*
X208835080Y-143577300D01*
X208835080Y-146177300D02*
X208835080Y-148777300D01*
X211435080Y-146177300D02*
X208835080Y-146177300D01*
X211435080Y-143577300D02*
X211435080Y-146177300D01*
X208835080Y-148777300D02*
X219115080Y-148777300D01*
X211435080Y-143577300D02*
X219115080Y-143577300D01*
X219115080Y-143577300D02*
X219115080Y-148777300D01*
D12*
X259393333Y-135079285D02*
X259816666Y-135079285D01*
X259816666Y-135744523D02*
X259816666Y-134474523D01*
X259211904Y-134474523D01*
X258123333Y-134474523D02*
X258728095Y-134474523D01*
X258788571Y-135079285D01*
X258728095Y-135018809D01*
X258607142Y-134958333D01*
X258304761Y-134958333D01*
X258183809Y-135018809D01*
X258123333Y-135079285D01*
X258062857Y-135200238D01*
X258062857Y-135502619D01*
X258123333Y-135623571D01*
X258183809Y-135684047D01*
X258304761Y-135744523D01*
X258607142Y-135744523D01*
X258728095Y-135684047D01*
X258788571Y-135623571D01*
X259653333Y-124529285D02*
X260076666Y-124529285D01*
X260076666Y-125194523D02*
X260076666Y-123924523D01*
X259471904Y-123924523D01*
X258443809Y-124347857D02*
X258443809Y-125194523D01*
X258746190Y-123864047D02*
X259048571Y-124771190D01*
X258262380Y-124771190D01*
X259383333Y-111719285D02*
X259806666Y-111719285D01*
X259806666Y-112384523D02*
X259806666Y-111114523D01*
X259201904Y-111114523D01*
X258839047Y-111114523D02*
X258052857Y-111114523D01*
X258476190Y-111598333D01*
X258294761Y-111598333D01*
X258173809Y-111658809D01*
X258113333Y-111719285D01*
X258052857Y-111840238D01*
X258052857Y-112142619D01*
X258113333Y-112263571D01*
X258173809Y-112324047D01*
X258294761Y-112384523D01*
X258657619Y-112384523D01*
X258778571Y-112324047D01*
X258839047Y-112263571D01*
X258663333Y-101379285D02*
X259086666Y-101379285D01*
X259086666Y-102044523D02*
X259086666Y-100774523D01*
X258481904Y-100774523D01*
X258058571Y-100895476D02*
X257998095Y-100835000D01*
X257877142Y-100774523D01*
X257574761Y-100774523D01*
X257453809Y-100835000D01*
X257393333Y-100895476D01*
X257332857Y-101016428D01*
X257332857Y-101137380D01*
X257393333Y-101318809D01*
X258119047Y-102044523D01*
X257332857Y-102044523D01*
D13*
X208068095Y-101742380D02*
X208068095Y-100742380D01*
X207687142Y-100742380D01*
X207591904Y-100790000D01*
X207544285Y-100837619D01*
X207496666Y-100932857D01*
X207496666Y-101075714D01*
X207544285Y-101170952D01*
X207591904Y-101218571D01*
X207687142Y-101266190D01*
X208068095Y-101266190D01*
X206544285Y-101742380D02*
X207115714Y-101742380D01*
X206830000Y-101742380D02*
X206830000Y-100742380D01*
X206925238Y-100885238D01*
X207020476Y-100980476D01*
X207115714Y-101028095D01*
X206912380Y-143416666D02*
X207626666Y-143416666D01*
X207769523Y-143369047D01*
X207864761Y-143273809D01*
X207912380Y-143130952D01*
X207912380Y-143035714D01*
X206912380Y-143797619D02*
X206912380Y-144416666D01*
X207293333Y-144083333D01*
X207293333Y-144226190D01*
X207340952Y-144321428D01*
X207388571Y-144369047D01*
X207483809Y-144416666D01*
X207721904Y-144416666D01*
X207817142Y-144369047D01*
X207864761Y-144321428D01*
X207912380Y-144226190D01*
X207912380Y-143940476D01*
X207864761Y-143845238D01*
X207817142Y-143797619D01*
M02*
