G04 #@! TF.GenerationSoftware,KiCad,Pcbnew,5.1.7-a382d34a8~88~ubuntu18.04.1*
G04 #@! TF.CreationDate,2021-04-23T16:21:05+02:00*
G04 #@! TF.ProjectId,alim_hat,616c696d-5f68-4617-942e-6b696361645f,4.1*
G04 #@! TF.SameCoordinates,Original*
G04 #@! TF.FileFunction,Copper,L4,Bot*
G04 #@! TF.FilePolarity,Positive*
%FSLAX46Y46*%
G04 Gerber Fmt 4.6, Leading zero omitted, Abs format (unit mm)*
G04 Created by KiCad (PCBNEW 5.1.7-a382d34a8~88~ubuntu18.04.1) date 2021-04-23 16:21:05*
%MOMM*%
%LPD*%
G01*
G04 APERTURE LIST*
G04 #@! TA.AperFunction,ComponentPad*
%ADD10C,3.500000*%
G04 #@! TD*
G04 #@! TA.AperFunction,ComponentPad*
%ADD11R,3.500000X3.500000*%
G04 #@! TD*
G04 #@! TA.AperFunction,ComponentPad*
%ADD12C,1.400000*%
G04 #@! TD*
G04 #@! TA.AperFunction,ComponentPad*
%ADD13O,1.700000X1.700000*%
G04 #@! TD*
G04 #@! TA.AperFunction,ComponentPad*
%ADD14R,1.700000X1.700000*%
G04 #@! TD*
G04 #@! TA.AperFunction,ComponentPad*
%ADD15C,2.250000*%
G04 #@! TD*
G04 #@! TA.AperFunction,ComponentPad*
%ADD16C,3.000000*%
G04 #@! TD*
G04 #@! TA.AperFunction,ComponentPad*
%ADD17R,3.000000X3.000000*%
G04 #@! TD*
G04 #@! TA.AperFunction,ViaPad*
%ADD18C,0.900000*%
G04 #@! TD*
G04 #@! TA.AperFunction,ViaPad*
%ADD19C,1.000000*%
G04 #@! TD*
G04 #@! TA.AperFunction,Conductor*
%ADD20C,1.000000*%
G04 #@! TD*
G04 #@! TA.AperFunction,Conductor*
%ADD21C,1.200000*%
G04 #@! TD*
G04 #@! TA.AperFunction,Conductor*
%ADD22C,6.000000*%
G04 #@! TD*
G04 #@! TA.AperFunction,Conductor*
%ADD23C,2.000000*%
G04 #@! TD*
G04 #@! TA.AperFunction,Conductor*
%ADD24C,0.254000*%
G04 #@! TD*
G04 #@! TA.AperFunction,Conductor*
%ADD25C,0.150000*%
G04 #@! TD*
G04 APERTURE END LIST*
D10*
X213100000Y-113800000D03*
D11*
X213100000Y-108800000D03*
D12*
X203100000Y-116800000D03*
X203100000Y-105800000D03*
D13*
X252070000Y-116980000D03*
D14*
X252070000Y-114440000D03*
D13*
X252070000Y-141110000D03*
D14*
X252070000Y-138570000D03*
D13*
X252070000Y-129680000D03*
D14*
X252070000Y-127140000D03*
D13*
X252070000Y-106820000D03*
D14*
X252070000Y-104280000D03*
D13*
X215176500Y-121143060D03*
D14*
X215176500Y-118603060D03*
D15*
X241820000Y-104100000D03*
X241820000Y-114260000D03*
X241820000Y-124420000D03*
X221500000Y-116800000D03*
X221500000Y-111720000D03*
X221500000Y-104100000D03*
D13*
X249530000Y-116980000D03*
D14*
X249530000Y-114440000D03*
D13*
X249530000Y-141110000D03*
D14*
X249530000Y-138570000D03*
D13*
X249530000Y-129680000D03*
D14*
X249530000Y-127140000D03*
D13*
X249530000Y-106820000D03*
D14*
X249530000Y-104280000D03*
G04 #@! TA.AperFunction,ComponentPad*
G36*
G01*
X279680000Y-135535000D02*
X279680000Y-137285000D01*
G75*
G02*
X278805000Y-138160000I-875000J0D01*
G01*
X277055000Y-138160000D01*
G75*
G02*
X276180000Y-137285000I0J875000D01*
G01*
X276180000Y-135535000D01*
G75*
G02*
X277055000Y-134660000I875000J0D01*
G01*
X278805000Y-134660000D01*
G75*
G02*
X279680000Y-135535000I0J-875000D01*
G01*
G37*
G04 #@! TD.AperFunction*
G04 #@! TA.AperFunction,ComponentPad*
G36*
G01*
X282430000Y-140110000D02*
X282430000Y-142110000D01*
G75*
G02*
X281680000Y-142860000I-750000J0D01*
G01*
X280180000Y-142860000D01*
G75*
G02*
X279430000Y-142110000I0J750000D01*
G01*
X279430000Y-140110000D01*
G75*
G02*
X280180000Y-139360000I750000J0D01*
G01*
X281680000Y-139360000D01*
G75*
G02*
X282430000Y-140110000I0J-750000D01*
G01*
G37*
G04 #@! TD.AperFunction*
D11*
X274930000Y-141110000D03*
G04 #@! TA.AperFunction,ComponentPad*
G36*
G01*
X279680000Y-110135000D02*
X279680000Y-111885000D01*
G75*
G02*
X278805000Y-112760000I-875000J0D01*
G01*
X277055000Y-112760000D01*
G75*
G02*
X276180000Y-111885000I0J875000D01*
G01*
X276180000Y-110135000D01*
G75*
G02*
X277055000Y-109260000I875000J0D01*
G01*
X278805000Y-109260000D01*
G75*
G02*
X279680000Y-110135000I0J-875000D01*
G01*
G37*
G04 #@! TD.AperFunction*
G04 #@! TA.AperFunction,ComponentPad*
G36*
G01*
X282430000Y-114710000D02*
X282430000Y-116710000D01*
G75*
G02*
X281680000Y-117460000I-750000J0D01*
G01*
X280180000Y-117460000D01*
G75*
G02*
X279430000Y-116710000I0J750000D01*
G01*
X279430000Y-114710000D01*
G75*
G02*
X280180000Y-113960000I750000J0D01*
G01*
X281680000Y-113960000D01*
G75*
G02*
X282430000Y-114710000I0J-750000D01*
G01*
G37*
G04 #@! TD.AperFunction*
X274930000Y-115710000D03*
G04 #@! TA.AperFunction,ComponentPad*
G36*
G01*
X279680000Y-122835000D02*
X279680000Y-124585000D01*
G75*
G02*
X278805000Y-125460000I-875000J0D01*
G01*
X277055000Y-125460000D01*
G75*
G02*
X276180000Y-124585000I0J875000D01*
G01*
X276180000Y-122835000D01*
G75*
G02*
X277055000Y-121960000I875000J0D01*
G01*
X278805000Y-121960000D01*
G75*
G02*
X279680000Y-122835000I0J-875000D01*
G01*
G37*
G04 #@! TD.AperFunction*
G04 #@! TA.AperFunction,ComponentPad*
G36*
G01*
X282430000Y-127410000D02*
X282430000Y-129410000D01*
G75*
G02*
X281680000Y-130160000I-750000J0D01*
G01*
X280180000Y-130160000D01*
G75*
G02*
X279430000Y-129410000I0J750000D01*
G01*
X279430000Y-127410000D01*
G75*
G02*
X280180000Y-126660000I750000J0D01*
G01*
X281680000Y-126660000D01*
G75*
G02*
X282430000Y-127410000I0J-750000D01*
G01*
G37*
G04 #@! TD.AperFunction*
X274930000Y-128410000D03*
G04 #@! TA.AperFunction,ComponentPad*
G36*
G01*
X279680000Y-97435000D02*
X279680000Y-99185000D01*
G75*
G02*
X278805000Y-100060000I-875000J0D01*
G01*
X277055000Y-100060000D01*
G75*
G02*
X276180000Y-99185000I0J875000D01*
G01*
X276180000Y-97435000D01*
G75*
G02*
X277055000Y-96560000I875000J0D01*
G01*
X278805000Y-96560000D01*
G75*
G02*
X279680000Y-97435000I0J-875000D01*
G01*
G37*
G04 #@! TD.AperFunction*
G04 #@! TA.AperFunction,ComponentPad*
G36*
G01*
X282430000Y-102010000D02*
X282430000Y-104010000D01*
G75*
G02*
X281680000Y-104760000I-750000J0D01*
G01*
X280180000Y-104760000D01*
G75*
G02*
X279430000Y-104010000I0J750000D01*
G01*
X279430000Y-102010000D01*
G75*
G02*
X280180000Y-101260000I750000J0D01*
G01*
X281680000Y-101260000D01*
G75*
G02*
X282430000Y-102010000I0J-750000D01*
G01*
G37*
G04 #@! TD.AperFunction*
X274930000Y-103010000D03*
D14*
X208382000Y-98438000D03*
D13*
X208382000Y-95898000D03*
X210922000Y-98438000D03*
X210922000Y-95898000D03*
X213462000Y-98438000D03*
X213462000Y-95898000D03*
X216002000Y-98438000D03*
X216002000Y-95898000D03*
X218542000Y-98438000D03*
X218542000Y-95898000D03*
X221082000Y-98438000D03*
X221082000Y-95898000D03*
X223622000Y-98438000D03*
X223622000Y-95898000D03*
X226162000Y-98438000D03*
X226162000Y-95898000D03*
X228702000Y-98438000D03*
X228702000Y-95898000D03*
X231242000Y-98438000D03*
X231242000Y-95898000D03*
X233782000Y-98438000D03*
X233782000Y-95898000D03*
X236322000Y-98438000D03*
X236322000Y-95898000D03*
X238862000Y-98438000D03*
X238862000Y-95898000D03*
X241402000Y-98438000D03*
X241402000Y-95898000D03*
X243942000Y-98438000D03*
X243942000Y-95898000D03*
X246482000Y-98438000D03*
X246482000Y-95898000D03*
X249022000Y-98438000D03*
X249022000Y-95898000D03*
X251562000Y-98438000D03*
X251562000Y-95898000D03*
X254102000Y-98438000D03*
X254102000Y-95898000D03*
X256642000Y-98438000D03*
X256642000Y-95898000D03*
D16*
X204710000Y-138800000D03*
D17*
X204710000Y-123560000D03*
D16*
X204710000Y-133720000D03*
X204710000Y-128640000D03*
D13*
X217785080Y-147447300D03*
X217785080Y-144907300D03*
X215245080Y-147447300D03*
X215245080Y-144907300D03*
X212705080Y-147447300D03*
X212705080Y-144907300D03*
X210165080Y-147447300D03*
D14*
X210165080Y-144907300D03*
D18*
X226090000Y-101270000D03*
X259625000Y-107735000D03*
X270227500Y-100862500D03*
D19*
X229300000Y-147700000D03*
X227400000Y-147700000D03*
X229200000Y-144900000D03*
X227400000Y-144800000D03*
X227400000Y-146300000D03*
D18*
X240383460Y-132613700D03*
D19*
X226670000Y-132800000D03*
X229200000Y-146300000D03*
D18*
X270358000Y-130702000D03*
X270358000Y-140842000D03*
X269875000Y-117275000D03*
X226085700Y-139314300D03*
X218200000Y-136300000D03*
X272300000Y-104840000D03*
X265130000Y-131210000D03*
X265278000Y-125616000D03*
X265530000Y-109020000D03*
X259967500Y-118672500D03*
X232447978Y-101482022D03*
X267730000Y-103600000D03*
X269342000Y-131712000D03*
X267640000Y-108700000D03*
X259938750Y-117091250D03*
X235450000Y-102770000D03*
X266470000Y-101330000D03*
X266690000Y-147750000D03*
X267190000Y-146530000D03*
D19*
X240750000Y-145340000D03*
X240760000Y-143650000D03*
X240800000Y-141710000D03*
X242790000Y-143610000D03*
X238760000Y-143690000D03*
X238760000Y-145340000D03*
X242790000Y-145370000D03*
X242790000Y-141730000D03*
X238730000Y-141710000D03*
D20*
X256134000Y-100470000D02*
X239370000Y-100470000D01*
X238862000Y-98438000D02*
X239370000Y-100470000D01*
X256642000Y-99962000D02*
X256134000Y-100470000D01*
X256642000Y-98438000D02*
X256642000Y-99962000D01*
X212705080Y-143705219D02*
X212700000Y-143700139D01*
X208615079Y-143497299D02*
X208615079Y-147099380D01*
X208755079Y-143357299D02*
X208615079Y-143497299D01*
X212357160Y-143357299D02*
X208755079Y-143357299D01*
X212705080Y-143705219D02*
X212357160Y-143357299D01*
D21*
X212705080Y-144907300D02*
X215245080Y-147447300D01*
X217785080Y-144907300D02*
X215245080Y-147447300D01*
D22*
X221500000Y-111720000D02*
X223600000Y-111500000D01*
X240000000Y-104329010D02*
X240000000Y-104800000D01*
X241820000Y-104100000D02*
X240000000Y-104800000D01*
D23*
X217785080Y-144907300D02*
X217785080Y-143705219D01*
X217785080Y-144907300D02*
X218987161Y-144907300D01*
X212705080Y-144907300D02*
X212705080Y-143705219D01*
X210165080Y-147447300D02*
X208962999Y-147447300D01*
X215245080Y-148045080D02*
X215245080Y-147447300D01*
X208272700Y-147447300D02*
X208270000Y-147450000D01*
X210165080Y-147447300D02*
X208272700Y-147447300D01*
D20*
X208615079Y-147099380D02*
X208270000Y-147450000D01*
D23*
X212705080Y-144907300D02*
X212705080Y-143705219D01*
X217785080Y-144907300D02*
X217785080Y-143705219D01*
X217810000Y-143680299D02*
X217785080Y-143705219D01*
X217785080Y-144907300D02*
X218987161Y-144907300D01*
X218999861Y-144920000D02*
X218987161Y-144907300D01*
X218542000Y-99640081D02*
X218550000Y-99648081D01*
X218542000Y-98438000D02*
X218542000Y-99640081D01*
X218550000Y-99648081D02*
X218550000Y-100720000D01*
X221500000Y-111720000D02*
X223090990Y-111720000D01*
X223110990Y-111740000D02*
X223090990Y-111720000D01*
X241820000Y-104100000D02*
X241820000Y-105690990D01*
X241790000Y-105720990D02*
X241820000Y-105690990D01*
D20*
X212700000Y-147460000D02*
X212700000Y-147705998D01*
D23*
X249530000Y-138570000D02*
X249530000Y-137230000D01*
X249530000Y-138570000D02*
X248050000Y-138570000D01*
X252070000Y-138570000D02*
X252070000Y-137020000D01*
X252070000Y-127140000D02*
X252070000Y-125600000D01*
X252070000Y-127140000D02*
X249530000Y-127140000D01*
X249530000Y-127140000D02*
X249530000Y-125290000D01*
X249530000Y-127140000D02*
X247460000Y-127140000D01*
X249530000Y-114440000D02*
X247840000Y-114440000D01*
X249530000Y-114440000D02*
X249530000Y-112790000D01*
X252070000Y-114440000D02*
X252070000Y-112540000D01*
X252070000Y-114440000D02*
X249530000Y-114440000D01*
X249530000Y-104280000D02*
X252070000Y-104280000D01*
X249530000Y-104280000D02*
X247640000Y-104280000D01*
X252070000Y-104280000D02*
X252070000Y-103090000D01*
X249530000Y-104280000D02*
X249530000Y-102930000D01*
X249530000Y-138570000D02*
X252070000Y-138570000D01*
X252070000Y-104280000D02*
X253750000Y-104280000D01*
X252070000Y-114440000D02*
X253770000Y-114440000D01*
X252070000Y-127140000D02*
X253990000Y-127140000D01*
X252070000Y-138570000D02*
X253690000Y-138570000D01*
X274640000Y-115420000D02*
X274930000Y-115710000D01*
X274640000Y-128120000D02*
X274930000Y-128410000D01*
D24*
X259389161Y-94615750D02*
X258925750Y-95079161D01*
X258561651Y-95624075D01*
X258310855Y-96229550D01*
X258183000Y-96872319D01*
X258183000Y-97527681D01*
X258310855Y-98170450D01*
X258561651Y-98775925D01*
X258925750Y-99320839D01*
X259389161Y-99784250D01*
X259934075Y-100148349D01*
X260539550Y-100399145D01*
X261182319Y-100527000D01*
X261837681Y-100527000D01*
X262480450Y-100399145D01*
X263085925Y-100148349D01*
X263630839Y-99784250D01*
X264094250Y-99320839D01*
X264458349Y-98775925D01*
X264709145Y-98170450D01*
X264837000Y-97527681D01*
X264837000Y-96872319D01*
X264709145Y-96229550D01*
X264458349Y-95624075D01*
X264094250Y-95079161D01*
X263630839Y-94615750D01*
X263347606Y-94426500D01*
X281974155Y-94426500D01*
X282449355Y-94473093D01*
X282871881Y-94600661D01*
X283261581Y-94807868D01*
X283603611Y-95086820D01*
X283884948Y-95426898D01*
X284094870Y-95815139D01*
X284225385Y-96236768D01*
X284275101Y-96709772D01*
X284275100Y-146655546D01*
X284228506Y-147130756D01*
X284100937Y-147553282D01*
X283893731Y-147942980D01*
X283614776Y-148285014D01*
X283274704Y-148566347D01*
X282886456Y-148776272D01*
X282464836Y-148906784D01*
X281991837Y-148956500D01*
X263358082Y-148956500D01*
X263630839Y-148774250D01*
X264094250Y-148310839D01*
X264458349Y-147765925D01*
X264509209Y-147643137D01*
X265605000Y-147643137D01*
X265605000Y-147856863D01*
X265646696Y-148066483D01*
X265728485Y-148263940D01*
X265847225Y-148441647D01*
X265998353Y-148592775D01*
X266176060Y-148711515D01*
X266373517Y-148793304D01*
X266583137Y-148835000D01*
X266796863Y-148835000D01*
X267006483Y-148793304D01*
X267203940Y-148711515D01*
X267381647Y-148592775D01*
X267532775Y-148441647D01*
X267651515Y-148263940D01*
X267733304Y-148066483D01*
X267775000Y-147856863D01*
X267775000Y-147643137D01*
X267740042Y-147467392D01*
X267881647Y-147372775D01*
X268032775Y-147221647D01*
X268151515Y-147043940D01*
X268233304Y-146846483D01*
X268275000Y-146636863D01*
X268275000Y-146423137D01*
X268233304Y-146213517D01*
X268151515Y-146016060D01*
X268032775Y-145838353D01*
X267881647Y-145687225D01*
X267703940Y-145568485D01*
X267506483Y-145486696D01*
X267296863Y-145445000D01*
X267083137Y-145445000D01*
X266873517Y-145486696D01*
X266676060Y-145568485D01*
X266498353Y-145687225D01*
X266347225Y-145838353D01*
X266228485Y-146016060D01*
X266146696Y-146213517D01*
X266105000Y-146423137D01*
X266105000Y-146636863D01*
X266139958Y-146812608D01*
X265998353Y-146907225D01*
X265847225Y-147058353D01*
X265728485Y-147236060D01*
X265646696Y-147433517D01*
X265605000Y-147643137D01*
X264509209Y-147643137D01*
X264709145Y-147160450D01*
X264837000Y-146517681D01*
X264837000Y-145862319D01*
X264709145Y-145219550D01*
X264458349Y-144614075D01*
X264094250Y-144069161D01*
X263630839Y-143605750D01*
X263085925Y-143241651D01*
X262480450Y-142990855D01*
X261837681Y-142863000D01*
X261182319Y-142863000D01*
X260539550Y-142990855D01*
X259934075Y-143241651D01*
X259389161Y-143605750D01*
X258925750Y-144069161D01*
X258561651Y-144614075D01*
X258310855Y-145219550D01*
X258183000Y-145862319D01*
X258183000Y-146517681D01*
X258310855Y-147160450D01*
X258561651Y-147765925D01*
X258925750Y-148310839D01*
X259389161Y-148774250D01*
X259661918Y-148956500D01*
X205373048Y-148956500D01*
X205630839Y-148784250D01*
X206094250Y-148320839D01*
X206439462Y-147804191D01*
X208723599Y-147804191D01*
X208820923Y-148078552D01*
X208969902Y-148328655D01*
X209164811Y-148544888D01*
X209398160Y-148718941D01*
X209660981Y-148844125D01*
X209808190Y-148888776D01*
X210038080Y-148767455D01*
X210038080Y-147574300D01*
X208844266Y-147574300D01*
X208723599Y-147804191D01*
X206439462Y-147804191D01*
X206458349Y-147775925D01*
X206709145Y-147170450D01*
X206837000Y-146527681D01*
X206837000Y-145872319D01*
X206709145Y-145229550D01*
X206458349Y-144624075D01*
X206094250Y-144079161D01*
X206072389Y-144057300D01*
X208677008Y-144057300D01*
X208677008Y-145757300D01*
X208689268Y-145881782D01*
X208725578Y-146001480D01*
X208784543Y-146111794D01*
X208863895Y-146208485D01*
X208960586Y-146287837D01*
X209070900Y-146346802D01*
X209146706Y-146369798D01*
X208969902Y-146565945D01*
X208820923Y-146816048D01*
X208723599Y-147090409D01*
X208844266Y-147320300D01*
X210038080Y-147320300D01*
X210038080Y-147300300D01*
X210292080Y-147300300D01*
X210292080Y-147320300D01*
X210312080Y-147320300D01*
X210312080Y-147574300D01*
X210292080Y-147574300D01*
X210292080Y-148767455D01*
X210521970Y-148888776D01*
X210669179Y-148844125D01*
X210932000Y-148718941D01*
X211165349Y-148544888D01*
X211360258Y-148328655D01*
X211429885Y-148211766D01*
X211551605Y-148393932D01*
X211758448Y-148600775D01*
X212001669Y-148763290D01*
X212271922Y-148875232D01*
X212558820Y-148932300D01*
X212851340Y-148932300D01*
X213138238Y-148875232D01*
X213408491Y-148763290D01*
X213651712Y-148600775D01*
X213858555Y-148393932D01*
X213980275Y-148211766D01*
X214049902Y-148328655D01*
X214244811Y-148544888D01*
X214478160Y-148718941D01*
X214740981Y-148844125D01*
X214888190Y-148888776D01*
X215118080Y-148767455D01*
X215118080Y-147574300D01*
X215098080Y-147574300D01*
X215098080Y-147320300D01*
X215118080Y-147320300D01*
X215118080Y-147300300D01*
X215372080Y-147300300D01*
X215372080Y-147320300D01*
X215392080Y-147320300D01*
X215392080Y-147574300D01*
X215372080Y-147574300D01*
X215372080Y-148767455D01*
X215601970Y-148888776D01*
X215749179Y-148844125D01*
X216012000Y-148718941D01*
X216245349Y-148544888D01*
X216440258Y-148328655D01*
X216509885Y-148211766D01*
X216631605Y-148393932D01*
X216838448Y-148600775D01*
X217081669Y-148763290D01*
X217351922Y-148875232D01*
X217638820Y-148932300D01*
X217931340Y-148932300D01*
X218218238Y-148875232D01*
X218488491Y-148763290D01*
X218731712Y-148600775D01*
X218938555Y-148393932D01*
X219101070Y-148150711D01*
X219213012Y-147880458D01*
X219270080Y-147593560D01*
X219270080Y-147301040D01*
X219213012Y-147014142D01*
X219101070Y-146743889D01*
X218938555Y-146500668D01*
X218731712Y-146293825D01*
X218555674Y-146176200D01*
X218785349Y-146004888D01*
X218980258Y-145788655D01*
X219129237Y-145538552D01*
X219226561Y-145264191D01*
X219105894Y-145034300D01*
X217912080Y-145034300D01*
X217912080Y-145054300D01*
X217658080Y-145054300D01*
X217658080Y-145034300D01*
X217638080Y-145034300D01*
X217638080Y-144780300D01*
X217658080Y-144780300D01*
X217658080Y-143587145D01*
X217912080Y-143587145D01*
X217912080Y-144780300D01*
X219105894Y-144780300D01*
X219226561Y-144550409D01*
X219129237Y-144276048D01*
X218980258Y-144025945D01*
X218785349Y-143809712D01*
X218552000Y-143635659D01*
X218289179Y-143510475D01*
X218141970Y-143465824D01*
X217912080Y-143587145D01*
X217658080Y-143587145D01*
X217428190Y-143465824D01*
X217280981Y-143510475D01*
X217018160Y-143635659D01*
X216784811Y-143809712D01*
X216589902Y-144025945D01*
X216520275Y-144142834D01*
X216398555Y-143960668D01*
X216191712Y-143753825D01*
X215948491Y-143591310D01*
X215678238Y-143479368D01*
X215391340Y-143422300D01*
X215098820Y-143422300D01*
X214811922Y-143479368D01*
X214541669Y-143591310D01*
X214298448Y-143753825D01*
X214091605Y-143960668D01*
X213969885Y-144142834D01*
X213900258Y-144025945D01*
X213705349Y-143809712D01*
X213472000Y-143635659D01*
X213209179Y-143510475D01*
X213061970Y-143465824D01*
X212832080Y-143587145D01*
X212832080Y-144780300D01*
X212852080Y-144780300D01*
X212852080Y-145034300D01*
X212832080Y-145034300D01*
X212832080Y-145054300D01*
X212578080Y-145054300D01*
X212578080Y-145034300D01*
X212558080Y-145034300D01*
X212558080Y-144780300D01*
X212578080Y-144780300D01*
X212578080Y-143587145D01*
X212348190Y-143465824D01*
X212200981Y-143510475D01*
X211938160Y-143635659D01*
X211704811Y-143809712D01*
X211629046Y-143893766D01*
X211604582Y-143813120D01*
X211545617Y-143702806D01*
X211466265Y-143606115D01*
X211369574Y-143526763D01*
X211259260Y-143467798D01*
X211139562Y-143431488D01*
X211015080Y-143419228D01*
X209315080Y-143419228D01*
X209190598Y-143431488D01*
X209070900Y-143467798D01*
X208960586Y-143526763D01*
X208863895Y-143606115D01*
X208784543Y-143702806D01*
X208725578Y-143813120D01*
X208689268Y-143932818D01*
X208677008Y-144057300D01*
X206072389Y-144057300D01*
X205630839Y-143615750D01*
X205085925Y-143251651D01*
X204480450Y-143000855D01*
X203837681Y-142873000D01*
X203182319Y-142873000D01*
X202539550Y-143000855D01*
X201934075Y-143251651D01*
X201389161Y-143615750D01*
X200925750Y-144079161D01*
X200745100Y-144349523D01*
X200745100Y-141598212D01*
X237595000Y-141598212D01*
X237595000Y-141821788D01*
X237638617Y-142041067D01*
X237724176Y-142247624D01*
X237848388Y-142433520D01*
X238006480Y-142591612D01*
X238183694Y-142710023D01*
X238036480Y-142808388D01*
X237878388Y-142966480D01*
X237754176Y-143152376D01*
X237668617Y-143358933D01*
X237625000Y-143578212D01*
X237625000Y-143801788D01*
X237668617Y-144021067D01*
X237754176Y-144227624D01*
X237878388Y-144413520D01*
X237979868Y-144515000D01*
X237878388Y-144616480D01*
X237754176Y-144802376D01*
X237668617Y-145008933D01*
X237625000Y-145228212D01*
X237625000Y-145451788D01*
X237668617Y-145671067D01*
X237754176Y-145877624D01*
X237878388Y-146063520D01*
X238036480Y-146221612D01*
X238222376Y-146345824D01*
X238428933Y-146431383D01*
X238648212Y-146475000D01*
X238871788Y-146475000D01*
X239091067Y-146431383D01*
X239297624Y-146345824D01*
X239483520Y-146221612D01*
X239641612Y-146063520D01*
X239755000Y-145893823D01*
X239868388Y-146063520D01*
X240026480Y-146221612D01*
X240212376Y-146345824D01*
X240418933Y-146431383D01*
X240638212Y-146475000D01*
X240861788Y-146475000D01*
X241081067Y-146431383D01*
X241287624Y-146345824D01*
X241473520Y-146221612D01*
X241631612Y-146063520D01*
X241755824Y-145877624D01*
X241763787Y-145858400D01*
X241784176Y-145907624D01*
X241908388Y-146093520D01*
X242066480Y-146251612D01*
X242252376Y-146375824D01*
X242458933Y-146461383D01*
X242678212Y-146505000D01*
X242901788Y-146505000D01*
X243121067Y-146461383D01*
X243327624Y-146375824D01*
X243513520Y-146251612D01*
X243671612Y-146093520D01*
X243795824Y-145907624D01*
X243881383Y-145701067D01*
X243925000Y-145481788D01*
X243925000Y-145258212D01*
X243881383Y-145038933D01*
X243795824Y-144832376D01*
X243671612Y-144646480D01*
X243515132Y-144490000D01*
X243671612Y-144333520D01*
X243795824Y-144147624D01*
X243881383Y-143941067D01*
X243925000Y-143721788D01*
X243925000Y-143498212D01*
X243881383Y-143278933D01*
X243795824Y-143072376D01*
X243671612Y-142886480D01*
X243513520Y-142728388D01*
X243426136Y-142670000D01*
X243513520Y-142611612D01*
X243671612Y-142453520D01*
X243795824Y-142267624D01*
X243881383Y-142061067D01*
X243925000Y-141841788D01*
X243925000Y-141618212D01*
X243881383Y-141398933D01*
X243795824Y-141192376D01*
X243671612Y-141006480D01*
X243513520Y-140848388D01*
X243327624Y-140724176D01*
X243121067Y-140638617D01*
X242901788Y-140595000D01*
X242678212Y-140595000D01*
X242458933Y-140638617D01*
X242252376Y-140724176D01*
X242066480Y-140848388D01*
X241908388Y-141006480D01*
X241801682Y-141166177D01*
X241681612Y-140986480D01*
X241523520Y-140828388D01*
X241337624Y-140704176D01*
X241131067Y-140618617D01*
X240911788Y-140575000D01*
X240688212Y-140575000D01*
X240468933Y-140618617D01*
X240262376Y-140704176D01*
X240076480Y-140828388D01*
X239918388Y-140986480D01*
X239794176Y-141172376D01*
X239765000Y-141242813D01*
X239735824Y-141172376D01*
X239611612Y-140986480D01*
X239453520Y-140828388D01*
X239267624Y-140704176D01*
X239061067Y-140618617D01*
X238841788Y-140575000D01*
X238618212Y-140575000D01*
X238398933Y-140618617D01*
X238192376Y-140704176D01*
X238006480Y-140828388D01*
X237848388Y-140986480D01*
X237724176Y-141172376D01*
X237638617Y-141378933D01*
X237595000Y-141598212D01*
X200745100Y-141598212D01*
X200745100Y-138589721D01*
X202575000Y-138589721D01*
X202575000Y-139010279D01*
X202657047Y-139422756D01*
X202817988Y-139811302D01*
X203051637Y-140160983D01*
X203349017Y-140458363D01*
X203698698Y-140692012D01*
X204087244Y-140852953D01*
X204499721Y-140935000D01*
X204920279Y-140935000D01*
X205332756Y-140852953D01*
X205721302Y-140692012D01*
X206070983Y-140458363D01*
X206368363Y-140160983D01*
X206602012Y-139811302D01*
X206762953Y-139422756D01*
X206805782Y-139207437D01*
X225000700Y-139207437D01*
X225000700Y-139421163D01*
X225042396Y-139630783D01*
X225124185Y-139828240D01*
X225242925Y-140005947D01*
X225394053Y-140157075D01*
X225571760Y-140275815D01*
X225769217Y-140357604D01*
X225978837Y-140399300D01*
X226192563Y-140399300D01*
X226402183Y-140357604D01*
X226599640Y-140275815D01*
X226777347Y-140157075D01*
X226928475Y-140005947D01*
X227047215Y-139828240D01*
X227129004Y-139630783D01*
X227170700Y-139421163D01*
X227170700Y-139420000D01*
X248041928Y-139420000D01*
X248054188Y-139544482D01*
X248090498Y-139664180D01*
X248149463Y-139774494D01*
X248228815Y-139871185D01*
X248325506Y-139950537D01*
X248435820Y-140009502D01*
X248508380Y-140031513D01*
X248376525Y-140163368D01*
X248214010Y-140406589D01*
X248102068Y-140676842D01*
X248045000Y-140963740D01*
X248045000Y-141256260D01*
X248102068Y-141543158D01*
X248214010Y-141813411D01*
X248376525Y-142056632D01*
X248583368Y-142263475D01*
X248826589Y-142425990D01*
X249096842Y-142537932D01*
X249383740Y-142595000D01*
X249676260Y-142595000D01*
X249963158Y-142537932D01*
X250233411Y-142425990D01*
X250476632Y-142263475D01*
X250683475Y-142056632D01*
X250800000Y-141882240D01*
X250916525Y-142056632D01*
X251123368Y-142263475D01*
X251366589Y-142425990D01*
X251636842Y-142537932D01*
X251923740Y-142595000D01*
X252216260Y-142595000D01*
X252503158Y-142537932D01*
X252773411Y-142425990D01*
X253016632Y-142263475D01*
X253223475Y-142056632D01*
X253385990Y-141813411D01*
X253497932Y-141543158D01*
X253555000Y-141256260D01*
X253555000Y-140963740D01*
X253497932Y-140676842D01*
X253385990Y-140406589D01*
X253223475Y-140163368D01*
X253091620Y-140031513D01*
X253164180Y-140009502D01*
X253274494Y-139950537D01*
X253371185Y-139871185D01*
X253450537Y-139774494D01*
X253509502Y-139664180D01*
X253545812Y-139544482D01*
X253558072Y-139420000D01*
X253557746Y-139360000D01*
X272541928Y-139360000D01*
X272541928Y-142860000D01*
X272554188Y-142984482D01*
X272590498Y-143104180D01*
X272649463Y-143214494D01*
X272728815Y-143311185D01*
X272825506Y-143390537D01*
X272935820Y-143449502D01*
X273055518Y-143485812D01*
X273180000Y-143498072D01*
X276680000Y-143498072D01*
X276804482Y-143485812D01*
X276924180Y-143449502D01*
X277034494Y-143390537D01*
X277131185Y-143311185D01*
X277210537Y-143214494D01*
X277269502Y-143104180D01*
X277305812Y-142984482D01*
X277318072Y-142860000D01*
X277318072Y-140110000D01*
X278791928Y-140110000D01*
X278791928Y-142110000D01*
X278818599Y-142380799D01*
X278897589Y-142641192D01*
X279025860Y-142881171D01*
X279198485Y-143091515D01*
X279408829Y-143264140D01*
X279648808Y-143392411D01*
X279909201Y-143471401D01*
X280180000Y-143498072D01*
X281680000Y-143498072D01*
X281950799Y-143471401D01*
X282211192Y-143392411D01*
X282451171Y-143264140D01*
X282661515Y-143091515D01*
X282834140Y-142881171D01*
X282962411Y-142641192D01*
X283041401Y-142380799D01*
X283068072Y-142110000D01*
X283068072Y-140110000D01*
X283041401Y-139839201D01*
X282962411Y-139578808D01*
X282834140Y-139338829D01*
X282661515Y-139128485D01*
X282451171Y-138955860D01*
X282211192Y-138827589D01*
X281950799Y-138748599D01*
X281680000Y-138721928D01*
X280180000Y-138721928D01*
X279909201Y-138748599D01*
X279648808Y-138827589D01*
X279408829Y-138955860D01*
X279198485Y-139128485D01*
X279025860Y-139338829D01*
X278897589Y-139578808D01*
X278818599Y-139839201D01*
X278791928Y-140110000D01*
X277318072Y-140110000D01*
X277318072Y-139360000D01*
X277305812Y-139235518D01*
X277269502Y-139115820D01*
X277210537Y-139005506D01*
X277131185Y-138908815D01*
X277034494Y-138829463D01*
X276957869Y-138788506D01*
X277055000Y-138798072D01*
X278805000Y-138798072D01*
X279100186Y-138768999D01*
X279384028Y-138682896D01*
X279645618Y-138543073D01*
X279874903Y-138354903D01*
X280063073Y-138125618D01*
X280202896Y-137864028D01*
X280288999Y-137580186D01*
X280318072Y-137285000D01*
X280318072Y-135535000D01*
X280288999Y-135239814D01*
X280202896Y-134955972D01*
X280063073Y-134694382D01*
X279874903Y-134465097D01*
X279645618Y-134276927D01*
X279384028Y-134137104D01*
X279100186Y-134051001D01*
X278805000Y-134021928D01*
X277055000Y-134021928D01*
X276759814Y-134051001D01*
X276475972Y-134137104D01*
X276214382Y-134276927D01*
X275985097Y-134465097D01*
X275796927Y-134694382D01*
X275657104Y-134955972D01*
X275571001Y-135239814D01*
X275541928Y-135535000D01*
X275541928Y-137285000D01*
X275571001Y-137580186D01*
X275657104Y-137864028D01*
X275796927Y-138125618D01*
X275985097Y-138354903D01*
X276214382Y-138543073D01*
X276475972Y-138682896D01*
X276604643Y-138721928D01*
X273180000Y-138721928D01*
X273055518Y-138734188D01*
X272935820Y-138770498D01*
X272825506Y-138829463D01*
X272728815Y-138908815D01*
X272649463Y-139005506D01*
X272590498Y-139115820D01*
X272554188Y-139235518D01*
X272541928Y-139360000D01*
X253557746Y-139360000D01*
X253555000Y-138855750D01*
X253396250Y-138697000D01*
X252197000Y-138697000D01*
X252197000Y-138717000D01*
X251943000Y-138717000D01*
X251943000Y-138697000D01*
X249657000Y-138697000D01*
X249657000Y-138717000D01*
X249403000Y-138717000D01*
X249403000Y-138697000D01*
X248203750Y-138697000D01*
X248045000Y-138855750D01*
X248041928Y-139420000D01*
X227170700Y-139420000D01*
X227170700Y-139207437D01*
X227129004Y-138997817D01*
X227047215Y-138800360D01*
X226928475Y-138622653D01*
X226777347Y-138471525D01*
X226599640Y-138352785D01*
X226402183Y-138270996D01*
X226192563Y-138229300D01*
X225978837Y-138229300D01*
X225769217Y-138270996D01*
X225571760Y-138352785D01*
X225394053Y-138471525D01*
X225242925Y-138622653D01*
X225124185Y-138800360D01*
X225042396Y-138997817D01*
X225000700Y-139207437D01*
X206805782Y-139207437D01*
X206845000Y-139010279D01*
X206845000Y-138589721D01*
X206762953Y-138177244D01*
X206602012Y-137788698D01*
X206556110Y-137720000D01*
X248041928Y-137720000D01*
X248045000Y-138284250D01*
X248203750Y-138443000D01*
X249403000Y-138443000D01*
X249403000Y-137243750D01*
X249657000Y-137243750D01*
X249657000Y-138443000D01*
X251943000Y-138443000D01*
X251943000Y-137243750D01*
X252197000Y-137243750D01*
X252197000Y-138443000D01*
X253396250Y-138443000D01*
X253555000Y-138284250D01*
X253558072Y-137720000D01*
X253545812Y-137595518D01*
X253509502Y-137475820D01*
X253450537Y-137365506D01*
X253371185Y-137268815D01*
X253274494Y-137189463D01*
X253164180Y-137130498D01*
X253044482Y-137094188D01*
X252920000Y-137081928D01*
X252355750Y-137085000D01*
X252197000Y-137243750D01*
X251943000Y-137243750D01*
X251784250Y-137085000D01*
X251220000Y-137081928D01*
X251095518Y-137094188D01*
X250975820Y-137130498D01*
X250865506Y-137189463D01*
X250800000Y-137243222D01*
X250734494Y-137189463D01*
X250624180Y-137130498D01*
X250504482Y-137094188D01*
X250380000Y-137081928D01*
X249815750Y-137085000D01*
X249657000Y-137243750D01*
X249403000Y-137243750D01*
X249244250Y-137085000D01*
X248680000Y-137081928D01*
X248555518Y-137094188D01*
X248435820Y-137130498D01*
X248325506Y-137189463D01*
X248228815Y-137268815D01*
X248149463Y-137365506D01*
X248090498Y-137475820D01*
X248054188Y-137595518D01*
X248041928Y-137720000D01*
X206556110Y-137720000D01*
X206368363Y-137439017D01*
X206070983Y-137141637D01*
X205721302Y-136907988D01*
X205332756Y-136747047D01*
X204920279Y-136665000D01*
X204499721Y-136665000D01*
X204087244Y-136747047D01*
X203698698Y-136907988D01*
X203349017Y-137141637D01*
X203051637Y-137439017D01*
X202817988Y-137788698D01*
X202657047Y-138177244D01*
X202575000Y-138589721D01*
X200745100Y-138589721D01*
X200745100Y-136193137D01*
X217115000Y-136193137D01*
X217115000Y-136406863D01*
X217156696Y-136616483D01*
X217238485Y-136813940D01*
X217357225Y-136991647D01*
X217508353Y-137142775D01*
X217686060Y-137261515D01*
X217883517Y-137343304D01*
X218093137Y-137385000D01*
X218306863Y-137385000D01*
X218516483Y-137343304D01*
X218713940Y-137261515D01*
X218891647Y-137142775D01*
X219042775Y-136991647D01*
X219161515Y-136813940D01*
X219243304Y-136616483D01*
X219285000Y-136406863D01*
X219285000Y-136193137D01*
X219243304Y-135983517D01*
X219161515Y-135786060D01*
X219042775Y-135608353D01*
X218891647Y-135457225D01*
X218713940Y-135338485D01*
X218516483Y-135256696D01*
X218306863Y-135215000D01*
X218093137Y-135215000D01*
X217883517Y-135256696D01*
X217686060Y-135338485D01*
X217508353Y-135457225D01*
X217357225Y-135608353D01*
X217238485Y-135786060D01*
X217156696Y-135983517D01*
X217115000Y-136193137D01*
X200745100Y-136193137D01*
X200745100Y-133509721D01*
X202575000Y-133509721D01*
X202575000Y-133930279D01*
X202657047Y-134342756D01*
X202817988Y-134731302D01*
X203051637Y-135080983D01*
X203349017Y-135378363D01*
X203698698Y-135612012D01*
X204087244Y-135772953D01*
X204499721Y-135855000D01*
X204920279Y-135855000D01*
X205332756Y-135772953D01*
X205721302Y-135612012D01*
X206070983Y-135378363D01*
X206368363Y-135080983D01*
X206602012Y-134731302D01*
X206762953Y-134342756D01*
X206845000Y-133930279D01*
X206845000Y-133509721D01*
X206762953Y-133097244D01*
X206602012Y-132708698D01*
X206368363Y-132359017D01*
X206070983Y-132061637D01*
X205721302Y-131827988D01*
X205332756Y-131667047D01*
X204920279Y-131585000D01*
X204499721Y-131585000D01*
X204087244Y-131667047D01*
X203698698Y-131827988D01*
X203349017Y-132061637D01*
X203051637Y-132359017D01*
X202817988Y-132708698D01*
X202657047Y-133097244D01*
X202575000Y-133509721D01*
X200745100Y-133509721D01*
X200745100Y-128429721D01*
X202575000Y-128429721D01*
X202575000Y-128850279D01*
X202657047Y-129262756D01*
X202817988Y-129651302D01*
X203051637Y-130000983D01*
X203349017Y-130298363D01*
X203698698Y-130532012D01*
X204087244Y-130692953D01*
X204499721Y-130775000D01*
X204920279Y-130775000D01*
X205332756Y-130692953D01*
X205721302Y-130532012D01*
X206070983Y-130298363D01*
X206368363Y-130000983D01*
X206602012Y-129651302D01*
X206762953Y-129262756D01*
X206845000Y-128850279D01*
X206845000Y-128429721D01*
X206762953Y-128017244D01*
X206751669Y-127990000D01*
X248041928Y-127990000D01*
X248054188Y-128114482D01*
X248090498Y-128234180D01*
X248149463Y-128344494D01*
X248228815Y-128441185D01*
X248325506Y-128520537D01*
X248435820Y-128579502D01*
X248508380Y-128601513D01*
X248376525Y-128733368D01*
X248214010Y-128976589D01*
X248102068Y-129246842D01*
X248045000Y-129533740D01*
X248045000Y-129826260D01*
X248102068Y-130113158D01*
X248214010Y-130383411D01*
X248376525Y-130626632D01*
X248583368Y-130833475D01*
X248826589Y-130995990D01*
X249096842Y-131107932D01*
X249383740Y-131165000D01*
X249676260Y-131165000D01*
X249963158Y-131107932D01*
X250233411Y-130995990D01*
X250476632Y-130833475D01*
X250683475Y-130626632D01*
X250800000Y-130452240D01*
X250916525Y-130626632D01*
X251123368Y-130833475D01*
X251366589Y-130995990D01*
X251636842Y-131107932D01*
X251923740Y-131165000D01*
X252216260Y-131165000D01*
X252503158Y-131107932D01*
X252514734Y-131103137D01*
X264045000Y-131103137D01*
X264045000Y-131316863D01*
X264086696Y-131526483D01*
X264168485Y-131723940D01*
X264287225Y-131901647D01*
X264438353Y-132052775D01*
X264616060Y-132171515D01*
X264813517Y-132253304D01*
X265023137Y-132295000D01*
X265236863Y-132295000D01*
X265446483Y-132253304D01*
X265643940Y-132171515D01*
X265821647Y-132052775D01*
X265972775Y-131901647D01*
X266091515Y-131723940D01*
X266140724Y-131605137D01*
X268257000Y-131605137D01*
X268257000Y-131818863D01*
X268298696Y-132028483D01*
X268380485Y-132225940D01*
X268499225Y-132403647D01*
X268650353Y-132554775D01*
X268828060Y-132673515D01*
X269025517Y-132755304D01*
X269235137Y-132797000D01*
X269448863Y-132797000D01*
X269658483Y-132755304D01*
X269855940Y-132673515D01*
X270033647Y-132554775D01*
X270184775Y-132403647D01*
X270303515Y-132225940D01*
X270385304Y-132028483D01*
X270427000Y-131818863D01*
X270427000Y-131605137D01*
X270385304Y-131395517D01*
X270303515Y-131198060D01*
X270184775Y-131020353D01*
X270033647Y-130869225D01*
X269855940Y-130750485D01*
X269658483Y-130668696D01*
X269448863Y-130627000D01*
X269235137Y-130627000D01*
X269025517Y-130668696D01*
X268828060Y-130750485D01*
X268650353Y-130869225D01*
X268499225Y-131020353D01*
X268380485Y-131198060D01*
X268298696Y-131395517D01*
X268257000Y-131605137D01*
X266140724Y-131605137D01*
X266173304Y-131526483D01*
X266215000Y-131316863D01*
X266215000Y-131103137D01*
X266173304Y-130893517D01*
X266091515Y-130696060D01*
X265972775Y-130518353D01*
X265821647Y-130367225D01*
X265643940Y-130248485D01*
X265446483Y-130166696D01*
X265236863Y-130125000D01*
X265023137Y-130125000D01*
X264813517Y-130166696D01*
X264616060Y-130248485D01*
X264438353Y-130367225D01*
X264287225Y-130518353D01*
X264168485Y-130696060D01*
X264086696Y-130893517D01*
X264045000Y-131103137D01*
X252514734Y-131103137D01*
X252773411Y-130995990D01*
X253016632Y-130833475D01*
X253223475Y-130626632D01*
X253385990Y-130383411D01*
X253497932Y-130113158D01*
X253555000Y-129826260D01*
X253555000Y-129533740D01*
X253497932Y-129246842D01*
X253385990Y-128976589D01*
X253223475Y-128733368D01*
X253091620Y-128601513D01*
X253164180Y-128579502D01*
X253274494Y-128520537D01*
X253371185Y-128441185D01*
X253450537Y-128344494D01*
X253509502Y-128234180D01*
X253545812Y-128114482D01*
X253558072Y-127990000D01*
X253555000Y-127425750D01*
X253396250Y-127267000D01*
X252197000Y-127267000D01*
X252197000Y-127287000D01*
X251943000Y-127287000D01*
X251943000Y-127267000D01*
X249657000Y-127267000D01*
X249657000Y-127287000D01*
X249403000Y-127287000D01*
X249403000Y-127267000D01*
X248203750Y-127267000D01*
X248045000Y-127425750D01*
X248041928Y-127990000D01*
X206751669Y-127990000D01*
X206602012Y-127628698D01*
X206368363Y-127279017D01*
X206070983Y-126981637D01*
X205721302Y-126747988D01*
X205332756Y-126587047D01*
X204920279Y-126505000D01*
X204499721Y-126505000D01*
X204087244Y-126587047D01*
X203698698Y-126747988D01*
X203349017Y-126981637D01*
X203051637Y-127279017D01*
X202817988Y-127628698D01*
X202657047Y-128017244D01*
X202575000Y-128429721D01*
X200745100Y-128429721D01*
X200745100Y-126290000D01*
X248041928Y-126290000D01*
X248045000Y-126854250D01*
X248203750Y-127013000D01*
X249403000Y-127013000D01*
X249403000Y-125813750D01*
X249657000Y-125813750D01*
X249657000Y-127013000D01*
X251943000Y-127013000D01*
X251943000Y-125813750D01*
X252197000Y-125813750D01*
X252197000Y-127013000D01*
X253396250Y-127013000D01*
X253555000Y-126854250D01*
X253558072Y-126290000D01*
X253545812Y-126165518D01*
X253509502Y-126045820D01*
X253450537Y-125935506D01*
X253371185Y-125838815D01*
X253274494Y-125759463D01*
X253164180Y-125700498D01*
X253044482Y-125664188D01*
X252920000Y-125651928D01*
X252355750Y-125655000D01*
X252197000Y-125813750D01*
X251943000Y-125813750D01*
X251784250Y-125655000D01*
X251220000Y-125651928D01*
X251095518Y-125664188D01*
X250975820Y-125700498D01*
X250865506Y-125759463D01*
X250800000Y-125813222D01*
X250734494Y-125759463D01*
X250624180Y-125700498D01*
X250504482Y-125664188D01*
X250380000Y-125651928D01*
X249815750Y-125655000D01*
X249657000Y-125813750D01*
X249403000Y-125813750D01*
X249244250Y-125655000D01*
X248680000Y-125651928D01*
X248555518Y-125664188D01*
X248435820Y-125700498D01*
X248325506Y-125759463D01*
X248228815Y-125838815D01*
X248149463Y-125935506D01*
X248090498Y-126045820D01*
X248054188Y-126165518D01*
X248041928Y-126290000D01*
X200745100Y-126290000D01*
X200745100Y-122060000D01*
X202571928Y-122060000D01*
X202571928Y-125060000D01*
X202584188Y-125184482D01*
X202620498Y-125304180D01*
X202679463Y-125414494D01*
X202758815Y-125511185D01*
X202855506Y-125590537D01*
X202965820Y-125649502D01*
X203085518Y-125685812D01*
X203210000Y-125698072D01*
X206210000Y-125698072D01*
X206334482Y-125685812D01*
X206454180Y-125649502D01*
X206564494Y-125590537D01*
X206661185Y-125511185D01*
X206740537Y-125414494D01*
X206799502Y-125304180D01*
X206835812Y-125184482D01*
X206848072Y-125060000D01*
X206848072Y-124246655D01*
X240060000Y-124246655D01*
X240060000Y-124593345D01*
X240127636Y-124933373D01*
X240260308Y-125253673D01*
X240452919Y-125541935D01*
X240698065Y-125787081D01*
X240986327Y-125979692D01*
X241306627Y-126112364D01*
X241646655Y-126180000D01*
X241993345Y-126180000D01*
X242333373Y-126112364D01*
X242653673Y-125979692D01*
X242941935Y-125787081D01*
X243187081Y-125541935D01*
X243208995Y-125509137D01*
X264193000Y-125509137D01*
X264193000Y-125722863D01*
X264234696Y-125932483D01*
X264316485Y-126129940D01*
X264435225Y-126307647D01*
X264586353Y-126458775D01*
X264764060Y-126577515D01*
X264961517Y-126659304D01*
X265171137Y-126701000D01*
X265384863Y-126701000D01*
X265590983Y-126660000D01*
X272541928Y-126660000D01*
X272541928Y-130160000D01*
X272554188Y-130284482D01*
X272590498Y-130404180D01*
X272649463Y-130514494D01*
X272728815Y-130611185D01*
X272825506Y-130690537D01*
X272935820Y-130749502D01*
X273055518Y-130785812D01*
X273180000Y-130798072D01*
X276680000Y-130798072D01*
X276804482Y-130785812D01*
X276924180Y-130749502D01*
X277034494Y-130690537D01*
X277131185Y-130611185D01*
X277210537Y-130514494D01*
X277269502Y-130404180D01*
X277305812Y-130284482D01*
X277318072Y-130160000D01*
X277318072Y-127410000D01*
X278791928Y-127410000D01*
X278791928Y-129410000D01*
X278818599Y-129680799D01*
X278897589Y-129941192D01*
X279025860Y-130181171D01*
X279198485Y-130391515D01*
X279408829Y-130564140D01*
X279648808Y-130692411D01*
X279909201Y-130771401D01*
X280180000Y-130798072D01*
X281680000Y-130798072D01*
X281950799Y-130771401D01*
X282211192Y-130692411D01*
X282451171Y-130564140D01*
X282661515Y-130391515D01*
X282834140Y-130181171D01*
X282962411Y-129941192D01*
X283041401Y-129680799D01*
X283068072Y-129410000D01*
X283068072Y-127410000D01*
X283041401Y-127139201D01*
X282962411Y-126878808D01*
X282834140Y-126638829D01*
X282661515Y-126428485D01*
X282451171Y-126255860D01*
X282211192Y-126127589D01*
X281950799Y-126048599D01*
X281680000Y-126021928D01*
X280180000Y-126021928D01*
X279909201Y-126048599D01*
X279648808Y-126127589D01*
X279408829Y-126255860D01*
X279198485Y-126428485D01*
X279025860Y-126638829D01*
X278897589Y-126878808D01*
X278818599Y-127139201D01*
X278791928Y-127410000D01*
X277318072Y-127410000D01*
X277318072Y-126660000D01*
X277305812Y-126535518D01*
X277269502Y-126415820D01*
X277210537Y-126305506D01*
X277131185Y-126208815D01*
X277034494Y-126129463D01*
X276957869Y-126088506D01*
X277055000Y-126098072D01*
X278805000Y-126098072D01*
X279100186Y-126068999D01*
X279384028Y-125982896D01*
X279645618Y-125843073D01*
X279874903Y-125654903D01*
X280063073Y-125425618D01*
X280202896Y-125164028D01*
X280288999Y-124880186D01*
X280318072Y-124585000D01*
X280318072Y-122835000D01*
X280288999Y-122539814D01*
X280202896Y-122255972D01*
X280063073Y-121994382D01*
X279874903Y-121765097D01*
X279645618Y-121576927D01*
X279384028Y-121437104D01*
X279100186Y-121351001D01*
X278805000Y-121321928D01*
X277055000Y-121321928D01*
X276759814Y-121351001D01*
X276475972Y-121437104D01*
X276214382Y-121576927D01*
X275985097Y-121765097D01*
X275796927Y-121994382D01*
X275657104Y-122255972D01*
X275571001Y-122539814D01*
X275541928Y-122835000D01*
X275541928Y-124585000D01*
X275571001Y-124880186D01*
X275657104Y-125164028D01*
X275796927Y-125425618D01*
X275985097Y-125654903D01*
X276214382Y-125843073D01*
X276475972Y-125982896D01*
X276604643Y-126021928D01*
X273180000Y-126021928D01*
X273055518Y-126034188D01*
X272935820Y-126070498D01*
X272825506Y-126129463D01*
X272728815Y-126208815D01*
X272649463Y-126305506D01*
X272590498Y-126415820D01*
X272554188Y-126535518D01*
X272541928Y-126660000D01*
X265590983Y-126660000D01*
X265594483Y-126659304D01*
X265791940Y-126577515D01*
X265969647Y-126458775D01*
X266120775Y-126307647D01*
X266239515Y-126129940D01*
X266321304Y-125932483D01*
X266363000Y-125722863D01*
X266363000Y-125509137D01*
X266321304Y-125299517D01*
X266239515Y-125102060D01*
X266120775Y-124924353D01*
X265969647Y-124773225D01*
X265791940Y-124654485D01*
X265594483Y-124572696D01*
X265384863Y-124531000D01*
X265171137Y-124531000D01*
X264961517Y-124572696D01*
X264764060Y-124654485D01*
X264586353Y-124773225D01*
X264435225Y-124924353D01*
X264316485Y-125102060D01*
X264234696Y-125299517D01*
X264193000Y-125509137D01*
X243208995Y-125509137D01*
X243379692Y-125253673D01*
X243512364Y-124933373D01*
X243580000Y-124593345D01*
X243580000Y-124246655D01*
X243512364Y-123906627D01*
X243379692Y-123586327D01*
X243187081Y-123298065D01*
X242941935Y-123052919D01*
X242653673Y-122860308D01*
X242333373Y-122727636D01*
X241993345Y-122660000D01*
X241646655Y-122660000D01*
X241306627Y-122727636D01*
X240986327Y-122860308D01*
X240698065Y-123052919D01*
X240452919Y-123298065D01*
X240260308Y-123586327D01*
X240127636Y-123906627D01*
X240060000Y-124246655D01*
X206848072Y-124246655D01*
X206848072Y-122060000D01*
X206835812Y-121935518D01*
X206799502Y-121815820D01*
X206740537Y-121705506D01*
X206661185Y-121608815D01*
X206564494Y-121529463D01*
X206454180Y-121470498D01*
X206334482Y-121434188D01*
X206210000Y-121421928D01*
X203210000Y-121421928D01*
X203085518Y-121434188D01*
X202965820Y-121470498D01*
X202855506Y-121529463D01*
X202758815Y-121608815D01*
X202679463Y-121705506D01*
X202620498Y-121815820D01*
X202584188Y-121935518D01*
X202571928Y-122060000D01*
X200745100Y-122060000D01*
X200745100Y-116668514D01*
X201765000Y-116668514D01*
X201765000Y-116931486D01*
X201816304Y-117189405D01*
X201916939Y-117432359D01*
X202063038Y-117651013D01*
X202248987Y-117836962D01*
X202467641Y-117983061D01*
X202710595Y-118083696D01*
X202968514Y-118135000D01*
X203231486Y-118135000D01*
X203489405Y-118083696D01*
X203732359Y-117983061D01*
X203951013Y-117836962D01*
X204034915Y-117753060D01*
X213688428Y-117753060D01*
X213688428Y-119453060D01*
X213700688Y-119577542D01*
X213736998Y-119697240D01*
X213795963Y-119807554D01*
X213875315Y-119904245D01*
X213972006Y-119983597D01*
X214082320Y-120042562D01*
X214154880Y-120064573D01*
X214023025Y-120196428D01*
X213860510Y-120439649D01*
X213748568Y-120709902D01*
X213691500Y-120996800D01*
X213691500Y-121289320D01*
X213748568Y-121576218D01*
X213860510Y-121846471D01*
X214023025Y-122089692D01*
X214229868Y-122296535D01*
X214473089Y-122459050D01*
X214743342Y-122570992D01*
X215030240Y-122628060D01*
X215322760Y-122628060D01*
X215609658Y-122570992D01*
X215879911Y-122459050D01*
X216123132Y-122296535D01*
X216329975Y-122089692D01*
X216492490Y-121846471D01*
X216604432Y-121576218D01*
X216661500Y-121289320D01*
X216661500Y-120996800D01*
X216604432Y-120709902D01*
X216492490Y-120439649D01*
X216329975Y-120196428D01*
X216198120Y-120064573D01*
X216270680Y-120042562D01*
X216380994Y-119983597D01*
X216477685Y-119904245D01*
X216557037Y-119807554D01*
X216616002Y-119697240D01*
X216652312Y-119577542D01*
X216664572Y-119453060D01*
X216664572Y-117753060D01*
X216652312Y-117628578D01*
X216616002Y-117508880D01*
X216557037Y-117398566D01*
X216477685Y-117301875D01*
X216380994Y-117222523D01*
X216270680Y-117163558D01*
X216150982Y-117127248D01*
X216026500Y-117114988D01*
X214326500Y-117114988D01*
X214202018Y-117127248D01*
X214082320Y-117163558D01*
X213972006Y-117222523D01*
X213875315Y-117301875D01*
X213795963Y-117398566D01*
X213736998Y-117508880D01*
X213700688Y-117628578D01*
X213688428Y-117753060D01*
X204034915Y-117753060D01*
X204136962Y-117651013D01*
X204283061Y-117432359D01*
X204383696Y-117189405D01*
X204435000Y-116931486D01*
X204435000Y-116668514D01*
X204426674Y-116626655D01*
X219740000Y-116626655D01*
X219740000Y-116973345D01*
X219807636Y-117313373D01*
X219940308Y-117633673D01*
X220132919Y-117921935D01*
X220378065Y-118167081D01*
X220666327Y-118359692D01*
X220986627Y-118492364D01*
X221326655Y-118560000D01*
X221673345Y-118560000D01*
X222013373Y-118492364D01*
X222333673Y-118359692D01*
X222621935Y-118167081D01*
X222867081Y-117921935D01*
X223059692Y-117633673D01*
X223192364Y-117313373D01*
X223260000Y-116973345D01*
X223260000Y-116626655D01*
X223192364Y-116286627D01*
X223059692Y-115966327D01*
X222867081Y-115678065D01*
X222621935Y-115432919D01*
X222333673Y-115240308D01*
X222013373Y-115107636D01*
X221673345Y-115040000D01*
X221326655Y-115040000D01*
X220986627Y-115107636D01*
X220666327Y-115240308D01*
X220378065Y-115432919D01*
X220132919Y-115678065D01*
X219940308Y-115966327D01*
X219807636Y-116286627D01*
X219740000Y-116626655D01*
X204426674Y-116626655D01*
X204383696Y-116410595D01*
X204283061Y-116167641D01*
X204136962Y-115948987D01*
X203951013Y-115763038D01*
X203732359Y-115616939D01*
X203489405Y-115516304D01*
X203231486Y-115465000D01*
X202968514Y-115465000D01*
X202710595Y-115516304D01*
X202467641Y-115616939D01*
X202248987Y-115763038D01*
X202063038Y-115948987D01*
X201916939Y-116167641D01*
X201816304Y-116410595D01*
X201765000Y-116668514D01*
X200745100Y-116668514D01*
X200745100Y-113565098D01*
X210715000Y-113565098D01*
X210715000Y-114034902D01*
X210806654Y-114495679D01*
X210986440Y-114929721D01*
X211247450Y-115320349D01*
X211579651Y-115652550D01*
X211970279Y-115913560D01*
X212404321Y-116093346D01*
X212865098Y-116185000D01*
X213334902Y-116185000D01*
X213795679Y-116093346D01*
X214229721Y-115913560D01*
X214620349Y-115652550D01*
X214952550Y-115320349D01*
X215213560Y-114929721D01*
X215393346Y-114495679D01*
X215474705Y-114086655D01*
X240060000Y-114086655D01*
X240060000Y-114433345D01*
X240127636Y-114773373D01*
X240260308Y-115093673D01*
X240452919Y-115381935D01*
X240698065Y-115627081D01*
X240986327Y-115819692D01*
X241306627Y-115952364D01*
X241646655Y-116020000D01*
X241993345Y-116020000D01*
X242333373Y-115952364D01*
X242653673Y-115819692D01*
X242941935Y-115627081D01*
X243187081Y-115381935D01*
X243248510Y-115290000D01*
X248041928Y-115290000D01*
X248054188Y-115414482D01*
X248090498Y-115534180D01*
X248149463Y-115644494D01*
X248228815Y-115741185D01*
X248325506Y-115820537D01*
X248435820Y-115879502D01*
X248508380Y-115901513D01*
X248376525Y-116033368D01*
X248214010Y-116276589D01*
X248102068Y-116546842D01*
X248045000Y-116833740D01*
X248045000Y-117126260D01*
X248102068Y-117413158D01*
X248214010Y-117683411D01*
X248376525Y-117926632D01*
X248583368Y-118133475D01*
X248826589Y-118295990D01*
X249096842Y-118407932D01*
X249383740Y-118465000D01*
X249676260Y-118465000D01*
X249963158Y-118407932D01*
X250233411Y-118295990D01*
X250476632Y-118133475D01*
X250683475Y-117926632D01*
X250800000Y-117752240D01*
X250916525Y-117926632D01*
X251123368Y-118133475D01*
X251366589Y-118295990D01*
X251636842Y-118407932D01*
X251923740Y-118465000D01*
X252216260Y-118465000D01*
X252503158Y-118407932D01*
X252773411Y-118295990D01*
X253016632Y-118133475D01*
X253223475Y-117926632D01*
X253385990Y-117683411D01*
X253497932Y-117413158D01*
X253555000Y-117126260D01*
X253555000Y-116984387D01*
X258853750Y-116984387D01*
X258853750Y-117198113D01*
X258895446Y-117407733D01*
X258977235Y-117605190D01*
X259095975Y-117782897D01*
X259209328Y-117896250D01*
X259124725Y-117980853D01*
X259005985Y-118158560D01*
X258924196Y-118356017D01*
X258882500Y-118565637D01*
X258882500Y-118779363D01*
X258924196Y-118988983D01*
X259005985Y-119186440D01*
X259124725Y-119364147D01*
X259275853Y-119515275D01*
X259453560Y-119634015D01*
X259651017Y-119715804D01*
X259860637Y-119757500D01*
X260074363Y-119757500D01*
X260283983Y-119715804D01*
X260481440Y-119634015D01*
X260659147Y-119515275D01*
X260810275Y-119364147D01*
X260929015Y-119186440D01*
X261010804Y-118988983D01*
X261052500Y-118779363D01*
X261052500Y-118565637D01*
X261010804Y-118356017D01*
X260929015Y-118158560D01*
X260810275Y-117980853D01*
X260696922Y-117867500D01*
X260781525Y-117782897D01*
X260900265Y-117605190D01*
X260982054Y-117407733D01*
X261023750Y-117198113D01*
X261023750Y-116984387D01*
X260982054Y-116774767D01*
X260900265Y-116577310D01*
X260781525Y-116399603D01*
X260630397Y-116248475D01*
X260452690Y-116129735D01*
X260255233Y-116047946D01*
X260045613Y-116006250D01*
X259831887Y-116006250D01*
X259622267Y-116047946D01*
X259424810Y-116129735D01*
X259247103Y-116248475D01*
X259095975Y-116399603D01*
X258977235Y-116577310D01*
X258895446Y-116774767D01*
X258853750Y-116984387D01*
X253555000Y-116984387D01*
X253555000Y-116833740D01*
X253497932Y-116546842D01*
X253385990Y-116276589D01*
X253223475Y-116033368D01*
X253091620Y-115901513D01*
X253164180Y-115879502D01*
X253274494Y-115820537D01*
X253371185Y-115741185D01*
X253450537Y-115644494D01*
X253509502Y-115534180D01*
X253545812Y-115414482D01*
X253558072Y-115290000D01*
X253555000Y-114725750D01*
X253396250Y-114567000D01*
X252197000Y-114567000D01*
X252197000Y-114587000D01*
X251943000Y-114587000D01*
X251943000Y-114567000D01*
X249657000Y-114567000D01*
X249657000Y-114587000D01*
X249403000Y-114587000D01*
X249403000Y-114567000D01*
X248203750Y-114567000D01*
X248045000Y-114725750D01*
X248041928Y-115290000D01*
X243248510Y-115290000D01*
X243379692Y-115093673D01*
X243512364Y-114773373D01*
X243580000Y-114433345D01*
X243580000Y-114086655D01*
X243512364Y-113746627D01*
X243447488Y-113590000D01*
X248041928Y-113590000D01*
X248045000Y-114154250D01*
X248203750Y-114313000D01*
X249403000Y-114313000D01*
X249403000Y-113113750D01*
X249657000Y-113113750D01*
X249657000Y-114313000D01*
X251943000Y-114313000D01*
X251943000Y-113113750D01*
X252197000Y-113113750D01*
X252197000Y-114313000D01*
X253396250Y-114313000D01*
X253555000Y-114154250D01*
X253556057Y-113960000D01*
X272541928Y-113960000D01*
X272541928Y-117460000D01*
X272554188Y-117584482D01*
X272590498Y-117704180D01*
X272649463Y-117814494D01*
X272728815Y-117911185D01*
X272825506Y-117990537D01*
X272935820Y-118049502D01*
X273055518Y-118085812D01*
X273180000Y-118098072D01*
X276680000Y-118098072D01*
X276804482Y-118085812D01*
X276924180Y-118049502D01*
X277034494Y-117990537D01*
X277131185Y-117911185D01*
X277210537Y-117814494D01*
X277269502Y-117704180D01*
X277305812Y-117584482D01*
X277318072Y-117460000D01*
X277318072Y-114710000D01*
X278791928Y-114710000D01*
X278791928Y-116710000D01*
X278818599Y-116980799D01*
X278897589Y-117241192D01*
X279025860Y-117481171D01*
X279198485Y-117691515D01*
X279408829Y-117864140D01*
X279648808Y-117992411D01*
X279909201Y-118071401D01*
X280180000Y-118098072D01*
X281680000Y-118098072D01*
X281950799Y-118071401D01*
X282211192Y-117992411D01*
X282451171Y-117864140D01*
X282661515Y-117691515D01*
X282834140Y-117481171D01*
X282962411Y-117241192D01*
X283041401Y-116980799D01*
X283068072Y-116710000D01*
X283068072Y-114710000D01*
X283041401Y-114439201D01*
X282962411Y-114178808D01*
X282834140Y-113938829D01*
X282661515Y-113728485D01*
X282451171Y-113555860D01*
X282211192Y-113427589D01*
X281950799Y-113348599D01*
X281680000Y-113321928D01*
X280180000Y-113321928D01*
X279909201Y-113348599D01*
X279648808Y-113427589D01*
X279408829Y-113555860D01*
X279198485Y-113728485D01*
X279025860Y-113938829D01*
X278897589Y-114178808D01*
X278818599Y-114439201D01*
X278791928Y-114710000D01*
X277318072Y-114710000D01*
X277318072Y-113960000D01*
X277305812Y-113835518D01*
X277269502Y-113715820D01*
X277210537Y-113605506D01*
X277131185Y-113508815D01*
X277034494Y-113429463D01*
X276957869Y-113388506D01*
X277055000Y-113398072D01*
X278805000Y-113398072D01*
X279100186Y-113368999D01*
X279384028Y-113282896D01*
X279645618Y-113143073D01*
X279874903Y-112954903D01*
X280063073Y-112725618D01*
X280202896Y-112464028D01*
X280288999Y-112180186D01*
X280318072Y-111885000D01*
X280318072Y-110135000D01*
X280288999Y-109839814D01*
X280202896Y-109555972D01*
X280063073Y-109294382D01*
X279874903Y-109065097D01*
X279645618Y-108876927D01*
X279384028Y-108737104D01*
X279100186Y-108651001D01*
X278805000Y-108621928D01*
X277055000Y-108621928D01*
X276759814Y-108651001D01*
X276475972Y-108737104D01*
X276214382Y-108876927D01*
X275985097Y-109065097D01*
X275796927Y-109294382D01*
X275657104Y-109555972D01*
X275571001Y-109839814D01*
X275541928Y-110135000D01*
X275541928Y-111885000D01*
X275571001Y-112180186D01*
X275657104Y-112464028D01*
X275796927Y-112725618D01*
X275985097Y-112954903D01*
X276214382Y-113143073D01*
X276475972Y-113282896D01*
X276604643Y-113321928D01*
X273180000Y-113321928D01*
X273055518Y-113334188D01*
X272935820Y-113370498D01*
X272825506Y-113429463D01*
X272728815Y-113508815D01*
X272649463Y-113605506D01*
X272590498Y-113715820D01*
X272554188Y-113835518D01*
X272541928Y-113960000D01*
X253556057Y-113960000D01*
X253558072Y-113590000D01*
X253545812Y-113465518D01*
X253509502Y-113345820D01*
X253450537Y-113235506D01*
X253371185Y-113138815D01*
X253274494Y-113059463D01*
X253164180Y-113000498D01*
X253044482Y-112964188D01*
X252920000Y-112951928D01*
X252355750Y-112955000D01*
X252197000Y-113113750D01*
X251943000Y-113113750D01*
X251784250Y-112955000D01*
X251220000Y-112951928D01*
X251095518Y-112964188D01*
X250975820Y-113000498D01*
X250865506Y-113059463D01*
X250800000Y-113113222D01*
X250734494Y-113059463D01*
X250624180Y-113000498D01*
X250504482Y-112964188D01*
X250380000Y-112951928D01*
X249815750Y-112955000D01*
X249657000Y-113113750D01*
X249403000Y-113113750D01*
X249244250Y-112955000D01*
X248680000Y-112951928D01*
X248555518Y-112964188D01*
X248435820Y-113000498D01*
X248325506Y-113059463D01*
X248228815Y-113138815D01*
X248149463Y-113235506D01*
X248090498Y-113345820D01*
X248054188Y-113465518D01*
X248041928Y-113590000D01*
X243447488Y-113590000D01*
X243379692Y-113426327D01*
X243187081Y-113138065D01*
X242941935Y-112892919D01*
X242653673Y-112700308D01*
X242333373Y-112567636D01*
X241993345Y-112500000D01*
X241646655Y-112500000D01*
X241306627Y-112567636D01*
X240986327Y-112700308D01*
X240698065Y-112892919D01*
X240452919Y-113138065D01*
X240260308Y-113426327D01*
X240127636Y-113746627D01*
X240060000Y-114086655D01*
X215474705Y-114086655D01*
X215485000Y-114034902D01*
X215485000Y-113565098D01*
X215393346Y-113104321D01*
X215327159Y-112944531D01*
X220455074Y-112944531D01*
X220565921Y-113221714D01*
X220876840Y-113375089D01*
X221211705Y-113464860D01*
X221557650Y-113487576D01*
X221901380Y-113442366D01*
X222229685Y-113330966D01*
X222434079Y-113221714D01*
X222544926Y-112944531D01*
X221500000Y-111899605D01*
X220455074Y-112944531D01*
X215327159Y-112944531D01*
X215213560Y-112670279D01*
X214952550Y-112279651D01*
X214620349Y-111947450D01*
X214366227Y-111777650D01*
X219732424Y-111777650D01*
X219777634Y-112121380D01*
X219889034Y-112449685D01*
X219998286Y-112654079D01*
X220275469Y-112764926D01*
X221320395Y-111720000D01*
X221679605Y-111720000D01*
X222724531Y-112764926D01*
X223001714Y-112654079D01*
X223155089Y-112343160D01*
X223244860Y-112008295D01*
X223267576Y-111662350D01*
X223222366Y-111318620D01*
X223110966Y-110990315D01*
X223001714Y-110785921D01*
X222724531Y-110675074D01*
X221679605Y-111720000D01*
X221320395Y-111720000D01*
X220275469Y-110675074D01*
X219998286Y-110785921D01*
X219844911Y-111096840D01*
X219755140Y-111431705D01*
X219732424Y-111777650D01*
X214366227Y-111777650D01*
X214229721Y-111686440D01*
X213795679Y-111506654D01*
X213334902Y-111415000D01*
X212865098Y-111415000D01*
X212404321Y-111506654D01*
X211970279Y-111686440D01*
X211579651Y-111947450D01*
X211247450Y-112279651D01*
X210986440Y-112670279D01*
X210806654Y-113104321D01*
X210715000Y-113565098D01*
X200745100Y-113565098D01*
X200745100Y-105668514D01*
X201765000Y-105668514D01*
X201765000Y-105931486D01*
X201816304Y-106189405D01*
X201916939Y-106432359D01*
X202063038Y-106651013D01*
X202248987Y-106836962D01*
X202467641Y-106983061D01*
X202710595Y-107083696D01*
X202968514Y-107135000D01*
X203231486Y-107135000D01*
X203489405Y-107083696D01*
X203570754Y-107050000D01*
X210711928Y-107050000D01*
X210711928Y-110550000D01*
X210724188Y-110674482D01*
X210760498Y-110794180D01*
X210819463Y-110904494D01*
X210898815Y-111001185D01*
X210995506Y-111080537D01*
X211105820Y-111139502D01*
X211225518Y-111175812D01*
X211350000Y-111188072D01*
X214850000Y-111188072D01*
X214974482Y-111175812D01*
X215094180Y-111139502D01*
X215204494Y-111080537D01*
X215301185Y-111001185D01*
X215380537Y-110904494D01*
X215439502Y-110794180D01*
X215475812Y-110674482D01*
X215488072Y-110550000D01*
X215488072Y-110495469D01*
X220455074Y-110495469D01*
X221500000Y-111540395D01*
X222544926Y-110495469D01*
X222434079Y-110218286D01*
X222123160Y-110064911D01*
X221788295Y-109975140D01*
X221442350Y-109952424D01*
X221098620Y-109997634D01*
X220770315Y-110109034D01*
X220565921Y-110218286D01*
X220455074Y-110495469D01*
X215488072Y-110495469D01*
X215488072Y-108913137D01*
X264445000Y-108913137D01*
X264445000Y-109126863D01*
X264486696Y-109336483D01*
X264568485Y-109533940D01*
X264687225Y-109711647D01*
X264838353Y-109862775D01*
X265016060Y-109981515D01*
X265213517Y-110063304D01*
X265423137Y-110105000D01*
X265636863Y-110105000D01*
X265846483Y-110063304D01*
X266043940Y-109981515D01*
X266221647Y-109862775D01*
X266372775Y-109711647D01*
X266491515Y-109533940D01*
X266573304Y-109336483D01*
X266615000Y-109126863D01*
X266615000Y-109060673D01*
X266678485Y-109213940D01*
X266797225Y-109391647D01*
X266948353Y-109542775D01*
X267126060Y-109661515D01*
X267323517Y-109743304D01*
X267533137Y-109785000D01*
X267746863Y-109785000D01*
X267956483Y-109743304D01*
X268153940Y-109661515D01*
X268331647Y-109542775D01*
X268482775Y-109391647D01*
X268601515Y-109213940D01*
X268683304Y-109016483D01*
X268725000Y-108806863D01*
X268725000Y-108593137D01*
X268683304Y-108383517D01*
X268601515Y-108186060D01*
X268482775Y-108008353D01*
X268331647Y-107857225D01*
X268153940Y-107738485D01*
X267956483Y-107656696D01*
X267746863Y-107615000D01*
X267533137Y-107615000D01*
X267323517Y-107656696D01*
X267126060Y-107738485D01*
X266948353Y-107857225D01*
X266797225Y-108008353D01*
X266678485Y-108186060D01*
X266596696Y-108383517D01*
X266555000Y-108593137D01*
X266555000Y-108659327D01*
X266491515Y-108506060D01*
X266372775Y-108328353D01*
X266221647Y-108177225D01*
X266043940Y-108058485D01*
X265846483Y-107976696D01*
X265636863Y-107935000D01*
X265423137Y-107935000D01*
X265213517Y-107976696D01*
X265016060Y-108058485D01*
X264838353Y-108177225D01*
X264687225Y-108328353D01*
X264568485Y-108506060D01*
X264486696Y-108703517D01*
X264445000Y-108913137D01*
X215488072Y-108913137D01*
X215488072Y-107050000D01*
X215475812Y-106925518D01*
X215439502Y-106805820D01*
X215380537Y-106695506D01*
X215301185Y-106598815D01*
X215204494Y-106519463D01*
X215094180Y-106460498D01*
X214974482Y-106424188D01*
X214850000Y-106411928D01*
X211350000Y-106411928D01*
X211225518Y-106424188D01*
X211105820Y-106460498D01*
X210995506Y-106519463D01*
X210898815Y-106598815D01*
X210819463Y-106695506D01*
X210760498Y-106805820D01*
X210724188Y-106925518D01*
X210711928Y-107050000D01*
X203570754Y-107050000D01*
X203732359Y-106983061D01*
X203951013Y-106836962D01*
X204136962Y-106651013D01*
X204283061Y-106432359D01*
X204383696Y-106189405D01*
X204435000Y-105931486D01*
X204435000Y-105668514D01*
X204383696Y-105410595D01*
X204283061Y-105167641D01*
X204136962Y-104948987D01*
X203951013Y-104763038D01*
X203732359Y-104616939D01*
X203489405Y-104516304D01*
X203231486Y-104465000D01*
X202968514Y-104465000D01*
X202710595Y-104516304D01*
X202467641Y-104616939D01*
X202248987Y-104763038D01*
X202063038Y-104948987D01*
X201916939Y-105167641D01*
X201816304Y-105410595D01*
X201765000Y-105668514D01*
X200745100Y-105668514D01*
X200745100Y-103926655D01*
X219740000Y-103926655D01*
X219740000Y-104273345D01*
X219807636Y-104613373D01*
X219940308Y-104933673D01*
X220132919Y-105221935D01*
X220378065Y-105467081D01*
X220666327Y-105659692D01*
X220986627Y-105792364D01*
X221326655Y-105860000D01*
X221673345Y-105860000D01*
X222013373Y-105792364D01*
X222333673Y-105659692D01*
X222621935Y-105467081D01*
X222764485Y-105324531D01*
X240775074Y-105324531D01*
X240885921Y-105601714D01*
X241196840Y-105755089D01*
X241531705Y-105844860D01*
X241877650Y-105867576D01*
X242221380Y-105822366D01*
X242549685Y-105710966D01*
X242754079Y-105601714D01*
X242864926Y-105324531D01*
X241820000Y-104279605D01*
X240775074Y-105324531D01*
X222764485Y-105324531D01*
X222867081Y-105221935D01*
X223059692Y-104933673D01*
X223192364Y-104613373D01*
X223260000Y-104273345D01*
X223260000Y-104157650D01*
X240052424Y-104157650D01*
X240097634Y-104501380D01*
X240209034Y-104829685D01*
X240318286Y-105034079D01*
X240595469Y-105144926D01*
X241640395Y-104100000D01*
X241999605Y-104100000D01*
X243044531Y-105144926D01*
X243081854Y-105130000D01*
X248041928Y-105130000D01*
X248054188Y-105254482D01*
X248090498Y-105374180D01*
X248149463Y-105484494D01*
X248228815Y-105581185D01*
X248325506Y-105660537D01*
X248435820Y-105719502D01*
X248508380Y-105741513D01*
X248376525Y-105873368D01*
X248214010Y-106116589D01*
X248102068Y-106386842D01*
X248045000Y-106673740D01*
X248045000Y-106966260D01*
X248102068Y-107253158D01*
X248214010Y-107523411D01*
X248376525Y-107766632D01*
X248583368Y-107973475D01*
X248826589Y-108135990D01*
X249096842Y-108247932D01*
X249383740Y-108305000D01*
X249676260Y-108305000D01*
X249963158Y-108247932D01*
X250233411Y-108135990D01*
X250476632Y-107973475D01*
X250683475Y-107766632D01*
X250800000Y-107592240D01*
X250916525Y-107766632D01*
X251123368Y-107973475D01*
X251366589Y-108135990D01*
X251636842Y-108247932D01*
X251923740Y-108305000D01*
X252216260Y-108305000D01*
X252503158Y-108247932D01*
X252773411Y-108135990D01*
X253016632Y-107973475D01*
X253223475Y-107766632D01*
X253316014Y-107628137D01*
X258540000Y-107628137D01*
X258540000Y-107841863D01*
X258581696Y-108051483D01*
X258663485Y-108248940D01*
X258782225Y-108426647D01*
X258933353Y-108577775D01*
X259111060Y-108696515D01*
X259308517Y-108778304D01*
X259518137Y-108820000D01*
X259731863Y-108820000D01*
X259941483Y-108778304D01*
X260138940Y-108696515D01*
X260316647Y-108577775D01*
X260467775Y-108426647D01*
X260586515Y-108248940D01*
X260668304Y-108051483D01*
X260710000Y-107841863D01*
X260710000Y-107628137D01*
X260668304Y-107418517D01*
X260586515Y-107221060D01*
X260467775Y-107043353D01*
X260316647Y-106892225D01*
X260138940Y-106773485D01*
X259941483Y-106691696D01*
X259731863Y-106650000D01*
X259518137Y-106650000D01*
X259308517Y-106691696D01*
X259111060Y-106773485D01*
X258933353Y-106892225D01*
X258782225Y-107043353D01*
X258663485Y-107221060D01*
X258581696Y-107418517D01*
X258540000Y-107628137D01*
X253316014Y-107628137D01*
X253385990Y-107523411D01*
X253497932Y-107253158D01*
X253555000Y-106966260D01*
X253555000Y-106673740D01*
X253497932Y-106386842D01*
X253385990Y-106116589D01*
X253223475Y-105873368D01*
X253091620Y-105741513D01*
X253164180Y-105719502D01*
X253274494Y-105660537D01*
X253371185Y-105581185D01*
X253450537Y-105484494D01*
X253509502Y-105374180D01*
X253545812Y-105254482D01*
X253558072Y-105130000D01*
X253555000Y-104565750D01*
X253396250Y-104407000D01*
X252197000Y-104407000D01*
X252197000Y-104427000D01*
X251943000Y-104427000D01*
X251943000Y-104407000D01*
X249657000Y-104407000D01*
X249657000Y-104427000D01*
X249403000Y-104427000D01*
X249403000Y-104407000D01*
X248203750Y-104407000D01*
X248045000Y-104565750D01*
X248041928Y-105130000D01*
X243081854Y-105130000D01*
X243321714Y-105034079D01*
X243475089Y-104723160D01*
X243564860Y-104388295D01*
X243587576Y-104042350D01*
X243542366Y-103698620D01*
X243451219Y-103430000D01*
X248041928Y-103430000D01*
X248045000Y-103994250D01*
X248203750Y-104153000D01*
X249403000Y-104153000D01*
X249403000Y-102953750D01*
X249657000Y-102953750D01*
X249657000Y-104153000D01*
X251943000Y-104153000D01*
X251943000Y-102953750D01*
X252197000Y-102953750D01*
X252197000Y-104153000D01*
X253396250Y-104153000D01*
X253555000Y-103994250D01*
X253557728Y-103493137D01*
X266645000Y-103493137D01*
X266645000Y-103706863D01*
X266686696Y-103916483D01*
X266768485Y-104113940D01*
X266887225Y-104291647D01*
X267038353Y-104442775D01*
X267216060Y-104561515D01*
X267413517Y-104643304D01*
X267623137Y-104685000D01*
X267836863Y-104685000D01*
X268046483Y-104643304D01*
X268243940Y-104561515D01*
X268421647Y-104442775D01*
X268572775Y-104291647D01*
X268691515Y-104113940D01*
X268773304Y-103916483D01*
X268815000Y-103706863D01*
X268815000Y-103493137D01*
X268773304Y-103283517D01*
X268691515Y-103086060D01*
X268572775Y-102908353D01*
X268421647Y-102757225D01*
X268243940Y-102638485D01*
X268046483Y-102556696D01*
X267836863Y-102515000D01*
X267623137Y-102515000D01*
X267413517Y-102556696D01*
X267216060Y-102638485D01*
X267038353Y-102757225D01*
X266887225Y-102908353D01*
X266768485Y-103086060D01*
X266686696Y-103283517D01*
X266645000Y-103493137D01*
X253557728Y-103493137D01*
X253558072Y-103430000D01*
X253545812Y-103305518D01*
X253509502Y-103185820D01*
X253450537Y-103075506D01*
X253371185Y-102978815D01*
X253274494Y-102899463D01*
X253164180Y-102840498D01*
X253044482Y-102804188D01*
X252920000Y-102791928D01*
X252355750Y-102795000D01*
X252197000Y-102953750D01*
X251943000Y-102953750D01*
X251784250Y-102795000D01*
X251220000Y-102791928D01*
X251095518Y-102804188D01*
X250975820Y-102840498D01*
X250865506Y-102899463D01*
X250800000Y-102953222D01*
X250734494Y-102899463D01*
X250624180Y-102840498D01*
X250504482Y-102804188D01*
X250380000Y-102791928D01*
X249815750Y-102795000D01*
X249657000Y-102953750D01*
X249403000Y-102953750D01*
X249244250Y-102795000D01*
X248680000Y-102791928D01*
X248555518Y-102804188D01*
X248435820Y-102840498D01*
X248325506Y-102899463D01*
X248228815Y-102978815D01*
X248149463Y-103075506D01*
X248090498Y-103185820D01*
X248054188Y-103305518D01*
X248041928Y-103430000D01*
X243451219Y-103430000D01*
X243430966Y-103370315D01*
X243321714Y-103165921D01*
X243044531Y-103055074D01*
X241999605Y-104100000D01*
X241640395Y-104100000D01*
X240595469Y-103055074D01*
X240318286Y-103165921D01*
X240164911Y-103476840D01*
X240075140Y-103811705D01*
X240052424Y-104157650D01*
X223260000Y-104157650D01*
X223260000Y-103926655D01*
X223192364Y-103586627D01*
X223059692Y-103266327D01*
X222867081Y-102978065D01*
X222621935Y-102732919D01*
X222517500Y-102663137D01*
X234365000Y-102663137D01*
X234365000Y-102876863D01*
X234406696Y-103086483D01*
X234488485Y-103283940D01*
X234607225Y-103461647D01*
X234758353Y-103612775D01*
X234936060Y-103731515D01*
X235133517Y-103813304D01*
X235343137Y-103855000D01*
X235556863Y-103855000D01*
X235766483Y-103813304D01*
X235963940Y-103731515D01*
X236141647Y-103612775D01*
X236292775Y-103461647D01*
X236411515Y-103283940D01*
X236493304Y-103086483D01*
X236535000Y-102876863D01*
X236535000Y-102875469D01*
X240775074Y-102875469D01*
X241820000Y-103920395D01*
X242864926Y-102875469D01*
X242754079Y-102598286D01*
X242443160Y-102444911D01*
X242108295Y-102355140D01*
X241762350Y-102332424D01*
X241418620Y-102377634D01*
X241090315Y-102489034D01*
X240885921Y-102598286D01*
X240775074Y-102875469D01*
X236535000Y-102875469D01*
X236535000Y-102663137D01*
X236493304Y-102453517D01*
X236411515Y-102256060D01*
X236292775Y-102078353D01*
X236141647Y-101927225D01*
X235963940Y-101808485D01*
X235766483Y-101726696D01*
X235556863Y-101685000D01*
X235343137Y-101685000D01*
X235133517Y-101726696D01*
X234936060Y-101808485D01*
X234758353Y-101927225D01*
X234607225Y-102078353D01*
X234488485Y-102256060D01*
X234406696Y-102453517D01*
X234365000Y-102663137D01*
X222517500Y-102663137D01*
X222333673Y-102540308D01*
X222013373Y-102407636D01*
X221673345Y-102340000D01*
X221326655Y-102340000D01*
X220986627Y-102407636D01*
X220666327Y-102540308D01*
X220378065Y-102732919D01*
X220132919Y-102978065D01*
X219940308Y-103266327D01*
X219807636Y-103586627D01*
X219740000Y-103926655D01*
X200745100Y-103926655D01*
X200745100Y-101163137D01*
X225005000Y-101163137D01*
X225005000Y-101376863D01*
X225046696Y-101586483D01*
X225128485Y-101783940D01*
X225247225Y-101961647D01*
X225398353Y-102112775D01*
X225576060Y-102231515D01*
X225773517Y-102313304D01*
X225983137Y-102355000D01*
X226196863Y-102355000D01*
X226406483Y-102313304D01*
X226603940Y-102231515D01*
X226781647Y-102112775D01*
X226932775Y-101961647D01*
X227051515Y-101783940D01*
X227133304Y-101586483D01*
X227175000Y-101376863D01*
X227175000Y-101375159D01*
X231362978Y-101375159D01*
X231362978Y-101588885D01*
X231404674Y-101798505D01*
X231486463Y-101995962D01*
X231605203Y-102173669D01*
X231756331Y-102324797D01*
X231934038Y-102443537D01*
X232131495Y-102525326D01*
X232341115Y-102567022D01*
X232554841Y-102567022D01*
X232764461Y-102525326D01*
X232961918Y-102443537D01*
X233139625Y-102324797D01*
X233290753Y-102173669D01*
X233409493Y-101995962D01*
X233491282Y-101798505D01*
X233532978Y-101588885D01*
X233532978Y-101375159D01*
X233502739Y-101223137D01*
X265385000Y-101223137D01*
X265385000Y-101436863D01*
X265426696Y-101646483D01*
X265508485Y-101843940D01*
X265627225Y-102021647D01*
X265778353Y-102172775D01*
X265956060Y-102291515D01*
X266153517Y-102373304D01*
X266363137Y-102415000D01*
X266576863Y-102415000D01*
X266786483Y-102373304D01*
X266983940Y-102291515D01*
X267161647Y-102172775D01*
X267312775Y-102021647D01*
X267431515Y-101843940D01*
X267513304Y-101646483D01*
X267555000Y-101436863D01*
X267555000Y-101223137D01*
X267513304Y-101013517D01*
X267431515Y-100816060D01*
X267391142Y-100755637D01*
X269142500Y-100755637D01*
X269142500Y-100969363D01*
X269184196Y-101178983D01*
X269265985Y-101376440D01*
X269384725Y-101554147D01*
X269535853Y-101705275D01*
X269713560Y-101824015D01*
X269911017Y-101905804D01*
X270120637Y-101947500D01*
X270334363Y-101947500D01*
X270543983Y-101905804D01*
X270741440Y-101824015D01*
X270919147Y-101705275D01*
X271070275Y-101554147D01*
X271189015Y-101376440D01*
X271237245Y-101260000D01*
X272541928Y-101260000D01*
X272541928Y-104760000D01*
X272554188Y-104884482D01*
X272590498Y-105004180D01*
X272649463Y-105114494D01*
X272728815Y-105211185D01*
X272825506Y-105290537D01*
X272935820Y-105349502D01*
X273055518Y-105385812D01*
X273180000Y-105398072D01*
X276680000Y-105398072D01*
X276804482Y-105385812D01*
X276924180Y-105349502D01*
X277034494Y-105290537D01*
X277131185Y-105211185D01*
X277210537Y-105114494D01*
X277269502Y-105004180D01*
X277305812Y-104884482D01*
X277318072Y-104760000D01*
X277318072Y-102010000D01*
X278791928Y-102010000D01*
X278791928Y-104010000D01*
X278818599Y-104280799D01*
X278897589Y-104541192D01*
X279025860Y-104781171D01*
X279198485Y-104991515D01*
X279408829Y-105164140D01*
X279648808Y-105292411D01*
X279909201Y-105371401D01*
X280180000Y-105398072D01*
X281680000Y-105398072D01*
X281950799Y-105371401D01*
X282211192Y-105292411D01*
X282451171Y-105164140D01*
X282661515Y-104991515D01*
X282834140Y-104781171D01*
X282962411Y-104541192D01*
X283041401Y-104280799D01*
X283068072Y-104010000D01*
X283068072Y-102010000D01*
X283041401Y-101739201D01*
X282962411Y-101478808D01*
X282834140Y-101238829D01*
X282661515Y-101028485D01*
X282451171Y-100855860D01*
X282211192Y-100727589D01*
X281950799Y-100648599D01*
X281680000Y-100621928D01*
X280180000Y-100621928D01*
X279909201Y-100648599D01*
X279648808Y-100727589D01*
X279408829Y-100855860D01*
X279198485Y-101028485D01*
X279025860Y-101238829D01*
X278897589Y-101478808D01*
X278818599Y-101739201D01*
X278791928Y-102010000D01*
X277318072Y-102010000D01*
X277318072Y-101260000D01*
X277305812Y-101135518D01*
X277269502Y-101015820D01*
X277210537Y-100905506D01*
X277131185Y-100808815D01*
X277034494Y-100729463D01*
X276957869Y-100688506D01*
X277055000Y-100698072D01*
X278805000Y-100698072D01*
X279100186Y-100668999D01*
X279384028Y-100582896D01*
X279645618Y-100443073D01*
X279874903Y-100254903D01*
X280063073Y-100025618D01*
X280202896Y-99764028D01*
X280288999Y-99480186D01*
X280318072Y-99185000D01*
X280318072Y-97435000D01*
X280288999Y-97139814D01*
X280202896Y-96855972D01*
X280063073Y-96594382D01*
X279874903Y-96365097D01*
X279645618Y-96176927D01*
X279384028Y-96037104D01*
X279100186Y-95951001D01*
X278805000Y-95921928D01*
X277055000Y-95921928D01*
X276759814Y-95951001D01*
X276475972Y-96037104D01*
X276214382Y-96176927D01*
X275985097Y-96365097D01*
X275796927Y-96594382D01*
X275657104Y-96855972D01*
X275571001Y-97139814D01*
X275541928Y-97435000D01*
X275541928Y-99185000D01*
X275571001Y-99480186D01*
X275657104Y-99764028D01*
X275796927Y-100025618D01*
X275985097Y-100254903D01*
X276214382Y-100443073D01*
X276475972Y-100582896D01*
X276604643Y-100621928D01*
X273180000Y-100621928D01*
X273055518Y-100634188D01*
X272935820Y-100670498D01*
X272825506Y-100729463D01*
X272728815Y-100808815D01*
X272649463Y-100905506D01*
X272590498Y-101015820D01*
X272554188Y-101135518D01*
X272541928Y-101260000D01*
X271237245Y-101260000D01*
X271270804Y-101178983D01*
X271312500Y-100969363D01*
X271312500Y-100755637D01*
X271270804Y-100546017D01*
X271189015Y-100348560D01*
X271070275Y-100170853D01*
X270919147Y-100019725D01*
X270741440Y-99900985D01*
X270543983Y-99819196D01*
X270334363Y-99777500D01*
X270120637Y-99777500D01*
X269911017Y-99819196D01*
X269713560Y-99900985D01*
X269535853Y-100019725D01*
X269384725Y-100170853D01*
X269265985Y-100348560D01*
X269184196Y-100546017D01*
X269142500Y-100755637D01*
X267391142Y-100755637D01*
X267312775Y-100638353D01*
X267161647Y-100487225D01*
X266983940Y-100368485D01*
X266786483Y-100286696D01*
X266576863Y-100245000D01*
X266363137Y-100245000D01*
X266153517Y-100286696D01*
X265956060Y-100368485D01*
X265778353Y-100487225D01*
X265627225Y-100638353D01*
X265508485Y-100816060D01*
X265426696Y-101013517D01*
X265385000Y-101223137D01*
X233502739Y-101223137D01*
X233491282Y-101165539D01*
X233409493Y-100968082D01*
X233290753Y-100790375D01*
X233139625Y-100639247D01*
X232961918Y-100520507D01*
X232764461Y-100438718D01*
X232554841Y-100397022D01*
X232341115Y-100397022D01*
X232131495Y-100438718D01*
X231934038Y-100520507D01*
X231756331Y-100639247D01*
X231605203Y-100790375D01*
X231486463Y-100968082D01*
X231404674Y-101165539D01*
X231362978Y-101375159D01*
X227175000Y-101375159D01*
X227175000Y-101163137D01*
X227133304Y-100953517D01*
X227051515Y-100756060D01*
X226932775Y-100578353D01*
X226781647Y-100427225D01*
X226603940Y-100308485D01*
X226406483Y-100226696D01*
X226196863Y-100185000D01*
X225983137Y-100185000D01*
X225773517Y-100226696D01*
X225576060Y-100308485D01*
X225398353Y-100427225D01*
X225247225Y-100578353D01*
X225128485Y-100756060D01*
X225046696Y-100953517D01*
X225005000Y-101163137D01*
X200745100Y-101163137D01*
X200745100Y-100965470D01*
X207250165Y-100957000D01*
X207274939Y-100954527D01*
X207298754Y-100947269D01*
X207320695Y-100935505D01*
X207339919Y-100919686D01*
X207355688Y-100900420D01*
X207367396Y-100878448D01*
X207374592Y-100854614D01*
X207376999Y-100829510D01*
X207373428Y-99903471D01*
X207407518Y-99913812D01*
X207532000Y-99926072D01*
X209232000Y-99926072D01*
X209356482Y-99913812D01*
X209476180Y-99877502D01*
X209586494Y-99818537D01*
X209683185Y-99739185D01*
X209762537Y-99642494D01*
X209821502Y-99532180D01*
X209843513Y-99459620D01*
X209975368Y-99591475D01*
X210218589Y-99753990D01*
X210488842Y-99865932D01*
X210775740Y-99923000D01*
X211068260Y-99923000D01*
X211355158Y-99865932D01*
X211625411Y-99753990D01*
X211868632Y-99591475D01*
X212075475Y-99384632D01*
X212192000Y-99210240D01*
X212308525Y-99384632D01*
X212515368Y-99591475D01*
X212758589Y-99753990D01*
X213028842Y-99865932D01*
X213315740Y-99923000D01*
X213608260Y-99923000D01*
X213895158Y-99865932D01*
X214165411Y-99753990D01*
X214408632Y-99591475D01*
X214615475Y-99384632D01*
X214732000Y-99210240D01*
X214848525Y-99384632D01*
X215055368Y-99591475D01*
X215298589Y-99753990D01*
X215568842Y-99865932D01*
X215855740Y-99923000D01*
X216148260Y-99923000D01*
X216435158Y-99865932D01*
X216705411Y-99753990D01*
X216948632Y-99591475D01*
X217155475Y-99384632D01*
X217277195Y-99202466D01*
X217346822Y-99319355D01*
X217541731Y-99535588D01*
X217775080Y-99709641D01*
X218037901Y-99834825D01*
X218185110Y-99879476D01*
X218415000Y-99758155D01*
X218415000Y-98565000D01*
X218395000Y-98565000D01*
X218395000Y-98311000D01*
X218415000Y-98311000D01*
X218415000Y-98291000D01*
X218669000Y-98291000D01*
X218669000Y-98311000D01*
X218689000Y-98311000D01*
X218689000Y-98565000D01*
X218669000Y-98565000D01*
X218669000Y-99758155D01*
X218898890Y-99879476D01*
X219046099Y-99834825D01*
X219308920Y-99709641D01*
X219542269Y-99535588D01*
X219737178Y-99319355D01*
X219806805Y-99202466D01*
X219928525Y-99384632D01*
X220135368Y-99591475D01*
X220378589Y-99753990D01*
X220648842Y-99865932D01*
X220935740Y-99923000D01*
X221228260Y-99923000D01*
X221515158Y-99865932D01*
X221785411Y-99753990D01*
X222028632Y-99591475D01*
X222235475Y-99384632D01*
X222352000Y-99210240D01*
X222468525Y-99384632D01*
X222675368Y-99591475D01*
X222918589Y-99753990D01*
X223188842Y-99865932D01*
X223475740Y-99923000D01*
X223768260Y-99923000D01*
X224055158Y-99865932D01*
X224325411Y-99753990D01*
X224568632Y-99591475D01*
X224775475Y-99384632D01*
X224892000Y-99210240D01*
X225008525Y-99384632D01*
X225215368Y-99591475D01*
X225458589Y-99753990D01*
X225728842Y-99865932D01*
X226015740Y-99923000D01*
X226308260Y-99923000D01*
X226595158Y-99865932D01*
X226865411Y-99753990D01*
X227108632Y-99591475D01*
X227315475Y-99384632D01*
X227432000Y-99210240D01*
X227548525Y-99384632D01*
X227755368Y-99591475D01*
X227998589Y-99753990D01*
X228268842Y-99865932D01*
X228555740Y-99923000D01*
X228848260Y-99923000D01*
X229135158Y-99865932D01*
X229405411Y-99753990D01*
X229648632Y-99591475D01*
X229855475Y-99384632D01*
X229972000Y-99210240D01*
X230088525Y-99384632D01*
X230295368Y-99591475D01*
X230538589Y-99753990D01*
X230808842Y-99865932D01*
X231095740Y-99923000D01*
X231388260Y-99923000D01*
X231675158Y-99865932D01*
X231945411Y-99753990D01*
X232188632Y-99591475D01*
X232395475Y-99384632D01*
X232512000Y-99210240D01*
X232628525Y-99384632D01*
X232835368Y-99591475D01*
X233078589Y-99753990D01*
X233348842Y-99865932D01*
X233635740Y-99923000D01*
X233928260Y-99923000D01*
X234215158Y-99865932D01*
X234485411Y-99753990D01*
X234728632Y-99591475D01*
X234935475Y-99384632D01*
X235052000Y-99210240D01*
X235168525Y-99384632D01*
X235375368Y-99591475D01*
X235618589Y-99753990D01*
X235888842Y-99865932D01*
X236175740Y-99923000D01*
X236468260Y-99923000D01*
X236755158Y-99865932D01*
X237025411Y-99753990D01*
X237268632Y-99591475D01*
X237475475Y-99384632D01*
X237597195Y-99202466D01*
X237666822Y-99319355D01*
X237861731Y-99535588D01*
X238095080Y-99709641D01*
X238357901Y-99834825D01*
X238505110Y-99879476D01*
X238735000Y-99758155D01*
X238735000Y-98565000D01*
X238715000Y-98565000D01*
X238715000Y-98311000D01*
X238735000Y-98311000D01*
X238735000Y-98291000D01*
X238989000Y-98291000D01*
X238989000Y-98311000D01*
X239009000Y-98311000D01*
X239009000Y-98565000D01*
X238989000Y-98565000D01*
X238989000Y-99758155D01*
X239218890Y-99879476D01*
X239366099Y-99834825D01*
X239628920Y-99709641D01*
X239862269Y-99535588D01*
X240057178Y-99319355D01*
X240126805Y-99202466D01*
X240248525Y-99384632D01*
X240455368Y-99591475D01*
X240698589Y-99753990D01*
X240968842Y-99865932D01*
X241255740Y-99923000D01*
X241548260Y-99923000D01*
X241835158Y-99865932D01*
X242105411Y-99753990D01*
X242348632Y-99591475D01*
X242555475Y-99384632D01*
X242672000Y-99210240D01*
X242788525Y-99384632D01*
X242995368Y-99591475D01*
X243238589Y-99753990D01*
X243508842Y-99865932D01*
X243795740Y-99923000D01*
X244088260Y-99923000D01*
X244375158Y-99865932D01*
X244645411Y-99753990D01*
X244888632Y-99591475D01*
X245095475Y-99384632D01*
X245212000Y-99210240D01*
X245328525Y-99384632D01*
X245535368Y-99591475D01*
X245778589Y-99753990D01*
X246048842Y-99865932D01*
X246335740Y-99923000D01*
X246628260Y-99923000D01*
X246915158Y-99865932D01*
X247185411Y-99753990D01*
X247428632Y-99591475D01*
X247635475Y-99384632D01*
X247752000Y-99210240D01*
X247868525Y-99384632D01*
X248075368Y-99591475D01*
X248318589Y-99753990D01*
X248588842Y-99865932D01*
X248875740Y-99923000D01*
X249168260Y-99923000D01*
X249455158Y-99865932D01*
X249725411Y-99753990D01*
X249968632Y-99591475D01*
X250175475Y-99384632D01*
X250292000Y-99210240D01*
X250408525Y-99384632D01*
X250615368Y-99591475D01*
X250858589Y-99753990D01*
X251128842Y-99865932D01*
X251415740Y-99923000D01*
X251708260Y-99923000D01*
X251995158Y-99865932D01*
X252265411Y-99753990D01*
X252508632Y-99591475D01*
X252715475Y-99384632D01*
X252832000Y-99210240D01*
X252948525Y-99384632D01*
X253155368Y-99591475D01*
X253398589Y-99753990D01*
X253668842Y-99865932D01*
X253955740Y-99923000D01*
X254248260Y-99923000D01*
X254535158Y-99865932D01*
X254805411Y-99753990D01*
X255048632Y-99591475D01*
X255255475Y-99384632D01*
X255377195Y-99202466D01*
X255446822Y-99319355D01*
X255641731Y-99535588D01*
X255875080Y-99709641D01*
X256137901Y-99834825D01*
X256285110Y-99879476D01*
X256515000Y-99758155D01*
X256515000Y-98565000D01*
X256769000Y-98565000D01*
X256769000Y-99758155D01*
X256998890Y-99879476D01*
X257146099Y-99834825D01*
X257408920Y-99709641D01*
X257642269Y-99535588D01*
X257837178Y-99319355D01*
X257986157Y-99069252D01*
X258083481Y-98794891D01*
X257962814Y-98565000D01*
X256769000Y-98565000D01*
X256515000Y-98565000D01*
X256495000Y-98565000D01*
X256495000Y-98311000D01*
X256515000Y-98311000D01*
X256515000Y-98291000D01*
X256769000Y-98291000D01*
X256769000Y-98311000D01*
X257962814Y-98311000D01*
X258083481Y-98081109D01*
X257986157Y-97806748D01*
X257837178Y-97556645D01*
X257642269Y-97340412D01*
X257412594Y-97169100D01*
X257588632Y-97051475D01*
X257795475Y-96844632D01*
X257957990Y-96601411D01*
X258069932Y-96331158D01*
X258127000Y-96044260D01*
X258127000Y-95751740D01*
X258069932Y-95464842D01*
X257957990Y-95194589D01*
X257795475Y-94951368D01*
X257588632Y-94744525D01*
X257345411Y-94582010D01*
X257075158Y-94470068D01*
X256856129Y-94426500D01*
X259672394Y-94426500D01*
X259389161Y-94615750D01*
G04 #@! TA.AperFunction,Conductor*
D25*
G36*
X259389161Y-94615750D02*
G01*
X258925750Y-95079161D01*
X258561651Y-95624075D01*
X258310855Y-96229550D01*
X258183000Y-96872319D01*
X258183000Y-97527681D01*
X258310855Y-98170450D01*
X258561651Y-98775925D01*
X258925750Y-99320839D01*
X259389161Y-99784250D01*
X259934075Y-100148349D01*
X260539550Y-100399145D01*
X261182319Y-100527000D01*
X261837681Y-100527000D01*
X262480450Y-100399145D01*
X263085925Y-100148349D01*
X263630839Y-99784250D01*
X264094250Y-99320839D01*
X264458349Y-98775925D01*
X264709145Y-98170450D01*
X264837000Y-97527681D01*
X264837000Y-96872319D01*
X264709145Y-96229550D01*
X264458349Y-95624075D01*
X264094250Y-95079161D01*
X263630839Y-94615750D01*
X263347606Y-94426500D01*
X281974155Y-94426500D01*
X282449355Y-94473093D01*
X282871881Y-94600661D01*
X283261581Y-94807868D01*
X283603611Y-95086820D01*
X283884948Y-95426898D01*
X284094870Y-95815139D01*
X284225385Y-96236768D01*
X284275101Y-96709772D01*
X284275100Y-146655546D01*
X284228506Y-147130756D01*
X284100937Y-147553282D01*
X283893731Y-147942980D01*
X283614776Y-148285014D01*
X283274704Y-148566347D01*
X282886456Y-148776272D01*
X282464836Y-148906784D01*
X281991837Y-148956500D01*
X263358082Y-148956500D01*
X263630839Y-148774250D01*
X264094250Y-148310839D01*
X264458349Y-147765925D01*
X264509209Y-147643137D01*
X265605000Y-147643137D01*
X265605000Y-147856863D01*
X265646696Y-148066483D01*
X265728485Y-148263940D01*
X265847225Y-148441647D01*
X265998353Y-148592775D01*
X266176060Y-148711515D01*
X266373517Y-148793304D01*
X266583137Y-148835000D01*
X266796863Y-148835000D01*
X267006483Y-148793304D01*
X267203940Y-148711515D01*
X267381647Y-148592775D01*
X267532775Y-148441647D01*
X267651515Y-148263940D01*
X267733304Y-148066483D01*
X267775000Y-147856863D01*
X267775000Y-147643137D01*
X267740042Y-147467392D01*
X267881647Y-147372775D01*
X268032775Y-147221647D01*
X268151515Y-147043940D01*
X268233304Y-146846483D01*
X268275000Y-146636863D01*
X268275000Y-146423137D01*
X268233304Y-146213517D01*
X268151515Y-146016060D01*
X268032775Y-145838353D01*
X267881647Y-145687225D01*
X267703940Y-145568485D01*
X267506483Y-145486696D01*
X267296863Y-145445000D01*
X267083137Y-145445000D01*
X266873517Y-145486696D01*
X266676060Y-145568485D01*
X266498353Y-145687225D01*
X266347225Y-145838353D01*
X266228485Y-146016060D01*
X266146696Y-146213517D01*
X266105000Y-146423137D01*
X266105000Y-146636863D01*
X266139958Y-146812608D01*
X265998353Y-146907225D01*
X265847225Y-147058353D01*
X265728485Y-147236060D01*
X265646696Y-147433517D01*
X265605000Y-147643137D01*
X264509209Y-147643137D01*
X264709145Y-147160450D01*
X264837000Y-146517681D01*
X264837000Y-145862319D01*
X264709145Y-145219550D01*
X264458349Y-144614075D01*
X264094250Y-144069161D01*
X263630839Y-143605750D01*
X263085925Y-143241651D01*
X262480450Y-142990855D01*
X261837681Y-142863000D01*
X261182319Y-142863000D01*
X260539550Y-142990855D01*
X259934075Y-143241651D01*
X259389161Y-143605750D01*
X258925750Y-144069161D01*
X258561651Y-144614075D01*
X258310855Y-145219550D01*
X258183000Y-145862319D01*
X258183000Y-146517681D01*
X258310855Y-147160450D01*
X258561651Y-147765925D01*
X258925750Y-148310839D01*
X259389161Y-148774250D01*
X259661918Y-148956500D01*
X205373048Y-148956500D01*
X205630839Y-148784250D01*
X206094250Y-148320839D01*
X206439462Y-147804191D01*
X208723599Y-147804191D01*
X208820923Y-148078552D01*
X208969902Y-148328655D01*
X209164811Y-148544888D01*
X209398160Y-148718941D01*
X209660981Y-148844125D01*
X209808190Y-148888776D01*
X210038080Y-148767455D01*
X210038080Y-147574300D01*
X208844266Y-147574300D01*
X208723599Y-147804191D01*
X206439462Y-147804191D01*
X206458349Y-147775925D01*
X206709145Y-147170450D01*
X206837000Y-146527681D01*
X206837000Y-145872319D01*
X206709145Y-145229550D01*
X206458349Y-144624075D01*
X206094250Y-144079161D01*
X206072389Y-144057300D01*
X208677008Y-144057300D01*
X208677008Y-145757300D01*
X208689268Y-145881782D01*
X208725578Y-146001480D01*
X208784543Y-146111794D01*
X208863895Y-146208485D01*
X208960586Y-146287837D01*
X209070900Y-146346802D01*
X209146706Y-146369798D01*
X208969902Y-146565945D01*
X208820923Y-146816048D01*
X208723599Y-147090409D01*
X208844266Y-147320300D01*
X210038080Y-147320300D01*
X210038080Y-147300300D01*
X210292080Y-147300300D01*
X210292080Y-147320300D01*
X210312080Y-147320300D01*
X210312080Y-147574300D01*
X210292080Y-147574300D01*
X210292080Y-148767455D01*
X210521970Y-148888776D01*
X210669179Y-148844125D01*
X210932000Y-148718941D01*
X211165349Y-148544888D01*
X211360258Y-148328655D01*
X211429885Y-148211766D01*
X211551605Y-148393932D01*
X211758448Y-148600775D01*
X212001669Y-148763290D01*
X212271922Y-148875232D01*
X212558820Y-148932300D01*
X212851340Y-148932300D01*
X213138238Y-148875232D01*
X213408491Y-148763290D01*
X213651712Y-148600775D01*
X213858555Y-148393932D01*
X213980275Y-148211766D01*
X214049902Y-148328655D01*
X214244811Y-148544888D01*
X214478160Y-148718941D01*
X214740981Y-148844125D01*
X214888190Y-148888776D01*
X215118080Y-148767455D01*
X215118080Y-147574300D01*
X215098080Y-147574300D01*
X215098080Y-147320300D01*
X215118080Y-147320300D01*
X215118080Y-147300300D01*
X215372080Y-147300300D01*
X215372080Y-147320300D01*
X215392080Y-147320300D01*
X215392080Y-147574300D01*
X215372080Y-147574300D01*
X215372080Y-148767455D01*
X215601970Y-148888776D01*
X215749179Y-148844125D01*
X216012000Y-148718941D01*
X216245349Y-148544888D01*
X216440258Y-148328655D01*
X216509885Y-148211766D01*
X216631605Y-148393932D01*
X216838448Y-148600775D01*
X217081669Y-148763290D01*
X217351922Y-148875232D01*
X217638820Y-148932300D01*
X217931340Y-148932300D01*
X218218238Y-148875232D01*
X218488491Y-148763290D01*
X218731712Y-148600775D01*
X218938555Y-148393932D01*
X219101070Y-148150711D01*
X219213012Y-147880458D01*
X219270080Y-147593560D01*
X219270080Y-147301040D01*
X219213012Y-147014142D01*
X219101070Y-146743889D01*
X218938555Y-146500668D01*
X218731712Y-146293825D01*
X218555674Y-146176200D01*
X218785349Y-146004888D01*
X218980258Y-145788655D01*
X219129237Y-145538552D01*
X219226561Y-145264191D01*
X219105894Y-145034300D01*
X217912080Y-145034300D01*
X217912080Y-145054300D01*
X217658080Y-145054300D01*
X217658080Y-145034300D01*
X217638080Y-145034300D01*
X217638080Y-144780300D01*
X217658080Y-144780300D01*
X217658080Y-143587145D01*
X217912080Y-143587145D01*
X217912080Y-144780300D01*
X219105894Y-144780300D01*
X219226561Y-144550409D01*
X219129237Y-144276048D01*
X218980258Y-144025945D01*
X218785349Y-143809712D01*
X218552000Y-143635659D01*
X218289179Y-143510475D01*
X218141970Y-143465824D01*
X217912080Y-143587145D01*
X217658080Y-143587145D01*
X217428190Y-143465824D01*
X217280981Y-143510475D01*
X217018160Y-143635659D01*
X216784811Y-143809712D01*
X216589902Y-144025945D01*
X216520275Y-144142834D01*
X216398555Y-143960668D01*
X216191712Y-143753825D01*
X215948491Y-143591310D01*
X215678238Y-143479368D01*
X215391340Y-143422300D01*
X215098820Y-143422300D01*
X214811922Y-143479368D01*
X214541669Y-143591310D01*
X214298448Y-143753825D01*
X214091605Y-143960668D01*
X213969885Y-144142834D01*
X213900258Y-144025945D01*
X213705349Y-143809712D01*
X213472000Y-143635659D01*
X213209179Y-143510475D01*
X213061970Y-143465824D01*
X212832080Y-143587145D01*
X212832080Y-144780300D01*
X212852080Y-144780300D01*
X212852080Y-145034300D01*
X212832080Y-145034300D01*
X212832080Y-145054300D01*
X212578080Y-145054300D01*
X212578080Y-145034300D01*
X212558080Y-145034300D01*
X212558080Y-144780300D01*
X212578080Y-144780300D01*
X212578080Y-143587145D01*
X212348190Y-143465824D01*
X212200981Y-143510475D01*
X211938160Y-143635659D01*
X211704811Y-143809712D01*
X211629046Y-143893766D01*
X211604582Y-143813120D01*
X211545617Y-143702806D01*
X211466265Y-143606115D01*
X211369574Y-143526763D01*
X211259260Y-143467798D01*
X211139562Y-143431488D01*
X211015080Y-143419228D01*
X209315080Y-143419228D01*
X209190598Y-143431488D01*
X209070900Y-143467798D01*
X208960586Y-143526763D01*
X208863895Y-143606115D01*
X208784543Y-143702806D01*
X208725578Y-143813120D01*
X208689268Y-143932818D01*
X208677008Y-144057300D01*
X206072389Y-144057300D01*
X205630839Y-143615750D01*
X205085925Y-143251651D01*
X204480450Y-143000855D01*
X203837681Y-142873000D01*
X203182319Y-142873000D01*
X202539550Y-143000855D01*
X201934075Y-143251651D01*
X201389161Y-143615750D01*
X200925750Y-144079161D01*
X200745100Y-144349523D01*
X200745100Y-141598212D01*
X237595000Y-141598212D01*
X237595000Y-141821788D01*
X237638617Y-142041067D01*
X237724176Y-142247624D01*
X237848388Y-142433520D01*
X238006480Y-142591612D01*
X238183694Y-142710023D01*
X238036480Y-142808388D01*
X237878388Y-142966480D01*
X237754176Y-143152376D01*
X237668617Y-143358933D01*
X237625000Y-143578212D01*
X237625000Y-143801788D01*
X237668617Y-144021067D01*
X237754176Y-144227624D01*
X237878388Y-144413520D01*
X237979868Y-144515000D01*
X237878388Y-144616480D01*
X237754176Y-144802376D01*
X237668617Y-145008933D01*
X237625000Y-145228212D01*
X237625000Y-145451788D01*
X237668617Y-145671067D01*
X237754176Y-145877624D01*
X237878388Y-146063520D01*
X238036480Y-146221612D01*
X238222376Y-146345824D01*
X238428933Y-146431383D01*
X238648212Y-146475000D01*
X238871788Y-146475000D01*
X239091067Y-146431383D01*
X239297624Y-146345824D01*
X239483520Y-146221612D01*
X239641612Y-146063520D01*
X239755000Y-145893823D01*
X239868388Y-146063520D01*
X240026480Y-146221612D01*
X240212376Y-146345824D01*
X240418933Y-146431383D01*
X240638212Y-146475000D01*
X240861788Y-146475000D01*
X241081067Y-146431383D01*
X241287624Y-146345824D01*
X241473520Y-146221612D01*
X241631612Y-146063520D01*
X241755824Y-145877624D01*
X241763787Y-145858400D01*
X241784176Y-145907624D01*
X241908388Y-146093520D01*
X242066480Y-146251612D01*
X242252376Y-146375824D01*
X242458933Y-146461383D01*
X242678212Y-146505000D01*
X242901788Y-146505000D01*
X243121067Y-146461383D01*
X243327624Y-146375824D01*
X243513520Y-146251612D01*
X243671612Y-146093520D01*
X243795824Y-145907624D01*
X243881383Y-145701067D01*
X243925000Y-145481788D01*
X243925000Y-145258212D01*
X243881383Y-145038933D01*
X243795824Y-144832376D01*
X243671612Y-144646480D01*
X243515132Y-144490000D01*
X243671612Y-144333520D01*
X243795824Y-144147624D01*
X243881383Y-143941067D01*
X243925000Y-143721788D01*
X243925000Y-143498212D01*
X243881383Y-143278933D01*
X243795824Y-143072376D01*
X243671612Y-142886480D01*
X243513520Y-142728388D01*
X243426136Y-142670000D01*
X243513520Y-142611612D01*
X243671612Y-142453520D01*
X243795824Y-142267624D01*
X243881383Y-142061067D01*
X243925000Y-141841788D01*
X243925000Y-141618212D01*
X243881383Y-141398933D01*
X243795824Y-141192376D01*
X243671612Y-141006480D01*
X243513520Y-140848388D01*
X243327624Y-140724176D01*
X243121067Y-140638617D01*
X242901788Y-140595000D01*
X242678212Y-140595000D01*
X242458933Y-140638617D01*
X242252376Y-140724176D01*
X242066480Y-140848388D01*
X241908388Y-141006480D01*
X241801682Y-141166177D01*
X241681612Y-140986480D01*
X241523520Y-140828388D01*
X241337624Y-140704176D01*
X241131067Y-140618617D01*
X240911788Y-140575000D01*
X240688212Y-140575000D01*
X240468933Y-140618617D01*
X240262376Y-140704176D01*
X240076480Y-140828388D01*
X239918388Y-140986480D01*
X239794176Y-141172376D01*
X239765000Y-141242813D01*
X239735824Y-141172376D01*
X239611612Y-140986480D01*
X239453520Y-140828388D01*
X239267624Y-140704176D01*
X239061067Y-140618617D01*
X238841788Y-140575000D01*
X238618212Y-140575000D01*
X238398933Y-140618617D01*
X238192376Y-140704176D01*
X238006480Y-140828388D01*
X237848388Y-140986480D01*
X237724176Y-141172376D01*
X237638617Y-141378933D01*
X237595000Y-141598212D01*
X200745100Y-141598212D01*
X200745100Y-138589721D01*
X202575000Y-138589721D01*
X202575000Y-139010279D01*
X202657047Y-139422756D01*
X202817988Y-139811302D01*
X203051637Y-140160983D01*
X203349017Y-140458363D01*
X203698698Y-140692012D01*
X204087244Y-140852953D01*
X204499721Y-140935000D01*
X204920279Y-140935000D01*
X205332756Y-140852953D01*
X205721302Y-140692012D01*
X206070983Y-140458363D01*
X206368363Y-140160983D01*
X206602012Y-139811302D01*
X206762953Y-139422756D01*
X206805782Y-139207437D01*
X225000700Y-139207437D01*
X225000700Y-139421163D01*
X225042396Y-139630783D01*
X225124185Y-139828240D01*
X225242925Y-140005947D01*
X225394053Y-140157075D01*
X225571760Y-140275815D01*
X225769217Y-140357604D01*
X225978837Y-140399300D01*
X226192563Y-140399300D01*
X226402183Y-140357604D01*
X226599640Y-140275815D01*
X226777347Y-140157075D01*
X226928475Y-140005947D01*
X227047215Y-139828240D01*
X227129004Y-139630783D01*
X227170700Y-139421163D01*
X227170700Y-139420000D01*
X248041928Y-139420000D01*
X248054188Y-139544482D01*
X248090498Y-139664180D01*
X248149463Y-139774494D01*
X248228815Y-139871185D01*
X248325506Y-139950537D01*
X248435820Y-140009502D01*
X248508380Y-140031513D01*
X248376525Y-140163368D01*
X248214010Y-140406589D01*
X248102068Y-140676842D01*
X248045000Y-140963740D01*
X248045000Y-141256260D01*
X248102068Y-141543158D01*
X248214010Y-141813411D01*
X248376525Y-142056632D01*
X248583368Y-142263475D01*
X248826589Y-142425990D01*
X249096842Y-142537932D01*
X249383740Y-142595000D01*
X249676260Y-142595000D01*
X249963158Y-142537932D01*
X250233411Y-142425990D01*
X250476632Y-142263475D01*
X250683475Y-142056632D01*
X250800000Y-141882240D01*
X250916525Y-142056632D01*
X251123368Y-142263475D01*
X251366589Y-142425990D01*
X251636842Y-142537932D01*
X251923740Y-142595000D01*
X252216260Y-142595000D01*
X252503158Y-142537932D01*
X252773411Y-142425990D01*
X253016632Y-142263475D01*
X253223475Y-142056632D01*
X253385990Y-141813411D01*
X253497932Y-141543158D01*
X253555000Y-141256260D01*
X253555000Y-140963740D01*
X253497932Y-140676842D01*
X253385990Y-140406589D01*
X253223475Y-140163368D01*
X253091620Y-140031513D01*
X253164180Y-140009502D01*
X253274494Y-139950537D01*
X253371185Y-139871185D01*
X253450537Y-139774494D01*
X253509502Y-139664180D01*
X253545812Y-139544482D01*
X253558072Y-139420000D01*
X253557746Y-139360000D01*
X272541928Y-139360000D01*
X272541928Y-142860000D01*
X272554188Y-142984482D01*
X272590498Y-143104180D01*
X272649463Y-143214494D01*
X272728815Y-143311185D01*
X272825506Y-143390537D01*
X272935820Y-143449502D01*
X273055518Y-143485812D01*
X273180000Y-143498072D01*
X276680000Y-143498072D01*
X276804482Y-143485812D01*
X276924180Y-143449502D01*
X277034494Y-143390537D01*
X277131185Y-143311185D01*
X277210537Y-143214494D01*
X277269502Y-143104180D01*
X277305812Y-142984482D01*
X277318072Y-142860000D01*
X277318072Y-140110000D01*
X278791928Y-140110000D01*
X278791928Y-142110000D01*
X278818599Y-142380799D01*
X278897589Y-142641192D01*
X279025860Y-142881171D01*
X279198485Y-143091515D01*
X279408829Y-143264140D01*
X279648808Y-143392411D01*
X279909201Y-143471401D01*
X280180000Y-143498072D01*
X281680000Y-143498072D01*
X281950799Y-143471401D01*
X282211192Y-143392411D01*
X282451171Y-143264140D01*
X282661515Y-143091515D01*
X282834140Y-142881171D01*
X282962411Y-142641192D01*
X283041401Y-142380799D01*
X283068072Y-142110000D01*
X283068072Y-140110000D01*
X283041401Y-139839201D01*
X282962411Y-139578808D01*
X282834140Y-139338829D01*
X282661515Y-139128485D01*
X282451171Y-138955860D01*
X282211192Y-138827589D01*
X281950799Y-138748599D01*
X281680000Y-138721928D01*
X280180000Y-138721928D01*
X279909201Y-138748599D01*
X279648808Y-138827589D01*
X279408829Y-138955860D01*
X279198485Y-139128485D01*
X279025860Y-139338829D01*
X278897589Y-139578808D01*
X278818599Y-139839201D01*
X278791928Y-140110000D01*
X277318072Y-140110000D01*
X277318072Y-139360000D01*
X277305812Y-139235518D01*
X277269502Y-139115820D01*
X277210537Y-139005506D01*
X277131185Y-138908815D01*
X277034494Y-138829463D01*
X276957869Y-138788506D01*
X277055000Y-138798072D01*
X278805000Y-138798072D01*
X279100186Y-138768999D01*
X279384028Y-138682896D01*
X279645618Y-138543073D01*
X279874903Y-138354903D01*
X280063073Y-138125618D01*
X280202896Y-137864028D01*
X280288999Y-137580186D01*
X280318072Y-137285000D01*
X280318072Y-135535000D01*
X280288999Y-135239814D01*
X280202896Y-134955972D01*
X280063073Y-134694382D01*
X279874903Y-134465097D01*
X279645618Y-134276927D01*
X279384028Y-134137104D01*
X279100186Y-134051001D01*
X278805000Y-134021928D01*
X277055000Y-134021928D01*
X276759814Y-134051001D01*
X276475972Y-134137104D01*
X276214382Y-134276927D01*
X275985097Y-134465097D01*
X275796927Y-134694382D01*
X275657104Y-134955972D01*
X275571001Y-135239814D01*
X275541928Y-135535000D01*
X275541928Y-137285000D01*
X275571001Y-137580186D01*
X275657104Y-137864028D01*
X275796927Y-138125618D01*
X275985097Y-138354903D01*
X276214382Y-138543073D01*
X276475972Y-138682896D01*
X276604643Y-138721928D01*
X273180000Y-138721928D01*
X273055518Y-138734188D01*
X272935820Y-138770498D01*
X272825506Y-138829463D01*
X272728815Y-138908815D01*
X272649463Y-139005506D01*
X272590498Y-139115820D01*
X272554188Y-139235518D01*
X272541928Y-139360000D01*
X253557746Y-139360000D01*
X253555000Y-138855750D01*
X253396250Y-138697000D01*
X252197000Y-138697000D01*
X252197000Y-138717000D01*
X251943000Y-138717000D01*
X251943000Y-138697000D01*
X249657000Y-138697000D01*
X249657000Y-138717000D01*
X249403000Y-138717000D01*
X249403000Y-138697000D01*
X248203750Y-138697000D01*
X248045000Y-138855750D01*
X248041928Y-139420000D01*
X227170700Y-139420000D01*
X227170700Y-139207437D01*
X227129004Y-138997817D01*
X227047215Y-138800360D01*
X226928475Y-138622653D01*
X226777347Y-138471525D01*
X226599640Y-138352785D01*
X226402183Y-138270996D01*
X226192563Y-138229300D01*
X225978837Y-138229300D01*
X225769217Y-138270996D01*
X225571760Y-138352785D01*
X225394053Y-138471525D01*
X225242925Y-138622653D01*
X225124185Y-138800360D01*
X225042396Y-138997817D01*
X225000700Y-139207437D01*
X206805782Y-139207437D01*
X206845000Y-139010279D01*
X206845000Y-138589721D01*
X206762953Y-138177244D01*
X206602012Y-137788698D01*
X206556110Y-137720000D01*
X248041928Y-137720000D01*
X248045000Y-138284250D01*
X248203750Y-138443000D01*
X249403000Y-138443000D01*
X249403000Y-137243750D01*
X249657000Y-137243750D01*
X249657000Y-138443000D01*
X251943000Y-138443000D01*
X251943000Y-137243750D01*
X252197000Y-137243750D01*
X252197000Y-138443000D01*
X253396250Y-138443000D01*
X253555000Y-138284250D01*
X253558072Y-137720000D01*
X253545812Y-137595518D01*
X253509502Y-137475820D01*
X253450537Y-137365506D01*
X253371185Y-137268815D01*
X253274494Y-137189463D01*
X253164180Y-137130498D01*
X253044482Y-137094188D01*
X252920000Y-137081928D01*
X252355750Y-137085000D01*
X252197000Y-137243750D01*
X251943000Y-137243750D01*
X251784250Y-137085000D01*
X251220000Y-137081928D01*
X251095518Y-137094188D01*
X250975820Y-137130498D01*
X250865506Y-137189463D01*
X250800000Y-137243222D01*
X250734494Y-137189463D01*
X250624180Y-137130498D01*
X250504482Y-137094188D01*
X250380000Y-137081928D01*
X249815750Y-137085000D01*
X249657000Y-137243750D01*
X249403000Y-137243750D01*
X249244250Y-137085000D01*
X248680000Y-137081928D01*
X248555518Y-137094188D01*
X248435820Y-137130498D01*
X248325506Y-137189463D01*
X248228815Y-137268815D01*
X248149463Y-137365506D01*
X248090498Y-137475820D01*
X248054188Y-137595518D01*
X248041928Y-137720000D01*
X206556110Y-137720000D01*
X206368363Y-137439017D01*
X206070983Y-137141637D01*
X205721302Y-136907988D01*
X205332756Y-136747047D01*
X204920279Y-136665000D01*
X204499721Y-136665000D01*
X204087244Y-136747047D01*
X203698698Y-136907988D01*
X203349017Y-137141637D01*
X203051637Y-137439017D01*
X202817988Y-137788698D01*
X202657047Y-138177244D01*
X202575000Y-138589721D01*
X200745100Y-138589721D01*
X200745100Y-136193137D01*
X217115000Y-136193137D01*
X217115000Y-136406863D01*
X217156696Y-136616483D01*
X217238485Y-136813940D01*
X217357225Y-136991647D01*
X217508353Y-137142775D01*
X217686060Y-137261515D01*
X217883517Y-137343304D01*
X218093137Y-137385000D01*
X218306863Y-137385000D01*
X218516483Y-137343304D01*
X218713940Y-137261515D01*
X218891647Y-137142775D01*
X219042775Y-136991647D01*
X219161515Y-136813940D01*
X219243304Y-136616483D01*
X219285000Y-136406863D01*
X219285000Y-136193137D01*
X219243304Y-135983517D01*
X219161515Y-135786060D01*
X219042775Y-135608353D01*
X218891647Y-135457225D01*
X218713940Y-135338485D01*
X218516483Y-135256696D01*
X218306863Y-135215000D01*
X218093137Y-135215000D01*
X217883517Y-135256696D01*
X217686060Y-135338485D01*
X217508353Y-135457225D01*
X217357225Y-135608353D01*
X217238485Y-135786060D01*
X217156696Y-135983517D01*
X217115000Y-136193137D01*
X200745100Y-136193137D01*
X200745100Y-133509721D01*
X202575000Y-133509721D01*
X202575000Y-133930279D01*
X202657047Y-134342756D01*
X202817988Y-134731302D01*
X203051637Y-135080983D01*
X203349017Y-135378363D01*
X203698698Y-135612012D01*
X204087244Y-135772953D01*
X204499721Y-135855000D01*
X204920279Y-135855000D01*
X205332756Y-135772953D01*
X205721302Y-135612012D01*
X206070983Y-135378363D01*
X206368363Y-135080983D01*
X206602012Y-134731302D01*
X206762953Y-134342756D01*
X206845000Y-133930279D01*
X206845000Y-133509721D01*
X206762953Y-133097244D01*
X206602012Y-132708698D01*
X206368363Y-132359017D01*
X206070983Y-132061637D01*
X205721302Y-131827988D01*
X205332756Y-131667047D01*
X204920279Y-131585000D01*
X204499721Y-131585000D01*
X204087244Y-131667047D01*
X203698698Y-131827988D01*
X203349017Y-132061637D01*
X203051637Y-132359017D01*
X202817988Y-132708698D01*
X202657047Y-133097244D01*
X202575000Y-133509721D01*
X200745100Y-133509721D01*
X200745100Y-128429721D01*
X202575000Y-128429721D01*
X202575000Y-128850279D01*
X202657047Y-129262756D01*
X202817988Y-129651302D01*
X203051637Y-130000983D01*
X203349017Y-130298363D01*
X203698698Y-130532012D01*
X204087244Y-130692953D01*
X204499721Y-130775000D01*
X204920279Y-130775000D01*
X205332756Y-130692953D01*
X205721302Y-130532012D01*
X206070983Y-130298363D01*
X206368363Y-130000983D01*
X206602012Y-129651302D01*
X206762953Y-129262756D01*
X206845000Y-128850279D01*
X206845000Y-128429721D01*
X206762953Y-128017244D01*
X206751669Y-127990000D01*
X248041928Y-127990000D01*
X248054188Y-128114482D01*
X248090498Y-128234180D01*
X248149463Y-128344494D01*
X248228815Y-128441185D01*
X248325506Y-128520537D01*
X248435820Y-128579502D01*
X248508380Y-128601513D01*
X248376525Y-128733368D01*
X248214010Y-128976589D01*
X248102068Y-129246842D01*
X248045000Y-129533740D01*
X248045000Y-129826260D01*
X248102068Y-130113158D01*
X248214010Y-130383411D01*
X248376525Y-130626632D01*
X248583368Y-130833475D01*
X248826589Y-130995990D01*
X249096842Y-131107932D01*
X249383740Y-131165000D01*
X249676260Y-131165000D01*
X249963158Y-131107932D01*
X250233411Y-130995990D01*
X250476632Y-130833475D01*
X250683475Y-130626632D01*
X250800000Y-130452240D01*
X250916525Y-130626632D01*
X251123368Y-130833475D01*
X251366589Y-130995990D01*
X251636842Y-131107932D01*
X251923740Y-131165000D01*
X252216260Y-131165000D01*
X252503158Y-131107932D01*
X252514734Y-131103137D01*
X264045000Y-131103137D01*
X264045000Y-131316863D01*
X264086696Y-131526483D01*
X264168485Y-131723940D01*
X264287225Y-131901647D01*
X264438353Y-132052775D01*
X264616060Y-132171515D01*
X264813517Y-132253304D01*
X265023137Y-132295000D01*
X265236863Y-132295000D01*
X265446483Y-132253304D01*
X265643940Y-132171515D01*
X265821647Y-132052775D01*
X265972775Y-131901647D01*
X266091515Y-131723940D01*
X266140724Y-131605137D01*
X268257000Y-131605137D01*
X268257000Y-131818863D01*
X268298696Y-132028483D01*
X268380485Y-132225940D01*
X268499225Y-132403647D01*
X268650353Y-132554775D01*
X268828060Y-132673515D01*
X269025517Y-132755304D01*
X269235137Y-132797000D01*
X269448863Y-132797000D01*
X269658483Y-132755304D01*
X269855940Y-132673515D01*
X270033647Y-132554775D01*
X270184775Y-132403647D01*
X270303515Y-132225940D01*
X270385304Y-132028483D01*
X270427000Y-131818863D01*
X270427000Y-131605137D01*
X270385304Y-131395517D01*
X270303515Y-131198060D01*
X270184775Y-131020353D01*
X270033647Y-130869225D01*
X269855940Y-130750485D01*
X269658483Y-130668696D01*
X269448863Y-130627000D01*
X269235137Y-130627000D01*
X269025517Y-130668696D01*
X268828060Y-130750485D01*
X268650353Y-130869225D01*
X268499225Y-131020353D01*
X268380485Y-131198060D01*
X268298696Y-131395517D01*
X268257000Y-131605137D01*
X266140724Y-131605137D01*
X266173304Y-131526483D01*
X266215000Y-131316863D01*
X266215000Y-131103137D01*
X266173304Y-130893517D01*
X266091515Y-130696060D01*
X265972775Y-130518353D01*
X265821647Y-130367225D01*
X265643940Y-130248485D01*
X265446483Y-130166696D01*
X265236863Y-130125000D01*
X265023137Y-130125000D01*
X264813517Y-130166696D01*
X264616060Y-130248485D01*
X264438353Y-130367225D01*
X264287225Y-130518353D01*
X264168485Y-130696060D01*
X264086696Y-130893517D01*
X264045000Y-131103137D01*
X252514734Y-131103137D01*
X252773411Y-130995990D01*
X253016632Y-130833475D01*
X253223475Y-130626632D01*
X253385990Y-130383411D01*
X253497932Y-130113158D01*
X253555000Y-129826260D01*
X253555000Y-129533740D01*
X253497932Y-129246842D01*
X253385990Y-128976589D01*
X253223475Y-128733368D01*
X253091620Y-128601513D01*
X253164180Y-128579502D01*
X253274494Y-128520537D01*
X253371185Y-128441185D01*
X253450537Y-128344494D01*
X253509502Y-128234180D01*
X253545812Y-128114482D01*
X253558072Y-127990000D01*
X253555000Y-127425750D01*
X253396250Y-127267000D01*
X252197000Y-127267000D01*
X252197000Y-127287000D01*
X251943000Y-127287000D01*
X251943000Y-127267000D01*
X249657000Y-127267000D01*
X249657000Y-127287000D01*
X249403000Y-127287000D01*
X249403000Y-127267000D01*
X248203750Y-127267000D01*
X248045000Y-127425750D01*
X248041928Y-127990000D01*
X206751669Y-127990000D01*
X206602012Y-127628698D01*
X206368363Y-127279017D01*
X206070983Y-126981637D01*
X205721302Y-126747988D01*
X205332756Y-126587047D01*
X204920279Y-126505000D01*
X204499721Y-126505000D01*
X204087244Y-126587047D01*
X203698698Y-126747988D01*
X203349017Y-126981637D01*
X203051637Y-127279017D01*
X202817988Y-127628698D01*
X202657047Y-128017244D01*
X202575000Y-128429721D01*
X200745100Y-128429721D01*
X200745100Y-126290000D01*
X248041928Y-126290000D01*
X248045000Y-126854250D01*
X248203750Y-127013000D01*
X249403000Y-127013000D01*
X249403000Y-125813750D01*
X249657000Y-125813750D01*
X249657000Y-127013000D01*
X251943000Y-127013000D01*
X251943000Y-125813750D01*
X252197000Y-125813750D01*
X252197000Y-127013000D01*
X253396250Y-127013000D01*
X253555000Y-126854250D01*
X253558072Y-126290000D01*
X253545812Y-126165518D01*
X253509502Y-126045820D01*
X253450537Y-125935506D01*
X253371185Y-125838815D01*
X253274494Y-125759463D01*
X253164180Y-125700498D01*
X253044482Y-125664188D01*
X252920000Y-125651928D01*
X252355750Y-125655000D01*
X252197000Y-125813750D01*
X251943000Y-125813750D01*
X251784250Y-125655000D01*
X251220000Y-125651928D01*
X251095518Y-125664188D01*
X250975820Y-125700498D01*
X250865506Y-125759463D01*
X250800000Y-125813222D01*
X250734494Y-125759463D01*
X250624180Y-125700498D01*
X250504482Y-125664188D01*
X250380000Y-125651928D01*
X249815750Y-125655000D01*
X249657000Y-125813750D01*
X249403000Y-125813750D01*
X249244250Y-125655000D01*
X248680000Y-125651928D01*
X248555518Y-125664188D01*
X248435820Y-125700498D01*
X248325506Y-125759463D01*
X248228815Y-125838815D01*
X248149463Y-125935506D01*
X248090498Y-126045820D01*
X248054188Y-126165518D01*
X248041928Y-126290000D01*
X200745100Y-126290000D01*
X200745100Y-122060000D01*
X202571928Y-122060000D01*
X202571928Y-125060000D01*
X202584188Y-125184482D01*
X202620498Y-125304180D01*
X202679463Y-125414494D01*
X202758815Y-125511185D01*
X202855506Y-125590537D01*
X202965820Y-125649502D01*
X203085518Y-125685812D01*
X203210000Y-125698072D01*
X206210000Y-125698072D01*
X206334482Y-125685812D01*
X206454180Y-125649502D01*
X206564494Y-125590537D01*
X206661185Y-125511185D01*
X206740537Y-125414494D01*
X206799502Y-125304180D01*
X206835812Y-125184482D01*
X206848072Y-125060000D01*
X206848072Y-124246655D01*
X240060000Y-124246655D01*
X240060000Y-124593345D01*
X240127636Y-124933373D01*
X240260308Y-125253673D01*
X240452919Y-125541935D01*
X240698065Y-125787081D01*
X240986327Y-125979692D01*
X241306627Y-126112364D01*
X241646655Y-126180000D01*
X241993345Y-126180000D01*
X242333373Y-126112364D01*
X242653673Y-125979692D01*
X242941935Y-125787081D01*
X243187081Y-125541935D01*
X243208995Y-125509137D01*
X264193000Y-125509137D01*
X264193000Y-125722863D01*
X264234696Y-125932483D01*
X264316485Y-126129940D01*
X264435225Y-126307647D01*
X264586353Y-126458775D01*
X264764060Y-126577515D01*
X264961517Y-126659304D01*
X265171137Y-126701000D01*
X265384863Y-126701000D01*
X265590983Y-126660000D01*
X272541928Y-126660000D01*
X272541928Y-130160000D01*
X272554188Y-130284482D01*
X272590498Y-130404180D01*
X272649463Y-130514494D01*
X272728815Y-130611185D01*
X272825506Y-130690537D01*
X272935820Y-130749502D01*
X273055518Y-130785812D01*
X273180000Y-130798072D01*
X276680000Y-130798072D01*
X276804482Y-130785812D01*
X276924180Y-130749502D01*
X277034494Y-130690537D01*
X277131185Y-130611185D01*
X277210537Y-130514494D01*
X277269502Y-130404180D01*
X277305812Y-130284482D01*
X277318072Y-130160000D01*
X277318072Y-127410000D01*
X278791928Y-127410000D01*
X278791928Y-129410000D01*
X278818599Y-129680799D01*
X278897589Y-129941192D01*
X279025860Y-130181171D01*
X279198485Y-130391515D01*
X279408829Y-130564140D01*
X279648808Y-130692411D01*
X279909201Y-130771401D01*
X280180000Y-130798072D01*
X281680000Y-130798072D01*
X281950799Y-130771401D01*
X282211192Y-130692411D01*
X282451171Y-130564140D01*
X282661515Y-130391515D01*
X282834140Y-130181171D01*
X282962411Y-129941192D01*
X283041401Y-129680799D01*
X283068072Y-129410000D01*
X283068072Y-127410000D01*
X283041401Y-127139201D01*
X282962411Y-126878808D01*
X282834140Y-126638829D01*
X282661515Y-126428485D01*
X282451171Y-126255860D01*
X282211192Y-126127589D01*
X281950799Y-126048599D01*
X281680000Y-126021928D01*
X280180000Y-126021928D01*
X279909201Y-126048599D01*
X279648808Y-126127589D01*
X279408829Y-126255860D01*
X279198485Y-126428485D01*
X279025860Y-126638829D01*
X278897589Y-126878808D01*
X278818599Y-127139201D01*
X278791928Y-127410000D01*
X277318072Y-127410000D01*
X277318072Y-126660000D01*
X277305812Y-126535518D01*
X277269502Y-126415820D01*
X277210537Y-126305506D01*
X277131185Y-126208815D01*
X277034494Y-126129463D01*
X276957869Y-126088506D01*
X277055000Y-126098072D01*
X278805000Y-126098072D01*
X279100186Y-126068999D01*
X279384028Y-125982896D01*
X279645618Y-125843073D01*
X279874903Y-125654903D01*
X280063073Y-125425618D01*
X280202896Y-125164028D01*
X280288999Y-124880186D01*
X280318072Y-124585000D01*
X280318072Y-122835000D01*
X280288999Y-122539814D01*
X280202896Y-122255972D01*
X280063073Y-121994382D01*
X279874903Y-121765097D01*
X279645618Y-121576927D01*
X279384028Y-121437104D01*
X279100186Y-121351001D01*
X278805000Y-121321928D01*
X277055000Y-121321928D01*
X276759814Y-121351001D01*
X276475972Y-121437104D01*
X276214382Y-121576927D01*
X275985097Y-121765097D01*
X275796927Y-121994382D01*
X275657104Y-122255972D01*
X275571001Y-122539814D01*
X275541928Y-122835000D01*
X275541928Y-124585000D01*
X275571001Y-124880186D01*
X275657104Y-125164028D01*
X275796927Y-125425618D01*
X275985097Y-125654903D01*
X276214382Y-125843073D01*
X276475972Y-125982896D01*
X276604643Y-126021928D01*
X273180000Y-126021928D01*
X273055518Y-126034188D01*
X272935820Y-126070498D01*
X272825506Y-126129463D01*
X272728815Y-126208815D01*
X272649463Y-126305506D01*
X272590498Y-126415820D01*
X272554188Y-126535518D01*
X272541928Y-126660000D01*
X265590983Y-126660000D01*
X265594483Y-126659304D01*
X265791940Y-126577515D01*
X265969647Y-126458775D01*
X266120775Y-126307647D01*
X266239515Y-126129940D01*
X266321304Y-125932483D01*
X266363000Y-125722863D01*
X266363000Y-125509137D01*
X266321304Y-125299517D01*
X266239515Y-125102060D01*
X266120775Y-124924353D01*
X265969647Y-124773225D01*
X265791940Y-124654485D01*
X265594483Y-124572696D01*
X265384863Y-124531000D01*
X265171137Y-124531000D01*
X264961517Y-124572696D01*
X264764060Y-124654485D01*
X264586353Y-124773225D01*
X264435225Y-124924353D01*
X264316485Y-125102060D01*
X264234696Y-125299517D01*
X264193000Y-125509137D01*
X243208995Y-125509137D01*
X243379692Y-125253673D01*
X243512364Y-124933373D01*
X243580000Y-124593345D01*
X243580000Y-124246655D01*
X243512364Y-123906627D01*
X243379692Y-123586327D01*
X243187081Y-123298065D01*
X242941935Y-123052919D01*
X242653673Y-122860308D01*
X242333373Y-122727636D01*
X241993345Y-122660000D01*
X241646655Y-122660000D01*
X241306627Y-122727636D01*
X240986327Y-122860308D01*
X240698065Y-123052919D01*
X240452919Y-123298065D01*
X240260308Y-123586327D01*
X240127636Y-123906627D01*
X240060000Y-124246655D01*
X206848072Y-124246655D01*
X206848072Y-122060000D01*
X206835812Y-121935518D01*
X206799502Y-121815820D01*
X206740537Y-121705506D01*
X206661185Y-121608815D01*
X206564494Y-121529463D01*
X206454180Y-121470498D01*
X206334482Y-121434188D01*
X206210000Y-121421928D01*
X203210000Y-121421928D01*
X203085518Y-121434188D01*
X202965820Y-121470498D01*
X202855506Y-121529463D01*
X202758815Y-121608815D01*
X202679463Y-121705506D01*
X202620498Y-121815820D01*
X202584188Y-121935518D01*
X202571928Y-122060000D01*
X200745100Y-122060000D01*
X200745100Y-116668514D01*
X201765000Y-116668514D01*
X201765000Y-116931486D01*
X201816304Y-117189405D01*
X201916939Y-117432359D01*
X202063038Y-117651013D01*
X202248987Y-117836962D01*
X202467641Y-117983061D01*
X202710595Y-118083696D01*
X202968514Y-118135000D01*
X203231486Y-118135000D01*
X203489405Y-118083696D01*
X203732359Y-117983061D01*
X203951013Y-117836962D01*
X204034915Y-117753060D01*
X213688428Y-117753060D01*
X213688428Y-119453060D01*
X213700688Y-119577542D01*
X213736998Y-119697240D01*
X213795963Y-119807554D01*
X213875315Y-119904245D01*
X213972006Y-119983597D01*
X214082320Y-120042562D01*
X214154880Y-120064573D01*
X214023025Y-120196428D01*
X213860510Y-120439649D01*
X213748568Y-120709902D01*
X213691500Y-120996800D01*
X213691500Y-121289320D01*
X213748568Y-121576218D01*
X213860510Y-121846471D01*
X214023025Y-122089692D01*
X214229868Y-122296535D01*
X214473089Y-122459050D01*
X214743342Y-122570992D01*
X215030240Y-122628060D01*
X215322760Y-122628060D01*
X215609658Y-122570992D01*
X215879911Y-122459050D01*
X216123132Y-122296535D01*
X216329975Y-122089692D01*
X216492490Y-121846471D01*
X216604432Y-121576218D01*
X216661500Y-121289320D01*
X216661500Y-120996800D01*
X216604432Y-120709902D01*
X216492490Y-120439649D01*
X216329975Y-120196428D01*
X216198120Y-120064573D01*
X216270680Y-120042562D01*
X216380994Y-119983597D01*
X216477685Y-119904245D01*
X216557037Y-119807554D01*
X216616002Y-119697240D01*
X216652312Y-119577542D01*
X216664572Y-119453060D01*
X216664572Y-117753060D01*
X216652312Y-117628578D01*
X216616002Y-117508880D01*
X216557037Y-117398566D01*
X216477685Y-117301875D01*
X216380994Y-117222523D01*
X216270680Y-117163558D01*
X216150982Y-117127248D01*
X216026500Y-117114988D01*
X214326500Y-117114988D01*
X214202018Y-117127248D01*
X214082320Y-117163558D01*
X213972006Y-117222523D01*
X213875315Y-117301875D01*
X213795963Y-117398566D01*
X213736998Y-117508880D01*
X213700688Y-117628578D01*
X213688428Y-117753060D01*
X204034915Y-117753060D01*
X204136962Y-117651013D01*
X204283061Y-117432359D01*
X204383696Y-117189405D01*
X204435000Y-116931486D01*
X204435000Y-116668514D01*
X204426674Y-116626655D01*
X219740000Y-116626655D01*
X219740000Y-116973345D01*
X219807636Y-117313373D01*
X219940308Y-117633673D01*
X220132919Y-117921935D01*
X220378065Y-118167081D01*
X220666327Y-118359692D01*
X220986627Y-118492364D01*
X221326655Y-118560000D01*
X221673345Y-118560000D01*
X222013373Y-118492364D01*
X222333673Y-118359692D01*
X222621935Y-118167081D01*
X222867081Y-117921935D01*
X223059692Y-117633673D01*
X223192364Y-117313373D01*
X223260000Y-116973345D01*
X223260000Y-116626655D01*
X223192364Y-116286627D01*
X223059692Y-115966327D01*
X222867081Y-115678065D01*
X222621935Y-115432919D01*
X222333673Y-115240308D01*
X222013373Y-115107636D01*
X221673345Y-115040000D01*
X221326655Y-115040000D01*
X220986627Y-115107636D01*
X220666327Y-115240308D01*
X220378065Y-115432919D01*
X220132919Y-115678065D01*
X219940308Y-115966327D01*
X219807636Y-116286627D01*
X219740000Y-116626655D01*
X204426674Y-116626655D01*
X204383696Y-116410595D01*
X204283061Y-116167641D01*
X204136962Y-115948987D01*
X203951013Y-115763038D01*
X203732359Y-115616939D01*
X203489405Y-115516304D01*
X203231486Y-115465000D01*
X202968514Y-115465000D01*
X202710595Y-115516304D01*
X202467641Y-115616939D01*
X202248987Y-115763038D01*
X202063038Y-115948987D01*
X201916939Y-116167641D01*
X201816304Y-116410595D01*
X201765000Y-116668514D01*
X200745100Y-116668514D01*
X200745100Y-113565098D01*
X210715000Y-113565098D01*
X210715000Y-114034902D01*
X210806654Y-114495679D01*
X210986440Y-114929721D01*
X211247450Y-115320349D01*
X211579651Y-115652550D01*
X211970279Y-115913560D01*
X212404321Y-116093346D01*
X212865098Y-116185000D01*
X213334902Y-116185000D01*
X213795679Y-116093346D01*
X214229721Y-115913560D01*
X214620349Y-115652550D01*
X214952550Y-115320349D01*
X215213560Y-114929721D01*
X215393346Y-114495679D01*
X215474705Y-114086655D01*
X240060000Y-114086655D01*
X240060000Y-114433345D01*
X240127636Y-114773373D01*
X240260308Y-115093673D01*
X240452919Y-115381935D01*
X240698065Y-115627081D01*
X240986327Y-115819692D01*
X241306627Y-115952364D01*
X241646655Y-116020000D01*
X241993345Y-116020000D01*
X242333373Y-115952364D01*
X242653673Y-115819692D01*
X242941935Y-115627081D01*
X243187081Y-115381935D01*
X243248510Y-115290000D01*
X248041928Y-115290000D01*
X248054188Y-115414482D01*
X248090498Y-115534180D01*
X248149463Y-115644494D01*
X248228815Y-115741185D01*
X248325506Y-115820537D01*
X248435820Y-115879502D01*
X248508380Y-115901513D01*
X248376525Y-116033368D01*
X248214010Y-116276589D01*
X248102068Y-116546842D01*
X248045000Y-116833740D01*
X248045000Y-117126260D01*
X248102068Y-117413158D01*
X248214010Y-117683411D01*
X248376525Y-117926632D01*
X248583368Y-118133475D01*
X248826589Y-118295990D01*
X249096842Y-118407932D01*
X249383740Y-118465000D01*
X249676260Y-118465000D01*
X249963158Y-118407932D01*
X250233411Y-118295990D01*
X250476632Y-118133475D01*
X250683475Y-117926632D01*
X250800000Y-117752240D01*
X250916525Y-117926632D01*
X251123368Y-118133475D01*
X251366589Y-118295990D01*
X251636842Y-118407932D01*
X251923740Y-118465000D01*
X252216260Y-118465000D01*
X252503158Y-118407932D01*
X252773411Y-118295990D01*
X253016632Y-118133475D01*
X253223475Y-117926632D01*
X253385990Y-117683411D01*
X253497932Y-117413158D01*
X253555000Y-117126260D01*
X253555000Y-116984387D01*
X258853750Y-116984387D01*
X258853750Y-117198113D01*
X258895446Y-117407733D01*
X258977235Y-117605190D01*
X259095975Y-117782897D01*
X259209328Y-117896250D01*
X259124725Y-117980853D01*
X259005985Y-118158560D01*
X258924196Y-118356017D01*
X258882500Y-118565637D01*
X258882500Y-118779363D01*
X258924196Y-118988983D01*
X259005985Y-119186440D01*
X259124725Y-119364147D01*
X259275853Y-119515275D01*
X259453560Y-119634015D01*
X259651017Y-119715804D01*
X259860637Y-119757500D01*
X260074363Y-119757500D01*
X260283983Y-119715804D01*
X260481440Y-119634015D01*
X260659147Y-119515275D01*
X260810275Y-119364147D01*
X260929015Y-119186440D01*
X261010804Y-118988983D01*
X261052500Y-118779363D01*
X261052500Y-118565637D01*
X261010804Y-118356017D01*
X260929015Y-118158560D01*
X260810275Y-117980853D01*
X260696922Y-117867500D01*
X260781525Y-117782897D01*
X260900265Y-117605190D01*
X260982054Y-117407733D01*
X261023750Y-117198113D01*
X261023750Y-116984387D01*
X260982054Y-116774767D01*
X260900265Y-116577310D01*
X260781525Y-116399603D01*
X260630397Y-116248475D01*
X260452690Y-116129735D01*
X260255233Y-116047946D01*
X260045613Y-116006250D01*
X259831887Y-116006250D01*
X259622267Y-116047946D01*
X259424810Y-116129735D01*
X259247103Y-116248475D01*
X259095975Y-116399603D01*
X258977235Y-116577310D01*
X258895446Y-116774767D01*
X258853750Y-116984387D01*
X253555000Y-116984387D01*
X253555000Y-116833740D01*
X253497932Y-116546842D01*
X253385990Y-116276589D01*
X253223475Y-116033368D01*
X253091620Y-115901513D01*
X253164180Y-115879502D01*
X253274494Y-115820537D01*
X253371185Y-115741185D01*
X253450537Y-115644494D01*
X253509502Y-115534180D01*
X253545812Y-115414482D01*
X253558072Y-115290000D01*
X253555000Y-114725750D01*
X253396250Y-114567000D01*
X252197000Y-114567000D01*
X252197000Y-114587000D01*
X251943000Y-114587000D01*
X251943000Y-114567000D01*
X249657000Y-114567000D01*
X249657000Y-114587000D01*
X249403000Y-114587000D01*
X249403000Y-114567000D01*
X248203750Y-114567000D01*
X248045000Y-114725750D01*
X248041928Y-115290000D01*
X243248510Y-115290000D01*
X243379692Y-115093673D01*
X243512364Y-114773373D01*
X243580000Y-114433345D01*
X243580000Y-114086655D01*
X243512364Y-113746627D01*
X243447488Y-113590000D01*
X248041928Y-113590000D01*
X248045000Y-114154250D01*
X248203750Y-114313000D01*
X249403000Y-114313000D01*
X249403000Y-113113750D01*
X249657000Y-113113750D01*
X249657000Y-114313000D01*
X251943000Y-114313000D01*
X251943000Y-113113750D01*
X252197000Y-113113750D01*
X252197000Y-114313000D01*
X253396250Y-114313000D01*
X253555000Y-114154250D01*
X253556057Y-113960000D01*
X272541928Y-113960000D01*
X272541928Y-117460000D01*
X272554188Y-117584482D01*
X272590498Y-117704180D01*
X272649463Y-117814494D01*
X272728815Y-117911185D01*
X272825506Y-117990537D01*
X272935820Y-118049502D01*
X273055518Y-118085812D01*
X273180000Y-118098072D01*
X276680000Y-118098072D01*
X276804482Y-118085812D01*
X276924180Y-118049502D01*
X277034494Y-117990537D01*
X277131185Y-117911185D01*
X277210537Y-117814494D01*
X277269502Y-117704180D01*
X277305812Y-117584482D01*
X277318072Y-117460000D01*
X277318072Y-114710000D01*
X278791928Y-114710000D01*
X278791928Y-116710000D01*
X278818599Y-116980799D01*
X278897589Y-117241192D01*
X279025860Y-117481171D01*
X279198485Y-117691515D01*
X279408829Y-117864140D01*
X279648808Y-117992411D01*
X279909201Y-118071401D01*
X280180000Y-118098072D01*
X281680000Y-118098072D01*
X281950799Y-118071401D01*
X282211192Y-117992411D01*
X282451171Y-117864140D01*
X282661515Y-117691515D01*
X282834140Y-117481171D01*
X282962411Y-117241192D01*
X283041401Y-116980799D01*
X283068072Y-116710000D01*
X283068072Y-114710000D01*
X283041401Y-114439201D01*
X282962411Y-114178808D01*
X282834140Y-113938829D01*
X282661515Y-113728485D01*
X282451171Y-113555860D01*
X282211192Y-113427589D01*
X281950799Y-113348599D01*
X281680000Y-113321928D01*
X280180000Y-113321928D01*
X279909201Y-113348599D01*
X279648808Y-113427589D01*
X279408829Y-113555860D01*
X279198485Y-113728485D01*
X279025860Y-113938829D01*
X278897589Y-114178808D01*
X278818599Y-114439201D01*
X278791928Y-114710000D01*
X277318072Y-114710000D01*
X277318072Y-113960000D01*
X277305812Y-113835518D01*
X277269502Y-113715820D01*
X277210537Y-113605506D01*
X277131185Y-113508815D01*
X277034494Y-113429463D01*
X276957869Y-113388506D01*
X277055000Y-113398072D01*
X278805000Y-113398072D01*
X279100186Y-113368999D01*
X279384028Y-113282896D01*
X279645618Y-113143073D01*
X279874903Y-112954903D01*
X280063073Y-112725618D01*
X280202896Y-112464028D01*
X280288999Y-112180186D01*
X280318072Y-111885000D01*
X280318072Y-110135000D01*
X280288999Y-109839814D01*
X280202896Y-109555972D01*
X280063073Y-109294382D01*
X279874903Y-109065097D01*
X279645618Y-108876927D01*
X279384028Y-108737104D01*
X279100186Y-108651001D01*
X278805000Y-108621928D01*
X277055000Y-108621928D01*
X276759814Y-108651001D01*
X276475972Y-108737104D01*
X276214382Y-108876927D01*
X275985097Y-109065097D01*
X275796927Y-109294382D01*
X275657104Y-109555972D01*
X275571001Y-109839814D01*
X275541928Y-110135000D01*
X275541928Y-111885000D01*
X275571001Y-112180186D01*
X275657104Y-112464028D01*
X275796927Y-112725618D01*
X275985097Y-112954903D01*
X276214382Y-113143073D01*
X276475972Y-113282896D01*
X276604643Y-113321928D01*
X273180000Y-113321928D01*
X273055518Y-113334188D01*
X272935820Y-113370498D01*
X272825506Y-113429463D01*
X272728815Y-113508815D01*
X272649463Y-113605506D01*
X272590498Y-113715820D01*
X272554188Y-113835518D01*
X272541928Y-113960000D01*
X253556057Y-113960000D01*
X253558072Y-113590000D01*
X253545812Y-113465518D01*
X253509502Y-113345820D01*
X253450537Y-113235506D01*
X253371185Y-113138815D01*
X253274494Y-113059463D01*
X253164180Y-113000498D01*
X253044482Y-112964188D01*
X252920000Y-112951928D01*
X252355750Y-112955000D01*
X252197000Y-113113750D01*
X251943000Y-113113750D01*
X251784250Y-112955000D01*
X251220000Y-112951928D01*
X251095518Y-112964188D01*
X250975820Y-113000498D01*
X250865506Y-113059463D01*
X250800000Y-113113222D01*
X250734494Y-113059463D01*
X250624180Y-113000498D01*
X250504482Y-112964188D01*
X250380000Y-112951928D01*
X249815750Y-112955000D01*
X249657000Y-113113750D01*
X249403000Y-113113750D01*
X249244250Y-112955000D01*
X248680000Y-112951928D01*
X248555518Y-112964188D01*
X248435820Y-113000498D01*
X248325506Y-113059463D01*
X248228815Y-113138815D01*
X248149463Y-113235506D01*
X248090498Y-113345820D01*
X248054188Y-113465518D01*
X248041928Y-113590000D01*
X243447488Y-113590000D01*
X243379692Y-113426327D01*
X243187081Y-113138065D01*
X242941935Y-112892919D01*
X242653673Y-112700308D01*
X242333373Y-112567636D01*
X241993345Y-112500000D01*
X241646655Y-112500000D01*
X241306627Y-112567636D01*
X240986327Y-112700308D01*
X240698065Y-112892919D01*
X240452919Y-113138065D01*
X240260308Y-113426327D01*
X240127636Y-113746627D01*
X240060000Y-114086655D01*
X215474705Y-114086655D01*
X215485000Y-114034902D01*
X215485000Y-113565098D01*
X215393346Y-113104321D01*
X215327159Y-112944531D01*
X220455074Y-112944531D01*
X220565921Y-113221714D01*
X220876840Y-113375089D01*
X221211705Y-113464860D01*
X221557650Y-113487576D01*
X221901380Y-113442366D01*
X222229685Y-113330966D01*
X222434079Y-113221714D01*
X222544926Y-112944531D01*
X221500000Y-111899605D01*
X220455074Y-112944531D01*
X215327159Y-112944531D01*
X215213560Y-112670279D01*
X214952550Y-112279651D01*
X214620349Y-111947450D01*
X214366227Y-111777650D01*
X219732424Y-111777650D01*
X219777634Y-112121380D01*
X219889034Y-112449685D01*
X219998286Y-112654079D01*
X220275469Y-112764926D01*
X221320395Y-111720000D01*
X221679605Y-111720000D01*
X222724531Y-112764926D01*
X223001714Y-112654079D01*
X223155089Y-112343160D01*
X223244860Y-112008295D01*
X223267576Y-111662350D01*
X223222366Y-111318620D01*
X223110966Y-110990315D01*
X223001714Y-110785921D01*
X222724531Y-110675074D01*
X221679605Y-111720000D01*
X221320395Y-111720000D01*
X220275469Y-110675074D01*
X219998286Y-110785921D01*
X219844911Y-111096840D01*
X219755140Y-111431705D01*
X219732424Y-111777650D01*
X214366227Y-111777650D01*
X214229721Y-111686440D01*
X213795679Y-111506654D01*
X213334902Y-111415000D01*
X212865098Y-111415000D01*
X212404321Y-111506654D01*
X211970279Y-111686440D01*
X211579651Y-111947450D01*
X211247450Y-112279651D01*
X210986440Y-112670279D01*
X210806654Y-113104321D01*
X210715000Y-113565098D01*
X200745100Y-113565098D01*
X200745100Y-105668514D01*
X201765000Y-105668514D01*
X201765000Y-105931486D01*
X201816304Y-106189405D01*
X201916939Y-106432359D01*
X202063038Y-106651013D01*
X202248987Y-106836962D01*
X202467641Y-106983061D01*
X202710595Y-107083696D01*
X202968514Y-107135000D01*
X203231486Y-107135000D01*
X203489405Y-107083696D01*
X203570754Y-107050000D01*
X210711928Y-107050000D01*
X210711928Y-110550000D01*
X210724188Y-110674482D01*
X210760498Y-110794180D01*
X210819463Y-110904494D01*
X210898815Y-111001185D01*
X210995506Y-111080537D01*
X211105820Y-111139502D01*
X211225518Y-111175812D01*
X211350000Y-111188072D01*
X214850000Y-111188072D01*
X214974482Y-111175812D01*
X215094180Y-111139502D01*
X215204494Y-111080537D01*
X215301185Y-111001185D01*
X215380537Y-110904494D01*
X215439502Y-110794180D01*
X215475812Y-110674482D01*
X215488072Y-110550000D01*
X215488072Y-110495469D01*
X220455074Y-110495469D01*
X221500000Y-111540395D01*
X222544926Y-110495469D01*
X222434079Y-110218286D01*
X222123160Y-110064911D01*
X221788295Y-109975140D01*
X221442350Y-109952424D01*
X221098620Y-109997634D01*
X220770315Y-110109034D01*
X220565921Y-110218286D01*
X220455074Y-110495469D01*
X215488072Y-110495469D01*
X215488072Y-108913137D01*
X264445000Y-108913137D01*
X264445000Y-109126863D01*
X264486696Y-109336483D01*
X264568485Y-109533940D01*
X264687225Y-109711647D01*
X264838353Y-109862775D01*
X265016060Y-109981515D01*
X265213517Y-110063304D01*
X265423137Y-110105000D01*
X265636863Y-110105000D01*
X265846483Y-110063304D01*
X266043940Y-109981515D01*
X266221647Y-109862775D01*
X266372775Y-109711647D01*
X266491515Y-109533940D01*
X266573304Y-109336483D01*
X266615000Y-109126863D01*
X266615000Y-109060673D01*
X266678485Y-109213940D01*
X266797225Y-109391647D01*
X266948353Y-109542775D01*
X267126060Y-109661515D01*
X267323517Y-109743304D01*
X267533137Y-109785000D01*
X267746863Y-109785000D01*
X267956483Y-109743304D01*
X268153940Y-109661515D01*
X268331647Y-109542775D01*
X268482775Y-109391647D01*
X268601515Y-109213940D01*
X268683304Y-109016483D01*
X268725000Y-108806863D01*
X268725000Y-108593137D01*
X268683304Y-108383517D01*
X268601515Y-108186060D01*
X268482775Y-108008353D01*
X268331647Y-107857225D01*
X268153940Y-107738485D01*
X267956483Y-107656696D01*
X267746863Y-107615000D01*
X267533137Y-107615000D01*
X267323517Y-107656696D01*
X267126060Y-107738485D01*
X266948353Y-107857225D01*
X266797225Y-108008353D01*
X266678485Y-108186060D01*
X266596696Y-108383517D01*
X266555000Y-108593137D01*
X266555000Y-108659327D01*
X266491515Y-108506060D01*
X266372775Y-108328353D01*
X266221647Y-108177225D01*
X266043940Y-108058485D01*
X265846483Y-107976696D01*
X265636863Y-107935000D01*
X265423137Y-107935000D01*
X265213517Y-107976696D01*
X265016060Y-108058485D01*
X264838353Y-108177225D01*
X264687225Y-108328353D01*
X264568485Y-108506060D01*
X264486696Y-108703517D01*
X264445000Y-108913137D01*
X215488072Y-108913137D01*
X215488072Y-107050000D01*
X215475812Y-106925518D01*
X215439502Y-106805820D01*
X215380537Y-106695506D01*
X215301185Y-106598815D01*
X215204494Y-106519463D01*
X215094180Y-106460498D01*
X214974482Y-106424188D01*
X214850000Y-106411928D01*
X211350000Y-106411928D01*
X211225518Y-106424188D01*
X211105820Y-106460498D01*
X210995506Y-106519463D01*
X210898815Y-106598815D01*
X210819463Y-106695506D01*
X210760498Y-106805820D01*
X210724188Y-106925518D01*
X210711928Y-107050000D01*
X203570754Y-107050000D01*
X203732359Y-106983061D01*
X203951013Y-106836962D01*
X204136962Y-106651013D01*
X204283061Y-106432359D01*
X204383696Y-106189405D01*
X204435000Y-105931486D01*
X204435000Y-105668514D01*
X204383696Y-105410595D01*
X204283061Y-105167641D01*
X204136962Y-104948987D01*
X203951013Y-104763038D01*
X203732359Y-104616939D01*
X203489405Y-104516304D01*
X203231486Y-104465000D01*
X202968514Y-104465000D01*
X202710595Y-104516304D01*
X202467641Y-104616939D01*
X202248987Y-104763038D01*
X202063038Y-104948987D01*
X201916939Y-105167641D01*
X201816304Y-105410595D01*
X201765000Y-105668514D01*
X200745100Y-105668514D01*
X200745100Y-103926655D01*
X219740000Y-103926655D01*
X219740000Y-104273345D01*
X219807636Y-104613373D01*
X219940308Y-104933673D01*
X220132919Y-105221935D01*
X220378065Y-105467081D01*
X220666327Y-105659692D01*
X220986627Y-105792364D01*
X221326655Y-105860000D01*
X221673345Y-105860000D01*
X222013373Y-105792364D01*
X222333673Y-105659692D01*
X222621935Y-105467081D01*
X222764485Y-105324531D01*
X240775074Y-105324531D01*
X240885921Y-105601714D01*
X241196840Y-105755089D01*
X241531705Y-105844860D01*
X241877650Y-105867576D01*
X242221380Y-105822366D01*
X242549685Y-105710966D01*
X242754079Y-105601714D01*
X242864926Y-105324531D01*
X241820000Y-104279605D01*
X240775074Y-105324531D01*
X222764485Y-105324531D01*
X222867081Y-105221935D01*
X223059692Y-104933673D01*
X223192364Y-104613373D01*
X223260000Y-104273345D01*
X223260000Y-104157650D01*
X240052424Y-104157650D01*
X240097634Y-104501380D01*
X240209034Y-104829685D01*
X240318286Y-105034079D01*
X240595469Y-105144926D01*
X241640395Y-104100000D01*
X241999605Y-104100000D01*
X243044531Y-105144926D01*
X243081854Y-105130000D01*
X248041928Y-105130000D01*
X248054188Y-105254482D01*
X248090498Y-105374180D01*
X248149463Y-105484494D01*
X248228815Y-105581185D01*
X248325506Y-105660537D01*
X248435820Y-105719502D01*
X248508380Y-105741513D01*
X248376525Y-105873368D01*
X248214010Y-106116589D01*
X248102068Y-106386842D01*
X248045000Y-106673740D01*
X248045000Y-106966260D01*
X248102068Y-107253158D01*
X248214010Y-107523411D01*
X248376525Y-107766632D01*
X248583368Y-107973475D01*
X248826589Y-108135990D01*
X249096842Y-108247932D01*
X249383740Y-108305000D01*
X249676260Y-108305000D01*
X249963158Y-108247932D01*
X250233411Y-108135990D01*
X250476632Y-107973475D01*
X250683475Y-107766632D01*
X250800000Y-107592240D01*
X250916525Y-107766632D01*
X251123368Y-107973475D01*
X251366589Y-108135990D01*
X251636842Y-108247932D01*
X251923740Y-108305000D01*
X252216260Y-108305000D01*
X252503158Y-108247932D01*
X252773411Y-108135990D01*
X253016632Y-107973475D01*
X253223475Y-107766632D01*
X253316014Y-107628137D01*
X258540000Y-107628137D01*
X258540000Y-107841863D01*
X258581696Y-108051483D01*
X258663485Y-108248940D01*
X258782225Y-108426647D01*
X258933353Y-108577775D01*
X259111060Y-108696515D01*
X259308517Y-108778304D01*
X259518137Y-108820000D01*
X259731863Y-108820000D01*
X259941483Y-108778304D01*
X260138940Y-108696515D01*
X260316647Y-108577775D01*
X260467775Y-108426647D01*
X260586515Y-108248940D01*
X260668304Y-108051483D01*
X260710000Y-107841863D01*
X260710000Y-107628137D01*
X260668304Y-107418517D01*
X260586515Y-107221060D01*
X260467775Y-107043353D01*
X260316647Y-106892225D01*
X260138940Y-106773485D01*
X259941483Y-106691696D01*
X259731863Y-106650000D01*
X259518137Y-106650000D01*
X259308517Y-106691696D01*
X259111060Y-106773485D01*
X258933353Y-106892225D01*
X258782225Y-107043353D01*
X258663485Y-107221060D01*
X258581696Y-107418517D01*
X258540000Y-107628137D01*
X253316014Y-107628137D01*
X253385990Y-107523411D01*
X253497932Y-107253158D01*
X253555000Y-106966260D01*
X253555000Y-106673740D01*
X253497932Y-106386842D01*
X253385990Y-106116589D01*
X253223475Y-105873368D01*
X253091620Y-105741513D01*
X253164180Y-105719502D01*
X253274494Y-105660537D01*
X253371185Y-105581185D01*
X253450537Y-105484494D01*
X253509502Y-105374180D01*
X253545812Y-105254482D01*
X253558072Y-105130000D01*
X253555000Y-104565750D01*
X253396250Y-104407000D01*
X252197000Y-104407000D01*
X252197000Y-104427000D01*
X251943000Y-104427000D01*
X251943000Y-104407000D01*
X249657000Y-104407000D01*
X249657000Y-104427000D01*
X249403000Y-104427000D01*
X249403000Y-104407000D01*
X248203750Y-104407000D01*
X248045000Y-104565750D01*
X248041928Y-105130000D01*
X243081854Y-105130000D01*
X243321714Y-105034079D01*
X243475089Y-104723160D01*
X243564860Y-104388295D01*
X243587576Y-104042350D01*
X243542366Y-103698620D01*
X243451219Y-103430000D01*
X248041928Y-103430000D01*
X248045000Y-103994250D01*
X248203750Y-104153000D01*
X249403000Y-104153000D01*
X249403000Y-102953750D01*
X249657000Y-102953750D01*
X249657000Y-104153000D01*
X251943000Y-104153000D01*
X251943000Y-102953750D01*
X252197000Y-102953750D01*
X252197000Y-104153000D01*
X253396250Y-104153000D01*
X253555000Y-103994250D01*
X253557728Y-103493137D01*
X266645000Y-103493137D01*
X266645000Y-103706863D01*
X266686696Y-103916483D01*
X266768485Y-104113940D01*
X266887225Y-104291647D01*
X267038353Y-104442775D01*
X267216060Y-104561515D01*
X267413517Y-104643304D01*
X267623137Y-104685000D01*
X267836863Y-104685000D01*
X268046483Y-104643304D01*
X268243940Y-104561515D01*
X268421647Y-104442775D01*
X268572775Y-104291647D01*
X268691515Y-104113940D01*
X268773304Y-103916483D01*
X268815000Y-103706863D01*
X268815000Y-103493137D01*
X268773304Y-103283517D01*
X268691515Y-103086060D01*
X268572775Y-102908353D01*
X268421647Y-102757225D01*
X268243940Y-102638485D01*
X268046483Y-102556696D01*
X267836863Y-102515000D01*
X267623137Y-102515000D01*
X267413517Y-102556696D01*
X267216060Y-102638485D01*
X267038353Y-102757225D01*
X266887225Y-102908353D01*
X266768485Y-103086060D01*
X266686696Y-103283517D01*
X266645000Y-103493137D01*
X253557728Y-103493137D01*
X253558072Y-103430000D01*
X253545812Y-103305518D01*
X253509502Y-103185820D01*
X253450537Y-103075506D01*
X253371185Y-102978815D01*
X253274494Y-102899463D01*
X253164180Y-102840498D01*
X253044482Y-102804188D01*
X252920000Y-102791928D01*
X252355750Y-102795000D01*
X252197000Y-102953750D01*
X251943000Y-102953750D01*
X251784250Y-102795000D01*
X251220000Y-102791928D01*
X251095518Y-102804188D01*
X250975820Y-102840498D01*
X250865506Y-102899463D01*
X250800000Y-102953222D01*
X250734494Y-102899463D01*
X250624180Y-102840498D01*
X250504482Y-102804188D01*
X250380000Y-102791928D01*
X249815750Y-102795000D01*
X249657000Y-102953750D01*
X249403000Y-102953750D01*
X249244250Y-102795000D01*
X248680000Y-102791928D01*
X248555518Y-102804188D01*
X248435820Y-102840498D01*
X248325506Y-102899463D01*
X248228815Y-102978815D01*
X248149463Y-103075506D01*
X248090498Y-103185820D01*
X248054188Y-103305518D01*
X248041928Y-103430000D01*
X243451219Y-103430000D01*
X243430966Y-103370315D01*
X243321714Y-103165921D01*
X243044531Y-103055074D01*
X241999605Y-104100000D01*
X241640395Y-104100000D01*
X240595469Y-103055074D01*
X240318286Y-103165921D01*
X240164911Y-103476840D01*
X240075140Y-103811705D01*
X240052424Y-104157650D01*
X223260000Y-104157650D01*
X223260000Y-103926655D01*
X223192364Y-103586627D01*
X223059692Y-103266327D01*
X222867081Y-102978065D01*
X222621935Y-102732919D01*
X222517500Y-102663137D01*
X234365000Y-102663137D01*
X234365000Y-102876863D01*
X234406696Y-103086483D01*
X234488485Y-103283940D01*
X234607225Y-103461647D01*
X234758353Y-103612775D01*
X234936060Y-103731515D01*
X235133517Y-103813304D01*
X235343137Y-103855000D01*
X235556863Y-103855000D01*
X235766483Y-103813304D01*
X235963940Y-103731515D01*
X236141647Y-103612775D01*
X236292775Y-103461647D01*
X236411515Y-103283940D01*
X236493304Y-103086483D01*
X236535000Y-102876863D01*
X236535000Y-102875469D01*
X240775074Y-102875469D01*
X241820000Y-103920395D01*
X242864926Y-102875469D01*
X242754079Y-102598286D01*
X242443160Y-102444911D01*
X242108295Y-102355140D01*
X241762350Y-102332424D01*
X241418620Y-102377634D01*
X241090315Y-102489034D01*
X240885921Y-102598286D01*
X240775074Y-102875469D01*
X236535000Y-102875469D01*
X236535000Y-102663137D01*
X236493304Y-102453517D01*
X236411515Y-102256060D01*
X236292775Y-102078353D01*
X236141647Y-101927225D01*
X235963940Y-101808485D01*
X235766483Y-101726696D01*
X235556863Y-101685000D01*
X235343137Y-101685000D01*
X235133517Y-101726696D01*
X234936060Y-101808485D01*
X234758353Y-101927225D01*
X234607225Y-102078353D01*
X234488485Y-102256060D01*
X234406696Y-102453517D01*
X234365000Y-102663137D01*
X222517500Y-102663137D01*
X222333673Y-102540308D01*
X222013373Y-102407636D01*
X221673345Y-102340000D01*
X221326655Y-102340000D01*
X220986627Y-102407636D01*
X220666327Y-102540308D01*
X220378065Y-102732919D01*
X220132919Y-102978065D01*
X219940308Y-103266327D01*
X219807636Y-103586627D01*
X219740000Y-103926655D01*
X200745100Y-103926655D01*
X200745100Y-101163137D01*
X225005000Y-101163137D01*
X225005000Y-101376863D01*
X225046696Y-101586483D01*
X225128485Y-101783940D01*
X225247225Y-101961647D01*
X225398353Y-102112775D01*
X225576060Y-102231515D01*
X225773517Y-102313304D01*
X225983137Y-102355000D01*
X226196863Y-102355000D01*
X226406483Y-102313304D01*
X226603940Y-102231515D01*
X226781647Y-102112775D01*
X226932775Y-101961647D01*
X227051515Y-101783940D01*
X227133304Y-101586483D01*
X227175000Y-101376863D01*
X227175000Y-101375159D01*
X231362978Y-101375159D01*
X231362978Y-101588885D01*
X231404674Y-101798505D01*
X231486463Y-101995962D01*
X231605203Y-102173669D01*
X231756331Y-102324797D01*
X231934038Y-102443537D01*
X232131495Y-102525326D01*
X232341115Y-102567022D01*
X232554841Y-102567022D01*
X232764461Y-102525326D01*
X232961918Y-102443537D01*
X233139625Y-102324797D01*
X233290753Y-102173669D01*
X233409493Y-101995962D01*
X233491282Y-101798505D01*
X233532978Y-101588885D01*
X233532978Y-101375159D01*
X233502739Y-101223137D01*
X265385000Y-101223137D01*
X265385000Y-101436863D01*
X265426696Y-101646483D01*
X265508485Y-101843940D01*
X265627225Y-102021647D01*
X265778353Y-102172775D01*
X265956060Y-102291515D01*
X266153517Y-102373304D01*
X266363137Y-102415000D01*
X266576863Y-102415000D01*
X266786483Y-102373304D01*
X266983940Y-102291515D01*
X267161647Y-102172775D01*
X267312775Y-102021647D01*
X267431515Y-101843940D01*
X267513304Y-101646483D01*
X267555000Y-101436863D01*
X267555000Y-101223137D01*
X267513304Y-101013517D01*
X267431515Y-100816060D01*
X267391142Y-100755637D01*
X269142500Y-100755637D01*
X269142500Y-100969363D01*
X269184196Y-101178983D01*
X269265985Y-101376440D01*
X269384725Y-101554147D01*
X269535853Y-101705275D01*
X269713560Y-101824015D01*
X269911017Y-101905804D01*
X270120637Y-101947500D01*
X270334363Y-101947500D01*
X270543983Y-101905804D01*
X270741440Y-101824015D01*
X270919147Y-101705275D01*
X271070275Y-101554147D01*
X271189015Y-101376440D01*
X271237245Y-101260000D01*
X272541928Y-101260000D01*
X272541928Y-104760000D01*
X272554188Y-104884482D01*
X272590498Y-105004180D01*
X272649463Y-105114494D01*
X272728815Y-105211185D01*
X272825506Y-105290537D01*
X272935820Y-105349502D01*
X273055518Y-105385812D01*
X273180000Y-105398072D01*
X276680000Y-105398072D01*
X276804482Y-105385812D01*
X276924180Y-105349502D01*
X277034494Y-105290537D01*
X277131185Y-105211185D01*
X277210537Y-105114494D01*
X277269502Y-105004180D01*
X277305812Y-104884482D01*
X277318072Y-104760000D01*
X277318072Y-102010000D01*
X278791928Y-102010000D01*
X278791928Y-104010000D01*
X278818599Y-104280799D01*
X278897589Y-104541192D01*
X279025860Y-104781171D01*
X279198485Y-104991515D01*
X279408829Y-105164140D01*
X279648808Y-105292411D01*
X279909201Y-105371401D01*
X280180000Y-105398072D01*
X281680000Y-105398072D01*
X281950799Y-105371401D01*
X282211192Y-105292411D01*
X282451171Y-105164140D01*
X282661515Y-104991515D01*
X282834140Y-104781171D01*
X282962411Y-104541192D01*
X283041401Y-104280799D01*
X283068072Y-104010000D01*
X283068072Y-102010000D01*
X283041401Y-101739201D01*
X282962411Y-101478808D01*
X282834140Y-101238829D01*
X282661515Y-101028485D01*
X282451171Y-100855860D01*
X282211192Y-100727589D01*
X281950799Y-100648599D01*
X281680000Y-100621928D01*
X280180000Y-100621928D01*
X279909201Y-100648599D01*
X279648808Y-100727589D01*
X279408829Y-100855860D01*
X279198485Y-101028485D01*
X279025860Y-101238829D01*
X278897589Y-101478808D01*
X278818599Y-101739201D01*
X278791928Y-102010000D01*
X277318072Y-102010000D01*
X277318072Y-101260000D01*
X277305812Y-101135518D01*
X277269502Y-101015820D01*
X277210537Y-100905506D01*
X277131185Y-100808815D01*
X277034494Y-100729463D01*
X276957869Y-100688506D01*
X277055000Y-100698072D01*
X278805000Y-100698072D01*
X279100186Y-100668999D01*
X279384028Y-100582896D01*
X279645618Y-100443073D01*
X279874903Y-100254903D01*
X280063073Y-100025618D01*
X280202896Y-99764028D01*
X280288999Y-99480186D01*
X280318072Y-99185000D01*
X280318072Y-97435000D01*
X280288999Y-97139814D01*
X280202896Y-96855972D01*
X280063073Y-96594382D01*
X279874903Y-96365097D01*
X279645618Y-96176927D01*
X279384028Y-96037104D01*
X279100186Y-95951001D01*
X278805000Y-95921928D01*
X277055000Y-95921928D01*
X276759814Y-95951001D01*
X276475972Y-96037104D01*
X276214382Y-96176927D01*
X275985097Y-96365097D01*
X275796927Y-96594382D01*
X275657104Y-96855972D01*
X275571001Y-97139814D01*
X275541928Y-97435000D01*
X275541928Y-99185000D01*
X275571001Y-99480186D01*
X275657104Y-99764028D01*
X275796927Y-100025618D01*
X275985097Y-100254903D01*
X276214382Y-100443073D01*
X276475972Y-100582896D01*
X276604643Y-100621928D01*
X273180000Y-100621928D01*
X273055518Y-100634188D01*
X272935820Y-100670498D01*
X272825506Y-100729463D01*
X272728815Y-100808815D01*
X272649463Y-100905506D01*
X272590498Y-101015820D01*
X272554188Y-101135518D01*
X272541928Y-101260000D01*
X271237245Y-101260000D01*
X271270804Y-101178983D01*
X271312500Y-100969363D01*
X271312500Y-100755637D01*
X271270804Y-100546017D01*
X271189015Y-100348560D01*
X271070275Y-100170853D01*
X270919147Y-100019725D01*
X270741440Y-99900985D01*
X270543983Y-99819196D01*
X270334363Y-99777500D01*
X270120637Y-99777500D01*
X269911017Y-99819196D01*
X269713560Y-99900985D01*
X269535853Y-100019725D01*
X269384725Y-100170853D01*
X269265985Y-100348560D01*
X269184196Y-100546017D01*
X269142500Y-100755637D01*
X267391142Y-100755637D01*
X267312775Y-100638353D01*
X267161647Y-100487225D01*
X266983940Y-100368485D01*
X266786483Y-100286696D01*
X266576863Y-100245000D01*
X266363137Y-100245000D01*
X266153517Y-100286696D01*
X265956060Y-100368485D01*
X265778353Y-100487225D01*
X265627225Y-100638353D01*
X265508485Y-100816060D01*
X265426696Y-101013517D01*
X265385000Y-101223137D01*
X233502739Y-101223137D01*
X233491282Y-101165539D01*
X233409493Y-100968082D01*
X233290753Y-100790375D01*
X233139625Y-100639247D01*
X232961918Y-100520507D01*
X232764461Y-100438718D01*
X232554841Y-100397022D01*
X232341115Y-100397022D01*
X232131495Y-100438718D01*
X231934038Y-100520507D01*
X231756331Y-100639247D01*
X231605203Y-100790375D01*
X231486463Y-100968082D01*
X231404674Y-101165539D01*
X231362978Y-101375159D01*
X227175000Y-101375159D01*
X227175000Y-101163137D01*
X227133304Y-100953517D01*
X227051515Y-100756060D01*
X226932775Y-100578353D01*
X226781647Y-100427225D01*
X226603940Y-100308485D01*
X226406483Y-100226696D01*
X226196863Y-100185000D01*
X225983137Y-100185000D01*
X225773517Y-100226696D01*
X225576060Y-100308485D01*
X225398353Y-100427225D01*
X225247225Y-100578353D01*
X225128485Y-100756060D01*
X225046696Y-100953517D01*
X225005000Y-101163137D01*
X200745100Y-101163137D01*
X200745100Y-100965470D01*
X207250165Y-100957000D01*
X207274939Y-100954527D01*
X207298754Y-100947269D01*
X207320695Y-100935505D01*
X207339919Y-100919686D01*
X207355688Y-100900420D01*
X207367396Y-100878448D01*
X207374592Y-100854614D01*
X207376999Y-100829510D01*
X207373428Y-99903471D01*
X207407518Y-99913812D01*
X207532000Y-99926072D01*
X209232000Y-99926072D01*
X209356482Y-99913812D01*
X209476180Y-99877502D01*
X209586494Y-99818537D01*
X209683185Y-99739185D01*
X209762537Y-99642494D01*
X209821502Y-99532180D01*
X209843513Y-99459620D01*
X209975368Y-99591475D01*
X210218589Y-99753990D01*
X210488842Y-99865932D01*
X210775740Y-99923000D01*
X211068260Y-99923000D01*
X211355158Y-99865932D01*
X211625411Y-99753990D01*
X211868632Y-99591475D01*
X212075475Y-99384632D01*
X212192000Y-99210240D01*
X212308525Y-99384632D01*
X212515368Y-99591475D01*
X212758589Y-99753990D01*
X213028842Y-99865932D01*
X213315740Y-99923000D01*
X213608260Y-99923000D01*
X213895158Y-99865932D01*
X214165411Y-99753990D01*
X214408632Y-99591475D01*
X214615475Y-99384632D01*
X214732000Y-99210240D01*
X214848525Y-99384632D01*
X215055368Y-99591475D01*
X215298589Y-99753990D01*
X215568842Y-99865932D01*
X215855740Y-99923000D01*
X216148260Y-99923000D01*
X216435158Y-99865932D01*
X216705411Y-99753990D01*
X216948632Y-99591475D01*
X217155475Y-99384632D01*
X217277195Y-99202466D01*
X217346822Y-99319355D01*
X217541731Y-99535588D01*
X217775080Y-99709641D01*
X218037901Y-99834825D01*
X218185110Y-99879476D01*
X218415000Y-99758155D01*
X218415000Y-98565000D01*
X218395000Y-98565000D01*
X218395000Y-98311000D01*
X218415000Y-98311000D01*
X218415000Y-98291000D01*
X218669000Y-98291000D01*
X218669000Y-98311000D01*
X218689000Y-98311000D01*
X218689000Y-98565000D01*
X218669000Y-98565000D01*
X218669000Y-99758155D01*
X218898890Y-99879476D01*
X219046099Y-99834825D01*
X219308920Y-99709641D01*
X219542269Y-99535588D01*
X219737178Y-99319355D01*
X219806805Y-99202466D01*
X219928525Y-99384632D01*
X220135368Y-99591475D01*
X220378589Y-99753990D01*
X220648842Y-99865932D01*
X220935740Y-99923000D01*
X221228260Y-99923000D01*
X221515158Y-99865932D01*
X221785411Y-99753990D01*
X222028632Y-99591475D01*
X222235475Y-99384632D01*
X222352000Y-99210240D01*
X222468525Y-99384632D01*
X222675368Y-99591475D01*
X222918589Y-99753990D01*
X223188842Y-99865932D01*
X223475740Y-99923000D01*
X223768260Y-99923000D01*
X224055158Y-99865932D01*
X224325411Y-99753990D01*
X224568632Y-99591475D01*
X224775475Y-99384632D01*
X224892000Y-99210240D01*
X225008525Y-99384632D01*
X225215368Y-99591475D01*
X225458589Y-99753990D01*
X225728842Y-99865932D01*
X226015740Y-99923000D01*
X226308260Y-99923000D01*
X226595158Y-99865932D01*
X226865411Y-99753990D01*
X227108632Y-99591475D01*
X227315475Y-99384632D01*
X227432000Y-99210240D01*
X227548525Y-99384632D01*
X227755368Y-99591475D01*
X227998589Y-99753990D01*
X228268842Y-99865932D01*
X228555740Y-99923000D01*
X228848260Y-99923000D01*
X229135158Y-99865932D01*
X229405411Y-99753990D01*
X229648632Y-99591475D01*
X229855475Y-99384632D01*
X229972000Y-99210240D01*
X230088525Y-99384632D01*
X230295368Y-99591475D01*
X230538589Y-99753990D01*
X230808842Y-99865932D01*
X231095740Y-99923000D01*
X231388260Y-99923000D01*
X231675158Y-99865932D01*
X231945411Y-99753990D01*
X232188632Y-99591475D01*
X232395475Y-99384632D01*
X232512000Y-99210240D01*
X232628525Y-99384632D01*
X232835368Y-99591475D01*
X233078589Y-99753990D01*
X233348842Y-99865932D01*
X233635740Y-99923000D01*
X233928260Y-99923000D01*
X234215158Y-99865932D01*
X234485411Y-99753990D01*
X234728632Y-99591475D01*
X234935475Y-99384632D01*
X235052000Y-99210240D01*
X235168525Y-99384632D01*
X235375368Y-99591475D01*
X235618589Y-99753990D01*
X235888842Y-99865932D01*
X236175740Y-99923000D01*
X236468260Y-99923000D01*
X236755158Y-99865932D01*
X237025411Y-99753990D01*
X237268632Y-99591475D01*
X237475475Y-99384632D01*
X237597195Y-99202466D01*
X237666822Y-99319355D01*
X237861731Y-99535588D01*
X238095080Y-99709641D01*
X238357901Y-99834825D01*
X238505110Y-99879476D01*
X238735000Y-99758155D01*
X238735000Y-98565000D01*
X238715000Y-98565000D01*
X238715000Y-98311000D01*
X238735000Y-98311000D01*
X238735000Y-98291000D01*
X238989000Y-98291000D01*
X238989000Y-98311000D01*
X239009000Y-98311000D01*
X239009000Y-98565000D01*
X238989000Y-98565000D01*
X238989000Y-99758155D01*
X239218890Y-99879476D01*
X239366099Y-99834825D01*
X239628920Y-99709641D01*
X239862269Y-99535588D01*
X240057178Y-99319355D01*
X240126805Y-99202466D01*
X240248525Y-99384632D01*
X240455368Y-99591475D01*
X240698589Y-99753990D01*
X240968842Y-99865932D01*
X241255740Y-99923000D01*
X241548260Y-99923000D01*
X241835158Y-99865932D01*
X242105411Y-99753990D01*
X242348632Y-99591475D01*
X242555475Y-99384632D01*
X242672000Y-99210240D01*
X242788525Y-99384632D01*
X242995368Y-99591475D01*
X243238589Y-99753990D01*
X243508842Y-99865932D01*
X243795740Y-99923000D01*
X244088260Y-99923000D01*
X244375158Y-99865932D01*
X244645411Y-99753990D01*
X244888632Y-99591475D01*
X245095475Y-99384632D01*
X245212000Y-99210240D01*
X245328525Y-99384632D01*
X245535368Y-99591475D01*
X245778589Y-99753990D01*
X246048842Y-99865932D01*
X246335740Y-99923000D01*
X246628260Y-99923000D01*
X246915158Y-99865932D01*
X247185411Y-99753990D01*
X247428632Y-99591475D01*
X247635475Y-99384632D01*
X247752000Y-99210240D01*
X247868525Y-99384632D01*
X248075368Y-99591475D01*
X248318589Y-99753990D01*
X248588842Y-99865932D01*
X248875740Y-99923000D01*
X249168260Y-99923000D01*
X249455158Y-99865932D01*
X249725411Y-99753990D01*
X249968632Y-99591475D01*
X250175475Y-99384632D01*
X250292000Y-99210240D01*
X250408525Y-99384632D01*
X250615368Y-99591475D01*
X250858589Y-99753990D01*
X251128842Y-99865932D01*
X251415740Y-99923000D01*
X251708260Y-99923000D01*
X251995158Y-99865932D01*
X252265411Y-99753990D01*
X252508632Y-99591475D01*
X252715475Y-99384632D01*
X252832000Y-99210240D01*
X252948525Y-99384632D01*
X253155368Y-99591475D01*
X253398589Y-99753990D01*
X253668842Y-99865932D01*
X253955740Y-99923000D01*
X254248260Y-99923000D01*
X254535158Y-99865932D01*
X254805411Y-99753990D01*
X255048632Y-99591475D01*
X255255475Y-99384632D01*
X255377195Y-99202466D01*
X255446822Y-99319355D01*
X255641731Y-99535588D01*
X255875080Y-99709641D01*
X256137901Y-99834825D01*
X256285110Y-99879476D01*
X256515000Y-99758155D01*
X256515000Y-98565000D01*
X256769000Y-98565000D01*
X256769000Y-99758155D01*
X256998890Y-99879476D01*
X257146099Y-99834825D01*
X257408920Y-99709641D01*
X257642269Y-99535588D01*
X257837178Y-99319355D01*
X257986157Y-99069252D01*
X258083481Y-98794891D01*
X257962814Y-98565000D01*
X256769000Y-98565000D01*
X256515000Y-98565000D01*
X256495000Y-98565000D01*
X256495000Y-98311000D01*
X256515000Y-98311000D01*
X256515000Y-98291000D01*
X256769000Y-98291000D01*
X256769000Y-98311000D01*
X257962814Y-98311000D01*
X258083481Y-98081109D01*
X257986157Y-97806748D01*
X257837178Y-97556645D01*
X257642269Y-97340412D01*
X257412594Y-97169100D01*
X257588632Y-97051475D01*
X257795475Y-96844632D01*
X257957990Y-96601411D01*
X258069932Y-96331158D01*
X258127000Y-96044260D01*
X258127000Y-95751740D01*
X258069932Y-95464842D01*
X257957990Y-95194589D01*
X257795475Y-94951368D01*
X257588632Y-94744525D01*
X257345411Y-94582010D01*
X257075158Y-94470068D01*
X256856129Y-94426500D01*
X259672394Y-94426500D01*
X259389161Y-94615750D01*
G37*
G04 #@! TD.AperFunction*
D24*
X249149000Y-95771000D02*
X249169000Y-95771000D01*
X249169000Y-96025000D01*
X249149000Y-96025000D01*
X249149000Y-96045000D01*
X248895000Y-96045000D01*
X248895000Y-96025000D01*
X248875000Y-96025000D01*
X248875000Y-95771000D01*
X248895000Y-95771000D01*
X248895000Y-95751000D01*
X249149000Y-95751000D01*
X249149000Y-95771000D01*
G04 #@! TA.AperFunction,Conductor*
D25*
G36*
X249149000Y-95771000D02*
G01*
X249169000Y-95771000D01*
X249169000Y-96025000D01*
X249149000Y-96025000D01*
X249149000Y-96045000D01*
X248895000Y-96045000D01*
X248895000Y-96025000D01*
X248875000Y-96025000D01*
X248875000Y-95771000D01*
X248895000Y-95771000D01*
X248895000Y-95751000D01*
X249149000Y-95751000D01*
X249149000Y-95771000D01*
G37*
G04 #@! TD.AperFunction*
D24*
X213589000Y-95771000D02*
X213609000Y-95771000D01*
X213609000Y-96025000D01*
X213589000Y-96025000D01*
X213589000Y-96045000D01*
X213335000Y-96045000D01*
X213335000Y-96025000D01*
X213315000Y-96025000D01*
X213315000Y-95771000D01*
X213335000Y-95771000D01*
X213335000Y-95751000D01*
X213589000Y-95751000D01*
X213589000Y-95771000D01*
G04 #@! TA.AperFunction,Conductor*
D25*
G36*
X213589000Y-95771000D02*
G01*
X213609000Y-95771000D01*
X213609000Y-96025000D01*
X213589000Y-96025000D01*
X213589000Y-96045000D01*
X213335000Y-96045000D01*
X213335000Y-96025000D01*
X213315000Y-96025000D01*
X213315000Y-95771000D01*
X213335000Y-95771000D01*
X213335000Y-95751000D01*
X213589000Y-95751000D01*
X213589000Y-95771000D01*
G37*
G04 #@! TD.AperFunction*
D24*
X223749000Y-95771000D02*
X223769000Y-95771000D01*
X223769000Y-96025000D01*
X223749000Y-96025000D01*
X223749000Y-96045000D01*
X223495000Y-96045000D01*
X223495000Y-96025000D01*
X223475000Y-96025000D01*
X223475000Y-95771000D01*
X223495000Y-95771000D01*
X223495000Y-95751000D01*
X223749000Y-95751000D01*
X223749000Y-95771000D01*
G04 #@! TA.AperFunction,Conductor*
D25*
G36*
X223749000Y-95771000D02*
G01*
X223769000Y-95771000D01*
X223769000Y-96025000D01*
X223749000Y-96025000D01*
X223749000Y-96045000D01*
X223495000Y-96045000D01*
X223495000Y-96025000D01*
X223475000Y-96025000D01*
X223475000Y-95771000D01*
X223495000Y-95771000D01*
X223495000Y-95751000D01*
X223749000Y-95751000D01*
X223749000Y-95771000D01*
G37*
G04 #@! TD.AperFunction*
D24*
X244069000Y-95771000D02*
X244089000Y-95771000D01*
X244089000Y-96025000D01*
X244069000Y-96025000D01*
X244069000Y-96045000D01*
X243815000Y-96045000D01*
X243815000Y-96025000D01*
X243795000Y-96025000D01*
X243795000Y-95771000D01*
X243815000Y-95771000D01*
X243815000Y-95751000D01*
X244069000Y-95751000D01*
X244069000Y-95771000D01*
G04 #@! TA.AperFunction,Conductor*
D25*
G36*
X244069000Y-95771000D02*
G01*
X244089000Y-95771000D01*
X244089000Y-96025000D01*
X244069000Y-96025000D01*
X244069000Y-96045000D01*
X243815000Y-96045000D01*
X243815000Y-96025000D01*
X243795000Y-96025000D01*
X243795000Y-95771000D01*
X243815000Y-95771000D01*
X243815000Y-95751000D01*
X244069000Y-95751000D01*
X244069000Y-95771000D01*
G37*
G04 #@! TD.AperFunction*
D24*
X231369000Y-95771000D02*
X231389000Y-95771000D01*
X231389000Y-96025000D01*
X231369000Y-96025000D01*
X231369000Y-96045000D01*
X231115000Y-96045000D01*
X231115000Y-96025000D01*
X231095000Y-96025000D01*
X231095000Y-95771000D01*
X231115000Y-95771000D01*
X231115000Y-95751000D01*
X231369000Y-95751000D01*
X231369000Y-95771000D01*
G04 #@! TA.AperFunction,Conductor*
D25*
G36*
X231369000Y-95771000D02*
G01*
X231389000Y-95771000D01*
X231389000Y-96025000D01*
X231369000Y-96025000D01*
X231369000Y-96045000D01*
X231115000Y-96045000D01*
X231115000Y-96025000D01*
X231095000Y-96025000D01*
X231095000Y-95771000D01*
X231115000Y-95771000D01*
X231115000Y-95751000D01*
X231369000Y-95751000D01*
X231369000Y-95771000D01*
G37*
G04 #@! TD.AperFunction*
M02*
