G04 #@! TF.GenerationSoftware,KiCad,Pcbnew,5.1.7-a382d34a8~88~ubuntu18.04.1*
G04 #@! TF.CreationDate,2021-04-23T16:21:05+02:00*
G04 #@! TF.ProjectId,alim_hat,616c696d-5f68-4617-942e-6b696361645f,4.1*
G04 #@! TF.SameCoordinates,Original*
G04 #@! TF.FileFunction,Legend,Bot*
G04 #@! TF.FilePolarity,Positive*
%FSLAX46Y46*%
G04 Gerber Fmt 4.6, Leading zero omitted, Abs format (unit mm)*
G04 Created by KiCad (PCBNEW 5.1.7-a382d34a8~88~ubuntu18.04.1) date 2021-04-23 16:21:05*
%MOMM*%
%LPD*%
G01*
G04 APERTURE LIST*
%ADD10C,0.120000*%
%ADD11C,0.150000*%
G04 APERTURE END LIST*
D10*
X207052000Y-98438000D02*
X207052000Y-99768000D01*
X207052000Y-99768000D02*
X208382000Y-99768000D01*
X207052000Y-97168000D02*
X209652000Y-97168000D01*
X209652000Y-97168000D02*
X209652000Y-99768000D01*
X209652000Y-99768000D02*
X257972000Y-99768000D01*
X257972000Y-94568000D02*
X257972000Y-99768000D01*
X207052000Y-94568000D02*
X257972000Y-94568000D01*
X207052000Y-94568000D02*
X207052000Y-97168000D01*
X219115080Y-143577300D02*
X219115080Y-148777300D01*
X211435080Y-143577300D02*
X219115080Y-143577300D01*
X208835080Y-148777300D02*
X219115080Y-148777300D01*
X211435080Y-143577300D02*
X211435080Y-146177300D01*
X211435080Y-146177300D02*
X208835080Y-146177300D01*
X208835080Y-146177300D02*
X208835080Y-148777300D01*
X210165080Y-143577300D02*
X208835080Y-143577300D01*
X208835080Y-143577300D02*
X208835080Y-144907300D01*
D11*
X208068095Y-101742380D02*
X208068095Y-100742380D01*
X207687142Y-100742380D01*
X207591904Y-100790000D01*
X207544285Y-100837619D01*
X207496666Y-100932857D01*
X207496666Y-101075714D01*
X207544285Y-101170952D01*
X207591904Y-101218571D01*
X207687142Y-101266190D01*
X208068095Y-101266190D01*
X206544285Y-101742380D02*
X207115714Y-101742380D01*
X206830000Y-101742380D02*
X206830000Y-100742380D01*
X206925238Y-100885238D01*
X207020476Y-100980476D01*
X207115714Y-101028095D01*
X206912380Y-143416666D02*
X207626666Y-143416666D01*
X207769523Y-143369047D01*
X207864761Y-143273809D01*
X207912380Y-143130952D01*
X207912380Y-143035714D01*
X206912380Y-143797619D02*
X206912380Y-144416666D01*
X207293333Y-144083333D01*
X207293333Y-144226190D01*
X207340952Y-144321428D01*
X207388571Y-144369047D01*
X207483809Y-144416666D01*
X207721904Y-144416666D01*
X207817142Y-144369047D01*
X207864761Y-144321428D01*
X207912380Y-144226190D01*
X207912380Y-143940476D01*
X207864761Y-143845238D01*
X207817142Y-143797619D01*
M02*
