G04 #@! TF.GenerationSoftware,KiCad,Pcbnew,(5.1.5)-3*
G04 #@! TF.CreationDate,2020-09-22T10:03:05+02:00*
G04 #@! TF.ProjectId,alim_hat,616c696d-5f68-4617-942e-6b696361645f,rev?*
G04 #@! TF.SameCoordinates,Original*
G04 #@! TF.FileFunction,Paste,Bot*
G04 #@! TF.FilePolarity,Positive*
%FSLAX46Y46*%
G04 Gerber Fmt 4.6, Leading zero omitted, Abs format (unit mm)*
G04 Created by KiCad (PCBNEW (5.1.5)-3) date 2020-09-22 10:03:05*
%MOMM*%
%LPD*%
G04 APERTURE LIST*
%ADD10C,0.150000*%
%ADD11R,2.900000X5.450000*%
G04 APERTURE END LIST*
D10*
G36*
X270029505Y-139526204D02*
G01*
X270053773Y-139529804D01*
X270077572Y-139535765D01*
X270100671Y-139544030D01*
X270122850Y-139554520D01*
X270143893Y-139567132D01*
X270163599Y-139581747D01*
X270181777Y-139598223D01*
X270198253Y-139616401D01*
X270212868Y-139636107D01*
X270225480Y-139657150D01*
X270235970Y-139679329D01*
X270244235Y-139702428D01*
X270250196Y-139726227D01*
X270253796Y-139750495D01*
X270255000Y-139774999D01*
X270255000Y-140625001D01*
X270253796Y-140649505D01*
X270250196Y-140673773D01*
X270244235Y-140697572D01*
X270235970Y-140720671D01*
X270225480Y-140742850D01*
X270212868Y-140763893D01*
X270198253Y-140783599D01*
X270181777Y-140801777D01*
X270163599Y-140818253D01*
X270143893Y-140832868D01*
X270122850Y-140845480D01*
X270100671Y-140855970D01*
X270077572Y-140864235D01*
X270053773Y-140870196D01*
X270029505Y-140873796D01*
X270005001Y-140875000D01*
X267154999Y-140875000D01*
X267130495Y-140873796D01*
X267106227Y-140870196D01*
X267082428Y-140864235D01*
X267059329Y-140855970D01*
X267037150Y-140845480D01*
X267016107Y-140832868D01*
X266996401Y-140818253D01*
X266978223Y-140801777D01*
X266961747Y-140783599D01*
X266947132Y-140763893D01*
X266934520Y-140742850D01*
X266924030Y-140720671D01*
X266915765Y-140697572D01*
X266909804Y-140673773D01*
X266906204Y-140649505D01*
X266905000Y-140625001D01*
X266905000Y-139774999D01*
X266906204Y-139750495D01*
X266909804Y-139726227D01*
X266915765Y-139702428D01*
X266924030Y-139679329D01*
X266934520Y-139657150D01*
X266947132Y-139636107D01*
X266961747Y-139616401D01*
X266978223Y-139598223D01*
X266996401Y-139581747D01*
X267016107Y-139567132D01*
X267037150Y-139554520D01*
X267059329Y-139544030D01*
X267082428Y-139535765D01*
X267106227Y-139529804D01*
X267130495Y-139526204D01*
X267154999Y-139525000D01*
X270005001Y-139525000D01*
X270029505Y-139526204D01*
G37*
G36*
X270029505Y-133726204D02*
G01*
X270053773Y-133729804D01*
X270077572Y-133735765D01*
X270100671Y-133744030D01*
X270122850Y-133754520D01*
X270143893Y-133767132D01*
X270163599Y-133781747D01*
X270181777Y-133798223D01*
X270198253Y-133816401D01*
X270212868Y-133836107D01*
X270225480Y-133857150D01*
X270235970Y-133879329D01*
X270244235Y-133902428D01*
X270250196Y-133926227D01*
X270253796Y-133950495D01*
X270255000Y-133974999D01*
X270255000Y-134825001D01*
X270253796Y-134849505D01*
X270250196Y-134873773D01*
X270244235Y-134897572D01*
X270235970Y-134920671D01*
X270225480Y-134942850D01*
X270212868Y-134963893D01*
X270198253Y-134983599D01*
X270181777Y-135001777D01*
X270163599Y-135018253D01*
X270143893Y-135032868D01*
X270122850Y-135045480D01*
X270100671Y-135055970D01*
X270077572Y-135064235D01*
X270053773Y-135070196D01*
X270029505Y-135073796D01*
X270005001Y-135075000D01*
X267154999Y-135075000D01*
X267130495Y-135073796D01*
X267106227Y-135070196D01*
X267082428Y-135064235D01*
X267059329Y-135055970D01*
X267037150Y-135045480D01*
X267016107Y-135032868D01*
X266996401Y-135018253D01*
X266978223Y-135001777D01*
X266961747Y-134983599D01*
X266947132Y-134963893D01*
X266934520Y-134942850D01*
X266924030Y-134920671D01*
X266915765Y-134897572D01*
X266909804Y-134873773D01*
X266906204Y-134849505D01*
X266905000Y-134825001D01*
X266905000Y-133974999D01*
X266906204Y-133950495D01*
X266909804Y-133926227D01*
X266915765Y-133902428D01*
X266924030Y-133879329D01*
X266934520Y-133857150D01*
X266947132Y-133836107D01*
X266961747Y-133816401D01*
X266978223Y-133798223D01*
X266996401Y-133781747D01*
X267016107Y-133767132D01*
X267037150Y-133754520D01*
X267059329Y-133744030D01*
X267082428Y-133735765D01*
X267106227Y-133729804D01*
X267130495Y-133726204D01*
X267154999Y-133725000D01*
X270005001Y-133725000D01*
X270029505Y-133726204D01*
G37*
G36*
X270029505Y-128096204D02*
G01*
X270053773Y-128099804D01*
X270077572Y-128105765D01*
X270100671Y-128114030D01*
X270122850Y-128124520D01*
X270143893Y-128137132D01*
X270163599Y-128151747D01*
X270181777Y-128168223D01*
X270198253Y-128186401D01*
X270212868Y-128206107D01*
X270225480Y-128227150D01*
X270235970Y-128249329D01*
X270244235Y-128272428D01*
X270250196Y-128296227D01*
X270253796Y-128320495D01*
X270255000Y-128344999D01*
X270255000Y-129195001D01*
X270253796Y-129219505D01*
X270250196Y-129243773D01*
X270244235Y-129267572D01*
X270235970Y-129290671D01*
X270225480Y-129312850D01*
X270212868Y-129333893D01*
X270198253Y-129353599D01*
X270181777Y-129371777D01*
X270163599Y-129388253D01*
X270143893Y-129402868D01*
X270122850Y-129415480D01*
X270100671Y-129425970D01*
X270077572Y-129434235D01*
X270053773Y-129440196D01*
X270029505Y-129443796D01*
X270005001Y-129445000D01*
X267154999Y-129445000D01*
X267130495Y-129443796D01*
X267106227Y-129440196D01*
X267082428Y-129434235D01*
X267059329Y-129425970D01*
X267037150Y-129415480D01*
X267016107Y-129402868D01*
X266996401Y-129388253D01*
X266978223Y-129371777D01*
X266961747Y-129353599D01*
X266947132Y-129333893D01*
X266934520Y-129312850D01*
X266924030Y-129290671D01*
X266915765Y-129267572D01*
X266909804Y-129243773D01*
X266906204Y-129219505D01*
X266905000Y-129195001D01*
X266905000Y-128344999D01*
X266906204Y-128320495D01*
X266909804Y-128296227D01*
X266915765Y-128272428D01*
X266924030Y-128249329D01*
X266934520Y-128227150D01*
X266947132Y-128206107D01*
X266961747Y-128186401D01*
X266978223Y-128168223D01*
X266996401Y-128151747D01*
X267016107Y-128137132D01*
X267037150Y-128124520D01*
X267059329Y-128114030D01*
X267082428Y-128105765D01*
X267106227Y-128099804D01*
X267130495Y-128096204D01*
X267154999Y-128095000D01*
X270005001Y-128095000D01*
X270029505Y-128096204D01*
G37*
G36*
X270029505Y-122296204D02*
G01*
X270053773Y-122299804D01*
X270077572Y-122305765D01*
X270100671Y-122314030D01*
X270122850Y-122324520D01*
X270143893Y-122337132D01*
X270163599Y-122351747D01*
X270181777Y-122368223D01*
X270198253Y-122386401D01*
X270212868Y-122406107D01*
X270225480Y-122427150D01*
X270235970Y-122449329D01*
X270244235Y-122472428D01*
X270250196Y-122496227D01*
X270253796Y-122520495D01*
X270255000Y-122544999D01*
X270255000Y-123395001D01*
X270253796Y-123419505D01*
X270250196Y-123443773D01*
X270244235Y-123467572D01*
X270235970Y-123490671D01*
X270225480Y-123512850D01*
X270212868Y-123533893D01*
X270198253Y-123553599D01*
X270181777Y-123571777D01*
X270163599Y-123588253D01*
X270143893Y-123602868D01*
X270122850Y-123615480D01*
X270100671Y-123625970D01*
X270077572Y-123634235D01*
X270053773Y-123640196D01*
X270029505Y-123643796D01*
X270005001Y-123645000D01*
X267154999Y-123645000D01*
X267130495Y-123643796D01*
X267106227Y-123640196D01*
X267082428Y-123634235D01*
X267059329Y-123625970D01*
X267037150Y-123615480D01*
X267016107Y-123602868D01*
X266996401Y-123588253D01*
X266978223Y-123571777D01*
X266961747Y-123553599D01*
X266947132Y-123533893D01*
X266934520Y-123512850D01*
X266924030Y-123490671D01*
X266915765Y-123467572D01*
X266909804Y-123443773D01*
X266906204Y-123419505D01*
X266905000Y-123395001D01*
X266905000Y-122544999D01*
X266906204Y-122520495D01*
X266909804Y-122496227D01*
X266915765Y-122472428D01*
X266924030Y-122449329D01*
X266934520Y-122427150D01*
X266947132Y-122406107D01*
X266961747Y-122386401D01*
X266978223Y-122368223D01*
X266996401Y-122351747D01*
X267016107Y-122337132D01*
X267037150Y-122324520D01*
X267059329Y-122314030D01*
X267082428Y-122305765D01*
X267106227Y-122299804D01*
X267130495Y-122296204D01*
X267154999Y-122295000D01*
X270005001Y-122295000D01*
X270029505Y-122296204D01*
G37*
G36*
X270029505Y-115396204D02*
G01*
X270053773Y-115399804D01*
X270077572Y-115405765D01*
X270100671Y-115414030D01*
X270122850Y-115424520D01*
X270143893Y-115437132D01*
X270163599Y-115451747D01*
X270181777Y-115468223D01*
X270198253Y-115486401D01*
X270212868Y-115506107D01*
X270225480Y-115527150D01*
X270235970Y-115549329D01*
X270244235Y-115572428D01*
X270250196Y-115596227D01*
X270253796Y-115620495D01*
X270255000Y-115644999D01*
X270255000Y-116495001D01*
X270253796Y-116519505D01*
X270250196Y-116543773D01*
X270244235Y-116567572D01*
X270235970Y-116590671D01*
X270225480Y-116612850D01*
X270212868Y-116633893D01*
X270198253Y-116653599D01*
X270181777Y-116671777D01*
X270163599Y-116688253D01*
X270143893Y-116702868D01*
X270122850Y-116715480D01*
X270100671Y-116725970D01*
X270077572Y-116734235D01*
X270053773Y-116740196D01*
X270029505Y-116743796D01*
X270005001Y-116745000D01*
X267154999Y-116745000D01*
X267130495Y-116743796D01*
X267106227Y-116740196D01*
X267082428Y-116734235D01*
X267059329Y-116725970D01*
X267037150Y-116715480D01*
X267016107Y-116702868D01*
X266996401Y-116688253D01*
X266978223Y-116671777D01*
X266961747Y-116653599D01*
X266947132Y-116633893D01*
X266934520Y-116612850D01*
X266924030Y-116590671D01*
X266915765Y-116567572D01*
X266909804Y-116543773D01*
X266906204Y-116519505D01*
X266905000Y-116495001D01*
X266905000Y-115644999D01*
X266906204Y-115620495D01*
X266909804Y-115596227D01*
X266915765Y-115572428D01*
X266924030Y-115549329D01*
X266934520Y-115527150D01*
X266947132Y-115506107D01*
X266961747Y-115486401D01*
X266978223Y-115468223D01*
X266996401Y-115451747D01*
X267016107Y-115437132D01*
X267037150Y-115424520D01*
X267059329Y-115414030D01*
X267082428Y-115405765D01*
X267106227Y-115399804D01*
X267130495Y-115396204D01*
X267154999Y-115395000D01*
X270005001Y-115395000D01*
X270029505Y-115396204D01*
G37*
G36*
X270029505Y-109596204D02*
G01*
X270053773Y-109599804D01*
X270077572Y-109605765D01*
X270100671Y-109614030D01*
X270122850Y-109624520D01*
X270143893Y-109637132D01*
X270163599Y-109651747D01*
X270181777Y-109668223D01*
X270198253Y-109686401D01*
X270212868Y-109706107D01*
X270225480Y-109727150D01*
X270235970Y-109749329D01*
X270244235Y-109772428D01*
X270250196Y-109796227D01*
X270253796Y-109820495D01*
X270255000Y-109844999D01*
X270255000Y-110695001D01*
X270253796Y-110719505D01*
X270250196Y-110743773D01*
X270244235Y-110767572D01*
X270235970Y-110790671D01*
X270225480Y-110812850D01*
X270212868Y-110833893D01*
X270198253Y-110853599D01*
X270181777Y-110871777D01*
X270163599Y-110888253D01*
X270143893Y-110902868D01*
X270122850Y-110915480D01*
X270100671Y-110925970D01*
X270077572Y-110934235D01*
X270053773Y-110940196D01*
X270029505Y-110943796D01*
X270005001Y-110945000D01*
X267154999Y-110945000D01*
X267130495Y-110943796D01*
X267106227Y-110940196D01*
X267082428Y-110934235D01*
X267059329Y-110925970D01*
X267037150Y-110915480D01*
X267016107Y-110902868D01*
X266996401Y-110888253D01*
X266978223Y-110871777D01*
X266961747Y-110853599D01*
X266947132Y-110833893D01*
X266934520Y-110812850D01*
X266924030Y-110790671D01*
X266915765Y-110767572D01*
X266909804Y-110743773D01*
X266906204Y-110719505D01*
X266905000Y-110695001D01*
X266905000Y-109844999D01*
X266906204Y-109820495D01*
X266909804Y-109796227D01*
X266915765Y-109772428D01*
X266924030Y-109749329D01*
X266934520Y-109727150D01*
X266947132Y-109706107D01*
X266961747Y-109686401D01*
X266978223Y-109668223D01*
X266996401Y-109651747D01*
X267016107Y-109637132D01*
X267037150Y-109624520D01*
X267059329Y-109614030D01*
X267082428Y-109605765D01*
X267106227Y-109599804D01*
X267130495Y-109596204D01*
X267154999Y-109595000D01*
X270005001Y-109595000D01*
X270029505Y-109596204D01*
G37*
G36*
X270019345Y-104629144D02*
G01*
X270043613Y-104632744D01*
X270067412Y-104638705D01*
X270090511Y-104646970D01*
X270112690Y-104657460D01*
X270133733Y-104670072D01*
X270153439Y-104684687D01*
X270171617Y-104701163D01*
X270188093Y-104719341D01*
X270202708Y-104739047D01*
X270215320Y-104760090D01*
X270225810Y-104782269D01*
X270234075Y-104805368D01*
X270240036Y-104829167D01*
X270243636Y-104853435D01*
X270244840Y-104877939D01*
X270244840Y-105727941D01*
X270243636Y-105752445D01*
X270240036Y-105776713D01*
X270234075Y-105800512D01*
X270225810Y-105823611D01*
X270215320Y-105845790D01*
X270202708Y-105866833D01*
X270188093Y-105886539D01*
X270171617Y-105904717D01*
X270153439Y-105921193D01*
X270133733Y-105935808D01*
X270112690Y-105948420D01*
X270090511Y-105958910D01*
X270067412Y-105967175D01*
X270043613Y-105973136D01*
X270019345Y-105976736D01*
X269994841Y-105977940D01*
X267144839Y-105977940D01*
X267120335Y-105976736D01*
X267096067Y-105973136D01*
X267072268Y-105967175D01*
X267049169Y-105958910D01*
X267026990Y-105948420D01*
X267005947Y-105935808D01*
X266986241Y-105921193D01*
X266968063Y-105904717D01*
X266951587Y-105886539D01*
X266936972Y-105866833D01*
X266924360Y-105845790D01*
X266913870Y-105823611D01*
X266905605Y-105800512D01*
X266899644Y-105776713D01*
X266896044Y-105752445D01*
X266894840Y-105727941D01*
X266894840Y-104877939D01*
X266896044Y-104853435D01*
X266899644Y-104829167D01*
X266905605Y-104805368D01*
X266913870Y-104782269D01*
X266924360Y-104760090D01*
X266936972Y-104739047D01*
X266951587Y-104719341D01*
X266968063Y-104701163D01*
X266986241Y-104684687D01*
X267005947Y-104670072D01*
X267026990Y-104657460D01*
X267049169Y-104646970D01*
X267072268Y-104638705D01*
X267096067Y-104632744D01*
X267120335Y-104629144D01*
X267144839Y-104627940D01*
X269994841Y-104627940D01*
X270019345Y-104629144D01*
G37*
G36*
X270019345Y-98829144D02*
G01*
X270043613Y-98832744D01*
X270067412Y-98838705D01*
X270090511Y-98846970D01*
X270112690Y-98857460D01*
X270133733Y-98870072D01*
X270153439Y-98884687D01*
X270171617Y-98901163D01*
X270188093Y-98919341D01*
X270202708Y-98939047D01*
X270215320Y-98960090D01*
X270225810Y-98982269D01*
X270234075Y-99005368D01*
X270240036Y-99029167D01*
X270243636Y-99053435D01*
X270244840Y-99077939D01*
X270244840Y-99927941D01*
X270243636Y-99952445D01*
X270240036Y-99976713D01*
X270234075Y-100000512D01*
X270225810Y-100023611D01*
X270215320Y-100045790D01*
X270202708Y-100066833D01*
X270188093Y-100086539D01*
X270171617Y-100104717D01*
X270153439Y-100121193D01*
X270133733Y-100135808D01*
X270112690Y-100148420D01*
X270090511Y-100158910D01*
X270067412Y-100167175D01*
X270043613Y-100173136D01*
X270019345Y-100176736D01*
X269994841Y-100177940D01*
X267144839Y-100177940D01*
X267120335Y-100176736D01*
X267096067Y-100173136D01*
X267072268Y-100167175D01*
X267049169Y-100158910D01*
X267026990Y-100148420D01*
X267005947Y-100135808D01*
X266986241Y-100121193D01*
X266968063Y-100104717D01*
X266951587Y-100086539D01*
X266936972Y-100066833D01*
X266924360Y-100045790D01*
X266913870Y-100023611D01*
X266905605Y-100000512D01*
X266899644Y-99976713D01*
X266896044Y-99952445D01*
X266894840Y-99927941D01*
X266894840Y-99077939D01*
X266896044Y-99053435D01*
X266899644Y-99029167D01*
X266905605Y-99005368D01*
X266913870Y-98982269D01*
X266924360Y-98960090D01*
X266936972Y-98939047D01*
X266951587Y-98919341D01*
X266968063Y-98901163D01*
X266986241Y-98884687D01*
X267005947Y-98870072D01*
X267026990Y-98857460D01*
X267049169Y-98846970D01*
X267072268Y-98838705D01*
X267096067Y-98832744D01*
X267120335Y-98829144D01*
X267144839Y-98827940D01*
X269994841Y-98827940D01*
X270019345Y-98829144D01*
G37*
D11*
X259394000Y-139586000D03*
X253594000Y-139586000D03*
X259140000Y-128156000D03*
X253340000Y-128156000D03*
X259288000Y-115456000D03*
X253488000Y-115456000D03*
X259288000Y-105296000D03*
X253488000Y-105296000D03*
M02*
