M48
; DRILL file {KiCad 5.1.7-a382d34a8~88~ubuntu18.04.1} date Thu Jul 15 18:06:42 2021
; FORMAT={-:-/ absolute / metric / decimal}
; #@! TF.CreationDate,2021-07-15T18:06:42+02:00
; #@! TF.GenerationSoftware,Kicad,Pcbnew,5.1.7-a382d34a8~88~ubuntu18.04.1
; #@! TF.FileFunction,Plated,1,4,PTH
FMAT,2
METRIC
T1C0.600
T2C1.000
T3C1.500
T4C1.520
T5C1.900
%
G90
G05
T1
X218.2Y-136.3
X226.086Y-139.314
X226.09Y-101.27
X226.67Y-132.8
X227.4Y-144.8
X227.4Y-146.3
X227.4Y-147.7
X229.2Y-144.9
X229.2Y-146.3
X229.3Y-147.7
X232.448Y-101.482
X235.45Y-102.77
X238.73Y-141.71
X238.76Y-143.69
X238.76Y-145.34
X240.383Y-132.614
X240.75Y-145.34
X240.76Y-143.65
X240.8Y-141.71
X242.79Y-141.73
X242.79Y-143.61
X242.79Y-145.37
X259.625Y-107.735
X259.939Y-117.091
X259.967Y-118.672
X265.13Y-131.21
X265.278Y-125.616
X265.53Y-109.02
X266.47Y-101.33
X266.69Y-147.75
X267.19Y-146.53
X267.64Y-108.7
X267.73Y-103.6
X269.342Y-131.712
X269.875Y-117.275
X270.227Y-100.862
X270.358Y-130.702
X270.358Y-140.842
X272.3Y-104.84
T2
X215.177Y-118.603
X215.177Y-121.143
X249.53Y-114.44
X249.53Y-116.98
X252.07Y-138.57
X252.07Y-141.11
X249.53Y-104.28
X249.53Y-106.82
X203.1Y-105.8
X203.1Y-116.8
X208.382Y-95.898
X208.382Y-98.438
X210.922Y-95.898
X210.922Y-98.438
X213.462Y-95.898
X213.462Y-98.438
X216.002Y-95.898
X216.002Y-98.438
X218.542Y-95.898
X218.542Y-98.438
X221.082Y-95.898
X221.082Y-98.438
X223.622Y-95.898
X223.622Y-98.438
X226.162Y-95.898
X226.162Y-98.438
X228.702Y-95.898
X228.702Y-98.438
X231.242Y-95.898
X231.242Y-98.438
X233.782Y-95.898
X233.782Y-98.438
X236.322Y-95.898
X236.322Y-98.438
X238.862Y-95.898
X238.862Y-98.438
X241.402Y-95.898
X241.402Y-98.438
X243.942Y-95.898
X243.942Y-98.438
X246.482Y-95.898
X246.482Y-98.438
X249.022Y-95.898
X249.022Y-98.438
X251.562Y-95.898
X251.562Y-98.438
X254.102Y-95.898
X254.102Y-98.438
X256.642Y-95.898
X256.642Y-98.438
X249.53Y-127.14
X249.53Y-129.68
X210.55Y-138.3
X210.55Y-140.84
X252.07Y-114.44
X252.07Y-116.98
X249.53Y-138.57
X249.53Y-141.11
X210.165Y-144.907
X210.165Y-147.447
X212.705Y-144.907
X212.705Y-147.447
X215.245Y-144.907
X215.245Y-147.447
X217.785Y-144.907
X217.785Y-147.447
X252.07Y-127.14
X252.07Y-129.68
X252.07Y-104.28
X252.07Y-106.82
T3
X221.5Y-104.1
X221.5Y-111.72
X221.5Y-116.8
X241.82Y-104.1
X241.82Y-114.26
X241.82Y-124.42
T4
X204.71Y-123.56
X204.71Y-128.64
X204.71Y-133.72
X204.71Y-138.8
T5
X213.1Y-108.8
X213.1Y-113.8
T2
G00X274.93Y-116.71
M15
G01X274.93Y-114.71
M16
G05
G00X278.93Y-111.01
M15
G01X276.93Y-111.01
M16
G05
G00X280.93Y-116.71
M15
G01X280.93Y-114.71
M16
G05
G00X274.93Y-104.01
M15
G01X274.93Y-102.01
M16
G05
G00X278.93Y-98.31
M15
G01X276.93Y-98.31
M16
G05
G00X280.93Y-104.01
M15
G01X280.93Y-102.01
M16
G05
G00X274.93Y-142.11
M15
G01X274.93Y-140.11
M16
G05
G00X278.93Y-136.41
M15
G01X276.93Y-136.41
M16
G05
G00X280.93Y-142.11
M15
G01X280.93Y-140.11
M16
G05
G00X274.93Y-129.41
M15
G01X274.93Y-127.41
M16
G05
G00X278.93Y-123.71
M15
G01X276.93Y-123.71
M16
G05
G00X280.93Y-129.41
M15
G01X280.93Y-127.41
M16
G05
T0
M30
