G04 #@! TF.GenerationSoftware,KiCad,Pcbnew,(5.1.5)-3*
G04 #@! TF.CreationDate,2020-10-29T22:27:40+01:00*
G04 #@! TF.ProjectId,alim_hat,616c696d-5f68-4617-942e-6b696361645f,rev?*
G04 #@! TF.SameCoordinates,Original*
G04 #@! TF.FileFunction,Copper,L3,Inr*
G04 #@! TF.FilePolarity,Positive*
%FSLAX46Y46*%
G04 Gerber Fmt 4.6, Leading zero omitted, Abs format (unit mm)*
G04 Created by KiCad (PCBNEW (5.1.5)-3) date 2020-10-29 22:27:40*
%MOMM*%
%LPD*%
G04 APERTURE LIST*
%ADD10O,1.700000X1.700000*%
%ADD11R,1.700000X1.700000*%
%ADD12C,3.500000*%
%ADD13R,3.500000X3.500000*%
%ADD14C,1.400000*%
%ADD15C,2.250000*%
%ADD16C,0.150000*%
%ADD17C,3.000000*%
%ADD18R,3.000000X3.000000*%
%ADD19C,0.900000*%
%ADD20C,0.200000*%
%ADD21C,5.000000*%
%ADD22C,0.254000*%
G04 APERTURE END LIST*
D10*
X252070000Y-116980000D03*
D11*
X252070000Y-114440000D03*
D10*
X252070000Y-141110000D03*
D11*
X252070000Y-138570000D03*
D10*
X252070000Y-129680000D03*
D11*
X252070000Y-127140000D03*
D10*
X252070000Y-106820000D03*
D11*
X252070000Y-104280000D03*
D12*
X213030200Y-113793580D03*
D13*
X213030200Y-108793580D03*
D14*
X203030200Y-116793580D03*
X203030200Y-105793580D03*
D10*
X215176500Y-121143060D03*
D11*
X215176500Y-118603060D03*
D15*
X241820000Y-104100000D03*
X241820000Y-114260000D03*
X241820000Y-124420000D03*
X221500000Y-116800000D03*
X221500000Y-111720000D03*
X221500000Y-104100000D03*
D10*
X249530000Y-116980000D03*
D11*
X249530000Y-114440000D03*
D10*
X249530000Y-141110000D03*
D11*
X249530000Y-138570000D03*
D10*
X249530000Y-129680000D03*
D11*
X249530000Y-127140000D03*
D10*
X249530000Y-106820000D03*
D11*
X249530000Y-104280000D03*
G04 #@! TA.AperFunction,ViaPad*
D16*
G36*
X278890765Y-134664213D02*
G01*
X278975704Y-134676813D01*
X279058999Y-134697677D01*
X279139848Y-134726605D01*
X279217472Y-134763319D01*
X279291124Y-134807464D01*
X279360094Y-134858616D01*
X279423718Y-134916282D01*
X279481384Y-134979906D01*
X279532536Y-135048876D01*
X279576681Y-135122528D01*
X279613395Y-135200152D01*
X279642323Y-135281001D01*
X279663187Y-135364296D01*
X279675787Y-135449235D01*
X279680000Y-135535000D01*
X279680000Y-137285000D01*
X279675787Y-137370765D01*
X279663187Y-137455704D01*
X279642323Y-137538999D01*
X279613395Y-137619848D01*
X279576681Y-137697472D01*
X279532536Y-137771124D01*
X279481384Y-137840094D01*
X279423718Y-137903718D01*
X279360094Y-137961384D01*
X279291124Y-138012536D01*
X279217472Y-138056681D01*
X279139848Y-138093395D01*
X279058999Y-138122323D01*
X278975704Y-138143187D01*
X278890765Y-138155787D01*
X278805000Y-138160000D01*
X277055000Y-138160000D01*
X276969235Y-138155787D01*
X276884296Y-138143187D01*
X276801001Y-138122323D01*
X276720152Y-138093395D01*
X276642528Y-138056681D01*
X276568876Y-138012536D01*
X276499906Y-137961384D01*
X276436282Y-137903718D01*
X276378616Y-137840094D01*
X276327464Y-137771124D01*
X276283319Y-137697472D01*
X276246605Y-137619848D01*
X276217677Y-137538999D01*
X276196813Y-137455704D01*
X276184213Y-137370765D01*
X276180000Y-137285000D01*
X276180000Y-135535000D01*
X276184213Y-135449235D01*
X276196813Y-135364296D01*
X276217677Y-135281001D01*
X276246605Y-135200152D01*
X276283319Y-135122528D01*
X276327464Y-135048876D01*
X276378616Y-134979906D01*
X276436282Y-134916282D01*
X276499906Y-134858616D01*
X276568876Y-134807464D01*
X276642528Y-134763319D01*
X276720152Y-134726605D01*
X276801001Y-134697677D01*
X276884296Y-134676813D01*
X276969235Y-134664213D01*
X277055000Y-134660000D01*
X278805000Y-134660000D01*
X278890765Y-134664213D01*
G37*
G04 #@! TD.AperFunction*
G04 #@! TA.AperFunction,ViaPad*
G36*
X281753513Y-139363611D02*
G01*
X281826318Y-139374411D01*
X281897714Y-139392295D01*
X281967013Y-139417090D01*
X282033548Y-139448559D01*
X282096678Y-139486398D01*
X282155795Y-139530242D01*
X282210330Y-139579670D01*
X282259758Y-139634205D01*
X282303602Y-139693322D01*
X282341441Y-139756452D01*
X282372910Y-139822987D01*
X282397705Y-139892286D01*
X282415589Y-139963682D01*
X282426389Y-140036487D01*
X282430000Y-140110000D01*
X282430000Y-142110000D01*
X282426389Y-142183513D01*
X282415589Y-142256318D01*
X282397705Y-142327714D01*
X282372910Y-142397013D01*
X282341441Y-142463548D01*
X282303602Y-142526678D01*
X282259758Y-142585795D01*
X282210330Y-142640330D01*
X282155795Y-142689758D01*
X282096678Y-142733602D01*
X282033548Y-142771441D01*
X281967013Y-142802910D01*
X281897714Y-142827705D01*
X281826318Y-142845589D01*
X281753513Y-142856389D01*
X281680000Y-142860000D01*
X280180000Y-142860000D01*
X280106487Y-142856389D01*
X280033682Y-142845589D01*
X279962286Y-142827705D01*
X279892987Y-142802910D01*
X279826452Y-142771441D01*
X279763322Y-142733602D01*
X279704205Y-142689758D01*
X279649670Y-142640330D01*
X279600242Y-142585795D01*
X279556398Y-142526678D01*
X279518559Y-142463548D01*
X279487090Y-142397013D01*
X279462295Y-142327714D01*
X279444411Y-142256318D01*
X279433611Y-142183513D01*
X279430000Y-142110000D01*
X279430000Y-140110000D01*
X279433611Y-140036487D01*
X279444411Y-139963682D01*
X279462295Y-139892286D01*
X279487090Y-139822987D01*
X279518559Y-139756452D01*
X279556398Y-139693322D01*
X279600242Y-139634205D01*
X279649670Y-139579670D01*
X279704205Y-139530242D01*
X279763322Y-139486398D01*
X279826452Y-139448559D01*
X279892987Y-139417090D01*
X279962286Y-139392295D01*
X280033682Y-139374411D01*
X280106487Y-139363611D01*
X280180000Y-139360000D01*
X281680000Y-139360000D01*
X281753513Y-139363611D01*
G37*
G04 #@! TD.AperFunction*
D13*
X274930000Y-141110000D03*
G04 #@! TA.AperFunction,ViaPad*
D16*
G36*
X278890765Y-109264213D02*
G01*
X278975704Y-109276813D01*
X279058999Y-109297677D01*
X279139848Y-109326605D01*
X279217472Y-109363319D01*
X279291124Y-109407464D01*
X279360094Y-109458616D01*
X279423718Y-109516282D01*
X279481384Y-109579906D01*
X279532536Y-109648876D01*
X279576681Y-109722528D01*
X279613395Y-109800152D01*
X279642323Y-109881001D01*
X279663187Y-109964296D01*
X279675787Y-110049235D01*
X279680000Y-110135000D01*
X279680000Y-111885000D01*
X279675787Y-111970765D01*
X279663187Y-112055704D01*
X279642323Y-112138999D01*
X279613395Y-112219848D01*
X279576681Y-112297472D01*
X279532536Y-112371124D01*
X279481384Y-112440094D01*
X279423718Y-112503718D01*
X279360094Y-112561384D01*
X279291124Y-112612536D01*
X279217472Y-112656681D01*
X279139848Y-112693395D01*
X279058999Y-112722323D01*
X278975704Y-112743187D01*
X278890765Y-112755787D01*
X278805000Y-112760000D01*
X277055000Y-112760000D01*
X276969235Y-112755787D01*
X276884296Y-112743187D01*
X276801001Y-112722323D01*
X276720152Y-112693395D01*
X276642528Y-112656681D01*
X276568876Y-112612536D01*
X276499906Y-112561384D01*
X276436282Y-112503718D01*
X276378616Y-112440094D01*
X276327464Y-112371124D01*
X276283319Y-112297472D01*
X276246605Y-112219848D01*
X276217677Y-112138999D01*
X276196813Y-112055704D01*
X276184213Y-111970765D01*
X276180000Y-111885000D01*
X276180000Y-110135000D01*
X276184213Y-110049235D01*
X276196813Y-109964296D01*
X276217677Y-109881001D01*
X276246605Y-109800152D01*
X276283319Y-109722528D01*
X276327464Y-109648876D01*
X276378616Y-109579906D01*
X276436282Y-109516282D01*
X276499906Y-109458616D01*
X276568876Y-109407464D01*
X276642528Y-109363319D01*
X276720152Y-109326605D01*
X276801001Y-109297677D01*
X276884296Y-109276813D01*
X276969235Y-109264213D01*
X277055000Y-109260000D01*
X278805000Y-109260000D01*
X278890765Y-109264213D01*
G37*
G04 #@! TD.AperFunction*
G04 #@! TA.AperFunction,ViaPad*
G36*
X281753513Y-113963611D02*
G01*
X281826318Y-113974411D01*
X281897714Y-113992295D01*
X281967013Y-114017090D01*
X282033548Y-114048559D01*
X282096678Y-114086398D01*
X282155795Y-114130242D01*
X282210330Y-114179670D01*
X282259758Y-114234205D01*
X282303602Y-114293322D01*
X282341441Y-114356452D01*
X282372910Y-114422987D01*
X282397705Y-114492286D01*
X282415589Y-114563682D01*
X282426389Y-114636487D01*
X282430000Y-114710000D01*
X282430000Y-116710000D01*
X282426389Y-116783513D01*
X282415589Y-116856318D01*
X282397705Y-116927714D01*
X282372910Y-116997013D01*
X282341441Y-117063548D01*
X282303602Y-117126678D01*
X282259758Y-117185795D01*
X282210330Y-117240330D01*
X282155795Y-117289758D01*
X282096678Y-117333602D01*
X282033548Y-117371441D01*
X281967013Y-117402910D01*
X281897714Y-117427705D01*
X281826318Y-117445589D01*
X281753513Y-117456389D01*
X281680000Y-117460000D01*
X280180000Y-117460000D01*
X280106487Y-117456389D01*
X280033682Y-117445589D01*
X279962286Y-117427705D01*
X279892987Y-117402910D01*
X279826452Y-117371441D01*
X279763322Y-117333602D01*
X279704205Y-117289758D01*
X279649670Y-117240330D01*
X279600242Y-117185795D01*
X279556398Y-117126678D01*
X279518559Y-117063548D01*
X279487090Y-116997013D01*
X279462295Y-116927714D01*
X279444411Y-116856318D01*
X279433611Y-116783513D01*
X279430000Y-116710000D01*
X279430000Y-114710000D01*
X279433611Y-114636487D01*
X279444411Y-114563682D01*
X279462295Y-114492286D01*
X279487090Y-114422987D01*
X279518559Y-114356452D01*
X279556398Y-114293322D01*
X279600242Y-114234205D01*
X279649670Y-114179670D01*
X279704205Y-114130242D01*
X279763322Y-114086398D01*
X279826452Y-114048559D01*
X279892987Y-114017090D01*
X279962286Y-113992295D01*
X280033682Y-113974411D01*
X280106487Y-113963611D01*
X280180000Y-113960000D01*
X281680000Y-113960000D01*
X281753513Y-113963611D01*
G37*
G04 #@! TD.AperFunction*
D13*
X274930000Y-115710000D03*
G04 #@! TA.AperFunction,ViaPad*
D16*
G36*
X278890765Y-121964213D02*
G01*
X278975704Y-121976813D01*
X279058999Y-121997677D01*
X279139848Y-122026605D01*
X279217472Y-122063319D01*
X279291124Y-122107464D01*
X279360094Y-122158616D01*
X279423718Y-122216282D01*
X279481384Y-122279906D01*
X279532536Y-122348876D01*
X279576681Y-122422528D01*
X279613395Y-122500152D01*
X279642323Y-122581001D01*
X279663187Y-122664296D01*
X279675787Y-122749235D01*
X279680000Y-122835000D01*
X279680000Y-124585000D01*
X279675787Y-124670765D01*
X279663187Y-124755704D01*
X279642323Y-124838999D01*
X279613395Y-124919848D01*
X279576681Y-124997472D01*
X279532536Y-125071124D01*
X279481384Y-125140094D01*
X279423718Y-125203718D01*
X279360094Y-125261384D01*
X279291124Y-125312536D01*
X279217472Y-125356681D01*
X279139848Y-125393395D01*
X279058999Y-125422323D01*
X278975704Y-125443187D01*
X278890765Y-125455787D01*
X278805000Y-125460000D01*
X277055000Y-125460000D01*
X276969235Y-125455787D01*
X276884296Y-125443187D01*
X276801001Y-125422323D01*
X276720152Y-125393395D01*
X276642528Y-125356681D01*
X276568876Y-125312536D01*
X276499906Y-125261384D01*
X276436282Y-125203718D01*
X276378616Y-125140094D01*
X276327464Y-125071124D01*
X276283319Y-124997472D01*
X276246605Y-124919848D01*
X276217677Y-124838999D01*
X276196813Y-124755704D01*
X276184213Y-124670765D01*
X276180000Y-124585000D01*
X276180000Y-122835000D01*
X276184213Y-122749235D01*
X276196813Y-122664296D01*
X276217677Y-122581001D01*
X276246605Y-122500152D01*
X276283319Y-122422528D01*
X276327464Y-122348876D01*
X276378616Y-122279906D01*
X276436282Y-122216282D01*
X276499906Y-122158616D01*
X276568876Y-122107464D01*
X276642528Y-122063319D01*
X276720152Y-122026605D01*
X276801001Y-121997677D01*
X276884296Y-121976813D01*
X276969235Y-121964213D01*
X277055000Y-121960000D01*
X278805000Y-121960000D01*
X278890765Y-121964213D01*
G37*
G04 #@! TD.AperFunction*
G04 #@! TA.AperFunction,ViaPad*
G36*
X281753513Y-126663611D02*
G01*
X281826318Y-126674411D01*
X281897714Y-126692295D01*
X281967013Y-126717090D01*
X282033548Y-126748559D01*
X282096678Y-126786398D01*
X282155795Y-126830242D01*
X282210330Y-126879670D01*
X282259758Y-126934205D01*
X282303602Y-126993322D01*
X282341441Y-127056452D01*
X282372910Y-127122987D01*
X282397705Y-127192286D01*
X282415589Y-127263682D01*
X282426389Y-127336487D01*
X282430000Y-127410000D01*
X282430000Y-129410000D01*
X282426389Y-129483513D01*
X282415589Y-129556318D01*
X282397705Y-129627714D01*
X282372910Y-129697013D01*
X282341441Y-129763548D01*
X282303602Y-129826678D01*
X282259758Y-129885795D01*
X282210330Y-129940330D01*
X282155795Y-129989758D01*
X282096678Y-130033602D01*
X282033548Y-130071441D01*
X281967013Y-130102910D01*
X281897714Y-130127705D01*
X281826318Y-130145589D01*
X281753513Y-130156389D01*
X281680000Y-130160000D01*
X280180000Y-130160000D01*
X280106487Y-130156389D01*
X280033682Y-130145589D01*
X279962286Y-130127705D01*
X279892987Y-130102910D01*
X279826452Y-130071441D01*
X279763322Y-130033602D01*
X279704205Y-129989758D01*
X279649670Y-129940330D01*
X279600242Y-129885795D01*
X279556398Y-129826678D01*
X279518559Y-129763548D01*
X279487090Y-129697013D01*
X279462295Y-129627714D01*
X279444411Y-129556318D01*
X279433611Y-129483513D01*
X279430000Y-129410000D01*
X279430000Y-127410000D01*
X279433611Y-127336487D01*
X279444411Y-127263682D01*
X279462295Y-127192286D01*
X279487090Y-127122987D01*
X279518559Y-127056452D01*
X279556398Y-126993322D01*
X279600242Y-126934205D01*
X279649670Y-126879670D01*
X279704205Y-126830242D01*
X279763322Y-126786398D01*
X279826452Y-126748559D01*
X279892987Y-126717090D01*
X279962286Y-126692295D01*
X280033682Y-126674411D01*
X280106487Y-126663611D01*
X280180000Y-126660000D01*
X281680000Y-126660000D01*
X281753513Y-126663611D01*
G37*
G04 #@! TD.AperFunction*
D13*
X274930000Y-128410000D03*
G04 #@! TA.AperFunction,ViaPad*
D16*
G36*
X278890765Y-96564213D02*
G01*
X278975704Y-96576813D01*
X279058999Y-96597677D01*
X279139848Y-96626605D01*
X279217472Y-96663319D01*
X279291124Y-96707464D01*
X279360094Y-96758616D01*
X279423718Y-96816282D01*
X279481384Y-96879906D01*
X279532536Y-96948876D01*
X279576681Y-97022528D01*
X279613395Y-97100152D01*
X279642323Y-97181001D01*
X279663187Y-97264296D01*
X279675787Y-97349235D01*
X279680000Y-97435000D01*
X279680000Y-99185000D01*
X279675787Y-99270765D01*
X279663187Y-99355704D01*
X279642323Y-99438999D01*
X279613395Y-99519848D01*
X279576681Y-99597472D01*
X279532536Y-99671124D01*
X279481384Y-99740094D01*
X279423718Y-99803718D01*
X279360094Y-99861384D01*
X279291124Y-99912536D01*
X279217472Y-99956681D01*
X279139848Y-99993395D01*
X279058999Y-100022323D01*
X278975704Y-100043187D01*
X278890765Y-100055787D01*
X278805000Y-100060000D01*
X277055000Y-100060000D01*
X276969235Y-100055787D01*
X276884296Y-100043187D01*
X276801001Y-100022323D01*
X276720152Y-99993395D01*
X276642528Y-99956681D01*
X276568876Y-99912536D01*
X276499906Y-99861384D01*
X276436282Y-99803718D01*
X276378616Y-99740094D01*
X276327464Y-99671124D01*
X276283319Y-99597472D01*
X276246605Y-99519848D01*
X276217677Y-99438999D01*
X276196813Y-99355704D01*
X276184213Y-99270765D01*
X276180000Y-99185000D01*
X276180000Y-97435000D01*
X276184213Y-97349235D01*
X276196813Y-97264296D01*
X276217677Y-97181001D01*
X276246605Y-97100152D01*
X276283319Y-97022528D01*
X276327464Y-96948876D01*
X276378616Y-96879906D01*
X276436282Y-96816282D01*
X276499906Y-96758616D01*
X276568876Y-96707464D01*
X276642528Y-96663319D01*
X276720152Y-96626605D01*
X276801001Y-96597677D01*
X276884296Y-96576813D01*
X276969235Y-96564213D01*
X277055000Y-96560000D01*
X278805000Y-96560000D01*
X278890765Y-96564213D01*
G37*
G04 #@! TD.AperFunction*
G04 #@! TA.AperFunction,ViaPad*
G36*
X281753513Y-101263611D02*
G01*
X281826318Y-101274411D01*
X281897714Y-101292295D01*
X281967013Y-101317090D01*
X282033548Y-101348559D01*
X282096678Y-101386398D01*
X282155795Y-101430242D01*
X282210330Y-101479670D01*
X282259758Y-101534205D01*
X282303602Y-101593322D01*
X282341441Y-101656452D01*
X282372910Y-101722987D01*
X282397705Y-101792286D01*
X282415589Y-101863682D01*
X282426389Y-101936487D01*
X282430000Y-102010000D01*
X282430000Y-104010000D01*
X282426389Y-104083513D01*
X282415589Y-104156318D01*
X282397705Y-104227714D01*
X282372910Y-104297013D01*
X282341441Y-104363548D01*
X282303602Y-104426678D01*
X282259758Y-104485795D01*
X282210330Y-104540330D01*
X282155795Y-104589758D01*
X282096678Y-104633602D01*
X282033548Y-104671441D01*
X281967013Y-104702910D01*
X281897714Y-104727705D01*
X281826318Y-104745589D01*
X281753513Y-104756389D01*
X281680000Y-104760000D01*
X280180000Y-104760000D01*
X280106487Y-104756389D01*
X280033682Y-104745589D01*
X279962286Y-104727705D01*
X279892987Y-104702910D01*
X279826452Y-104671441D01*
X279763322Y-104633602D01*
X279704205Y-104589758D01*
X279649670Y-104540330D01*
X279600242Y-104485795D01*
X279556398Y-104426678D01*
X279518559Y-104363548D01*
X279487090Y-104297013D01*
X279462295Y-104227714D01*
X279444411Y-104156318D01*
X279433611Y-104083513D01*
X279430000Y-104010000D01*
X279430000Y-102010000D01*
X279433611Y-101936487D01*
X279444411Y-101863682D01*
X279462295Y-101792286D01*
X279487090Y-101722987D01*
X279518559Y-101656452D01*
X279556398Y-101593322D01*
X279600242Y-101534205D01*
X279649670Y-101479670D01*
X279704205Y-101430242D01*
X279763322Y-101386398D01*
X279826452Y-101348559D01*
X279892987Y-101317090D01*
X279962286Y-101292295D01*
X280033682Y-101274411D01*
X280106487Y-101263611D01*
X280180000Y-101260000D01*
X281680000Y-101260000D01*
X281753513Y-101263611D01*
G37*
G04 #@! TD.AperFunction*
D13*
X274930000Y-103010000D03*
D11*
X208382000Y-98438000D03*
D10*
X208382000Y-95898000D03*
X210922000Y-98438000D03*
X210922000Y-95898000D03*
X213462000Y-98438000D03*
X213462000Y-95898000D03*
X216002000Y-98438000D03*
X216002000Y-95898000D03*
X218542000Y-98438000D03*
X218542000Y-95898000D03*
X221082000Y-98438000D03*
X221082000Y-95898000D03*
X223622000Y-98438000D03*
X223622000Y-95898000D03*
X226162000Y-98438000D03*
X226162000Y-95898000D03*
X228702000Y-98438000D03*
X228702000Y-95898000D03*
X231242000Y-98438000D03*
X231242000Y-95898000D03*
X233782000Y-98438000D03*
X233782000Y-95898000D03*
X236322000Y-98438000D03*
X236322000Y-95898000D03*
X238862000Y-98438000D03*
X238862000Y-95898000D03*
X241402000Y-98438000D03*
X241402000Y-95898000D03*
X243942000Y-98438000D03*
X243942000Y-95898000D03*
X246482000Y-98438000D03*
X246482000Y-95898000D03*
X249022000Y-98438000D03*
X249022000Y-95898000D03*
X251562000Y-98438000D03*
X251562000Y-95898000D03*
X254102000Y-98438000D03*
X254102000Y-95898000D03*
X256642000Y-98438000D03*
X256642000Y-95898000D03*
D17*
X204710000Y-138800000D03*
D18*
X204710000Y-123560000D03*
D17*
X204710000Y-133720000D03*
X204710000Y-128640000D03*
D10*
X217785080Y-147447300D03*
X217785080Y-144907300D03*
X215245080Y-147447300D03*
X215245080Y-144907300D03*
X212705080Y-147447300D03*
X212705080Y-144907300D03*
X210165080Y-147447300D03*
D11*
X210165080Y-144907300D03*
D19*
X229972000Y-100470000D03*
X229972000Y-103010000D03*
X219050000Y-123330000D03*
X221390000Y-123330000D03*
X229300000Y-147700000D03*
X227400000Y-147700000D03*
X229200000Y-144900000D03*
X227400000Y-144800000D03*
X227400000Y-146300000D03*
X240383460Y-132613700D03*
X226670000Y-132800000D03*
X229200000Y-146300000D03*
X270358000Y-106346608D03*
X270358000Y-117313000D03*
X270358000Y-130702000D03*
X270358000Y-140842000D03*
X226085700Y-139314300D03*
X218200000Y-136300000D03*
X266232000Y-144412000D03*
X265130000Y-131210000D03*
X265278000Y-125616000D03*
X265260000Y-118870000D03*
X264785000Y-108675000D03*
X256409000Y-101761000D03*
X264900000Y-101690000D03*
X265610000Y-100970000D03*
X269342000Y-131712000D03*
X266548000Y-143396000D03*
X266140000Y-118080000D03*
X265532000Y-107328000D03*
X261900000Y-111045000D03*
X263420000Y-110870000D03*
X262150000Y-122900000D03*
X263900000Y-122900000D03*
X263980000Y-134630000D03*
X261860000Y-134660000D03*
X240750000Y-145340000D03*
X240760000Y-143650000D03*
X240800000Y-141710000D03*
X242790000Y-143610000D03*
X238760000Y-143690000D03*
X238760000Y-145340000D03*
X242790000Y-145370000D03*
X242790000Y-141730000D03*
X238730000Y-141710000D03*
D20*
X264148604Y-108675000D02*
X264785000Y-108675000D01*
X263323000Y-108675000D02*
X264148604Y-108675000D01*
X256409000Y-101761000D02*
X263323000Y-108675000D01*
X264785000Y-118395000D02*
X265260000Y-118870000D01*
X264785000Y-108675000D02*
X264785000Y-118395000D01*
X265260000Y-125598000D02*
X265278000Y-125616000D01*
X265260000Y-118870000D02*
X265260000Y-125598000D01*
X265278000Y-131062000D02*
X265130000Y-131210000D01*
X265278000Y-125616000D02*
X265278000Y-131062000D01*
X265130000Y-143310000D02*
X266232000Y-144412000D01*
X265130000Y-131210000D02*
X265130000Y-143310000D01*
X266140000Y-117443604D02*
X266140000Y-118080000D01*
X266140000Y-108572396D02*
X266140000Y-117443604D01*
X265532000Y-107964396D02*
X266140000Y-108572396D01*
X265532000Y-107328000D02*
X265532000Y-107964396D01*
X266140000Y-128510000D02*
X269342000Y-131712000D01*
X266140000Y-118080000D02*
X266140000Y-128510000D01*
X269342000Y-140602000D02*
X269342000Y-131712000D01*
X266548000Y-143396000D02*
X269342000Y-140602000D01*
D21*
X204710000Y-128640000D02*
X204710000Y-133720000D01*
X213030200Y-113793580D02*
X215505073Y-113793580D01*
X215531493Y-113820000D02*
X215505073Y-113793580D01*
X213030200Y-113793580D02*
X210555327Y-113793580D01*
X210541747Y-113780000D02*
X210555327Y-113793580D01*
D22*
G36*
X207948842Y-94470068D02*
G01*
X207678589Y-94582010D01*
X207435368Y-94744525D01*
X207228525Y-94951368D01*
X207066010Y-95194589D01*
X206954068Y-95464842D01*
X206897000Y-95751740D01*
X206897000Y-96044260D01*
X206954068Y-96331158D01*
X207066010Y-96601411D01*
X207228525Y-96844632D01*
X207360380Y-96976487D01*
X207287820Y-96998498D01*
X207177506Y-97057463D01*
X207080815Y-97136815D01*
X207001463Y-97233506D01*
X206942498Y-97343820D01*
X206906188Y-97463518D01*
X206893928Y-97588000D01*
X206893928Y-99288000D01*
X206906188Y-99412482D01*
X206942498Y-99532180D01*
X207001463Y-99642494D01*
X207080815Y-99739185D01*
X207177506Y-99818537D01*
X207287820Y-99877502D01*
X207407518Y-99913812D01*
X207532000Y-99926072D01*
X209232000Y-99926072D01*
X209356482Y-99913812D01*
X209476180Y-99877502D01*
X209586494Y-99818537D01*
X209683185Y-99739185D01*
X209762537Y-99642494D01*
X209821502Y-99532180D01*
X209843513Y-99459620D01*
X209975368Y-99591475D01*
X210218589Y-99753990D01*
X210488842Y-99865932D01*
X210775740Y-99923000D01*
X211068260Y-99923000D01*
X211355158Y-99865932D01*
X211625411Y-99753990D01*
X211868632Y-99591475D01*
X212075475Y-99384632D01*
X212192000Y-99210240D01*
X212308525Y-99384632D01*
X212515368Y-99591475D01*
X212758589Y-99753990D01*
X213028842Y-99865932D01*
X213315740Y-99923000D01*
X213608260Y-99923000D01*
X213895158Y-99865932D01*
X214165411Y-99753990D01*
X214408632Y-99591475D01*
X214615475Y-99384632D01*
X214732000Y-99210240D01*
X214848525Y-99384632D01*
X215055368Y-99591475D01*
X215298589Y-99753990D01*
X215568842Y-99865932D01*
X215855740Y-99923000D01*
X216148260Y-99923000D01*
X216435158Y-99865932D01*
X216705411Y-99753990D01*
X216948632Y-99591475D01*
X217155475Y-99384632D01*
X217272000Y-99210240D01*
X217388525Y-99384632D01*
X217595368Y-99591475D01*
X217838589Y-99753990D01*
X218108842Y-99865932D01*
X218395740Y-99923000D01*
X218688260Y-99923000D01*
X218975158Y-99865932D01*
X219245411Y-99753990D01*
X219488632Y-99591475D01*
X219695475Y-99384632D01*
X219812000Y-99210240D01*
X219928525Y-99384632D01*
X220135368Y-99591475D01*
X220378589Y-99753990D01*
X220648842Y-99865932D01*
X220935740Y-99923000D01*
X221228260Y-99923000D01*
X221515158Y-99865932D01*
X221785411Y-99753990D01*
X222028632Y-99591475D01*
X222235475Y-99384632D01*
X222352000Y-99210240D01*
X222468525Y-99384632D01*
X222675368Y-99591475D01*
X222918589Y-99753990D01*
X223188842Y-99865932D01*
X223475740Y-99923000D01*
X223768260Y-99923000D01*
X224055158Y-99865932D01*
X224325411Y-99753990D01*
X224568632Y-99591475D01*
X224775475Y-99384632D01*
X224892000Y-99210240D01*
X225008525Y-99384632D01*
X225215368Y-99591475D01*
X225458589Y-99753990D01*
X225728842Y-99865932D01*
X226015740Y-99923000D01*
X226308260Y-99923000D01*
X226595158Y-99865932D01*
X226865411Y-99753990D01*
X227108632Y-99591475D01*
X227315475Y-99384632D01*
X227432000Y-99210240D01*
X227548525Y-99384632D01*
X227755368Y-99591475D01*
X227998589Y-99753990D01*
X228268842Y-99865932D01*
X228555740Y-99923000D01*
X228848260Y-99923000D01*
X229060827Y-99880717D01*
X229010485Y-99956060D01*
X228928696Y-100153517D01*
X228887000Y-100363137D01*
X228887000Y-100576863D01*
X228928696Y-100786483D01*
X229010485Y-100983940D01*
X229129225Y-101161647D01*
X229280353Y-101312775D01*
X229458060Y-101431515D01*
X229655517Y-101513304D01*
X229865137Y-101555000D01*
X230078863Y-101555000D01*
X230288483Y-101513304D01*
X230485940Y-101431515D01*
X230663647Y-101312775D01*
X230814775Y-101161647D01*
X230933515Y-100983940D01*
X231015304Y-100786483D01*
X231057000Y-100576863D01*
X231057000Y-100363137D01*
X231015304Y-100153517D01*
X230933515Y-99956060D01*
X230883173Y-99880717D01*
X231095740Y-99923000D01*
X231388260Y-99923000D01*
X231675158Y-99865932D01*
X231945411Y-99753990D01*
X232188632Y-99591475D01*
X232395475Y-99384632D01*
X232512000Y-99210240D01*
X232628525Y-99384632D01*
X232835368Y-99591475D01*
X233078589Y-99753990D01*
X233348842Y-99865932D01*
X233635740Y-99923000D01*
X233928260Y-99923000D01*
X234215158Y-99865932D01*
X234485411Y-99753990D01*
X234728632Y-99591475D01*
X234935475Y-99384632D01*
X235052000Y-99210240D01*
X235168525Y-99384632D01*
X235375368Y-99591475D01*
X235618589Y-99753990D01*
X235888842Y-99865932D01*
X236175740Y-99923000D01*
X236468260Y-99923000D01*
X236755158Y-99865932D01*
X237025411Y-99753990D01*
X237268632Y-99591475D01*
X237475475Y-99384632D01*
X237592000Y-99210240D01*
X237708525Y-99384632D01*
X237915368Y-99591475D01*
X238158589Y-99753990D01*
X238428842Y-99865932D01*
X238715740Y-99923000D01*
X239008260Y-99923000D01*
X239295158Y-99865932D01*
X239565411Y-99753990D01*
X239808632Y-99591475D01*
X240015475Y-99384632D01*
X240132000Y-99210240D01*
X240248525Y-99384632D01*
X240455368Y-99591475D01*
X240698589Y-99753990D01*
X240968842Y-99865932D01*
X241255740Y-99923000D01*
X241548260Y-99923000D01*
X241835158Y-99865932D01*
X242105411Y-99753990D01*
X242348632Y-99591475D01*
X242555475Y-99384632D01*
X242672000Y-99210240D01*
X242788525Y-99384632D01*
X242995368Y-99591475D01*
X243238589Y-99753990D01*
X243508842Y-99865932D01*
X243795740Y-99923000D01*
X244088260Y-99923000D01*
X244375158Y-99865932D01*
X244645411Y-99753990D01*
X244888632Y-99591475D01*
X245095475Y-99384632D01*
X245212000Y-99210240D01*
X245328525Y-99384632D01*
X245535368Y-99591475D01*
X245778589Y-99753990D01*
X246048842Y-99865932D01*
X246335740Y-99923000D01*
X246628260Y-99923000D01*
X246915158Y-99865932D01*
X247185411Y-99753990D01*
X247428632Y-99591475D01*
X247635475Y-99384632D01*
X247752000Y-99210240D01*
X247868525Y-99384632D01*
X248075368Y-99591475D01*
X248318589Y-99753990D01*
X248588842Y-99865932D01*
X248875740Y-99923000D01*
X249168260Y-99923000D01*
X249455158Y-99865932D01*
X249725411Y-99753990D01*
X249968632Y-99591475D01*
X250175475Y-99384632D01*
X250292000Y-99210240D01*
X250408525Y-99384632D01*
X250615368Y-99591475D01*
X250858589Y-99753990D01*
X251128842Y-99865932D01*
X251415740Y-99923000D01*
X251708260Y-99923000D01*
X251995158Y-99865932D01*
X252265411Y-99753990D01*
X252508632Y-99591475D01*
X252715475Y-99384632D01*
X252832000Y-99210240D01*
X252948525Y-99384632D01*
X253155368Y-99591475D01*
X253398589Y-99753990D01*
X253668842Y-99865932D01*
X253955740Y-99923000D01*
X254248260Y-99923000D01*
X254535158Y-99865932D01*
X254805411Y-99753990D01*
X255048632Y-99591475D01*
X255255475Y-99384632D01*
X255372000Y-99210240D01*
X255488525Y-99384632D01*
X255695368Y-99591475D01*
X255938589Y-99753990D01*
X256208842Y-99865932D01*
X256495740Y-99923000D01*
X256788260Y-99923000D01*
X257075158Y-99865932D01*
X257345411Y-99753990D01*
X257588632Y-99591475D01*
X257795475Y-99384632D01*
X257957990Y-99141411D01*
X258069932Y-98871158D01*
X258127000Y-98584260D01*
X258127000Y-98291740D01*
X258069932Y-98004842D01*
X257957990Y-97734589D01*
X257795475Y-97491368D01*
X257588632Y-97284525D01*
X257414240Y-97168000D01*
X257588632Y-97051475D01*
X257795475Y-96844632D01*
X257957990Y-96601411D01*
X258069932Y-96331158D01*
X258127000Y-96044260D01*
X258127000Y-95751740D01*
X258069932Y-95464842D01*
X257957990Y-95194589D01*
X257795475Y-94951368D01*
X257588632Y-94744525D01*
X257345411Y-94582010D01*
X257075158Y-94470068D01*
X256856129Y-94426500D01*
X259852389Y-94426500D01*
X259452907Y-94693425D01*
X259003425Y-95142907D01*
X258650270Y-95671442D01*
X258407012Y-96258719D01*
X258283000Y-96882168D01*
X258283000Y-97517832D01*
X258407012Y-98141281D01*
X258650270Y-98728558D01*
X259003425Y-99257093D01*
X259452907Y-99706575D01*
X259981442Y-100059730D01*
X260568719Y-100302988D01*
X261192168Y-100427000D01*
X261827832Y-100427000D01*
X262451281Y-100302988D01*
X263038558Y-100059730D01*
X263567093Y-99706575D01*
X264016575Y-99257093D01*
X264369730Y-98728558D01*
X264612988Y-98141281D01*
X264737000Y-97517832D01*
X264737000Y-96882168D01*
X264612988Y-96258719D01*
X264369730Y-95671442D01*
X264016575Y-95142907D01*
X263567093Y-94693425D01*
X263167611Y-94426500D01*
X281974155Y-94426500D01*
X282449355Y-94473093D01*
X282871881Y-94600661D01*
X283261581Y-94807868D01*
X283603611Y-95086820D01*
X283884948Y-95426898D01*
X284094870Y-95815139D01*
X284225385Y-96236768D01*
X284275101Y-96709772D01*
X284275100Y-146655546D01*
X284228506Y-147130756D01*
X284100937Y-147553282D01*
X283893731Y-147942980D01*
X283614776Y-148285014D01*
X283274704Y-148566347D01*
X282886456Y-148776272D01*
X282464836Y-148906784D01*
X281991837Y-148956500D01*
X262479700Y-148956500D01*
X262896455Y-148783874D01*
X263375854Y-148463550D01*
X263783550Y-148055854D01*
X264103874Y-147576455D01*
X264324518Y-147043775D01*
X264437000Y-146478284D01*
X264437000Y-145901716D01*
X264324518Y-145336225D01*
X264103874Y-144803545D01*
X263783550Y-144324146D01*
X263375854Y-143916450D01*
X262896455Y-143596126D01*
X262363775Y-143375482D01*
X261798284Y-143263000D01*
X261221716Y-143263000D01*
X260656225Y-143375482D01*
X260123545Y-143596126D01*
X259644146Y-143916450D01*
X259236450Y-144324146D01*
X258916126Y-144803545D01*
X258695482Y-145336225D01*
X258583000Y-145901716D01*
X258583000Y-146478284D01*
X258695482Y-147043775D01*
X258916126Y-147576455D01*
X259236450Y-148055854D01*
X259644146Y-148463550D01*
X260123545Y-148783874D01*
X260540300Y-148956500D01*
X205193053Y-148956500D01*
X205567093Y-148706575D01*
X206016575Y-148257093D01*
X206369730Y-147728558D01*
X206612988Y-147141281D01*
X206737000Y-146517832D01*
X206737000Y-145882168D01*
X206612988Y-145258719D01*
X206369730Y-144671442D01*
X206016575Y-144142907D01*
X205930968Y-144057300D01*
X208677008Y-144057300D01*
X208677008Y-145757300D01*
X208689268Y-145881782D01*
X208725578Y-146001480D01*
X208784543Y-146111794D01*
X208863895Y-146208485D01*
X208960586Y-146287837D01*
X209070900Y-146346802D01*
X209143460Y-146368813D01*
X209011605Y-146500668D01*
X208849090Y-146743889D01*
X208737148Y-147014142D01*
X208680080Y-147301040D01*
X208680080Y-147593560D01*
X208737148Y-147880458D01*
X208849090Y-148150711D01*
X209011605Y-148393932D01*
X209218448Y-148600775D01*
X209461669Y-148763290D01*
X209731922Y-148875232D01*
X210018820Y-148932300D01*
X210311340Y-148932300D01*
X210598238Y-148875232D01*
X210868491Y-148763290D01*
X211111712Y-148600775D01*
X211318555Y-148393932D01*
X211435080Y-148219540D01*
X211551605Y-148393932D01*
X211758448Y-148600775D01*
X212001669Y-148763290D01*
X212271922Y-148875232D01*
X212558820Y-148932300D01*
X212851340Y-148932300D01*
X213138238Y-148875232D01*
X213408491Y-148763290D01*
X213651712Y-148600775D01*
X213858555Y-148393932D01*
X213975080Y-148219540D01*
X214091605Y-148393932D01*
X214298448Y-148600775D01*
X214541669Y-148763290D01*
X214811922Y-148875232D01*
X215098820Y-148932300D01*
X215391340Y-148932300D01*
X215678238Y-148875232D01*
X215948491Y-148763290D01*
X216191712Y-148600775D01*
X216398555Y-148393932D01*
X216515080Y-148219540D01*
X216631605Y-148393932D01*
X216838448Y-148600775D01*
X217081669Y-148763290D01*
X217351922Y-148875232D01*
X217638820Y-148932300D01*
X217931340Y-148932300D01*
X218218238Y-148875232D01*
X218488491Y-148763290D01*
X218731712Y-148600775D01*
X218938555Y-148393932D01*
X219101070Y-148150711D01*
X219213012Y-147880458D01*
X219270080Y-147593560D01*
X219270080Y-147301040D01*
X219213012Y-147014142D01*
X219101070Y-146743889D01*
X218938555Y-146500668D01*
X218731712Y-146293825D01*
X218557320Y-146177300D01*
X218731712Y-146060775D01*
X218938555Y-145853932D01*
X219101070Y-145610711D01*
X219213012Y-145340458D01*
X219270080Y-145053560D01*
X219270080Y-144761040D01*
X219256574Y-144693137D01*
X226315000Y-144693137D01*
X226315000Y-144906863D01*
X226356696Y-145116483D01*
X226438485Y-145313940D01*
X226557225Y-145491647D01*
X226615578Y-145550000D01*
X226557225Y-145608353D01*
X226438485Y-145786060D01*
X226356696Y-145983517D01*
X226315000Y-146193137D01*
X226315000Y-146406863D01*
X226356696Y-146616483D01*
X226438485Y-146813940D01*
X226557225Y-146991647D01*
X226565578Y-147000000D01*
X226557225Y-147008353D01*
X226438485Y-147186060D01*
X226356696Y-147383517D01*
X226315000Y-147593137D01*
X226315000Y-147806863D01*
X226356696Y-148016483D01*
X226438485Y-148213940D01*
X226557225Y-148391647D01*
X226708353Y-148542775D01*
X226886060Y-148661515D01*
X227083517Y-148743304D01*
X227293137Y-148785000D01*
X227506863Y-148785000D01*
X227716483Y-148743304D01*
X227913940Y-148661515D01*
X228091647Y-148542775D01*
X228242775Y-148391647D01*
X228350000Y-148231173D01*
X228457225Y-148391647D01*
X228608353Y-148542775D01*
X228786060Y-148661515D01*
X228983517Y-148743304D01*
X229193137Y-148785000D01*
X229406863Y-148785000D01*
X229616483Y-148743304D01*
X229813940Y-148661515D01*
X229991647Y-148542775D01*
X230142775Y-148391647D01*
X230261515Y-148213940D01*
X230343304Y-148016483D01*
X230385000Y-147806863D01*
X230385000Y-147593137D01*
X230343304Y-147383517D01*
X230261515Y-147186060D01*
X230142775Y-147008353D01*
X230076138Y-146941716D01*
X230161515Y-146813940D01*
X230243304Y-146616483D01*
X230285000Y-146406863D01*
X230285000Y-146193137D01*
X230243304Y-145983517D01*
X230161515Y-145786060D01*
X230042775Y-145608353D01*
X230034422Y-145600000D01*
X230042775Y-145591647D01*
X230161515Y-145413940D01*
X230243304Y-145216483D01*
X230285000Y-145006863D01*
X230285000Y-144793137D01*
X230243304Y-144583517D01*
X230161515Y-144386060D01*
X230042775Y-144208353D01*
X229891647Y-144057225D01*
X229713940Y-143938485D01*
X229516483Y-143856696D01*
X229306863Y-143815000D01*
X229093137Y-143815000D01*
X228883517Y-143856696D01*
X228686060Y-143938485D01*
X228508353Y-144057225D01*
X228357225Y-144208353D01*
X228333409Y-144243996D01*
X228242775Y-144108353D01*
X228091647Y-143957225D01*
X227913940Y-143838485D01*
X227716483Y-143756696D01*
X227506863Y-143715000D01*
X227293137Y-143715000D01*
X227083517Y-143756696D01*
X226886060Y-143838485D01*
X226708353Y-143957225D01*
X226557225Y-144108353D01*
X226438485Y-144286060D01*
X226356696Y-144483517D01*
X226315000Y-144693137D01*
X219256574Y-144693137D01*
X219213012Y-144474142D01*
X219101070Y-144203889D01*
X218938555Y-143960668D01*
X218731712Y-143753825D01*
X218488491Y-143591310D01*
X218218238Y-143479368D01*
X217931340Y-143422300D01*
X217638820Y-143422300D01*
X217351922Y-143479368D01*
X217081669Y-143591310D01*
X216838448Y-143753825D01*
X216631605Y-143960668D01*
X216515080Y-144135060D01*
X216398555Y-143960668D01*
X216191712Y-143753825D01*
X215948491Y-143591310D01*
X215678238Y-143479368D01*
X215391340Y-143422300D01*
X215098820Y-143422300D01*
X214811922Y-143479368D01*
X214541669Y-143591310D01*
X214298448Y-143753825D01*
X214091605Y-143960668D01*
X213975080Y-144135060D01*
X213858555Y-143960668D01*
X213651712Y-143753825D01*
X213408491Y-143591310D01*
X213138238Y-143479368D01*
X212851340Y-143422300D01*
X212558820Y-143422300D01*
X212271922Y-143479368D01*
X212001669Y-143591310D01*
X211758448Y-143753825D01*
X211626593Y-143885680D01*
X211604582Y-143813120D01*
X211545617Y-143702806D01*
X211466265Y-143606115D01*
X211369574Y-143526763D01*
X211259260Y-143467798D01*
X211139562Y-143431488D01*
X211015080Y-143419228D01*
X209315080Y-143419228D01*
X209190598Y-143431488D01*
X209070900Y-143467798D01*
X208960586Y-143526763D01*
X208863895Y-143606115D01*
X208784543Y-143702806D01*
X208725578Y-143813120D01*
X208689268Y-143932818D01*
X208677008Y-144057300D01*
X205930968Y-144057300D01*
X205567093Y-143693425D01*
X205038558Y-143340270D01*
X204451281Y-143097012D01*
X203827832Y-142973000D01*
X203192168Y-142973000D01*
X202568719Y-143097012D01*
X201981442Y-143340270D01*
X201452907Y-143693425D01*
X201003425Y-144142907D01*
X200745100Y-144529519D01*
X200745100Y-138589721D01*
X202575000Y-138589721D01*
X202575000Y-139010279D01*
X202657047Y-139422756D01*
X202817988Y-139811302D01*
X203051637Y-140160983D01*
X203349017Y-140458363D01*
X203698698Y-140692012D01*
X204087244Y-140852953D01*
X204499721Y-140935000D01*
X204920279Y-140935000D01*
X205332756Y-140852953D01*
X205721302Y-140692012D01*
X206070983Y-140458363D01*
X206368363Y-140160983D01*
X206602012Y-139811302D01*
X206762953Y-139422756D01*
X206805782Y-139207437D01*
X225000700Y-139207437D01*
X225000700Y-139421163D01*
X225042396Y-139630783D01*
X225124185Y-139828240D01*
X225242925Y-140005947D01*
X225394053Y-140157075D01*
X225571760Y-140275815D01*
X225769217Y-140357604D01*
X225978837Y-140399300D01*
X226192563Y-140399300D01*
X226402183Y-140357604D01*
X226599640Y-140275815D01*
X226777347Y-140157075D01*
X226928475Y-140005947D01*
X227047215Y-139828240D01*
X227129004Y-139630783D01*
X227170700Y-139421163D01*
X227170700Y-139207437D01*
X227129004Y-138997817D01*
X227047215Y-138800360D01*
X226928475Y-138622653D01*
X226777347Y-138471525D01*
X226599640Y-138352785D01*
X226402183Y-138270996D01*
X226192563Y-138229300D01*
X225978837Y-138229300D01*
X225769217Y-138270996D01*
X225571760Y-138352785D01*
X225394053Y-138471525D01*
X225242925Y-138622653D01*
X225124185Y-138800360D01*
X225042396Y-138997817D01*
X225000700Y-139207437D01*
X206805782Y-139207437D01*
X206845000Y-139010279D01*
X206845000Y-138589721D01*
X206762953Y-138177244D01*
X206602012Y-137788698D01*
X206556110Y-137720000D01*
X248041928Y-137720000D01*
X248041928Y-139420000D01*
X248054188Y-139544482D01*
X248090498Y-139664180D01*
X248149463Y-139774494D01*
X248228815Y-139871185D01*
X248325506Y-139950537D01*
X248435820Y-140009502D01*
X248508380Y-140031513D01*
X248376525Y-140163368D01*
X248214010Y-140406589D01*
X248102068Y-140676842D01*
X248045000Y-140963740D01*
X248045000Y-141256260D01*
X248102068Y-141543158D01*
X248214010Y-141813411D01*
X248376525Y-142056632D01*
X248583368Y-142263475D01*
X248826589Y-142425990D01*
X249096842Y-142537932D01*
X249383740Y-142595000D01*
X249676260Y-142595000D01*
X249963158Y-142537932D01*
X250233411Y-142425990D01*
X250476632Y-142263475D01*
X250683475Y-142056632D01*
X250800000Y-141882240D01*
X250916525Y-142056632D01*
X251123368Y-142263475D01*
X251366589Y-142425990D01*
X251636842Y-142537932D01*
X251923740Y-142595000D01*
X252216260Y-142595000D01*
X252503158Y-142537932D01*
X252773411Y-142425990D01*
X253016632Y-142263475D01*
X253223475Y-142056632D01*
X253385990Y-141813411D01*
X253497932Y-141543158D01*
X253555000Y-141256260D01*
X253555000Y-140963740D01*
X253497932Y-140676842D01*
X253385990Y-140406589D01*
X253223475Y-140163368D01*
X253091620Y-140031513D01*
X253164180Y-140009502D01*
X253274494Y-139950537D01*
X253371185Y-139871185D01*
X253450537Y-139774494D01*
X253509502Y-139664180D01*
X253545812Y-139544482D01*
X253558072Y-139420000D01*
X253558072Y-137720000D01*
X253545812Y-137595518D01*
X253509502Y-137475820D01*
X253450537Y-137365506D01*
X253371185Y-137268815D01*
X253274494Y-137189463D01*
X253164180Y-137130498D01*
X253044482Y-137094188D01*
X252920000Y-137081928D01*
X251220000Y-137081928D01*
X251095518Y-137094188D01*
X250975820Y-137130498D01*
X250865506Y-137189463D01*
X250800000Y-137243222D01*
X250734494Y-137189463D01*
X250624180Y-137130498D01*
X250504482Y-137094188D01*
X250380000Y-137081928D01*
X248680000Y-137081928D01*
X248555518Y-137094188D01*
X248435820Y-137130498D01*
X248325506Y-137189463D01*
X248228815Y-137268815D01*
X248149463Y-137365506D01*
X248090498Y-137475820D01*
X248054188Y-137595518D01*
X248041928Y-137720000D01*
X206556110Y-137720000D01*
X206368363Y-137439017D01*
X206070983Y-137141637D01*
X205721302Y-136907988D01*
X205332756Y-136747047D01*
X204920279Y-136665000D01*
X204499721Y-136665000D01*
X204087244Y-136747047D01*
X203698698Y-136907988D01*
X203349017Y-137141637D01*
X203051637Y-137439017D01*
X202817988Y-137788698D01*
X202657047Y-138177244D01*
X202575000Y-138589721D01*
X200745100Y-138589721D01*
X200745100Y-136193137D01*
X217115000Y-136193137D01*
X217115000Y-136406863D01*
X217156696Y-136616483D01*
X217238485Y-136813940D01*
X217357225Y-136991647D01*
X217508353Y-137142775D01*
X217686060Y-137261515D01*
X217883517Y-137343304D01*
X218093137Y-137385000D01*
X218306863Y-137385000D01*
X218516483Y-137343304D01*
X218713940Y-137261515D01*
X218891647Y-137142775D01*
X219042775Y-136991647D01*
X219161515Y-136813940D01*
X219243304Y-136616483D01*
X219285000Y-136406863D01*
X219285000Y-136193137D01*
X219243304Y-135983517D01*
X219161515Y-135786060D01*
X219042775Y-135608353D01*
X218891647Y-135457225D01*
X218713940Y-135338485D01*
X218516483Y-135256696D01*
X218306863Y-135215000D01*
X218093137Y-135215000D01*
X217883517Y-135256696D01*
X217686060Y-135338485D01*
X217508353Y-135457225D01*
X217357225Y-135608353D01*
X217238485Y-135786060D01*
X217156696Y-135983517D01*
X217115000Y-136193137D01*
X200745100Y-136193137D01*
X200745100Y-135211653D01*
X203397952Y-135211653D01*
X203553962Y-135527214D01*
X203928745Y-135718020D01*
X204333551Y-135832044D01*
X204752824Y-135864902D01*
X205170451Y-135815334D01*
X205570383Y-135685243D01*
X205866038Y-135527214D01*
X206022048Y-135211653D01*
X204710000Y-133899605D01*
X203397952Y-135211653D01*
X200745100Y-135211653D01*
X200745100Y-133762824D01*
X202565098Y-133762824D01*
X202614666Y-134180451D01*
X202744757Y-134580383D01*
X202902786Y-134876038D01*
X203218347Y-135032048D01*
X204530395Y-133720000D01*
X204889605Y-133720000D01*
X206201653Y-135032048D01*
X206517214Y-134876038D01*
X206708020Y-134501255D01*
X206822044Y-134096449D01*
X206854902Y-133677176D01*
X206805334Y-133259549D01*
X206675243Y-132859617D01*
X206586259Y-132693137D01*
X225585000Y-132693137D01*
X225585000Y-132906863D01*
X225626696Y-133116483D01*
X225708485Y-133313940D01*
X225827225Y-133491647D01*
X225978353Y-133642775D01*
X226156060Y-133761515D01*
X226353517Y-133843304D01*
X226563137Y-133885000D01*
X226776863Y-133885000D01*
X226986483Y-133843304D01*
X227183940Y-133761515D01*
X227361647Y-133642775D01*
X227512775Y-133491647D01*
X227631515Y-133313940D01*
X227713304Y-133116483D01*
X227755000Y-132906863D01*
X227755000Y-132693137D01*
X227717943Y-132506837D01*
X239298460Y-132506837D01*
X239298460Y-132720563D01*
X239340156Y-132930183D01*
X239421945Y-133127640D01*
X239540685Y-133305347D01*
X239691813Y-133456475D01*
X239869520Y-133575215D01*
X240066977Y-133657004D01*
X240276597Y-133698700D01*
X240490323Y-133698700D01*
X240699943Y-133657004D01*
X240897400Y-133575215D01*
X241075107Y-133456475D01*
X241226235Y-133305347D01*
X241344975Y-133127640D01*
X241426764Y-132930183D01*
X241468460Y-132720563D01*
X241468460Y-132506837D01*
X241426764Y-132297217D01*
X241344975Y-132099760D01*
X241226235Y-131922053D01*
X241075107Y-131770925D01*
X240897400Y-131652185D01*
X240699943Y-131570396D01*
X240490323Y-131528700D01*
X240276597Y-131528700D01*
X240066977Y-131570396D01*
X239869520Y-131652185D01*
X239691813Y-131770925D01*
X239540685Y-131922053D01*
X239421945Y-132099760D01*
X239340156Y-132297217D01*
X239298460Y-132506837D01*
X227717943Y-132506837D01*
X227713304Y-132483517D01*
X227631515Y-132286060D01*
X227512775Y-132108353D01*
X227361647Y-131957225D01*
X227183940Y-131838485D01*
X226986483Y-131756696D01*
X226776863Y-131715000D01*
X226563137Y-131715000D01*
X226353517Y-131756696D01*
X226156060Y-131838485D01*
X225978353Y-131957225D01*
X225827225Y-132108353D01*
X225708485Y-132286060D01*
X225626696Y-132483517D01*
X225585000Y-132693137D01*
X206586259Y-132693137D01*
X206517214Y-132563962D01*
X206201653Y-132407952D01*
X204889605Y-133720000D01*
X204530395Y-133720000D01*
X203218347Y-132407952D01*
X202902786Y-132563962D01*
X202711980Y-132938745D01*
X202597956Y-133343551D01*
X202565098Y-133762824D01*
X200745100Y-133762824D01*
X200745100Y-132228347D01*
X203397952Y-132228347D01*
X204710000Y-133540395D01*
X206022048Y-132228347D01*
X205866038Y-131912786D01*
X205491255Y-131721980D01*
X205086449Y-131607956D01*
X204667176Y-131575098D01*
X204249549Y-131624666D01*
X203849617Y-131754757D01*
X203553962Y-131912786D01*
X203397952Y-132228347D01*
X200745100Y-132228347D01*
X200745100Y-130131653D01*
X203397952Y-130131653D01*
X203553962Y-130447214D01*
X203928745Y-130638020D01*
X204333551Y-130752044D01*
X204752824Y-130784902D01*
X205170451Y-130735334D01*
X205570383Y-130605243D01*
X205866038Y-130447214D01*
X206022048Y-130131653D01*
X204710000Y-128819605D01*
X203397952Y-130131653D01*
X200745100Y-130131653D01*
X200745100Y-128682824D01*
X202565098Y-128682824D01*
X202614666Y-129100451D01*
X202744757Y-129500383D01*
X202902786Y-129796038D01*
X203218347Y-129952048D01*
X204530395Y-128640000D01*
X204889605Y-128640000D01*
X206201653Y-129952048D01*
X206517214Y-129796038D01*
X206708020Y-129421255D01*
X206822044Y-129016449D01*
X206854902Y-128597176D01*
X206805334Y-128179549D01*
X206675243Y-127779617D01*
X206517214Y-127483962D01*
X206201653Y-127327952D01*
X204889605Y-128640000D01*
X204530395Y-128640000D01*
X203218347Y-127327952D01*
X202902786Y-127483962D01*
X202711980Y-127858745D01*
X202597956Y-128263551D01*
X202565098Y-128682824D01*
X200745100Y-128682824D01*
X200745100Y-127148347D01*
X203397952Y-127148347D01*
X204710000Y-128460395D01*
X206022048Y-127148347D01*
X205866038Y-126832786D01*
X205491255Y-126641980D01*
X205086449Y-126527956D01*
X204667176Y-126495098D01*
X204249549Y-126544666D01*
X203849617Y-126674757D01*
X203553962Y-126832786D01*
X203397952Y-127148347D01*
X200745100Y-127148347D01*
X200745100Y-126290000D01*
X248041928Y-126290000D01*
X248041928Y-127990000D01*
X248054188Y-128114482D01*
X248090498Y-128234180D01*
X248149463Y-128344494D01*
X248228815Y-128441185D01*
X248325506Y-128520537D01*
X248435820Y-128579502D01*
X248508380Y-128601513D01*
X248376525Y-128733368D01*
X248214010Y-128976589D01*
X248102068Y-129246842D01*
X248045000Y-129533740D01*
X248045000Y-129826260D01*
X248102068Y-130113158D01*
X248214010Y-130383411D01*
X248376525Y-130626632D01*
X248583368Y-130833475D01*
X248826589Y-130995990D01*
X249096842Y-131107932D01*
X249383740Y-131165000D01*
X249676260Y-131165000D01*
X249963158Y-131107932D01*
X250233411Y-130995990D01*
X250476632Y-130833475D01*
X250683475Y-130626632D01*
X250800000Y-130452240D01*
X250916525Y-130626632D01*
X251123368Y-130833475D01*
X251366589Y-130995990D01*
X251636842Y-131107932D01*
X251923740Y-131165000D01*
X252216260Y-131165000D01*
X252503158Y-131107932D01*
X252773411Y-130995990D01*
X253016632Y-130833475D01*
X253223475Y-130626632D01*
X253385990Y-130383411D01*
X253497932Y-130113158D01*
X253555000Y-129826260D01*
X253555000Y-129533740D01*
X253497932Y-129246842D01*
X253385990Y-128976589D01*
X253223475Y-128733368D01*
X253091620Y-128601513D01*
X253164180Y-128579502D01*
X253274494Y-128520537D01*
X253371185Y-128441185D01*
X253450537Y-128344494D01*
X253509502Y-128234180D01*
X253545812Y-128114482D01*
X253558072Y-127990000D01*
X253558072Y-126290000D01*
X253545812Y-126165518D01*
X253509502Y-126045820D01*
X253450537Y-125935506D01*
X253371185Y-125838815D01*
X253274494Y-125759463D01*
X253164180Y-125700498D01*
X253044482Y-125664188D01*
X252920000Y-125651928D01*
X251220000Y-125651928D01*
X251095518Y-125664188D01*
X250975820Y-125700498D01*
X250865506Y-125759463D01*
X250800000Y-125813222D01*
X250734494Y-125759463D01*
X250624180Y-125700498D01*
X250504482Y-125664188D01*
X250380000Y-125651928D01*
X248680000Y-125651928D01*
X248555518Y-125664188D01*
X248435820Y-125700498D01*
X248325506Y-125759463D01*
X248228815Y-125838815D01*
X248149463Y-125935506D01*
X248090498Y-126045820D01*
X248054188Y-126165518D01*
X248041928Y-126290000D01*
X200745100Y-126290000D01*
X200745100Y-122060000D01*
X202571928Y-122060000D01*
X202571928Y-125060000D01*
X202584188Y-125184482D01*
X202620498Y-125304180D01*
X202679463Y-125414494D01*
X202758815Y-125511185D01*
X202855506Y-125590537D01*
X202965820Y-125649502D01*
X203085518Y-125685812D01*
X203210000Y-125698072D01*
X206210000Y-125698072D01*
X206334482Y-125685812D01*
X206454180Y-125649502D01*
X206564494Y-125590537D01*
X206661185Y-125511185D01*
X206740537Y-125414494D01*
X206799502Y-125304180D01*
X206835812Y-125184482D01*
X206848072Y-125060000D01*
X206848072Y-123223137D01*
X217965000Y-123223137D01*
X217965000Y-123436863D01*
X218006696Y-123646483D01*
X218088485Y-123843940D01*
X218207225Y-124021647D01*
X218358353Y-124172775D01*
X218536060Y-124291515D01*
X218733517Y-124373304D01*
X218943137Y-124415000D01*
X219156863Y-124415000D01*
X219366483Y-124373304D01*
X219563940Y-124291515D01*
X219741647Y-124172775D01*
X219892775Y-124021647D01*
X220011515Y-123843940D01*
X220093304Y-123646483D01*
X220135000Y-123436863D01*
X220135000Y-123223137D01*
X220305000Y-123223137D01*
X220305000Y-123436863D01*
X220346696Y-123646483D01*
X220428485Y-123843940D01*
X220547225Y-124021647D01*
X220698353Y-124172775D01*
X220876060Y-124291515D01*
X221073517Y-124373304D01*
X221283137Y-124415000D01*
X221496863Y-124415000D01*
X221706483Y-124373304D01*
X221903940Y-124291515D01*
X221971077Y-124246655D01*
X240060000Y-124246655D01*
X240060000Y-124593345D01*
X240127636Y-124933373D01*
X240260308Y-125253673D01*
X240452919Y-125541935D01*
X240698065Y-125787081D01*
X240986327Y-125979692D01*
X241306627Y-126112364D01*
X241646655Y-126180000D01*
X241993345Y-126180000D01*
X242333373Y-126112364D01*
X242653673Y-125979692D01*
X242941935Y-125787081D01*
X243187081Y-125541935D01*
X243379692Y-125253673D01*
X243512364Y-124933373D01*
X243580000Y-124593345D01*
X243580000Y-124246655D01*
X243512364Y-123906627D01*
X243379692Y-123586327D01*
X243187081Y-123298065D01*
X242941935Y-123052919D01*
X242653673Y-122860308D01*
X242333373Y-122727636D01*
X241993345Y-122660000D01*
X241646655Y-122660000D01*
X241306627Y-122727636D01*
X240986327Y-122860308D01*
X240698065Y-123052919D01*
X240452919Y-123298065D01*
X240260308Y-123586327D01*
X240127636Y-123906627D01*
X240060000Y-124246655D01*
X221971077Y-124246655D01*
X222081647Y-124172775D01*
X222232775Y-124021647D01*
X222351515Y-123843940D01*
X222433304Y-123646483D01*
X222475000Y-123436863D01*
X222475000Y-123223137D01*
X222433304Y-123013517D01*
X222351515Y-122816060D01*
X222232775Y-122638353D01*
X222081647Y-122487225D01*
X221903940Y-122368485D01*
X221706483Y-122286696D01*
X221496863Y-122245000D01*
X221283137Y-122245000D01*
X221073517Y-122286696D01*
X220876060Y-122368485D01*
X220698353Y-122487225D01*
X220547225Y-122638353D01*
X220428485Y-122816060D01*
X220346696Y-123013517D01*
X220305000Y-123223137D01*
X220135000Y-123223137D01*
X220093304Y-123013517D01*
X220011515Y-122816060D01*
X219892775Y-122638353D01*
X219741647Y-122487225D01*
X219563940Y-122368485D01*
X219366483Y-122286696D01*
X219156863Y-122245000D01*
X218943137Y-122245000D01*
X218733517Y-122286696D01*
X218536060Y-122368485D01*
X218358353Y-122487225D01*
X218207225Y-122638353D01*
X218088485Y-122816060D01*
X218006696Y-123013517D01*
X217965000Y-123223137D01*
X206848072Y-123223137D01*
X206848072Y-122060000D01*
X206835812Y-121935518D01*
X206799502Y-121815820D01*
X206740537Y-121705506D01*
X206661185Y-121608815D01*
X206564494Y-121529463D01*
X206454180Y-121470498D01*
X206334482Y-121434188D01*
X206210000Y-121421928D01*
X203210000Y-121421928D01*
X203085518Y-121434188D01*
X202965820Y-121470498D01*
X202855506Y-121529463D01*
X202758815Y-121608815D01*
X202679463Y-121705506D01*
X202620498Y-121815820D01*
X202584188Y-121935518D01*
X202571928Y-122060000D01*
X200745100Y-122060000D01*
X200745100Y-116662094D01*
X201695200Y-116662094D01*
X201695200Y-116925066D01*
X201746504Y-117182985D01*
X201847139Y-117425939D01*
X201993238Y-117644593D01*
X202179187Y-117830542D01*
X202397841Y-117976641D01*
X202640795Y-118077276D01*
X202898714Y-118128580D01*
X203161686Y-118128580D01*
X203419605Y-118077276D01*
X203662559Y-117976641D01*
X203881213Y-117830542D01*
X203958695Y-117753060D01*
X213688428Y-117753060D01*
X213688428Y-119453060D01*
X213700688Y-119577542D01*
X213736998Y-119697240D01*
X213795963Y-119807554D01*
X213875315Y-119904245D01*
X213972006Y-119983597D01*
X214082320Y-120042562D01*
X214154880Y-120064573D01*
X214023025Y-120196428D01*
X213860510Y-120439649D01*
X213748568Y-120709902D01*
X213691500Y-120996800D01*
X213691500Y-121289320D01*
X213748568Y-121576218D01*
X213860510Y-121846471D01*
X214023025Y-122089692D01*
X214229868Y-122296535D01*
X214473089Y-122459050D01*
X214743342Y-122570992D01*
X215030240Y-122628060D01*
X215322760Y-122628060D01*
X215609658Y-122570992D01*
X215879911Y-122459050D01*
X216123132Y-122296535D01*
X216329975Y-122089692D01*
X216492490Y-121846471D01*
X216604432Y-121576218D01*
X216661500Y-121289320D01*
X216661500Y-120996800D01*
X216604432Y-120709902D01*
X216492490Y-120439649D01*
X216329975Y-120196428D01*
X216198120Y-120064573D01*
X216270680Y-120042562D01*
X216380994Y-119983597D01*
X216477685Y-119904245D01*
X216557037Y-119807554D01*
X216616002Y-119697240D01*
X216652312Y-119577542D01*
X216664572Y-119453060D01*
X216664572Y-117753060D01*
X216652312Y-117628578D01*
X216616002Y-117508880D01*
X216557037Y-117398566D01*
X216477685Y-117301875D01*
X216380994Y-117222523D01*
X216270680Y-117163558D01*
X216150982Y-117127248D01*
X216026500Y-117114988D01*
X214326500Y-117114988D01*
X214202018Y-117127248D01*
X214082320Y-117163558D01*
X213972006Y-117222523D01*
X213875315Y-117301875D01*
X213795963Y-117398566D01*
X213736998Y-117508880D01*
X213700688Y-117628578D01*
X213688428Y-117753060D01*
X203958695Y-117753060D01*
X204067162Y-117644593D01*
X204213261Y-117425939D01*
X204313896Y-117182985D01*
X204365200Y-116925066D01*
X204365200Y-116662094D01*
X204358151Y-116626655D01*
X219740000Y-116626655D01*
X219740000Y-116973345D01*
X219807636Y-117313373D01*
X219940308Y-117633673D01*
X220132919Y-117921935D01*
X220378065Y-118167081D01*
X220666327Y-118359692D01*
X220986627Y-118492364D01*
X221326655Y-118560000D01*
X221673345Y-118560000D01*
X222013373Y-118492364D01*
X222333673Y-118359692D01*
X222621935Y-118167081D01*
X222867081Y-117921935D01*
X223059692Y-117633673D01*
X223192364Y-117313373D01*
X223260000Y-116973345D01*
X223260000Y-116626655D01*
X223192364Y-116286627D01*
X223059692Y-115966327D01*
X222867081Y-115678065D01*
X222621935Y-115432919D01*
X222333673Y-115240308D01*
X222013373Y-115107636D01*
X221673345Y-115040000D01*
X221326655Y-115040000D01*
X220986627Y-115107636D01*
X220666327Y-115240308D01*
X220378065Y-115432919D01*
X220132919Y-115678065D01*
X219940308Y-115966327D01*
X219807636Y-116286627D01*
X219740000Y-116626655D01*
X204358151Y-116626655D01*
X204313896Y-116404175D01*
X204213261Y-116161221D01*
X204067162Y-115942567D01*
X203881213Y-115756618D01*
X203662559Y-115610519D01*
X203419605Y-115509884D01*
X203184857Y-115463189D01*
X211540197Y-115463189D01*
X211726273Y-115804346D01*
X212143609Y-116020093D01*
X212595015Y-116150276D01*
X213063146Y-116189893D01*
X213530011Y-116137422D01*
X213977668Y-115994877D01*
X214334127Y-115804346D01*
X214520203Y-115463189D01*
X213030200Y-113973185D01*
X211540197Y-115463189D01*
X203184857Y-115463189D01*
X203161686Y-115458580D01*
X202898714Y-115458580D01*
X202640795Y-115509884D01*
X202397841Y-115610519D01*
X202179187Y-115756618D01*
X201993238Y-115942567D01*
X201847139Y-116161221D01*
X201746504Y-116404175D01*
X201695200Y-116662094D01*
X200745100Y-116662094D01*
X200745100Y-113826526D01*
X210633887Y-113826526D01*
X210686358Y-114293391D01*
X210828903Y-114741048D01*
X211019434Y-115097507D01*
X211360591Y-115283583D01*
X212850595Y-113793580D01*
X213209805Y-113793580D01*
X214699809Y-115283583D01*
X215040966Y-115097507D01*
X215256713Y-114680171D01*
X215386896Y-114228765D01*
X215398922Y-114086655D01*
X240060000Y-114086655D01*
X240060000Y-114433345D01*
X240127636Y-114773373D01*
X240260308Y-115093673D01*
X240452919Y-115381935D01*
X240698065Y-115627081D01*
X240986327Y-115819692D01*
X241306627Y-115952364D01*
X241646655Y-116020000D01*
X241993345Y-116020000D01*
X242333373Y-115952364D01*
X242653673Y-115819692D01*
X242941935Y-115627081D01*
X243187081Y-115381935D01*
X243379692Y-115093673D01*
X243512364Y-114773373D01*
X243580000Y-114433345D01*
X243580000Y-114086655D01*
X243512364Y-113746627D01*
X243447488Y-113590000D01*
X248041928Y-113590000D01*
X248041928Y-115290000D01*
X248054188Y-115414482D01*
X248090498Y-115534180D01*
X248149463Y-115644494D01*
X248228815Y-115741185D01*
X248325506Y-115820537D01*
X248435820Y-115879502D01*
X248508380Y-115901513D01*
X248376525Y-116033368D01*
X248214010Y-116276589D01*
X248102068Y-116546842D01*
X248045000Y-116833740D01*
X248045000Y-117126260D01*
X248102068Y-117413158D01*
X248214010Y-117683411D01*
X248376525Y-117926632D01*
X248583368Y-118133475D01*
X248826589Y-118295990D01*
X249096842Y-118407932D01*
X249383740Y-118465000D01*
X249676260Y-118465000D01*
X249963158Y-118407932D01*
X250233411Y-118295990D01*
X250476632Y-118133475D01*
X250683475Y-117926632D01*
X250800000Y-117752240D01*
X250916525Y-117926632D01*
X251123368Y-118133475D01*
X251366589Y-118295990D01*
X251636842Y-118407932D01*
X251923740Y-118465000D01*
X252216260Y-118465000D01*
X252503158Y-118407932D01*
X252773411Y-118295990D01*
X253016632Y-118133475D01*
X253223475Y-117926632D01*
X253385990Y-117683411D01*
X253497932Y-117413158D01*
X253555000Y-117126260D01*
X253555000Y-116833740D01*
X253497932Y-116546842D01*
X253385990Y-116276589D01*
X253223475Y-116033368D01*
X253091620Y-115901513D01*
X253164180Y-115879502D01*
X253274494Y-115820537D01*
X253371185Y-115741185D01*
X253450537Y-115644494D01*
X253509502Y-115534180D01*
X253545812Y-115414482D01*
X253558072Y-115290000D01*
X253558072Y-113590000D01*
X253545812Y-113465518D01*
X253509502Y-113345820D01*
X253450537Y-113235506D01*
X253371185Y-113138815D01*
X253274494Y-113059463D01*
X253164180Y-113000498D01*
X253044482Y-112964188D01*
X252920000Y-112951928D01*
X251220000Y-112951928D01*
X251095518Y-112964188D01*
X250975820Y-113000498D01*
X250865506Y-113059463D01*
X250800000Y-113113222D01*
X250734494Y-113059463D01*
X250624180Y-113000498D01*
X250504482Y-112964188D01*
X250380000Y-112951928D01*
X248680000Y-112951928D01*
X248555518Y-112964188D01*
X248435820Y-113000498D01*
X248325506Y-113059463D01*
X248228815Y-113138815D01*
X248149463Y-113235506D01*
X248090498Y-113345820D01*
X248054188Y-113465518D01*
X248041928Y-113590000D01*
X243447488Y-113590000D01*
X243379692Y-113426327D01*
X243187081Y-113138065D01*
X242941935Y-112892919D01*
X242653673Y-112700308D01*
X242333373Y-112567636D01*
X241993345Y-112500000D01*
X241646655Y-112500000D01*
X241306627Y-112567636D01*
X240986327Y-112700308D01*
X240698065Y-112892919D01*
X240452919Y-113138065D01*
X240260308Y-113426327D01*
X240127636Y-113746627D01*
X240060000Y-114086655D01*
X215398922Y-114086655D01*
X215426513Y-113760634D01*
X215374042Y-113293769D01*
X215231497Y-112846112D01*
X215040966Y-112489653D01*
X214699809Y-112303577D01*
X213209805Y-113793580D01*
X212850595Y-113793580D01*
X211360591Y-112303577D01*
X211019434Y-112489653D01*
X210803687Y-112906989D01*
X210673504Y-113358395D01*
X210633887Y-113826526D01*
X200745100Y-113826526D01*
X200745100Y-112123971D01*
X211540197Y-112123971D01*
X213030200Y-113613975D01*
X214520203Y-112123971D01*
X214334127Y-111782814D01*
X213916791Y-111567067D01*
X213846013Y-111546655D01*
X219740000Y-111546655D01*
X219740000Y-111893345D01*
X219807636Y-112233373D01*
X219940308Y-112553673D01*
X220132919Y-112841935D01*
X220378065Y-113087081D01*
X220666327Y-113279692D01*
X220986627Y-113412364D01*
X221326655Y-113480000D01*
X221673345Y-113480000D01*
X222013373Y-113412364D01*
X222333673Y-113279692D01*
X222621935Y-113087081D01*
X222867081Y-112841935D01*
X223059692Y-112553673D01*
X223192364Y-112233373D01*
X223260000Y-111893345D01*
X223260000Y-111546655D01*
X223192364Y-111206627D01*
X223059692Y-110886327D01*
X222867081Y-110598065D01*
X222621935Y-110352919D01*
X222333673Y-110160308D01*
X222013373Y-110027636D01*
X221673345Y-109960000D01*
X221326655Y-109960000D01*
X220986627Y-110027636D01*
X220666327Y-110160308D01*
X220378065Y-110352919D01*
X220132919Y-110598065D01*
X219940308Y-110886327D01*
X219807636Y-111206627D01*
X219740000Y-111546655D01*
X213846013Y-111546655D01*
X213465385Y-111436884D01*
X212997254Y-111397267D01*
X212530389Y-111449738D01*
X212082732Y-111592283D01*
X211726273Y-111782814D01*
X211540197Y-112123971D01*
X200745100Y-112123971D01*
X200745100Y-105662094D01*
X201695200Y-105662094D01*
X201695200Y-105925066D01*
X201746504Y-106182985D01*
X201847139Y-106425939D01*
X201993238Y-106644593D01*
X202179187Y-106830542D01*
X202397841Y-106976641D01*
X202640795Y-107077276D01*
X202898714Y-107128580D01*
X203161686Y-107128580D01*
X203419605Y-107077276D01*
X203500954Y-107043580D01*
X210642128Y-107043580D01*
X210642128Y-110543580D01*
X210654388Y-110668062D01*
X210690698Y-110787760D01*
X210749663Y-110898074D01*
X210829015Y-110994765D01*
X210925706Y-111074117D01*
X211036020Y-111133082D01*
X211155718Y-111169392D01*
X211280200Y-111181652D01*
X214780200Y-111181652D01*
X214904682Y-111169392D01*
X215024380Y-111133082D01*
X215134694Y-111074117D01*
X215231385Y-110994765D01*
X215310737Y-110898074D01*
X215369702Y-110787760D01*
X215406012Y-110668062D01*
X215418272Y-110543580D01*
X215418272Y-107043580D01*
X215406012Y-106919098D01*
X215369702Y-106799400D01*
X215310737Y-106689086D01*
X215231385Y-106592395D01*
X215134694Y-106513043D01*
X215024380Y-106454078D01*
X214904682Y-106417768D01*
X214780200Y-106405508D01*
X211280200Y-106405508D01*
X211155718Y-106417768D01*
X211036020Y-106454078D01*
X210925706Y-106513043D01*
X210829015Y-106592395D01*
X210749663Y-106689086D01*
X210690698Y-106799400D01*
X210654388Y-106919098D01*
X210642128Y-107043580D01*
X203500954Y-107043580D01*
X203662559Y-106976641D01*
X203881213Y-106830542D01*
X204067162Y-106644593D01*
X204213261Y-106425939D01*
X204313896Y-106182985D01*
X204365200Y-105925066D01*
X204365200Y-105662094D01*
X204313896Y-105404175D01*
X204213261Y-105161221D01*
X204067162Y-104942567D01*
X203881213Y-104756618D01*
X203662559Y-104610519D01*
X203419605Y-104509884D01*
X203161686Y-104458580D01*
X202898714Y-104458580D01*
X202640795Y-104509884D01*
X202397841Y-104610519D01*
X202179187Y-104756618D01*
X201993238Y-104942567D01*
X201847139Y-105161221D01*
X201746504Y-105404175D01*
X201695200Y-105662094D01*
X200745100Y-105662094D01*
X200745100Y-103926655D01*
X219740000Y-103926655D01*
X219740000Y-104273345D01*
X219807636Y-104613373D01*
X219940308Y-104933673D01*
X220132919Y-105221935D01*
X220378065Y-105467081D01*
X220666327Y-105659692D01*
X220986627Y-105792364D01*
X221326655Y-105860000D01*
X221673345Y-105860000D01*
X222013373Y-105792364D01*
X222333673Y-105659692D01*
X222621935Y-105467081D01*
X222867081Y-105221935D01*
X223059692Y-104933673D01*
X223192364Y-104613373D01*
X223260000Y-104273345D01*
X223260000Y-103926655D01*
X223192364Y-103586627D01*
X223059692Y-103266327D01*
X222867081Y-102978065D01*
X222792153Y-102903137D01*
X228887000Y-102903137D01*
X228887000Y-103116863D01*
X228928696Y-103326483D01*
X229010485Y-103523940D01*
X229129225Y-103701647D01*
X229280353Y-103852775D01*
X229458060Y-103971515D01*
X229655517Y-104053304D01*
X229865137Y-104095000D01*
X230078863Y-104095000D01*
X230288483Y-104053304D01*
X230485940Y-103971515D01*
X230553077Y-103926655D01*
X240060000Y-103926655D01*
X240060000Y-104273345D01*
X240127636Y-104613373D01*
X240260308Y-104933673D01*
X240452919Y-105221935D01*
X240698065Y-105467081D01*
X240986327Y-105659692D01*
X241306627Y-105792364D01*
X241646655Y-105860000D01*
X241993345Y-105860000D01*
X242333373Y-105792364D01*
X242653673Y-105659692D01*
X242941935Y-105467081D01*
X243187081Y-105221935D01*
X243379692Y-104933673D01*
X243512364Y-104613373D01*
X243580000Y-104273345D01*
X243580000Y-103926655D01*
X243512364Y-103586627D01*
X243447488Y-103430000D01*
X248041928Y-103430000D01*
X248041928Y-105130000D01*
X248054188Y-105254482D01*
X248090498Y-105374180D01*
X248149463Y-105484494D01*
X248228815Y-105581185D01*
X248325506Y-105660537D01*
X248435820Y-105719502D01*
X248508380Y-105741513D01*
X248376525Y-105873368D01*
X248214010Y-106116589D01*
X248102068Y-106386842D01*
X248045000Y-106673740D01*
X248045000Y-106966260D01*
X248102068Y-107253158D01*
X248214010Y-107523411D01*
X248376525Y-107766632D01*
X248583368Y-107973475D01*
X248826589Y-108135990D01*
X249096842Y-108247932D01*
X249383740Y-108305000D01*
X249676260Y-108305000D01*
X249963158Y-108247932D01*
X250233411Y-108135990D01*
X250476632Y-107973475D01*
X250683475Y-107766632D01*
X250800000Y-107592240D01*
X250916525Y-107766632D01*
X251123368Y-107973475D01*
X251366589Y-108135990D01*
X251636842Y-108247932D01*
X251923740Y-108305000D01*
X252216260Y-108305000D01*
X252503158Y-108247932D01*
X252773411Y-108135990D01*
X253016632Y-107973475D01*
X253223475Y-107766632D01*
X253385990Y-107523411D01*
X253497932Y-107253158D01*
X253555000Y-106966260D01*
X253555000Y-106673740D01*
X253497932Y-106386842D01*
X253385990Y-106116589D01*
X253223475Y-105873368D01*
X253091620Y-105741513D01*
X253164180Y-105719502D01*
X253274494Y-105660537D01*
X253371185Y-105581185D01*
X253450537Y-105484494D01*
X253509502Y-105374180D01*
X253545812Y-105254482D01*
X253558072Y-105130000D01*
X253558072Y-103430000D01*
X253545812Y-103305518D01*
X253509502Y-103185820D01*
X253450537Y-103075506D01*
X253371185Y-102978815D01*
X253274494Y-102899463D01*
X253164180Y-102840498D01*
X253044482Y-102804188D01*
X252920000Y-102791928D01*
X251220000Y-102791928D01*
X251095518Y-102804188D01*
X250975820Y-102840498D01*
X250865506Y-102899463D01*
X250800000Y-102953222D01*
X250734494Y-102899463D01*
X250624180Y-102840498D01*
X250504482Y-102804188D01*
X250380000Y-102791928D01*
X248680000Y-102791928D01*
X248555518Y-102804188D01*
X248435820Y-102840498D01*
X248325506Y-102899463D01*
X248228815Y-102978815D01*
X248149463Y-103075506D01*
X248090498Y-103185820D01*
X248054188Y-103305518D01*
X248041928Y-103430000D01*
X243447488Y-103430000D01*
X243379692Y-103266327D01*
X243187081Y-102978065D01*
X242941935Y-102732919D01*
X242653673Y-102540308D01*
X242333373Y-102407636D01*
X241993345Y-102340000D01*
X241646655Y-102340000D01*
X241306627Y-102407636D01*
X240986327Y-102540308D01*
X240698065Y-102732919D01*
X240452919Y-102978065D01*
X240260308Y-103266327D01*
X240127636Y-103586627D01*
X240060000Y-103926655D01*
X230553077Y-103926655D01*
X230663647Y-103852775D01*
X230814775Y-103701647D01*
X230933515Y-103523940D01*
X231015304Y-103326483D01*
X231057000Y-103116863D01*
X231057000Y-102903137D01*
X231015304Y-102693517D01*
X230933515Y-102496060D01*
X230814775Y-102318353D01*
X230663647Y-102167225D01*
X230485940Y-102048485D01*
X230288483Y-101966696D01*
X230078863Y-101925000D01*
X229865137Y-101925000D01*
X229655517Y-101966696D01*
X229458060Y-102048485D01*
X229280353Y-102167225D01*
X229129225Y-102318353D01*
X229010485Y-102496060D01*
X228928696Y-102693517D01*
X228887000Y-102903137D01*
X222792153Y-102903137D01*
X222621935Y-102732919D01*
X222333673Y-102540308D01*
X222013373Y-102407636D01*
X221673345Y-102340000D01*
X221326655Y-102340000D01*
X220986627Y-102407636D01*
X220666327Y-102540308D01*
X220378065Y-102732919D01*
X220132919Y-102978065D01*
X219940308Y-103266327D01*
X219807636Y-103586627D01*
X219740000Y-103926655D01*
X200745100Y-103926655D01*
X200745100Y-101654137D01*
X255324000Y-101654137D01*
X255324000Y-101867863D01*
X255365696Y-102077483D01*
X255447485Y-102274940D01*
X255566225Y-102452647D01*
X255717353Y-102603775D01*
X255895060Y-102722515D01*
X256092517Y-102804304D01*
X256302137Y-102846000D01*
X256454554Y-102846000D01*
X262777746Y-109169193D01*
X262800762Y-109197238D01*
X262912680Y-109289087D01*
X263040366Y-109357337D01*
X263178915Y-109399365D01*
X263323000Y-109413556D01*
X263359105Y-109410000D01*
X263985578Y-109410000D01*
X264050000Y-109474422D01*
X264050000Y-109986034D01*
X263933940Y-109908485D01*
X263736483Y-109826696D01*
X263526863Y-109785000D01*
X263313137Y-109785000D01*
X263103517Y-109826696D01*
X262906060Y-109908485D01*
X262728353Y-110027225D01*
X262577225Y-110178353D01*
X262570649Y-110188195D01*
X262413940Y-110083485D01*
X262216483Y-110001696D01*
X262006863Y-109960000D01*
X261793137Y-109960000D01*
X261583517Y-110001696D01*
X261386060Y-110083485D01*
X261208353Y-110202225D01*
X261057225Y-110353353D01*
X260938485Y-110531060D01*
X260856696Y-110728517D01*
X260815000Y-110938137D01*
X260815000Y-111151863D01*
X260856696Y-111361483D01*
X260938485Y-111558940D01*
X261057225Y-111736647D01*
X261208353Y-111887775D01*
X261386060Y-112006515D01*
X261583517Y-112088304D01*
X261793137Y-112130000D01*
X262006863Y-112130000D01*
X262216483Y-112088304D01*
X262413940Y-112006515D01*
X262591647Y-111887775D01*
X262742775Y-111736647D01*
X262749351Y-111726805D01*
X262906060Y-111831515D01*
X263103517Y-111913304D01*
X263313137Y-111955000D01*
X263526863Y-111955000D01*
X263736483Y-111913304D01*
X263933940Y-111831515D01*
X264050000Y-111753966D01*
X264050001Y-118358885D01*
X264046444Y-118395000D01*
X264060635Y-118539085D01*
X264079793Y-118602238D01*
X264102664Y-118677633D01*
X264170914Y-118805320D01*
X264175000Y-118810299D01*
X264175000Y-118976863D01*
X264216696Y-119186483D01*
X264298485Y-119383940D01*
X264417225Y-119561647D01*
X264525000Y-119669422D01*
X264525000Y-122012693D01*
X264413940Y-121938485D01*
X264216483Y-121856696D01*
X264006863Y-121815000D01*
X263793137Y-121815000D01*
X263583517Y-121856696D01*
X263386060Y-121938485D01*
X263208353Y-122057225D01*
X263057225Y-122208353D01*
X263025000Y-122256581D01*
X262992775Y-122208353D01*
X262841647Y-122057225D01*
X262663940Y-121938485D01*
X262466483Y-121856696D01*
X262256863Y-121815000D01*
X262043137Y-121815000D01*
X261833517Y-121856696D01*
X261636060Y-121938485D01*
X261458353Y-122057225D01*
X261307225Y-122208353D01*
X261188485Y-122386060D01*
X261106696Y-122583517D01*
X261065000Y-122793137D01*
X261065000Y-123006863D01*
X261106696Y-123216483D01*
X261188485Y-123413940D01*
X261307225Y-123591647D01*
X261458353Y-123742775D01*
X261636060Y-123861515D01*
X261833517Y-123943304D01*
X262043137Y-123985000D01*
X262256863Y-123985000D01*
X262466483Y-123943304D01*
X262663940Y-123861515D01*
X262841647Y-123742775D01*
X262992775Y-123591647D01*
X263025000Y-123543419D01*
X263057225Y-123591647D01*
X263208353Y-123742775D01*
X263386060Y-123861515D01*
X263583517Y-123943304D01*
X263793137Y-123985000D01*
X264006863Y-123985000D01*
X264216483Y-123943304D01*
X264413940Y-123861515D01*
X264525001Y-123787307D01*
X264525001Y-124834577D01*
X264435225Y-124924353D01*
X264316485Y-125102060D01*
X264234696Y-125299517D01*
X264193000Y-125509137D01*
X264193000Y-125722863D01*
X264234696Y-125932483D01*
X264316485Y-126129940D01*
X264435225Y-126307647D01*
X264543000Y-126415422D01*
X264543001Y-130297302D01*
X264438353Y-130367225D01*
X264287225Y-130518353D01*
X264168485Y-130696060D01*
X264086696Y-130893517D01*
X264045000Y-131103137D01*
X264045000Y-131316863D01*
X264086696Y-131526483D01*
X264168485Y-131723940D01*
X264287225Y-131901647D01*
X264395000Y-132009422D01*
X264395000Y-133627503D01*
X264296483Y-133586696D01*
X264086863Y-133545000D01*
X263873137Y-133545000D01*
X263663517Y-133586696D01*
X263466060Y-133668485D01*
X263288353Y-133787225D01*
X263137225Y-133938353D01*
X263018485Y-134116060D01*
X262936696Y-134313517D01*
X262917016Y-134412453D01*
X262903304Y-134343517D01*
X262821515Y-134146060D01*
X262702775Y-133968353D01*
X262551647Y-133817225D01*
X262373940Y-133698485D01*
X262176483Y-133616696D01*
X261966863Y-133575000D01*
X261753137Y-133575000D01*
X261543517Y-133616696D01*
X261346060Y-133698485D01*
X261168353Y-133817225D01*
X261017225Y-133968353D01*
X260898485Y-134146060D01*
X260816696Y-134343517D01*
X260775000Y-134553137D01*
X260775000Y-134766863D01*
X260816696Y-134976483D01*
X260898485Y-135173940D01*
X261017225Y-135351647D01*
X261168353Y-135502775D01*
X261346060Y-135621515D01*
X261543517Y-135703304D01*
X261753137Y-135745000D01*
X261966863Y-135745000D01*
X262176483Y-135703304D01*
X262373940Y-135621515D01*
X262551647Y-135502775D01*
X262702775Y-135351647D01*
X262821515Y-135173940D01*
X262903304Y-134976483D01*
X262922984Y-134877547D01*
X262936696Y-134946483D01*
X263018485Y-135143940D01*
X263137225Y-135321647D01*
X263288353Y-135472775D01*
X263466060Y-135591515D01*
X263663517Y-135673304D01*
X263873137Y-135715000D01*
X264086863Y-135715000D01*
X264296483Y-135673304D01*
X264395000Y-135632497D01*
X264395001Y-143273885D01*
X264391444Y-143310000D01*
X264405635Y-143454085D01*
X264440563Y-143569225D01*
X264447664Y-143592633D01*
X264515914Y-143720320D01*
X264607763Y-143832238D01*
X264635808Y-143855254D01*
X265147000Y-144366446D01*
X265147000Y-144518863D01*
X265188696Y-144728483D01*
X265270485Y-144925940D01*
X265389225Y-145103647D01*
X265540353Y-145254775D01*
X265718060Y-145373515D01*
X265915517Y-145455304D01*
X266125137Y-145497000D01*
X266338863Y-145497000D01*
X266548483Y-145455304D01*
X266745940Y-145373515D01*
X266923647Y-145254775D01*
X267074775Y-145103647D01*
X267193515Y-144925940D01*
X267275304Y-144728483D01*
X267317000Y-144518863D01*
X267317000Y-144305137D01*
X267293156Y-144185266D01*
X267390775Y-144087647D01*
X267509515Y-143909940D01*
X267591304Y-143712483D01*
X267633000Y-143502863D01*
X267633000Y-143350446D01*
X269489019Y-141494427D01*
X269515225Y-141533647D01*
X269666353Y-141684775D01*
X269844060Y-141803515D01*
X270041517Y-141885304D01*
X270251137Y-141927000D01*
X270464863Y-141927000D01*
X270674483Y-141885304D01*
X270871940Y-141803515D01*
X271049647Y-141684775D01*
X271200775Y-141533647D01*
X271319515Y-141355940D01*
X271401304Y-141158483D01*
X271443000Y-140948863D01*
X271443000Y-140735137D01*
X271401304Y-140525517D01*
X271319515Y-140328060D01*
X271200775Y-140150353D01*
X271049647Y-139999225D01*
X270871940Y-139880485D01*
X270674483Y-139798696D01*
X270464863Y-139757000D01*
X270251137Y-139757000D01*
X270077000Y-139791638D01*
X270077000Y-139360000D01*
X272541928Y-139360000D01*
X272541928Y-142860000D01*
X272554188Y-142984482D01*
X272590498Y-143104180D01*
X272649463Y-143214494D01*
X272728815Y-143311185D01*
X272825506Y-143390537D01*
X272935820Y-143449502D01*
X273055518Y-143485812D01*
X273180000Y-143498072D01*
X276680000Y-143498072D01*
X276804482Y-143485812D01*
X276924180Y-143449502D01*
X277034494Y-143390537D01*
X277131185Y-143311185D01*
X277210537Y-143214494D01*
X277269502Y-143104180D01*
X277305812Y-142984482D01*
X277318072Y-142860000D01*
X277318072Y-140110000D01*
X278791928Y-140110000D01*
X278791928Y-142110000D01*
X278818599Y-142380799D01*
X278897589Y-142641192D01*
X279025860Y-142881171D01*
X279198485Y-143091515D01*
X279408829Y-143264140D01*
X279648808Y-143392411D01*
X279909201Y-143471401D01*
X280180000Y-143498072D01*
X281680000Y-143498072D01*
X281950799Y-143471401D01*
X282211192Y-143392411D01*
X282451171Y-143264140D01*
X282661515Y-143091515D01*
X282834140Y-142881171D01*
X282962411Y-142641192D01*
X283041401Y-142380799D01*
X283068072Y-142110000D01*
X283068072Y-140110000D01*
X283041401Y-139839201D01*
X282962411Y-139578808D01*
X282834140Y-139338829D01*
X282661515Y-139128485D01*
X282451171Y-138955860D01*
X282211192Y-138827589D01*
X281950799Y-138748599D01*
X281680000Y-138721928D01*
X280180000Y-138721928D01*
X279909201Y-138748599D01*
X279648808Y-138827589D01*
X279408829Y-138955860D01*
X279198485Y-139128485D01*
X279025860Y-139338829D01*
X278897589Y-139578808D01*
X278818599Y-139839201D01*
X278791928Y-140110000D01*
X277318072Y-140110000D01*
X277318072Y-139360000D01*
X277305812Y-139235518D01*
X277269502Y-139115820D01*
X277210537Y-139005506D01*
X277131185Y-138908815D01*
X277034494Y-138829463D01*
X276957869Y-138788506D01*
X277055000Y-138798072D01*
X278805000Y-138798072D01*
X279100186Y-138768999D01*
X279384028Y-138682896D01*
X279645618Y-138543073D01*
X279874903Y-138354903D01*
X280063073Y-138125618D01*
X280202896Y-137864028D01*
X280288999Y-137580186D01*
X280318072Y-137285000D01*
X280318072Y-135535000D01*
X280288999Y-135239814D01*
X280202896Y-134955972D01*
X280063073Y-134694382D01*
X279874903Y-134465097D01*
X279645618Y-134276927D01*
X279384028Y-134137104D01*
X279100186Y-134051001D01*
X278805000Y-134021928D01*
X277055000Y-134021928D01*
X276759814Y-134051001D01*
X276475972Y-134137104D01*
X276214382Y-134276927D01*
X275985097Y-134465097D01*
X275796927Y-134694382D01*
X275657104Y-134955972D01*
X275571001Y-135239814D01*
X275541928Y-135535000D01*
X275541928Y-137285000D01*
X275571001Y-137580186D01*
X275657104Y-137864028D01*
X275796927Y-138125618D01*
X275985097Y-138354903D01*
X276214382Y-138543073D01*
X276475972Y-138682896D01*
X276604643Y-138721928D01*
X273180000Y-138721928D01*
X273055518Y-138734188D01*
X272935820Y-138770498D01*
X272825506Y-138829463D01*
X272728815Y-138908815D01*
X272649463Y-139005506D01*
X272590498Y-139115820D01*
X272554188Y-139235518D01*
X272541928Y-139360000D01*
X270077000Y-139360000D01*
X270077000Y-132511422D01*
X270184775Y-132403647D01*
X270303515Y-132225940D01*
X270385304Y-132028483D01*
X270427000Y-131818863D01*
X270427000Y-131787000D01*
X270464863Y-131787000D01*
X270674483Y-131745304D01*
X270871940Y-131663515D01*
X271049647Y-131544775D01*
X271200775Y-131393647D01*
X271319515Y-131215940D01*
X271401304Y-131018483D01*
X271443000Y-130808863D01*
X271443000Y-130595137D01*
X271401304Y-130385517D01*
X271319515Y-130188060D01*
X271200775Y-130010353D01*
X271049647Y-129859225D01*
X270871940Y-129740485D01*
X270674483Y-129658696D01*
X270464863Y-129617000D01*
X270251137Y-129617000D01*
X270041517Y-129658696D01*
X269844060Y-129740485D01*
X269666353Y-129859225D01*
X269515225Y-130010353D01*
X269396485Y-130188060D01*
X269314696Y-130385517D01*
X269273000Y-130595137D01*
X269273000Y-130603553D01*
X266875000Y-128205554D01*
X266875000Y-126660000D01*
X272541928Y-126660000D01*
X272541928Y-130160000D01*
X272554188Y-130284482D01*
X272590498Y-130404180D01*
X272649463Y-130514494D01*
X272728815Y-130611185D01*
X272825506Y-130690537D01*
X272935820Y-130749502D01*
X273055518Y-130785812D01*
X273180000Y-130798072D01*
X276680000Y-130798072D01*
X276804482Y-130785812D01*
X276924180Y-130749502D01*
X277034494Y-130690537D01*
X277131185Y-130611185D01*
X277210537Y-130514494D01*
X277269502Y-130404180D01*
X277305812Y-130284482D01*
X277318072Y-130160000D01*
X277318072Y-127410000D01*
X278791928Y-127410000D01*
X278791928Y-129410000D01*
X278818599Y-129680799D01*
X278897589Y-129941192D01*
X279025860Y-130181171D01*
X279198485Y-130391515D01*
X279408829Y-130564140D01*
X279648808Y-130692411D01*
X279909201Y-130771401D01*
X280180000Y-130798072D01*
X281680000Y-130798072D01*
X281950799Y-130771401D01*
X282211192Y-130692411D01*
X282451171Y-130564140D01*
X282661515Y-130391515D01*
X282834140Y-130181171D01*
X282962411Y-129941192D01*
X283041401Y-129680799D01*
X283068072Y-129410000D01*
X283068072Y-127410000D01*
X283041401Y-127139201D01*
X282962411Y-126878808D01*
X282834140Y-126638829D01*
X282661515Y-126428485D01*
X282451171Y-126255860D01*
X282211192Y-126127589D01*
X281950799Y-126048599D01*
X281680000Y-126021928D01*
X280180000Y-126021928D01*
X279909201Y-126048599D01*
X279648808Y-126127589D01*
X279408829Y-126255860D01*
X279198485Y-126428485D01*
X279025860Y-126638829D01*
X278897589Y-126878808D01*
X278818599Y-127139201D01*
X278791928Y-127410000D01*
X277318072Y-127410000D01*
X277318072Y-126660000D01*
X277305812Y-126535518D01*
X277269502Y-126415820D01*
X277210537Y-126305506D01*
X277131185Y-126208815D01*
X277034494Y-126129463D01*
X276957869Y-126088506D01*
X277055000Y-126098072D01*
X278805000Y-126098072D01*
X279100186Y-126068999D01*
X279384028Y-125982896D01*
X279645618Y-125843073D01*
X279874903Y-125654903D01*
X280063073Y-125425618D01*
X280202896Y-125164028D01*
X280288999Y-124880186D01*
X280318072Y-124585000D01*
X280318072Y-122835000D01*
X280288999Y-122539814D01*
X280202896Y-122255972D01*
X280063073Y-121994382D01*
X279874903Y-121765097D01*
X279645618Y-121576927D01*
X279384028Y-121437104D01*
X279100186Y-121351001D01*
X278805000Y-121321928D01*
X277055000Y-121321928D01*
X276759814Y-121351001D01*
X276475972Y-121437104D01*
X276214382Y-121576927D01*
X275985097Y-121765097D01*
X275796927Y-121994382D01*
X275657104Y-122255972D01*
X275571001Y-122539814D01*
X275541928Y-122835000D01*
X275541928Y-124585000D01*
X275571001Y-124880186D01*
X275657104Y-125164028D01*
X275796927Y-125425618D01*
X275985097Y-125654903D01*
X276214382Y-125843073D01*
X276475972Y-125982896D01*
X276604643Y-126021928D01*
X273180000Y-126021928D01*
X273055518Y-126034188D01*
X272935820Y-126070498D01*
X272825506Y-126129463D01*
X272728815Y-126208815D01*
X272649463Y-126305506D01*
X272590498Y-126415820D01*
X272554188Y-126535518D01*
X272541928Y-126660000D01*
X266875000Y-126660000D01*
X266875000Y-118879422D01*
X266982775Y-118771647D01*
X267101515Y-118593940D01*
X267183304Y-118396483D01*
X267225000Y-118186863D01*
X267225000Y-117973137D01*
X267183304Y-117763517D01*
X267101515Y-117566060D01*
X266982775Y-117388353D01*
X266875000Y-117280578D01*
X266875000Y-117206137D01*
X269273000Y-117206137D01*
X269273000Y-117419863D01*
X269314696Y-117629483D01*
X269396485Y-117826940D01*
X269515225Y-118004647D01*
X269666353Y-118155775D01*
X269844060Y-118274515D01*
X270041517Y-118356304D01*
X270251137Y-118398000D01*
X270464863Y-118398000D01*
X270674483Y-118356304D01*
X270871940Y-118274515D01*
X271049647Y-118155775D01*
X271200775Y-118004647D01*
X271319515Y-117826940D01*
X271401304Y-117629483D01*
X271443000Y-117419863D01*
X271443000Y-117206137D01*
X271401304Y-116996517D01*
X271319515Y-116799060D01*
X271200775Y-116621353D01*
X271049647Y-116470225D01*
X270871940Y-116351485D01*
X270674483Y-116269696D01*
X270464863Y-116228000D01*
X270251137Y-116228000D01*
X270041517Y-116269696D01*
X269844060Y-116351485D01*
X269666353Y-116470225D01*
X269515225Y-116621353D01*
X269396485Y-116799060D01*
X269314696Y-116996517D01*
X269273000Y-117206137D01*
X266875000Y-117206137D01*
X266875000Y-113960000D01*
X272541928Y-113960000D01*
X272541928Y-117460000D01*
X272554188Y-117584482D01*
X272590498Y-117704180D01*
X272649463Y-117814494D01*
X272728815Y-117911185D01*
X272825506Y-117990537D01*
X272935820Y-118049502D01*
X273055518Y-118085812D01*
X273180000Y-118098072D01*
X276680000Y-118098072D01*
X276804482Y-118085812D01*
X276924180Y-118049502D01*
X277034494Y-117990537D01*
X277131185Y-117911185D01*
X277210537Y-117814494D01*
X277269502Y-117704180D01*
X277305812Y-117584482D01*
X277318072Y-117460000D01*
X277318072Y-114710000D01*
X278791928Y-114710000D01*
X278791928Y-116710000D01*
X278818599Y-116980799D01*
X278897589Y-117241192D01*
X279025860Y-117481171D01*
X279198485Y-117691515D01*
X279408829Y-117864140D01*
X279648808Y-117992411D01*
X279909201Y-118071401D01*
X280180000Y-118098072D01*
X281680000Y-118098072D01*
X281950799Y-118071401D01*
X282211192Y-117992411D01*
X282451171Y-117864140D01*
X282661515Y-117691515D01*
X282834140Y-117481171D01*
X282962411Y-117241192D01*
X283041401Y-116980799D01*
X283068072Y-116710000D01*
X283068072Y-114710000D01*
X283041401Y-114439201D01*
X282962411Y-114178808D01*
X282834140Y-113938829D01*
X282661515Y-113728485D01*
X282451171Y-113555860D01*
X282211192Y-113427589D01*
X281950799Y-113348599D01*
X281680000Y-113321928D01*
X280180000Y-113321928D01*
X279909201Y-113348599D01*
X279648808Y-113427589D01*
X279408829Y-113555860D01*
X279198485Y-113728485D01*
X279025860Y-113938829D01*
X278897589Y-114178808D01*
X278818599Y-114439201D01*
X278791928Y-114710000D01*
X277318072Y-114710000D01*
X277318072Y-113960000D01*
X277305812Y-113835518D01*
X277269502Y-113715820D01*
X277210537Y-113605506D01*
X277131185Y-113508815D01*
X277034494Y-113429463D01*
X276957869Y-113388506D01*
X277055000Y-113398072D01*
X278805000Y-113398072D01*
X279100186Y-113368999D01*
X279384028Y-113282896D01*
X279645618Y-113143073D01*
X279874903Y-112954903D01*
X280063073Y-112725618D01*
X280202896Y-112464028D01*
X280288999Y-112180186D01*
X280318072Y-111885000D01*
X280318072Y-110135000D01*
X280288999Y-109839814D01*
X280202896Y-109555972D01*
X280063073Y-109294382D01*
X279874903Y-109065097D01*
X279645618Y-108876927D01*
X279384028Y-108737104D01*
X279100186Y-108651001D01*
X278805000Y-108621928D01*
X277055000Y-108621928D01*
X276759814Y-108651001D01*
X276475972Y-108737104D01*
X276214382Y-108876927D01*
X275985097Y-109065097D01*
X275796927Y-109294382D01*
X275657104Y-109555972D01*
X275571001Y-109839814D01*
X275541928Y-110135000D01*
X275541928Y-111885000D01*
X275571001Y-112180186D01*
X275657104Y-112464028D01*
X275796927Y-112725618D01*
X275985097Y-112954903D01*
X276214382Y-113143073D01*
X276475972Y-113282896D01*
X276604643Y-113321928D01*
X273180000Y-113321928D01*
X273055518Y-113334188D01*
X272935820Y-113370498D01*
X272825506Y-113429463D01*
X272728815Y-113508815D01*
X272649463Y-113605506D01*
X272590498Y-113715820D01*
X272554188Y-113835518D01*
X272541928Y-113960000D01*
X266875000Y-113960000D01*
X266875000Y-108608501D01*
X266878556Y-108572396D01*
X266864365Y-108428311D01*
X266853462Y-108392368D01*
X266822337Y-108289763D01*
X266754087Y-108162076D01*
X266710102Y-108108481D01*
X266685253Y-108078202D01*
X266685250Y-108078199D01*
X266662237Y-108050158D01*
X266634197Y-108027146D01*
X266475681Y-107868630D01*
X266493515Y-107841940D01*
X266575304Y-107644483D01*
X266617000Y-107434863D01*
X266617000Y-107221137D01*
X266575304Y-107011517D01*
X266493515Y-106814060D01*
X266374775Y-106636353D01*
X266223647Y-106485225D01*
X266045940Y-106366485D01*
X265848483Y-106284696D01*
X265638863Y-106243000D01*
X265425137Y-106243000D01*
X265215517Y-106284696D01*
X265018060Y-106366485D01*
X264840353Y-106485225D01*
X264689225Y-106636353D01*
X264570485Y-106814060D01*
X264488696Y-107011517D01*
X264447000Y-107221137D01*
X264447000Y-107434863D01*
X264485481Y-107628322D01*
X264468517Y-107631696D01*
X264271060Y-107713485D01*
X264093353Y-107832225D01*
X263985578Y-107940000D01*
X263627447Y-107940000D01*
X261927192Y-106239745D01*
X269273000Y-106239745D01*
X269273000Y-106453471D01*
X269314696Y-106663091D01*
X269396485Y-106860548D01*
X269515225Y-107038255D01*
X269666353Y-107189383D01*
X269844060Y-107308123D01*
X270041517Y-107389912D01*
X270251137Y-107431608D01*
X270464863Y-107431608D01*
X270674483Y-107389912D01*
X270871940Y-107308123D01*
X271049647Y-107189383D01*
X271200775Y-107038255D01*
X271319515Y-106860548D01*
X271401304Y-106663091D01*
X271443000Y-106453471D01*
X271443000Y-106239745D01*
X271401304Y-106030125D01*
X271319515Y-105832668D01*
X271200775Y-105654961D01*
X271049647Y-105503833D01*
X270871940Y-105385093D01*
X270674483Y-105303304D01*
X270464863Y-105261608D01*
X270251137Y-105261608D01*
X270041517Y-105303304D01*
X269844060Y-105385093D01*
X269666353Y-105503833D01*
X269515225Y-105654961D01*
X269396485Y-105832668D01*
X269314696Y-106030125D01*
X269273000Y-106239745D01*
X261927192Y-106239745D01*
X257494000Y-101806554D01*
X257494000Y-101654137D01*
X257479878Y-101583137D01*
X263815000Y-101583137D01*
X263815000Y-101796863D01*
X263856696Y-102006483D01*
X263938485Y-102203940D01*
X264057225Y-102381647D01*
X264208353Y-102532775D01*
X264386060Y-102651515D01*
X264583517Y-102733304D01*
X264793137Y-102775000D01*
X265006863Y-102775000D01*
X265216483Y-102733304D01*
X265413940Y-102651515D01*
X265591647Y-102532775D01*
X265742775Y-102381647D01*
X265861515Y-102203940D01*
X265943304Y-102006483D01*
X265943336Y-102006323D01*
X266123940Y-101931515D01*
X266301647Y-101812775D01*
X266452775Y-101661647D01*
X266571515Y-101483940D01*
X266653304Y-101286483D01*
X266658571Y-101260000D01*
X272541928Y-101260000D01*
X272541928Y-104760000D01*
X272554188Y-104884482D01*
X272590498Y-105004180D01*
X272649463Y-105114494D01*
X272728815Y-105211185D01*
X272825506Y-105290537D01*
X272935820Y-105349502D01*
X273055518Y-105385812D01*
X273180000Y-105398072D01*
X276680000Y-105398072D01*
X276804482Y-105385812D01*
X276924180Y-105349502D01*
X277034494Y-105290537D01*
X277131185Y-105211185D01*
X277210537Y-105114494D01*
X277269502Y-105004180D01*
X277305812Y-104884482D01*
X277318072Y-104760000D01*
X277318072Y-102010000D01*
X278791928Y-102010000D01*
X278791928Y-104010000D01*
X278818599Y-104280799D01*
X278897589Y-104541192D01*
X279025860Y-104781171D01*
X279198485Y-104991515D01*
X279408829Y-105164140D01*
X279648808Y-105292411D01*
X279909201Y-105371401D01*
X280180000Y-105398072D01*
X281680000Y-105398072D01*
X281950799Y-105371401D01*
X282211192Y-105292411D01*
X282451171Y-105164140D01*
X282661515Y-104991515D01*
X282834140Y-104781171D01*
X282962411Y-104541192D01*
X283041401Y-104280799D01*
X283068072Y-104010000D01*
X283068072Y-102010000D01*
X283041401Y-101739201D01*
X282962411Y-101478808D01*
X282834140Y-101238829D01*
X282661515Y-101028485D01*
X282451171Y-100855860D01*
X282211192Y-100727589D01*
X281950799Y-100648599D01*
X281680000Y-100621928D01*
X280180000Y-100621928D01*
X279909201Y-100648599D01*
X279648808Y-100727589D01*
X279408829Y-100855860D01*
X279198485Y-101028485D01*
X279025860Y-101238829D01*
X278897589Y-101478808D01*
X278818599Y-101739201D01*
X278791928Y-102010000D01*
X277318072Y-102010000D01*
X277318072Y-101260000D01*
X277305812Y-101135518D01*
X277269502Y-101015820D01*
X277210537Y-100905506D01*
X277131185Y-100808815D01*
X277034494Y-100729463D01*
X276957869Y-100688506D01*
X277055000Y-100698072D01*
X278805000Y-100698072D01*
X279100186Y-100668999D01*
X279384028Y-100582896D01*
X279645618Y-100443073D01*
X279874903Y-100254903D01*
X280063073Y-100025618D01*
X280202896Y-99764028D01*
X280288999Y-99480186D01*
X280318072Y-99185000D01*
X280318072Y-97435000D01*
X280288999Y-97139814D01*
X280202896Y-96855972D01*
X280063073Y-96594382D01*
X279874903Y-96365097D01*
X279645618Y-96176927D01*
X279384028Y-96037104D01*
X279100186Y-95951001D01*
X278805000Y-95921928D01*
X277055000Y-95921928D01*
X276759814Y-95951001D01*
X276475972Y-96037104D01*
X276214382Y-96176927D01*
X275985097Y-96365097D01*
X275796927Y-96594382D01*
X275657104Y-96855972D01*
X275571001Y-97139814D01*
X275541928Y-97435000D01*
X275541928Y-99185000D01*
X275571001Y-99480186D01*
X275657104Y-99764028D01*
X275796927Y-100025618D01*
X275985097Y-100254903D01*
X276214382Y-100443073D01*
X276475972Y-100582896D01*
X276604643Y-100621928D01*
X273180000Y-100621928D01*
X273055518Y-100634188D01*
X272935820Y-100670498D01*
X272825506Y-100729463D01*
X272728815Y-100808815D01*
X272649463Y-100905506D01*
X272590498Y-101015820D01*
X272554188Y-101135518D01*
X272541928Y-101260000D01*
X266658571Y-101260000D01*
X266695000Y-101076863D01*
X266695000Y-100863137D01*
X266653304Y-100653517D01*
X266571515Y-100456060D01*
X266452775Y-100278353D01*
X266301647Y-100127225D01*
X266123940Y-100008485D01*
X265926483Y-99926696D01*
X265716863Y-99885000D01*
X265503137Y-99885000D01*
X265293517Y-99926696D01*
X265096060Y-100008485D01*
X264918353Y-100127225D01*
X264767225Y-100278353D01*
X264648485Y-100456060D01*
X264566696Y-100653517D01*
X264566664Y-100653677D01*
X264386060Y-100728485D01*
X264208353Y-100847225D01*
X264057225Y-100998353D01*
X263938485Y-101176060D01*
X263856696Y-101373517D01*
X263815000Y-101583137D01*
X257479878Y-101583137D01*
X257452304Y-101444517D01*
X257370515Y-101247060D01*
X257251775Y-101069353D01*
X257100647Y-100918225D01*
X256922940Y-100799485D01*
X256725483Y-100717696D01*
X256515863Y-100676000D01*
X256302137Y-100676000D01*
X256092517Y-100717696D01*
X255895060Y-100799485D01*
X255717353Y-100918225D01*
X255566225Y-101069353D01*
X255447485Y-101247060D01*
X255365696Y-101444517D01*
X255324000Y-101654137D01*
X200745100Y-101654137D01*
X200745100Y-96979872D01*
X201275000Y-96979872D01*
X201275000Y-97420128D01*
X201360890Y-97851925D01*
X201529369Y-98258669D01*
X201773962Y-98624729D01*
X202085271Y-98936038D01*
X202451331Y-99180631D01*
X202858075Y-99349110D01*
X203289872Y-99435000D01*
X203730128Y-99435000D01*
X204161925Y-99349110D01*
X204568669Y-99180631D01*
X204934729Y-98936038D01*
X205246038Y-98624729D01*
X205490631Y-98258669D01*
X205659110Y-97851925D01*
X205745000Y-97420128D01*
X205745000Y-96979872D01*
X205659110Y-96548075D01*
X205490631Y-96141331D01*
X205246038Y-95775271D01*
X204934729Y-95463962D01*
X204568669Y-95219369D01*
X204161925Y-95050890D01*
X203730128Y-94965000D01*
X203289872Y-94965000D01*
X202858075Y-95050890D01*
X202451331Y-95219369D01*
X202085271Y-95463962D01*
X201773962Y-95775271D01*
X201529369Y-96141331D01*
X201360890Y-96548075D01*
X201275000Y-96979872D01*
X200745100Y-96979872D01*
X200745100Y-96727434D01*
X200791692Y-96252244D01*
X200919261Y-95829718D01*
X201126467Y-95440018D01*
X201405422Y-95097987D01*
X201745496Y-94816653D01*
X202133741Y-94606729D01*
X202555362Y-94476215D01*
X203028370Y-94426500D01*
X208167871Y-94426500D01*
X207948842Y-94470068D01*
G37*
X207948842Y-94470068D02*
X207678589Y-94582010D01*
X207435368Y-94744525D01*
X207228525Y-94951368D01*
X207066010Y-95194589D01*
X206954068Y-95464842D01*
X206897000Y-95751740D01*
X206897000Y-96044260D01*
X206954068Y-96331158D01*
X207066010Y-96601411D01*
X207228525Y-96844632D01*
X207360380Y-96976487D01*
X207287820Y-96998498D01*
X207177506Y-97057463D01*
X207080815Y-97136815D01*
X207001463Y-97233506D01*
X206942498Y-97343820D01*
X206906188Y-97463518D01*
X206893928Y-97588000D01*
X206893928Y-99288000D01*
X206906188Y-99412482D01*
X206942498Y-99532180D01*
X207001463Y-99642494D01*
X207080815Y-99739185D01*
X207177506Y-99818537D01*
X207287820Y-99877502D01*
X207407518Y-99913812D01*
X207532000Y-99926072D01*
X209232000Y-99926072D01*
X209356482Y-99913812D01*
X209476180Y-99877502D01*
X209586494Y-99818537D01*
X209683185Y-99739185D01*
X209762537Y-99642494D01*
X209821502Y-99532180D01*
X209843513Y-99459620D01*
X209975368Y-99591475D01*
X210218589Y-99753990D01*
X210488842Y-99865932D01*
X210775740Y-99923000D01*
X211068260Y-99923000D01*
X211355158Y-99865932D01*
X211625411Y-99753990D01*
X211868632Y-99591475D01*
X212075475Y-99384632D01*
X212192000Y-99210240D01*
X212308525Y-99384632D01*
X212515368Y-99591475D01*
X212758589Y-99753990D01*
X213028842Y-99865932D01*
X213315740Y-99923000D01*
X213608260Y-99923000D01*
X213895158Y-99865932D01*
X214165411Y-99753990D01*
X214408632Y-99591475D01*
X214615475Y-99384632D01*
X214732000Y-99210240D01*
X214848525Y-99384632D01*
X215055368Y-99591475D01*
X215298589Y-99753990D01*
X215568842Y-99865932D01*
X215855740Y-99923000D01*
X216148260Y-99923000D01*
X216435158Y-99865932D01*
X216705411Y-99753990D01*
X216948632Y-99591475D01*
X217155475Y-99384632D01*
X217272000Y-99210240D01*
X217388525Y-99384632D01*
X217595368Y-99591475D01*
X217838589Y-99753990D01*
X218108842Y-99865932D01*
X218395740Y-99923000D01*
X218688260Y-99923000D01*
X218975158Y-99865932D01*
X219245411Y-99753990D01*
X219488632Y-99591475D01*
X219695475Y-99384632D01*
X219812000Y-99210240D01*
X219928525Y-99384632D01*
X220135368Y-99591475D01*
X220378589Y-99753990D01*
X220648842Y-99865932D01*
X220935740Y-99923000D01*
X221228260Y-99923000D01*
X221515158Y-99865932D01*
X221785411Y-99753990D01*
X222028632Y-99591475D01*
X222235475Y-99384632D01*
X222352000Y-99210240D01*
X222468525Y-99384632D01*
X222675368Y-99591475D01*
X222918589Y-99753990D01*
X223188842Y-99865932D01*
X223475740Y-99923000D01*
X223768260Y-99923000D01*
X224055158Y-99865932D01*
X224325411Y-99753990D01*
X224568632Y-99591475D01*
X224775475Y-99384632D01*
X224892000Y-99210240D01*
X225008525Y-99384632D01*
X225215368Y-99591475D01*
X225458589Y-99753990D01*
X225728842Y-99865932D01*
X226015740Y-99923000D01*
X226308260Y-99923000D01*
X226595158Y-99865932D01*
X226865411Y-99753990D01*
X227108632Y-99591475D01*
X227315475Y-99384632D01*
X227432000Y-99210240D01*
X227548525Y-99384632D01*
X227755368Y-99591475D01*
X227998589Y-99753990D01*
X228268842Y-99865932D01*
X228555740Y-99923000D01*
X228848260Y-99923000D01*
X229060827Y-99880717D01*
X229010485Y-99956060D01*
X228928696Y-100153517D01*
X228887000Y-100363137D01*
X228887000Y-100576863D01*
X228928696Y-100786483D01*
X229010485Y-100983940D01*
X229129225Y-101161647D01*
X229280353Y-101312775D01*
X229458060Y-101431515D01*
X229655517Y-101513304D01*
X229865137Y-101555000D01*
X230078863Y-101555000D01*
X230288483Y-101513304D01*
X230485940Y-101431515D01*
X230663647Y-101312775D01*
X230814775Y-101161647D01*
X230933515Y-100983940D01*
X231015304Y-100786483D01*
X231057000Y-100576863D01*
X231057000Y-100363137D01*
X231015304Y-100153517D01*
X230933515Y-99956060D01*
X230883173Y-99880717D01*
X231095740Y-99923000D01*
X231388260Y-99923000D01*
X231675158Y-99865932D01*
X231945411Y-99753990D01*
X232188632Y-99591475D01*
X232395475Y-99384632D01*
X232512000Y-99210240D01*
X232628525Y-99384632D01*
X232835368Y-99591475D01*
X233078589Y-99753990D01*
X233348842Y-99865932D01*
X233635740Y-99923000D01*
X233928260Y-99923000D01*
X234215158Y-99865932D01*
X234485411Y-99753990D01*
X234728632Y-99591475D01*
X234935475Y-99384632D01*
X235052000Y-99210240D01*
X235168525Y-99384632D01*
X235375368Y-99591475D01*
X235618589Y-99753990D01*
X235888842Y-99865932D01*
X236175740Y-99923000D01*
X236468260Y-99923000D01*
X236755158Y-99865932D01*
X237025411Y-99753990D01*
X237268632Y-99591475D01*
X237475475Y-99384632D01*
X237592000Y-99210240D01*
X237708525Y-99384632D01*
X237915368Y-99591475D01*
X238158589Y-99753990D01*
X238428842Y-99865932D01*
X238715740Y-99923000D01*
X239008260Y-99923000D01*
X239295158Y-99865932D01*
X239565411Y-99753990D01*
X239808632Y-99591475D01*
X240015475Y-99384632D01*
X240132000Y-99210240D01*
X240248525Y-99384632D01*
X240455368Y-99591475D01*
X240698589Y-99753990D01*
X240968842Y-99865932D01*
X241255740Y-99923000D01*
X241548260Y-99923000D01*
X241835158Y-99865932D01*
X242105411Y-99753990D01*
X242348632Y-99591475D01*
X242555475Y-99384632D01*
X242672000Y-99210240D01*
X242788525Y-99384632D01*
X242995368Y-99591475D01*
X243238589Y-99753990D01*
X243508842Y-99865932D01*
X243795740Y-99923000D01*
X244088260Y-99923000D01*
X244375158Y-99865932D01*
X244645411Y-99753990D01*
X244888632Y-99591475D01*
X245095475Y-99384632D01*
X245212000Y-99210240D01*
X245328525Y-99384632D01*
X245535368Y-99591475D01*
X245778589Y-99753990D01*
X246048842Y-99865932D01*
X246335740Y-99923000D01*
X246628260Y-99923000D01*
X246915158Y-99865932D01*
X247185411Y-99753990D01*
X247428632Y-99591475D01*
X247635475Y-99384632D01*
X247752000Y-99210240D01*
X247868525Y-99384632D01*
X248075368Y-99591475D01*
X248318589Y-99753990D01*
X248588842Y-99865932D01*
X248875740Y-99923000D01*
X249168260Y-99923000D01*
X249455158Y-99865932D01*
X249725411Y-99753990D01*
X249968632Y-99591475D01*
X250175475Y-99384632D01*
X250292000Y-99210240D01*
X250408525Y-99384632D01*
X250615368Y-99591475D01*
X250858589Y-99753990D01*
X251128842Y-99865932D01*
X251415740Y-99923000D01*
X251708260Y-99923000D01*
X251995158Y-99865932D01*
X252265411Y-99753990D01*
X252508632Y-99591475D01*
X252715475Y-99384632D01*
X252832000Y-99210240D01*
X252948525Y-99384632D01*
X253155368Y-99591475D01*
X253398589Y-99753990D01*
X253668842Y-99865932D01*
X253955740Y-99923000D01*
X254248260Y-99923000D01*
X254535158Y-99865932D01*
X254805411Y-99753990D01*
X255048632Y-99591475D01*
X255255475Y-99384632D01*
X255372000Y-99210240D01*
X255488525Y-99384632D01*
X255695368Y-99591475D01*
X255938589Y-99753990D01*
X256208842Y-99865932D01*
X256495740Y-99923000D01*
X256788260Y-99923000D01*
X257075158Y-99865932D01*
X257345411Y-99753990D01*
X257588632Y-99591475D01*
X257795475Y-99384632D01*
X257957990Y-99141411D01*
X258069932Y-98871158D01*
X258127000Y-98584260D01*
X258127000Y-98291740D01*
X258069932Y-98004842D01*
X257957990Y-97734589D01*
X257795475Y-97491368D01*
X257588632Y-97284525D01*
X257414240Y-97168000D01*
X257588632Y-97051475D01*
X257795475Y-96844632D01*
X257957990Y-96601411D01*
X258069932Y-96331158D01*
X258127000Y-96044260D01*
X258127000Y-95751740D01*
X258069932Y-95464842D01*
X257957990Y-95194589D01*
X257795475Y-94951368D01*
X257588632Y-94744525D01*
X257345411Y-94582010D01*
X257075158Y-94470068D01*
X256856129Y-94426500D01*
X259852389Y-94426500D01*
X259452907Y-94693425D01*
X259003425Y-95142907D01*
X258650270Y-95671442D01*
X258407012Y-96258719D01*
X258283000Y-96882168D01*
X258283000Y-97517832D01*
X258407012Y-98141281D01*
X258650270Y-98728558D01*
X259003425Y-99257093D01*
X259452907Y-99706575D01*
X259981442Y-100059730D01*
X260568719Y-100302988D01*
X261192168Y-100427000D01*
X261827832Y-100427000D01*
X262451281Y-100302988D01*
X263038558Y-100059730D01*
X263567093Y-99706575D01*
X264016575Y-99257093D01*
X264369730Y-98728558D01*
X264612988Y-98141281D01*
X264737000Y-97517832D01*
X264737000Y-96882168D01*
X264612988Y-96258719D01*
X264369730Y-95671442D01*
X264016575Y-95142907D01*
X263567093Y-94693425D01*
X263167611Y-94426500D01*
X281974155Y-94426500D01*
X282449355Y-94473093D01*
X282871881Y-94600661D01*
X283261581Y-94807868D01*
X283603611Y-95086820D01*
X283884948Y-95426898D01*
X284094870Y-95815139D01*
X284225385Y-96236768D01*
X284275101Y-96709772D01*
X284275100Y-146655546D01*
X284228506Y-147130756D01*
X284100937Y-147553282D01*
X283893731Y-147942980D01*
X283614776Y-148285014D01*
X283274704Y-148566347D01*
X282886456Y-148776272D01*
X282464836Y-148906784D01*
X281991837Y-148956500D01*
X262479700Y-148956500D01*
X262896455Y-148783874D01*
X263375854Y-148463550D01*
X263783550Y-148055854D01*
X264103874Y-147576455D01*
X264324518Y-147043775D01*
X264437000Y-146478284D01*
X264437000Y-145901716D01*
X264324518Y-145336225D01*
X264103874Y-144803545D01*
X263783550Y-144324146D01*
X263375854Y-143916450D01*
X262896455Y-143596126D01*
X262363775Y-143375482D01*
X261798284Y-143263000D01*
X261221716Y-143263000D01*
X260656225Y-143375482D01*
X260123545Y-143596126D01*
X259644146Y-143916450D01*
X259236450Y-144324146D01*
X258916126Y-144803545D01*
X258695482Y-145336225D01*
X258583000Y-145901716D01*
X258583000Y-146478284D01*
X258695482Y-147043775D01*
X258916126Y-147576455D01*
X259236450Y-148055854D01*
X259644146Y-148463550D01*
X260123545Y-148783874D01*
X260540300Y-148956500D01*
X205193053Y-148956500D01*
X205567093Y-148706575D01*
X206016575Y-148257093D01*
X206369730Y-147728558D01*
X206612988Y-147141281D01*
X206737000Y-146517832D01*
X206737000Y-145882168D01*
X206612988Y-145258719D01*
X206369730Y-144671442D01*
X206016575Y-144142907D01*
X205930968Y-144057300D01*
X208677008Y-144057300D01*
X208677008Y-145757300D01*
X208689268Y-145881782D01*
X208725578Y-146001480D01*
X208784543Y-146111794D01*
X208863895Y-146208485D01*
X208960586Y-146287837D01*
X209070900Y-146346802D01*
X209143460Y-146368813D01*
X209011605Y-146500668D01*
X208849090Y-146743889D01*
X208737148Y-147014142D01*
X208680080Y-147301040D01*
X208680080Y-147593560D01*
X208737148Y-147880458D01*
X208849090Y-148150711D01*
X209011605Y-148393932D01*
X209218448Y-148600775D01*
X209461669Y-148763290D01*
X209731922Y-148875232D01*
X210018820Y-148932300D01*
X210311340Y-148932300D01*
X210598238Y-148875232D01*
X210868491Y-148763290D01*
X211111712Y-148600775D01*
X211318555Y-148393932D01*
X211435080Y-148219540D01*
X211551605Y-148393932D01*
X211758448Y-148600775D01*
X212001669Y-148763290D01*
X212271922Y-148875232D01*
X212558820Y-148932300D01*
X212851340Y-148932300D01*
X213138238Y-148875232D01*
X213408491Y-148763290D01*
X213651712Y-148600775D01*
X213858555Y-148393932D01*
X213975080Y-148219540D01*
X214091605Y-148393932D01*
X214298448Y-148600775D01*
X214541669Y-148763290D01*
X214811922Y-148875232D01*
X215098820Y-148932300D01*
X215391340Y-148932300D01*
X215678238Y-148875232D01*
X215948491Y-148763290D01*
X216191712Y-148600775D01*
X216398555Y-148393932D01*
X216515080Y-148219540D01*
X216631605Y-148393932D01*
X216838448Y-148600775D01*
X217081669Y-148763290D01*
X217351922Y-148875232D01*
X217638820Y-148932300D01*
X217931340Y-148932300D01*
X218218238Y-148875232D01*
X218488491Y-148763290D01*
X218731712Y-148600775D01*
X218938555Y-148393932D01*
X219101070Y-148150711D01*
X219213012Y-147880458D01*
X219270080Y-147593560D01*
X219270080Y-147301040D01*
X219213012Y-147014142D01*
X219101070Y-146743889D01*
X218938555Y-146500668D01*
X218731712Y-146293825D01*
X218557320Y-146177300D01*
X218731712Y-146060775D01*
X218938555Y-145853932D01*
X219101070Y-145610711D01*
X219213012Y-145340458D01*
X219270080Y-145053560D01*
X219270080Y-144761040D01*
X219256574Y-144693137D01*
X226315000Y-144693137D01*
X226315000Y-144906863D01*
X226356696Y-145116483D01*
X226438485Y-145313940D01*
X226557225Y-145491647D01*
X226615578Y-145550000D01*
X226557225Y-145608353D01*
X226438485Y-145786060D01*
X226356696Y-145983517D01*
X226315000Y-146193137D01*
X226315000Y-146406863D01*
X226356696Y-146616483D01*
X226438485Y-146813940D01*
X226557225Y-146991647D01*
X226565578Y-147000000D01*
X226557225Y-147008353D01*
X226438485Y-147186060D01*
X226356696Y-147383517D01*
X226315000Y-147593137D01*
X226315000Y-147806863D01*
X226356696Y-148016483D01*
X226438485Y-148213940D01*
X226557225Y-148391647D01*
X226708353Y-148542775D01*
X226886060Y-148661515D01*
X227083517Y-148743304D01*
X227293137Y-148785000D01*
X227506863Y-148785000D01*
X227716483Y-148743304D01*
X227913940Y-148661515D01*
X228091647Y-148542775D01*
X228242775Y-148391647D01*
X228350000Y-148231173D01*
X228457225Y-148391647D01*
X228608353Y-148542775D01*
X228786060Y-148661515D01*
X228983517Y-148743304D01*
X229193137Y-148785000D01*
X229406863Y-148785000D01*
X229616483Y-148743304D01*
X229813940Y-148661515D01*
X229991647Y-148542775D01*
X230142775Y-148391647D01*
X230261515Y-148213940D01*
X230343304Y-148016483D01*
X230385000Y-147806863D01*
X230385000Y-147593137D01*
X230343304Y-147383517D01*
X230261515Y-147186060D01*
X230142775Y-147008353D01*
X230076138Y-146941716D01*
X230161515Y-146813940D01*
X230243304Y-146616483D01*
X230285000Y-146406863D01*
X230285000Y-146193137D01*
X230243304Y-145983517D01*
X230161515Y-145786060D01*
X230042775Y-145608353D01*
X230034422Y-145600000D01*
X230042775Y-145591647D01*
X230161515Y-145413940D01*
X230243304Y-145216483D01*
X230285000Y-145006863D01*
X230285000Y-144793137D01*
X230243304Y-144583517D01*
X230161515Y-144386060D01*
X230042775Y-144208353D01*
X229891647Y-144057225D01*
X229713940Y-143938485D01*
X229516483Y-143856696D01*
X229306863Y-143815000D01*
X229093137Y-143815000D01*
X228883517Y-143856696D01*
X228686060Y-143938485D01*
X228508353Y-144057225D01*
X228357225Y-144208353D01*
X228333409Y-144243996D01*
X228242775Y-144108353D01*
X228091647Y-143957225D01*
X227913940Y-143838485D01*
X227716483Y-143756696D01*
X227506863Y-143715000D01*
X227293137Y-143715000D01*
X227083517Y-143756696D01*
X226886060Y-143838485D01*
X226708353Y-143957225D01*
X226557225Y-144108353D01*
X226438485Y-144286060D01*
X226356696Y-144483517D01*
X226315000Y-144693137D01*
X219256574Y-144693137D01*
X219213012Y-144474142D01*
X219101070Y-144203889D01*
X218938555Y-143960668D01*
X218731712Y-143753825D01*
X218488491Y-143591310D01*
X218218238Y-143479368D01*
X217931340Y-143422300D01*
X217638820Y-143422300D01*
X217351922Y-143479368D01*
X217081669Y-143591310D01*
X216838448Y-143753825D01*
X216631605Y-143960668D01*
X216515080Y-144135060D01*
X216398555Y-143960668D01*
X216191712Y-143753825D01*
X215948491Y-143591310D01*
X215678238Y-143479368D01*
X215391340Y-143422300D01*
X215098820Y-143422300D01*
X214811922Y-143479368D01*
X214541669Y-143591310D01*
X214298448Y-143753825D01*
X214091605Y-143960668D01*
X213975080Y-144135060D01*
X213858555Y-143960668D01*
X213651712Y-143753825D01*
X213408491Y-143591310D01*
X213138238Y-143479368D01*
X212851340Y-143422300D01*
X212558820Y-143422300D01*
X212271922Y-143479368D01*
X212001669Y-143591310D01*
X211758448Y-143753825D01*
X211626593Y-143885680D01*
X211604582Y-143813120D01*
X211545617Y-143702806D01*
X211466265Y-143606115D01*
X211369574Y-143526763D01*
X211259260Y-143467798D01*
X211139562Y-143431488D01*
X211015080Y-143419228D01*
X209315080Y-143419228D01*
X209190598Y-143431488D01*
X209070900Y-143467798D01*
X208960586Y-143526763D01*
X208863895Y-143606115D01*
X208784543Y-143702806D01*
X208725578Y-143813120D01*
X208689268Y-143932818D01*
X208677008Y-144057300D01*
X205930968Y-144057300D01*
X205567093Y-143693425D01*
X205038558Y-143340270D01*
X204451281Y-143097012D01*
X203827832Y-142973000D01*
X203192168Y-142973000D01*
X202568719Y-143097012D01*
X201981442Y-143340270D01*
X201452907Y-143693425D01*
X201003425Y-144142907D01*
X200745100Y-144529519D01*
X200745100Y-138589721D01*
X202575000Y-138589721D01*
X202575000Y-139010279D01*
X202657047Y-139422756D01*
X202817988Y-139811302D01*
X203051637Y-140160983D01*
X203349017Y-140458363D01*
X203698698Y-140692012D01*
X204087244Y-140852953D01*
X204499721Y-140935000D01*
X204920279Y-140935000D01*
X205332756Y-140852953D01*
X205721302Y-140692012D01*
X206070983Y-140458363D01*
X206368363Y-140160983D01*
X206602012Y-139811302D01*
X206762953Y-139422756D01*
X206805782Y-139207437D01*
X225000700Y-139207437D01*
X225000700Y-139421163D01*
X225042396Y-139630783D01*
X225124185Y-139828240D01*
X225242925Y-140005947D01*
X225394053Y-140157075D01*
X225571760Y-140275815D01*
X225769217Y-140357604D01*
X225978837Y-140399300D01*
X226192563Y-140399300D01*
X226402183Y-140357604D01*
X226599640Y-140275815D01*
X226777347Y-140157075D01*
X226928475Y-140005947D01*
X227047215Y-139828240D01*
X227129004Y-139630783D01*
X227170700Y-139421163D01*
X227170700Y-139207437D01*
X227129004Y-138997817D01*
X227047215Y-138800360D01*
X226928475Y-138622653D01*
X226777347Y-138471525D01*
X226599640Y-138352785D01*
X226402183Y-138270996D01*
X226192563Y-138229300D01*
X225978837Y-138229300D01*
X225769217Y-138270996D01*
X225571760Y-138352785D01*
X225394053Y-138471525D01*
X225242925Y-138622653D01*
X225124185Y-138800360D01*
X225042396Y-138997817D01*
X225000700Y-139207437D01*
X206805782Y-139207437D01*
X206845000Y-139010279D01*
X206845000Y-138589721D01*
X206762953Y-138177244D01*
X206602012Y-137788698D01*
X206556110Y-137720000D01*
X248041928Y-137720000D01*
X248041928Y-139420000D01*
X248054188Y-139544482D01*
X248090498Y-139664180D01*
X248149463Y-139774494D01*
X248228815Y-139871185D01*
X248325506Y-139950537D01*
X248435820Y-140009502D01*
X248508380Y-140031513D01*
X248376525Y-140163368D01*
X248214010Y-140406589D01*
X248102068Y-140676842D01*
X248045000Y-140963740D01*
X248045000Y-141256260D01*
X248102068Y-141543158D01*
X248214010Y-141813411D01*
X248376525Y-142056632D01*
X248583368Y-142263475D01*
X248826589Y-142425990D01*
X249096842Y-142537932D01*
X249383740Y-142595000D01*
X249676260Y-142595000D01*
X249963158Y-142537932D01*
X250233411Y-142425990D01*
X250476632Y-142263475D01*
X250683475Y-142056632D01*
X250800000Y-141882240D01*
X250916525Y-142056632D01*
X251123368Y-142263475D01*
X251366589Y-142425990D01*
X251636842Y-142537932D01*
X251923740Y-142595000D01*
X252216260Y-142595000D01*
X252503158Y-142537932D01*
X252773411Y-142425990D01*
X253016632Y-142263475D01*
X253223475Y-142056632D01*
X253385990Y-141813411D01*
X253497932Y-141543158D01*
X253555000Y-141256260D01*
X253555000Y-140963740D01*
X253497932Y-140676842D01*
X253385990Y-140406589D01*
X253223475Y-140163368D01*
X253091620Y-140031513D01*
X253164180Y-140009502D01*
X253274494Y-139950537D01*
X253371185Y-139871185D01*
X253450537Y-139774494D01*
X253509502Y-139664180D01*
X253545812Y-139544482D01*
X253558072Y-139420000D01*
X253558072Y-137720000D01*
X253545812Y-137595518D01*
X253509502Y-137475820D01*
X253450537Y-137365506D01*
X253371185Y-137268815D01*
X253274494Y-137189463D01*
X253164180Y-137130498D01*
X253044482Y-137094188D01*
X252920000Y-137081928D01*
X251220000Y-137081928D01*
X251095518Y-137094188D01*
X250975820Y-137130498D01*
X250865506Y-137189463D01*
X250800000Y-137243222D01*
X250734494Y-137189463D01*
X250624180Y-137130498D01*
X250504482Y-137094188D01*
X250380000Y-137081928D01*
X248680000Y-137081928D01*
X248555518Y-137094188D01*
X248435820Y-137130498D01*
X248325506Y-137189463D01*
X248228815Y-137268815D01*
X248149463Y-137365506D01*
X248090498Y-137475820D01*
X248054188Y-137595518D01*
X248041928Y-137720000D01*
X206556110Y-137720000D01*
X206368363Y-137439017D01*
X206070983Y-137141637D01*
X205721302Y-136907988D01*
X205332756Y-136747047D01*
X204920279Y-136665000D01*
X204499721Y-136665000D01*
X204087244Y-136747047D01*
X203698698Y-136907988D01*
X203349017Y-137141637D01*
X203051637Y-137439017D01*
X202817988Y-137788698D01*
X202657047Y-138177244D01*
X202575000Y-138589721D01*
X200745100Y-138589721D01*
X200745100Y-136193137D01*
X217115000Y-136193137D01*
X217115000Y-136406863D01*
X217156696Y-136616483D01*
X217238485Y-136813940D01*
X217357225Y-136991647D01*
X217508353Y-137142775D01*
X217686060Y-137261515D01*
X217883517Y-137343304D01*
X218093137Y-137385000D01*
X218306863Y-137385000D01*
X218516483Y-137343304D01*
X218713940Y-137261515D01*
X218891647Y-137142775D01*
X219042775Y-136991647D01*
X219161515Y-136813940D01*
X219243304Y-136616483D01*
X219285000Y-136406863D01*
X219285000Y-136193137D01*
X219243304Y-135983517D01*
X219161515Y-135786060D01*
X219042775Y-135608353D01*
X218891647Y-135457225D01*
X218713940Y-135338485D01*
X218516483Y-135256696D01*
X218306863Y-135215000D01*
X218093137Y-135215000D01*
X217883517Y-135256696D01*
X217686060Y-135338485D01*
X217508353Y-135457225D01*
X217357225Y-135608353D01*
X217238485Y-135786060D01*
X217156696Y-135983517D01*
X217115000Y-136193137D01*
X200745100Y-136193137D01*
X200745100Y-135211653D01*
X203397952Y-135211653D01*
X203553962Y-135527214D01*
X203928745Y-135718020D01*
X204333551Y-135832044D01*
X204752824Y-135864902D01*
X205170451Y-135815334D01*
X205570383Y-135685243D01*
X205866038Y-135527214D01*
X206022048Y-135211653D01*
X204710000Y-133899605D01*
X203397952Y-135211653D01*
X200745100Y-135211653D01*
X200745100Y-133762824D01*
X202565098Y-133762824D01*
X202614666Y-134180451D01*
X202744757Y-134580383D01*
X202902786Y-134876038D01*
X203218347Y-135032048D01*
X204530395Y-133720000D01*
X204889605Y-133720000D01*
X206201653Y-135032048D01*
X206517214Y-134876038D01*
X206708020Y-134501255D01*
X206822044Y-134096449D01*
X206854902Y-133677176D01*
X206805334Y-133259549D01*
X206675243Y-132859617D01*
X206586259Y-132693137D01*
X225585000Y-132693137D01*
X225585000Y-132906863D01*
X225626696Y-133116483D01*
X225708485Y-133313940D01*
X225827225Y-133491647D01*
X225978353Y-133642775D01*
X226156060Y-133761515D01*
X226353517Y-133843304D01*
X226563137Y-133885000D01*
X226776863Y-133885000D01*
X226986483Y-133843304D01*
X227183940Y-133761515D01*
X227361647Y-133642775D01*
X227512775Y-133491647D01*
X227631515Y-133313940D01*
X227713304Y-133116483D01*
X227755000Y-132906863D01*
X227755000Y-132693137D01*
X227717943Y-132506837D01*
X239298460Y-132506837D01*
X239298460Y-132720563D01*
X239340156Y-132930183D01*
X239421945Y-133127640D01*
X239540685Y-133305347D01*
X239691813Y-133456475D01*
X239869520Y-133575215D01*
X240066977Y-133657004D01*
X240276597Y-133698700D01*
X240490323Y-133698700D01*
X240699943Y-133657004D01*
X240897400Y-133575215D01*
X241075107Y-133456475D01*
X241226235Y-133305347D01*
X241344975Y-133127640D01*
X241426764Y-132930183D01*
X241468460Y-132720563D01*
X241468460Y-132506837D01*
X241426764Y-132297217D01*
X241344975Y-132099760D01*
X241226235Y-131922053D01*
X241075107Y-131770925D01*
X240897400Y-131652185D01*
X240699943Y-131570396D01*
X240490323Y-131528700D01*
X240276597Y-131528700D01*
X240066977Y-131570396D01*
X239869520Y-131652185D01*
X239691813Y-131770925D01*
X239540685Y-131922053D01*
X239421945Y-132099760D01*
X239340156Y-132297217D01*
X239298460Y-132506837D01*
X227717943Y-132506837D01*
X227713304Y-132483517D01*
X227631515Y-132286060D01*
X227512775Y-132108353D01*
X227361647Y-131957225D01*
X227183940Y-131838485D01*
X226986483Y-131756696D01*
X226776863Y-131715000D01*
X226563137Y-131715000D01*
X226353517Y-131756696D01*
X226156060Y-131838485D01*
X225978353Y-131957225D01*
X225827225Y-132108353D01*
X225708485Y-132286060D01*
X225626696Y-132483517D01*
X225585000Y-132693137D01*
X206586259Y-132693137D01*
X206517214Y-132563962D01*
X206201653Y-132407952D01*
X204889605Y-133720000D01*
X204530395Y-133720000D01*
X203218347Y-132407952D01*
X202902786Y-132563962D01*
X202711980Y-132938745D01*
X202597956Y-133343551D01*
X202565098Y-133762824D01*
X200745100Y-133762824D01*
X200745100Y-132228347D01*
X203397952Y-132228347D01*
X204710000Y-133540395D01*
X206022048Y-132228347D01*
X205866038Y-131912786D01*
X205491255Y-131721980D01*
X205086449Y-131607956D01*
X204667176Y-131575098D01*
X204249549Y-131624666D01*
X203849617Y-131754757D01*
X203553962Y-131912786D01*
X203397952Y-132228347D01*
X200745100Y-132228347D01*
X200745100Y-130131653D01*
X203397952Y-130131653D01*
X203553962Y-130447214D01*
X203928745Y-130638020D01*
X204333551Y-130752044D01*
X204752824Y-130784902D01*
X205170451Y-130735334D01*
X205570383Y-130605243D01*
X205866038Y-130447214D01*
X206022048Y-130131653D01*
X204710000Y-128819605D01*
X203397952Y-130131653D01*
X200745100Y-130131653D01*
X200745100Y-128682824D01*
X202565098Y-128682824D01*
X202614666Y-129100451D01*
X202744757Y-129500383D01*
X202902786Y-129796038D01*
X203218347Y-129952048D01*
X204530395Y-128640000D01*
X204889605Y-128640000D01*
X206201653Y-129952048D01*
X206517214Y-129796038D01*
X206708020Y-129421255D01*
X206822044Y-129016449D01*
X206854902Y-128597176D01*
X206805334Y-128179549D01*
X206675243Y-127779617D01*
X206517214Y-127483962D01*
X206201653Y-127327952D01*
X204889605Y-128640000D01*
X204530395Y-128640000D01*
X203218347Y-127327952D01*
X202902786Y-127483962D01*
X202711980Y-127858745D01*
X202597956Y-128263551D01*
X202565098Y-128682824D01*
X200745100Y-128682824D01*
X200745100Y-127148347D01*
X203397952Y-127148347D01*
X204710000Y-128460395D01*
X206022048Y-127148347D01*
X205866038Y-126832786D01*
X205491255Y-126641980D01*
X205086449Y-126527956D01*
X204667176Y-126495098D01*
X204249549Y-126544666D01*
X203849617Y-126674757D01*
X203553962Y-126832786D01*
X203397952Y-127148347D01*
X200745100Y-127148347D01*
X200745100Y-126290000D01*
X248041928Y-126290000D01*
X248041928Y-127990000D01*
X248054188Y-128114482D01*
X248090498Y-128234180D01*
X248149463Y-128344494D01*
X248228815Y-128441185D01*
X248325506Y-128520537D01*
X248435820Y-128579502D01*
X248508380Y-128601513D01*
X248376525Y-128733368D01*
X248214010Y-128976589D01*
X248102068Y-129246842D01*
X248045000Y-129533740D01*
X248045000Y-129826260D01*
X248102068Y-130113158D01*
X248214010Y-130383411D01*
X248376525Y-130626632D01*
X248583368Y-130833475D01*
X248826589Y-130995990D01*
X249096842Y-131107932D01*
X249383740Y-131165000D01*
X249676260Y-131165000D01*
X249963158Y-131107932D01*
X250233411Y-130995990D01*
X250476632Y-130833475D01*
X250683475Y-130626632D01*
X250800000Y-130452240D01*
X250916525Y-130626632D01*
X251123368Y-130833475D01*
X251366589Y-130995990D01*
X251636842Y-131107932D01*
X251923740Y-131165000D01*
X252216260Y-131165000D01*
X252503158Y-131107932D01*
X252773411Y-130995990D01*
X253016632Y-130833475D01*
X253223475Y-130626632D01*
X253385990Y-130383411D01*
X253497932Y-130113158D01*
X253555000Y-129826260D01*
X253555000Y-129533740D01*
X253497932Y-129246842D01*
X253385990Y-128976589D01*
X253223475Y-128733368D01*
X253091620Y-128601513D01*
X253164180Y-128579502D01*
X253274494Y-128520537D01*
X253371185Y-128441185D01*
X253450537Y-128344494D01*
X253509502Y-128234180D01*
X253545812Y-128114482D01*
X253558072Y-127990000D01*
X253558072Y-126290000D01*
X253545812Y-126165518D01*
X253509502Y-126045820D01*
X253450537Y-125935506D01*
X253371185Y-125838815D01*
X253274494Y-125759463D01*
X253164180Y-125700498D01*
X253044482Y-125664188D01*
X252920000Y-125651928D01*
X251220000Y-125651928D01*
X251095518Y-125664188D01*
X250975820Y-125700498D01*
X250865506Y-125759463D01*
X250800000Y-125813222D01*
X250734494Y-125759463D01*
X250624180Y-125700498D01*
X250504482Y-125664188D01*
X250380000Y-125651928D01*
X248680000Y-125651928D01*
X248555518Y-125664188D01*
X248435820Y-125700498D01*
X248325506Y-125759463D01*
X248228815Y-125838815D01*
X248149463Y-125935506D01*
X248090498Y-126045820D01*
X248054188Y-126165518D01*
X248041928Y-126290000D01*
X200745100Y-126290000D01*
X200745100Y-122060000D01*
X202571928Y-122060000D01*
X202571928Y-125060000D01*
X202584188Y-125184482D01*
X202620498Y-125304180D01*
X202679463Y-125414494D01*
X202758815Y-125511185D01*
X202855506Y-125590537D01*
X202965820Y-125649502D01*
X203085518Y-125685812D01*
X203210000Y-125698072D01*
X206210000Y-125698072D01*
X206334482Y-125685812D01*
X206454180Y-125649502D01*
X206564494Y-125590537D01*
X206661185Y-125511185D01*
X206740537Y-125414494D01*
X206799502Y-125304180D01*
X206835812Y-125184482D01*
X206848072Y-125060000D01*
X206848072Y-123223137D01*
X217965000Y-123223137D01*
X217965000Y-123436863D01*
X218006696Y-123646483D01*
X218088485Y-123843940D01*
X218207225Y-124021647D01*
X218358353Y-124172775D01*
X218536060Y-124291515D01*
X218733517Y-124373304D01*
X218943137Y-124415000D01*
X219156863Y-124415000D01*
X219366483Y-124373304D01*
X219563940Y-124291515D01*
X219741647Y-124172775D01*
X219892775Y-124021647D01*
X220011515Y-123843940D01*
X220093304Y-123646483D01*
X220135000Y-123436863D01*
X220135000Y-123223137D01*
X220305000Y-123223137D01*
X220305000Y-123436863D01*
X220346696Y-123646483D01*
X220428485Y-123843940D01*
X220547225Y-124021647D01*
X220698353Y-124172775D01*
X220876060Y-124291515D01*
X221073517Y-124373304D01*
X221283137Y-124415000D01*
X221496863Y-124415000D01*
X221706483Y-124373304D01*
X221903940Y-124291515D01*
X221971077Y-124246655D01*
X240060000Y-124246655D01*
X240060000Y-124593345D01*
X240127636Y-124933373D01*
X240260308Y-125253673D01*
X240452919Y-125541935D01*
X240698065Y-125787081D01*
X240986327Y-125979692D01*
X241306627Y-126112364D01*
X241646655Y-126180000D01*
X241993345Y-126180000D01*
X242333373Y-126112364D01*
X242653673Y-125979692D01*
X242941935Y-125787081D01*
X243187081Y-125541935D01*
X243379692Y-125253673D01*
X243512364Y-124933373D01*
X243580000Y-124593345D01*
X243580000Y-124246655D01*
X243512364Y-123906627D01*
X243379692Y-123586327D01*
X243187081Y-123298065D01*
X242941935Y-123052919D01*
X242653673Y-122860308D01*
X242333373Y-122727636D01*
X241993345Y-122660000D01*
X241646655Y-122660000D01*
X241306627Y-122727636D01*
X240986327Y-122860308D01*
X240698065Y-123052919D01*
X240452919Y-123298065D01*
X240260308Y-123586327D01*
X240127636Y-123906627D01*
X240060000Y-124246655D01*
X221971077Y-124246655D01*
X222081647Y-124172775D01*
X222232775Y-124021647D01*
X222351515Y-123843940D01*
X222433304Y-123646483D01*
X222475000Y-123436863D01*
X222475000Y-123223137D01*
X222433304Y-123013517D01*
X222351515Y-122816060D01*
X222232775Y-122638353D01*
X222081647Y-122487225D01*
X221903940Y-122368485D01*
X221706483Y-122286696D01*
X221496863Y-122245000D01*
X221283137Y-122245000D01*
X221073517Y-122286696D01*
X220876060Y-122368485D01*
X220698353Y-122487225D01*
X220547225Y-122638353D01*
X220428485Y-122816060D01*
X220346696Y-123013517D01*
X220305000Y-123223137D01*
X220135000Y-123223137D01*
X220093304Y-123013517D01*
X220011515Y-122816060D01*
X219892775Y-122638353D01*
X219741647Y-122487225D01*
X219563940Y-122368485D01*
X219366483Y-122286696D01*
X219156863Y-122245000D01*
X218943137Y-122245000D01*
X218733517Y-122286696D01*
X218536060Y-122368485D01*
X218358353Y-122487225D01*
X218207225Y-122638353D01*
X218088485Y-122816060D01*
X218006696Y-123013517D01*
X217965000Y-123223137D01*
X206848072Y-123223137D01*
X206848072Y-122060000D01*
X206835812Y-121935518D01*
X206799502Y-121815820D01*
X206740537Y-121705506D01*
X206661185Y-121608815D01*
X206564494Y-121529463D01*
X206454180Y-121470498D01*
X206334482Y-121434188D01*
X206210000Y-121421928D01*
X203210000Y-121421928D01*
X203085518Y-121434188D01*
X202965820Y-121470498D01*
X202855506Y-121529463D01*
X202758815Y-121608815D01*
X202679463Y-121705506D01*
X202620498Y-121815820D01*
X202584188Y-121935518D01*
X202571928Y-122060000D01*
X200745100Y-122060000D01*
X200745100Y-116662094D01*
X201695200Y-116662094D01*
X201695200Y-116925066D01*
X201746504Y-117182985D01*
X201847139Y-117425939D01*
X201993238Y-117644593D01*
X202179187Y-117830542D01*
X202397841Y-117976641D01*
X202640795Y-118077276D01*
X202898714Y-118128580D01*
X203161686Y-118128580D01*
X203419605Y-118077276D01*
X203662559Y-117976641D01*
X203881213Y-117830542D01*
X203958695Y-117753060D01*
X213688428Y-117753060D01*
X213688428Y-119453060D01*
X213700688Y-119577542D01*
X213736998Y-119697240D01*
X213795963Y-119807554D01*
X213875315Y-119904245D01*
X213972006Y-119983597D01*
X214082320Y-120042562D01*
X214154880Y-120064573D01*
X214023025Y-120196428D01*
X213860510Y-120439649D01*
X213748568Y-120709902D01*
X213691500Y-120996800D01*
X213691500Y-121289320D01*
X213748568Y-121576218D01*
X213860510Y-121846471D01*
X214023025Y-122089692D01*
X214229868Y-122296535D01*
X214473089Y-122459050D01*
X214743342Y-122570992D01*
X215030240Y-122628060D01*
X215322760Y-122628060D01*
X215609658Y-122570992D01*
X215879911Y-122459050D01*
X216123132Y-122296535D01*
X216329975Y-122089692D01*
X216492490Y-121846471D01*
X216604432Y-121576218D01*
X216661500Y-121289320D01*
X216661500Y-120996800D01*
X216604432Y-120709902D01*
X216492490Y-120439649D01*
X216329975Y-120196428D01*
X216198120Y-120064573D01*
X216270680Y-120042562D01*
X216380994Y-119983597D01*
X216477685Y-119904245D01*
X216557037Y-119807554D01*
X216616002Y-119697240D01*
X216652312Y-119577542D01*
X216664572Y-119453060D01*
X216664572Y-117753060D01*
X216652312Y-117628578D01*
X216616002Y-117508880D01*
X216557037Y-117398566D01*
X216477685Y-117301875D01*
X216380994Y-117222523D01*
X216270680Y-117163558D01*
X216150982Y-117127248D01*
X216026500Y-117114988D01*
X214326500Y-117114988D01*
X214202018Y-117127248D01*
X214082320Y-117163558D01*
X213972006Y-117222523D01*
X213875315Y-117301875D01*
X213795963Y-117398566D01*
X213736998Y-117508880D01*
X213700688Y-117628578D01*
X213688428Y-117753060D01*
X203958695Y-117753060D01*
X204067162Y-117644593D01*
X204213261Y-117425939D01*
X204313896Y-117182985D01*
X204365200Y-116925066D01*
X204365200Y-116662094D01*
X204358151Y-116626655D01*
X219740000Y-116626655D01*
X219740000Y-116973345D01*
X219807636Y-117313373D01*
X219940308Y-117633673D01*
X220132919Y-117921935D01*
X220378065Y-118167081D01*
X220666327Y-118359692D01*
X220986627Y-118492364D01*
X221326655Y-118560000D01*
X221673345Y-118560000D01*
X222013373Y-118492364D01*
X222333673Y-118359692D01*
X222621935Y-118167081D01*
X222867081Y-117921935D01*
X223059692Y-117633673D01*
X223192364Y-117313373D01*
X223260000Y-116973345D01*
X223260000Y-116626655D01*
X223192364Y-116286627D01*
X223059692Y-115966327D01*
X222867081Y-115678065D01*
X222621935Y-115432919D01*
X222333673Y-115240308D01*
X222013373Y-115107636D01*
X221673345Y-115040000D01*
X221326655Y-115040000D01*
X220986627Y-115107636D01*
X220666327Y-115240308D01*
X220378065Y-115432919D01*
X220132919Y-115678065D01*
X219940308Y-115966327D01*
X219807636Y-116286627D01*
X219740000Y-116626655D01*
X204358151Y-116626655D01*
X204313896Y-116404175D01*
X204213261Y-116161221D01*
X204067162Y-115942567D01*
X203881213Y-115756618D01*
X203662559Y-115610519D01*
X203419605Y-115509884D01*
X203184857Y-115463189D01*
X211540197Y-115463189D01*
X211726273Y-115804346D01*
X212143609Y-116020093D01*
X212595015Y-116150276D01*
X213063146Y-116189893D01*
X213530011Y-116137422D01*
X213977668Y-115994877D01*
X214334127Y-115804346D01*
X214520203Y-115463189D01*
X213030200Y-113973185D01*
X211540197Y-115463189D01*
X203184857Y-115463189D01*
X203161686Y-115458580D01*
X202898714Y-115458580D01*
X202640795Y-115509884D01*
X202397841Y-115610519D01*
X202179187Y-115756618D01*
X201993238Y-115942567D01*
X201847139Y-116161221D01*
X201746504Y-116404175D01*
X201695200Y-116662094D01*
X200745100Y-116662094D01*
X200745100Y-113826526D01*
X210633887Y-113826526D01*
X210686358Y-114293391D01*
X210828903Y-114741048D01*
X211019434Y-115097507D01*
X211360591Y-115283583D01*
X212850595Y-113793580D01*
X213209805Y-113793580D01*
X214699809Y-115283583D01*
X215040966Y-115097507D01*
X215256713Y-114680171D01*
X215386896Y-114228765D01*
X215398922Y-114086655D01*
X240060000Y-114086655D01*
X240060000Y-114433345D01*
X240127636Y-114773373D01*
X240260308Y-115093673D01*
X240452919Y-115381935D01*
X240698065Y-115627081D01*
X240986327Y-115819692D01*
X241306627Y-115952364D01*
X241646655Y-116020000D01*
X241993345Y-116020000D01*
X242333373Y-115952364D01*
X242653673Y-115819692D01*
X242941935Y-115627081D01*
X243187081Y-115381935D01*
X243379692Y-115093673D01*
X243512364Y-114773373D01*
X243580000Y-114433345D01*
X243580000Y-114086655D01*
X243512364Y-113746627D01*
X243447488Y-113590000D01*
X248041928Y-113590000D01*
X248041928Y-115290000D01*
X248054188Y-115414482D01*
X248090498Y-115534180D01*
X248149463Y-115644494D01*
X248228815Y-115741185D01*
X248325506Y-115820537D01*
X248435820Y-115879502D01*
X248508380Y-115901513D01*
X248376525Y-116033368D01*
X248214010Y-116276589D01*
X248102068Y-116546842D01*
X248045000Y-116833740D01*
X248045000Y-117126260D01*
X248102068Y-117413158D01*
X248214010Y-117683411D01*
X248376525Y-117926632D01*
X248583368Y-118133475D01*
X248826589Y-118295990D01*
X249096842Y-118407932D01*
X249383740Y-118465000D01*
X249676260Y-118465000D01*
X249963158Y-118407932D01*
X250233411Y-118295990D01*
X250476632Y-118133475D01*
X250683475Y-117926632D01*
X250800000Y-117752240D01*
X250916525Y-117926632D01*
X251123368Y-118133475D01*
X251366589Y-118295990D01*
X251636842Y-118407932D01*
X251923740Y-118465000D01*
X252216260Y-118465000D01*
X252503158Y-118407932D01*
X252773411Y-118295990D01*
X253016632Y-118133475D01*
X253223475Y-117926632D01*
X253385990Y-117683411D01*
X253497932Y-117413158D01*
X253555000Y-117126260D01*
X253555000Y-116833740D01*
X253497932Y-116546842D01*
X253385990Y-116276589D01*
X253223475Y-116033368D01*
X253091620Y-115901513D01*
X253164180Y-115879502D01*
X253274494Y-115820537D01*
X253371185Y-115741185D01*
X253450537Y-115644494D01*
X253509502Y-115534180D01*
X253545812Y-115414482D01*
X253558072Y-115290000D01*
X253558072Y-113590000D01*
X253545812Y-113465518D01*
X253509502Y-113345820D01*
X253450537Y-113235506D01*
X253371185Y-113138815D01*
X253274494Y-113059463D01*
X253164180Y-113000498D01*
X253044482Y-112964188D01*
X252920000Y-112951928D01*
X251220000Y-112951928D01*
X251095518Y-112964188D01*
X250975820Y-113000498D01*
X250865506Y-113059463D01*
X250800000Y-113113222D01*
X250734494Y-113059463D01*
X250624180Y-113000498D01*
X250504482Y-112964188D01*
X250380000Y-112951928D01*
X248680000Y-112951928D01*
X248555518Y-112964188D01*
X248435820Y-113000498D01*
X248325506Y-113059463D01*
X248228815Y-113138815D01*
X248149463Y-113235506D01*
X248090498Y-113345820D01*
X248054188Y-113465518D01*
X248041928Y-113590000D01*
X243447488Y-113590000D01*
X243379692Y-113426327D01*
X243187081Y-113138065D01*
X242941935Y-112892919D01*
X242653673Y-112700308D01*
X242333373Y-112567636D01*
X241993345Y-112500000D01*
X241646655Y-112500000D01*
X241306627Y-112567636D01*
X240986327Y-112700308D01*
X240698065Y-112892919D01*
X240452919Y-113138065D01*
X240260308Y-113426327D01*
X240127636Y-113746627D01*
X240060000Y-114086655D01*
X215398922Y-114086655D01*
X215426513Y-113760634D01*
X215374042Y-113293769D01*
X215231497Y-112846112D01*
X215040966Y-112489653D01*
X214699809Y-112303577D01*
X213209805Y-113793580D01*
X212850595Y-113793580D01*
X211360591Y-112303577D01*
X211019434Y-112489653D01*
X210803687Y-112906989D01*
X210673504Y-113358395D01*
X210633887Y-113826526D01*
X200745100Y-113826526D01*
X200745100Y-112123971D01*
X211540197Y-112123971D01*
X213030200Y-113613975D01*
X214520203Y-112123971D01*
X214334127Y-111782814D01*
X213916791Y-111567067D01*
X213846013Y-111546655D01*
X219740000Y-111546655D01*
X219740000Y-111893345D01*
X219807636Y-112233373D01*
X219940308Y-112553673D01*
X220132919Y-112841935D01*
X220378065Y-113087081D01*
X220666327Y-113279692D01*
X220986627Y-113412364D01*
X221326655Y-113480000D01*
X221673345Y-113480000D01*
X222013373Y-113412364D01*
X222333673Y-113279692D01*
X222621935Y-113087081D01*
X222867081Y-112841935D01*
X223059692Y-112553673D01*
X223192364Y-112233373D01*
X223260000Y-111893345D01*
X223260000Y-111546655D01*
X223192364Y-111206627D01*
X223059692Y-110886327D01*
X222867081Y-110598065D01*
X222621935Y-110352919D01*
X222333673Y-110160308D01*
X222013373Y-110027636D01*
X221673345Y-109960000D01*
X221326655Y-109960000D01*
X220986627Y-110027636D01*
X220666327Y-110160308D01*
X220378065Y-110352919D01*
X220132919Y-110598065D01*
X219940308Y-110886327D01*
X219807636Y-111206627D01*
X219740000Y-111546655D01*
X213846013Y-111546655D01*
X213465385Y-111436884D01*
X212997254Y-111397267D01*
X212530389Y-111449738D01*
X212082732Y-111592283D01*
X211726273Y-111782814D01*
X211540197Y-112123971D01*
X200745100Y-112123971D01*
X200745100Y-105662094D01*
X201695200Y-105662094D01*
X201695200Y-105925066D01*
X201746504Y-106182985D01*
X201847139Y-106425939D01*
X201993238Y-106644593D01*
X202179187Y-106830542D01*
X202397841Y-106976641D01*
X202640795Y-107077276D01*
X202898714Y-107128580D01*
X203161686Y-107128580D01*
X203419605Y-107077276D01*
X203500954Y-107043580D01*
X210642128Y-107043580D01*
X210642128Y-110543580D01*
X210654388Y-110668062D01*
X210690698Y-110787760D01*
X210749663Y-110898074D01*
X210829015Y-110994765D01*
X210925706Y-111074117D01*
X211036020Y-111133082D01*
X211155718Y-111169392D01*
X211280200Y-111181652D01*
X214780200Y-111181652D01*
X214904682Y-111169392D01*
X215024380Y-111133082D01*
X215134694Y-111074117D01*
X215231385Y-110994765D01*
X215310737Y-110898074D01*
X215369702Y-110787760D01*
X215406012Y-110668062D01*
X215418272Y-110543580D01*
X215418272Y-107043580D01*
X215406012Y-106919098D01*
X215369702Y-106799400D01*
X215310737Y-106689086D01*
X215231385Y-106592395D01*
X215134694Y-106513043D01*
X215024380Y-106454078D01*
X214904682Y-106417768D01*
X214780200Y-106405508D01*
X211280200Y-106405508D01*
X211155718Y-106417768D01*
X211036020Y-106454078D01*
X210925706Y-106513043D01*
X210829015Y-106592395D01*
X210749663Y-106689086D01*
X210690698Y-106799400D01*
X210654388Y-106919098D01*
X210642128Y-107043580D01*
X203500954Y-107043580D01*
X203662559Y-106976641D01*
X203881213Y-106830542D01*
X204067162Y-106644593D01*
X204213261Y-106425939D01*
X204313896Y-106182985D01*
X204365200Y-105925066D01*
X204365200Y-105662094D01*
X204313896Y-105404175D01*
X204213261Y-105161221D01*
X204067162Y-104942567D01*
X203881213Y-104756618D01*
X203662559Y-104610519D01*
X203419605Y-104509884D01*
X203161686Y-104458580D01*
X202898714Y-104458580D01*
X202640795Y-104509884D01*
X202397841Y-104610519D01*
X202179187Y-104756618D01*
X201993238Y-104942567D01*
X201847139Y-105161221D01*
X201746504Y-105404175D01*
X201695200Y-105662094D01*
X200745100Y-105662094D01*
X200745100Y-103926655D01*
X219740000Y-103926655D01*
X219740000Y-104273345D01*
X219807636Y-104613373D01*
X219940308Y-104933673D01*
X220132919Y-105221935D01*
X220378065Y-105467081D01*
X220666327Y-105659692D01*
X220986627Y-105792364D01*
X221326655Y-105860000D01*
X221673345Y-105860000D01*
X222013373Y-105792364D01*
X222333673Y-105659692D01*
X222621935Y-105467081D01*
X222867081Y-105221935D01*
X223059692Y-104933673D01*
X223192364Y-104613373D01*
X223260000Y-104273345D01*
X223260000Y-103926655D01*
X223192364Y-103586627D01*
X223059692Y-103266327D01*
X222867081Y-102978065D01*
X222792153Y-102903137D01*
X228887000Y-102903137D01*
X228887000Y-103116863D01*
X228928696Y-103326483D01*
X229010485Y-103523940D01*
X229129225Y-103701647D01*
X229280353Y-103852775D01*
X229458060Y-103971515D01*
X229655517Y-104053304D01*
X229865137Y-104095000D01*
X230078863Y-104095000D01*
X230288483Y-104053304D01*
X230485940Y-103971515D01*
X230553077Y-103926655D01*
X240060000Y-103926655D01*
X240060000Y-104273345D01*
X240127636Y-104613373D01*
X240260308Y-104933673D01*
X240452919Y-105221935D01*
X240698065Y-105467081D01*
X240986327Y-105659692D01*
X241306627Y-105792364D01*
X241646655Y-105860000D01*
X241993345Y-105860000D01*
X242333373Y-105792364D01*
X242653673Y-105659692D01*
X242941935Y-105467081D01*
X243187081Y-105221935D01*
X243379692Y-104933673D01*
X243512364Y-104613373D01*
X243580000Y-104273345D01*
X243580000Y-103926655D01*
X243512364Y-103586627D01*
X243447488Y-103430000D01*
X248041928Y-103430000D01*
X248041928Y-105130000D01*
X248054188Y-105254482D01*
X248090498Y-105374180D01*
X248149463Y-105484494D01*
X248228815Y-105581185D01*
X248325506Y-105660537D01*
X248435820Y-105719502D01*
X248508380Y-105741513D01*
X248376525Y-105873368D01*
X248214010Y-106116589D01*
X248102068Y-106386842D01*
X248045000Y-106673740D01*
X248045000Y-106966260D01*
X248102068Y-107253158D01*
X248214010Y-107523411D01*
X248376525Y-107766632D01*
X248583368Y-107973475D01*
X248826589Y-108135990D01*
X249096842Y-108247932D01*
X249383740Y-108305000D01*
X249676260Y-108305000D01*
X249963158Y-108247932D01*
X250233411Y-108135990D01*
X250476632Y-107973475D01*
X250683475Y-107766632D01*
X250800000Y-107592240D01*
X250916525Y-107766632D01*
X251123368Y-107973475D01*
X251366589Y-108135990D01*
X251636842Y-108247932D01*
X251923740Y-108305000D01*
X252216260Y-108305000D01*
X252503158Y-108247932D01*
X252773411Y-108135990D01*
X253016632Y-107973475D01*
X253223475Y-107766632D01*
X253385990Y-107523411D01*
X253497932Y-107253158D01*
X253555000Y-106966260D01*
X253555000Y-106673740D01*
X253497932Y-106386842D01*
X253385990Y-106116589D01*
X253223475Y-105873368D01*
X253091620Y-105741513D01*
X253164180Y-105719502D01*
X253274494Y-105660537D01*
X253371185Y-105581185D01*
X253450537Y-105484494D01*
X253509502Y-105374180D01*
X253545812Y-105254482D01*
X253558072Y-105130000D01*
X253558072Y-103430000D01*
X253545812Y-103305518D01*
X253509502Y-103185820D01*
X253450537Y-103075506D01*
X253371185Y-102978815D01*
X253274494Y-102899463D01*
X253164180Y-102840498D01*
X253044482Y-102804188D01*
X252920000Y-102791928D01*
X251220000Y-102791928D01*
X251095518Y-102804188D01*
X250975820Y-102840498D01*
X250865506Y-102899463D01*
X250800000Y-102953222D01*
X250734494Y-102899463D01*
X250624180Y-102840498D01*
X250504482Y-102804188D01*
X250380000Y-102791928D01*
X248680000Y-102791928D01*
X248555518Y-102804188D01*
X248435820Y-102840498D01*
X248325506Y-102899463D01*
X248228815Y-102978815D01*
X248149463Y-103075506D01*
X248090498Y-103185820D01*
X248054188Y-103305518D01*
X248041928Y-103430000D01*
X243447488Y-103430000D01*
X243379692Y-103266327D01*
X243187081Y-102978065D01*
X242941935Y-102732919D01*
X242653673Y-102540308D01*
X242333373Y-102407636D01*
X241993345Y-102340000D01*
X241646655Y-102340000D01*
X241306627Y-102407636D01*
X240986327Y-102540308D01*
X240698065Y-102732919D01*
X240452919Y-102978065D01*
X240260308Y-103266327D01*
X240127636Y-103586627D01*
X240060000Y-103926655D01*
X230553077Y-103926655D01*
X230663647Y-103852775D01*
X230814775Y-103701647D01*
X230933515Y-103523940D01*
X231015304Y-103326483D01*
X231057000Y-103116863D01*
X231057000Y-102903137D01*
X231015304Y-102693517D01*
X230933515Y-102496060D01*
X230814775Y-102318353D01*
X230663647Y-102167225D01*
X230485940Y-102048485D01*
X230288483Y-101966696D01*
X230078863Y-101925000D01*
X229865137Y-101925000D01*
X229655517Y-101966696D01*
X229458060Y-102048485D01*
X229280353Y-102167225D01*
X229129225Y-102318353D01*
X229010485Y-102496060D01*
X228928696Y-102693517D01*
X228887000Y-102903137D01*
X222792153Y-102903137D01*
X222621935Y-102732919D01*
X222333673Y-102540308D01*
X222013373Y-102407636D01*
X221673345Y-102340000D01*
X221326655Y-102340000D01*
X220986627Y-102407636D01*
X220666327Y-102540308D01*
X220378065Y-102732919D01*
X220132919Y-102978065D01*
X219940308Y-103266327D01*
X219807636Y-103586627D01*
X219740000Y-103926655D01*
X200745100Y-103926655D01*
X200745100Y-101654137D01*
X255324000Y-101654137D01*
X255324000Y-101867863D01*
X255365696Y-102077483D01*
X255447485Y-102274940D01*
X255566225Y-102452647D01*
X255717353Y-102603775D01*
X255895060Y-102722515D01*
X256092517Y-102804304D01*
X256302137Y-102846000D01*
X256454554Y-102846000D01*
X262777746Y-109169193D01*
X262800762Y-109197238D01*
X262912680Y-109289087D01*
X263040366Y-109357337D01*
X263178915Y-109399365D01*
X263323000Y-109413556D01*
X263359105Y-109410000D01*
X263985578Y-109410000D01*
X264050000Y-109474422D01*
X264050000Y-109986034D01*
X263933940Y-109908485D01*
X263736483Y-109826696D01*
X263526863Y-109785000D01*
X263313137Y-109785000D01*
X263103517Y-109826696D01*
X262906060Y-109908485D01*
X262728353Y-110027225D01*
X262577225Y-110178353D01*
X262570649Y-110188195D01*
X262413940Y-110083485D01*
X262216483Y-110001696D01*
X262006863Y-109960000D01*
X261793137Y-109960000D01*
X261583517Y-110001696D01*
X261386060Y-110083485D01*
X261208353Y-110202225D01*
X261057225Y-110353353D01*
X260938485Y-110531060D01*
X260856696Y-110728517D01*
X260815000Y-110938137D01*
X260815000Y-111151863D01*
X260856696Y-111361483D01*
X260938485Y-111558940D01*
X261057225Y-111736647D01*
X261208353Y-111887775D01*
X261386060Y-112006515D01*
X261583517Y-112088304D01*
X261793137Y-112130000D01*
X262006863Y-112130000D01*
X262216483Y-112088304D01*
X262413940Y-112006515D01*
X262591647Y-111887775D01*
X262742775Y-111736647D01*
X262749351Y-111726805D01*
X262906060Y-111831515D01*
X263103517Y-111913304D01*
X263313137Y-111955000D01*
X263526863Y-111955000D01*
X263736483Y-111913304D01*
X263933940Y-111831515D01*
X264050000Y-111753966D01*
X264050001Y-118358885D01*
X264046444Y-118395000D01*
X264060635Y-118539085D01*
X264079793Y-118602238D01*
X264102664Y-118677633D01*
X264170914Y-118805320D01*
X264175000Y-118810299D01*
X264175000Y-118976863D01*
X264216696Y-119186483D01*
X264298485Y-119383940D01*
X264417225Y-119561647D01*
X264525000Y-119669422D01*
X264525000Y-122012693D01*
X264413940Y-121938485D01*
X264216483Y-121856696D01*
X264006863Y-121815000D01*
X263793137Y-121815000D01*
X263583517Y-121856696D01*
X263386060Y-121938485D01*
X263208353Y-122057225D01*
X263057225Y-122208353D01*
X263025000Y-122256581D01*
X262992775Y-122208353D01*
X262841647Y-122057225D01*
X262663940Y-121938485D01*
X262466483Y-121856696D01*
X262256863Y-121815000D01*
X262043137Y-121815000D01*
X261833517Y-121856696D01*
X261636060Y-121938485D01*
X261458353Y-122057225D01*
X261307225Y-122208353D01*
X261188485Y-122386060D01*
X261106696Y-122583517D01*
X261065000Y-122793137D01*
X261065000Y-123006863D01*
X261106696Y-123216483D01*
X261188485Y-123413940D01*
X261307225Y-123591647D01*
X261458353Y-123742775D01*
X261636060Y-123861515D01*
X261833517Y-123943304D01*
X262043137Y-123985000D01*
X262256863Y-123985000D01*
X262466483Y-123943304D01*
X262663940Y-123861515D01*
X262841647Y-123742775D01*
X262992775Y-123591647D01*
X263025000Y-123543419D01*
X263057225Y-123591647D01*
X263208353Y-123742775D01*
X263386060Y-123861515D01*
X263583517Y-123943304D01*
X263793137Y-123985000D01*
X264006863Y-123985000D01*
X264216483Y-123943304D01*
X264413940Y-123861515D01*
X264525001Y-123787307D01*
X264525001Y-124834577D01*
X264435225Y-124924353D01*
X264316485Y-125102060D01*
X264234696Y-125299517D01*
X264193000Y-125509137D01*
X264193000Y-125722863D01*
X264234696Y-125932483D01*
X264316485Y-126129940D01*
X264435225Y-126307647D01*
X264543000Y-126415422D01*
X264543001Y-130297302D01*
X264438353Y-130367225D01*
X264287225Y-130518353D01*
X264168485Y-130696060D01*
X264086696Y-130893517D01*
X264045000Y-131103137D01*
X264045000Y-131316863D01*
X264086696Y-131526483D01*
X264168485Y-131723940D01*
X264287225Y-131901647D01*
X264395000Y-132009422D01*
X264395000Y-133627503D01*
X264296483Y-133586696D01*
X264086863Y-133545000D01*
X263873137Y-133545000D01*
X263663517Y-133586696D01*
X263466060Y-133668485D01*
X263288353Y-133787225D01*
X263137225Y-133938353D01*
X263018485Y-134116060D01*
X262936696Y-134313517D01*
X262917016Y-134412453D01*
X262903304Y-134343517D01*
X262821515Y-134146060D01*
X262702775Y-133968353D01*
X262551647Y-133817225D01*
X262373940Y-133698485D01*
X262176483Y-133616696D01*
X261966863Y-133575000D01*
X261753137Y-133575000D01*
X261543517Y-133616696D01*
X261346060Y-133698485D01*
X261168353Y-133817225D01*
X261017225Y-133968353D01*
X260898485Y-134146060D01*
X260816696Y-134343517D01*
X260775000Y-134553137D01*
X260775000Y-134766863D01*
X260816696Y-134976483D01*
X260898485Y-135173940D01*
X261017225Y-135351647D01*
X261168353Y-135502775D01*
X261346060Y-135621515D01*
X261543517Y-135703304D01*
X261753137Y-135745000D01*
X261966863Y-135745000D01*
X262176483Y-135703304D01*
X262373940Y-135621515D01*
X262551647Y-135502775D01*
X262702775Y-135351647D01*
X262821515Y-135173940D01*
X262903304Y-134976483D01*
X262922984Y-134877547D01*
X262936696Y-134946483D01*
X263018485Y-135143940D01*
X263137225Y-135321647D01*
X263288353Y-135472775D01*
X263466060Y-135591515D01*
X263663517Y-135673304D01*
X263873137Y-135715000D01*
X264086863Y-135715000D01*
X264296483Y-135673304D01*
X264395000Y-135632497D01*
X264395001Y-143273885D01*
X264391444Y-143310000D01*
X264405635Y-143454085D01*
X264440563Y-143569225D01*
X264447664Y-143592633D01*
X264515914Y-143720320D01*
X264607763Y-143832238D01*
X264635808Y-143855254D01*
X265147000Y-144366446D01*
X265147000Y-144518863D01*
X265188696Y-144728483D01*
X265270485Y-144925940D01*
X265389225Y-145103647D01*
X265540353Y-145254775D01*
X265718060Y-145373515D01*
X265915517Y-145455304D01*
X266125137Y-145497000D01*
X266338863Y-145497000D01*
X266548483Y-145455304D01*
X266745940Y-145373515D01*
X266923647Y-145254775D01*
X267074775Y-145103647D01*
X267193515Y-144925940D01*
X267275304Y-144728483D01*
X267317000Y-144518863D01*
X267317000Y-144305137D01*
X267293156Y-144185266D01*
X267390775Y-144087647D01*
X267509515Y-143909940D01*
X267591304Y-143712483D01*
X267633000Y-143502863D01*
X267633000Y-143350446D01*
X269489019Y-141494427D01*
X269515225Y-141533647D01*
X269666353Y-141684775D01*
X269844060Y-141803515D01*
X270041517Y-141885304D01*
X270251137Y-141927000D01*
X270464863Y-141927000D01*
X270674483Y-141885304D01*
X270871940Y-141803515D01*
X271049647Y-141684775D01*
X271200775Y-141533647D01*
X271319515Y-141355940D01*
X271401304Y-141158483D01*
X271443000Y-140948863D01*
X271443000Y-140735137D01*
X271401304Y-140525517D01*
X271319515Y-140328060D01*
X271200775Y-140150353D01*
X271049647Y-139999225D01*
X270871940Y-139880485D01*
X270674483Y-139798696D01*
X270464863Y-139757000D01*
X270251137Y-139757000D01*
X270077000Y-139791638D01*
X270077000Y-139360000D01*
X272541928Y-139360000D01*
X272541928Y-142860000D01*
X272554188Y-142984482D01*
X272590498Y-143104180D01*
X272649463Y-143214494D01*
X272728815Y-143311185D01*
X272825506Y-143390537D01*
X272935820Y-143449502D01*
X273055518Y-143485812D01*
X273180000Y-143498072D01*
X276680000Y-143498072D01*
X276804482Y-143485812D01*
X276924180Y-143449502D01*
X277034494Y-143390537D01*
X277131185Y-143311185D01*
X277210537Y-143214494D01*
X277269502Y-143104180D01*
X277305812Y-142984482D01*
X277318072Y-142860000D01*
X277318072Y-140110000D01*
X278791928Y-140110000D01*
X278791928Y-142110000D01*
X278818599Y-142380799D01*
X278897589Y-142641192D01*
X279025860Y-142881171D01*
X279198485Y-143091515D01*
X279408829Y-143264140D01*
X279648808Y-143392411D01*
X279909201Y-143471401D01*
X280180000Y-143498072D01*
X281680000Y-143498072D01*
X281950799Y-143471401D01*
X282211192Y-143392411D01*
X282451171Y-143264140D01*
X282661515Y-143091515D01*
X282834140Y-142881171D01*
X282962411Y-142641192D01*
X283041401Y-142380799D01*
X283068072Y-142110000D01*
X283068072Y-140110000D01*
X283041401Y-139839201D01*
X282962411Y-139578808D01*
X282834140Y-139338829D01*
X282661515Y-139128485D01*
X282451171Y-138955860D01*
X282211192Y-138827589D01*
X281950799Y-138748599D01*
X281680000Y-138721928D01*
X280180000Y-138721928D01*
X279909201Y-138748599D01*
X279648808Y-138827589D01*
X279408829Y-138955860D01*
X279198485Y-139128485D01*
X279025860Y-139338829D01*
X278897589Y-139578808D01*
X278818599Y-139839201D01*
X278791928Y-140110000D01*
X277318072Y-140110000D01*
X277318072Y-139360000D01*
X277305812Y-139235518D01*
X277269502Y-139115820D01*
X277210537Y-139005506D01*
X277131185Y-138908815D01*
X277034494Y-138829463D01*
X276957869Y-138788506D01*
X277055000Y-138798072D01*
X278805000Y-138798072D01*
X279100186Y-138768999D01*
X279384028Y-138682896D01*
X279645618Y-138543073D01*
X279874903Y-138354903D01*
X280063073Y-138125618D01*
X280202896Y-137864028D01*
X280288999Y-137580186D01*
X280318072Y-137285000D01*
X280318072Y-135535000D01*
X280288999Y-135239814D01*
X280202896Y-134955972D01*
X280063073Y-134694382D01*
X279874903Y-134465097D01*
X279645618Y-134276927D01*
X279384028Y-134137104D01*
X279100186Y-134051001D01*
X278805000Y-134021928D01*
X277055000Y-134021928D01*
X276759814Y-134051001D01*
X276475972Y-134137104D01*
X276214382Y-134276927D01*
X275985097Y-134465097D01*
X275796927Y-134694382D01*
X275657104Y-134955972D01*
X275571001Y-135239814D01*
X275541928Y-135535000D01*
X275541928Y-137285000D01*
X275571001Y-137580186D01*
X275657104Y-137864028D01*
X275796927Y-138125618D01*
X275985097Y-138354903D01*
X276214382Y-138543073D01*
X276475972Y-138682896D01*
X276604643Y-138721928D01*
X273180000Y-138721928D01*
X273055518Y-138734188D01*
X272935820Y-138770498D01*
X272825506Y-138829463D01*
X272728815Y-138908815D01*
X272649463Y-139005506D01*
X272590498Y-139115820D01*
X272554188Y-139235518D01*
X272541928Y-139360000D01*
X270077000Y-139360000D01*
X270077000Y-132511422D01*
X270184775Y-132403647D01*
X270303515Y-132225940D01*
X270385304Y-132028483D01*
X270427000Y-131818863D01*
X270427000Y-131787000D01*
X270464863Y-131787000D01*
X270674483Y-131745304D01*
X270871940Y-131663515D01*
X271049647Y-131544775D01*
X271200775Y-131393647D01*
X271319515Y-131215940D01*
X271401304Y-131018483D01*
X271443000Y-130808863D01*
X271443000Y-130595137D01*
X271401304Y-130385517D01*
X271319515Y-130188060D01*
X271200775Y-130010353D01*
X271049647Y-129859225D01*
X270871940Y-129740485D01*
X270674483Y-129658696D01*
X270464863Y-129617000D01*
X270251137Y-129617000D01*
X270041517Y-129658696D01*
X269844060Y-129740485D01*
X269666353Y-129859225D01*
X269515225Y-130010353D01*
X269396485Y-130188060D01*
X269314696Y-130385517D01*
X269273000Y-130595137D01*
X269273000Y-130603553D01*
X266875000Y-128205554D01*
X266875000Y-126660000D01*
X272541928Y-126660000D01*
X272541928Y-130160000D01*
X272554188Y-130284482D01*
X272590498Y-130404180D01*
X272649463Y-130514494D01*
X272728815Y-130611185D01*
X272825506Y-130690537D01*
X272935820Y-130749502D01*
X273055518Y-130785812D01*
X273180000Y-130798072D01*
X276680000Y-130798072D01*
X276804482Y-130785812D01*
X276924180Y-130749502D01*
X277034494Y-130690537D01*
X277131185Y-130611185D01*
X277210537Y-130514494D01*
X277269502Y-130404180D01*
X277305812Y-130284482D01*
X277318072Y-130160000D01*
X277318072Y-127410000D01*
X278791928Y-127410000D01*
X278791928Y-129410000D01*
X278818599Y-129680799D01*
X278897589Y-129941192D01*
X279025860Y-130181171D01*
X279198485Y-130391515D01*
X279408829Y-130564140D01*
X279648808Y-130692411D01*
X279909201Y-130771401D01*
X280180000Y-130798072D01*
X281680000Y-130798072D01*
X281950799Y-130771401D01*
X282211192Y-130692411D01*
X282451171Y-130564140D01*
X282661515Y-130391515D01*
X282834140Y-130181171D01*
X282962411Y-129941192D01*
X283041401Y-129680799D01*
X283068072Y-129410000D01*
X283068072Y-127410000D01*
X283041401Y-127139201D01*
X282962411Y-126878808D01*
X282834140Y-126638829D01*
X282661515Y-126428485D01*
X282451171Y-126255860D01*
X282211192Y-126127589D01*
X281950799Y-126048599D01*
X281680000Y-126021928D01*
X280180000Y-126021928D01*
X279909201Y-126048599D01*
X279648808Y-126127589D01*
X279408829Y-126255860D01*
X279198485Y-126428485D01*
X279025860Y-126638829D01*
X278897589Y-126878808D01*
X278818599Y-127139201D01*
X278791928Y-127410000D01*
X277318072Y-127410000D01*
X277318072Y-126660000D01*
X277305812Y-126535518D01*
X277269502Y-126415820D01*
X277210537Y-126305506D01*
X277131185Y-126208815D01*
X277034494Y-126129463D01*
X276957869Y-126088506D01*
X277055000Y-126098072D01*
X278805000Y-126098072D01*
X279100186Y-126068999D01*
X279384028Y-125982896D01*
X279645618Y-125843073D01*
X279874903Y-125654903D01*
X280063073Y-125425618D01*
X280202896Y-125164028D01*
X280288999Y-124880186D01*
X280318072Y-124585000D01*
X280318072Y-122835000D01*
X280288999Y-122539814D01*
X280202896Y-122255972D01*
X280063073Y-121994382D01*
X279874903Y-121765097D01*
X279645618Y-121576927D01*
X279384028Y-121437104D01*
X279100186Y-121351001D01*
X278805000Y-121321928D01*
X277055000Y-121321928D01*
X276759814Y-121351001D01*
X276475972Y-121437104D01*
X276214382Y-121576927D01*
X275985097Y-121765097D01*
X275796927Y-121994382D01*
X275657104Y-122255972D01*
X275571001Y-122539814D01*
X275541928Y-122835000D01*
X275541928Y-124585000D01*
X275571001Y-124880186D01*
X275657104Y-125164028D01*
X275796927Y-125425618D01*
X275985097Y-125654903D01*
X276214382Y-125843073D01*
X276475972Y-125982896D01*
X276604643Y-126021928D01*
X273180000Y-126021928D01*
X273055518Y-126034188D01*
X272935820Y-126070498D01*
X272825506Y-126129463D01*
X272728815Y-126208815D01*
X272649463Y-126305506D01*
X272590498Y-126415820D01*
X272554188Y-126535518D01*
X272541928Y-126660000D01*
X266875000Y-126660000D01*
X266875000Y-118879422D01*
X266982775Y-118771647D01*
X267101515Y-118593940D01*
X267183304Y-118396483D01*
X267225000Y-118186863D01*
X267225000Y-117973137D01*
X267183304Y-117763517D01*
X267101515Y-117566060D01*
X266982775Y-117388353D01*
X266875000Y-117280578D01*
X266875000Y-117206137D01*
X269273000Y-117206137D01*
X269273000Y-117419863D01*
X269314696Y-117629483D01*
X269396485Y-117826940D01*
X269515225Y-118004647D01*
X269666353Y-118155775D01*
X269844060Y-118274515D01*
X270041517Y-118356304D01*
X270251137Y-118398000D01*
X270464863Y-118398000D01*
X270674483Y-118356304D01*
X270871940Y-118274515D01*
X271049647Y-118155775D01*
X271200775Y-118004647D01*
X271319515Y-117826940D01*
X271401304Y-117629483D01*
X271443000Y-117419863D01*
X271443000Y-117206137D01*
X271401304Y-116996517D01*
X271319515Y-116799060D01*
X271200775Y-116621353D01*
X271049647Y-116470225D01*
X270871940Y-116351485D01*
X270674483Y-116269696D01*
X270464863Y-116228000D01*
X270251137Y-116228000D01*
X270041517Y-116269696D01*
X269844060Y-116351485D01*
X269666353Y-116470225D01*
X269515225Y-116621353D01*
X269396485Y-116799060D01*
X269314696Y-116996517D01*
X269273000Y-117206137D01*
X266875000Y-117206137D01*
X266875000Y-113960000D01*
X272541928Y-113960000D01*
X272541928Y-117460000D01*
X272554188Y-117584482D01*
X272590498Y-117704180D01*
X272649463Y-117814494D01*
X272728815Y-117911185D01*
X272825506Y-117990537D01*
X272935820Y-118049502D01*
X273055518Y-118085812D01*
X273180000Y-118098072D01*
X276680000Y-118098072D01*
X276804482Y-118085812D01*
X276924180Y-118049502D01*
X277034494Y-117990537D01*
X277131185Y-117911185D01*
X277210537Y-117814494D01*
X277269502Y-117704180D01*
X277305812Y-117584482D01*
X277318072Y-117460000D01*
X277318072Y-114710000D01*
X278791928Y-114710000D01*
X278791928Y-116710000D01*
X278818599Y-116980799D01*
X278897589Y-117241192D01*
X279025860Y-117481171D01*
X279198485Y-117691515D01*
X279408829Y-117864140D01*
X279648808Y-117992411D01*
X279909201Y-118071401D01*
X280180000Y-118098072D01*
X281680000Y-118098072D01*
X281950799Y-118071401D01*
X282211192Y-117992411D01*
X282451171Y-117864140D01*
X282661515Y-117691515D01*
X282834140Y-117481171D01*
X282962411Y-117241192D01*
X283041401Y-116980799D01*
X283068072Y-116710000D01*
X283068072Y-114710000D01*
X283041401Y-114439201D01*
X282962411Y-114178808D01*
X282834140Y-113938829D01*
X282661515Y-113728485D01*
X282451171Y-113555860D01*
X282211192Y-113427589D01*
X281950799Y-113348599D01*
X281680000Y-113321928D01*
X280180000Y-113321928D01*
X279909201Y-113348599D01*
X279648808Y-113427589D01*
X279408829Y-113555860D01*
X279198485Y-113728485D01*
X279025860Y-113938829D01*
X278897589Y-114178808D01*
X278818599Y-114439201D01*
X278791928Y-114710000D01*
X277318072Y-114710000D01*
X277318072Y-113960000D01*
X277305812Y-113835518D01*
X277269502Y-113715820D01*
X277210537Y-113605506D01*
X277131185Y-113508815D01*
X277034494Y-113429463D01*
X276957869Y-113388506D01*
X277055000Y-113398072D01*
X278805000Y-113398072D01*
X279100186Y-113368999D01*
X279384028Y-113282896D01*
X279645618Y-113143073D01*
X279874903Y-112954903D01*
X280063073Y-112725618D01*
X280202896Y-112464028D01*
X280288999Y-112180186D01*
X280318072Y-111885000D01*
X280318072Y-110135000D01*
X280288999Y-109839814D01*
X280202896Y-109555972D01*
X280063073Y-109294382D01*
X279874903Y-109065097D01*
X279645618Y-108876927D01*
X279384028Y-108737104D01*
X279100186Y-108651001D01*
X278805000Y-108621928D01*
X277055000Y-108621928D01*
X276759814Y-108651001D01*
X276475972Y-108737104D01*
X276214382Y-108876927D01*
X275985097Y-109065097D01*
X275796927Y-109294382D01*
X275657104Y-109555972D01*
X275571001Y-109839814D01*
X275541928Y-110135000D01*
X275541928Y-111885000D01*
X275571001Y-112180186D01*
X275657104Y-112464028D01*
X275796927Y-112725618D01*
X275985097Y-112954903D01*
X276214382Y-113143073D01*
X276475972Y-113282896D01*
X276604643Y-113321928D01*
X273180000Y-113321928D01*
X273055518Y-113334188D01*
X272935820Y-113370498D01*
X272825506Y-113429463D01*
X272728815Y-113508815D01*
X272649463Y-113605506D01*
X272590498Y-113715820D01*
X272554188Y-113835518D01*
X272541928Y-113960000D01*
X266875000Y-113960000D01*
X266875000Y-108608501D01*
X266878556Y-108572396D01*
X266864365Y-108428311D01*
X266853462Y-108392368D01*
X266822337Y-108289763D01*
X266754087Y-108162076D01*
X266710102Y-108108481D01*
X266685253Y-108078202D01*
X266685250Y-108078199D01*
X266662237Y-108050158D01*
X266634197Y-108027146D01*
X266475681Y-107868630D01*
X266493515Y-107841940D01*
X266575304Y-107644483D01*
X266617000Y-107434863D01*
X266617000Y-107221137D01*
X266575304Y-107011517D01*
X266493515Y-106814060D01*
X266374775Y-106636353D01*
X266223647Y-106485225D01*
X266045940Y-106366485D01*
X265848483Y-106284696D01*
X265638863Y-106243000D01*
X265425137Y-106243000D01*
X265215517Y-106284696D01*
X265018060Y-106366485D01*
X264840353Y-106485225D01*
X264689225Y-106636353D01*
X264570485Y-106814060D01*
X264488696Y-107011517D01*
X264447000Y-107221137D01*
X264447000Y-107434863D01*
X264485481Y-107628322D01*
X264468517Y-107631696D01*
X264271060Y-107713485D01*
X264093353Y-107832225D01*
X263985578Y-107940000D01*
X263627447Y-107940000D01*
X261927192Y-106239745D01*
X269273000Y-106239745D01*
X269273000Y-106453471D01*
X269314696Y-106663091D01*
X269396485Y-106860548D01*
X269515225Y-107038255D01*
X269666353Y-107189383D01*
X269844060Y-107308123D01*
X270041517Y-107389912D01*
X270251137Y-107431608D01*
X270464863Y-107431608D01*
X270674483Y-107389912D01*
X270871940Y-107308123D01*
X271049647Y-107189383D01*
X271200775Y-107038255D01*
X271319515Y-106860548D01*
X271401304Y-106663091D01*
X271443000Y-106453471D01*
X271443000Y-106239745D01*
X271401304Y-106030125D01*
X271319515Y-105832668D01*
X271200775Y-105654961D01*
X271049647Y-105503833D01*
X270871940Y-105385093D01*
X270674483Y-105303304D01*
X270464863Y-105261608D01*
X270251137Y-105261608D01*
X270041517Y-105303304D01*
X269844060Y-105385093D01*
X269666353Y-105503833D01*
X269515225Y-105654961D01*
X269396485Y-105832668D01*
X269314696Y-106030125D01*
X269273000Y-106239745D01*
X261927192Y-106239745D01*
X257494000Y-101806554D01*
X257494000Y-101654137D01*
X257479878Y-101583137D01*
X263815000Y-101583137D01*
X263815000Y-101796863D01*
X263856696Y-102006483D01*
X263938485Y-102203940D01*
X264057225Y-102381647D01*
X264208353Y-102532775D01*
X264386060Y-102651515D01*
X264583517Y-102733304D01*
X264793137Y-102775000D01*
X265006863Y-102775000D01*
X265216483Y-102733304D01*
X265413940Y-102651515D01*
X265591647Y-102532775D01*
X265742775Y-102381647D01*
X265861515Y-102203940D01*
X265943304Y-102006483D01*
X265943336Y-102006323D01*
X266123940Y-101931515D01*
X266301647Y-101812775D01*
X266452775Y-101661647D01*
X266571515Y-101483940D01*
X266653304Y-101286483D01*
X266658571Y-101260000D01*
X272541928Y-101260000D01*
X272541928Y-104760000D01*
X272554188Y-104884482D01*
X272590498Y-105004180D01*
X272649463Y-105114494D01*
X272728815Y-105211185D01*
X272825506Y-105290537D01*
X272935820Y-105349502D01*
X273055518Y-105385812D01*
X273180000Y-105398072D01*
X276680000Y-105398072D01*
X276804482Y-105385812D01*
X276924180Y-105349502D01*
X277034494Y-105290537D01*
X277131185Y-105211185D01*
X277210537Y-105114494D01*
X277269502Y-105004180D01*
X277305812Y-104884482D01*
X277318072Y-104760000D01*
X277318072Y-102010000D01*
X278791928Y-102010000D01*
X278791928Y-104010000D01*
X278818599Y-104280799D01*
X278897589Y-104541192D01*
X279025860Y-104781171D01*
X279198485Y-104991515D01*
X279408829Y-105164140D01*
X279648808Y-105292411D01*
X279909201Y-105371401D01*
X280180000Y-105398072D01*
X281680000Y-105398072D01*
X281950799Y-105371401D01*
X282211192Y-105292411D01*
X282451171Y-105164140D01*
X282661515Y-104991515D01*
X282834140Y-104781171D01*
X282962411Y-104541192D01*
X283041401Y-104280799D01*
X283068072Y-104010000D01*
X283068072Y-102010000D01*
X283041401Y-101739201D01*
X282962411Y-101478808D01*
X282834140Y-101238829D01*
X282661515Y-101028485D01*
X282451171Y-100855860D01*
X282211192Y-100727589D01*
X281950799Y-100648599D01*
X281680000Y-100621928D01*
X280180000Y-100621928D01*
X279909201Y-100648599D01*
X279648808Y-100727589D01*
X279408829Y-100855860D01*
X279198485Y-101028485D01*
X279025860Y-101238829D01*
X278897589Y-101478808D01*
X278818599Y-101739201D01*
X278791928Y-102010000D01*
X277318072Y-102010000D01*
X277318072Y-101260000D01*
X277305812Y-101135518D01*
X277269502Y-101015820D01*
X277210537Y-100905506D01*
X277131185Y-100808815D01*
X277034494Y-100729463D01*
X276957869Y-100688506D01*
X277055000Y-100698072D01*
X278805000Y-100698072D01*
X279100186Y-100668999D01*
X279384028Y-100582896D01*
X279645618Y-100443073D01*
X279874903Y-100254903D01*
X280063073Y-100025618D01*
X280202896Y-99764028D01*
X280288999Y-99480186D01*
X280318072Y-99185000D01*
X280318072Y-97435000D01*
X280288999Y-97139814D01*
X280202896Y-96855972D01*
X280063073Y-96594382D01*
X279874903Y-96365097D01*
X279645618Y-96176927D01*
X279384028Y-96037104D01*
X279100186Y-95951001D01*
X278805000Y-95921928D01*
X277055000Y-95921928D01*
X276759814Y-95951001D01*
X276475972Y-96037104D01*
X276214382Y-96176927D01*
X275985097Y-96365097D01*
X275796927Y-96594382D01*
X275657104Y-96855972D01*
X275571001Y-97139814D01*
X275541928Y-97435000D01*
X275541928Y-99185000D01*
X275571001Y-99480186D01*
X275657104Y-99764028D01*
X275796927Y-100025618D01*
X275985097Y-100254903D01*
X276214382Y-100443073D01*
X276475972Y-100582896D01*
X276604643Y-100621928D01*
X273180000Y-100621928D01*
X273055518Y-100634188D01*
X272935820Y-100670498D01*
X272825506Y-100729463D01*
X272728815Y-100808815D01*
X272649463Y-100905506D01*
X272590498Y-101015820D01*
X272554188Y-101135518D01*
X272541928Y-101260000D01*
X266658571Y-101260000D01*
X266695000Y-101076863D01*
X266695000Y-100863137D01*
X266653304Y-100653517D01*
X266571515Y-100456060D01*
X266452775Y-100278353D01*
X266301647Y-100127225D01*
X266123940Y-100008485D01*
X265926483Y-99926696D01*
X265716863Y-99885000D01*
X265503137Y-99885000D01*
X265293517Y-99926696D01*
X265096060Y-100008485D01*
X264918353Y-100127225D01*
X264767225Y-100278353D01*
X264648485Y-100456060D01*
X264566696Y-100653517D01*
X264566664Y-100653677D01*
X264386060Y-100728485D01*
X264208353Y-100847225D01*
X264057225Y-100998353D01*
X263938485Y-101176060D01*
X263856696Y-101373517D01*
X263815000Y-101583137D01*
X257479878Y-101583137D01*
X257452304Y-101444517D01*
X257370515Y-101247060D01*
X257251775Y-101069353D01*
X257100647Y-100918225D01*
X256922940Y-100799485D01*
X256725483Y-100717696D01*
X256515863Y-100676000D01*
X256302137Y-100676000D01*
X256092517Y-100717696D01*
X255895060Y-100799485D01*
X255717353Y-100918225D01*
X255566225Y-101069353D01*
X255447485Y-101247060D01*
X255365696Y-101444517D01*
X255324000Y-101654137D01*
X200745100Y-101654137D01*
X200745100Y-96979872D01*
X201275000Y-96979872D01*
X201275000Y-97420128D01*
X201360890Y-97851925D01*
X201529369Y-98258669D01*
X201773962Y-98624729D01*
X202085271Y-98936038D01*
X202451331Y-99180631D01*
X202858075Y-99349110D01*
X203289872Y-99435000D01*
X203730128Y-99435000D01*
X204161925Y-99349110D01*
X204568669Y-99180631D01*
X204934729Y-98936038D01*
X205246038Y-98624729D01*
X205490631Y-98258669D01*
X205659110Y-97851925D01*
X205745000Y-97420128D01*
X205745000Y-96979872D01*
X205659110Y-96548075D01*
X205490631Y-96141331D01*
X205246038Y-95775271D01*
X204934729Y-95463962D01*
X204568669Y-95219369D01*
X204161925Y-95050890D01*
X203730128Y-94965000D01*
X203289872Y-94965000D01*
X202858075Y-95050890D01*
X202451331Y-95219369D01*
X202085271Y-95463962D01*
X201773962Y-95775271D01*
X201529369Y-96141331D01*
X201360890Y-96548075D01*
X201275000Y-96979872D01*
X200745100Y-96979872D01*
X200745100Y-96727434D01*
X200791692Y-96252244D01*
X200919261Y-95829718D01*
X201126467Y-95440018D01*
X201405422Y-95097987D01*
X201745496Y-94816653D01*
X202133741Y-94606729D01*
X202555362Y-94476215D01*
X203028370Y-94426500D01*
X208167871Y-94426500D01*
X207948842Y-94470068D01*
M02*
