G04 #@! TF.GenerationSoftware,KiCad,Pcbnew,5.1.7-a382d34a8~88~ubuntu18.04.1*
G04 #@! TF.CreationDate,2021-04-23T16:21:05+02:00*
G04 #@! TF.ProjectId,alim_hat,616c696d-5f68-4617-942e-6b696361645f,4.1*
G04 #@! TF.SameCoordinates,Original*
G04 #@! TF.FileFunction,Paste,Top*
G04 #@! TF.FilePolarity,Positive*
%FSLAX46Y46*%
G04 Gerber Fmt 4.6, Leading zero omitted, Abs format (unit mm)*
G04 Created by KiCad (PCBNEW 5.1.7-a382d34a8~88~ubuntu18.04.1) date 2021-04-23 16:21:05*
%MOMM*%
%LPD*%
G01*
G04 APERTURE LIST*
%ADD10R,4.550000X5.250000*%
%ADD11R,4.600000X1.100000*%
%ADD12R,0.900000X1.200000*%
%ADD13R,3.400000X1.800000*%
G04 APERTURE END LIST*
G36*
G01*
X259135000Y-135860001D02*
X259135000Y-132959999D01*
G75*
G02*
X259384999Y-132710000I249999J0D01*
G01*
X260010001Y-132710000D01*
G75*
G02*
X260260000Y-132959999I0J-249999D01*
G01*
X260260000Y-135860001D01*
G75*
G02*
X260010001Y-136110000I-249999J0D01*
G01*
X259384999Y-136110000D01*
G75*
G02*
X259135000Y-135860001I0J249999D01*
G01*
G37*
G36*
G01*
X254860000Y-135860001D02*
X254860000Y-132959999D01*
G75*
G02*
X255109999Y-132710000I249999J0D01*
G01*
X255735001Y-132710000D01*
G75*
G02*
X255985000Y-132959999I0J-249999D01*
G01*
X255985000Y-135860001D01*
G75*
G02*
X255735001Y-136110000I-249999J0D01*
G01*
X255109999Y-136110000D01*
G75*
G02*
X254860000Y-135860001I0J249999D01*
G01*
G37*
G36*
G01*
X261795000Y-124650001D02*
X261795000Y-121749999D01*
G75*
G02*
X262044999Y-121500000I249999J0D01*
G01*
X262670001Y-121500000D01*
G75*
G02*
X262920000Y-121749999I0J-249999D01*
G01*
X262920000Y-124650001D01*
G75*
G02*
X262670001Y-124900000I-249999J0D01*
G01*
X262044999Y-124900000D01*
G75*
G02*
X261795000Y-124650001I0J249999D01*
G01*
G37*
G36*
G01*
X257520000Y-124650001D02*
X257520000Y-121749999D01*
G75*
G02*
X257769999Y-121500000I249999J0D01*
G01*
X258395001Y-121500000D01*
G75*
G02*
X258645000Y-121749999I0J-249999D01*
G01*
X258645000Y-124650001D01*
G75*
G02*
X258395001Y-124900000I-249999J0D01*
G01*
X257769999Y-124900000D01*
G75*
G02*
X257520000Y-124650001I0J249999D01*
G01*
G37*
G36*
G01*
X261875000Y-113420001D02*
X261875000Y-110519999D01*
G75*
G02*
X262124999Y-110270000I249999J0D01*
G01*
X262750001Y-110270000D01*
G75*
G02*
X263000000Y-110519999I0J-249999D01*
G01*
X263000000Y-113420001D01*
G75*
G02*
X262750001Y-113670000I-249999J0D01*
G01*
X262124999Y-113670000D01*
G75*
G02*
X261875000Y-113420001I0J249999D01*
G01*
G37*
G36*
G01*
X257600000Y-113420001D02*
X257600000Y-110519999D01*
G75*
G02*
X257849999Y-110270000I249999J0D01*
G01*
X258475001Y-110270000D01*
G75*
G02*
X258725000Y-110519999I0J-249999D01*
G01*
X258725000Y-113420001D01*
G75*
G02*
X258475001Y-113670000I-249999J0D01*
G01*
X257849999Y-113670000D01*
G75*
G02*
X257600000Y-113420001I0J249999D01*
G01*
G37*
G36*
G01*
X258825000Y-104490001D02*
X258825000Y-101589999D01*
G75*
G02*
X259074999Y-101340000I249999J0D01*
G01*
X259700001Y-101340000D01*
G75*
G02*
X259950000Y-101589999I0J-249999D01*
G01*
X259950000Y-104490001D01*
G75*
G02*
X259700001Y-104740000I-249999J0D01*
G01*
X259074999Y-104740000D01*
G75*
G02*
X258825000Y-104490001I0J249999D01*
G01*
G37*
G36*
G01*
X254550000Y-104490001D02*
X254550000Y-101589999D01*
G75*
G02*
X254799999Y-101340000I249999J0D01*
G01*
X255425001Y-101340000D01*
G75*
G02*
X255675000Y-101589999I0J-249999D01*
G01*
X255675000Y-104490001D01*
G75*
G02*
X255425001Y-104740000I-249999J0D01*
G01*
X254799999Y-104740000D01*
G75*
G02*
X254550000Y-104490001I0J249999D01*
G01*
G37*
G36*
G01*
X267540000Y-126655000D02*
X267540000Y-126355000D01*
G75*
G02*
X267690000Y-126205000I150000J0D01*
G01*
X269340000Y-126205000D01*
G75*
G02*
X269490000Y-126355000I0J-150000D01*
G01*
X269490000Y-126655000D01*
G75*
G02*
X269340000Y-126805000I-150000J0D01*
G01*
X267690000Y-126805000D01*
G75*
G02*
X267540000Y-126655000I0J150000D01*
G01*
G37*
G36*
G01*
X267540000Y-127925000D02*
X267540000Y-127625000D01*
G75*
G02*
X267690000Y-127475000I150000J0D01*
G01*
X269340000Y-127475000D01*
G75*
G02*
X269490000Y-127625000I0J-150000D01*
G01*
X269490000Y-127925000D01*
G75*
G02*
X269340000Y-128075000I-150000J0D01*
G01*
X267690000Y-128075000D01*
G75*
G02*
X267540000Y-127925000I0J150000D01*
G01*
G37*
G36*
G01*
X267540000Y-129195000D02*
X267540000Y-128895000D01*
G75*
G02*
X267690000Y-128745000I150000J0D01*
G01*
X269340000Y-128745000D01*
G75*
G02*
X269490000Y-128895000I0J-150000D01*
G01*
X269490000Y-129195000D01*
G75*
G02*
X269340000Y-129345000I-150000J0D01*
G01*
X267690000Y-129345000D01*
G75*
G02*
X267540000Y-129195000I0J150000D01*
G01*
G37*
G36*
G01*
X267540000Y-130465000D02*
X267540000Y-130165000D01*
G75*
G02*
X267690000Y-130015000I150000J0D01*
G01*
X269340000Y-130015000D01*
G75*
G02*
X269490000Y-130165000I0J-150000D01*
G01*
X269490000Y-130465000D01*
G75*
G02*
X269340000Y-130615000I-150000J0D01*
G01*
X267690000Y-130615000D01*
G75*
G02*
X267540000Y-130465000I0J150000D01*
G01*
G37*
G36*
G01*
X262590000Y-130465000D02*
X262590000Y-130165000D01*
G75*
G02*
X262740000Y-130015000I150000J0D01*
G01*
X264390000Y-130015000D01*
G75*
G02*
X264540000Y-130165000I0J-150000D01*
G01*
X264540000Y-130465000D01*
G75*
G02*
X264390000Y-130615000I-150000J0D01*
G01*
X262740000Y-130615000D01*
G75*
G02*
X262590000Y-130465000I0J150000D01*
G01*
G37*
G36*
G01*
X262590000Y-129195000D02*
X262590000Y-128895000D01*
G75*
G02*
X262740000Y-128745000I150000J0D01*
G01*
X264390000Y-128745000D01*
G75*
G02*
X264540000Y-128895000I0J-150000D01*
G01*
X264540000Y-129195000D01*
G75*
G02*
X264390000Y-129345000I-150000J0D01*
G01*
X262740000Y-129345000D01*
G75*
G02*
X262590000Y-129195000I0J150000D01*
G01*
G37*
G36*
G01*
X262590000Y-127925000D02*
X262590000Y-127625000D01*
G75*
G02*
X262740000Y-127475000I150000J0D01*
G01*
X264390000Y-127475000D01*
G75*
G02*
X264540000Y-127625000I0J-150000D01*
G01*
X264540000Y-127925000D01*
G75*
G02*
X264390000Y-128075000I-150000J0D01*
G01*
X262740000Y-128075000D01*
G75*
G02*
X262590000Y-127925000I0J150000D01*
G01*
G37*
G36*
G01*
X262590000Y-126655000D02*
X262590000Y-126355000D01*
G75*
G02*
X262740000Y-126205000I150000J0D01*
G01*
X264390000Y-126205000D01*
G75*
G02*
X264540000Y-126355000I0J-150000D01*
G01*
X264540000Y-126655000D01*
G75*
G02*
X264390000Y-126805000I-150000J0D01*
G01*
X262740000Y-126805000D01*
G75*
G02*
X262590000Y-126655000I0J150000D01*
G01*
G37*
D10*
X238350000Y-146275000D03*
X243200000Y-140725000D03*
X238350000Y-140725000D03*
X243200000Y-146275000D03*
D11*
X231625000Y-146040000D03*
X231625000Y-140960000D03*
G36*
G01*
X221750000Y-143943750D02*
X221750000Y-144856250D01*
G75*
G02*
X221506250Y-145100000I-243750J0D01*
G01*
X221018750Y-145100000D01*
G75*
G02*
X220775000Y-144856250I0J243750D01*
G01*
X220775000Y-143943750D01*
G75*
G02*
X221018750Y-143700000I243750J0D01*
G01*
X221506250Y-143700000D01*
G75*
G02*
X221750000Y-143943750I0J-243750D01*
G01*
G37*
G36*
G01*
X223625000Y-143943750D02*
X223625000Y-144856250D01*
G75*
G02*
X223381250Y-145100000I-243750J0D01*
G01*
X222893750Y-145100000D01*
G75*
G02*
X222650000Y-144856250I0J243750D01*
G01*
X222650000Y-143943750D01*
G75*
G02*
X222893750Y-143700000I243750J0D01*
G01*
X223381250Y-143700000D01*
G75*
G02*
X223625000Y-143943750I0J-243750D01*
G01*
G37*
D12*
X219350000Y-140300000D03*
X222650000Y-140300000D03*
D13*
X224400000Y-132700000D03*
X218400000Y-132700000D03*
G36*
G01*
X225643750Y-142150000D02*
X226556250Y-142150000D01*
G75*
G02*
X226800000Y-142393750I0J-243750D01*
G01*
X226800000Y-142881250D01*
G75*
G02*
X226556250Y-143125000I-243750J0D01*
G01*
X225643750Y-143125000D01*
G75*
G02*
X225400000Y-142881250I0J243750D01*
G01*
X225400000Y-142393750D01*
G75*
G02*
X225643750Y-142150000I243750J0D01*
G01*
G37*
G36*
G01*
X225643750Y-140275000D02*
X226556250Y-140275000D01*
G75*
G02*
X226800000Y-140518750I0J-243750D01*
G01*
X226800000Y-141006250D01*
G75*
G02*
X226556250Y-141250000I-243750J0D01*
G01*
X225643750Y-141250000D01*
G75*
G02*
X225400000Y-141006250I0J243750D01*
G01*
X225400000Y-140518750D01*
G75*
G02*
X225643750Y-140275000I243750J0D01*
G01*
G37*
G36*
G01*
X271635000Y-136015001D02*
X271635000Y-133164999D01*
G75*
G02*
X271884999Y-132915000I249999J0D01*
G01*
X272735001Y-132915000D01*
G75*
G02*
X272985000Y-133164999I0J-249999D01*
G01*
X272985000Y-136015001D01*
G75*
G02*
X272735001Y-136265000I-249999J0D01*
G01*
X271884999Y-136265000D01*
G75*
G02*
X271635000Y-136015001I0J249999D01*
G01*
G37*
G36*
G01*
X265835000Y-136015001D02*
X265835000Y-133164999D01*
G75*
G02*
X266084999Y-132915000I249999J0D01*
G01*
X266935001Y-132915000D01*
G75*
G02*
X267185000Y-133164999I0J-249999D01*
G01*
X267185000Y-136015001D01*
G75*
G02*
X266935001Y-136265000I-249999J0D01*
G01*
X266084999Y-136265000D01*
G75*
G02*
X265835000Y-136015001I0J249999D01*
G01*
G37*
G36*
G01*
X271575000Y-124405001D02*
X271575000Y-121554999D01*
G75*
G02*
X271824999Y-121305000I249999J0D01*
G01*
X272675001Y-121305000D01*
G75*
G02*
X272925000Y-121554999I0J-249999D01*
G01*
X272925000Y-124405001D01*
G75*
G02*
X272675001Y-124655000I-249999J0D01*
G01*
X271824999Y-124655000D01*
G75*
G02*
X271575000Y-124405001I0J249999D01*
G01*
G37*
G36*
G01*
X265775000Y-124405001D02*
X265775000Y-121554999D01*
G75*
G02*
X266024999Y-121305000I249999J0D01*
G01*
X266875001Y-121305000D01*
G75*
G02*
X267125000Y-121554999I0J-249999D01*
G01*
X267125000Y-124405001D01*
G75*
G02*
X266875001Y-124655000I-249999J0D01*
G01*
X266024999Y-124655000D01*
G75*
G02*
X265775000Y-124405001I0J249999D01*
G01*
G37*
G36*
G01*
X271545000Y-113165001D02*
X271545000Y-110314999D01*
G75*
G02*
X271794999Y-110065000I249999J0D01*
G01*
X272645001Y-110065000D01*
G75*
G02*
X272895000Y-110314999I0J-249999D01*
G01*
X272895000Y-113165001D01*
G75*
G02*
X272645001Y-113415000I-249999J0D01*
G01*
X271794999Y-113415000D01*
G75*
G02*
X271545000Y-113165001I0J249999D01*
G01*
G37*
G36*
G01*
X265745000Y-113165001D02*
X265745000Y-110314999D01*
G75*
G02*
X265994999Y-110065000I249999J0D01*
G01*
X266845001Y-110065000D01*
G75*
G02*
X267095000Y-110314999I0J-249999D01*
G01*
X267095000Y-113165001D01*
G75*
G02*
X266845001Y-113415000I-249999J0D01*
G01*
X265994999Y-113415000D01*
G75*
G02*
X265745000Y-113165001I0J249999D01*
G01*
G37*
G36*
G01*
X271665000Y-97735001D02*
X271665000Y-94884999D01*
G75*
G02*
X271914999Y-94635000I249999J0D01*
G01*
X272765001Y-94635000D01*
G75*
G02*
X273015000Y-94884999I0J-249999D01*
G01*
X273015000Y-97735001D01*
G75*
G02*
X272765001Y-97985000I-249999J0D01*
G01*
X271914999Y-97985000D01*
G75*
G02*
X271665000Y-97735001I0J249999D01*
G01*
G37*
G36*
G01*
X265865000Y-97735001D02*
X265865000Y-94884999D01*
G75*
G02*
X266114999Y-94635000I249999J0D01*
G01*
X266965001Y-94635000D01*
G75*
G02*
X267215000Y-94884999I0J-249999D01*
G01*
X267215000Y-97735001D01*
G75*
G02*
X266965001Y-97985000I-249999J0D01*
G01*
X266114999Y-97985000D01*
G75*
G02*
X265865000Y-97735001I0J249999D01*
G01*
G37*
G36*
G01*
X258820000Y-137993750D02*
X258820000Y-138906250D01*
G75*
G02*
X258576250Y-139150000I-243750J0D01*
G01*
X258088750Y-139150000D01*
G75*
G02*
X257845000Y-138906250I0J243750D01*
G01*
X257845000Y-137993750D01*
G75*
G02*
X258088750Y-137750000I243750J0D01*
G01*
X258576250Y-137750000D01*
G75*
G02*
X258820000Y-137993750I0J-243750D01*
G01*
G37*
G36*
G01*
X260695000Y-137993750D02*
X260695000Y-138906250D01*
G75*
G02*
X260451250Y-139150000I-243750J0D01*
G01*
X259963750Y-139150000D01*
G75*
G02*
X259720000Y-138906250I0J243750D01*
G01*
X259720000Y-137993750D01*
G75*
G02*
X259963750Y-137750000I243750J0D01*
G01*
X260451250Y-137750000D01*
G75*
G02*
X260695000Y-137993750I0J-243750D01*
G01*
G37*
G36*
G01*
X259650000Y-141866250D02*
X259650000Y-140953750D01*
G75*
G02*
X259893750Y-140710000I243750J0D01*
G01*
X260381250Y-140710000D01*
G75*
G02*
X260625000Y-140953750I0J-243750D01*
G01*
X260625000Y-141866250D01*
G75*
G02*
X260381250Y-142110000I-243750J0D01*
G01*
X259893750Y-142110000D01*
G75*
G02*
X259650000Y-141866250I0J243750D01*
G01*
G37*
G36*
G01*
X257775000Y-141866250D02*
X257775000Y-140953750D01*
G75*
G02*
X258018750Y-140710000I243750J0D01*
G01*
X258506250Y-140710000D01*
G75*
G02*
X258750000Y-140953750I0J-243750D01*
G01*
X258750000Y-141866250D01*
G75*
G02*
X258506250Y-142110000I-243750J0D01*
G01*
X258018750Y-142110000D01*
G75*
G02*
X257775000Y-141866250I0J243750D01*
G01*
G37*
G36*
G01*
X259260000Y-127073750D02*
X259260000Y-127986250D01*
G75*
G02*
X259016250Y-128230000I-243750J0D01*
G01*
X258528750Y-128230000D01*
G75*
G02*
X258285000Y-127986250I0J243750D01*
G01*
X258285000Y-127073750D01*
G75*
G02*
X258528750Y-126830000I243750J0D01*
G01*
X259016250Y-126830000D01*
G75*
G02*
X259260000Y-127073750I0J-243750D01*
G01*
G37*
G36*
G01*
X261135000Y-127073750D02*
X261135000Y-127986250D01*
G75*
G02*
X260891250Y-128230000I-243750J0D01*
G01*
X260403750Y-128230000D01*
G75*
G02*
X260160000Y-127986250I0J243750D01*
G01*
X260160000Y-127073750D01*
G75*
G02*
X260403750Y-126830000I243750J0D01*
G01*
X260891250Y-126830000D01*
G75*
G02*
X261135000Y-127073750I0J-243750D01*
G01*
G37*
G36*
G01*
X260210000Y-130136250D02*
X260210000Y-129223750D01*
G75*
G02*
X260453750Y-128980000I243750J0D01*
G01*
X260941250Y-128980000D01*
G75*
G02*
X261185000Y-129223750I0J-243750D01*
G01*
X261185000Y-130136250D01*
G75*
G02*
X260941250Y-130380000I-243750J0D01*
G01*
X260453750Y-130380000D01*
G75*
G02*
X260210000Y-130136250I0J243750D01*
G01*
G37*
G36*
G01*
X258335000Y-130136250D02*
X258335000Y-129223750D01*
G75*
G02*
X258578750Y-128980000I243750J0D01*
G01*
X259066250Y-128980000D01*
G75*
G02*
X259310000Y-129223750I0J-243750D01*
G01*
X259310000Y-130136250D01*
G75*
G02*
X259066250Y-130380000I-243750J0D01*
G01*
X258578750Y-130380000D01*
G75*
G02*
X258335000Y-130136250I0J243750D01*
G01*
G37*
G36*
G01*
X257210000Y-115293750D02*
X257210000Y-116206250D01*
G75*
G02*
X256966250Y-116450000I-243750J0D01*
G01*
X256478750Y-116450000D01*
G75*
G02*
X256235000Y-116206250I0J243750D01*
G01*
X256235000Y-115293750D01*
G75*
G02*
X256478750Y-115050000I243750J0D01*
G01*
X256966250Y-115050000D01*
G75*
G02*
X257210000Y-115293750I0J-243750D01*
G01*
G37*
G36*
G01*
X259085000Y-115293750D02*
X259085000Y-116206250D01*
G75*
G02*
X258841250Y-116450000I-243750J0D01*
G01*
X258353750Y-116450000D01*
G75*
G02*
X258110000Y-116206250I0J243750D01*
G01*
X258110000Y-115293750D01*
G75*
G02*
X258353750Y-115050000I243750J0D01*
G01*
X258841250Y-115050000D01*
G75*
G02*
X259085000Y-115293750I0J-243750D01*
G01*
G37*
G36*
G01*
X258190000Y-118326250D02*
X258190000Y-117413750D01*
G75*
G02*
X258433750Y-117170000I243750J0D01*
G01*
X258921250Y-117170000D01*
G75*
G02*
X259165000Y-117413750I0J-243750D01*
G01*
X259165000Y-118326250D01*
G75*
G02*
X258921250Y-118570000I-243750J0D01*
G01*
X258433750Y-118570000D01*
G75*
G02*
X258190000Y-118326250I0J243750D01*
G01*
G37*
G36*
G01*
X256315000Y-118326250D02*
X256315000Y-117413750D01*
G75*
G02*
X256558750Y-117170000I243750J0D01*
G01*
X257046250Y-117170000D01*
G75*
G02*
X257290000Y-117413750I0J-243750D01*
G01*
X257290000Y-118326250D01*
G75*
G02*
X257046250Y-118570000I-243750J0D01*
G01*
X256558750Y-118570000D01*
G75*
G02*
X256315000Y-118326250I0J243750D01*
G01*
G37*
G36*
G01*
X269740000Y-100246250D02*
X269740000Y-99333750D01*
G75*
G02*
X269983750Y-99090000I243750J0D01*
G01*
X270471250Y-99090000D01*
G75*
G02*
X270715000Y-99333750I0J-243750D01*
G01*
X270715000Y-100246250D01*
G75*
G02*
X270471250Y-100490000I-243750J0D01*
G01*
X269983750Y-100490000D01*
G75*
G02*
X269740000Y-100246250I0J243750D01*
G01*
G37*
G36*
G01*
X267865000Y-100246250D02*
X267865000Y-99333750D01*
G75*
G02*
X268108750Y-99090000I243750J0D01*
G01*
X268596250Y-99090000D01*
G75*
G02*
X268840000Y-99333750I0J-243750D01*
G01*
X268840000Y-100246250D01*
G75*
G02*
X268596250Y-100490000I-243750J0D01*
G01*
X268108750Y-100490000D01*
G75*
G02*
X267865000Y-100246250I0J243750D01*
G01*
G37*
G36*
G01*
X268820000Y-101473750D02*
X268820000Y-102386250D01*
G75*
G02*
X268576250Y-102630000I-243750J0D01*
G01*
X268088750Y-102630000D01*
G75*
G02*
X267845000Y-102386250I0J243750D01*
G01*
X267845000Y-101473750D01*
G75*
G02*
X268088750Y-101230000I243750J0D01*
G01*
X268576250Y-101230000D01*
G75*
G02*
X268820000Y-101473750I0J-243750D01*
G01*
G37*
G36*
G01*
X270695000Y-101473750D02*
X270695000Y-102386250D01*
G75*
G02*
X270451250Y-102630000I-243750J0D01*
G01*
X269963750Y-102630000D01*
G75*
G02*
X269720000Y-102386250I0J243750D01*
G01*
X269720000Y-101473750D01*
G75*
G02*
X269963750Y-101230000I243750J0D01*
G01*
X270451250Y-101230000D01*
G75*
G02*
X270695000Y-101473750I0J-243750D01*
G01*
G37*
G36*
G01*
X267540000Y-138155000D02*
X267540000Y-137855000D01*
G75*
G02*
X267690000Y-137705000I150000J0D01*
G01*
X269340000Y-137705000D01*
G75*
G02*
X269490000Y-137855000I0J-150000D01*
G01*
X269490000Y-138155000D01*
G75*
G02*
X269340000Y-138305000I-150000J0D01*
G01*
X267690000Y-138305000D01*
G75*
G02*
X267540000Y-138155000I0J150000D01*
G01*
G37*
G36*
G01*
X267540000Y-139425000D02*
X267540000Y-139125000D01*
G75*
G02*
X267690000Y-138975000I150000J0D01*
G01*
X269340000Y-138975000D01*
G75*
G02*
X269490000Y-139125000I0J-150000D01*
G01*
X269490000Y-139425000D01*
G75*
G02*
X269340000Y-139575000I-150000J0D01*
G01*
X267690000Y-139575000D01*
G75*
G02*
X267540000Y-139425000I0J150000D01*
G01*
G37*
G36*
G01*
X267540000Y-140695000D02*
X267540000Y-140395000D01*
G75*
G02*
X267690000Y-140245000I150000J0D01*
G01*
X269340000Y-140245000D01*
G75*
G02*
X269490000Y-140395000I0J-150000D01*
G01*
X269490000Y-140695000D01*
G75*
G02*
X269340000Y-140845000I-150000J0D01*
G01*
X267690000Y-140845000D01*
G75*
G02*
X267540000Y-140695000I0J150000D01*
G01*
G37*
G36*
G01*
X267540000Y-141965000D02*
X267540000Y-141665000D01*
G75*
G02*
X267690000Y-141515000I150000J0D01*
G01*
X269340000Y-141515000D01*
G75*
G02*
X269490000Y-141665000I0J-150000D01*
G01*
X269490000Y-141965000D01*
G75*
G02*
X269340000Y-142115000I-150000J0D01*
G01*
X267690000Y-142115000D01*
G75*
G02*
X267540000Y-141965000I0J150000D01*
G01*
G37*
G36*
G01*
X262590000Y-141965000D02*
X262590000Y-141665000D01*
G75*
G02*
X262740000Y-141515000I150000J0D01*
G01*
X264390000Y-141515000D01*
G75*
G02*
X264540000Y-141665000I0J-150000D01*
G01*
X264540000Y-141965000D01*
G75*
G02*
X264390000Y-142115000I-150000J0D01*
G01*
X262740000Y-142115000D01*
G75*
G02*
X262590000Y-141965000I0J150000D01*
G01*
G37*
G36*
G01*
X262590000Y-140695000D02*
X262590000Y-140395000D01*
G75*
G02*
X262740000Y-140245000I150000J0D01*
G01*
X264390000Y-140245000D01*
G75*
G02*
X264540000Y-140395000I0J-150000D01*
G01*
X264540000Y-140695000D01*
G75*
G02*
X264390000Y-140845000I-150000J0D01*
G01*
X262740000Y-140845000D01*
G75*
G02*
X262590000Y-140695000I0J150000D01*
G01*
G37*
G36*
G01*
X262590000Y-139425000D02*
X262590000Y-139125000D01*
G75*
G02*
X262740000Y-138975000I150000J0D01*
G01*
X264390000Y-138975000D01*
G75*
G02*
X264540000Y-139125000I0J-150000D01*
G01*
X264540000Y-139425000D01*
G75*
G02*
X264390000Y-139575000I-150000J0D01*
G01*
X262740000Y-139575000D01*
G75*
G02*
X262590000Y-139425000I0J150000D01*
G01*
G37*
G36*
G01*
X262590000Y-138155000D02*
X262590000Y-137855000D01*
G75*
G02*
X262740000Y-137705000I150000J0D01*
G01*
X264390000Y-137705000D01*
G75*
G02*
X264540000Y-137855000I0J-150000D01*
G01*
X264540000Y-138155000D01*
G75*
G02*
X264390000Y-138305000I-150000J0D01*
G01*
X262740000Y-138305000D01*
G75*
G02*
X262590000Y-138155000I0J150000D01*
G01*
G37*
G36*
G01*
X265840000Y-115185000D02*
X265840000Y-114885000D01*
G75*
G02*
X265990000Y-114735000I150000J0D01*
G01*
X267640000Y-114735000D01*
G75*
G02*
X267790000Y-114885000I0J-150000D01*
G01*
X267790000Y-115185000D01*
G75*
G02*
X267640000Y-115335000I-150000J0D01*
G01*
X265990000Y-115335000D01*
G75*
G02*
X265840000Y-115185000I0J150000D01*
G01*
G37*
G36*
G01*
X265840000Y-116455000D02*
X265840000Y-116155000D01*
G75*
G02*
X265990000Y-116005000I150000J0D01*
G01*
X267640000Y-116005000D01*
G75*
G02*
X267790000Y-116155000I0J-150000D01*
G01*
X267790000Y-116455000D01*
G75*
G02*
X267640000Y-116605000I-150000J0D01*
G01*
X265990000Y-116605000D01*
G75*
G02*
X265840000Y-116455000I0J150000D01*
G01*
G37*
G36*
G01*
X265840000Y-117725000D02*
X265840000Y-117425000D01*
G75*
G02*
X265990000Y-117275000I150000J0D01*
G01*
X267640000Y-117275000D01*
G75*
G02*
X267790000Y-117425000I0J-150000D01*
G01*
X267790000Y-117725000D01*
G75*
G02*
X267640000Y-117875000I-150000J0D01*
G01*
X265990000Y-117875000D01*
G75*
G02*
X265840000Y-117725000I0J150000D01*
G01*
G37*
G36*
G01*
X265840000Y-118995000D02*
X265840000Y-118695000D01*
G75*
G02*
X265990000Y-118545000I150000J0D01*
G01*
X267640000Y-118545000D01*
G75*
G02*
X267790000Y-118695000I0J-150000D01*
G01*
X267790000Y-118995000D01*
G75*
G02*
X267640000Y-119145000I-150000J0D01*
G01*
X265990000Y-119145000D01*
G75*
G02*
X265840000Y-118995000I0J150000D01*
G01*
G37*
G36*
G01*
X260890000Y-118995000D02*
X260890000Y-118695000D01*
G75*
G02*
X261040000Y-118545000I150000J0D01*
G01*
X262690000Y-118545000D01*
G75*
G02*
X262840000Y-118695000I0J-150000D01*
G01*
X262840000Y-118995000D01*
G75*
G02*
X262690000Y-119145000I-150000J0D01*
G01*
X261040000Y-119145000D01*
G75*
G02*
X260890000Y-118995000I0J150000D01*
G01*
G37*
G36*
G01*
X260890000Y-117725000D02*
X260890000Y-117425000D01*
G75*
G02*
X261040000Y-117275000I150000J0D01*
G01*
X262690000Y-117275000D01*
G75*
G02*
X262840000Y-117425000I0J-150000D01*
G01*
X262840000Y-117725000D01*
G75*
G02*
X262690000Y-117875000I-150000J0D01*
G01*
X261040000Y-117875000D01*
G75*
G02*
X260890000Y-117725000I0J150000D01*
G01*
G37*
G36*
G01*
X260890000Y-116455000D02*
X260890000Y-116155000D01*
G75*
G02*
X261040000Y-116005000I150000J0D01*
G01*
X262690000Y-116005000D01*
G75*
G02*
X262840000Y-116155000I0J-150000D01*
G01*
X262840000Y-116455000D01*
G75*
G02*
X262690000Y-116605000I-150000J0D01*
G01*
X261040000Y-116605000D01*
G75*
G02*
X260890000Y-116455000I0J150000D01*
G01*
G37*
G36*
G01*
X260890000Y-115185000D02*
X260890000Y-114885000D01*
G75*
G02*
X261040000Y-114735000I150000J0D01*
G01*
X262690000Y-114735000D01*
G75*
G02*
X262840000Y-114885000I0J-150000D01*
G01*
X262840000Y-115185000D01*
G75*
G02*
X262690000Y-115335000I-150000J0D01*
G01*
X261040000Y-115335000D01*
G75*
G02*
X260890000Y-115185000I0J150000D01*
G01*
G37*
G36*
G01*
X269070000Y-104105000D02*
X269070000Y-103805000D01*
G75*
G02*
X269220000Y-103655000I150000J0D01*
G01*
X270870000Y-103655000D01*
G75*
G02*
X271020000Y-103805000I0J-150000D01*
G01*
X271020000Y-104105000D01*
G75*
G02*
X270870000Y-104255000I-150000J0D01*
G01*
X269220000Y-104255000D01*
G75*
G02*
X269070000Y-104105000I0J150000D01*
G01*
G37*
G36*
G01*
X269070000Y-105375000D02*
X269070000Y-105075000D01*
G75*
G02*
X269220000Y-104925000I150000J0D01*
G01*
X270870000Y-104925000D01*
G75*
G02*
X271020000Y-105075000I0J-150000D01*
G01*
X271020000Y-105375000D01*
G75*
G02*
X270870000Y-105525000I-150000J0D01*
G01*
X269220000Y-105525000D01*
G75*
G02*
X269070000Y-105375000I0J150000D01*
G01*
G37*
G36*
G01*
X269070000Y-106645000D02*
X269070000Y-106345000D01*
G75*
G02*
X269220000Y-106195000I150000J0D01*
G01*
X270870000Y-106195000D01*
G75*
G02*
X271020000Y-106345000I0J-150000D01*
G01*
X271020000Y-106645000D01*
G75*
G02*
X270870000Y-106795000I-150000J0D01*
G01*
X269220000Y-106795000D01*
G75*
G02*
X269070000Y-106645000I0J150000D01*
G01*
G37*
G36*
G01*
X269070000Y-107915000D02*
X269070000Y-107615000D01*
G75*
G02*
X269220000Y-107465000I150000J0D01*
G01*
X270870000Y-107465000D01*
G75*
G02*
X271020000Y-107615000I0J-150000D01*
G01*
X271020000Y-107915000D01*
G75*
G02*
X270870000Y-108065000I-150000J0D01*
G01*
X269220000Y-108065000D01*
G75*
G02*
X269070000Y-107915000I0J150000D01*
G01*
G37*
G36*
G01*
X264120000Y-107915000D02*
X264120000Y-107615000D01*
G75*
G02*
X264270000Y-107465000I150000J0D01*
G01*
X265920000Y-107465000D01*
G75*
G02*
X266070000Y-107615000I0J-150000D01*
G01*
X266070000Y-107915000D01*
G75*
G02*
X265920000Y-108065000I-150000J0D01*
G01*
X264270000Y-108065000D01*
G75*
G02*
X264120000Y-107915000I0J150000D01*
G01*
G37*
G36*
G01*
X264120000Y-106645000D02*
X264120000Y-106345000D01*
G75*
G02*
X264270000Y-106195000I150000J0D01*
G01*
X265920000Y-106195000D01*
G75*
G02*
X266070000Y-106345000I0J-150000D01*
G01*
X266070000Y-106645000D01*
G75*
G02*
X265920000Y-106795000I-150000J0D01*
G01*
X264270000Y-106795000D01*
G75*
G02*
X264120000Y-106645000I0J150000D01*
G01*
G37*
G36*
G01*
X264120000Y-105375000D02*
X264120000Y-105075000D01*
G75*
G02*
X264270000Y-104925000I150000J0D01*
G01*
X265920000Y-104925000D01*
G75*
G02*
X266070000Y-105075000I0J-150000D01*
G01*
X266070000Y-105375000D01*
G75*
G02*
X265920000Y-105525000I-150000J0D01*
G01*
X264270000Y-105525000D01*
G75*
G02*
X264120000Y-105375000I0J150000D01*
G01*
G37*
G36*
G01*
X264120000Y-104105000D02*
X264120000Y-103805000D01*
G75*
G02*
X264270000Y-103655000I150000J0D01*
G01*
X265920000Y-103655000D01*
G75*
G02*
X266070000Y-103805000I0J-150000D01*
G01*
X266070000Y-104105000D01*
G75*
G02*
X265920000Y-104255000I-150000J0D01*
G01*
X264270000Y-104255000D01*
G75*
G02*
X264120000Y-104105000I0J150000D01*
G01*
G37*
X229000000Y-132700000D03*
X235000000Y-132700000D03*
M02*
