G04 #@! TF.GenerationSoftware,KiCad,Pcbnew,(5.1.5)-3*
G04 #@! TF.CreationDate,2020-10-25T23:42:07+01:00*
G04 #@! TF.ProjectId,alim_hat,616c696d-5f68-4617-942e-6b696361645f,rev?*
G04 #@! TF.SameCoordinates,Original*
G04 #@! TF.FileFunction,Soldermask,Bot*
G04 #@! TF.FilePolarity,Negative*
%FSLAX46Y46*%
G04 Gerber Fmt 4.6, Leading zero omitted, Abs format (unit mm)*
G04 Created by KiCad (PCBNEW (5.1.5)-3) date 2020-10-25 23:42:07*
%MOMM*%
%LPD*%
G04 APERTURE LIST*
%ADD10C,5.600000*%
%ADD11C,6.200000*%
%ADD12C,3.200000*%
%ADD13R,10.800000X9.400000*%
%ADD14R,1.100000X4.600000*%
%ADD15C,3.500000*%
%ADD16R,3.500000X3.500000*%
%ADD17C,1.400000*%
%ADD18C,0.150000*%
%ADD19O,1.700000X1.700000*%
%ADD20R,1.700000X1.700000*%
%ADD21C,2.250000*%
%ADD22R,2.900000X5.450000*%
%ADD23C,3.000000*%
%ADD24R,3.000000X3.000000*%
G04 APERTURE END LIST*
D10*
X261510000Y-146190000D03*
D11*
X203510000Y-146200000D03*
X261510000Y-97200000D03*
D12*
X203510000Y-97200000D03*
D13*
X225496520Y-131778700D03*
D14*
X222956520Y-140928700D03*
X228036520Y-140928700D03*
D15*
X213030200Y-113793580D03*
D16*
X213030200Y-108793580D03*
D17*
X203030200Y-116793580D03*
X203030200Y-105793580D03*
D18*
G36*
X270029505Y-139526204D02*
G01*
X270053773Y-139529804D01*
X270077572Y-139535765D01*
X270100671Y-139544030D01*
X270122850Y-139554520D01*
X270143893Y-139567132D01*
X270163599Y-139581747D01*
X270181777Y-139598223D01*
X270198253Y-139616401D01*
X270212868Y-139636107D01*
X270225480Y-139657150D01*
X270235970Y-139679329D01*
X270244235Y-139702428D01*
X270250196Y-139726227D01*
X270253796Y-139750495D01*
X270255000Y-139774999D01*
X270255000Y-140625001D01*
X270253796Y-140649505D01*
X270250196Y-140673773D01*
X270244235Y-140697572D01*
X270235970Y-140720671D01*
X270225480Y-140742850D01*
X270212868Y-140763893D01*
X270198253Y-140783599D01*
X270181777Y-140801777D01*
X270163599Y-140818253D01*
X270143893Y-140832868D01*
X270122850Y-140845480D01*
X270100671Y-140855970D01*
X270077572Y-140864235D01*
X270053773Y-140870196D01*
X270029505Y-140873796D01*
X270005001Y-140875000D01*
X267154999Y-140875000D01*
X267130495Y-140873796D01*
X267106227Y-140870196D01*
X267082428Y-140864235D01*
X267059329Y-140855970D01*
X267037150Y-140845480D01*
X267016107Y-140832868D01*
X266996401Y-140818253D01*
X266978223Y-140801777D01*
X266961747Y-140783599D01*
X266947132Y-140763893D01*
X266934520Y-140742850D01*
X266924030Y-140720671D01*
X266915765Y-140697572D01*
X266909804Y-140673773D01*
X266906204Y-140649505D01*
X266905000Y-140625001D01*
X266905000Y-139774999D01*
X266906204Y-139750495D01*
X266909804Y-139726227D01*
X266915765Y-139702428D01*
X266924030Y-139679329D01*
X266934520Y-139657150D01*
X266947132Y-139636107D01*
X266961747Y-139616401D01*
X266978223Y-139598223D01*
X266996401Y-139581747D01*
X267016107Y-139567132D01*
X267037150Y-139554520D01*
X267059329Y-139544030D01*
X267082428Y-139535765D01*
X267106227Y-139529804D01*
X267130495Y-139526204D01*
X267154999Y-139525000D01*
X270005001Y-139525000D01*
X270029505Y-139526204D01*
G37*
G36*
X270029505Y-133726204D02*
G01*
X270053773Y-133729804D01*
X270077572Y-133735765D01*
X270100671Y-133744030D01*
X270122850Y-133754520D01*
X270143893Y-133767132D01*
X270163599Y-133781747D01*
X270181777Y-133798223D01*
X270198253Y-133816401D01*
X270212868Y-133836107D01*
X270225480Y-133857150D01*
X270235970Y-133879329D01*
X270244235Y-133902428D01*
X270250196Y-133926227D01*
X270253796Y-133950495D01*
X270255000Y-133974999D01*
X270255000Y-134825001D01*
X270253796Y-134849505D01*
X270250196Y-134873773D01*
X270244235Y-134897572D01*
X270235970Y-134920671D01*
X270225480Y-134942850D01*
X270212868Y-134963893D01*
X270198253Y-134983599D01*
X270181777Y-135001777D01*
X270163599Y-135018253D01*
X270143893Y-135032868D01*
X270122850Y-135045480D01*
X270100671Y-135055970D01*
X270077572Y-135064235D01*
X270053773Y-135070196D01*
X270029505Y-135073796D01*
X270005001Y-135075000D01*
X267154999Y-135075000D01*
X267130495Y-135073796D01*
X267106227Y-135070196D01*
X267082428Y-135064235D01*
X267059329Y-135055970D01*
X267037150Y-135045480D01*
X267016107Y-135032868D01*
X266996401Y-135018253D01*
X266978223Y-135001777D01*
X266961747Y-134983599D01*
X266947132Y-134963893D01*
X266934520Y-134942850D01*
X266924030Y-134920671D01*
X266915765Y-134897572D01*
X266909804Y-134873773D01*
X266906204Y-134849505D01*
X266905000Y-134825001D01*
X266905000Y-133974999D01*
X266906204Y-133950495D01*
X266909804Y-133926227D01*
X266915765Y-133902428D01*
X266924030Y-133879329D01*
X266934520Y-133857150D01*
X266947132Y-133836107D01*
X266961747Y-133816401D01*
X266978223Y-133798223D01*
X266996401Y-133781747D01*
X267016107Y-133767132D01*
X267037150Y-133754520D01*
X267059329Y-133744030D01*
X267082428Y-133735765D01*
X267106227Y-133729804D01*
X267130495Y-133726204D01*
X267154999Y-133725000D01*
X270005001Y-133725000D01*
X270029505Y-133726204D01*
G37*
G36*
X270029505Y-128096204D02*
G01*
X270053773Y-128099804D01*
X270077572Y-128105765D01*
X270100671Y-128114030D01*
X270122850Y-128124520D01*
X270143893Y-128137132D01*
X270163599Y-128151747D01*
X270181777Y-128168223D01*
X270198253Y-128186401D01*
X270212868Y-128206107D01*
X270225480Y-128227150D01*
X270235970Y-128249329D01*
X270244235Y-128272428D01*
X270250196Y-128296227D01*
X270253796Y-128320495D01*
X270255000Y-128344999D01*
X270255000Y-129195001D01*
X270253796Y-129219505D01*
X270250196Y-129243773D01*
X270244235Y-129267572D01*
X270235970Y-129290671D01*
X270225480Y-129312850D01*
X270212868Y-129333893D01*
X270198253Y-129353599D01*
X270181777Y-129371777D01*
X270163599Y-129388253D01*
X270143893Y-129402868D01*
X270122850Y-129415480D01*
X270100671Y-129425970D01*
X270077572Y-129434235D01*
X270053773Y-129440196D01*
X270029505Y-129443796D01*
X270005001Y-129445000D01*
X267154999Y-129445000D01*
X267130495Y-129443796D01*
X267106227Y-129440196D01*
X267082428Y-129434235D01*
X267059329Y-129425970D01*
X267037150Y-129415480D01*
X267016107Y-129402868D01*
X266996401Y-129388253D01*
X266978223Y-129371777D01*
X266961747Y-129353599D01*
X266947132Y-129333893D01*
X266934520Y-129312850D01*
X266924030Y-129290671D01*
X266915765Y-129267572D01*
X266909804Y-129243773D01*
X266906204Y-129219505D01*
X266905000Y-129195001D01*
X266905000Y-128344999D01*
X266906204Y-128320495D01*
X266909804Y-128296227D01*
X266915765Y-128272428D01*
X266924030Y-128249329D01*
X266934520Y-128227150D01*
X266947132Y-128206107D01*
X266961747Y-128186401D01*
X266978223Y-128168223D01*
X266996401Y-128151747D01*
X267016107Y-128137132D01*
X267037150Y-128124520D01*
X267059329Y-128114030D01*
X267082428Y-128105765D01*
X267106227Y-128099804D01*
X267130495Y-128096204D01*
X267154999Y-128095000D01*
X270005001Y-128095000D01*
X270029505Y-128096204D01*
G37*
G36*
X270029505Y-122296204D02*
G01*
X270053773Y-122299804D01*
X270077572Y-122305765D01*
X270100671Y-122314030D01*
X270122850Y-122324520D01*
X270143893Y-122337132D01*
X270163599Y-122351747D01*
X270181777Y-122368223D01*
X270198253Y-122386401D01*
X270212868Y-122406107D01*
X270225480Y-122427150D01*
X270235970Y-122449329D01*
X270244235Y-122472428D01*
X270250196Y-122496227D01*
X270253796Y-122520495D01*
X270255000Y-122544999D01*
X270255000Y-123395001D01*
X270253796Y-123419505D01*
X270250196Y-123443773D01*
X270244235Y-123467572D01*
X270235970Y-123490671D01*
X270225480Y-123512850D01*
X270212868Y-123533893D01*
X270198253Y-123553599D01*
X270181777Y-123571777D01*
X270163599Y-123588253D01*
X270143893Y-123602868D01*
X270122850Y-123615480D01*
X270100671Y-123625970D01*
X270077572Y-123634235D01*
X270053773Y-123640196D01*
X270029505Y-123643796D01*
X270005001Y-123645000D01*
X267154999Y-123645000D01*
X267130495Y-123643796D01*
X267106227Y-123640196D01*
X267082428Y-123634235D01*
X267059329Y-123625970D01*
X267037150Y-123615480D01*
X267016107Y-123602868D01*
X266996401Y-123588253D01*
X266978223Y-123571777D01*
X266961747Y-123553599D01*
X266947132Y-123533893D01*
X266934520Y-123512850D01*
X266924030Y-123490671D01*
X266915765Y-123467572D01*
X266909804Y-123443773D01*
X266906204Y-123419505D01*
X266905000Y-123395001D01*
X266905000Y-122544999D01*
X266906204Y-122520495D01*
X266909804Y-122496227D01*
X266915765Y-122472428D01*
X266924030Y-122449329D01*
X266934520Y-122427150D01*
X266947132Y-122406107D01*
X266961747Y-122386401D01*
X266978223Y-122368223D01*
X266996401Y-122351747D01*
X267016107Y-122337132D01*
X267037150Y-122324520D01*
X267059329Y-122314030D01*
X267082428Y-122305765D01*
X267106227Y-122299804D01*
X267130495Y-122296204D01*
X267154999Y-122295000D01*
X270005001Y-122295000D01*
X270029505Y-122296204D01*
G37*
G36*
X270029505Y-115396204D02*
G01*
X270053773Y-115399804D01*
X270077572Y-115405765D01*
X270100671Y-115414030D01*
X270122850Y-115424520D01*
X270143893Y-115437132D01*
X270163599Y-115451747D01*
X270181777Y-115468223D01*
X270198253Y-115486401D01*
X270212868Y-115506107D01*
X270225480Y-115527150D01*
X270235970Y-115549329D01*
X270244235Y-115572428D01*
X270250196Y-115596227D01*
X270253796Y-115620495D01*
X270255000Y-115644999D01*
X270255000Y-116495001D01*
X270253796Y-116519505D01*
X270250196Y-116543773D01*
X270244235Y-116567572D01*
X270235970Y-116590671D01*
X270225480Y-116612850D01*
X270212868Y-116633893D01*
X270198253Y-116653599D01*
X270181777Y-116671777D01*
X270163599Y-116688253D01*
X270143893Y-116702868D01*
X270122850Y-116715480D01*
X270100671Y-116725970D01*
X270077572Y-116734235D01*
X270053773Y-116740196D01*
X270029505Y-116743796D01*
X270005001Y-116745000D01*
X267154999Y-116745000D01*
X267130495Y-116743796D01*
X267106227Y-116740196D01*
X267082428Y-116734235D01*
X267059329Y-116725970D01*
X267037150Y-116715480D01*
X267016107Y-116702868D01*
X266996401Y-116688253D01*
X266978223Y-116671777D01*
X266961747Y-116653599D01*
X266947132Y-116633893D01*
X266934520Y-116612850D01*
X266924030Y-116590671D01*
X266915765Y-116567572D01*
X266909804Y-116543773D01*
X266906204Y-116519505D01*
X266905000Y-116495001D01*
X266905000Y-115644999D01*
X266906204Y-115620495D01*
X266909804Y-115596227D01*
X266915765Y-115572428D01*
X266924030Y-115549329D01*
X266934520Y-115527150D01*
X266947132Y-115506107D01*
X266961747Y-115486401D01*
X266978223Y-115468223D01*
X266996401Y-115451747D01*
X267016107Y-115437132D01*
X267037150Y-115424520D01*
X267059329Y-115414030D01*
X267082428Y-115405765D01*
X267106227Y-115399804D01*
X267130495Y-115396204D01*
X267154999Y-115395000D01*
X270005001Y-115395000D01*
X270029505Y-115396204D01*
G37*
G36*
X270029505Y-109596204D02*
G01*
X270053773Y-109599804D01*
X270077572Y-109605765D01*
X270100671Y-109614030D01*
X270122850Y-109624520D01*
X270143893Y-109637132D01*
X270163599Y-109651747D01*
X270181777Y-109668223D01*
X270198253Y-109686401D01*
X270212868Y-109706107D01*
X270225480Y-109727150D01*
X270235970Y-109749329D01*
X270244235Y-109772428D01*
X270250196Y-109796227D01*
X270253796Y-109820495D01*
X270255000Y-109844999D01*
X270255000Y-110695001D01*
X270253796Y-110719505D01*
X270250196Y-110743773D01*
X270244235Y-110767572D01*
X270235970Y-110790671D01*
X270225480Y-110812850D01*
X270212868Y-110833893D01*
X270198253Y-110853599D01*
X270181777Y-110871777D01*
X270163599Y-110888253D01*
X270143893Y-110902868D01*
X270122850Y-110915480D01*
X270100671Y-110925970D01*
X270077572Y-110934235D01*
X270053773Y-110940196D01*
X270029505Y-110943796D01*
X270005001Y-110945000D01*
X267154999Y-110945000D01*
X267130495Y-110943796D01*
X267106227Y-110940196D01*
X267082428Y-110934235D01*
X267059329Y-110925970D01*
X267037150Y-110915480D01*
X267016107Y-110902868D01*
X266996401Y-110888253D01*
X266978223Y-110871777D01*
X266961747Y-110853599D01*
X266947132Y-110833893D01*
X266934520Y-110812850D01*
X266924030Y-110790671D01*
X266915765Y-110767572D01*
X266909804Y-110743773D01*
X266906204Y-110719505D01*
X266905000Y-110695001D01*
X266905000Y-109844999D01*
X266906204Y-109820495D01*
X266909804Y-109796227D01*
X266915765Y-109772428D01*
X266924030Y-109749329D01*
X266934520Y-109727150D01*
X266947132Y-109706107D01*
X266961747Y-109686401D01*
X266978223Y-109668223D01*
X266996401Y-109651747D01*
X267016107Y-109637132D01*
X267037150Y-109624520D01*
X267059329Y-109614030D01*
X267082428Y-109605765D01*
X267106227Y-109599804D01*
X267130495Y-109596204D01*
X267154999Y-109595000D01*
X270005001Y-109595000D01*
X270029505Y-109596204D01*
G37*
G36*
X270019345Y-104629144D02*
G01*
X270043613Y-104632744D01*
X270067412Y-104638705D01*
X270090511Y-104646970D01*
X270112690Y-104657460D01*
X270133733Y-104670072D01*
X270153439Y-104684687D01*
X270171617Y-104701163D01*
X270188093Y-104719341D01*
X270202708Y-104739047D01*
X270215320Y-104760090D01*
X270225810Y-104782269D01*
X270234075Y-104805368D01*
X270240036Y-104829167D01*
X270243636Y-104853435D01*
X270244840Y-104877939D01*
X270244840Y-105727941D01*
X270243636Y-105752445D01*
X270240036Y-105776713D01*
X270234075Y-105800512D01*
X270225810Y-105823611D01*
X270215320Y-105845790D01*
X270202708Y-105866833D01*
X270188093Y-105886539D01*
X270171617Y-105904717D01*
X270153439Y-105921193D01*
X270133733Y-105935808D01*
X270112690Y-105948420D01*
X270090511Y-105958910D01*
X270067412Y-105967175D01*
X270043613Y-105973136D01*
X270019345Y-105976736D01*
X269994841Y-105977940D01*
X267144839Y-105977940D01*
X267120335Y-105976736D01*
X267096067Y-105973136D01*
X267072268Y-105967175D01*
X267049169Y-105958910D01*
X267026990Y-105948420D01*
X267005947Y-105935808D01*
X266986241Y-105921193D01*
X266968063Y-105904717D01*
X266951587Y-105886539D01*
X266936972Y-105866833D01*
X266924360Y-105845790D01*
X266913870Y-105823611D01*
X266905605Y-105800512D01*
X266899644Y-105776713D01*
X266896044Y-105752445D01*
X266894840Y-105727941D01*
X266894840Y-104877939D01*
X266896044Y-104853435D01*
X266899644Y-104829167D01*
X266905605Y-104805368D01*
X266913870Y-104782269D01*
X266924360Y-104760090D01*
X266936972Y-104739047D01*
X266951587Y-104719341D01*
X266968063Y-104701163D01*
X266986241Y-104684687D01*
X267005947Y-104670072D01*
X267026990Y-104657460D01*
X267049169Y-104646970D01*
X267072268Y-104638705D01*
X267096067Y-104632744D01*
X267120335Y-104629144D01*
X267144839Y-104627940D01*
X269994841Y-104627940D01*
X270019345Y-104629144D01*
G37*
G36*
X270019345Y-98829144D02*
G01*
X270043613Y-98832744D01*
X270067412Y-98838705D01*
X270090511Y-98846970D01*
X270112690Y-98857460D01*
X270133733Y-98870072D01*
X270153439Y-98884687D01*
X270171617Y-98901163D01*
X270188093Y-98919341D01*
X270202708Y-98939047D01*
X270215320Y-98960090D01*
X270225810Y-98982269D01*
X270234075Y-99005368D01*
X270240036Y-99029167D01*
X270243636Y-99053435D01*
X270244840Y-99077939D01*
X270244840Y-99927941D01*
X270243636Y-99952445D01*
X270240036Y-99976713D01*
X270234075Y-100000512D01*
X270225810Y-100023611D01*
X270215320Y-100045790D01*
X270202708Y-100066833D01*
X270188093Y-100086539D01*
X270171617Y-100104717D01*
X270153439Y-100121193D01*
X270133733Y-100135808D01*
X270112690Y-100148420D01*
X270090511Y-100158910D01*
X270067412Y-100167175D01*
X270043613Y-100173136D01*
X270019345Y-100176736D01*
X269994841Y-100177940D01*
X267144839Y-100177940D01*
X267120335Y-100176736D01*
X267096067Y-100173136D01*
X267072268Y-100167175D01*
X267049169Y-100158910D01*
X267026990Y-100148420D01*
X267005947Y-100135808D01*
X266986241Y-100121193D01*
X266968063Y-100104717D01*
X266951587Y-100086539D01*
X266936972Y-100066833D01*
X266924360Y-100045790D01*
X266913870Y-100023611D01*
X266905605Y-100000512D01*
X266899644Y-99976713D01*
X266896044Y-99952445D01*
X266894840Y-99927941D01*
X266894840Y-99077939D01*
X266896044Y-99053435D01*
X266899644Y-99029167D01*
X266905605Y-99005368D01*
X266913870Y-98982269D01*
X266924360Y-98960090D01*
X266936972Y-98939047D01*
X266951587Y-98919341D01*
X266968063Y-98901163D01*
X266986241Y-98884687D01*
X267005947Y-98870072D01*
X267026990Y-98857460D01*
X267049169Y-98846970D01*
X267072268Y-98838705D01*
X267096067Y-98832744D01*
X267120335Y-98829144D01*
X267144839Y-98827940D01*
X269994841Y-98827940D01*
X270019345Y-98829144D01*
G37*
D19*
X215176500Y-121143060D03*
D20*
X215176500Y-118603060D03*
D21*
X241910000Y-105510000D03*
X241910000Y-115670000D03*
X241910000Y-125830000D03*
X221590000Y-118210000D03*
X221590000Y-113130000D03*
X221590000Y-105510000D03*
D19*
X249530000Y-116980000D03*
D20*
X249530000Y-114440000D03*
D19*
X249530000Y-141110000D03*
D20*
X249530000Y-138570000D03*
D19*
X249530000Y-129680000D03*
D20*
X249530000Y-127140000D03*
D19*
X249530000Y-106820000D03*
D20*
X249530000Y-104280000D03*
D18*
G36*
X278890765Y-134664213D02*
G01*
X278975704Y-134676813D01*
X279058999Y-134697677D01*
X279139848Y-134726605D01*
X279217472Y-134763319D01*
X279291124Y-134807464D01*
X279360094Y-134858616D01*
X279423718Y-134916282D01*
X279481384Y-134979906D01*
X279532536Y-135048876D01*
X279576681Y-135122528D01*
X279613395Y-135200152D01*
X279642323Y-135281001D01*
X279663187Y-135364296D01*
X279675787Y-135449235D01*
X279680000Y-135535000D01*
X279680000Y-137285000D01*
X279675787Y-137370765D01*
X279663187Y-137455704D01*
X279642323Y-137538999D01*
X279613395Y-137619848D01*
X279576681Y-137697472D01*
X279532536Y-137771124D01*
X279481384Y-137840094D01*
X279423718Y-137903718D01*
X279360094Y-137961384D01*
X279291124Y-138012536D01*
X279217472Y-138056681D01*
X279139848Y-138093395D01*
X279058999Y-138122323D01*
X278975704Y-138143187D01*
X278890765Y-138155787D01*
X278805000Y-138160000D01*
X277055000Y-138160000D01*
X276969235Y-138155787D01*
X276884296Y-138143187D01*
X276801001Y-138122323D01*
X276720152Y-138093395D01*
X276642528Y-138056681D01*
X276568876Y-138012536D01*
X276499906Y-137961384D01*
X276436282Y-137903718D01*
X276378616Y-137840094D01*
X276327464Y-137771124D01*
X276283319Y-137697472D01*
X276246605Y-137619848D01*
X276217677Y-137538999D01*
X276196813Y-137455704D01*
X276184213Y-137370765D01*
X276180000Y-137285000D01*
X276180000Y-135535000D01*
X276184213Y-135449235D01*
X276196813Y-135364296D01*
X276217677Y-135281001D01*
X276246605Y-135200152D01*
X276283319Y-135122528D01*
X276327464Y-135048876D01*
X276378616Y-134979906D01*
X276436282Y-134916282D01*
X276499906Y-134858616D01*
X276568876Y-134807464D01*
X276642528Y-134763319D01*
X276720152Y-134726605D01*
X276801001Y-134697677D01*
X276884296Y-134676813D01*
X276969235Y-134664213D01*
X277055000Y-134660000D01*
X278805000Y-134660000D01*
X278890765Y-134664213D01*
G37*
G36*
X281753513Y-139363611D02*
G01*
X281826318Y-139374411D01*
X281897714Y-139392295D01*
X281967013Y-139417090D01*
X282033548Y-139448559D01*
X282096678Y-139486398D01*
X282155795Y-139530242D01*
X282210330Y-139579670D01*
X282259758Y-139634205D01*
X282303602Y-139693322D01*
X282341441Y-139756452D01*
X282372910Y-139822987D01*
X282397705Y-139892286D01*
X282415589Y-139963682D01*
X282426389Y-140036487D01*
X282430000Y-140110000D01*
X282430000Y-142110000D01*
X282426389Y-142183513D01*
X282415589Y-142256318D01*
X282397705Y-142327714D01*
X282372910Y-142397013D01*
X282341441Y-142463548D01*
X282303602Y-142526678D01*
X282259758Y-142585795D01*
X282210330Y-142640330D01*
X282155795Y-142689758D01*
X282096678Y-142733602D01*
X282033548Y-142771441D01*
X281967013Y-142802910D01*
X281897714Y-142827705D01*
X281826318Y-142845589D01*
X281753513Y-142856389D01*
X281680000Y-142860000D01*
X280180000Y-142860000D01*
X280106487Y-142856389D01*
X280033682Y-142845589D01*
X279962286Y-142827705D01*
X279892987Y-142802910D01*
X279826452Y-142771441D01*
X279763322Y-142733602D01*
X279704205Y-142689758D01*
X279649670Y-142640330D01*
X279600242Y-142585795D01*
X279556398Y-142526678D01*
X279518559Y-142463548D01*
X279487090Y-142397013D01*
X279462295Y-142327714D01*
X279444411Y-142256318D01*
X279433611Y-142183513D01*
X279430000Y-142110000D01*
X279430000Y-140110000D01*
X279433611Y-140036487D01*
X279444411Y-139963682D01*
X279462295Y-139892286D01*
X279487090Y-139822987D01*
X279518559Y-139756452D01*
X279556398Y-139693322D01*
X279600242Y-139634205D01*
X279649670Y-139579670D01*
X279704205Y-139530242D01*
X279763322Y-139486398D01*
X279826452Y-139448559D01*
X279892987Y-139417090D01*
X279962286Y-139392295D01*
X280033682Y-139374411D01*
X280106487Y-139363611D01*
X280180000Y-139360000D01*
X281680000Y-139360000D01*
X281753513Y-139363611D01*
G37*
D16*
X274930000Y-141110000D03*
D18*
G36*
X278890765Y-109264213D02*
G01*
X278975704Y-109276813D01*
X279058999Y-109297677D01*
X279139848Y-109326605D01*
X279217472Y-109363319D01*
X279291124Y-109407464D01*
X279360094Y-109458616D01*
X279423718Y-109516282D01*
X279481384Y-109579906D01*
X279532536Y-109648876D01*
X279576681Y-109722528D01*
X279613395Y-109800152D01*
X279642323Y-109881001D01*
X279663187Y-109964296D01*
X279675787Y-110049235D01*
X279680000Y-110135000D01*
X279680000Y-111885000D01*
X279675787Y-111970765D01*
X279663187Y-112055704D01*
X279642323Y-112138999D01*
X279613395Y-112219848D01*
X279576681Y-112297472D01*
X279532536Y-112371124D01*
X279481384Y-112440094D01*
X279423718Y-112503718D01*
X279360094Y-112561384D01*
X279291124Y-112612536D01*
X279217472Y-112656681D01*
X279139848Y-112693395D01*
X279058999Y-112722323D01*
X278975704Y-112743187D01*
X278890765Y-112755787D01*
X278805000Y-112760000D01*
X277055000Y-112760000D01*
X276969235Y-112755787D01*
X276884296Y-112743187D01*
X276801001Y-112722323D01*
X276720152Y-112693395D01*
X276642528Y-112656681D01*
X276568876Y-112612536D01*
X276499906Y-112561384D01*
X276436282Y-112503718D01*
X276378616Y-112440094D01*
X276327464Y-112371124D01*
X276283319Y-112297472D01*
X276246605Y-112219848D01*
X276217677Y-112138999D01*
X276196813Y-112055704D01*
X276184213Y-111970765D01*
X276180000Y-111885000D01*
X276180000Y-110135000D01*
X276184213Y-110049235D01*
X276196813Y-109964296D01*
X276217677Y-109881001D01*
X276246605Y-109800152D01*
X276283319Y-109722528D01*
X276327464Y-109648876D01*
X276378616Y-109579906D01*
X276436282Y-109516282D01*
X276499906Y-109458616D01*
X276568876Y-109407464D01*
X276642528Y-109363319D01*
X276720152Y-109326605D01*
X276801001Y-109297677D01*
X276884296Y-109276813D01*
X276969235Y-109264213D01*
X277055000Y-109260000D01*
X278805000Y-109260000D01*
X278890765Y-109264213D01*
G37*
G36*
X281753513Y-113963611D02*
G01*
X281826318Y-113974411D01*
X281897714Y-113992295D01*
X281967013Y-114017090D01*
X282033548Y-114048559D01*
X282096678Y-114086398D01*
X282155795Y-114130242D01*
X282210330Y-114179670D01*
X282259758Y-114234205D01*
X282303602Y-114293322D01*
X282341441Y-114356452D01*
X282372910Y-114422987D01*
X282397705Y-114492286D01*
X282415589Y-114563682D01*
X282426389Y-114636487D01*
X282430000Y-114710000D01*
X282430000Y-116710000D01*
X282426389Y-116783513D01*
X282415589Y-116856318D01*
X282397705Y-116927714D01*
X282372910Y-116997013D01*
X282341441Y-117063548D01*
X282303602Y-117126678D01*
X282259758Y-117185795D01*
X282210330Y-117240330D01*
X282155795Y-117289758D01*
X282096678Y-117333602D01*
X282033548Y-117371441D01*
X281967013Y-117402910D01*
X281897714Y-117427705D01*
X281826318Y-117445589D01*
X281753513Y-117456389D01*
X281680000Y-117460000D01*
X280180000Y-117460000D01*
X280106487Y-117456389D01*
X280033682Y-117445589D01*
X279962286Y-117427705D01*
X279892987Y-117402910D01*
X279826452Y-117371441D01*
X279763322Y-117333602D01*
X279704205Y-117289758D01*
X279649670Y-117240330D01*
X279600242Y-117185795D01*
X279556398Y-117126678D01*
X279518559Y-117063548D01*
X279487090Y-116997013D01*
X279462295Y-116927714D01*
X279444411Y-116856318D01*
X279433611Y-116783513D01*
X279430000Y-116710000D01*
X279430000Y-114710000D01*
X279433611Y-114636487D01*
X279444411Y-114563682D01*
X279462295Y-114492286D01*
X279487090Y-114422987D01*
X279518559Y-114356452D01*
X279556398Y-114293322D01*
X279600242Y-114234205D01*
X279649670Y-114179670D01*
X279704205Y-114130242D01*
X279763322Y-114086398D01*
X279826452Y-114048559D01*
X279892987Y-114017090D01*
X279962286Y-113992295D01*
X280033682Y-113974411D01*
X280106487Y-113963611D01*
X280180000Y-113960000D01*
X281680000Y-113960000D01*
X281753513Y-113963611D01*
G37*
D16*
X274930000Y-115710000D03*
D18*
G36*
X278890765Y-121964213D02*
G01*
X278975704Y-121976813D01*
X279058999Y-121997677D01*
X279139848Y-122026605D01*
X279217472Y-122063319D01*
X279291124Y-122107464D01*
X279360094Y-122158616D01*
X279423718Y-122216282D01*
X279481384Y-122279906D01*
X279532536Y-122348876D01*
X279576681Y-122422528D01*
X279613395Y-122500152D01*
X279642323Y-122581001D01*
X279663187Y-122664296D01*
X279675787Y-122749235D01*
X279680000Y-122835000D01*
X279680000Y-124585000D01*
X279675787Y-124670765D01*
X279663187Y-124755704D01*
X279642323Y-124838999D01*
X279613395Y-124919848D01*
X279576681Y-124997472D01*
X279532536Y-125071124D01*
X279481384Y-125140094D01*
X279423718Y-125203718D01*
X279360094Y-125261384D01*
X279291124Y-125312536D01*
X279217472Y-125356681D01*
X279139848Y-125393395D01*
X279058999Y-125422323D01*
X278975704Y-125443187D01*
X278890765Y-125455787D01*
X278805000Y-125460000D01*
X277055000Y-125460000D01*
X276969235Y-125455787D01*
X276884296Y-125443187D01*
X276801001Y-125422323D01*
X276720152Y-125393395D01*
X276642528Y-125356681D01*
X276568876Y-125312536D01*
X276499906Y-125261384D01*
X276436282Y-125203718D01*
X276378616Y-125140094D01*
X276327464Y-125071124D01*
X276283319Y-124997472D01*
X276246605Y-124919848D01*
X276217677Y-124838999D01*
X276196813Y-124755704D01*
X276184213Y-124670765D01*
X276180000Y-124585000D01*
X276180000Y-122835000D01*
X276184213Y-122749235D01*
X276196813Y-122664296D01*
X276217677Y-122581001D01*
X276246605Y-122500152D01*
X276283319Y-122422528D01*
X276327464Y-122348876D01*
X276378616Y-122279906D01*
X276436282Y-122216282D01*
X276499906Y-122158616D01*
X276568876Y-122107464D01*
X276642528Y-122063319D01*
X276720152Y-122026605D01*
X276801001Y-121997677D01*
X276884296Y-121976813D01*
X276969235Y-121964213D01*
X277055000Y-121960000D01*
X278805000Y-121960000D01*
X278890765Y-121964213D01*
G37*
G36*
X281753513Y-126663611D02*
G01*
X281826318Y-126674411D01*
X281897714Y-126692295D01*
X281967013Y-126717090D01*
X282033548Y-126748559D01*
X282096678Y-126786398D01*
X282155795Y-126830242D01*
X282210330Y-126879670D01*
X282259758Y-126934205D01*
X282303602Y-126993322D01*
X282341441Y-127056452D01*
X282372910Y-127122987D01*
X282397705Y-127192286D01*
X282415589Y-127263682D01*
X282426389Y-127336487D01*
X282430000Y-127410000D01*
X282430000Y-129410000D01*
X282426389Y-129483513D01*
X282415589Y-129556318D01*
X282397705Y-129627714D01*
X282372910Y-129697013D01*
X282341441Y-129763548D01*
X282303602Y-129826678D01*
X282259758Y-129885795D01*
X282210330Y-129940330D01*
X282155795Y-129989758D01*
X282096678Y-130033602D01*
X282033548Y-130071441D01*
X281967013Y-130102910D01*
X281897714Y-130127705D01*
X281826318Y-130145589D01*
X281753513Y-130156389D01*
X281680000Y-130160000D01*
X280180000Y-130160000D01*
X280106487Y-130156389D01*
X280033682Y-130145589D01*
X279962286Y-130127705D01*
X279892987Y-130102910D01*
X279826452Y-130071441D01*
X279763322Y-130033602D01*
X279704205Y-129989758D01*
X279649670Y-129940330D01*
X279600242Y-129885795D01*
X279556398Y-129826678D01*
X279518559Y-129763548D01*
X279487090Y-129697013D01*
X279462295Y-129627714D01*
X279444411Y-129556318D01*
X279433611Y-129483513D01*
X279430000Y-129410000D01*
X279430000Y-127410000D01*
X279433611Y-127336487D01*
X279444411Y-127263682D01*
X279462295Y-127192286D01*
X279487090Y-127122987D01*
X279518559Y-127056452D01*
X279556398Y-126993322D01*
X279600242Y-126934205D01*
X279649670Y-126879670D01*
X279704205Y-126830242D01*
X279763322Y-126786398D01*
X279826452Y-126748559D01*
X279892987Y-126717090D01*
X279962286Y-126692295D01*
X280033682Y-126674411D01*
X280106487Y-126663611D01*
X280180000Y-126660000D01*
X281680000Y-126660000D01*
X281753513Y-126663611D01*
G37*
D16*
X274930000Y-128410000D03*
D18*
G36*
X278890765Y-96564213D02*
G01*
X278975704Y-96576813D01*
X279058999Y-96597677D01*
X279139848Y-96626605D01*
X279217472Y-96663319D01*
X279291124Y-96707464D01*
X279360094Y-96758616D01*
X279423718Y-96816282D01*
X279481384Y-96879906D01*
X279532536Y-96948876D01*
X279576681Y-97022528D01*
X279613395Y-97100152D01*
X279642323Y-97181001D01*
X279663187Y-97264296D01*
X279675787Y-97349235D01*
X279680000Y-97435000D01*
X279680000Y-99185000D01*
X279675787Y-99270765D01*
X279663187Y-99355704D01*
X279642323Y-99438999D01*
X279613395Y-99519848D01*
X279576681Y-99597472D01*
X279532536Y-99671124D01*
X279481384Y-99740094D01*
X279423718Y-99803718D01*
X279360094Y-99861384D01*
X279291124Y-99912536D01*
X279217472Y-99956681D01*
X279139848Y-99993395D01*
X279058999Y-100022323D01*
X278975704Y-100043187D01*
X278890765Y-100055787D01*
X278805000Y-100060000D01*
X277055000Y-100060000D01*
X276969235Y-100055787D01*
X276884296Y-100043187D01*
X276801001Y-100022323D01*
X276720152Y-99993395D01*
X276642528Y-99956681D01*
X276568876Y-99912536D01*
X276499906Y-99861384D01*
X276436282Y-99803718D01*
X276378616Y-99740094D01*
X276327464Y-99671124D01*
X276283319Y-99597472D01*
X276246605Y-99519848D01*
X276217677Y-99438999D01*
X276196813Y-99355704D01*
X276184213Y-99270765D01*
X276180000Y-99185000D01*
X276180000Y-97435000D01*
X276184213Y-97349235D01*
X276196813Y-97264296D01*
X276217677Y-97181001D01*
X276246605Y-97100152D01*
X276283319Y-97022528D01*
X276327464Y-96948876D01*
X276378616Y-96879906D01*
X276436282Y-96816282D01*
X276499906Y-96758616D01*
X276568876Y-96707464D01*
X276642528Y-96663319D01*
X276720152Y-96626605D01*
X276801001Y-96597677D01*
X276884296Y-96576813D01*
X276969235Y-96564213D01*
X277055000Y-96560000D01*
X278805000Y-96560000D01*
X278890765Y-96564213D01*
G37*
G36*
X281753513Y-101263611D02*
G01*
X281826318Y-101274411D01*
X281897714Y-101292295D01*
X281967013Y-101317090D01*
X282033548Y-101348559D01*
X282096678Y-101386398D01*
X282155795Y-101430242D01*
X282210330Y-101479670D01*
X282259758Y-101534205D01*
X282303602Y-101593322D01*
X282341441Y-101656452D01*
X282372910Y-101722987D01*
X282397705Y-101792286D01*
X282415589Y-101863682D01*
X282426389Y-101936487D01*
X282430000Y-102010000D01*
X282430000Y-104010000D01*
X282426389Y-104083513D01*
X282415589Y-104156318D01*
X282397705Y-104227714D01*
X282372910Y-104297013D01*
X282341441Y-104363548D01*
X282303602Y-104426678D01*
X282259758Y-104485795D01*
X282210330Y-104540330D01*
X282155795Y-104589758D01*
X282096678Y-104633602D01*
X282033548Y-104671441D01*
X281967013Y-104702910D01*
X281897714Y-104727705D01*
X281826318Y-104745589D01*
X281753513Y-104756389D01*
X281680000Y-104760000D01*
X280180000Y-104760000D01*
X280106487Y-104756389D01*
X280033682Y-104745589D01*
X279962286Y-104727705D01*
X279892987Y-104702910D01*
X279826452Y-104671441D01*
X279763322Y-104633602D01*
X279704205Y-104589758D01*
X279649670Y-104540330D01*
X279600242Y-104485795D01*
X279556398Y-104426678D01*
X279518559Y-104363548D01*
X279487090Y-104297013D01*
X279462295Y-104227714D01*
X279444411Y-104156318D01*
X279433611Y-104083513D01*
X279430000Y-104010000D01*
X279430000Y-102010000D01*
X279433611Y-101936487D01*
X279444411Y-101863682D01*
X279462295Y-101792286D01*
X279487090Y-101722987D01*
X279518559Y-101656452D01*
X279556398Y-101593322D01*
X279600242Y-101534205D01*
X279649670Y-101479670D01*
X279704205Y-101430242D01*
X279763322Y-101386398D01*
X279826452Y-101348559D01*
X279892987Y-101317090D01*
X279962286Y-101292295D01*
X280033682Y-101274411D01*
X280106487Y-101263611D01*
X280180000Y-101260000D01*
X281680000Y-101260000D01*
X281753513Y-101263611D01*
G37*
D16*
X274930000Y-103010000D03*
D22*
X259394000Y-139586000D03*
X253594000Y-139586000D03*
X259140000Y-128156000D03*
X253340000Y-128156000D03*
X259288000Y-115456000D03*
X253488000Y-115456000D03*
X259288000Y-105296000D03*
X253488000Y-105296000D03*
D20*
X208382000Y-98438000D03*
D19*
X208382000Y-95898000D03*
X210922000Y-98438000D03*
X210922000Y-95898000D03*
X213462000Y-98438000D03*
X213462000Y-95898000D03*
X216002000Y-98438000D03*
X216002000Y-95898000D03*
X218542000Y-98438000D03*
X218542000Y-95898000D03*
X221082000Y-98438000D03*
X221082000Y-95898000D03*
X223622000Y-98438000D03*
X223622000Y-95898000D03*
X226162000Y-98438000D03*
X226162000Y-95898000D03*
X228702000Y-98438000D03*
X228702000Y-95898000D03*
X231242000Y-98438000D03*
X231242000Y-95898000D03*
X233782000Y-98438000D03*
X233782000Y-95898000D03*
X236322000Y-98438000D03*
X236322000Y-95898000D03*
X238862000Y-98438000D03*
X238862000Y-95898000D03*
X241402000Y-98438000D03*
X241402000Y-95898000D03*
X243942000Y-98438000D03*
X243942000Y-95898000D03*
X246482000Y-98438000D03*
X246482000Y-95898000D03*
X249022000Y-98438000D03*
X249022000Y-95898000D03*
X251562000Y-98438000D03*
X251562000Y-95898000D03*
X254102000Y-98438000D03*
X254102000Y-95898000D03*
X256642000Y-98438000D03*
X256642000Y-95898000D03*
D23*
X204710000Y-138800000D03*
D24*
X204710000Y-123560000D03*
D23*
X204710000Y-133720000D03*
X204710000Y-128640000D03*
D19*
X217785080Y-147447300D03*
X217785080Y-144907300D03*
X215245080Y-147447300D03*
X215245080Y-144907300D03*
X212705080Y-147447300D03*
X212705080Y-144907300D03*
X210165080Y-147447300D03*
D20*
X210165080Y-144907300D03*
M02*
