M48
; DRILL file {KiCad (5.1.5)-3} date 22/09/2020 10:03:15
; FORMAT={-:-/ absolute / inch / decimal}
; #@! TF.CreationDate,2020-09-22T10:03:15+02:00
; #@! TF.GenerationSoftware,Kicad,Pcbnew,(5.1.5)-3
; #@! TF.FileFunction,Plated,1,2,PTH
FMAT,2
INCH
T1C0.0236
T2C0.0394
T3C0.0591
T4C0.0598
%
G90
G05
T1
X8.0252Y-4.5362
X8.374Y-5.2055
X8.474Y-5.4555
X8.5518Y-4.5845
X8.552Y-4.3233
X8.624Y-4.8555
X8.924Y-4.1855
X8.924Y-5.2555
X9.054Y-3.9555
X9.054Y-4.0555
X9.204Y-4.1755
X10.104Y-4.0155
X10.104Y-4.1755
X10.3112Y-4.1283
X10.314Y-4.2855
X10.334Y-5.1955
X10.379Y-3.9005
X10.444Y-4.2855
X10.444Y-4.9455
X10.454Y-4.2255
X10.494Y-4.5055
X10.494Y-5.0055
X10.504Y-5.4555
X10.574Y-4.0255
X10.574Y-4.4355
X10.574Y-4.9255
X10.574Y-5.3755
X10.604Y-4.7155
X10.604Y-4.7655
X10.604Y-5.1855
X10.604Y-5.2355
X10.664Y-4.1455
X10.684Y-4.2655
X10.684Y-4.7155
X10.684Y-5.1855
X10.724Y-4.7655
X10.734Y-4.3055
X10.734Y-5.2355
T2
X8.204Y-3.7755
X8.204Y-3.8755
X8.304Y-3.7755
X8.304Y-3.8755
X8.404Y-3.7755
X8.404Y-3.8755
X8.504Y-3.7755
X8.504Y-3.8755
X8.604Y-3.7755
X8.604Y-3.8755
X8.704Y-3.7755
X8.704Y-3.8755
X8.804Y-3.7755
X8.804Y-3.8755
X8.904Y-3.7755
X8.904Y-3.8755
X9.004Y-3.7755
X9.004Y-3.8755
X9.104Y-3.7755
X9.104Y-3.8755
X9.204Y-3.7755
X9.204Y-3.8755
X9.304Y-3.7755
X9.304Y-3.8755
X9.404Y-3.7755
X9.404Y-3.8755
X9.504Y-3.7755
X9.504Y-3.8755
X9.604Y-3.7755
X9.604Y-3.8755
X9.704Y-3.7755
X9.704Y-3.8755
X9.804Y-3.7755
X9.804Y-3.8755
X9.904Y-3.7755
X9.904Y-3.8755
X10.004Y-3.7755
X10.004Y-3.8755
X10.104Y-3.7755
X10.104Y-3.8755
X9.824Y-4.5055
X9.824Y-4.6055
X9.824Y-5.0055
X9.824Y-5.1055
X8.4723Y-4.6561
X8.4723Y-4.7561
X9.824Y-5.4555
X9.824Y-5.5555
X8.2742Y-5.705
X8.2742Y-5.805
X8.3742Y-5.705
X8.3742Y-5.805
X8.4742Y-5.705
X8.4742Y-5.805
X8.5742Y-5.705
X8.5742Y-5.805
X9.824Y-4.1055
X9.824Y-4.2055
T3
X8.724Y-4.1539
X8.724Y-4.4539
X8.724Y-4.6539
X9.524Y-4.1539
X9.524Y-4.5539
X9.524Y-4.9539
T4
X8.0594Y-4.8646
X8.0594Y-5.0646
X8.0594Y-5.2646
X8.0594Y-5.4646
T2
G00X10.824Y-4.0949
M15
G01X10.824Y-4.0161
M16
G05
G00X10.9815Y-3.8705
M15
G01X10.9028Y-3.8705
M16
G05
G00X11.0602Y-4.0949
M15
G01X11.0602Y-4.0161
M16
G05
G00X10.824Y-5.5949
M15
G01X10.824Y-5.5161
M16
G05
G00X10.9815Y-5.3705
M15
G01X10.9028Y-5.3705
M16
G05
G00X11.0602Y-5.5949
M15
G01X11.0602Y-5.5161
M16
G05
G00X10.824Y-5.0949
M15
G01X10.824Y-5.0161
M16
G05
G00X10.9815Y-4.8705
M15
G01X10.9028Y-4.8705
M16
G05
G00X11.0602Y-5.0949
M15
G01X11.0602Y-5.0161
M16
G05
G00X10.824Y-4.5949
M15
G01X10.824Y-4.5161
M16
G05
G00X10.9815Y-4.3705
M15
G01X10.9028Y-4.3705
M16
G05
G00X11.0602Y-4.5949
M15
G01X11.0602Y-4.5161
M16
G05
G00X8.0736Y-4.2179
M15
G01X8.0736Y-4.2967
M16
G05
G00X8.1523Y-4.4424
M15
G01X8.2311Y-4.4424
M16
G05
G00X8.3098Y-4.2179
M15
G01X8.3098Y-4.2967
M16
G05
T0
M30
