G04 #@! TF.GenerationSoftware,KiCad,Pcbnew,(5.1.5)-3*
G04 #@! TF.CreationDate,2020-10-29T22:27:40+01:00*
G04 #@! TF.ProjectId,alim_hat,616c696d-5f68-4617-942e-6b696361645f,rev?*
G04 #@! TF.SameCoordinates,Original*
G04 #@! TF.FileFunction,Legend,Bot*
G04 #@! TF.FilePolarity,Positive*
%FSLAX46Y46*%
G04 Gerber Fmt 4.6, Leading zero omitted, Abs format (unit mm)*
G04 Created by KiCad (PCBNEW (5.1.5)-3) date 2020-10-29 22:27:40*
%MOMM*%
%LPD*%
G04 APERTURE LIST*
%ADD10C,0.200000*%
%ADD11C,0.120000*%
%ADD12C,0.254000*%
%ADD13C,0.150000*%
G04 APERTURE END LIST*
D10*
X258930000Y-141700000D02*
X258930000Y-136780000D01*
X259170000Y-130890000D02*
X259170000Y-125970000D01*
X259000000Y-118230000D02*
X259000000Y-113310000D01*
X258930000Y-108090000D02*
X258930000Y-103170000D01*
D11*
X207052000Y-94568000D02*
X207052000Y-97168000D01*
X207052000Y-94568000D02*
X257972000Y-94568000D01*
X257972000Y-94568000D02*
X257972000Y-99768000D01*
X209652000Y-99768000D02*
X257972000Y-99768000D01*
X209652000Y-97168000D02*
X209652000Y-99768000D01*
X207052000Y-97168000D02*
X209652000Y-97168000D01*
X207052000Y-99768000D02*
X208382000Y-99768000D01*
X207052000Y-98438000D02*
X207052000Y-99768000D01*
X208835080Y-143577300D02*
X208835080Y-144907300D01*
X210165080Y-143577300D02*
X208835080Y-143577300D01*
X208835080Y-146177300D02*
X208835080Y-148777300D01*
X211435080Y-146177300D02*
X208835080Y-146177300D01*
X211435080Y-143577300D02*
X211435080Y-146177300D01*
X208835080Y-148777300D02*
X219115080Y-148777300D01*
X211435080Y-143577300D02*
X219115080Y-143577300D01*
X219115080Y-143577300D02*
X219115080Y-148777300D01*
D12*
X259353333Y-135339285D02*
X259776666Y-135339285D01*
X259776666Y-136004523D02*
X259776666Y-134734523D01*
X259171904Y-134734523D01*
X258083333Y-134734523D02*
X258688095Y-134734523D01*
X258748571Y-135339285D01*
X258688095Y-135278809D01*
X258567142Y-135218333D01*
X258264761Y-135218333D01*
X258143809Y-135278809D01*
X258083333Y-135339285D01*
X258022857Y-135460238D01*
X258022857Y-135762619D01*
X258083333Y-135883571D01*
X258143809Y-135944047D01*
X258264761Y-136004523D01*
X258567142Y-136004523D01*
X258688095Y-135944047D01*
X258748571Y-135883571D01*
X259653333Y-124529285D02*
X260076666Y-124529285D01*
X260076666Y-125194523D02*
X260076666Y-123924523D01*
X259471904Y-123924523D01*
X258443809Y-124347857D02*
X258443809Y-125194523D01*
X258746190Y-123864047D02*
X259048571Y-124771190D01*
X258262380Y-124771190D01*
X259423333Y-111869285D02*
X259846666Y-111869285D01*
X259846666Y-112534523D02*
X259846666Y-111264523D01*
X259241904Y-111264523D01*
X258879047Y-111264523D02*
X258092857Y-111264523D01*
X258516190Y-111748333D01*
X258334761Y-111748333D01*
X258213809Y-111808809D01*
X258153333Y-111869285D01*
X258092857Y-111990238D01*
X258092857Y-112292619D01*
X258153333Y-112413571D01*
X258213809Y-112474047D01*
X258334761Y-112534523D01*
X258697619Y-112534523D01*
X258818571Y-112474047D01*
X258879047Y-112413571D01*
X259353333Y-101729285D02*
X259776666Y-101729285D01*
X259776666Y-102394523D02*
X259776666Y-101124523D01*
X259171904Y-101124523D01*
X258748571Y-101245476D02*
X258688095Y-101185000D01*
X258567142Y-101124523D01*
X258264761Y-101124523D01*
X258143809Y-101185000D01*
X258083333Y-101245476D01*
X258022857Y-101366428D01*
X258022857Y-101487380D01*
X258083333Y-101668809D01*
X258809047Y-102394523D01*
X258022857Y-102394523D01*
D13*
X207608095Y-101098380D02*
X207608095Y-100098380D01*
X207227142Y-100098380D01*
X207131904Y-100146000D01*
X207084285Y-100193619D01*
X207036666Y-100288857D01*
X207036666Y-100431714D01*
X207084285Y-100526952D01*
X207131904Y-100574571D01*
X207227142Y-100622190D01*
X207608095Y-100622190D01*
X206084285Y-101098380D02*
X206655714Y-101098380D01*
X206370000Y-101098380D02*
X206370000Y-100098380D01*
X206465238Y-100241238D01*
X206560476Y-100336476D01*
X206655714Y-100384095D01*
X207287460Y-145843966D02*
X208001746Y-145843966D01*
X208144603Y-145796347D01*
X208239841Y-145701109D01*
X208287460Y-145558252D01*
X208287460Y-145463014D01*
X207287460Y-146224919D02*
X207287460Y-146843966D01*
X207668413Y-146510633D01*
X207668413Y-146653490D01*
X207716032Y-146748728D01*
X207763651Y-146796347D01*
X207858889Y-146843966D01*
X208096984Y-146843966D01*
X208192222Y-146796347D01*
X208239841Y-146748728D01*
X208287460Y-146653490D01*
X208287460Y-146367776D01*
X208239841Y-146272538D01*
X208192222Y-146224919D01*
M02*
