G04 #@! TF.GenerationSoftware,KiCad,Pcbnew,5.1.7-a382d34a8~88~ubuntu18.04.1*
G04 #@! TF.CreationDate,2021-07-15T18:06:38+02:00*
G04 #@! TF.ProjectId,alim_hat,616c696d-5f68-4617-942e-6b696361645f,4.1*
G04 #@! TF.SameCoordinates,Original*
G04 #@! TF.FileFunction,Copper,L3,Inr*
G04 #@! TF.FilePolarity,Positive*
%FSLAX46Y46*%
G04 Gerber Fmt 4.6, Leading zero omitted, Abs format (unit mm)*
G04 Created by KiCad (PCBNEW 5.1.7-a382d34a8~88~ubuntu18.04.1) date 2021-07-15 18:06:38*
%MOMM*%
%LPD*%
G01*
G04 APERTURE LIST*
G04 #@! TA.AperFunction,ComponentPad*
%ADD10O,1.700000X1.700000*%
G04 #@! TD*
G04 #@! TA.AperFunction,ComponentPad*
%ADD11R,1.700000X1.700000*%
G04 #@! TD*
G04 #@! TA.AperFunction,ComponentPad*
%ADD12C,3.500000*%
G04 #@! TD*
G04 #@! TA.AperFunction,ComponentPad*
%ADD13R,3.500000X3.500000*%
G04 #@! TD*
G04 #@! TA.AperFunction,ComponentPad*
%ADD14C,1.400000*%
G04 #@! TD*
G04 #@! TA.AperFunction,ComponentPad*
%ADD15C,2.250000*%
G04 #@! TD*
G04 #@! TA.AperFunction,ComponentPad*
%ADD16C,3.000000*%
G04 #@! TD*
G04 #@! TA.AperFunction,ComponentPad*
%ADD17R,3.000000X3.000000*%
G04 #@! TD*
G04 #@! TA.AperFunction,ViaPad*
%ADD18C,0.900000*%
G04 #@! TD*
G04 #@! TA.AperFunction,ViaPad*
%ADD19C,1.000000*%
G04 #@! TD*
G04 #@! TA.AperFunction,Conductor*
%ADD20C,0.200000*%
G04 #@! TD*
G04 #@! TA.AperFunction,Conductor*
%ADD21C,2.000000*%
G04 #@! TD*
G04 #@! TA.AperFunction,Conductor*
%ADD22C,5.000000*%
G04 #@! TD*
G04 #@! TA.AperFunction,Conductor*
%ADD23C,0.254000*%
G04 #@! TD*
G04 #@! TA.AperFunction,Conductor*
%ADD24C,0.150000*%
G04 #@! TD*
G04 APERTURE END LIST*
D10*
X210550000Y-138300000D03*
D11*
X210550000Y-140840000D03*
D12*
X213100000Y-113800000D03*
D13*
X213100000Y-108800000D03*
D14*
X203100000Y-116800000D03*
X203100000Y-105800000D03*
D10*
X252070000Y-116980000D03*
D11*
X252070000Y-114440000D03*
D10*
X252070000Y-141110000D03*
D11*
X252070000Y-138570000D03*
D10*
X252070000Y-129680000D03*
D11*
X252070000Y-127140000D03*
D10*
X252070000Y-106820000D03*
D11*
X252070000Y-104280000D03*
D10*
X215176500Y-121143060D03*
D11*
X215176500Y-118603060D03*
D15*
X241820000Y-104100000D03*
X241820000Y-114260000D03*
X241820000Y-124420000D03*
X221500000Y-116800000D03*
X221500000Y-111720000D03*
X221500000Y-104100000D03*
D10*
X249530000Y-116980000D03*
D11*
X249530000Y-114440000D03*
D10*
X249530000Y-141110000D03*
D11*
X249530000Y-138570000D03*
D10*
X249530000Y-129680000D03*
D11*
X249530000Y-127140000D03*
D10*
X249530000Y-106820000D03*
D11*
X249530000Y-104280000D03*
G04 #@! TA.AperFunction,ComponentPad*
G36*
G01*
X279680000Y-135535000D02*
X279680000Y-137285000D01*
G75*
G02*
X278805000Y-138160000I-875000J0D01*
G01*
X277055000Y-138160000D01*
G75*
G02*
X276180000Y-137285000I0J875000D01*
G01*
X276180000Y-135535000D01*
G75*
G02*
X277055000Y-134660000I875000J0D01*
G01*
X278805000Y-134660000D01*
G75*
G02*
X279680000Y-135535000I0J-875000D01*
G01*
G37*
G04 #@! TD.AperFunction*
G04 #@! TA.AperFunction,ComponentPad*
G36*
G01*
X282430000Y-140110000D02*
X282430000Y-142110000D01*
G75*
G02*
X281680000Y-142860000I-750000J0D01*
G01*
X280180000Y-142860000D01*
G75*
G02*
X279430000Y-142110000I0J750000D01*
G01*
X279430000Y-140110000D01*
G75*
G02*
X280180000Y-139360000I750000J0D01*
G01*
X281680000Y-139360000D01*
G75*
G02*
X282430000Y-140110000I0J-750000D01*
G01*
G37*
G04 #@! TD.AperFunction*
D13*
X274930000Y-141110000D03*
G04 #@! TA.AperFunction,ComponentPad*
G36*
G01*
X279680000Y-110135000D02*
X279680000Y-111885000D01*
G75*
G02*
X278805000Y-112760000I-875000J0D01*
G01*
X277055000Y-112760000D01*
G75*
G02*
X276180000Y-111885000I0J875000D01*
G01*
X276180000Y-110135000D01*
G75*
G02*
X277055000Y-109260000I875000J0D01*
G01*
X278805000Y-109260000D01*
G75*
G02*
X279680000Y-110135000I0J-875000D01*
G01*
G37*
G04 #@! TD.AperFunction*
G04 #@! TA.AperFunction,ComponentPad*
G36*
G01*
X282430000Y-114710000D02*
X282430000Y-116710000D01*
G75*
G02*
X281680000Y-117460000I-750000J0D01*
G01*
X280180000Y-117460000D01*
G75*
G02*
X279430000Y-116710000I0J750000D01*
G01*
X279430000Y-114710000D01*
G75*
G02*
X280180000Y-113960000I750000J0D01*
G01*
X281680000Y-113960000D01*
G75*
G02*
X282430000Y-114710000I0J-750000D01*
G01*
G37*
G04 #@! TD.AperFunction*
X274930000Y-115710000D03*
G04 #@! TA.AperFunction,ComponentPad*
G36*
G01*
X279680000Y-122835000D02*
X279680000Y-124585000D01*
G75*
G02*
X278805000Y-125460000I-875000J0D01*
G01*
X277055000Y-125460000D01*
G75*
G02*
X276180000Y-124585000I0J875000D01*
G01*
X276180000Y-122835000D01*
G75*
G02*
X277055000Y-121960000I875000J0D01*
G01*
X278805000Y-121960000D01*
G75*
G02*
X279680000Y-122835000I0J-875000D01*
G01*
G37*
G04 #@! TD.AperFunction*
G04 #@! TA.AperFunction,ComponentPad*
G36*
G01*
X282430000Y-127410000D02*
X282430000Y-129410000D01*
G75*
G02*
X281680000Y-130160000I-750000J0D01*
G01*
X280180000Y-130160000D01*
G75*
G02*
X279430000Y-129410000I0J750000D01*
G01*
X279430000Y-127410000D01*
G75*
G02*
X280180000Y-126660000I750000J0D01*
G01*
X281680000Y-126660000D01*
G75*
G02*
X282430000Y-127410000I0J-750000D01*
G01*
G37*
G04 #@! TD.AperFunction*
X274930000Y-128410000D03*
G04 #@! TA.AperFunction,ComponentPad*
G36*
G01*
X279680000Y-97435000D02*
X279680000Y-99185000D01*
G75*
G02*
X278805000Y-100060000I-875000J0D01*
G01*
X277055000Y-100060000D01*
G75*
G02*
X276180000Y-99185000I0J875000D01*
G01*
X276180000Y-97435000D01*
G75*
G02*
X277055000Y-96560000I875000J0D01*
G01*
X278805000Y-96560000D01*
G75*
G02*
X279680000Y-97435000I0J-875000D01*
G01*
G37*
G04 #@! TD.AperFunction*
G04 #@! TA.AperFunction,ComponentPad*
G36*
G01*
X282430000Y-102010000D02*
X282430000Y-104010000D01*
G75*
G02*
X281680000Y-104760000I-750000J0D01*
G01*
X280180000Y-104760000D01*
G75*
G02*
X279430000Y-104010000I0J750000D01*
G01*
X279430000Y-102010000D01*
G75*
G02*
X280180000Y-101260000I750000J0D01*
G01*
X281680000Y-101260000D01*
G75*
G02*
X282430000Y-102010000I0J-750000D01*
G01*
G37*
G04 #@! TD.AperFunction*
X274930000Y-103010000D03*
D11*
X208382000Y-98438000D03*
D10*
X208382000Y-95898000D03*
X210922000Y-98438000D03*
X210922000Y-95898000D03*
X213462000Y-98438000D03*
X213462000Y-95898000D03*
X216002000Y-98438000D03*
X216002000Y-95898000D03*
X218542000Y-98438000D03*
X218542000Y-95898000D03*
X221082000Y-98438000D03*
X221082000Y-95898000D03*
X223622000Y-98438000D03*
X223622000Y-95898000D03*
X226162000Y-98438000D03*
X226162000Y-95898000D03*
X228702000Y-98438000D03*
X228702000Y-95898000D03*
X231242000Y-98438000D03*
X231242000Y-95898000D03*
X233782000Y-98438000D03*
X233782000Y-95898000D03*
X236322000Y-98438000D03*
X236322000Y-95898000D03*
X238862000Y-98438000D03*
X238862000Y-95898000D03*
X241402000Y-98438000D03*
X241402000Y-95898000D03*
X243942000Y-98438000D03*
X243942000Y-95898000D03*
X246482000Y-98438000D03*
X246482000Y-95898000D03*
X249022000Y-98438000D03*
X249022000Y-95898000D03*
X251562000Y-98438000D03*
X251562000Y-95898000D03*
X254102000Y-98438000D03*
X254102000Y-95898000D03*
X256642000Y-98438000D03*
X256642000Y-95898000D03*
D16*
X204710000Y-138800000D03*
D17*
X204710000Y-123560000D03*
D16*
X204710000Y-133720000D03*
X204710000Y-128640000D03*
D10*
X217785080Y-147447300D03*
X217785080Y-144907300D03*
X215245080Y-147447300D03*
X215245080Y-144907300D03*
X212705080Y-147447300D03*
X212705080Y-144907300D03*
X210165080Y-147447300D03*
D11*
X210165080Y-144907300D03*
D18*
X226090000Y-101270000D03*
X259625000Y-107735000D03*
X270227500Y-100862500D03*
D19*
X229300000Y-147700000D03*
X227400000Y-147700000D03*
X229200000Y-144900000D03*
X227400000Y-144800000D03*
X227400000Y-146300000D03*
D18*
X240383460Y-132613700D03*
D19*
X226670000Y-132800000D03*
X229200000Y-146300000D03*
D18*
X270358000Y-130702000D03*
X270358000Y-140842000D03*
X269875000Y-117275000D03*
X272300000Y-104840000D03*
X226085700Y-139314300D03*
X218200000Y-136300000D03*
X265130000Y-131210000D03*
X265278000Y-125616000D03*
X265530000Y-109020000D03*
X259967500Y-118672500D03*
X232447978Y-101482022D03*
X267730000Y-103600000D03*
X266690000Y-147750000D03*
X269342000Y-131712000D03*
X267640000Y-108700000D03*
X259938750Y-117091250D03*
X235450000Y-102770000D03*
X266470000Y-101330000D03*
X267190000Y-146530000D03*
D19*
X240750000Y-145340000D03*
X240760000Y-143650000D03*
X240800000Y-141710000D03*
X242790000Y-143610000D03*
X238760000Y-143690000D03*
X238760000Y-145340000D03*
X242790000Y-145370000D03*
X242790000Y-141730000D03*
X238730000Y-141710000D03*
D20*
X228702000Y-98658000D02*
X228702000Y-98438000D01*
X226090000Y-101270000D02*
X228702000Y-98658000D01*
X258530000Y-108830000D02*
X259625000Y-107735000D01*
X237430000Y-108830000D02*
X258530000Y-108830000D01*
X233930000Y-105280000D02*
X237430000Y-108830000D01*
X233950000Y-105260000D02*
X233930000Y-105280000D01*
X232456000Y-100250000D02*
X233950000Y-101744000D01*
X230514000Y-100250000D02*
X232456000Y-100250000D01*
X233950000Y-101744000D02*
X233950000Y-105260000D01*
X228702000Y-98438000D02*
X230514000Y-100250000D01*
D21*
X209719919Y-95898000D02*
X210922000Y-95898000D01*
X206331999Y-96745920D02*
X207179919Y-95898000D01*
X206331999Y-100248001D02*
X206331999Y-96745920D01*
X206571999Y-100488001D02*
X206331999Y-100248001D01*
X207179919Y-95898000D02*
X209719919Y-95898000D01*
X212720605Y-100488001D02*
X206571999Y-100488001D01*
X221627603Y-109394999D02*
X212720605Y-100488001D01*
X226794999Y-109394999D02*
X221627603Y-109394999D01*
X241820000Y-124420000D02*
X226794999Y-109394999D01*
X224430000Y-124420000D02*
X241820000Y-124420000D01*
X210550000Y-138300000D02*
X224430000Y-124420000D01*
D20*
X265260000Y-125598000D02*
X265278000Y-125616000D01*
X265278000Y-131062000D02*
X265130000Y-131210000D01*
X265278000Y-125616000D02*
X265278000Y-131062000D01*
X265278000Y-123983000D02*
X259967500Y-118672500D01*
X265278000Y-125616000D02*
X265278000Y-123983000D01*
X259188749Y-117893749D02*
X259517501Y-118222501D01*
X259517501Y-118222501D02*
X259967500Y-118672500D01*
X259188749Y-115361251D02*
X259188749Y-117893749D01*
X265530000Y-109020000D02*
X259188749Y-115361251D01*
X232447978Y-101482022D02*
X232447978Y-102118418D01*
X232447978Y-101482022D02*
X232447978Y-105507978D01*
X232447978Y-105507978D02*
X236670000Y-109730000D01*
X264820000Y-109730000D02*
X265530000Y-109020000D01*
X236670000Y-109730000D02*
X264820000Y-109730000D01*
X265130000Y-146190000D02*
X266690000Y-147750000D01*
X265130000Y-131210000D02*
X265130000Y-146190000D01*
X269342000Y-126494500D02*
X269342000Y-131712000D01*
X259938750Y-117091250D02*
X269342000Y-126494500D01*
X267640000Y-109390000D02*
X267640000Y-108700000D01*
X259938750Y-117091250D02*
X267640000Y-109390000D01*
X239890000Y-102770000D02*
X241020000Y-101640000D01*
X267640000Y-105720000D02*
X267640000Y-108700000D01*
X263560000Y-101640000D02*
X267640000Y-105720000D01*
X235450000Y-102770000D02*
X239890000Y-102770000D01*
X265833604Y-101330000D02*
X265543604Y-101620000D01*
X266470000Y-101330000D02*
X265833604Y-101330000D01*
X241020000Y-101640000D02*
X263360000Y-101620000D01*
X265543604Y-101620000D02*
X263360000Y-101620000D01*
X263360000Y-101620000D02*
X263560000Y-101640000D01*
X269342000Y-144378000D02*
X267190000Y-146530000D01*
X269342000Y-131712000D02*
X269342000Y-144378000D01*
D22*
X204710000Y-128640000D02*
X204710000Y-133720000D01*
X213425127Y-108900000D02*
X215900000Y-108900000D01*
X212874873Y-108900000D02*
X210400000Y-108900000D01*
D23*
X206267167Y-94531969D02*
X206018205Y-94736286D01*
X205966994Y-94798687D01*
X205232681Y-95533000D01*
X205170286Y-95584206D01*
X205118308Y-95647541D01*
X204934729Y-95463962D01*
X204568669Y-95219369D01*
X204161925Y-95050890D01*
X203730128Y-94965000D01*
X203289872Y-94965000D01*
X202858075Y-95050890D01*
X202451331Y-95219369D01*
X202085271Y-95463962D01*
X201773962Y-95775271D01*
X201529369Y-96141331D01*
X201360890Y-96548075D01*
X201275000Y-96979872D01*
X201275000Y-97420128D01*
X201360890Y-97851925D01*
X201529369Y-98258669D01*
X201773962Y-98624729D01*
X202085271Y-98936038D01*
X202451331Y-99180631D01*
X202858075Y-99349110D01*
X203289872Y-99435000D01*
X203730128Y-99435000D01*
X204161925Y-99349110D01*
X204568669Y-99180631D01*
X204696999Y-99094884D01*
X204696999Y-100167681D01*
X204689088Y-100248001D01*
X204696999Y-100328320D01*
X204696999Y-100328322D01*
X204720656Y-100568516D01*
X204814147Y-100876715D01*
X204965968Y-101160752D01*
X205170285Y-101409715D01*
X205232686Y-101460926D01*
X205359074Y-101587314D01*
X205410285Y-101649715D01*
X205659247Y-101854032D01*
X205943284Y-102005853D01*
X206251483Y-102099344D01*
X206491677Y-102123001D01*
X206491679Y-102123001D01*
X206571998Y-102130912D01*
X206652318Y-102123001D01*
X212043367Y-102123001D01*
X220325675Y-110405309D01*
X220132919Y-110598065D01*
X219940308Y-110886327D01*
X219807636Y-111206627D01*
X219740000Y-111546655D01*
X219740000Y-111893345D01*
X219807636Y-112233373D01*
X219940308Y-112553673D01*
X220132919Y-112841935D01*
X220378065Y-113087081D01*
X220666327Y-113279692D01*
X220986627Y-113412364D01*
X221326655Y-113480000D01*
X221673345Y-113480000D01*
X222013373Y-113412364D01*
X222333673Y-113279692D01*
X222621935Y-113087081D01*
X222867081Y-112841935D01*
X223059692Y-112553673D01*
X223192364Y-112233373D01*
X223260000Y-111893345D01*
X223260000Y-111546655D01*
X223192364Y-111206627D01*
X223119203Y-111029999D01*
X226117761Y-111029999D01*
X237872761Y-122785000D01*
X224510319Y-122785000D01*
X224429999Y-122777089D01*
X224349680Y-122785000D01*
X224349678Y-122785000D01*
X224109484Y-122808657D01*
X223801285Y-122902148D01*
X223517248Y-123053969D01*
X223268286Y-123258286D01*
X223217080Y-123320681D01*
X209337085Y-137200677D01*
X209183970Y-137387248D01*
X209032148Y-137671286D01*
X208938658Y-137979484D01*
X208907089Y-138300000D01*
X208938658Y-138620516D01*
X209032148Y-138928714D01*
X209183970Y-139212752D01*
X209373959Y-139444254D01*
X209345506Y-139459463D01*
X209248815Y-139538815D01*
X209169463Y-139635506D01*
X209110498Y-139745820D01*
X209074188Y-139865518D01*
X209061928Y-139990000D01*
X209061928Y-141690000D01*
X209074188Y-141814482D01*
X209110498Y-141934180D01*
X209169463Y-142044494D01*
X209248815Y-142141185D01*
X209345506Y-142220537D01*
X209455820Y-142279502D01*
X209575518Y-142315812D01*
X209700000Y-142328072D01*
X211400000Y-142328072D01*
X211524482Y-142315812D01*
X211644180Y-142279502D01*
X211754494Y-142220537D01*
X211851185Y-142141185D01*
X211930537Y-142044494D01*
X211989502Y-141934180D01*
X212025812Y-141814482D01*
X212038072Y-141690000D01*
X212038072Y-139990000D01*
X212025812Y-139865518D01*
X211989502Y-139745820D01*
X211930537Y-139635506D01*
X211851185Y-139538815D01*
X211754494Y-139459463D01*
X211720790Y-139441448D01*
X211954801Y-139207437D01*
X225000700Y-139207437D01*
X225000700Y-139421163D01*
X225042396Y-139630783D01*
X225124185Y-139828240D01*
X225242925Y-140005947D01*
X225394053Y-140157075D01*
X225571760Y-140275815D01*
X225769217Y-140357604D01*
X225978837Y-140399300D01*
X226192563Y-140399300D01*
X226402183Y-140357604D01*
X226599640Y-140275815D01*
X226777347Y-140157075D01*
X226928475Y-140005947D01*
X227047215Y-139828240D01*
X227129004Y-139630783D01*
X227170700Y-139421163D01*
X227170700Y-139207437D01*
X227129004Y-138997817D01*
X227047215Y-138800360D01*
X226928475Y-138622653D01*
X226777347Y-138471525D01*
X226599640Y-138352785D01*
X226402183Y-138270996D01*
X226192563Y-138229300D01*
X225978837Y-138229300D01*
X225769217Y-138270996D01*
X225571760Y-138352785D01*
X225394053Y-138471525D01*
X225242925Y-138622653D01*
X225124185Y-138800360D01*
X225042396Y-138997817D01*
X225000700Y-139207437D01*
X211954801Y-139207437D01*
X213442238Y-137720000D01*
X248041928Y-137720000D01*
X248041928Y-139420000D01*
X248054188Y-139544482D01*
X248090498Y-139664180D01*
X248149463Y-139774494D01*
X248228815Y-139871185D01*
X248325506Y-139950537D01*
X248435820Y-140009502D01*
X248508380Y-140031513D01*
X248376525Y-140163368D01*
X248214010Y-140406589D01*
X248102068Y-140676842D01*
X248045000Y-140963740D01*
X248045000Y-141256260D01*
X248102068Y-141543158D01*
X248214010Y-141813411D01*
X248376525Y-142056632D01*
X248583368Y-142263475D01*
X248826589Y-142425990D01*
X249096842Y-142537932D01*
X249383740Y-142595000D01*
X249676260Y-142595000D01*
X249963158Y-142537932D01*
X250233411Y-142425990D01*
X250476632Y-142263475D01*
X250683475Y-142056632D01*
X250800000Y-141882240D01*
X250916525Y-142056632D01*
X251123368Y-142263475D01*
X251366589Y-142425990D01*
X251636842Y-142537932D01*
X251923740Y-142595000D01*
X252216260Y-142595000D01*
X252503158Y-142537932D01*
X252773411Y-142425990D01*
X253016632Y-142263475D01*
X253223475Y-142056632D01*
X253385990Y-141813411D01*
X253497932Y-141543158D01*
X253555000Y-141256260D01*
X253555000Y-140963740D01*
X253497932Y-140676842D01*
X253385990Y-140406589D01*
X253223475Y-140163368D01*
X253091620Y-140031513D01*
X253164180Y-140009502D01*
X253274494Y-139950537D01*
X253371185Y-139871185D01*
X253450537Y-139774494D01*
X253509502Y-139664180D01*
X253545812Y-139544482D01*
X253558072Y-139420000D01*
X253558072Y-137720000D01*
X253545812Y-137595518D01*
X253509502Y-137475820D01*
X253450537Y-137365506D01*
X253371185Y-137268815D01*
X253274494Y-137189463D01*
X253164180Y-137130498D01*
X253044482Y-137094188D01*
X252920000Y-137081928D01*
X251220000Y-137081928D01*
X251095518Y-137094188D01*
X250975820Y-137130498D01*
X250865506Y-137189463D01*
X250800000Y-137243222D01*
X250734494Y-137189463D01*
X250624180Y-137130498D01*
X250504482Y-137094188D01*
X250380000Y-137081928D01*
X248680000Y-137081928D01*
X248555518Y-137094188D01*
X248435820Y-137130498D01*
X248325506Y-137189463D01*
X248228815Y-137268815D01*
X248149463Y-137365506D01*
X248090498Y-137475820D01*
X248054188Y-137595518D01*
X248041928Y-137720000D01*
X213442238Y-137720000D01*
X214969101Y-136193137D01*
X217115000Y-136193137D01*
X217115000Y-136406863D01*
X217156696Y-136616483D01*
X217238485Y-136813940D01*
X217357225Y-136991647D01*
X217508353Y-137142775D01*
X217686060Y-137261515D01*
X217883517Y-137343304D01*
X218093137Y-137385000D01*
X218306863Y-137385000D01*
X218516483Y-137343304D01*
X218713940Y-137261515D01*
X218891647Y-137142775D01*
X219042775Y-136991647D01*
X219161515Y-136813940D01*
X219243304Y-136616483D01*
X219285000Y-136406863D01*
X219285000Y-136193137D01*
X219243304Y-135983517D01*
X219161515Y-135786060D01*
X219042775Y-135608353D01*
X218891647Y-135457225D01*
X218713940Y-135338485D01*
X218516483Y-135256696D01*
X218306863Y-135215000D01*
X218093137Y-135215000D01*
X217883517Y-135256696D01*
X217686060Y-135338485D01*
X217508353Y-135457225D01*
X217357225Y-135608353D01*
X217238485Y-135786060D01*
X217156696Y-135983517D01*
X217115000Y-136193137D01*
X214969101Y-136193137D01*
X218474026Y-132688212D01*
X225535000Y-132688212D01*
X225535000Y-132911788D01*
X225578617Y-133131067D01*
X225664176Y-133337624D01*
X225788388Y-133523520D01*
X225946480Y-133681612D01*
X226132376Y-133805824D01*
X226338933Y-133891383D01*
X226558212Y-133935000D01*
X226781788Y-133935000D01*
X227001067Y-133891383D01*
X227207624Y-133805824D01*
X227393520Y-133681612D01*
X227551612Y-133523520D01*
X227675824Y-133337624D01*
X227761383Y-133131067D01*
X227805000Y-132911788D01*
X227805000Y-132688212D01*
X227768923Y-132506837D01*
X239298460Y-132506837D01*
X239298460Y-132720563D01*
X239340156Y-132930183D01*
X239421945Y-133127640D01*
X239540685Y-133305347D01*
X239691813Y-133456475D01*
X239869520Y-133575215D01*
X240066977Y-133657004D01*
X240276597Y-133698700D01*
X240490323Y-133698700D01*
X240699943Y-133657004D01*
X240897400Y-133575215D01*
X241075107Y-133456475D01*
X241226235Y-133305347D01*
X241344975Y-133127640D01*
X241426764Y-132930183D01*
X241468460Y-132720563D01*
X241468460Y-132506837D01*
X241426764Y-132297217D01*
X241344975Y-132099760D01*
X241226235Y-131922053D01*
X241075107Y-131770925D01*
X240897400Y-131652185D01*
X240699943Y-131570396D01*
X240490323Y-131528700D01*
X240276597Y-131528700D01*
X240066977Y-131570396D01*
X239869520Y-131652185D01*
X239691813Y-131770925D01*
X239540685Y-131922053D01*
X239421945Y-132099760D01*
X239340156Y-132297217D01*
X239298460Y-132506837D01*
X227768923Y-132506837D01*
X227761383Y-132468933D01*
X227675824Y-132262376D01*
X227551612Y-132076480D01*
X227393520Y-131918388D01*
X227207624Y-131794176D01*
X227001067Y-131708617D01*
X226781788Y-131665000D01*
X226558212Y-131665000D01*
X226338933Y-131708617D01*
X226132376Y-131794176D01*
X225946480Y-131918388D01*
X225788388Y-132076480D01*
X225664176Y-132262376D01*
X225578617Y-132468933D01*
X225535000Y-132688212D01*
X218474026Y-132688212D01*
X224872238Y-126290000D01*
X248041928Y-126290000D01*
X248041928Y-127990000D01*
X248054188Y-128114482D01*
X248090498Y-128234180D01*
X248149463Y-128344494D01*
X248228815Y-128441185D01*
X248325506Y-128520537D01*
X248435820Y-128579502D01*
X248508380Y-128601513D01*
X248376525Y-128733368D01*
X248214010Y-128976589D01*
X248102068Y-129246842D01*
X248045000Y-129533740D01*
X248045000Y-129826260D01*
X248102068Y-130113158D01*
X248214010Y-130383411D01*
X248376525Y-130626632D01*
X248583368Y-130833475D01*
X248826589Y-130995990D01*
X249096842Y-131107932D01*
X249383740Y-131165000D01*
X249676260Y-131165000D01*
X249963158Y-131107932D01*
X250233411Y-130995990D01*
X250476632Y-130833475D01*
X250683475Y-130626632D01*
X250800000Y-130452240D01*
X250916525Y-130626632D01*
X251123368Y-130833475D01*
X251366589Y-130995990D01*
X251636842Y-131107932D01*
X251923740Y-131165000D01*
X252216260Y-131165000D01*
X252503158Y-131107932D01*
X252773411Y-130995990D01*
X253016632Y-130833475D01*
X253223475Y-130626632D01*
X253385990Y-130383411D01*
X253497932Y-130113158D01*
X253555000Y-129826260D01*
X253555000Y-129533740D01*
X253497932Y-129246842D01*
X253385990Y-128976589D01*
X253223475Y-128733368D01*
X253091620Y-128601513D01*
X253164180Y-128579502D01*
X253274494Y-128520537D01*
X253371185Y-128441185D01*
X253450537Y-128344494D01*
X253509502Y-128234180D01*
X253545812Y-128114482D01*
X253558072Y-127990000D01*
X253558072Y-126290000D01*
X253545812Y-126165518D01*
X253509502Y-126045820D01*
X253450537Y-125935506D01*
X253371185Y-125838815D01*
X253274494Y-125759463D01*
X253164180Y-125700498D01*
X253044482Y-125664188D01*
X252920000Y-125651928D01*
X251220000Y-125651928D01*
X251095518Y-125664188D01*
X250975820Y-125700498D01*
X250865506Y-125759463D01*
X250800000Y-125813222D01*
X250734494Y-125759463D01*
X250624180Y-125700498D01*
X250504482Y-125664188D01*
X250380000Y-125651928D01*
X248680000Y-125651928D01*
X248555518Y-125664188D01*
X248435820Y-125700498D01*
X248325506Y-125759463D01*
X248228815Y-125838815D01*
X248149463Y-125935506D01*
X248090498Y-126045820D01*
X248054188Y-126165518D01*
X248041928Y-126290000D01*
X224872238Y-126290000D01*
X225107239Y-126055000D01*
X241168137Y-126055000D01*
X241306627Y-126112364D01*
X241646655Y-126180000D01*
X241993345Y-126180000D01*
X242333373Y-126112364D01*
X242653673Y-125979692D01*
X242941935Y-125787081D01*
X243187081Y-125541935D01*
X243379692Y-125253673D01*
X243512364Y-124933373D01*
X243580000Y-124593345D01*
X243580000Y-124246655D01*
X243512364Y-123906627D01*
X243379692Y-123586327D01*
X243187081Y-123298065D01*
X242941935Y-123052919D01*
X242653673Y-122860308D01*
X242515183Y-122802944D01*
X233798894Y-114086655D01*
X240060000Y-114086655D01*
X240060000Y-114433345D01*
X240127636Y-114773373D01*
X240260308Y-115093673D01*
X240452919Y-115381935D01*
X240698065Y-115627081D01*
X240986327Y-115819692D01*
X241306627Y-115952364D01*
X241646655Y-116020000D01*
X241993345Y-116020000D01*
X242333373Y-115952364D01*
X242653673Y-115819692D01*
X242941935Y-115627081D01*
X243187081Y-115381935D01*
X243379692Y-115093673D01*
X243512364Y-114773373D01*
X243580000Y-114433345D01*
X243580000Y-114086655D01*
X243512364Y-113746627D01*
X243447488Y-113590000D01*
X248041928Y-113590000D01*
X248041928Y-115290000D01*
X248054188Y-115414482D01*
X248090498Y-115534180D01*
X248149463Y-115644494D01*
X248228815Y-115741185D01*
X248325506Y-115820537D01*
X248435820Y-115879502D01*
X248508380Y-115901513D01*
X248376525Y-116033368D01*
X248214010Y-116276589D01*
X248102068Y-116546842D01*
X248045000Y-116833740D01*
X248045000Y-117126260D01*
X248102068Y-117413158D01*
X248214010Y-117683411D01*
X248376525Y-117926632D01*
X248583368Y-118133475D01*
X248826589Y-118295990D01*
X249096842Y-118407932D01*
X249383740Y-118465000D01*
X249676260Y-118465000D01*
X249963158Y-118407932D01*
X250233411Y-118295990D01*
X250476632Y-118133475D01*
X250683475Y-117926632D01*
X250800000Y-117752240D01*
X250916525Y-117926632D01*
X251123368Y-118133475D01*
X251366589Y-118295990D01*
X251636842Y-118407932D01*
X251923740Y-118465000D01*
X252216260Y-118465000D01*
X252503158Y-118407932D01*
X252773411Y-118295990D01*
X253016632Y-118133475D01*
X253223475Y-117926632D01*
X253385990Y-117683411D01*
X253497932Y-117413158D01*
X253555000Y-117126260D01*
X253555000Y-116833740D01*
X253497932Y-116546842D01*
X253385990Y-116276589D01*
X253223475Y-116033368D01*
X253091620Y-115901513D01*
X253164180Y-115879502D01*
X253274494Y-115820537D01*
X253371185Y-115741185D01*
X253450537Y-115644494D01*
X253509502Y-115534180D01*
X253545812Y-115414482D01*
X253558072Y-115290000D01*
X253558072Y-113590000D01*
X253545812Y-113465518D01*
X253509502Y-113345820D01*
X253450537Y-113235506D01*
X253371185Y-113138815D01*
X253274494Y-113059463D01*
X253164180Y-113000498D01*
X253044482Y-112964188D01*
X252920000Y-112951928D01*
X251220000Y-112951928D01*
X251095518Y-112964188D01*
X250975820Y-113000498D01*
X250865506Y-113059463D01*
X250800000Y-113113222D01*
X250734494Y-113059463D01*
X250624180Y-113000498D01*
X250504482Y-112964188D01*
X250380000Y-112951928D01*
X248680000Y-112951928D01*
X248555518Y-112964188D01*
X248435820Y-113000498D01*
X248325506Y-113059463D01*
X248228815Y-113138815D01*
X248149463Y-113235506D01*
X248090498Y-113345820D01*
X248054188Y-113465518D01*
X248041928Y-113590000D01*
X243447488Y-113590000D01*
X243379692Y-113426327D01*
X243187081Y-113138065D01*
X242941935Y-112892919D01*
X242653673Y-112700308D01*
X242333373Y-112567636D01*
X241993345Y-112500000D01*
X241646655Y-112500000D01*
X241306627Y-112567636D01*
X240986327Y-112700308D01*
X240698065Y-112892919D01*
X240452919Y-113138065D01*
X240260308Y-113426327D01*
X240127636Y-113746627D01*
X240060000Y-114086655D01*
X233798894Y-114086655D01*
X228007924Y-108295686D01*
X227956713Y-108233285D01*
X227707751Y-108028968D01*
X227423714Y-107877147D01*
X227115515Y-107783656D01*
X226875321Y-107759999D01*
X226875318Y-107759999D01*
X226794999Y-107752088D01*
X226714680Y-107759999D01*
X222304842Y-107759999D01*
X218471498Y-103926655D01*
X219740000Y-103926655D01*
X219740000Y-104273345D01*
X219807636Y-104613373D01*
X219940308Y-104933673D01*
X220132919Y-105221935D01*
X220378065Y-105467081D01*
X220666327Y-105659692D01*
X220986627Y-105792364D01*
X221326655Y-105860000D01*
X221673345Y-105860000D01*
X222013373Y-105792364D01*
X222333673Y-105659692D01*
X222621935Y-105467081D01*
X222867081Y-105221935D01*
X223059692Y-104933673D01*
X223192364Y-104613373D01*
X223260000Y-104273345D01*
X223260000Y-103926655D01*
X223192364Y-103586627D01*
X223059692Y-103266327D01*
X222867081Y-102978065D01*
X222621935Y-102732919D01*
X222333673Y-102540308D01*
X222013373Y-102407636D01*
X221673345Y-102340000D01*
X221326655Y-102340000D01*
X220986627Y-102407636D01*
X220666327Y-102540308D01*
X220378065Y-102732919D01*
X220132919Y-102978065D01*
X219940308Y-103266327D01*
X219807636Y-103586627D01*
X219740000Y-103926655D01*
X218471498Y-103926655D01*
X214245391Y-99700549D01*
X214408632Y-99591475D01*
X214615475Y-99384632D01*
X214732000Y-99210240D01*
X214848525Y-99384632D01*
X215055368Y-99591475D01*
X215298589Y-99753990D01*
X215568842Y-99865932D01*
X215855740Y-99923000D01*
X216148260Y-99923000D01*
X216435158Y-99865932D01*
X216705411Y-99753990D01*
X216948632Y-99591475D01*
X217155475Y-99384632D01*
X217272000Y-99210240D01*
X217388525Y-99384632D01*
X217595368Y-99591475D01*
X217838589Y-99753990D01*
X218108842Y-99865932D01*
X218395740Y-99923000D01*
X218688260Y-99923000D01*
X218975158Y-99865932D01*
X219245411Y-99753990D01*
X219488632Y-99591475D01*
X219695475Y-99384632D01*
X219812000Y-99210240D01*
X219928525Y-99384632D01*
X220135368Y-99591475D01*
X220378589Y-99753990D01*
X220648842Y-99865932D01*
X220935740Y-99923000D01*
X221228260Y-99923000D01*
X221515158Y-99865932D01*
X221785411Y-99753990D01*
X222028632Y-99591475D01*
X222235475Y-99384632D01*
X222352000Y-99210240D01*
X222468525Y-99384632D01*
X222675368Y-99591475D01*
X222918589Y-99753990D01*
X223188842Y-99865932D01*
X223475740Y-99923000D01*
X223768260Y-99923000D01*
X224055158Y-99865932D01*
X224325411Y-99753990D01*
X224568632Y-99591475D01*
X224775475Y-99384632D01*
X224892000Y-99210240D01*
X225008525Y-99384632D01*
X225215368Y-99591475D01*
X225458589Y-99753990D01*
X225728842Y-99865932D01*
X226015740Y-99923000D01*
X226308260Y-99923000D01*
X226419726Y-99900828D01*
X226135554Y-100185000D01*
X225983137Y-100185000D01*
X225773517Y-100226696D01*
X225576060Y-100308485D01*
X225398353Y-100427225D01*
X225247225Y-100578353D01*
X225128485Y-100756060D01*
X225046696Y-100953517D01*
X225005000Y-101163137D01*
X225005000Y-101376863D01*
X225046696Y-101586483D01*
X225128485Y-101783940D01*
X225247225Y-101961647D01*
X225398353Y-102112775D01*
X225576060Y-102231515D01*
X225773517Y-102313304D01*
X225983137Y-102355000D01*
X226196863Y-102355000D01*
X226406483Y-102313304D01*
X226603940Y-102231515D01*
X226781647Y-102112775D01*
X226932775Y-101961647D01*
X227051515Y-101783940D01*
X227133304Y-101586483D01*
X227175000Y-101376863D01*
X227175000Y-101224446D01*
X228489602Y-99909844D01*
X228555740Y-99923000D01*
X228848260Y-99923000D01*
X229097897Y-99873344D01*
X229968746Y-100744193D01*
X229991762Y-100772238D01*
X230103680Y-100864087D01*
X230231367Y-100932337D01*
X230314859Y-100957664D01*
X230369914Y-100974365D01*
X230514000Y-100988556D01*
X230550105Y-100985000D01*
X231479455Y-100985000D01*
X231404674Y-101165539D01*
X231362978Y-101375159D01*
X231362978Y-101588885D01*
X231404674Y-101798505D01*
X231486463Y-101995962D01*
X231605203Y-102173669D01*
X231712978Y-102281444D01*
X231712979Y-105471863D01*
X231709422Y-105507978D01*
X231723613Y-105652063D01*
X231755086Y-105755812D01*
X231765642Y-105790611D01*
X231833892Y-105918298D01*
X231925741Y-106030216D01*
X231953786Y-106053232D01*
X236124746Y-110224193D01*
X236147762Y-110252238D01*
X236259680Y-110344087D01*
X236387367Y-110412337D01*
X236525915Y-110454365D01*
X236670000Y-110468556D01*
X236706105Y-110465000D01*
X263045553Y-110465000D01*
X258694557Y-114815997D01*
X258666511Y-114839014D01*
X258574662Y-114950932D01*
X258506412Y-115078619D01*
X258497610Y-115107636D01*
X258464384Y-115217166D01*
X258450193Y-115361251D01*
X258453749Y-115397356D01*
X258453750Y-117857634D01*
X258450193Y-117893749D01*
X258464384Y-118037834D01*
X258493860Y-118135000D01*
X258506413Y-118176382D01*
X258574663Y-118304069D01*
X258666512Y-118415987D01*
X258694557Y-118439003D01*
X258882500Y-118626946D01*
X258882500Y-118779363D01*
X258924196Y-118988983D01*
X259005985Y-119186440D01*
X259124725Y-119364147D01*
X259275853Y-119515275D01*
X259453560Y-119634015D01*
X259651017Y-119715804D01*
X259860637Y-119757500D01*
X260013054Y-119757500D01*
X264543001Y-124287448D01*
X264543000Y-124816578D01*
X264435225Y-124924353D01*
X264316485Y-125102060D01*
X264234696Y-125299517D01*
X264193000Y-125509137D01*
X264193000Y-125722863D01*
X264234696Y-125932483D01*
X264316485Y-126129940D01*
X264435225Y-126307647D01*
X264543000Y-126415422D01*
X264543001Y-130297302D01*
X264438353Y-130367225D01*
X264287225Y-130518353D01*
X264168485Y-130696060D01*
X264086696Y-130893517D01*
X264045000Y-131103137D01*
X264045000Y-131316863D01*
X264086696Y-131526483D01*
X264168485Y-131723940D01*
X264287225Y-131901647D01*
X264395000Y-132009422D01*
X264395001Y-144519268D01*
X264094250Y-144069161D01*
X263630839Y-143605750D01*
X263085925Y-143241651D01*
X262480450Y-142990855D01*
X261837681Y-142863000D01*
X261182319Y-142863000D01*
X260539550Y-142990855D01*
X259934075Y-143241651D01*
X259389161Y-143605750D01*
X258925750Y-144069161D01*
X258561651Y-144614075D01*
X258310855Y-145219550D01*
X258183000Y-145862319D01*
X258183000Y-146517681D01*
X258310855Y-147160450D01*
X258561651Y-147765925D01*
X258925750Y-148310839D01*
X259389161Y-148774250D01*
X259661918Y-148956500D01*
X205373048Y-148956500D01*
X205630839Y-148784250D01*
X206094250Y-148320839D01*
X206458349Y-147775925D01*
X206709145Y-147170450D01*
X206837000Y-146527681D01*
X206837000Y-145872319D01*
X206709145Y-145229550D01*
X206458349Y-144624075D01*
X206094250Y-144079161D01*
X206072389Y-144057300D01*
X208677008Y-144057300D01*
X208677008Y-145757300D01*
X208689268Y-145881782D01*
X208725578Y-146001480D01*
X208784543Y-146111794D01*
X208863895Y-146208485D01*
X208960586Y-146287837D01*
X209070900Y-146346802D01*
X209143460Y-146368813D01*
X209011605Y-146500668D01*
X208849090Y-146743889D01*
X208737148Y-147014142D01*
X208680080Y-147301040D01*
X208680080Y-147593560D01*
X208737148Y-147880458D01*
X208849090Y-148150711D01*
X209011605Y-148393932D01*
X209218448Y-148600775D01*
X209461669Y-148763290D01*
X209731922Y-148875232D01*
X210018820Y-148932300D01*
X210311340Y-148932300D01*
X210598238Y-148875232D01*
X210868491Y-148763290D01*
X211111712Y-148600775D01*
X211318555Y-148393932D01*
X211435080Y-148219540D01*
X211551605Y-148393932D01*
X211758448Y-148600775D01*
X212001669Y-148763290D01*
X212271922Y-148875232D01*
X212558820Y-148932300D01*
X212851340Y-148932300D01*
X213138238Y-148875232D01*
X213408491Y-148763290D01*
X213651712Y-148600775D01*
X213858555Y-148393932D01*
X213975080Y-148219540D01*
X214091605Y-148393932D01*
X214298448Y-148600775D01*
X214541669Y-148763290D01*
X214811922Y-148875232D01*
X215098820Y-148932300D01*
X215391340Y-148932300D01*
X215678238Y-148875232D01*
X215948491Y-148763290D01*
X216191712Y-148600775D01*
X216398555Y-148393932D01*
X216515080Y-148219540D01*
X216631605Y-148393932D01*
X216838448Y-148600775D01*
X217081669Y-148763290D01*
X217351922Y-148875232D01*
X217638820Y-148932300D01*
X217931340Y-148932300D01*
X218218238Y-148875232D01*
X218488491Y-148763290D01*
X218731712Y-148600775D01*
X218938555Y-148393932D01*
X219101070Y-148150711D01*
X219213012Y-147880458D01*
X219270080Y-147593560D01*
X219270080Y-147301040D01*
X219213012Y-147014142D01*
X219101070Y-146743889D01*
X218938555Y-146500668D01*
X218731712Y-146293825D01*
X218557320Y-146177300D01*
X218731712Y-146060775D01*
X218938555Y-145853932D01*
X219101070Y-145610711D01*
X219213012Y-145340458D01*
X219270080Y-145053560D01*
X219270080Y-144761040D01*
X219255594Y-144688212D01*
X226265000Y-144688212D01*
X226265000Y-144911788D01*
X226308617Y-145131067D01*
X226394176Y-145337624D01*
X226518388Y-145523520D01*
X226544868Y-145550000D01*
X226518388Y-145576480D01*
X226394176Y-145762376D01*
X226308617Y-145968933D01*
X226265000Y-146188212D01*
X226265000Y-146411788D01*
X226308617Y-146631067D01*
X226394176Y-146837624D01*
X226502672Y-147000000D01*
X226394176Y-147162376D01*
X226308617Y-147368933D01*
X226265000Y-147588212D01*
X226265000Y-147811788D01*
X226308617Y-148031067D01*
X226394176Y-148237624D01*
X226518388Y-148423520D01*
X226676480Y-148581612D01*
X226862376Y-148705824D01*
X227068933Y-148791383D01*
X227288212Y-148835000D01*
X227511788Y-148835000D01*
X227731067Y-148791383D01*
X227937624Y-148705824D01*
X228123520Y-148581612D01*
X228281612Y-148423520D01*
X228350000Y-148321170D01*
X228418388Y-148423520D01*
X228576480Y-148581612D01*
X228762376Y-148705824D01*
X228968933Y-148791383D01*
X229188212Y-148835000D01*
X229411788Y-148835000D01*
X229631067Y-148791383D01*
X229837624Y-148705824D01*
X230023520Y-148581612D01*
X230181612Y-148423520D01*
X230305824Y-148237624D01*
X230391383Y-148031067D01*
X230435000Y-147811788D01*
X230435000Y-147588212D01*
X230391383Y-147368933D01*
X230305824Y-147162376D01*
X230181612Y-146976480D01*
X230140508Y-146935376D01*
X230205824Y-146837624D01*
X230291383Y-146631067D01*
X230335000Y-146411788D01*
X230335000Y-146188212D01*
X230291383Y-145968933D01*
X230205824Y-145762376D01*
X230097328Y-145600000D01*
X230205824Y-145437624D01*
X230291383Y-145231067D01*
X230335000Y-145011788D01*
X230335000Y-144788212D01*
X230291383Y-144568933D01*
X230205824Y-144362376D01*
X230081612Y-144176480D01*
X229923520Y-144018388D01*
X229737624Y-143894176D01*
X229531067Y-143808617D01*
X229311788Y-143765000D01*
X229088212Y-143765000D01*
X228868933Y-143808617D01*
X228662376Y-143894176D01*
X228476480Y-144018388D01*
X228336397Y-144158471D01*
X228281612Y-144076480D01*
X228123520Y-143918388D01*
X227937624Y-143794176D01*
X227731067Y-143708617D01*
X227511788Y-143665000D01*
X227288212Y-143665000D01*
X227068933Y-143708617D01*
X226862376Y-143794176D01*
X226676480Y-143918388D01*
X226518388Y-144076480D01*
X226394176Y-144262376D01*
X226308617Y-144468933D01*
X226265000Y-144688212D01*
X219255594Y-144688212D01*
X219213012Y-144474142D01*
X219101070Y-144203889D01*
X218938555Y-143960668D01*
X218731712Y-143753825D01*
X218488491Y-143591310D01*
X218218238Y-143479368D01*
X217931340Y-143422300D01*
X217638820Y-143422300D01*
X217351922Y-143479368D01*
X217081669Y-143591310D01*
X216838448Y-143753825D01*
X216631605Y-143960668D01*
X216515080Y-144135060D01*
X216398555Y-143960668D01*
X216191712Y-143753825D01*
X215948491Y-143591310D01*
X215678238Y-143479368D01*
X215391340Y-143422300D01*
X215098820Y-143422300D01*
X214811922Y-143479368D01*
X214541669Y-143591310D01*
X214298448Y-143753825D01*
X214091605Y-143960668D01*
X213975080Y-144135060D01*
X213858555Y-143960668D01*
X213651712Y-143753825D01*
X213408491Y-143591310D01*
X213138238Y-143479368D01*
X212851340Y-143422300D01*
X212558820Y-143422300D01*
X212271922Y-143479368D01*
X212001669Y-143591310D01*
X211758448Y-143753825D01*
X211626593Y-143885680D01*
X211604582Y-143813120D01*
X211545617Y-143702806D01*
X211466265Y-143606115D01*
X211369574Y-143526763D01*
X211259260Y-143467798D01*
X211139562Y-143431488D01*
X211015080Y-143419228D01*
X209315080Y-143419228D01*
X209190598Y-143431488D01*
X209070900Y-143467798D01*
X208960586Y-143526763D01*
X208863895Y-143606115D01*
X208784543Y-143702806D01*
X208725578Y-143813120D01*
X208689268Y-143932818D01*
X208677008Y-144057300D01*
X206072389Y-144057300D01*
X205630839Y-143615750D01*
X205085925Y-143251651D01*
X204480450Y-143000855D01*
X203837681Y-142873000D01*
X203182319Y-142873000D01*
X202539550Y-143000855D01*
X201934075Y-143251651D01*
X201389161Y-143615750D01*
X200925750Y-144079161D01*
X200745100Y-144349523D01*
X200745100Y-138589721D01*
X202575000Y-138589721D01*
X202575000Y-139010279D01*
X202657047Y-139422756D01*
X202817988Y-139811302D01*
X203051637Y-140160983D01*
X203349017Y-140458363D01*
X203698698Y-140692012D01*
X204087244Y-140852953D01*
X204499721Y-140935000D01*
X204920279Y-140935000D01*
X205332756Y-140852953D01*
X205721302Y-140692012D01*
X206070983Y-140458363D01*
X206368363Y-140160983D01*
X206602012Y-139811302D01*
X206762953Y-139422756D01*
X206845000Y-139010279D01*
X206845000Y-138589721D01*
X206762953Y-138177244D01*
X206602012Y-137788698D01*
X206368363Y-137439017D01*
X206070983Y-137141637D01*
X205721302Y-136907988D01*
X205332756Y-136747047D01*
X204920279Y-136665000D01*
X204499721Y-136665000D01*
X204087244Y-136747047D01*
X203698698Y-136907988D01*
X203349017Y-137141637D01*
X203051637Y-137439017D01*
X202817988Y-137788698D01*
X202657047Y-138177244D01*
X202575000Y-138589721D01*
X200745100Y-138589721D01*
X200745100Y-135211653D01*
X203397952Y-135211653D01*
X203553962Y-135527214D01*
X203928745Y-135718020D01*
X204333551Y-135832044D01*
X204752824Y-135864902D01*
X205170451Y-135815334D01*
X205570383Y-135685243D01*
X205866038Y-135527214D01*
X206022048Y-135211653D01*
X204710000Y-133899605D01*
X203397952Y-135211653D01*
X200745100Y-135211653D01*
X200745100Y-133762824D01*
X202565098Y-133762824D01*
X202614666Y-134180451D01*
X202744757Y-134580383D01*
X202902786Y-134876038D01*
X203218347Y-135032048D01*
X204530395Y-133720000D01*
X204889605Y-133720000D01*
X206201653Y-135032048D01*
X206517214Y-134876038D01*
X206708020Y-134501255D01*
X206822044Y-134096449D01*
X206854902Y-133677176D01*
X206805334Y-133259549D01*
X206675243Y-132859617D01*
X206517214Y-132563962D01*
X206201653Y-132407952D01*
X204889605Y-133720000D01*
X204530395Y-133720000D01*
X203218347Y-132407952D01*
X202902786Y-132563962D01*
X202711980Y-132938745D01*
X202597956Y-133343551D01*
X202565098Y-133762824D01*
X200745100Y-133762824D01*
X200745100Y-132228347D01*
X203397952Y-132228347D01*
X204710000Y-133540395D01*
X206022048Y-132228347D01*
X205866038Y-131912786D01*
X205491255Y-131721980D01*
X205086449Y-131607956D01*
X204667176Y-131575098D01*
X204249549Y-131624666D01*
X203849617Y-131754757D01*
X203553962Y-131912786D01*
X203397952Y-132228347D01*
X200745100Y-132228347D01*
X200745100Y-130131653D01*
X203397952Y-130131653D01*
X203553962Y-130447214D01*
X203928745Y-130638020D01*
X204333551Y-130752044D01*
X204752824Y-130784902D01*
X205170451Y-130735334D01*
X205570383Y-130605243D01*
X205866038Y-130447214D01*
X206022048Y-130131653D01*
X204710000Y-128819605D01*
X203397952Y-130131653D01*
X200745100Y-130131653D01*
X200745100Y-128682824D01*
X202565098Y-128682824D01*
X202614666Y-129100451D01*
X202744757Y-129500383D01*
X202902786Y-129796038D01*
X203218347Y-129952048D01*
X204530395Y-128640000D01*
X204889605Y-128640000D01*
X206201653Y-129952048D01*
X206517214Y-129796038D01*
X206708020Y-129421255D01*
X206822044Y-129016449D01*
X206854902Y-128597176D01*
X206805334Y-128179549D01*
X206675243Y-127779617D01*
X206517214Y-127483962D01*
X206201653Y-127327952D01*
X204889605Y-128640000D01*
X204530395Y-128640000D01*
X203218347Y-127327952D01*
X202902786Y-127483962D01*
X202711980Y-127858745D01*
X202597956Y-128263551D01*
X202565098Y-128682824D01*
X200745100Y-128682824D01*
X200745100Y-127148347D01*
X203397952Y-127148347D01*
X204710000Y-128460395D01*
X206022048Y-127148347D01*
X205866038Y-126832786D01*
X205491255Y-126641980D01*
X205086449Y-126527956D01*
X204667176Y-126495098D01*
X204249549Y-126544666D01*
X203849617Y-126674757D01*
X203553962Y-126832786D01*
X203397952Y-127148347D01*
X200745100Y-127148347D01*
X200745100Y-122060000D01*
X202571928Y-122060000D01*
X202571928Y-125060000D01*
X202584188Y-125184482D01*
X202620498Y-125304180D01*
X202679463Y-125414494D01*
X202758815Y-125511185D01*
X202855506Y-125590537D01*
X202965820Y-125649502D01*
X203085518Y-125685812D01*
X203210000Y-125698072D01*
X206210000Y-125698072D01*
X206334482Y-125685812D01*
X206454180Y-125649502D01*
X206564494Y-125590537D01*
X206661185Y-125511185D01*
X206740537Y-125414494D01*
X206799502Y-125304180D01*
X206835812Y-125184482D01*
X206848072Y-125060000D01*
X206848072Y-122060000D01*
X206835812Y-121935518D01*
X206799502Y-121815820D01*
X206740537Y-121705506D01*
X206661185Y-121608815D01*
X206564494Y-121529463D01*
X206454180Y-121470498D01*
X206334482Y-121434188D01*
X206210000Y-121421928D01*
X203210000Y-121421928D01*
X203085518Y-121434188D01*
X202965820Y-121470498D01*
X202855506Y-121529463D01*
X202758815Y-121608815D01*
X202679463Y-121705506D01*
X202620498Y-121815820D01*
X202584188Y-121935518D01*
X202571928Y-122060000D01*
X200745100Y-122060000D01*
X200745100Y-116668514D01*
X201765000Y-116668514D01*
X201765000Y-116931486D01*
X201816304Y-117189405D01*
X201916939Y-117432359D01*
X202063038Y-117651013D01*
X202248987Y-117836962D01*
X202467641Y-117983061D01*
X202710595Y-118083696D01*
X202968514Y-118135000D01*
X203231486Y-118135000D01*
X203489405Y-118083696D01*
X203732359Y-117983061D01*
X203951013Y-117836962D01*
X204034915Y-117753060D01*
X213688428Y-117753060D01*
X213688428Y-119453060D01*
X213700688Y-119577542D01*
X213736998Y-119697240D01*
X213795963Y-119807554D01*
X213875315Y-119904245D01*
X213972006Y-119983597D01*
X214082320Y-120042562D01*
X214154880Y-120064573D01*
X214023025Y-120196428D01*
X213860510Y-120439649D01*
X213748568Y-120709902D01*
X213691500Y-120996800D01*
X213691500Y-121289320D01*
X213748568Y-121576218D01*
X213860510Y-121846471D01*
X214023025Y-122089692D01*
X214229868Y-122296535D01*
X214473089Y-122459050D01*
X214743342Y-122570992D01*
X215030240Y-122628060D01*
X215322760Y-122628060D01*
X215609658Y-122570992D01*
X215879911Y-122459050D01*
X216123132Y-122296535D01*
X216329975Y-122089692D01*
X216492490Y-121846471D01*
X216604432Y-121576218D01*
X216661500Y-121289320D01*
X216661500Y-120996800D01*
X216604432Y-120709902D01*
X216492490Y-120439649D01*
X216329975Y-120196428D01*
X216198120Y-120064573D01*
X216270680Y-120042562D01*
X216380994Y-119983597D01*
X216477685Y-119904245D01*
X216557037Y-119807554D01*
X216616002Y-119697240D01*
X216652312Y-119577542D01*
X216664572Y-119453060D01*
X216664572Y-117753060D01*
X216652312Y-117628578D01*
X216616002Y-117508880D01*
X216557037Y-117398566D01*
X216477685Y-117301875D01*
X216380994Y-117222523D01*
X216270680Y-117163558D01*
X216150982Y-117127248D01*
X216026500Y-117114988D01*
X214326500Y-117114988D01*
X214202018Y-117127248D01*
X214082320Y-117163558D01*
X213972006Y-117222523D01*
X213875315Y-117301875D01*
X213795963Y-117398566D01*
X213736998Y-117508880D01*
X213700688Y-117628578D01*
X213688428Y-117753060D01*
X204034915Y-117753060D01*
X204136962Y-117651013D01*
X204283061Y-117432359D01*
X204383696Y-117189405D01*
X204435000Y-116931486D01*
X204435000Y-116668514D01*
X204426674Y-116626655D01*
X219740000Y-116626655D01*
X219740000Y-116973345D01*
X219807636Y-117313373D01*
X219940308Y-117633673D01*
X220132919Y-117921935D01*
X220378065Y-118167081D01*
X220666327Y-118359692D01*
X220986627Y-118492364D01*
X221326655Y-118560000D01*
X221673345Y-118560000D01*
X222013373Y-118492364D01*
X222333673Y-118359692D01*
X222621935Y-118167081D01*
X222867081Y-117921935D01*
X223059692Y-117633673D01*
X223192364Y-117313373D01*
X223260000Y-116973345D01*
X223260000Y-116626655D01*
X223192364Y-116286627D01*
X223059692Y-115966327D01*
X222867081Y-115678065D01*
X222621935Y-115432919D01*
X222333673Y-115240308D01*
X222013373Y-115107636D01*
X221673345Y-115040000D01*
X221326655Y-115040000D01*
X220986627Y-115107636D01*
X220666327Y-115240308D01*
X220378065Y-115432919D01*
X220132919Y-115678065D01*
X219940308Y-115966327D01*
X219807636Y-116286627D01*
X219740000Y-116626655D01*
X204426674Y-116626655D01*
X204383696Y-116410595D01*
X204283061Y-116167641D01*
X204136962Y-115948987D01*
X203951013Y-115763038D01*
X203732359Y-115616939D01*
X203489405Y-115516304D01*
X203231486Y-115465000D01*
X202968514Y-115465000D01*
X202710595Y-115516304D01*
X202467641Y-115616939D01*
X202248987Y-115763038D01*
X202063038Y-115948987D01*
X201916939Y-116167641D01*
X201816304Y-116410595D01*
X201765000Y-116668514D01*
X200745100Y-116668514D01*
X200745100Y-113565098D01*
X210715000Y-113565098D01*
X210715000Y-114034902D01*
X210806654Y-114495679D01*
X210986440Y-114929721D01*
X211247450Y-115320349D01*
X211579651Y-115652550D01*
X211970279Y-115913560D01*
X212404321Y-116093346D01*
X212865098Y-116185000D01*
X213334902Y-116185000D01*
X213795679Y-116093346D01*
X214229721Y-115913560D01*
X214620349Y-115652550D01*
X214952550Y-115320349D01*
X215213560Y-114929721D01*
X215393346Y-114495679D01*
X215485000Y-114034902D01*
X215485000Y-113565098D01*
X215393346Y-113104321D01*
X215213560Y-112670279D01*
X214952550Y-112279651D01*
X214620349Y-111947450D01*
X214229721Y-111686440D01*
X213795679Y-111506654D01*
X213334902Y-111415000D01*
X212865098Y-111415000D01*
X212404321Y-111506654D01*
X211970279Y-111686440D01*
X211579651Y-111947450D01*
X211247450Y-112279651D01*
X210986440Y-112670279D01*
X210806654Y-113104321D01*
X210715000Y-113565098D01*
X200745100Y-113565098D01*
X200745100Y-110550000D01*
X210711928Y-110550000D01*
X210724188Y-110674482D01*
X210760498Y-110794180D01*
X210819463Y-110904494D01*
X210898815Y-111001185D01*
X210995506Y-111080537D01*
X211105820Y-111139502D01*
X211225518Y-111175812D01*
X211350000Y-111188072D01*
X212814250Y-111185000D01*
X212973000Y-111026250D01*
X212973000Y-108927000D01*
X213227000Y-108927000D01*
X213227000Y-111026250D01*
X213385750Y-111185000D01*
X214850000Y-111188072D01*
X214974482Y-111175812D01*
X215094180Y-111139502D01*
X215204494Y-111080537D01*
X215301185Y-111001185D01*
X215380537Y-110904494D01*
X215439502Y-110794180D01*
X215475812Y-110674482D01*
X215488072Y-110550000D01*
X215485000Y-109085750D01*
X215326250Y-108927000D01*
X213227000Y-108927000D01*
X212973000Y-108927000D01*
X210873750Y-108927000D01*
X210715000Y-109085750D01*
X210711928Y-110550000D01*
X200745100Y-110550000D01*
X200745100Y-105668514D01*
X201765000Y-105668514D01*
X201765000Y-105931486D01*
X201816304Y-106189405D01*
X201916939Y-106432359D01*
X202063038Y-106651013D01*
X202248987Y-106836962D01*
X202467641Y-106983061D01*
X202710595Y-107083696D01*
X202968514Y-107135000D01*
X203231486Y-107135000D01*
X203489405Y-107083696D01*
X203570754Y-107050000D01*
X210711928Y-107050000D01*
X210715000Y-108514250D01*
X210873750Y-108673000D01*
X212973000Y-108673000D01*
X212973000Y-106573750D01*
X213227000Y-106573750D01*
X213227000Y-108673000D01*
X215326250Y-108673000D01*
X215485000Y-108514250D01*
X215488072Y-107050000D01*
X215475812Y-106925518D01*
X215439502Y-106805820D01*
X215380537Y-106695506D01*
X215301185Y-106598815D01*
X215204494Y-106519463D01*
X215094180Y-106460498D01*
X214974482Y-106424188D01*
X214850000Y-106411928D01*
X213385750Y-106415000D01*
X213227000Y-106573750D01*
X212973000Y-106573750D01*
X212814250Y-106415000D01*
X211350000Y-106411928D01*
X211225518Y-106424188D01*
X211105820Y-106460498D01*
X210995506Y-106519463D01*
X210898815Y-106598815D01*
X210819463Y-106695506D01*
X210760498Y-106805820D01*
X210724188Y-106925518D01*
X210711928Y-107050000D01*
X203570754Y-107050000D01*
X203732359Y-106983061D01*
X203951013Y-106836962D01*
X204136962Y-106651013D01*
X204283061Y-106432359D01*
X204383696Y-106189405D01*
X204435000Y-105931486D01*
X204435000Y-105668514D01*
X204383696Y-105410595D01*
X204283061Y-105167641D01*
X204136962Y-104948987D01*
X203951013Y-104763038D01*
X203732359Y-104616939D01*
X203489405Y-104516304D01*
X203231486Y-104465000D01*
X202968514Y-104465000D01*
X202710595Y-104516304D01*
X202467641Y-104616939D01*
X202248987Y-104763038D01*
X202063038Y-104948987D01*
X201916939Y-105167641D01*
X201816304Y-105410595D01*
X201765000Y-105668514D01*
X200745100Y-105668514D01*
X200745100Y-96727434D01*
X200791692Y-96252244D01*
X200919261Y-95829718D01*
X201126467Y-95440018D01*
X201405422Y-95097987D01*
X201745496Y-94816653D01*
X202133741Y-94606729D01*
X202555362Y-94476215D01*
X203028370Y-94426500D01*
X206464486Y-94426500D01*
X206267167Y-94531969D01*
G04 #@! TA.AperFunction,Conductor*
D24*
G36*
X206267167Y-94531969D02*
G01*
X206018205Y-94736286D01*
X205966994Y-94798687D01*
X205232681Y-95533000D01*
X205170286Y-95584206D01*
X205118308Y-95647541D01*
X204934729Y-95463962D01*
X204568669Y-95219369D01*
X204161925Y-95050890D01*
X203730128Y-94965000D01*
X203289872Y-94965000D01*
X202858075Y-95050890D01*
X202451331Y-95219369D01*
X202085271Y-95463962D01*
X201773962Y-95775271D01*
X201529369Y-96141331D01*
X201360890Y-96548075D01*
X201275000Y-96979872D01*
X201275000Y-97420128D01*
X201360890Y-97851925D01*
X201529369Y-98258669D01*
X201773962Y-98624729D01*
X202085271Y-98936038D01*
X202451331Y-99180631D01*
X202858075Y-99349110D01*
X203289872Y-99435000D01*
X203730128Y-99435000D01*
X204161925Y-99349110D01*
X204568669Y-99180631D01*
X204696999Y-99094884D01*
X204696999Y-100167681D01*
X204689088Y-100248001D01*
X204696999Y-100328320D01*
X204696999Y-100328322D01*
X204720656Y-100568516D01*
X204814147Y-100876715D01*
X204965968Y-101160752D01*
X205170285Y-101409715D01*
X205232686Y-101460926D01*
X205359074Y-101587314D01*
X205410285Y-101649715D01*
X205659247Y-101854032D01*
X205943284Y-102005853D01*
X206251483Y-102099344D01*
X206491677Y-102123001D01*
X206491679Y-102123001D01*
X206571998Y-102130912D01*
X206652318Y-102123001D01*
X212043367Y-102123001D01*
X220325675Y-110405309D01*
X220132919Y-110598065D01*
X219940308Y-110886327D01*
X219807636Y-111206627D01*
X219740000Y-111546655D01*
X219740000Y-111893345D01*
X219807636Y-112233373D01*
X219940308Y-112553673D01*
X220132919Y-112841935D01*
X220378065Y-113087081D01*
X220666327Y-113279692D01*
X220986627Y-113412364D01*
X221326655Y-113480000D01*
X221673345Y-113480000D01*
X222013373Y-113412364D01*
X222333673Y-113279692D01*
X222621935Y-113087081D01*
X222867081Y-112841935D01*
X223059692Y-112553673D01*
X223192364Y-112233373D01*
X223260000Y-111893345D01*
X223260000Y-111546655D01*
X223192364Y-111206627D01*
X223119203Y-111029999D01*
X226117761Y-111029999D01*
X237872761Y-122785000D01*
X224510319Y-122785000D01*
X224429999Y-122777089D01*
X224349680Y-122785000D01*
X224349678Y-122785000D01*
X224109484Y-122808657D01*
X223801285Y-122902148D01*
X223517248Y-123053969D01*
X223268286Y-123258286D01*
X223217080Y-123320681D01*
X209337085Y-137200677D01*
X209183970Y-137387248D01*
X209032148Y-137671286D01*
X208938658Y-137979484D01*
X208907089Y-138300000D01*
X208938658Y-138620516D01*
X209032148Y-138928714D01*
X209183970Y-139212752D01*
X209373959Y-139444254D01*
X209345506Y-139459463D01*
X209248815Y-139538815D01*
X209169463Y-139635506D01*
X209110498Y-139745820D01*
X209074188Y-139865518D01*
X209061928Y-139990000D01*
X209061928Y-141690000D01*
X209074188Y-141814482D01*
X209110498Y-141934180D01*
X209169463Y-142044494D01*
X209248815Y-142141185D01*
X209345506Y-142220537D01*
X209455820Y-142279502D01*
X209575518Y-142315812D01*
X209700000Y-142328072D01*
X211400000Y-142328072D01*
X211524482Y-142315812D01*
X211644180Y-142279502D01*
X211754494Y-142220537D01*
X211851185Y-142141185D01*
X211930537Y-142044494D01*
X211989502Y-141934180D01*
X212025812Y-141814482D01*
X212038072Y-141690000D01*
X212038072Y-139990000D01*
X212025812Y-139865518D01*
X211989502Y-139745820D01*
X211930537Y-139635506D01*
X211851185Y-139538815D01*
X211754494Y-139459463D01*
X211720790Y-139441448D01*
X211954801Y-139207437D01*
X225000700Y-139207437D01*
X225000700Y-139421163D01*
X225042396Y-139630783D01*
X225124185Y-139828240D01*
X225242925Y-140005947D01*
X225394053Y-140157075D01*
X225571760Y-140275815D01*
X225769217Y-140357604D01*
X225978837Y-140399300D01*
X226192563Y-140399300D01*
X226402183Y-140357604D01*
X226599640Y-140275815D01*
X226777347Y-140157075D01*
X226928475Y-140005947D01*
X227047215Y-139828240D01*
X227129004Y-139630783D01*
X227170700Y-139421163D01*
X227170700Y-139207437D01*
X227129004Y-138997817D01*
X227047215Y-138800360D01*
X226928475Y-138622653D01*
X226777347Y-138471525D01*
X226599640Y-138352785D01*
X226402183Y-138270996D01*
X226192563Y-138229300D01*
X225978837Y-138229300D01*
X225769217Y-138270996D01*
X225571760Y-138352785D01*
X225394053Y-138471525D01*
X225242925Y-138622653D01*
X225124185Y-138800360D01*
X225042396Y-138997817D01*
X225000700Y-139207437D01*
X211954801Y-139207437D01*
X213442238Y-137720000D01*
X248041928Y-137720000D01*
X248041928Y-139420000D01*
X248054188Y-139544482D01*
X248090498Y-139664180D01*
X248149463Y-139774494D01*
X248228815Y-139871185D01*
X248325506Y-139950537D01*
X248435820Y-140009502D01*
X248508380Y-140031513D01*
X248376525Y-140163368D01*
X248214010Y-140406589D01*
X248102068Y-140676842D01*
X248045000Y-140963740D01*
X248045000Y-141256260D01*
X248102068Y-141543158D01*
X248214010Y-141813411D01*
X248376525Y-142056632D01*
X248583368Y-142263475D01*
X248826589Y-142425990D01*
X249096842Y-142537932D01*
X249383740Y-142595000D01*
X249676260Y-142595000D01*
X249963158Y-142537932D01*
X250233411Y-142425990D01*
X250476632Y-142263475D01*
X250683475Y-142056632D01*
X250800000Y-141882240D01*
X250916525Y-142056632D01*
X251123368Y-142263475D01*
X251366589Y-142425990D01*
X251636842Y-142537932D01*
X251923740Y-142595000D01*
X252216260Y-142595000D01*
X252503158Y-142537932D01*
X252773411Y-142425990D01*
X253016632Y-142263475D01*
X253223475Y-142056632D01*
X253385990Y-141813411D01*
X253497932Y-141543158D01*
X253555000Y-141256260D01*
X253555000Y-140963740D01*
X253497932Y-140676842D01*
X253385990Y-140406589D01*
X253223475Y-140163368D01*
X253091620Y-140031513D01*
X253164180Y-140009502D01*
X253274494Y-139950537D01*
X253371185Y-139871185D01*
X253450537Y-139774494D01*
X253509502Y-139664180D01*
X253545812Y-139544482D01*
X253558072Y-139420000D01*
X253558072Y-137720000D01*
X253545812Y-137595518D01*
X253509502Y-137475820D01*
X253450537Y-137365506D01*
X253371185Y-137268815D01*
X253274494Y-137189463D01*
X253164180Y-137130498D01*
X253044482Y-137094188D01*
X252920000Y-137081928D01*
X251220000Y-137081928D01*
X251095518Y-137094188D01*
X250975820Y-137130498D01*
X250865506Y-137189463D01*
X250800000Y-137243222D01*
X250734494Y-137189463D01*
X250624180Y-137130498D01*
X250504482Y-137094188D01*
X250380000Y-137081928D01*
X248680000Y-137081928D01*
X248555518Y-137094188D01*
X248435820Y-137130498D01*
X248325506Y-137189463D01*
X248228815Y-137268815D01*
X248149463Y-137365506D01*
X248090498Y-137475820D01*
X248054188Y-137595518D01*
X248041928Y-137720000D01*
X213442238Y-137720000D01*
X214969101Y-136193137D01*
X217115000Y-136193137D01*
X217115000Y-136406863D01*
X217156696Y-136616483D01*
X217238485Y-136813940D01*
X217357225Y-136991647D01*
X217508353Y-137142775D01*
X217686060Y-137261515D01*
X217883517Y-137343304D01*
X218093137Y-137385000D01*
X218306863Y-137385000D01*
X218516483Y-137343304D01*
X218713940Y-137261515D01*
X218891647Y-137142775D01*
X219042775Y-136991647D01*
X219161515Y-136813940D01*
X219243304Y-136616483D01*
X219285000Y-136406863D01*
X219285000Y-136193137D01*
X219243304Y-135983517D01*
X219161515Y-135786060D01*
X219042775Y-135608353D01*
X218891647Y-135457225D01*
X218713940Y-135338485D01*
X218516483Y-135256696D01*
X218306863Y-135215000D01*
X218093137Y-135215000D01*
X217883517Y-135256696D01*
X217686060Y-135338485D01*
X217508353Y-135457225D01*
X217357225Y-135608353D01*
X217238485Y-135786060D01*
X217156696Y-135983517D01*
X217115000Y-136193137D01*
X214969101Y-136193137D01*
X218474026Y-132688212D01*
X225535000Y-132688212D01*
X225535000Y-132911788D01*
X225578617Y-133131067D01*
X225664176Y-133337624D01*
X225788388Y-133523520D01*
X225946480Y-133681612D01*
X226132376Y-133805824D01*
X226338933Y-133891383D01*
X226558212Y-133935000D01*
X226781788Y-133935000D01*
X227001067Y-133891383D01*
X227207624Y-133805824D01*
X227393520Y-133681612D01*
X227551612Y-133523520D01*
X227675824Y-133337624D01*
X227761383Y-133131067D01*
X227805000Y-132911788D01*
X227805000Y-132688212D01*
X227768923Y-132506837D01*
X239298460Y-132506837D01*
X239298460Y-132720563D01*
X239340156Y-132930183D01*
X239421945Y-133127640D01*
X239540685Y-133305347D01*
X239691813Y-133456475D01*
X239869520Y-133575215D01*
X240066977Y-133657004D01*
X240276597Y-133698700D01*
X240490323Y-133698700D01*
X240699943Y-133657004D01*
X240897400Y-133575215D01*
X241075107Y-133456475D01*
X241226235Y-133305347D01*
X241344975Y-133127640D01*
X241426764Y-132930183D01*
X241468460Y-132720563D01*
X241468460Y-132506837D01*
X241426764Y-132297217D01*
X241344975Y-132099760D01*
X241226235Y-131922053D01*
X241075107Y-131770925D01*
X240897400Y-131652185D01*
X240699943Y-131570396D01*
X240490323Y-131528700D01*
X240276597Y-131528700D01*
X240066977Y-131570396D01*
X239869520Y-131652185D01*
X239691813Y-131770925D01*
X239540685Y-131922053D01*
X239421945Y-132099760D01*
X239340156Y-132297217D01*
X239298460Y-132506837D01*
X227768923Y-132506837D01*
X227761383Y-132468933D01*
X227675824Y-132262376D01*
X227551612Y-132076480D01*
X227393520Y-131918388D01*
X227207624Y-131794176D01*
X227001067Y-131708617D01*
X226781788Y-131665000D01*
X226558212Y-131665000D01*
X226338933Y-131708617D01*
X226132376Y-131794176D01*
X225946480Y-131918388D01*
X225788388Y-132076480D01*
X225664176Y-132262376D01*
X225578617Y-132468933D01*
X225535000Y-132688212D01*
X218474026Y-132688212D01*
X224872238Y-126290000D01*
X248041928Y-126290000D01*
X248041928Y-127990000D01*
X248054188Y-128114482D01*
X248090498Y-128234180D01*
X248149463Y-128344494D01*
X248228815Y-128441185D01*
X248325506Y-128520537D01*
X248435820Y-128579502D01*
X248508380Y-128601513D01*
X248376525Y-128733368D01*
X248214010Y-128976589D01*
X248102068Y-129246842D01*
X248045000Y-129533740D01*
X248045000Y-129826260D01*
X248102068Y-130113158D01*
X248214010Y-130383411D01*
X248376525Y-130626632D01*
X248583368Y-130833475D01*
X248826589Y-130995990D01*
X249096842Y-131107932D01*
X249383740Y-131165000D01*
X249676260Y-131165000D01*
X249963158Y-131107932D01*
X250233411Y-130995990D01*
X250476632Y-130833475D01*
X250683475Y-130626632D01*
X250800000Y-130452240D01*
X250916525Y-130626632D01*
X251123368Y-130833475D01*
X251366589Y-130995990D01*
X251636842Y-131107932D01*
X251923740Y-131165000D01*
X252216260Y-131165000D01*
X252503158Y-131107932D01*
X252773411Y-130995990D01*
X253016632Y-130833475D01*
X253223475Y-130626632D01*
X253385990Y-130383411D01*
X253497932Y-130113158D01*
X253555000Y-129826260D01*
X253555000Y-129533740D01*
X253497932Y-129246842D01*
X253385990Y-128976589D01*
X253223475Y-128733368D01*
X253091620Y-128601513D01*
X253164180Y-128579502D01*
X253274494Y-128520537D01*
X253371185Y-128441185D01*
X253450537Y-128344494D01*
X253509502Y-128234180D01*
X253545812Y-128114482D01*
X253558072Y-127990000D01*
X253558072Y-126290000D01*
X253545812Y-126165518D01*
X253509502Y-126045820D01*
X253450537Y-125935506D01*
X253371185Y-125838815D01*
X253274494Y-125759463D01*
X253164180Y-125700498D01*
X253044482Y-125664188D01*
X252920000Y-125651928D01*
X251220000Y-125651928D01*
X251095518Y-125664188D01*
X250975820Y-125700498D01*
X250865506Y-125759463D01*
X250800000Y-125813222D01*
X250734494Y-125759463D01*
X250624180Y-125700498D01*
X250504482Y-125664188D01*
X250380000Y-125651928D01*
X248680000Y-125651928D01*
X248555518Y-125664188D01*
X248435820Y-125700498D01*
X248325506Y-125759463D01*
X248228815Y-125838815D01*
X248149463Y-125935506D01*
X248090498Y-126045820D01*
X248054188Y-126165518D01*
X248041928Y-126290000D01*
X224872238Y-126290000D01*
X225107239Y-126055000D01*
X241168137Y-126055000D01*
X241306627Y-126112364D01*
X241646655Y-126180000D01*
X241993345Y-126180000D01*
X242333373Y-126112364D01*
X242653673Y-125979692D01*
X242941935Y-125787081D01*
X243187081Y-125541935D01*
X243379692Y-125253673D01*
X243512364Y-124933373D01*
X243580000Y-124593345D01*
X243580000Y-124246655D01*
X243512364Y-123906627D01*
X243379692Y-123586327D01*
X243187081Y-123298065D01*
X242941935Y-123052919D01*
X242653673Y-122860308D01*
X242515183Y-122802944D01*
X233798894Y-114086655D01*
X240060000Y-114086655D01*
X240060000Y-114433345D01*
X240127636Y-114773373D01*
X240260308Y-115093673D01*
X240452919Y-115381935D01*
X240698065Y-115627081D01*
X240986327Y-115819692D01*
X241306627Y-115952364D01*
X241646655Y-116020000D01*
X241993345Y-116020000D01*
X242333373Y-115952364D01*
X242653673Y-115819692D01*
X242941935Y-115627081D01*
X243187081Y-115381935D01*
X243379692Y-115093673D01*
X243512364Y-114773373D01*
X243580000Y-114433345D01*
X243580000Y-114086655D01*
X243512364Y-113746627D01*
X243447488Y-113590000D01*
X248041928Y-113590000D01*
X248041928Y-115290000D01*
X248054188Y-115414482D01*
X248090498Y-115534180D01*
X248149463Y-115644494D01*
X248228815Y-115741185D01*
X248325506Y-115820537D01*
X248435820Y-115879502D01*
X248508380Y-115901513D01*
X248376525Y-116033368D01*
X248214010Y-116276589D01*
X248102068Y-116546842D01*
X248045000Y-116833740D01*
X248045000Y-117126260D01*
X248102068Y-117413158D01*
X248214010Y-117683411D01*
X248376525Y-117926632D01*
X248583368Y-118133475D01*
X248826589Y-118295990D01*
X249096842Y-118407932D01*
X249383740Y-118465000D01*
X249676260Y-118465000D01*
X249963158Y-118407932D01*
X250233411Y-118295990D01*
X250476632Y-118133475D01*
X250683475Y-117926632D01*
X250800000Y-117752240D01*
X250916525Y-117926632D01*
X251123368Y-118133475D01*
X251366589Y-118295990D01*
X251636842Y-118407932D01*
X251923740Y-118465000D01*
X252216260Y-118465000D01*
X252503158Y-118407932D01*
X252773411Y-118295990D01*
X253016632Y-118133475D01*
X253223475Y-117926632D01*
X253385990Y-117683411D01*
X253497932Y-117413158D01*
X253555000Y-117126260D01*
X253555000Y-116833740D01*
X253497932Y-116546842D01*
X253385990Y-116276589D01*
X253223475Y-116033368D01*
X253091620Y-115901513D01*
X253164180Y-115879502D01*
X253274494Y-115820537D01*
X253371185Y-115741185D01*
X253450537Y-115644494D01*
X253509502Y-115534180D01*
X253545812Y-115414482D01*
X253558072Y-115290000D01*
X253558072Y-113590000D01*
X253545812Y-113465518D01*
X253509502Y-113345820D01*
X253450537Y-113235506D01*
X253371185Y-113138815D01*
X253274494Y-113059463D01*
X253164180Y-113000498D01*
X253044482Y-112964188D01*
X252920000Y-112951928D01*
X251220000Y-112951928D01*
X251095518Y-112964188D01*
X250975820Y-113000498D01*
X250865506Y-113059463D01*
X250800000Y-113113222D01*
X250734494Y-113059463D01*
X250624180Y-113000498D01*
X250504482Y-112964188D01*
X250380000Y-112951928D01*
X248680000Y-112951928D01*
X248555518Y-112964188D01*
X248435820Y-113000498D01*
X248325506Y-113059463D01*
X248228815Y-113138815D01*
X248149463Y-113235506D01*
X248090498Y-113345820D01*
X248054188Y-113465518D01*
X248041928Y-113590000D01*
X243447488Y-113590000D01*
X243379692Y-113426327D01*
X243187081Y-113138065D01*
X242941935Y-112892919D01*
X242653673Y-112700308D01*
X242333373Y-112567636D01*
X241993345Y-112500000D01*
X241646655Y-112500000D01*
X241306627Y-112567636D01*
X240986327Y-112700308D01*
X240698065Y-112892919D01*
X240452919Y-113138065D01*
X240260308Y-113426327D01*
X240127636Y-113746627D01*
X240060000Y-114086655D01*
X233798894Y-114086655D01*
X228007924Y-108295686D01*
X227956713Y-108233285D01*
X227707751Y-108028968D01*
X227423714Y-107877147D01*
X227115515Y-107783656D01*
X226875321Y-107759999D01*
X226875318Y-107759999D01*
X226794999Y-107752088D01*
X226714680Y-107759999D01*
X222304842Y-107759999D01*
X218471498Y-103926655D01*
X219740000Y-103926655D01*
X219740000Y-104273345D01*
X219807636Y-104613373D01*
X219940308Y-104933673D01*
X220132919Y-105221935D01*
X220378065Y-105467081D01*
X220666327Y-105659692D01*
X220986627Y-105792364D01*
X221326655Y-105860000D01*
X221673345Y-105860000D01*
X222013373Y-105792364D01*
X222333673Y-105659692D01*
X222621935Y-105467081D01*
X222867081Y-105221935D01*
X223059692Y-104933673D01*
X223192364Y-104613373D01*
X223260000Y-104273345D01*
X223260000Y-103926655D01*
X223192364Y-103586627D01*
X223059692Y-103266327D01*
X222867081Y-102978065D01*
X222621935Y-102732919D01*
X222333673Y-102540308D01*
X222013373Y-102407636D01*
X221673345Y-102340000D01*
X221326655Y-102340000D01*
X220986627Y-102407636D01*
X220666327Y-102540308D01*
X220378065Y-102732919D01*
X220132919Y-102978065D01*
X219940308Y-103266327D01*
X219807636Y-103586627D01*
X219740000Y-103926655D01*
X218471498Y-103926655D01*
X214245391Y-99700549D01*
X214408632Y-99591475D01*
X214615475Y-99384632D01*
X214732000Y-99210240D01*
X214848525Y-99384632D01*
X215055368Y-99591475D01*
X215298589Y-99753990D01*
X215568842Y-99865932D01*
X215855740Y-99923000D01*
X216148260Y-99923000D01*
X216435158Y-99865932D01*
X216705411Y-99753990D01*
X216948632Y-99591475D01*
X217155475Y-99384632D01*
X217272000Y-99210240D01*
X217388525Y-99384632D01*
X217595368Y-99591475D01*
X217838589Y-99753990D01*
X218108842Y-99865932D01*
X218395740Y-99923000D01*
X218688260Y-99923000D01*
X218975158Y-99865932D01*
X219245411Y-99753990D01*
X219488632Y-99591475D01*
X219695475Y-99384632D01*
X219812000Y-99210240D01*
X219928525Y-99384632D01*
X220135368Y-99591475D01*
X220378589Y-99753990D01*
X220648842Y-99865932D01*
X220935740Y-99923000D01*
X221228260Y-99923000D01*
X221515158Y-99865932D01*
X221785411Y-99753990D01*
X222028632Y-99591475D01*
X222235475Y-99384632D01*
X222352000Y-99210240D01*
X222468525Y-99384632D01*
X222675368Y-99591475D01*
X222918589Y-99753990D01*
X223188842Y-99865932D01*
X223475740Y-99923000D01*
X223768260Y-99923000D01*
X224055158Y-99865932D01*
X224325411Y-99753990D01*
X224568632Y-99591475D01*
X224775475Y-99384632D01*
X224892000Y-99210240D01*
X225008525Y-99384632D01*
X225215368Y-99591475D01*
X225458589Y-99753990D01*
X225728842Y-99865932D01*
X226015740Y-99923000D01*
X226308260Y-99923000D01*
X226419726Y-99900828D01*
X226135554Y-100185000D01*
X225983137Y-100185000D01*
X225773517Y-100226696D01*
X225576060Y-100308485D01*
X225398353Y-100427225D01*
X225247225Y-100578353D01*
X225128485Y-100756060D01*
X225046696Y-100953517D01*
X225005000Y-101163137D01*
X225005000Y-101376863D01*
X225046696Y-101586483D01*
X225128485Y-101783940D01*
X225247225Y-101961647D01*
X225398353Y-102112775D01*
X225576060Y-102231515D01*
X225773517Y-102313304D01*
X225983137Y-102355000D01*
X226196863Y-102355000D01*
X226406483Y-102313304D01*
X226603940Y-102231515D01*
X226781647Y-102112775D01*
X226932775Y-101961647D01*
X227051515Y-101783940D01*
X227133304Y-101586483D01*
X227175000Y-101376863D01*
X227175000Y-101224446D01*
X228489602Y-99909844D01*
X228555740Y-99923000D01*
X228848260Y-99923000D01*
X229097897Y-99873344D01*
X229968746Y-100744193D01*
X229991762Y-100772238D01*
X230103680Y-100864087D01*
X230231367Y-100932337D01*
X230314859Y-100957664D01*
X230369914Y-100974365D01*
X230514000Y-100988556D01*
X230550105Y-100985000D01*
X231479455Y-100985000D01*
X231404674Y-101165539D01*
X231362978Y-101375159D01*
X231362978Y-101588885D01*
X231404674Y-101798505D01*
X231486463Y-101995962D01*
X231605203Y-102173669D01*
X231712978Y-102281444D01*
X231712979Y-105471863D01*
X231709422Y-105507978D01*
X231723613Y-105652063D01*
X231755086Y-105755812D01*
X231765642Y-105790611D01*
X231833892Y-105918298D01*
X231925741Y-106030216D01*
X231953786Y-106053232D01*
X236124746Y-110224193D01*
X236147762Y-110252238D01*
X236259680Y-110344087D01*
X236387367Y-110412337D01*
X236525915Y-110454365D01*
X236670000Y-110468556D01*
X236706105Y-110465000D01*
X263045553Y-110465000D01*
X258694557Y-114815997D01*
X258666511Y-114839014D01*
X258574662Y-114950932D01*
X258506412Y-115078619D01*
X258497610Y-115107636D01*
X258464384Y-115217166D01*
X258450193Y-115361251D01*
X258453749Y-115397356D01*
X258453750Y-117857634D01*
X258450193Y-117893749D01*
X258464384Y-118037834D01*
X258493860Y-118135000D01*
X258506413Y-118176382D01*
X258574663Y-118304069D01*
X258666512Y-118415987D01*
X258694557Y-118439003D01*
X258882500Y-118626946D01*
X258882500Y-118779363D01*
X258924196Y-118988983D01*
X259005985Y-119186440D01*
X259124725Y-119364147D01*
X259275853Y-119515275D01*
X259453560Y-119634015D01*
X259651017Y-119715804D01*
X259860637Y-119757500D01*
X260013054Y-119757500D01*
X264543001Y-124287448D01*
X264543000Y-124816578D01*
X264435225Y-124924353D01*
X264316485Y-125102060D01*
X264234696Y-125299517D01*
X264193000Y-125509137D01*
X264193000Y-125722863D01*
X264234696Y-125932483D01*
X264316485Y-126129940D01*
X264435225Y-126307647D01*
X264543000Y-126415422D01*
X264543001Y-130297302D01*
X264438353Y-130367225D01*
X264287225Y-130518353D01*
X264168485Y-130696060D01*
X264086696Y-130893517D01*
X264045000Y-131103137D01*
X264045000Y-131316863D01*
X264086696Y-131526483D01*
X264168485Y-131723940D01*
X264287225Y-131901647D01*
X264395000Y-132009422D01*
X264395001Y-144519268D01*
X264094250Y-144069161D01*
X263630839Y-143605750D01*
X263085925Y-143241651D01*
X262480450Y-142990855D01*
X261837681Y-142863000D01*
X261182319Y-142863000D01*
X260539550Y-142990855D01*
X259934075Y-143241651D01*
X259389161Y-143605750D01*
X258925750Y-144069161D01*
X258561651Y-144614075D01*
X258310855Y-145219550D01*
X258183000Y-145862319D01*
X258183000Y-146517681D01*
X258310855Y-147160450D01*
X258561651Y-147765925D01*
X258925750Y-148310839D01*
X259389161Y-148774250D01*
X259661918Y-148956500D01*
X205373048Y-148956500D01*
X205630839Y-148784250D01*
X206094250Y-148320839D01*
X206458349Y-147775925D01*
X206709145Y-147170450D01*
X206837000Y-146527681D01*
X206837000Y-145872319D01*
X206709145Y-145229550D01*
X206458349Y-144624075D01*
X206094250Y-144079161D01*
X206072389Y-144057300D01*
X208677008Y-144057300D01*
X208677008Y-145757300D01*
X208689268Y-145881782D01*
X208725578Y-146001480D01*
X208784543Y-146111794D01*
X208863895Y-146208485D01*
X208960586Y-146287837D01*
X209070900Y-146346802D01*
X209143460Y-146368813D01*
X209011605Y-146500668D01*
X208849090Y-146743889D01*
X208737148Y-147014142D01*
X208680080Y-147301040D01*
X208680080Y-147593560D01*
X208737148Y-147880458D01*
X208849090Y-148150711D01*
X209011605Y-148393932D01*
X209218448Y-148600775D01*
X209461669Y-148763290D01*
X209731922Y-148875232D01*
X210018820Y-148932300D01*
X210311340Y-148932300D01*
X210598238Y-148875232D01*
X210868491Y-148763290D01*
X211111712Y-148600775D01*
X211318555Y-148393932D01*
X211435080Y-148219540D01*
X211551605Y-148393932D01*
X211758448Y-148600775D01*
X212001669Y-148763290D01*
X212271922Y-148875232D01*
X212558820Y-148932300D01*
X212851340Y-148932300D01*
X213138238Y-148875232D01*
X213408491Y-148763290D01*
X213651712Y-148600775D01*
X213858555Y-148393932D01*
X213975080Y-148219540D01*
X214091605Y-148393932D01*
X214298448Y-148600775D01*
X214541669Y-148763290D01*
X214811922Y-148875232D01*
X215098820Y-148932300D01*
X215391340Y-148932300D01*
X215678238Y-148875232D01*
X215948491Y-148763290D01*
X216191712Y-148600775D01*
X216398555Y-148393932D01*
X216515080Y-148219540D01*
X216631605Y-148393932D01*
X216838448Y-148600775D01*
X217081669Y-148763290D01*
X217351922Y-148875232D01*
X217638820Y-148932300D01*
X217931340Y-148932300D01*
X218218238Y-148875232D01*
X218488491Y-148763290D01*
X218731712Y-148600775D01*
X218938555Y-148393932D01*
X219101070Y-148150711D01*
X219213012Y-147880458D01*
X219270080Y-147593560D01*
X219270080Y-147301040D01*
X219213012Y-147014142D01*
X219101070Y-146743889D01*
X218938555Y-146500668D01*
X218731712Y-146293825D01*
X218557320Y-146177300D01*
X218731712Y-146060775D01*
X218938555Y-145853932D01*
X219101070Y-145610711D01*
X219213012Y-145340458D01*
X219270080Y-145053560D01*
X219270080Y-144761040D01*
X219255594Y-144688212D01*
X226265000Y-144688212D01*
X226265000Y-144911788D01*
X226308617Y-145131067D01*
X226394176Y-145337624D01*
X226518388Y-145523520D01*
X226544868Y-145550000D01*
X226518388Y-145576480D01*
X226394176Y-145762376D01*
X226308617Y-145968933D01*
X226265000Y-146188212D01*
X226265000Y-146411788D01*
X226308617Y-146631067D01*
X226394176Y-146837624D01*
X226502672Y-147000000D01*
X226394176Y-147162376D01*
X226308617Y-147368933D01*
X226265000Y-147588212D01*
X226265000Y-147811788D01*
X226308617Y-148031067D01*
X226394176Y-148237624D01*
X226518388Y-148423520D01*
X226676480Y-148581612D01*
X226862376Y-148705824D01*
X227068933Y-148791383D01*
X227288212Y-148835000D01*
X227511788Y-148835000D01*
X227731067Y-148791383D01*
X227937624Y-148705824D01*
X228123520Y-148581612D01*
X228281612Y-148423520D01*
X228350000Y-148321170D01*
X228418388Y-148423520D01*
X228576480Y-148581612D01*
X228762376Y-148705824D01*
X228968933Y-148791383D01*
X229188212Y-148835000D01*
X229411788Y-148835000D01*
X229631067Y-148791383D01*
X229837624Y-148705824D01*
X230023520Y-148581612D01*
X230181612Y-148423520D01*
X230305824Y-148237624D01*
X230391383Y-148031067D01*
X230435000Y-147811788D01*
X230435000Y-147588212D01*
X230391383Y-147368933D01*
X230305824Y-147162376D01*
X230181612Y-146976480D01*
X230140508Y-146935376D01*
X230205824Y-146837624D01*
X230291383Y-146631067D01*
X230335000Y-146411788D01*
X230335000Y-146188212D01*
X230291383Y-145968933D01*
X230205824Y-145762376D01*
X230097328Y-145600000D01*
X230205824Y-145437624D01*
X230291383Y-145231067D01*
X230335000Y-145011788D01*
X230335000Y-144788212D01*
X230291383Y-144568933D01*
X230205824Y-144362376D01*
X230081612Y-144176480D01*
X229923520Y-144018388D01*
X229737624Y-143894176D01*
X229531067Y-143808617D01*
X229311788Y-143765000D01*
X229088212Y-143765000D01*
X228868933Y-143808617D01*
X228662376Y-143894176D01*
X228476480Y-144018388D01*
X228336397Y-144158471D01*
X228281612Y-144076480D01*
X228123520Y-143918388D01*
X227937624Y-143794176D01*
X227731067Y-143708617D01*
X227511788Y-143665000D01*
X227288212Y-143665000D01*
X227068933Y-143708617D01*
X226862376Y-143794176D01*
X226676480Y-143918388D01*
X226518388Y-144076480D01*
X226394176Y-144262376D01*
X226308617Y-144468933D01*
X226265000Y-144688212D01*
X219255594Y-144688212D01*
X219213012Y-144474142D01*
X219101070Y-144203889D01*
X218938555Y-143960668D01*
X218731712Y-143753825D01*
X218488491Y-143591310D01*
X218218238Y-143479368D01*
X217931340Y-143422300D01*
X217638820Y-143422300D01*
X217351922Y-143479368D01*
X217081669Y-143591310D01*
X216838448Y-143753825D01*
X216631605Y-143960668D01*
X216515080Y-144135060D01*
X216398555Y-143960668D01*
X216191712Y-143753825D01*
X215948491Y-143591310D01*
X215678238Y-143479368D01*
X215391340Y-143422300D01*
X215098820Y-143422300D01*
X214811922Y-143479368D01*
X214541669Y-143591310D01*
X214298448Y-143753825D01*
X214091605Y-143960668D01*
X213975080Y-144135060D01*
X213858555Y-143960668D01*
X213651712Y-143753825D01*
X213408491Y-143591310D01*
X213138238Y-143479368D01*
X212851340Y-143422300D01*
X212558820Y-143422300D01*
X212271922Y-143479368D01*
X212001669Y-143591310D01*
X211758448Y-143753825D01*
X211626593Y-143885680D01*
X211604582Y-143813120D01*
X211545617Y-143702806D01*
X211466265Y-143606115D01*
X211369574Y-143526763D01*
X211259260Y-143467798D01*
X211139562Y-143431488D01*
X211015080Y-143419228D01*
X209315080Y-143419228D01*
X209190598Y-143431488D01*
X209070900Y-143467798D01*
X208960586Y-143526763D01*
X208863895Y-143606115D01*
X208784543Y-143702806D01*
X208725578Y-143813120D01*
X208689268Y-143932818D01*
X208677008Y-144057300D01*
X206072389Y-144057300D01*
X205630839Y-143615750D01*
X205085925Y-143251651D01*
X204480450Y-143000855D01*
X203837681Y-142873000D01*
X203182319Y-142873000D01*
X202539550Y-143000855D01*
X201934075Y-143251651D01*
X201389161Y-143615750D01*
X200925750Y-144079161D01*
X200745100Y-144349523D01*
X200745100Y-138589721D01*
X202575000Y-138589721D01*
X202575000Y-139010279D01*
X202657047Y-139422756D01*
X202817988Y-139811302D01*
X203051637Y-140160983D01*
X203349017Y-140458363D01*
X203698698Y-140692012D01*
X204087244Y-140852953D01*
X204499721Y-140935000D01*
X204920279Y-140935000D01*
X205332756Y-140852953D01*
X205721302Y-140692012D01*
X206070983Y-140458363D01*
X206368363Y-140160983D01*
X206602012Y-139811302D01*
X206762953Y-139422756D01*
X206845000Y-139010279D01*
X206845000Y-138589721D01*
X206762953Y-138177244D01*
X206602012Y-137788698D01*
X206368363Y-137439017D01*
X206070983Y-137141637D01*
X205721302Y-136907988D01*
X205332756Y-136747047D01*
X204920279Y-136665000D01*
X204499721Y-136665000D01*
X204087244Y-136747047D01*
X203698698Y-136907988D01*
X203349017Y-137141637D01*
X203051637Y-137439017D01*
X202817988Y-137788698D01*
X202657047Y-138177244D01*
X202575000Y-138589721D01*
X200745100Y-138589721D01*
X200745100Y-135211653D01*
X203397952Y-135211653D01*
X203553962Y-135527214D01*
X203928745Y-135718020D01*
X204333551Y-135832044D01*
X204752824Y-135864902D01*
X205170451Y-135815334D01*
X205570383Y-135685243D01*
X205866038Y-135527214D01*
X206022048Y-135211653D01*
X204710000Y-133899605D01*
X203397952Y-135211653D01*
X200745100Y-135211653D01*
X200745100Y-133762824D01*
X202565098Y-133762824D01*
X202614666Y-134180451D01*
X202744757Y-134580383D01*
X202902786Y-134876038D01*
X203218347Y-135032048D01*
X204530395Y-133720000D01*
X204889605Y-133720000D01*
X206201653Y-135032048D01*
X206517214Y-134876038D01*
X206708020Y-134501255D01*
X206822044Y-134096449D01*
X206854902Y-133677176D01*
X206805334Y-133259549D01*
X206675243Y-132859617D01*
X206517214Y-132563962D01*
X206201653Y-132407952D01*
X204889605Y-133720000D01*
X204530395Y-133720000D01*
X203218347Y-132407952D01*
X202902786Y-132563962D01*
X202711980Y-132938745D01*
X202597956Y-133343551D01*
X202565098Y-133762824D01*
X200745100Y-133762824D01*
X200745100Y-132228347D01*
X203397952Y-132228347D01*
X204710000Y-133540395D01*
X206022048Y-132228347D01*
X205866038Y-131912786D01*
X205491255Y-131721980D01*
X205086449Y-131607956D01*
X204667176Y-131575098D01*
X204249549Y-131624666D01*
X203849617Y-131754757D01*
X203553962Y-131912786D01*
X203397952Y-132228347D01*
X200745100Y-132228347D01*
X200745100Y-130131653D01*
X203397952Y-130131653D01*
X203553962Y-130447214D01*
X203928745Y-130638020D01*
X204333551Y-130752044D01*
X204752824Y-130784902D01*
X205170451Y-130735334D01*
X205570383Y-130605243D01*
X205866038Y-130447214D01*
X206022048Y-130131653D01*
X204710000Y-128819605D01*
X203397952Y-130131653D01*
X200745100Y-130131653D01*
X200745100Y-128682824D01*
X202565098Y-128682824D01*
X202614666Y-129100451D01*
X202744757Y-129500383D01*
X202902786Y-129796038D01*
X203218347Y-129952048D01*
X204530395Y-128640000D01*
X204889605Y-128640000D01*
X206201653Y-129952048D01*
X206517214Y-129796038D01*
X206708020Y-129421255D01*
X206822044Y-129016449D01*
X206854902Y-128597176D01*
X206805334Y-128179549D01*
X206675243Y-127779617D01*
X206517214Y-127483962D01*
X206201653Y-127327952D01*
X204889605Y-128640000D01*
X204530395Y-128640000D01*
X203218347Y-127327952D01*
X202902786Y-127483962D01*
X202711980Y-127858745D01*
X202597956Y-128263551D01*
X202565098Y-128682824D01*
X200745100Y-128682824D01*
X200745100Y-127148347D01*
X203397952Y-127148347D01*
X204710000Y-128460395D01*
X206022048Y-127148347D01*
X205866038Y-126832786D01*
X205491255Y-126641980D01*
X205086449Y-126527956D01*
X204667176Y-126495098D01*
X204249549Y-126544666D01*
X203849617Y-126674757D01*
X203553962Y-126832786D01*
X203397952Y-127148347D01*
X200745100Y-127148347D01*
X200745100Y-122060000D01*
X202571928Y-122060000D01*
X202571928Y-125060000D01*
X202584188Y-125184482D01*
X202620498Y-125304180D01*
X202679463Y-125414494D01*
X202758815Y-125511185D01*
X202855506Y-125590537D01*
X202965820Y-125649502D01*
X203085518Y-125685812D01*
X203210000Y-125698072D01*
X206210000Y-125698072D01*
X206334482Y-125685812D01*
X206454180Y-125649502D01*
X206564494Y-125590537D01*
X206661185Y-125511185D01*
X206740537Y-125414494D01*
X206799502Y-125304180D01*
X206835812Y-125184482D01*
X206848072Y-125060000D01*
X206848072Y-122060000D01*
X206835812Y-121935518D01*
X206799502Y-121815820D01*
X206740537Y-121705506D01*
X206661185Y-121608815D01*
X206564494Y-121529463D01*
X206454180Y-121470498D01*
X206334482Y-121434188D01*
X206210000Y-121421928D01*
X203210000Y-121421928D01*
X203085518Y-121434188D01*
X202965820Y-121470498D01*
X202855506Y-121529463D01*
X202758815Y-121608815D01*
X202679463Y-121705506D01*
X202620498Y-121815820D01*
X202584188Y-121935518D01*
X202571928Y-122060000D01*
X200745100Y-122060000D01*
X200745100Y-116668514D01*
X201765000Y-116668514D01*
X201765000Y-116931486D01*
X201816304Y-117189405D01*
X201916939Y-117432359D01*
X202063038Y-117651013D01*
X202248987Y-117836962D01*
X202467641Y-117983061D01*
X202710595Y-118083696D01*
X202968514Y-118135000D01*
X203231486Y-118135000D01*
X203489405Y-118083696D01*
X203732359Y-117983061D01*
X203951013Y-117836962D01*
X204034915Y-117753060D01*
X213688428Y-117753060D01*
X213688428Y-119453060D01*
X213700688Y-119577542D01*
X213736998Y-119697240D01*
X213795963Y-119807554D01*
X213875315Y-119904245D01*
X213972006Y-119983597D01*
X214082320Y-120042562D01*
X214154880Y-120064573D01*
X214023025Y-120196428D01*
X213860510Y-120439649D01*
X213748568Y-120709902D01*
X213691500Y-120996800D01*
X213691500Y-121289320D01*
X213748568Y-121576218D01*
X213860510Y-121846471D01*
X214023025Y-122089692D01*
X214229868Y-122296535D01*
X214473089Y-122459050D01*
X214743342Y-122570992D01*
X215030240Y-122628060D01*
X215322760Y-122628060D01*
X215609658Y-122570992D01*
X215879911Y-122459050D01*
X216123132Y-122296535D01*
X216329975Y-122089692D01*
X216492490Y-121846471D01*
X216604432Y-121576218D01*
X216661500Y-121289320D01*
X216661500Y-120996800D01*
X216604432Y-120709902D01*
X216492490Y-120439649D01*
X216329975Y-120196428D01*
X216198120Y-120064573D01*
X216270680Y-120042562D01*
X216380994Y-119983597D01*
X216477685Y-119904245D01*
X216557037Y-119807554D01*
X216616002Y-119697240D01*
X216652312Y-119577542D01*
X216664572Y-119453060D01*
X216664572Y-117753060D01*
X216652312Y-117628578D01*
X216616002Y-117508880D01*
X216557037Y-117398566D01*
X216477685Y-117301875D01*
X216380994Y-117222523D01*
X216270680Y-117163558D01*
X216150982Y-117127248D01*
X216026500Y-117114988D01*
X214326500Y-117114988D01*
X214202018Y-117127248D01*
X214082320Y-117163558D01*
X213972006Y-117222523D01*
X213875315Y-117301875D01*
X213795963Y-117398566D01*
X213736998Y-117508880D01*
X213700688Y-117628578D01*
X213688428Y-117753060D01*
X204034915Y-117753060D01*
X204136962Y-117651013D01*
X204283061Y-117432359D01*
X204383696Y-117189405D01*
X204435000Y-116931486D01*
X204435000Y-116668514D01*
X204426674Y-116626655D01*
X219740000Y-116626655D01*
X219740000Y-116973345D01*
X219807636Y-117313373D01*
X219940308Y-117633673D01*
X220132919Y-117921935D01*
X220378065Y-118167081D01*
X220666327Y-118359692D01*
X220986627Y-118492364D01*
X221326655Y-118560000D01*
X221673345Y-118560000D01*
X222013373Y-118492364D01*
X222333673Y-118359692D01*
X222621935Y-118167081D01*
X222867081Y-117921935D01*
X223059692Y-117633673D01*
X223192364Y-117313373D01*
X223260000Y-116973345D01*
X223260000Y-116626655D01*
X223192364Y-116286627D01*
X223059692Y-115966327D01*
X222867081Y-115678065D01*
X222621935Y-115432919D01*
X222333673Y-115240308D01*
X222013373Y-115107636D01*
X221673345Y-115040000D01*
X221326655Y-115040000D01*
X220986627Y-115107636D01*
X220666327Y-115240308D01*
X220378065Y-115432919D01*
X220132919Y-115678065D01*
X219940308Y-115966327D01*
X219807636Y-116286627D01*
X219740000Y-116626655D01*
X204426674Y-116626655D01*
X204383696Y-116410595D01*
X204283061Y-116167641D01*
X204136962Y-115948987D01*
X203951013Y-115763038D01*
X203732359Y-115616939D01*
X203489405Y-115516304D01*
X203231486Y-115465000D01*
X202968514Y-115465000D01*
X202710595Y-115516304D01*
X202467641Y-115616939D01*
X202248987Y-115763038D01*
X202063038Y-115948987D01*
X201916939Y-116167641D01*
X201816304Y-116410595D01*
X201765000Y-116668514D01*
X200745100Y-116668514D01*
X200745100Y-113565098D01*
X210715000Y-113565098D01*
X210715000Y-114034902D01*
X210806654Y-114495679D01*
X210986440Y-114929721D01*
X211247450Y-115320349D01*
X211579651Y-115652550D01*
X211970279Y-115913560D01*
X212404321Y-116093346D01*
X212865098Y-116185000D01*
X213334902Y-116185000D01*
X213795679Y-116093346D01*
X214229721Y-115913560D01*
X214620349Y-115652550D01*
X214952550Y-115320349D01*
X215213560Y-114929721D01*
X215393346Y-114495679D01*
X215485000Y-114034902D01*
X215485000Y-113565098D01*
X215393346Y-113104321D01*
X215213560Y-112670279D01*
X214952550Y-112279651D01*
X214620349Y-111947450D01*
X214229721Y-111686440D01*
X213795679Y-111506654D01*
X213334902Y-111415000D01*
X212865098Y-111415000D01*
X212404321Y-111506654D01*
X211970279Y-111686440D01*
X211579651Y-111947450D01*
X211247450Y-112279651D01*
X210986440Y-112670279D01*
X210806654Y-113104321D01*
X210715000Y-113565098D01*
X200745100Y-113565098D01*
X200745100Y-110550000D01*
X210711928Y-110550000D01*
X210724188Y-110674482D01*
X210760498Y-110794180D01*
X210819463Y-110904494D01*
X210898815Y-111001185D01*
X210995506Y-111080537D01*
X211105820Y-111139502D01*
X211225518Y-111175812D01*
X211350000Y-111188072D01*
X212814250Y-111185000D01*
X212973000Y-111026250D01*
X212973000Y-108927000D01*
X213227000Y-108927000D01*
X213227000Y-111026250D01*
X213385750Y-111185000D01*
X214850000Y-111188072D01*
X214974482Y-111175812D01*
X215094180Y-111139502D01*
X215204494Y-111080537D01*
X215301185Y-111001185D01*
X215380537Y-110904494D01*
X215439502Y-110794180D01*
X215475812Y-110674482D01*
X215488072Y-110550000D01*
X215485000Y-109085750D01*
X215326250Y-108927000D01*
X213227000Y-108927000D01*
X212973000Y-108927000D01*
X210873750Y-108927000D01*
X210715000Y-109085750D01*
X210711928Y-110550000D01*
X200745100Y-110550000D01*
X200745100Y-105668514D01*
X201765000Y-105668514D01*
X201765000Y-105931486D01*
X201816304Y-106189405D01*
X201916939Y-106432359D01*
X202063038Y-106651013D01*
X202248987Y-106836962D01*
X202467641Y-106983061D01*
X202710595Y-107083696D01*
X202968514Y-107135000D01*
X203231486Y-107135000D01*
X203489405Y-107083696D01*
X203570754Y-107050000D01*
X210711928Y-107050000D01*
X210715000Y-108514250D01*
X210873750Y-108673000D01*
X212973000Y-108673000D01*
X212973000Y-106573750D01*
X213227000Y-106573750D01*
X213227000Y-108673000D01*
X215326250Y-108673000D01*
X215485000Y-108514250D01*
X215488072Y-107050000D01*
X215475812Y-106925518D01*
X215439502Y-106805820D01*
X215380537Y-106695506D01*
X215301185Y-106598815D01*
X215204494Y-106519463D01*
X215094180Y-106460498D01*
X214974482Y-106424188D01*
X214850000Y-106411928D01*
X213385750Y-106415000D01*
X213227000Y-106573750D01*
X212973000Y-106573750D01*
X212814250Y-106415000D01*
X211350000Y-106411928D01*
X211225518Y-106424188D01*
X211105820Y-106460498D01*
X210995506Y-106519463D01*
X210898815Y-106598815D01*
X210819463Y-106695506D01*
X210760498Y-106805820D01*
X210724188Y-106925518D01*
X210711928Y-107050000D01*
X203570754Y-107050000D01*
X203732359Y-106983061D01*
X203951013Y-106836962D01*
X204136962Y-106651013D01*
X204283061Y-106432359D01*
X204383696Y-106189405D01*
X204435000Y-105931486D01*
X204435000Y-105668514D01*
X204383696Y-105410595D01*
X204283061Y-105167641D01*
X204136962Y-104948987D01*
X203951013Y-104763038D01*
X203732359Y-104616939D01*
X203489405Y-104516304D01*
X203231486Y-104465000D01*
X202968514Y-104465000D01*
X202710595Y-104516304D01*
X202467641Y-104616939D01*
X202248987Y-104763038D01*
X202063038Y-104948987D01*
X201916939Y-105167641D01*
X201816304Y-105410595D01*
X201765000Y-105668514D01*
X200745100Y-105668514D01*
X200745100Y-96727434D01*
X200791692Y-96252244D01*
X200919261Y-95829718D01*
X201126467Y-95440018D01*
X201405422Y-95097987D01*
X201745496Y-94816653D01*
X202133741Y-94606729D01*
X202555362Y-94476215D01*
X203028370Y-94426500D01*
X206464486Y-94426500D01*
X206267167Y-94531969D01*
G37*
G04 #@! TD.AperFunction*
M02*
