G04 #@! TF.GenerationSoftware,KiCad,Pcbnew,(5.1.5)-3*
G04 #@! TF.CreationDate,2020-09-22T10:03:05+02:00*
G04 #@! TF.ProjectId,alim_hat,616c696d-5f68-4617-942e-6b696361645f,rev?*
G04 #@! TF.SameCoordinates,Original*
G04 #@! TF.FileFunction,Legend,Bot*
G04 #@! TF.FilePolarity,Positive*
%FSLAX46Y46*%
G04 Gerber Fmt 4.6, Leading zero omitted, Abs format (unit mm)*
G04 Created by KiCad (PCBNEW (5.1.5)-3) date 2020-09-22 10:03:05*
%MOMM*%
%LPD*%
G04 APERTURE LIST*
%ADD10C,0.120000*%
%ADD11C,0.200000*%
%ADD12C,0.150000*%
%ADD13C,0.254000*%
G04 APERTURE END LIST*
D10*
X270290000Y-135247936D02*
X270290000Y-139352064D01*
X266870000Y-135247936D02*
X266870000Y-139352064D01*
X270290000Y-123817936D02*
X270290000Y-127922064D01*
X266870000Y-123817936D02*
X266870000Y-127922064D01*
X270290000Y-111117936D02*
X270290000Y-115222064D01*
X266870000Y-111117936D02*
X266870000Y-115222064D01*
X270279840Y-100350876D02*
X270279840Y-104455004D01*
X266859840Y-100350876D02*
X266859840Y-104455004D01*
D11*
X256494000Y-142046000D02*
X256494000Y-137126000D01*
X256240000Y-130616000D02*
X256240000Y-125696000D01*
X256388000Y-117916000D02*
X256388000Y-112996000D01*
X256388000Y-107756000D02*
X256388000Y-102836000D01*
D10*
X207052000Y-94568000D02*
X207052000Y-97168000D01*
X207052000Y-94568000D02*
X257972000Y-94568000D01*
X257972000Y-94568000D02*
X257972000Y-99768000D01*
X209652000Y-99768000D02*
X257972000Y-99768000D01*
X209652000Y-97168000D02*
X209652000Y-99768000D01*
X207052000Y-97168000D02*
X209652000Y-97168000D01*
X207052000Y-99768000D02*
X208382000Y-99768000D01*
X207052000Y-98438000D02*
X207052000Y-99768000D01*
X208835080Y-143577300D02*
X208835080Y-144907300D01*
X210165080Y-143577300D02*
X208835080Y-143577300D01*
X208835080Y-146177300D02*
X208835080Y-148777300D01*
X211435080Y-146177300D02*
X208835080Y-146177300D01*
X211435080Y-143577300D02*
X211435080Y-146177300D01*
X208835080Y-148777300D02*
X219115080Y-148777300D01*
X211435080Y-143577300D02*
X219115080Y-143577300D01*
X219115080Y-143577300D02*
X219115080Y-148777300D01*
D12*
X266412380Y-137133333D02*
X265936190Y-136800000D01*
X266412380Y-136561904D02*
X265412380Y-136561904D01*
X265412380Y-136942857D01*
X265460000Y-137038095D01*
X265507619Y-137085714D01*
X265602857Y-137133333D01*
X265745714Y-137133333D01*
X265840952Y-137085714D01*
X265888571Y-137038095D01*
X265936190Y-136942857D01*
X265936190Y-136561904D01*
X265745714Y-137990476D02*
X266412380Y-137990476D01*
X265364761Y-137752380D02*
X266079047Y-137514285D01*
X266079047Y-138133333D01*
X266412380Y-125703333D02*
X265936190Y-125370000D01*
X266412380Y-125131904D02*
X265412380Y-125131904D01*
X265412380Y-125512857D01*
X265460000Y-125608095D01*
X265507619Y-125655714D01*
X265602857Y-125703333D01*
X265745714Y-125703333D01*
X265840952Y-125655714D01*
X265888571Y-125608095D01*
X265936190Y-125512857D01*
X265936190Y-125131904D01*
X265412380Y-126036666D02*
X265412380Y-126655714D01*
X265793333Y-126322380D01*
X265793333Y-126465238D01*
X265840952Y-126560476D01*
X265888571Y-126608095D01*
X265983809Y-126655714D01*
X266221904Y-126655714D01*
X266317142Y-126608095D01*
X266364761Y-126560476D01*
X266412380Y-126465238D01*
X266412380Y-126179523D01*
X266364761Y-126084285D01*
X266317142Y-126036666D01*
X266412380Y-113003333D02*
X265936190Y-112670000D01*
X266412380Y-112431904D02*
X265412380Y-112431904D01*
X265412380Y-112812857D01*
X265460000Y-112908095D01*
X265507619Y-112955714D01*
X265602857Y-113003333D01*
X265745714Y-113003333D01*
X265840952Y-112955714D01*
X265888571Y-112908095D01*
X265936190Y-112812857D01*
X265936190Y-112431904D01*
X265507619Y-113384285D02*
X265460000Y-113431904D01*
X265412380Y-113527142D01*
X265412380Y-113765238D01*
X265460000Y-113860476D01*
X265507619Y-113908095D01*
X265602857Y-113955714D01*
X265698095Y-113955714D01*
X265840952Y-113908095D01*
X266412380Y-113336666D01*
X266412380Y-113955714D01*
X266402220Y-102236273D02*
X265926030Y-101902940D01*
X266402220Y-101664844D02*
X265402220Y-101664844D01*
X265402220Y-102045797D01*
X265449840Y-102141035D01*
X265497459Y-102188654D01*
X265592697Y-102236273D01*
X265735554Y-102236273D01*
X265830792Y-102188654D01*
X265878411Y-102141035D01*
X265926030Y-102045797D01*
X265926030Y-101664844D01*
X266402220Y-103188654D02*
X266402220Y-102617225D01*
X266402220Y-102902940D02*
X265402220Y-102902940D01*
X265545078Y-102807701D01*
X265640316Y-102712463D01*
X265687935Y-102617225D01*
D13*
X256917333Y-135685285D02*
X257340666Y-135685285D01*
X257340666Y-136350523D02*
X257340666Y-135080523D01*
X256735904Y-135080523D01*
X255647333Y-135080523D02*
X256252095Y-135080523D01*
X256312571Y-135685285D01*
X256252095Y-135624809D01*
X256131142Y-135564333D01*
X255828761Y-135564333D01*
X255707809Y-135624809D01*
X255647333Y-135685285D01*
X255586857Y-135806238D01*
X255586857Y-136108619D01*
X255647333Y-136229571D01*
X255707809Y-136290047D01*
X255828761Y-136350523D01*
X256131142Y-136350523D01*
X256252095Y-136290047D01*
X256312571Y-136229571D01*
X256663333Y-124255285D02*
X257086666Y-124255285D01*
X257086666Y-124920523D02*
X257086666Y-123650523D01*
X256481904Y-123650523D01*
X255453809Y-124073857D02*
X255453809Y-124920523D01*
X255756190Y-123590047D02*
X256058571Y-124497190D01*
X255272380Y-124497190D01*
X256811333Y-111555285D02*
X257234666Y-111555285D01*
X257234666Y-112220523D02*
X257234666Y-110950523D01*
X256629904Y-110950523D01*
X256267047Y-110950523D02*
X255480857Y-110950523D01*
X255904190Y-111434333D01*
X255722761Y-111434333D01*
X255601809Y-111494809D01*
X255541333Y-111555285D01*
X255480857Y-111676238D01*
X255480857Y-111978619D01*
X255541333Y-112099571D01*
X255601809Y-112160047D01*
X255722761Y-112220523D01*
X256085619Y-112220523D01*
X256206571Y-112160047D01*
X256267047Y-112099571D01*
X256811333Y-101395285D02*
X257234666Y-101395285D01*
X257234666Y-102060523D02*
X257234666Y-100790523D01*
X256629904Y-100790523D01*
X256206571Y-100911476D02*
X256146095Y-100851000D01*
X256025142Y-100790523D01*
X255722761Y-100790523D01*
X255601809Y-100851000D01*
X255541333Y-100911476D01*
X255480857Y-101032428D01*
X255480857Y-101153380D01*
X255541333Y-101334809D01*
X256267047Y-102060523D01*
X255480857Y-102060523D01*
D12*
X207608095Y-101098380D02*
X207608095Y-100098380D01*
X207227142Y-100098380D01*
X207131904Y-100146000D01*
X207084285Y-100193619D01*
X207036666Y-100288857D01*
X207036666Y-100431714D01*
X207084285Y-100526952D01*
X207131904Y-100574571D01*
X207227142Y-100622190D01*
X207608095Y-100622190D01*
X206084285Y-101098380D02*
X206655714Y-101098380D01*
X206370000Y-101098380D02*
X206370000Y-100098380D01*
X206465238Y-100241238D01*
X206560476Y-100336476D01*
X206655714Y-100384095D01*
X207287460Y-145843966D02*
X208001746Y-145843966D01*
X208144603Y-145796347D01*
X208239841Y-145701109D01*
X208287460Y-145558252D01*
X208287460Y-145463014D01*
X207287460Y-146224919D02*
X207287460Y-146843966D01*
X207668413Y-146510633D01*
X207668413Y-146653490D01*
X207716032Y-146748728D01*
X207763651Y-146796347D01*
X207858889Y-146843966D01*
X208096984Y-146843966D01*
X208192222Y-146796347D01*
X208239841Y-146748728D01*
X208287460Y-146653490D01*
X208287460Y-146367776D01*
X208239841Y-146272538D01*
X208192222Y-146224919D01*
M02*
