G04 #@! TF.GenerationSoftware,KiCad,Pcbnew,(5.1.5)-3*
G04 #@! TF.CreationDate,2020-10-30T14:06:26+01:00*
G04 #@! TF.ProjectId,alim_hat,616c696d-5f68-4617-942e-6b696361645f,rev?*
G04 #@! TF.SameCoordinates,Original*
G04 #@! TF.FileFunction,Legend,Top*
G04 #@! TF.FilePolarity,Positive*
%FSLAX46Y46*%
G04 Gerber Fmt 4.6, Leading zero omitted, Abs format (unit mm)*
G04 Created by KiCad (PCBNEW (5.1.5)-3) date 2020-10-30 14:06:26*
%MOMM*%
%LPD*%
G04 APERTURE LIST*
%ADD10C,0.150000*%
%ADD11C,0.120000*%
%ADD12C,0.200000*%
%ADD13C,0.100000*%
%ADD14C,0.254000*%
G04 APERTURE END LIST*
D10*
X210727940Y-122625469D02*
X210727940Y-122434993D01*
X210775560Y-122339755D01*
X210870798Y-122244517D01*
X211061274Y-122196898D01*
X211394607Y-122196898D01*
X211585083Y-122244517D01*
X211680321Y-122339755D01*
X211727940Y-122434993D01*
X211727940Y-122625469D01*
X211680321Y-122720707D01*
X211585083Y-122815945D01*
X211394607Y-122863564D01*
X211061274Y-122863564D01*
X210870798Y-122815945D01*
X210775560Y-122720707D01*
X210727940Y-122625469D01*
X211727940Y-121768326D02*
X210727940Y-121768326D01*
X211727940Y-121196898D01*
X210727940Y-121196898D01*
X210680321Y-120006421D02*
X211966036Y-120863564D01*
X210727940Y-119482612D02*
X210727940Y-119292136D01*
X210775560Y-119196898D01*
X210870798Y-119101660D01*
X211061274Y-119054040D01*
X211394607Y-119054040D01*
X211585083Y-119101660D01*
X211680321Y-119196898D01*
X211727940Y-119292136D01*
X211727940Y-119482612D01*
X211680321Y-119577850D01*
X211585083Y-119673088D01*
X211394607Y-119720707D01*
X211061274Y-119720707D01*
X210870798Y-119673088D01*
X210775560Y-119577850D01*
X210727940Y-119482612D01*
X211204131Y-118292136D02*
X211204131Y-118625469D01*
X211727940Y-118625469D02*
X210727940Y-118625469D01*
X210727940Y-118149279D01*
X211204131Y-117434993D02*
X211204131Y-117768326D01*
X211727940Y-117768326D02*
X210727940Y-117768326D01*
X210727940Y-117292136D01*
X212377940Y-120292136D02*
X212377940Y-120768326D01*
X212854131Y-120815945D01*
X212806512Y-120768326D01*
X212758893Y-120673088D01*
X212758893Y-120434993D01*
X212806512Y-120339755D01*
X212854131Y-120292136D01*
X212949369Y-120244517D01*
X213187464Y-120244517D01*
X213282702Y-120292136D01*
X213330321Y-120339755D01*
X213377940Y-120434993D01*
X213377940Y-120673088D01*
X213330321Y-120768326D01*
X213282702Y-120815945D01*
X212377940Y-119958802D02*
X213377940Y-119625469D01*
X212377940Y-119292136D01*
X210435032Y-139121440D02*
X209863603Y-139121440D01*
X210149318Y-139121440D02*
X210149318Y-138121440D01*
X210054080Y-138264298D01*
X209958841Y-138359536D01*
X209863603Y-138407155D01*
X210815984Y-138216679D02*
X210863603Y-138169060D01*
X210958841Y-138121440D01*
X211196937Y-138121440D01*
X211292175Y-138169060D01*
X211339794Y-138216679D01*
X211387413Y-138311917D01*
X211387413Y-138407155D01*
X211339794Y-138550012D01*
X210768365Y-139121440D01*
X211387413Y-139121440D01*
X211673127Y-138121440D02*
X212006460Y-139121440D01*
X212339794Y-138121440D01*
X210320115Y-133378620D02*
X210224877Y-133331000D01*
X210082020Y-133331000D01*
X209939162Y-133378620D01*
X209843924Y-133473858D01*
X209796305Y-133569096D01*
X209748686Y-133759572D01*
X209748686Y-133902429D01*
X209796305Y-134092905D01*
X209843924Y-134188143D01*
X209939162Y-134283381D01*
X210082020Y-134331000D01*
X210177258Y-134331000D01*
X210320115Y-134283381D01*
X210367734Y-134235762D01*
X210367734Y-133902429D01*
X210177258Y-133902429D01*
X210796305Y-134331000D02*
X210796305Y-133331000D01*
X211367734Y-134331000D01*
X211367734Y-133331000D01*
X211843924Y-134331000D02*
X211843924Y-133331000D01*
X212082020Y-133331000D01*
X212224877Y-133378620D01*
X212320115Y-133473858D01*
X212367734Y-133569096D01*
X212415353Y-133759572D01*
X212415353Y-133902429D01*
X212367734Y-134092905D01*
X212320115Y-134188143D01*
X212224877Y-134283381D01*
X212082020Y-134331000D01*
X211843924Y-134331000D01*
X210264235Y-128298620D02*
X210168997Y-128251000D01*
X210026140Y-128251000D01*
X209883282Y-128298620D01*
X209788044Y-128393858D01*
X209740425Y-128489096D01*
X209692806Y-128679572D01*
X209692806Y-128822429D01*
X209740425Y-129012905D01*
X209788044Y-129108143D01*
X209883282Y-129203381D01*
X210026140Y-129251000D01*
X210121378Y-129251000D01*
X210264235Y-129203381D01*
X210311854Y-129155762D01*
X210311854Y-128822429D01*
X210121378Y-128822429D01*
X210740425Y-129251000D02*
X210740425Y-128251000D01*
X211311854Y-129251000D01*
X211311854Y-128251000D01*
X211788044Y-129251000D02*
X211788044Y-128251000D01*
X212026140Y-128251000D01*
X212168997Y-128298620D01*
X212264235Y-128393858D01*
X212311854Y-128489096D01*
X212359473Y-128679572D01*
X212359473Y-128822429D01*
X212311854Y-129012905D01*
X212264235Y-129108143D01*
X212168997Y-129203381D01*
X212026140Y-129251000D01*
X211788044Y-129251000D01*
X209542946Y-123219260D02*
X209876280Y-124219260D01*
X210209613Y-123219260D01*
X211114375Y-124124022D02*
X211066756Y-124171641D01*
X210923899Y-124219260D01*
X210828660Y-124219260D01*
X210685803Y-124171641D01*
X210590565Y-124076403D01*
X210542946Y-123981165D01*
X210495327Y-123790689D01*
X210495327Y-123647832D01*
X210542946Y-123457356D01*
X210590565Y-123362118D01*
X210685803Y-123266880D01*
X210828660Y-123219260D01*
X210923899Y-123219260D01*
X211066756Y-123266880D01*
X211114375Y-123314499D01*
X212114375Y-124124022D02*
X212066756Y-124171641D01*
X211923899Y-124219260D01*
X211828660Y-124219260D01*
X211685803Y-124171641D01*
X211590565Y-124076403D01*
X211542946Y-123981165D01*
X211495327Y-123790689D01*
X211495327Y-123647832D01*
X211542946Y-123457356D01*
X211590565Y-123362118D01*
X211685803Y-123266880D01*
X211828660Y-123219260D01*
X211923899Y-123219260D01*
X212066756Y-123266880D01*
X212114375Y-123314499D01*
X246492380Y-108023809D02*
X246492380Y-107833333D01*
X246540000Y-107738095D01*
X246635238Y-107642857D01*
X246825714Y-107595238D01*
X247159047Y-107595238D01*
X247349523Y-107642857D01*
X247444761Y-107738095D01*
X247492380Y-107833333D01*
X247492380Y-108023809D01*
X247444761Y-108119047D01*
X247349523Y-108214285D01*
X247159047Y-108261904D01*
X246825714Y-108261904D01*
X246635238Y-108214285D01*
X246540000Y-108119047D01*
X246492380Y-108023809D01*
X247492380Y-107166666D02*
X246492380Y-107166666D01*
X247492380Y-106595238D01*
X246492380Y-106595238D01*
X246444761Y-105404761D02*
X247730476Y-106261904D01*
X246492380Y-104880952D02*
X246492380Y-104690476D01*
X246540000Y-104595238D01*
X246635238Y-104500000D01*
X246825714Y-104452380D01*
X247159047Y-104452380D01*
X247349523Y-104500000D01*
X247444761Y-104595238D01*
X247492380Y-104690476D01*
X247492380Y-104880952D01*
X247444761Y-104976190D01*
X247349523Y-105071428D01*
X247159047Y-105119047D01*
X246825714Y-105119047D01*
X246635238Y-105071428D01*
X246540000Y-104976190D01*
X246492380Y-104880952D01*
X246968571Y-103690476D02*
X246968571Y-104023809D01*
X247492380Y-104023809D02*
X246492380Y-104023809D01*
X246492380Y-103547619D01*
X246968571Y-102833333D02*
X246968571Y-103166666D01*
X247492380Y-103166666D02*
X246492380Y-103166666D01*
X246492380Y-102690476D01*
X246482380Y-118083809D02*
X246482380Y-117893333D01*
X246530000Y-117798095D01*
X246625238Y-117702857D01*
X246815714Y-117655238D01*
X247149047Y-117655238D01*
X247339523Y-117702857D01*
X247434761Y-117798095D01*
X247482380Y-117893333D01*
X247482380Y-118083809D01*
X247434761Y-118179047D01*
X247339523Y-118274285D01*
X247149047Y-118321904D01*
X246815714Y-118321904D01*
X246625238Y-118274285D01*
X246530000Y-118179047D01*
X246482380Y-118083809D01*
X247482380Y-117226666D02*
X246482380Y-117226666D01*
X247482380Y-116655238D01*
X246482380Y-116655238D01*
X246434761Y-115464761D02*
X247720476Y-116321904D01*
X246482380Y-114940952D02*
X246482380Y-114750476D01*
X246530000Y-114655238D01*
X246625238Y-114560000D01*
X246815714Y-114512380D01*
X247149047Y-114512380D01*
X247339523Y-114560000D01*
X247434761Y-114655238D01*
X247482380Y-114750476D01*
X247482380Y-114940952D01*
X247434761Y-115036190D01*
X247339523Y-115131428D01*
X247149047Y-115179047D01*
X246815714Y-115179047D01*
X246625238Y-115131428D01*
X246530000Y-115036190D01*
X246482380Y-114940952D01*
X246958571Y-113750476D02*
X246958571Y-114083809D01*
X247482380Y-114083809D02*
X246482380Y-114083809D01*
X246482380Y-113607619D01*
X246958571Y-112893333D02*
X246958571Y-113226666D01*
X247482380Y-113226666D02*
X246482380Y-113226666D01*
X246482380Y-112750476D01*
X246532380Y-130963809D02*
X246532380Y-130773333D01*
X246580000Y-130678095D01*
X246675238Y-130582857D01*
X246865714Y-130535238D01*
X247199047Y-130535238D01*
X247389523Y-130582857D01*
X247484761Y-130678095D01*
X247532380Y-130773333D01*
X247532380Y-130963809D01*
X247484761Y-131059047D01*
X247389523Y-131154285D01*
X247199047Y-131201904D01*
X246865714Y-131201904D01*
X246675238Y-131154285D01*
X246580000Y-131059047D01*
X246532380Y-130963809D01*
X247532380Y-130106666D02*
X246532380Y-130106666D01*
X247532380Y-129535238D01*
X246532380Y-129535238D01*
X246484761Y-128344761D02*
X247770476Y-129201904D01*
X246532380Y-127820952D02*
X246532380Y-127630476D01*
X246580000Y-127535238D01*
X246675238Y-127440000D01*
X246865714Y-127392380D01*
X247199047Y-127392380D01*
X247389523Y-127440000D01*
X247484761Y-127535238D01*
X247532380Y-127630476D01*
X247532380Y-127820952D01*
X247484761Y-127916190D01*
X247389523Y-128011428D01*
X247199047Y-128059047D01*
X246865714Y-128059047D01*
X246675238Y-128011428D01*
X246580000Y-127916190D01*
X246532380Y-127820952D01*
X247008571Y-126630476D02*
X247008571Y-126963809D01*
X247532380Y-126963809D02*
X246532380Y-126963809D01*
X246532380Y-126487619D01*
X247008571Y-125773333D02*
X247008571Y-126106666D01*
X247532380Y-126106666D02*
X246532380Y-126106666D01*
X246532380Y-125630476D01*
X246502380Y-142323809D02*
X246502380Y-142133333D01*
X246550000Y-142038095D01*
X246645238Y-141942857D01*
X246835714Y-141895238D01*
X247169047Y-141895238D01*
X247359523Y-141942857D01*
X247454761Y-142038095D01*
X247502380Y-142133333D01*
X247502380Y-142323809D01*
X247454761Y-142419047D01*
X247359523Y-142514285D01*
X247169047Y-142561904D01*
X246835714Y-142561904D01*
X246645238Y-142514285D01*
X246550000Y-142419047D01*
X246502380Y-142323809D01*
X247502380Y-141466666D02*
X246502380Y-141466666D01*
X247502380Y-140895238D01*
X246502380Y-140895238D01*
X246454761Y-139704761D02*
X247740476Y-140561904D01*
X246502380Y-139180952D02*
X246502380Y-138990476D01*
X246550000Y-138895238D01*
X246645238Y-138800000D01*
X246835714Y-138752380D01*
X247169047Y-138752380D01*
X247359523Y-138800000D01*
X247454761Y-138895238D01*
X247502380Y-138990476D01*
X247502380Y-139180952D01*
X247454761Y-139276190D01*
X247359523Y-139371428D01*
X247169047Y-139419047D01*
X246835714Y-139419047D01*
X246645238Y-139371428D01*
X246550000Y-139276190D01*
X246502380Y-139180952D01*
X246978571Y-137990476D02*
X246978571Y-138323809D01*
X247502380Y-138323809D02*
X246502380Y-138323809D01*
X246502380Y-137847619D01*
X246978571Y-137133333D02*
X246978571Y-137466666D01*
X247502380Y-137466666D02*
X246502380Y-137466666D01*
X246502380Y-136990476D01*
D11*
X256173748Y-136120000D02*
X258946252Y-136120000D01*
X256173748Y-132700000D02*
X258946252Y-132700000D01*
X258833748Y-124910000D02*
X261606252Y-124910000D01*
X258833748Y-121490000D02*
X261606252Y-121490000D01*
X258913748Y-113680000D02*
X261686252Y-113680000D01*
X258913748Y-110260000D02*
X261686252Y-110260000D01*
X255863748Y-104750000D02*
X258636252Y-104750000D01*
X255863748Y-101330000D02*
X258636252Y-101330000D01*
X266040000Y-125850000D02*
X262590000Y-125850000D01*
X266040000Y-125850000D02*
X267990000Y-125850000D01*
X266040000Y-130970000D02*
X264090000Y-130970000D01*
X266040000Y-130970000D02*
X267990000Y-130970000D01*
X250740000Y-113110000D02*
X252070000Y-113110000D01*
X250740000Y-114440000D02*
X250740000Y-113110000D01*
X250740000Y-115710000D02*
X253400000Y-115710000D01*
X253400000Y-115710000D02*
X253400000Y-118310000D01*
X250740000Y-115710000D02*
X250740000Y-118310000D01*
X250740000Y-118310000D02*
X253400000Y-118310000D01*
X250740000Y-137240000D02*
X252070000Y-137240000D01*
X250740000Y-138570000D02*
X250740000Y-137240000D01*
X250740000Y-139840000D02*
X253400000Y-139840000D01*
X253400000Y-139840000D02*
X253400000Y-142440000D01*
X250740000Y-139840000D02*
X250740000Y-142440000D01*
X250740000Y-142440000D02*
X253400000Y-142440000D01*
X250740000Y-125810000D02*
X252070000Y-125810000D01*
X250740000Y-127140000D02*
X250740000Y-125810000D01*
X250740000Y-128410000D02*
X253400000Y-128410000D01*
X253400000Y-128410000D02*
X253400000Y-131010000D01*
X250740000Y-128410000D02*
X250740000Y-131010000D01*
X250740000Y-131010000D02*
X253400000Y-131010000D01*
X250740000Y-102950000D02*
X252070000Y-102950000D01*
X250740000Y-104280000D02*
X250740000Y-102950000D01*
X250740000Y-105550000D02*
X253400000Y-105550000D01*
X253400000Y-105550000D02*
X253400000Y-108150000D01*
X250740000Y-105550000D02*
X250740000Y-108150000D01*
X250740000Y-108150000D02*
X253400000Y-108150000D01*
X234450000Y-146890000D02*
X233350000Y-146890000D01*
X234450000Y-148700000D02*
X234450000Y-146890000D01*
X235950000Y-148700000D02*
X234450000Y-148700000D01*
X234450000Y-140110000D02*
X229325000Y-140110000D01*
X234450000Y-138300000D02*
X234450000Y-140110000D01*
X235950000Y-138300000D02*
X234450000Y-138300000D01*
X222458578Y-143690000D02*
X221941422Y-143690000D01*
X222458578Y-145110000D02*
X221941422Y-145110000D01*
X223250000Y-141300000D02*
X219350000Y-141300000D01*
X223250000Y-139300000D02*
X219350000Y-139300000D01*
X223250000Y-141300000D02*
X223250000Y-139300000D01*
D12*
X219750000Y-136000000D02*
X224700000Y-136000000D01*
X216700000Y-129400000D02*
X224700000Y-129400000D01*
D11*
X225390000Y-141441422D02*
X225390000Y-141958578D01*
X226810000Y-141441422D02*
X226810000Y-141958578D01*
X201920200Y-105643580D02*
G75*
G02X204140200Y-105643580I1110000J0D01*
G01*
X204140200Y-116943580D02*
G75*
G02X201920200Y-116943580I-1110000J0D01*
G01*
X199820200Y-106233580D02*
X201920200Y-106233580D01*
X204140200Y-116943580D02*
X204140200Y-116353580D01*
X201920200Y-116943580D02*
X201920200Y-116353580D01*
X201920200Y-106233580D02*
X201920200Y-105643580D01*
X204140200Y-106233580D02*
X204140200Y-105643580D01*
X204140200Y-106233580D02*
X209040200Y-106233580D01*
X199820200Y-116353580D02*
X201920200Y-116353580D01*
X204140200Y-116353580D02*
X209040200Y-116353580D01*
X209040200Y-116353580D02*
X209040200Y-106233580D01*
X199820200Y-116353580D02*
X199820200Y-106233580D01*
X267357936Y-136300000D02*
X271462064Y-136300000D01*
X267357936Y-132880000D02*
X271462064Y-132880000D01*
X267297936Y-124690000D02*
X271402064Y-124690000D01*
X267297936Y-121270000D02*
X271402064Y-121270000D01*
X267267936Y-113450000D02*
X271372064Y-113450000D01*
X267267936Y-110030000D02*
X271372064Y-110030000D01*
X267307936Y-100380000D02*
X271412064Y-100380000D01*
X267307936Y-96960000D02*
X271412064Y-96960000D01*
X213846500Y-117273060D02*
X215176500Y-117273060D01*
X213846500Y-118603060D02*
X213846500Y-117273060D01*
X213846500Y-119873060D02*
X216506500Y-119873060D01*
X216506500Y-119873060D02*
X216506500Y-122473060D01*
X213846500Y-119873060D02*
X213846500Y-122473060D01*
X213846500Y-122473060D02*
X216506500Y-122473060D01*
D12*
X217200000Y-104000000D02*
X217200000Y-104000000D01*
X217300000Y-104000000D02*
X217300000Y-104000000D01*
X217200000Y-104000000D02*
X217200000Y-104000000D01*
D13*
X218960000Y-101560000D02*
X218960000Y-126960000D01*
X244360000Y-101560000D02*
X218960000Y-101560000D01*
X244360000Y-126960000D02*
X244360000Y-101560000D01*
X218960000Y-126960000D02*
X244360000Y-126960000D01*
D12*
X217100000Y-104000000D02*
G75*
G02X217200000Y-104000000I50000J0D01*
G01*
X217000000Y-104000000D02*
G75*
G02X217300000Y-104000000I150000J0D01*
G01*
X217100000Y-104000000D02*
G75*
G02X217200000Y-104000000I50000J0D01*
G01*
D11*
X259508578Y-137540000D02*
X258991422Y-137540000D01*
X259508578Y-138960000D02*
X258991422Y-138960000D01*
X258951422Y-142000000D02*
X259468578Y-142000000D01*
X258951422Y-140580000D02*
X259468578Y-140580000D01*
X259948578Y-127700000D02*
X259431422Y-127700000D01*
X259948578Y-129120000D02*
X259431422Y-129120000D01*
X259811422Y-131660000D02*
X260328578Y-131660000D01*
X259811422Y-130240000D02*
X260328578Y-130240000D01*
X257918578Y-115040000D02*
X257401422Y-115040000D01*
X257918578Y-116460000D02*
X257401422Y-116460000D01*
X257481422Y-118580000D02*
X257998578Y-118580000D01*
X257481422Y-117160000D02*
X257998578Y-117160000D01*
X258948578Y-105530000D02*
X258431422Y-105530000D01*
X258948578Y-106950000D02*
X258431422Y-106950000D01*
X258401422Y-109020000D02*
X258918578Y-109020000D01*
X258401422Y-107600000D02*
X258918578Y-107600000D01*
X248200000Y-113110000D02*
X249530000Y-113110000D01*
X248200000Y-114440000D02*
X248200000Y-113110000D01*
X248200000Y-115710000D02*
X250860000Y-115710000D01*
X250860000Y-115710000D02*
X250860000Y-118310000D01*
X248200000Y-115710000D02*
X248200000Y-118310000D01*
X248200000Y-118310000D02*
X250860000Y-118310000D01*
X248200000Y-137240000D02*
X249530000Y-137240000D01*
X248200000Y-138570000D02*
X248200000Y-137240000D01*
X248200000Y-139840000D02*
X250860000Y-139840000D01*
X250860000Y-139840000D02*
X250860000Y-142440000D01*
X248200000Y-139840000D02*
X248200000Y-142440000D01*
X248200000Y-142440000D02*
X250860000Y-142440000D01*
X248200000Y-125810000D02*
X249530000Y-125810000D01*
X248200000Y-127140000D02*
X248200000Y-125810000D01*
X248200000Y-128410000D02*
X250860000Y-128410000D01*
X250860000Y-128410000D02*
X250860000Y-131010000D01*
X248200000Y-128410000D02*
X248200000Y-131010000D01*
X248200000Y-131010000D02*
X250860000Y-131010000D01*
X248200000Y-102950000D02*
X249530000Y-102950000D01*
X248200000Y-104280000D02*
X248200000Y-102950000D01*
X248200000Y-105550000D02*
X250860000Y-105550000D01*
X250860000Y-105550000D02*
X250860000Y-108150000D01*
X248200000Y-105550000D02*
X248200000Y-108150000D01*
X248200000Y-108150000D02*
X250860000Y-108150000D01*
X274030000Y-145710000D02*
X274030000Y-143110000D01*
X288730000Y-145710000D02*
X274030000Y-145710000D01*
X274030000Y-136510000D02*
X275930000Y-136510000D01*
X274030000Y-139210000D02*
X274030000Y-136510000D01*
X288730000Y-136510000D02*
X288730000Y-145710000D01*
X279930000Y-136510000D02*
X288730000Y-136510000D01*
X274880000Y-145910000D02*
X273830000Y-145910000D01*
X273830000Y-144860000D02*
X273830000Y-145910000D01*
X274030000Y-120310000D02*
X274030000Y-117710000D01*
X288730000Y-120310000D02*
X274030000Y-120310000D01*
X274030000Y-111110000D02*
X275930000Y-111110000D01*
X274030000Y-113810000D02*
X274030000Y-111110000D01*
X288730000Y-111110000D02*
X288730000Y-120310000D01*
X279930000Y-111110000D02*
X288730000Y-111110000D01*
X274880000Y-120510000D02*
X273830000Y-120510000D01*
X273830000Y-119460000D02*
X273830000Y-120510000D01*
X274030000Y-133010000D02*
X274030000Y-130410000D01*
X288730000Y-133010000D02*
X274030000Y-133010000D01*
X274030000Y-123810000D02*
X275930000Y-123810000D01*
X274030000Y-126510000D02*
X274030000Y-123810000D01*
X288730000Y-123810000D02*
X288730000Y-133010000D01*
X279930000Y-123810000D02*
X288730000Y-123810000D01*
X274880000Y-133210000D02*
X273830000Y-133210000D01*
X273830000Y-132160000D02*
X273830000Y-133210000D01*
X274030000Y-107610000D02*
X274030000Y-105010000D01*
X288730000Y-107610000D02*
X274030000Y-107610000D01*
X274030000Y-98410000D02*
X275930000Y-98410000D01*
X274030000Y-101110000D02*
X274030000Y-98410000D01*
X288730000Y-98410000D02*
X288730000Y-107610000D01*
X279930000Y-98410000D02*
X288730000Y-98410000D01*
X274880000Y-107810000D02*
X273830000Y-107810000D01*
X273830000Y-106760000D02*
X273830000Y-107810000D01*
X266040000Y-137280000D02*
X262590000Y-137280000D01*
X266040000Y-137280000D02*
X267990000Y-137280000D01*
X266040000Y-142400000D02*
X264090000Y-142400000D01*
X266040000Y-142400000D02*
X267990000Y-142400000D01*
X264340000Y-114380000D02*
X260890000Y-114380000D01*
X264340000Y-114380000D02*
X266290000Y-114380000D01*
X264340000Y-119500000D02*
X262390000Y-119500000D01*
X264340000Y-119500000D02*
X266290000Y-119500000D01*
X267470000Y-103300000D02*
X264020000Y-103300000D01*
X267470000Y-103300000D02*
X269420000Y-103300000D01*
X267470000Y-108420000D02*
X265520000Y-108420000D01*
X267470000Y-108420000D02*
X269420000Y-108420000D01*
D12*
X233650000Y-129400000D02*
X228700000Y-129400000D01*
X236700000Y-136000000D02*
X228700000Y-136000000D01*
D11*
X200900000Y-121020000D02*
X200900000Y-141340000D01*
X208520000Y-121020000D02*
X208520000Y-141340000D01*
X202170000Y-141340000D02*
X202170000Y-121020000D01*
X200900000Y-141340000D02*
X208520000Y-141340000D01*
X208520000Y-121020000D02*
X200900000Y-121020000D01*
D10*
X255586666Y-131478571D02*
X255253333Y-131478571D01*
X255253333Y-132002380D02*
X255253333Y-131002380D01*
X255729523Y-131002380D01*
X256586666Y-131002380D02*
X256110476Y-131002380D01*
X256062857Y-131478571D01*
X256110476Y-131430952D01*
X256205714Y-131383333D01*
X256443809Y-131383333D01*
X256539047Y-131430952D01*
X256586666Y-131478571D01*
X256634285Y-131573809D01*
X256634285Y-131811904D01*
X256586666Y-131907142D01*
X256539047Y-131954761D01*
X256443809Y-132002380D01*
X256205714Y-132002380D01*
X256110476Y-131954761D01*
X256062857Y-131907142D01*
X259886666Y-120478571D02*
X259553333Y-120478571D01*
X259553333Y-121002380D02*
X259553333Y-120002380D01*
X260029523Y-120002380D01*
X260839047Y-120335714D02*
X260839047Y-121002380D01*
X260600952Y-119954761D02*
X260362857Y-120669047D01*
X260981904Y-120669047D01*
X264016666Y-113158571D02*
X263683333Y-113158571D01*
X263683333Y-113682380D02*
X263683333Y-112682380D01*
X264159523Y-112682380D01*
X264445238Y-112682380D02*
X265064285Y-112682380D01*
X264730952Y-113063333D01*
X264873809Y-113063333D01*
X264969047Y-113110952D01*
X265016666Y-113158571D01*
X265064285Y-113253809D01*
X265064285Y-113491904D01*
X265016666Y-113587142D01*
X264969047Y-113634761D01*
X264873809Y-113682380D01*
X264588095Y-113682380D01*
X264492857Y-113634761D01*
X264445238Y-113587142D01*
X256916666Y-100318571D02*
X256583333Y-100318571D01*
X256583333Y-100842380D02*
X256583333Y-99842380D01*
X257059523Y-99842380D01*
X257392857Y-99937619D02*
X257440476Y-99890000D01*
X257535714Y-99842380D01*
X257773809Y-99842380D01*
X257869047Y-99890000D01*
X257916666Y-99937619D01*
X257964285Y-100032857D01*
X257964285Y-100128095D01*
X257916666Y-100270952D01*
X257345238Y-100842380D01*
X257964285Y-100842380D01*
X263528095Y-124072380D02*
X263528095Y-124881904D01*
X263575714Y-124977142D01*
X263623333Y-125024761D01*
X263718571Y-125072380D01*
X263909047Y-125072380D01*
X264004285Y-125024761D01*
X264051904Y-124977142D01*
X264099523Y-124881904D01*
X264099523Y-124072380D01*
X264480476Y-124072380D02*
X265099523Y-124072380D01*
X264766190Y-124453333D01*
X264909047Y-124453333D01*
X265004285Y-124500952D01*
X265051904Y-124548571D01*
X265099523Y-124643809D01*
X265099523Y-124881904D01*
X265051904Y-124977142D01*
X265004285Y-125024761D01*
X264909047Y-125072380D01*
X264623333Y-125072380D01*
X264528095Y-125024761D01*
X264480476Y-124977142D01*
X251260476Y-111562380D02*
X251260476Y-112276666D01*
X251212857Y-112419523D01*
X251117619Y-112514761D01*
X250974761Y-112562380D01*
X250879523Y-112562380D01*
X252260476Y-112562380D02*
X251689047Y-112562380D01*
X251974761Y-112562380D02*
X251974761Y-111562380D01*
X251879523Y-111705238D01*
X251784285Y-111800476D01*
X251689047Y-111848095D01*
X253117619Y-111562380D02*
X252927142Y-111562380D01*
X252831904Y-111610000D01*
X252784285Y-111657619D01*
X252689047Y-111800476D01*
X252641428Y-111990952D01*
X252641428Y-112371904D01*
X252689047Y-112467142D01*
X252736666Y-112514761D01*
X252831904Y-112562380D01*
X253022380Y-112562380D01*
X253117619Y-112514761D01*
X253165238Y-112467142D01*
X253212857Y-112371904D01*
X253212857Y-112133809D01*
X253165238Y-112038571D01*
X253117619Y-111990952D01*
X253022380Y-111943333D01*
X252831904Y-111943333D01*
X252736666Y-111990952D01*
X252689047Y-112038571D01*
X252641428Y-112133809D01*
X251260476Y-135692380D02*
X251260476Y-136406666D01*
X251212857Y-136549523D01*
X251117619Y-136644761D01*
X250974761Y-136692380D01*
X250879523Y-136692380D01*
X252260476Y-136692380D02*
X251689047Y-136692380D01*
X251974761Y-136692380D02*
X251974761Y-135692380D01*
X251879523Y-135835238D01*
X251784285Y-135930476D01*
X251689047Y-135978095D01*
X253165238Y-135692380D02*
X252689047Y-135692380D01*
X252641428Y-136168571D01*
X252689047Y-136120952D01*
X252784285Y-136073333D01*
X253022380Y-136073333D01*
X253117619Y-136120952D01*
X253165238Y-136168571D01*
X253212857Y-136263809D01*
X253212857Y-136501904D01*
X253165238Y-136597142D01*
X253117619Y-136644761D01*
X253022380Y-136692380D01*
X252784285Y-136692380D01*
X252689047Y-136644761D01*
X252641428Y-136597142D01*
X251260476Y-124262380D02*
X251260476Y-124976666D01*
X251212857Y-125119523D01*
X251117619Y-125214761D01*
X250974761Y-125262380D01*
X250879523Y-125262380D01*
X252260476Y-125262380D02*
X251689047Y-125262380D01*
X251974761Y-125262380D02*
X251974761Y-124262380D01*
X251879523Y-124405238D01*
X251784285Y-124500476D01*
X251689047Y-124548095D01*
X253117619Y-124595714D02*
X253117619Y-125262380D01*
X252879523Y-124214761D02*
X252641428Y-124929047D01*
X253260476Y-124929047D01*
X251260476Y-101402380D02*
X251260476Y-102116666D01*
X251212857Y-102259523D01*
X251117619Y-102354761D01*
X250974761Y-102402380D01*
X250879523Y-102402380D01*
X252260476Y-102402380D02*
X251689047Y-102402380D01*
X251974761Y-102402380D02*
X251974761Y-101402380D01*
X251879523Y-101545238D01*
X251784285Y-101640476D01*
X251689047Y-101688095D01*
X252593809Y-101402380D02*
X253212857Y-101402380D01*
X252879523Y-101783333D01*
X253022380Y-101783333D01*
X253117619Y-101830952D01*
X253165238Y-101878571D01*
X253212857Y-101973809D01*
X253212857Y-102211904D01*
X253165238Y-102307142D01*
X253117619Y-102354761D01*
X253022380Y-102402380D01*
X252736666Y-102402380D01*
X252641428Y-102354761D01*
X252593809Y-102307142D01*
X242956261Y-136201559D02*
X242861023Y-136153940D01*
X242765785Y-136058701D01*
X242622928Y-135915844D01*
X242527690Y-135868225D01*
X242432452Y-135868225D01*
X242480071Y-136106320D02*
X242384833Y-136058701D01*
X242289595Y-135963463D01*
X242241976Y-135772987D01*
X242241976Y-135439654D01*
X242289595Y-135249178D01*
X242384833Y-135153940D01*
X242480071Y-135106320D01*
X242670547Y-135106320D01*
X242765785Y-135153940D01*
X242861023Y-135249178D01*
X242908642Y-135439654D01*
X242908642Y-135772987D01*
X242861023Y-135963463D01*
X242765785Y-136058701D01*
X242670547Y-136106320D01*
X242480071Y-136106320D01*
X243861023Y-136106320D02*
X243289595Y-136106320D01*
X243575309Y-136106320D02*
X243575309Y-135106320D01*
X243480071Y-135249178D01*
X243384833Y-135344416D01*
X243289595Y-135392035D01*
X221557142Y-146852380D02*
X221223809Y-146376190D01*
X220985714Y-146852380D02*
X220985714Y-145852380D01*
X221366666Y-145852380D01*
X221461904Y-145900000D01*
X221509523Y-145947619D01*
X221557142Y-146042857D01*
X221557142Y-146185714D01*
X221509523Y-146280952D01*
X221461904Y-146328571D01*
X221366666Y-146376190D01*
X220985714Y-146376190D01*
X222509523Y-146852380D02*
X221938095Y-146852380D01*
X222223809Y-146852380D02*
X222223809Y-145852380D01*
X222128571Y-145995238D01*
X222033333Y-146090476D01*
X221938095Y-146138095D01*
X223366666Y-146185714D02*
X223366666Y-146852380D01*
X223128571Y-145804761D02*
X222890476Y-146519047D01*
X223509523Y-146519047D01*
X220261904Y-142752380D02*
X220261904Y-141752380D01*
X220500000Y-141752380D01*
X220642857Y-141800000D01*
X220738095Y-141895238D01*
X220785714Y-141990476D01*
X220833333Y-142180952D01*
X220833333Y-142323809D01*
X220785714Y-142514285D01*
X220738095Y-142609523D01*
X220642857Y-142704761D01*
X220500000Y-142752380D01*
X220261904Y-142752380D01*
X221785714Y-142752380D02*
X221214285Y-142752380D01*
X221500000Y-142752380D02*
X221500000Y-141752380D01*
X221404761Y-141895238D01*
X221309523Y-141990476D01*
X221214285Y-142038095D01*
D14*
X220718333Y-128773571D02*
X220657857Y-128834047D01*
X220476428Y-128894523D01*
X220355476Y-128894523D01*
X220174047Y-128834047D01*
X220053095Y-128713095D01*
X219992619Y-128592142D01*
X219932142Y-128350238D01*
X219932142Y-128168809D01*
X219992619Y-127926904D01*
X220053095Y-127805952D01*
X220174047Y-127685000D01*
X220355476Y-127624523D01*
X220476428Y-127624523D01*
X220657857Y-127685000D01*
X220718333Y-127745476D01*
X221927857Y-128894523D02*
X221202142Y-128894523D01*
X221565000Y-128894523D02*
X221565000Y-127624523D01*
X221444047Y-127805952D01*
X221323095Y-127926904D01*
X221202142Y-127987380D01*
D10*
X265294356Y-147206260D02*
X265294356Y-146206260D01*
X265627689Y-146920546D01*
X265961022Y-146206260D01*
X265961022Y-147206260D01*
X266437213Y-147206260D02*
X266437213Y-146206260D01*
X267008641Y-147206260D02*
X266580070Y-146634832D01*
X267008641Y-146206260D02*
X266437213Y-146777689D01*
X267865784Y-146539594D02*
X267865784Y-147206260D01*
X267627689Y-146158641D02*
X267389594Y-146872927D01*
X268008641Y-146872927D01*
X205540476Y-142932380D02*
X205540476Y-141932380D01*
X205873809Y-142646666D01*
X206207142Y-141932380D01*
X206207142Y-142932380D01*
X206683333Y-142932380D02*
X206683333Y-141932380D01*
X207254761Y-142932380D02*
X206826190Y-142360952D01*
X207254761Y-141932380D02*
X206683333Y-142503809D01*
X207588095Y-141932380D02*
X208207142Y-141932380D01*
X207873809Y-142313333D01*
X208016666Y-142313333D01*
X208111904Y-142360952D01*
X208159523Y-142408571D01*
X208207142Y-142503809D01*
X208207142Y-142741904D01*
X208159523Y-142837142D01*
X208111904Y-142884761D01*
X208016666Y-142932380D01*
X207730952Y-142932380D01*
X207635714Y-142884761D01*
X207588095Y-142837142D01*
X260200476Y-101852380D02*
X260200476Y-100852380D01*
X260533809Y-101566666D01*
X260867142Y-100852380D01*
X260867142Y-101852380D01*
X261343333Y-101852380D02*
X261343333Y-100852380D01*
X261914761Y-101852380D02*
X261486190Y-101280952D01*
X261914761Y-100852380D02*
X261343333Y-101423809D01*
X262295714Y-100947619D02*
X262343333Y-100900000D01*
X262438571Y-100852380D01*
X262676666Y-100852380D01*
X262771904Y-100900000D01*
X262819523Y-100947619D01*
X262867142Y-101042857D01*
X262867142Y-101138095D01*
X262819523Y-101280952D01*
X262248095Y-101852380D01*
X262867142Y-101852380D01*
X202180476Y-102132380D02*
X202180476Y-101132380D01*
X202513809Y-101846666D01*
X202847142Y-101132380D01*
X202847142Y-102132380D01*
X203323333Y-102132380D02*
X203323333Y-101132380D01*
X203894761Y-102132380D02*
X203466190Y-101560952D01*
X203894761Y-101132380D02*
X203323333Y-101703809D01*
X204847142Y-102132380D02*
X204275714Y-102132380D01*
X204561428Y-102132380D02*
X204561428Y-101132380D01*
X204466190Y-101275238D01*
X204370952Y-101370476D01*
X204275714Y-101418095D01*
X224848040Y-142292057D02*
X224371850Y-142625390D01*
X224848040Y-142863485D02*
X223848040Y-142863485D01*
X223848040Y-142482533D01*
X223895660Y-142387295D01*
X223943279Y-142339676D01*
X224038517Y-142292057D01*
X224181374Y-142292057D01*
X224276612Y-142339676D01*
X224324231Y-142387295D01*
X224371850Y-142482533D01*
X224371850Y-142863485D01*
X224848040Y-141339676D02*
X224848040Y-141911104D01*
X224848040Y-141625390D02*
X223848040Y-141625390D01*
X223990898Y-141720628D01*
X224086136Y-141815866D01*
X224133755Y-141911104D01*
X223848040Y-141006342D02*
X223848040Y-140387295D01*
X224228993Y-140720628D01*
X224228993Y-140577771D01*
X224276612Y-140482533D01*
X224324231Y-140434914D01*
X224419469Y-140387295D01*
X224657564Y-140387295D01*
X224752802Y-140434914D01*
X224800421Y-140482533D01*
X224848040Y-140577771D01*
X224848040Y-140863485D01*
X224800421Y-140958723D01*
X224752802Y-141006342D01*
X212618126Y-104387700D02*
X212618126Y-105101986D01*
X212570507Y-105244843D01*
X212475269Y-105340081D01*
X212332412Y-105387700D01*
X212237174Y-105387700D01*
X213046698Y-104482939D02*
X213094317Y-104435320D01*
X213189555Y-104387700D01*
X213427650Y-104387700D01*
X213522888Y-104435320D01*
X213570507Y-104482939D01*
X213618126Y-104578177D01*
X213618126Y-104673415D01*
X213570507Y-104816272D01*
X212999079Y-105387700D01*
X213618126Y-105387700D01*
X210340802Y-106713248D02*
X210340802Y-105570391D01*
X210912231Y-106141820D02*
X209769374Y-106141820D01*
X209957262Y-116634488D02*
X209957262Y-115491631D01*
X272043333Y-132252380D02*
X271710000Y-131776190D01*
X271471904Y-132252380D02*
X271471904Y-131252380D01*
X271852857Y-131252380D01*
X271948095Y-131300000D01*
X271995714Y-131347619D01*
X272043333Y-131442857D01*
X272043333Y-131585714D01*
X271995714Y-131680952D01*
X271948095Y-131728571D01*
X271852857Y-131776190D01*
X271471904Y-131776190D01*
X272900476Y-131585714D02*
X272900476Y-132252380D01*
X272662380Y-131204761D02*
X272424285Y-131919047D01*
X273043333Y-131919047D01*
X269643333Y-120772380D02*
X269310000Y-120296190D01*
X269071904Y-120772380D02*
X269071904Y-119772380D01*
X269452857Y-119772380D01*
X269548095Y-119820000D01*
X269595714Y-119867619D01*
X269643333Y-119962857D01*
X269643333Y-120105714D01*
X269595714Y-120200952D01*
X269548095Y-120248571D01*
X269452857Y-120296190D01*
X269071904Y-120296190D01*
X269976666Y-119772380D02*
X270595714Y-119772380D01*
X270262380Y-120153333D01*
X270405238Y-120153333D01*
X270500476Y-120200952D01*
X270548095Y-120248571D01*
X270595714Y-120343809D01*
X270595714Y-120581904D01*
X270548095Y-120677142D01*
X270500476Y-120724761D01*
X270405238Y-120772380D01*
X270119523Y-120772380D01*
X270024285Y-120724761D01*
X269976666Y-120677142D01*
X271813333Y-109262380D02*
X271480000Y-108786190D01*
X271241904Y-109262380D02*
X271241904Y-108262380D01*
X271622857Y-108262380D01*
X271718095Y-108310000D01*
X271765714Y-108357619D01*
X271813333Y-108452857D01*
X271813333Y-108595714D01*
X271765714Y-108690952D01*
X271718095Y-108738571D01*
X271622857Y-108786190D01*
X271241904Y-108786190D01*
X272194285Y-108357619D02*
X272241904Y-108310000D01*
X272337142Y-108262380D01*
X272575238Y-108262380D01*
X272670476Y-108310000D01*
X272718095Y-108357619D01*
X272765714Y-108452857D01*
X272765714Y-108548095D01*
X272718095Y-108690952D01*
X272146666Y-109262380D01*
X272765714Y-109262380D01*
X269193333Y-96502380D02*
X268860000Y-96026190D01*
X268621904Y-96502380D02*
X268621904Y-95502380D01*
X269002857Y-95502380D01*
X269098095Y-95550000D01*
X269145714Y-95597619D01*
X269193333Y-95692857D01*
X269193333Y-95835714D01*
X269145714Y-95930952D01*
X269098095Y-95978571D01*
X269002857Y-96026190D01*
X268621904Y-96026190D01*
X270145714Y-96502380D02*
X269574285Y-96502380D01*
X269860000Y-96502380D02*
X269860000Y-95502380D01*
X269764761Y-95645238D01*
X269669523Y-95740476D01*
X269574285Y-95788095D01*
X214366976Y-115725440D02*
X214366976Y-116439726D01*
X214319357Y-116582583D01*
X214224119Y-116677821D01*
X214081261Y-116725440D01*
X213986023Y-116725440D01*
X215366976Y-116725440D02*
X214795547Y-116725440D01*
X215081261Y-116725440D02*
X215081261Y-115725440D01*
X214986023Y-115868298D01*
X214890785Y-115963536D01*
X214795547Y-116011155D01*
X215747928Y-115820679D02*
X215795547Y-115773060D01*
X215890785Y-115725440D01*
X216128880Y-115725440D01*
X216224119Y-115773060D01*
X216271738Y-115820679D01*
X216319357Y-115915917D01*
X216319357Y-116011155D01*
X216271738Y-116154012D01*
X215700309Y-116725440D01*
X216319357Y-116725440D01*
D14*
X241047477Y-129085823D02*
X241047477Y-127815823D01*
X241531286Y-127815823D01*
X241652239Y-127876300D01*
X241712715Y-127936776D01*
X241773191Y-128057728D01*
X241773191Y-128239157D01*
X241712715Y-128360109D01*
X241652239Y-128420585D01*
X241531286Y-128481061D01*
X241047477Y-128481061D01*
X242257000Y-129025347D02*
X242438429Y-129085823D01*
X242740810Y-129085823D01*
X242861762Y-129025347D01*
X242922239Y-128964871D01*
X242982715Y-128843919D01*
X242982715Y-128722966D01*
X242922239Y-128602014D01*
X242861762Y-128541538D01*
X242740810Y-128481061D01*
X242498905Y-128420585D01*
X242377953Y-128360109D01*
X242317477Y-128299633D01*
X242257000Y-128178680D01*
X242257000Y-128057728D01*
X242317477Y-127936776D01*
X242377953Y-127876300D01*
X242498905Y-127815823D01*
X242801286Y-127815823D01*
X242982715Y-127876300D01*
X244192239Y-129085823D02*
X243466524Y-129085823D01*
X243829381Y-129085823D02*
X243829381Y-127815823D01*
X243708429Y-127997252D01*
X243587477Y-128118204D01*
X243466524Y-128178680D01*
D10*
X255317142Y-138742380D02*
X254983809Y-138266190D01*
X254745714Y-138742380D02*
X254745714Y-137742380D01*
X255126666Y-137742380D01*
X255221904Y-137790000D01*
X255269523Y-137837619D01*
X255317142Y-137932857D01*
X255317142Y-138075714D01*
X255269523Y-138170952D01*
X255221904Y-138218571D01*
X255126666Y-138266190D01*
X254745714Y-138266190D01*
X256269523Y-138742380D02*
X255698095Y-138742380D01*
X255983809Y-138742380D02*
X255983809Y-137742380D01*
X255888571Y-137885238D01*
X255793333Y-137980476D01*
X255698095Y-138028095D01*
X256650476Y-137837619D02*
X256698095Y-137790000D01*
X256793333Y-137742380D01*
X257031428Y-137742380D01*
X257126666Y-137790000D01*
X257174285Y-137837619D01*
X257221904Y-137932857D01*
X257221904Y-138028095D01*
X257174285Y-138170952D01*
X256602857Y-138742380D01*
X257221904Y-138742380D01*
X255397142Y-141652380D02*
X255063809Y-141176190D01*
X254825714Y-141652380D02*
X254825714Y-140652380D01*
X255206666Y-140652380D01*
X255301904Y-140700000D01*
X255349523Y-140747619D01*
X255397142Y-140842857D01*
X255397142Y-140985714D01*
X255349523Y-141080952D01*
X255301904Y-141128571D01*
X255206666Y-141176190D01*
X254825714Y-141176190D01*
X256349523Y-141652380D02*
X255778095Y-141652380D01*
X256063809Y-141652380D02*
X256063809Y-140652380D01*
X255968571Y-140795238D01*
X255873333Y-140890476D01*
X255778095Y-140938095D01*
X257301904Y-141652380D02*
X256730476Y-141652380D01*
X257016190Y-141652380D02*
X257016190Y-140652380D01*
X256920952Y-140795238D01*
X256825714Y-140890476D01*
X256730476Y-140938095D01*
X258953162Y-127104700D02*
X258619829Y-126628510D01*
X258381734Y-127104700D02*
X258381734Y-126104700D01*
X258762686Y-126104700D01*
X258857924Y-126152320D01*
X258905543Y-126199939D01*
X258953162Y-126295177D01*
X258953162Y-126438034D01*
X258905543Y-126533272D01*
X258857924Y-126580891D01*
X258762686Y-126628510D01*
X258381734Y-126628510D01*
X259905543Y-127104700D02*
X259334115Y-127104700D01*
X259619829Y-127104700D02*
X259619829Y-126104700D01*
X259524591Y-126247558D01*
X259429353Y-126342796D01*
X259334115Y-126390415D01*
X260524591Y-126104700D02*
X260619829Y-126104700D01*
X260715067Y-126152320D01*
X260762686Y-126199939D01*
X260810305Y-126295177D01*
X260857924Y-126485653D01*
X260857924Y-126723748D01*
X260810305Y-126914224D01*
X260762686Y-127009462D01*
X260715067Y-127057081D01*
X260619829Y-127104700D01*
X260524591Y-127104700D01*
X260429353Y-127057081D01*
X260381734Y-127009462D01*
X260334115Y-126914224D01*
X260286496Y-126723748D01*
X260286496Y-126485653D01*
X260334115Y-126295177D01*
X260381734Y-126199939D01*
X260429353Y-126152320D01*
X260524591Y-126104700D01*
X262883333Y-132672380D02*
X262550000Y-132196190D01*
X262311904Y-132672380D02*
X262311904Y-131672380D01*
X262692857Y-131672380D01*
X262788095Y-131720000D01*
X262835714Y-131767619D01*
X262883333Y-131862857D01*
X262883333Y-132005714D01*
X262835714Y-132100952D01*
X262788095Y-132148571D01*
X262692857Y-132196190D01*
X262311904Y-132196190D01*
X263359523Y-132672380D02*
X263550000Y-132672380D01*
X263645238Y-132624761D01*
X263692857Y-132577142D01*
X263788095Y-132434285D01*
X263835714Y-132243809D01*
X263835714Y-131862857D01*
X263788095Y-131767619D01*
X263740476Y-131720000D01*
X263645238Y-131672380D01*
X263454761Y-131672380D01*
X263359523Y-131720000D01*
X263311904Y-131767619D01*
X263264285Y-131862857D01*
X263264285Y-132100952D01*
X263311904Y-132196190D01*
X263359523Y-132243809D01*
X263454761Y-132291428D01*
X263645238Y-132291428D01*
X263740476Y-132243809D01*
X263788095Y-132196190D01*
X263835714Y-132100952D01*
X255933333Y-114492380D02*
X255600000Y-114016190D01*
X255361904Y-114492380D02*
X255361904Y-113492380D01*
X255742857Y-113492380D01*
X255838095Y-113540000D01*
X255885714Y-113587619D01*
X255933333Y-113682857D01*
X255933333Y-113825714D01*
X255885714Y-113920952D01*
X255838095Y-113968571D01*
X255742857Y-114016190D01*
X255361904Y-114016190D01*
X256504761Y-113920952D02*
X256409523Y-113873333D01*
X256361904Y-113825714D01*
X256314285Y-113730476D01*
X256314285Y-113682857D01*
X256361904Y-113587619D01*
X256409523Y-113540000D01*
X256504761Y-113492380D01*
X256695238Y-113492380D01*
X256790476Y-113540000D01*
X256838095Y-113587619D01*
X256885714Y-113682857D01*
X256885714Y-113730476D01*
X256838095Y-113825714D01*
X256790476Y-113873333D01*
X256695238Y-113920952D01*
X256504761Y-113920952D01*
X256409523Y-113968571D01*
X256361904Y-114016190D01*
X256314285Y-114111428D01*
X256314285Y-114301904D01*
X256361904Y-114397142D01*
X256409523Y-114444761D01*
X256504761Y-114492380D01*
X256695238Y-114492380D01*
X256790476Y-114444761D01*
X256838095Y-114397142D01*
X256885714Y-114301904D01*
X256885714Y-114111428D01*
X256838095Y-114016190D01*
X256790476Y-113968571D01*
X256695238Y-113920952D01*
X257597753Y-120323900D02*
X257264420Y-119847710D01*
X257026324Y-120323900D02*
X257026324Y-119323900D01*
X257407277Y-119323900D01*
X257502515Y-119371520D01*
X257550134Y-119419139D01*
X257597753Y-119514377D01*
X257597753Y-119657234D01*
X257550134Y-119752472D01*
X257502515Y-119800091D01*
X257407277Y-119847710D01*
X257026324Y-119847710D01*
X257931086Y-119323900D02*
X258597753Y-119323900D01*
X258169181Y-120323900D01*
X261403333Y-106762380D02*
X261070000Y-106286190D01*
X260831904Y-106762380D02*
X260831904Y-105762380D01*
X261212857Y-105762380D01*
X261308095Y-105810000D01*
X261355714Y-105857619D01*
X261403333Y-105952857D01*
X261403333Y-106095714D01*
X261355714Y-106190952D01*
X261308095Y-106238571D01*
X261212857Y-106286190D01*
X260831904Y-106286190D01*
X262260476Y-105762380D02*
X262070000Y-105762380D01*
X261974761Y-105810000D01*
X261927142Y-105857619D01*
X261831904Y-106000476D01*
X261784285Y-106190952D01*
X261784285Y-106571904D01*
X261831904Y-106667142D01*
X261879523Y-106714761D01*
X261974761Y-106762380D01*
X262165238Y-106762380D01*
X262260476Y-106714761D01*
X262308095Y-106667142D01*
X262355714Y-106571904D01*
X262355714Y-106333809D01*
X262308095Y-106238571D01*
X262260476Y-106190952D01*
X262165238Y-106143333D01*
X261974761Y-106143333D01*
X261879523Y-106190952D01*
X261831904Y-106238571D01*
X261784285Y-106333809D01*
X261363333Y-108782380D02*
X261030000Y-108306190D01*
X260791904Y-108782380D02*
X260791904Y-107782380D01*
X261172857Y-107782380D01*
X261268095Y-107830000D01*
X261315714Y-107877619D01*
X261363333Y-107972857D01*
X261363333Y-108115714D01*
X261315714Y-108210952D01*
X261268095Y-108258571D01*
X261172857Y-108306190D01*
X260791904Y-108306190D01*
X262268095Y-107782380D02*
X261791904Y-107782380D01*
X261744285Y-108258571D01*
X261791904Y-108210952D01*
X261887142Y-108163333D01*
X262125238Y-108163333D01*
X262220476Y-108210952D01*
X262268095Y-108258571D01*
X262315714Y-108353809D01*
X262315714Y-108591904D01*
X262268095Y-108687142D01*
X262220476Y-108734761D01*
X262125238Y-108782380D01*
X261887142Y-108782380D01*
X261791904Y-108734761D01*
X261744285Y-108687142D01*
X248720476Y-111562380D02*
X248720476Y-112276666D01*
X248672857Y-112419523D01*
X248577619Y-112514761D01*
X248434761Y-112562380D01*
X248339523Y-112562380D01*
X249720476Y-112562380D02*
X249149047Y-112562380D01*
X249434761Y-112562380D02*
X249434761Y-111562380D01*
X249339523Y-111705238D01*
X249244285Y-111800476D01*
X249149047Y-111848095D01*
X250672857Y-112562380D02*
X250101428Y-112562380D01*
X250387142Y-112562380D02*
X250387142Y-111562380D01*
X250291904Y-111705238D01*
X250196666Y-111800476D01*
X250101428Y-111848095D01*
X248720476Y-135692380D02*
X248720476Y-136406666D01*
X248672857Y-136549523D01*
X248577619Y-136644761D01*
X248434761Y-136692380D01*
X248339523Y-136692380D01*
X249720476Y-136692380D02*
X249149047Y-136692380D01*
X249434761Y-136692380D02*
X249434761Y-135692380D01*
X249339523Y-135835238D01*
X249244285Y-135930476D01*
X249149047Y-135978095D01*
X250339523Y-135692380D02*
X250434761Y-135692380D01*
X250530000Y-135740000D01*
X250577619Y-135787619D01*
X250625238Y-135882857D01*
X250672857Y-136073333D01*
X250672857Y-136311428D01*
X250625238Y-136501904D01*
X250577619Y-136597142D01*
X250530000Y-136644761D01*
X250434761Y-136692380D01*
X250339523Y-136692380D01*
X250244285Y-136644761D01*
X250196666Y-136597142D01*
X250149047Y-136501904D01*
X250101428Y-136311428D01*
X250101428Y-136073333D01*
X250149047Y-135882857D01*
X250196666Y-135787619D01*
X250244285Y-135740000D01*
X250339523Y-135692380D01*
X249196666Y-124262380D02*
X249196666Y-124976666D01*
X249149047Y-125119523D01*
X249053809Y-125214761D01*
X248910952Y-125262380D01*
X248815714Y-125262380D01*
X249720476Y-125262380D02*
X249910952Y-125262380D01*
X250006190Y-125214761D01*
X250053809Y-125167142D01*
X250149047Y-125024285D01*
X250196666Y-124833809D01*
X250196666Y-124452857D01*
X250149047Y-124357619D01*
X250101428Y-124310000D01*
X250006190Y-124262380D01*
X249815714Y-124262380D01*
X249720476Y-124310000D01*
X249672857Y-124357619D01*
X249625238Y-124452857D01*
X249625238Y-124690952D01*
X249672857Y-124786190D01*
X249720476Y-124833809D01*
X249815714Y-124881428D01*
X250006190Y-124881428D01*
X250101428Y-124833809D01*
X250149047Y-124786190D01*
X250196666Y-124690952D01*
X249196666Y-101402380D02*
X249196666Y-102116666D01*
X249149047Y-102259523D01*
X249053809Y-102354761D01*
X248910952Y-102402380D01*
X248815714Y-102402380D01*
X249815714Y-101830952D02*
X249720476Y-101783333D01*
X249672857Y-101735714D01*
X249625238Y-101640476D01*
X249625238Y-101592857D01*
X249672857Y-101497619D01*
X249720476Y-101450000D01*
X249815714Y-101402380D01*
X250006190Y-101402380D01*
X250101428Y-101450000D01*
X250149047Y-101497619D01*
X250196666Y-101592857D01*
X250196666Y-101640476D01*
X250149047Y-101735714D01*
X250101428Y-101783333D01*
X250006190Y-101830952D01*
X249815714Y-101830952D01*
X249720476Y-101878571D01*
X249672857Y-101926190D01*
X249625238Y-102021428D01*
X249625238Y-102211904D01*
X249672857Y-102307142D01*
X249720476Y-102354761D01*
X249815714Y-102402380D01*
X250006190Y-102402380D01*
X250101428Y-102354761D01*
X250149047Y-102307142D01*
X250196666Y-102211904D01*
X250196666Y-102021428D01*
X250149047Y-101926190D01*
X250101428Y-101878571D01*
X250006190Y-101830952D01*
X274142380Y-135313333D02*
X274856666Y-135313333D01*
X274999523Y-135360952D01*
X275094761Y-135456190D01*
X275142380Y-135599047D01*
X275142380Y-135694285D01*
X274142380Y-134932380D02*
X274142380Y-134265714D01*
X275142380Y-134694285D01*
X274102380Y-109963333D02*
X274816666Y-109963333D01*
X274959523Y-110010952D01*
X275054761Y-110106190D01*
X275102380Y-110249047D01*
X275102380Y-110344285D01*
X274102380Y-109058571D02*
X274102380Y-109249047D01*
X274150000Y-109344285D01*
X274197619Y-109391904D01*
X274340476Y-109487142D01*
X274530952Y-109534761D01*
X274911904Y-109534761D01*
X275007142Y-109487142D01*
X275054761Y-109439523D01*
X275102380Y-109344285D01*
X275102380Y-109153809D01*
X275054761Y-109058571D01*
X275007142Y-109010952D01*
X274911904Y-108963333D01*
X274673809Y-108963333D01*
X274578571Y-109010952D01*
X274530952Y-109058571D01*
X274483333Y-109153809D01*
X274483333Y-109344285D01*
X274530952Y-109439523D01*
X274578571Y-109487142D01*
X274673809Y-109534761D01*
X274112380Y-122413333D02*
X274826666Y-122413333D01*
X274969523Y-122460952D01*
X275064761Y-122556190D01*
X275112380Y-122699047D01*
X275112380Y-122794285D01*
X274112380Y-121460952D02*
X274112380Y-121937142D01*
X274588571Y-121984761D01*
X274540952Y-121937142D01*
X274493333Y-121841904D01*
X274493333Y-121603809D01*
X274540952Y-121508571D01*
X274588571Y-121460952D01*
X274683809Y-121413333D01*
X274921904Y-121413333D01*
X275017142Y-121460952D01*
X275064761Y-121508571D01*
X275112380Y-121603809D01*
X275112380Y-121841904D01*
X275064761Y-121937142D01*
X275017142Y-121984761D01*
X274032380Y-96963333D02*
X274746666Y-96963333D01*
X274889523Y-97010952D01*
X274984761Y-97106190D01*
X275032380Y-97249047D01*
X275032380Y-97344285D01*
X274365714Y-96058571D02*
X275032380Y-96058571D01*
X273984761Y-96296666D02*
X274699047Y-96534761D01*
X274699047Y-95915714D01*
X262858095Y-135652380D02*
X262858095Y-136461904D01*
X262905714Y-136557142D01*
X262953333Y-136604761D01*
X263048571Y-136652380D01*
X263239047Y-136652380D01*
X263334285Y-136604761D01*
X263381904Y-136557142D01*
X263429523Y-136461904D01*
X263429523Y-135652380D01*
X264334285Y-135985714D02*
X264334285Y-136652380D01*
X264096190Y-135604761D02*
X263858095Y-136319047D01*
X264477142Y-136319047D01*
X263638095Y-119642380D02*
X263638095Y-120451904D01*
X263685714Y-120547142D01*
X263733333Y-120594761D01*
X263828571Y-120642380D01*
X264019047Y-120642380D01*
X264114285Y-120594761D01*
X264161904Y-120547142D01*
X264209523Y-120451904D01*
X264209523Y-119642380D01*
X264638095Y-119737619D02*
X264685714Y-119690000D01*
X264780952Y-119642380D01*
X265019047Y-119642380D01*
X265114285Y-119690000D01*
X265161904Y-119737619D01*
X265209523Y-119832857D01*
X265209523Y-119928095D01*
X265161904Y-120070952D01*
X264590476Y-120642380D01*
X265209523Y-120642380D01*
X267818095Y-101822380D02*
X267818095Y-102631904D01*
X267865714Y-102727142D01*
X267913333Y-102774761D01*
X268008571Y-102822380D01*
X268199047Y-102822380D01*
X268294285Y-102774761D01*
X268341904Y-102727142D01*
X268389523Y-102631904D01*
X268389523Y-101822380D01*
X269389523Y-102822380D02*
X268818095Y-102822380D01*
X269103809Y-102822380D02*
X269103809Y-101822380D01*
X269008571Y-101965238D01*
X268913333Y-102060476D01*
X268818095Y-102108095D01*
D14*
X231998333Y-137663571D02*
X231937857Y-137724047D01*
X231756428Y-137784523D01*
X231635476Y-137784523D01*
X231454047Y-137724047D01*
X231333095Y-137603095D01*
X231272619Y-137482142D01*
X231212142Y-137240238D01*
X231212142Y-137058809D01*
X231272619Y-136816904D01*
X231333095Y-136695952D01*
X231454047Y-136575000D01*
X231635476Y-136514523D01*
X231756428Y-136514523D01*
X231937857Y-136575000D01*
X231998333Y-136635476D01*
X232482142Y-136635476D02*
X232542619Y-136575000D01*
X232663571Y-136514523D01*
X232965952Y-136514523D01*
X233086904Y-136575000D01*
X233147380Y-136635476D01*
X233207857Y-136756428D01*
X233207857Y-136877380D01*
X233147380Y-137058809D01*
X232421666Y-137784523D01*
X233207857Y-137784523D01*
D10*
X208962380Y-131493333D02*
X209676666Y-131493333D01*
X209819523Y-131540952D01*
X209914761Y-131636190D01*
X209962380Y-131779047D01*
X209962380Y-131874285D01*
X209962380Y-130493333D02*
X209962380Y-131064761D01*
X209962380Y-130779047D02*
X208962380Y-130779047D01*
X209105238Y-130874285D01*
X209200476Y-130969523D01*
X209248095Y-131064761D01*
M02*
