G04 #@! TF.GenerationSoftware,KiCad,Pcbnew,5.1.6-c6e7f7d~87~ubuntu18.04.1*
G04 #@! TF.CreationDate,2020-08-28T18:16:15+02:00*
G04 #@! TF.ProjectId,base_hat,62617365-5f68-4617-942e-6b696361645f,rev?*
G04 #@! TF.SameCoordinates,Original*
G04 #@! TF.FileFunction,Legend,Bot*
G04 #@! TF.FilePolarity,Positive*
%FSLAX46Y46*%
G04 Gerber Fmt 4.6, Leading zero omitted, Abs format (unit mm)*
G04 Created by KiCad (PCBNEW 5.1.6-c6e7f7d~87~ubuntu18.04.1) date 2020-08-28 18:16:15*
%MOMM*%
%LPD*%
G01*
G04 APERTURE LIST*
%ADD10C,0.120000*%
%ADD11C,0.150000*%
G04 APERTURE END LIST*
D10*
X256560000Y-118000000D02*
X256560000Y-119950000D01*
X256560000Y-118000000D02*
X256560000Y-116050000D01*
X251440000Y-118000000D02*
X251440000Y-119950000D01*
X251440000Y-118000000D02*
X251440000Y-114550000D01*
X251710000Y-125321078D02*
X251710000Y-124803922D01*
X250290000Y-125321078D02*
X250290000Y-124803922D01*
X254710000Y-125258578D02*
X254710000Y-124741422D01*
X253290000Y-125258578D02*
X253290000Y-124741422D01*
X252290000Y-111741422D02*
X252290000Y-112258578D01*
X253710000Y-111741422D02*
X253710000Y-112258578D01*
X207040000Y-98770000D02*
X207040000Y-100100000D01*
X207040000Y-100100000D02*
X208370000Y-100100000D01*
X207040000Y-97500000D02*
X209640000Y-97500000D01*
X209640000Y-97500000D02*
X209640000Y-100100000D01*
X209640000Y-100100000D02*
X257960000Y-100100000D01*
X257960000Y-94900000D02*
X257960000Y-100100000D01*
X207040000Y-94900000D02*
X257960000Y-94900000D01*
X207040000Y-94900000D02*
X207040000Y-97500000D01*
D11*
X250052380Y-117238095D02*
X250861904Y-117238095D01*
X250957142Y-117285714D01*
X251004761Y-117333333D01*
X251052380Y-117428571D01*
X251052380Y-117619047D01*
X251004761Y-117714285D01*
X250957142Y-117761904D01*
X250861904Y-117809523D01*
X250052380Y-117809523D01*
X251052380Y-118809523D02*
X251052380Y-118238095D01*
X251052380Y-118523809D02*
X250052380Y-118523809D01*
X250195238Y-118428571D01*
X250290476Y-118333333D01*
X250338095Y-118238095D01*
X249452380Y-124833333D02*
X248976190Y-124500000D01*
X249452380Y-124261904D02*
X248452380Y-124261904D01*
X248452380Y-124642857D01*
X248500000Y-124738095D01*
X248547619Y-124785714D01*
X248642857Y-124833333D01*
X248785714Y-124833333D01*
X248880952Y-124785714D01*
X248928571Y-124738095D01*
X248976190Y-124642857D01*
X248976190Y-124261904D01*
X248547619Y-125214285D02*
X248500000Y-125261904D01*
X248452380Y-125357142D01*
X248452380Y-125595238D01*
X248500000Y-125690476D01*
X248547619Y-125738095D01*
X248642857Y-125785714D01*
X248738095Y-125785714D01*
X248880952Y-125738095D01*
X249452380Y-125166666D01*
X249452380Y-125785714D01*
X256102380Y-124833333D02*
X255626190Y-124500000D01*
X256102380Y-124261904D02*
X255102380Y-124261904D01*
X255102380Y-124642857D01*
X255150000Y-124738095D01*
X255197619Y-124785714D01*
X255292857Y-124833333D01*
X255435714Y-124833333D01*
X255530952Y-124785714D01*
X255578571Y-124738095D01*
X255626190Y-124642857D01*
X255626190Y-124261904D01*
X256102380Y-125785714D02*
X256102380Y-125214285D01*
X256102380Y-125500000D02*
X255102380Y-125500000D01*
X255245238Y-125404761D01*
X255340476Y-125309523D01*
X255388095Y-125214285D01*
X251707142Y-111833333D02*
X251754761Y-111785714D01*
X251802380Y-111642857D01*
X251802380Y-111547619D01*
X251754761Y-111404761D01*
X251659523Y-111309523D01*
X251564285Y-111261904D01*
X251373809Y-111214285D01*
X251230952Y-111214285D01*
X251040476Y-111261904D01*
X250945238Y-111309523D01*
X250850000Y-111404761D01*
X250802380Y-111547619D01*
X250802380Y-111642857D01*
X250850000Y-111785714D01*
X250897619Y-111833333D01*
X251802380Y-112785714D02*
X251802380Y-112214285D01*
X251802380Y-112500000D02*
X250802380Y-112500000D01*
X250945238Y-112404761D01*
X251040476Y-112309523D01*
X251088095Y-112214285D01*
X207596095Y-101430380D02*
X207596095Y-100430380D01*
X207215142Y-100430380D01*
X207119904Y-100478000D01*
X207072285Y-100525619D01*
X207024666Y-100620857D01*
X207024666Y-100763714D01*
X207072285Y-100858952D01*
X207119904Y-100906571D01*
X207215142Y-100954190D01*
X207596095Y-100954190D01*
X206072285Y-101430380D02*
X206643714Y-101430380D01*
X206358000Y-101430380D02*
X206358000Y-100430380D01*
X206453238Y-100573238D01*
X206548476Y-100668476D01*
X206643714Y-100716095D01*
M02*
