M48
; DRILL file {KiCad 5.1.6-c6e7f7d~87~ubuntu18.04.1} date Tue Sep  1 16:11:57 2020
; FORMAT={-:-/ absolute / inch / decimal}
; #@! TF.CreationDate,2020-09-01T16:11:57+02:00
; #@! TF.GenerationSoftware,Kicad,Pcbnew,5.1.6-c6e7f7d~87~ubuntu18.04.1
; #@! TF.FileFunction,Plated,1,2,PTH
FMAT,2
INCH
T1C0.0236
T2C0.0394
%
G90
G05
T1
X9.7539Y-4.065
X9.824Y-4.5555
X9.9213Y-4.6555
X10.0394Y-4.8327
X10.1181Y-4.8031
X10.1575Y-4.2913
X10.1969Y-4.685
T2
X8.324Y-5.7555
X8.424Y-5.7555
X8.524Y-5.7555
X8.624Y-5.7555
X8.2035Y-3.7886
X8.2035Y-3.8886
X8.3035Y-3.7886
X8.3035Y-3.8886
X8.4035Y-3.7886
X8.4035Y-3.8886
X8.5035Y-3.7886
X8.5035Y-3.8886
X8.6035Y-3.7886
X8.6035Y-3.8886
X8.7035Y-3.7886
X8.7035Y-3.8886
X8.8035Y-3.7886
X8.8035Y-3.8886
X8.9035Y-3.7886
X8.9035Y-3.8886
X9.0035Y-3.7886
X9.0035Y-3.8886
X9.1035Y-3.7886
X9.1035Y-3.8886
X9.2035Y-3.7886
X9.2035Y-3.8886
X9.3035Y-3.7886
X9.3035Y-3.8886
X9.4035Y-3.7886
X9.4035Y-3.8886
X9.5035Y-3.7886
X9.5035Y-3.8886
X9.6035Y-3.7886
X9.6035Y-3.8886
X9.7035Y-3.7886
X9.7035Y-3.8886
X9.8035Y-3.7886
X9.8035Y-3.8886
X9.9035Y-3.7886
X9.9035Y-3.8886
X10.0035Y-3.7886
X10.0035Y-3.8886
X10.1035Y-3.7886
X10.1035Y-3.8886
T0
M30
