G04 #@! TF.GenerationSoftware,KiCad,Pcbnew,5.1.6-c6e7f7d~87~ubuntu18.04.1*
G04 #@! TF.CreationDate,2020-08-28T18:16:15+02:00*
G04 #@! TF.ProjectId,base_hat,62617365-5f68-4617-942e-6b696361645f,rev?*
G04 #@! TF.SameCoordinates,Original*
G04 #@! TF.FileFunction,Paste,Bot*
G04 #@! TF.FilePolarity,Positive*
%FSLAX46Y46*%
G04 Gerber Fmt 4.6, Leading zero omitted, Abs format (unit mm)*
G04 Created by KiCad (PCBNEW 5.1.6-c6e7f7d~87~ubuntu18.04.1) date 2020-08-28 18:16:15*
%MOMM*%
%LPD*%
G01*
G04 APERTURE LIST*
G04 APERTURE END LIST*
G36*
G01*
X251945000Y-119500000D02*
X252245000Y-119500000D01*
G75*
G02*
X252395000Y-119650000I0J-150000D01*
G01*
X252395000Y-121300000D01*
G75*
G02*
X252245000Y-121450000I-150000J0D01*
G01*
X251945000Y-121450000D01*
G75*
G02*
X251795000Y-121300000I0J150000D01*
G01*
X251795000Y-119650000D01*
G75*
G02*
X251945000Y-119500000I150000J0D01*
G01*
G37*
G36*
G01*
X253215000Y-119500000D02*
X253515000Y-119500000D01*
G75*
G02*
X253665000Y-119650000I0J-150000D01*
G01*
X253665000Y-121300000D01*
G75*
G02*
X253515000Y-121450000I-150000J0D01*
G01*
X253215000Y-121450000D01*
G75*
G02*
X253065000Y-121300000I0J150000D01*
G01*
X253065000Y-119650000D01*
G75*
G02*
X253215000Y-119500000I150000J0D01*
G01*
G37*
G36*
G01*
X254485000Y-119500000D02*
X254785000Y-119500000D01*
G75*
G02*
X254935000Y-119650000I0J-150000D01*
G01*
X254935000Y-121300000D01*
G75*
G02*
X254785000Y-121450000I-150000J0D01*
G01*
X254485000Y-121450000D01*
G75*
G02*
X254335000Y-121300000I0J150000D01*
G01*
X254335000Y-119650000D01*
G75*
G02*
X254485000Y-119500000I150000J0D01*
G01*
G37*
G36*
G01*
X255755000Y-119500000D02*
X256055000Y-119500000D01*
G75*
G02*
X256205000Y-119650000I0J-150000D01*
G01*
X256205000Y-121300000D01*
G75*
G02*
X256055000Y-121450000I-150000J0D01*
G01*
X255755000Y-121450000D01*
G75*
G02*
X255605000Y-121300000I0J150000D01*
G01*
X255605000Y-119650000D01*
G75*
G02*
X255755000Y-119500000I150000J0D01*
G01*
G37*
G36*
G01*
X255755000Y-114550000D02*
X256055000Y-114550000D01*
G75*
G02*
X256205000Y-114700000I0J-150000D01*
G01*
X256205000Y-116350000D01*
G75*
G02*
X256055000Y-116500000I-150000J0D01*
G01*
X255755000Y-116500000D01*
G75*
G02*
X255605000Y-116350000I0J150000D01*
G01*
X255605000Y-114700000D01*
G75*
G02*
X255755000Y-114550000I150000J0D01*
G01*
G37*
G36*
G01*
X254485000Y-114550000D02*
X254785000Y-114550000D01*
G75*
G02*
X254935000Y-114700000I0J-150000D01*
G01*
X254935000Y-116350000D01*
G75*
G02*
X254785000Y-116500000I-150000J0D01*
G01*
X254485000Y-116500000D01*
G75*
G02*
X254335000Y-116350000I0J150000D01*
G01*
X254335000Y-114700000D01*
G75*
G02*
X254485000Y-114550000I150000J0D01*
G01*
G37*
G36*
G01*
X253215000Y-114550000D02*
X253515000Y-114550000D01*
G75*
G02*
X253665000Y-114700000I0J-150000D01*
G01*
X253665000Y-116350000D01*
G75*
G02*
X253515000Y-116500000I-150000J0D01*
G01*
X253215000Y-116500000D01*
G75*
G02*
X253065000Y-116350000I0J150000D01*
G01*
X253065000Y-114700000D01*
G75*
G02*
X253215000Y-114550000I150000J0D01*
G01*
G37*
G36*
G01*
X251945000Y-114550000D02*
X252245000Y-114550000D01*
G75*
G02*
X252395000Y-114700000I0J-150000D01*
G01*
X252395000Y-116350000D01*
G75*
G02*
X252245000Y-116500000I-150000J0D01*
G01*
X251945000Y-116500000D01*
G75*
G02*
X251795000Y-116350000I0J150000D01*
G01*
X251795000Y-114700000D01*
G75*
G02*
X251945000Y-114550000I150000J0D01*
G01*
G37*
G36*
G01*
X251456250Y-124612500D02*
X250543750Y-124612500D01*
G75*
G02*
X250300000Y-124368750I0J243750D01*
G01*
X250300000Y-123881250D01*
G75*
G02*
X250543750Y-123637500I243750J0D01*
G01*
X251456250Y-123637500D01*
G75*
G02*
X251700000Y-123881250I0J-243750D01*
G01*
X251700000Y-124368750D01*
G75*
G02*
X251456250Y-124612500I-243750J0D01*
G01*
G37*
G36*
G01*
X251456250Y-126487500D02*
X250543750Y-126487500D01*
G75*
G02*
X250300000Y-126243750I0J243750D01*
G01*
X250300000Y-125756250D01*
G75*
G02*
X250543750Y-125512500I243750J0D01*
G01*
X251456250Y-125512500D01*
G75*
G02*
X251700000Y-125756250I0J-243750D01*
G01*
X251700000Y-126243750D01*
G75*
G02*
X251456250Y-126487500I-243750J0D01*
G01*
G37*
G36*
G01*
X254456250Y-124550000D02*
X253543750Y-124550000D01*
G75*
G02*
X253300000Y-124306250I0J243750D01*
G01*
X253300000Y-123818750D01*
G75*
G02*
X253543750Y-123575000I243750J0D01*
G01*
X254456250Y-123575000D01*
G75*
G02*
X254700000Y-123818750I0J-243750D01*
G01*
X254700000Y-124306250D01*
G75*
G02*
X254456250Y-124550000I-243750J0D01*
G01*
G37*
G36*
G01*
X254456250Y-126425000D02*
X253543750Y-126425000D01*
G75*
G02*
X253300000Y-126181250I0J243750D01*
G01*
X253300000Y-125693750D01*
G75*
G02*
X253543750Y-125450000I243750J0D01*
G01*
X254456250Y-125450000D01*
G75*
G02*
X254700000Y-125693750I0J-243750D01*
G01*
X254700000Y-126181250D01*
G75*
G02*
X254456250Y-126425000I-243750J0D01*
G01*
G37*
G36*
G01*
X252543750Y-112450000D02*
X253456250Y-112450000D01*
G75*
G02*
X253700000Y-112693750I0J-243750D01*
G01*
X253700000Y-113181250D01*
G75*
G02*
X253456250Y-113425000I-243750J0D01*
G01*
X252543750Y-113425000D01*
G75*
G02*
X252300000Y-113181250I0J243750D01*
G01*
X252300000Y-112693750D01*
G75*
G02*
X252543750Y-112450000I243750J0D01*
G01*
G37*
G36*
G01*
X252543750Y-110575000D02*
X253456250Y-110575000D01*
G75*
G02*
X253700000Y-110818750I0J-243750D01*
G01*
X253700000Y-111306250D01*
G75*
G02*
X253456250Y-111550000I-243750J0D01*
G01*
X252543750Y-111550000D01*
G75*
G02*
X252300000Y-111306250I0J243750D01*
G01*
X252300000Y-110818750D01*
G75*
G02*
X252543750Y-110575000I243750J0D01*
G01*
G37*
M02*
