G04 #@! TF.GenerationSoftware,KiCad,Pcbnew,5.1.6-c6e7f7d~87~ubuntu18.04.1*
G04 #@! TF.CreationDate,2020-08-28T18:16:15+02:00*
G04 #@! TF.ProjectId,base_hat,62617365-5f68-4617-942e-6b696361645f,rev?*
G04 #@! TF.SameCoordinates,Original*
G04 #@! TF.FileFunction,Copper,L2,Bot*
G04 #@! TF.FilePolarity,Positive*
%FSLAX46Y46*%
G04 Gerber Fmt 4.6, Leading zero omitted, Abs format (unit mm)*
G04 Created by KiCad (PCBNEW 5.1.6-c6e7f7d~87~ubuntu18.04.1) date 2020-08-28 18:16:15*
%MOMM*%
%LPD*%
G01*
G04 APERTURE LIST*
G04 #@! TA.AperFunction,ComponentPad*
%ADD10O,1.700000X1.700000*%
G04 #@! TD*
G04 #@! TA.AperFunction,ComponentPad*
%ADD11R,1.700000X1.700000*%
G04 #@! TD*
G04 #@! TA.AperFunction,ViaPad*
%ADD12C,0.900000*%
G04 #@! TD*
G04 #@! TA.AperFunction,Conductor*
%ADD13C,0.500000*%
G04 #@! TD*
G04 #@! TA.AperFunction,Conductor*
%ADD14C,0.400000*%
G04 #@! TD*
G04 #@! TA.AperFunction,Conductor*
%ADD15C,0.200000*%
G04 #@! TD*
G04 #@! TA.AperFunction,Conductor*
%ADD16C,0.254000*%
G04 #@! TD*
G04 APERTURE END LIST*
D10*
X219050000Y-146190000D03*
X216510000Y-146190000D03*
X213970000Y-146190000D03*
D11*
X211430000Y-146190000D03*
G04 #@! TA.AperFunction,SMDPad,CuDef*
G36*
G01*
X251945000Y-119500000D02*
X252245000Y-119500000D01*
G75*
G02*
X252395000Y-119650000I0J-150000D01*
G01*
X252395000Y-121300000D01*
G75*
G02*
X252245000Y-121450000I-150000J0D01*
G01*
X251945000Y-121450000D01*
G75*
G02*
X251795000Y-121300000I0J150000D01*
G01*
X251795000Y-119650000D01*
G75*
G02*
X251945000Y-119500000I150000J0D01*
G01*
G37*
G04 #@! TD.AperFunction*
G04 #@! TA.AperFunction,SMDPad,CuDef*
G36*
G01*
X253215000Y-119500000D02*
X253515000Y-119500000D01*
G75*
G02*
X253665000Y-119650000I0J-150000D01*
G01*
X253665000Y-121300000D01*
G75*
G02*
X253515000Y-121450000I-150000J0D01*
G01*
X253215000Y-121450000D01*
G75*
G02*
X253065000Y-121300000I0J150000D01*
G01*
X253065000Y-119650000D01*
G75*
G02*
X253215000Y-119500000I150000J0D01*
G01*
G37*
G04 #@! TD.AperFunction*
G04 #@! TA.AperFunction,SMDPad,CuDef*
G36*
G01*
X254485000Y-119500000D02*
X254785000Y-119500000D01*
G75*
G02*
X254935000Y-119650000I0J-150000D01*
G01*
X254935000Y-121300000D01*
G75*
G02*
X254785000Y-121450000I-150000J0D01*
G01*
X254485000Y-121450000D01*
G75*
G02*
X254335000Y-121300000I0J150000D01*
G01*
X254335000Y-119650000D01*
G75*
G02*
X254485000Y-119500000I150000J0D01*
G01*
G37*
G04 #@! TD.AperFunction*
G04 #@! TA.AperFunction,SMDPad,CuDef*
G36*
G01*
X255755000Y-119500000D02*
X256055000Y-119500000D01*
G75*
G02*
X256205000Y-119650000I0J-150000D01*
G01*
X256205000Y-121300000D01*
G75*
G02*
X256055000Y-121450000I-150000J0D01*
G01*
X255755000Y-121450000D01*
G75*
G02*
X255605000Y-121300000I0J150000D01*
G01*
X255605000Y-119650000D01*
G75*
G02*
X255755000Y-119500000I150000J0D01*
G01*
G37*
G04 #@! TD.AperFunction*
G04 #@! TA.AperFunction,SMDPad,CuDef*
G36*
G01*
X255755000Y-114550000D02*
X256055000Y-114550000D01*
G75*
G02*
X256205000Y-114700000I0J-150000D01*
G01*
X256205000Y-116350000D01*
G75*
G02*
X256055000Y-116500000I-150000J0D01*
G01*
X255755000Y-116500000D01*
G75*
G02*
X255605000Y-116350000I0J150000D01*
G01*
X255605000Y-114700000D01*
G75*
G02*
X255755000Y-114550000I150000J0D01*
G01*
G37*
G04 #@! TD.AperFunction*
G04 #@! TA.AperFunction,SMDPad,CuDef*
G36*
G01*
X254485000Y-114550000D02*
X254785000Y-114550000D01*
G75*
G02*
X254935000Y-114700000I0J-150000D01*
G01*
X254935000Y-116350000D01*
G75*
G02*
X254785000Y-116500000I-150000J0D01*
G01*
X254485000Y-116500000D01*
G75*
G02*
X254335000Y-116350000I0J150000D01*
G01*
X254335000Y-114700000D01*
G75*
G02*
X254485000Y-114550000I150000J0D01*
G01*
G37*
G04 #@! TD.AperFunction*
G04 #@! TA.AperFunction,SMDPad,CuDef*
G36*
G01*
X253215000Y-114550000D02*
X253515000Y-114550000D01*
G75*
G02*
X253665000Y-114700000I0J-150000D01*
G01*
X253665000Y-116350000D01*
G75*
G02*
X253515000Y-116500000I-150000J0D01*
G01*
X253215000Y-116500000D01*
G75*
G02*
X253065000Y-116350000I0J150000D01*
G01*
X253065000Y-114700000D01*
G75*
G02*
X253215000Y-114550000I150000J0D01*
G01*
G37*
G04 #@! TD.AperFunction*
G04 #@! TA.AperFunction,SMDPad,CuDef*
G36*
G01*
X251945000Y-114550000D02*
X252245000Y-114550000D01*
G75*
G02*
X252395000Y-114700000I0J-150000D01*
G01*
X252395000Y-116350000D01*
G75*
G02*
X252245000Y-116500000I-150000J0D01*
G01*
X251945000Y-116500000D01*
G75*
G02*
X251795000Y-116350000I0J150000D01*
G01*
X251795000Y-114700000D01*
G75*
G02*
X251945000Y-114550000I150000J0D01*
G01*
G37*
G04 #@! TD.AperFunction*
G04 #@! TA.AperFunction,SMDPad,CuDef*
G36*
G01*
X251456250Y-124612500D02*
X250543750Y-124612500D01*
G75*
G02*
X250300000Y-124368750I0J243750D01*
G01*
X250300000Y-123881250D01*
G75*
G02*
X250543750Y-123637500I243750J0D01*
G01*
X251456250Y-123637500D01*
G75*
G02*
X251700000Y-123881250I0J-243750D01*
G01*
X251700000Y-124368750D01*
G75*
G02*
X251456250Y-124612500I-243750J0D01*
G01*
G37*
G04 #@! TD.AperFunction*
G04 #@! TA.AperFunction,SMDPad,CuDef*
G36*
G01*
X251456250Y-126487500D02*
X250543750Y-126487500D01*
G75*
G02*
X250300000Y-126243750I0J243750D01*
G01*
X250300000Y-125756250D01*
G75*
G02*
X250543750Y-125512500I243750J0D01*
G01*
X251456250Y-125512500D01*
G75*
G02*
X251700000Y-125756250I0J-243750D01*
G01*
X251700000Y-126243750D01*
G75*
G02*
X251456250Y-126487500I-243750J0D01*
G01*
G37*
G04 #@! TD.AperFunction*
G04 #@! TA.AperFunction,SMDPad,CuDef*
G36*
G01*
X254456250Y-124550000D02*
X253543750Y-124550000D01*
G75*
G02*
X253300000Y-124306250I0J243750D01*
G01*
X253300000Y-123818750D01*
G75*
G02*
X253543750Y-123575000I243750J0D01*
G01*
X254456250Y-123575000D01*
G75*
G02*
X254700000Y-123818750I0J-243750D01*
G01*
X254700000Y-124306250D01*
G75*
G02*
X254456250Y-124550000I-243750J0D01*
G01*
G37*
G04 #@! TD.AperFunction*
G04 #@! TA.AperFunction,SMDPad,CuDef*
G36*
G01*
X254456250Y-126425000D02*
X253543750Y-126425000D01*
G75*
G02*
X253300000Y-126181250I0J243750D01*
G01*
X253300000Y-125693750D01*
G75*
G02*
X253543750Y-125450000I243750J0D01*
G01*
X254456250Y-125450000D01*
G75*
G02*
X254700000Y-125693750I0J-243750D01*
G01*
X254700000Y-126181250D01*
G75*
G02*
X254456250Y-126425000I-243750J0D01*
G01*
G37*
G04 #@! TD.AperFunction*
G04 #@! TA.AperFunction,SMDPad,CuDef*
G36*
G01*
X252543750Y-112450000D02*
X253456250Y-112450000D01*
G75*
G02*
X253700000Y-112693750I0J-243750D01*
G01*
X253700000Y-113181250D01*
G75*
G02*
X253456250Y-113425000I-243750J0D01*
G01*
X252543750Y-113425000D01*
G75*
G02*
X252300000Y-113181250I0J243750D01*
G01*
X252300000Y-112693750D01*
G75*
G02*
X252543750Y-112450000I243750J0D01*
G01*
G37*
G04 #@! TD.AperFunction*
G04 #@! TA.AperFunction,SMDPad,CuDef*
G36*
G01*
X252543750Y-110575000D02*
X253456250Y-110575000D01*
G75*
G02*
X253700000Y-110818750I0J-243750D01*
G01*
X253700000Y-111306250D01*
G75*
G02*
X253456250Y-111550000I-243750J0D01*
G01*
X252543750Y-111550000D01*
G75*
G02*
X252300000Y-111306250I0J243750D01*
G01*
X252300000Y-110818750D01*
G75*
G02*
X252543750Y-110575000I243750J0D01*
G01*
G37*
G04 #@! TD.AperFunction*
X208370000Y-98770000D03*
D10*
X208370000Y-96230000D03*
X210910000Y-98770000D03*
X210910000Y-96230000D03*
X213450000Y-98770000D03*
X213450000Y-96230000D03*
X215990000Y-98770000D03*
X215990000Y-96230000D03*
X218530000Y-98770000D03*
X218530000Y-96230000D03*
X221070000Y-98770000D03*
X221070000Y-96230000D03*
X223610000Y-98770000D03*
X223610000Y-96230000D03*
X226150000Y-98770000D03*
X226150000Y-96230000D03*
X228690000Y-98770000D03*
X228690000Y-96230000D03*
X231230000Y-98770000D03*
X231230000Y-96230000D03*
X233770000Y-98770000D03*
X233770000Y-96230000D03*
X236310000Y-98770000D03*
X236310000Y-96230000D03*
X238850000Y-98770000D03*
X238850000Y-96230000D03*
X241390000Y-98770000D03*
X241390000Y-96230000D03*
X243930000Y-98770000D03*
X243930000Y-96230000D03*
X246470000Y-98770000D03*
X246470000Y-96230000D03*
X249010000Y-98770000D03*
X249010000Y-96230000D03*
X251550000Y-98770000D03*
X251550000Y-96230000D03*
X254090000Y-98770000D03*
X254090000Y-96230000D03*
X256630000Y-98770000D03*
X256630000Y-96230000D03*
D12*
X249530000Y-115710000D03*
X257000000Y-122000000D03*
X258000000Y-109000000D03*
X247750000Y-103250000D03*
X259000000Y-119000000D03*
X252000000Y-118250000D03*
X255000000Y-122750000D03*
D13*
X253365000Y-113302500D02*
X253000000Y-112937500D01*
X253365000Y-115525000D02*
X253365000Y-113302500D01*
X251062500Y-125937500D02*
X251000000Y-126000000D01*
X254000000Y-125937500D02*
X251062500Y-125937500D01*
X251000000Y-126000000D02*
X250000000Y-126000000D01*
X250000000Y-126000000D02*
X248000000Y-124000000D01*
D14*
X227439999Y-97519999D02*
X227840001Y-97920001D01*
X227840001Y-97920001D02*
X228690000Y-98770000D01*
X210309999Y-97519999D02*
X227439999Y-97519999D01*
X209059998Y-98770000D02*
X210309999Y-97519999D01*
X208370000Y-98770000D02*
X209059998Y-98770000D01*
X228690000Y-98770000D02*
X230898000Y-100978000D01*
X230898000Y-100978000D02*
X231750000Y-100978000D01*
X230898000Y-100978000D02*
X242978000Y-100978000D01*
X242978000Y-100978000D02*
X248000000Y-106000000D01*
X248000000Y-106000000D02*
X248000000Y-107937500D01*
X248000000Y-112668000D02*
X248269500Y-112937500D01*
X248269500Y-112937500D02*
X253000000Y-112937500D01*
X248000000Y-112668000D02*
X248000000Y-124000000D01*
X248000000Y-107937500D02*
X248000000Y-112668000D01*
D13*
X210910000Y-96230000D02*
X208370000Y-96230000D01*
X207167919Y-96230000D02*
X206750000Y-96647919D01*
X208370000Y-96230000D02*
X207167919Y-96230000D01*
D14*
X227868667Y-100070000D02*
X230046667Y-102248000D01*
X230046667Y-102248000D02*
X230226000Y-102248000D01*
X206750000Y-100070000D02*
X227868667Y-100070000D01*
D13*
X206750000Y-96647919D02*
X206750000Y-100070000D01*
D14*
X216256000Y-148476000D02*
X213970000Y-146190000D01*
X246482000Y-106312000D02*
X246482000Y-146952000D01*
X230046667Y-102248000D02*
X242418000Y-102248000D01*
X242418000Y-102248000D02*
X246482000Y-106312000D01*
X246482000Y-146952000D02*
X244958000Y-148476000D01*
X244958000Y-148476000D02*
X216256000Y-148476000D01*
D13*
X253000000Y-111062500D02*
X255937500Y-111062500D01*
X255937500Y-111062500D02*
X258000000Y-109000000D01*
X258000000Y-109000000D02*
X258000000Y-109000000D01*
X255905000Y-120905000D02*
X257000000Y-122000000D01*
X255905000Y-120475000D02*
X255905000Y-120905000D01*
D15*
X247319999Y-97079999D02*
X247329999Y-97079999D01*
X246470000Y-96230000D02*
X247319999Y-97079999D01*
X247329999Y-97079999D02*
X247750000Y-97500000D01*
X247750000Y-97500000D02*
X247750000Y-101500000D01*
X247750000Y-101500000D02*
X247750000Y-103250000D01*
X247750000Y-103250000D02*
X247750000Y-103250000D01*
D13*
X254635000Y-120475000D02*
X254635000Y-118365000D01*
X254635000Y-118365000D02*
X255000000Y-118000000D01*
X255000000Y-118000000D02*
X258000000Y-118000000D01*
X258000000Y-118000000D02*
X259000000Y-119000000D01*
X252095000Y-123030000D02*
X251000000Y-124125000D01*
X252095000Y-120475000D02*
X252095000Y-123030000D01*
D15*
X252000000Y-120380000D02*
X252095000Y-120475000D01*
X252000000Y-118250000D02*
X252000000Y-120380000D01*
D13*
X253365000Y-123427500D02*
X254000000Y-124062500D01*
X253365000Y-120475000D02*
X253365000Y-123427500D01*
D15*
X255000000Y-123062500D02*
X254000000Y-124062500D01*
X255000000Y-122750000D02*
X255000000Y-123062500D01*
D16*
G36*
X262449016Y-94732312D02*
G01*
X262880930Y-94862714D01*
X263279285Y-95074524D01*
X263628914Y-95359675D01*
X263916497Y-95707303D01*
X264131086Y-96104177D01*
X264264498Y-96535161D01*
X264315001Y-97015663D01*
X264315000Y-146966495D01*
X264267688Y-147449016D01*
X264137287Y-147880927D01*
X263925480Y-148279280D01*
X263640325Y-148628914D01*
X263292697Y-148916497D01*
X262895825Y-149131085D01*
X262464834Y-149264500D01*
X261984346Y-149315000D01*
X244958406Y-149315000D01*
X244999018Y-149311000D01*
X244999019Y-149311000D01*
X245121689Y-149298918D01*
X245279087Y-149251172D01*
X245424146Y-149173636D01*
X245551291Y-149069291D01*
X245577446Y-149037421D01*
X247043426Y-147571441D01*
X247075291Y-147545291D01*
X247179636Y-147418146D01*
X247257172Y-147273087D01*
X247304918Y-147115689D01*
X247317000Y-146993019D01*
X247317000Y-146993009D01*
X247321039Y-146952001D01*
X247317000Y-146910993D01*
X247317000Y-146304495D01*
X259515000Y-146304495D01*
X259515000Y-146695505D01*
X259591282Y-147079003D01*
X259740915Y-147440250D01*
X259958149Y-147765364D01*
X260234636Y-148041851D01*
X260559750Y-148259085D01*
X260920997Y-148408718D01*
X261304495Y-148485000D01*
X261695505Y-148485000D01*
X262079003Y-148408718D01*
X262440250Y-148259085D01*
X262765364Y-148041851D01*
X263041851Y-147765364D01*
X263259085Y-147440250D01*
X263408718Y-147079003D01*
X263485000Y-146695505D01*
X263485000Y-146304495D01*
X263408718Y-145920997D01*
X263259085Y-145559750D01*
X263041851Y-145234636D01*
X262765364Y-144958149D01*
X262440250Y-144740915D01*
X262079003Y-144591282D01*
X261695505Y-144515000D01*
X261304495Y-144515000D01*
X260920997Y-144591282D01*
X260559750Y-144740915D01*
X260234636Y-144958149D01*
X259958149Y-145234636D01*
X259740915Y-145559750D01*
X259591282Y-145920997D01*
X259515000Y-146304495D01*
X247317000Y-146304495D01*
X247317000Y-124562795D01*
X247343468Y-124595046D01*
X249343470Y-126595049D01*
X249371183Y-126628817D01*
X249404951Y-126656530D01*
X249404953Y-126656532D01*
X249429785Y-126676911D01*
X249505941Y-126739411D01*
X249659687Y-126821589D01*
X249826510Y-126872195D01*
X249939775Y-126883351D01*
X250053836Y-126976958D01*
X250206291Y-127058447D01*
X250371715Y-127108628D01*
X250543750Y-127125572D01*
X251456250Y-127125572D01*
X251628285Y-127108628D01*
X251793709Y-127058447D01*
X251946164Y-126976958D01*
X252079792Y-126867292D01*
X252116552Y-126822500D01*
X252941785Y-126822500D01*
X253053836Y-126914458D01*
X253206291Y-126995947D01*
X253371715Y-127046128D01*
X253543750Y-127063072D01*
X254456250Y-127063072D01*
X254628285Y-127046128D01*
X254793709Y-126995947D01*
X254946164Y-126914458D01*
X255079792Y-126804792D01*
X255189458Y-126671164D01*
X255270947Y-126518709D01*
X255321128Y-126353285D01*
X255338072Y-126181250D01*
X255338072Y-125693750D01*
X255321128Y-125521715D01*
X255270947Y-125356291D01*
X255189458Y-125203836D01*
X255079792Y-125070208D01*
X254994244Y-125000000D01*
X255079792Y-124929792D01*
X255189458Y-124796164D01*
X255270947Y-124643709D01*
X255321128Y-124478285D01*
X255338072Y-124306250D01*
X255338072Y-123818750D01*
X255334818Y-123785710D01*
X255513940Y-123711515D01*
X255691647Y-123592775D01*
X255842775Y-123441647D01*
X255961515Y-123263940D01*
X256043304Y-123066483D01*
X256085000Y-122856863D01*
X256085000Y-122643137D01*
X256043304Y-122433517D01*
X255961515Y-122236060D01*
X255842775Y-122058353D01*
X255744336Y-121959914D01*
X255778000Y-121926250D01*
X255778000Y-120602000D01*
X256032000Y-120602000D01*
X256032000Y-121926250D01*
X256190750Y-122085000D01*
X256205000Y-122088072D01*
X256329482Y-122075812D01*
X256449180Y-122039502D01*
X256559494Y-121980537D01*
X256656185Y-121901185D01*
X256735537Y-121804494D01*
X256794502Y-121694180D01*
X256830812Y-121574482D01*
X256843072Y-121450000D01*
X256840000Y-120760750D01*
X256681250Y-120602000D01*
X256032000Y-120602000D01*
X255778000Y-120602000D01*
X255758000Y-120602000D01*
X255758000Y-120348000D01*
X255778000Y-120348000D01*
X255778000Y-120328000D01*
X256032000Y-120328000D01*
X256032000Y-120348000D01*
X256681250Y-120348000D01*
X256840000Y-120189250D01*
X256843072Y-119500000D01*
X256830812Y-119375518D01*
X256794502Y-119255820D01*
X256735537Y-119145506D01*
X256656185Y-119048815D01*
X256559494Y-118969463D01*
X256449180Y-118910498D01*
X256365124Y-118885000D01*
X257633422Y-118885000D01*
X257929828Y-119181406D01*
X257956696Y-119316483D01*
X258038485Y-119513940D01*
X258157225Y-119691647D01*
X258308353Y-119842775D01*
X258486060Y-119961515D01*
X258683517Y-120043304D01*
X258893137Y-120085000D01*
X259106863Y-120085000D01*
X259316483Y-120043304D01*
X259513940Y-119961515D01*
X259691647Y-119842775D01*
X259842775Y-119691647D01*
X259961515Y-119513940D01*
X260043304Y-119316483D01*
X260085000Y-119106863D01*
X260085000Y-118893137D01*
X260043304Y-118683517D01*
X259961515Y-118486060D01*
X259842775Y-118308353D01*
X259691647Y-118157225D01*
X259513940Y-118038485D01*
X259316483Y-117956696D01*
X259181406Y-117929828D01*
X258656534Y-117404956D01*
X258628817Y-117371183D01*
X258494059Y-117260589D01*
X258340313Y-117178411D01*
X258173490Y-117127805D01*
X258043477Y-117115000D01*
X258043469Y-117115000D01*
X258000000Y-117110719D01*
X257956531Y-117115000D01*
X256234884Y-117115000D01*
X256356582Y-117078084D01*
X256492829Y-117005258D01*
X256612251Y-116907251D01*
X256710258Y-116787829D01*
X256783084Y-116651582D01*
X256827929Y-116503745D01*
X256843072Y-116350000D01*
X256843072Y-114700000D01*
X256827929Y-114546255D01*
X256783084Y-114398418D01*
X256710258Y-114262171D01*
X256612251Y-114142749D01*
X256492829Y-114044742D01*
X256356582Y-113971916D01*
X256208745Y-113927071D01*
X256055000Y-113911928D01*
X255755000Y-113911928D01*
X255601255Y-113927071D01*
X255453418Y-113971916D01*
X255317171Y-114044742D01*
X255270000Y-114083454D01*
X255222829Y-114044742D01*
X255086582Y-113971916D01*
X254938745Y-113927071D01*
X254785000Y-113911928D01*
X254485000Y-113911928D01*
X254331255Y-113927071D01*
X254250000Y-113951719D01*
X254250000Y-113557898D01*
X254270947Y-113518709D01*
X254321128Y-113353285D01*
X254338072Y-113181250D01*
X254338072Y-112693750D01*
X254321128Y-112521715D01*
X254270947Y-112356291D01*
X254189458Y-112203836D01*
X254079792Y-112070208D01*
X254073436Y-112064992D01*
X254151185Y-112001185D01*
X254230537Y-111904494D01*
X254289502Y-111794180D01*
X254325812Y-111674482D01*
X254338072Y-111550000D01*
X254335000Y-111348250D01*
X254176250Y-111189500D01*
X253127000Y-111189500D01*
X253127000Y-111209500D01*
X252873000Y-111209500D01*
X252873000Y-111189500D01*
X251823750Y-111189500D01*
X251665000Y-111348250D01*
X251661928Y-111550000D01*
X251674188Y-111674482D01*
X251710498Y-111794180D01*
X251769463Y-111904494D01*
X251848815Y-112001185D01*
X251926564Y-112064992D01*
X251920208Y-112070208D01*
X251893707Y-112102500D01*
X248835000Y-112102500D01*
X248835000Y-110575000D01*
X251661928Y-110575000D01*
X251665000Y-110776750D01*
X251823750Y-110935500D01*
X252873000Y-110935500D01*
X252873000Y-110098750D01*
X253127000Y-110098750D01*
X253127000Y-110935500D01*
X254176250Y-110935500D01*
X254335000Y-110776750D01*
X254338072Y-110575000D01*
X254325812Y-110450518D01*
X254289502Y-110330820D01*
X254230537Y-110220506D01*
X254151185Y-110123815D01*
X254054494Y-110044463D01*
X253944180Y-109985498D01*
X253824482Y-109949188D01*
X253700000Y-109936928D01*
X253285750Y-109940000D01*
X253127000Y-110098750D01*
X252873000Y-110098750D01*
X252714250Y-109940000D01*
X252300000Y-109936928D01*
X252175518Y-109949188D01*
X252055820Y-109985498D01*
X251945506Y-110044463D01*
X251848815Y-110123815D01*
X251769463Y-110220506D01*
X251710498Y-110330820D01*
X251674188Y-110450518D01*
X251661928Y-110575000D01*
X248835000Y-110575000D01*
X248835000Y-106041018D01*
X248839040Y-106000000D01*
X248822918Y-105836312D01*
X248775172Y-105678913D01*
X248697636Y-105533854D01*
X248645251Y-105470023D01*
X248619439Y-105438570D01*
X248619437Y-105438568D01*
X248593291Y-105406709D01*
X248561433Y-105380564D01*
X247484267Y-104303399D01*
X247643137Y-104335000D01*
X247856863Y-104335000D01*
X248066483Y-104293304D01*
X248263940Y-104211515D01*
X248441647Y-104092775D01*
X248592775Y-103941647D01*
X248711515Y-103763940D01*
X248793304Y-103566483D01*
X248835000Y-103356863D01*
X248835000Y-103143137D01*
X248793304Y-102933517D01*
X248711515Y-102736060D01*
X248592775Y-102558353D01*
X248485000Y-102450578D01*
X248485000Y-100159890D01*
X248576842Y-100197932D01*
X248863740Y-100255000D01*
X249156260Y-100255000D01*
X249443158Y-100197932D01*
X249713411Y-100085990D01*
X249956632Y-99923475D01*
X250163475Y-99716632D01*
X250280000Y-99542240D01*
X250396525Y-99716632D01*
X250603368Y-99923475D01*
X250846589Y-100085990D01*
X251116842Y-100197932D01*
X251403740Y-100255000D01*
X251696260Y-100255000D01*
X251983158Y-100197932D01*
X252253411Y-100085990D01*
X252496632Y-99923475D01*
X252703475Y-99716632D01*
X252820000Y-99542240D01*
X252936525Y-99716632D01*
X253143368Y-99923475D01*
X253386589Y-100085990D01*
X253656842Y-100197932D01*
X253943740Y-100255000D01*
X254236260Y-100255000D01*
X254523158Y-100197932D01*
X254793411Y-100085990D01*
X255036632Y-99923475D01*
X255243475Y-99716632D01*
X255365195Y-99534466D01*
X255434822Y-99651355D01*
X255629731Y-99867588D01*
X255863080Y-100041641D01*
X256125901Y-100166825D01*
X256273110Y-100211476D01*
X256503000Y-100090155D01*
X256503000Y-98897000D01*
X256757000Y-98897000D01*
X256757000Y-100090155D01*
X256986890Y-100211476D01*
X257134099Y-100166825D01*
X257396920Y-100041641D01*
X257630269Y-99867588D01*
X257825178Y-99651355D01*
X257974157Y-99401252D01*
X258071481Y-99126891D01*
X257950814Y-98897000D01*
X256757000Y-98897000D01*
X256503000Y-98897000D01*
X256483000Y-98897000D01*
X256483000Y-98643000D01*
X256503000Y-98643000D01*
X256503000Y-98623000D01*
X256757000Y-98623000D01*
X256757000Y-98643000D01*
X257950814Y-98643000D01*
X258071481Y-98413109D01*
X257974157Y-98138748D01*
X257825178Y-97888645D01*
X257630269Y-97672412D01*
X257400594Y-97501100D01*
X257576632Y-97383475D01*
X257655612Y-97304495D01*
X259515000Y-97304495D01*
X259515000Y-97695505D01*
X259591282Y-98079003D01*
X259740915Y-98440250D01*
X259958149Y-98765364D01*
X260234636Y-99041851D01*
X260559750Y-99259085D01*
X260920997Y-99408718D01*
X261304495Y-99485000D01*
X261695505Y-99485000D01*
X262079003Y-99408718D01*
X262440250Y-99259085D01*
X262765364Y-99041851D01*
X263041851Y-98765364D01*
X263259085Y-98440250D01*
X263408718Y-98079003D01*
X263485000Y-97695505D01*
X263485000Y-97304495D01*
X263408718Y-96920997D01*
X263259085Y-96559750D01*
X263041851Y-96234636D01*
X262765364Y-95958149D01*
X262440250Y-95740915D01*
X262079003Y-95591282D01*
X261695505Y-95515000D01*
X261304495Y-95515000D01*
X260920997Y-95591282D01*
X260559750Y-95740915D01*
X260234636Y-95958149D01*
X259958149Y-96234636D01*
X259740915Y-96559750D01*
X259591282Y-96920997D01*
X259515000Y-97304495D01*
X257655612Y-97304495D01*
X257783475Y-97176632D01*
X257945990Y-96933411D01*
X258057932Y-96663158D01*
X258115000Y-96376260D01*
X258115000Y-96083740D01*
X258057932Y-95796842D01*
X257945990Y-95526589D01*
X257783475Y-95283368D01*
X257576632Y-95076525D01*
X257333411Y-94914010D01*
X257063158Y-94802068D01*
X256776260Y-94745000D01*
X256483740Y-94745000D01*
X256196842Y-94802068D01*
X255926589Y-94914010D01*
X255683368Y-95076525D01*
X255476525Y-95283368D01*
X255360000Y-95457760D01*
X255243475Y-95283368D01*
X255036632Y-95076525D01*
X254793411Y-94914010D01*
X254523158Y-94802068D01*
X254236260Y-94745000D01*
X253943740Y-94745000D01*
X253656842Y-94802068D01*
X253386589Y-94914010D01*
X253143368Y-95076525D01*
X252936525Y-95283368D01*
X252820000Y-95457760D01*
X252703475Y-95283368D01*
X252496632Y-95076525D01*
X252253411Y-94914010D01*
X251983158Y-94802068D01*
X251696260Y-94745000D01*
X251403740Y-94745000D01*
X251116842Y-94802068D01*
X250846589Y-94914010D01*
X250603368Y-95076525D01*
X250396525Y-95283368D01*
X250274805Y-95465534D01*
X250205178Y-95348645D01*
X250010269Y-95132412D01*
X249776920Y-94958359D01*
X249514099Y-94833175D01*
X249366890Y-94788524D01*
X249137000Y-94909845D01*
X249137000Y-96103000D01*
X249157000Y-96103000D01*
X249157000Y-96357000D01*
X249137000Y-96357000D01*
X249137000Y-96377000D01*
X248883000Y-96377000D01*
X248883000Y-96357000D01*
X248863000Y-96357000D01*
X248863000Y-96103000D01*
X248883000Y-96103000D01*
X248883000Y-94909845D01*
X248653110Y-94788524D01*
X248505901Y-94833175D01*
X248243080Y-94958359D01*
X248009731Y-95132412D01*
X247814822Y-95348645D01*
X247745195Y-95465534D01*
X247623475Y-95283368D01*
X247416632Y-95076525D01*
X247173411Y-94914010D01*
X246903158Y-94802068D01*
X246616260Y-94745000D01*
X246323740Y-94745000D01*
X246036842Y-94802068D01*
X245766589Y-94914010D01*
X245523368Y-95076525D01*
X245316525Y-95283368D01*
X245194805Y-95465534D01*
X245125178Y-95348645D01*
X244930269Y-95132412D01*
X244696920Y-94958359D01*
X244434099Y-94833175D01*
X244286890Y-94788524D01*
X244057000Y-94909845D01*
X244057000Y-96103000D01*
X244077000Y-96103000D01*
X244077000Y-96357000D01*
X244057000Y-96357000D01*
X244057000Y-96377000D01*
X243803000Y-96377000D01*
X243803000Y-96357000D01*
X243783000Y-96357000D01*
X243783000Y-96103000D01*
X243803000Y-96103000D01*
X243803000Y-94909845D01*
X243573110Y-94788524D01*
X243425901Y-94833175D01*
X243163080Y-94958359D01*
X242929731Y-95132412D01*
X242734822Y-95348645D01*
X242665195Y-95465534D01*
X242543475Y-95283368D01*
X242336632Y-95076525D01*
X242093411Y-94914010D01*
X241823158Y-94802068D01*
X241536260Y-94745000D01*
X241243740Y-94745000D01*
X240956842Y-94802068D01*
X240686589Y-94914010D01*
X240443368Y-95076525D01*
X240236525Y-95283368D01*
X240120000Y-95457760D01*
X240003475Y-95283368D01*
X239796632Y-95076525D01*
X239553411Y-94914010D01*
X239283158Y-94802068D01*
X238996260Y-94745000D01*
X238703740Y-94745000D01*
X238416842Y-94802068D01*
X238146589Y-94914010D01*
X237903368Y-95076525D01*
X237696525Y-95283368D01*
X237580000Y-95457760D01*
X237463475Y-95283368D01*
X237256632Y-95076525D01*
X237013411Y-94914010D01*
X236743158Y-94802068D01*
X236456260Y-94745000D01*
X236163740Y-94745000D01*
X235876842Y-94802068D01*
X235606589Y-94914010D01*
X235363368Y-95076525D01*
X235156525Y-95283368D01*
X235040000Y-95457760D01*
X234923475Y-95283368D01*
X234716632Y-95076525D01*
X234473411Y-94914010D01*
X234203158Y-94802068D01*
X233916260Y-94745000D01*
X233623740Y-94745000D01*
X233336842Y-94802068D01*
X233066589Y-94914010D01*
X232823368Y-95076525D01*
X232616525Y-95283368D01*
X232494805Y-95465534D01*
X232425178Y-95348645D01*
X232230269Y-95132412D01*
X231996920Y-94958359D01*
X231734099Y-94833175D01*
X231586890Y-94788524D01*
X231357000Y-94909845D01*
X231357000Y-96103000D01*
X231377000Y-96103000D01*
X231377000Y-96357000D01*
X231357000Y-96357000D01*
X231357000Y-96377000D01*
X231103000Y-96377000D01*
X231103000Y-96357000D01*
X231083000Y-96357000D01*
X231083000Y-96103000D01*
X231103000Y-96103000D01*
X231103000Y-94909845D01*
X230873110Y-94788524D01*
X230725901Y-94833175D01*
X230463080Y-94958359D01*
X230229731Y-95132412D01*
X230034822Y-95348645D01*
X229965195Y-95465534D01*
X229843475Y-95283368D01*
X229636632Y-95076525D01*
X229393411Y-94914010D01*
X229123158Y-94802068D01*
X228836260Y-94745000D01*
X228543740Y-94745000D01*
X228256842Y-94802068D01*
X227986589Y-94914010D01*
X227743368Y-95076525D01*
X227536525Y-95283368D01*
X227420000Y-95457760D01*
X227303475Y-95283368D01*
X227096632Y-95076525D01*
X226853411Y-94914010D01*
X226583158Y-94802068D01*
X226296260Y-94745000D01*
X226003740Y-94745000D01*
X225716842Y-94802068D01*
X225446589Y-94914010D01*
X225203368Y-95076525D01*
X224996525Y-95283368D01*
X224874805Y-95465534D01*
X224805178Y-95348645D01*
X224610269Y-95132412D01*
X224376920Y-94958359D01*
X224114099Y-94833175D01*
X223966890Y-94788524D01*
X223737000Y-94909845D01*
X223737000Y-96103000D01*
X223757000Y-96103000D01*
X223757000Y-96357000D01*
X223737000Y-96357000D01*
X223737000Y-96377000D01*
X223483000Y-96377000D01*
X223483000Y-96357000D01*
X223463000Y-96357000D01*
X223463000Y-96103000D01*
X223483000Y-96103000D01*
X223483000Y-94909845D01*
X223253110Y-94788524D01*
X223105901Y-94833175D01*
X222843080Y-94958359D01*
X222609731Y-95132412D01*
X222414822Y-95348645D01*
X222345195Y-95465534D01*
X222223475Y-95283368D01*
X222016632Y-95076525D01*
X221773411Y-94914010D01*
X221503158Y-94802068D01*
X221216260Y-94745000D01*
X220923740Y-94745000D01*
X220636842Y-94802068D01*
X220366589Y-94914010D01*
X220123368Y-95076525D01*
X219916525Y-95283368D01*
X219800000Y-95457760D01*
X219683475Y-95283368D01*
X219476632Y-95076525D01*
X219233411Y-94914010D01*
X218963158Y-94802068D01*
X218676260Y-94745000D01*
X218383740Y-94745000D01*
X218096842Y-94802068D01*
X217826589Y-94914010D01*
X217583368Y-95076525D01*
X217376525Y-95283368D01*
X217260000Y-95457760D01*
X217143475Y-95283368D01*
X216936632Y-95076525D01*
X216693411Y-94914010D01*
X216423158Y-94802068D01*
X216136260Y-94745000D01*
X215843740Y-94745000D01*
X215556842Y-94802068D01*
X215286589Y-94914010D01*
X215043368Y-95076525D01*
X214836525Y-95283368D01*
X214714805Y-95465534D01*
X214645178Y-95348645D01*
X214450269Y-95132412D01*
X214216920Y-94958359D01*
X213954099Y-94833175D01*
X213806890Y-94788524D01*
X213577000Y-94909845D01*
X213577000Y-96103000D01*
X213597000Y-96103000D01*
X213597000Y-96357000D01*
X213577000Y-96357000D01*
X213577000Y-96377000D01*
X213323000Y-96377000D01*
X213323000Y-96357000D01*
X213303000Y-96357000D01*
X213303000Y-96103000D01*
X213323000Y-96103000D01*
X213323000Y-94909845D01*
X213093110Y-94788524D01*
X212945901Y-94833175D01*
X212683080Y-94958359D01*
X212449731Y-95132412D01*
X212254822Y-95348645D01*
X212185195Y-95465534D01*
X212063475Y-95283368D01*
X211856632Y-95076525D01*
X211613411Y-94914010D01*
X211343158Y-94802068D01*
X211056260Y-94745000D01*
X210763740Y-94745000D01*
X210476842Y-94802068D01*
X210206589Y-94914010D01*
X209963368Y-95076525D01*
X209756525Y-95283368D01*
X209715344Y-95345000D01*
X209564656Y-95345000D01*
X209523475Y-95283368D01*
X209316632Y-95076525D01*
X209073411Y-94914010D01*
X208803158Y-94802068D01*
X208516260Y-94745000D01*
X208223740Y-94745000D01*
X207936842Y-94802068D01*
X207666589Y-94914010D01*
X207423368Y-95076525D01*
X207216525Y-95283368D01*
X207177569Y-95341669D01*
X207167919Y-95340719D01*
X207124450Y-95345000D01*
X207124442Y-95345000D01*
X206994429Y-95357805D01*
X206827606Y-95408411D01*
X206673860Y-95490589D01*
X206539102Y-95601183D01*
X206511385Y-95634956D01*
X206154956Y-95991385D01*
X206121183Y-96019102D01*
X206010589Y-96153861D01*
X205928411Y-96307607D01*
X205897401Y-96409833D01*
X205880389Y-96465913D01*
X205877805Y-96474430D01*
X205865000Y-96604443D01*
X205865000Y-96604450D01*
X205860719Y-96647919D01*
X205865000Y-96691388D01*
X205865001Y-100113477D01*
X205877806Y-100243490D01*
X205928412Y-100410313D01*
X206010590Y-100564059D01*
X206121184Y-100698817D01*
X206255942Y-100809411D01*
X206409688Y-100891589D01*
X206576511Y-100942195D01*
X206750000Y-100959282D01*
X206923490Y-100942195D01*
X207046104Y-100905000D01*
X227522800Y-100905000D01*
X228281051Y-101663252D01*
X228017684Y-101603140D01*
X226174423Y-101353453D01*
X224316200Y-101270000D01*
X222457977Y-101353453D01*
X220614716Y-101603140D01*
X218801256Y-102017050D01*
X217032200Y-102591851D01*
X215321790Y-103322915D01*
X213683798Y-104204357D01*
X212131412Y-105229078D01*
X210677130Y-106388829D01*
X209983319Y-107052180D01*
X210149110Y-106651925D01*
X210235000Y-106220128D01*
X210235000Y-105779872D01*
X210149110Y-105348075D01*
X209980631Y-104941331D01*
X209736038Y-104575271D01*
X209424729Y-104263962D01*
X209058669Y-104019369D01*
X208651925Y-103850890D01*
X208220128Y-103765000D01*
X207779872Y-103765000D01*
X207348075Y-103850890D01*
X206941331Y-104019369D01*
X206575271Y-104263962D01*
X206263962Y-104575271D01*
X206019369Y-104941331D01*
X205850890Y-105348075D01*
X205765000Y-105779872D01*
X205765000Y-106220128D01*
X205850890Y-106651925D01*
X206019369Y-107058669D01*
X206263962Y-107424729D01*
X206575271Y-107736038D01*
X206941331Y-107980631D01*
X207348075Y-108149110D01*
X207779872Y-108235000D01*
X208220128Y-108235000D01*
X208651925Y-108149110D01*
X209058669Y-107980631D01*
X209073887Y-107970462D01*
X208108833Y-109075056D01*
X207015496Y-110579906D01*
X206061455Y-112176703D01*
X205254389Y-113852591D01*
X204600798Y-115594078D01*
X204105944Y-117387141D01*
X203773811Y-119217344D01*
X203607074Y-121069952D01*
X203607074Y-122930048D01*
X203773811Y-124782656D01*
X204105944Y-126612859D01*
X204600798Y-128405922D01*
X205254389Y-130147409D01*
X206061455Y-131823297D01*
X207015496Y-133420094D01*
X208108833Y-134924944D01*
X209073887Y-136029538D01*
X209058669Y-136019369D01*
X208651925Y-135850890D01*
X208220128Y-135765000D01*
X207779872Y-135765000D01*
X207348075Y-135850890D01*
X206941331Y-136019369D01*
X206575271Y-136263962D01*
X206263962Y-136575271D01*
X206019369Y-136941331D01*
X205850890Y-137348075D01*
X205765000Y-137779872D01*
X205765000Y-138220128D01*
X205850890Y-138651925D01*
X206019369Y-139058669D01*
X206263962Y-139424729D01*
X206575271Y-139736038D01*
X206941331Y-139980631D01*
X207348075Y-140149110D01*
X207779872Y-140235000D01*
X208220128Y-140235000D01*
X208651925Y-140149110D01*
X209058669Y-139980631D01*
X209424729Y-139736038D01*
X209736038Y-139424729D01*
X209980631Y-139058669D01*
X210149110Y-138651925D01*
X210235000Y-138220128D01*
X210235000Y-137779872D01*
X210149110Y-137348075D01*
X209983319Y-136947820D01*
X210677130Y-137611171D01*
X212131412Y-138770922D01*
X213683798Y-139795643D01*
X215321790Y-140677085D01*
X217032200Y-141408149D01*
X218801256Y-141982950D01*
X220614716Y-142396860D01*
X222457977Y-142646547D01*
X224316200Y-142730000D01*
X226174423Y-142646547D01*
X228017684Y-142396860D01*
X229831144Y-141982950D01*
X231600200Y-141408149D01*
X233310610Y-140677085D01*
X234948602Y-139795643D01*
X236500988Y-138770922D01*
X237769011Y-137759708D01*
X237765000Y-137779872D01*
X237765000Y-138220128D01*
X237850890Y-138651925D01*
X238019369Y-139058669D01*
X238263962Y-139424729D01*
X238575271Y-139736038D01*
X238941331Y-139980631D01*
X239348075Y-140149110D01*
X239779872Y-140235000D01*
X240220128Y-140235000D01*
X240651925Y-140149110D01*
X241058669Y-139980631D01*
X241424729Y-139736038D01*
X241736038Y-139424729D01*
X241980631Y-139058669D01*
X242149110Y-138651925D01*
X242235000Y-138220128D01*
X242235000Y-137779872D01*
X242149110Y-137348075D01*
X241980631Y-136941331D01*
X241736038Y-136575271D01*
X241424729Y-136263962D01*
X241058669Y-136019369D01*
X240651925Y-135850890D01*
X240220128Y-135765000D01*
X239789632Y-135765000D01*
X240523567Y-134924944D01*
X241616904Y-133420094D01*
X242570945Y-131823297D01*
X243378011Y-130147409D01*
X244031602Y-128405922D01*
X244526456Y-126612859D01*
X244858589Y-124782656D01*
X245025326Y-122930048D01*
X245025326Y-121069952D01*
X244858589Y-119217344D01*
X244526456Y-117387141D01*
X244031602Y-115594078D01*
X243378011Y-113852591D01*
X242570945Y-112176703D01*
X241616904Y-110579906D01*
X240523567Y-109075056D01*
X239789632Y-108235000D01*
X240220128Y-108235000D01*
X240651925Y-108149110D01*
X241058669Y-107980631D01*
X241424729Y-107736038D01*
X241736038Y-107424729D01*
X241980631Y-107058669D01*
X242149110Y-106651925D01*
X242235000Y-106220128D01*
X242235000Y-105779872D01*
X242149110Y-105348075D01*
X241980631Y-104941331D01*
X241736038Y-104575271D01*
X241424729Y-104263962D01*
X241058669Y-104019369D01*
X240651925Y-103850890D01*
X240220128Y-103765000D01*
X239779872Y-103765000D01*
X239348075Y-103850890D01*
X238941331Y-104019369D01*
X238575271Y-104263962D01*
X238263962Y-104575271D01*
X238019369Y-104941331D01*
X237850890Y-105348075D01*
X237765000Y-105779872D01*
X237765000Y-106220128D01*
X237769011Y-106240292D01*
X236500988Y-105229078D01*
X234948602Y-104204357D01*
X233310610Y-103322915D01*
X232749301Y-103083000D01*
X242072133Y-103083000D01*
X245647000Y-106657869D01*
X245647001Y-129447600D01*
X245634410Y-129442513D01*
X245577165Y-129418450D01*
X245568009Y-129415685D01*
X245380783Y-129360582D01*
X245319775Y-129348945D01*
X245258985Y-129336466D01*
X245249466Y-129335532D01*
X245055105Y-129317843D01*
X244992981Y-129318277D01*
X244930933Y-129317844D01*
X244921426Y-129318776D01*
X244921419Y-129318776D01*
X244921413Y-129318777D01*
X244727318Y-129339178D01*
X244666504Y-129351661D01*
X244605519Y-129363295D01*
X244596363Y-129366059D01*
X244409925Y-129423771D01*
X244352692Y-129447830D01*
X244295127Y-129471087D01*
X244286682Y-129475577D01*
X244115006Y-129568402D01*
X244063532Y-129603122D01*
X244011582Y-129637117D01*
X244004170Y-129643162D01*
X243853793Y-129767565D01*
X243810027Y-129811638D01*
X243765689Y-129855057D01*
X243759592Y-129862426D01*
X243636242Y-130013668D01*
X243601881Y-130065386D01*
X243566809Y-130116607D01*
X243562260Y-130125020D01*
X243470635Y-130297343D01*
X243446978Y-130354739D01*
X243422519Y-130411807D01*
X243419690Y-130420943D01*
X243363281Y-130607780D01*
X243351219Y-130668698D01*
X243338314Y-130729410D01*
X243337314Y-130738922D01*
X243318269Y-130933155D01*
X243318269Y-130933173D01*
X243315001Y-130966353D01*
X243315000Y-146033646D01*
X243318366Y-146067821D01*
X243318366Y-146080806D01*
X243319366Y-146090318D01*
X243341121Y-146284268D01*
X243354025Y-146344976D01*
X243366089Y-146405901D01*
X243368917Y-146415038D01*
X243427930Y-146601068D01*
X243452377Y-146658105D01*
X243476046Y-146715531D01*
X243480595Y-146723944D01*
X243574617Y-146894969D01*
X243609692Y-146946194D01*
X243644050Y-146997906D01*
X243650146Y-147005276D01*
X243775596Y-147154782D01*
X243819974Y-147198240D01*
X243863703Y-147242275D01*
X243871109Y-147248315D01*
X243871113Y-147248319D01*
X243871115Y-147248320D01*
X244023214Y-147370611D01*
X244075139Y-147404589D01*
X244126632Y-147439322D01*
X244135077Y-147443812D01*
X244308033Y-147534232D01*
X244365590Y-147557487D01*
X244422835Y-147581550D01*
X244431991Y-147584315D01*
X244614966Y-147638167D01*
X244612133Y-147641000D01*
X219367188Y-147641000D01*
X219483158Y-147617932D01*
X219753411Y-147505990D01*
X219996632Y-147343475D01*
X220203475Y-147136632D01*
X220365990Y-146893411D01*
X220477932Y-146623158D01*
X220535000Y-146336260D01*
X220535000Y-146043740D01*
X220477932Y-145756842D01*
X220365990Y-145486589D01*
X220203475Y-145243368D01*
X219996632Y-145036525D01*
X219753411Y-144874010D01*
X219483158Y-144762068D01*
X219196260Y-144705000D01*
X218903740Y-144705000D01*
X218616842Y-144762068D01*
X218346589Y-144874010D01*
X218103368Y-145036525D01*
X217896525Y-145243368D01*
X217780000Y-145417760D01*
X217663475Y-145243368D01*
X217456632Y-145036525D01*
X217213411Y-144874010D01*
X216943158Y-144762068D01*
X216656260Y-144705000D01*
X216363740Y-144705000D01*
X216076842Y-144762068D01*
X215806589Y-144874010D01*
X215563368Y-145036525D01*
X215356525Y-145243368D01*
X215240000Y-145417760D01*
X215123475Y-145243368D01*
X214916632Y-145036525D01*
X214673411Y-144874010D01*
X214403158Y-144762068D01*
X214116260Y-144705000D01*
X213823740Y-144705000D01*
X213536842Y-144762068D01*
X213266589Y-144874010D01*
X213023368Y-145036525D01*
X212891513Y-145168380D01*
X212869502Y-145095820D01*
X212810537Y-144985506D01*
X212731185Y-144888815D01*
X212634494Y-144809463D01*
X212524180Y-144750498D01*
X212404482Y-144714188D01*
X212280000Y-144701928D01*
X211715750Y-144705000D01*
X211557000Y-144863750D01*
X211557000Y-146063000D01*
X211577000Y-146063000D01*
X211577000Y-146317000D01*
X211557000Y-146317000D01*
X211557000Y-147516250D01*
X211715750Y-147675000D01*
X212280000Y-147678072D01*
X212404482Y-147665812D01*
X212524180Y-147629502D01*
X212634494Y-147570537D01*
X212731185Y-147491185D01*
X212810537Y-147394494D01*
X212869502Y-147284180D01*
X212891513Y-147211620D01*
X213023368Y-147343475D01*
X213266589Y-147505990D01*
X213536842Y-147617932D01*
X213823740Y-147675000D01*
X214116260Y-147675000D01*
X214247940Y-147648807D01*
X215636559Y-149037427D01*
X215662709Y-149069291D01*
X215789033Y-149172962D01*
X215789854Y-149173636D01*
X215934913Y-149251172D01*
X216092311Y-149298918D01*
X216255593Y-149315000D01*
X203033504Y-149315000D01*
X202550984Y-149267688D01*
X202119073Y-149137287D01*
X201720720Y-148925480D01*
X201371086Y-148640325D01*
X201083503Y-148292697D01*
X200868915Y-147895825D01*
X200735500Y-147464834D01*
X200685000Y-146984346D01*
X200685000Y-146304495D01*
X201515000Y-146304495D01*
X201515000Y-146695505D01*
X201591282Y-147079003D01*
X201740915Y-147440250D01*
X201958149Y-147765364D01*
X202234636Y-148041851D01*
X202559750Y-148259085D01*
X202920997Y-148408718D01*
X203304495Y-148485000D01*
X203695505Y-148485000D01*
X204079003Y-148408718D01*
X204440250Y-148259085D01*
X204765364Y-148041851D01*
X205041851Y-147765364D01*
X205259085Y-147440250D01*
X205408718Y-147079003D01*
X205416476Y-147040000D01*
X209941928Y-147040000D01*
X209954188Y-147164482D01*
X209990498Y-147284180D01*
X210049463Y-147394494D01*
X210128815Y-147491185D01*
X210225506Y-147570537D01*
X210335820Y-147629502D01*
X210455518Y-147665812D01*
X210580000Y-147678072D01*
X211144250Y-147675000D01*
X211303000Y-147516250D01*
X211303000Y-146317000D01*
X210103750Y-146317000D01*
X209945000Y-146475750D01*
X209941928Y-147040000D01*
X205416476Y-147040000D01*
X205485000Y-146695505D01*
X205485000Y-146304495D01*
X205408718Y-145920997D01*
X205259085Y-145559750D01*
X205112253Y-145340000D01*
X209941928Y-145340000D01*
X209945000Y-145904250D01*
X210103750Y-146063000D01*
X211303000Y-146063000D01*
X211303000Y-144863750D01*
X211144250Y-144705000D01*
X210580000Y-144701928D01*
X210455518Y-144714188D01*
X210335820Y-144750498D01*
X210225506Y-144809463D01*
X210128815Y-144888815D01*
X210049463Y-144985506D01*
X209990498Y-145095820D01*
X209954188Y-145215518D01*
X209941928Y-145340000D01*
X205112253Y-145340000D01*
X205041851Y-145234636D01*
X204765364Y-144958149D01*
X204440250Y-144740915D01*
X204079003Y-144591282D01*
X203695505Y-144515000D01*
X203304495Y-144515000D01*
X202920997Y-144591282D01*
X202559750Y-144740915D01*
X202234636Y-144958149D01*
X201958149Y-145234636D01*
X201740915Y-145559750D01*
X201591282Y-145920997D01*
X201515000Y-146304495D01*
X200685000Y-146304495D01*
X200685000Y-131185307D01*
X202328689Y-131188014D01*
X202358509Y-131185127D01*
X202359573Y-131185134D01*
X202369092Y-131184201D01*
X202381078Y-131182941D01*
X202429341Y-131178268D01*
X202431374Y-131177655D01*
X202466140Y-131174001D01*
X202526990Y-131161510D01*
X202587942Y-131149883D01*
X202597096Y-131147120D01*
X202597102Y-131147118D01*
X202690317Y-131118263D01*
X202747533Y-131094211D01*
X202805119Y-131070945D01*
X202813564Y-131066455D01*
X202899401Y-131020042D01*
X202950867Y-130985327D01*
X203002821Y-130951329D01*
X203010232Y-130945285D01*
X203085421Y-130883083D01*
X203129162Y-130839035D01*
X203173522Y-130795596D01*
X203179618Y-130788226D01*
X203179623Y-130788221D01*
X203179627Y-130788215D01*
X203241294Y-130712605D01*
X203275632Y-130660924D01*
X203310733Y-130609659D01*
X203315282Y-130601246D01*
X203361094Y-130515085D01*
X203384758Y-130457669D01*
X203409208Y-130400626D01*
X203412036Y-130391490D01*
X203440241Y-130298072D01*
X203452303Y-130237152D01*
X203465209Y-130176435D01*
X203466209Y-130166923D01*
X203475731Y-130069806D01*
X203475731Y-130069801D01*
X203478990Y-130036813D01*
X203483708Y-113965881D01*
X203480854Y-113936813D01*
X203480869Y-113934627D01*
X203479936Y-113925109D01*
X203476414Y-113891601D01*
X203473826Y-113865242D01*
X203473547Y-113864322D01*
X203469736Y-113828060D01*
X203457247Y-113767217D01*
X203445618Y-113706258D01*
X203442854Y-113697102D01*
X203413998Y-113603883D01*
X203389932Y-113546634D01*
X203366679Y-113489081D01*
X203362189Y-113480636D01*
X203315777Y-113394798D01*
X203281050Y-113343315D01*
X203247064Y-113291379D01*
X203241020Y-113283967D01*
X203178818Y-113208779D01*
X203134751Y-113165018D01*
X203091330Y-113120678D01*
X203083961Y-113114581D01*
X203008340Y-113052906D01*
X202956659Y-113018568D01*
X202905394Y-112983467D01*
X202896981Y-112978918D01*
X202810820Y-112933106D01*
X202753404Y-112909442D01*
X202696361Y-112884992D01*
X202687225Y-112882164D01*
X202593807Y-112853959D01*
X202532895Y-112841898D01*
X202472171Y-112828991D01*
X202462659Y-112827991D01*
X202365541Y-112818469D01*
X202365535Y-112818469D01*
X202332423Y-112815204D01*
X200685000Y-112815021D01*
X200685000Y-97304495D01*
X201515000Y-97304495D01*
X201515000Y-97695505D01*
X201591282Y-98079003D01*
X201740915Y-98440250D01*
X201958149Y-98765364D01*
X202234636Y-99041851D01*
X202559750Y-99259085D01*
X202920997Y-99408718D01*
X203304495Y-99485000D01*
X203695505Y-99485000D01*
X204079003Y-99408718D01*
X204440250Y-99259085D01*
X204765364Y-99041851D01*
X205041851Y-98765364D01*
X205259085Y-98440250D01*
X205408718Y-98079003D01*
X205485000Y-97695505D01*
X205485000Y-97304495D01*
X205408718Y-96920997D01*
X205259085Y-96559750D01*
X205041851Y-96234636D01*
X204765364Y-95958149D01*
X204440250Y-95740915D01*
X204079003Y-95591282D01*
X203695505Y-95515000D01*
X203304495Y-95515000D01*
X202920997Y-95591282D01*
X202559750Y-95740915D01*
X202234636Y-95958149D01*
X201958149Y-96234636D01*
X201740915Y-96559750D01*
X201591282Y-96920997D01*
X201515000Y-97304495D01*
X200685000Y-97304495D01*
X200685000Y-97033505D01*
X200732312Y-96550984D01*
X200862714Y-96119070D01*
X201074524Y-95720715D01*
X201359675Y-95371086D01*
X201707303Y-95083503D01*
X202104177Y-94868914D01*
X202535161Y-94735502D01*
X203015654Y-94685000D01*
X261966495Y-94685000D01*
X262449016Y-94732312D01*
G37*
X262449016Y-94732312D02*
X262880930Y-94862714D01*
X263279285Y-95074524D01*
X263628914Y-95359675D01*
X263916497Y-95707303D01*
X264131086Y-96104177D01*
X264264498Y-96535161D01*
X264315001Y-97015663D01*
X264315000Y-146966495D01*
X264267688Y-147449016D01*
X264137287Y-147880927D01*
X263925480Y-148279280D01*
X263640325Y-148628914D01*
X263292697Y-148916497D01*
X262895825Y-149131085D01*
X262464834Y-149264500D01*
X261984346Y-149315000D01*
X244958406Y-149315000D01*
X244999018Y-149311000D01*
X244999019Y-149311000D01*
X245121689Y-149298918D01*
X245279087Y-149251172D01*
X245424146Y-149173636D01*
X245551291Y-149069291D01*
X245577446Y-149037421D01*
X247043426Y-147571441D01*
X247075291Y-147545291D01*
X247179636Y-147418146D01*
X247257172Y-147273087D01*
X247304918Y-147115689D01*
X247317000Y-146993019D01*
X247317000Y-146993009D01*
X247321039Y-146952001D01*
X247317000Y-146910993D01*
X247317000Y-146304495D01*
X259515000Y-146304495D01*
X259515000Y-146695505D01*
X259591282Y-147079003D01*
X259740915Y-147440250D01*
X259958149Y-147765364D01*
X260234636Y-148041851D01*
X260559750Y-148259085D01*
X260920997Y-148408718D01*
X261304495Y-148485000D01*
X261695505Y-148485000D01*
X262079003Y-148408718D01*
X262440250Y-148259085D01*
X262765364Y-148041851D01*
X263041851Y-147765364D01*
X263259085Y-147440250D01*
X263408718Y-147079003D01*
X263485000Y-146695505D01*
X263485000Y-146304495D01*
X263408718Y-145920997D01*
X263259085Y-145559750D01*
X263041851Y-145234636D01*
X262765364Y-144958149D01*
X262440250Y-144740915D01*
X262079003Y-144591282D01*
X261695505Y-144515000D01*
X261304495Y-144515000D01*
X260920997Y-144591282D01*
X260559750Y-144740915D01*
X260234636Y-144958149D01*
X259958149Y-145234636D01*
X259740915Y-145559750D01*
X259591282Y-145920997D01*
X259515000Y-146304495D01*
X247317000Y-146304495D01*
X247317000Y-124562795D01*
X247343468Y-124595046D01*
X249343470Y-126595049D01*
X249371183Y-126628817D01*
X249404951Y-126656530D01*
X249404953Y-126656532D01*
X249429785Y-126676911D01*
X249505941Y-126739411D01*
X249659687Y-126821589D01*
X249826510Y-126872195D01*
X249939775Y-126883351D01*
X250053836Y-126976958D01*
X250206291Y-127058447D01*
X250371715Y-127108628D01*
X250543750Y-127125572D01*
X251456250Y-127125572D01*
X251628285Y-127108628D01*
X251793709Y-127058447D01*
X251946164Y-126976958D01*
X252079792Y-126867292D01*
X252116552Y-126822500D01*
X252941785Y-126822500D01*
X253053836Y-126914458D01*
X253206291Y-126995947D01*
X253371715Y-127046128D01*
X253543750Y-127063072D01*
X254456250Y-127063072D01*
X254628285Y-127046128D01*
X254793709Y-126995947D01*
X254946164Y-126914458D01*
X255079792Y-126804792D01*
X255189458Y-126671164D01*
X255270947Y-126518709D01*
X255321128Y-126353285D01*
X255338072Y-126181250D01*
X255338072Y-125693750D01*
X255321128Y-125521715D01*
X255270947Y-125356291D01*
X255189458Y-125203836D01*
X255079792Y-125070208D01*
X254994244Y-125000000D01*
X255079792Y-124929792D01*
X255189458Y-124796164D01*
X255270947Y-124643709D01*
X255321128Y-124478285D01*
X255338072Y-124306250D01*
X255338072Y-123818750D01*
X255334818Y-123785710D01*
X255513940Y-123711515D01*
X255691647Y-123592775D01*
X255842775Y-123441647D01*
X255961515Y-123263940D01*
X256043304Y-123066483D01*
X256085000Y-122856863D01*
X256085000Y-122643137D01*
X256043304Y-122433517D01*
X255961515Y-122236060D01*
X255842775Y-122058353D01*
X255744336Y-121959914D01*
X255778000Y-121926250D01*
X255778000Y-120602000D01*
X256032000Y-120602000D01*
X256032000Y-121926250D01*
X256190750Y-122085000D01*
X256205000Y-122088072D01*
X256329482Y-122075812D01*
X256449180Y-122039502D01*
X256559494Y-121980537D01*
X256656185Y-121901185D01*
X256735537Y-121804494D01*
X256794502Y-121694180D01*
X256830812Y-121574482D01*
X256843072Y-121450000D01*
X256840000Y-120760750D01*
X256681250Y-120602000D01*
X256032000Y-120602000D01*
X255778000Y-120602000D01*
X255758000Y-120602000D01*
X255758000Y-120348000D01*
X255778000Y-120348000D01*
X255778000Y-120328000D01*
X256032000Y-120328000D01*
X256032000Y-120348000D01*
X256681250Y-120348000D01*
X256840000Y-120189250D01*
X256843072Y-119500000D01*
X256830812Y-119375518D01*
X256794502Y-119255820D01*
X256735537Y-119145506D01*
X256656185Y-119048815D01*
X256559494Y-118969463D01*
X256449180Y-118910498D01*
X256365124Y-118885000D01*
X257633422Y-118885000D01*
X257929828Y-119181406D01*
X257956696Y-119316483D01*
X258038485Y-119513940D01*
X258157225Y-119691647D01*
X258308353Y-119842775D01*
X258486060Y-119961515D01*
X258683517Y-120043304D01*
X258893137Y-120085000D01*
X259106863Y-120085000D01*
X259316483Y-120043304D01*
X259513940Y-119961515D01*
X259691647Y-119842775D01*
X259842775Y-119691647D01*
X259961515Y-119513940D01*
X260043304Y-119316483D01*
X260085000Y-119106863D01*
X260085000Y-118893137D01*
X260043304Y-118683517D01*
X259961515Y-118486060D01*
X259842775Y-118308353D01*
X259691647Y-118157225D01*
X259513940Y-118038485D01*
X259316483Y-117956696D01*
X259181406Y-117929828D01*
X258656534Y-117404956D01*
X258628817Y-117371183D01*
X258494059Y-117260589D01*
X258340313Y-117178411D01*
X258173490Y-117127805D01*
X258043477Y-117115000D01*
X258043469Y-117115000D01*
X258000000Y-117110719D01*
X257956531Y-117115000D01*
X256234884Y-117115000D01*
X256356582Y-117078084D01*
X256492829Y-117005258D01*
X256612251Y-116907251D01*
X256710258Y-116787829D01*
X256783084Y-116651582D01*
X256827929Y-116503745D01*
X256843072Y-116350000D01*
X256843072Y-114700000D01*
X256827929Y-114546255D01*
X256783084Y-114398418D01*
X256710258Y-114262171D01*
X256612251Y-114142749D01*
X256492829Y-114044742D01*
X256356582Y-113971916D01*
X256208745Y-113927071D01*
X256055000Y-113911928D01*
X255755000Y-113911928D01*
X255601255Y-113927071D01*
X255453418Y-113971916D01*
X255317171Y-114044742D01*
X255270000Y-114083454D01*
X255222829Y-114044742D01*
X255086582Y-113971916D01*
X254938745Y-113927071D01*
X254785000Y-113911928D01*
X254485000Y-113911928D01*
X254331255Y-113927071D01*
X254250000Y-113951719D01*
X254250000Y-113557898D01*
X254270947Y-113518709D01*
X254321128Y-113353285D01*
X254338072Y-113181250D01*
X254338072Y-112693750D01*
X254321128Y-112521715D01*
X254270947Y-112356291D01*
X254189458Y-112203836D01*
X254079792Y-112070208D01*
X254073436Y-112064992D01*
X254151185Y-112001185D01*
X254230537Y-111904494D01*
X254289502Y-111794180D01*
X254325812Y-111674482D01*
X254338072Y-111550000D01*
X254335000Y-111348250D01*
X254176250Y-111189500D01*
X253127000Y-111189500D01*
X253127000Y-111209500D01*
X252873000Y-111209500D01*
X252873000Y-111189500D01*
X251823750Y-111189500D01*
X251665000Y-111348250D01*
X251661928Y-111550000D01*
X251674188Y-111674482D01*
X251710498Y-111794180D01*
X251769463Y-111904494D01*
X251848815Y-112001185D01*
X251926564Y-112064992D01*
X251920208Y-112070208D01*
X251893707Y-112102500D01*
X248835000Y-112102500D01*
X248835000Y-110575000D01*
X251661928Y-110575000D01*
X251665000Y-110776750D01*
X251823750Y-110935500D01*
X252873000Y-110935500D01*
X252873000Y-110098750D01*
X253127000Y-110098750D01*
X253127000Y-110935500D01*
X254176250Y-110935500D01*
X254335000Y-110776750D01*
X254338072Y-110575000D01*
X254325812Y-110450518D01*
X254289502Y-110330820D01*
X254230537Y-110220506D01*
X254151185Y-110123815D01*
X254054494Y-110044463D01*
X253944180Y-109985498D01*
X253824482Y-109949188D01*
X253700000Y-109936928D01*
X253285750Y-109940000D01*
X253127000Y-110098750D01*
X252873000Y-110098750D01*
X252714250Y-109940000D01*
X252300000Y-109936928D01*
X252175518Y-109949188D01*
X252055820Y-109985498D01*
X251945506Y-110044463D01*
X251848815Y-110123815D01*
X251769463Y-110220506D01*
X251710498Y-110330820D01*
X251674188Y-110450518D01*
X251661928Y-110575000D01*
X248835000Y-110575000D01*
X248835000Y-106041018D01*
X248839040Y-106000000D01*
X248822918Y-105836312D01*
X248775172Y-105678913D01*
X248697636Y-105533854D01*
X248645251Y-105470023D01*
X248619439Y-105438570D01*
X248619437Y-105438568D01*
X248593291Y-105406709D01*
X248561433Y-105380564D01*
X247484267Y-104303399D01*
X247643137Y-104335000D01*
X247856863Y-104335000D01*
X248066483Y-104293304D01*
X248263940Y-104211515D01*
X248441647Y-104092775D01*
X248592775Y-103941647D01*
X248711515Y-103763940D01*
X248793304Y-103566483D01*
X248835000Y-103356863D01*
X248835000Y-103143137D01*
X248793304Y-102933517D01*
X248711515Y-102736060D01*
X248592775Y-102558353D01*
X248485000Y-102450578D01*
X248485000Y-100159890D01*
X248576842Y-100197932D01*
X248863740Y-100255000D01*
X249156260Y-100255000D01*
X249443158Y-100197932D01*
X249713411Y-100085990D01*
X249956632Y-99923475D01*
X250163475Y-99716632D01*
X250280000Y-99542240D01*
X250396525Y-99716632D01*
X250603368Y-99923475D01*
X250846589Y-100085990D01*
X251116842Y-100197932D01*
X251403740Y-100255000D01*
X251696260Y-100255000D01*
X251983158Y-100197932D01*
X252253411Y-100085990D01*
X252496632Y-99923475D01*
X252703475Y-99716632D01*
X252820000Y-99542240D01*
X252936525Y-99716632D01*
X253143368Y-99923475D01*
X253386589Y-100085990D01*
X253656842Y-100197932D01*
X253943740Y-100255000D01*
X254236260Y-100255000D01*
X254523158Y-100197932D01*
X254793411Y-100085990D01*
X255036632Y-99923475D01*
X255243475Y-99716632D01*
X255365195Y-99534466D01*
X255434822Y-99651355D01*
X255629731Y-99867588D01*
X255863080Y-100041641D01*
X256125901Y-100166825D01*
X256273110Y-100211476D01*
X256503000Y-100090155D01*
X256503000Y-98897000D01*
X256757000Y-98897000D01*
X256757000Y-100090155D01*
X256986890Y-100211476D01*
X257134099Y-100166825D01*
X257396920Y-100041641D01*
X257630269Y-99867588D01*
X257825178Y-99651355D01*
X257974157Y-99401252D01*
X258071481Y-99126891D01*
X257950814Y-98897000D01*
X256757000Y-98897000D01*
X256503000Y-98897000D01*
X256483000Y-98897000D01*
X256483000Y-98643000D01*
X256503000Y-98643000D01*
X256503000Y-98623000D01*
X256757000Y-98623000D01*
X256757000Y-98643000D01*
X257950814Y-98643000D01*
X258071481Y-98413109D01*
X257974157Y-98138748D01*
X257825178Y-97888645D01*
X257630269Y-97672412D01*
X257400594Y-97501100D01*
X257576632Y-97383475D01*
X257655612Y-97304495D01*
X259515000Y-97304495D01*
X259515000Y-97695505D01*
X259591282Y-98079003D01*
X259740915Y-98440250D01*
X259958149Y-98765364D01*
X260234636Y-99041851D01*
X260559750Y-99259085D01*
X260920997Y-99408718D01*
X261304495Y-99485000D01*
X261695505Y-99485000D01*
X262079003Y-99408718D01*
X262440250Y-99259085D01*
X262765364Y-99041851D01*
X263041851Y-98765364D01*
X263259085Y-98440250D01*
X263408718Y-98079003D01*
X263485000Y-97695505D01*
X263485000Y-97304495D01*
X263408718Y-96920997D01*
X263259085Y-96559750D01*
X263041851Y-96234636D01*
X262765364Y-95958149D01*
X262440250Y-95740915D01*
X262079003Y-95591282D01*
X261695505Y-95515000D01*
X261304495Y-95515000D01*
X260920997Y-95591282D01*
X260559750Y-95740915D01*
X260234636Y-95958149D01*
X259958149Y-96234636D01*
X259740915Y-96559750D01*
X259591282Y-96920997D01*
X259515000Y-97304495D01*
X257655612Y-97304495D01*
X257783475Y-97176632D01*
X257945990Y-96933411D01*
X258057932Y-96663158D01*
X258115000Y-96376260D01*
X258115000Y-96083740D01*
X258057932Y-95796842D01*
X257945990Y-95526589D01*
X257783475Y-95283368D01*
X257576632Y-95076525D01*
X257333411Y-94914010D01*
X257063158Y-94802068D01*
X256776260Y-94745000D01*
X256483740Y-94745000D01*
X256196842Y-94802068D01*
X255926589Y-94914010D01*
X255683368Y-95076525D01*
X255476525Y-95283368D01*
X255360000Y-95457760D01*
X255243475Y-95283368D01*
X255036632Y-95076525D01*
X254793411Y-94914010D01*
X254523158Y-94802068D01*
X254236260Y-94745000D01*
X253943740Y-94745000D01*
X253656842Y-94802068D01*
X253386589Y-94914010D01*
X253143368Y-95076525D01*
X252936525Y-95283368D01*
X252820000Y-95457760D01*
X252703475Y-95283368D01*
X252496632Y-95076525D01*
X252253411Y-94914010D01*
X251983158Y-94802068D01*
X251696260Y-94745000D01*
X251403740Y-94745000D01*
X251116842Y-94802068D01*
X250846589Y-94914010D01*
X250603368Y-95076525D01*
X250396525Y-95283368D01*
X250274805Y-95465534D01*
X250205178Y-95348645D01*
X250010269Y-95132412D01*
X249776920Y-94958359D01*
X249514099Y-94833175D01*
X249366890Y-94788524D01*
X249137000Y-94909845D01*
X249137000Y-96103000D01*
X249157000Y-96103000D01*
X249157000Y-96357000D01*
X249137000Y-96357000D01*
X249137000Y-96377000D01*
X248883000Y-96377000D01*
X248883000Y-96357000D01*
X248863000Y-96357000D01*
X248863000Y-96103000D01*
X248883000Y-96103000D01*
X248883000Y-94909845D01*
X248653110Y-94788524D01*
X248505901Y-94833175D01*
X248243080Y-94958359D01*
X248009731Y-95132412D01*
X247814822Y-95348645D01*
X247745195Y-95465534D01*
X247623475Y-95283368D01*
X247416632Y-95076525D01*
X247173411Y-94914010D01*
X246903158Y-94802068D01*
X246616260Y-94745000D01*
X246323740Y-94745000D01*
X246036842Y-94802068D01*
X245766589Y-94914010D01*
X245523368Y-95076525D01*
X245316525Y-95283368D01*
X245194805Y-95465534D01*
X245125178Y-95348645D01*
X244930269Y-95132412D01*
X244696920Y-94958359D01*
X244434099Y-94833175D01*
X244286890Y-94788524D01*
X244057000Y-94909845D01*
X244057000Y-96103000D01*
X244077000Y-96103000D01*
X244077000Y-96357000D01*
X244057000Y-96357000D01*
X244057000Y-96377000D01*
X243803000Y-96377000D01*
X243803000Y-96357000D01*
X243783000Y-96357000D01*
X243783000Y-96103000D01*
X243803000Y-96103000D01*
X243803000Y-94909845D01*
X243573110Y-94788524D01*
X243425901Y-94833175D01*
X243163080Y-94958359D01*
X242929731Y-95132412D01*
X242734822Y-95348645D01*
X242665195Y-95465534D01*
X242543475Y-95283368D01*
X242336632Y-95076525D01*
X242093411Y-94914010D01*
X241823158Y-94802068D01*
X241536260Y-94745000D01*
X241243740Y-94745000D01*
X240956842Y-94802068D01*
X240686589Y-94914010D01*
X240443368Y-95076525D01*
X240236525Y-95283368D01*
X240120000Y-95457760D01*
X240003475Y-95283368D01*
X239796632Y-95076525D01*
X239553411Y-94914010D01*
X239283158Y-94802068D01*
X238996260Y-94745000D01*
X238703740Y-94745000D01*
X238416842Y-94802068D01*
X238146589Y-94914010D01*
X237903368Y-95076525D01*
X237696525Y-95283368D01*
X237580000Y-95457760D01*
X237463475Y-95283368D01*
X237256632Y-95076525D01*
X237013411Y-94914010D01*
X236743158Y-94802068D01*
X236456260Y-94745000D01*
X236163740Y-94745000D01*
X235876842Y-94802068D01*
X235606589Y-94914010D01*
X235363368Y-95076525D01*
X235156525Y-95283368D01*
X235040000Y-95457760D01*
X234923475Y-95283368D01*
X234716632Y-95076525D01*
X234473411Y-94914010D01*
X234203158Y-94802068D01*
X233916260Y-94745000D01*
X233623740Y-94745000D01*
X233336842Y-94802068D01*
X233066589Y-94914010D01*
X232823368Y-95076525D01*
X232616525Y-95283368D01*
X232494805Y-95465534D01*
X232425178Y-95348645D01*
X232230269Y-95132412D01*
X231996920Y-94958359D01*
X231734099Y-94833175D01*
X231586890Y-94788524D01*
X231357000Y-94909845D01*
X231357000Y-96103000D01*
X231377000Y-96103000D01*
X231377000Y-96357000D01*
X231357000Y-96357000D01*
X231357000Y-96377000D01*
X231103000Y-96377000D01*
X231103000Y-96357000D01*
X231083000Y-96357000D01*
X231083000Y-96103000D01*
X231103000Y-96103000D01*
X231103000Y-94909845D01*
X230873110Y-94788524D01*
X230725901Y-94833175D01*
X230463080Y-94958359D01*
X230229731Y-95132412D01*
X230034822Y-95348645D01*
X229965195Y-95465534D01*
X229843475Y-95283368D01*
X229636632Y-95076525D01*
X229393411Y-94914010D01*
X229123158Y-94802068D01*
X228836260Y-94745000D01*
X228543740Y-94745000D01*
X228256842Y-94802068D01*
X227986589Y-94914010D01*
X227743368Y-95076525D01*
X227536525Y-95283368D01*
X227420000Y-95457760D01*
X227303475Y-95283368D01*
X227096632Y-95076525D01*
X226853411Y-94914010D01*
X226583158Y-94802068D01*
X226296260Y-94745000D01*
X226003740Y-94745000D01*
X225716842Y-94802068D01*
X225446589Y-94914010D01*
X225203368Y-95076525D01*
X224996525Y-95283368D01*
X224874805Y-95465534D01*
X224805178Y-95348645D01*
X224610269Y-95132412D01*
X224376920Y-94958359D01*
X224114099Y-94833175D01*
X223966890Y-94788524D01*
X223737000Y-94909845D01*
X223737000Y-96103000D01*
X223757000Y-96103000D01*
X223757000Y-96357000D01*
X223737000Y-96357000D01*
X223737000Y-96377000D01*
X223483000Y-96377000D01*
X223483000Y-96357000D01*
X223463000Y-96357000D01*
X223463000Y-96103000D01*
X223483000Y-96103000D01*
X223483000Y-94909845D01*
X223253110Y-94788524D01*
X223105901Y-94833175D01*
X222843080Y-94958359D01*
X222609731Y-95132412D01*
X222414822Y-95348645D01*
X222345195Y-95465534D01*
X222223475Y-95283368D01*
X222016632Y-95076525D01*
X221773411Y-94914010D01*
X221503158Y-94802068D01*
X221216260Y-94745000D01*
X220923740Y-94745000D01*
X220636842Y-94802068D01*
X220366589Y-94914010D01*
X220123368Y-95076525D01*
X219916525Y-95283368D01*
X219800000Y-95457760D01*
X219683475Y-95283368D01*
X219476632Y-95076525D01*
X219233411Y-94914010D01*
X218963158Y-94802068D01*
X218676260Y-94745000D01*
X218383740Y-94745000D01*
X218096842Y-94802068D01*
X217826589Y-94914010D01*
X217583368Y-95076525D01*
X217376525Y-95283368D01*
X217260000Y-95457760D01*
X217143475Y-95283368D01*
X216936632Y-95076525D01*
X216693411Y-94914010D01*
X216423158Y-94802068D01*
X216136260Y-94745000D01*
X215843740Y-94745000D01*
X215556842Y-94802068D01*
X215286589Y-94914010D01*
X215043368Y-95076525D01*
X214836525Y-95283368D01*
X214714805Y-95465534D01*
X214645178Y-95348645D01*
X214450269Y-95132412D01*
X214216920Y-94958359D01*
X213954099Y-94833175D01*
X213806890Y-94788524D01*
X213577000Y-94909845D01*
X213577000Y-96103000D01*
X213597000Y-96103000D01*
X213597000Y-96357000D01*
X213577000Y-96357000D01*
X213577000Y-96377000D01*
X213323000Y-96377000D01*
X213323000Y-96357000D01*
X213303000Y-96357000D01*
X213303000Y-96103000D01*
X213323000Y-96103000D01*
X213323000Y-94909845D01*
X213093110Y-94788524D01*
X212945901Y-94833175D01*
X212683080Y-94958359D01*
X212449731Y-95132412D01*
X212254822Y-95348645D01*
X212185195Y-95465534D01*
X212063475Y-95283368D01*
X211856632Y-95076525D01*
X211613411Y-94914010D01*
X211343158Y-94802068D01*
X211056260Y-94745000D01*
X210763740Y-94745000D01*
X210476842Y-94802068D01*
X210206589Y-94914010D01*
X209963368Y-95076525D01*
X209756525Y-95283368D01*
X209715344Y-95345000D01*
X209564656Y-95345000D01*
X209523475Y-95283368D01*
X209316632Y-95076525D01*
X209073411Y-94914010D01*
X208803158Y-94802068D01*
X208516260Y-94745000D01*
X208223740Y-94745000D01*
X207936842Y-94802068D01*
X207666589Y-94914010D01*
X207423368Y-95076525D01*
X207216525Y-95283368D01*
X207177569Y-95341669D01*
X207167919Y-95340719D01*
X207124450Y-95345000D01*
X207124442Y-95345000D01*
X206994429Y-95357805D01*
X206827606Y-95408411D01*
X206673860Y-95490589D01*
X206539102Y-95601183D01*
X206511385Y-95634956D01*
X206154956Y-95991385D01*
X206121183Y-96019102D01*
X206010589Y-96153861D01*
X205928411Y-96307607D01*
X205897401Y-96409833D01*
X205880389Y-96465913D01*
X205877805Y-96474430D01*
X205865000Y-96604443D01*
X205865000Y-96604450D01*
X205860719Y-96647919D01*
X205865000Y-96691388D01*
X205865001Y-100113477D01*
X205877806Y-100243490D01*
X205928412Y-100410313D01*
X206010590Y-100564059D01*
X206121184Y-100698817D01*
X206255942Y-100809411D01*
X206409688Y-100891589D01*
X206576511Y-100942195D01*
X206750000Y-100959282D01*
X206923490Y-100942195D01*
X207046104Y-100905000D01*
X227522800Y-100905000D01*
X228281051Y-101663252D01*
X228017684Y-101603140D01*
X226174423Y-101353453D01*
X224316200Y-101270000D01*
X222457977Y-101353453D01*
X220614716Y-101603140D01*
X218801256Y-102017050D01*
X217032200Y-102591851D01*
X215321790Y-103322915D01*
X213683798Y-104204357D01*
X212131412Y-105229078D01*
X210677130Y-106388829D01*
X209983319Y-107052180D01*
X210149110Y-106651925D01*
X210235000Y-106220128D01*
X210235000Y-105779872D01*
X210149110Y-105348075D01*
X209980631Y-104941331D01*
X209736038Y-104575271D01*
X209424729Y-104263962D01*
X209058669Y-104019369D01*
X208651925Y-103850890D01*
X208220128Y-103765000D01*
X207779872Y-103765000D01*
X207348075Y-103850890D01*
X206941331Y-104019369D01*
X206575271Y-104263962D01*
X206263962Y-104575271D01*
X206019369Y-104941331D01*
X205850890Y-105348075D01*
X205765000Y-105779872D01*
X205765000Y-106220128D01*
X205850890Y-106651925D01*
X206019369Y-107058669D01*
X206263962Y-107424729D01*
X206575271Y-107736038D01*
X206941331Y-107980631D01*
X207348075Y-108149110D01*
X207779872Y-108235000D01*
X208220128Y-108235000D01*
X208651925Y-108149110D01*
X209058669Y-107980631D01*
X209073887Y-107970462D01*
X208108833Y-109075056D01*
X207015496Y-110579906D01*
X206061455Y-112176703D01*
X205254389Y-113852591D01*
X204600798Y-115594078D01*
X204105944Y-117387141D01*
X203773811Y-119217344D01*
X203607074Y-121069952D01*
X203607074Y-122930048D01*
X203773811Y-124782656D01*
X204105944Y-126612859D01*
X204600798Y-128405922D01*
X205254389Y-130147409D01*
X206061455Y-131823297D01*
X207015496Y-133420094D01*
X208108833Y-134924944D01*
X209073887Y-136029538D01*
X209058669Y-136019369D01*
X208651925Y-135850890D01*
X208220128Y-135765000D01*
X207779872Y-135765000D01*
X207348075Y-135850890D01*
X206941331Y-136019369D01*
X206575271Y-136263962D01*
X206263962Y-136575271D01*
X206019369Y-136941331D01*
X205850890Y-137348075D01*
X205765000Y-137779872D01*
X205765000Y-138220128D01*
X205850890Y-138651925D01*
X206019369Y-139058669D01*
X206263962Y-139424729D01*
X206575271Y-139736038D01*
X206941331Y-139980631D01*
X207348075Y-140149110D01*
X207779872Y-140235000D01*
X208220128Y-140235000D01*
X208651925Y-140149110D01*
X209058669Y-139980631D01*
X209424729Y-139736038D01*
X209736038Y-139424729D01*
X209980631Y-139058669D01*
X210149110Y-138651925D01*
X210235000Y-138220128D01*
X210235000Y-137779872D01*
X210149110Y-137348075D01*
X209983319Y-136947820D01*
X210677130Y-137611171D01*
X212131412Y-138770922D01*
X213683798Y-139795643D01*
X215321790Y-140677085D01*
X217032200Y-141408149D01*
X218801256Y-141982950D01*
X220614716Y-142396860D01*
X222457977Y-142646547D01*
X224316200Y-142730000D01*
X226174423Y-142646547D01*
X228017684Y-142396860D01*
X229831144Y-141982950D01*
X231600200Y-141408149D01*
X233310610Y-140677085D01*
X234948602Y-139795643D01*
X236500988Y-138770922D01*
X237769011Y-137759708D01*
X237765000Y-137779872D01*
X237765000Y-138220128D01*
X237850890Y-138651925D01*
X238019369Y-139058669D01*
X238263962Y-139424729D01*
X238575271Y-139736038D01*
X238941331Y-139980631D01*
X239348075Y-140149110D01*
X239779872Y-140235000D01*
X240220128Y-140235000D01*
X240651925Y-140149110D01*
X241058669Y-139980631D01*
X241424729Y-139736038D01*
X241736038Y-139424729D01*
X241980631Y-139058669D01*
X242149110Y-138651925D01*
X242235000Y-138220128D01*
X242235000Y-137779872D01*
X242149110Y-137348075D01*
X241980631Y-136941331D01*
X241736038Y-136575271D01*
X241424729Y-136263962D01*
X241058669Y-136019369D01*
X240651925Y-135850890D01*
X240220128Y-135765000D01*
X239789632Y-135765000D01*
X240523567Y-134924944D01*
X241616904Y-133420094D01*
X242570945Y-131823297D01*
X243378011Y-130147409D01*
X244031602Y-128405922D01*
X244526456Y-126612859D01*
X244858589Y-124782656D01*
X245025326Y-122930048D01*
X245025326Y-121069952D01*
X244858589Y-119217344D01*
X244526456Y-117387141D01*
X244031602Y-115594078D01*
X243378011Y-113852591D01*
X242570945Y-112176703D01*
X241616904Y-110579906D01*
X240523567Y-109075056D01*
X239789632Y-108235000D01*
X240220128Y-108235000D01*
X240651925Y-108149110D01*
X241058669Y-107980631D01*
X241424729Y-107736038D01*
X241736038Y-107424729D01*
X241980631Y-107058669D01*
X242149110Y-106651925D01*
X242235000Y-106220128D01*
X242235000Y-105779872D01*
X242149110Y-105348075D01*
X241980631Y-104941331D01*
X241736038Y-104575271D01*
X241424729Y-104263962D01*
X241058669Y-104019369D01*
X240651925Y-103850890D01*
X240220128Y-103765000D01*
X239779872Y-103765000D01*
X239348075Y-103850890D01*
X238941331Y-104019369D01*
X238575271Y-104263962D01*
X238263962Y-104575271D01*
X238019369Y-104941331D01*
X237850890Y-105348075D01*
X237765000Y-105779872D01*
X237765000Y-106220128D01*
X237769011Y-106240292D01*
X236500988Y-105229078D01*
X234948602Y-104204357D01*
X233310610Y-103322915D01*
X232749301Y-103083000D01*
X242072133Y-103083000D01*
X245647000Y-106657869D01*
X245647001Y-129447600D01*
X245634410Y-129442513D01*
X245577165Y-129418450D01*
X245568009Y-129415685D01*
X245380783Y-129360582D01*
X245319775Y-129348945D01*
X245258985Y-129336466D01*
X245249466Y-129335532D01*
X245055105Y-129317843D01*
X244992981Y-129318277D01*
X244930933Y-129317844D01*
X244921426Y-129318776D01*
X244921419Y-129318776D01*
X244921413Y-129318777D01*
X244727318Y-129339178D01*
X244666504Y-129351661D01*
X244605519Y-129363295D01*
X244596363Y-129366059D01*
X244409925Y-129423771D01*
X244352692Y-129447830D01*
X244295127Y-129471087D01*
X244286682Y-129475577D01*
X244115006Y-129568402D01*
X244063532Y-129603122D01*
X244011582Y-129637117D01*
X244004170Y-129643162D01*
X243853793Y-129767565D01*
X243810027Y-129811638D01*
X243765689Y-129855057D01*
X243759592Y-129862426D01*
X243636242Y-130013668D01*
X243601881Y-130065386D01*
X243566809Y-130116607D01*
X243562260Y-130125020D01*
X243470635Y-130297343D01*
X243446978Y-130354739D01*
X243422519Y-130411807D01*
X243419690Y-130420943D01*
X243363281Y-130607780D01*
X243351219Y-130668698D01*
X243338314Y-130729410D01*
X243337314Y-130738922D01*
X243318269Y-130933155D01*
X243318269Y-130933173D01*
X243315001Y-130966353D01*
X243315000Y-146033646D01*
X243318366Y-146067821D01*
X243318366Y-146080806D01*
X243319366Y-146090318D01*
X243341121Y-146284268D01*
X243354025Y-146344976D01*
X243366089Y-146405901D01*
X243368917Y-146415038D01*
X243427930Y-146601068D01*
X243452377Y-146658105D01*
X243476046Y-146715531D01*
X243480595Y-146723944D01*
X243574617Y-146894969D01*
X243609692Y-146946194D01*
X243644050Y-146997906D01*
X243650146Y-147005276D01*
X243775596Y-147154782D01*
X243819974Y-147198240D01*
X243863703Y-147242275D01*
X243871109Y-147248315D01*
X243871113Y-147248319D01*
X243871115Y-147248320D01*
X244023214Y-147370611D01*
X244075139Y-147404589D01*
X244126632Y-147439322D01*
X244135077Y-147443812D01*
X244308033Y-147534232D01*
X244365590Y-147557487D01*
X244422835Y-147581550D01*
X244431991Y-147584315D01*
X244614966Y-147638167D01*
X244612133Y-147641000D01*
X219367188Y-147641000D01*
X219483158Y-147617932D01*
X219753411Y-147505990D01*
X219996632Y-147343475D01*
X220203475Y-147136632D01*
X220365990Y-146893411D01*
X220477932Y-146623158D01*
X220535000Y-146336260D01*
X220535000Y-146043740D01*
X220477932Y-145756842D01*
X220365990Y-145486589D01*
X220203475Y-145243368D01*
X219996632Y-145036525D01*
X219753411Y-144874010D01*
X219483158Y-144762068D01*
X219196260Y-144705000D01*
X218903740Y-144705000D01*
X218616842Y-144762068D01*
X218346589Y-144874010D01*
X218103368Y-145036525D01*
X217896525Y-145243368D01*
X217780000Y-145417760D01*
X217663475Y-145243368D01*
X217456632Y-145036525D01*
X217213411Y-144874010D01*
X216943158Y-144762068D01*
X216656260Y-144705000D01*
X216363740Y-144705000D01*
X216076842Y-144762068D01*
X215806589Y-144874010D01*
X215563368Y-145036525D01*
X215356525Y-145243368D01*
X215240000Y-145417760D01*
X215123475Y-145243368D01*
X214916632Y-145036525D01*
X214673411Y-144874010D01*
X214403158Y-144762068D01*
X214116260Y-144705000D01*
X213823740Y-144705000D01*
X213536842Y-144762068D01*
X213266589Y-144874010D01*
X213023368Y-145036525D01*
X212891513Y-145168380D01*
X212869502Y-145095820D01*
X212810537Y-144985506D01*
X212731185Y-144888815D01*
X212634494Y-144809463D01*
X212524180Y-144750498D01*
X212404482Y-144714188D01*
X212280000Y-144701928D01*
X211715750Y-144705000D01*
X211557000Y-144863750D01*
X211557000Y-146063000D01*
X211577000Y-146063000D01*
X211577000Y-146317000D01*
X211557000Y-146317000D01*
X211557000Y-147516250D01*
X211715750Y-147675000D01*
X212280000Y-147678072D01*
X212404482Y-147665812D01*
X212524180Y-147629502D01*
X212634494Y-147570537D01*
X212731185Y-147491185D01*
X212810537Y-147394494D01*
X212869502Y-147284180D01*
X212891513Y-147211620D01*
X213023368Y-147343475D01*
X213266589Y-147505990D01*
X213536842Y-147617932D01*
X213823740Y-147675000D01*
X214116260Y-147675000D01*
X214247940Y-147648807D01*
X215636559Y-149037427D01*
X215662709Y-149069291D01*
X215789033Y-149172962D01*
X215789854Y-149173636D01*
X215934913Y-149251172D01*
X216092311Y-149298918D01*
X216255593Y-149315000D01*
X203033504Y-149315000D01*
X202550984Y-149267688D01*
X202119073Y-149137287D01*
X201720720Y-148925480D01*
X201371086Y-148640325D01*
X201083503Y-148292697D01*
X200868915Y-147895825D01*
X200735500Y-147464834D01*
X200685000Y-146984346D01*
X200685000Y-146304495D01*
X201515000Y-146304495D01*
X201515000Y-146695505D01*
X201591282Y-147079003D01*
X201740915Y-147440250D01*
X201958149Y-147765364D01*
X202234636Y-148041851D01*
X202559750Y-148259085D01*
X202920997Y-148408718D01*
X203304495Y-148485000D01*
X203695505Y-148485000D01*
X204079003Y-148408718D01*
X204440250Y-148259085D01*
X204765364Y-148041851D01*
X205041851Y-147765364D01*
X205259085Y-147440250D01*
X205408718Y-147079003D01*
X205416476Y-147040000D01*
X209941928Y-147040000D01*
X209954188Y-147164482D01*
X209990498Y-147284180D01*
X210049463Y-147394494D01*
X210128815Y-147491185D01*
X210225506Y-147570537D01*
X210335820Y-147629502D01*
X210455518Y-147665812D01*
X210580000Y-147678072D01*
X211144250Y-147675000D01*
X211303000Y-147516250D01*
X211303000Y-146317000D01*
X210103750Y-146317000D01*
X209945000Y-146475750D01*
X209941928Y-147040000D01*
X205416476Y-147040000D01*
X205485000Y-146695505D01*
X205485000Y-146304495D01*
X205408718Y-145920997D01*
X205259085Y-145559750D01*
X205112253Y-145340000D01*
X209941928Y-145340000D01*
X209945000Y-145904250D01*
X210103750Y-146063000D01*
X211303000Y-146063000D01*
X211303000Y-144863750D01*
X211144250Y-144705000D01*
X210580000Y-144701928D01*
X210455518Y-144714188D01*
X210335820Y-144750498D01*
X210225506Y-144809463D01*
X210128815Y-144888815D01*
X210049463Y-144985506D01*
X209990498Y-145095820D01*
X209954188Y-145215518D01*
X209941928Y-145340000D01*
X205112253Y-145340000D01*
X205041851Y-145234636D01*
X204765364Y-144958149D01*
X204440250Y-144740915D01*
X204079003Y-144591282D01*
X203695505Y-144515000D01*
X203304495Y-144515000D01*
X202920997Y-144591282D01*
X202559750Y-144740915D01*
X202234636Y-144958149D01*
X201958149Y-145234636D01*
X201740915Y-145559750D01*
X201591282Y-145920997D01*
X201515000Y-146304495D01*
X200685000Y-146304495D01*
X200685000Y-131185307D01*
X202328689Y-131188014D01*
X202358509Y-131185127D01*
X202359573Y-131185134D01*
X202369092Y-131184201D01*
X202381078Y-131182941D01*
X202429341Y-131178268D01*
X202431374Y-131177655D01*
X202466140Y-131174001D01*
X202526990Y-131161510D01*
X202587942Y-131149883D01*
X202597096Y-131147120D01*
X202597102Y-131147118D01*
X202690317Y-131118263D01*
X202747533Y-131094211D01*
X202805119Y-131070945D01*
X202813564Y-131066455D01*
X202899401Y-131020042D01*
X202950867Y-130985327D01*
X203002821Y-130951329D01*
X203010232Y-130945285D01*
X203085421Y-130883083D01*
X203129162Y-130839035D01*
X203173522Y-130795596D01*
X203179618Y-130788226D01*
X203179623Y-130788221D01*
X203179627Y-130788215D01*
X203241294Y-130712605D01*
X203275632Y-130660924D01*
X203310733Y-130609659D01*
X203315282Y-130601246D01*
X203361094Y-130515085D01*
X203384758Y-130457669D01*
X203409208Y-130400626D01*
X203412036Y-130391490D01*
X203440241Y-130298072D01*
X203452303Y-130237152D01*
X203465209Y-130176435D01*
X203466209Y-130166923D01*
X203475731Y-130069806D01*
X203475731Y-130069801D01*
X203478990Y-130036813D01*
X203483708Y-113965881D01*
X203480854Y-113936813D01*
X203480869Y-113934627D01*
X203479936Y-113925109D01*
X203476414Y-113891601D01*
X203473826Y-113865242D01*
X203473547Y-113864322D01*
X203469736Y-113828060D01*
X203457247Y-113767217D01*
X203445618Y-113706258D01*
X203442854Y-113697102D01*
X203413998Y-113603883D01*
X203389932Y-113546634D01*
X203366679Y-113489081D01*
X203362189Y-113480636D01*
X203315777Y-113394798D01*
X203281050Y-113343315D01*
X203247064Y-113291379D01*
X203241020Y-113283967D01*
X203178818Y-113208779D01*
X203134751Y-113165018D01*
X203091330Y-113120678D01*
X203083961Y-113114581D01*
X203008340Y-113052906D01*
X202956659Y-113018568D01*
X202905394Y-112983467D01*
X202896981Y-112978918D01*
X202810820Y-112933106D01*
X202753404Y-112909442D01*
X202696361Y-112884992D01*
X202687225Y-112882164D01*
X202593807Y-112853959D01*
X202532895Y-112841898D01*
X202472171Y-112828991D01*
X202462659Y-112827991D01*
X202365541Y-112818469D01*
X202365535Y-112818469D01*
X202332423Y-112815204D01*
X200685000Y-112815021D01*
X200685000Y-97304495D01*
X201515000Y-97304495D01*
X201515000Y-97695505D01*
X201591282Y-98079003D01*
X201740915Y-98440250D01*
X201958149Y-98765364D01*
X202234636Y-99041851D01*
X202559750Y-99259085D01*
X202920997Y-99408718D01*
X203304495Y-99485000D01*
X203695505Y-99485000D01*
X204079003Y-99408718D01*
X204440250Y-99259085D01*
X204765364Y-99041851D01*
X205041851Y-98765364D01*
X205259085Y-98440250D01*
X205408718Y-98079003D01*
X205485000Y-97695505D01*
X205485000Y-97304495D01*
X205408718Y-96920997D01*
X205259085Y-96559750D01*
X205041851Y-96234636D01*
X204765364Y-95958149D01*
X204440250Y-95740915D01*
X204079003Y-95591282D01*
X203695505Y-95515000D01*
X203304495Y-95515000D01*
X202920997Y-95591282D01*
X202559750Y-95740915D01*
X202234636Y-95958149D01*
X201958149Y-96234636D01*
X201740915Y-96559750D01*
X201591282Y-96920997D01*
X201515000Y-97304495D01*
X200685000Y-97304495D01*
X200685000Y-97033505D01*
X200732312Y-96550984D01*
X200862714Y-96119070D01*
X201074524Y-95720715D01*
X201359675Y-95371086D01*
X201707303Y-95083503D01*
X202104177Y-94868914D01*
X202535161Y-94735502D01*
X203015654Y-94685000D01*
X261966495Y-94685000D01*
X262449016Y-94732312D01*
G36*
X251920208Y-113804792D02*
G01*
X252050753Y-113911928D01*
X251945000Y-113911928D01*
X251791255Y-113927071D01*
X251643418Y-113971916D01*
X251507171Y-114044742D01*
X251387749Y-114142749D01*
X251289742Y-114262171D01*
X251216916Y-114398418D01*
X251172071Y-114546255D01*
X251156928Y-114700000D01*
X251156928Y-116350000D01*
X251172071Y-116503745D01*
X251216916Y-116651582D01*
X251289742Y-116787829D01*
X251387749Y-116907251D01*
X251507171Y-117005258D01*
X251643418Y-117078084D01*
X251791255Y-117122929D01*
X251945000Y-117138072D01*
X252245000Y-117138072D01*
X252398745Y-117122929D01*
X252546582Y-117078084D01*
X252682829Y-117005258D01*
X252730000Y-116966546D01*
X252777171Y-117005258D01*
X252913418Y-117078084D01*
X253061255Y-117122929D01*
X253215000Y-117138072D01*
X253515000Y-117138072D01*
X253668745Y-117122929D01*
X253816582Y-117078084D01*
X253952829Y-117005258D01*
X254000000Y-116966546D01*
X254047171Y-117005258D01*
X254183418Y-117078084D01*
X254331255Y-117122929D01*
X254485000Y-117138072D01*
X254785000Y-117138072D01*
X254796349Y-117136954D01*
X254775903Y-117143157D01*
X254659687Y-117178411D01*
X254505941Y-117260589D01*
X254371183Y-117371183D01*
X254343466Y-117404956D01*
X254039952Y-117708470D01*
X254006184Y-117736183D01*
X253978471Y-117769951D01*
X253978468Y-117769954D01*
X253895590Y-117870941D01*
X253813412Y-118024687D01*
X253762805Y-118191510D01*
X253745719Y-118365000D01*
X253750001Y-118408479D01*
X253750001Y-118901719D01*
X253668745Y-118877071D01*
X253515000Y-118861928D01*
X253215000Y-118861928D01*
X253061255Y-118877071D01*
X252913418Y-118921916D01*
X252804044Y-118980378D01*
X252842775Y-118941647D01*
X252961515Y-118763940D01*
X253043304Y-118566483D01*
X253085000Y-118356863D01*
X253085000Y-118143137D01*
X253043304Y-117933517D01*
X252961515Y-117736060D01*
X252842775Y-117558353D01*
X252691647Y-117407225D01*
X252513940Y-117288485D01*
X252316483Y-117206696D01*
X252106863Y-117165000D01*
X251893137Y-117165000D01*
X251683517Y-117206696D01*
X251486060Y-117288485D01*
X251308353Y-117407225D01*
X251157225Y-117558353D01*
X251038485Y-117736060D01*
X250956696Y-117933517D01*
X250915000Y-118143137D01*
X250915000Y-118356863D01*
X250956696Y-118566483D01*
X251038485Y-118763940D01*
X251157225Y-118941647D01*
X251265000Y-119049422D01*
X251265000Y-119258459D01*
X251216916Y-119348418D01*
X251172071Y-119496255D01*
X251156928Y-119650000D01*
X251156928Y-121300000D01*
X251172071Y-121453745D01*
X251210000Y-121578784D01*
X251210001Y-122663420D01*
X250873994Y-122999428D01*
X250543750Y-122999428D01*
X250371715Y-123016372D01*
X250206291Y-123066553D01*
X250053836Y-123148042D01*
X249920208Y-123257708D01*
X249810542Y-123391336D01*
X249729053Y-123543791D01*
X249678872Y-123709215D01*
X249661928Y-123881250D01*
X249661928Y-124368750D01*
X249666473Y-124414894D01*
X248835000Y-123583422D01*
X248835000Y-113772500D01*
X251893707Y-113772500D01*
X251920208Y-113804792D01*
G37*
X251920208Y-113804792D02*
X252050753Y-113911928D01*
X251945000Y-113911928D01*
X251791255Y-113927071D01*
X251643418Y-113971916D01*
X251507171Y-114044742D01*
X251387749Y-114142749D01*
X251289742Y-114262171D01*
X251216916Y-114398418D01*
X251172071Y-114546255D01*
X251156928Y-114700000D01*
X251156928Y-116350000D01*
X251172071Y-116503745D01*
X251216916Y-116651582D01*
X251289742Y-116787829D01*
X251387749Y-116907251D01*
X251507171Y-117005258D01*
X251643418Y-117078084D01*
X251791255Y-117122929D01*
X251945000Y-117138072D01*
X252245000Y-117138072D01*
X252398745Y-117122929D01*
X252546582Y-117078084D01*
X252682829Y-117005258D01*
X252730000Y-116966546D01*
X252777171Y-117005258D01*
X252913418Y-117078084D01*
X253061255Y-117122929D01*
X253215000Y-117138072D01*
X253515000Y-117138072D01*
X253668745Y-117122929D01*
X253816582Y-117078084D01*
X253952829Y-117005258D01*
X254000000Y-116966546D01*
X254047171Y-117005258D01*
X254183418Y-117078084D01*
X254331255Y-117122929D01*
X254485000Y-117138072D01*
X254785000Y-117138072D01*
X254796349Y-117136954D01*
X254775903Y-117143157D01*
X254659687Y-117178411D01*
X254505941Y-117260589D01*
X254371183Y-117371183D01*
X254343466Y-117404956D01*
X254039952Y-117708470D01*
X254006184Y-117736183D01*
X253978471Y-117769951D01*
X253978468Y-117769954D01*
X253895590Y-117870941D01*
X253813412Y-118024687D01*
X253762805Y-118191510D01*
X253745719Y-118365000D01*
X253750001Y-118408479D01*
X253750001Y-118901719D01*
X253668745Y-118877071D01*
X253515000Y-118861928D01*
X253215000Y-118861928D01*
X253061255Y-118877071D01*
X252913418Y-118921916D01*
X252804044Y-118980378D01*
X252842775Y-118941647D01*
X252961515Y-118763940D01*
X253043304Y-118566483D01*
X253085000Y-118356863D01*
X253085000Y-118143137D01*
X253043304Y-117933517D01*
X252961515Y-117736060D01*
X252842775Y-117558353D01*
X252691647Y-117407225D01*
X252513940Y-117288485D01*
X252316483Y-117206696D01*
X252106863Y-117165000D01*
X251893137Y-117165000D01*
X251683517Y-117206696D01*
X251486060Y-117288485D01*
X251308353Y-117407225D01*
X251157225Y-117558353D01*
X251038485Y-117736060D01*
X250956696Y-117933517D01*
X250915000Y-118143137D01*
X250915000Y-118356863D01*
X250956696Y-118566483D01*
X251038485Y-118763940D01*
X251157225Y-118941647D01*
X251265000Y-119049422D01*
X251265000Y-119258459D01*
X251216916Y-119348418D01*
X251172071Y-119496255D01*
X251156928Y-119650000D01*
X251156928Y-121300000D01*
X251172071Y-121453745D01*
X251210000Y-121578784D01*
X251210001Y-122663420D01*
X250873994Y-122999428D01*
X250543750Y-122999428D01*
X250371715Y-123016372D01*
X250206291Y-123066553D01*
X250053836Y-123148042D01*
X249920208Y-123257708D01*
X249810542Y-123391336D01*
X249729053Y-123543791D01*
X249678872Y-123709215D01*
X249661928Y-123881250D01*
X249661928Y-124368750D01*
X249666473Y-124414894D01*
X248835000Y-123583422D01*
X248835000Y-113772500D01*
X251893707Y-113772500D01*
X251920208Y-113804792D01*
G36*
X218657000Y-98643000D02*
G01*
X218677000Y-98643000D01*
X218677000Y-98897000D01*
X218657000Y-98897000D01*
X218657000Y-98917000D01*
X218403000Y-98917000D01*
X218403000Y-98897000D01*
X218383000Y-98897000D01*
X218383000Y-98643000D01*
X218403000Y-98643000D01*
X218403000Y-98623000D01*
X218657000Y-98623000D01*
X218657000Y-98643000D01*
G37*
X218657000Y-98643000D02*
X218677000Y-98643000D01*
X218677000Y-98897000D01*
X218657000Y-98897000D01*
X218657000Y-98917000D01*
X218403000Y-98917000D01*
X218403000Y-98897000D01*
X218383000Y-98897000D01*
X218383000Y-98643000D01*
X218403000Y-98643000D01*
X218403000Y-98623000D01*
X218657000Y-98623000D01*
X218657000Y-98643000D01*
G36*
X238977000Y-98643000D02*
G01*
X238997000Y-98643000D01*
X238997000Y-98897000D01*
X238977000Y-98897000D01*
X238977000Y-98917000D01*
X238723000Y-98917000D01*
X238723000Y-98897000D01*
X238703000Y-98897000D01*
X238703000Y-98643000D01*
X238723000Y-98643000D01*
X238723000Y-98623000D01*
X238977000Y-98623000D01*
X238977000Y-98643000D01*
G37*
X238977000Y-98643000D02*
X238997000Y-98643000D01*
X238997000Y-98897000D01*
X238977000Y-98897000D01*
X238977000Y-98917000D01*
X238723000Y-98917000D01*
X238723000Y-98897000D01*
X238703000Y-98897000D01*
X238703000Y-98643000D01*
X238723000Y-98643000D01*
X238723000Y-98623000D01*
X238977000Y-98623000D01*
X238977000Y-98643000D01*
M02*
