G04 #@! TF.GenerationSoftware,KiCad,Pcbnew,5.1.6-c6e7f7d~87~ubuntu18.04.1*
G04 #@! TF.CreationDate,2020-08-28T18:16:15+02:00*
G04 #@! TF.ProjectId,base_hat,62617365-5f68-4617-942e-6b696361645f,rev?*
G04 #@! TF.SameCoordinates,Original*
G04 #@! TF.FileFunction,Copper,L1,Top*
G04 #@! TF.FilePolarity,Positive*
%FSLAX46Y46*%
G04 Gerber Fmt 4.6, Leading zero omitted, Abs format (unit mm)*
G04 Created by KiCad (PCBNEW 5.1.6-c6e7f7d~87~ubuntu18.04.1) date 2020-08-28 18:16:15*
%MOMM*%
%LPD*%
G01*
G04 APERTURE LIST*
G04 #@! TA.AperFunction,ComponentPad*
%ADD10O,1.700000X1.700000*%
G04 #@! TD*
G04 #@! TA.AperFunction,ComponentPad*
%ADD11R,1.700000X1.700000*%
G04 #@! TD*
G04 #@! TA.AperFunction,SMDPad,CuDef*
%ADD12R,3.600000X2.600000*%
G04 #@! TD*
G04 #@! TA.AperFunction,ViaPad*
%ADD13C,0.900000*%
G04 #@! TD*
G04 #@! TA.AperFunction,Conductor*
%ADD14C,0.500000*%
G04 #@! TD*
G04 #@! TA.AperFunction,Conductor*
%ADD15C,0.400000*%
G04 #@! TD*
G04 #@! TA.AperFunction,Conductor*
%ADD16C,0.200000*%
G04 #@! TD*
G04 #@! TA.AperFunction,Conductor*
%ADD17C,0.254000*%
G04 #@! TD*
G04 APERTURE END LIST*
D10*
X219050000Y-146190000D03*
X216510000Y-146190000D03*
X213970000Y-146190000D03*
D11*
X211430000Y-146190000D03*
D12*
X255880000Y-134170000D03*
X255880000Y-104870000D03*
D11*
X208370000Y-98770000D03*
D10*
X208370000Y-96230000D03*
X210910000Y-98770000D03*
X210910000Y-96230000D03*
X213450000Y-98770000D03*
X213450000Y-96230000D03*
X215990000Y-98770000D03*
X215990000Y-96230000D03*
X218530000Y-98770000D03*
X218530000Y-96230000D03*
X221070000Y-98770000D03*
X221070000Y-96230000D03*
X223610000Y-98770000D03*
X223610000Y-96230000D03*
X226150000Y-98770000D03*
X226150000Y-96230000D03*
X228690000Y-98770000D03*
X228690000Y-96230000D03*
X231230000Y-98770000D03*
X231230000Y-96230000D03*
X233770000Y-98770000D03*
X233770000Y-96230000D03*
X236310000Y-98770000D03*
X236310000Y-96230000D03*
X238850000Y-98770000D03*
X238850000Y-96230000D03*
X241390000Y-98770000D03*
X241390000Y-96230000D03*
X243930000Y-98770000D03*
X243930000Y-96230000D03*
X246470000Y-98770000D03*
X246470000Y-96230000D03*
X249010000Y-98770000D03*
X249010000Y-96230000D03*
X251550000Y-98770000D03*
X251550000Y-96230000D03*
X254090000Y-98770000D03*
X254090000Y-96230000D03*
X256630000Y-98770000D03*
X256630000Y-96230000D03*
D13*
X249530000Y-115710000D03*
X257000000Y-122000000D03*
X258000000Y-109000000D03*
X247750000Y-103250000D03*
X259000000Y-119000000D03*
X252000000Y-118250000D03*
X255000000Y-122750000D03*
D14*
X256630000Y-104120000D02*
X255880000Y-104870000D01*
X255880000Y-106880000D02*
X258000000Y-109000000D01*
X255880000Y-104870000D02*
X255880000Y-106880000D01*
X238000001Y-99619999D02*
X238850000Y-98770000D01*
X238000000Y-101000000D02*
X238000001Y-99619999D01*
X238000000Y-101000000D02*
X256000000Y-101000000D01*
X256630000Y-98770000D02*
X256000000Y-101000000D01*
X256000000Y-101000000D02*
X256630000Y-104120000D01*
X223610000Y-94860000D02*
X223610000Y-96230000D01*
X223500000Y-94750000D02*
X223610000Y-94860000D01*
X213727919Y-94750000D02*
X223500000Y-94750000D01*
X213450000Y-96230000D02*
X213450000Y-95027919D01*
X213450000Y-95027919D02*
X213727919Y-94750000D01*
X229750000Y-94750000D02*
X231230000Y-96230000D01*
X223500000Y-94750000D02*
X229750000Y-94750000D01*
X248750000Y-94750000D02*
X249010000Y-95010000D01*
X249010000Y-96230000D02*
X249010000Y-95010000D01*
X248750000Y-94750000D02*
X258500000Y-94750000D01*
X258500000Y-96900000D02*
X256630000Y-98770000D01*
X258500000Y-94750000D02*
X258500000Y-96900000D01*
X244207919Y-94750000D02*
X245000000Y-94750000D01*
X243930000Y-95027919D02*
X244207919Y-94750000D01*
X243930000Y-96230000D02*
X243930000Y-95027919D01*
X229750000Y-94750000D02*
X245000000Y-94750000D01*
X245000000Y-94750000D02*
X248750000Y-94750000D01*
X258000000Y-109000000D02*
X262750000Y-113750000D01*
X262750000Y-113750000D02*
X262750000Y-135000000D01*
X262750000Y-135000000D02*
X249000000Y-148750000D01*
X249000000Y-148750000D02*
X212500000Y-148750000D01*
X211430000Y-147680000D02*
X211430000Y-146190000D01*
X212500000Y-148750000D02*
X211430000Y-147680000D01*
D15*
X214299999Y-97079999D02*
X213450000Y-96230000D01*
X214739999Y-97519999D02*
X214299999Y-97079999D01*
X217279999Y-97519999D02*
X214739999Y-97519999D01*
X218530000Y-98770000D02*
X217279999Y-97519999D01*
D16*
X254250001Y-109750001D02*
X255750001Y-109750001D01*
X247750000Y-103250000D02*
X254250001Y-109750001D01*
X255750001Y-109750001D02*
X261250000Y-115250000D01*
X261250000Y-115250000D02*
X261250000Y-134500000D01*
X220215493Y-147355493D02*
X219899999Y-147039999D01*
X248394507Y-147355493D02*
X220215493Y-147355493D01*
X219899999Y-147039999D02*
X219050000Y-146190000D01*
X261250000Y-134500000D02*
X248394507Y-147355493D01*
D14*
X255880000Y-132370000D02*
X259000000Y-129250000D01*
X255880000Y-134170000D02*
X255880000Y-132370000D01*
X259000000Y-129250000D02*
X259000000Y-124000000D01*
X259000000Y-124000000D02*
X259000000Y-119000000D01*
X259000000Y-119000000D02*
X259000000Y-119000000D01*
D16*
X252000000Y-118250000D02*
X252000000Y-118250000D01*
X246750000Y-117000000D02*
X248000000Y-118250000D01*
X237185600Y-101917800D02*
X242917800Y-101917800D01*
X214299999Y-99619999D02*
X214299999Y-99961799D01*
X213450000Y-98770000D02*
X214299999Y-99619999D01*
X242917800Y-101917800D02*
X246750000Y-105750000D01*
X214299999Y-99961799D02*
X214757400Y-100419200D01*
X246750000Y-105750000D02*
X246750000Y-117000000D01*
X214757400Y-100419200D02*
X235687000Y-100419200D01*
X248000000Y-118250000D02*
X252000000Y-118250000D01*
X235687000Y-100419200D02*
X237185600Y-101917800D01*
X255000000Y-122750000D02*
X255000000Y-122750000D01*
X210910000Y-99972081D02*
X210910000Y-98770000D01*
X211633200Y-100774800D02*
X210910000Y-99972081D01*
X233750210Y-100819210D02*
X211677610Y-100819210D01*
X211677610Y-100819210D02*
X211633200Y-100774800D01*
X255000000Y-122750000D02*
X249250000Y-122750000D01*
X245750000Y-106500000D02*
X242250000Y-103000000D01*
X242250000Y-103000000D02*
X235931000Y-103000000D01*
X249250000Y-122750000D02*
X245750000Y-119250000D01*
X235931000Y-103000000D02*
X233750210Y-100819210D01*
X245750000Y-119250000D02*
X245750000Y-106500000D01*
D17*
G36*
X262449016Y-94732312D02*
G01*
X262880930Y-94862714D01*
X263279285Y-95074524D01*
X263628914Y-95359675D01*
X263916497Y-95707303D01*
X264131086Y-96104177D01*
X264264498Y-96535161D01*
X264315001Y-97015663D01*
X264315000Y-146966495D01*
X264267688Y-147449016D01*
X264137287Y-147880927D01*
X263925480Y-148279280D01*
X263640325Y-148628914D01*
X263292697Y-148916497D01*
X262895825Y-149131085D01*
X262464834Y-149264500D01*
X261984346Y-149315000D01*
X203033504Y-149315000D01*
X202550984Y-149267688D01*
X202119073Y-149137287D01*
X201720720Y-148925480D01*
X201371086Y-148640325D01*
X201083503Y-148292697D01*
X200868915Y-147895825D01*
X200735500Y-147464834D01*
X200685000Y-146984346D01*
X200685000Y-146304495D01*
X201515000Y-146304495D01*
X201515000Y-146695505D01*
X201591282Y-147079003D01*
X201740915Y-147440250D01*
X201958149Y-147765364D01*
X202234636Y-148041851D01*
X202559750Y-148259085D01*
X202920997Y-148408718D01*
X203304495Y-148485000D01*
X203695505Y-148485000D01*
X204079003Y-148408718D01*
X204440250Y-148259085D01*
X204765364Y-148041851D01*
X205041851Y-147765364D01*
X205259085Y-147440250D01*
X205408718Y-147079003D01*
X205416476Y-147040000D01*
X209941928Y-147040000D01*
X209954188Y-147164482D01*
X209990498Y-147284180D01*
X210049463Y-147394494D01*
X210128815Y-147491185D01*
X210225506Y-147570537D01*
X210335820Y-147629502D01*
X210455518Y-147665812D01*
X210580000Y-147678072D01*
X211144250Y-147675000D01*
X211303000Y-147516250D01*
X211303000Y-146317000D01*
X210103750Y-146317000D01*
X209945000Y-146475750D01*
X209941928Y-147040000D01*
X205416476Y-147040000D01*
X205485000Y-146695505D01*
X205485000Y-146304495D01*
X205408718Y-145920997D01*
X205259085Y-145559750D01*
X205112253Y-145340000D01*
X209941928Y-145340000D01*
X209945000Y-145904250D01*
X210103750Y-146063000D01*
X211303000Y-146063000D01*
X211303000Y-144863750D01*
X211557000Y-144863750D01*
X211557000Y-146063000D01*
X211577000Y-146063000D01*
X211577000Y-146317000D01*
X211557000Y-146317000D01*
X211557000Y-147516250D01*
X211715750Y-147675000D01*
X212280000Y-147678072D01*
X212404482Y-147665812D01*
X212524180Y-147629502D01*
X212634494Y-147570537D01*
X212731185Y-147491185D01*
X212810537Y-147394494D01*
X212869502Y-147284180D01*
X212891513Y-147211620D01*
X213023368Y-147343475D01*
X213266589Y-147505990D01*
X213536842Y-147617932D01*
X213823740Y-147675000D01*
X214116260Y-147675000D01*
X214403158Y-147617932D01*
X214673411Y-147505990D01*
X214916632Y-147343475D01*
X215123475Y-147136632D01*
X215240000Y-146962240D01*
X215356525Y-147136632D01*
X215563368Y-147343475D01*
X215806589Y-147505990D01*
X216076842Y-147617932D01*
X216363740Y-147675000D01*
X216656260Y-147675000D01*
X216943158Y-147617932D01*
X217213411Y-147505990D01*
X217456632Y-147343475D01*
X217663475Y-147136632D01*
X217780000Y-146962240D01*
X217896525Y-147136632D01*
X218103368Y-147343475D01*
X218346589Y-147505990D01*
X218616842Y-147617932D01*
X218903740Y-147675000D01*
X219196260Y-147675000D01*
X219445898Y-147625344D01*
X219670234Y-147849680D01*
X219693255Y-147877731D01*
X219805173Y-147969580D01*
X219932860Y-148037830D01*
X220059903Y-148076368D01*
X220071408Y-148079858D01*
X220215493Y-148094049D01*
X220251598Y-148090493D01*
X248358402Y-148090493D01*
X248394507Y-148094049D01*
X248430612Y-148090493D01*
X248538592Y-148079858D01*
X248677140Y-148037830D01*
X248804827Y-147969580D01*
X248916745Y-147877731D01*
X248939766Y-147849680D01*
X250484951Y-146304495D01*
X259515000Y-146304495D01*
X259515000Y-146695505D01*
X259591282Y-147079003D01*
X259740915Y-147440250D01*
X259958149Y-147765364D01*
X260234636Y-148041851D01*
X260559750Y-148259085D01*
X260920997Y-148408718D01*
X261304495Y-148485000D01*
X261695505Y-148485000D01*
X262079003Y-148408718D01*
X262440250Y-148259085D01*
X262765364Y-148041851D01*
X263041851Y-147765364D01*
X263259085Y-147440250D01*
X263408718Y-147079003D01*
X263485000Y-146695505D01*
X263485000Y-146304495D01*
X263408718Y-145920997D01*
X263259085Y-145559750D01*
X263041851Y-145234636D01*
X262765364Y-144958149D01*
X262440250Y-144740915D01*
X262079003Y-144591282D01*
X261695505Y-144515000D01*
X261304495Y-144515000D01*
X260920997Y-144591282D01*
X260559750Y-144740915D01*
X260234636Y-144958149D01*
X259958149Y-145234636D01*
X259740915Y-145559750D01*
X259591282Y-145920997D01*
X259515000Y-146304495D01*
X250484951Y-146304495D01*
X261744193Y-135045254D01*
X261772238Y-135022238D01*
X261864087Y-134910320D01*
X261864573Y-134909411D01*
X261932337Y-134782634D01*
X261974365Y-134644085D01*
X261988556Y-134500000D01*
X261985000Y-134463895D01*
X261985000Y-115286096D01*
X261988555Y-115249999D01*
X261985000Y-115213902D01*
X261985000Y-115213895D01*
X261974365Y-115105915D01*
X261932337Y-114967367D01*
X261864087Y-114839680D01*
X261847514Y-114819487D01*
X261795253Y-114755806D01*
X261795250Y-114755803D01*
X261772237Y-114727762D01*
X261744197Y-114704751D01*
X256295260Y-109255814D01*
X256272239Y-109227763D01*
X256160321Y-109135914D01*
X256032634Y-109067664D01*
X255894086Y-109025636D01*
X255786106Y-109015001D01*
X255750001Y-109011445D01*
X255713896Y-109015001D01*
X254554448Y-109015001D01*
X251709447Y-106170000D01*
X253441928Y-106170000D01*
X253454188Y-106294482D01*
X253490498Y-106414180D01*
X253549463Y-106524494D01*
X253628815Y-106621185D01*
X253725506Y-106700537D01*
X253835820Y-106759502D01*
X253955518Y-106795812D01*
X254080000Y-106808072D01*
X255594250Y-106805000D01*
X255753000Y-106646250D01*
X255753000Y-104997000D01*
X256007000Y-104997000D01*
X256007000Y-106646250D01*
X256165750Y-106805000D01*
X257680000Y-106808072D01*
X257804482Y-106795812D01*
X257924180Y-106759502D01*
X258034494Y-106700537D01*
X258131185Y-106621185D01*
X258210537Y-106524494D01*
X258269502Y-106414180D01*
X258305812Y-106294482D01*
X258318072Y-106170000D01*
X258315000Y-105155750D01*
X258156250Y-104997000D01*
X256007000Y-104997000D01*
X255753000Y-104997000D01*
X253603750Y-104997000D01*
X253445000Y-105155750D01*
X253441928Y-106170000D01*
X251709447Y-106170000D01*
X249109447Y-103570000D01*
X253441928Y-103570000D01*
X253445000Y-104584250D01*
X253603750Y-104743000D01*
X255753000Y-104743000D01*
X255753000Y-103093750D01*
X256007000Y-103093750D01*
X256007000Y-104743000D01*
X258156250Y-104743000D01*
X258315000Y-104584250D01*
X258318072Y-103570000D01*
X258305812Y-103445518D01*
X258269502Y-103325820D01*
X258210537Y-103215506D01*
X258131185Y-103118815D01*
X258034494Y-103039463D01*
X257924180Y-102980498D01*
X257804482Y-102944188D01*
X257680000Y-102931928D01*
X256165750Y-102935000D01*
X256007000Y-103093750D01*
X255753000Y-103093750D01*
X255594250Y-102935000D01*
X254080000Y-102931928D01*
X253955518Y-102944188D01*
X253835820Y-102980498D01*
X253725506Y-103039463D01*
X253628815Y-103118815D01*
X253549463Y-103215506D01*
X253490498Y-103325820D01*
X253454188Y-103445518D01*
X253441928Y-103570000D01*
X249109447Y-103570000D01*
X248835000Y-103295554D01*
X248835000Y-103143137D01*
X248793304Y-102933517D01*
X248711515Y-102736060D01*
X248592775Y-102558353D01*
X248441647Y-102407225D01*
X248263940Y-102288485D01*
X248066483Y-102206696D01*
X247856863Y-102165000D01*
X247643137Y-102165000D01*
X247433517Y-102206696D01*
X247236060Y-102288485D01*
X247058353Y-102407225D01*
X246907225Y-102558353D01*
X246788485Y-102736060D01*
X246706696Y-102933517D01*
X246665000Y-103143137D01*
X246665000Y-103356863D01*
X246706696Y-103566483D01*
X246788485Y-103763940D01*
X246907225Y-103941647D01*
X247058353Y-104092775D01*
X247236060Y-104211515D01*
X247433517Y-104293304D01*
X247643137Y-104335000D01*
X247795554Y-104335000D01*
X253704747Y-110244194D01*
X253727763Y-110272239D01*
X253755807Y-110295254D01*
X253839681Y-110364088D01*
X253967367Y-110432338D01*
X254105916Y-110474366D01*
X254250001Y-110488557D01*
X254286106Y-110485001D01*
X255445555Y-110485001D01*
X260515000Y-115554447D01*
X260515001Y-134195552D01*
X248090061Y-146620493D01*
X246563638Y-146620493D01*
X246577482Y-146588193D01*
X246580310Y-146579056D01*
X246636719Y-146392220D01*
X246648780Y-146331310D01*
X246661686Y-146270591D01*
X246662686Y-146261079D01*
X246681731Y-146066845D01*
X246681731Y-146066837D01*
X246685000Y-146033647D01*
X246685000Y-132870000D01*
X253441928Y-132870000D01*
X253441928Y-135470000D01*
X253454188Y-135594482D01*
X253490498Y-135714180D01*
X253549463Y-135824494D01*
X253628815Y-135921185D01*
X253725506Y-136000537D01*
X253835820Y-136059502D01*
X253955518Y-136095812D01*
X254080000Y-136108072D01*
X257680000Y-136108072D01*
X257804482Y-136095812D01*
X257924180Y-136059502D01*
X258034494Y-136000537D01*
X258131185Y-135921185D01*
X258210537Y-135824494D01*
X258269502Y-135714180D01*
X258305812Y-135594482D01*
X258318072Y-135470000D01*
X258318072Y-132870000D01*
X258305812Y-132745518D01*
X258269502Y-132625820D01*
X258210537Y-132515506D01*
X258131185Y-132418815D01*
X258034494Y-132339463D01*
X257924180Y-132280498D01*
X257804482Y-132244188D01*
X257680000Y-132231928D01*
X257269650Y-132231928D01*
X259595050Y-129906529D01*
X259628817Y-129878817D01*
X259657352Y-129844048D01*
X259722696Y-129764426D01*
X259739411Y-129744059D01*
X259821589Y-129590313D01*
X259872195Y-129423490D01*
X259885000Y-129293477D01*
X259885000Y-129293467D01*
X259889281Y-129250001D01*
X259885000Y-129206535D01*
X259885000Y-119628453D01*
X259961515Y-119513940D01*
X260043304Y-119316483D01*
X260085000Y-119106863D01*
X260085000Y-118893137D01*
X260043304Y-118683517D01*
X259961515Y-118486060D01*
X259842775Y-118308353D01*
X259691647Y-118157225D01*
X259513940Y-118038485D01*
X259316483Y-117956696D01*
X259106863Y-117915000D01*
X258893137Y-117915000D01*
X258683517Y-117956696D01*
X258486060Y-118038485D01*
X258308353Y-118157225D01*
X258157225Y-118308353D01*
X258038485Y-118486060D01*
X257956696Y-118683517D01*
X257915000Y-118893137D01*
X257915000Y-119106863D01*
X257956696Y-119316483D01*
X258038485Y-119513940D01*
X258115001Y-119628454D01*
X258115000Y-124043476D01*
X258115001Y-124043486D01*
X258115000Y-128883421D01*
X255284951Y-131713471D01*
X255251184Y-131741183D01*
X255223471Y-131774951D01*
X255223468Y-131774954D01*
X255140590Y-131875941D01*
X255058412Y-132029687D01*
X255007805Y-132196510D01*
X255004317Y-132231928D01*
X254080000Y-132231928D01*
X253955518Y-132244188D01*
X253835820Y-132280498D01*
X253725506Y-132339463D01*
X253628815Y-132418815D01*
X253549463Y-132515506D01*
X253490498Y-132625820D01*
X253454188Y-132745518D01*
X253441928Y-132870000D01*
X246685000Y-132870000D01*
X246685000Y-130966353D01*
X246681633Y-130932169D01*
X246681633Y-130919193D01*
X246680634Y-130909681D01*
X246658879Y-130715732D01*
X246645975Y-130655024D01*
X246633911Y-130594099D01*
X246631083Y-130584962D01*
X246572070Y-130398932D01*
X246547618Y-130341882D01*
X246523954Y-130284470D01*
X246519405Y-130276056D01*
X246425383Y-130105031D01*
X246390310Y-130053809D01*
X246355951Y-130002094D01*
X246349854Y-129994724D01*
X246224404Y-129845218D01*
X246180046Y-129801779D01*
X246136297Y-129757724D01*
X246128885Y-129751679D01*
X245976785Y-129629389D01*
X245924845Y-129595401D01*
X245873367Y-129560678D01*
X245864923Y-129556187D01*
X245691967Y-129465768D01*
X245634410Y-129442513D01*
X245577165Y-129418450D01*
X245568009Y-129415685D01*
X245380783Y-129360582D01*
X245319775Y-129348945D01*
X245258985Y-129336466D01*
X245249466Y-129335532D01*
X245055105Y-129317843D01*
X244992981Y-129318277D01*
X244930933Y-129317844D01*
X244921426Y-129318776D01*
X244921419Y-129318776D01*
X244921413Y-129318777D01*
X244727318Y-129339178D01*
X244666504Y-129351661D01*
X244605519Y-129363295D01*
X244596363Y-129366059D01*
X244409925Y-129423771D01*
X244352692Y-129447830D01*
X244295127Y-129471087D01*
X244286682Y-129475577D01*
X244115006Y-129568402D01*
X244063532Y-129603122D01*
X244011582Y-129637117D01*
X244004170Y-129643162D01*
X243853793Y-129767565D01*
X243810027Y-129811638D01*
X243765689Y-129855057D01*
X243759592Y-129862426D01*
X243636242Y-130013668D01*
X243601881Y-130065386D01*
X243566809Y-130116607D01*
X243562260Y-130125020D01*
X243470635Y-130297343D01*
X243446978Y-130354739D01*
X243422519Y-130411807D01*
X243419690Y-130420943D01*
X243363281Y-130607780D01*
X243351219Y-130668698D01*
X243338314Y-130729410D01*
X243337314Y-130738922D01*
X243318269Y-130933155D01*
X243318269Y-130933173D01*
X243315001Y-130966353D01*
X243315000Y-146033646D01*
X243318366Y-146067821D01*
X243318366Y-146080806D01*
X243319366Y-146090318D01*
X243341121Y-146284268D01*
X243354025Y-146344976D01*
X243366089Y-146405901D01*
X243368917Y-146415038D01*
X243427930Y-146601068D01*
X243436256Y-146620493D01*
X220519939Y-146620493D01*
X220485344Y-146585898D01*
X220535000Y-146336260D01*
X220535000Y-146043740D01*
X220477932Y-145756842D01*
X220365990Y-145486589D01*
X220203475Y-145243368D01*
X219996632Y-145036525D01*
X219753411Y-144874010D01*
X219483158Y-144762068D01*
X219196260Y-144705000D01*
X218903740Y-144705000D01*
X218616842Y-144762068D01*
X218346589Y-144874010D01*
X218103368Y-145036525D01*
X217896525Y-145243368D01*
X217780000Y-145417760D01*
X217663475Y-145243368D01*
X217456632Y-145036525D01*
X217213411Y-144874010D01*
X216943158Y-144762068D01*
X216656260Y-144705000D01*
X216363740Y-144705000D01*
X216076842Y-144762068D01*
X215806589Y-144874010D01*
X215563368Y-145036525D01*
X215356525Y-145243368D01*
X215240000Y-145417760D01*
X215123475Y-145243368D01*
X214916632Y-145036525D01*
X214673411Y-144874010D01*
X214403158Y-144762068D01*
X214116260Y-144705000D01*
X213823740Y-144705000D01*
X213536842Y-144762068D01*
X213266589Y-144874010D01*
X213023368Y-145036525D01*
X212891513Y-145168380D01*
X212869502Y-145095820D01*
X212810537Y-144985506D01*
X212731185Y-144888815D01*
X212634494Y-144809463D01*
X212524180Y-144750498D01*
X212404482Y-144714188D01*
X212280000Y-144701928D01*
X211715750Y-144705000D01*
X211557000Y-144863750D01*
X211303000Y-144863750D01*
X211144250Y-144705000D01*
X210580000Y-144701928D01*
X210455518Y-144714188D01*
X210335820Y-144750498D01*
X210225506Y-144809463D01*
X210128815Y-144888815D01*
X210049463Y-144985506D01*
X209990498Y-145095820D01*
X209954188Y-145215518D01*
X209941928Y-145340000D01*
X205112253Y-145340000D01*
X205041851Y-145234636D01*
X204765364Y-144958149D01*
X204440250Y-144740915D01*
X204079003Y-144591282D01*
X203695505Y-144515000D01*
X203304495Y-144515000D01*
X202920997Y-144591282D01*
X202559750Y-144740915D01*
X202234636Y-144958149D01*
X201958149Y-145234636D01*
X201740915Y-145559750D01*
X201591282Y-145920997D01*
X201515000Y-146304495D01*
X200685000Y-146304495D01*
X200685000Y-131185307D01*
X202328689Y-131188014D01*
X202358509Y-131185127D01*
X202359573Y-131185134D01*
X202369092Y-131184201D01*
X202381078Y-131182941D01*
X202429341Y-131178268D01*
X202431374Y-131177655D01*
X202466140Y-131174001D01*
X202526990Y-131161510D01*
X202587942Y-131149883D01*
X202597096Y-131147120D01*
X202597102Y-131147118D01*
X202690317Y-131118263D01*
X202747533Y-131094211D01*
X202805119Y-131070945D01*
X202813564Y-131066455D01*
X202899401Y-131020042D01*
X202950867Y-130985327D01*
X203002821Y-130951329D01*
X203010232Y-130945285D01*
X203085421Y-130883083D01*
X203129162Y-130839035D01*
X203173522Y-130795596D01*
X203179618Y-130788226D01*
X203179623Y-130788221D01*
X203179627Y-130788215D01*
X203241294Y-130712605D01*
X203275632Y-130660924D01*
X203310733Y-130609659D01*
X203315282Y-130601246D01*
X203361094Y-130515085D01*
X203384758Y-130457669D01*
X203409208Y-130400626D01*
X203412036Y-130391490D01*
X203440241Y-130298072D01*
X203452303Y-130237152D01*
X203465209Y-130176435D01*
X203466209Y-130166923D01*
X203475731Y-130069806D01*
X203475731Y-130069801D01*
X203478990Y-130036813D01*
X203481622Y-121069952D01*
X203607074Y-121069952D01*
X203607074Y-122930048D01*
X203773811Y-124782656D01*
X204105944Y-126612859D01*
X204600798Y-128405922D01*
X205254389Y-130147409D01*
X206061455Y-131823297D01*
X207015496Y-133420094D01*
X208108833Y-134924944D01*
X209073887Y-136029538D01*
X209058669Y-136019369D01*
X208651925Y-135850890D01*
X208220128Y-135765000D01*
X207779872Y-135765000D01*
X207348075Y-135850890D01*
X206941331Y-136019369D01*
X206575271Y-136263962D01*
X206263962Y-136575271D01*
X206019369Y-136941331D01*
X205850890Y-137348075D01*
X205765000Y-137779872D01*
X205765000Y-138220128D01*
X205850890Y-138651925D01*
X206019369Y-139058669D01*
X206263962Y-139424729D01*
X206575271Y-139736038D01*
X206941331Y-139980631D01*
X207348075Y-140149110D01*
X207779872Y-140235000D01*
X208220128Y-140235000D01*
X208651925Y-140149110D01*
X209058669Y-139980631D01*
X209424729Y-139736038D01*
X209736038Y-139424729D01*
X209980631Y-139058669D01*
X210149110Y-138651925D01*
X210235000Y-138220128D01*
X210235000Y-137779872D01*
X210149110Y-137348075D01*
X209983319Y-136947820D01*
X210677130Y-137611171D01*
X212131412Y-138770922D01*
X213683798Y-139795643D01*
X215321790Y-140677085D01*
X217032200Y-141408149D01*
X218801256Y-141982950D01*
X220614716Y-142396860D01*
X222457977Y-142646547D01*
X224316200Y-142730000D01*
X226174423Y-142646547D01*
X228017684Y-142396860D01*
X229831144Y-141982950D01*
X231600200Y-141408149D01*
X233310610Y-140677085D01*
X234948602Y-139795643D01*
X236500988Y-138770922D01*
X237769011Y-137759708D01*
X237765000Y-137779872D01*
X237765000Y-138220128D01*
X237850890Y-138651925D01*
X238019369Y-139058669D01*
X238263962Y-139424729D01*
X238575271Y-139736038D01*
X238941331Y-139980631D01*
X239348075Y-140149110D01*
X239779872Y-140235000D01*
X240220128Y-140235000D01*
X240651925Y-140149110D01*
X241058669Y-139980631D01*
X241424729Y-139736038D01*
X241736038Y-139424729D01*
X241980631Y-139058669D01*
X242149110Y-138651925D01*
X242235000Y-138220128D01*
X242235000Y-137779872D01*
X242149110Y-137348075D01*
X241980631Y-136941331D01*
X241736038Y-136575271D01*
X241424729Y-136263962D01*
X241058669Y-136019369D01*
X240651925Y-135850890D01*
X240220128Y-135765000D01*
X239789632Y-135765000D01*
X240523567Y-134924944D01*
X241616904Y-133420094D01*
X242570945Y-131823297D01*
X243378011Y-130147409D01*
X244031602Y-128405922D01*
X244526456Y-126612859D01*
X244858589Y-124782656D01*
X245025326Y-122930048D01*
X245025326Y-121069952D01*
X244858589Y-119217344D01*
X244526456Y-117387141D01*
X244031602Y-115594078D01*
X243378011Y-113852591D01*
X242570945Y-112176703D01*
X241616904Y-110579906D01*
X240523567Y-109075056D01*
X239789632Y-108235000D01*
X240220128Y-108235000D01*
X240651925Y-108149110D01*
X241058669Y-107980631D01*
X241424729Y-107736038D01*
X241736038Y-107424729D01*
X241980631Y-107058669D01*
X242149110Y-106651925D01*
X242235000Y-106220128D01*
X242235000Y-105779872D01*
X242149110Y-105348075D01*
X241980631Y-104941331D01*
X241736038Y-104575271D01*
X241424729Y-104263962D01*
X241058669Y-104019369D01*
X240651925Y-103850890D01*
X240220128Y-103765000D01*
X239779872Y-103765000D01*
X239348075Y-103850890D01*
X238941331Y-104019369D01*
X238575271Y-104263962D01*
X238263962Y-104575271D01*
X238019369Y-104941331D01*
X237850890Y-105348075D01*
X237765000Y-105779872D01*
X237765000Y-106220128D01*
X237769011Y-106240292D01*
X236500988Y-105229078D01*
X234948602Y-104204357D01*
X233310610Y-103322915D01*
X231600200Y-102591851D01*
X229831144Y-102017050D01*
X228017684Y-101603140D01*
X227656469Y-101554210D01*
X233445764Y-101554210D01*
X235385746Y-103494193D01*
X235408762Y-103522238D01*
X235520680Y-103614087D01*
X235648367Y-103682337D01*
X235786915Y-103724365D01*
X235931000Y-103738556D01*
X235967105Y-103735000D01*
X241945554Y-103735000D01*
X245015001Y-106804448D01*
X245015000Y-119213895D01*
X245011444Y-119250000D01*
X245015000Y-119286104D01*
X245025635Y-119394084D01*
X245067663Y-119532632D01*
X245135913Y-119660319D01*
X245227762Y-119772237D01*
X245255808Y-119795254D01*
X248704746Y-123244193D01*
X248727762Y-123272238D01*
X248839680Y-123364087D01*
X248967367Y-123432337D01*
X249105915Y-123474365D01*
X249213895Y-123485000D01*
X249213904Y-123485000D01*
X249249999Y-123488555D01*
X249286094Y-123485000D01*
X254200578Y-123485000D01*
X254308353Y-123592775D01*
X254486060Y-123711515D01*
X254683517Y-123793304D01*
X254893137Y-123835000D01*
X255106863Y-123835000D01*
X255316483Y-123793304D01*
X255513940Y-123711515D01*
X255691647Y-123592775D01*
X255842775Y-123441647D01*
X255961515Y-123263940D01*
X256043304Y-123066483D01*
X256085000Y-122856863D01*
X256085000Y-122643137D01*
X256043304Y-122433517D01*
X255961515Y-122236060D01*
X255842775Y-122058353D01*
X255691647Y-121907225D01*
X255513940Y-121788485D01*
X255316483Y-121706696D01*
X255106863Y-121665000D01*
X254893137Y-121665000D01*
X254683517Y-121706696D01*
X254486060Y-121788485D01*
X254308353Y-121907225D01*
X254200578Y-122015000D01*
X249554447Y-122015000D01*
X246485000Y-118945554D01*
X246485000Y-117774446D01*
X247454746Y-118744193D01*
X247477762Y-118772238D01*
X247589680Y-118864087D01*
X247717367Y-118932337D01*
X247832846Y-118967367D01*
X247855915Y-118974365D01*
X248000000Y-118988556D01*
X248036105Y-118985000D01*
X251200578Y-118985000D01*
X251308353Y-119092775D01*
X251486060Y-119211515D01*
X251683517Y-119293304D01*
X251893137Y-119335000D01*
X252106863Y-119335000D01*
X252316483Y-119293304D01*
X252513940Y-119211515D01*
X252691647Y-119092775D01*
X252842775Y-118941647D01*
X252961515Y-118763940D01*
X253043304Y-118566483D01*
X253085000Y-118356863D01*
X253085000Y-118143137D01*
X253043304Y-117933517D01*
X252961515Y-117736060D01*
X252842775Y-117558353D01*
X252691647Y-117407225D01*
X252513940Y-117288485D01*
X252316483Y-117206696D01*
X252106863Y-117165000D01*
X251893137Y-117165000D01*
X251683517Y-117206696D01*
X251486060Y-117288485D01*
X251308353Y-117407225D01*
X251200578Y-117515000D01*
X248304447Y-117515000D01*
X247485000Y-116695554D01*
X247485000Y-105786094D01*
X247488555Y-105749999D01*
X247485000Y-105713904D01*
X247485000Y-105713895D01*
X247474365Y-105605915D01*
X247432337Y-105467367D01*
X247364087Y-105339680D01*
X247347514Y-105319487D01*
X247295253Y-105255806D01*
X247295250Y-105255803D01*
X247272237Y-105227762D01*
X247244197Y-105204750D01*
X243463059Y-101423613D01*
X243440038Y-101395562D01*
X243328120Y-101303713D01*
X243200433Y-101235463D01*
X243061885Y-101193435D01*
X242953905Y-101182800D01*
X242917800Y-101179244D01*
X242881695Y-101182800D01*
X237490047Y-101182800D01*
X236544662Y-100237416D01*
X236743158Y-100197932D01*
X237013411Y-100085990D01*
X237256632Y-99923475D01*
X237463475Y-99716632D01*
X237585195Y-99534466D01*
X237654822Y-99651355D01*
X237849731Y-99867588D01*
X238083080Y-100041641D01*
X238345901Y-100166825D01*
X238493110Y-100211476D01*
X238723000Y-100090155D01*
X238723000Y-98897000D01*
X238703000Y-98897000D01*
X238703000Y-98643000D01*
X238723000Y-98643000D01*
X238723000Y-98623000D01*
X238977000Y-98623000D01*
X238977000Y-98643000D01*
X238997000Y-98643000D01*
X238997000Y-98897000D01*
X238977000Y-98897000D01*
X238977000Y-100090155D01*
X239206890Y-100211476D01*
X239354099Y-100166825D01*
X239616920Y-100041641D01*
X239850269Y-99867588D01*
X240045178Y-99651355D01*
X240114805Y-99534466D01*
X240236525Y-99716632D01*
X240443368Y-99923475D01*
X240686589Y-100085990D01*
X240956842Y-100197932D01*
X241243740Y-100255000D01*
X241536260Y-100255000D01*
X241823158Y-100197932D01*
X242093411Y-100085990D01*
X242336632Y-99923475D01*
X242543475Y-99716632D01*
X242660000Y-99542240D01*
X242776525Y-99716632D01*
X242983368Y-99923475D01*
X243226589Y-100085990D01*
X243496842Y-100197932D01*
X243783740Y-100255000D01*
X244076260Y-100255000D01*
X244363158Y-100197932D01*
X244633411Y-100085990D01*
X244876632Y-99923475D01*
X245083475Y-99716632D01*
X245200000Y-99542240D01*
X245316525Y-99716632D01*
X245523368Y-99923475D01*
X245766589Y-100085990D01*
X246036842Y-100197932D01*
X246323740Y-100255000D01*
X246616260Y-100255000D01*
X246903158Y-100197932D01*
X247173411Y-100085990D01*
X247416632Y-99923475D01*
X247623475Y-99716632D01*
X247740000Y-99542240D01*
X247856525Y-99716632D01*
X248063368Y-99923475D01*
X248306589Y-100085990D01*
X248576842Y-100197932D01*
X248863740Y-100255000D01*
X249156260Y-100255000D01*
X249443158Y-100197932D01*
X249713411Y-100085990D01*
X249956632Y-99923475D01*
X250163475Y-99716632D01*
X250280000Y-99542240D01*
X250396525Y-99716632D01*
X250603368Y-99923475D01*
X250846589Y-100085990D01*
X251116842Y-100197932D01*
X251403740Y-100255000D01*
X251696260Y-100255000D01*
X251983158Y-100197932D01*
X252253411Y-100085990D01*
X252496632Y-99923475D01*
X252703475Y-99716632D01*
X252820000Y-99542240D01*
X252936525Y-99716632D01*
X253143368Y-99923475D01*
X253386589Y-100085990D01*
X253656842Y-100197932D01*
X253943740Y-100255000D01*
X254236260Y-100255000D01*
X254523158Y-100197932D01*
X254793411Y-100085990D01*
X255036632Y-99923475D01*
X255243475Y-99716632D01*
X255365195Y-99534466D01*
X255434822Y-99651355D01*
X255629731Y-99867588D01*
X255863080Y-100041641D01*
X256125901Y-100166825D01*
X256273110Y-100211476D01*
X256503000Y-100090155D01*
X256503000Y-98897000D01*
X256757000Y-98897000D01*
X256757000Y-100090155D01*
X256986890Y-100211476D01*
X257134099Y-100166825D01*
X257396920Y-100041641D01*
X257630269Y-99867588D01*
X257825178Y-99651355D01*
X257974157Y-99401252D01*
X258071481Y-99126891D01*
X257950814Y-98897000D01*
X256757000Y-98897000D01*
X256503000Y-98897000D01*
X256483000Y-98897000D01*
X256483000Y-98643000D01*
X256503000Y-98643000D01*
X256503000Y-98623000D01*
X256757000Y-98623000D01*
X256757000Y-98643000D01*
X257950814Y-98643000D01*
X258071481Y-98413109D01*
X257974157Y-98138748D01*
X257825178Y-97888645D01*
X257630269Y-97672412D01*
X257400594Y-97501100D01*
X257576632Y-97383475D01*
X257655612Y-97304495D01*
X259515000Y-97304495D01*
X259515000Y-97695505D01*
X259591282Y-98079003D01*
X259740915Y-98440250D01*
X259958149Y-98765364D01*
X260234636Y-99041851D01*
X260559750Y-99259085D01*
X260920997Y-99408718D01*
X261304495Y-99485000D01*
X261695505Y-99485000D01*
X262079003Y-99408718D01*
X262440250Y-99259085D01*
X262765364Y-99041851D01*
X263041851Y-98765364D01*
X263259085Y-98440250D01*
X263408718Y-98079003D01*
X263485000Y-97695505D01*
X263485000Y-97304495D01*
X263408718Y-96920997D01*
X263259085Y-96559750D01*
X263041851Y-96234636D01*
X262765364Y-95958149D01*
X262440250Y-95740915D01*
X262079003Y-95591282D01*
X261695505Y-95515000D01*
X261304495Y-95515000D01*
X260920997Y-95591282D01*
X260559750Y-95740915D01*
X260234636Y-95958149D01*
X259958149Y-96234636D01*
X259740915Y-96559750D01*
X259591282Y-96920997D01*
X259515000Y-97304495D01*
X257655612Y-97304495D01*
X257783475Y-97176632D01*
X257945990Y-96933411D01*
X258057932Y-96663158D01*
X258115000Y-96376260D01*
X258115000Y-96083740D01*
X258057932Y-95796842D01*
X257945990Y-95526589D01*
X257783475Y-95283368D01*
X257576632Y-95076525D01*
X257333411Y-94914010D01*
X257063158Y-94802068D01*
X256776260Y-94745000D01*
X256483740Y-94745000D01*
X256196842Y-94802068D01*
X255926589Y-94914010D01*
X255683368Y-95076525D01*
X255476525Y-95283368D01*
X255360000Y-95457760D01*
X255243475Y-95283368D01*
X255036632Y-95076525D01*
X254793411Y-94914010D01*
X254523158Y-94802068D01*
X254236260Y-94745000D01*
X253943740Y-94745000D01*
X253656842Y-94802068D01*
X253386589Y-94914010D01*
X253143368Y-95076525D01*
X252936525Y-95283368D01*
X252820000Y-95457760D01*
X252703475Y-95283368D01*
X252496632Y-95076525D01*
X252253411Y-94914010D01*
X251983158Y-94802068D01*
X251696260Y-94745000D01*
X251403740Y-94745000D01*
X251116842Y-94802068D01*
X250846589Y-94914010D01*
X250603368Y-95076525D01*
X250396525Y-95283368D01*
X250274805Y-95465534D01*
X250205178Y-95348645D01*
X250010269Y-95132412D01*
X249776920Y-94958359D01*
X249514099Y-94833175D01*
X249366890Y-94788524D01*
X249137000Y-94909845D01*
X249137000Y-96103000D01*
X249157000Y-96103000D01*
X249157000Y-96357000D01*
X249137000Y-96357000D01*
X249137000Y-96377000D01*
X248883000Y-96377000D01*
X248883000Y-96357000D01*
X248863000Y-96357000D01*
X248863000Y-96103000D01*
X248883000Y-96103000D01*
X248883000Y-94909845D01*
X248653110Y-94788524D01*
X248505901Y-94833175D01*
X248243080Y-94958359D01*
X248009731Y-95132412D01*
X247814822Y-95348645D01*
X247745195Y-95465534D01*
X247623475Y-95283368D01*
X247416632Y-95076525D01*
X247173411Y-94914010D01*
X246903158Y-94802068D01*
X246616260Y-94745000D01*
X246323740Y-94745000D01*
X246036842Y-94802068D01*
X245766589Y-94914010D01*
X245523368Y-95076525D01*
X245316525Y-95283368D01*
X245194805Y-95465534D01*
X245125178Y-95348645D01*
X244930269Y-95132412D01*
X244696920Y-94958359D01*
X244434099Y-94833175D01*
X244286890Y-94788524D01*
X244057000Y-94909845D01*
X244057000Y-96103000D01*
X244077000Y-96103000D01*
X244077000Y-96357000D01*
X244057000Y-96357000D01*
X244057000Y-96377000D01*
X243803000Y-96377000D01*
X243803000Y-96357000D01*
X243783000Y-96357000D01*
X243783000Y-96103000D01*
X243803000Y-96103000D01*
X243803000Y-94909845D01*
X243573110Y-94788524D01*
X243425901Y-94833175D01*
X243163080Y-94958359D01*
X242929731Y-95132412D01*
X242734822Y-95348645D01*
X242665195Y-95465534D01*
X242543475Y-95283368D01*
X242336632Y-95076525D01*
X242093411Y-94914010D01*
X241823158Y-94802068D01*
X241536260Y-94745000D01*
X241243740Y-94745000D01*
X240956842Y-94802068D01*
X240686589Y-94914010D01*
X240443368Y-95076525D01*
X240236525Y-95283368D01*
X240120000Y-95457760D01*
X240003475Y-95283368D01*
X239796632Y-95076525D01*
X239553411Y-94914010D01*
X239283158Y-94802068D01*
X238996260Y-94745000D01*
X238703740Y-94745000D01*
X238416842Y-94802068D01*
X238146589Y-94914010D01*
X237903368Y-95076525D01*
X237696525Y-95283368D01*
X237580000Y-95457760D01*
X237463475Y-95283368D01*
X237256632Y-95076525D01*
X237013411Y-94914010D01*
X236743158Y-94802068D01*
X236456260Y-94745000D01*
X236163740Y-94745000D01*
X235876842Y-94802068D01*
X235606589Y-94914010D01*
X235363368Y-95076525D01*
X235156525Y-95283368D01*
X235040000Y-95457760D01*
X234923475Y-95283368D01*
X234716632Y-95076525D01*
X234473411Y-94914010D01*
X234203158Y-94802068D01*
X233916260Y-94745000D01*
X233623740Y-94745000D01*
X233336842Y-94802068D01*
X233066589Y-94914010D01*
X232823368Y-95076525D01*
X232616525Y-95283368D01*
X232494805Y-95465534D01*
X232425178Y-95348645D01*
X232230269Y-95132412D01*
X231996920Y-94958359D01*
X231734099Y-94833175D01*
X231586890Y-94788524D01*
X231357000Y-94909845D01*
X231357000Y-96103000D01*
X231377000Y-96103000D01*
X231377000Y-96357000D01*
X231357000Y-96357000D01*
X231357000Y-96377000D01*
X231103000Y-96377000D01*
X231103000Y-96357000D01*
X231083000Y-96357000D01*
X231083000Y-96103000D01*
X231103000Y-96103000D01*
X231103000Y-94909845D01*
X230873110Y-94788524D01*
X230725901Y-94833175D01*
X230463080Y-94958359D01*
X230229731Y-95132412D01*
X230034822Y-95348645D01*
X229965195Y-95465534D01*
X229843475Y-95283368D01*
X229636632Y-95076525D01*
X229393411Y-94914010D01*
X229123158Y-94802068D01*
X228836260Y-94745000D01*
X228543740Y-94745000D01*
X228256842Y-94802068D01*
X227986589Y-94914010D01*
X227743368Y-95076525D01*
X227536525Y-95283368D01*
X227420000Y-95457760D01*
X227303475Y-95283368D01*
X227096632Y-95076525D01*
X226853411Y-94914010D01*
X226583158Y-94802068D01*
X226296260Y-94745000D01*
X226003740Y-94745000D01*
X225716842Y-94802068D01*
X225446589Y-94914010D01*
X225203368Y-95076525D01*
X224996525Y-95283368D01*
X224874805Y-95465534D01*
X224805178Y-95348645D01*
X224610269Y-95132412D01*
X224376920Y-94958359D01*
X224114099Y-94833175D01*
X223966890Y-94788524D01*
X223737000Y-94909845D01*
X223737000Y-96103000D01*
X223757000Y-96103000D01*
X223757000Y-96357000D01*
X223737000Y-96357000D01*
X223737000Y-96377000D01*
X223483000Y-96377000D01*
X223483000Y-96357000D01*
X223463000Y-96357000D01*
X223463000Y-96103000D01*
X223483000Y-96103000D01*
X223483000Y-94909845D01*
X223253110Y-94788524D01*
X223105901Y-94833175D01*
X222843080Y-94958359D01*
X222609731Y-95132412D01*
X222414822Y-95348645D01*
X222345195Y-95465534D01*
X222223475Y-95283368D01*
X222016632Y-95076525D01*
X221773411Y-94914010D01*
X221503158Y-94802068D01*
X221216260Y-94745000D01*
X220923740Y-94745000D01*
X220636842Y-94802068D01*
X220366589Y-94914010D01*
X220123368Y-95076525D01*
X219916525Y-95283368D01*
X219800000Y-95457760D01*
X219683475Y-95283368D01*
X219476632Y-95076525D01*
X219233411Y-94914010D01*
X218963158Y-94802068D01*
X218676260Y-94745000D01*
X218383740Y-94745000D01*
X218096842Y-94802068D01*
X217826589Y-94914010D01*
X217583368Y-95076525D01*
X217376525Y-95283368D01*
X217260000Y-95457760D01*
X217143475Y-95283368D01*
X216936632Y-95076525D01*
X216693411Y-94914010D01*
X216423158Y-94802068D01*
X216136260Y-94745000D01*
X215843740Y-94745000D01*
X215556842Y-94802068D01*
X215286589Y-94914010D01*
X215043368Y-95076525D01*
X214836525Y-95283368D01*
X214714805Y-95465534D01*
X214645178Y-95348645D01*
X214450269Y-95132412D01*
X214216920Y-94958359D01*
X213954099Y-94833175D01*
X213806890Y-94788524D01*
X213577000Y-94909845D01*
X213577000Y-96103000D01*
X213597000Y-96103000D01*
X213597000Y-96357000D01*
X213577000Y-96357000D01*
X213577000Y-96377000D01*
X213323000Y-96377000D01*
X213323000Y-96357000D01*
X213303000Y-96357000D01*
X213303000Y-96103000D01*
X213323000Y-96103000D01*
X213323000Y-94909845D01*
X213093110Y-94788524D01*
X212945901Y-94833175D01*
X212683080Y-94958359D01*
X212449731Y-95132412D01*
X212254822Y-95348645D01*
X212185195Y-95465534D01*
X212063475Y-95283368D01*
X211856632Y-95076525D01*
X211613411Y-94914010D01*
X211343158Y-94802068D01*
X211056260Y-94745000D01*
X210763740Y-94745000D01*
X210476842Y-94802068D01*
X210206589Y-94914010D01*
X209963368Y-95076525D01*
X209756525Y-95283368D01*
X209640000Y-95457760D01*
X209523475Y-95283368D01*
X209316632Y-95076525D01*
X209073411Y-94914010D01*
X208803158Y-94802068D01*
X208516260Y-94745000D01*
X208223740Y-94745000D01*
X207936842Y-94802068D01*
X207666589Y-94914010D01*
X207423368Y-95076525D01*
X207216525Y-95283368D01*
X207054010Y-95526589D01*
X206942068Y-95796842D01*
X206885000Y-96083740D01*
X206885000Y-96376260D01*
X206942068Y-96663158D01*
X207054010Y-96933411D01*
X207216525Y-97176632D01*
X207348380Y-97308487D01*
X207275820Y-97330498D01*
X207165506Y-97389463D01*
X207068815Y-97468815D01*
X206989463Y-97565506D01*
X206930498Y-97675820D01*
X206894188Y-97795518D01*
X206881928Y-97920000D01*
X206881928Y-99620000D01*
X206894188Y-99744482D01*
X206930498Y-99864180D01*
X206989463Y-99974494D01*
X207068815Y-100071185D01*
X207165506Y-100150537D01*
X207275820Y-100209502D01*
X207395518Y-100245812D01*
X207520000Y-100258072D01*
X209220000Y-100258072D01*
X209344482Y-100245812D01*
X209464180Y-100209502D01*
X209574494Y-100150537D01*
X209671185Y-100071185D01*
X209750537Y-99974494D01*
X209809502Y-99864180D01*
X209831513Y-99791620D01*
X209963368Y-99923475D01*
X210178612Y-100067297D01*
X210179119Y-100078273D01*
X210183745Y-100096978D01*
X210185635Y-100116165D01*
X210201098Y-100167139D01*
X210213880Y-100218821D01*
X210222067Y-100236265D01*
X210227663Y-100254713D01*
X210252771Y-100301686D01*
X210275392Y-100349886D01*
X210286826Y-100365399D01*
X210295913Y-100382400D01*
X210329700Y-100423570D01*
X210339767Y-100437228D01*
X210352590Y-100451461D01*
X210387762Y-100494318D01*
X210400960Y-100505149D01*
X211075808Y-101254201D01*
X211087947Y-101268993D01*
X211099932Y-101280978D01*
X211111300Y-101293596D01*
X211125470Y-101306516D01*
X211132351Y-101313397D01*
X211155372Y-101341448D01*
X211267290Y-101433297D01*
X211394977Y-101501547D01*
X211533525Y-101543575D01*
X211641505Y-101554210D01*
X211641514Y-101554210D01*
X211677609Y-101557765D01*
X211713704Y-101554210D01*
X220975931Y-101554210D01*
X220614716Y-101603140D01*
X218801256Y-102017050D01*
X217032200Y-102591851D01*
X215321790Y-103322915D01*
X213683798Y-104204357D01*
X212131412Y-105229078D01*
X210677130Y-106388829D01*
X209983319Y-107052180D01*
X210149110Y-106651925D01*
X210235000Y-106220128D01*
X210235000Y-105779872D01*
X210149110Y-105348075D01*
X209980631Y-104941331D01*
X209736038Y-104575271D01*
X209424729Y-104263962D01*
X209058669Y-104019369D01*
X208651925Y-103850890D01*
X208220128Y-103765000D01*
X207779872Y-103765000D01*
X207348075Y-103850890D01*
X206941331Y-104019369D01*
X206575271Y-104263962D01*
X206263962Y-104575271D01*
X206019369Y-104941331D01*
X205850890Y-105348075D01*
X205765000Y-105779872D01*
X205765000Y-106220128D01*
X205850890Y-106651925D01*
X206019369Y-107058669D01*
X206263962Y-107424729D01*
X206575271Y-107736038D01*
X206941331Y-107980631D01*
X207348075Y-108149110D01*
X207779872Y-108235000D01*
X208220128Y-108235000D01*
X208651925Y-108149110D01*
X209058669Y-107980631D01*
X209073887Y-107970462D01*
X208108833Y-109075056D01*
X207015496Y-110579906D01*
X206061455Y-112176703D01*
X205254389Y-113852591D01*
X204600798Y-115594078D01*
X204105944Y-117387141D01*
X203773811Y-119217344D01*
X203607074Y-121069952D01*
X203481622Y-121069952D01*
X203483708Y-113965881D01*
X203480854Y-113936813D01*
X203480869Y-113934627D01*
X203479936Y-113925109D01*
X203476414Y-113891601D01*
X203473826Y-113865242D01*
X203473547Y-113864322D01*
X203469736Y-113828060D01*
X203457247Y-113767217D01*
X203445618Y-113706258D01*
X203442854Y-113697102D01*
X203413998Y-113603883D01*
X203389932Y-113546634D01*
X203366679Y-113489081D01*
X203362189Y-113480636D01*
X203315777Y-113394798D01*
X203281050Y-113343315D01*
X203247064Y-113291379D01*
X203241020Y-113283967D01*
X203178818Y-113208779D01*
X203134751Y-113165018D01*
X203091330Y-113120678D01*
X203083961Y-113114581D01*
X203008340Y-113052906D01*
X202956659Y-113018568D01*
X202905394Y-112983467D01*
X202896981Y-112978918D01*
X202810820Y-112933106D01*
X202753404Y-112909442D01*
X202696361Y-112884992D01*
X202687225Y-112882164D01*
X202593807Y-112853959D01*
X202532895Y-112841898D01*
X202472171Y-112828991D01*
X202462659Y-112827991D01*
X202365541Y-112818469D01*
X202365535Y-112818469D01*
X202332423Y-112815204D01*
X200685000Y-112815021D01*
X200685000Y-97304495D01*
X201515000Y-97304495D01*
X201515000Y-97695505D01*
X201591282Y-98079003D01*
X201740915Y-98440250D01*
X201958149Y-98765364D01*
X202234636Y-99041851D01*
X202559750Y-99259085D01*
X202920997Y-99408718D01*
X203304495Y-99485000D01*
X203695505Y-99485000D01*
X204079003Y-99408718D01*
X204440250Y-99259085D01*
X204765364Y-99041851D01*
X205041851Y-98765364D01*
X205259085Y-98440250D01*
X205408718Y-98079003D01*
X205485000Y-97695505D01*
X205485000Y-97304495D01*
X205408718Y-96920997D01*
X205259085Y-96559750D01*
X205041851Y-96234636D01*
X204765364Y-95958149D01*
X204440250Y-95740915D01*
X204079003Y-95591282D01*
X203695505Y-95515000D01*
X203304495Y-95515000D01*
X202920997Y-95591282D01*
X202559750Y-95740915D01*
X202234636Y-95958149D01*
X201958149Y-96234636D01*
X201740915Y-96559750D01*
X201591282Y-96920997D01*
X201515000Y-97304495D01*
X200685000Y-97304495D01*
X200685000Y-97033505D01*
X200732312Y-96550984D01*
X200862714Y-96119070D01*
X201074524Y-95720715D01*
X201359675Y-95371086D01*
X201707303Y-95083503D01*
X202104177Y-94868914D01*
X202535161Y-94735502D01*
X203015654Y-94685000D01*
X261966495Y-94685000D01*
X262449016Y-94732312D01*
G37*
X262449016Y-94732312D02*
X262880930Y-94862714D01*
X263279285Y-95074524D01*
X263628914Y-95359675D01*
X263916497Y-95707303D01*
X264131086Y-96104177D01*
X264264498Y-96535161D01*
X264315001Y-97015663D01*
X264315000Y-146966495D01*
X264267688Y-147449016D01*
X264137287Y-147880927D01*
X263925480Y-148279280D01*
X263640325Y-148628914D01*
X263292697Y-148916497D01*
X262895825Y-149131085D01*
X262464834Y-149264500D01*
X261984346Y-149315000D01*
X203033504Y-149315000D01*
X202550984Y-149267688D01*
X202119073Y-149137287D01*
X201720720Y-148925480D01*
X201371086Y-148640325D01*
X201083503Y-148292697D01*
X200868915Y-147895825D01*
X200735500Y-147464834D01*
X200685000Y-146984346D01*
X200685000Y-146304495D01*
X201515000Y-146304495D01*
X201515000Y-146695505D01*
X201591282Y-147079003D01*
X201740915Y-147440250D01*
X201958149Y-147765364D01*
X202234636Y-148041851D01*
X202559750Y-148259085D01*
X202920997Y-148408718D01*
X203304495Y-148485000D01*
X203695505Y-148485000D01*
X204079003Y-148408718D01*
X204440250Y-148259085D01*
X204765364Y-148041851D01*
X205041851Y-147765364D01*
X205259085Y-147440250D01*
X205408718Y-147079003D01*
X205416476Y-147040000D01*
X209941928Y-147040000D01*
X209954188Y-147164482D01*
X209990498Y-147284180D01*
X210049463Y-147394494D01*
X210128815Y-147491185D01*
X210225506Y-147570537D01*
X210335820Y-147629502D01*
X210455518Y-147665812D01*
X210580000Y-147678072D01*
X211144250Y-147675000D01*
X211303000Y-147516250D01*
X211303000Y-146317000D01*
X210103750Y-146317000D01*
X209945000Y-146475750D01*
X209941928Y-147040000D01*
X205416476Y-147040000D01*
X205485000Y-146695505D01*
X205485000Y-146304495D01*
X205408718Y-145920997D01*
X205259085Y-145559750D01*
X205112253Y-145340000D01*
X209941928Y-145340000D01*
X209945000Y-145904250D01*
X210103750Y-146063000D01*
X211303000Y-146063000D01*
X211303000Y-144863750D01*
X211557000Y-144863750D01*
X211557000Y-146063000D01*
X211577000Y-146063000D01*
X211577000Y-146317000D01*
X211557000Y-146317000D01*
X211557000Y-147516250D01*
X211715750Y-147675000D01*
X212280000Y-147678072D01*
X212404482Y-147665812D01*
X212524180Y-147629502D01*
X212634494Y-147570537D01*
X212731185Y-147491185D01*
X212810537Y-147394494D01*
X212869502Y-147284180D01*
X212891513Y-147211620D01*
X213023368Y-147343475D01*
X213266589Y-147505990D01*
X213536842Y-147617932D01*
X213823740Y-147675000D01*
X214116260Y-147675000D01*
X214403158Y-147617932D01*
X214673411Y-147505990D01*
X214916632Y-147343475D01*
X215123475Y-147136632D01*
X215240000Y-146962240D01*
X215356525Y-147136632D01*
X215563368Y-147343475D01*
X215806589Y-147505990D01*
X216076842Y-147617932D01*
X216363740Y-147675000D01*
X216656260Y-147675000D01*
X216943158Y-147617932D01*
X217213411Y-147505990D01*
X217456632Y-147343475D01*
X217663475Y-147136632D01*
X217780000Y-146962240D01*
X217896525Y-147136632D01*
X218103368Y-147343475D01*
X218346589Y-147505990D01*
X218616842Y-147617932D01*
X218903740Y-147675000D01*
X219196260Y-147675000D01*
X219445898Y-147625344D01*
X219670234Y-147849680D01*
X219693255Y-147877731D01*
X219805173Y-147969580D01*
X219932860Y-148037830D01*
X220059903Y-148076368D01*
X220071408Y-148079858D01*
X220215493Y-148094049D01*
X220251598Y-148090493D01*
X248358402Y-148090493D01*
X248394507Y-148094049D01*
X248430612Y-148090493D01*
X248538592Y-148079858D01*
X248677140Y-148037830D01*
X248804827Y-147969580D01*
X248916745Y-147877731D01*
X248939766Y-147849680D01*
X250484951Y-146304495D01*
X259515000Y-146304495D01*
X259515000Y-146695505D01*
X259591282Y-147079003D01*
X259740915Y-147440250D01*
X259958149Y-147765364D01*
X260234636Y-148041851D01*
X260559750Y-148259085D01*
X260920997Y-148408718D01*
X261304495Y-148485000D01*
X261695505Y-148485000D01*
X262079003Y-148408718D01*
X262440250Y-148259085D01*
X262765364Y-148041851D01*
X263041851Y-147765364D01*
X263259085Y-147440250D01*
X263408718Y-147079003D01*
X263485000Y-146695505D01*
X263485000Y-146304495D01*
X263408718Y-145920997D01*
X263259085Y-145559750D01*
X263041851Y-145234636D01*
X262765364Y-144958149D01*
X262440250Y-144740915D01*
X262079003Y-144591282D01*
X261695505Y-144515000D01*
X261304495Y-144515000D01*
X260920997Y-144591282D01*
X260559750Y-144740915D01*
X260234636Y-144958149D01*
X259958149Y-145234636D01*
X259740915Y-145559750D01*
X259591282Y-145920997D01*
X259515000Y-146304495D01*
X250484951Y-146304495D01*
X261744193Y-135045254D01*
X261772238Y-135022238D01*
X261864087Y-134910320D01*
X261864573Y-134909411D01*
X261932337Y-134782634D01*
X261974365Y-134644085D01*
X261988556Y-134500000D01*
X261985000Y-134463895D01*
X261985000Y-115286096D01*
X261988555Y-115249999D01*
X261985000Y-115213902D01*
X261985000Y-115213895D01*
X261974365Y-115105915D01*
X261932337Y-114967367D01*
X261864087Y-114839680D01*
X261847514Y-114819487D01*
X261795253Y-114755806D01*
X261795250Y-114755803D01*
X261772237Y-114727762D01*
X261744197Y-114704751D01*
X256295260Y-109255814D01*
X256272239Y-109227763D01*
X256160321Y-109135914D01*
X256032634Y-109067664D01*
X255894086Y-109025636D01*
X255786106Y-109015001D01*
X255750001Y-109011445D01*
X255713896Y-109015001D01*
X254554448Y-109015001D01*
X251709447Y-106170000D01*
X253441928Y-106170000D01*
X253454188Y-106294482D01*
X253490498Y-106414180D01*
X253549463Y-106524494D01*
X253628815Y-106621185D01*
X253725506Y-106700537D01*
X253835820Y-106759502D01*
X253955518Y-106795812D01*
X254080000Y-106808072D01*
X255594250Y-106805000D01*
X255753000Y-106646250D01*
X255753000Y-104997000D01*
X256007000Y-104997000D01*
X256007000Y-106646250D01*
X256165750Y-106805000D01*
X257680000Y-106808072D01*
X257804482Y-106795812D01*
X257924180Y-106759502D01*
X258034494Y-106700537D01*
X258131185Y-106621185D01*
X258210537Y-106524494D01*
X258269502Y-106414180D01*
X258305812Y-106294482D01*
X258318072Y-106170000D01*
X258315000Y-105155750D01*
X258156250Y-104997000D01*
X256007000Y-104997000D01*
X255753000Y-104997000D01*
X253603750Y-104997000D01*
X253445000Y-105155750D01*
X253441928Y-106170000D01*
X251709447Y-106170000D01*
X249109447Y-103570000D01*
X253441928Y-103570000D01*
X253445000Y-104584250D01*
X253603750Y-104743000D01*
X255753000Y-104743000D01*
X255753000Y-103093750D01*
X256007000Y-103093750D01*
X256007000Y-104743000D01*
X258156250Y-104743000D01*
X258315000Y-104584250D01*
X258318072Y-103570000D01*
X258305812Y-103445518D01*
X258269502Y-103325820D01*
X258210537Y-103215506D01*
X258131185Y-103118815D01*
X258034494Y-103039463D01*
X257924180Y-102980498D01*
X257804482Y-102944188D01*
X257680000Y-102931928D01*
X256165750Y-102935000D01*
X256007000Y-103093750D01*
X255753000Y-103093750D01*
X255594250Y-102935000D01*
X254080000Y-102931928D01*
X253955518Y-102944188D01*
X253835820Y-102980498D01*
X253725506Y-103039463D01*
X253628815Y-103118815D01*
X253549463Y-103215506D01*
X253490498Y-103325820D01*
X253454188Y-103445518D01*
X253441928Y-103570000D01*
X249109447Y-103570000D01*
X248835000Y-103295554D01*
X248835000Y-103143137D01*
X248793304Y-102933517D01*
X248711515Y-102736060D01*
X248592775Y-102558353D01*
X248441647Y-102407225D01*
X248263940Y-102288485D01*
X248066483Y-102206696D01*
X247856863Y-102165000D01*
X247643137Y-102165000D01*
X247433517Y-102206696D01*
X247236060Y-102288485D01*
X247058353Y-102407225D01*
X246907225Y-102558353D01*
X246788485Y-102736060D01*
X246706696Y-102933517D01*
X246665000Y-103143137D01*
X246665000Y-103356863D01*
X246706696Y-103566483D01*
X246788485Y-103763940D01*
X246907225Y-103941647D01*
X247058353Y-104092775D01*
X247236060Y-104211515D01*
X247433517Y-104293304D01*
X247643137Y-104335000D01*
X247795554Y-104335000D01*
X253704747Y-110244194D01*
X253727763Y-110272239D01*
X253755807Y-110295254D01*
X253839681Y-110364088D01*
X253967367Y-110432338D01*
X254105916Y-110474366D01*
X254250001Y-110488557D01*
X254286106Y-110485001D01*
X255445555Y-110485001D01*
X260515000Y-115554447D01*
X260515001Y-134195552D01*
X248090061Y-146620493D01*
X246563638Y-146620493D01*
X246577482Y-146588193D01*
X246580310Y-146579056D01*
X246636719Y-146392220D01*
X246648780Y-146331310D01*
X246661686Y-146270591D01*
X246662686Y-146261079D01*
X246681731Y-146066845D01*
X246681731Y-146066837D01*
X246685000Y-146033647D01*
X246685000Y-132870000D01*
X253441928Y-132870000D01*
X253441928Y-135470000D01*
X253454188Y-135594482D01*
X253490498Y-135714180D01*
X253549463Y-135824494D01*
X253628815Y-135921185D01*
X253725506Y-136000537D01*
X253835820Y-136059502D01*
X253955518Y-136095812D01*
X254080000Y-136108072D01*
X257680000Y-136108072D01*
X257804482Y-136095812D01*
X257924180Y-136059502D01*
X258034494Y-136000537D01*
X258131185Y-135921185D01*
X258210537Y-135824494D01*
X258269502Y-135714180D01*
X258305812Y-135594482D01*
X258318072Y-135470000D01*
X258318072Y-132870000D01*
X258305812Y-132745518D01*
X258269502Y-132625820D01*
X258210537Y-132515506D01*
X258131185Y-132418815D01*
X258034494Y-132339463D01*
X257924180Y-132280498D01*
X257804482Y-132244188D01*
X257680000Y-132231928D01*
X257269650Y-132231928D01*
X259595050Y-129906529D01*
X259628817Y-129878817D01*
X259657352Y-129844048D01*
X259722696Y-129764426D01*
X259739411Y-129744059D01*
X259821589Y-129590313D01*
X259872195Y-129423490D01*
X259885000Y-129293477D01*
X259885000Y-129293467D01*
X259889281Y-129250001D01*
X259885000Y-129206535D01*
X259885000Y-119628453D01*
X259961515Y-119513940D01*
X260043304Y-119316483D01*
X260085000Y-119106863D01*
X260085000Y-118893137D01*
X260043304Y-118683517D01*
X259961515Y-118486060D01*
X259842775Y-118308353D01*
X259691647Y-118157225D01*
X259513940Y-118038485D01*
X259316483Y-117956696D01*
X259106863Y-117915000D01*
X258893137Y-117915000D01*
X258683517Y-117956696D01*
X258486060Y-118038485D01*
X258308353Y-118157225D01*
X258157225Y-118308353D01*
X258038485Y-118486060D01*
X257956696Y-118683517D01*
X257915000Y-118893137D01*
X257915000Y-119106863D01*
X257956696Y-119316483D01*
X258038485Y-119513940D01*
X258115001Y-119628454D01*
X258115000Y-124043476D01*
X258115001Y-124043486D01*
X258115000Y-128883421D01*
X255284951Y-131713471D01*
X255251184Y-131741183D01*
X255223471Y-131774951D01*
X255223468Y-131774954D01*
X255140590Y-131875941D01*
X255058412Y-132029687D01*
X255007805Y-132196510D01*
X255004317Y-132231928D01*
X254080000Y-132231928D01*
X253955518Y-132244188D01*
X253835820Y-132280498D01*
X253725506Y-132339463D01*
X253628815Y-132418815D01*
X253549463Y-132515506D01*
X253490498Y-132625820D01*
X253454188Y-132745518D01*
X253441928Y-132870000D01*
X246685000Y-132870000D01*
X246685000Y-130966353D01*
X246681633Y-130932169D01*
X246681633Y-130919193D01*
X246680634Y-130909681D01*
X246658879Y-130715732D01*
X246645975Y-130655024D01*
X246633911Y-130594099D01*
X246631083Y-130584962D01*
X246572070Y-130398932D01*
X246547618Y-130341882D01*
X246523954Y-130284470D01*
X246519405Y-130276056D01*
X246425383Y-130105031D01*
X246390310Y-130053809D01*
X246355951Y-130002094D01*
X246349854Y-129994724D01*
X246224404Y-129845218D01*
X246180046Y-129801779D01*
X246136297Y-129757724D01*
X246128885Y-129751679D01*
X245976785Y-129629389D01*
X245924845Y-129595401D01*
X245873367Y-129560678D01*
X245864923Y-129556187D01*
X245691967Y-129465768D01*
X245634410Y-129442513D01*
X245577165Y-129418450D01*
X245568009Y-129415685D01*
X245380783Y-129360582D01*
X245319775Y-129348945D01*
X245258985Y-129336466D01*
X245249466Y-129335532D01*
X245055105Y-129317843D01*
X244992981Y-129318277D01*
X244930933Y-129317844D01*
X244921426Y-129318776D01*
X244921419Y-129318776D01*
X244921413Y-129318777D01*
X244727318Y-129339178D01*
X244666504Y-129351661D01*
X244605519Y-129363295D01*
X244596363Y-129366059D01*
X244409925Y-129423771D01*
X244352692Y-129447830D01*
X244295127Y-129471087D01*
X244286682Y-129475577D01*
X244115006Y-129568402D01*
X244063532Y-129603122D01*
X244011582Y-129637117D01*
X244004170Y-129643162D01*
X243853793Y-129767565D01*
X243810027Y-129811638D01*
X243765689Y-129855057D01*
X243759592Y-129862426D01*
X243636242Y-130013668D01*
X243601881Y-130065386D01*
X243566809Y-130116607D01*
X243562260Y-130125020D01*
X243470635Y-130297343D01*
X243446978Y-130354739D01*
X243422519Y-130411807D01*
X243419690Y-130420943D01*
X243363281Y-130607780D01*
X243351219Y-130668698D01*
X243338314Y-130729410D01*
X243337314Y-130738922D01*
X243318269Y-130933155D01*
X243318269Y-130933173D01*
X243315001Y-130966353D01*
X243315000Y-146033646D01*
X243318366Y-146067821D01*
X243318366Y-146080806D01*
X243319366Y-146090318D01*
X243341121Y-146284268D01*
X243354025Y-146344976D01*
X243366089Y-146405901D01*
X243368917Y-146415038D01*
X243427930Y-146601068D01*
X243436256Y-146620493D01*
X220519939Y-146620493D01*
X220485344Y-146585898D01*
X220535000Y-146336260D01*
X220535000Y-146043740D01*
X220477932Y-145756842D01*
X220365990Y-145486589D01*
X220203475Y-145243368D01*
X219996632Y-145036525D01*
X219753411Y-144874010D01*
X219483158Y-144762068D01*
X219196260Y-144705000D01*
X218903740Y-144705000D01*
X218616842Y-144762068D01*
X218346589Y-144874010D01*
X218103368Y-145036525D01*
X217896525Y-145243368D01*
X217780000Y-145417760D01*
X217663475Y-145243368D01*
X217456632Y-145036525D01*
X217213411Y-144874010D01*
X216943158Y-144762068D01*
X216656260Y-144705000D01*
X216363740Y-144705000D01*
X216076842Y-144762068D01*
X215806589Y-144874010D01*
X215563368Y-145036525D01*
X215356525Y-145243368D01*
X215240000Y-145417760D01*
X215123475Y-145243368D01*
X214916632Y-145036525D01*
X214673411Y-144874010D01*
X214403158Y-144762068D01*
X214116260Y-144705000D01*
X213823740Y-144705000D01*
X213536842Y-144762068D01*
X213266589Y-144874010D01*
X213023368Y-145036525D01*
X212891513Y-145168380D01*
X212869502Y-145095820D01*
X212810537Y-144985506D01*
X212731185Y-144888815D01*
X212634494Y-144809463D01*
X212524180Y-144750498D01*
X212404482Y-144714188D01*
X212280000Y-144701928D01*
X211715750Y-144705000D01*
X211557000Y-144863750D01*
X211303000Y-144863750D01*
X211144250Y-144705000D01*
X210580000Y-144701928D01*
X210455518Y-144714188D01*
X210335820Y-144750498D01*
X210225506Y-144809463D01*
X210128815Y-144888815D01*
X210049463Y-144985506D01*
X209990498Y-145095820D01*
X209954188Y-145215518D01*
X209941928Y-145340000D01*
X205112253Y-145340000D01*
X205041851Y-145234636D01*
X204765364Y-144958149D01*
X204440250Y-144740915D01*
X204079003Y-144591282D01*
X203695505Y-144515000D01*
X203304495Y-144515000D01*
X202920997Y-144591282D01*
X202559750Y-144740915D01*
X202234636Y-144958149D01*
X201958149Y-145234636D01*
X201740915Y-145559750D01*
X201591282Y-145920997D01*
X201515000Y-146304495D01*
X200685000Y-146304495D01*
X200685000Y-131185307D01*
X202328689Y-131188014D01*
X202358509Y-131185127D01*
X202359573Y-131185134D01*
X202369092Y-131184201D01*
X202381078Y-131182941D01*
X202429341Y-131178268D01*
X202431374Y-131177655D01*
X202466140Y-131174001D01*
X202526990Y-131161510D01*
X202587942Y-131149883D01*
X202597096Y-131147120D01*
X202597102Y-131147118D01*
X202690317Y-131118263D01*
X202747533Y-131094211D01*
X202805119Y-131070945D01*
X202813564Y-131066455D01*
X202899401Y-131020042D01*
X202950867Y-130985327D01*
X203002821Y-130951329D01*
X203010232Y-130945285D01*
X203085421Y-130883083D01*
X203129162Y-130839035D01*
X203173522Y-130795596D01*
X203179618Y-130788226D01*
X203179623Y-130788221D01*
X203179627Y-130788215D01*
X203241294Y-130712605D01*
X203275632Y-130660924D01*
X203310733Y-130609659D01*
X203315282Y-130601246D01*
X203361094Y-130515085D01*
X203384758Y-130457669D01*
X203409208Y-130400626D01*
X203412036Y-130391490D01*
X203440241Y-130298072D01*
X203452303Y-130237152D01*
X203465209Y-130176435D01*
X203466209Y-130166923D01*
X203475731Y-130069806D01*
X203475731Y-130069801D01*
X203478990Y-130036813D01*
X203481622Y-121069952D01*
X203607074Y-121069952D01*
X203607074Y-122930048D01*
X203773811Y-124782656D01*
X204105944Y-126612859D01*
X204600798Y-128405922D01*
X205254389Y-130147409D01*
X206061455Y-131823297D01*
X207015496Y-133420094D01*
X208108833Y-134924944D01*
X209073887Y-136029538D01*
X209058669Y-136019369D01*
X208651925Y-135850890D01*
X208220128Y-135765000D01*
X207779872Y-135765000D01*
X207348075Y-135850890D01*
X206941331Y-136019369D01*
X206575271Y-136263962D01*
X206263962Y-136575271D01*
X206019369Y-136941331D01*
X205850890Y-137348075D01*
X205765000Y-137779872D01*
X205765000Y-138220128D01*
X205850890Y-138651925D01*
X206019369Y-139058669D01*
X206263962Y-139424729D01*
X206575271Y-139736038D01*
X206941331Y-139980631D01*
X207348075Y-140149110D01*
X207779872Y-140235000D01*
X208220128Y-140235000D01*
X208651925Y-140149110D01*
X209058669Y-139980631D01*
X209424729Y-139736038D01*
X209736038Y-139424729D01*
X209980631Y-139058669D01*
X210149110Y-138651925D01*
X210235000Y-138220128D01*
X210235000Y-137779872D01*
X210149110Y-137348075D01*
X209983319Y-136947820D01*
X210677130Y-137611171D01*
X212131412Y-138770922D01*
X213683798Y-139795643D01*
X215321790Y-140677085D01*
X217032200Y-141408149D01*
X218801256Y-141982950D01*
X220614716Y-142396860D01*
X222457977Y-142646547D01*
X224316200Y-142730000D01*
X226174423Y-142646547D01*
X228017684Y-142396860D01*
X229831144Y-141982950D01*
X231600200Y-141408149D01*
X233310610Y-140677085D01*
X234948602Y-139795643D01*
X236500988Y-138770922D01*
X237769011Y-137759708D01*
X237765000Y-137779872D01*
X237765000Y-138220128D01*
X237850890Y-138651925D01*
X238019369Y-139058669D01*
X238263962Y-139424729D01*
X238575271Y-139736038D01*
X238941331Y-139980631D01*
X239348075Y-140149110D01*
X239779872Y-140235000D01*
X240220128Y-140235000D01*
X240651925Y-140149110D01*
X241058669Y-139980631D01*
X241424729Y-139736038D01*
X241736038Y-139424729D01*
X241980631Y-139058669D01*
X242149110Y-138651925D01*
X242235000Y-138220128D01*
X242235000Y-137779872D01*
X242149110Y-137348075D01*
X241980631Y-136941331D01*
X241736038Y-136575271D01*
X241424729Y-136263962D01*
X241058669Y-136019369D01*
X240651925Y-135850890D01*
X240220128Y-135765000D01*
X239789632Y-135765000D01*
X240523567Y-134924944D01*
X241616904Y-133420094D01*
X242570945Y-131823297D01*
X243378011Y-130147409D01*
X244031602Y-128405922D01*
X244526456Y-126612859D01*
X244858589Y-124782656D01*
X245025326Y-122930048D01*
X245025326Y-121069952D01*
X244858589Y-119217344D01*
X244526456Y-117387141D01*
X244031602Y-115594078D01*
X243378011Y-113852591D01*
X242570945Y-112176703D01*
X241616904Y-110579906D01*
X240523567Y-109075056D01*
X239789632Y-108235000D01*
X240220128Y-108235000D01*
X240651925Y-108149110D01*
X241058669Y-107980631D01*
X241424729Y-107736038D01*
X241736038Y-107424729D01*
X241980631Y-107058669D01*
X242149110Y-106651925D01*
X242235000Y-106220128D01*
X242235000Y-105779872D01*
X242149110Y-105348075D01*
X241980631Y-104941331D01*
X241736038Y-104575271D01*
X241424729Y-104263962D01*
X241058669Y-104019369D01*
X240651925Y-103850890D01*
X240220128Y-103765000D01*
X239779872Y-103765000D01*
X239348075Y-103850890D01*
X238941331Y-104019369D01*
X238575271Y-104263962D01*
X238263962Y-104575271D01*
X238019369Y-104941331D01*
X237850890Y-105348075D01*
X237765000Y-105779872D01*
X237765000Y-106220128D01*
X237769011Y-106240292D01*
X236500988Y-105229078D01*
X234948602Y-104204357D01*
X233310610Y-103322915D01*
X231600200Y-102591851D01*
X229831144Y-102017050D01*
X228017684Y-101603140D01*
X227656469Y-101554210D01*
X233445764Y-101554210D01*
X235385746Y-103494193D01*
X235408762Y-103522238D01*
X235520680Y-103614087D01*
X235648367Y-103682337D01*
X235786915Y-103724365D01*
X235931000Y-103738556D01*
X235967105Y-103735000D01*
X241945554Y-103735000D01*
X245015001Y-106804448D01*
X245015000Y-119213895D01*
X245011444Y-119250000D01*
X245015000Y-119286104D01*
X245025635Y-119394084D01*
X245067663Y-119532632D01*
X245135913Y-119660319D01*
X245227762Y-119772237D01*
X245255808Y-119795254D01*
X248704746Y-123244193D01*
X248727762Y-123272238D01*
X248839680Y-123364087D01*
X248967367Y-123432337D01*
X249105915Y-123474365D01*
X249213895Y-123485000D01*
X249213904Y-123485000D01*
X249249999Y-123488555D01*
X249286094Y-123485000D01*
X254200578Y-123485000D01*
X254308353Y-123592775D01*
X254486060Y-123711515D01*
X254683517Y-123793304D01*
X254893137Y-123835000D01*
X255106863Y-123835000D01*
X255316483Y-123793304D01*
X255513940Y-123711515D01*
X255691647Y-123592775D01*
X255842775Y-123441647D01*
X255961515Y-123263940D01*
X256043304Y-123066483D01*
X256085000Y-122856863D01*
X256085000Y-122643137D01*
X256043304Y-122433517D01*
X255961515Y-122236060D01*
X255842775Y-122058353D01*
X255691647Y-121907225D01*
X255513940Y-121788485D01*
X255316483Y-121706696D01*
X255106863Y-121665000D01*
X254893137Y-121665000D01*
X254683517Y-121706696D01*
X254486060Y-121788485D01*
X254308353Y-121907225D01*
X254200578Y-122015000D01*
X249554447Y-122015000D01*
X246485000Y-118945554D01*
X246485000Y-117774446D01*
X247454746Y-118744193D01*
X247477762Y-118772238D01*
X247589680Y-118864087D01*
X247717367Y-118932337D01*
X247832846Y-118967367D01*
X247855915Y-118974365D01*
X248000000Y-118988556D01*
X248036105Y-118985000D01*
X251200578Y-118985000D01*
X251308353Y-119092775D01*
X251486060Y-119211515D01*
X251683517Y-119293304D01*
X251893137Y-119335000D01*
X252106863Y-119335000D01*
X252316483Y-119293304D01*
X252513940Y-119211515D01*
X252691647Y-119092775D01*
X252842775Y-118941647D01*
X252961515Y-118763940D01*
X253043304Y-118566483D01*
X253085000Y-118356863D01*
X253085000Y-118143137D01*
X253043304Y-117933517D01*
X252961515Y-117736060D01*
X252842775Y-117558353D01*
X252691647Y-117407225D01*
X252513940Y-117288485D01*
X252316483Y-117206696D01*
X252106863Y-117165000D01*
X251893137Y-117165000D01*
X251683517Y-117206696D01*
X251486060Y-117288485D01*
X251308353Y-117407225D01*
X251200578Y-117515000D01*
X248304447Y-117515000D01*
X247485000Y-116695554D01*
X247485000Y-105786094D01*
X247488555Y-105749999D01*
X247485000Y-105713904D01*
X247485000Y-105713895D01*
X247474365Y-105605915D01*
X247432337Y-105467367D01*
X247364087Y-105339680D01*
X247347514Y-105319487D01*
X247295253Y-105255806D01*
X247295250Y-105255803D01*
X247272237Y-105227762D01*
X247244197Y-105204750D01*
X243463059Y-101423613D01*
X243440038Y-101395562D01*
X243328120Y-101303713D01*
X243200433Y-101235463D01*
X243061885Y-101193435D01*
X242953905Y-101182800D01*
X242917800Y-101179244D01*
X242881695Y-101182800D01*
X237490047Y-101182800D01*
X236544662Y-100237416D01*
X236743158Y-100197932D01*
X237013411Y-100085990D01*
X237256632Y-99923475D01*
X237463475Y-99716632D01*
X237585195Y-99534466D01*
X237654822Y-99651355D01*
X237849731Y-99867588D01*
X238083080Y-100041641D01*
X238345901Y-100166825D01*
X238493110Y-100211476D01*
X238723000Y-100090155D01*
X238723000Y-98897000D01*
X238703000Y-98897000D01*
X238703000Y-98643000D01*
X238723000Y-98643000D01*
X238723000Y-98623000D01*
X238977000Y-98623000D01*
X238977000Y-98643000D01*
X238997000Y-98643000D01*
X238997000Y-98897000D01*
X238977000Y-98897000D01*
X238977000Y-100090155D01*
X239206890Y-100211476D01*
X239354099Y-100166825D01*
X239616920Y-100041641D01*
X239850269Y-99867588D01*
X240045178Y-99651355D01*
X240114805Y-99534466D01*
X240236525Y-99716632D01*
X240443368Y-99923475D01*
X240686589Y-100085990D01*
X240956842Y-100197932D01*
X241243740Y-100255000D01*
X241536260Y-100255000D01*
X241823158Y-100197932D01*
X242093411Y-100085990D01*
X242336632Y-99923475D01*
X242543475Y-99716632D01*
X242660000Y-99542240D01*
X242776525Y-99716632D01*
X242983368Y-99923475D01*
X243226589Y-100085990D01*
X243496842Y-100197932D01*
X243783740Y-100255000D01*
X244076260Y-100255000D01*
X244363158Y-100197932D01*
X244633411Y-100085990D01*
X244876632Y-99923475D01*
X245083475Y-99716632D01*
X245200000Y-99542240D01*
X245316525Y-99716632D01*
X245523368Y-99923475D01*
X245766589Y-100085990D01*
X246036842Y-100197932D01*
X246323740Y-100255000D01*
X246616260Y-100255000D01*
X246903158Y-100197932D01*
X247173411Y-100085990D01*
X247416632Y-99923475D01*
X247623475Y-99716632D01*
X247740000Y-99542240D01*
X247856525Y-99716632D01*
X248063368Y-99923475D01*
X248306589Y-100085990D01*
X248576842Y-100197932D01*
X248863740Y-100255000D01*
X249156260Y-100255000D01*
X249443158Y-100197932D01*
X249713411Y-100085990D01*
X249956632Y-99923475D01*
X250163475Y-99716632D01*
X250280000Y-99542240D01*
X250396525Y-99716632D01*
X250603368Y-99923475D01*
X250846589Y-100085990D01*
X251116842Y-100197932D01*
X251403740Y-100255000D01*
X251696260Y-100255000D01*
X251983158Y-100197932D01*
X252253411Y-100085990D01*
X252496632Y-99923475D01*
X252703475Y-99716632D01*
X252820000Y-99542240D01*
X252936525Y-99716632D01*
X253143368Y-99923475D01*
X253386589Y-100085990D01*
X253656842Y-100197932D01*
X253943740Y-100255000D01*
X254236260Y-100255000D01*
X254523158Y-100197932D01*
X254793411Y-100085990D01*
X255036632Y-99923475D01*
X255243475Y-99716632D01*
X255365195Y-99534466D01*
X255434822Y-99651355D01*
X255629731Y-99867588D01*
X255863080Y-100041641D01*
X256125901Y-100166825D01*
X256273110Y-100211476D01*
X256503000Y-100090155D01*
X256503000Y-98897000D01*
X256757000Y-98897000D01*
X256757000Y-100090155D01*
X256986890Y-100211476D01*
X257134099Y-100166825D01*
X257396920Y-100041641D01*
X257630269Y-99867588D01*
X257825178Y-99651355D01*
X257974157Y-99401252D01*
X258071481Y-99126891D01*
X257950814Y-98897000D01*
X256757000Y-98897000D01*
X256503000Y-98897000D01*
X256483000Y-98897000D01*
X256483000Y-98643000D01*
X256503000Y-98643000D01*
X256503000Y-98623000D01*
X256757000Y-98623000D01*
X256757000Y-98643000D01*
X257950814Y-98643000D01*
X258071481Y-98413109D01*
X257974157Y-98138748D01*
X257825178Y-97888645D01*
X257630269Y-97672412D01*
X257400594Y-97501100D01*
X257576632Y-97383475D01*
X257655612Y-97304495D01*
X259515000Y-97304495D01*
X259515000Y-97695505D01*
X259591282Y-98079003D01*
X259740915Y-98440250D01*
X259958149Y-98765364D01*
X260234636Y-99041851D01*
X260559750Y-99259085D01*
X260920997Y-99408718D01*
X261304495Y-99485000D01*
X261695505Y-99485000D01*
X262079003Y-99408718D01*
X262440250Y-99259085D01*
X262765364Y-99041851D01*
X263041851Y-98765364D01*
X263259085Y-98440250D01*
X263408718Y-98079003D01*
X263485000Y-97695505D01*
X263485000Y-97304495D01*
X263408718Y-96920997D01*
X263259085Y-96559750D01*
X263041851Y-96234636D01*
X262765364Y-95958149D01*
X262440250Y-95740915D01*
X262079003Y-95591282D01*
X261695505Y-95515000D01*
X261304495Y-95515000D01*
X260920997Y-95591282D01*
X260559750Y-95740915D01*
X260234636Y-95958149D01*
X259958149Y-96234636D01*
X259740915Y-96559750D01*
X259591282Y-96920997D01*
X259515000Y-97304495D01*
X257655612Y-97304495D01*
X257783475Y-97176632D01*
X257945990Y-96933411D01*
X258057932Y-96663158D01*
X258115000Y-96376260D01*
X258115000Y-96083740D01*
X258057932Y-95796842D01*
X257945990Y-95526589D01*
X257783475Y-95283368D01*
X257576632Y-95076525D01*
X257333411Y-94914010D01*
X257063158Y-94802068D01*
X256776260Y-94745000D01*
X256483740Y-94745000D01*
X256196842Y-94802068D01*
X255926589Y-94914010D01*
X255683368Y-95076525D01*
X255476525Y-95283368D01*
X255360000Y-95457760D01*
X255243475Y-95283368D01*
X255036632Y-95076525D01*
X254793411Y-94914010D01*
X254523158Y-94802068D01*
X254236260Y-94745000D01*
X253943740Y-94745000D01*
X253656842Y-94802068D01*
X253386589Y-94914010D01*
X253143368Y-95076525D01*
X252936525Y-95283368D01*
X252820000Y-95457760D01*
X252703475Y-95283368D01*
X252496632Y-95076525D01*
X252253411Y-94914010D01*
X251983158Y-94802068D01*
X251696260Y-94745000D01*
X251403740Y-94745000D01*
X251116842Y-94802068D01*
X250846589Y-94914010D01*
X250603368Y-95076525D01*
X250396525Y-95283368D01*
X250274805Y-95465534D01*
X250205178Y-95348645D01*
X250010269Y-95132412D01*
X249776920Y-94958359D01*
X249514099Y-94833175D01*
X249366890Y-94788524D01*
X249137000Y-94909845D01*
X249137000Y-96103000D01*
X249157000Y-96103000D01*
X249157000Y-96357000D01*
X249137000Y-96357000D01*
X249137000Y-96377000D01*
X248883000Y-96377000D01*
X248883000Y-96357000D01*
X248863000Y-96357000D01*
X248863000Y-96103000D01*
X248883000Y-96103000D01*
X248883000Y-94909845D01*
X248653110Y-94788524D01*
X248505901Y-94833175D01*
X248243080Y-94958359D01*
X248009731Y-95132412D01*
X247814822Y-95348645D01*
X247745195Y-95465534D01*
X247623475Y-95283368D01*
X247416632Y-95076525D01*
X247173411Y-94914010D01*
X246903158Y-94802068D01*
X246616260Y-94745000D01*
X246323740Y-94745000D01*
X246036842Y-94802068D01*
X245766589Y-94914010D01*
X245523368Y-95076525D01*
X245316525Y-95283368D01*
X245194805Y-95465534D01*
X245125178Y-95348645D01*
X244930269Y-95132412D01*
X244696920Y-94958359D01*
X244434099Y-94833175D01*
X244286890Y-94788524D01*
X244057000Y-94909845D01*
X244057000Y-96103000D01*
X244077000Y-96103000D01*
X244077000Y-96357000D01*
X244057000Y-96357000D01*
X244057000Y-96377000D01*
X243803000Y-96377000D01*
X243803000Y-96357000D01*
X243783000Y-96357000D01*
X243783000Y-96103000D01*
X243803000Y-96103000D01*
X243803000Y-94909845D01*
X243573110Y-94788524D01*
X243425901Y-94833175D01*
X243163080Y-94958359D01*
X242929731Y-95132412D01*
X242734822Y-95348645D01*
X242665195Y-95465534D01*
X242543475Y-95283368D01*
X242336632Y-95076525D01*
X242093411Y-94914010D01*
X241823158Y-94802068D01*
X241536260Y-94745000D01*
X241243740Y-94745000D01*
X240956842Y-94802068D01*
X240686589Y-94914010D01*
X240443368Y-95076525D01*
X240236525Y-95283368D01*
X240120000Y-95457760D01*
X240003475Y-95283368D01*
X239796632Y-95076525D01*
X239553411Y-94914010D01*
X239283158Y-94802068D01*
X238996260Y-94745000D01*
X238703740Y-94745000D01*
X238416842Y-94802068D01*
X238146589Y-94914010D01*
X237903368Y-95076525D01*
X237696525Y-95283368D01*
X237580000Y-95457760D01*
X237463475Y-95283368D01*
X237256632Y-95076525D01*
X237013411Y-94914010D01*
X236743158Y-94802068D01*
X236456260Y-94745000D01*
X236163740Y-94745000D01*
X235876842Y-94802068D01*
X235606589Y-94914010D01*
X235363368Y-95076525D01*
X235156525Y-95283368D01*
X235040000Y-95457760D01*
X234923475Y-95283368D01*
X234716632Y-95076525D01*
X234473411Y-94914010D01*
X234203158Y-94802068D01*
X233916260Y-94745000D01*
X233623740Y-94745000D01*
X233336842Y-94802068D01*
X233066589Y-94914010D01*
X232823368Y-95076525D01*
X232616525Y-95283368D01*
X232494805Y-95465534D01*
X232425178Y-95348645D01*
X232230269Y-95132412D01*
X231996920Y-94958359D01*
X231734099Y-94833175D01*
X231586890Y-94788524D01*
X231357000Y-94909845D01*
X231357000Y-96103000D01*
X231377000Y-96103000D01*
X231377000Y-96357000D01*
X231357000Y-96357000D01*
X231357000Y-96377000D01*
X231103000Y-96377000D01*
X231103000Y-96357000D01*
X231083000Y-96357000D01*
X231083000Y-96103000D01*
X231103000Y-96103000D01*
X231103000Y-94909845D01*
X230873110Y-94788524D01*
X230725901Y-94833175D01*
X230463080Y-94958359D01*
X230229731Y-95132412D01*
X230034822Y-95348645D01*
X229965195Y-95465534D01*
X229843475Y-95283368D01*
X229636632Y-95076525D01*
X229393411Y-94914010D01*
X229123158Y-94802068D01*
X228836260Y-94745000D01*
X228543740Y-94745000D01*
X228256842Y-94802068D01*
X227986589Y-94914010D01*
X227743368Y-95076525D01*
X227536525Y-95283368D01*
X227420000Y-95457760D01*
X227303475Y-95283368D01*
X227096632Y-95076525D01*
X226853411Y-94914010D01*
X226583158Y-94802068D01*
X226296260Y-94745000D01*
X226003740Y-94745000D01*
X225716842Y-94802068D01*
X225446589Y-94914010D01*
X225203368Y-95076525D01*
X224996525Y-95283368D01*
X224874805Y-95465534D01*
X224805178Y-95348645D01*
X224610269Y-95132412D01*
X224376920Y-94958359D01*
X224114099Y-94833175D01*
X223966890Y-94788524D01*
X223737000Y-94909845D01*
X223737000Y-96103000D01*
X223757000Y-96103000D01*
X223757000Y-96357000D01*
X223737000Y-96357000D01*
X223737000Y-96377000D01*
X223483000Y-96377000D01*
X223483000Y-96357000D01*
X223463000Y-96357000D01*
X223463000Y-96103000D01*
X223483000Y-96103000D01*
X223483000Y-94909845D01*
X223253110Y-94788524D01*
X223105901Y-94833175D01*
X222843080Y-94958359D01*
X222609731Y-95132412D01*
X222414822Y-95348645D01*
X222345195Y-95465534D01*
X222223475Y-95283368D01*
X222016632Y-95076525D01*
X221773411Y-94914010D01*
X221503158Y-94802068D01*
X221216260Y-94745000D01*
X220923740Y-94745000D01*
X220636842Y-94802068D01*
X220366589Y-94914010D01*
X220123368Y-95076525D01*
X219916525Y-95283368D01*
X219800000Y-95457760D01*
X219683475Y-95283368D01*
X219476632Y-95076525D01*
X219233411Y-94914010D01*
X218963158Y-94802068D01*
X218676260Y-94745000D01*
X218383740Y-94745000D01*
X218096842Y-94802068D01*
X217826589Y-94914010D01*
X217583368Y-95076525D01*
X217376525Y-95283368D01*
X217260000Y-95457760D01*
X217143475Y-95283368D01*
X216936632Y-95076525D01*
X216693411Y-94914010D01*
X216423158Y-94802068D01*
X216136260Y-94745000D01*
X215843740Y-94745000D01*
X215556842Y-94802068D01*
X215286589Y-94914010D01*
X215043368Y-95076525D01*
X214836525Y-95283368D01*
X214714805Y-95465534D01*
X214645178Y-95348645D01*
X214450269Y-95132412D01*
X214216920Y-94958359D01*
X213954099Y-94833175D01*
X213806890Y-94788524D01*
X213577000Y-94909845D01*
X213577000Y-96103000D01*
X213597000Y-96103000D01*
X213597000Y-96357000D01*
X213577000Y-96357000D01*
X213577000Y-96377000D01*
X213323000Y-96377000D01*
X213323000Y-96357000D01*
X213303000Y-96357000D01*
X213303000Y-96103000D01*
X213323000Y-96103000D01*
X213323000Y-94909845D01*
X213093110Y-94788524D01*
X212945901Y-94833175D01*
X212683080Y-94958359D01*
X212449731Y-95132412D01*
X212254822Y-95348645D01*
X212185195Y-95465534D01*
X212063475Y-95283368D01*
X211856632Y-95076525D01*
X211613411Y-94914010D01*
X211343158Y-94802068D01*
X211056260Y-94745000D01*
X210763740Y-94745000D01*
X210476842Y-94802068D01*
X210206589Y-94914010D01*
X209963368Y-95076525D01*
X209756525Y-95283368D01*
X209640000Y-95457760D01*
X209523475Y-95283368D01*
X209316632Y-95076525D01*
X209073411Y-94914010D01*
X208803158Y-94802068D01*
X208516260Y-94745000D01*
X208223740Y-94745000D01*
X207936842Y-94802068D01*
X207666589Y-94914010D01*
X207423368Y-95076525D01*
X207216525Y-95283368D01*
X207054010Y-95526589D01*
X206942068Y-95796842D01*
X206885000Y-96083740D01*
X206885000Y-96376260D01*
X206942068Y-96663158D01*
X207054010Y-96933411D01*
X207216525Y-97176632D01*
X207348380Y-97308487D01*
X207275820Y-97330498D01*
X207165506Y-97389463D01*
X207068815Y-97468815D01*
X206989463Y-97565506D01*
X206930498Y-97675820D01*
X206894188Y-97795518D01*
X206881928Y-97920000D01*
X206881928Y-99620000D01*
X206894188Y-99744482D01*
X206930498Y-99864180D01*
X206989463Y-99974494D01*
X207068815Y-100071185D01*
X207165506Y-100150537D01*
X207275820Y-100209502D01*
X207395518Y-100245812D01*
X207520000Y-100258072D01*
X209220000Y-100258072D01*
X209344482Y-100245812D01*
X209464180Y-100209502D01*
X209574494Y-100150537D01*
X209671185Y-100071185D01*
X209750537Y-99974494D01*
X209809502Y-99864180D01*
X209831513Y-99791620D01*
X209963368Y-99923475D01*
X210178612Y-100067297D01*
X210179119Y-100078273D01*
X210183745Y-100096978D01*
X210185635Y-100116165D01*
X210201098Y-100167139D01*
X210213880Y-100218821D01*
X210222067Y-100236265D01*
X210227663Y-100254713D01*
X210252771Y-100301686D01*
X210275392Y-100349886D01*
X210286826Y-100365399D01*
X210295913Y-100382400D01*
X210329700Y-100423570D01*
X210339767Y-100437228D01*
X210352590Y-100451461D01*
X210387762Y-100494318D01*
X210400960Y-100505149D01*
X211075808Y-101254201D01*
X211087947Y-101268993D01*
X211099932Y-101280978D01*
X211111300Y-101293596D01*
X211125470Y-101306516D01*
X211132351Y-101313397D01*
X211155372Y-101341448D01*
X211267290Y-101433297D01*
X211394977Y-101501547D01*
X211533525Y-101543575D01*
X211641505Y-101554210D01*
X211641514Y-101554210D01*
X211677609Y-101557765D01*
X211713704Y-101554210D01*
X220975931Y-101554210D01*
X220614716Y-101603140D01*
X218801256Y-102017050D01*
X217032200Y-102591851D01*
X215321790Y-103322915D01*
X213683798Y-104204357D01*
X212131412Y-105229078D01*
X210677130Y-106388829D01*
X209983319Y-107052180D01*
X210149110Y-106651925D01*
X210235000Y-106220128D01*
X210235000Y-105779872D01*
X210149110Y-105348075D01*
X209980631Y-104941331D01*
X209736038Y-104575271D01*
X209424729Y-104263962D01*
X209058669Y-104019369D01*
X208651925Y-103850890D01*
X208220128Y-103765000D01*
X207779872Y-103765000D01*
X207348075Y-103850890D01*
X206941331Y-104019369D01*
X206575271Y-104263962D01*
X206263962Y-104575271D01*
X206019369Y-104941331D01*
X205850890Y-105348075D01*
X205765000Y-105779872D01*
X205765000Y-106220128D01*
X205850890Y-106651925D01*
X206019369Y-107058669D01*
X206263962Y-107424729D01*
X206575271Y-107736038D01*
X206941331Y-107980631D01*
X207348075Y-108149110D01*
X207779872Y-108235000D01*
X208220128Y-108235000D01*
X208651925Y-108149110D01*
X209058669Y-107980631D01*
X209073887Y-107970462D01*
X208108833Y-109075056D01*
X207015496Y-110579906D01*
X206061455Y-112176703D01*
X205254389Y-113852591D01*
X204600798Y-115594078D01*
X204105944Y-117387141D01*
X203773811Y-119217344D01*
X203607074Y-121069952D01*
X203481622Y-121069952D01*
X203483708Y-113965881D01*
X203480854Y-113936813D01*
X203480869Y-113934627D01*
X203479936Y-113925109D01*
X203476414Y-113891601D01*
X203473826Y-113865242D01*
X203473547Y-113864322D01*
X203469736Y-113828060D01*
X203457247Y-113767217D01*
X203445618Y-113706258D01*
X203442854Y-113697102D01*
X203413998Y-113603883D01*
X203389932Y-113546634D01*
X203366679Y-113489081D01*
X203362189Y-113480636D01*
X203315777Y-113394798D01*
X203281050Y-113343315D01*
X203247064Y-113291379D01*
X203241020Y-113283967D01*
X203178818Y-113208779D01*
X203134751Y-113165018D01*
X203091330Y-113120678D01*
X203083961Y-113114581D01*
X203008340Y-113052906D01*
X202956659Y-113018568D01*
X202905394Y-112983467D01*
X202896981Y-112978918D01*
X202810820Y-112933106D01*
X202753404Y-112909442D01*
X202696361Y-112884992D01*
X202687225Y-112882164D01*
X202593807Y-112853959D01*
X202532895Y-112841898D01*
X202472171Y-112828991D01*
X202462659Y-112827991D01*
X202365541Y-112818469D01*
X202365535Y-112818469D01*
X202332423Y-112815204D01*
X200685000Y-112815021D01*
X200685000Y-97304495D01*
X201515000Y-97304495D01*
X201515000Y-97695505D01*
X201591282Y-98079003D01*
X201740915Y-98440250D01*
X201958149Y-98765364D01*
X202234636Y-99041851D01*
X202559750Y-99259085D01*
X202920997Y-99408718D01*
X203304495Y-99485000D01*
X203695505Y-99485000D01*
X204079003Y-99408718D01*
X204440250Y-99259085D01*
X204765364Y-99041851D01*
X205041851Y-98765364D01*
X205259085Y-98440250D01*
X205408718Y-98079003D01*
X205485000Y-97695505D01*
X205485000Y-97304495D01*
X205408718Y-96920997D01*
X205259085Y-96559750D01*
X205041851Y-96234636D01*
X204765364Y-95958149D01*
X204440250Y-95740915D01*
X204079003Y-95591282D01*
X203695505Y-95515000D01*
X203304495Y-95515000D01*
X202920997Y-95591282D01*
X202559750Y-95740915D01*
X202234636Y-95958149D01*
X201958149Y-96234636D01*
X201740915Y-96559750D01*
X201591282Y-96920997D01*
X201515000Y-97304495D01*
X200685000Y-97304495D01*
X200685000Y-97033505D01*
X200732312Y-96550984D01*
X200862714Y-96119070D01*
X201074524Y-95720715D01*
X201359675Y-95371086D01*
X201707303Y-95083503D01*
X202104177Y-94868914D01*
X202535161Y-94735502D01*
X203015654Y-94685000D01*
X261966495Y-94685000D01*
X262449016Y-94732312D01*
G36*
X218657000Y-98643000D02*
G01*
X218677000Y-98643000D01*
X218677000Y-98897000D01*
X218657000Y-98897000D01*
X218657000Y-98917000D01*
X218403000Y-98917000D01*
X218403000Y-98897000D01*
X218383000Y-98897000D01*
X218383000Y-98643000D01*
X218403000Y-98643000D01*
X218403000Y-98623000D01*
X218657000Y-98623000D01*
X218657000Y-98643000D01*
G37*
X218657000Y-98643000D02*
X218677000Y-98643000D01*
X218677000Y-98897000D01*
X218657000Y-98897000D01*
X218657000Y-98917000D01*
X218403000Y-98917000D01*
X218403000Y-98897000D01*
X218383000Y-98897000D01*
X218383000Y-98643000D01*
X218403000Y-98643000D01*
X218403000Y-98623000D01*
X218657000Y-98623000D01*
X218657000Y-98643000D01*
G36*
X217376525Y-97176632D02*
G01*
X217583368Y-97383475D01*
X217759406Y-97501100D01*
X217529731Y-97672412D01*
X217334822Y-97888645D01*
X217265195Y-98005534D01*
X217143475Y-97823368D01*
X216936632Y-97616525D01*
X216762240Y-97500000D01*
X216936632Y-97383475D01*
X217143475Y-97176632D01*
X217260000Y-97002240D01*
X217376525Y-97176632D01*
G37*
X217376525Y-97176632D02*
X217583368Y-97383475D01*
X217759406Y-97501100D01*
X217529731Y-97672412D01*
X217334822Y-97888645D01*
X217265195Y-98005534D01*
X217143475Y-97823368D01*
X216936632Y-97616525D01*
X216762240Y-97500000D01*
X216936632Y-97383475D01*
X217143475Y-97176632D01*
X217260000Y-97002240D01*
X217376525Y-97176632D01*
G36*
X214836525Y-97176632D02*
G01*
X215043368Y-97383475D01*
X215217760Y-97500000D01*
X215043368Y-97616525D01*
X214836525Y-97823368D01*
X214720000Y-97997760D01*
X214603475Y-97823368D01*
X214396632Y-97616525D01*
X214220594Y-97498900D01*
X214450269Y-97327588D01*
X214645178Y-97111355D01*
X214714805Y-96994466D01*
X214836525Y-97176632D01*
G37*
X214836525Y-97176632D02*
X215043368Y-97383475D01*
X215217760Y-97500000D01*
X215043368Y-97616525D01*
X214836525Y-97823368D01*
X214720000Y-97997760D01*
X214603475Y-97823368D01*
X214396632Y-97616525D01*
X214220594Y-97498900D01*
X214450269Y-97327588D01*
X214645178Y-97111355D01*
X214714805Y-96994466D01*
X214836525Y-97176632D01*
M02*
