G04 #@! TF.GenerationSoftware,KiCad,Pcbnew,5.1.6-c6e7f7d~87~ubuntu18.04.1*
G04 #@! TF.CreationDate,2020-09-01T14:20:24+02:00*
G04 #@! TF.ProjectId,relais_hat,72656c61-6973-45f6-9861-742e6b696361,rev?*
G04 #@! TF.SameCoordinates,Original*
G04 #@! TF.FileFunction,Paste,Top*
G04 #@! TF.FilePolarity,Positive*
%FSLAX46Y46*%
G04 Gerber Fmt 4.6, Leading zero omitted, Abs format (unit mm)*
G04 Created by KiCad (PCBNEW 5.1.6-c6e7f7d~87~ubuntu18.04.1) date 2020-09-01 14:20:24*
%MOMM*%
%LPD*%
G01*
G04 APERTURE LIST*
%ADD10R,0.900000X0.800000*%
%ADD11R,1.200000X0.900000*%
G04 APERTURE END LIST*
G36*
G01*
X243551000Y-145161000D02*
X242301000Y-145161000D01*
G75*
G02*
X242051000Y-144911000I0J250000D01*
G01*
X242051000Y-144161000D01*
G75*
G02*
X242301000Y-143911000I250000J0D01*
G01*
X243551000Y-143911000D01*
G75*
G02*
X243801000Y-144161000I0J-250000D01*
G01*
X243801000Y-144911000D01*
G75*
G02*
X243551000Y-145161000I-250000J0D01*
G01*
G37*
G36*
G01*
X243551000Y-147961000D02*
X242301000Y-147961000D01*
G75*
G02*
X242051000Y-147711000I0J250000D01*
G01*
X242051000Y-146961000D01*
G75*
G02*
X242301000Y-146711000I250000J0D01*
G01*
X243551000Y-146711000D01*
G75*
G02*
X243801000Y-146961000I0J-250000D01*
G01*
X243801000Y-147711000D01*
G75*
G02*
X243551000Y-147961000I-250000J0D01*
G01*
G37*
G36*
G01*
X241011000Y-145161000D02*
X239761000Y-145161000D01*
G75*
G02*
X239511000Y-144911000I0J250000D01*
G01*
X239511000Y-144161000D01*
G75*
G02*
X239761000Y-143911000I250000J0D01*
G01*
X241011000Y-143911000D01*
G75*
G02*
X241261000Y-144161000I0J-250000D01*
G01*
X241261000Y-144911000D01*
G75*
G02*
X241011000Y-145161000I-250000J0D01*
G01*
G37*
G36*
G01*
X241011000Y-147961000D02*
X239761000Y-147961000D01*
G75*
G02*
X239511000Y-147711000I0J250000D01*
G01*
X239511000Y-146961000D01*
G75*
G02*
X239761000Y-146711000I250000J0D01*
G01*
X241011000Y-146711000D01*
G75*
G02*
X241261000Y-146961000I0J-250000D01*
G01*
X241261000Y-147711000D01*
G75*
G02*
X241011000Y-147961000I-250000J0D01*
G01*
G37*
G36*
G01*
X236693000Y-145161000D02*
X235443000Y-145161000D01*
G75*
G02*
X235193000Y-144911000I0J250000D01*
G01*
X235193000Y-144161000D01*
G75*
G02*
X235443000Y-143911000I250000J0D01*
G01*
X236693000Y-143911000D01*
G75*
G02*
X236943000Y-144161000I0J-250000D01*
G01*
X236943000Y-144911000D01*
G75*
G02*
X236693000Y-145161000I-250000J0D01*
G01*
G37*
G36*
G01*
X236693000Y-147961000D02*
X235443000Y-147961000D01*
G75*
G02*
X235193000Y-147711000I0J250000D01*
G01*
X235193000Y-146961000D01*
G75*
G02*
X235443000Y-146711000I250000J0D01*
G01*
X236693000Y-146711000D01*
G75*
G02*
X236943000Y-146961000I0J-250000D01*
G01*
X236943000Y-147711000D01*
G75*
G02*
X236693000Y-147961000I-250000J0D01*
G01*
G37*
G36*
G01*
X234153000Y-145161000D02*
X232903000Y-145161000D01*
G75*
G02*
X232653000Y-144911000I0J250000D01*
G01*
X232653000Y-144161000D01*
G75*
G02*
X232903000Y-143911000I250000J0D01*
G01*
X234153000Y-143911000D01*
G75*
G02*
X234403000Y-144161000I0J-250000D01*
G01*
X234403000Y-144911000D01*
G75*
G02*
X234153000Y-145161000I-250000J0D01*
G01*
G37*
G36*
G01*
X234153000Y-147961000D02*
X232903000Y-147961000D01*
G75*
G02*
X232653000Y-147711000I0J250000D01*
G01*
X232653000Y-146961000D01*
G75*
G02*
X232903000Y-146711000I250000J0D01*
G01*
X234153000Y-146711000D01*
G75*
G02*
X234403000Y-146961000I0J-250000D01*
G01*
X234403000Y-147711000D01*
G75*
G02*
X234153000Y-147961000I-250000J0D01*
G01*
G37*
G36*
G01*
X275880000Y-101274000D02*
X275880000Y-100174000D01*
G75*
G02*
X276130000Y-99924000I250000J0D01*
G01*
X279130000Y-99924000D01*
G75*
G02*
X279380000Y-100174000I0J-250000D01*
G01*
X279380000Y-101274000D01*
G75*
G02*
X279130000Y-101524000I-250000J0D01*
G01*
X276130000Y-101524000D01*
G75*
G02*
X275880000Y-101274000I0J250000D01*
G01*
G37*
G36*
G01*
X270480000Y-101274000D02*
X270480000Y-100174000D01*
G75*
G02*
X270730000Y-99924000I250000J0D01*
G01*
X273730000Y-99924000D01*
G75*
G02*
X273980000Y-100174000I0J-250000D01*
G01*
X273980000Y-101274000D01*
G75*
G02*
X273730000Y-101524000I-250000J0D01*
G01*
X270730000Y-101524000D01*
G75*
G02*
X270480000Y-101274000I0J250000D01*
G01*
G37*
D10*
X260944000Y-132982000D03*
X258944000Y-133932000D03*
X258944000Y-132032000D03*
X274660000Y-146444000D03*
X272660000Y-147394000D03*
X272660000Y-145494000D03*
X271612000Y-135776000D03*
X269612000Y-136726000D03*
X269612000Y-134826000D03*
X258404000Y-143142000D03*
X256404000Y-144092000D03*
X256404000Y-142192000D03*
D11*
X260960000Y-129806000D03*
X260960000Y-126506000D03*
X274676000Y-143014000D03*
X274676000Y-139714000D03*
X271628000Y-132346000D03*
X271628000Y-129046000D03*
X260452000Y-140728000D03*
X260452000Y-137428000D03*
D10*
X253356000Y-127394000D03*
X255356000Y-126444000D03*
X255356000Y-128344000D03*
X267072000Y-140602000D03*
X269072000Y-139652000D03*
X269072000Y-141552000D03*
X264024000Y-129934000D03*
X266024000Y-128984000D03*
X266024000Y-130884000D03*
X253102000Y-138316000D03*
X255102000Y-137366000D03*
X255102000Y-139266000D03*
G36*
G01*
X257098250Y-132532000D02*
X256185750Y-132532000D01*
G75*
G02*
X255942000Y-132288250I0J243750D01*
G01*
X255942000Y-131800750D01*
G75*
G02*
X256185750Y-131557000I243750J0D01*
G01*
X257098250Y-131557000D01*
G75*
G02*
X257342000Y-131800750I0J-243750D01*
G01*
X257342000Y-132288250D01*
G75*
G02*
X257098250Y-132532000I-243750J0D01*
G01*
G37*
G36*
G01*
X257098250Y-134407000D02*
X256185750Y-134407000D01*
G75*
G02*
X255942000Y-134163250I0J243750D01*
G01*
X255942000Y-133675750D01*
G75*
G02*
X256185750Y-133432000I243750J0D01*
G01*
X257098250Y-133432000D01*
G75*
G02*
X257342000Y-133675750I0J-243750D01*
G01*
X257342000Y-134163250D01*
G75*
G02*
X257098250Y-134407000I-243750J0D01*
G01*
G37*
G36*
G01*
X271068250Y-145994000D02*
X270155750Y-145994000D01*
G75*
G02*
X269912000Y-145750250I0J243750D01*
G01*
X269912000Y-145262750D01*
G75*
G02*
X270155750Y-145019000I243750J0D01*
G01*
X271068250Y-145019000D01*
G75*
G02*
X271312000Y-145262750I0J-243750D01*
G01*
X271312000Y-145750250D01*
G75*
G02*
X271068250Y-145994000I-243750J0D01*
G01*
G37*
G36*
G01*
X271068250Y-147869000D02*
X270155750Y-147869000D01*
G75*
G02*
X269912000Y-147625250I0J243750D01*
G01*
X269912000Y-147137750D01*
G75*
G02*
X270155750Y-146894000I243750J0D01*
G01*
X271068250Y-146894000D01*
G75*
G02*
X271312000Y-147137750I0J-243750D01*
G01*
X271312000Y-147625250D01*
G75*
G02*
X271068250Y-147869000I-243750J0D01*
G01*
G37*
G36*
G01*
X267766250Y-135326000D02*
X266853750Y-135326000D01*
G75*
G02*
X266610000Y-135082250I0J243750D01*
G01*
X266610000Y-134594750D01*
G75*
G02*
X266853750Y-134351000I243750J0D01*
G01*
X267766250Y-134351000D01*
G75*
G02*
X268010000Y-134594750I0J-243750D01*
G01*
X268010000Y-135082250D01*
G75*
G02*
X267766250Y-135326000I-243750J0D01*
G01*
G37*
G36*
G01*
X267766250Y-137201000D02*
X266853750Y-137201000D01*
G75*
G02*
X266610000Y-136957250I0J243750D01*
G01*
X266610000Y-136469750D01*
G75*
G02*
X266853750Y-136226000I243750J0D01*
G01*
X267766250Y-136226000D01*
G75*
G02*
X268010000Y-136469750I0J-243750D01*
G01*
X268010000Y-136957250D01*
G75*
G02*
X267766250Y-137201000I-243750J0D01*
G01*
G37*
G36*
G01*
X255066250Y-144724000D02*
X254153750Y-144724000D01*
G75*
G02*
X253910000Y-144480250I0J243750D01*
G01*
X253910000Y-143992750D01*
G75*
G02*
X254153750Y-143749000I243750J0D01*
G01*
X255066250Y-143749000D01*
G75*
G02*
X255310000Y-143992750I0J-243750D01*
G01*
X255310000Y-144480250D01*
G75*
G02*
X255066250Y-144724000I-243750J0D01*
G01*
G37*
G36*
G01*
X255066250Y-146599000D02*
X254153750Y-146599000D01*
G75*
G02*
X253910000Y-146355250I0J243750D01*
G01*
X253910000Y-145867750D01*
G75*
G02*
X254153750Y-145624000I243750J0D01*
G01*
X255066250Y-145624000D01*
G75*
G02*
X255310000Y-145867750I0J-243750D01*
G01*
X255310000Y-146355250D01*
G75*
G02*
X255066250Y-146599000I-243750J0D01*
G01*
G37*
G36*
G01*
X246430250Y-145486000D02*
X245517750Y-145486000D01*
G75*
G02*
X245274000Y-145242250I0J243750D01*
G01*
X245274000Y-144754750D01*
G75*
G02*
X245517750Y-144511000I243750J0D01*
G01*
X246430250Y-144511000D01*
G75*
G02*
X246674000Y-144754750I0J-243750D01*
G01*
X246674000Y-145242250D01*
G75*
G02*
X246430250Y-145486000I-243750J0D01*
G01*
G37*
G36*
G01*
X246430250Y-147361000D02*
X245517750Y-147361000D01*
G75*
G02*
X245274000Y-147117250I0J243750D01*
G01*
X245274000Y-146629750D01*
G75*
G02*
X245517750Y-146386000I243750J0D01*
G01*
X246430250Y-146386000D01*
G75*
G02*
X246674000Y-146629750I0J-243750D01*
G01*
X246674000Y-147117250D01*
G75*
G02*
X246430250Y-147361000I-243750J0D01*
G01*
G37*
G36*
G01*
X248716250Y-145486000D02*
X247803750Y-145486000D01*
G75*
G02*
X247560000Y-145242250I0J243750D01*
G01*
X247560000Y-144754750D01*
G75*
G02*
X247803750Y-144511000I243750J0D01*
G01*
X248716250Y-144511000D01*
G75*
G02*
X248960000Y-144754750I0J-243750D01*
G01*
X248960000Y-145242250D01*
G75*
G02*
X248716250Y-145486000I-243750J0D01*
G01*
G37*
G36*
G01*
X248716250Y-147361000D02*
X247803750Y-147361000D01*
G75*
G02*
X247560000Y-147117250I0J243750D01*
G01*
X247560000Y-146629750D01*
G75*
G02*
X247803750Y-146386000I243750J0D01*
G01*
X248716250Y-146386000D01*
G75*
G02*
X248960000Y-146629750I0J-243750D01*
G01*
X248960000Y-147117250D01*
G75*
G02*
X248716250Y-147361000I-243750J0D01*
G01*
G37*
G36*
G01*
X228650250Y-145486000D02*
X227737750Y-145486000D01*
G75*
G02*
X227494000Y-145242250I0J243750D01*
G01*
X227494000Y-144754750D01*
G75*
G02*
X227737750Y-144511000I243750J0D01*
G01*
X228650250Y-144511000D01*
G75*
G02*
X228894000Y-144754750I0J-243750D01*
G01*
X228894000Y-145242250D01*
G75*
G02*
X228650250Y-145486000I-243750J0D01*
G01*
G37*
G36*
G01*
X228650250Y-147361000D02*
X227737750Y-147361000D01*
G75*
G02*
X227494000Y-147117250I0J243750D01*
G01*
X227494000Y-146629750D01*
G75*
G02*
X227737750Y-146386000I243750J0D01*
G01*
X228650250Y-146386000D01*
G75*
G02*
X228894000Y-146629750I0J-243750D01*
G01*
X228894000Y-147117250D01*
G75*
G02*
X228650250Y-147361000I-243750J0D01*
G01*
G37*
G36*
G01*
X230936250Y-145486000D02*
X230023750Y-145486000D01*
G75*
G02*
X229780000Y-145242250I0J243750D01*
G01*
X229780000Y-144754750D01*
G75*
G02*
X230023750Y-144511000I243750J0D01*
G01*
X230936250Y-144511000D01*
G75*
G02*
X231180000Y-144754750I0J-243750D01*
G01*
X231180000Y-145242250D01*
G75*
G02*
X230936250Y-145486000I-243750J0D01*
G01*
G37*
G36*
G01*
X230936250Y-147361000D02*
X230023750Y-147361000D01*
G75*
G02*
X229780000Y-147117250I0J243750D01*
G01*
X229780000Y-146629750D01*
G75*
G02*
X230023750Y-146386000I243750J0D01*
G01*
X230936250Y-146386000D01*
G75*
G02*
X231180000Y-146629750I0J-243750D01*
G01*
X231180000Y-147117250D01*
G75*
G02*
X230936250Y-147361000I-243750J0D01*
G01*
G37*
G36*
G01*
X253645750Y-133432000D02*
X254558250Y-133432000D01*
G75*
G02*
X254802000Y-133675750I0J-243750D01*
G01*
X254802000Y-134163250D01*
G75*
G02*
X254558250Y-134407000I-243750J0D01*
G01*
X253645750Y-134407000D01*
G75*
G02*
X253402000Y-134163250I0J243750D01*
G01*
X253402000Y-133675750D01*
G75*
G02*
X253645750Y-133432000I243750J0D01*
G01*
G37*
G36*
G01*
X253645750Y-131557000D02*
X254558250Y-131557000D01*
G75*
G02*
X254802000Y-131800750I0J-243750D01*
G01*
X254802000Y-132288250D01*
G75*
G02*
X254558250Y-132532000I-243750J0D01*
G01*
X253645750Y-132532000D01*
G75*
G02*
X253402000Y-132288250I0J243750D01*
G01*
X253402000Y-131800750D01*
G75*
G02*
X253645750Y-131557000I243750J0D01*
G01*
G37*
G36*
G01*
X267615750Y-146894000D02*
X268528250Y-146894000D01*
G75*
G02*
X268772000Y-147137750I0J-243750D01*
G01*
X268772000Y-147625250D01*
G75*
G02*
X268528250Y-147869000I-243750J0D01*
G01*
X267615750Y-147869000D01*
G75*
G02*
X267372000Y-147625250I0J243750D01*
G01*
X267372000Y-147137750D01*
G75*
G02*
X267615750Y-146894000I243750J0D01*
G01*
G37*
G36*
G01*
X267615750Y-145019000D02*
X268528250Y-145019000D01*
G75*
G02*
X268772000Y-145262750I0J-243750D01*
G01*
X268772000Y-145750250D01*
G75*
G02*
X268528250Y-145994000I-243750J0D01*
G01*
X267615750Y-145994000D01*
G75*
G02*
X267372000Y-145750250I0J243750D01*
G01*
X267372000Y-145262750D01*
G75*
G02*
X267615750Y-145019000I243750J0D01*
G01*
G37*
G36*
G01*
X264313750Y-136226000D02*
X265226250Y-136226000D01*
G75*
G02*
X265470000Y-136469750I0J-243750D01*
G01*
X265470000Y-136957250D01*
G75*
G02*
X265226250Y-137201000I-243750J0D01*
G01*
X264313750Y-137201000D01*
G75*
G02*
X264070000Y-136957250I0J243750D01*
G01*
X264070000Y-136469750D01*
G75*
G02*
X264313750Y-136226000I243750J0D01*
G01*
G37*
G36*
G01*
X264313750Y-134351000D02*
X265226250Y-134351000D01*
G75*
G02*
X265470000Y-134594750I0J-243750D01*
G01*
X265470000Y-135082250D01*
G75*
G02*
X265226250Y-135326000I-243750J0D01*
G01*
X264313750Y-135326000D01*
G75*
G02*
X264070000Y-135082250I0J243750D01*
G01*
X264070000Y-134594750D01*
G75*
G02*
X264313750Y-134351000I243750J0D01*
G01*
G37*
G36*
G01*
X251613750Y-145624000D02*
X252526250Y-145624000D01*
G75*
G02*
X252770000Y-145867750I0J-243750D01*
G01*
X252770000Y-146355250D01*
G75*
G02*
X252526250Y-146599000I-243750J0D01*
G01*
X251613750Y-146599000D01*
G75*
G02*
X251370000Y-146355250I0J243750D01*
G01*
X251370000Y-145867750D01*
G75*
G02*
X251613750Y-145624000I243750J0D01*
G01*
G37*
G36*
G01*
X251613750Y-143749000D02*
X252526250Y-143749000D01*
G75*
G02*
X252770000Y-143992750I0J-243750D01*
G01*
X252770000Y-144480250D01*
G75*
G02*
X252526250Y-144724000I-243750J0D01*
G01*
X251613750Y-144724000D01*
G75*
G02*
X251370000Y-144480250I0J243750D01*
G01*
X251370000Y-143992750D01*
G75*
G02*
X251613750Y-143749000I243750J0D01*
G01*
G37*
G36*
G01*
X257201750Y-127844000D02*
X258114250Y-127844000D01*
G75*
G02*
X258358000Y-128087750I0J-243750D01*
G01*
X258358000Y-128575250D01*
G75*
G02*
X258114250Y-128819000I-243750J0D01*
G01*
X257201750Y-128819000D01*
G75*
G02*
X256958000Y-128575250I0J243750D01*
G01*
X256958000Y-128087750D01*
G75*
G02*
X257201750Y-127844000I243750J0D01*
G01*
G37*
G36*
G01*
X257201750Y-125969000D02*
X258114250Y-125969000D01*
G75*
G02*
X258358000Y-126212750I0J-243750D01*
G01*
X258358000Y-126700250D01*
G75*
G02*
X258114250Y-126944000I-243750J0D01*
G01*
X257201750Y-126944000D01*
G75*
G02*
X256958000Y-126700250I0J243750D01*
G01*
X256958000Y-126212750D01*
G75*
G02*
X257201750Y-125969000I243750J0D01*
G01*
G37*
G36*
G01*
X270917750Y-141052000D02*
X271830250Y-141052000D01*
G75*
G02*
X272074000Y-141295750I0J-243750D01*
G01*
X272074000Y-141783250D01*
G75*
G02*
X271830250Y-142027000I-243750J0D01*
G01*
X270917750Y-142027000D01*
G75*
G02*
X270674000Y-141783250I0J243750D01*
G01*
X270674000Y-141295750D01*
G75*
G02*
X270917750Y-141052000I243750J0D01*
G01*
G37*
G36*
G01*
X270917750Y-139177000D02*
X271830250Y-139177000D01*
G75*
G02*
X272074000Y-139420750I0J-243750D01*
G01*
X272074000Y-139908250D01*
G75*
G02*
X271830250Y-140152000I-243750J0D01*
G01*
X270917750Y-140152000D01*
G75*
G02*
X270674000Y-139908250I0J243750D01*
G01*
X270674000Y-139420750D01*
G75*
G02*
X270917750Y-139177000I243750J0D01*
G01*
G37*
G36*
G01*
X267869750Y-130384000D02*
X268782250Y-130384000D01*
G75*
G02*
X269026000Y-130627750I0J-243750D01*
G01*
X269026000Y-131115250D01*
G75*
G02*
X268782250Y-131359000I-243750J0D01*
G01*
X267869750Y-131359000D01*
G75*
G02*
X267626000Y-131115250I0J243750D01*
G01*
X267626000Y-130627750D01*
G75*
G02*
X267869750Y-130384000I243750J0D01*
G01*
G37*
G36*
G01*
X267869750Y-128509000D02*
X268782250Y-128509000D01*
G75*
G02*
X269026000Y-128752750I0J-243750D01*
G01*
X269026000Y-129240250D01*
G75*
G02*
X268782250Y-129484000I-243750J0D01*
G01*
X267869750Y-129484000D01*
G75*
G02*
X267626000Y-129240250I0J243750D01*
G01*
X267626000Y-128752750D01*
G75*
G02*
X267869750Y-128509000I243750J0D01*
G01*
G37*
G36*
G01*
X256947750Y-138766000D02*
X257860250Y-138766000D01*
G75*
G02*
X258104000Y-139009750I0J-243750D01*
G01*
X258104000Y-139497250D01*
G75*
G02*
X257860250Y-139741000I-243750J0D01*
G01*
X256947750Y-139741000D01*
G75*
G02*
X256704000Y-139497250I0J243750D01*
G01*
X256704000Y-139009750D01*
G75*
G02*
X256947750Y-138766000I243750J0D01*
G01*
G37*
G36*
G01*
X256947750Y-136891000D02*
X257860250Y-136891000D01*
G75*
G02*
X258104000Y-137134750I0J-243750D01*
G01*
X258104000Y-137622250D01*
G75*
G02*
X257860250Y-137866000I-243750J0D01*
G01*
X256947750Y-137866000D01*
G75*
G02*
X256704000Y-137622250I0J243750D01*
G01*
X256704000Y-137134750D01*
G75*
G02*
X256947750Y-136891000I243750J0D01*
G01*
G37*
M02*
