G04 #@! TF.GenerationSoftware,KiCad,Pcbnew,(5.1.5)-3*
G04 #@! TF.CreationDate,2020-10-29T21:53:27+01:00*
G04 #@! TF.ProjectId,relais_hat,72656c61-6973-45f6-9861-742e6b696361,rev?*
G04 #@! TF.SameCoordinates,Original*
G04 #@! TF.FileFunction,Legend,Top*
G04 #@! TF.FilePolarity,Positive*
%FSLAX46Y46*%
G04 Gerber Fmt 4.6, Leading zero omitted, Abs format (unit mm)*
G04 Created by KiCad (PCBNEW (5.1.5)-3) date 2020-10-29 21:53:27*
%MOMM*%
%LPD*%
G04 APERTURE LIST*
%ADD10C,0.120000*%
%ADD11C,0.127000*%
%ADD12C,0.150000*%
%ADD13C,0.015000*%
G04 APERTURE END LIST*
D10*
X260670980Y-134460400D02*
X260670980Y-133530400D01*
X260670980Y-131300400D02*
X260670980Y-132230400D01*
X260670980Y-131300400D02*
X258510980Y-131300400D01*
X260670980Y-134460400D02*
X259210980Y-134460400D01*
X274389520Y-148021460D02*
X274389520Y-147091460D01*
X274389520Y-144861460D02*
X274389520Y-145791460D01*
X274389520Y-144861460D02*
X272229520Y-144861460D01*
X274389520Y-148021460D02*
X272929520Y-148021460D01*
X271323740Y-137320440D02*
X271323740Y-136390440D01*
X271323740Y-134160440D02*
X271323740Y-135090440D01*
X271323740Y-134160440D02*
X269163740Y-134160440D01*
X271323740Y-137320440D02*
X269863740Y-137320440D01*
X258240000Y-144650000D02*
X258240000Y-143720000D01*
X258240000Y-141490000D02*
X258240000Y-142420000D01*
X258240000Y-141490000D02*
X256080000Y-141490000D01*
X258240000Y-144650000D02*
X256780000Y-144650000D01*
X267878000Y-102816000D02*
X266548000Y-102816000D01*
X267878000Y-101486000D02*
X267878000Y-102816000D01*
X267878000Y-100216000D02*
X265218000Y-100216000D01*
X265218000Y-100216000D02*
X265218000Y-97616000D01*
X267878000Y-100216000D02*
X267878000Y-97616000D01*
X267878000Y-97616000D02*
X265218000Y-97616000D01*
X244061000Y-148221000D02*
X244061000Y-144336000D01*
X241791000Y-148221000D02*
X244061000Y-148221000D01*
X241791000Y-144336000D02*
X241791000Y-148221000D01*
X241521000Y-148221000D02*
X241521000Y-144336000D01*
X239251000Y-148221000D02*
X241521000Y-148221000D01*
X239251000Y-144336000D02*
X239251000Y-148221000D01*
X237203000Y-148221000D02*
X237203000Y-144336000D01*
X234933000Y-148221000D02*
X237203000Y-148221000D01*
X234933000Y-144336000D02*
X234933000Y-148221000D01*
X234663000Y-148221000D02*
X234663000Y-144336000D01*
X232393000Y-148221000D02*
X234663000Y-148221000D01*
X232393000Y-144336000D02*
X232393000Y-148221000D01*
X270886250Y-98482750D02*
X270886250Y-99270250D01*
X270492500Y-98876500D02*
X271280000Y-98876500D01*
X271520000Y-103069563D02*
X272584437Y-104134000D01*
X271520000Y-98378437D02*
X272584437Y-97314000D01*
X271520000Y-98378437D02*
X271520000Y-99664000D01*
X271520000Y-103069563D02*
X271520000Y-101784000D01*
X272584437Y-104134000D02*
X278340000Y-104134000D01*
X272584437Y-97314000D02*
X278340000Y-97314000D01*
X278340000Y-97314000D02*
X278340000Y-99664000D01*
X278340000Y-104134000D02*
X278340000Y-101784000D01*
X264710000Y-112094000D02*
X266040000Y-112094000D01*
X264710000Y-113424000D02*
X264710000Y-112094000D01*
X264710000Y-114694000D02*
X267370000Y-114694000D01*
X267370000Y-114694000D02*
X267370000Y-119834000D01*
X264710000Y-114694000D02*
X264710000Y-119834000D01*
X264710000Y-119834000D02*
X267370000Y-119834000D01*
X262170000Y-112094000D02*
X263500000Y-112094000D01*
X262170000Y-113424000D02*
X262170000Y-112094000D01*
X262170000Y-114694000D02*
X264830000Y-114694000D01*
X264830000Y-114694000D02*
X264830000Y-119834000D01*
X262170000Y-114694000D02*
X262170000Y-119834000D01*
X262170000Y-119834000D02*
X264830000Y-119834000D01*
X259630000Y-112094000D02*
X260960000Y-112094000D01*
X259630000Y-113424000D02*
X259630000Y-112094000D01*
X259630000Y-114694000D02*
X262290000Y-114694000D01*
X262290000Y-114694000D02*
X262290000Y-119834000D01*
X259630000Y-114694000D02*
X259630000Y-119834000D01*
X259630000Y-119834000D02*
X262290000Y-119834000D01*
X273994675Y-116726000D02*
X273561662Y-116976000D01*
X273561662Y-116476000D02*
X273994675Y-116726000D01*
X273561662Y-116976000D02*
X273561662Y-116476000D01*
X274456000Y-106781000D02*
X284936000Y-106781000D01*
X274456000Y-137751000D02*
X274456000Y-106781000D01*
X284936000Y-137751000D02*
X274456000Y-137751000D01*
X262880000Y-125906000D02*
X262880000Y-129806000D01*
X260880000Y-125906000D02*
X260880000Y-129806000D01*
X262880000Y-125906000D02*
X260880000Y-125906000D01*
X275676000Y-139114000D02*
X275676000Y-143014000D01*
X273676000Y-139114000D02*
X273676000Y-143014000D01*
X275676000Y-139114000D02*
X273676000Y-139114000D01*
X272628000Y-128446000D02*
X272628000Y-132346000D01*
X270628000Y-128446000D02*
X270628000Y-132346000D01*
X272628000Y-128446000D02*
X270628000Y-128446000D01*
X262050000Y-136870000D02*
X262050000Y-140770000D01*
X260050000Y-136870000D02*
X260050000Y-140770000D01*
X262050000Y-136870000D02*
X260050000Y-136870000D01*
X255420000Y-125850000D02*
X256880000Y-125850000D01*
X255420000Y-129010000D02*
X257580000Y-129010000D01*
X255420000Y-129010000D02*
X255420000Y-128080000D01*
X255420000Y-125850000D02*
X255420000Y-126780000D01*
X267312000Y-139022000D02*
X268772000Y-139022000D01*
X267312000Y-142182000D02*
X269472000Y-142182000D01*
X267312000Y-142182000D02*
X267312000Y-141252000D01*
X267312000Y-139022000D02*
X267312000Y-139952000D01*
X264264000Y-128354000D02*
X265724000Y-128354000D01*
X264264000Y-131514000D02*
X266424000Y-131514000D01*
X264264000Y-131514000D02*
X264264000Y-130584000D01*
X264264000Y-128354000D02*
X264264000Y-129284000D01*
X254810000Y-136880000D02*
X256270000Y-136880000D01*
X254810000Y-140040000D02*
X256970000Y-140040000D01*
X254810000Y-140040000D02*
X254810000Y-139110000D01*
X254810000Y-136880000D02*
X254810000Y-137810000D01*
X257352000Y-133240578D02*
X257352000Y-132723422D01*
X255932000Y-133240578D02*
X255932000Y-132723422D01*
X271322000Y-146702578D02*
X271322000Y-146185422D01*
X269902000Y-146702578D02*
X269902000Y-146185422D01*
X268020000Y-136034578D02*
X268020000Y-135517422D01*
X266600000Y-136034578D02*
X266600000Y-135517422D01*
X255320000Y-145432578D02*
X255320000Y-144915422D01*
X253900000Y-145432578D02*
X253900000Y-144915422D01*
X246684000Y-146194578D02*
X246684000Y-145677422D01*
X245264000Y-146194578D02*
X245264000Y-145677422D01*
X248970000Y-146194578D02*
X248970000Y-145677422D01*
X247550000Y-146194578D02*
X247550000Y-145677422D01*
X228904000Y-146194578D02*
X228904000Y-145677422D01*
X227484000Y-146194578D02*
X227484000Y-145677422D01*
X231190000Y-146194578D02*
X231190000Y-145677422D01*
X229770000Y-146194578D02*
X229770000Y-145677422D01*
X253392000Y-132723422D02*
X253392000Y-133240578D01*
X254812000Y-132723422D02*
X254812000Y-133240578D01*
X267362000Y-146185422D02*
X267362000Y-146702578D01*
X268782000Y-146185422D02*
X268782000Y-146702578D01*
X264060000Y-135517422D02*
X264060000Y-136034578D01*
X265480000Y-135517422D02*
X265480000Y-136034578D01*
X251360000Y-144915422D02*
X251360000Y-145432578D01*
X252780000Y-144915422D02*
X252780000Y-145432578D01*
D11*
X226038000Y-123228000D02*
X210538000Y-123228000D01*
X226038000Y-142228000D02*
X226038000Y-123228000D01*
X210538000Y-142228000D02*
X226038000Y-142228000D01*
X210538000Y-123228000D02*
X210538000Y-142228000D01*
X244580000Y-123228000D02*
X229080000Y-123228000D01*
X244580000Y-142228000D02*
X244580000Y-123228000D01*
X229080000Y-142228000D02*
X244580000Y-142228000D01*
X229080000Y-123228000D02*
X229080000Y-142228000D01*
X244580000Y-101130000D02*
X229080000Y-101130000D01*
X244580000Y-120130000D02*
X244580000Y-101130000D01*
X229080000Y-120130000D02*
X244580000Y-120130000D01*
X229080000Y-101130000D02*
X229080000Y-120130000D01*
X226038000Y-100876000D02*
X210538000Y-100876000D01*
X226038000Y-119876000D02*
X226038000Y-100876000D01*
X210538000Y-119876000D02*
X226038000Y-119876000D01*
X210538000Y-100876000D02*
X210538000Y-119876000D01*
D10*
X200508000Y-131204000D02*
X200508000Y-141364000D01*
X208128000Y-131204000D02*
X200508000Y-131204000D01*
X208128000Y-141364000D02*
X208128000Y-131204000D01*
X200508000Y-141364000D02*
X208128000Y-141364000D01*
X201778000Y-141364000D02*
X201778000Y-131204000D01*
X200508000Y-121298000D02*
X200508000Y-131458000D01*
X208128000Y-121298000D02*
X200508000Y-121298000D01*
X208128000Y-131458000D02*
X208128000Y-121298000D01*
X200508000Y-131458000D02*
X208128000Y-131458000D01*
X201778000Y-131458000D02*
X201778000Y-121298000D01*
X200508000Y-111392000D02*
X200508000Y-121552000D01*
X208128000Y-111392000D02*
X200508000Y-111392000D01*
X208128000Y-121552000D02*
X208128000Y-111392000D01*
X200508000Y-121552000D02*
X208128000Y-121552000D01*
X201778000Y-121552000D02*
X201778000Y-111392000D01*
X200508000Y-101486000D02*
X200508000Y-111646000D01*
X208128000Y-101486000D02*
X200508000Y-101486000D01*
X208128000Y-111646000D02*
X208128000Y-101486000D01*
X200508000Y-111646000D02*
X208128000Y-111646000D01*
X201778000Y-111646000D02*
X201778000Y-101486000D01*
X258580000Y-126651422D02*
X258580000Y-127168578D01*
X260000000Y-126651422D02*
X260000000Y-127168578D01*
X270664000Y-140343422D02*
X270664000Y-140860578D01*
X272084000Y-140343422D02*
X272084000Y-140860578D01*
X267616000Y-129675422D02*
X267616000Y-130192578D01*
X269036000Y-129675422D02*
X269036000Y-130192578D01*
X257640000Y-138171422D02*
X257640000Y-138688578D01*
X259060000Y-138171422D02*
X259060000Y-138688578D01*
X255750000Y-124730000D02*
X268580000Y-124730000D01*
X255750000Y-104150000D02*
X255750000Y-124730000D01*
X271250000Y-104150000D02*
X255750000Y-104150000D01*
X271250000Y-122060000D02*
X271250000Y-104150000D01*
X268580000Y-122060000D02*
X271250000Y-122060000D01*
X268580000Y-124730000D02*
X268580000Y-122060000D01*
X271250000Y-124730000D02*
X271250000Y-123330000D01*
X269850000Y-124730000D02*
X271250000Y-124730000D01*
X268580000Y-122060000D02*
X268580000Y-104150000D01*
X258420000Y-124730000D02*
X258420000Y-104150000D01*
D12*
X262152541Y-132168179D02*
X262057303Y-132120560D01*
X261962065Y-132025321D01*
X261819208Y-131882464D01*
X261723970Y-131834845D01*
X261628732Y-131834845D01*
X261676351Y-132072940D02*
X261581113Y-132025321D01*
X261485875Y-131930083D01*
X261438256Y-131739607D01*
X261438256Y-131406274D01*
X261485875Y-131215798D01*
X261581113Y-131120560D01*
X261676351Y-131072940D01*
X261866827Y-131072940D01*
X261962065Y-131120560D01*
X262057303Y-131215798D01*
X262104922Y-131406274D01*
X262104922Y-131739607D01*
X262057303Y-131930083D01*
X261962065Y-132025321D01*
X261866827Y-132072940D01*
X261676351Y-132072940D01*
X262962065Y-131406274D02*
X262962065Y-132072940D01*
X262723970Y-131025321D02*
X262485875Y-131739607D01*
X263104922Y-131739607D01*
X276300341Y-147842519D02*
X276205103Y-147794900D01*
X276109865Y-147699661D01*
X275967008Y-147556804D01*
X275871770Y-147509185D01*
X275776532Y-147509185D01*
X275824151Y-147747280D02*
X275728913Y-147699661D01*
X275633675Y-147604423D01*
X275586056Y-147413947D01*
X275586056Y-147080614D01*
X275633675Y-146890138D01*
X275728913Y-146794900D01*
X275824151Y-146747280D01*
X276014627Y-146747280D01*
X276109865Y-146794900D01*
X276205103Y-146890138D01*
X276252722Y-147080614D01*
X276252722Y-147413947D01*
X276205103Y-147604423D01*
X276109865Y-147699661D01*
X276014627Y-147747280D01*
X275824151Y-147747280D01*
X276586056Y-146747280D02*
X277205103Y-146747280D01*
X276871770Y-147128233D01*
X277014627Y-147128233D01*
X277109865Y-147175852D01*
X277157484Y-147223471D01*
X277205103Y-147318709D01*
X277205103Y-147556804D01*
X277157484Y-147652042D01*
X277109865Y-147699661D01*
X277014627Y-147747280D01*
X276728913Y-147747280D01*
X276633675Y-147699661D01*
X276586056Y-147652042D01*
X273160901Y-135774979D02*
X273065663Y-135727360D01*
X272970425Y-135632121D01*
X272827568Y-135489264D01*
X272732330Y-135441645D01*
X272637092Y-135441645D01*
X272684711Y-135679740D02*
X272589473Y-135632121D01*
X272494235Y-135536883D01*
X272446616Y-135346407D01*
X272446616Y-135013074D01*
X272494235Y-134822598D01*
X272589473Y-134727360D01*
X272684711Y-134679740D01*
X272875187Y-134679740D01*
X272970425Y-134727360D01*
X273065663Y-134822598D01*
X273113282Y-135013074D01*
X273113282Y-135346407D01*
X273065663Y-135536883D01*
X272970425Y-135632121D01*
X272875187Y-135679740D01*
X272684711Y-135679740D01*
X273494235Y-134774979D02*
X273541854Y-134727360D01*
X273637092Y-134679740D01*
X273875187Y-134679740D01*
X273970425Y-134727360D01*
X274018044Y-134774979D01*
X274065663Y-134870217D01*
X274065663Y-134965455D01*
X274018044Y-135108312D01*
X273446616Y-135679740D01*
X274065663Y-135679740D01*
X257194261Y-146696099D02*
X257099023Y-146648480D01*
X257003785Y-146553241D01*
X256860928Y-146410384D01*
X256765690Y-146362765D01*
X256670452Y-146362765D01*
X256718071Y-146600860D02*
X256622833Y-146553241D01*
X256527595Y-146458003D01*
X256479976Y-146267527D01*
X256479976Y-145934194D01*
X256527595Y-145743718D01*
X256622833Y-145648480D01*
X256718071Y-145600860D01*
X256908547Y-145600860D01*
X257003785Y-145648480D01*
X257099023Y-145743718D01*
X257146642Y-145934194D01*
X257146642Y-146267527D01*
X257099023Y-146458003D01*
X257003785Y-146553241D01*
X256908547Y-146600860D01*
X256718071Y-146600860D01*
X258099023Y-146600860D02*
X257527595Y-146600860D01*
X257813309Y-146600860D02*
X257813309Y-145600860D01*
X257718071Y-145743718D01*
X257622833Y-145838956D01*
X257527595Y-145886575D01*
X268286380Y-101025523D02*
X269000666Y-101025523D01*
X269143523Y-101073142D01*
X269238761Y-101168380D01*
X269286380Y-101311238D01*
X269286380Y-101406476D01*
X269286380Y-100025523D02*
X269286380Y-100596952D01*
X269286380Y-100311238D02*
X268286380Y-100311238D01*
X268429238Y-100406476D01*
X268524476Y-100501714D01*
X268572095Y-100596952D01*
X268619714Y-99168380D02*
X269286380Y-99168380D01*
X268238761Y-99406476D02*
X268953047Y-99644571D01*
X268953047Y-99025523D01*
X242187904Y-149436380D02*
X242187904Y-148436380D01*
X242426000Y-148436380D01*
X242568857Y-148484000D01*
X242664095Y-148579238D01*
X242711714Y-148674476D01*
X242759333Y-148864952D01*
X242759333Y-149007809D01*
X242711714Y-149198285D01*
X242664095Y-149293523D01*
X242568857Y-149388761D01*
X242426000Y-149436380D01*
X242187904Y-149436380D01*
X243616476Y-148769714D02*
X243616476Y-149436380D01*
X243378380Y-148388761D02*
X243140285Y-149103047D01*
X243759333Y-149103047D01*
X239647904Y-149436380D02*
X239647904Y-148436380D01*
X239886000Y-148436380D01*
X240028857Y-148484000D01*
X240124095Y-148579238D01*
X240171714Y-148674476D01*
X240219333Y-148864952D01*
X240219333Y-149007809D01*
X240171714Y-149198285D01*
X240124095Y-149293523D01*
X240028857Y-149388761D01*
X239886000Y-149436380D01*
X239647904Y-149436380D01*
X240552666Y-148436380D02*
X241171714Y-148436380D01*
X240838380Y-148817333D01*
X240981238Y-148817333D01*
X241076476Y-148864952D01*
X241124095Y-148912571D01*
X241171714Y-149007809D01*
X241171714Y-149245904D01*
X241124095Y-149341142D01*
X241076476Y-149388761D01*
X240981238Y-149436380D01*
X240695523Y-149436380D01*
X240600285Y-149388761D01*
X240552666Y-149341142D01*
X235329904Y-149436380D02*
X235329904Y-148436380D01*
X235568000Y-148436380D01*
X235710857Y-148484000D01*
X235806095Y-148579238D01*
X235853714Y-148674476D01*
X235901333Y-148864952D01*
X235901333Y-149007809D01*
X235853714Y-149198285D01*
X235806095Y-149293523D01*
X235710857Y-149388761D01*
X235568000Y-149436380D01*
X235329904Y-149436380D01*
X236282285Y-148531619D02*
X236329904Y-148484000D01*
X236425142Y-148436380D01*
X236663238Y-148436380D01*
X236758476Y-148484000D01*
X236806095Y-148531619D01*
X236853714Y-148626857D01*
X236853714Y-148722095D01*
X236806095Y-148864952D01*
X236234666Y-149436380D01*
X236853714Y-149436380D01*
X232789904Y-149436380D02*
X232789904Y-148436380D01*
X233028000Y-148436380D01*
X233170857Y-148484000D01*
X233266095Y-148579238D01*
X233313714Y-148674476D01*
X233361333Y-148864952D01*
X233361333Y-149007809D01*
X233313714Y-149198285D01*
X233266095Y-149293523D01*
X233170857Y-149388761D01*
X233028000Y-149436380D01*
X232789904Y-149436380D01*
X234313714Y-149436380D02*
X233742285Y-149436380D01*
X234028000Y-149436380D02*
X234028000Y-148436380D01*
X233932761Y-148579238D01*
X233837523Y-148674476D01*
X233742285Y-148722095D01*
X274763333Y-96731142D02*
X274715714Y-96778761D01*
X274572857Y-96826380D01*
X274477619Y-96826380D01*
X274334761Y-96778761D01*
X274239523Y-96683523D01*
X274191904Y-96588285D01*
X274144285Y-96397809D01*
X274144285Y-96254952D01*
X274191904Y-96064476D01*
X274239523Y-95969238D01*
X274334761Y-95874000D01*
X274477619Y-95826380D01*
X274572857Y-95826380D01*
X274715714Y-95874000D01*
X274763333Y-95921619D01*
X275668095Y-95826380D02*
X275191904Y-95826380D01*
X275144285Y-96302571D01*
X275191904Y-96254952D01*
X275287142Y-96207333D01*
X275525238Y-96207333D01*
X275620476Y-96254952D01*
X275668095Y-96302571D01*
X275715714Y-96397809D01*
X275715714Y-96635904D01*
X275668095Y-96731142D01*
X275620476Y-96778761D01*
X275525238Y-96826380D01*
X275287142Y-96826380D01*
X275191904Y-96778761D01*
X275144285Y-96731142D01*
X265484476Y-120242380D02*
X265484476Y-120956666D01*
X265436857Y-121099523D01*
X265341619Y-121194761D01*
X265198761Y-121242380D01*
X265103523Y-121242380D01*
X266484476Y-121242380D02*
X265913047Y-121242380D01*
X266198761Y-121242380D02*
X266198761Y-120242380D01*
X266103523Y-120385238D01*
X266008285Y-120480476D01*
X265913047Y-120528095D01*
X266865428Y-120337619D02*
X266913047Y-120290000D01*
X267008285Y-120242380D01*
X267246380Y-120242380D01*
X267341619Y-120290000D01*
X267389238Y-120337619D01*
X267436857Y-120432857D01*
X267436857Y-120528095D01*
X267389238Y-120670952D01*
X266817809Y-121242380D01*
X267436857Y-121242380D01*
X263166666Y-110546380D02*
X263166666Y-111260666D01*
X263119047Y-111403523D01*
X263023809Y-111498761D01*
X262880952Y-111546380D01*
X262785714Y-111546380D01*
X263595238Y-110641619D02*
X263642857Y-110594000D01*
X263738095Y-110546380D01*
X263976190Y-110546380D01*
X264071428Y-110594000D01*
X264119047Y-110641619D01*
X264166666Y-110736857D01*
X264166666Y-110832095D01*
X264119047Y-110974952D01*
X263547619Y-111546380D01*
X264166666Y-111546380D01*
X260372666Y-110546380D02*
X260372666Y-111260666D01*
X260325047Y-111403523D01*
X260229809Y-111498761D01*
X260086952Y-111546380D01*
X259991714Y-111546380D01*
X261372666Y-111546380D02*
X260801238Y-111546380D01*
X261086952Y-111546380D02*
X261086952Y-110546380D01*
X260991714Y-110689238D01*
X260896476Y-110784476D01*
X260801238Y-110832095D01*
X272968380Y-123075523D02*
X273682666Y-123075523D01*
X273825523Y-123123142D01*
X273920761Y-123218380D01*
X273968380Y-123361238D01*
X273968380Y-123456476D01*
X273968380Y-122075523D02*
X273968380Y-122646952D01*
X273968380Y-122361238D02*
X272968380Y-122361238D01*
X273111238Y-122456476D01*
X273206476Y-122551714D01*
X273254095Y-122646952D01*
X272968380Y-121742190D02*
X272968380Y-121123142D01*
X273349333Y-121456476D01*
X273349333Y-121313619D01*
X273396952Y-121218380D01*
X273444571Y-121170761D01*
X273539809Y-121123142D01*
X273777904Y-121123142D01*
X273873142Y-121170761D01*
X273920761Y-121218380D01*
X273968380Y-121313619D01*
X273968380Y-121599333D01*
X273920761Y-121694571D01*
X273873142Y-121742190D01*
X264332380Y-128894095D02*
X263332380Y-128894095D01*
X263332380Y-128656000D01*
X263380000Y-128513142D01*
X263475238Y-128417904D01*
X263570476Y-128370285D01*
X263760952Y-128322666D01*
X263903809Y-128322666D01*
X264094285Y-128370285D01*
X264189523Y-128417904D01*
X264284761Y-128513142D01*
X264332380Y-128656000D01*
X264332380Y-128894095D01*
X263760952Y-127751238D02*
X263713333Y-127846476D01*
X263665714Y-127894095D01*
X263570476Y-127941714D01*
X263522857Y-127941714D01*
X263427619Y-127894095D01*
X263380000Y-127846476D01*
X263332380Y-127751238D01*
X263332380Y-127560761D01*
X263380000Y-127465523D01*
X263427619Y-127417904D01*
X263522857Y-127370285D01*
X263570476Y-127370285D01*
X263665714Y-127417904D01*
X263713333Y-127465523D01*
X263760952Y-127560761D01*
X263760952Y-127751238D01*
X263808571Y-127846476D01*
X263856190Y-127894095D01*
X263951428Y-127941714D01*
X264141904Y-127941714D01*
X264237142Y-127894095D01*
X264284761Y-127846476D01*
X264332380Y-127751238D01*
X264332380Y-127560761D01*
X264284761Y-127465523D01*
X264237142Y-127417904D01*
X264141904Y-127370285D01*
X263951428Y-127370285D01*
X263856190Y-127417904D01*
X263808571Y-127465523D01*
X263760952Y-127560761D01*
X277128380Y-142102095D02*
X276128380Y-142102095D01*
X276128380Y-141864000D01*
X276176000Y-141721142D01*
X276271238Y-141625904D01*
X276366476Y-141578285D01*
X276556952Y-141530666D01*
X276699809Y-141530666D01*
X276890285Y-141578285D01*
X276985523Y-141625904D01*
X277080761Y-141721142D01*
X277128380Y-141864000D01*
X277128380Y-142102095D01*
X276128380Y-141197333D02*
X276128380Y-140530666D01*
X277128380Y-140959238D01*
X274080380Y-131434095D02*
X273080380Y-131434095D01*
X273080380Y-131196000D01*
X273128000Y-131053142D01*
X273223238Y-130957904D01*
X273318476Y-130910285D01*
X273508952Y-130862666D01*
X273651809Y-130862666D01*
X273842285Y-130910285D01*
X273937523Y-130957904D01*
X274032761Y-131053142D01*
X274080380Y-131196000D01*
X274080380Y-131434095D01*
X273080380Y-130005523D02*
X273080380Y-130196000D01*
X273128000Y-130291238D01*
X273175619Y-130338857D01*
X273318476Y-130434095D01*
X273508952Y-130481714D01*
X273889904Y-130481714D01*
X273985142Y-130434095D01*
X274032761Y-130386476D01*
X274080380Y-130291238D01*
X274080380Y-130100761D01*
X274032761Y-130005523D01*
X273985142Y-129957904D01*
X273889904Y-129910285D01*
X273651809Y-129910285D01*
X273556571Y-129957904D01*
X273508952Y-130005523D01*
X273461333Y-130100761D01*
X273461333Y-130291238D01*
X273508952Y-130386476D01*
X273556571Y-130434095D01*
X273651809Y-130481714D01*
X263502380Y-139858095D02*
X262502380Y-139858095D01*
X262502380Y-139620000D01*
X262550000Y-139477142D01*
X262645238Y-139381904D01*
X262740476Y-139334285D01*
X262930952Y-139286666D01*
X263073809Y-139286666D01*
X263264285Y-139334285D01*
X263359523Y-139381904D01*
X263454761Y-139477142D01*
X263502380Y-139620000D01*
X263502380Y-139858095D01*
X262502380Y-138381904D02*
X262502380Y-138858095D01*
X262978571Y-138905714D01*
X262930952Y-138858095D01*
X262883333Y-138762857D01*
X262883333Y-138524761D01*
X262930952Y-138429523D01*
X262978571Y-138381904D01*
X263073809Y-138334285D01*
X263311904Y-138334285D01*
X263407142Y-138381904D01*
X263454761Y-138429523D01*
X263502380Y-138524761D01*
X263502380Y-138762857D01*
X263454761Y-138858095D01*
X263407142Y-138905714D01*
X255418095Y-129382380D02*
X255418095Y-130191904D01*
X255465714Y-130287142D01*
X255513333Y-130334761D01*
X255608571Y-130382380D01*
X255799047Y-130382380D01*
X255894285Y-130334761D01*
X255941904Y-130287142D01*
X255989523Y-130191904D01*
X255989523Y-129382380D01*
X256894285Y-129715714D02*
X256894285Y-130382380D01*
X256656190Y-129334761D02*
X256418095Y-130049047D01*
X257037142Y-130049047D01*
X267310095Y-142554380D02*
X267310095Y-143363904D01*
X267357714Y-143459142D01*
X267405333Y-143506761D01*
X267500571Y-143554380D01*
X267691047Y-143554380D01*
X267786285Y-143506761D01*
X267833904Y-143459142D01*
X267881523Y-143363904D01*
X267881523Y-142554380D01*
X268262476Y-142554380D02*
X268881523Y-142554380D01*
X268548190Y-142935333D01*
X268691047Y-142935333D01*
X268786285Y-142982952D01*
X268833904Y-143030571D01*
X268881523Y-143125809D01*
X268881523Y-143363904D01*
X268833904Y-143459142D01*
X268786285Y-143506761D01*
X268691047Y-143554380D01*
X268405333Y-143554380D01*
X268310095Y-143506761D01*
X268262476Y-143459142D01*
X264262095Y-131886380D02*
X264262095Y-132695904D01*
X264309714Y-132791142D01*
X264357333Y-132838761D01*
X264452571Y-132886380D01*
X264643047Y-132886380D01*
X264738285Y-132838761D01*
X264785904Y-132791142D01*
X264833523Y-132695904D01*
X264833523Y-131886380D01*
X265262095Y-131981619D02*
X265309714Y-131934000D01*
X265404952Y-131886380D01*
X265643047Y-131886380D01*
X265738285Y-131934000D01*
X265785904Y-131981619D01*
X265833523Y-132076857D01*
X265833523Y-132172095D01*
X265785904Y-132314952D01*
X265214476Y-132886380D01*
X265833523Y-132886380D01*
X255062095Y-135372380D02*
X255062095Y-136181904D01*
X255109714Y-136277142D01*
X255157333Y-136324761D01*
X255252571Y-136372380D01*
X255443047Y-136372380D01*
X255538285Y-136324761D01*
X255585904Y-136277142D01*
X255633523Y-136181904D01*
X255633523Y-135372380D01*
X256633523Y-136372380D02*
X256062095Y-136372380D01*
X256347809Y-136372380D02*
X256347809Y-135372380D01*
X256252571Y-135515238D01*
X256157333Y-135610476D01*
X256062095Y-135658095D01*
X255907702Y-131092500D02*
X255574369Y-130616310D01*
X255336274Y-131092500D02*
X255336274Y-130092500D01*
X255717226Y-130092500D01*
X255812464Y-130140120D01*
X255860083Y-130187739D01*
X255907702Y-130282977D01*
X255907702Y-130425834D01*
X255860083Y-130521072D01*
X255812464Y-130568691D01*
X255717226Y-130616310D01*
X255336274Y-130616310D01*
X256860083Y-131092500D02*
X256288655Y-131092500D01*
X256574369Y-131092500D02*
X256574369Y-130092500D01*
X256479131Y-130235358D01*
X256383893Y-130330596D01*
X256288655Y-130378215D01*
X257241036Y-130187739D02*
X257288655Y-130140120D01*
X257383893Y-130092500D01*
X257621988Y-130092500D01*
X257717226Y-130140120D01*
X257764845Y-130187739D01*
X257812464Y-130282977D01*
X257812464Y-130378215D01*
X257764845Y-130521072D01*
X257193417Y-131092500D01*
X257812464Y-131092500D01*
X270477142Y-144356380D02*
X270143809Y-143880190D01*
X269905714Y-144356380D02*
X269905714Y-143356380D01*
X270286666Y-143356380D01*
X270381904Y-143404000D01*
X270429523Y-143451619D01*
X270477142Y-143546857D01*
X270477142Y-143689714D01*
X270429523Y-143784952D01*
X270381904Y-143832571D01*
X270286666Y-143880190D01*
X269905714Y-143880190D01*
X271429523Y-144356380D02*
X270858095Y-144356380D01*
X271143809Y-144356380D02*
X271143809Y-143356380D01*
X271048571Y-143499238D01*
X270953333Y-143594476D01*
X270858095Y-143642095D01*
X272381904Y-144356380D02*
X271810476Y-144356380D01*
X272096190Y-144356380D02*
X272096190Y-143356380D01*
X272000952Y-143499238D01*
X271905714Y-143594476D01*
X271810476Y-143642095D01*
X266667142Y-133942380D02*
X266333809Y-133466190D01*
X266095714Y-133942380D02*
X266095714Y-132942380D01*
X266476666Y-132942380D01*
X266571904Y-132990000D01*
X266619523Y-133037619D01*
X266667142Y-133132857D01*
X266667142Y-133275714D01*
X266619523Y-133370952D01*
X266571904Y-133418571D01*
X266476666Y-133466190D01*
X266095714Y-133466190D01*
X267619523Y-133942380D02*
X267048095Y-133942380D01*
X267333809Y-133942380D02*
X267333809Y-132942380D01*
X267238571Y-133085238D01*
X267143333Y-133180476D01*
X267048095Y-133228095D01*
X268238571Y-132942380D02*
X268333809Y-132942380D01*
X268429047Y-132990000D01*
X268476666Y-133037619D01*
X268524285Y-133132857D01*
X268571904Y-133323333D01*
X268571904Y-133561428D01*
X268524285Y-133751904D01*
X268476666Y-133847142D01*
X268429047Y-133894761D01*
X268333809Y-133942380D01*
X268238571Y-133942380D01*
X268143333Y-133894761D01*
X268095714Y-133847142D01*
X268048095Y-133751904D01*
X268000476Y-133561428D01*
X268000476Y-133323333D01*
X268048095Y-133132857D01*
X268095714Y-133037619D01*
X268143333Y-132990000D01*
X268238571Y-132942380D01*
X255062380Y-142800666D02*
X254586190Y-143134000D01*
X255062380Y-143372095D02*
X254062380Y-143372095D01*
X254062380Y-142991142D01*
X254110000Y-142895904D01*
X254157619Y-142848285D01*
X254252857Y-142800666D01*
X254395714Y-142800666D01*
X254490952Y-142848285D01*
X254538571Y-142895904D01*
X254586190Y-142991142D01*
X254586190Y-143372095D01*
X255062380Y-142324476D02*
X255062380Y-142134000D01*
X255014761Y-142038761D01*
X254967142Y-141991142D01*
X254824285Y-141895904D01*
X254633809Y-141848285D01*
X254252857Y-141848285D01*
X254157619Y-141895904D01*
X254110000Y-141943523D01*
X254062380Y-142038761D01*
X254062380Y-142229238D01*
X254110000Y-142324476D01*
X254157619Y-142372095D01*
X254252857Y-142419714D01*
X254490952Y-142419714D01*
X254586190Y-142372095D01*
X254633809Y-142324476D01*
X254681428Y-142229238D01*
X254681428Y-142038761D01*
X254633809Y-141943523D01*
X254586190Y-141895904D01*
X254490952Y-141848285D01*
X245807333Y-149182380D02*
X245474000Y-148706190D01*
X245235904Y-149182380D02*
X245235904Y-148182380D01*
X245616857Y-148182380D01*
X245712095Y-148230000D01*
X245759714Y-148277619D01*
X245807333Y-148372857D01*
X245807333Y-148515714D01*
X245759714Y-148610952D01*
X245712095Y-148658571D01*
X245616857Y-148706190D01*
X245235904Y-148706190D01*
X246378761Y-148610952D02*
X246283523Y-148563333D01*
X246235904Y-148515714D01*
X246188285Y-148420476D01*
X246188285Y-148372857D01*
X246235904Y-148277619D01*
X246283523Y-148230000D01*
X246378761Y-148182380D01*
X246569238Y-148182380D01*
X246664476Y-148230000D01*
X246712095Y-148277619D01*
X246759714Y-148372857D01*
X246759714Y-148420476D01*
X246712095Y-148515714D01*
X246664476Y-148563333D01*
X246569238Y-148610952D01*
X246378761Y-148610952D01*
X246283523Y-148658571D01*
X246235904Y-148706190D01*
X246188285Y-148801428D01*
X246188285Y-148991904D01*
X246235904Y-149087142D01*
X246283523Y-149134761D01*
X246378761Y-149182380D01*
X246569238Y-149182380D01*
X246664476Y-149134761D01*
X246712095Y-149087142D01*
X246759714Y-148991904D01*
X246759714Y-148801428D01*
X246712095Y-148706190D01*
X246664476Y-148658571D01*
X246569238Y-148610952D01*
X248093333Y-149182380D02*
X247760000Y-148706190D01*
X247521904Y-149182380D02*
X247521904Y-148182380D01*
X247902857Y-148182380D01*
X247998095Y-148230000D01*
X248045714Y-148277619D01*
X248093333Y-148372857D01*
X248093333Y-148515714D01*
X248045714Y-148610952D01*
X247998095Y-148658571D01*
X247902857Y-148706190D01*
X247521904Y-148706190D01*
X248426666Y-148182380D02*
X249093333Y-148182380D01*
X248664761Y-149182380D01*
X228027333Y-148928380D02*
X227694000Y-148452190D01*
X227455904Y-148928380D02*
X227455904Y-147928380D01*
X227836857Y-147928380D01*
X227932095Y-147976000D01*
X227979714Y-148023619D01*
X228027333Y-148118857D01*
X228027333Y-148261714D01*
X227979714Y-148356952D01*
X227932095Y-148404571D01*
X227836857Y-148452190D01*
X227455904Y-148452190D01*
X228884476Y-147928380D02*
X228694000Y-147928380D01*
X228598761Y-147976000D01*
X228551142Y-148023619D01*
X228455904Y-148166476D01*
X228408285Y-148356952D01*
X228408285Y-148737904D01*
X228455904Y-148833142D01*
X228503523Y-148880761D01*
X228598761Y-148928380D01*
X228789238Y-148928380D01*
X228884476Y-148880761D01*
X228932095Y-148833142D01*
X228979714Y-148737904D01*
X228979714Y-148499809D01*
X228932095Y-148404571D01*
X228884476Y-148356952D01*
X228789238Y-148309333D01*
X228598761Y-148309333D01*
X228503523Y-148356952D01*
X228455904Y-148404571D01*
X228408285Y-148499809D01*
X230313333Y-148928380D02*
X229980000Y-148452190D01*
X229741904Y-148928380D02*
X229741904Y-147928380D01*
X230122857Y-147928380D01*
X230218095Y-147976000D01*
X230265714Y-148023619D01*
X230313333Y-148118857D01*
X230313333Y-148261714D01*
X230265714Y-148356952D01*
X230218095Y-148404571D01*
X230122857Y-148452190D01*
X229741904Y-148452190D01*
X231218095Y-147928380D02*
X230741904Y-147928380D01*
X230694285Y-148404571D01*
X230741904Y-148356952D01*
X230837142Y-148309333D01*
X231075238Y-148309333D01*
X231170476Y-148356952D01*
X231218095Y-148404571D01*
X231265714Y-148499809D01*
X231265714Y-148737904D01*
X231218095Y-148833142D01*
X231170476Y-148880761D01*
X231075238Y-148928380D01*
X230837142Y-148928380D01*
X230741904Y-148880761D01*
X230694285Y-148833142D01*
X253025300Y-133133426D02*
X252549110Y-133466760D01*
X253025300Y-133704855D02*
X252025300Y-133704855D01*
X252025300Y-133323902D01*
X252072920Y-133228664D01*
X252120539Y-133181045D01*
X252215777Y-133133426D01*
X252358634Y-133133426D01*
X252453872Y-133181045D01*
X252501491Y-133228664D01*
X252549110Y-133323902D01*
X252549110Y-133704855D01*
X252358634Y-132276283D02*
X253025300Y-132276283D01*
X251977681Y-132514379D02*
X252691967Y-132752474D01*
X252691967Y-132133426D01*
X266746380Y-146356666D02*
X266270190Y-146690000D01*
X266746380Y-146928095D02*
X265746380Y-146928095D01*
X265746380Y-146547142D01*
X265794000Y-146451904D01*
X265841619Y-146404285D01*
X265936857Y-146356666D01*
X266079714Y-146356666D01*
X266174952Y-146404285D01*
X266222571Y-146451904D01*
X266270190Y-146547142D01*
X266270190Y-146928095D01*
X265746380Y-146023333D02*
X265746380Y-145404285D01*
X266127333Y-145737619D01*
X266127333Y-145594761D01*
X266174952Y-145499523D01*
X266222571Y-145451904D01*
X266317809Y-145404285D01*
X266555904Y-145404285D01*
X266651142Y-145451904D01*
X266698761Y-145499523D01*
X266746380Y-145594761D01*
X266746380Y-145880476D01*
X266698761Y-145975714D01*
X266651142Y-146023333D01*
X264603333Y-138768380D02*
X264270000Y-138292190D01*
X264031904Y-138768380D02*
X264031904Y-137768380D01*
X264412857Y-137768380D01*
X264508095Y-137816000D01*
X264555714Y-137863619D01*
X264603333Y-137958857D01*
X264603333Y-138101714D01*
X264555714Y-138196952D01*
X264508095Y-138244571D01*
X264412857Y-138292190D01*
X264031904Y-138292190D01*
X264984285Y-137863619D02*
X265031904Y-137816000D01*
X265127142Y-137768380D01*
X265365238Y-137768380D01*
X265460476Y-137816000D01*
X265508095Y-137863619D01*
X265555714Y-137958857D01*
X265555714Y-138054095D01*
X265508095Y-138196952D01*
X264936666Y-138768380D01*
X265555714Y-138768380D01*
X252522380Y-142546666D02*
X252046190Y-142880000D01*
X252522380Y-143118095D02*
X251522380Y-143118095D01*
X251522380Y-142737142D01*
X251570000Y-142641904D01*
X251617619Y-142594285D01*
X251712857Y-142546666D01*
X251855714Y-142546666D01*
X251950952Y-142594285D01*
X251998571Y-142641904D01*
X252046190Y-142737142D01*
X252046190Y-143118095D01*
X252522380Y-141594285D02*
X252522380Y-142165714D01*
X252522380Y-141880000D02*
X251522380Y-141880000D01*
X251665238Y-141975238D01*
X251760476Y-142070476D01*
X251808095Y-142165714D01*
D13*
X227318639Y-133563504D02*
X226617515Y-133563504D01*
X227318639Y-133162862D02*
X226917996Y-133463343D01*
X226617515Y-133162862D02*
X227018157Y-133563504D01*
X226851223Y-132561898D02*
X227318639Y-132561898D01*
X226584128Y-132728832D02*
X227084931Y-132895767D01*
X227084931Y-132461738D01*
X245860639Y-133563504D02*
X245159515Y-133563504D01*
X245860639Y-133162862D02*
X245459996Y-133463343D01*
X245159515Y-133162862D02*
X245560157Y-133563504D01*
X245159515Y-132929154D02*
X245159515Y-132495124D01*
X245426610Y-132728832D01*
X245426610Y-132628672D01*
X245459996Y-132561898D01*
X245493383Y-132528511D01*
X245560157Y-132495124D01*
X245727091Y-132495124D01*
X245793865Y-132528511D01*
X245827252Y-132561898D01*
X245860639Y-132628672D01*
X245860639Y-132828993D01*
X245827252Y-132895767D01*
X245793865Y-132929154D01*
X245860639Y-111465504D02*
X245159515Y-111465504D01*
X245860639Y-111064862D02*
X245459996Y-111365343D01*
X245159515Y-111064862D02*
X245560157Y-111465504D01*
X245226288Y-110797767D02*
X245192902Y-110764380D01*
X245159515Y-110697606D01*
X245159515Y-110530672D01*
X245192902Y-110463898D01*
X245226288Y-110430511D01*
X245293062Y-110397124D01*
X245359836Y-110397124D01*
X245459996Y-110430511D01*
X245860639Y-110831154D01*
X245860639Y-110397124D01*
X227318639Y-111211504D02*
X226617515Y-111211504D01*
X227318639Y-110810862D02*
X226917996Y-111111343D01*
X226617515Y-110810862D02*
X227018157Y-111211504D01*
X227318639Y-110143124D02*
X227318639Y-110543767D01*
X227318639Y-110343446D02*
X226617515Y-110343446D01*
X226717675Y-110410219D01*
X226784449Y-110476993D01*
X226817836Y-110543767D01*
D12*
X208850380Y-136617333D02*
X209564666Y-136617333D01*
X209707523Y-136664952D01*
X209802761Y-136760190D01*
X209850380Y-136903047D01*
X209850380Y-136998285D01*
X208850380Y-136236380D02*
X208850380Y-135569714D01*
X209850380Y-135998285D01*
X208850380Y-126711333D02*
X209564666Y-126711333D01*
X209707523Y-126758952D01*
X209802761Y-126854190D01*
X209850380Y-126997047D01*
X209850380Y-127092285D01*
X208850380Y-125806571D02*
X208850380Y-125997047D01*
X208898000Y-126092285D01*
X208945619Y-126139904D01*
X209088476Y-126235142D01*
X209278952Y-126282761D01*
X209659904Y-126282761D01*
X209755142Y-126235142D01*
X209802761Y-126187523D01*
X209850380Y-126092285D01*
X209850380Y-125901809D01*
X209802761Y-125806571D01*
X209755142Y-125758952D01*
X209659904Y-125711333D01*
X209421809Y-125711333D01*
X209326571Y-125758952D01*
X209278952Y-125806571D01*
X209231333Y-125901809D01*
X209231333Y-126092285D01*
X209278952Y-126187523D01*
X209326571Y-126235142D01*
X209421809Y-126282761D01*
X208850380Y-116805333D02*
X209564666Y-116805333D01*
X209707523Y-116852952D01*
X209802761Y-116948190D01*
X209850380Y-117091047D01*
X209850380Y-117186285D01*
X208850380Y-115852952D02*
X208850380Y-116329142D01*
X209326571Y-116376761D01*
X209278952Y-116329142D01*
X209231333Y-116233904D01*
X209231333Y-115995809D01*
X209278952Y-115900571D01*
X209326571Y-115852952D01*
X209421809Y-115805333D01*
X209659904Y-115805333D01*
X209755142Y-115852952D01*
X209802761Y-115900571D01*
X209850380Y-115995809D01*
X209850380Y-116233904D01*
X209802761Y-116329142D01*
X209755142Y-116376761D01*
X208850380Y-106899333D02*
X209564666Y-106899333D01*
X209707523Y-106946952D01*
X209802761Y-107042190D01*
X209850380Y-107185047D01*
X209850380Y-107280285D01*
X209183714Y-105994571D02*
X209850380Y-105994571D01*
X208802761Y-106232666D02*
X209517047Y-106470761D01*
X209517047Y-105851714D01*
X261297142Y-127076666D02*
X261344761Y-127124285D01*
X261392380Y-127267142D01*
X261392380Y-127362380D01*
X261344761Y-127505238D01*
X261249523Y-127600476D01*
X261154285Y-127648095D01*
X260963809Y-127695714D01*
X260820952Y-127695714D01*
X260630476Y-127648095D01*
X260535238Y-127600476D01*
X260440000Y-127505238D01*
X260392380Y-127362380D01*
X260392380Y-127267142D01*
X260440000Y-127124285D01*
X260487619Y-127076666D01*
X260725714Y-126219523D02*
X261392380Y-126219523D01*
X260344761Y-126457619D02*
X261059047Y-126695714D01*
X261059047Y-126076666D01*
X273381142Y-140768666D02*
X273428761Y-140816285D01*
X273476380Y-140959142D01*
X273476380Y-141054380D01*
X273428761Y-141197238D01*
X273333523Y-141292476D01*
X273238285Y-141340095D01*
X273047809Y-141387714D01*
X272904952Y-141387714D01*
X272714476Y-141340095D01*
X272619238Y-141292476D01*
X272524000Y-141197238D01*
X272476380Y-141054380D01*
X272476380Y-140959142D01*
X272524000Y-140816285D01*
X272571619Y-140768666D01*
X272476380Y-140435333D02*
X272476380Y-139816285D01*
X272857333Y-140149619D01*
X272857333Y-140006761D01*
X272904952Y-139911523D01*
X272952571Y-139863904D01*
X273047809Y-139816285D01*
X273285904Y-139816285D01*
X273381142Y-139863904D01*
X273428761Y-139911523D01*
X273476380Y-140006761D01*
X273476380Y-140292476D01*
X273428761Y-140387714D01*
X273381142Y-140435333D01*
X270333142Y-130100666D02*
X270380761Y-130148285D01*
X270428380Y-130291142D01*
X270428380Y-130386380D01*
X270380761Y-130529238D01*
X270285523Y-130624476D01*
X270190285Y-130672095D01*
X269999809Y-130719714D01*
X269856952Y-130719714D01*
X269666476Y-130672095D01*
X269571238Y-130624476D01*
X269476000Y-130529238D01*
X269428380Y-130386380D01*
X269428380Y-130291142D01*
X269476000Y-130148285D01*
X269523619Y-130100666D01*
X269523619Y-129719714D02*
X269476000Y-129672095D01*
X269428380Y-129576857D01*
X269428380Y-129338761D01*
X269476000Y-129243523D01*
X269523619Y-129195904D01*
X269618857Y-129148285D01*
X269714095Y-129148285D01*
X269856952Y-129195904D01*
X270428380Y-129767333D01*
X270428380Y-129148285D01*
X259977142Y-138596666D02*
X260024761Y-138644285D01*
X260072380Y-138787142D01*
X260072380Y-138882380D01*
X260024761Y-139025238D01*
X259929523Y-139120476D01*
X259834285Y-139168095D01*
X259643809Y-139215714D01*
X259500952Y-139215714D01*
X259310476Y-139168095D01*
X259215238Y-139120476D01*
X259120000Y-139025238D01*
X259072380Y-138882380D01*
X259072380Y-138787142D01*
X259120000Y-138644285D01*
X259167619Y-138596666D01*
X260072380Y-137644285D02*
X260072380Y-138215714D01*
X260072380Y-137930000D02*
X259072380Y-137930000D01*
X259215238Y-138025238D01*
X259310476Y-138120476D01*
X259358095Y-138215714D01*
X262785714Y-126036666D02*
X263261904Y-126036666D01*
X262690476Y-126322380D02*
X263023809Y-125322380D01*
X263357142Y-126322380D01*
X264214285Y-126322380D02*
X263642857Y-126322380D01*
X263928571Y-126322380D02*
X263928571Y-125322380D01*
X263833333Y-125465238D01*
X263738095Y-125560476D01*
X263642857Y-125608095D01*
X262698476Y-143594380D02*
X262698476Y-142594380D01*
X263031809Y-143308666D01*
X263365142Y-142594380D01*
X263365142Y-143594380D01*
X263841333Y-143594380D02*
X263841333Y-142594380D01*
X264412761Y-143594380D02*
X263984190Y-143022952D01*
X264412761Y-142594380D02*
X263841333Y-143165809D01*
X265269904Y-142927714D02*
X265269904Y-143594380D01*
X265031809Y-142546761D02*
X264793714Y-143261047D01*
X265412761Y-143261047D01*
X202200476Y-142952380D02*
X202200476Y-141952380D01*
X202533809Y-142666666D01*
X202867142Y-141952380D01*
X202867142Y-142952380D01*
X203343333Y-142952380D02*
X203343333Y-141952380D01*
X203914761Y-142952380D02*
X203486190Y-142380952D01*
X203914761Y-141952380D02*
X203343333Y-142523809D01*
X204248095Y-141952380D02*
X204867142Y-141952380D01*
X204533809Y-142333333D01*
X204676666Y-142333333D01*
X204771904Y-142380952D01*
X204819523Y-142428571D01*
X204867142Y-142523809D01*
X204867142Y-142761904D01*
X204819523Y-142857142D01*
X204771904Y-142904761D01*
X204676666Y-142952380D01*
X204390952Y-142952380D01*
X204295714Y-142904761D01*
X204248095Y-142857142D01*
X264730476Y-95842380D02*
X264730476Y-94842380D01*
X265063809Y-95556666D01*
X265397142Y-94842380D01*
X265397142Y-95842380D01*
X265873333Y-95842380D02*
X265873333Y-94842380D01*
X266444761Y-95842380D02*
X266016190Y-95270952D01*
X266444761Y-94842380D02*
X265873333Y-95413809D01*
X266825714Y-94937619D02*
X266873333Y-94890000D01*
X266968571Y-94842380D01*
X267206666Y-94842380D01*
X267301904Y-94890000D01*
X267349523Y-94937619D01*
X267397142Y-95032857D01*
X267397142Y-95128095D01*
X267349523Y-95270952D01*
X266778095Y-95842380D01*
X267397142Y-95842380D01*
X202200476Y-101352380D02*
X202200476Y-100352380D01*
X202533809Y-101066666D01*
X202867142Y-100352380D01*
X202867142Y-101352380D01*
X203343333Y-101352380D02*
X203343333Y-100352380D01*
X203914761Y-101352380D02*
X203486190Y-100780952D01*
X203914761Y-100352380D02*
X203343333Y-100923809D01*
X204867142Y-101352380D02*
X204295714Y-101352380D01*
X204581428Y-101352380D02*
X204581428Y-100352380D01*
X204486190Y-100495238D01*
X204390952Y-100590476D01*
X204295714Y-100638095D01*
M02*
