M48
; DRILL file {KiCad (5.1.5)-3} date 13/11/2020 16:04:48
; FORMAT={-:-/ absolute / inch / decimal}
; #@! TF.CreationDate,2020-11-13T16:04:48+01:00
; #@! TF.GenerationSoftware,Kicad,Pcbnew,(5.1.5)-3
; #@! TF.FileFunction,Plated,1,4,PTH
FMAT,2
INCH
T1C0.0236
T2C0.0315
T3C0.0394
T4C0.0512
T5C0.0598
T6C0.1260
%
G90
G05
T1
X8.465Y-5.3579
X8.644Y-5.1955
X8.664Y-4.7355
X8.694Y-5.4255
X8.7756Y-4.8917
X8.802Y-5.3579
X8.8475Y-5.622
X8.924Y-5.2155
X8.924Y-5.6755
X8.984Y-5.6555
X8.9972Y-4.5122
X9.094Y-5.2055
X9.124Y-5.8155
X9.174Y-4.7455
X9.204Y-5.2455
X9.2059Y-5.0248
X9.2343Y-4.9965
X9.354Y-5.6755
X9.3775Y-5.7955
X9.394Y-5.7455
X9.404Y-4.6035
X9.404Y-4.7355
X9.404Y-5.6455
X9.469Y-5.4005
X9.5839Y-4.3874
X9.594Y-5.6155
X9.6117Y-4.7808
X9.624Y-5.8155
X9.639Y-4.7535
X9.674Y-4.8355
X9.684Y-5.6155
X9.7168Y-5.3651
X9.774Y-5.6055
X9.809Y-4.8205
X9.9177Y-5.2374
X9.924Y-4.8814
X9.9291Y-4.3748
X9.934Y-4.7855
X9.9433Y-4.6839
X9.964Y-5.6155
X9.9827Y-4.7047
X10.002Y-4.7449
X10.0138Y-4.8646
X10.024Y-5.5655
X10.0343Y-4.7756
X10.0551Y-5.3571
X10.064Y-4.7055
X10.074Y-5.5355
X10.0868Y-5.7829
X10.1301Y-5.3632
X10.1961Y-3.9776
X10.2734Y-5.2949
X10.344Y-5.4655
X10.354Y-5.0255
X10.414Y-5.2455
X10.426Y-5.6256
X10.484Y-5.6655
X10.594Y-5.6355
X10.719Y-5.4105
X10.744Y-5.2755
X10.754Y-4.5255
X10.7625Y-5.377
X10.904Y-5.6955
T2
X10.124Y-4.1555
X10.124Y-4.2555
X10.124Y-4.3555
X10.124Y-4.4555
X10.124Y-4.5555
X10.124Y-4.6555
X10.124Y-4.7555
X10.124Y-4.8555
X10.624Y-4.1555
X10.624Y-4.2555
X10.624Y-4.3555
X10.624Y-4.4555
X10.624Y-4.5555
X10.624Y-4.6555
X10.624Y-4.7555
X10.624Y-4.8555
T3
X9.924Y-4.1055
X9.924Y-4.2055
X9.924Y-4.5055
X9.924Y-4.6055
X9.824Y-5.0055
X9.824Y-5.1055
X10.914Y-4.5955
X10.914Y-4.7046
X10.914Y-4.8136
X10.914Y-4.9227
X10.914Y-5.0317
X11.0258Y-4.65
X11.0258Y-4.7591
X11.0258Y-4.8681
X11.0258Y-4.9772
X10.374Y-4.4655
X10.374Y-4.5655
X10.374Y-4.6655
X8.204Y-3.7755
X8.204Y-3.8755
X8.304Y-3.7755
X8.304Y-3.8755
X8.404Y-3.7755
X8.404Y-3.8755
X8.504Y-3.7755
X8.504Y-3.8755
X8.604Y-3.7755
X8.604Y-3.8755
X8.704Y-3.7755
X8.704Y-3.8755
X8.804Y-3.7755
X8.804Y-3.8755
X8.904Y-3.7755
X8.904Y-3.8755
X9.004Y-3.7755
X9.004Y-3.8755
X9.104Y-3.7755
X9.104Y-3.8755
X9.204Y-3.7755
X9.204Y-3.8755
X9.304Y-3.7755
X9.304Y-3.8755
X9.404Y-3.7755
X9.404Y-3.8755
X9.504Y-3.7755
X9.504Y-3.8755
X9.604Y-3.7755
X9.604Y-3.8755
X9.704Y-3.7755
X9.704Y-3.8755
X9.804Y-3.7755
X9.804Y-3.8755
X9.904Y-3.7755
X9.904Y-3.8755
X10.004Y-3.7755
X10.004Y-3.8755
X10.104Y-3.7755
X10.104Y-3.8755
X9.924Y-5.0055
X9.924Y-5.1055
X9.924Y-5.4555
X9.924Y-5.5555
X9.824Y-5.4555
X9.824Y-5.5555
X8.274Y-5.7055
X8.274Y-5.8055
X8.374Y-5.7055
X8.374Y-5.8055
X8.474Y-5.7055
X8.474Y-5.8055
X8.574Y-5.7055
X8.574Y-5.8055
X10.474Y-4.4655
X10.474Y-4.5655
X10.474Y-4.6655
X9.824Y-4.1055
X9.824Y-4.2055
X10.274Y-4.4655
X10.274Y-4.5655
X10.274Y-4.6655
X10.494Y-3.8955
X10.494Y-3.9955
X9.824Y-4.5055
X9.824Y-4.6055
T4
X8.3578Y-4.9854
X8.3578Y-5.4657
X8.594Y-4.9066
X8.8302Y-4.9854
X8.8302Y-5.4657
X9.0878Y-4.9854
X9.0878Y-5.4657
X9.324Y-4.9066
X9.5602Y-4.9854
X9.5602Y-5.4657
X8.3578Y-4.1054
X8.3578Y-4.5857
X8.594Y-4.0266
X8.8302Y-4.1054
X8.8302Y-4.5857
X9.0878Y-4.1154
X9.0878Y-4.5957
X9.324Y-4.0366
X9.5602Y-4.1154
X9.5602Y-4.5957
T5
X8.0441Y-5.2756
X8.0441Y-5.4756
X8.0441Y-4.0756
X8.0441Y-4.2756
X8.0441Y-4.4756
X8.0441Y-4.6756
X8.044Y-4.8755
X8.044Y-5.0755
T6
X10.9258Y-4.3215
X10.9258Y-5.3057
T0
M30
