G04 #@! TF.GenerationSoftware,KiCad,Pcbnew,(5.1.5)-3*
G04 #@! TF.CreationDate,2020-10-30T12:58:57+01:00*
G04 #@! TF.ProjectId,relais_hat,72656c61-6973-45f6-9861-742e6b696361,rev?*
G04 #@! TF.SameCoordinates,Original*
G04 #@! TF.FileFunction,Paste,Top*
G04 #@! TF.FilePolarity,Positive*
%FSLAX46Y46*%
G04 Gerber Fmt 4.6, Leading zero omitted, Abs format (unit mm)*
G04 Created by KiCad (PCBNEW (5.1.5)-3) date 2020-10-30 12:58:57*
%MOMM*%
%LPD*%
G04 APERTURE LIST*
%ADD10C,0.150000*%
%ADD11R,0.900000X0.800000*%
%ADD12R,1.200000X0.900000*%
G04 APERTURE END LIST*
D10*
G36*
X243406142Y-144512174D02*
G01*
X243429803Y-144515684D01*
X243453007Y-144521496D01*
X243475529Y-144529554D01*
X243497153Y-144539782D01*
X243517670Y-144552079D01*
X243536883Y-144566329D01*
X243554607Y-144582393D01*
X243570671Y-144600117D01*
X243584921Y-144619330D01*
X243597218Y-144639847D01*
X243607446Y-144661471D01*
X243615504Y-144683993D01*
X243621316Y-144707197D01*
X243624826Y-144730858D01*
X243626000Y-144754750D01*
X243626000Y-145242250D01*
X243624826Y-145266142D01*
X243621316Y-145289803D01*
X243615504Y-145313007D01*
X243607446Y-145335529D01*
X243597218Y-145357153D01*
X243584921Y-145377670D01*
X243570671Y-145396883D01*
X243554607Y-145414607D01*
X243536883Y-145430671D01*
X243517670Y-145444921D01*
X243497153Y-145457218D01*
X243475529Y-145467446D01*
X243453007Y-145475504D01*
X243429803Y-145481316D01*
X243406142Y-145484826D01*
X243382250Y-145486000D01*
X242469750Y-145486000D01*
X242445858Y-145484826D01*
X242422197Y-145481316D01*
X242398993Y-145475504D01*
X242376471Y-145467446D01*
X242354847Y-145457218D01*
X242334330Y-145444921D01*
X242315117Y-145430671D01*
X242297393Y-145414607D01*
X242281329Y-145396883D01*
X242267079Y-145377670D01*
X242254782Y-145357153D01*
X242244554Y-145335529D01*
X242236496Y-145313007D01*
X242230684Y-145289803D01*
X242227174Y-145266142D01*
X242226000Y-145242250D01*
X242226000Y-144754750D01*
X242227174Y-144730858D01*
X242230684Y-144707197D01*
X242236496Y-144683993D01*
X242244554Y-144661471D01*
X242254782Y-144639847D01*
X242267079Y-144619330D01*
X242281329Y-144600117D01*
X242297393Y-144582393D01*
X242315117Y-144566329D01*
X242334330Y-144552079D01*
X242354847Y-144539782D01*
X242376471Y-144529554D01*
X242398993Y-144521496D01*
X242422197Y-144515684D01*
X242445858Y-144512174D01*
X242469750Y-144511000D01*
X243382250Y-144511000D01*
X243406142Y-144512174D01*
G37*
G36*
X243406142Y-146387174D02*
G01*
X243429803Y-146390684D01*
X243453007Y-146396496D01*
X243475529Y-146404554D01*
X243497153Y-146414782D01*
X243517670Y-146427079D01*
X243536883Y-146441329D01*
X243554607Y-146457393D01*
X243570671Y-146475117D01*
X243584921Y-146494330D01*
X243597218Y-146514847D01*
X243607446Y-146536471D01*
X243615504Y-146558993D01*
X243621316Y-146582197D01*
X243624826Y-146605858D01*
X243626000Y-146629750D01*
X243626000Y-147117250D01*
X243624826Y-147141142D01*
X243621316Y-147164803D01*
X243615504Y-147188007D01*
X243607446Y-147210529D01*
X243597218Y-147232153D01*
X243584921Y-147252670D01*
X243570671Y-147271883D01*
X243554607Y-147289607D01*
X243536883Y-147305671D01*
X243517670Y-147319921D01*
X243497153Y-147332218D01*
X243475529Y-147342446D01*
X243453007Y-147350504D01*
X243429803Y-147356316D01*
X243406142Y-147359826D01*
X243382250Y-147361000D01*
X242469750Y-147361000D01*
X242445858Y-147359826D01*
X242422197Y-147356316D01*
X242398993Y-147350504D01*
X242376471Y-147342446D01*
X242354847Y-147332218D01*
X242334330Y-147319921D01*
X242315117Y-147305671D01*
X242297393Y-147289607D01*
X242281329Y-147271883D01*
X242267079Y-147252670D01*
X242254782Y-147232153D01*
X242244554Y-147210529D01*
X242236496Y-147188007D01*
X242230684Y-147164803D01*
X242227174Y-147141142D01*
X242226000Y-147117250D01*
X242226000Y-146629750D01*
X242227174Y-146605858D01*
X242230684Y-146582197D01*
X242236496Y-146558993D01*
X242244554Y-146536471D01*
X242254782Y-146514847D01*
X242267079Y-146494330D01*
X242281329Y-146475117D01*
X242297393Y-146457393D01*
X242315117Y-146441329D01*
X242334330Y-146427079D01*
X242354847Y-146414782D01*
X242376471Y-146404554D01*
X242398993Y-146396496D01*
X242422197Y-146390684D01*
X242445858Y-146387174D01*
X242469750Y-146386000D01*
X243382250Y-146386000D01*
X243406142Y-146387174D01*
G37*
G36*
X240866142Y-144512174D02*
G01*
X240889803Y-144515684D01*
X240913007Y-144521496D01*
X240935529Y-144529554D01*
X240957153Y-144539782D01*
X240977670Y-144552079D01*
X240996883Y-144566329D01*
X241014607Y-144582393D01*
X241030671Y-144600117D01*
X241044921Y-144619330D01*
X241057218Y-144639847D01*
X241067446Y-144661471D01*
X241075504Y-144683993D01*
X241081316Y-144707197D01*
X241084826Y-144730858D01*
X241086000Y-144754750D01*
X241086000Y-145242250D01*
X241084826Y-145266142D01*
X241081316Y-145289803D01*
X241075504Y-145313007D01*
X241067446Y-145335529D01*
X241057218Y-145357153D01*
X241044921Y-145377670D01*
X241030671Y-145396883D01*
X241014607Y-145414607D01*
X240996883Y-145430671D01*
X240977670Y-145444921D01*
X240957153Y-145457218D01*
X240935529Y-145467446D01*
X240913007Y-145475504D01*
X240889803Y-145481316D01*
X240866142Y-145484826D01*
X240842250Y-145486000D01*
X239929750Y-145486000D01*
X239905858Y-145484826D01*
X239882197Y-145481316D01*
X239858993Y-145475504D01*
X239836471Y-145467446D01*
X239814847Y-145457218D01*
X239794330Y-145444921D01*
X239775117Y-145430671D01*
X239757393Y-145414607D01*
X239741329Y-145396883D01*
X239727079Y-145377670D01*
X239714782Y-145357153D01*
X239704554Y-145335529D01*
X239696496Y-145313007D01*
X239690684Y-145289803D01*
X239687174Y-145266142D01*
X239686000Y-145242250D01*
X239686000Y-144754750D01*
X239687174Y-144730858D01*
X239690684Y-144707197D01*
X239696496Y-144683993D01*
X239704554Y-144661471D01*
X239714782Y-144639847D01*
X239727079Y-144619330D01*
X239741329Y-144600117D01*
X239757393Y-144582393D01*
X239775117Y-144566329D01*
X239794330Y-144552079D01*
X239814847Y-144539782D01*
X239836471Y-144529554D01*
X239858993Y-144521496D01*
X239882197Y-144515684D01*
X239905858Y-144512174D01*
X239929750Y-144511000D01*
X240842250Y-144511000D01*
X240866142Y-144512174D01*
G37*
G36*
X240866142Y-146387174D02*
G01*
X240889803Y-146390684D01*
X240913007Y-146396496D01*
X240935529Y-146404554D01*
X240957153Y-146414782D01*
X240977670Y-146427079D01*
X240996883Y-146441329D01*
X241014607Y-146457393D01*
X241030671Y-146475117D01*
X241044921Y-146494330D01*
X241057218Y-146514847D01*
X241067446Y-146536471D01*
X241075504Y-146558993D01*
X241081316Y-146582197D01*
X241084826Y-146605858D01*
X241086000Y-146629750D01*
X241086000Y-147117250D01*
X241084826Y-147141142D01*
X241081316Y-147164803D01*
X241075504Y-147188007D01*
X241067446Y-147210529D01*
X241057218Y-147232153D01*
X241044921Y-147252670D01*
X241030671Y-147271883D01*
X241014607Y-147289607D01*
X240996883Y-147305671D01*
X240977670Y-147319921D01*
X240957153Y-147332218D01*
X240935529Y-147342446D01*
X240913007Y-147350504D01*
X240889803Y-147356316D01*
X240866142Y-147359826D01*
X240842250Y-147361000D01*
X239929750Y-147361000D01*
X239905858Y-147359826D01*
X239882197Y-147356316D01*
X239858993Y-147350504D01*
X239836471Y-147342446D01*
X239814847Y-147332218D01*
X239794330Y-147319921D01*
X239775117Y-147305671D01*
X239757393Y-147289607D01*
X239741329Y-147271883D01*
X239727079Y-147252670D01*
X239714782Y-147232153D01*
X239704554Y-147210529D01*
X239696496Y-147188007D01*
X239690684Y-147164803D01*
X239687174Y-147141142D01*
X239686000Y-147117250D01*
X239686000Y-146629750D01*
X239687174Y-146605858D01*
X239690684Y-146582197D01*
X239696496Y-146558993D01*
X239704554Y-146536471D01*
X239714782Y-146514847D01*
X239727079Y-146494330D01*
X239741329Y-146475117D01*
X239757393Y-146457393D01*
X239775117Y-146441329D01*
X239794330Y-146427079D01*
X239814847Y-146414782D01*
X239836471Y-146404554D01*
X239858993Y-146396496D01*
X239882197Y-146390684D01*
X239905858Y-146387174D01*
X239929750Y-146386000D01*
X240842250Y-146386000D01*
X240866142Y-146387174D01*
G37*
G36*
X236548142Y-144512174D02*
G01*
X236571803Y-144515684D01*
X236595007Y-144521496D01*
X236617529Y-144529554D01*
X236639153Y-144539782D01*
X236659670Y-144552079D01*
X236678883Y-144566329D01*
X236696607Y-144582393D01*
X236712671Y-144600117D01*
X236726921Y-144619330D01*
X236739218Y-144639847D01*
X236749446Y-144661471D01*
X236757504Y-144683993D01*
X236763316Y-144707197D01*
X236766826Y-144730858D01*
X236768000Y-144754750D01*
X236768000Y-145242250D01*
X236766826Y-145266142D01*
X236763316Y-145289803D01*
X236757504Y-145313007D01*
X236749446Y-145335529D01*
X236739218Y-145357153D01*
X236726921Y-145377670D01*
X236712671Y-145396883D01*
X236696607Y-145414607D01*
X236678883Y-145430671D01*
X236659670Y-145444921D01*
X236639153Y-145457218D01*
X236617529Y-145467446D01*
X236595007Y-145475504D01*
X236571803Y-145481316D01*
X236548142Y-145484826D01*
X236524250Y-145486000D01*
X235611750Y-145486000D01*
X235587858Y-145484826D01*
X235564197Y-145481316D01*
X235540993Y-145475504D01*
X235518471Y-145467446D01*
X235496847Y-145457218D01*
X235476330Y-145444921D01*
X235457117Y-145430671D01*
X235439393Y-145414607D01*
X235423329Y-145396883D01*
X235409079Y-145377670D01*
X235396782Y-145357153D01*
X235386554Y-145335529D01*
X235378496Y-145313007D01*
X235372684Y-145289803D01*
X235369174Y-145266142D01*
X235368000Y-145242250D01*
X235368000Y-144754750D01*
X235369174Y-144730858D01*
X235372684Y-144707197D01*
X235378496Y-144683993D01*
X235386554Y-144661471D01*
X235396782Y-144639847D01*
X235409079Y-144619330D01*
X235423329Y-144600117D01*
X235439393Y-144582393D01*
X235457117Y-144566329D01*
X235476330Y-144552079D01*
X235496847Y-144539782D01*
X235518471Y-144529554D01*
X235540993Y-144521496D01*
X235564197Y-144515684D01*
X235587858Y-144512174D01*
X235611750Y-144511000D01*
X236524250Y-144511000D01*
X236548142Y-144512174D01*
G37*
G36*
X236548142Y-146387174D02*
G01*
X236571803Y-146390684D01*
X236595007Y-146396496D01*
X236617529Y-146404554D01*
X236639153Y-146414782D01*
X236659670Y-146427079D01*
X236678883Y-146441329D01*
X236696607Y-146457393D01*
X236712671Y-146475117D01*
X236726921Y-146494330D01*
X236739218Y-146514847D01*
X236749446Y-146536471D01*
X236757504Y-146558993D01*
X236763316Y-146582197D01*
X236766826Y-146605858D01*
X236768000Y-146629750D01*
X236768000Y-147117250D01*
X236766826Y-147141142D01*
X236763316Y-147164803D01*
X236757504Y-147188007D01*
X236749446Y-147210529D01*
X236739218Y-147232153D01*
X236726921Y-147252670D01*
X236712671Y-147271883D01*
X236696607Y-147289607D01*
X236678883Y-147305671D01*
X236659670Y-147319921D01*
X236639153Y-147332218D01*
X236617529Y-147342446D01*
X236595007Y-147350504D01*
X236571803Y-147356316D01*
X236548142Y-147359826D01*
X236524250Y-147361000D01*
X235611750Y-147361000D01*
X235587858Y-147359826D01*
X235564197Y-147356316D01*
X235540993Y-147350504D01*
X235518471Y-147342446D01*
X235496847Y-147332218D01*
X235476330Y-147319921D01*
X235457117Y-147305671D01*
X235439393Y-147289607D01*
X235423329Y-147271883D01*
X235409079Y-147252670D01*
X235396782Y-147232153D01*
X235386554Y-147210529D01*
X235378496Y-147188007D01*
X235372684Y-147164803D01*
X235369174Y-147141142D01*
X235368000Y-147117250D01*
X235368000Y-146629750D01*
X235369174Y-146605858D01*
X235372684Y-146582197D01*
X235378496Y-146558993D01*
X235386554Y-146536471D01*
X235396782Y-146514847D01*
X235409079Y-146494330D01*
X235423329Y-146475117D01*
X235439393Y-146457393D01*
X235457117Y-146441329D01*
X235476330Y-146427079D01*
X235496847Y-146414782D01*
X235518471Y-146404554D01*
X235540993Y-146396496D01*
X235564197Y-146390684D01*
X235587858Y-146387174D01*
X235611750Y-146386000D01*
X236524250Y-146386000D01*
X236548142Y-146387174D01*
G37*
G36*
X234008142Y-144512174D02*
G01*
X234031803Y-144515684D01*
X234055007Y-144521496D01*
X234077529Y-144529554D01*
X234099153Y-144539782D01*
X234119670Y-144552079D01*
X234138883Y-144566329D01*
X234156607Y-144582393D01*
X234172671Y-144600117D01*
X234186921Y-144619330D01*
X234199218Y-144639847D01*
X234209446Y-144661471D01*
X234217504Y-144683993D01*
X234223316Y-144707197D01*
X234226826Y-144730858D01*
X234228000Y-144754750D01*
X234228000Y-145242250D01*
X234226826Y-145266142D01*
X234223316Y-145289803D01*
X234217504Y-145313007D01*
X234209446Y-145335529D01*
X234199218Y-145357153D01*
X234186921Y-145377670D01*
X234172671Y-145396883D01*
X234156607Y-145414607D01*
X234138883Y-145430671D01*
X234119670Y-145444921D01*
X234099153Y-145457218D01*
X234077529Y-145467446D01*
X234055007Y-145475504D01*
X234031803Y-145481316D01*
X234008142Y-145484826D01*
X233984250Y-145486000D01*
X233071750Y-145486000D01*
X233047858Y-145484826D01*
X233024197Y-145481316D01*
X233000993Y-145475504D01*
X232978471Y-145467446D01*
X232956847Y-145457218D01*
X232936330Y-145444921D01*
X232917117Y-145430671D01*
X232899393Y-145414607D01*
X232883329Y-145396883D01*
X232869079Y-145377670D01*
X232856782Y-145357153D01*
X232846554Y-145335529D01*
X232838496Y-145313007D01*
X232832684Y-145289803D01*
X232829174Y-145266142D01*
X232828000Y-145242250D01*
X232828000Y-144754750D01*
X232829174Y-144730858D01*
X232832684Y-144707197D01*
X232838496Y-144683993D01*
X232846554Y-144661471D01*
X232856782Y-144639847D01*
X232869079Y-144619330D01*
X232883329Y-144600117D01*
X232899393Y-144582393D01*
X232917117Y-144566329D01*
X232936330Y-144552079D01*
X232956847Y-144539782D01*
X232978471Y-144529554D01*
X233000993Y-144521496D01*
X233024197Y-144515684D01*
X233047858Y-144512174D01*
X233071750Y-144511000D01*
X233984250Y-144511000D01*
X234008142Y-144512174D01*
G37*
G36*
X234008142Y-146387174D02*
G01*
X234031803Y-146390684D01*
X234055007Y-146396496D01*
X234077529Y-146404554D01*
X234099153Y-146414782D01*
X234119670Y-146427079D01*
X234138883Y-146441329D01*
X234156607Y-146457393D01*
X234172671Y-146475117D01*
X234186921Y-146494330D01*
X234199218Y-146514847D01*
X234209446Y-146536471D01*
X234217504Y-146558993D01*
X234223316Y-146582197D01*
X234226826Y-146605858D01*
X234228000Y-146629750D01*
X234228000Y-147117250D01*
X234226826Y-147141142D01*
X234223316Y-147164803D01*
X234217504Y-147188007D01*
X234209446Y-147210529D01*
X234199218Y-147232153D01*
X234186921Y-147252670D01*
X234172671Y-147271883D01*
X234156607Y-147289607D01*
X234138883Y-147305671D01*
X234119670Y-147319921D01*
X234099153Y-147332218D01*
X234077529Y-147342446D01*
X234055007Y-147350504D01*
X234031803Y-147356316D01*
X234008142Y-147359826D01*
X233984250Y-147361000D01*
X233071750Y-147361000D01*
X233047858Y-147359826D01*
X233024197Y-147356316D01*
X233000993Y-147350504D01*
X232978471Y-147342446D01*
X232956847Y-147332218D01*
X232936330Y-147319921D01*
X232917117Y-147305671D01*
X232899393Y-147289607D01*
X232883329Y-147271883D01*
X232869079Y-147252670D01*
X232856782Y-147232153D01*
X232846554Y-147210529D01*
X232838496Y-147188007D01*
X232832684Y-147164803D01*
X232829174Y-147141142D01*
X232828000Y-147117250D01*
X232828000Y-146629750D01*
X232829174Y-146605858D01*
X232832684Y-146582197D01*
X232838496Y-146558993D01*
X232846554Y-146536471D01*
X232856782Y-146514847D01*
X232869079Y-146494330D01*
X232883329Y-146475117D01*
X232899393Y-146457393D01*
X232917117Y-146441329D01*
X232936330Y-146427079D01*
X232956847Y-146414782D01*
X232978471Y-146404554D01*
X233000993Y-146396496D01*
X233024197Y-146390684D01*
X233047858Y-146387174D01*
X233071750Y-146386000D01*
X233984250Y-146386000D01*
X234008142Y-146387174D01*
G37*
D11*
X260910980Y-132880400D03*
X258910980Y-133830400D03*
X258910980Y-131930400D03*
X274629520Y-146441460D03*
X272629520Y-147391460D03*
X272629520Y-145491460D03*
X271563740Y-135740440D03*
X269563740Y-136690440D03*
X269563740Y-134790440D03*
X258480000Y-143070000D03*
X256480000Y-144020000D03*
X256480000Y-142120000D03*
D10*
G36*
X279154504Y-99925204D02*
G01*
X279178773Y-99928804D01*
X279202571Y-99934765D01*
X279225671Y-99943030D01*
X279247849Y-99953520D01*
X279268893Y-99966133D01*
X279288598Y-99980747D01*
X279306777Y-99997223D01*
X279323253Y-100015402D01*
X279337867Y-100035107D01*
X279350480Y-100056151D01*
X279360970Y-100078329D01*
X279369235Y-100101429D01*
X279375196Y-100125227D01*
X279378796Y-100149496D01*
X279380000Y-100174000D01*
X279380000Y-101274000D01*
X279378796Y-101298504D01*
X279375196Y-101322773D01*
X279369235Y-101346571D01*
X279360970Y-101369671D01*
X279350480Y-101391849D01*
X279337867Y-101412893D01*
X279323253Y-101432598D01*
X279306777Y-101450777D01*
X279288598Y-101467253D01*
X279268893Y-101481867D01*
X279247849Y-101494480D01*
X279225671Y-101504970D01*
X279202571Y-101513235D01*
X279178773Y-101519196D01*
X279154504Y-101522796D01*
X279130000Y-101524000D01*
X276130000Y-101524000D01*
X276105496Y-101522796D01*
X276081227Y-101519196D01*
X276057429Y-101513235D01*
X276034329Y-101504970D01*
X276012151Y-101494480D01*
X275991107Y-101481867D01*
X275971402Y-101467253D01*
X275953223Y-101450777D01*
X275936747Y-101432598D01*
X275922133Y-101412893D01*
X275909520Y-101391849D01*
X275899030Y-101369671D01*
X275890765Y-101346571D01*
X275884804Y-101322773D01*
X275881204Y-101298504D01*
X275880000Y-101274000D01*
X275880000Y-100174000D01*
X275881204Y-100149496D01*
X275884804Y-100125227D01*
X275890765Y-100101429D01*
X275899030Y-100078329D01*
X275909520Y-100056151D01*
X275922133Y-100035107D01*
X275936747Y-100015402D01*
X275953223Y-99997223D01*
X275971402Y-99980747D01*
X275991107Y-99966133D01*
X276012151Y-99953520D01*
X276034329Y-99943030D01*
X276057429Y-99934765D01*
X276081227Y-99928804D01*
X276105496Y-99925204D01*
X276130000Y-99924000D01*
X279130000Y-99924000D01*
X279154504Y-99925204D01*
G37*
G36*
X273754504Y-99925204D02*
G01*
X273778773Y-99928804D01*
X273802571Y-99934765D01*
X273825671Y-99943030D01*
X273847849Y-99953520D01*
X273868893Y-99966133D01*
X273888598Y-99980747D01*
X273906777Y-99997223D01*
X273923253Y-100015402D01*
X273937867Y-100035107D01*
X273950480Y-100056151D01*
X273960970Y-100078329D01*
X273969235Y-100101429D01*
X273975196Y-100125227D01*
X273978796Y-100149496D01*
X273980000Y-100174000D01*
X273980000Y-101274000D01*
X273978796Y-101298504D01*
X273975196Y-101322773D01*
X273969235Y-101346571D01*
X273960970Y-101369671D01*
X273950480Y-101391849D01*
X273937867Y-101412893D01*
X273923253Y-101432598D01*
X273906777Y-101450777D01*
X273888598Y-101467253D01*
X273868893Y-101481867D01*
X273847849Y-101494480D01*
X273825671Y-101504970D01*
X273802571Y-101513235D01*
X273778773Y-101519196D01*
X273754504Y-101522796D01*
X273730000Y-101524000D01*
X270730000Y-101524000D01*
X270705496Y-101522796D01*
X270681227Y-101519196D01*
X270657429Y-101513235D01*
X270634329Y-101504970D01*
X270612151Y-101494480D01*
X270591107Y-101481867D01*
X270571402Y-101467253D01*
X270553223Y-101450777D01*
X270536747Y-101432598D01*
X270522133Y-101412893D01*
X270509520Y-101391849D01*
X270499030Y-101369671D01*
X270490765Y-101346571D01*
X270484804Y-101322773D01*
X270481204Y-101298504D01*
X270480000Y-101274000D01*
X270480000Y-100174000D01*
X270481204Y-100149496D01*
X270484804Y-100125227D01*
X270490765Y-100101429D01*
X270499030Y-100078329D01*
X270509520Y-100056151D01*
X270522133Y-100035107D01*
X270536747Y-100015402D01*
X270553223Y-99997223D01*
X270571402Y-99980747D01*
X270591107Y-99966133D01*
X270612151Y-99953520D01*
X270634329Y-99943030D01*
X270657429Y-99934765D01*
X270681227Y-99928804D01*
X270705496Y-99925204D01*
X270730000Y-99924000D01*
X273730000Y-99924000D01*
X273754504Y-99925204D01*
G37*
D12*
X261880000Y-129806000D03*
X261880000Y-126506000D03*
X274676000Y-143014000D03*
X274676000Y-139714000D03*
X271628000Y-132346000D03*
X271628000Y-129046000D03*
X261050000Y-140770000D03*
X261050000Y-137470000D03*
D11*
X255180000Y-127430000D03*
X257180000Y-126480000D03*
X257180000Y-128380000D03*
X267072000Y-140602000D03*
X269072000Y-139652000D03*
X269072000Y-141552000D03*
X264024000Y-129934000D03*
X266024000Y-128984000D03*
X266024000Y-130884000D03*
X254570000Y-138460000D03*
X256570000Y-137510000D03*
X256570000Y-139410000D03*
D10*
G36*
X257122142Y-131558174D02*
G01*
X257145803Y-131561684D01*
X257169007Y-131567496D01*
X257191529Y-131575554D01*
X257213153Y-131585782D01*
X257233670Y-131598079D01*
X257252883Y-131612329D01*
X257270607Y-131628393D01*
X257286671Y-131646117D01*
X257300921Y-131665330D01*
X257313218Y-131685847D01*
X257323446Y-131707471D01*
X257331504Y-131729993D01*
X257337316Y-131753197D01*
X257340826Y-131776858D01*
X257342000Y-131800750D01*
X257342000Y-132288250D01*
X257340826Y-132312142D01*
X257337316Y-132335803D01*
X257331504Y-132359007D01*
X257323446Y-132381529D01*
X257313218Y-132403153D01*
X257300921Y-132423670D01*
X257286671Y-132442883D01*
X257270607Y-132460607D01*
X257252883Y-132476671D01*
X257233670Y-132490921D01*
X257213153Y-132503218D01*
X257191529Y-132513446D01*
X257169007Y-132521504D01*
X257145803Y-132527316D01*
X257122142Y-132530826D01*
X257098250Y-132532000D01*
X256185750Y-132532000D01*
X256161858Y-132530826D01*
X256138197Y-132527316D01*
X256114993Y-132521504D01*
X256092471Y-132513446D01*
X256070847Y-132503218D01*
X256050330Y-132490921D01*
X256031117Y-132476671D01*
X256013393Y-132460607D01*
X255997329Y-132442883D01*
X255983079Y-132423670D01*
X255970782Y-132403153D01*
X255960554Y-132381529D01*
X255952496Y-132359007D01*
X255946684Y-132335803D01*
X255943174Y-132312142D01*
X255942000Y-132288250D01*
X255942000Y-131800750D01*
X255943174Y-131776858D01*
X255946684Y-131753197D01*
X255952496Y-131729993D01*
X255960554Y-131707471D01*
X255970782Y-131685847D01*
X255983079Y-131665330D01*
X255997329Y-131646117D01*
X256013393Y-131628393D01*
X256031117Y-131612329D01*
X256050330Y-131598079D01*
X256070847Y-131585782D01*
X256092471Y-131575554D01*
X256114993Y-131567496D01*
X256138197Y-131561684D01*
X256161858Y-131558174D01*
X256185750Y-131557000D01*
X257098250Y-131557000D01*
X257122142Y-131558174D01*
G37*
G36*
X257122142Y-133433174D02*
G01*
X257145803Y-133436684D01*
X257169007Y-133442496D01*
X257191529Y-133450554D01*
X257213153Y-133460782D01*
X257233670Y-133473079D01*
X257252883Y-133487329D01*
X257270607Y-133503393D01*
X257286671Y-133521117D01*
X257300921Y-133540330D01*
X257313218Y-133560847D01*
X257323446Y-133582471D01*
X257331504Y-133604993D01*
X257337316Y-133628197D01*
X257340826Y-133651858D01*
X257342000Y-133675750D01*
X257342000Y-134163250D01*
X257340826Y-134187142D01*
X257337316Y-134210803D01*
X257331504Y-134234007D01*
X257323446Y-134256529D01*
X257313218Y-134278153D01*
X257300921Y-134298670D01*
X257286671Y-134317883D01*
X257270607Y-134335607D01*
X257252883Y-134351671D01*
X257233670Y-134365921D01*
X257213153Y-134378218D01*
X257191529Y-134388446D01*
X257169007Y-134396504D01*
X257145803Y-134402316D01*
X257122142Y-134405826D01*
X257098250Y-134407000D01*
X256185750Y-134407000D01*
X256161858Y-134405826D01*
X256138197Y-134402316D01*
X256114993Y-134396504D01*
X256092471Y-134388446D01*
X256070847Y-134378218D01*
X256050330Y-134365921D01*
X256031117Y-134351671D01*
X256013393Y-134335607D01*
X255997329Y-134317883D01*
X255983079Y-134298670D01*
X255970782Y-134278153D01*
X255960554Y-134256529D01*
X255952496Y-134234007D01*
X255946684Y-134210803D01*
X255943174Y-134187142D01*
X255942000Y-134163250D01*
X255942000Y-133675750D01*
X255943174Y-133651858D01*
X255946684Y-133628197D01*
X255952496Y-133604993D01*
X255960554Y-133582471D01*
X255970782Y-133560847D01*
X255983079Y-133540330D01*
X255997329Y-133521117D01*
X256013393Y-133503393D01*
X256031117Y-133487329D01*
X256050330Y-133473079D01*
X256070847Y-133460782D01*
X256092471Y-133450554D01*
X256114993Y-133442496D01*
X256138197Y-133436684D01*
X256161858Y-133433174D01*
X256185750Y-133432000D01*
X257098250Y-133432000D01*
X257122142Y-133433174D01*
G37*
G36*
X271092142Y-145020174D02*
G01*
X271115803Y-145023684D01*
X271139007Y-145029496D01*
X271161529Y-145037554D01*
X271183153Y-145047782D01*
X271203670Y-145060079D01*
X271222883Y-145074329D01*
X271240607Y-145090393D01*
X271256671Y-145108117D01*
X271270921Y-145127330D01*
X271283218Y-145147847D01*
X271293446Y-145169471D01*
X271301504Y-145191993D01*
X271307316Y-145215197D01*
X271310826Y-145238858D01*
X271312000Y-145262750D01*
X271312000Y-145750250D01*
X271310826Y-145774142D01*
X271307316Y-145797803D01*
X271301504Y-145821007D01*
X271293446Y-145843529D01*
X271283218Y-145865153D01*
X271270921Y-145885670D01*
X271256671Y-145904883D01*
X271240607Y-145922607D01*
X271222883Y-145938671D01*
X271203670Y-145952921D01*
X271183153Y-145965218D01*
X271161529Y-145975446D01*
X271139007Y-145983504D01*
X271115803Y-145989316D01*
X271092142Y-145992826D01*
X271068250Y-145994000D01*
X270155750Y-145994000D01*
X270131858Y-145992826D01*
X270108197Y-145989316D01*
X270084993Y-145983504D01*
X270062471Y-145975446D01*
X270040847Y-145965218D01*
X270020330Y-145952921D01*
X270001117Y-145938671D01*
X269983393Y-145922607D01*
X269967329Y-145904883D01*
X269953079Y-145885670D01*
X269940782Y-145865153D01*
X269930554Y-145843529D01*
X269922496Y-145821007D01*
X269916684Y-145797803D01*
X269913174Y-145774142D01*
X269912000Y-145750250D01*
X269912000Y-145262750D01*
X269913174Y-145238858D01*
X269916684Y-145215197D01*
X269922496Y-145191993D01*
X269930554Y-145169471D01*
X269940782Y-145147847D01*
X269953079Y-145127330D01*
X269967329Y-145108117D01*
X269983393Y-145090393D01*
X270001117Y-145074329D01*
X270020330Y-145060079D01*
X270040847Y-145047782D01*
X270062471Y-145037554D01*
X270084993Y-145029496D01*
X270108197Y-145023684D01*
X270131858Y-145020174D01*
X270155750Y-145019000D01*
X271068250Y-145019000D01*
X271092142Y-145020174D01*
G37*
G36*
X271092142Y-146895174D02*
G01*
X271115803Y-146898684D01*
X271139007Y-146904496D01*
X271161529Y-146912554D01*
X271183153Y-146922782D01*
X271203670Y-146935079D01*
X271222883Y-146949329D01*
X271240607Y-146965393D01*
X271256671Y-146983117D01*
X271270921Y-147002330D01*
X271283218Y-147022847D01*
X271293446Y-147044471D01*
X271301504Y-147066993D01*
X271307316Y-147090197D01*
X271310826Y-147113858D01*
X271312000Y-147137750D01*
X271312000Y-147625250D01*
X271310826Y-147649142D01*
X271307316Y-147672803D01*
X271301504Y-147696007D01*
X271293446Y-147718529D01*
X271283218Y-147740153D01*
X271270921Y-147760670D01*
X271256671Y-147779883D01*
X271240607Y-147797607D01*
X271222883Y-147813671D01*
X271203670Y-147827921D01*
X271183153Y-147840218D01*
X271161529Y-147850446D01*
X271139007Y-147858504D01*
X271115803Y-147864316D01*
X271092142Y-147867826D01*
X271068250Y-147869000D01*
X270155750Y-147869000D01*
X270131858Y-147867826D01*
X270108197Y-147864316D01*
X270084993Y-147858504D01*
X270062471Y-147850446D01*
X270040847Y-147840218D01*
X270020330Y-147827921D01*
X270001117Y-147813671D01*
X269983393Y-147797607D01*
X269967329Y-147779883D01*
X269953079Y-147760670D01*
X269940782Y-147740153D01*
X269930554Y-147718529D01*
X269922496Y-147696007D01*
X269916684Y-147672803D01*
X269913174Y-147649142D01*
X269912000Y-147625250D01*
X269912000Y-147137750D01*
X269913174Y-147113858D01*
X269916684Y-147090197D01*
X269922496Y-147066993D01*
X269930554Y-147044471D01*
X269940782Y-147022847D01*
X269953079Y-147002330D01*
X269967329Y-146983117D01*
X269983393Y-146965393D01*
X270001117Y-146949329D01*
X270020330Y-146935079D01*
X270040847Y-146922782D01*
X270062471Y-146912554D01*
X270084993Y-146904496D01*
X270108197Y-146898684D01*
X270131858Y-146895174D01*
X270155750Y-146894000D01*
X271068250Y-146894000D01*
X271092142Y-146895174D01*
G37*
G36*
X267790142Y-134352174D02*
G01*
X267813803Y-134355684D01*
X267837007Y-134361496D01*
X267859529Y-134369554D01*
X267881153Y-134379782D01*
X267901670Y-134392079D01*
X267920883Y-134406329D01*
X267938607Y-134422393D01*
X267954671Y-134440117D01*
X267968921Y-134459330D01*
X267981218Y-134479847D01*
X267991446Y-134501471D01*
X267999504Y-134523993D01*
X268005316Y-134547197D01*
X268008826Y-134570858D01*
X268010000Y-134594750D01*
X268010000Y-135082250D01*
X268008826Y-135106142D01*
X268005316Y-135129803D01*
X267999504Y-135153007D01*
X267991446Y-135175529D01*
X267981218Y-135197153D01*
X267968921Y-135217670D01*
X267954671Y-135236883D01*
X267938607Y-135254607D01*
X267920883Y-135270671D01*
X267901670Y-135284921D01*
X267881153Y-135297218D01*
X267859529Y-135307446D01*
X267837007Y-135315504D01*
X267813803Y-135321316D01*
X267790142Y-135324826D01*
X267766250Y-135326000D01*
X266853750Y-135326000D01*
X266829858Y-135324826D01*
X266806197Y-135321316D01*
X266782993Y-135315504D01*
X266760471Y-135307446D01*
X266738847Y-135297218D01*
X266718330Y-135284921D01*
X266699117Y-135270671D01*
X266681393Y-135254607D01*
X266665329Y-135236883D01*
X266651079Y-135217670D01*
X266638782Y-135197153D01*
X266628554Y-135175529D01*
X266620496Y-135153007D01*
X266614684Y-135129803D01*
X266611174Y-135106142D01*
X266610000Y-135082250D01*
X266610000Y-134594750D01*
X266611174Y-134570858D01*
X266614684Y-134547197D01*
X266620496Y-134523993D01*
X266628554Y-134501471D01*
X266638782Y-134479847D01*
X266651079Y-134459330D01*
X266665329Y-134440117D01*
X266681393Y-134422393D01*
X266699117Y-134406329D01*
X266718330Y-134392079D01*
X266738847Y-134379782D01*
X266760471Y-134369554D01*
X266782993Y-134361496D01*
X266806197Y-134355684D01*
X266829858Y-134352174D01*
X266853750Y-134351000D01*
X267766250Y-134351000D01*
X267790142Y-134352174D01*
G37*
G36*
X267790142Y-136227174D02*
G01*
X267813803Y-136230684D01*
X267837007Y-136236496D01*
X267859529Y-136244554D01*
X267881153Y-136254782D01*
X267901670Y-136267079D01*
X267920883Y-136281329D01*
X267938607Y-136297393D01*
X267954671Y-136315117D01*
X267968921Y-136334330D01*
X267981218Y-136354847D01*
X267991446Y-136376471D01*
X267999504Y-136398993D01*
X268005316Y-136422197D01*
X268008826Y-136445858D01*
X268010000Y-136469750D01*
X268010000Y-136957250D01*
X268008826Y-136981142D01*
X268005316Y-137004803D01*
X267999504Y-137028007D01*
X267991446Y-137050529D01*
X267981218Y-137072153D01*
X267968921Y-137092670D01*
X267954671Y-137111883D01*
X267938607Y-137129607D01*
X267920883Y-137145671D01*
X267901670Y-137159921D01*
X267881153Y-137172218D01*
X267859529Y-137182446D01*
X267837007Y-137190504D01*
X267813803Y-137196316D01*
X267790142Y-137199826D01*
X267766250Y-137201000D01*
X266853750Y-137201000D01*
X266829858Y-137199826D01*
X266806197Y-137196316D01*
X266782993Y-137190504D01*
X266760471Y-137182446D01*
X266738847Y-137172218D01*
X266718330Y-137159921D01*
X266699117Y-137145671D01*
X266681393Y-137129607D01*
X266665329Y-137111883D01*
X266651079Y-137092670D01*
X266638782Y-137072153D01*
X266628554Y-137050529D01*
X266620496Y-137028007D01*
X266614684Y-137004803D01*
X266611174Y-136981142D01*
X266610000Y-136957250D01*
X266610000Y-136469750D01*
X266611174Y-136445858D01*
X266614684Y-136422197D01*
X266620496Y-136398993D01*
X266628554Y-136376471D01*
X266638782Y-136354847D01*
X266651079Y-136334330D01*
X266665329Y-136315117D01*
X266681393Y-136297393D01*
X266699117Y-136281329D01*
X266718330Y-136267079D01*
X266738847Y-136254782D01*
X266760471Y-136244554D01*
X266782993Y-136236496D01*
X266806197Y-136230684D01*
X266829858Y-136227174D01*
X266853750Y-136226000D01*
X267766250Y-136226000D01*
X267790142Y-136227174D01*
G37*
G36*
X255090142Y-143750174D02*
G01*
X255113803Y-143753684D01*
X255137007Y-143759496D01*
X255159529Y-143767554D01*
X255181153Y-143777782D01*
X255201670Y-143790079D01*
X255220883Y-143804329D01*
X255238607Y-143820393D01*
X255254671Y-143838117D01*
X255268921Y-143857330D01*
X255281218Y-143877847D01*
X255291446Y-143899471D01*
X255299504Y-143921993D01*
X255305316Y-143945197D01*
X255308826Y-143968858D01*
X255310000Y-143992750D01*
X255310000Y-144480250D01*
X255308826Y-144504142D01*
X255305316Y-144527803D01*
X255299504Y-144551007D01*
X255291446Y-144573529D01*
X255281218Y-144595153D01*
X255268921Y-144615670D01*
X255254671Y-144634883D01*
X255238607Y-144652607D01*
X255220883Y-144668671D01*
X255201670Y-144682921D01*
X255181153Y-144695218D01*
X255159529Y-144705446D01*
X255137007Y-144713504D01*
X255113803Y-144719316D01*
X255090142Y-144722826D01*
X255066250Y-144724000D01*
X254153750Y-144724000D01*
X254129858Y-144722826D01*
X254106197Y-144719316D01*
X254082993Y-144713504D01*
X254060471Y-144705446D01*
X254038847Y-144695218D01*
X254018330Y-144682921D01*
X253999117Y-144668671D01*
X253981393Y-144652607D01*
X253965329Y-144634883D01*
X253951079Y-144615670D01*
X253938782Y-144595153D01*
X253928554Y-144573529D01*
X253920496Y-144551007D01*
X253914684Y-144527803D01*
X253911174Y-144504142D01*
X253910000Y-144480250D01*
X253910000Y-143992750D01*
X253911174Y-143968858D01*
X253914684Y-143945197D01*
X253920496Y-143921993D01*
X253928554Y-143899471D01*
X253938782Y-143877847D01*
X253951079Y-143857330D01*
X253965329Y-143838117D01*
X253981393Y-143820393D01*
X253999117Y-143804329D01*
X254018330Y-143790079D01*
X254038847Y-143777782D01*
X254060471Y-143767554D01*
X254082993Y-143759496D01*
X254106197Y-143753684D01*
X254129858Y-143750174D01*
X254153750Y-143749000D01*
X255066250Y-143749000D01*
X255090142Y-143750174D01*
G37*
G36*
X255090142Y-145625174D02*
G01*
X255113803Y-145628684D01*
X255137007Y-145634496D01*
X255159529Y-145642554D01*
X255181153Y-145652782D01*
X255201670Y-145665079D01*
X255220883Y-145679329D01*
X255238607Y-145695393D01*
X255254671Y-145713117D01*
X255268921Y-145732330D01*
X255281218Y-145752847D01*
X255291446Y-145774471D01*
X255299504Y-145796993D01*
X255305316Y-145820197D01*
X255308826Y-145843858D01*
X255310000Y-145867750D01*
X255310000Y-146355250D01*
X255308826Y-146379142D01*
X255305316Y-146402803D01*
X255299504Y-146426007D01*
X255291446Y-146448529D01*
X255281218Y-146470153D01*
X255268921Y-146490670D01*
X255254671Y-146509883D01*
X255238607Y-146527607D01*
X255220883Y-146543671D01*
X255201670Y-146557921D01*
X255181153Y-146570218D01*
X255159529Y-146580446D01*
X255137007Y-146588504D01*
X255113803Y-146594316D01*
X255090142Y-146597826D01*
X255066250Y-146599000D01*
X254153750Y-146599000D01*
X254129858Y-146597826D01*
X254106197Y-146594316D01*
X254082993Y-146588504D01*
X254060471Y-146580446D01*
X254038847Y-146570218D01*
X254018330Y-146557921D01*
X253999117Y-146543671D01*
X253981393Y-146527607D01*
X253965329Y-146509883D01*
X253951079Y-146490670D01*
X253938782Y-146470153D01*
X253928554Y-146448529D01*
X253920496Y-146426007D01*
X253914684Y-146402803D01*
X253911174Y-146379142D01*
X253910000Y-146355250D01*
X253910000Y-145867750D01*
X253911174Y-145843858D01*
X253914684Y-145820197D01*
X253920496Y-145796993D01*
X253928554Y-145774471D01*
X253938782Y-145752847D01*
X253951079Y-145732330D01*
X253965329Y-145713117D01*
X253981393Y-145695393D01*
X253999117Y-145679329D01*
X254018330Y-145665079D01*
X254038847Y-145652782D01*
X254060471Y-145642554D01*
X254082993Y-145634496D01*
X254106197Y-145628684D01*
X254129858Y-145625174D01*
X254153750Y-145624000D01*
X255066250Y-145624000D01*
X255090142Y-145625174D01*
G37*
G36*
X246454142Y-144512174D02*
G01*
X246477803Y-144515684D01*
X246501007Y-144521496D01*
X246523529Y-144529554D01*
X246545153Y-144539782D01*
X246565670Y-144552079D01*
X246584883Y-144566329D01*
X246602607Y-144582393D01*
X246618671Y-144600117D01*
X246632921Y-144619330D01*
X246645218Y-144639847D01*
X246655446Y-144661471D01*
X246663504Y-144683993D01*
X246669316Y-144707197D01*
X246672826Y-144730858D01*
X246674000Y-144754750D01*
X246674000Y-145242250D01*
X246672826Y-145266142D01*
X246669316Y-145289803D01*
X246663504Y-145313007D01*
X246655446Y-145335529D01*
X246645218Y-145357153D01*
X246632921Y-145377670D01*
X246618671Y-145396883D01*
X246602607Y-145414607D01*
X246584883Y-145430671D01*
X246565670Y-145444921D01*
X246545153Y-145457218D01*
X246523529Y-145467446D01*
X246501007Y-145475504D01*
X246477803Y-145481316D01*
X246454142Y-145484826D01*
X246430250Y-145486000D01*
X245517750Y-145486000D01*
X245493858Y-145484826D01*
X245470197Y-145481316D01*
X245446993Y-145475504D01*
X245424471Y-145467446D01*
X245402847Y-145457218D01*
X245382330Y-145444921D01*
X245363117Y-145430671D01*
X245345393Y-145414607D01*
X245329329Y-145396883D01*
X245315079Y-145377670D01*
X245302782Y-145357153D01*
X245292554Y-145335529D01*
X245284496Y-145313007D01*
X245278684Y-145289803D01*
X245275174Y-145266142D01*
X245274000Y-145242250D01*
X245274000Y-144754750D01*
X245275174Y-144730858D01*
X245278684Y-144707197D01*
X245284496Y-144683993D01*
X245292554Y-144661471D01*
X245302782Y-144639847D01*
X245315079Y-144619330D01*
X245329329Y-144600117D01*
X245345393Y-144582393D01*
X245363117Y-144566329D01*
X245382330Y-144552079D01*
X245402847Y-144539782D01*
X245424471Y-144529554D01*
X245446993Y-144521496D01*
X245470197Y-144515684D01*
X245493858Y-144512174D01*
X245517750Y-144511000D01*
X246430250Y-144511000D01*
X246454142Y-144512174D01*
G37*
G36*
X246454142Y-146387174D02*
G01*
X246477803Y-146390684D01*
X246501007Y-146396496D01*
X246523529Y-146404554D01*
X246545153Y-146414782D01*
X246565670Y-146427079D01*
X246584883Y-146441329D01*
X246602607Y-146457393D01*
X246618671Y-146475117D01*
X246632921Y-146494330D01*
X246645218Y-146514847D01*
X246655446Y-146536471D01*
X246663504Y-146558993D01*
X246669316Y-146582197D01*
X246672826Y-146605858D01*
X246674000Y-146629750D01*
X246674000Y-147117250D01*
X246672826Y-147141142D01*
X246669316Y-147164803D01*
X246663504Y-147188007D01*
X246655446Y-147210529D01*
X246645218Y-147232153D01*
X246632921Y-147252670D01*
X246618671Y-147271883D01*
X246602607Y-147289607D01*
X246584883Y-147305671D01*
X246565670Y-147319921D01*
X246545153Y-147332218D01*
X246523529Y-147342446D01*
X246501007Y-147350504D01*
X246477803Y-147356316D01*
X246454142Y-147359826D01*
X246430250Y-147361000D01*
X245517750Y-147361000D01*
X245493858Y-147359826D01*
X245470197Y-147356316D01*
X245446993Y-147350504D01*
X245424471Y-147342446D01*
X245402847Y-147332218D01*
X245382330Y-147319921D01*
X245363117Y-147305671D01*
X245345393Y-147289607D01*
X245329329Y-147271883D01*
X245315079Y-147252670D01*
X245302782Y-147232153D01*
X245292554Y-147210529D01*
X245284496Y-147188007D01*
X245278684Y-147164803D01*
X245275174Y-147141142D01*
X245274000Y-147117250D01*
X245274000Y-146629750D01*
X245275174Y-146605858D01*
X245278684Y-146582197D01*
X245284496Y-146558993D01*
X245292554Y-146536471D01*
X245302782Y-146514847D01*
X245315079Y-146494330D01*
X245329329Y-146475117D01*
X245345393Y-146457393D01*
X245363117Y-146441329D01*
X245382330Y-146427079D01*
X245402847Y-146414782D01*
X245424471Y-146404554D01*
X245446993Y-146396496D01*
X245470197Y-146390684D01*
X245493858Y-146387174D01*
X245517750Y-146386000D01*
X246430250Y-146386000D01*
X246454142Y-146387174D01*
G37*
G36*
X248740142Y-144512174D02*
G01*
X248763803Y-144515684D01*
X248787007Y-144521496D01*
X248809529Y-144529554D01*
X248831153Y-144539782D01*
X248851670Y-144552079D01*
X248870883Y-144566329D01*
X248888607Y-144582393D01*
X248904671Y-144600117D01*
X248918921Y-144619330D01*
X248931218Y-144639847D01*
X248941446Y-144661471D01*
X248949504Y-144683993D01*
X248955316Y-144707197D01*
X248958826Y-144730858D01*
X248960000Y-144754750D01*
X248960000Y-145242250D01*
X248958826Y-145266142D01*
X248955316Y-145289803D01*
X248949504Y-145313007D01*
X248941446Y-145335529D01*
X248931218Y-145357153D01*
X248918921Y-145377670D01*
X248904671Y-145396883D01*
X248888607Y-145414607D01*
X248870883Y-145430671D01*
X248851670Y-145444921D01*
X248831153Y-145457218D01*
X248809529Y-145467446D01*
X248787007Y-145475504D01*
X248763803Y-145481316D01*
X248740142Y-145484826D01*
X248716250Y-145486000D01*
X247803750Y-145486000D01*
X247779858Y-145484826D01*
X247756197Y-145481316D01*
X247732993Y-145475504D01*
X247710471Y-145467446D01*
X247688847Y-145457218D01*
X247668330Y-145444921D01*
X247649117Y-145430671D01*
X247631393Y-145414607D01*
X247615329Y-145396883D01*
X247601079Y-145377670D01*
X247588782Y-145357153D01*
X247578554Y-145335529D01*
X247570496Y-145313007D01*
X247564684Y-145289803D01*
X247561174Y-145266142D01*
X247560000Y-145242250D01*
X247560000Y-144754750D01*
X247561174Y-144730858D01*
X247564684Y-144707197D01*
X247570496Y-144683993D01*
X247578554Y-144661471D01*
X247588782Y-144639847D01*
X247601079Y-144619330D01*
X247615329Y-144600117D01*
X247631393Y-144582393D01*
X247649117Y-144566329D01*
X247668330Y-144552079D01*
X247688847Y-144539782D01*
X247710471Y-144529554D01*
X247732993Y-144521496D01*
X247756197Y-144515684D01*
X247779858Y-144512174D01*
X247803750Y-144511000D01*
X248716250Y-144511000D01*
X248740142Y-144512174D01*
G37*
G36*
X248740142Y-146387174D02*
G01*
X248763803Y-146390684D01*
X248787007Y-146396496D01*
X248809529Y-146404554D01*
X248831153Y-146414782D01*
X248851670Y-146427079D01*
X248870883Y-146441329D01*
X248888607Y-146457393D01*
X248904671Y-146475117D01*
X248918921Y-146494330D01*
X248931218Y-146514847D01*
X248941446Y-146536471D01*
X248949504Y-146558993D01*
X248955316Y-146582197D01*
X248958826Y-146605858D01*
X248960000Y-146629750D01*
X248960000Y-147117250D01*
X248958826Y-147141142D01*
X248955316Y-147164803D01*
X248949504Y-147188007D01*
X248941446Y-147210529D01*
X248931218Y-147232153D01*
X248918921Y-147252670D01*
X248904671Y-147271883D01*
X248888607Y-147289607D01*
X248870883Y-147305671D01*
X248851670Y-147319921D01*
X248831153Y-147332218D01*
X248809529Y-147342446D01*
X248787007Y-147350504D01*
X248763803Y-147356316D01*
X248740142Y-147359826D01*
X248716250Y-147361000D01*
X247803750Y-147361000D01*
X247779858Y-147359826D01*
X247756197Y-147356316D01*
X247732993Y-147350504D01*
X247710471Y-147342446D01*
X247688847Y-147332218D01*
X247668330Y-147319921D01*
X247649117Y-147305671D01*
X247631393Y-147289607D01*
X247615329Y-147271883D01*
X247601079Y-147252670D01*
X247588782Y-147232153D01*
X247578554Y-147210529D01*
X247570496Y-147188007D01*
X247564684Y-147164803D01*
X247561174Y-147141142D01*
X247560000Y-147117250D01*
X247560000Y-146629750D01*
X247561174Y-146605858D01*
X247564684Y-146582197D01*
X247570496Y-146558993D01*
X247578554Y-146536471D01*
X247588782Y-146514847D01*
X247601079Y-146494330D01*
X247615329Y-146475117D01*
X247631393Y-146457393D01*
X247649117Y-146441329D01*
X247668330Y-146427079D01*
X247688847Y-146414782D01*
X247710471Y-146404554D01*
X247732993Y-146396496D01*
X247756197Y-146390684D01*
X247779858Y-146387174D01*
X247803750Y-146386000D01*
X248716250Y-146386000D01*
X248740142Y-146387174D01*
G37*
G36*
X228674142Y-144512174D02*
G01*
X228697803Y-144515684D01*
X228721007Y-144521496D01*
X228743529Y-144529554D01*
X228765153Y-144539782D01*
X228785670Y-144552079D01*
X228804883Y-144566329D01*
X228822607Y-144582393D01*
X228838671Y-144600117D01*
X228852921Y-144619330D01*
X228865218Y-144639847D01*
X228875446Y-144661471D01*
X228883504Y-144683993D01*
X228889316Y-144707197D01*
X228892826Y-144730858D01*
X228894000Y-144754750D01*
X228894000Y-145242250D01*
X228892826Y-145266142D01*
X228889316Y-145289803D01*
X228883504Y-145313007D01*
X228875446Y-145335529D01*
X228865218Y-145357153D01*
X228852921Y-145377670D01*
X228838671Y-145396883D01*
X228822607Y-145414607D01*
X228804883Y-145430671D01*
X228785670Y-145444921D01*
X228765153Y-145457218D01*
X228743529Y-145467446D01*
X228721007Y-145475504D01*
X228697803Y-145481316D01*
X228674142Y-145484826D01*
X228650250Y-145486000D01*
X227737750Y-145486000D01*
X227713858Y-145484826D01*
X227690197Y-145481316D01*
X227666993Y-145475504D01*
X227644471Y-145467446D01*
X227622847Y-145457218D01*
X227602330Y-145444921D01*
X227583117Y-145430671D01*
X227565393Y-145414607D01*
X227549329Y-145396883D01*
X227535079Y-145377670D01*
X227522782Y-145357153D01*
X227512554Y-145335529D01*
X227504496Y-145313007D01*
X227498684Y-145289803D01*
X227495174Y-145266142D01*
X227494000Y-145242250D01*
X227494000Y-144754750D01*
X227495174Y-144730858D01*
X227498684Y-144707197D01*
X227504496Y-144683993D01*
X227512554Y-144661471D01*
X227522782Y-144639847D01*
X227535079Y-144619330D01*
X227549329Y-144600117D01*
X227565393Y-144582393D01*
X227583117Y-144566329D01*
X227602330Y-144552079D01*
X227622847Y-144539782D01*
X227644471Y-144529554D01*
X227666993Y-144521496D01*
X227690197Y-144515684D01*
X227713858Y-144512174D01*
X227737750Y-144511000D01*
X228650250Y-144511000D01*
X228674142Y-144512174D01*
G37*
G36*
X228674142Y-146387174D02*
G01*
X228697803Y-146390684D01*
X228721007Y-146396496D01*
X228743529Y-146404554D01*
X228765153Y-146414782D01*
X228785670Y-146427079D01*
X228804883Y-146441329D01*
X228822607Y-146457393D01*
X228838671Y-146475117D01*
X228852921Y-146494330D01*
X228865218Y-146514847D01*
X228875446Y-146536471D01*
X228883504Y-146558993D01*
X228889316Y-146582197D01*
X228892826Y-146605858D01*
X228894000Y-146629750D01*
X228894000Y-147117250D01*
X228892826Y-147141142D01*
X228889316Y-147164803D01*
X228883504Y-147188007D01*
X228875446Y-147210529D01*
X228865218Y-147232153D01*
X228852921Y-147252670D01*
X228838671Y-147271883D01*
X228822607Y-147289607D01*
X228804883Y-147305671D01*
X228785670Y-147319921D01*
X228765153Y-147332218D01*
X228743529Y-147342446D01*
X228721007Y-147350504D01*
X228697803Y-147356316D01*
X228674142Y-147359826D01*
X228650250Y-147361000D01*
X227737750Y-147361000D01*
X227713858Y-147359826D01*
X227690197Y-147356316D01*
X227666993Y-147350504D01*
X227644471Y-147342446D01*
X227622847Y-147332218D01*
X227602330Y-147319921D01*
X227583117Y-147305671D01*
X227565393Y-147289607D01*
X227549329Y-147271883D01*
X227535079Y-147252670D01*
X227522782Y-147232153D01*
X227512554Y-147210529D01*
X227504496Y-147188007D01*
X227498684Y-147164803D01*
X227495174Y-147141142D01*
X227494000Y-147117250D01*
X227494000Y-146629750D01*
X227495174Y-146605858D01*
X227498684Y-146582197D01*
X227504496Y-146558993D01*
X227512554Y-146536471D01*
X227522782Y-146514847D01*
X227535079Y-146494330D01*
X227549329Y-146475117D01*
X227565393Y-146457393D01*
X227583117Y-146441329D01*
X227602330Y-146427079D01*
X227622847Y-146414782D01*
X227644471Y-146404554D01*
X227666993Y-146396496D01*
X227690197Y-146390684D01*
X227713858Y-146387174D01*
X227737750Y-146386000D01*
X228650250Y-146386000D01*
X228674142Y-146387174D01*
G37*
G36*
X230960142Y-144512174D02*
G01*
X230983803Y-144515684D01*
X231007007Y-144521496D01*
X231029529Y-144529554D01*
X231051153Y-144539782D01*
X231071670Y-144552079D01*
X231090883Y-144566329D01*
X231108607Y-144582393D01*
X231124671Y-144600117D01*
X231138921Y-144619330D01*
X231151218Y-144639847D01*
X231161446Y-144661471D01*
X231169504Y-144683993D01*
X231175316Y-144707197D01*
X231178826Y-144730858D01*
X231180000Y-144754750D01*
X231180000Y-145242250D01*
X231178826Y-145266142D01*
X231175316Y-145289803D01*
X231169504Y-145313007D01*
X231161446Y-145335529D01*
X231151218Y-145357153D01*
X231138921Y-145377670D01*
X231124671Y-145396883D01*
X231108607Y-145414607D01*
X231090883Y-145430671D01*
X231071670Y-145444921D01*
X231051153Y-145457218D01*
X231029529Y-145467446D01*
X231007007Y-145475504D01*
X230983803Y-145481316D01*
X230960142Y-145484826D01*
X230936250Y-145486000D01*
X230023750Y-145486000D01*
X229999858Y-145484826D01*
X229976197Y-145481316D01*
X229952993Y-145475504D01*
X229930471Y-145467446D01*
X229908847Y-145457218D01*
X229888330Y-145444921D01*
X229869117Y-145430671D01*
X229851393Y-145414607D01*
X229835329Y-145396883D01*
X229821079Y-145377670D01*
X229808782Y-145357153D01*
X229798554Y-145335529D01*
X229790496Y-145313007D01*
X229784684Y-145289803D01*
X229781174Y-145266142D01*
X229780000Y-145242250D01*
X229780000Y-144754750D01*
X229781174Y-144730858D01*
X229784684Y-144707197D01*
X229790496Y-144683993D01*
X229798554Y-144661471D01*
X229808782Y-144639847D01*
X229821079Y-144619330D01*
X229835329Y-144600117D01*
X229851393Y-144582393D01*
X229869117Y-144566329D01*
X229888330Y-144552079D01*
X229908847Y-144539782D01*
X229930471Y-144529554D01*
X229952993Y-144521496D01*
X229976197Y-144515684D01*
X229999858Y-144512174D01*
X230023750Y-144511000D01*
X230936250Y-144511000D01*
X230960142Y-144512174D01*
G37*
G36*
X230960142Y-146387174D02*
G01*
X230983803Y-146390684D01*
X231007007Y-146396496D01*
X231029529Y-146404554D01*
X231051153Y-146414782D01*
X231071670Y-146427079D01*
X231090883Y-146441329D01*
X231108607Y-146457393D01*
X231124671Y-146475117D01*
X231138921Y-146494330D01*
X231151218Y-146514847D01*
X231161446Y-146536471D01*
X231169504Y-146558993D01*
X231175316Y-146582197D01*
X231178826Y-146605858D01*
X231180000Y-146629750D01*
X231180000Y-147117250D01*
X231178826Y-147141142D01*
X231175316Y-147164803D01*
X231169504Y-147188007D01*
X231161446Y-147210529D01*
X231151218Y-147232153D01*
X231138921Y-147252670D01*
X231124671Y-147271883D01*
X231108607Y-147289607D01*
X231090883Y-147305671D01*
X231071670Y-147319921D01*
X231051153Y-147332218D01*
X231029529Y-147342446D01*
X231007007Y-147350504D01*
X230983803Y-147356316D01*
X230960142Y-147359826D01*
X230936250Y-147361000D01*
X230023750Y-147361000D01*
X229999858Y-147359826D01*
X229976197Y-147356316D01*
X229952993Y-147350504D01*
X229930471Y-147342446D01*
X229908847Y-147332218D01*
X229888330Y-147319921D01*
X229869117Y-147305671D01*
X229851393Y-147289607D01*
X229835329Y-147271883D01*
X229821079Y-147252670D01*
X229808782Y-147232153D01*
X229798554Y-147210529D01*
X229790496Y-147188007D01*
X229784684Y-147164803D01*
X229781174Y-147141142D01*
X229780000Y-147117250D01*
X229780000Y-146629750D01*
X229781174Y-146605858D01*
X229784684Y-146582197D01*
X229790496Y-146558993D01*
X229798554Y-146536471D01*
X229808782Y-146514847D01*
X229821079Y-146494330D01*
X229835329Y-146475117D01*
X229851393Y-146457393D01*
X229869117Y-146441329D01*
X229888330Y-146427079D01*
X229908847Y-146414782D01*
X229930471Y-146404554D01*
X229952993Y-146396496D01*
X229976197Y-146390684D01*
X229999858Y-146387174D01*
X230023750Y-146386000D01*
X230936250Y-146386000D01*
X230960142Y-146387174D01*
G37*
G36*
X254582142Y-133433174D02*
G01*
X254605803Y-133436684D01*
X254629007Y-133442496D01*
X254651529Y-133450554D01*
X254673153Y-133460782D01*
X254693670Y-133473079D01*
X254712883Y-133487329D01*
X254730607Y-133503393D01*
X254746671Y-133521117D01*
X254760921Y-133540330D01*
X254773218Y-133560847D01*
X254783446Y-133582471D01*
X254791504Y-133604993D01*
X254797316Y-133628197D01*
X254800826Y-133651858D01*
X254802000Y-133675750D01*
X254802000Y-134163250D01*
X254800826Y-134187142D01*
X254797316Y-134210803D01*
X254791504Y-134234007D01*
X254783446Y-134256529D01*
X254773218Y-134278153D01*
X254760921Y-134298670D01*
X254746671Y-134317883D01*
X254730607Y-134335607D01*
X254712883Y-134351671D01*
X254693670Y-134365921D01*
X254673153Y-134378218D01*
X254651529Y-134388446D01*
X254629007Y-134396504D01*
X254605803Y-134402316D01*
X254582142Y-134405826D01*
X254558250Y-134407000D01*
X253645750Y-134407000D01*
X253621858Y-134405826D01*
X253598197Y-134402316D01*
X253574993Y-134396504D01*
X253552471Y-134388446D01*
X253530847Y-134378218D01*
X253510330Y-134365921D01*
X253491117Y-134351671D01*
X253473393Y-134335607D01*
X253457329Y-134317883D01*
X253443079Y-134298670D01*
X253430782Y-134278153D01*
X253420554Y-134256529D01*
X253412496Y-134234007D01*
X253406684Y-134210803D01*
X253403174Y-134187142D01*
X253402000Y-134163250D01*
X253402000Y-133675750D01*
X253403174Y-133651858D01*
X253406684Y-133628197D01*
X253412496Y-133604993D01*
X253420554Y-133582471D01*
X253430782Y-133560847D01*
X253443079Y-133540330D01*
X253457329Y-133521117D01*
X253473393Y-133503393D01*
X253491117Y-133487329D01*
X253510330Y-133473079D01*
X253530847Y-133460782D01*
X253552471Y-133450554D01*
X253574993Y-133442496D01*
X253598197Y-133436684D01*
X253621858Y-133433174D01*
X253645750Y-133432000D01*
X254558250Y-133432000D01*
X254582142Y-133433174D01*
G37*
G36*
X254582142Y-131558174D02*
G01*
X254605803Y-131561684D01*
X254629007Y-131567496D01*
X254651529Y-131575554D01*
X254673153Y-131585782D01*
X254693670Y-131598079D01*
X254712883Y-131612329D01*
X254730607Y-131628393D01*
X254746671Y-131646117D01*
X254760921Y-131665330D01*
X254773218Y-131685847D01*
X254783446Y-131707471D01*
X254791504Y-131729993D01*
X254797316Y-131753197D01*
X254800826Y-131776858D01*
X254802000Y-131800750D01*
X254802000Y-132288250D01*
X254800826Y-132312142D01*
X254797316Y-132335803D01*
X254791504Y-132359007D01*
X254783446Y-132381529D01*
X254773218Y-132403153D01*
X254760921Y-132423670D01*
X254746671Y-132442883D01*
X254730607Y-132460607D01*
X254712883Y-132476671D01*
X254693670Y-132490921D01*
X254673153Y-132503218D01*
X254651529Y-132513446D01*
X254629007Y-132521504D01*
X254605803Y-132527316D01*
X254582142Y-132530826D01*
X254558250Y-132532000D01*
X253645750Y-132532000D01*
X253621858Y-132530826D01*
X253598197Y-132527316D01*
X253574993Y-132521504D01*
X253552471Y-132513446D01*
X253530847Y-132503218D01*
X253510330Y-132490921D01*
X253491117Y-132476671D01*
X253473393Y-132460607D01*
X253457329Y-132442883D01*
X253443079Y-132423670D01*
X253430782Y-132403153D01*
X253420554Y-132381529D01*
X253412496Y-132359007D01*
X253406684Y-132335803D01*
X253403174Y-132312142D01*
X253402000Y-132288250D01*
X253402000Y-131800750D01*
X253403174Y-131776858D01*
X253406684Y-131753197D01*
X253412496Y-131729993D01*
X253420554Y-131707471D01*
X253430782Y-131685847D01*
X253443079Y-131665330D01*
X253457329Y-131646117D01*
X253473393Y-131628393D01*
X253491117Y-131612329D01*
X253510330Y-131598079D01*
X253530847Y-131585782D01*
X253552471Y-131575554D01*
X253574993Y-131567496D01*
X253598197Y-131561684D01*
X253621858Y-131558174D01*
X253645750Y-131557000D01*
X254558250Y-131557000D01*
X254582142Y-131558174D01*
G37*
G36*
X268552142Y-146895174D02*
G01*
X268575803Y-146898684D01*
X268599007Y-146904496D01*
X268621529Y-146912554D01*
X268643153Y-146922782D01*
X268663670Y-146935079D01*
X268682883Y-146949329D01*
X268700607Y-146965393D01*
X268716671Y-146983117D01*
X268730921Y-147002330D01*
X268743218Y-147022847D01*
X268753446Y-147044471D01*
X268761504Y-147066993D01*
X268767316Y-147090197D01*
X268770826Y-147113858D01*
X268772000Y-147137750D01*
X268772000Y-147625250D01*
X268770826Y-147649142D01*
X268767316Y-147672803D01*
X268761504Y-147696007D01*
X268753446Y-147718529D01*
X268743218Y-147740153D01*
X268730921Y-147760670D01*
X268716671Y-147779883D01*
X268700607Y-147797607D01*
X268682883Y-147813671D01*
X268663670Y-147827921D01*
X268643153Y-147840218D01*
X268621529Y-147850446D01*
X268599007Y-147858504D01*
X268575803Y-147864316D01*
X268552142Y-147867826D01*
X268528250Y-147869000D01*
X267615750Y-147869000D01*
X267591858Y-147867826D01*
X267568197Y-147864316D01*
X267544993Y-147858504D01*
X267522471Y-147850446D01*
X267500847Y-147840218D01*
X267480330Y-147827921D01*
X267461117Y-147813671D01*
X267443393Y-147797607D01*
X267427329Y-147779883D01*
X267413079Y-147760670D01*
X267400782Y-147740153D01*
X267390554Y-147718529D01*
X267382496Y-147696007D01*
X267376684Y-147672803D01*
X267373174Y-147649142D01*
X267372000Y-147625250D01*
X267372000Y-147137750D01*
X267373174Y-147113858D01*
X267376684Y-147090197D01*
X267382496Y-147066993D01*
X267390554Y-147044471D01*
X267400782Y-147022847D01*
X267413079Y-147002330D01*
X267427329Y-146983117D01*
X267443393Y-146965393D01*
X267461117Y-146949329D01*
X267480330Y-146935079D01*
X267500847Y-146922782D01*
X267522471Y-146912554D01*
X267544993Y-146904496D01*
X267568197Y-146898684D01*
X267591858Y-146895174D01*
X267615750Y-146894000D01*
X268528250Y-146894000D01*
X268552142Y-146895174D01*
G37*
G36*
X268552142Y-145020174D02*
G01*
X268575803Y-145023684D01*
X268599007Y-145029496D01*
X268621529Y-145037554D01*
X268643153Y-145047782D01*
X268663670Y-145060079D01*
X268682883Y-145074329D01*
X268700607Y-145090393D01*
X268716671Y-145108117D01*
X268730921Y-145127330D01*
X268743218Y-145147847D01*
X268753446Y-145169471D01*
X268761504Y-145191993D01*
X268767316Y-145215197D01*
X268770826Y-145238858D01*
X268772000Y-145262750D01*
X268772000Y-145750250D01*
X268770826Y-145774142D01*
X268767316Y-145797803D01*
X268761504Y-145821007D01*
X268753446Y-145843529D01*
X268743218Y-145865153D01*
X268730921Y-145885670D01*
X268716671Y-145904883D01*
X268700607Y-145922607D01*
X268682883Y-145938671D01*
X268663670Y-145952921D01*
X268643153Y-145965218D01*
X268621529Y-145975446D01*
X268599007Y-145983504D01*
X268575803Y-145989316D01*
X268552142Y-145992826D01*
X268528250Y-145994000D01*
X267615750Y-145994000D01*
X267591858Y-145992826D01*
X267568197Y-145989316D01*
X267544993Y-145983504D01*
X267522471Y-145975446D01*
X267500847Y-145965218D01*
X267480330Y-145952921D01*
X267461117Y-145938671D01*
X267443393Y-145922607D01*
X267427329Y-145904883D01*
X267413079Y-145885670D01*
X267400782Y-145865153D01*
X267390554Y-145843529D01*
X267382496Y-145821007D01*
X267376684Y-145797803D01*
X267373174Y-145774142D01*
X267372000Y-145750250D01*
X267372000Y-145262750D01*
X267373174Y-145238858D01*
X267376684Y-145215197D01*
X267382496Y-145191993D01*
X267390554Y-145169471D01*
X267400782Y-145147847D01*
X267413079Y-145127330D01*
X267427329Y-145108117D01*
X267443393Y-145090393D01*
X267461117Y-145074329D01*
X267480330Y-145060079D01*
X267500847Y-145047782D01*
X267522471Y-145037554D01*
X267544993Y-145029496D01*
X267568197Y-145023684D01*
X267591858Y-145020174D01*
X267615750Y-145019000D01*
X268528250Y-145019000D01*
X268552142Y-145020174D01*
G37*
G36*
X265250142Y-136227174D02*
G01*
X265273803Y-136230684D01*
X265297007Y-136236496D01*
X265319529Y-136244554D01*
X265341153Y-136254782D01*
X265361670Y-136267079D01*
X265380883Y-136281329D01*
X265398607Y-136297393D01*
X265414671Y-136315117D01*
X265428921Y-136334330D01*
X265441218Y-136354847D01*
X265451446Y-136376471D01*
X265459504Y-136398993D01*
X265465316Y-136422197D01*
X265468826Y-136445858D01*
X265470000Y-136469750D01*
X265470000Y-136957250D01*
X265468826Y-136981142D01*
X265465316Y-137004803D01*
X265459504Y-137028007D01*
X265451446Y-137050529D01*
X265441218Y-137072153D01*
X265428921Y-137092670D01*
X265414671Y-137111883D01*
X265398607Y-137129607D01*
X265380883Y-137145671D01*
X265361670Y-137159921D01*
X265341153Y-137172218D01*
X265319529Y-137182446D01*
X265297007Y-137190504D01*
X265273803Y-137196316D01*
X265250142Y-137199826D01*
X265226250Y-137201000D01*
X264313750Y-137201000D01*
X264289858Y-137199826D01*
X264266197Y-137196316D01*
X264242993Y-137190504D01*
X264220471Y-137182446D01*
X264198847Y-137172218D01*
X264178330Y-137159921D01*
X264159117Y-137145671D01*
X264141393Y-137129607D01*
X264125329Y-137111883D01*
X264111079Y-137092670D01*
X264098782Y-137072153D01*
X264088554Y-137050529D01*
X264080496Y-137028007D01*
X264074684Y-137004803D01*
X264071174Y-136981142D01*
X264070000Y-136957250D01*
X264070000Y-136469750D01*
X264071174Y-136445858D01*
X264074684Y-136422197D01*
X264080496Y-136398993D01*
X264088554Y-136376471D01*
X264098782Y-136354847D01*
X264111079Y-136334330D01*
X264125329Y-136315117D01*
X264141393Y-136297393D01*
X264159117Y-136281329D01*
X264178330Y-136267079D01*
X264198847Y-136254782D01*
X264220471Y-136244554D01*
X264242993Y-136236496D01*
X264266197Y-136230684D01*
X264289858Y-136227174D01*
X264313750Y-136226000D01*
X265226250Y-136226000D01*
X265250142Y-136227174D01*
G37*
G36*
X265250142Y-134352174D02*
G01*
X265273803Y-134355684D01*
X265297007Y-134361496D01*
X265319529Y-134369554D01*
X265341153Y-134379782D01*
X265361670Y-134392079D01*
X265380883Y-134406329D01*
X265398607Y-134422393D01*
X265414671Y-134440117D01*
X265428921Y-134459330D01*
X265441218Y-134479847D01*
X265451446Y-134501471D01*
X265459504Y-134523993D01*
X265465316Y-134547197D01*
X265468826Y-134570858D01*
X265470000Y-134594750D01*
X265470000Y-135082250D01*
X265468826Y-135106142D01*
X265465316Y-135129803D01*
X265459504Y-135153007D01*
X265451446Y-135175529D01*
X265441218Y-135197153D01*
X265428921Y-135217670D01*
X265414671Y-135236883D01*
X265398607Y-135254607D01*
X265380883Y-135270671D01*
X265361670Y-135284921D01*
X265341153Y-135297218D01*
X265319529Y-135307446D01*
X265297007Y-135315504D01*
X265273803Y-135321316D01*
X265250142Y-135324826D01*
X265226250Y-135326000D01*
X264313750Y-135326000D01*
X264289858Y-135324826D01*
X264266197Y-135321316D01*
X264242993Y-135315504D01*
X264220471Y-135307446D01*
X264198847Y-135297218D01*
X264178330Y-135284921D01*
X264159117Y-135270671D01*
X264141393Y-135254607D01*
X264125329Y-135236883D01*
X264111079Y-135217670D01*
X264098782Y-135197153D01*
X264088554Y-135175529D01*
X264080496Y-135153007D01*
X264074684Y-135129803D01*
X264071174Y-135106142D01*
X264070000Y-135082250D01*
X264070000Y-134594750D01*
X264071174Y-134570858D01*
X264074684Y-134547197D01*
X264080496Y-134523993D01*
X264088554Y-134501471D01*
X264098782Y-134479847D01*
X264111079Y-134459330D01*
X264125329Y-134440117D01*
X264141393Y-134422393D01*
X264159117Y-134406329D01*
X264178330Y-134392079D01*
X264198847Y-134379782D01*
X264220471Y-134369554D01*
X264242993Y-134361496D01*
X264266197Y-134355684D01*
X264289858Y-134352174D01*
X264313750Y-134351000D01*
X265226250Y-134351000D01*
X265250142Y-134352174D01*
G37*
G36*
X252550142Y-145625174D02*
G01*
X252573803Y-145628684D01*
X252597007Y-145634496D01*
X252619529Y-145642554D01*
X252641153Y-145652782D01*
X252661670Y-145665079D01*
X252680883Y-145679329D01*
X252698607Y-145695393D01*
X252714671Y-145713117D01*
X252728921Y-145732330D01*
X252741218Y-145752847D01*
X252751446Y-145774471D01*
X252759504Y-145796993D01*
X252765316Y-145820197D01*
X252768826Y-145843858D01*
X252770000Y-145867750D01*
X252770000Y-146355250D01*
X252768826Y-146379142D01*
X252765316Y-146402803D01*
X252759504Y-146426007D01*
X252751446Y-146448529D01*
X252741218Y-146470153D01*
X252728921Y-146490670D01*
X252714671Y-146509883D01*
X252698607Y-146527607D01*
X252680883Y-146543671D01*
X252661670Y-146557921D01*
X252641153Y-146570218D01*
X252619529Y-146580446D01*
X252597007Y-146588504D01*
X252573803Y-146594316D01*
X252550142Y-146597826D01*
X252526250Y-146599000D01*
X251613750Y-146599000D01*
X251589858Y-146597826D01*
X251566197Y-146594316D01*
X251542993Y-146588504D01*
X251520471Y-146580446D01*
X251498847Y-146570218D01*
X251478330Y-146557921D01*
X251459117Y-146543671D01*
X251441393Y-146527607D01*
X251425329Y-146509883D01*
X251411079Y-146490670D01*
X251398782Y-146470153D01*
X251388554Y-146448529D01*
X251380496Y-146426007D01*
X251374684Y-146402803D01*
X251371174Y-146379142D01*
X251370000Y-146355250D01*
X251370000Y-145867750D01*
X251371174Y-145843858D01*
X251374684Y-145820197D01*
X251380496Y-145796993D01*
X251388554Y-145774471D01*
X251398782Y-145752847D01*
X251411079Y-145732330D01*
X251425329Y-145713117D01*
X251441393Y-145695393D01*
X251459117Y-145679329D01*
X251478330Y-145665079D01*
X251498847Y-145652782D01*
X251520471Y-145642554D01*
X251542993Y-145634496D01*
X251566197Y-145628684D01*
X251589858Y-145625174D01*
X251613750Y-145624000D01*
X252526250Y-145624000D01*
X252550142Y-145625174D01*
G37*
G36*
X252550142Y-143750174D02*
G01*
X252573803Y-143753684D01*
X252597007Y-143759496D01*
X252619529Y-143767554D01*
X252641153Y-143777782D01*
X252661670Y-143790079D01*
X252680883Y-143804329D01*
X252698607Y-143820393D01*
X252714671Y-143838117D01*
X252728921Y-143857330D01*
X252741218Y-143877847D01*
X252751446Y-143899471D01*
X252759504Y-143921993D01*
X252765316Y-143945197D01*
X252768826Y-143968858D01*
X252770000Y-143992750D01*
X252770000Y-144480250D01*
X252768826Y-144504142D01*
X252765316Y-144527803D01*
X252759504Y-144551007D01*
X252751446Y-144573529D01*
X252741218Y-144595153D01*
X252728921Y-144615670D01*
X252714671Y-144634883D01*
X252698607Y-144652607D01*
X252680883Y-144668671D01*
X252661670Y-144682921D01*
X252641153Y-144695218D01*
X252619529Y-144705446D01*
X252597007Y-144713504D01*
X252573803Y-144719316D01*
X252550142Y-144722826D01*
X252526250Y-144724000D01*
X251613750Y-144724000D01*
X251589858Y-144722826D01*
X251566197Y-144719316D01*
X251542993Y-144713504D01*
X251520471Y-144705446D01*
X251498847Y-144695218D01*
X251478330Y-144682921D01*
X251459117Y-144668671D01*
X251441393Y-144652607D01*
X251425329Y-144634883D01*
X251411079Y-144615670D01*
X251398782Y-144595153D01*
X251388554Y-144573529D01*
X251380496Y-144551007D01*
X251374684Y-144527803D01*
X251371174Y-144504142D01*
X251370000Y-144480250D01*
X251370000Y-143992750D01*
X251371174Y-143968858D01*
X251374684Y-143945197D01*
X251380496Y-143921993D01*
X251388554Y-143899471D01*
X251398782Y-143877847D01*
X251411079Y-143857330D01*
X251425329Y-143838117D01*
X251441393Y-143820393D01*
X251459117Y-143804329D01*
X251478330Y-143790079D01*
X251498847Y-143777782D01*
X251520471Y-143767554D01*
X251542993Y-143759496D01*
X251566197Y-143753684D01*
X251589858Y-143750174D01*
X251613750Y-143749000D01*
X252526250Y-143749000D01*
X252550142Y-143750174D01*
G37*
G36*
X259770142Y-127361174D02*
G01*
X259793803Y-127364684D01*
X259817007Y-127370496D01*
X259839529Y-127378554D01*
X259861153Y-127388782D01*
X259881670Y-127401079D01*
X259900883Y-127415329D01*
X259918607Y-127431393D01*
X259934671Y-127449117D01*
X259948921Y-127468330D01*
X259961218Y-127488847D01*
X259971446Y-127510471D01*
X259979504Y-127532993D01*
X259985316Y-127556197D01*
X259988826Y-127579858D01*
X259990000Y-127603750D01*
X259990000Y-128091250D01*
X259988826Y-128115142D01*
X259985316Y-128138803D01*
X259979504Y-128162007D01*
X259971446Y-128184529D01*
X259961218Y-128206153D01*
X259948921Y-128226670D01*
X259934671Y-128245883D01*
X259918607Y-128263607D01*
X259900883Y-128279671D01*
X259881670Y-128293921D01*
X259861153Y-128306218D01*
X259839529Y-128316446D01*
X259817007Y-128324504D01*
X259793803Y-128330316D01*
X259770142Y-128333826D01*
X259746250Y-128335000D01*
X258833750Y-128335000D01*
X258809858Y-128333826D01*
X258786197Y-128330316D01*
X258762993Y-128324504D01*
X258740471Y-128316446D01*
X258718847Y-128306218D01*
X258698330Y-128293921D01*
X258679117Y-128279671D01*
X258661393Y-128263607D01*
X258645329Y-128245883D01*
X258631079Y-128226670D01*
X258618782Y-128206153D01*
X258608554Y-128184529D01*
X258600496Y-128162007D01*
X258594684Y-128138803D01*
X258591174Y-128115142D01*
X258590000Y-128091250D01*
X258590000Y-127603750D01*
X258591174Y-127579858D01*
X258594684Y-127556197D01*
X258600496Y-127532993D01*
X258608554Y-127510471D01*
X258618782Y-127488847D01*
X258631079Y-127468330D01*
X258645329Y-127449117D01*
X258661393Y-127431393D01*
X258679117Y-127415329D01*
X258698330Y-127401079D01*
X258718847Y-127388782D01*
X258740471Y-127378554D01*
X258762993Y-127370496D01*
X258786197Y-127364684D01*
X258809858Y-127361174D01*
X258833750Y-127360000D01*
X259746250Y-127360000D01*
X259770142Y-127361174D01*
G37*
G36*
X259770142Y-125486174D02*
G01*
X259793803Y-125489684D01*
X259817007Y-125495496D01*
X259839529Y-125503554D01*
X259861153Y-125513782D01*
X259881670Y-125526079D01*
X259900883Y-125540329D01*
X259918607Y-125556393D01*
X259934671Y-125574117D01*
X259948921Y-125593330D01*
X259961218Y-125613847D01*
X259971446Y-125635471D01*
X259979504Y-125657993D01*
X259985316Y-125681197D01*
X259988826Y-125704858D01*
X259990000Y-125728750D01*
X259990000Y-126216250D01*
X259988826Y-126240142D01*
X259985316Y-126263803D01*
X259979504Y-126287007D01*
X259971446Y-126309529D01*
X259961218Y-126331153D01*
X259948921Y-126351670D01*
X259934671Y-126370883D01*
X259918607Y-126388607D01*
X259900883Y-126404671D01*
X259881670Y-126418921D01*
X259861153Y-126431218D01*
X259839529Y-126441446D01*
X259817007Y-126449504D01*
X259793803Y-126455316D01*
X259770142Y-126458826D01*
X259746250Y-126460000D01*
X258833750Y-126460000D01*
X258809858Y-126458826D01*
X258786197Y-126455316D01*
X258762993Y-126449504D01*
X258740471Y-126441446D01*
X258718847Y-126431218D01*
X258698330Y-126418921D01*
X258679117Y-126404671D01*
X258661393Y-126388607D01*
X258645329Y-126370883D01*
X258631079Y-126351670D01*
X258618782Y-126331153D01*
X258608554Y-126309529D01*
X258600496Y-126287007D01*
X258594684Y-126263803D01*
X258591174Y-126240142D01*
X258590000Y-126216250D01*
X258590000Y-125728750D01*
X258591174Y-125704858D01*
X258594684Y-125681197D01*
X258600496Y-125657993D01*
X258608554Y-125635471D01*
X258618782Y-125613847D01*
X258631079Y-125593330D01*
X258645329Y-125574117D01*
X258661393Y-125556393D01*
X258679117Y-125540329D01*
X258698330Y-125526079D01*
X258718847Y-125513782D01*
X258740471Y-125503554D01*
X258762993Y-125495496D01*
X258786197Y-125489684D01*
X258809858Y-125486174D01*
X258833750Y-125485000D01*
X259746250Y-125485000D01*
X259770142Y-125486174D01*
G37*
G36*
X271854142Y-141053174D02*
G01*
X271877803Y-141056684D01*
X271901007Y-141062496D01*
X271923529Y-141070554D01*
X271945153Y-141080782D01*
X271965670Y-141093079D01*
X271984883Y-141107329D01*
X272002607Y-141123393D01*
X272018671Y-141141117D01*
X272032921Y-141160330D01*
X272045218Y-141180847D01*
X272055446Y-141202471D01*
X272063504Y-141224993D01*
X272069316Y-141248197D01*
X272072826Y-141271858D01*
X272074000Y-141295750D01*
X272074000Y-141783250D01*
X272072826Y-141807142D01*
X272069316Y-141830803D01*
X272063504Y-141854007D01*
X272055446Y-141876529D01*
X272045218Y-141898153D01*
X272032921Y-141918670D01*
X272018671Y-141937883D01*
X272002607Y-141955607D01*
X271984883Y-141971671D01*
X271965670Y-141985921D01*
X271945153Y-141998218D01*
X271923529Y-142008446D01*
X271901007Y-142016504D01*
X271877803Y-142022316D01*
X271854142Y-142025826D01*
X271830250Y-142027000D01*
X270917750Y-142027000D01*
X270893858Y-142025826D01*
X270870197Y-142022316D01*
X270846993Y-142016504D01*
X270824471Y-142008446D01*
X270802847Y-141998218D01*
X270782330Y-141985921D01*
X270763117Y-141971671D01*
X270745393Y-141955607D01*
X270729329Y-141937883D01*
X270715079Y-141918670D01*
X270702782Y-141898153D01*
X270692554Y-141876529D01*
X270684496Y-141854007D01*
X270678684Y-141830803D01*
X270675174Y-141807142D01*
X270674000Y-141783250D01*
X270674000Y-141295750D01*
X270675174Y-141271858D01*
X270678684Y-141248197D01*
X270684496Y-141224993D01*
X270692554Y-141202471D01*
X270702782Y-141180847D01*
X270715079Y-141160330D01*
X270729329Y-141141117D01*
X270745393Y-141123393D01*
X270763117Y-141107329D01*
X270782330Y-141093079D01*
X270802847Y-141080782D01*
X270824471Y-141070554D01*
X270846993Y-141062496D01*
X270870197Y-141056684D01*
X270893858Y-141053174D01*
X270917750Y-141052000D01*
X271830250Y-141052000D01*
X271854142Y-141053174D01*
G37*
G36*
X271854142Y-139178174D02*
G01*
X271877803Y-139181684D01*
X271901007Y-139187496D01*
X271923529Y-139195554D01*
X271945153Y-139205782D01*
X271965670Y-139218079D01*
X271984883Y-139232329D01*
X272002607Y-139248393D01*
X272018671Y-139266117D01*
X272032921Y-139285330D01*
X272045218Y-139305847D01*
X272055446Y-139327471D01*
X272063504Y-139349993D01*
X272069316Y-139373197D01*
X272072826Y-139396858D01*
X272074000Y-139420750D01*
X272074000Y-139908250D01*
X272072826Y-139932142D01*
X272069316Y-139955803D01*
X272063504Y-139979007D01*
X272055446Y-140001529D01*
X272045218Y-140023153D01*
X272032921Y-140043670D01*
X272018671Y-140062883D01*
X272002607Y-140080607D01*
X271984883Y-140096671D01*
X271965670Y-140110921D01*
X271945153Y-140123218D01*
X271923529Y-140133446D01*
X271901007Y-140141504D01*
X271877803Y-140147316D01*
X271854142Y-140150826D01*
X271830250Y-140152000D01*
X270917750Y-140152000D01*
X270893858Y-140150826D01*
X270870197Y-140147316D01*
X270846993Y-140141504D01*
X270824471Y-140133446D01*
X270802847Y-140123218D01*
X270782330Y-140110921D01*
X270763117Y-140096671D01*
X270745393Y-140080607D01*
X270729329Y-140062883D01*
X270715079Y-140043670D01*
X270702782Y-140023153D01*
X270692554Y-140001529D01*
X270684496Y-139979007D01*
X270678684Y-139955803D01*
X270675174Y-139932142D01*
X270674000Y-139908250D01*
X270674000Y-139420750D01*
X270675174Y-139396858D01*
X270678684Y-139373197D01*
X270684496Y-139349993D01*
X270692554Y-139327471D01*
X270702782Y-139305847D01*
X270715079Y-139285330D01*
X270729329Y-139266117D01*
X270745393Y-139248393D01*
X270763117Y-139232329D01*
X270782330Y-139218079D01*
X270802847Y-139205782D01*
X270824471Y-139195554D01*
X270846993Y-139187496D01*
X270870197Y-139181684D01*
X270893858Y-139178174D01*
X270917750Y-139177000D01*
X271830250Y-139177000D01*
X271854142Y-139178174D01*
G37*
G36*
X268806142Y-130385174D02*
G01*
X268829803Y-130388684D01*
X268853007Y-130394496D01*
X268875529Y-130402554D01*
X268897153Y-130412782D01*
X268917670Y-130425079D01*
X268936883Y-130439329D01*
X268954607Y-130455393D01*
X268970671Y-130473117D01*
X268984921Y-130492330D01*
X268997218Y-130512847D01*
X269007446Y-130534471D01*
X269015504Y-130556993D01*
X269021316Y-130580197D01*
X269024826Y-130603858D01*
X269026000Y-130627750D01*
X269026000Y-131115250D01*
X269024826Y-131139142D01*
X269021316Y-131162803D01*
X269015504Y-131186007D01*
X269007446Y-131208529D01*
X268997218Y-131230153D01*
X268984921Y-131250670D01*
X268970671Y-131269883D01*
X268954607Y-131287607D01*
X268936883Y-131303671D01*
X268917670Y-131317921D01*
X268897153Y-131330218D01*
X268875529Y-131340446D01*
X268853007Y-131348504D01*
X268829803Y-131354316D01*
X268806142Y-131357826D01*
X268782250Y-131359000D01*
X267869750Y-131359000D01*
X267845858Y-131357826D01*
X267822197Y-131354316D01*
X267798993Y-131348504D01*
X267776471Y-131340446D01*
X267754847Y-131330218D01*
X267734330Y-131317921D01*
X267715117Y-131303671D01*
X267697393Y-131287607D01*
X267681329Y-131269883D01*
X267667079Y-131250670D01*
X267654782Y-131230153D01*
X267644554Y-131208529D01*
X267636496Y-131186007D01*
X267630684Y-131162803D01*
X267627174Y-131139142D01*
X267626000Y-131115250D01*
X267626000Y-130627750D01*
X267627174Y-130603858D01*
X267630684Y-130580197D01*
X267636496Y-130556993D01*
X267644554Y-130534471D01*
X267654782Y-130512847D01*
X267667079Y-130492330D01*
X267681329Y-130473117D01*
X267697393Y-130455393D01*
X267715117Y-130439329D01*
X267734330Y-130425079D01*
X267754847Y-130412782D01*
X267776471Y-130402554D01*
X267798993Y-130394496D01*
X267822197Y-130388684D01*
X267845858Y-130385174D01*
X267869750Y-130384000D01*
X268782250Y-130384000D01*
X268806142Y-130385174D01*
G37*
G36*
X268806142Y-128510174D02*
G01*
X268829803Y-128513684D01*
X268853007Y-128519496D01*
X268875529Y-128527554D01*
X268897153Y-128537782D01*
X268917670Y-128550079D01*
X268936883Y-128564329D01*
X268954607Y-128580393D01*
X268970671Y-128598117D01*
X268984921Y-128617330D01*
X268997218Y-128637847D01*
X269007446Y-128659471D01*
X269015504Y-128681993D01*
X269021316Y-128705197D01*
X269024826Y-128728858D01*
X269026000Y-128752750D01*
X269026000Y-129240250D01*
X269024826Y-129264142D01*
X269021316Y-129287803D01*
X269015504Y-129311007D01*
X269007446Y-129333529D01*
X268997218Y-129355153D01*
X268984921Y-129375670D01*
X268970671Y-129394883D01*
X268954607Y-129412607D01*
X268936883Y-129428671D01*
X268917670Y-129442921D01*
X268897153Y-129455218D01*
X268875529Y-129465446D01*
X268853007Y-129473504D01*
X268829803Y-129479316D01*
X268806142Y-129482826D01*
X268782250Y-129484000D01*
X267869750Y-129484000D01*
X267845858Y-129482826D01*
X267822197Y-129479316D01*
X267798993Y-129473504D01*
X267776471Y-129465446D01*
X267754847Y-129455218D01*
X267734330Y-129442921D01*
X267715117Y-129428671D01*
X267697393Y-129412607D01*
X267681329Y-129394883D01*
X267667079Y-129375670D01*
X267654782Y-129355153D01*
X267644554Y-129333529D01*
X267636496Y-129311007D01*
X267630684Y-129287803D01*
X267627174Y-129264142D01*
X267626000Y-129240250D01*
X267626000Y-128752750D01*
X267627174Y-128728858D01*
X267630684Y-128705197D01*
X267636496Y-128681993D01*
X267644554Y-128659471D01*
X267654782Y-128637847D01*
X267667079Y-128617330D01*
X267681329Y-128598117D01*
X267697393Y-128580393D01*
X267715117Y-128564329D01*
X267734330Y-128550079D01*
X267754847Y-128537782D01*
X267776471Y-128527554D01*
X267798993Y-128519496D01*
X267822197Y-128513684D01*
X267845858Y-128510174D01*
X267869750Y-128509000D01*
X268782250Y-128509000D01*
X268806142Y-128510174D01*
G37*
G36*
X258830142Y-138881174D02*
G01*
X258853803Y-138884684D01*
X258877007Y-138890496D01*
X258899529Y-138898554D01*
X258921153Y-138908782D01*
X258941670Y-138921079D01*
X258960883Y-138935329D01*
X258978607Y-138951393D01*
X258994671Y-138969117D01*
X259008921Y-138988330D01*
X259021218Y-139008847D01*
X259031446Y-139030471D01*
X259039504Y-139052993D01*
X259045316Y-139076197D01*
X259048826Y-139099858D01*
X259050000Y-139123750D01*
X259050000Y-139611250D01*
X259048826Y-139635142D01*
X259045316Y-139658803D01*
X259039504Y-139682007D01*
X259031446Y-139704529D01*
X259021218Y-139726153D01*
X259008921Y-139746670D01*
X258994671Y-139765883D01*
X258978607Y-139783607D01*
X258960883Y-139799671D01*
X258941670Y-139813921D01*
X258921153Y-139826218D01*
X258899529Y-139836446D01*
X258877007Y-139844504D01*
X258853803Y-139850316D01*
X258830142Y-139853826D01*
X258806250Y-139855000D01*
X257893750Y-139855000D01*
X257869858Y-139853826D01*
X257846197Y-139850316D01*
X257822993Y-139844504D01*
X257800471Y-139836446D01*
X257778847Y-139826218D01*
X257758330Y-139813921D01*
X257739117Y-139799671D01*
X257721393Y-139783607D01*
X257705329Y-139765883D01*
X257691079Y-139746670D01*
X257678782Y-139726153D01*
X257668554Y-139704529D01*
X257660496Y-139682007D01*
X257654684Y-139658803D01*
X257651174Y-139635142D01*
X257650000Y-139611250D01*
X257650000Y-139123750D01*
X257651174Y-139099858D01*
X257654684Y-139076197D01*
X257660496Y-139052993D01*
X257668554Y-139030471D01*
X257678782Y-139008847D01*
X257691079Y-138988330D01*
X257705329Y-138969117D01*
X257721393Y-138951393D01*
X257739117Y-138935329D01*
X257758330Y-138921079D01*
X257778847Y-138908782D01*
X257800471Y-138898554D01*
X257822993Y-138890496D01*
X257846197Y-138884684D01*
X257869858Y-138881174D01*
X257893750Y-138880000D01*
X258806250Y-138880000D01*
X258830142Y-138881174D01*
G37*
G36*
X258830142Y-137006174D02*
G01*
X258853803Y-137009684D01*
X258877007Y-137015496D01*
X258899529Y-137023554D01*
X258921153Y-137033782D01*
X258941670Y-137046079D01*
X258960883Y-137060329D01*
X258978607Y-137076393D01*
X258994671Y-137094117D01*
X259008921Y-137113330D01*
X259021218Y-137133847D01*
X259031446Y-137155471D01*
X259039504Y-137177993D01*
X259045316Y-137201197D01*
X259048826Y-137224858D01*
X259050000Y-137248750D01*
X259050000Y-137736250D01*
X259048826Y-137760142D01*
X259045316Y-137783803D01*
X259039504Y-137807007D01*
X259031446Y-137829529D01*
X259021218Y-137851153D01*
X259008921Y-137871670D01*
X258994671Y-137890883D01*
X258978607Y-137908607D01*
X258960883Y-137924671D01*
X258941670Y-137938921D01*
X258921153Y-137951218D01*
X258899529Y-137961446D01*
X258877007Y-137969504D01*
X258853803Y-137975316D01*
X258830142Y-137978826D01*
X258806250Y-137980000D01*
X257893750Y-137980000D01*
X257869858Y-137978826D01*
X257846197Y-137975316D01*
X257822993Y-137969504D01*
X257800471Y-137961446D01*
X257778847Y-137951218D01*
X257758330Y-137938921D01*
X257739117Y-137924671D01*
X257721393Y-137908607D01*
X257705329Y-137890883D01*
X257691079Y-137871670D01*
X257678782Y-137851153D01*
X257668554Y-137829529D01*
X257660496Y-137807007D01*
X257654684Y-137783803D01*
X257651174Y-137760142D01*
X257650000Y-137736250D01*
X257650000Y-137248750D01*
X257651174Y-137224858D01*
X257654684Y-137201197D01*
X257660496Y-137177993D01*
X257668554Y-137155471D01*
X257678782Y-137133847D01*
X257691079Y-137113330D01*
X257705329Y-137094117D01*
X257721393Y-137076393D01*
X257739117Y-137060329D01*
X257758330Y-137046079D01*
X257778847Y-137033782D01*
X257800471Y-137023554D01*
X257822993Y-137015496D01*
X257846197Y-137009684D01*
X257869858Y-137006174D01*
X257893750Y-137005000D01*
X258806250Y-137005000D01*
X258830142Y-137006174D01*
G37*
M02*
