G04 #@! TF.GenerationSoftware,KiCad,Pcbnew,(5.1.5)-3*
G04 #@! TF.CreationDate,2020-10-30T12:58:57+01:00*
G04 #@! TF.ProjectId,relais_hat,72656c61-6973-45f6-9861-742e6b696361,rev?*
G04 #@! TF.SameCoordinates,Original*
G04 #@! TF.FileFunction,Legend,Bot*
G04 #@! TF.FilePolarity,Positive*
%FSLAX46Y46*%
G04 Gerber Fmt 4.6, Leading zero omitted, Abs format (unit mm)*
G04 Created by KiCad (PCBNEW (5.1.5)-3) date 2020-10-30 12:58:57*
%MOMM*%
%LPD*%
G04 APERTURE LIST*
%ADD10C,0.120000*%
%ADD11C,0.150000*%
G04 APERTURE END LIST*
D10*
X253400000Y-137240000D02*
X252070000Y-137240000D01*
X253400000Y-138570000D02*
X253400000Y-137240000D01*
X253400000Y-139840000D02*
X250740000Y-139840000D01*
X250740000Y-139840000D02*
X250740000Y-142440000D01*
X253400000Y-139840000D02*
X253400000Y-142440000D01*
X253400000Y-142440000D02*
X250740000Y-142440000D01*
X253400000Y-113110000D02*
X252070000Y-113110000D01*
X253400000Y-114440000D02*
X253400000Y-113110000D01*
X253400000Y-115710000D02*
X250740000Y-115710000D01*
X250740000Y-115710000D02*
X250740000Y-118310000D01*
X253400000Y-115710000D02*
X253400000Y-118310000D01*
X253400000Y-118310000D02*
X250740000Y-118310000D01*
X253400000Y-125810000D02*
X252070000Y-125810000D01*
X253400000Y-127140000D02*
X253400000Y-125810000D01*
X253400000Y-128410000D02*
X250740000Y-128410000D01*
X250740000Y-128410000D02*
X250740000Y-131010000D01*
X253400000Y-128410000D02*
X253400000Y-131010000D01*
X253400000Y-131010000D02*
X250740000Y-131010000D01*
X253400000Y-102950000D02*
X252070000Y-102950000D01*
X253400000Y-104280000D02*
X253400000Y-102950000D01*
X253400000Y-105550000D02*
X250740000Y-105550000D01*
X250740000Y-105550000D02*
X250740000Y-108150000D01*
X253400000Y-105550000D02*
X253400000Y-108150000D01*
X253400000Y-108150000D02*
X250740000Y-108150000D01*
X207052000Y-94568000D02*
X207052000Y-97168000D01*
X207052000Y-94568000D02*
X257972000Y-94568000D01*
X257972000Y-94568000D02*
X257972000Y-99768000D01*
X209652000Y-99768000D02*
X257972000Y-99768000D01*
X209652000Y-97168000D02*
X209652000Y-99768000D01*
X207052000Y-97168000D02*
X209652000Y-97168000D01*
X207052000Y-99768000D02*
X208382000Y-99768000D01*
X207052000Y-98438000D02*
X207052000Y-99768000D01*
X250860000Y-113110000D02*
X249530000Y-113110000D01*
X250860000Y-114440000D02*
X250860000Y-113110000D01*
X250860000Y-115710000D02*
X248200000Y-115710000D01*
X248200000Y-115710000D02*
X248200000Y-118310000D01*
X250860000Y-115710000D02*
X250860000Y-118310000D01*
X250860000Y-118310000D02*
X248200000Y-118310000D01*
X250860000Y-137240000D02*
X249530000Y-137240000D01*
X250860000Y-138570000D02*
X250860000Y-137240000D01*
X250860000Y-139840000D02*
X248200000Y-139840000D01*
X248200000Y-139840000D02*
X248200000Y-142440000D01*
X250860000Y-139840000D02*
X250860000Y-142440000D01*
X250860000Y-142440000D02*
X248200000Y-142440000D01*
X250860000Y-125810000D02*
X249530000Y-125810000D01*
X250860000Y-127140000D02*
X250860000Y-125810000D01*
X250860000Y-128410000D02*
X248200000Y-128410000D01*
X248200000Y-128410000D02*
X248200000Y-131010000D01*
X250860000Y-128410000D02*
X250860000Y-131010000D01*
X250860000Y-131010000D02*
X248200000Y-131010000D01*
X250860000Y-102950000D02*
X249530000Y-102950000D01*
X250860000Y-104280000D02*
X250860000Y-102950000D01*
X250860000Y-105550000D02*
X248200000Y-105550000D01*
X248200000Y-105550000D02*
X248200000Y-108150000D01*
X250860000Y-105550000D02*
X250860000Y-108150000D01*
X250860000Y-108150000D02*
X248200000Y-108150000D01*
X208830000Y-143590000D02*
X208830000Y-144920000D01*
X210160000Y-143590000D02*
X208830000Y-143590000D01*
X208830000Y-146190000D02*
X208830000Y-148790000D01*
X211430000Y-146190000D02*
X208830000Y-146190000D01*
X211430000Y-143590000D02*
X211430000Y-146190000D01*
X208830000Y-148790000D02*
X219110000Y-148790000D01*
X211430000Y-143590000D02*
X219110000Y-143590000D01*
X219110000Y-143590000D02*
X219110000Y-148790000D01*
D11*
X252879523Y-135692380D02*
X252879523Y-136406666D01*
X252927142Y-136549523D01*
X253022380Y-136644761D01*
X253165238Y-136692380D01*
X253260476Y-136692380D01*
X251879523Y-136692380D02*
X252450952Y-136692380D01*
X252165238Y-136692380D02*
X252165238Y-135692380D01*
X252260476Y-135835238D01*
X252355714Y-135930476D01*
X252450952Y-135978095D01*
X251308095Y-136120952D02*
X251403333Y-136073333D01*
X251450952Y-136025714D01*
X251498571Y-135930476D01*
X251498571Y-135882857D01*
X251450952Y-135787619D01*
X251403333Y-135740000D01*
X251308095Y-135692380D01*
X251117619Y-135692380D01*
X251022380Y-135740000D01*
X250974761Y-135787619D01*
X250927142Y-135882857D01*
X250927142Y-135930476D01*
X250974761Y-136025714D01*
X251022380Y-136073333D01*
X251117619Y-136120952D01*
X251308095Y-136120952D01*
X251403333Y-136168571D01*
X251450952Y-136216190D01*
X251498571Y-136311428D01*
X251498571Y-136501904D01*
X251450952Y-136597142D01*
X251403333Y-136644761D01*
X251308095Y-136692380D01*
X251117619Y-136692380D01*
X251022380Y-136644761D01*
X250974761Y-136597142D01*
X250927142Y-136501904D01*
X250927142Y-136311428D01*
X250974761Y-136216190D01*
X251022380Y-136168571D01*
X251117619Y-136120952D01*
X252879523Y-111562380D02*
X252879523Y-112276666D01*
X252927142Y-112419523D01*
X253022380Y-112514761D01*
X253165238Y-112562380D01*
X253260476Y-112562380D01*
X251879523Y-112562380D02*
X252450952Y-112562380D01*
X252165238Y-112562380D02*
X252165238Y-111562380D01*
X252260476Y-111705238D01*
X252355714Y-111800476D01*
X252450952Y-111848095D01*
X251546190Y-111562380D02*
X250879523Y-111562380D01*
X251308095Y-112562380D01*
X252879523Y-124262380D02*
X252879523Y-124976666D01*
X252927142Y-125119523D01*
X253022380Y-125214761D01*
X253165238Y-125262380D01*
X253260476Y-125262380D01*
X251879523Y-125262380D02*
X252450952Y-125262380D01*
X252165238Y-125262380D02*
X252165238Y-124262380D01*
X252260476Y-124405238D01*
X252355714Y-124500476D01*
X252450952Y-124548095D01*
X251022380Y-124262380D02*
X251212857Y-124262380D01*
X251308095Y-124310000D01*
X251355714Y-124357619D01*
X251450952Y-124500476D01*
X251498571Y-124690952D01*
X251498571Y-125071904D01*
X251450952Y-125167142D01*
X251403333Y-125214761D01*
X251308095Y-125262380D01*
X251117619Y-125262380D01*
X251022380Y-125214761D01*
X250974761Y-125167142D01*
X250927142Y-125071904D01*
X250927142Y-124833809D01*
X250974761Y-124738571D01*
X251022380Y-124690952D01*
X251117619Y-124643333D01*
X251308095Y-124643333D01*
X251403333Y-124690952D01*
X251450952Y-124738571D01*
X251498571Y-124833809D01*
X252879523Y-101402380D02*
X252879523Y-102116666D01*
X252927142Y-102259523D01*
X253022380Y-102354761D01*
X253165238Y-102402380D01*
X253260476Y-102402380D01*
X251879523Y-102402380D02*
X252450952Y-102402380D01*
X252165238Y-102402380D02*
X252165238Y-101402380D01*
X252260476Y-101545238D01*
X252355714Y-101640476D01*
X252450952Y-101688095D01*
X250974761Y-101402380D02*
X251450952Y-101402380D01*
X251498571Y-101878571D01*
X251450952Y-101830952D01*
X251355714Y-101783333D01*
X251117619Y-101783333D01*
X251022380Y-101830952D01*
X250974761Y-101878571D01*
X250927142Y-101973809D01*
X250927142Y-102211904D01*
X250974761Y-102307142D01*
X251022380Y-102354761D01*
X251117619Y-102402380D01*
X251355714Y-102402380D01*
X251450952Y-102354761D01*
X251498571Y-102307142D01*
X207608095Y-101098380D02*
X207608095Y-100098380D01*
X207227142Y-100098380D01*
X207131904Y-100146000D01*
X207084285Y-100193619D01*
X207036666Y-100288857D01*
X207036666Y-100431714D01*
X207084285Y-100526952D01*
X207131904Y-100574571D01*
X207227142Y-100622190D01*
X207608095Y-100622190D01*
X206084285Y-101098380D02*
X206655714Y-101098380D01*
X206370000Y-101098380D02*
X206370000Y-100098380D01*
X206465238Y-100241238D01*
X206560476Y-100336476D01*
X206655714Y-100384095D01*
X250339523Y-111562380D02*
X250339523Y-112276666D01*
X250387142Y-112419523D01*
X250482380Y-112514761D01*
X250625238Y-112562380D01*
X250720476Y-112562380D01*
X249339523Y-112562380D02*
X249910952Y-112562380D01*
X249625238Y-112562380D02*
X249625238Y-111562380D01*
X249720476Y-111705238D01*
X249815714Y-111800476D01*
X249910952Y-111848095D01*
X248387142Y-112562380D02*
X248958571Y-112562380D01*
X248672857Y-112562380D02*
X248672857Y-111562380D01*
X248768095Y-111705238D01*
X248863333Y-111800476D01*
X248958571Y-111848095D01*
X250339523Y-135692380D02*
X250339523Y-136406666D01*
X250387142Y-136549523D01*
X250482380Y-136644761D01*
X250625238Y-136692380D01*
X250720476Y-136692380D01*
X249339523Y-136692380D02*
X249910952Y-136692380D01*
X249625238Y-136692380D02*
X249625238Y-135692380D01*
X249720476Y-135835238D01*
X249815714Y-135930476D01*
X249910952Y-135978095D01*
X248720476Y-135692380D02*
X248625238Y-135692380D01*
X248530000Y-135740000D01*
X248482380Y-135787619D01*
X248434761Y-135882857D01*
X248387142Y-136073333D01*
X248387142Y-136311428D01*
X248434761Y-136501904D01*
X248482380Y-136597142D01*
X248530000Y-136644761D01*
X248625238Y-136692380D01*
X248720476Y-136692380D01*
X248815714Y-136644761D01*
X248863333Y-136597142D01*
X248910952Y-136501904D01*
X248958571Y-136311428D01*
X248958571Y-136073333D01*
X248910952Y-135882857D01*
X248863333Y-135787619D01*
X248815714Y-135740000D01*
X248720476Y-135692380D01*
X249863333Y-124262380D02*
X249863333Y-124976666D01*
X249910952Y-125119523D01*
X250006190Y-125214761D01*
X250149047Y-125262380D01*
X250244285Y-125262380D01*
X249339523Y-125262380D02*
X249149047Y-125262380D01*
X249053809Y-125214761D01*
X249006190Y-125167142D01*
X248910952Y-125024285D01*
X248863333Y-124833809D01*
X248863333Y-124452857D01*
X248910952Y-124357619D01*
X248958571Y-124310000D01*
X249053809Y-124262380D01*
X249244285Y-124262380D01*
X249339523Y-124310000D01*
X249387142Y-124357619D01*
X249434761Y-124452857D01*
X249434761Y-124690952D01*
X249387142Y-124786190D01*
X249339523Y-124833809D01*
X249244285Y-124881428D01*
X249053809Y-124881428D01*
X248958571Y-124833809D01*
X248910952Y-124786190D01*
X248863333Y-124690952D01*
X249863333Y-101402380D02*
X249863333Y-102116666D01*
X249910952Y-102259523D01*
X250006190Y-102354761D01*
X250149047Y-102402380D01*
X250244285Y-102402380D01*
X249244285Y-101830952D02*
X249339523Y-101783333D01*
X249387142Y-101735714D01*
X249434761Y-101640476D01*
X249434761Y-101592857D01*
X249387142Y-101497619D01*
X249339523Y-101450000D01*
X249244285Y-101402380D01*
X249053809Y-101402380D01*
X248958571Y-101450000D01*
X248910952Y-101497619D01*
X248863333Y-101592857D01*
X248863333Y-101640476D01*
X248910952Y-101735714D01*
X248958571Y-101783333D01*
X249053809Y-101830952D01*
X249244285Y-101830952D01*
X249339523Y-101878571D01*
X249387142Y-101926190D01*
X249434761Y-102021428D01*
X249434761Y-102211904D01*
X249387142Y-102307142D01*
X249339523Y-102354761D01*
X249244285Y-102402380D01*
X249053809Y-102402380D01*
X248958571Y-102354761D01*
X248910952Y-102307142D01*
X248863333Y-102211904D01*
X248863333Y-102021428D01*
X248910952Y-101926190D01*
X248958571Y-101878571D01*
X249053809Y-101830952D01*
X207282380Y-145856666D02*
X207996666Y-145856666D01*
X208139523Y-145809047D01*
X208234761Y-145713809D01*
X208282380Y-145570952D01*
X208282380Y-145475714D01*
X207282380Y-146237619D02*
X207282380Y-146856666D01*
X207663333Y-146523333D01*
X207663333Y-146666190D01*
X207710952Y-146761428D01*
X207758571Y-146809047D01*
X207853809Y-146856666D01*
X208091904Y-146856666D01*
X208187142Y-146809047D01*
X208234761Y-146761428D01*
X208282380Y-146666190D01*
X208282380Y-146380476D01*
X208234761Y-146285238D01*
X208187142Y-146237619D01*
M02*
