G04 #@! TF.GenerationSoftware,KiCad,Pcbnew,5.1.6-c6e7f7d~87~ubuntu18.04.1*
G04 #@! TF.CreationDate,2020-09-01T14:20:24+02:00*
G04 #@! TF.ProjectId,relais_hat,72656c61-6973-45f6-9861-742e6b696361,rev?*
G04 #@! TF.SameCoordinates,Original*
G04 #@! TF.FileFunction,Legend,Top*
G04 #@! TF.FilePolarity,Positive*
%FSLAX46Y46*%
G04 Gerber Fmt 4.6, Leading zero omitted, Abs format (unit mm)*
G04 Created by KiCad (PCBNEW 5.1.6-c6e7f7d~87~ubuntu18.04.1) date 2020-09-01 14:20:24*
%MOMM*%
%LPD*%
G01*
G04 APERTURE LIST*
%ADD10C,0.120000*%
%ADD11C,0.127000*%
%ADD12C,0.150000*%
%ADD13C,0.015000*%
G04 APERTURE END LIST*
D10*
X267878000Y-97616000D02*
X265218000Y-97616000D01*
X267878000Y-100216000D02*
X267878000Y-97616000D01*
X265218000Y-100216000D02*
X265218000Y-97616000D01*
X267878000Y-100216000D02*
X265218000Y-100216000D01*
X267878000Y-101486000D02*
X267878000Y-102816000D01*
X267878000Y-102816000D02*
X266548000Y-102816000D01*
X241791000Y-144336000D02*
X241791000Y-148221000D01*
X241791000Y-148221000D02*
X244061000Y-148221000D01*
X244061000Y-148221000D02*
X244061000Y-144336000D01*
X239251000Y-144336000D02*
X239251000Y-148221000D01*
X239251000Y-148221000D02*
X241521000Y-148221000D01*
X241521000Y-148221000D02*
X241521000Y-144336000D01*
X234933000Y-144336000D02*
X234933000Y-148221000D01*
X234933000Y-148221000D02*
X237203000Y-148221000D01*
X237203000Y-148221000D02*
X237203000Y-144336000D01*
X232393000Y-144336000D02*
X232393000Y-148221000D01*
X232393000Y-148221000D02*
X234663000Y-148221000D01*
X234663000Y-148221000D02*
X234663000Y-144336000D01*
X278340000Y-104134000D02*
X278340000Y-101784000D01*
X278340000Y-97314000D02*
X278340000Y-99664000D01*
X272584437Y-97314000D02*
X278340000Y-97314000D01*
X272584437Y-104134000D02*
X278340000Y-104134000D01*
X271520000Y-103069563D02*
X271520000Y-101784000D01*
X271520000Y-98378437D02*
X271520000Y-99664000D01*
X271520000Y-98378437D02*
X272584437Y-97314000D01*
X271520000Y-103069563D02*
X272584437Y-104134000D01*
X270492500Y-98876500D02*
X271280000Y-98876500D01*
X270886250Y-98482750D02*
X270886250Y-99270250D01*
X264710000Y-119834000D02*
X267370000Y-119834000D01*
X264710000Y-114694000D02*
X264710000Y-119834000D01*
X267370000Y-114694000D02*
X267370000Y-119834000D01*
X264710000Y-114694000D02*
X267370000Y-114694000D01*
X264710000Y-113424000D02*
X264710000Y-112094000D01*
X264710000Y-112094000D02*
X266040000Y-112094000D01*
X262170000Y-119834000D02*
X264830000Y-119834000D01*
X262170000Y-114694000D02*
X262170000Y-119834000D01*
X264830000Y-114694000D02*
X264830000Y-119834000D01*
X262170000Y-114694000D02*
X264830000Y-114694000D01*
X262170000Y-113424000D02*
X262170000Y-112094000D01*
X262170000Y-112094000D02*
X263500000Y-112094000D01*
X259630000Y-119834000D02*
X262290000Y-119834000D01*
X259630000Y-114694000D02*
X259630000Y-119834000D01*
X262290000Y-114694000D02*
X262290000Y-119834000D01*
X259630000Y-114694000D02*
X262290000Y-114694000D01*
X259630000Y-113424000D02*
X259630000Y-112094000D01*
X259630000Y-112094000D02*
X260960000Y-112094000D01*
X284936000Y-137751000D02*
X274456000Y-137751000D01*
X274456000Y-137751000D02*
X274456000Y-106781000D01*
X274456000Y-106781000D02*
X284936000Y-106781000D01*
X273561662Y-116976000D02*
X273561662Y-116476000D01*
X273561662Y-116476000D02*
X273994675Y-116726000D01*
X273994675Y-116726000D02*
X273561662Y-116976000D01*
X260704000Y-134562000D02*
X260704000Y-133632000D01*
X260704000Y-131402000D02*
X260704000Y-132332000D01*
X260704000Y-131402000D02*
X258544000Y-131402000D01*
X260704000Y-134562000D02*
X259244000Y-134562000D01*
X274420000Y-148024000D02*
X274420000Y-147094000D01*
X274420000Y-144864000D02*
X274420000Y-145794000D01*
X274420000Y-144864000D02*
X272260000Y-144864000D01*
X274420000Y-148024000D02*
X272960000Y-148024000D01*
X271372000Y-137356000D02*
X271372000Y-136426000D01*
X271372000Y-134196000D02*
X271372000Y-135126000D01*
X271372000Y-134196000D02*
X269212000Y-134196000D01*
X271372000Y-137356000D02*
X269912000Y-137356000D01*
X258164000Y-144722000D02*
X258164000Y-143792000D01*
X258164000Y-141562000D02*
X258164000Y-142492000D01*
X258164000Y-141562000D02*
X256004000Y-141562000D01*
X258164000Y-144722000D02*
X256704000Y-144722000D01*
X261960000Y-125906000D02*
X259960000Y-125906000D01*
X259960000Y-125906000D02*
X259960000Y-129806000D01*
X261960000Y-125906000D02*
X261960000Y-129806000D01*
X275676000Y-139114000D02*
X273676000Y-139114000D01*
X273676000Y-139114000D02*
X273676000Y-143014000D01*
X275676000Y-139114000D02*
X275676000Y-143014000D01*
X272628000Y-128446000D02*
X270628000Y-128446000D01*
X270628000Y-128446000D02*
X270628000Y-132346000D01*
X272628000Y-128446000D02*
X272628000Y-132346000D01*
X261452000Y-136828000D02*
X259452000Y-136828000D01*
X259452000Y-136828000D02*
X259452000Y-140728000D01*
X261452000Y-136828000D02*
X261452000Y-140728000D01*
X253596000Y-125814000D02*
X253596000Y-126744000D01*
X253596000Y-128974000D02*
X253596000Y-128044000D01*
X253596000Y-128974000D02*
X255756000Y-128974000D01*
X253596000Y-125814000D02*
X255056000Y-125814000D01*
X267312000Y-139022000D02*
X267312000Y-139952000D01*
X267312000Y-142182000D02*
X267312000Y-141252000D01*
X267312000Y-142182000D02*
X269472000Y-142182000D01*
X267312000Y-139022000D02*
X268772000Y-139022000D01*
X264264000Y-128354000D02*
X264264000Y-129284000D01*
X264264000Y-131514000D02*
X264264000Y-130584000D01*
X264264000Y-131514000D02*
X266424000Y-131514000D01*
X264264000Y-128354000D02*
X265724000Y-128354000D01*
X253342000Y-136736000D02*
X253342000Y-137666000D01*
X253342000Y-139896000D02*
X253342000Y-138966000D01*
X253342000Y-139896000D02*
X255502000Y-139896000D01*
X253342000Y-136736000D02*
X254802000Y-136736000D01*
X255932000Y-133240578D02*
X255932000Y-132723422D01*
X257352000Y-133240578D02*
X257352000Y-132723422D01*
X269902000Y-146702578D02*
X269902000Y-146185422D01*
X271322000Y-146702578D02*
X271322000Y-146185422D01*
X266600000Y-136034578D02*
X266600000Y-135517422D01*
X268020000Y-136034578D02*
X268020000Y-135517422D01*
X253900000Y-145432578D02*
X253900000Y-144915422D01*
X255320000Y-145432578D02*
X255320000Y-144915422D01*
X245264000Y-146194578D02*
X245264000Y-145677422D01*
X246684000Y-146194578D02*
X246684000Y-145677422D01*
X247550000Y-146194578D02*
X247550000Y-145677422D01*
X248970000Y-146194578D02*
X248970000Y-145677422D01*
X227484000Y-146194578D02*
X227484000Y-145677422D01*
X228904000Y-146194578D02*
X228904000Y-145677422D01*
X229770000Y-146194578D02*
X229770000Y-145677422D01*
X231190000Y-146194578D02*
X231190000Y-145677422D01*
X254812000Y-132723422D02*
X254812000Y-133240578D01*
X253392000Y-132723422D02*
X253392000Y-133240578D01*
X268782000Y-146185422D02*
X268782000Y-146702578D01*
X267362000Y-146185422D02*
X267362000Y-146702578D01*
X265480000Y-135517422D02*
X265480000Y-136034578D01*
X264060000Y-135517422D02*
X264060000Y-136034578D01*
X252780000Y-144915422D02*
X252780000Y-145432578D01*
X251360000Y-144915422D02*
X251360000Y-145432578D01*
D11*
X210538000Y-123228000D02*
X210538000Y-142228000D01*
X210538000Y-142228000D02*
X226038000Y-142228000D01*
X226038000Y-142228000D02*
X226038000Y-123228000D01*
X226038000Y-123228000D02*
X210538000Y-123228000D01*
X229080000Y-123228000D02*
X229080000Y-142228000D01*
X229080000Y-142228000D02*
X244580000Y-142228000D01*
X244580000Y-142228000D02*
X244580000Y-123228000D01*
X244580000Y-123228000D02*
X229080000Y-123228000D01*
X229080000Y-101130000D02*
X229080000Y-120130000D01*
X229080000Y-120130000D02*
X244580000Y-120130000D01*
X244580000Y-120130000D02*
X244580000Y-101130000D01*
X244580000Y-101130000D02*
X229080000Y-101130000D01*
X210538000Y-100876000D02*
X210538000Y-119876000D01*
X210538000Y-119876000D02*
X226038000Y-119876000D01*
X226038000Y-119876000D02*
X226038000Y-100876000D01*
X226038000Y-100876000D02*
X210538000Y-100876000D01*
D10*
X201778000Y-141364000D02*
X201778000Y-131204000D01*
X200508000Y-141364000D02*
X208128000Y-141364000D01*
X208128000Y-141364000D02*
X208128000Y-131204000D01*
X208128000Y-131204000D02*
X200508000Y-131204000D01*
X200508000Y-131204000D02*
X200508000Y-141364000D01*
X201778000Y-131458000D02*
X201778000Y-121298000D01*
X200508000Y-131458000D02*
X208128000Y-131458000D01*
X208128000Y-131458000D02*
X208128000Y-121298000D01*
X208128000Y-121298000D02*
X200508000Y-121298000D01*
X200508000Y-121298000D02*
X200508000Y-131458000D01*
X201778000Y-121552000D02*
X201778000Y-111392000D01*
X200508000Y-121552000D02*
X208128000Y-121552000D01*
X208128000Y-121552000D02*
X208128000Y-111392000D01*
X208128000Y-111392000D02*
X200508000Y-111392000D01*
X200508000Y-111392000D02*
X200508000Y-121552000D01*
X201778000Y-111646000D02*
X201778000Y-101486000D01*
X200508000Y-111646000D02*
X208128000Y-111646000D01*
X208128000Y-111646000D02*
X208128000Y-101486000D01*
X208128000Y-101486000D02*
X200508000Y-101486000D01*
X200508000Y-101486000D02*
X200508000Y-111646000D01*
X258368000Y-127135422D02*
X258368000Y-127652578D01*
X256948000Y-127135422D02*
X256948000Y-127652578D01*
X272084000Y-140343422D02*
X272084000Y-140860578D01*
X270664000Y-140343422D02*
X270664000Y-140860578D01*
X269036000Y-129675422D02*
X269036000Y-130192578D01*
X267616000Y-129675422D02*
X267616000Y-130192578D01*
X258114000Y-138057422D02*
X258114000Y-138574578D01*
X256694000Y-138057422D02*
X256694000Y-138574578D01*
X258420000Y-124730000D02*
X258420000Y-104150000D01*
X268580000Y-122060000D02*
X268580000Y-104150000D01*
X269850000Y-124730000D02*
X271250000Y-124730000D01*
X271250000Y-124730000D02*
X271250000Y-123330000D01*
X268580000Y-124730000D02*
X268580000Y-122060000D01*
X268580000Y-122060000D02*
X271250000Y-122060000D01*
X271250000Y-122060000D02*
X271250000Y-104150000D01*
X271250000Y-104150000D02*
X255750000Y-104150000D01*
X255750000Y-104150000D02*
X255750000Y-124730000D01*
X255750000Y-124730000D02*
X268580000Y-124730000D01*
D12*
X268286380Y-101025523D02*
X269000666Y-101025523D01*
X269143523Y-101073142D01*
X269238761Y-101168380D01*
X269286380Y-101311238D01*
X269286380Y-101406476D01*
X269286380Y-100025523D02*
X269286380Y-100596952D01*
X269286380Y-100311238D02*
X268286380Y-100311238D01*
X268429238Y-100406476D01*
X268524476Y-100501714D01*
X268572095Y-100596952D01*
X268619714Y-99168380D02*
X269286380Y-99168380D01*
X268238761Y-99406476D02*
X268953047Y-99644571D01*
X268953047Y-99025523D01*
X242187904Y-149436380D02*
X242187904Y-148436380D01*
X242426000Y-148436380D01*
X242568857Y-148484000D01*
X242664095Y-148579238D01*
X242711714Y-148674476D01*
X242759333Y-148864952D01*
X242759333Y-149007809D01*
X242711714Y-149198285D01*
X242664095Y-149293523D01*
X242568857Y-149388761D01*
X242426000Y-149436380D01*
X242187904Y-149436380D01*
X243616476Y-148769714D02*
X243616476Y-149436380D01*
X243378380Y-148388761D02*
X243140285Y-149103047D01*
X243759333Y-149103047D01*
X239647904Y-149436380D02*
X239647904Y-148436380D01*
X239886000Y-148436380D01*
X240028857Y-148484000D01*
X240124095Y-148579238D01*
X240171714Y-148674476D01*
X240219333Y-148864952D01*
X240219333Y-149007809D01*
X240171714Y-149198285D01*
X240124095Y-149293523D01*
X240028857Y-149388761D01*
X239886000Y-149436380D01*
X239647904Y-149436380D01*
X240552666Y-148436380D02*
X241171714Y-148436380D01*
X240838380Y-148817333D01*
X240981238Y-148817333D01*
X241076476Y-148864952D01*
X241124095Y-148912571D01*
X241171714Y-149007809D01*
X241171714Y-149245904D01*
X241124095Y-149341142D01*
X241076476Y-149388761D01*
X240981238Y-149436380D01*
X240695523Y-149436380D01*
X240600285Y-149388761D01*
X240552666Y-149341142D01*
X235329904Y-149436380D02*
X235329904Y-148436380D01*
X235568000Y-148436380D01*
X235710857Y-148484000D01*
X235806095Y-148579238D01*
X235853714Y-148674476D01*
X235901333Y-148864952D01*
X235901333Y-149007809D01*
X235853714Y-149198285D01*
X235806095Y-149293523D01*
X235710857Y-149388761D01*
X235568000Y-149436380D01*
X235329904Y-149436380D01*
X236282285Y-148531619D02*
X236329904Y-148484000D01*
X236425142Y-148436380D01*
X236663238Y-148436380D01*
X236758476Y-148484000D01*
X236806095Y-148531619D01*
X236853714Y-148626857D01*
X236853714Y-148722095D01*
X236806095Y-148864952D01*
X236234666Y-149436380D01*
X236853714Y-149436380D01*
X232789904Y-149436380D02*
X232789904Y-148436380D01*
X233028000Y-148436380D01*
X233170857Y-148484000D01*
X233266095Y-148579238D01*
X233313714Y-148674476D01*
X233361333Y-148864952D01*
X233361333Y-149007809D01*
X233313714Y-149198285D01*
X233266095Y-149293523D01*
X233170857Y-149388761D01*
X233028000Y-149436380D01*
X232789904Y-149436380D01*
X234313714Y-149436380D02*
X233742285Y-149436380D01*
X234028000Y-149436380D02*
X234028000Y-148436380D01*
X233932761Y-148579238D01*
X233837523Y-148674476D01*
X233742285Y-148722095D01*
X274763333Y-96731142D02*
X274715714Y-96778761D01*
X274572857Y-96826380D01*
X274477619Y-96826380D01*
X274334761Y-96778761D01*
X274239523Y-96683523D01*
X274191904Y-96588285D01*
X274144285Y-96397809D01*
X274144285Y-96254952D01*
X274191904Y-96064476D01*
X274239523Y-95969238D01*
X274334761Y-95874000D01*
X274477619Y-95826380D01*
X274572857Y-95826380D01*
X274715714Y-95874000D01*
X274763333Y-95921619D01*
X275668095Y-95826380D02*
X275191904Y-95826380D01*
X275144285Y-96302571D01*
X275191904Y-96254952D01*
X275287142Y-96207333D01*
X275525238Y-96207333D01*
X275620476Y-96254952D01*
X275668095Y-96302571D01*
X275715714Y-96397809D01*
X275715714Y-96635904D01*
X275668095Y-96731142D01*
X275620476Y-96778761D01*
X275525238Y-96826380D01*
X275287142Y-96826380D01*
X275191904Y-96778761D01*
X275144285Y-96731142D01*
X265484476Y-120242380D02*
X265484476Y-120956666D01*
X265436857Y-121099523D01*
X265341619Y-121194761D01*
X265198761Y-121242380D01*
X265103523Y-121242380D01*
X266484476Y-121242380D02*
X265913047Y-121242380D01*
X266198761Y-121242380D02*
X266198761Y-120242380D01*
X266103523Y-120385238D01*
X266008285Y-120480476D01*
X265913047Y-120528095D01*
X266865428Y-120337619D02*
X266913047Y-120290000D01*
X267008285Y-120242380D01*
X267246380Y-120242380D01*
X267341619Y-120290000D01*
X267389238Y-120337619D01*
X267436857Y-120432857D01*
X267436857Y-120528095D01*
X267389238Y-120670952D01*
X266817809Y-121242380D01*
X267436857Y-121242380D01*
X263166666Y-110546380D02*
X263166666Y-111260666D01*
X263119047Y-111403523D01*
X263023809Y-111498761D01*
X262880952Y-111546380D01*
X262785714Y-111546380D01*
X263595238Y-110641619D02*
X263642857Y-110594000D01*
X263738095Y-110546380D01*
X263976190Y-110546380D01*
X264071428Y-110594000D01*
X264119047Y-110641619D01*
X264166666Y-110736857D01*
X264166666Y-110832095D01*
X264119047Y-110974952D01*
X263547619Y-111546380D01*
X264166666Y-111546380D01*
X260372666Y-110546380D02*
X260372666Y-111260666D01*
X260325047Y-111403523D01*
X260229809Y-111498761D01*
X260086952Y-111546380D01*
X259991714Y-111546380D01*
X261372666Y-111546380D02*
X260801238Y-111546380D01*
X261086952Y-111546380D02*
X261086952Y-110546380D01*
X260991714Y-110689238D01*
X260896476Y-110784476D01*
X260801238Y-110832095D01*
X272968380Y-123075523D02*
X273682666Y-123075523D01*
X273825523Y-123123142D01*
X273920761Y-123218380D01*
X273968380Y-123361238D01*
X273968380Y-123456476D01*
X273968380Y-122075523D02*
X273968380Y-122646952D01*
X273968380Y-122361238D02*
X272968380Y-122361238D01*
X273111238Y-122456476D01*
X273206476Y-122551714D01*
X273254095Y-122646952D01*
X272968380Y-121742190D02*
X272968380Y-121123142D01*
X273349333Y-121456476D01*
X273349333Y-121313619D01*
X273396952Y-121218380D01*
X273444571Y-121170761D01*
X273539809Y-121123142D01*
X273777904Y-121123142D01*
X273873142Y-121170761D01*
X273920761Y-121218380D01*
X273968380Y-121313619D01*
X273968380Y-121599333D01*
X273920761Y-121694571D01*
X273873142Y-121742190D01*
X263285619Y-133077238D02*
X263238000Y-133172476D01*
X263142761Y-133267714D01*
X262999904Y-133410571D01*
X262952285Y-133505809D01*
X262952285Y-133601047D01*
X263190380Y-133553428D02*
X263142761Y-133648666D01*
X263047523Y-133743904D01*
X262857047Y-133791523D01*
X262523714Y-133791523D01*
X262333238Y-133743904D01*
X262238000Y-133648666D01*
X262190380Y-133553428D01*
X262190380Y-133362952D01*
X262238000Y-133267714D01*
X262333238Y-133172476D01*
X262523714Y-133124857D01*
X262857047Y-133124857D01*
X263047523Y-133172476D01*
X263142761Y-133267714D01*
X263190380Y-133362952D01*
X263190380Y-133553428D01*
X262523714Y-132267714D02*
X263190380Y-132267714D01*
X262142761Y-132505809D02*
X262857047Y-132743904D01*
X262857047Y-132124857D01*
X276747619Y-146539238D02*
X276700000Y-146634476D01*
X276604761Y-146729714D01*
X276461904Y-146872571D01*
X276414285Y-146967809D01*
X276414285Y-147063047D01*
X276652380Y-147015428D02*
X276604761Y-147110666D01*
X276509523Y-147205904D01*
X276319047Y-147253523D01*
X275985714Y-147253523D01*
X275795238Y-147205904D01*
X275700000Y-147110666D01*
X275652380Y-147015428D01*
X275652380Y-146824952D01*
X275700000Y-146729714D01*
X275795238Y-146634476D01*
X275985714Y-146586857D01*
X276319047Y-146586857D01*
X276509523Y-146634476D01*
X276604761Y-146729714D01*
X276652380Y-146824952D01*
X276652380Y-147015428D01*
X275652380Y-146253523D02*
X275652380Y-145634476D01*
X276033333Y-145967809D01*
X276033333Y-145824952D01*
X276080952Y-145729714D01*
X276128571Y-145682095D01*
X276223809Y-145634476D01*
X276461904Y-145634476D01*
X276557142Y-145682095D01*
X276604761Y-145729714D01*
X276652380Y-145824952D01*
X276652380Y-146110666D01*
X276604761Y-146205904D01*
X276557142Y-146253523D01*
X273699619Y-135871238D02*
X273652000Y-135966476D01*
X273556761Y-136061714D01*
X273413904Y-136204571D01*
X273366285Y-136299809D01*
X273366285Y-136395047D01*
X273604380Y-136347428D02*
X273556761Y-136442666D01*
X273461523Y-136537904D01*
X273271047Y-136585523D01*
X272937714Y-136585523D01*
X272747238Y-136537904D01*
X272652000Y-136442666D01*
X272604380Y-136347428D01*
X272604380Y-136156952D01*
X272652000Y-136061714D01*
X272747238Y-135966476D01*
X272937714Y-135918857D01*
X273271047Y-135918857D01*
X273461523Y-135966476D01*
X273556761Y-136061714D01*
X273604380Y-136156952D01*
X273604380Y-136347428D01*
X272699619Y-135537904D02*
X272652000Y-135490285D01*
X272604380Y-135395047D01*
X272604380Y-135156952D01*
X272652000Y-135061714D01*
X272699619Y-135014095D01*
X272794857Y-134966476D01*
X272890095Y-134966476D01*
X273032952Y-135014095D01*
X273604380Y-135585523D01*
X273604380Y-134966476D01*
X260491619Y-142983238D02*
X260444000Y-143078476D01*
X260348761Y-143173714D01*
X260205904Y-143316571D01*
X260158285Y-143411809D01*
X260158285Y-143507047D01*
X260396380Y-143459428D02*
X260348761Y-143554666D01*
X260253523Y-143649904D01*
X260063047Y-143697523D01*
X259729714Y-143697523D01*
X259539238Y-143649904D01*
X259444000Y-143554666D01*
X259396380Y-143459428D01*
X259396380Y-143268952D01*
X259444000Y-143173714D01*
X259539238Y-143078476D01*
X259729714Y-143030857D01*
X260063047Y-143030857D01*
X260253523Y-143078476D01*
X260348761Y-143173714D01*
X260396380Y-143268952D01*
X260396380Y-143459428D01*
X260396380Y-142078476D02*
X260396380Y-142649904D01*
X260396380Y-142364190D02*
X259396380Y-142364190D01*
X259539238Y-142459428D01*
X259634476Y-142554666D01*
X259682095Y-142649904D01*
X263412380Y-128894095D02*
X262412380Y-128894095D01*
X262412380Y-128656000D01*
X262460000Y-128513142D01*
X262555238Y-128417904D01*
X262650476Y-128370285D01*
X262840952Y-128322666D01*
X262983809Y-128322666D01*
X263174285Y-128370285D01*
X263269523Y-128417904D01*
X263364761Y-128513142D01*
X263412380Y-128656000D01*
X263412380Y-128894095D01*
X262840952Y-127751238D02*
X262793333Y-127846476D01*
X262745714Y-127894095D01*
X262650476Y-127941714D01*
X262602857Y-127941714D01*
X262507619Y-127894095D01*
X262460000Y-127846476D01*
X262412380Y-127751238D01*
X262412380Y-127560761D01*
X262460000Y-127465523D01*
X262507619Y-127417904D01*
X262602857Y-127370285D01*
X262650476Y-127370285D01*
X262745714Y-127417904D01*
X262793333Y-127465523D01*
X262840952Y-127560761D01*
X262840952Y-127751238D01*
X262888571Y-127846476D01*
X262936190Y-127894095D01*
X263031428Y-127941714D01*
X263221904Y-127941714D01*
X263317142Y-127894095D01*
X263364761Y-127846476D01*
X263412380Y-127751238D01*
X263412380Y-127560761D01*
X263364761Y-127465523D01*
X263317142Y-127417904D01*
X263221904Y-127370285D01*
X263031428Y-127370285D01*
X262936190Y-127417904D01*
X262888571Y-127465523D01*
X262840952Y-127560761D01*
X277128380Y-142102095D02*
X276128380Y-142102095D01*
X276128380Y-141864000D01*
X276176000Y-141721142D01*
X276271238Y-141625904D01*
X276366476Y-141578285D01*
X276556952Y-141530666D01*
X276699809Y-141530666D01*
X276890285Y-141578285D01*
X276985523Y-141625904D01*
X277080761Y-141721142D01*
X277128380Y-141864000D01*
X277128380Y-142102095D01*
X276128380Y-141197333D02*
X276128380Y-140530666D01*
X277128380Y-140959238D01*
X274080380Y-131434095D02*
X273080380Y-131434095D01*
X273080380Y-131196000D01*
X273128000Y-131053142D01*
X273223238Y-130957904D01*
X273318476Y-130910285D01*
X273508952Y-130862666D01*
X273651809Y-130862666D01*
X273842285Y-130910285D01*
X273937523Y-130957904D01*
X274032761Y-131053142D01*
X274080380Y-131196000D01*
X274080380Y-131434095D01*
X273080380Y-130005523D02*
X273080380Y-130196000D01*
X273128000Y-130291238D01*
X273175619Y-130338857D01*
X273318476Y-130434095D01*
X273508952Y-130481714D01*
X273889904Y-130481714D01*
X273985142Y-130434095D01*
X274032761Y-130386476D01*
X274080380Y-130291238D01*
X274080380Y-130100761D01*
X274032761Y-130005523D01*
X273985142Y-129957904D01*
X273889904Y-129910285D01*
X273651809Y-129910285D01*
X273556571Y-129957904D01*
X273508952Y-130005523D01*
X273461333Y-130100761D01*
X273461333Y-130291238D01*
X273508952Y-130386476D01*
X273556571Y-130434095D01*
X273651809Y-130481714D01*
X262904380Y-139816095D02*
X261904380Y-139816095D01*
X261904380Y-139578000D01*
X261952000Y-139435142D01*
X262047238Y-139339904D01*
X262142476Y-139292285D01*
X262332952Y-139244666D01*
X262475809Y-139244666D01*
X262666285Y-139292285D01*
X262761523Y-139339904D01*
X262856761Y-139435142D01*
X262904380Y-139578000D01*
X262904380Y-139816095D01*
X261904380Y-138339904D02*
X261904380Y-138816095D01*
X262380571Y-138863714D01*
X262332952Y-138816095D01*
X262285333Y-138720857D01*
X262285333Y-138482761D01*
X262332952Y-138387523D01*
X262380571Y-138339904D01*
X262475809Y-138292285D01*
X262713904Y-138292285D01*
X262809142Y-138339904D01*
X262856761Y-138387523D01*
X262904380Y-138482761D01*
X262904380Y-138720857D01*
X262856761Y-138816095D01*
X262809142Y-138863714D01*
X253594095Y-129346380D02*
X253594095Y-130155904D01*
X253641714Y-130251142D01*
X253689333Y-130298761D01*
X253784571Y-130346380D01*
X253975047Y-130346380D01*
X254070285Y-130298761D01*
X254117904Y-130251142D01*
X254165523Y-130155904D01*
X254165523Y-129346380D01*
X255070285Y-129679714D02*
X255070285Y-130346380D01*
X254832190Y-129298761D02*
X254594095Y-130013047D01*
X255213142Y-130013047D01*
X267310095Y-142554380D02*
X267310095Y-143363904D01*
X267357714Y-143459142D01*
X267405333Y-143506761D01*
X267500571Y-143554380D01*
X267691047Y-143554380D01*
X267786285Y-143506761D01*
X267833904Y-143459142D01*
X267881523Y-143363904D01*
X267881523Y-142554380D01*
X268262476Y-142554380D02*
X268881523Y-142554380D01*
X268548190Y-142935333D01*
X268691047Y-142935333D01*
X268786285Y-142982952D01*
X268833904Y-143030571D01*
X268881523Y-143125809D01*
X268881523Y-143363904D01*
X268833904Y-143459142D01*
X268786285Y-143506761D01*
X268691047Y-143554380D01*
X268405333Y-143554380D01*
X268310095Y-143506761D01*
X268262476Y-143459142D01*
X264262095Y-131886380D02*
X264262095Y-132695904D01*
X264309714Y-132791142D01*
X264357333Y-132838761D01*
X264452571Y-132886380D01*
X264643047Y-132886380D01*
X264738285Y-132838761D01*
X264785904Y-132791142D01*
X264833523Y-132695904D01*
X264833523Y-131886380D01*
X265262095Y-131981619D02*
X265309714Y-131934000D01*
X265404952Y-131886380D01*
X265643047Y-131886380D01*
X265738285Y-131934000D01*
X265785904Y-131981619D01*
X265833523Y-132076857D01*
X265833523Y-132172095D01*
X265785904Y-132314952D01*
X265214476Y-132886380D01*
X265833523Y-132886380D01*
X253594095Y-135228380D02*
X253594095Y-136037904D01*
X253641714Y-136133142D01*
X253689333Y-136180761D01*
X253784571Y-136228380D01*
X253975047Y-136228380D01*
X254070285Y-136180761D01*
X254117904Y-136133142D01*
X254165523Y-136037904D01*
X254165523Y-135228380D01*
X255165523Y-136228380D02*
X254594095Y-136228380D01*
X254879809Y-136228380D02*
X254879809Y-135228380D01*
X254784571Y-135371238D01*
X254689333Y-135466476D01*
X254594095Y-135514095D01*
X252776380Y-133624857D02*
X252300190Y-133958190D01*
X252776380Y-134196285D02*
X251776380Y-134196285D01*
X251776380Y-133815333D01*
X251824000Y-133720095D01*
X251871619Y-133672476D01*
X251966857Y-133624857D01*
X252109714Y-133624857D01*
X252204952Y-133672476D01*
X252252571Y-133720095D01*
X252300190Y-133815333D01*
X252300190Y-134196285D01*
X252776380Y-132672476D02*
X252776380Y-133243904D01*
X252776380Y-132958190D02*
X251776380Y-132958190D01*
X251919238Y-133053428D01*
X252014476Y-133148666D01*
X252062095Y-133243904D01*
X251871619Y-132291523D02*
X251824000Y-132243904D01*
X251776380Y-132148666D01*
X251776380Y-131910571D01*
X251824000Y-131815333D01*
X251871619Y-131767714D01*
X251966857Y-131720095D01*
X252062095Y-131720095D01*
X252204952Y-131767714D01*
X252776380Y-132339142D01*
X252776380Y-131720095D01*
X270477142Y-144356380D02*
X270143809Y-143880190D01*
X269905714Y-144356380D02*
X269905714Y-143356380D01*
X270286666Y-143356380D01*
X270381904Y-143404000D01*
X270429523Y-143451619D01*
X270477142Y-143546857D01*
X270477142Y-143689714D01*
X270429523Y-143784952D01*
X270381904Y-143832571D01*
X270286666Y-143880190D01*
X269905714Y-143880190D01*
X271429523Y-144356380D02*
X270858095Y-144356380D01*
X271143809Y-144356380D02*
X271143809Y-143356380D01*
X271048571Y-143499238D01*
X270953333Y-143594476D01*
X270858095Y-143642095D01*
X272381904Y-144356380D02*
X271810476Y-144356380D01*
X272096190Y-144356380D02*
X272096190Y-143356380D01*
X272000952Y-143499238D01*
X271905714Y-143594476D01*
X271810476Y-143642095D01*
X266667142Y-133942380D02*
X266333809Y-133466190D01*
X266095714Y-133942380D02*
X266095714Y-132942380D01*
X266476666Y-132942380D01*
X266571904Y-132990000D01*
X266619523Y-133037619D01*
X266667142Y-133132857D01*
X266667142Y-133275714D01*
X266619523Y-133370952D01*
X266571904Y-133418571D01*
X266476666Y-133466190D01*
X266095714Y-133466190D01*
X267619523Y-133942380D02*
X267048095Y-133942380D01*
X267333809Y-133942380D02*
X267333809Y-132942380D01*
X267238571Y-133085238D01*
X267143333Y-133180476D01*
X267048095Y-133228095D01*
X268238571Y-132942380D02*
X268333809Y-132942380D01*
X268429047Y-132990000D01*
X268476666Y-133037619D01*
X268524285Y-133132857D01*
X268571904Y-133323333D01*
X268571904Y-133561428D01*
X268524285Y-133751904D01*
X268476666Y-133847142D01*
X268429047Y-133894761D01*
X268333809Y-133942380D01*
X268238571Y-133942380D01*
X268143333Y-133894761D01*
X268095714Y-133847142D01*
X268048095Y-133751904D01*
X268000476Y-133561428D01*
X268000476Y-133323333D01*
X268048095Y-133132857D01*
X268095714Y-133037619D01*
X268143333Y-132990000D01*
X268238571Y-132942380D01*
X255062380Y-142800666D02*
X254586190Y-143134000D01*
X255062380Y-143372095D02*
X254062380Y-143372095D01*
X254062380Y-142991142D01*
X254110000Y-142895904D01*
X254157619Y-142848285D01*
X254252857Y-142800666D01*
X254395714Y-142800666D01*
X254490952Y-142848285D01*
X254538571Y-142895904D01*
X254586190Y-142991142D01*
X254586190Y-143372095D01*
X255062380Y-142324476D02*
X255062380Y-142134000D01*
X255014761Y-142038761D01*
X254967142Y-141991142D01*
X254824285Y-141895904D01*
X254633809Y-141848285D01*
X254252857Y-141848285D01*
X254157619Y-141895904D01*
X254110000Y-141943523D01*
X254062380Y-142038761D01*
X254062380Y-142229238D01*
X254110000Y-142324476D01*
X254157619Y-142372095D01*
X254252857Y-142419714D01*
X254490952Y-142419714D01*
X254586190Y-142372095D01*
X254633809Y-142324476D01*
X254681428Y-142229238D01*
X254681428Y-142038761D01*
X254633809Y-141943523D01*
X254586190Y-141895904D01*
X254490952Y-141848285D01*
X245807333Y-149182380D02*
X245474000Y-148706190D01*
X245235904Y-149182380D02*
X245235904Y-148182380D01*
X245616857Y-148182380D01*
X245712095Y-148230000D01*
X245759714Y-148277619D01*
X245807333Y-148372857D01*
X245807333Y-148515714D01*
X245759714Y-148610952D01*
X245712095Y-148658571D01*
X245616857Y-148706190D01*
X245235904Y-148706190D01*
X246378761Y-148610952D02*
X246283523Y-148563333D01*
X246235904Y-148515714D01*
X246188285Y-148420476D01*
X246188285Y-148372857D01*
X246235904Y-148277619D01*
X246283523Y-148230000D01*
X246378761Y-148182380D01*
X246569238Y-148182380D01*
X246664476Y-148230000D01*
X246712095Y-148277619D01*
X246759714Y-148372857D01*
X246759714Y-148420476D01*
X246712095Y-148515714D01*
X246664476Y-148563333D01*
X246569238Y-148610952D01*
X246378761Y-148610952D01*
X246283523Y-148658571D01*
X246235904Y-148706190D01*
X246188285Y-148801428D01*
X246188285Y-148991904D01*
X246235904Y-149087142D01*
X246283523Y-149134761D01*
X246378761Y-149182380D01*
X246569238Y-149182380D01*
X246664476Y-149134761D01*
X246712095Y-149087142D01*
X246759714Y-148991904D01*
X246759714Y-148801428D01*
X246712095Y-148706190D01*
X246664476Y-148658571D01*
X246569238Y-148610952D01*
X248093333Y-149182380D02*
X247760000Y-148706190D01*
X247521904Y-149182380D02*
X247521904Y-148182380D01*
X247902857Y-148182380D01*
X247998095Y-148230000D01*
X248045714Y-148277619D01*
X248093333Y-148372857D01*
X248093333Y-148515714D01*
X248045714Y-148610952D01*
X247998095Y-148658571D01*
X247902857Y-148706190D01*
X247521904Y-148706190D01*
X248426666Y-148182380D02*
X249093333Y-148182380D01*
X248664761Y-149182380D01*
X228027333Y-148928380D02*
X227694000Y-148452190D01*
X227455904Y-148928380D02*
X227455904Y-147928380D01*
X227836857Y-147928380D01*
X227932095Y-147976000D01*
X227979714Y-148023619D01*
X228027333Y-148118857D01*
X228027333Y-148261714D01*
X227979714Y-148356952D01*
X227932095Y-148404571D01*
X227836857Y-148452190D01*
X227455904Y-148452190D01*
X228884476Y-147928380D02*
X228694000Y-147928380D01*
X228598761Y-147976000D01*
X228551142Y-148023619D01*
X228455904Y-148166476D01*
X228408285Y-148356952D01*
X228408285Y-148737904D01*
X228455904Y-148833142D01*
X228503523Y-148880761D01*
X228598761Y-148928380D01*
X228789238Y-148928380D01*
X228884476Y-148880761D01*
X228932095Y-148833142D01*
X228979714Y-148737904D01*
X228979714Y-148499809D01*
X228932095Y-148404571D01*
X228884476Y-148356952D01*
X228789238Y-148309333D01*
X228598761Y-148309333D01*
X228503523Y-148356952D01*
X228455904Y-148404571D01*
X228408285Y-148499809D01*
X230313333Y-148928380D02*
X229980000Y-148452190D01*
X229741904Y-148928380D02*
X229741904Y-147928380D01*
X230122857Y-147928380D01*
X230218095Y-147976000D01*
X230265714Y-148023619D01*
X230313333Y-148118857D01*
X230313333Y-148261714D01*
X230265714Y-148356952D01*
X230218095Y-148404571D01*
X230122857Y-148452190D01*
X229741904Y-148452190D01*
X231218095Y-147928380D02*
X230741904Y-147928380D01*
X230694285Y-148404571D01*
X230741904Y-148356952D01*
X230837142Y-148309333D01*
X231075238Y-148309333D01*
X231170476Y-148356952D01*
X231218095Y-148404571D01*
X231265714Y-148499809D01*
X231265714Y-148737904D01*
X231218095Y-148833142D01*
X231170476Y-148880761D01*
X231075238Y-148928380D01*
X230837142Y-148928380D01*
X230741904Y-148880761D01*
X230694285Y-148833142D01*
X256475333Y-131148380D02*
X256142000Y-130672190D01*
X255903904Y-131148380D02*
X255903904Y-130148380D01*
X256284857Y-130148380D01*
X256380095Y-130196000D01*
X256427714Y-130243619D01*
X256475333Y-130338857D01*
X256475333Y-130481714D01*
X256427714Y-130576952D01*
X256380095Y-130624571D01*
X256284857Y-130672190D01*
X255903904Y-130672190D01*
X257332476Y-130481714D02*
X257332476Y-131148380D01*
X257094380Y-130100761D02*
X256856285Y-130815047D01*
X257475333Y-130815047D01*
X266746380Y-146356666D02*
X266270190Y-146690000D01*
X266746380Y-146928095D02*
X265746380Y-146928095D01*
X265746380Y-146547142D01*
X265794000Y-146451904D01*
X265841619Y-146404285D01*
X265936857Y-146356666D01*
X266079714Y-146356666D01*
X266174952Y-146404285D01*
X266222571Y-146451904D01*
X266270190Y-146547142D01*
X266270190Y-146928095D01*
X265746380Y-146023333D02*
X265746380Y-145404285D01*
X266127333Y-145737619D01*
X266127333Y-145594761D01*
X266174952Y-145499523D01*
X266222571Y-145451904D01*
X266317809Y-145404285D01*
X266555904Y-145404285D01*
X266651142Y-145451904D01*
X266698761Y-145499523D01*
X266746380Y-145594761D01*
X266746380Y-145880476D01*
X266698761Y-145975714D01*
X266651142Y-146023333D01*
X264603333Y-138768380D02*
X264270000Y-138292190D01*
X264031904Y-138768380D02*
X264031904Y-137768380D01*
X264412857Y-137768380D01*
X264508095Y-137816000D01*
X264555714Y-137863619D01*
X264603333Y-137958857D01*
X264603333Y-138101714D01*
X264555714Y-138196952D01*
X264508095Y-138244571D01*
X264412857Y-138292190D01*
X264031904Y-138292190D01*
X264984285Y-137863619D02*
X265031904Y-137816000D01*
X265127142Y-137768380D01*
X265365238Y-137768380D01*
X265460476Y-137816000D01*
X265508095Y-137863619D01*
X265555714Y-137958857D01*
X265555714Y-138054095D01*
X265508095Y-138196952D01*
X264936666Y-138768380D01*
X265555714Y-138768380D01*
X252522380Y-142546666D02*
X252046190Y-142880000D01*
X252522380Y-143118095D02*
X251522380Y-143118095D01*
X251522380Y-142737142D01*
X251570000Y-142641904D01*
X251617619Y-142594285D01*
X251712857Y-142546666D01*
X251855714Y-142546666D01*
X251950952Y-142594285D01*
X251998571Y-142641904D01*
X252046190Y-142737142D01*
X252046190Y-143118095D01*
X252522380Y-141594285D02*
X252522380Y-142165714D01*
X252522380Y-141880000D02*
X251522380Y-141880000D01*
X251665238Y-141975238D01*
X251760476Y-142070476D01*
X251808095Y-142165714D01*
D13*
X227318639Y-133563504D02*
X226617515Y-133563504D01*
X227318639Y-133162862D02*
X226917996Y-133463343D01*
X226617515Y-133162862D02*
X227018157Y-133563504D01*
X226851223Y-132561898D02*
X227318639Y-132561898D01*
X226584128Y-132728832D02*
X227084931Y-132895767D01*
X227084931Y-132461738D01*
X245860639Y-133563504D02*
X245159515Y-133563504D01*
X245860639Y-133162862D02*
X245459996Y-133463343D01*
X245159515Y-133162862D02*
X245560157Y-133563504D01*
X245159515Y-132929154D02*
X245159515Y-132495124D01*
X245426610Y-132728832D01*
X245426610Y-132628672D01*
X245459996Y-132561898D01*
X245493383Y-132528511D01*
X245560157Y-132495124D01*
X245727091Y-132495124D01*
X245793865Y-132528511D01*
X245827252Y-132561898D01*
X245860639Y-132628672D01*
X245860639Y-132828993D01*
X245827252Y-132895767D01*
X245793865Y-132929154D01*
X245860639Y-111465504D02*
X245159515Y-111465504D01*
X245860639Y-111064862D02*
X245459996Y-111365343D01*
X245159515Y-111064862D02*
X245560157Y-111465504D01*
X245226288Y-110797767D02*
X245192902Y-110764380D01*
X245159515Y-110697606D01*
X245159515Y-110530672D01*
X245192902Y-110463898D01*
X245226288Y-110430511D01*
X245293062Y-110397124D01*
X245359836Y-110397124D01*
X245459996Y-110430511D01*
X245860639Y-110831154D01*
X245860639Y-110397124D01*
X227318639Y-111211504D02*
X226617515Y-111211504D01*
X227318639Y-110810862D02*
X226917996Y-111111343D01*
X226617515Y-110810862D02*
X227018157Y-111211504D01*
X227318639Y-110143124D02*
X227318639Y-110543767D01*
X227318639Y-110343446D02*
X226617515Y-110343446D01*
X226717675Y-110410219D01*
X226784449Y-110476993D01*
X226817836Y-110543767D01*
D12*
X208850380Y-136617333D02*
X209564666Y-136617333D01*
X209707523Y-136664952D01*
X209802761Y-136760190D01*
X209850380Y-136903047D01*
X209850380Y-136998285D01*
X208850380Y-136236380D02*
X208850380Y-135569714D01*
X209850380Y-135998285D01*
X208850380Y-126711333D02*
X209564666Y-126711333D01*
X209707523Y-126758952D01*
X209802761Y-126854190D01*
X209850380Y-126997047D01*
X209850380Y-127092285D01*
X208850380Y-125806571D02*
X208850380Y-125997047D01*
X208898000Y-126092285D01*
X208945619Y-126139904D01*
X209088476Y-126235142D01*
X209278952Y-126282761D01*
X209659904Y-126282761D01*
X209755142Y-126235142D01*
X209802761Y-126187523D01*
X209850380Y-126092285D01*
X209850380Y-125901809D01*
X209802761Y-125806571D01*
X209755142Y-125758952D01*
X209659904Y-125711333D01*
X209421809Y-125711333D01*
X209326571Y-125758952D01*
X209278952Y-125806571D01*
X209231333Y-125901809D01*
X209231333Y-126092285D01*
X209278952Y-126187523D01*
X209326571Y-126235142D01*
X209421809Y-126282761D01*
X208850380Y-116805333D02*
X209564666Y-116805333D01*
X209707523Y-116852952D01*
X209802761Y-116948190D01*
X209850380Y-117091047D01*
X209850380Y-117186285D01*
X208850380Y-115852952D02*
X208850380Y-116329142D01*
X209326571Y-116376761D01*
X209278952Y-116329142D01*
X209231333Y-116233904D01*
X209231333Y-115995809D01*
X209278952Y-115900571D01*
X209326571Y-115852952D01*
X209421809Y-115805333D01*
X209659904Y-115805333D01*
X209755142Y-115852952D01*
X209802761Y-115900571D01*
X209850380Y-115995809D01*
X209850380Y-116233904D01*
X209802761Y-116329142D01*
X209755142Y-116376761D01*
X208850380Y-106899333D02*
X209564666Y-106899333D01*
X209707523Y-106946952D01*
X209802761Y-107042190D01*
X209850380Y-107185047D01*
X209850380Y-107280285D01*
X209183714Y-105994571D02*
X209850380Y-105994571D01*
X208802761Y-106232666D02*
X209517047Y-106470761D01*
X209517047Y-105851714D01*
X259665142Y-127560666D02*
X259712761Y-127608285D01*
X259760380Y-127751142D01*
X259760380Y-127846380D01*
X259712761Y-127989238D01*
X259617523Y-128084476D01*
X259522285Y-128132095D01*
X259331809Y-128179714D01*
X259188952Y-128179714D01*
X258998476Y-128132095D01*
X258903238Y-128084476D01*
X258808000Y-127989238D01*
X258760380Y-127846380D01*
X258760380Y-127751142D01*
X258808000Y-127608285D01*
X258855619Y-127560666D01*
X259093714Y-126703523D02*
X259760380Y-126703523D01*
X258712761Y-126941619D02*
X259427047Y-127179714D01*
X259427047Y-126560666D01*
X273381142Y-140768666D02*
X273428761Y-140816285D01*
X273476380Y-140959142D01*
X273476380Y-141054380D01*
X273428761Y-141197238D01*
X273333523Y-141292476D01*
X273238285Y-141340095D01*
X273047809Y-141387714D01*
X272904952Y-141387714D01*
X272714476Y-141340095D01*
X272619238Y-141292476D01*
X272524000Y-141197238D01*
X272476380Y-141054380D01*
X272476380Y-140959142D01*
X272524000Y-140816285D01*
X272571619Y-140768666D01*
X272476380Y-140435333D02*
X272476380Y-139816285D01*
X272857333Y-140149619D01*
X272857333Y-140006761D01*
X272904952Y-139911523D01*
X272952571Y-139863904D01*
X273047809Y-139816285D01*
X273285904Y-139816285D01*
X273381142Y-139863904D01*
X273428761Y-139911523D01*
X273476380Y-140006761D01*
X273476380Y-140292476D01*
X273428761Y-140387714D01*
X273381142Y-140435333D01*
X270333142Y-130100666D02*
X270380761Y-130148285D01*
X270428380Y-130291142D01*
X270428380Y-130386380D01*
X270380761Y-130529238D01*
X270285523Y-130624476D01*
X270190285Y-130672095D01*
X269999809Y-130719714D01*
X269856952Y-130719714D01*
X269666476Y-130672095D01*
X269571238Y-130624476D01*
X269476000Y-130529238D01*
X269428380Y-130386380D01*
X269428380Y-130291142D01*
X269476000Y-130148285D01*
X269523619Y-130100666D01*
X269523619Y-129719714D02*
X269476000Y-129672095D01*
X269428380Y-129576857D01*
X269428380Y-129338761D01*
X269476000Y-129243523D01*
X269523619Y-129195904D01*
X269618857Y-129148285D01*
X269714095Y-129148285D01*
X269856952Y-129195904D01*
X270428380Y-129767333D01*
X270428380Y-129148285D01*
X259031142Y-138482666D02*
X259078761Y-138530285D01*
X259126380Y-138673142D01*
X259126380Y-138768380D01*
X259078761Y-138911238D01*
X258983523Y-139006476D01*
X258888285Y-139054095D01*
X258697809Y-139101714D01*
X258554952Y-139101714D01*
X258364476Y-139054095D01*
X258269238Y-139006476D01*
X258174000Y-138911238D01*
X258126380Y-138768380D01*
X258126380Y-138673142D01*
X258174000Y-138530285D01*
X258221619Y-138482666D01*
X259126380Y-137530285D02*
X259126380Y-138101714D01*
X259126380Y-137816000D02*
X258126380Y-137816000D01*
X258269238Y-137911238D01*
X258364476Y-138006476D01*
X258412095Y-138101714D01*
X262785714Y-126036666D02*
X263261904Y-126036666D01*
X262690476Y-126322380D02*
X263023809Y-125322380D01*
X263357142Y-126322380D01*
X264214285Y-126322380D02*
X263642857Y-126322380D01*
X263928571Y-126322380D02*
X263928571Y-125322380D01*
X263833333Y-125465238D01*
X263738095Y-125560476D01*
X263642857Y-125608095D01*
X262698476Y-143594380D02*
X262698476Y-142594380D01*
X263031809Y-143308666D01*
X263365142Y-142594380D01*
X263365142Y-143594380D01*
X263841333Y-143594380D02*
X263841333Y-142594380D01*
X264412761Y-143594380D02*
X263984190Y-143022952D01*
X264412761Y-142594380D02*
X263841333Y-143165809D01*
X265269904Y-142927714D02*
X265269904Y-143594380D01*
X265031809Y-142546761D02*
X264793714Y-143261047D01*
X265412761Y-143261047D01*
X202200476Y-142952380D02*
X202200476Y-141952380D01*
X202533809Y-142666666D01*
X202867142Y-141952380D01*
X202867142Y-142952380D01*
X203343333Y-142952380D02*
X203343333Y-141952380D01*
X203914761Y-142952380D02*
X203486190Y-142380952D01*
X203914761Y-141952380D02*
X203343333Y-142523809D01*
X204248095Y-141952380D02*
X204867142Y-141952380D01*
X204533809Y-142333333D01*
X204676666Y-142333333D01*
X204771904Y-142380952D01*
X204819523Y-142428571D01*
X204867142Y-142523809D01*
X204867142Y-142761904D01*
X204819523Y-142857142D01*
X204771904Y-142904761D01*
X204676666Y-142952380D01*
X204390952Y-142952380D01*
X204295714Y-142904761D01*
X204248095Y-142857142D01*
X264730476Y-95842380D02*
X264730476Y-94842380D01*
X265063809Y-95556666D01*
X265397142Y-94842380D01*
X265397142Y-95842380D01*
X265873333Y-95842380D02*
X265873333Y-94842380D01*
X266444761Y-95842380D02*
X266016190Y-95270952D01*
X266444761Y-94842380D02*
X265873333Y-95413809D01*
X266825714Y-94937619D02*
X266873333Y-94890000D01*
X266968571Y-94842380D01*
X267206666Y-94842380D01*
X267301904Y-94890000D01*
X267349523Y-94937619D01*
X267397142Y-95032857D01*
X267397142Y-95128095D01*
X267349523Y-95270952D01*
X266778095Y-95842380D01*
X267397142Y-95842380D01*
X202200476Y-101352380D02*
X202200476Y-100352380D01*
X202533809Y-101066666D01*
X202867142Y-100352380D01*
X202867142Y-101352380D01*
X203343333Y-101352380D02*
X203343333Y-100352380D01*
X203914761Y-101352380D02*
X203486190Y-100780952D01*
X203914761Y-100352380D02*
X203343333Y-100923809D01*
X204867142Y-101352380D02*
X204295714Y-101352380D01*
X204581428Y-101352380D02*
X204581428Y-100352380D01*
X204486190Y-100495238D01*
X204390952Y-100590476D01*
X204295714Y-100638095D01*
M02*
