M48
; DRILL file {KiCad 5.1.7-a382d34a8~88~ubuntu18.04.1} date Sun Dec 27 20:37:03 2020
; FORMAT={-:-/ absolute / metric / decimal}
; #@! TF.CreationDate,2020-12-27T20:37:03+01:00
; #@! TF.GenerationSoftware,Kicad,Pcbnew,5.1.7-a382d34a8~88~ubuntu18.04.1
; #@! TF.FileFunction,Plated,1,4,PTH
FMAT,2
METRIC
T1C0.600
T2C0.800
T3C1.000
T4C1.520
T5C3.200
%
G90
G05
T1
X210.776Y-125.806
X212.61Y-120.06
X213.8Y-124.04
X214.69Y-109.164
X215.385Y-140.665
X215.438Y-126.982
X215.602Y-120.017
X215.745Y-138.855
X216.09Y-108.33
X216.12Y-124.04
X217.485Y-100.545
X218.26Y-140.66
X218.46Y-125.0
X218.71Y-119.06
X220.25Y-116.47
X221.05Y-139.48
X222.565Y-116.405
X224.16Y-124.07
X225.08Y-126.26
X226.67Y-144.158
X226.72Y-141.42
X228.194Y-143.65
X229.11Y-142.59
X229.18Y-126.84
X230.88Y-140.17
X231.12Y-109.32
X237.592Y-144.158
X238.862Y-143.396
X241.02Y-132.92
X241.15Y-122.22
X241.54Y-111.59
X242.43Y-132.92
X242.47Y-122.22
X242.51Y-101.54
X242.81Y-111.59
X243.688Y-142.634
X243.71Y-101.54
X243.77Y-132.92
X243.9Y-122.22
X244.07Y-125.77
X244.12Y-104.99
X244.13Y-111.59
X244.175Y-115.085
X244.31Y-136.81
X244.94Y-101.54
X245.015Y-126.715
X245.06Y-115.97
X245.095Y-105.965
X245.21Y-140.47
X245.325Y-137.825
X245.974Y-142.634
X246.065Y-116.975
X246.085Y-127.785
X246.16Y-106.82
X246.2Y-138.7
X246.25Y-109.39
X246.51Y-120.34
X249.22Y-143.47
X259.36Y-103.82
X273.152Y-114.948
T2
X257.15Y-105.55
X257.15Y-108.09
X257.15Y-110.63
X257.15Y-113.17
X257.15Y-115.71
X257.15Y-118.25
X257.15Y-120.79
X257.15Y-123.33
X269.85Y-105.55
X269.85Y-108.09
X269.85Y-110.63
X269.85Y-113.17
X269.85Y-115.71
X269.85Y-118.25
X269.85Y-120.79
X269.85Y-123.33
T3
X249.53Y-127.14
X249.53Y-129.68
X266.548Y-98.946
X266.548Y-101.486
X249.53Y-114.44
X249.53Y-116.98
X266.04Y-113.424
X266.04Y-115.964
X266.04Y-118.504
X252.07Y-138.57
X252.07Y-141.11
X252.07Y-114.44
X252.07Y-116.98
X249.53Y-138.57
X249.53Y-141.11
X277.216Y-116.726
X277.216Y-119.496
X277.216Y-122.266
X277.216Y-125.036
X277.216Y-127.806
X280.056Y-118.111
X280.056Y-120.881
X280.056Y-123.651
X280.056Y-126.421
X208.382Y-95.898
X208.382Y-98.438
X210.922Y-95.898
X210.922Y-98.438
X213.462Y-95.898
X213.462Y-98.438
X216.002Y-95.898
X216.002Y-98.438
X218.542Y-95.898
X218.542Y-98.438
X221.082Y-95.898
X221.082Y-98.438
X223.622Y-95.898
X223.622Y-98.438
X226.162Y-95.898
X226.162Y-98.438
X228.702Y-95.898
X228.702Y-98.438
X231.242Y-95.898
X231.242Y-98.438
X233.782Y-95.898
X233.782Y-98.438
X236.322Y-95.898
X236.322Y-98.438
X238.862Y-95.898
X238.862Y-98.438
X241.402Y-95.898
X241.402Y-98.438
X243.942Y-95.898
X243.942Y-98.438
X246.482Y-95.898
X246.482Y-98.438
X249.022Y-95.898
X249.022Y-98.438
X251.562Y-95.898
X251.562Y-98.438
X254.102Y-95.898
X254.102Y-98.438
X256.642Y-95.898
X256.642Y-98.438
X249.53Y-104.28
X249.53Y-106.82
X210.16Y-144.92
X210.16Y-147.46
X212.7Y-144.92
X212.7Y-147.46
X215.24Y-144.92
X215.24Y-147.46
X217.78Y-144.92
X217.78Y-147.46
X252.07Y-104.28
X252.07Y-106.82
X263.5Y-113.424
X263.5Y-115.964
X263.5Y-118.504
X260.96Y-113.424
X260.96Y-115.964
X260.96Y-118.504
X252.07Y-127.14
X252.07Y-129.68
T4
X204.32Y-103.52
X204.32Y-113.68
X204.32Y-118.76
X204.318Y-123.838
X204.318Y-128.918
X204.32Y-134.0
X204.32Y-139.08
X204.32Y-108.6
T5
X277.516Y-109.766
X277.516Y-134.766
T0
M30
