G04 #@! TF.GenerationSoftware,KiCad,Pcbnew,5.1.7-a382d34a8~88~ubuntu18.04.1*
G04 #@! TF.CreationDate,2020-12-27T20:37:00+01:00*
G04 #@! TF.ProjectId,relais_hat,72656c61-6973-45f6-9861-742e6b696361,rev?*
G04 #@! TF.SameCoordinates,Original*
G04 #@! TF.FileFunction,Legend,Bot*
G04 #@! TF.FilePolarity,Positive*
%FSLAX46Y46*%
G04 Gerber Fmt 4.6, Leading zero omitted, Abs format (unit mm)*
G04 Created by KiCad (PCBNEW 5.1.7-a382d34a8~88~ubuntu18.04.1) date 2020-12-27 20:37:00*
%MOMM*%
%LPD*%
G01*
G04 APERTURE LIST*
%ADD10C,0.120000*%
%ADD11C,0.150000*%
G04 APERTURE END LIST*
D10*
X253400000Y-142440000D02*
X250740000Y-142440000D01*
X253400000Y-139840000D02*
X253400000Y-142440000D01*
X250740000Y-139840000D02*
X250740000Y-142440000D01*
X253400000Y-139840000D02*
X250740000Y-139840000D01*
X253400000Y-138570000D02*
X253400000Y-137240000D01*
X253400000Y-137240000D02*
X252070000Y-137240000D01*
X253400000Y-118310000D02*
X250740000Y-118310000D01*
X253400000Y-115710000D02*
X253400000Y-118310000D01*
X250740000Y-115710000D02*
X250740000Y-118310000D01*
X253400000Y-115710000D02*
X250740000Y-115710000D01*
X253400000Y-114440000D02*
X253400000Y-113110000D01*
X253400000Y-113110000D02*
X252070000Y-113110000D01*
X253400000Y-131010000D02*
X250740000Y-131010000D01*
X253400000Y-128410000D02*
X253400000Y-131010000D01*
X250740000Y-128410000D02*
X250740000Y-131010000D01*
X253400000Y-128410000D02*
X250740000Y-128410000D01*
X253400000Y-127140000D02*
X253400000Y-125810000D01*
X253400000Y-125810000D02*
X252070000Y-125810000D01*
X253400000Y-108150000D02*
X250740000Y-108150000D01*
X253400000Y-105550000D02*
X253400000Y-108150000D01*
X250740000Y-105550000D02*
X250740000Y-108150000D01*
X253400000Y-105550000D02*
X250740000Y-105550000D01*
X253400000Y-104280000D02*
X253400000Y-102950000D01*
X253400000Y-102950000D02*
X252070000Y-102950000D01*
X207052000Y-98438000D02*
X207052000Y-99768000D01*
X207052000Y-99768000D02*
X208382000Y-99768000D01*
X207052000Y-97168000D02*
X209652000Y-97168000D01*
X209652000Y-97168000D02*
X209652000Y-99768000D01*
X209652000Y-99768000D02*
X257972000Y-99768000D01*
X257972000Y-94568000D02*
X257972000Y-99768000D01*
X207052000Y-94568000D02*
X257972000Y-94568000D01*
X207052000Y-94568000D02*
X207052000Y-97168000D01*
X250860000Y-118310000D02*
X248200000Y-118310000D01*
X250860000Y-115710000D02*
X250860000Y-118310000D01*
X248200000Y-115710000D02*
X248200000Y-118310000D01*
X250860000Y-115710000D02*
X248200000Y-115710000D01*
X250860000Y-114440000D02*
X250860000Y-113110000D01*
X250860000Y-113110000D02*
X249530000Y-113110000D01*
X250860000Y-142440000D02*
X248200000Y-142440000D01*
X250860000Y-139840000D02*
X250860000Y-142440000D01*
X248200000Y-139840000D02*
X248200000Y-142440000D01*
X250860000Y-139840000D02*
X248200000Y-139840000D01*
X250860000Y-138570000D02*
X250860000Y-137240000D01*
X250860000Y-137240000D02*
X249530000Y-137240000D01*
X250860000Y-131010000D02*
X248200000Y-131010000D01*
X250860000Y-128410000D02*
X250860000Y-131010000D01*
X248200000Y-128410000D02*
X248200000Y-131010000D01*
X250860000Y-128410000D02*
X248200000Y-128410000D01*
X250860000Y-127140000D02*
X250860000Y-125810000D01*
X250860000Y-125810000D02*
X249530000Y-125810000D01*
X250860000Y-108150000D02*
X248200000Y-108150000D01*
X250860000Y-105550000D02*
X250860000Y-108150000D01*
X248200000Y-105550000D02*
X248200000Y-108150000D01*
X250860000Y-105550000D02*
X248200000Y-105550000D01*
X250860000Y-104280000D02*
X250860000Y-102950000D01*
X250860000Y-102950000D02*
X249530000Y-102950000D01*
X219110000Y-143590000D02*
X219110000Y-148790000D01*
X211430000Y-143590000D02*
X219110000Y-143590000D01*
X208830000Y-148790000D02*
X219110000Y-148790000D01*
X211430000Y-143590000D02*
X211430000Y-146190000D01*
X211430000Y-146190000D02*
X208830000Y-146190000D01*
X208830000Y-146190000D02*
X208830000Y-148790000D01*
X210160000Y-143590000D02*
X208830000Y-143590000D01*
X208830000Y-143590000D02*
X208830000Y-144920000D01*
D11*
X252919523Y-135262380D02*
X252919523Y-135976666D01*
X252967142Y-136119523D01*
X253062380Y-136214761D01*
X253205238Y-136262380D01*
X253300476Y-136262380D01*
X251919523Y-136262380D02*
X252490952Y-136262380D01*
X252205238Y-136262380D02*
X252205238Y-135262380D01*
X252300476Y-135405238D01*
X252395714Y-135500476D01*
X252490952Y-135548095D01*
X251348095Y-135690952D02*
X251443333Y-135643333D01*
X251490952Y-135595714D01*
X251538571Y-135500476D01*
X251538571Y-135452857D01*
X251490952Y-135357619D01*
X251443333Y-135310000D01*
X251348095Y-135262380D01*
X251157619Y-135262380D01*
X251062380Y-135310000D01*
X251014761Y-135357619D01*
X250967142Y-135452857D01*
X250967142Y-135500476D01*
X251014761Y-135595714D01*
X251062380Y-135643333D01*
X251157619Y-135690952D01*
X251348095Y-135690952D01*
X251443333Y-135738571D01*
X251490952Y-135786190D01*
X251538571Y-135881428D01*
X251538571Y-136071904D01*
X251490952Y-136167142D01*
X251443333Y-136214761D01*
X251348095Y-136262380D01*
X251157619Y-136262380D01*
X251062380Y-136214761D01*
X251014761Y-136167142D01*
X250967142Y-136071904D01*
X250967142Y-135881428D01*
X251014761Y-135786190D01*
X251062380Y-135738571D01*
X251157619Y-135690952D01*
X253079523Y-111112380D02*
X253079523Y-111826666D01*
X253127142Y-111969523D01*
X253222380Y-112064761D01*
X253365238Y-112112380D01*
X253460476Y-112112380D01*
X252079523Y-112112380D02*
X252650952Y-112112380D01*
X252365238Y-112112380D02*
X252365238Y-111112380D01*
X252460476Y-111255238D01*
X252555714Y-111350476D01*
X252650952Y-111398095D01*
X251746190Y-111112380D02*
X251079523Y-111112380D01*
X251508095Y-112112380D01*
X253159523Y-123782380D02*
X253159523Y-124496666D01*
X253207142Y-124639523D01*
X253302380Y-124734761D01*
X253445238Y-124782380D01*
X253540476Y-124782380D01*
X252159523Y-124782380D02*
X252730952Y-124782380D01*
X252445238Y-124782380D02*
X252445238Y-123782380D01*
X252540476Y-123925238D01*
X252635714Y-124020476D01*
X252730952Y-124068095D01*
X251302380Y-123782380D02*
X251492857Y-123782380D01*
X251588095Y-123830000D01*
X251635714Y-123877619D01*
X251730952Y-124020476D01*
X251778571Y-124210952D01*
X251778571Y-124591904D01*
X251730952Y-124687142D01*
X251683333Y-124734761D01*
X251588095Y-124782380D01*
X251397619Y-124782380D01*
X251302380Y-124734761D01*
X251254761Y-124687142D01*
X251207142Y-124591904D01*
X251207142Y-124353809D01*
X251254761Y-124258571D01*
X251302380Y-124210952D01*
X251397619Y-124163333D01*
X251588095Y-124163333D01*
X251683333Y-124210952D01*
X251730952Y-124258571D01*
X251778571Y-124353809D01*
X253329523Y-101102380D02*
X253329523Y-101816666D01*
X253377142Y-101959523D01*
X253472380Y-102054761D01*
X253615238Y-102102380D01*
X253710476Y-102102380D01*
X252329523Y-102102380D02*
X252900952Y-102102380D01*
X252615238Y-102102380D02*
X252615238Y-101102380D01*
X252710476Y-101245238D01*
X252805714Y-101340476D01*
X252900952Y-101388095D01*
X251424761Y-101102380D02*
X251900952Y-101102380D01*
X251948571Y-101578571D01*
X251900952Y-101530952D01*
X251805714Y-101483333D01*
X251567619Y-101483333D01*
X251472380Y-101530952D01*
X251424761Y-101578571D01*
X251377142Y-101673809D01*
X251377142Y-101911904D01*
X251424761Y-102007142D01*
X251472380Y-102054761D01*
X251567619Y-102102380D01*
X251805714Y-102102380D01*
X251900952Y-102054761D01*
X251948571Y-102007142D01*
X207608095Y-101098380D02*
X207608095Y-100098380D01*
X207227142Y-100098380D01*
X207131904Y-100146000D01*
X207084285Y-100193619D01*
X207036666Y-100288857D01*
X207036666Y-100431714D01*
X207084285Y-100526952D01*
X207131904Y-100574571D01*
X207227142Y-100622190D01*
X207608095Y-100622190D01*
X206084285Y-101098380D02*
X206655714Y-101098380D01*
X206370000Y-101098380D02*
X206370000Y-100098380D01*
X206465238Y-100241238D01*
X206560476Y-100336476D01*
X206655714Y-100384095D01*
X250029523Y-111132380D02*
X250029523Y-111846666D01*
X250077142Y-111989523D01*
X250172380Y-112084761D01*
X250315238Y-112132380D01*
X250410476Y-112132380D01*
X249029523Y-112132380D02*
X249600952Y-112132380D01*
X249315238Y-112132380D02*
X249315238Y-111132380D01*
X249410476Y-111275238D01*
X249505714Y-111370476D01*
X249600952Y-111418095D01*
X248077142Y-112132380D02*
X248648571Y-112132380D01*
X248362857Y-112132380D02*
X248362857Y-111132380D01*
X248458095Y-111275238D01*
X248553333Y-111370476D01*
X248648571Y-111418095D01*
X250139523Y-135302380D02*
X250139523Y-136016666D01*
X250187142Y-136159523D01*
X250282380Y-136254761D01*
X250425238Y-136302380D01*
X250520476Y-136302380D01*
X249139523Y-136302380D02*
X249710952Y-136302380D01*
X249425238Y-136302380D02*
X249425238Y-135302380D01*
X249520476Y-135445238D01*
X249615714Y-135540476D01*
X249710952Y-135588095D01*
X248520476Y-135302380D02*
X248425238Y-135302380D01*
X248330000Y-135350000D01*
X248282380Y-135397619D01*
X248234761Y-135492857D01*
X248187142Y-135683333D01*
X248187142Y-135921428D01*
X248234761Y-136111904D01*
X248282380Y-136207142D01*
X248330000Y-136254761D01*
X248425238Y-136302380D01*
X248520476Y-136302380D01*
X248615714Y-136254761D01*
X248663333Y-136207142D01*
X248710952Y-136111904D01*
X248758571Y-135921428D01*
X248758571Y-135683333D01*
X248710952Y-135492857D01*
X248663333Y-135397619D01*
X248615714Y-135350000D01*
X248520476Y-135302380D01*
X249833333Y-123862380D02*
X249833333Y-124576666D01*
X249880952Y-124719523D01*
X249976190Y-124814761D01*
X250119047Y-124862380D01*
X250214285Y-124862380D01*
X249309523Y-124862380D02*
X249119047Y-124862380D01*
X249023809Y-124814761D01*
X248976190Y-124767142D01*
X248880952Y-124624285D01*
X248833333Y-124433809D01*
X248833333Y-124052857D01*
X248880952Y-123957619D01*
X248928571Y-123910000D01*
X249023809Y-123862380D01*
X249214285Y-123862380D01*
X249309523Y-123910000D01*
X249357142Y-123957619D01*
X249404761Y-124052857D01*
X249404761Y-124290952D01*
X249357142Y-124386190D01*
X249309523Y-124433809D01*
X249214285Y-124481428D01*
X249023809Y-124481428D01*
X248928571Y-124433809D01*
X248880952Y-124386190D01*
X248833333Y-124290952D01*
X249893333Y-101102380D02*
X249893333Y-101816666D01*
X249940952Y-101959523D01*
X250036190Y-102054761D01*
X250179047Y-102102380D01*
X250274285Y-102102380D01*
X249274285Y-101530952D02*
X249369523Y-101483333D01*
X249417142Y-101435714D01*
X249464761Y-101340476D01*
X249464761Y-101292857D01*
X249417142Y-101197619D01*
X249369523Y-101150000D01*
X249274285Y-101102380D01*
X249083809Y-101102380D01*
X248988571Y-101150000D01*
X248940952Y-101197619D01*
X248893333Y-101292857D01*
X248893333Y-101340476D01*
X248940952Y-101435714D01*
X248988571Y-101483333D01*
X249083809Y-101530952D01*
X249274285Y-101530952D01*
X249369523Y-101578571D01*
X249417142Y-101626190D01*
X249464761Y-101721428D01*
X249464761Y-101911904D01*
X249417142Y-102007142D01*
X249369523Y-102054761D01*
X249274285Y-102102380D01*
X249083809Y-102102380D01*
X248988571Y-102054761D01*
X248940952Y-102007142D01*
X248893333Y-101911904D01*
X248893333Y-101721428D01*
X248940952Y-101626190D01*
X248988571Y-101578571D01*
X249083809Y-101530952D01*
X207282380Y-145856666D02*
X207996666Y-145856666D01*
X208139523Y-145809047D01*
X208234761Y-145713809D01*
X208282380Y-145570952D01*
X208282380Y-145475714D01*
X207282380Y-146237619D02*
X207282380Y-146856666D01*
X207663333Y-146523333D01*
X207663333Y-146666190D01*
X207710952Y-146761428D01*
X207758571Y-146809047D01*
X207853809Y-146856666D01*
X208091904Y-146856666D01*
X208187142Y-146809047D01*
X208234761Y-146761428D01*
X208282380Y-146666190D01*
X208282380Y-146380476D01*
X208234761Y-146285238D01*
X208187142Y-146237619D01*
M02*
