G04 #@! TF.GenerationSoftware,KiCad,Pcbnew,5.1.7-a382d34a8~88~ubuntu18.04.1*
G04 #@! TF.CreationDate,2021-04-23T14:54:25+02:00*
G04 #@! TF.ProjectId,relais_hat,72656c61-6973-45f6-9861-742e6b696361,rev?*
G04 #@! TF.SameCoordinates,Original*
G04 #@! TF.FileFunction,Legend,Top*
G04 #@! TF.FilePolarity,Positive*
%FSLAX46Y46*%
G04 Gerber Fmt 4.6, Leading zero omitted, Abs format (unit mm)*
G04 Created by KiCad (PCBNEW 5.1.7-a382d34a8~88~ubuntu18.04.1) date 2021-04-23 14:54:25*
%MOMM*%
%LPD*%
G01*
G04 APERTURE LIST*
%ADD10C,0.120000*%
%ADD11C,0.100000*%
%ADD12C,0.200000*%
%ADD13C,0.150000*%
%ADD14C,0.254000*%
G04 APERTURE END LIST*
D10*
X251022936Y-110185000D02*
X251477064Y-110185000D01*
X251022936Y-111655000D02*
X251477064Y-111655000D01*
X250322936Y-120555000D02*
X250777064Y-120555000D01*
X250322936Y-122025000D02*
X250777064Y-122025000D01*
X251302936Y-133005000D02*
X251757064Y-133005000D01*
X251302936Y-134475000D02*
X251757064Y-134475000D01*
X251722936Y-143685000D02*
X252177064Y-143685000D01*
X251722936Y-145155000D02*
X252177064Y-145155000D01*
X266022936Y-130085000D02*
X266477064Y-130085000D01*
X266022936Y-128615000D02*
X266477064Y-128615000D01*
D11*
X234760000Y-119320000D02*
X240860000Y-119320000D01*
X240860000Y-119320000D02*
X240860000Y-112820000D01*
X240860000Y-112820000D02*
X234760000Y-112820000D01*
D12*
X244720000Y-118470000D02*
X244720000Y-118470000D01*
X244720000Y-118270000D02*
X244720000Y-118270000D01*
X244720000Y-118470000D02*
G75*
G02*
X244720000Y-118270000I0J100000D01*
G01*
X244720000Y-118270000D02*
G75*
G02*
X244720000Y-118470000I0J-100000D01*
G01*
D11*
X234750000Y-109270000D02*
X240850000Y-109270000D01*
X240850000Y-109270000D02*
X240850000Y-102770000D01*
X240850000Y-102770000D02*
X234750000Y-102770000D01*
D12*
X244710000Y-108420000D02*
X244710000Y-108420000D01*
X244710000Y-108220000D02*
X244710000Y-108220000D01*
X244710000Y-108420000D02*
G75*
G02*
X244710000Y-108220000I0J100000D01*
G01*
X244710000Y-108220000D02*
G75*
G02*
X244710000Y-108420000I0J-100000D01*
G01*
D11*
X234500000Y-140650000D02*
X240600000Y-140650000D01*
X240600000Y-140650000D02*
X240600000Y-134150000D01*
X240600000Y-134150000D02*
X234500000Y-134150000D01*
D12*
X244460000Y-139800000D02*
X244460000Y-139800000D01*
X244460000Y-139600000D02*
X244460000Y-139600000D01*
X244460000Y-139800000D02*
G75*
G02*
X244460000Y-139600000I0J100000D01*
G01*
X244460000Y-139600000D02*
G75*
G02*
X244460000Y-139800000I0J-100000D01*
G01*
D11*
X234600000Y-129950000D02*
X240700000Y-129950000D01*
X240700000Y-129950000D02*
X240700000Y-123450000D01*
X240700000Y-123450000D02*
X234600000Y-123450000D01*
D12*
X244560000Y-129100000D02*
X244560000Y-129100000D01*
X244560000Y-128900000D02*
X244560000Y-128900000D01*
X244560000Y-129100000D02*
G75*
G02*
X244560000Y-128900000I0J100000D01*
G01*
X244560000Y-128900000D02*
G75*
G02*
X244560000Y-129100000I0J-100000D01*
G01*
X224382000Y-109212000D02*
X224382000Y-112408000D01*
X224382000Y-112408000D02*
X219478000Y-112408000D01*
X219478000Y-112408000D02*
X219478000Y-109212000D01*
X219478000Y-109212000D02*
X224382000Y-109212000D01*
X224510000Y-107335000D02*
X224510000Y-108862000D01*
X218978000Y-131868000D02*
X218978000Y-128672000D01*
X218978000Y-128672000D02*
X223882000Y-128672000D01*
X223882000Y-128672000D02*
X223882000Y-131868000D01*
X223882000Y-131868000D02*
X218978000Y-131868000D01*
X218850000Y-133745000D02*
X218850000Y-132218000D01*
D10*
X214917064Y-118405000D02*
X214462936Y-118405000D01*
X214917064Y-116935000D02*
X214462936Y-116935000D01*
X214917064Y-116155000D02*
X214462936Y-116155000D01*
X214917064Y-114685000D02*
X214462936Y-114685000D01*
X211227064Y-118405000D02*
X210772936Y-118405000D01*
X211227064Y-116935000D02*
X210772936Y-116935000D01*
X210772936Y-114695000D02*
X211227064Y-114695000D01*
X210772936Y-116165000D02*
X211227064Y-116165000D01*
X220160436Y-102615000D02*
X220614564Y-102615000D01*
X220160436Y-104085000D02*
X220614564Y-104085000D01*
X222042936Y-104685000D02*
X222497064Y-104685000D01*
X222042936Y-106155000D02*
X222497064Y-106155000D01*
X212422936Y-131515000D02*
X212877064Y-131515000D01*
X212422936Y-132985000D02*
X212877064Y-132985000D01*
X212422936Y-129175000D02*
X212877064Y-129175000D01*
X212422936Y-130645000D02*
X212877064Y-130645000D01*
X216140436Y-131525000D02*
X216594564Y-131525000D01*
X216140436Y-132995000D02*
X216594564Y-132995000D01*
X216577064Y-130635000D02*
X216122936Y-130635000D01*
X216577064Y-129165000D02*
X216122936Y-129165000D01*
X223287064Y-138375000D02*
X222832936Y-138375000D01*
X223287064Y-136905000D02*
X222832936Y-136905000D01*
X221347064Y-136255000D02*
X220892936Y-136255000D01*
X221347064Y-134785000D02*
X220892936Y-134785000D01*
X221008748Y-120015000D02*
X221531252Y-120015000D01*
X221008748Y-121485000D02*
X221531252Y-121485000D01*
X221018748Y-117815000D02*
X221541252Y-117815000D01*
X221018748Y-119285000D02*
X221541252Y-119285000D01*
X220958748Y-124405000D02*
X221481252Y-124405000D01*
X220958748Y-125875000D02*
X221481252Y-125875000D01*
X220978748Y-122195000D02*
X221501252Y-122195000D01*
X220978748Y-123665000D02*
X221501252Y-123665000D01*
X241966000Y-144936000D02*
X241966000Y-147621000D01*
X241966000Y-147621000D02*
X243886000Y-147621000D01*
X243886000Y-147621000D02*
X243886000Y-144936000D01*
X239426000Y-144936000D02*
X239426000Y-147621000D01*
X239426000Y-147621000D02*
X241346000Y-147621000D01*
X241346000Y-147621000D02*
X241346000Y-144936000D01*
X235108000Y-144936000D02*
X235108000Y-147621000D01*
X235108000Y-147621000D02*
X237028000Y-147621000D01*
X237028000Y-147621000D02*
X237028000Y-144936000D01*
X232568000Y-144936000D02*
X232568000Y-147621000D01*
X232568000Y-147621000D02*
X234488000Y-147621000D01*
X234488000Y-147621000D02*
X234488000Y-144936000D01*
X267878000Y-97616000D02*
X265218000Y-97616000D01*
X267878000Y-100216000D02*
X267878000Y-97616000D01*
X265218000Y-100216000D02*
X265218000Y-97616000D01*
X267878000Y-100216000D02*
X265218000Y-100216000D01*
X267878000Y-101486000D02*
X267878000Y-102816000D01*
X267878000Y-102816000D02*
X266548000Y-102816000D01*
X278340000Y-104134000D02*
X278340000Y-101784000D01*
X278340000Y-97314000D02*
X278340000Y-99664000D01*
X272584437Y-97314000D02*
X278340000Y-97314000D01*
X272584437Y-104134000D02*
X278340000Y-104134000D01*
X271520000Y-103069563D02*
X271520000Y-101784000D01*
X271520000Y-98378437D02*
X271520000Y-99664000D01*
X271520000Y-98378437D02*
X272584437Y-97314000D01*
X271520000Y-103069563D02*
X272584437Y-104134000D01*
X270492500Y-98876500D02*
X271280000Y-98876500D01*
X270886250Y-98482750D02*
X270886250Y-99270250D01*
X264710000Y-119834000D02*
X267370000Y-119834000D01*
X264710000Y-114694000D02*
X264710000Y-119834000D01*
X267370000Y-114694000D02*
X267370000Y-119834000D01*
X264710000Y-114694000D02*
X267370000Y-114694000D01*
X264710000Y-113424000D02*
X264710000Y-112094000D01*
X264710000Y-112094000D02*
X266040000Y-112094000D01*
X262170000Y-119834000D02*
X264830000Y-119834000D01*
X262170000Y-114694000D02*
X262170000Y-119834000D01*
X264830000Y-114694000D02*
X264830000Y-119834000D01*
X262170000Y-114694000D02*
X264830000Y-114694000D01*
X262170000Y-113424000D02*
X262170000Y-112094000D01*
X262170000Y-112094000D02*
X263500000Y-112094000D01*
X259630000Y-119834000D02*
X262290000Y-119834000D01*
X259630000Y-114694000D02*
X259630000Y-119834000D01*
X262290000Y-114694000D02*
X262290000Y-119834000D01*
X259630000Y-114694000D02*
X262290000Y-114694000D01*
X259630000Y-113424000D02*
X259630000Y-112094000D01*
X259630000Y-112094000D02*
X260960000Y-112094000D01*
X284936000Y-137751000D02*
X274456000Y-137751000D01*
X274456000Y-137751000D02*
X274456000Y-106781000D01*
X274456000Y-106781000D02*
X284936000Y-106781000D01*
X273561662Y-116976000D02*
X273561662Y-116476000D01*
X273561662Y-116476000D02*
X273994675Y-116726000D01*
X273994675Y-116726000D02*
X273561662Y-116976000D01*
X245264000Y-146194578D02*
X245264000Y-145677422D01*
X246684000Y-146194578D02*
X246684000Y-145677422D01*
X247550000Y-146194578D02*
X247550000Y-145677422D01*
X248970000Y-146194578D02*
X248970000Y-145677422D01*
X227484000Y-146194578D02*
X227484000Y-145677422D01*
X228904000Y-146194578D02*
X228904000Y-145677422D01*
X229770000Y-146194578D02*
X229770000Y-145677422D01*
X231190000Y-146194578D02*
X231190000Y-145677422D01*
X201780000Y-141620000D02*
X201780000Y-131460000D01*
X200510000Y-141620000D02*
X208130000Y-141620000D01*
X208130000Y-141620000D02*
X208130000Y-131460000D01*
X208130000Y-131460000D02*
X200510000Y-131460000D01*
X200510000Y-131460000D02*
X200510000Y-141620000D01*
X201778000Y-131458000D02*
X201778000Y-121298000D01*
X200508000Y-131458000D02*
X208128000Y-131458000D01*
X208128000Y-131458000D02*
X208128000Y-121298000D01*
X208128000Y-121298000D02*
X200508000Y-121298000D01*
X200508000Y-121298000D02*
X200508000Y-131458000D01*
X201780000Y-121300000D02*
X201780000Y-111140000D01*
X200510000Y-121300000D02*
X208130000Y-121300000D01*
X208130000Y-121300000D02*
X208130000Y-111140000D01*
X208130000Y-111140000D02*
X200510000Y-111140000D01*
X200510000Y-111140000D02*
X200510000Y-121300000D01*
X201780000Y-111140000D02*
X201780000Y-100980000D01*
X200510000Y-111140000D02*
X208130000Y-111140000D01*
X208130000Y-111140000D02*
X208130000Y-100980000D01*
X208130000Y-100980000D02*
X200510000Y-100980000D01*
X200510000Y-100980000D02*
X200510000Y-111140000D01*
X258420000Y-124730000D02*
X258420000Y-104150000D01*
X268580000Y-122060000D02*
X268580000Y-104150000D01*
X269850000Y-124730000D02*
X271250000Y-124730000D01*
X271250000Y-124730000D02*
X271250000Y-123330000D01*
X268580000Y-124730000D02*
X268580000Y-122060000D01*
X268580000Y-122060000D02*
X271250000Y-122060000D01*
X271250000Y-122060000D02*
X271250000Y-104150000D01*
X271250000Y-104150000D02*
X255750000Y-104150000D01*
X255750000Y-104150000D02*
X255750000Y-124730000D01*
X255750000Y-124730000D02*
X268580000Y-124730000D01*
D13*
X250607142Y-109722380D02*
X250273809Y-109246190D01*
X250035714Y-109722380D02*
X250035714Y-108722380D01*
X250416666Y-108722380D01*
X250511904Y-108770000D01*
X250559523Y-108817619D01*
X250607142Y-108912857D01*
X250607142Y-109055714D01*
X250559523Y-109150952D01*
X250511904Y-109198571D01*
X250416666Y-109246190D01*
X250035714Y-109246190D01*
X250988095Y-108817619D02*
X251035714Y-108770000D01*
X251130952Y-108722380D01*
X251369047Y-108722380D01*
X251464285Y-108770000D01*
X251511904Y-108817619D01*
X251559523Y-108912857D01*
X251559523Y-109008095D01*
X251511904Y-109150952D01*
X250940476Y-109722380D01*
X251559523Y-109722380D01*
X252511904Y-109722380D02*
X251940476Y-109722380D01*
X252226190Y-109722380D02*
X252226190Y-108722380D01*
X252130952Y-108865238D01*
X252035714Y-108960476D01*
X251940476Y-109008095D01*
X249907142Y-120092380D02*
X249573809Y-119616190D01*
X249335714Y-120092380D02*
X249335714Y-119092380D01*
X249716666Y-119092380D01*
X249811904Y-119140000D01*
X249859523Y-119187619D01*
X249907142Y-119282857D01*
X249907142Y-119425714D01*
X249859523Y-119520952D01*
X249811904Y-119568571D01*
X249716666Y-119616190D01*
X249335714Y-119616190D01*
X250288095Y-119187619D02*
X250335714Y-119140000D01*
X250430952Y-119092380D01*
X250669047Y-119092380D01*
X250764285Y-119140000D01*
X250811904Y-119187619D01*
X250859523Y-119282857D01*
X250859523Y-119378095D01*
X250811904Y-119520952D01*
X250240476Y-120092380D01*
X250859523Y-120092380D01*
X251478571Y-119092380D02*
X251573809Y-119092380D01*
X251669047Y-119140000D01*
X251716666Y-119187619D01*
X251764285Y-119282857D01*
X251811904Y-119473333D01*
X251811904Y-119711428D01*
X251764285Y-119901904D01*
X251716666Y-119997142D01*
X251669047Y-120044761D01*
X251573809Y-120092380D01*
X251478571Y-120092380D01*
X251383333Y-120044761D01*
X251335714Y-119997142D01*
X251288095Y-119901904D01*
X251240476Y-119711428D01*
X251240476Y-119473333D01*
X251288095Y-119282857D01*
X251335714Y-119187619D01*
X251383333Y-119140000D01*
X251478571Y-119092380D01*
X250887142Y-132542380D02*
X250553809Y-132066190D01*
X250315714Y-132542380D02*
X250315714Y-131542380D01*
X250696666Y-131542380D01*
X250791904Y-131590000D01*
X250839523Y-131637619D01*
X250887142Y-131732857D01*
X250887142Y-131875714D01*
X250839523Y-131970952D01*
X250791904Y-132018571D01*
X250696666Y-132066190D01*
X250315714Y-132066190D01*
X251839523Y-132542380D02*
X251268095Y-132542380D01*
X251553809Y-132542380D02*
X251553809Y-131542380D01*
X251458571Y-131685238D01*
X251363333Y-131780476D01*
X251268095Y-131828095D01*
X252315714Y-132542380D02*
X252506190Y-132542380D01*
X252601428Y-132494761D01*
X252649047Y-132447142D01*
X252744285Y-132304285D01*
X252791904Y-132113809D01*
X252791904Y-131732857D01*
X252744285Y-131637619D01*
X252696666Y-131590000D01*
X252601428Y-131542380D01*
X252410952Y-131542380D01*
X252315714Y-131590000D01*
X252268095Y-131637619D01*
X252220476Y-131732857D01*
X252220476Y-131970952D01*
X252268095Y-132066190D01*
X252315714Y-132113809D01*
X252410952Y-132161428D01*
X252601428Y-132161428D01*
X252696666Y-132113809D01*
X252744285Y-132066190D01*
X252791904Y-131970952D01*
X251307142Y-143222380D02*
X250973809Y-142746190D01*
X250735714Y-143222380D02*
X250735714Y-142222380D01*
X251116666Y-142222380D01*
X251211904Y-142270000D01*
X251259523Y-142317619D01*
X251307142Y-142412857D01*
X251307142Y-142555714D01*
X251259523Y-142650952D01*
X251211904Y-142698571D01*
X251116666Y-142746190D01*
X250735714Y-142746190D01*
X252259523Y-143222380D02*
X251688095Y-143222380D01*
X251973809Y-143222380D02*
X251973809Y-142222380D01*
X251878571Y-142365238D01*
X251783333Y-142460476D01*
X251688095Y-142508095D01*
X252830952Y-142650952D02*
X252735714Y-142603333D01*
X252688095Y-142555714D01*
X252640476Y-142460476D01*
X252640476Y-142412857D01*
X252688095Y-142317619D01*
X252735714Y-142270000D01*
X252830952Y-142222380D01*
X253021428Y-142222380D01*
X253116666Y-142270000D01*
X253164285Y-142317619D01*
X253211904Y-142412857D01*
X253211904Y-142460476D01*
X253164285Y-142555714D01*
X253116666Y-142603333D01*
X253021428Y-142650952D01*
X252830952Y-142650952D01*
X252735714Y-142698571D01*
X252688095Y-142746190D01*
X252640476Y-142841428D01*
X252640476Y-143031904D01*
X252688095Y-143127142D01*
X252735714Y-143174761D01*
X252830952Y-143222380D01*
X253021428Y-143222380D01*
X253116666Y-143174761D01*
X253164285Y-143127142D01*
X253211904Y-143031904D01*
X253211904Y-142841428D01*
X253164285Y-142746190D01*
X253116666Y-142698571D01*
X253021428Y-142650952D01*
X265607142Y-128152380D02*
X265273809Y-127676190D01*
X265035714Y-128152380D02*
X265035714Y-127152380D01*
X265416666Y-127152380D01*
X265511904Y-127200000D01*
X265559523Y-127247619D01*
X265607142Y-127342857D01*
X265607142Y-127485714D01*
X265559523Y-127580952D01*
X265511904Y-127628571D01*
X265416666Y-127676190D01*
X265035714Y-127676190D01*
X266559523Y-128152380D02*
X265988095Y-128152380D01*
X266273809Y-128152380D02*
X266273809Y-127152380D01*
X266178571Y-127295238D01*
X266083333Y-127390476D01*
X265988095Y-127438095D01*
X266892857Y-127152380D02*
X267559523Y-127152380D01*
X267130952Y-128152380D01*
D14*
X231785476Y-116060952D02*
X231725000Y-116181904D01*
X231604047Y-116302857D01*
X231422619Y-116484285D01*
X231362142Y-116605238D01*
X231362142Y-116726190D01*
X231664523Y-116665714D02*
X231604047Y-116786666D01*
X231483095Y-116907619D01*
X231241190Y-116968095D01*
X230817857Y-116968095D01*
X230575952Y-116907619D01*
X230455000Y-116786666D01*
X230394523Y-116665714D01*
X230394523Y-116423809D01*
X230455000Y-116302857D01*
X230575952Y-116181904D01*
X230817857Y-116121428D01*
X231241190Y-116121428D01*
X231483095Y-116181904D01*
X231604047Y-116302857D01*
X231664523Y-116423809D01*
X231664523Y-116665714D01*
X230515476Y-115637619D02*
X230455000Y-115577142D01*
X230394523Y-115456190D01*
X230394523Y-115153809D01*
X230455000Y-115032857D01*
X230515476Y-114972380D01*
X230636428Y-114911904D01*
X230757380Y-114911904D01*
X230938809Y-114972380D01*
X231664523Y-115698095D01*
X231664523Y-114911904D01*
X231845476Y-106230952D02*
X231785000Y-106351904D01*
X231664047Y-106472857D01*
X231482619Y-106654285D01*
X231422142Y-106775238D01*
X231422142Y-106896190D01*
X231724523Y-106835714D02*
X231664047Y-106956666D01*
X231543095Y-107077619D01*
X231301190Y-107138095D01*
X230877857Y-107138095D01*
X230635952Y-107077619D01*
X230515000Y-106956666D01*
X230454523Y-106835714D01*
X230454523Y-106593809D01*
X230515000Y-106472857D01*
X230635952Y-106351904D01*
X230877857Y-106291428D01*
X231301190Y-106291428D01*
X231543095Y-106351904D01*
X231664047Y-106472857D01*
X231724523Y-106593809D01*
X231724523Y-106835714D01*
X231724523Y-105081904D02*
X231724523Y-105807619D01*
X231724523Y-105444761D02*
X230454523Y-105444761D01*
X230635952Y-105565714D01*
X230756904Y-105686666D01*
X230817380Y-105807619D01*
X231255476Y-137370952D02*
X231195000Y-137491904D01*
X231074047Y-137612857D01*
X230892619Y-137794285D01*
X230832142Y-137915238D01*
X230832142Y-138036190D01*
X231134523Y-137975714D02*
X231074047Y-138096666D01*
X230953095Y-138217619D01*
X230711190Y-138278095D01*
X230287857Y-138278095D01*
X230045952Y-138217619D01*
X229925000Y-138096666D01*
X229864523Y-137975714D01*
X229864523Y-137733809D01*
X229925000Y-137612857D01*
X230045952Y-137491904D01*
X230287857Y-137431428D01*
X230711190Y-137431428D01*
X230953095Y-137491904D01*
X231074047Y-137612857D01*
X231134523Y-137733809D01*
X231134523Y-137975714D01*
X230287857Y-136342857D02*
X231134523Y-136342857D01*
X229804047Y-136645238D02*
X230711190Y-136947619D01*
X230711190Y-136161428D01*
X231565476Y-126650952D02*
X231505000Y-126771904D01*
X231384047Y-126892857D01*
X231202619Y-127074285D01*
X231142142Y-127195238D01*
X231142142Y-127316190D01*
X231444523Y-127255714D02*
X231384047Y-127376666D01*
X231263095Y-127497619D01*
X231021190Y-127558095D01*
X230597857Y-127558095D01*
X230355952Y-127497619D01*
X230235000Y-127376666D01*
X230174523Y-127255714D01*
X230174523Y-127013809D01*
X230235000Y-126892857D01*
X230355952Y-126771904D01*
X230597857Y-126711428D01*
X231021190Y-126711428D01*
X231263095Y-126771904D01*
X231384047Y-126892857D01*
X231444523Y-127013809D01*
X231444523Y-127255714D01*
X230174523Y-126288095D02*
X230174523Y-125501904D01*
X230658333Y-125925238D01*
X230658333Y-125743809D01*
X230718809Y-125622857D01*
X230779285Y-125562380D01*
X230900238Y-125501904D01*
X231202619Y-125501904D01*
X231323571Y-125562380D01*
X231384047Y-125622857D01*
X231444523Y-125743809D01*
X231444523Y-126106666D01*
X231384047Y-126227619D01*
X231323571Y-126288095D01*
X226584523Y-112129761D02*
X225314523Y-112129761D01*
X226463571Y-110799285D02*
X226524047Y-110859761D01*
X226584523Y-111041190D01*
X226584523Y-111162142D01*
X226524047Y-111343571D01*
X226403095Y-111464523D01*
X226282142Y-111525000D01*
X226040238Y-111585476D01*
X225858809Y-111585476D01*
X225616904Y-111525000D01*
X225495952Y-111464523D01*
X225375000Y-111343571D01*
X225314523Y-111162142D01*
X225314523Y-111041190D01*
X225375000Y-110859761D01*
X225435476Y-110799285D01*
X225435476Y-110315476D02*
X225375000Y-110255000D01*
X225314523Y-110134047D01*
X225314523Y-109831666D01*
X225375000Y-109710714D01*
X225435476Y-109650238D01*
X225556428Y-109589761D01*
X225677380Y-109589761D01*
X225858809Y-109650238D01*
X226584523Y-110375952D01*
X226584523Y-109589761D01*
X225764523Y-131399761D02*
X224494523Y-131399761D01*
X225643571Y-130069285D02*
X225704047Y-130129761D01*
X225764523Y-130311190D01*
X225764523Y-130432142D01*
X225704047Y-130613571D01*
X225583095Y-130734523D01*
X225462142Y-130795000D01*
X225220238Y-130855476D01*
X225038809Y-130855476D01*
X224796904Y-130795000D01*
X224675952Y-130734523D01*
X224555000Y-130613571D01*
X224494523Y-130432142D01*
X224494523Y-130311190D01*
X224555000Y-130129761D01*
X224615476Y-130069285D01*
X225764523Y-128859761D02*
X225764523Y-129585476D01*
X225764523Y-129222619D02*
X224494523Y-129222619D01*
X224675952Y-129343571D01*
X224796904Y-129464523D01*
X224857380Y-129585476D01*
D13*
X214047142Y-119772380D02*
X213713809Y-119296190D01*
X213475714Y-119772380D02*
X213475714Y-118772380D01*
X213856666Y-118772380D01*
X213951904Y-118820000D01*
X213999523Y-118867619D01*
X214047142Y-118962857D01*
X214047142Y-119105714D01*
X213999523Y-119200952D01*
X213951904Y-119248571D01*
X213856666Y-119296190D01*
X213475714Y-119296190D01*
X214999523Y-119772380D02*
X214428095Y-119772380D01*
X214713809Y-119772380D02*
X214713809Y-118772380D01*
X214618571Y-118915238D01*
X214523333Y-119010476D01*
X214428095Y-119058095D01*
X215856666Y-118772380D02*
X215666190Y-118772380D01*
X215570952Y-118820000D01*
X215523333Y-118867619D01*
X215428095Y-119010476D01*
X215380476Y-119200952D01*
X215380476Y-119581904D01*
X215428095Y-119677142D01*
X215475714Y-119724761D01*
X215570952Y-119772380D01*
X215761428Y-119772380D01*
X215856666Y-119724761D01*
X215904285Y-119677142D01*
X215951904Y-119581904D01*
X215951904Y-119343809D01*
X215904285Y-119248571D01*
X215856666Y-119200952D01*
X215761428Y-119153333D01*
X215570952Y-119153333D01*
X215475714Y-119200952D01*
X215428095Y-119248571D01*
X215380476Y-119343809D01*
X214107142Y-114002380D02*
X213773809Y-113526190D01*
X213535714Y-114002380D02*
X213535714Y-113002380D01*
X213916666Y-113002380D01*
X214011904Y-113050000D01*
X214059523Y-113097619D01*
X214107142Y-113192857D01*
X214107142Y-113335714D01*
X214059523Y-113430952D01*
X214011904Y-113478571D01*
X213916666Y-113526190D01*
X213535714Y-113526190D01*
X215059523Y-114002380D02*
X214488095Y-114002380D01*
X214773809Y-114002380D02*
X214773809Y-113002380D01*
X214678571Y-113145238D01*
X214583333Y-113240476D01*
X214488095Y-113288095D01*
X215964285Y-113002380D02*
X215488095Y-113002380D01*
X215440476Y-113478571D01*
X215488095Y-113430952D01*
X215583333Y-113383333D01*
X215821428Y-113383333D01*
X215916666Y-113430952D01*
X215964285Y-113478571D01*
X216011904Y-113573809D01*
X216011904Y-113811904D01*
X215964285Y-113907142D01*
X215916666Y-113954761D01*
X215821428Y-114002380D01*
X215583333Y-114002380D01*
X215488095Y-113954761D01*
X215440476Y-113907142D01*
X210314642Y-119662380D02*
X209981309Y-119186190D01*
X209743214Y-119662380D02*
X209743214Y-118662380D01*
X210124166Y-118662380D01*
X210219404Y-118710000D01*
X210267023Y-118757619D01*
X210314642Y-118852857D01*
X210314642Y-118995714D01*
X210267023Y-119090952D01*
X210219404Y-119138571D01*
X210124166Y-119186190D01*
X209743214Y-119186190D01*
X211267023Y-119662380D02*
X210695595Y-119662380D01*
X210981309Y-119662380D02*
X210981309Y-118662380D01*
X210886071Y-118805238D01*
X210790833Y-118900476D01*
X210695595Y-118948095D01*
X212124166Y-118995714D02*
X212124166Y-119662380D01*
X211886071Y-118614761D02*
X211647976Y-119329047D01*
X212267023Y-119329047D01*
X210437142Y-114042380D02*
X210103809Y-113566190D01*
X209865714Y-114042380D02*
X209865714Y-113042380D01*
X210246666Y-113042380D01*
X210341904Y-113090000D01*
X210389523Y-113137619D01*
X210437142Y-113232857D01*
X210437142Y-113375714D01*
X210389523Y-113470952D01*
X210341904Y-113518571D01*
X210246666Y-113566190D01*
X209865714Y-113566190D01*
X211389523Y-114042380D02*
X210818095Y-114042380D01*
X211103809Y-114042380D02*
X211103809Y-113042380D01*
X211008571Y-113185238D01*
X210913333Y-113280476D01*
X210818095Y-113328095D01*
X211722857Y-113042380D02*
X212341904Y-113042380D01*
X212008571Y-113423333D01*
X212151428Y-113423333D01*
X212246666Y-113470952D01*
X212294285Y-113518571D01*
X212341904Y-113613809D01*
X212341904Y-113851904D01*
X212294285Y-113947142D01*
X212246666Y-113994761D01*
X212151428Y-114042380D01*
X211865714Y-114042380D01*
X211770476Y-113994761D01*
X211722857Y-113947142D01*
X219744642Y-102152380D02*
X219411309Y-101676190D01*
X219173214Y-102152380D02*
X219173214Y-101152380D01*
X219554166Y-101152380D01*
X219649404Y-101200000D01*
X219697023Y-101247619D01*
X219744642Y-101342857D01*
X219744642Y-101485714D01*
X219697023Y-101580952D01*
X219649404Y-101628571D01*
X219554166Y-101676190D01*
X219173214Y-101676190D01*
X220697023Y-102152380D02*
X220125595Y-102152380D01*
X220411309Y-102152380D02*
X220411309Y-101152380D01*
X220316071Y-101295238D01*
X220220833Y-101390476D01*
X220125595Y-101438095D01*
X221077976Y-101247619D02*
X221125595Y-101200000D01*
X221220833Y-101152380D01*
X221458928Y-101152380D01*
X221554166Y-101200000D01*
X221601785Y-101247619D01*
X221649404Y-101342857D01*
X221649404Y-101438095D01*
X221601785Y-101580952D01*
X221030357Y-102152380D01*
X221649404Y-102152380D01*
X222937142Y-104232380D02*
X222603809Y-103756190D01*
X222365714Y-104232380D02*
X222365714Y-103232380D01*
X222746666Y-103232380D01*
X222841904Y-103280000D01*
X222889523Y-103327619D01*
X222937142Y-103422857D01*
X222937142Y-103565714D01*
X222889523Y-103660952D01*
X222841904Y-103708571D01*
X222746666Y-103756190D01*
X222365714Y-103756190D01*
X223889523Y-104232380D02*
X223318095Y-104232380D01*
X223603809Y-104232380D02*
X223603809Y-103232380D01*
X223508571Y-103375238D01*
X223413333Y-103470476D01*
X223318095Y-103518095D01*
X224841904Y-104232380D02*
X224270476Y-104232380D01*
X224556190Y-104232380D02*
X224556190Y-103232380D01*
X224460952Y-103375238D01*
X224365714Y-103470476D01*
X224270476Y-103518095D01*
X212027142Y-134462380D02*
X211693809Y-133986190D01*
X211455714Y-134462380D02*
X211455714Y-133462380D01*
X211836666Y-133462380D01*
X211931904Y-133510000D01*
X211979523Y-133557619D01*
X212027142Y-133652857D01*
X212027142Y-133795714D01*
X211979523Y-133890952D01*
X211931904Y-133938571D01*
X211836666Y-133986190D01*
X211455714Y-133986190D01*
X212979523Y-134462380D02*
X212408095Y-134462380D01*
X212693809Y-134462380D02*
X212693809Y-133462380D01*
X212598571Y-133605238D01*
X212503333Y-133700476D01*
X212408095Y-133748095D01*
X213598571Y-133462380D02*
X213693809Y-133462380D01*
X213789047Y-133510000D01*
X213836666Y-133557619D01*
X213884285Y-133652857D01*
X213931904Y-133843333D01*
X213931904Y-134081428D01*
X213884285Y-134271904D01*
X213836666Y-134367142D01*
X213789047Y-134414761D01*
X213693809Y-134462380D01*
X213598571Y-134462380D01*
X213503333Y-134414761D01*
X213455714Y-134367142D01*
X213408095Y-134271904D01*
X213360476Y-134081428D01*
X213360476Y-133843333D01*
X213408095Y-133652857D01*
X213455714Y-133557619D01*
X213503333Y-133510000D01*
X213598571Y-133462380D01*
X212483333Y-128712380D02*
X212150000Y-128236190D01*
X211911904Y-128712380D02*
X211911904Y-127712380D01*
X212292857Y-127712380D01*
X212388095Y-127760000D01*
X212435714Y-127807619D01*
X212483333Y-127902857D01*
X212483333Y-128045714D01*
X212435714Y-128140952D01*
X212388095Y-128188571D01*
X212292857Y-128236190D01*
X211911904Y-128236190D01*
X212959523Y-128712380D02*
X213150000Y-128712380D01*
X213245238Y-128664761D01*
X213292857Y-128617142D01*
X213388095Y-128474285D01*
X213435714Y-128283809D01*
X213435714Y-127902857D01*
X213388095Y-127807619D01*
X213340476Y-127760000D01*
X213245238Y-127712380D01*
X213054761Y-127712380D01*
X212959523Y-127760000D01*
X212911904Y-127807619D01*
X212864285Y-127902857D01*
X212864285Y-128140952D01*
X212911904Y-128236190D01*
X212959523Y-128283809D01*
X213054761Y-128331428D01*
X213245238Y-128331428D01*
X213340476Y-128283809D01*
X213388095Y-128236190D01*
X213435714Y-128140952D01*
X216133333Y-134472380D02*
X215800000Y-133996190D01*
X215561904Y-134472380D02*
X215561904Y-133472380D01*
X215942857Y-133472380D01*
X216038095Y-133520000D01*
X216085714Y-133567619D01*
X216133333Y-133662857D01*
X216133333Y-133805714D01*
X216085714Y-133900952D01*
X216038095Y-133948571D01*
X215942857Y-133996190D01*
X215561904Y-133996190D01*
X216990476Y-133805714D02*
X216990476Y-134472380D01*
X216752380Y-133424761D02*
X216514285Y-134139047D01*
X217133333Y-134139047D01*
X216143333Y-128662380D02*
X215810000Y-128186190D01*
X215571904Y-128662380D02*
X215571904Y-127662380D01*
X215952857Y-127662380D01*
X216048095Y-127710000D01*
X216095714Y-127757619D01*
X216143333Y-127852857D01*
X216143333Y-127995714D01*
X216095714Y-128090952D01*
X216048095Y-128138571D01*
X215952857Y-128186190D01*
X215571904Y-128186190D01*
X216476666Y-127662380D02*
X217095714Y-127662380D01*
X216762380Y-128043333D01*
X216905238Y-128043333D01*
X217000476Y-128090952D01*
X217048095Y-128138571D01*
X217095714Y-128233809D01*
X217095714Y-128471904D01*
X217048095Y-128567142D01*
X217000476Y-128614761D01*
X216905238Y-128662380D01*
X216619523Y-128662380D01*
X216524285Y-128614761D01*
X216476666Y-128567142D01*
X222893333Y-139742380D02*
X222560000Y-139266190D01*
X222321904Y-139742380D02*
X222321904Y-138742380D01*
X222702857Y-138742380D01*
X222798095Y-138790000D01*
X222845714Y-138837619D01*
X222893333Y-138932857D01*
X222893333Y-139075714D01*
X222845714Y-139170952D01*
X222798095Y-139218571D01*
X222702857Y-139266190D01*
X222321904Y-139266190D01*
X223274285Y-138837619D02*
X223321904Y-138790000D01*
X223417142Y-138742380D01*
X223655238Y-138742380D01*
X223750476Y-138790000D01*
X223798095Y-138837619D01*
X223845714Y-138932857D01*
X223845714Y-139028095D01*
X223798095Y-139170952D01*
X223226666Y-139742380D01*
X223845714Y-139742380D01*
X220203333Y-137692380D02*
X219870000Y-137216190D01*
X219631904Y-137692380D02*
X219631904Y-136692380D01*
X220012857Y-136692380D01*
X220108095Y-136740000D01*
X220155714Y-136787619D01*
X220203333Y-136882857D01*
X220203333Y-137025714D01*
X220155714Y-137120952D01*
X220108095Y-137168571D01*
X220012857Y-137216190D01*
X219631904Y-137216190D01*
X221155714Y-137692380D02*
X220584285Y-137692380D01*
X220870000Y-137692380D02*
X220870000Y-136692380D01*
X220774761Y-136835238D01*
X220679523Y-136930476D01*
X220584285Y-136978095D01*
X223793333Y-121187142D02*
X223745714Y-121234761D01*
X223602857Y-121282380D01*
X223507619Y-121282380D01*
X223364761Y-121234761D01*
X223269523Y-121139523D01*
X223221904Y-121044285D01*
X223174285Y-120853809D01*
X223174285Y-120710952D01*
X223221904Y-120520476D01*
X223269523Y-120425238D01*
X223364761Y-120330000D01*
X223507619Y-120282380D01*
X223602857Y-120282380D01*
X223745714Y-120330000D01*
X223793333Y-120377619D01*
X224650476Y-120615714D02*
X224650476Y-121282380D01*
X224412380Y-120234761D02*
X224174285Y-120949047D01*
X224793333Y-120949047D01*
X223933333Y-118997142D02*
X223885714Y-119044761D01*
X223742857Y-119092380D01*
X223647619Y-119092380D01*
X223504761Y-119044761D01*
X223409523Y-118949523D01*
X223361904Y-118854285D01*
X223314285Y-118663809D01*
X223314285Y-118520952D01*
X223361904Y-118330476D01*
X223409523Y-118235238D01*
X223504761Y-118140000D01*
X223647619Y-118092380D01*
X223742857Y-118092380D01*
X223885714Y-118140000D01*
X223933333Y-118187619D01*
X224266666Y-118092380D02*
X224885714Y-118092380D01*
X224552380Y-118473333D01*
X224695238Y-118473333D01*
X224790476Y-118520952D01*
X224838095Y-118568571D01*
X224885714Y-118663809D01*
X224885714Y-118901904D01*
X224838095Y-118997142D01*
X224790476Y-119044761D01*
X224695238Y-119092380D01*
X224409523Y-119092380D01*
X224314285Y-119044761D01*
X224266666Y-118997142D01*
X223873333Y-125597142D02*
X223825714Y-125644761D01*
X223682857Y-125692380D01*
X223587619Y-125692380D01*
X223444761Y-125644761D01*
X223349523Y-125549523D01*
X223301904Y-125454285D01*
X223254285Y-125263809D01*
X223254285Y-125120952D01*
X223301904Y-124930476D01*
X223349523Y-124835238D01*
X223444761Y-124740000D01*
X223587619Y-124692380D01*
X223682857Y-124692380D01*
X223825714Y-124740000D01*
X223873333Y-124787619D01*
X224254285Y-124787619D02*
X224301904Y-124740000D01*
X224397142Y-124692380D01*
X224635238Y-124692380D01*
X224730476Y-124740000D01*
X224778095Y-124787619D01*
X224825714Y-124882857D01*
X224825714Y-124978095D01*
X224778095Y-125120952D01*
X224206666Y-125692380D01*
X224825714Y-125692380D01*
X223893333Y-123357142D02*
X223845714Y-123404761D01*
X223702857Y-123452380D01*
X223607619Y-123452380D01*
X223464761Y-123404761D01*
X223369523Y-123309523D01*
X223321904Y-123214285D01*
X223274285Y-123023809D01*
X223274285Y-122880952D01*
X223321904Y-122690476D01*
X223369523Y-122595238D01*
X223464761Y-122500000D01*
X223607619Y-122452380D01*
X223702857Y-122452380D01*
X223845714Y-122500000D01*
X223893333Y-122547619D01*
X224845714Y-123452380D02*
X224274285Y-123452380D01*
X224560000Y-123452380D02*
X224560000Y-122452380D01*
X224464761Y-122595238D01*
X224369523Y-122690476D01*
X224274285Y-122738095D01*
X243332380Y-143808095D02*
X242332380Y-143808095D01*
X242332380Y-143570000D01*
X242380000Y-143427142D01*
X242475238Y-143331904D01*
X242570476Y-143284285D01*
X242760952Y-143236666D01*
X242903809Y-143236666D01*
X243094285Y-143284285D01*
X243189523Y-143331904D01*
X243284761Y-143427142D01*
X243332380Y-143570000D01*
X243332380Y-143808095D01*
X242665714Y-142379523D02*
X243332380Y-142379523D01*
X242284761Y-142617619D02*
X242999047Y-142855714D01*
X242999047Y-142236666D01*
X240852380Y-143838095D02*
X239852380Y-143838095D01*
X239852380Y-143600000D01*
X239900000Y-143457142D01*
X239995238Y-143361904D01*
X240090476Y-143314285D01*
X240280952Y-143266666D01*
X240423809Y-143266666D01*
X240614285Y-143314285D01*
X240709523Y-143361904D01*
X240804761Y-143457142D01*
X240852380Y-143600000D01*
X240852380Y-143838095D01*
X239852380Y-142933333D02*
X239852380Y-142314285D01*
X240233333Y-142647619D01*
X240233333Y-142504761D01*
X240280952Y-142409523D01*
X240328571Y-142361904D01*
X240423809Y-142314285D01*
X240661904Y-142314285D01*
X240757142Y-142361904D01*
X240804761Y-142409523D01*
X240852380Y-142504761D01*
X240852380Y-142790476D01*
X240804761Y-142885714D01*
X240757142Y-142933333D01*
X236522380Y-143868095D02*
X235522380Y-143868095D01*
X235522380Y-143630000D01*
X235570000Y-143487142D01*
X235665238Y-143391904D01*
X235760476Y-143344285D01*
X235950952Y-143296666D01*
X236093809Y-143296666D01*
X236284285Y-143344285D01*
X236379523Y-143391904D01*
X236474761Y-143487142D01*
X236522380Y-143630000D01*
X236522380Y-143868095D01*
X235617619Y-142915714D02*
X235570000Y-142868095D01*
X235522380Y-142772857D01*
X235522380Y-142534761D01*
X235570000Y-142439523D01*
X235617619Y-142391904D01*
X235712857Y-142344285D01*
X235808095Y-142344285D01*
X235950952Y-142391904D01*
X236522380Y-142963333D01*
X236522380Y-142344285D01*
X234072380Y-143788095D02*
X233072380Y-143788095D01*
X233072380Y-143550000D01*
X233120000Y-143407142D01*
X233215238Y-143311904D01*
X233310476Y-143264285D01*
X233500952Y-143216666D01*
X233643809Y-143216666D01*
X233834285Y-143264285D01*
X233929523Y-143311904D01*
X234024761Y-143407142D01*
X234072380Y-143550000D01*
X234072380Y-143788095D01*
X234072380Y-142264285D02*
X234072380Y-142835714D01*
X234072380Y-142550000D02*
X233072380Y-142550000D01*
X233215238Y-142645238D01*
X233310476Y-142740476D01*
X233358095Y-142835714D01*
X268286380Y-101025523D02*
X269000666Y-101025523D01*
X269143523Y-101073142D01*
X269238761Y-101168380D01*
X269286380Y-101311238D01*
X269286380Y-101406476D01*
X269286380Y-100025523D02*
X269286380Y-100596952D01*
X269286380Y-100311238D02*
X268286380Y-100311238D01*
X268429238Y-100406476D01*
X268524476Y-100501714D01*
X268572095Y-100596952D01*
X268619714Y-99168380D02*
X269286380Y-99168380D01*
X268238761Y-99406476D02*
X268953047Y-99644571D01*
X268953047Y-99025523D01*
X274763333Y-96731142D02*
X274715714Y-96778761D01*
X274572857Y-96826380D01*
X274477619Y-96826380D01*
X274334761Y-96778761D01*
X274239523Y-96683523D01*
X274191904Y-96588285D01*
X274144285Y-96397809D01*
X274144285Y-96254952D01*
X274191904Y-96064476D01*
X274239523Y-95969238D01*
X274334761Y-95874000D01*
X274477619Y-95826380D01*
X274572857Y-95826380D01*
X274715714Y-95874000D01*
X274763333Y-95921619D01*
X275668095Y-95826380D02*
X275191904Y-95826380D01*
X275144285Y-96302571D01*
X275191904Y-96254952D01*
X275287142Y-96207333D01*
X275525238Y-96207333D01*
X275620476Y-96254952D01*
X275668095Y-96302571D01*
X275715714Y-96397809D01*
X275715714Y-96635904D01*
X275668095Y-96731142D01*
X275620476Y-96778761D01*
X275525238Y-96826380D01*
X275287142Y-96826380D01*
X275191904Y-96778761D01*
X275144285Y-96731142D01*
X265150476Y-110622380D02*
X265150476Y-111336666D01*
X265102857Y-111479523D01*
X265007619Y-111574761D01*
X264864761Y-111622380D01*
X264769523Y-111622380D01*
X266150476Y-111622380D02*
X265579047Y-111622380D01*
X265864761Y-111622380D02*
X265864761Y-110622380D01*
X265769523Y-110765238D01*
X265674285Y-110860476D01*
X265579047Y-110908095D01*
X266531428Y-110717619D02*
X266579047Y-110670000D01*
X266674285Y-110622380D01*
X266912380Y-110622380D01*
X267007619Y-110670000D01*
X267055238Y-110717619D01*
X267102857Y-110812857D01*
X267102857Y-110908095D01*
X267055238Y-111050952D01*
X266483809Y-111622380D01*
X267102857Y-111622380D01*
X263166666Y-110546380D02*
X263166666Y-111260666D01*
X263119047Y-111403523D01*
X263023809Y-111498761D01*
X262880952Y-111546380D01*
X262785714Y-111546380D01*
X263595238Y-110641619D02*
X263642857Y-110594000D01*
X263738095Y-110546380D01*
X263976190Y-110546380D01*
X264071428Y-110594000D01*
X264119047Y-110641619D01*
X264166666Y-110736857D01*
X264166666Y-110832095D01*
X264119047Y-110974952D01*
X263547619Y-111546380D01*
X264166666Y-111546380D01*
X260372666Y-110546380D02*
X260372666Y-111260666D01*
X260325047Y-111403523D01*
X260229809Y-111498761D01*
X260086952Y-111546380D01*
X259991714Y-111546380D01*
X261372666Y-111546380D02*
X260801238Y-111546380D01*
X261086952Y-111546380D02*
X261086952Y-110546380D01*
X260991714Y-110689238D01*
X260896476Y-110784476D01*
X260801238Y-110832095D01*
X272968380Y-123075523D02*
X273682666Y-123075523D01*
X273825523Y-123123142D01*
X273920761Y-123218380D01*
X273968380Y-123361238D01*
X273968380Y-123456476D01*
X273968380Y-122075523D02*
X273968380Y-122646952D01*
X273968380Y-122361238D02*
X272968380Y-122361238D01*
X273111238Y-122456476D01*
X273206476Y-122551714D01*
X273254095Y-122646952D01*
X272968380Y-121742190D02*
X272968380Y-121123142D01*
X273349333Y-121456476D01*
X273349333Y-121313619D01*
X273396952Y-121218380D01*
X273444571Y-121170761D01*
X273539809Y-121123142D01*
X273777904Y-121123142D01*
X273873142Y-121170761D01*
X273920761Y-121218380D01*
X273968380Y-121313619D01*
X273968380Y-121599333D01*
X273920761Y-121694571D01*
X273873142Y-121742190D01*
X245807333Y-149182380D02*
X245474000Y-148706190D01*
X245235904Y-149182380D02*
X245235904Y-148182380D01*
X245616857Y-148182380D01*
X245712095Y-148230000D01*
X245759714Y-148277619D01*
X245807333Y-148372857D01*
X245807333Y-148515714D01*
X245759714Y-148610952D01*
X245712095Y-148658571D01*
X245616857Y-148706190D01*
X245235904Y-148706190D01*
X246378761Y-148610952D02*
X246283523Y-148563333D01*
X246235904Y-148515714D01*
X246188285Y-148420476D01*
X246188285Y-148372857D01*
X246235904Y-148277619D01*
X246283523Y-148230000D01*
X246378761Y-148182380D01*
X246569238Y-148182380D01*
X246664476Y-148230000D01*
X246712095Y-148277619D01*
X246759714Y-148372857D01*
X246759714Y-148420476D01*
X246712095Y-148515714D01*
X246664476Y-148563333D01*
X246569238Y-148610952D01*
X246378761Y-148610952D01*
X246283523Y-148658571D01*
X246235904Y-148706190D01*
X246188285Y-148801428D01*
X246188285Y-148991904D01*
X246235904Y-149087142D01*
X246283523Y-149134761D01*
X246378761Y-149182380D01*
X246569238Y-149182380D01*
X246664476Y-149134761D01*
X246712095Y-149087142D01*
X246759714Y-148991904D01*
X246759714Y-148801428D01*
X246712095Y-148706190D01*
X246664476Y-148658571D01*
X246569238Y-148610952D01*
X248093333Y-149182380D02*
X247760000Y-148706190D01*
X247521904Y-149182380D02*
X247521904Y-148182380D01*
X247902857Y-148182380D01*
X247998095Y-148230000D01*
X248045714Y-148277619D01*
X248093333Y-148372857D01*
X248093333Y-148515714D01*
X248045714Y-148610952D01*
X247998095Y-148658571D01*
X247902857Y-148706190D01*
X247521904Y-148706190D01*
X248426666Y-148182380D02*
X249093333Y-148182380D01*
X248664761Y-149182380D01*
X228027333Y-148928380D02*
X227694000Y-148452190D01*
X227455904Y-148928380D02*
X227455904Y-147928380D01*
X227836857Y-147928380D01*
X227932095Y-147976000D01*
X227979714Y-148023619D01*
X228027333Y-148118857D01*
X228027333Y-148261714D01*
X227979714Y-148356952D01*
X227932095Y-148404571D01*
X227836857Y-148452190D01*
X227455904Y-148452190D01*
X228884476Y-147928380D02*
X228694000Y-147928380D01*
X228598761Y-147976000D01*
X228551142Y-148023619D01*
X228455904Y-148166476D01*
X228408285Y-148356952D01*
X228408285Y-148737904D01*
X228455904Y-148833142D01*
X228503523Y-148880761D01*
X228598761Y-148928380D01*
X228789238Y-148928380D01*
X228884476Y-148880761D01*
X228932095Y-148833142D01*
X228979714Y-148737904D01*
X228979714Y-148499809D01*
X228932095Y-148404571D01*
X228884476Y-148356952D01*
X228789238Y-148309333D01*
X228598761Y-148309333D01*
X228503523Y-148356952D01*
X228455904Y-148404571D01*
X228408285Y-148499809D01*
X230313333Y-148928380D02*
X229980000Y-148452190D01*
X229741904Y-148928380D02*
X229741904Y-147928380D01*
X230122857Y-147928380D01*
X230218095Y-147976000D01*
X230265714Y-148023619D01*
X230313333Y-148118857D01*
X230313333Y-148261714D01*
X230265714Y-148356952D01*
X230218095Y-148404571D01*
X230122857Y-148452190D01*
X229741904Y-148452190D01*
X231218095Y-147928380D02*
X230741904Y-147928380D01*
X230694285Y-148404571D01*
X230741904Y-148356952D01*
X230837142Y-148309333D01*
X231075238Y-148309333D01*
X231170476Y-148356952D01*
X231218095Y-148404571D01*
X231265714Y-148499809D01*
X231265714Y-148737904D01*
X231218095Y-148833142D01*
X231170476Y-148880761D01*
X231075238Y-148928380D01*
X230837142Y-148928380D01*
X230741904Y-148880761D01*
X230694285Y-148833142D01*
X209342380Y-132613333D02*
X210056666Y-132613333D01*
X210199523Y-132660952D01*
X210294761Y-132756190D01*
X210342380Y-132899047D01*
X210342380Y-132994285D01*
X209342380Y-132232380D02*
X209342380Y-131565714D01*
X210342380Y-131994285D01*
X209102380Y-122473333D02*
X209816666Y-122473333D01*
X209959523Y-122520952D01*
X210054761Y-122616190D01*
X210102380Y-122759047D01*
X210102380Y-122854285D01*
X209102380Y-121568571D02*
X209102380Y-121759047D01*
X209150000Y-121854285D01*
X209197619Y-121901904D01*
X209340476Y-121997142D01*
X209530952Y-122044761D01*
X209911904Y-122044761D01*
X210007142Y-121997142D01*
X210054761Y-121949523D01*
X210102380Y-121854285D01*
X210102380Y-121663809D01*
X210054761Y-121568571D01*
X210007142Y-121520952D01*
X209911904Y-121473333D01*
X209673809Y-121473333D01*
X209578571Y-121520952D01*
X209530952Y-121568571D01*
X209483333Y-121663809D01*
X209483333Y-121854285D01*
X209530952Y-121949523D01*
X209578571Y-121997142D01*
X209673809Y-122044761D01*
X208992380Y-112123333D02*
X209706666Y-112123333D01*
X209849523Y-112170952D01*
X209944761Y-112266190D01*
X209992380Y-112409047D01*
X209992380Y-112504285D01*
X208992380Y-111170952D02*
X208992380Y-111647142D01*
X209468571Y-111694761D01*
X209420952Y-111647142D01*
X209373333Y-111551904D01*
X209373333Y-111313809D01*
X209420952Y-111218571D01*
X209468571Y-111170952D01*
X209563809Y-111123333D01*
X209801904Y-111123333D01*
X209897142Y-111170952D01*
X209944761Y-111218571D01*
X209992380Y-111313809D01*
X209992380Y-111551904D01*
X209944761Y-111647142D01*
X209897142Y-111694761D01*
X209072380Y-102273333D02*
X209786666Y-102273333D01*
X209929523Y-102320952D01*
X210024761Y-102416190D01*
X210072380Y-102559047D01*
X210072380Y-102654285D01*
X209405714Y-101368571D02*
X210072380Y-101368571D01*
X209024761Y-101606666D02*
X209739047Y-101844761D01*
X209739047Y-101225714D01*
X262785714Y-126036666D02*
X263261904Y-126036666D01*
X262690476Y-126322380D02*
X263023809Y-125322380D01*
X263357142Y-126322380D01*
X264214285Y-126322380D02*
X263642857Y-126322380D01*
X263928571Y-126322380D02*
X263928571Y-125322380D01*
X263833333Y-125465238D01*
X263738095Y-125560476D01*
X263642857Y-125608095D01*
X262698476Y-143594380D02*
X262698476Y-142594380D01*
X263031809Y-143308666D01*
X263365142Y-142594380D01*
X263365142Y-143594380D01*
X263841333Y-143594380D02*
X263841333Y-142594380D01*
X264412761Y-143594380D02*
X263984190Y-143022952D01*
X264412761Y-142594380D02*
X263841333Y-143165809D01*
X265269904Y-142927714D02*
X265269904Y-143594380D01*
X265031809Y-142546761D02*
X264793714Y-143261047D01*
X265412761Y-143261047D01*
X202200476Y-142952380D02*
X202200476Y-141952380D01*
X202533809Y-142666666D01*
X202867142Y-141952380D01*
X202867142Y-142952380D01*
X203343333Y-142952380D02*
X203343333Y-141952380D01*
X203914761Y-142952380D02*
X203486190Y-142380952D01*
X203914761Y-141952380D02*
X203343333Y-142523809D01*
X204248095Y-141952380D02*
X204867142Y-141952380D01*
X204533809Y-142333333D01*
X204676666Y-142333333D01*
X204771904Y-142380952D01*
X204819523Y-142428571D01*
X204867142Y-142523809D01*
X204867142Y-142761904D01*
X204819523Y-142857142D01*
X204771904Y-142904761D01*
X204676666Y-142952380D01*
X204390952Y-142952380D01*
X204295714Y-142904761D01*
X204248095Y-142857142D01*
X264730476Y-95842380D02*
X264730476Y-94842380D01*
X265063809Y-95556666D01*
X265397142Y-94842380D01*
X265397142Y-95842380D01*
X265873333Y-95842380D02*
X265873333Y-94842380D01*
X266444761Y-95842380D02*
X266016190Y-95270952D01*
X266444761Y-94842380D02*
X265873333Y-95413809D01*
X266825714Y-94937619D02*
X266873333Y-94890000D01*
X266968571Y-94842380D01*
X267206666Y-94842380D01*
X267301904Y-94890000D01*
X267349523Y-94937619D01*
X267397142Y-95032857D01*
X267397142Y-95128095D01*
X267349523Y-95270952D01*
X266778095Y-95842380D01*
X267397142Y-95842380D01*
X202200476Y-101352380D02*
X202200476Y-100352380D01*
X202533809Y-101066666D01*
X202867142Y-100352380D01*
X202867142Y-101352380D01*
X203343333Y-101352380D02*
X203343333Y-100352380D01*
X203914761Y-101352380D02*
X203486190Y-100780952D01*
X203914761Y-100352380D02*
X203343333Y-100923809D01*
X204867142Y-101352380D02*
X204295714Y-101352380D01*
X204581428Y-101352380D02*
X204581428Y-100352380D01*
X204486190Y-100495238D01*
X204390952Y-100590476D01*
X204295714Y-100638095D01*
M02*
