G04 #@! TF.GenerationSoftware,KiCad,Pcbnew,5.1.7-a382d34a8~88~ubuntu18.04.1*
G04 #@! TF.CreationDate,2021-04-23T14:54:25+02:00*
G04 #@! TF.ProjectId,relais_hat,72656c61-6973-45f6-9861-742e6b696361,rev?*
G04 #@! TF.SameCoordinates,Original*
G04 #@! TF.FileFunction,Copper,L2,Inr*
G04 #@! TF.FilePolarity,Positive*
%FSLAX46Y46*%
G04 Gerber Fmt 4.6, Leading zero omitted, Abs format (unit mm)*
G04 Created by KiCad (PCBNEW 5.1.7-a382d34a8~88~ubuntu18.04.1) date 2021-04-23 14:54:25*
%MOMM*%
%LPD*%
G01*
G04 APERTURE LIST*
G04 #@! TA.AperFunction,ComponentPad*
%ADD10O,1.700000X1.700000*%
G04 #@! TD*
G04 #@! TA.AperFunction,ComponentPad*
%ADD11R,1.700000X1.700000*%
G04 #@! TD*
G04 #@! TA.AperFunction,ComponentPad*
%ADD12C,4.000000*%
G04 #@! TD*
G04 #@! TA.AperFunction,ComponentPad*
%ADD13C,1.600000*%
G04 #@! TD*
G04 #@! TA.AperFunction,ComponentPad*
%ADD14R,1.600000X1.600000*%
G04 #@! TD*
G04 #@! TA.AperFunction,ComponentPad*
%ADD15C,3.000000*%
G04 #@! TD*
G04 #@! TA.AperFunction,ComponentPad*
%ADD16R,3.000000X3.000000*%
G04 #@! TD*
G04 #@! TA.AperFunction,ComponentPad*
%ADD17O,1.600000X1.600000*%
G04 #@! TD*
G04 #@! TA.AperFunction,ViaPad*
%ADD18C,0.900000*%
G04 #@! TD*
G04 #@! TA.AperFunction,ViaPad*
%ADD19C,1.000000*%
G04 #@! TD*
G04 #@! TA.AperFunction,Conductor*
%ADD20C,2.000000*%
G04 #@! TD*
G04 #@! TA.AperFunction,Conductor*
%ADD21C,0.254000*%
G04 #@! TD*
G04 #@! TA.AperFunction,Conductor*
%ADD22C,0.150000*%
G04 #@! TD*
G04 APERTURE END LIST*
D10*
X252070000Y-141110000D03*
D11*
X252070000Y-138570000D03*
D10*
X252070000Y-116980000D03*
D11*
X252070000Y-114440000D03*
D10*
X252070000Y-129680000D03*
D11*
X252070000Y-127140000D03*
D10*
X252070000Y-106820000D03*
D11*
X252070000Y-104280000D03*
D10*
X266548000Y-98946000D03*
D11*
X266548000Y-101486000D03*
D10*
X266040000Y-118504000D03*
X266040000Y-115964000D03*
D11*
X266040000Y-113424000D03*
D10*
X263500000Y-118504000D03*
X263500000Y-115964000D03*
D11*
X263500000Y-113424000D03*
D10*
X260960000Y-118504000D03*
X260960000Y-115964000D03*
D11*
X260960000Y-113424000D03*
D12*
X277516000Y-109766000D03*
X277516000Y-134766000D03*
D13*
X280056000Y-126421000D03*
X280056000Y-123651000D03*
X280056000Y-120881000D03*
X280056000Y-118111000D03*
X277216000Y-127806000D03*
X277216000Y-125036000D03*
X277216000Y-122266000D03*
X277216000Y-119496000D03*
D14*
X277216000Y-116726000D03*
D15*
X204320000Y-139080000D03*
D16*
X204320000Y-134000000D03*
D15*
X204318000Y-128918000D03*
D16*
X204318000Y-123838000D03*
D15*
X204320000Y-118760000D03*
D16*
X204320000Y-113680000D03*
D15*
X204320000Y-108600000D03*
D16*
X204320000Y-103520000D03*
D17*
X257150000Y-123330000D03*
X269850000Y-105550000D03*
X257150000Y-120790000D03*
X269850000Y-108090000D03*
X257150000Y-118250000D03*
X269850000Y-110630000D03*
X257150000Y-115710000D03*
X269850000Y-113170000D03*
X257150000Y-113170000D03*
X269850000Y-115710000D03*
X257150000Y-110630000D03*
X269850000Y-118250000D03*
X257150000Y-108090000D03*
X269850000Y-120790000D03*
X257150000Y-105550000D03*
D14*
X269850000Y-123330000D03*
D11*
X208382000Y-98438000D03*
D10*
X208382000Y-95898000D03*
X210922000Y-98438000D03*
X210922000Y-95898000D03*
X213462000Y-98438000D03*
X213462000Y-95898000D03*
X216002000Y-98438000D03*
X216002000Y-95898000D03*
X218542000Y-98438000D03*
X218542000Y-95898000D03*
X221082000Y-98438000D03*
X221082000Y-95898000D03*
X223622000Y-98438000D03*
X223622000Y-95898000D03*
X226162000Y-98438000D03*
X226162000Y-95898000D03*
X228702000Y-98438000D03*
X228702000Y-95898000D03*
X231242000Y-98438000D03*
X231242000Y-95898000D03*
X233782000Y-98438000D03*
X233782000Y-95898000D03*
X236322000Y-98438000D03*
X236322000Y-95898000D03*
X238862000Y-98438000D03*
X238862000Y-95898000D03*
X241402000Y-98438000D03*
X241402000Y-95898000D03*
X243942000Y-98438000D03*
X243942000Y-95898000D03*
X246482000Y-98438000D03*
X246482000Y-95898000D03*
X249022000Y-98438000D03*
X249022000Y-95898000D03*
X251562000Y-98438000D03*
X251562000Y-95898000D03*
X254102000Y-98438000D03*
X254102000Y-95898000D03*
X256642000Y-98438000D03*
X256642000Y-95898000D03*
X249530000Y-116980000D03*
D11*
X249530000Y-114440000D03*
D10*
X249530000Y-141110000D03*
D11*
X249530000Y-138570000D03*
D10*
X249530000Y-129680000D03*
D11*
X249530000Y-127140000D03*
D10*
X249530000Y-106820000D03*
D11*
X249530000Y-104280000D03*
D10*
X217780000Y-147460000D03*
X217780000Y-144920000D03*
X215240000Y-147460000D03*
X215240000Y-144920000D03*
X212700000Y-147460000D03*
X212700000Y-144920000D03*
X210160000Y-147460000D03*
D11*
X210160000Y-144920000D03*
D18*
X220250000Y-116470000D03*
X231120000Y-109320000D03*
X245210000Y-140470000D03*
X210775999Y-125805999D03*
X221050000Y-139480000D03*
X259360000Y-103820000D03*
X244310000Y-136810000D03*
X245325000Y-137825000D03*
X246200000Y-138700000D03*
X244175000Y-115085000D03*
X245060000Y-115970000D03*
X246065000Y-116975000D03*
D19*
X273152000Y-114948000D03*
D18*
X241540008Y-111589992D03*
X242810008Y-111589992D03*
X244130008Y-111589992D03*
X241020008Y-132919992D03*
X242430008Y-132919992D03*
X243770008Y-132919992D03*
X217485000Y-100545000D03*
X228194000Y-143650000D03*
X237592000Y-144158000D03*
X238862000Y-143396000D03*
X245974000Y-142634000D03*
X225080000Y-126260000D03*
X229180000Y-126840000D03*
X226720000Y-141420000D03*
X215385000Y-140665000D03*
X216090000Y-108330000D03*
X246250000Y-109390000D03*
X215602500Y-120017500D03*
X246510000Y-120340000D03*
X213800000Y-124040000D03*
X216120000Y-124040000D03*
X244120000Y-104990000D03*
X245095000Y-105965000D03*
X246160000Y-106820000D03*
X242510008Y-101539992D03*
X243710008Y-101539992D03*
X244940008Y-101539992D03*
X244070000Y-125770000D03*
X245015000Y-126715000D03*
X246085000Y-127785000D03*
X241150008Y-122219992D03*
X242470008Y-122219992D03*
X243900008Y-122219992D03*
X281740000Y-102350000D03*
X271250000Y-128660000D03*
X267120000Y-127060000D03*
X243688000Y-142634000D03*
X218460000Y-125000000D03*
X215437500Y-126982500D03*
X249220000Y-143470000D03*
X224160000Y-124070000D03*
X215745000Y-138855000D03*
X218260000Y-140660000D03*
X230880000Y-140170000D03*
X229110000Y-142590000D03*
X222565000Y-116405000D03*
X214690000Y-109164301D03*
X226670000Y-144158000D03*
X212610000Y-120060000D03*
X218710000Y-119060000D03*
D20*
X246200000Y-138700000D02*
X244310000Y-136810000D01*
X206590000Y-136810000D02*
X204320000Y-139080000D01*
X244310000Y-136810000D02*
X206590000Y-136810000D01*
X246065000Y-116975000D02*
X244175000Y-115085000D01*
X208444999Y-114635001D02*
X204320000Y-118760000D01*
X243725001Y-114635001D02*
X208444999Y-114635001D01*
X244175000Y-115085000D02*
X243725001Y-114635001D01*
X244130008Y-111589992D02*
X241540008Y-111589992D01*
X206410008Y-111589992D02*
X204320000Y-113680000D01*
X241540008Y-111589992D02*
X206410008Y-111589992D01*
X243770008Y-132919992D02*
X241020008Y-132919992D01*
X205400008Y-132919992D02*
X204320000Y-134000000D01*
X241020008Y-132919992D02*
X205400008Y-132919992D01*
X245950000Y-106820000D02*
X244120000Y-104990000D01*
X246160000Y-106820000D02*
X245950000Y-106820000D01*
X207930000Y-104990000D02*
X204320000Y-108600000D01*
X244120000Y-104990000D02*
X207930000Y-104990000D01*
X244940008Y-101539992D02*
X242510008Y-101539992D01*
X205644999Y-102195001D02*
X204320000Y-103520000D01*
X241854999Y-102195001D02*
X205644999Y-102195001D01*
X242510008Y-101539992D02*
X241854999Y-102195001D01*
X246085000Y-127785000D02*
X244070000Y-125770000D01*
X240922000Y-128918000D02*
X204318000Y-128918000D01*
X244952000Y-128918000D02*
X246085000Y-127785000D01*
X240922000Y-128918000D02*
X244952000Y-128918000D01*
X243900008Y-122219992D02*
X241150008Y-122219992D01*
X205936008Y-122219992D02*
X204318000Y-123838000D01*
X241150008Y-122219992D02*
X205936008Y-122219992D01*
D21*
X207948842Y-94470068D02*
X207678589Y-94582010D01*
X207435368Y-94744525D01*
X207228525Y-94951368D01*
X207066010Y-95194589D01*
X206954068Y-95464842D01*
X206897000Y-95751740D01*
X206897000Y-96044260D01*
X206954068Y-96331158D01*
X207066010Y-96601411D01*
X207228525Y-96844632D01*
X207360380Y-96976487D01*
X207287820Y-96998498D01*
X207177506Y-97057463D01*
X207080815Y-97136815D01*
X207001463Y-97233506D01*
X206942498Y-97343820D01*
X206906188Y-97463518D01*
X206893928Y-97588000D01*
X206893928Y-99288000D01*
X206906188Y-99412482D01*
X206942498Y-99532180D01*
X207001463Y-99642494D01*
X207080815Y-99739185D01*
X207177506Y-99818537D01*
X207287820Y-99877502D01*
X207407518Y-99913812D01*
X207532000Y-99926072D01*
X209232000Y-99926072D01*
X209356482Y-99913812D01*
X209476180Y-99877502D01*
X209586494Y-99818537D01*
X209683185Y-99739185D01*
X209762537Y-99642494D01*
X209821502Y-99532180D01*
X209843513Y-99459620D01*
X209975368Y-99591475D01*
X210218589Y-99753990D01*
X210488842Y-99865932D01*
X210775740Y-99923000D01*
X211068260Y-99923000D01*
X211355158Y-99865932D01*
X211625411Y-99753990D01*
X211868632Y-99591475D01*
X212075475Y-99384632D01*
X212192000Y-99210240D01*
X212308525Y-99384632D01*
X212515368Y-99591475D01*
X212758589Y-99753990D01*
X213028842Y-99865932D01*
X213315740Y-99923000D01*
X213608260Y-99923000D01*
X213895158Y-99865932D01*
X214165411Y-99753990D01*
X214408632Y-99591475D01*
X214615475Y-99384632D01*
X214732000Y-99210240D01*
X214848525Y-99384632D01*
X215055368Y-99591475D01*
X215298589Y-99753990D01*
X215568842Y-99865932D01*
X215855740Y-99923000D01*
X216148260Y-99923000D01*
X216435158Y-99865932D01*
X216705411Y-99753990D01*
X216948632Y-99591475D01*
X217155475Y-99384632D01*
X217272000Y-99210240D01*
X217388525Y-99384632D01*
X217463893Y-99460000D01*
X217378137Y-99460000D01*
X217168517Y-99501696D01*
X216971060Y-99583485D01*
X216793353Y-99702225D01*
X216642225Y-99853353D01*
X216523485Y-100031060D01*
X216441696Y-100228517D01*
X216400000Y-100438137D01*
X216400000Y-100560001D01*
X205725329Y-100560001D01*
X205644999Y-100552089D01*
X205324482Y-100583658D01*
X205180812Y-100627240D01*
X205016284Y-100677149D01*
X204732247Y-100828970D01*
X204483285Y-101033287D01*
X204432083Y-101095678D01*
X204145833Y-101381928D01*
X202820000Y-101381928D01*
X202695518Y-101394188D01*
X202575820Y-101430498D01*
X202465506Y-101489463D01*
X202368815Y-101568815D01*
X202289463Y-101665506D01*
X202230498Y-101775820D01*
X202194188Y-101895518D01*
X202181928Y-102020000D01*
X202181928Y-105020000D01*
X202194188Y-105144482D01*
X202230498Y-105264180D01*
X202289463Y-105374494D01*
X202368815Y-105471185D01*
X202465506Y-105550537D01*
X202575820Y-105609502D01*
X202695518Y-105645812D01*
X202820000Y-105658072D01*
X204949690Y-105658072D01*
X204142762Y-106465000D01*
X204109721Y-106465000D01*
X203697244Y-106547047D01*
X203308698Y-106707988D01*
X202959017Y-106941637D01*
X202661637Y-107239017D01*
X202427988Y-107588698D01*
X202267047Y-107977244D01*
X202185000Y-108389721D01*
X202185000Y-108810279D01*
X202267047Y-109222756D01*
X202427988Y-109611302D01*
X202661637Y-109960983D01*
X202959017Y-110258363D01*
X203308698Y-110492012D01*
X203697244Y-110652953D01*
X204109721Y-110735000D01*
X204530279Y-110735000D01*
X204942756Y-110652953D01*
X205099897Y-110587863D01*
X204145833Y-111541928D01*
X202820000Y-111541928D01*
X202695518Y-111554188D01*
X202575820Y-111590498D01*
X202465506Y-111649463D01*
X202368815Y-111728815D01*
X202289463Y-111825506D01*
X202230498Y-111935820D01*
X202194188Y-112055518D01*
X202181928Y-112180000D01*
X202181928Y-115180000D01*
X202194188Y-115304482D01*
X202230498Y-115424180D01*
X202289463Y-115534494D01*
X202368815Y-115631185D01*
X202465506Y-115710537D01*
X202575820Y-115769502D01*
X202695518Y-115805812D01*
X202820000Y-115818072D01*
X204949689Y-115818072D01*
X204142762Y-116625000D01*
X204109721Y-116625000D01*
X203697244Y-116707047D01*
X203308698Y-116867988D01*
X202959017Y-117101637D01*
X202661637Y-117399017D01*
X202427988Y-117748698D01*
X202267047Y-118137244D01*
X202185000Y-118549721D01*
X202185000Y-118970279D01*
X202267047Y-119382756D01*
X202427988Y-119771302D01*
X202661637Y-120120983D01*
X202959017Y-120418363D01*
X203308698Y-120652012D01*
X203697244Y-120812953D01*
X204109721Y-120895000D01*
X204530279Y-120895000D01*
X204942756Y-120812953D01*
X205331302Y-120652012D01*
X205680983Y-120418363D01*
X205978363Y-120120983D01*
X206212012Y-119771302D01*
X206372953Y-119382756D01*
X206455000Y-118970279D01*
X206455000Y-118937238D01*
X209122239Y-116270001D01*
X219183526Y-116270001D01*
X219165000Y-116363137D01*
X219165000Y-116576863D01*
X219206696Y-116786483D01*
X219288485Y-116983940D01*
X219407225Y-117161647D01*
X219558353Y-117312775D01*
X219736060Y-117431515D01*
X219933517Y-117513304D01*
X220143137Y-117555000D01*
X220356863Y-117555000D01*
X220566483Y-117513304D01*
X220763940Y-117431515D01*
X220941647Y-117312775D01*
X221092775Y-117161647D01*
X221211515Y-116983940D01*
X221293304Y-116786483D01*
X221335000Y-116576863D01*
X221335000Y-116363137D01*
X221316474Y-116270001D01*
X221485597Y-116270001D01*
X221480000Y-116298137D01*
X221480000Y-116511863D01*
X221521696Y-116721483D01*
X221603485Y-116918940D01*
X221722225Y-117096647D01*
X221873353Y-117247775D01*
X222051060Y-117366515D01*
X222248517Y-117448304D01*
X222458137Y-117490000D01*
X222671863Y-117490000D01*
X222881483Y-117448304D01*
X223078940Y-117366515D01*
X223256647Y-117247775D01*
X223407775Y-117096647D01*
X223526515Y-116918940D01*
X223608304Y-116721483D01*
X223650000Y-116511863D01*
X223650000Y-116298137D01*
X223644403Y-116270001D01*
X243047762Y-116270001D01*
X243075677Y-116297916D01*
X243075682Y-116297920D01*
X244965676Y-118187916D01*
X245152247Y-118341030D01*
X245436285Y-118492852D01*
X245744483Y-118586343D01*
X246065000Y-118617911D01*
X246385516Y-118586343D01*
X246693715Y-118492852D01*
X246977752Y-118341030D01*
X247226713Y-118136713D01*
X247431030Y-117887752D01*
X247582852Y-117603715D01*
X247676343Y-117295516D01*
X247707911Y-116975000D01*
X247676343Y-116654483D01*
X247582852Y-116346285D01*
X247431030Y-116062247D01*
X247277916Y-115875676D01*
X245387920Y-113985682D01*
X245387916Y-113985677D01*
X244992239Y-113590000D01*
X248041928Y-113590000D01*
X248041928Y-115290000D01*
X248054188Y-115414482D01*
X248090498Y-115534180D01*
X248149463Y-115644494D01*
X248228815Y-115741185D01*
X248325506Y-115820537D01*
X248435820Y-115879502D01*
X248508380Y-115901513D01*
X248376525Y-116033368D01*
X248214010Y-116276589D01*
X248102068Y-116546842D01*
X248045000Y-116833740D01*
X248045000Y-117126260D01*
X248102068Y-117413158D01*
X248214010Y-117683411D01*
X248376525Y-117926632D01*
X248583368Y-118133475D01*
X248826589Y-118295990D01*
X249096842Y-118407932D01*
X249383740Y-118465000D01*
X249676260Y-118465000D01*
X249963158Y-118407932D01*
X250233411Y-118295990D01*
X250476632Y-118133475D01*
X250683475Y-117926632D01*
X250800000Y-117752240D01*
X250916525Y-117926632D01*
X251123368Y-118133475D01*
X251366589Y-118295990D01*
X251636842Y-118407932D01*
X251923740Y-118465000D01*
X252216260Y-118465000D01*
X252503158Y-118407932D01*
X252773411Y-118295990D01*
X253016632Y-118133475D01*
X253223475Y-117926632D01*
X253385990Y-117683411D01*
X253497932Y-117413158D01*
X253555000Y-117126260D01*
X253555000Y-116833740D01*
X253497932Y-116546842D01*
X253385990Y-116276589D01*
X253223475Y-116033368D01*
X253091620Y-115901513D01*
X253164180Y-115879502D01*
X253274494Y-115820537D01*
X253371185Y-115741185D01*
X253450537Y-115644494D01*
X253509502Y-115534180D01*
X253545812Y-115414482D01*
X253558072Y-115290000D01*
X253558072Y-113590000D01*
X253545812Y-113465518D01*
X253509502Y-113345820D01*
X253450537Y-113235506D01*
X253371185Y-113138815D01*
X253274494Y-113059463D01*
X253164180Y-113000498D01*
X253044482Y-112964188D01*
X252920000Y-112951928D01*
X251220000Y-112951928D01*
X251095518Y-112964188D01*
X250975820Y-113000498D01*
X250865506Y-113059463D01*
X250800000Y-113113222D01*
X250734494Y-113059463D01*
X250624180Y-113000498D01*
X250504482Y-112964188D01*
X250380000Y-112951928D01*
X248680000Y-112951928D01*
X248555518Y-112964188D01*
X248435820Y-113000498D01*
X248325506Y-113059463D01*
X248228815Y-113138815D01*
X248149463Y-113235506D01*
X248090498Y-113345820D01*
X248054188Y-113465518D01*
X248041928Y-113590000D01*
X244992239Y-113590000D01*
X244937925Y-113535687D01*
X244886715Y-113473287D01*
X244637753Y-113268970D01*
X244489243Y-113189590D01*
X244758723Y-113107844D01*
X245042760Y-112956023D01*
X245291722Y-112751706D01*
X245496039Y-112502744D01*
X245647860Y-112218707D01*
X245741351Y-111910508D01*
X245772919Y-111589992D01*
X245741351Y-111269476D01*
X245647860Y-110961277D01*
X245496039Y-110677240D01*
X245291722Y-110428278D01*
X245042760Y-110223961D01*
X244758723Y-110072140D01*
X244450524Y-109978649D01*
X244210330Y-109954992D01*
X215433731Y-109954992D01*
X215532775Y-109855948D01*
X215651515Y-109678241D01*
X215733304Y-109480784D01*
X215756117Y-109366097D01*
X215773517Y-109373304D01*
X215983137Y-109415000D01*
X216196863Y-109415000D01*
X216406483Y-109373304D01*
X216603940Y-109291515D01*
X216781647Y-109172775D01*
X216932775Y-109021647D01*
X217051515Y-108843940D01*
X217133304Y-108646483D01*
X217175000Y-108436863D01*
X217175000Y-108223137D01*
X217133304Y-108013517D01*
X217051515Y-107816060D01*
X216932775Y-107638353D01*
X216781647Y-107487225D01*
X216603940Y-107368485D01*
X216406483Y-107286696D01*
X216196863Y-107245000D01*
X215983137Y-107245000D01*
X215773517Y-107286696D01*
X215576060Y-107368485D01*
X215398353Y-107487225D01*
X215247225Y-107638353D01*
X215128485Y-107816060D01*
X215046696Y-108013517D01*
X215023883Y-108128204D01*
X215006483Y-108120997D01*
X214796863Y-108079301D01*
X214583137Y-108079301D01*
X214373517Y-108120997D01*
X214176060Y-108202786D01*
X213998353Y-108321526D01*
X213847225Y-108472654D01*
X213728485Y-108650361D01*
X213646696Y-108847818D01*
X213605000Y-109057438D01*
X213605000Y-109271164D01*
X213646696Y-109480784D01*
X213728485Y-109678241D01*
X213847225Y-109855948D01*
X213946269Y-109954992D01*
X206490330Y-109954992D01*
X206410008Y-109947081D01*
X206089491Y-109978649D01*
X205934962Y-110025525D01*
X205904615Y-110034731D01*
X205978363Y-109960983D01*
X206212012Y-109611302D01*
X206372953Y-109222756D01*
X206455000Y-108810279D01*
X206455000Y-108777238D01*
X208607239Y-106625000D01*
X243442762Y-106625000D01*
X244737079Y-107919318D01*
X244788286Y-107981714D01*
X245037248Y-108186031D01*
X245259823Y-108305000D01*
X245321285Y-108337852D01*
X245629483Y-108431343D01*
X245718641Y-108440124D01*
X245558353Y-108547225D01*
X245407225Y-108698353D01*
X245288485Y-108876060D01*
X245206696Y-109073517D01*
X245165000Y-109283137D01*
X245165000Y-109496863D01*
X245206696Y-109706483D01*
X245288485Y-109903940D01*
X245407225Y-110081647D01*
X245558353Y-110232775D01*
X245736060Y-110351515D01*
X245933517Y-110433304D01*
X246143137Y-110475000D01*
X246356863Y-110475000D01*
X246566483Y-110433304D01*
X246763940Y-110351515D01*
X246941647Y-110232775D01*
X247092775Y-110081647D01*
X247211515Y-109903940D01*
X247293304Y-109706483D01*
X247335000Y-109496863D01*
X247335000Y-109283137D01*
X247293304Y-109073517D01*
X247211515Y-108876060D01*
X247092775Y-108698353D01*
X246941647Y-108547225D01*
X246763940Y-108428485D01*
X246648106Y-108380505D01*
X246788715Y-108337852D01*
X247072752Y-108186031D01*
X247321714Y-107981714D01*
X247526031Y-107732752D01*
X247677852Y-107448715D01*
X247771343Y-107140516D01*
X247802911Y-106820000D01*
X247771343Y-106499484D01*
X247677852Y-106191285D01*
X247526031Y-105907248D01*
X247321714Y-105658286D01*
X247072752Y-105453969D01*
X246788715Y-105302148D01*
X246725085Y-105282846D01*
X245332925Y-103890686D01*
X245281714Y-103828286D01*
X245032752Y-103623969D01*
X244748715Y-103472148D01*
X244609772Y-103430000D01*
X248041928Y-103430000D01*
X248041928Y-105130000D01*
X248054188Y-105254482D01*
X248090498Y-105374180D01*
X248149463Y-105484494D01*
X248228815Y-105581185D01*
X248325506Y-105660537D01*
X248435820Y-105719502D01*
X248508380Y-105741513D01*
X248376525Y-105873368D01*
X248214010Y-106116589D01*
X248102068Y-106386842D01*
X248045000Y-106673740D01*
X248045000Y-106966260D01*
X248102068Y-107253158D01*
X248214010Y-107523411D01*
X248376525Y-107766632D01*
X248583368Y-107973475D01*
X248826589Y-108135990D01*
X249096842Y-108247932D01*
X249383740Y-108305000D01*
X249676260Y-108305000D01*
X249963158Y-108247932D01*
X250233411Y-108135990D01*
X250476632Y-107973475D01*
X250683475Y-107766632D01*
X250800000Y-107592240D01*
X250916525Y-107766632D01*
X251123368Y-107973475D01*
X251366589Y-108135990D01*
X251636842Y-108247932D01*
X251923740Y-108305000D01*
X252216260Y-108305000D01*
X252503158Y-108247932D01*
X252773411Y-108135990D01*
X253016632Y-107973475D01*
X253223475Y-107766632D01*
X253385990Y-107523411D01*
X253497932Y-107253158D01*
X253555000Y-106966260D01*
X253555000Y-106673740D01*
X253497932Y-106386842D01*
X253385990Y-106116589D01*
X253223475Y-105873368D01*
X253091620Y-105741513D01*
X253164180Y-105719502D01*
X253274494Y-105660537D01*
X253371185Y-105581185D01*
X253450537Y-105484494D01*
X253491069Y-105408665D01*
X255715000Y-105408665D01*
X255715000Y-105691335D01*
X255770147Y-105968574D01*
X255878320Y-106229727D01*
X256035363Y-106464759D01*
X256235241Y-106664637D01*
X256467759Y-106820000D01*
X256235241Y-106975363D01*
X256035363Y-107175241D01*
X255878320Y-107410273D01*
X255770147Y-107671426D01*
X255715000Y-107948665D01*
X255715000Y-108231335D01*
X255770147Y-108508574D01*
X255878320Y-108769727D01*
X256035363Y-109004759D01*
X256235241Y-109204637D01*
X256467759Y-109360000D01*
X256235241Y-109515363D01*
X256035363Y-109715241D01*
X255878320Y-109950273D01*
X255770147Y-110211426D01*
X255715000Y-110488665D01*
X255715000Y-110771335D01*
X255770147Y-111048574D01*
X255878320Y-111309727D01*
X256035363Y-111544759D01*
X256235241Y-111744637D01*
X256467759Y-111900000D01*
X256235241Y-112055363D01*
X256035363Y-112255241D01*
X255878320Y-112490273D01*
X255770147Y-112751426D01*
X255715000Y-113028665D01*
X255715000Y-113311335D01*
X255770147Y-113588574D01*
X255878320Y-113849727D01*
X256035363Y-114084759D01*
X256235241Y-114284637D01*
X256467759Y-114440000D01*
X256235241Y-114595363D01*
X256035363Y-114795241D01*
X255878320Y-115030273D01*
X255770147Y-115291426D01*
X255715000Y-115568665D01*
X255715000Y-115851335D01*
X255770147Y-116128574D01*
X255878320Y-116389727D01*
X256035363Y-116624759D01*
X256235241Y-116824637D01*
X256467759Y-116980000D01*
X256235241Y-117135363D01*
X256035363Y-117335241D01*
X255878320Y-117570273D01*
X255770147Y-117831426D01*
X255715000Y-118108665D01*
X255715000Y-118391335D01*
X255770147Y-118668574D01*
X255878320Y-118929727D01*
X256035363Y-119164759D01*
X256235241Y-119364637D01*
X256467759Y-119520000D01*
X256235241Y-119675363D01*
X256035363Y-119875241D01*
X255878320Y-120110273D01*
X255770147Y-120371426D01*
X255715000Y-120648665D01*
X255715000Y-120931335D01*
X255770147Y-121208574D01*
X255878320Y-121469727D01*
X256035363Y-121704759D01*
X256235241Y-121904637D01*
X256467759Y-122060000D01*
X256235241Y-122215363D01*
X256035363Y-122415241D01*
X255878320Y-122650273D01*
X255770147Y-122911426D01*
X255715000Y-123188665D01*
X255715000Y-123471335D01*
X255770147Y-123748574D01*
X255878320Y-124009727D01*
X256035363Y-124244759D01*
X256235241Y-124444637D01*
X256470273Y-124601680D01*
X256731426Y-124709853D01*
X257008665Y-124765000D01*
X257291335Y-124765000D01*
X257568574Y-124709853D01*
X257829727Y-124601680D01*
X258064759Y-124444637D01*
X258264637Y-124244759D01*
X258341316Y-124130000D01*
X268411928Y-124130000D01*
X268424188Y-124254482D01*
X268460498Y-124374180D01*
X268519463Y-124484494D01*
X268598815Y-124581185D01*
X268695506Y-124660537D01*
X268805820Y-124719502D01*
X268925518Y-124755812D01*
X269050000Y-124768072D01*
X269564250Y-124765000D01*
X269723000Y-124606250D01*
X269723000Y-123457000D01*
X269977000Y-123457000D01*
X269977000Y-124606250D01*
X270135750Y-124765000D01*
X270650000Y-124768072D01*
X270774482Y-124755812D01*
X270894180Y-124719502D01*
X271004494Y-124660537D01*
X271101185Y-124581185D01*
X271180537Y-124484494D01*
X271239502Y-124374180D01*
X271275812Y-124254482D01*
X271288072Y-124130000D01*
X271285000Y-123615750D01*
X271126250Y-123457000D01*
X269977000Y-123457000D01*
X269723000Y-123457000D01*
X268573750Y-123457000D01*
X268415000Y-123615750D01*
X268411928Y-124130000D01*
X258341316Y-124130000D01*
X258421680Y-124009727D01*
X258529853Y-123748574D01*
X258585000Y-123471335D01*
X258585000Y-123188665D01*
X258529853Y-122911426D01*
X258421680Y-122650273D01*
X258341317Y-122530000D01*
X268411928Y-122530000D01*
X268415000Y-123044250D01*
X268573750Y-123203000D01*
X269723000Y-123203000D01*
X269723000Y-123183000D01*
X269977000Y-123183000D01*
X269977000Y-123203000D01*
X271126250Y-123203000D01*
X271285000Y-123044250D01*
X271288072Y-122530000D01*
X271275812Y-122405518D01*
X271239502Y-122285820D01*
X271180537Y-122175506D01*
X271101185Y-122078815D01*
X271004494Y-121999463D01*
X270894180Y-121940498D01*
X270774482Y-121904188D01*
X270766039Y-121903357D01*
X270964637Y-121704759D01*
X271121680Y-121469727D01*
X271229853Y-121208574D01*
X271285000Y-120931335D01*
X271285000Y-120648665D01*
X271229853Y-120371426D01*
X271121680Y-120110273D01*
X270964637Y-119875241D01*
X270764759Y-119675363D01*
X270532241Y-119520000D01*
X270764759Y-119364637D01*
X270964637Y-119164759D01*
X271121680Y-118929727D01*
X271229853Y-118668574D01*
X271285000Y-118391335D01*
X271285000Y-118108665D01*
X271229853Y-117831426D01*
X271121680Y-117570273D01*
X270964637Y-117335241D01*
X270764759Y-117135363D01*
X270532241Y-116980000D01*
X270764759Y-116824637D01*
X270964637Y-116624759D01*
X271121680Y-116389727D01*
X271229853Y-116128574D01*
X271285000Y-115851335D01*
X271285000Y-115568665D01*
X271229853Y-115291426D01*
X271121680Y-115030273D01*
X270992013Y-114836212D01*
X272017000Y-114836212D01*
X272017000Y-115059788D01*
X272060617Y-115279067D01*
X272146176Y-115485624D01*
X272270388Y-115671520D01*
X272428480Y-115829612D01*
X272614376Y-115953824D01*
X272820933Y-116039383D01*
X273040212Y-116083000D01*
X273263788Y-116083000D01*
X273483067Y-116039383D01*
X273689624Y-115953824D01*
X273731265Y-115926000D01*
X275777928Y-115926000D01*
X275777928Y-117526000D01*
X275790188Y-117650482D01*
X275826498Y-117770180D01*
X275885463Y-117880494D01*
X275964815Y-117977185D01*
X276061506Y-118056537D01*
X276171820Y-118115502D01*
X276291518Y-118151812D01*
X276416000Y-118164072D01*
X276681725Y-118164072D01*
X276536273Y-118224320D01*
X276301241Y-118381363D01*
X276101363Y-118581241D01*
X275944320Y-118816273D01*
X275836147Y-119077426D01*
X275781000Y-119354665D01*
X275781000Y-119637335D01*
X275836147Y-119914574D01*
X275944320Y-120175727D01*
X276101363Y-120410759D01*
X276301241Y-120610637D01*
X276536273Y-120767680D01*
X276797426Y-120875853D01*
X276823301Y-120881000D01*
X276797426Y-120886147D01*
X276536273Y-120994320D01*
X276301241Y-121151363D01*
X276101363Y-121351241D01*
X275944320Y-121586273D01*
X275836147Y-121847426D01*
X275781000Y-122124665D01*
X275781000Y-122407335D01*
X275836147Y-122684574D01*
X275944320Y-122945727D01*
X276101363Y-123180759D01*
X276301241Y-123380637D01*
X276536273Y-123537680D01*
X276797426Y-123645853D01*
X276823301Y-123651000D01*
X276797426Y-123656147D01*
X276536273Y-123764320D01*
X276301241Y-123921363D01*
X276101363Y-124121241D01*
X275944320Y-124356273D01*
X275836147Y-124617426D01*
X275781000Y-124894665D01*
X275781000Y-125177335D01*
X275836147Y-125454574D01*
X275944320Y-125715727D01*
X276101363Y-125950759D01*
X276301241Y-126150637D01*
X276536273Y-126307680D01*
X276797426Y-126415853D01*
X276825882Y-126421513D01*
X276599708Y-126502397D01*
X276474486Y-126569329D01*
X276402903Y-126813298D01*
X277216000Y-127626395D01*
X278029097Y-126813298D01*
X277957514Y-126569329D01*
X277793056Y-126491512D01*
X278615783Y-126491512D01*
X278657213Y-126771130D01*
X278752397Y-127037292D01*
X278819329Y-127162514D01*
X279063298Y-127234097D01*
X279876395Y-126421000D01*
X280235605Y-126421000D01*
X281048702Y-127234097D01*
X281292671Y-127162514D01*
X281413571Y-126907004D01*
X281482300Y-126632816D01*
X281496217Y-126350488D01*
X281454787Y-126070870D01*
X281359603Y-125804708D01*
X281292671Y-125679486D01*
X281048702Y-125607903D01*
X280235605Y-126421000D01*
X279876395Y-126421000D01*
X279063298Y-125607903D01*
X278819329Y-125679486D01*
X278698429Y-125934996D01*
X278629700Y-126209184D01*
X278615783Y-126491512D01*
X277793056Y-126491512D01*
X277702004Y-126448429D01*
X277599711Y-126422788D01*
X277634574Y-126415853D01*
X277895727Y-126307680D01*
X278130759Y-126150637D01*
X278330637Y-125950759D01*
X278487680Y-125715727D01*
X278595853Y-125454574D01*
X278651000Y-125177335D01*
X278651000Y-124894665D01*
X278595853Y-124617426D01*
X278487680Y-124356273D01*
X278330637Y-124121241D01*
X278130759Y-123921363D01*
X277895727Y-123764320D01*
X277634574Y-123656147D01*
X277608699Y-123651000D01*
X277634574Y-123645853D01*
X277895727Y-123537680D01*
X278130759Y-123380637D01*
X278330637Y-123180759D01*
X278487680Y-122945727D01*
X278595853Y-122684574D01*
X278651000Y-122407335D01*
X278651000Y-122124665D01*
X278595853Y-121847426D01*
X278487680Y-121586273D01*
X278330637Y-121351241D01*
X278130759Y-121151363D01*
X277895727Y-120994320D01*
X277634574Y-120886147D01*
X277608699Y-120881000D01*
X277634574Y-120875853D01*
X277895727Y-120767680D01*
X278130759Y-120610637D01*
X278330637Y-120410759D01*
X278487680Y-120175727D01*
X278595853Y-119914574D01*
X278651000Y-119637335D01*
X278651000Y-119354665D01*
X278595853Y-119077426D01*
X278487680Y-118816273D01*
X278330637Y-118581241D01*
X278130759Y-118381363D01*
X277895727Y-118224320D01*
X277750275Y-118164072D01*
X278016000Y-118164072D01*
X278140482Y-118151812D01*
X278260180Y-118115502D01*
X278370494Y-118056537D01*
X278467185Y-117977185D01*
X278473356Y-117969665D01*
X278621000Y-117969665D01*
X278621000Y-118252335D01*
X278676147Y-118529574D01*
X278784320Y-118790727D01*
X278941363Y-119025759D01*
X279141241Y-119225637D01*
X279376273Y-119382680D01*
X279637426Y-119490853D01*
X279663301Y-119496000D01*
X279637426Y-119501147D01*
X279376273Y-119609320D01*
X279141241Y-119766363D01*
X278941363Y-119966241D01*
X278784320Y-120201273D01*
X278676147Y-120462426D01*
X278621000Y-120739665D01*
X278621000Y-121022335D01*
X278676147Y-121299574D01*
X278784320Y-121560727D01*
X278941363Y-121795759D01*
X279141241Y-121995637D01*
X279376273Y-122152680D01*
X279637426Y-122260853D01*
X279663301Y-122266000D01*
X279637426Y-122271147D01*
X279376273Y-122379320D01*
X279141241Y-122536363D01*
X278941363Y-122736241D01*
X278784320Y-122971273D01*
X278676147Y-123232426D01*
X278621000Y-123509665D01*
X278621000Y-123792335D01*
X278676147Y-124069574D01*
X278784320Y-124330727D01*
X278941363Y-124565759D01*
X279141241Y-124765637D01*
X279376273Y-124922680D01*
X279637426Y-125030853D01*
X279665882Y-125036513D01*
X279439708Y-125117397D01*
X279314486Y-125184329D01*
X279242903Y-125428298D01*
X280056000Y-126241395D01*
X280869097Y-125428298D01*
X280797514Y-125184329D01*
X280542004Y-125063429D01*
X280439711Y-125037788D01*
X280474574Y-125030853D01*
X280735727Y-124922680D01*
X280970759Y-124765637D01*
X281170637Y-124565759D01*
X281327680Y-124330727D01*
X281435853Y-124069574D01*
X281491000Y-123792335D01*
X281491000Y-123509665D01*
X281435853Y-123232426D01*
X281327680Y-122971273D01*
X281170637Y-122736241D01*
X280970759Y-122536363D01*
X280735727Y-122379320D01*
X280474574Y-122271147D01*
X280448699Y-122266000D01*
X280474574Y-122260853D01*
X280735727Y-122152680D01*
X280970759Y-121995637D01*
X281170637Y-121795759D01*
X281327680Y-121560727D01*
X281435853Y-121299574D01*
X281491000Y-121022335D01*
X281491000Y-120739665D01*
X281435853Y-120462426D01*
X281327680Y-120201273D01*
X281170637Y-119966241D01*
X280970759Y-119766363D01*
X280735727Y-119609320D01*
X280474574Y-119501147D01*
X280448699Y-119496000D01*
X280474574Y-119490853D01*
X280735727Y-119382680D01*
X280970759Y-119225637D01*
X281170637Y-119025759D01*
X281327680Y-118790727D01*
X281435853Y-118529574D01*
X281491000Y-118252335D01*
X281491000Y-117969665D01*
X281435853Y-117692426D01*
X281327680Y-117431273D01*
X281170637Y-117196241D01*
X280970759Y-116996363D01*
X280735727Y-116839320D01*
X280474574Y-116731147D01*
X280197335Y-116676000D01*
X279914665Y-116676000D01*
X279637426Y-116731147D01*
X279376273Y-116839320D01*
X279141241Y-116996363D01*
X278941363Y-117196241D01*
X278784320Y-117431273D01*
X278676147Y-117692426D01*
X278621000Y-117969665D01*
X278473356Y-117969665D01*
X278546537Y-117880494D01*
X278605502Y-117770180D01*
X278641812Y-117650482D01*
X278654072Y-117526000D01*
X278654072Y-115926000D01*
X278641812Y-115801518D01*
X278605502Y-115681820D01*
X278546537Y-115571506D01*
X278467185Y-115474815D01*
X278370494Y-115395463D01*
X278260180Y-115336498D01*
X278140482Y-115300188D01*
X278016000Y-115287928D01*
X276416000Y-115287928D01*
X276291518Y-115300188D01*
X276171820Y-115336498D01*
X276061506Y-115395463D01*
X275964815Y-115474815D01*
X275885463Y-115571506D01*
X275826498Y-115681820D01*
X275790188Y-115801518D01*
X275777928Y-115926000D01*
X273731265Y-115926000D01*
X273875520Y-115829612D01*
X274033612Y-115671520D01*
X274157824Y-115485624D01*
X274243383Y-115279067D01*
X274287000Y-115059788D01*
X274287000Y-114836212D01*
X274243383Y-114616933D01*
X274157824Y-114410376D01*
X274033612Y-114224480D01*
X273875520Y-114066388D01*
X273689624Y-113942176D01*
X273483067Y-113856617D01*
X273263788Y-113813000D01*
X273040212Y-113813000D01*
X272820933Y-113856617D01*
X272614376Y-113942176D01*
X272428480Y-114066388D01*
X272270388Y-114224480D01*
X272146176Y-114410376D01*
X272060617Y-114616933D01*
X272017000Y-114836212D01*
X270992013Y-114836212D01*
X270964637Y-114795241D01*
X270764759Y-114595363D01*
X270532241Y-114440000D01*
X270764759Y-114284637D01*
X270964637Y-114084759D01*
X271121680Y-113849727D01*
X271229853Y-113588574D01*
X271285000Y-113311335D01*
X271285000Y-113028665D01*
X271229853Y-112751426D01*
X271121680Y-112490273D01*
X270964637Y-112255241D01*
X270764759Y-112055363D01*
X270532241Y-111900000D01*
X270764759Y-111744637D01*
X270964637Y-111544759D01*
X271121680Y-111309727D01*
X271229853Y-111048574D01*
X271285000Y-110771335D01*
X271285000Y-110488665D01*
X271229853Y-110211426D01*
X271121680Y-109950273D01*
X270964637Y-109715241D01*
X270764759Y-109515363D01*
X270751458Y-109506475D01*
X274881000Y-109506475D01*
X274881000Y-110025525D01*
X274982261Y-110534601D01*
X275180893Y-111014141D01*
X275469262Y-111445715D01*
X275836285Y-111812738D01*
X276267859Y-112101107D01*
X276747399Y-112299739D01*
X277256475Y-112401000D01*
X277775525Y-112401000D01*
X278284601Y-112299739D01*
X278764141Y-112101107D01*
X279195715Y-111812738D01*
X279562738Y-111445715D01*
X279851107Y-111014141D01*
X280049739Y-110534601D01*
X280151000Y-110025525D01*
X280151000Y-109506475D01*
X280049739Y-108997399D01*
X279851107Y-108517859D01*
X279562738Y-108086285D01*
X279195715Y-107719262D01*
X278764141Y-107430893D01*
X278284601Y-107232261D01*
X277775525Y-107131000D01*
X277256475Y-107131000D01*
X276747399Y-107232261D01*
X276267859Y-107430893D01*
X275836285Y-107719262D01*
X275469262Y-108086285D01*
X275180893Y-108517859D01*
X274982261Y-108997399D01*
X274881000Y-109506475D01*
X270751458Y-109506475D01*
X270529727Y-109358320D01*
X270519135Y-109353933D01*
X270705131Y-109242385D01*
X270913519Y-109053414D01*
X271081037Y-108827420D01*
X271201246Y-108573087D01*
X271241904Y-108439039D01*
X271119915Y-108217000D01*
X269977000Y-108217000D01*
X269977000Y-108237000D01*
X269723000Y-108237000D01*
X269723000Y-108217000D01*
X268580085Y-108217000D01*
X268458096Y-108439039D01*
X268498754Y-108573087D01*
X268618963Y-108827420D01*
X268786481Y-109053414D01*
X268994869Y-109242385D01*
X269180865Y-109353933D01*
X269170273Y-109358320D01*
X268935241Y-109515363D01*
X268735363Y-109715241D01*
X268578320Y-109950273D01*
X268470147Y-110211426D01*
X268415000Y-110488665D01*
X268415000Y-110771335D01*
X268470147Y-111048574D01*
X268578320Y-111309727D01*
X268735363Y-111544759D01*
X268935241Y-111744637D01*
X269167759Y-111900000D01*
X268935241Y-112055363D01*
X268735363Y-112255241D01*
X268578320Y-112490273D01*
X268470147Y-112751426D01*
X268415000Y-113028665D01*
X268415000Y-113311335D01*
X268470147Y-113588574D01*
X268578320Y-113849727D01*
X268735363Y-114084759D01*
X268935241Y-114284637D01*
X269167759Y-114440000D01*
X268935241Y-114595363D01*
X268735363Y-114795241D01*
X268578320Y-115030273D01*
X268470147Y-115291426D01*
X268415000Y-115568665D01*
X268415000Y-115851335D01*
X268470147Y-116128574D01*
X268578320Y-116389727D01*
X268735363Y-116624759D01*
X268935241Y-116824637D01*
X269167759Y-116980000D01*
X268935241Y-117135363D01*
X268735363Y-117335241D01*
X268578320Y-117570273D01*
X268470147Y-117831426D01*
X268415000Y-118108665D01*
X268415000Y-118391335D01*
X268470147Y-118668574D01*
X268578320Y-118929727D01*
X268735363Y-119164759D01*
X268935241Y-119364637D01*
X269167759Y-119520000D01*
X268935241Y-119675363D01*
X268735363Y-119875241D01*
X268578320Y-120110273D01*
X268470147Y-120371426D01*
X268415000Y-120648665D01*
X268415000Y-120931335D01*
X268470147Y-121208574D01*
X268578320Y-121469727D01*
X268735363Y-121704759D01*
X268933961Y-121903357D01*
X268925518Y-121904188D01*
X268805820Y-121940498D01*
X268695506Y-121999463D01*
X268598815Y-122078815D01*
X268519463Y-122175506D01*
X268460498Y-122285820D01*
X268424188Y-122405518D01*
X268411928Y-122530000D01*
X258341317Y-122530000D01*
X258264637Y-122415241D01*
X258064759Y-122215363D01*
X257832241Y-122060000D01*
X258064759Y-121904637D01*
X258264637Y-121704759D01*
X258421680Y-121469727D01*
X258529853Y-121208574D01*
X258585000Y-120931335D01*
X258585000Y-120648665D01*
X258529853Y-120371426D01*
X258421680Y-120110273D01*
X258264637Y-119875241D01*
X258064759Y-119675363D01*
X257832241Y-119520000D01*
X258064759Y-119364637D01*
X258264637Y-119164759D01*
X258421680Y-118929727D01*
X258450193Y-118860890D01*
X259518524Y-118860890D01*
X259563175Y-119008099D01*
X259688359Y-119270920D01*
X259862412Y-119504269D01*
X260078645Y-119699178D01*
X260328748Y-119848157D01*
X260603109Y-119945481D01*
X260833000Y-119824814D01*
X260833000Y-118631000D01*
X261087000Y-118631000D01*
X261087000Y-119824814D01*
X261316891Y-119945481D01*
X261591252Y-119848157D01*
X261841355Y-119699178D01*
X262057588Y-119504269D01*
X262230000Y-119273120D01*
X262402412Y-119504269D01*
X262618645Y-119699178D01*
X262868748Y-119848157D01*
X263143109Y-119945481D01*
X263373000Y-119824814D01*
X263373000Y-118631000D01*
X263627000Y-118631000D01*
X263627000Y-119824814D01*
X263856891Y-119945481D01*
X264131252Y-119848157D01*
X264381355Y-119699178D01*
X264597588Y-119504269D01*
X264770000Y-119273120D01*
X264942412Y-119504269D01*
X265158645Y-119699178D01*
X265408748Y-119848157D01*
X265683109Y-119945481D01*
X265913000Y-119824814D01*
X265913000Y-118631000D01*
X266167000Y-118631000D01*
X266167000Y-119824814D01*
X266396891Y-119945481D01*
X266671252Y-119848157D01*
X266921355Y-119699178D01*
X267137588Y-119504269D01*
X267311641Y-119270920D01*
X267436825Y-119008099D01*
X267481476Y-118860890D01*
X267360155Y-118631000D01*
X266167000Y-118631000D01*
X265913000Y-118631000D01*
X263627000Y-118631000D01*
X263373000Y-118631000D01*
X261087000Y-118631000D01*
X260833000Y-118631000D01*
X259639845Y-118631000D01*
X259518524Y-118860890D01*
X258450193Y-118860890D01*
X258529853Y-118668574D01*
X258585000Y-118391335D01*
X258585000Y-118108665D01*
X258529853Y-117831426D01*
X258421680Y-117570273D01*
X258264637Y-117335241D01*
X258064759Y-117135363D01*
X257832241Y-116980000D01*
X258064759Y-116824637D01*
X258264637Y-116624759D01*
X258421680Y-116389727D01*
X258529853Y-116128574D01*
X258585000Y-115851335D01*
X258585000Y-115568665D01*
X258529853Y-115291426D01*
X258421680Y-115030273D01*
X258264637Y-114795241D01*
X258064759Y-114595363D01*
X257832241Y-114440000D01*
X258064759Y-114284637D01*
X258264637Y-114084759D01*
X258421680Y-113849727D01*
X258529853Y-113588574D01*
X258585000Y-113311335D01*
X258585000Y-113028665D01*
X258529853Y-112751426D01*
X258456361Y-112574000D01*
X259471928Y-112574000D01*
X259471928Y-114274000D01*
X259484188Y-114398482D01*
X259520498Y-114518180D01*
X259579463Y-114628494D01*
X259658815Y-114725185D01*
X259755506Y-114804537D01*
X259865820Y-114863502D01*
X259938380Y-114885513D01*
X259806525Y-115017368D01*
X259644010Y-115260589D01*
X259532068Y-115530842D01*
X259475000Y-115817740D01*
X259475000Y-116110260D01*
X259532068Y-116397158D01*
X259644010Y-116667411D01*
X259806525Y-116910632D01*
X260013368Y-117117475D01*
X260195534Y-117239195D01*
X260078645Y-117308822D01*
X259862412Y-117503731D01*
X259688359Y-117737080D01*
X259563175Y-117999901D01*
X259518524Y-118147110D01*
X259639845Y-118377000D01*
X260833000Y-118377000D01*
X260833000Y-118357000D01*
X261087000Y-118357000D01*
X261087000Y-118377000D01*
X263373000Y-118377000D01*
X263373000Y-118357000D01*
X263627000Y-118357000D01*
X263627000Y-118377000D01*
X265913000Y-118377000D01*
X265913000Y-118357000D01*
X266167000Y-118357000D01*
X266167000Y-118377000D01*
X267360155Y-118377000D01*
X267481476Y-118147110D01*
X267436825Y-117999901D01*
X267311641Y-117737080D01*
X267137588Y-117503731D01*
X266921355Y-117308822D01*
X266804466Y-117239195D01*
X266986632Y-117117475D01*
X267193475Y-116910632D01*
X267355990Y-116667411D01*
X267467932Y-116397158D01*
X267525000Y-116110260D01*
X267525000Y-115817740D01*
X267467932Y-115530842D01*
X267355990Y-115260589D01*
X267193475Y-115017368D01*
X267061620Y-114885513D01*
X267134180Y-114863502D01*
X267244494Y-114804537D01*
X267341185Y-114725185D01*
X267420537Y-114628494D01*
X267479502Y-114518180D01*
X267515812Y-114398482D01*
X267528072Y-114274000D01*
X267528072Y-112574000D01*
X267515812Y-112449518D01*
X267479502Y-112329820D01*
X267420537Y-112219506D01*
X267341185Y-112122815D01*
X267244494Y-112043463D01*
X267134180Y-111984498D01*
X267014482Y-111948188D01*
X266890000Y-111935928D01*
X265190000Y-111935928D01*
X265065518Y-111948188D01*
X264945820Y-111984498D01*
X264835506Y-112043463D01*
X264770000Y-112097222D01*
X264704494Y-112043463D01*
X264594180Y-111984498D01*
X264474482Y-111948188D01*
X264350000Y-111935928D01*
X262650000Y-111935928D01*
X262525518Y-111948188D01*
X262405820Y-111984498D01*
X262295506Y-112043463D01*
X262230000Y-112097222D01*
X262164494Y-112043463D01*
X262054180Y-111984498D01*
X261934482Y-111948188D01*
X261810000Y-111935928D01*
X260110000Y-111935928D01*
X259985518Y-111948188D01*
X259865820Y-111984498D01*
X259755506Y-112043463D01*
X259658815Y-112122815D01*
X259579463Y-112219506D01*
X259520498Y-112329820D01*
X259484188Y-112449518D01*
X259471928Y-112574000D01*
X258456361Y-112574000D01*
X258421680Y-112490273D01*
X258264637Y-112255241D01*
X258064759Y-112055363D01*
X257832241Y-111900000D01*
X258064759Y-111744637D01*
X258264637Y-111544759D01*
X258421680Y-111309727D01*
X258529853Y-111048574D01*
X258585000Y-110771335D01*
X258585000Y-110488665D01*
X258529853Y-110211426D01*
X258421680Y-109950273D01*
X258264637Y-109715241D01*
X258064759Y-109515363D01*
X257832241Y-109360000D01*
X258064759Y-109204637D01*
X258264637Y-109004759D01*
X258421680Y-108769727D01*
X258529853Y-108508574D01*
X258585000Y-108231335D01*
X258585000Y-107948665D01*
X258529853Y-107671426D01*
X258421680Y-107410273D01*
X258264637Y-107175241D01*
X258064759Y-106975363D01*
X257832241Y-106820000D01*
X258064759Y-106664637D01*
X258264637Y-106464759D01*
X258421680Y-106229727D01*
X258529853Y-105968574D01*
X258585000Y-105691335D01*
X258585000Y-105408665D01*
X268415000Y-105408665D01*
X268415000Y-105691335D01*
X268470147Y-105968574D01*
X268578320Y-106229727D01*
X268735363Y-106464759D01*
X268935241Y-106664637D01*
X269170273Y-106821680D01*
X269180865Y-106826067D01*
X268994869Y-106937615D01*
X268786481Y-107126586D01*
X268618963Y-107352580D01*
X268498754Y-107606913D01*
X268458096Y-107740961D01*
X268580085Y-107963000D01*
X269723000Y-107963000D01*
X269723000Y-107943000D01*
X269977000Y-107943000D01*
X269977000Y-107963000D01*
X271119915Y-107963000D01*
X271241904Y-107740961D01*
X271201246Y-107606913D01*
X271081037Y-107352580D01*
X270913519Y-107126586D01*
X270705131Y-106937615D01*
X270519135Y-106826067D01*
X270529727Y-106821680D01*
X270764759Y-106664637D01*
X270964637Y-106464759D01*
X271121680Y-106229727D01*
X271229853Y-105968574D01*
X271285000Y-105691335D01*
X271285000Y-105408665D01*
X271229853Y-105131426D01*
X271121680Y-104870273D01*
X270964637Y-104635241D01*
X270764759Y-104435363D01*
X270529727Y-104278320D01*
X270268574Y-104170147D01*
X269991335Y-104115000D01*
X269708665Y-104115000D01*
X269431426Y-104170147D01*
X269170273Y-104278320D01*
X268935241Y-104435363D01*
X268735363Y-104635241D01*
X268578320Y-104870273D01*
X268470147Y-105131426D01*
X268415000Y-105408665D01*
X258585000Y-105408665D01*
X258529853Y-105131426D01*
X258421680Y-104870273D01*
X258264637Y-104635241D01*
X258064759Y-104435363D01*
X257829727Y-104278320D01*
X257568574Y-104170147D01*
X257291335Y-104115000D01*
X257008665Y-104115000D01*
X256731426Y-104170147D01*
X256470273Y-104278320D01*
X256235241Y-104435363D01*
X256035363Y-104635241D01*
X255878320Y-104870273D01*
X255770147Y-105131426D01*
X255715000Y-105408665D01*
X253491069Y-105408665D01*
X253509502Y-105374180D01*
X253545812Y-105254482D01*
X253558072Y-105130000D01*
X253558072Y-103430000D01*
X253545812Y-103305518D01*
X253509502Y-103185820D01*
X253450537Y-103075506D01*
X253371185Y-102978815D01*
X253274494Y-102899463D01*
X253164180Y-102840498D01*
X253044482Y-102804188D01*
X252920000Y-102791928D01*
X251220000Y-102791928D01*
X251095518Y-102804188D01*
X250975820Y-102840498D01*
X250865506Y-102899463D01*
X250800000Y-102953222D01*
X250734494Y-102899463D01*
X250624180Y-102840498D01*
X250504482Y-102804188D01*
X250380000Y-102791928D01*
X248680000Y-102791928D01*
X248555518Y-102804188D01*
X248435820Y-102840498D01*
X248325506Y-102899463D01*
X248228815Y-102978815D01*
X248149463Y-103075506D01*
X248090498Y-103185820D01*
X248054188Y-103305518D01*
X248041928Y-103430000D01*
X244609772Y-103430000D01*
X244440516Y-103378657D01*
X244200322Y-103355000D01*
X244200319Y-103355000D01*
X244120000Y-103347089D01*
X244039681Y-103355000D01*
X243018120Y-103355000D01*
X243067923Y-103294315D01*
X243187246Y-103174992D01*
X245020330Y-103174992D01*
X245260524Y-103151335D01*
X245568723Y-103057844D01*
X245852760Y-102906023D01*
X246101722Y-102701706D01*
X246306039Y-102452744D01*
X246368439Y-102336000D01*
X265059928Y-102336000D01*
X265072188Y-102460482D01*
X265108498Y-102580180D01*
X265167463Y-102690494D01*
X265246815Y-102787185D01*
X265343506Y-102866537D01*
X265453820Y-102925502D01*
X265573518Y-102961812D01*
X265698000Y-102974072D01*
X266262250Y-102971000D01*
X266421000Y-102812250D01*
X266421000Y-101613000D01*
X266675000Y-101613000D01*
X266675000Y-102812250D01*
X266833750Y-102971000D01*
X267398000Y-102974072D01*
X267522482Y-102961812D01*
X267642180Y-102925502D01*
X267752494Y-102866537D01*
X267849185Y-102787185D01*
X267928537Y-102690494D01*
X267987502Y-102580180D01*
X268023812Y-102460482D01*
X268036072Y-102336000D01*
X268035567Y-102243137D01*
X280655000Y-102243137D01*
X280655000Y-102456863D01*
X280696696Y-102666483D01*
X280778485Y-102863940D01*
X280897225Y-103041647D01*
X281048353Y-103192775D01*
X281226060Y-103311515D01*
X281423517Y-103393304D01*
X281633137Y-103435000D01*
X281846863Y-103435000D01*
X282056483Y-103393304D01*
X282253940Y-103311515D01*
X282431647Y-103192775D01*
X282582775Y-103041647D01*
X282701515Y-102863940D01*
X282783304Y-102666483D01*
X282825000Y-102456863D01*
X282825000Y-102243137D01*
X282783304Y-102033517D01*
X282701515Y-101836060D01*
X282582775Y-101658353D01*
X282431647Y-101507225D01*
X282253940Y-101388485D01*
X282056483Y-101306696D01*
X281846863Y-101265000D01*
X281633137Y-101265000D01*
X281423517Y-101306696D01*
X281226060Y-101388485D01*
X281048353Y-101507225D01*
X280897225Y-101658353D01*
X280778485Y-101836060D01*
X280696696Y-102033517D01*
X280655000Y-102243137D01*
X268035567Y-102243137D01*
X268033000Y-101771750D01*
X267874250Y-101613000D01*
X266675000Y-101613000D01*
X266421000Y-101613000D01*
X265221750Y-101613000D01*
X265063000Y-101771750D01*
X265059928Y-102336000D01*
X246368439Y-102336000D01*
X246457860Y-102168707D01*
X246551351Y-101860508D01*
X246582919Y-101539992D01*
X246551351Y-101219476D01*
X246457860Y-100911277D01*
X246310722Y-100636000D01*
X265059928Y-100636000D01*
X265063000Y-101200250D01*
X265221750Y-101359000D01*
X266421000Y-101359000D01*
X266421000Y-101339000D01*
X266675000Y-101339000D01*
X266675000Y-101359000D01*
X267874250Y-101359000D01*
X268033000Y-101200250D01*
X268036072Y-100636000D01*
X268023812Y-100511518D01*
X267987502Y-100391820D01*
X267928537Y-100281506D01*
X267849185Y-100184815D01*
X267752494Y-100105463D01*
X267642180Y-100046498D01*
X267569620Y-100024487D01*
X267701475Y-99892632D01*
X267863990Y-99649411D01*
X267975932Y-99379158D01*
X268033000Y-99092260D01*
X268033000Y-98799740D01*
X267975932Y-98512842D01*
X267863990Y-98242589D01*
X267701475Y-97999368D01*
X267494632Y-97792525D01*
X267251411Y-97630010D01*
X266981158Y-97518068D01*
X266694260Y-97461000D01*
X266401740Y-97461000D01*
X266114842Y-97518068D01*
X265844589Y-97630010D01*
X265601368Y-97792525D01*
X265394525Y-97999368D01*
X265232010Y-98242589D01*
X265120068Y-98512842D01*
X265063000Y-98799740D01*
X265063000Y-99092260D01*
X265120068Y-99379158D01*
X265232010Y-99649411D01*
X265394525Y-99892632D01*
X265526380Y-100024487D01*
X265453820Y-100046498D01*
X265343506Y-100105463D01*
X265246815Y-100184815D01*
X265167463Y-100281506D01*
X265108498Y-100391820D01*
X265072188Y-100511518D01*
X265059928Y-100636000D01*
X246310722Y-100636000D01*
X246306039Y-100627240D01*
X246101722Y-100378278D01*
X245852760Y-100173961D01*
X245568723Y-100022140D01*
X245260524Y-99928649D01*
X245020330Y-99904992D01*
X244178792Y-99904992D01*
X244375158Y-99865932D01*
X244645411Y-99753990D01*
X244888632Y-99591475D01*
X245095475Y-99384632D01*
X245212000Y-99210240D01*
X245328525Y-99384632D01*
X245535368Y-99591475D01*
X245778589Y-99753990D01*
X246048842Y-99865932D01*
X246335740Y-99923000D01*
X246628260Y-99923000D01*
X246915158Y-99865932D01*
X247185411Y-99753990D01*
X247428632Y-99591475D01*
X247635475Y-99384632D01*
X247752000Y-99210240D01*
X247868525Y-99384632D01*
X248075368Y-99591475D01*
X248318589Y-99753990D01*
X248588842Y-99865932D01*
X248875740Y-99923000D01*
X249168260Y-99923000D01*
X249455158Y-99865932D01*
X249725411Y-99753990D01*
X249968632Y-99591475D01*
X250175475Y-99384632D01*
X250292000Y-99210240D01*
X250408525Y-99384632D01*
X250615368Y-99591475D01*
X250858589Y-99753990D01*
X251128842Y-99865932D01*
X251415740Y-99923000D01*
X251708260Y-99923000D01*
X251995158Y-99865932D01*
X252265411Y-99753990D01*
X252508632Y-99591475D01*
X252715475Y-99384632D01*
X252832000Y-99210240D01*
X252948525Y-99384632D01*
X253155368Y-99591475D01*
X253398589Y-99753990D01*
X253668842Y-99865932D01*
X253955740Y-99923000D01*
X254248260Y-99923000D01*
X254535158Y-99865932D01*
X254805411Y-99753990D01*
X255048632Y-99591475D01*
X255255475Y-99384632D01*
X255372000Y-99210240D01*
X255488525Y-99384632D01*
X255695368Y-99591475D01*
X255938589Y-99753990D01*
X256208842Y-99865932D01*
X256495740Y-99923000D01*
X256788260Y-99923000D01*
X257075158Y-99865932D01*
X257345411Y-99753990D01*
X257588632Y-99591475D01*
X257795475Y-99384632D01*
X257957990Y-99141411D01*
X258069932Y-98871158D01*
X258127000Y-98584260D01*
X258127000Y-98291740D01*
X258069932Y-98004842D01*
X257957990Y-97734589D01*
X257795475Y-97491368D01*
X257588632Y-97284525D01*
X257414240Y-97168000D01*
X257588632Y-97051475D01*
X257795475Y-96844632D01*
X257957990Y-96601411D01*
X258069932Y-96331158D01*
X258127000Y-96044260D01*
X258127000Y-95751740D01*
X258069932Y-95464842D01*
X257957990Y-95194589D01*
X257795475Y-94951368D01*
X257588632Y-94744525D01*
X257345411Y-94582010D01*
X257075158Y-94470068D01*
X256856129Y-94426500D01*
X259852389Y-94426500D01*
X259452907Y-94693425D01*
X259003425Y-95142907D01*
X258650270Y-95671442D01*
X258407012Y-96258719D01*
X258283000Y-96882168D01*
X258283000Y-97517832D01*
X258407012Y-98141281D01*
X258650270Y-98728558D01*
X259003425Y-99257093D01*
X259452907Y-99706575D01*
X259981442Y-100059730D01*
X260568719Y-100302988D01*
X261192168Y-100427000D01*
X261827832Y-100427000D01*
X262451281Y-100302988D01*
X263038558Y-100059730D01*
X263567093Y-99706575D01*
X264016575Y-99257093D01*
X264369730Y-98728558D01*
X264612988Y-98141281D01*
X264737000Y-97517832D01*
X264737000Y-96882168D01*
X264612988Y-96258719D01*
X264369730Y-95671442D01*
X264016575Y-95142907D01*
X263567093Y-94693425D01*
X263167611Y-94426500D01*
X281974155Y-94426500D01*
X282449355Y-94473093D01*
X282871881Y-94600661D01*
X283261581Y-94807868D01*
X283603611Y-95086820D01*
X283884948Y-95426898D01*
X284094870Y-95815139D01*
X284225385Y-96236768D01*
X284275101Y-96709772D01*
X284275100Y-146655546D01*
X284228506Y-147130756D01*
X284100937Y-147553282D01*
X283893731Y-147942980D01*
X283614776Y-148285014D01*
X283274704Y-148566347D01*
X282886456Y-148776272D01*
X282464836Y-148906784D01*
X281991837Y-148956500D01*
X263178087Y-148956500D01*
X263567093Y-148696575D01*
X264016575Y-148247093D01*
X264369730Y-147718558D01*
X264612988Y-147131281D01*
X264737000Y-146507832D01*
X264737000Y-145872168D01*
X264612988Y-145248719D01*
X264369730Y-144661442D01*
X264016575Y-144132907D01*
X263567093Y-143683425D01*
X263038558Y-143330270D01*
X262451281Y-143087012D01*
X261827832Y-142963000D01*
X261192168Y-142963000D01*
X260568719Y-143087012D01*
X259981442Y-143330270D01*
X259452907Y-143683425D01*
X259003425Y-144132907D01*
X258650270Y-144661442D01*
X258407012Y-145248719D01*
X258283000Y-145872168D01*
X258283000Y-146507832D01*
X258407012Y-147131281D01*
X258650270Y-147718558D01*
X259003425Y-148247093D01*
X259452907Y-148696575D01*
X259841913Y-148956500D01*
X205193053Y-148956500D01*
X205567093Y-148706575D01*
X206016575Y-148257093D01*
X206310707Y-147816891D01*
X208718519Y-147816891D01*
X208815843Y-148091252D01*
X208964822Y-148341355D01*
X209159731Y-148557588D01*
X209393080Y-148731641D01*
X209655901Y-148856825D01*
X209803110Y-148901476D01*
X210033000Y-148780155D01*
X210033000Y-147587000D01*
X208839186Y-147587000D01*
X208718519Y-147816891D01*
X206310707Y-147816891D01*
X206369730Y-147728558D01*
X206612988Y-147141281D01*
X206737000Y-146517832D01*
X206737000Y-145882168D01*
X206612988Y-145258719D01*
X206369730Y-144671442D01*
X206016575Y-144142907D01*
X205943668Y-144070000D01*
X208671928Y-144070000D01*
X208671928Y-145770000D01*
X208684188Y-145894482D01*
X208720498Y-146014180D01*
X208779463Y-146124494D01*
X208858815Y-146221185D01*
X208955506Y-146300537D01*
X209065820Y-146359502D01*
X209141626Y-146382498D01*
X208964822Y-146578645D01*
X208815843Y-146828748D01*
X208718519Y-147103109D01*
X208839186Y-147333000D01*
X210033000Y-147333000D01*
X210033000Y-147313000D01*
X210287000Y-147313000D01*
X210287000Y-147333000D01*
X210307000Y-147333000D01*
X210307000Y-147587000D01*
X210287000Y-147587000D01*
X210287000Y-148780155D01*
X210516890Y-148901476D01*
X210664099Y-148856825D01*
X210926920Y-148731641D01*
X211160269Y-148557588D01*
X211355178Y-148341355D01*
X211424805Y-148224466D01*
X211546525Y-148406632D01*
X211753368Y-148613475D01*
X211996589Y-148775990D01*
X212266842Y-148887932D01*
X212553740Y-148945000D01*
X212846260Y-148945000D01*
X213133158Y-148887932D01*
X213403411Y-148775990D01*
X213646632Y-148613475D01*
X213853475Y-148406632D01*
X213975195Y-148224466D01*
X214044822Y-148341355D01*
X214239731Y-148557588D01*
X214473080Y-148731641D01*
X214735901Y-148856825D01*
X214883110Y-148901476D01*
X215113000Y-148780155D01*
X215113000Y-147587000D01*
X215093000Y-147587000D01*
X215093000Y-147333000D01*
X215113000Y-147333000D01*
X215113000Y-147313000D01*
X215367000Y-147313000D01*
X215367000Y-147333000D01*
X215387000Y-147333000D01*
X215387000Y-147587000D01*
X215367000Y-147587000D01*
X215367000Y-148780155D01*
X215596890Y-148901476D01*
X215744099Y-148856825D01*
X216006920Y-148731641D01*
X216240269Y-148557588D01*
X216435178Y-148341355D01*
X216504805Y-148224466D01*
X216626525Y-148406632D01*
X216833368Y-148613475D01*
X217076589Y-148775990D01*
X217346842Y-148887932D01*
X217633740Y-148945000D01*
X217926260Y-148945000D01*
X218213158Y-148887932D01*
X218483411Y-148775990D01*
X218726632Y-148613475D01*
X218933475Y-148406632D01*
X219095990Y-148163411D01*
X219207932Y-147893158D01*
X219265000Y-147606260D01*
X219265000Y-147313740D01*
X219207932Y-147026842D01*
X219095990Y-146756589D01*
X218933475Y-146513368D01*
X218726632Y-146306525D01*
X218550594Y-146188900D01*
X218780269Y-146017588D01*
X218975178Y-145801355D01*
X219124157Y-145551252D01*
X219221481Y-145276891D01*
X219100814Y-145047000D01*
X217907000Y-145047000D01*
X217907000Y-145067000D01*
X217653000Y-145067000D01*
X217653000Y-145047000D01*
X217633000Y-145047000D01*
X217633000Y-144793000D01*
X217653000Y-144793000D01*
X217653000Y-143599845D01*
X217907000Y-143599845D01*
X217907000Y-144793000D01*
X219100814Y-144793000D01*
X219221481Y-144563109D01*
X219124157Y-144288748D01*
X218982620Y-144051137D01*
X225585000Y-144051137D01*
X225585000Y-144264863D01*
X225626696Y-144474483D01*
X225708485Y-144671940D01*
X225827225Y-144849647D01*
X225978353Y-145000775D01*
X226156060Y-145119515D01*
X226353517Y-145201304D01*
X226563137Y-145243000D01*
X226776863Y-145243000D01*
X226986483Y-145201304D01*
X227183940Y-145119515D01*
X227361647Y-145000775D01*
X227512775Y-144849647D01*
X227631515Y-144671940D01*
X227661641Y-144599208D01*
X227680060Y-144611515D01*
X227877517Y-144693304D01*
X228087137Y-144735000D01*
X228300863Y-144735000D01*
X228510483Y-144693304D01*
X228707940Y-144611515D01*
X228885647Y-144492775D01*
X229036775Y-144341647D01*
X229155515Y-144163940D01*
X229202239Y-144051137D01*
X236507000Y-144051137D01*
X236507000Y-144264863D01*
X236548696Y-144474483D01*
X236630485Y-144671940D01*
X236749225Y-144849647D01*
X236900353Y-145000775D01*
X237078060Y-145119515D01*
X237275517Y-145201304D01*
X237485137Y-145243000D01*
X237698863Y-145243000D01*
X237908483Y-145201304D01*
X238105940Y-145119515D01*
X238283647Y-145000775D01*
X238434775Y-144849647D01*
X238553515Y-144671940D01*
X238635304Y-144474483D01*
X238638618Y-144457823D01*
X238755137Y-144481000D01*
X238968863Y-144481000D01*
X239178483Y-144439304D01*
X239375940Y-144357515D01*
X239553647Y-144238775D01*
X239704775Y-144087647D01*
X239823515Y-143909940D01*
X239905304Y-143712483D01*
X239947000Y-143502863D01*
X239947000Y-143289137D01*
X239905304Y-143079517D01*
X239823515Y-142882060D01*
X239704775Y-142704353D01*
X239553647Y-142553225D01*
X239514604Y-142527137D01*
X242603000Y-142527137D01*
X242603000Y-142740863D01*
X242644696Y-142950483D01*
X242726485Y-143147940D01*
X242845225Y-143325647D01*
X242996353Y-143476775D01*
X243174060Y-143595515D01*
X243371517Y-143677304D01*
X243581137Y-143719000D01*
X243794863Y-143719000D01*
X244004483Y-143677304D01*
X244201940Y-143595515D01*
X244379647Y-143476775D01*
X244530775Y-143325647D01*
X244649515Y-143147940D01*
X244731304Y-142950483D01*
X244773000Y-142740863D01*
X244773000Y-142527137D01*
X244889000Y-142527137D01*
X244889000Y-142740863D01*
X244930696Y-142950483D01*
X245012485Y-143147940D01*
X245131225Y-143325647D01*
X245282353Y-143476775D01*
X245460060Y-143595515D01*
X245657517Y-143677304D01*
X245867137Y-143719000D01*
X246080863Y-143719000D01*
X246290483Y-143677304D01*
X246487940Y-143595515D01*
X246665647Y-143476775D01*
X246816775Y-143325647D01*
X246935515Y-143147940D01*
X247017304Y-142950483D01*
X247059000Y-142740863D01*
X247059000Y-142527137D01*
X247017304Y-142317517D01*
X246935515Y-142120060D01*
X246816775Y-141942353D01*
X246665647Y-141791225D01*
X246487940Y-141672485D01*
X246290483Y-141590696D01*
X246080863Y-141549000D01*
X245867137Y-141549000D01*
X245657517Y-141590696D01*
X245460060Y-141672485D01*
X245282353Y-141791225D01*
X245131225Y-141942353D01*
X245012485Y-142120060D01*
X244930696Y-142317517D01*
X244889000Y-142527137D01*
X244773000Y-142527137D01*
X244731304Y-142317517D01*
X244649515Y-142120060D01*
X244530775Y-141942353D01*
X244379647Y-141791225D01*
X244201940Y-141672485D01*
X244004483Y-141590696D01*
X243794863Y-141549000D01*
X243581137Y-141549000D01*
X243371517Y-141590696D01*
X243174060Y-141672485D01*
X242996353Y-141791225D01*
X242845225Y-141942353D01*
X242726485Y-142120060D01*
X242644696Y-142317517D01*
X242603000Y-142527137D01*
X239514604Y-142527137D01*
X239375940Y-142434485D01*
X239178483Y-142352696D01*
X238968863Y-142311000D01*
X238755137Y-142311000D01*
X238545517Y-142352696D01*
X238348060Y-142434485D01*
X238170353Y-142553225D01*
X238019225Y-142704353D01*
X237900485Y-142882060D01*
X237818696Y-143079517D01*
X237815382Y-143096177D01*
X237698863Y-143073000D01*
X237485137Y-143073000D01*
X237275517Y-143114696D01*
X237078060Y-143196485D01*
X236900353Y-143315225D01*
X236749225Y-143466353D01*
X236630485Y-143644060D01*
X236548696Y-143841517D01*
X236507000Y-144051137D01*
X229202239Y-144051137D01*
X229237304Y-143966483D01*
X229279000Y-143756863D01*
X229279000Y-143662640D01*
X229426483Y-143633304D01*
X229623940Y-143551515D01*
X229801647Y-143432775D01*
X229952775Y-143281647D01*
X230071515Y-143103940D01*
X230153304Y-142906483D01*
X230195000Y-142696863D01*
X230195000Y-142483137D01*
X230153304Y-142273517D01*
X230071515Y-142076060D01*
X229952775Y-141898353D01*
X229801647Y-141747225D01*
X229623940Y-141628485D01*
X229426483Y-141546696D01*
X229216863Y-141505000D01*
X229003137Y-141505000D01*
X228793517Y-141546696D01*
X228596060Y-141628485D01*
X228418353Y-141747225D01*
X228267225Y-141898353D01*
X228148485Y-142076060D01*
X228066696Y-142273517D01*
X228025000Y-142483137D01*
X228025000Y-142577360D01*
X227877517Y-142606696D01*
X227680060Y-142688485D01*
X227502353Y-142807225D01*
X227351225Y-142958353D01*
X227232485Y-143136060D01*
X227202359Y-143208792D01*
X227183940Y-143196485D01*
X226986483Y-143114696D01*
X226776863Y-143073000D01*
X226563137Y-143073000D01*
X226353517Y-143114696D01*
X226156060Y-143196485D01*
X225978353Y-143315225D01*
X225827225Y-143466353D01*
X225708485Y-143644060D01*
X225626696Y-143841517D01*
X225585000Y-144051137D01*
X218982620Y-144051137D01*
X218975178Y-144038645D01*
X218780269Y-143822412D01*
X218546920Y-143648359D01*
X218284099Y-143523175D01*
X218136890Y-143478524D01*
X217907000Y-143599845D01*
X217653000Y-143599845D01*
X217423110Y-143478524D01*
X217275901Y-143523175D01*
X217013080Y-143648359D01*
X216779731Y-143822412D01*
X216584822Y-144038645D01*
X216515195Y-144155534D01*
X216393475Y-143973368D01*
X216186632Y-143766525D01*
X215943411Y-143604010D01*
X215673158Y-143492068D01*
X215386260Y-143435000D01*
X215093740Y-143435000D01*
X214806842Y-143492068D01*
X214536589Y-143604010D01*
X214293368Y-143766525D01*
X214086525Y-143973368D01*
X213964805Y-144155534D01*
X213895178Y-144038645D01*
X213700269Y-143822412D01*
X213466920Y-143648359D01*
X213204099Y-143523175D01*
X213056890Y-143478524D01*
X212827000Y-143599845D01*
X212827000Y-144793000D01*
X212847000Y-144793000D01*
X212847000Y-145047000D01*
X212827000Y-145047000D01*
X212827000Y-145067000D01*
X212573000Y-145067000D01*
X212573000Y-145047000D01*
X212553000Y-145047000D01*
X212553000Y-144793000D01*
X212573000Y-144793000D01*
X212573000Y-143599845D01*
X212343110Y-143478524D01*
X212195901Y-143523175D01*
X211933080Y-143648359D01*
X211699731Y-143822412D01*
X211623966Y-143906466D01*
X211599502Y-143825820D01*
X211540537Y-143715506D01*
X211461185Y-143618815D01*
X211364494Y-143539463D01*
X211254180Y-143480498D01*
X211134482Y-143444188D01*
X211010000Y-143431928D01*
X209310000Y-143431928D01*
X209185518Y-143444188D01*
X209065820Y-143480498D01*
X208955506Y-143539463D01*
X208858815Y-143618815D01*
X208779463Y-143715506D01*
X208720498Y-143825820D01*
X208684188Y-143945518D01*
X208671928Y-144070000D01*
X205943668Y-144070000D01*
X205567093Y-143693425D01*
X205038558Y-143340270D01*
X204451281Y-143097012D01*
X203827832Y-142973000D01*
X203192168Y-142973000D01*
X202568719Y-143097012D01*
X201981442Y-143340270D01*
X201452907Y-143693425D01*
X201003425Y-144142907D01*
X200745100Y-144529519D01*
X200745100Y-132500000D01*
X202181928Y-132500000D01*
X202181928Y-135500000D01*
X202194188Y-135624482D01*
X202230498Y-135744180D01*
X202289463Y-135854494D01*
X202368815Y-135951185D01*
X202465506Y-136030537D01*
X202575820Y-136089502D01*
X202695518Y-136125812D01*
X202820000Y-136138072D01*
X204949689Y-136138072D01*
X204142762Y-136945000D01*
X204109721Y-136945000D01*
X203697244Y-137027047D01*
X203308698Y-137187988D01*
X202959017Y-137421637D01*
X202661637Y-137719017D01*
X202427988Y-138068698D01*
X202267047Y-138457244D01*
X202185000Y-138869721D01*
X202185000Y-139290279D01*
X202267047Y-139702756D01*
X202427988Y-140091302D01*
X202661637Y-140440983D01*
X202959017Y-140738363D01*
X203308698Y-140972012D01*
X203697244Y-141132953D01*
X204109721Y-141215000D01*
X204530279Y-141215000D01*
X204942756Y-141132953D01*
X205331302Y-140972012D01*
X205680983Y-140738363D01*
X205978363Y-140440983D01*
X206212012Y-140091302D01*
X206372953Y-139702756D01*
X206455000Y-139290279D01*
X206455000Y-139257238D01*
X207267239Y-138445000D01*
X214740432Y-138445000D01*
X214701696Y-138538517D01*
X214660000Y-138748137D01*
X214660000Y-138961863D01*
X214701696Y-139171483D01*
X214783485Y-139368940D01*
X214902225Y-139546647D01*
X215003998Y-139648420D01*
X214871060Y-139703485D01*
X214693353Y-139822225D01*
X214542225Y-139973353D01*
X214423485Y-140151060D01*
X214341696Y-140348517D01*
X214300000Y-140558137D01*
X214300000Y-140771863D01*
X214341696Y-140981483D01*
X214423485Y-141178940D01*
X214542225Y-141356647D01*
X214693353Y-141507775D01*
X214871060Y-141626515D01*
X215068517Y-141708304D01*
X215278137Y-141750000D01*
X215491863Y-141750000D01*
X215701483Y-141708304D01*
X215898940Y-141626515D01*
X216076647Y-141507775D01*
X216227775Y-141356647D01*
X216346515Y-141178940D01*
X216428304Y-140981483D01*
X216470000Y-140771863D01*
X216470000Y-140558137D01*
X216469006Y-140553137D01*
X217175000Y-140553137D01*
X217175000Y-140766863D01*
X217216696Y-140976483D01*
X217298485Y-141173940D01*
X217417225Y-141351647D01*
X217568353Y-141502775D01*
X217746060Y-141621515D01*
X217943517Y-141703304D01*
X218153137Y-141745000D01*
X218366863Y-141745000D01*
X218576483Y-141703304D01*
X218773940Y-141621515D01*
X218951647Y-141502775D01*
X219102775Y-141351647D01*
X219128506Y-141313137D01*
X225635000Y-141313137D01*
X225635000Y-141526863D01*
X225676696Y-141736483D01*
X225758485Y-141933940D01*
X225877225Y-142111647D01*
X226028353Y-142262775D01*
X226206060Y-142381515D01*
X226403517Y-142463304D01*
X226613137Y-142505000D01*
X226826863Y-142505000D01*
X227036483Y-142463304D01*
X227233940Y-142381515D01*
X227411647Y-142262775D01*
X227562775Y-142111647D01*
X227681515Y-141933940D01*
X227763304Y-141736483D01*
X227805000Y-141526863D01*
X227805000Y-141313137D01*
X227763304Y-141103517D01*
X227681515Y-140906060D01*
X227562775Y-140728353D01*
X227411647Y-140577225D01*
X227233940Y-140458485D01*
X227036483Y-140376696D01*
X226826863Y-140335000D01*
X226613137Y-140335000D01*
X226403517Y-140376696D01*
X226206060Y-140458485D01*
X226028353Y-140577225D01*
X225877225Y-140728353D01*
X225758485Y-140906060D01*
X225676696Y-141103517D01*
X225635000Y-141313137D01*
X219128506Y-141313137D01*
X219221515Y-141173940D01*
X219303304Y-140976483D01*
X219345000Y-140766863D01*
X219345000Y-140553137D01*
X219303304Y-140343517D01*
X219221515Y-140146060D01*
X219166108Y-140063137D01*
X229795000Y-140063137D01*
X229795000Y-140276863D01*
X229836696Y-140486483D01*
X229918485Y-140683940D01*
X230037225Y-140861647D01*
X230188353Y-141012775D01*
X230366060Y-141131515D01*
X230563517Y-141213304D01*
X230773137Y-141255000D01*
X230986863Y-141255000D01*
X231196483Y-141213304D01*
X231393940Y-141131515D01*
X231571647Y-141012775D01*
X231722775Y-140861647D01*
X231841515Y-140683940D01*
X231923304Y-140486483D01*
X231965000Y-140276863D01*
X231965000Y-140063137D01*
X231923304Y-139853517D01*
X231841515Y-139656060D01*
X231722775Y-139478353D01*
X231571647Y-139327225D01*
X231393940Y-139208485D01*
X231196483Y-139126696D01*
X230986863Y-139085000D01*
X230773137Y-139085000D01*
X230563517Y-139126696D01*
X230366060Y-139208485D01*
X230188353Y-139327225D01*
X230037225Y-139478353D01*
X229918485Y-139656060D01*
X229836696Y-139853517D01*
X229795000Y-140063137D01*
X219166108Y-140063137D01*
X219102775Y-139968353D01*
X218951647Y-139817225D01*
X218773940Y-139698485D01*
X218576483Y-139616696D01*
X218366863Y-139575000D01*
X218153137Y-139575000D01*
X217943517Y-139616696D01*
X217746060Y-139698485D01*
X217568353Y-139817225D01*
X217417225Y-139968353D01*
X217298485Y-140146060D01*
X217216696Y-140343517D01*
X217175000Y-140553137D01*
X216469006Y-140553137D01*
X216428304Y-140348517D01*
X216346515Y-140151060D01*
X216227775Y-139973353D01*
X216126002Y-139871580D01*
X216258940Y-139816515D01*
X216436647Y-139697775D01*
X216587775Y-139546647D01*
X216706515Y-139368940D01*
X216788304Y-139171483D01*
X216830000Y-138961863D01*
X216830000Y-138748137D01*
X216788304Y-138538517D01*
X216749568Y-138445000D01*
X243632761Y-138445000D01*
X245100676Y-139912916D01*
X245287247Y-140066030D01*
X245571285Y-140217852D01*
X245879483Y-140311343D01*
X246200000Y-140342911D01*
X246520516Y-140311343D01*
X246828715Y-140217852D01*
X247112752Y-140066030D01*
X247361713Y-139861713D01*
X247566030Y-139612752D01*
X247717852Y-139328715D01*
X247811343Y-139020516D01*
X247842911Y-138700000D01*
X247811343Y-138379483D01*
X247717852Y-138071285D01*
X247566030Y-137787247D01*
X247510843Y-137720000D01*
X248041928Y-137720000D01*
X248041928Y-139420000D01*
X248054188Y-139544482D01*
X248090498Y-139664180D01*
X248149463Y-139774494D01*
X248228815Y-139871185D01*
X248325506Y-139950537D01*
X248435820Y-140009502D01*
X248508380Y-140031513D01*
X248376525Y-140163368D01*
X248214010Y-140406589D01*
X248102068Y-140676842D01*
X248045000Y-140963740D01*
X248045000Y-141256260D01*
X248102068Y-141543158D01*
X248214010Y-141813411D01*
X248376525Y-142056632D01*
X248583368Y-142263475D01*
X248826589Y-142425990D01*
X248865905Y-142442275D01*
X248706060Y-142508485D01*
X248528353Y-142627225D01*
X248377225Y-142778353D01*
X248258485Y-142956060D01*
X248176696Y-143153517D01*
X248135000Y-143363137D01*
X248135000Y-143576863D01*
X248176696Y-143786483D01*
X248258485Y-143983940D01*
X248377225Y-144161647D01*
X248528353Y-144312775D01*
X248706060Y-144431515D01*
X248903517Y-144513304D01*
X249113137Y-144555000D01*
X249326863Y-144555000D01*
X249536483Y-144513304D01*
X249733940Y-144431515D01*
X249911647Y-144312775D01*
X250062775Y-144161647D01*
X250181515Y-143983940D01*
X250263304Y-143786483D01*
X250305000Y-143576863D01*
X250305000Y-143363137D01*
X250263304Y-143153517D01*
X250181515Y-142956060D01*
X250062775Y-142778353D01*
X249911647Y-142627225D01*
X249820484Y-142566312D01*
X249963158Y-142537932D01*
X250233411Y-142425990D01*
X250476632Y-142263475D01*
X250683475Y-142056632D01*
X250800000Y-141882240D01*
X250916525Y-142056632D01*
X251123368Y-142263475D01*
X251366589Y-142425990D01*
X251636842Y-142537932D01*
X251923740Y-142595000D01*
X252216260Y-142595000D01*
X252503158Y-142537932D01*
X252773411Y-142425990D01*
X253016632Y-142263475D01*
X253223475Y-142056632D01*
X253385990Y-141813411D01*
X253497932Y-141543158D01*
X253555000Y-141256260D01*
X253555000Y-140963740D01*
X253497932Y-140676842D01*
X253385990Y-140406589D01*
X253223475Y-140163368D01*
X253091620Y-140031513D01*
X253164180Y-140009502D01*
X253274494Y-139950537D01*
X253371185Y-139871185D01*
X253450537Y-139774494D01*
X253509502Y-139664180D01*
X253545812Y-139544482D01*
X253558072Y-139420000D01*
X253558072Y-137720000D01*
X253545812Y-137595518D01*
X253509502Y-137475820D01*
X253450537Y-137365506D01*
X253371185Y-137268815D01*
X253274494Y-137189463D01*
X253164180Y-137130498D01*
X253044482Y-137094188D01*
X252920000Y-137081928D01*
X251220000Y-137081928D01*
X251095518Y-137094188D01*
X250975820Y-137130498D01*
X250865506Y-137189463D01*
X250800000Y-137243222D01*
X250734494Y-137189463D01*
X250624180Y-137130498D01*
X250504482Y-137094188D01*
X250380000Y-137081928D01*
X248680000Y-137081928D01*
X248555518Y-137094188D01*
X248435820Y-137130498D01*
X248325506Y-137189463D01*
X248228815Y-137268815D01*
X248149463Y-137365506D01*
X248090498Y-137475820D01*
X248054188Y-137595518D01*
X248041928Y-137720000D01*
X247510843Y-137720000D01*
X247412916Y-137600676D01*
X245522924Y-135710686D01*
X245471714Y-135648286D01*
X245222752Y-135443969D01*
X244938715Y-135292148D01*
X244630516Y-135198657D01*
X244390322Y-135175000D01*
X244390319Y-135175000D01*
X244310000Y-135167089D01*
X244229681Y-135175000D01*
X206670322Y-135175000D01*
X206590000Y-135167089D01*
X206458072Y-135180083D01*
X206458072Y-134554992D01*
X243850330Y-134554992D01*
X244090524Y-134531335D01*
X244172476Y-134506475D01*
X274881000Y-134506475D01*
X274881000Y-135025525D01*
X274982261Y-135534601D01*
X275180893Y-136014141D01*
X275469262Y-136445715D01*
X275836285Y-136812738D01*
X276267859Y-137101107D01*
X276747399Y-137299739D01*
X277256475Y-137401000D01*
X277775525Y-137401000D01*
X278284601Y-137299739D01*
X278764141Y-137101107D01*
X279195715Y-136812738D01*
X279562738Y-136445715D01*
X279851107Y-136014141D01*
X280049739Y-135534601D01*
X280151000Y-135025525D01*
X280151000Y-134506475D01*
X280049739Y-133997399D01*
X279851107Y-133517859D01*
X279562738Y-133086285D01*
X279195715Y-132719262D01*
X278764141Y-132430893D01*
X278284601Y-132232261D01*
X277775525Y-132131000D01*
X277256475Y-132131000D01*
X276747399Y-132232261D01*
X276267859Y-132430893D01*
X275836285Y-132719262D01*
X275469262Y-133086285D01*
X275180893Y-133517859D01*
X274982261Y-133997399D01*
X274881000Y-134506475D01*
X244172476Y-134506475D01*
X244398723Y-134437844D01*
X244682760Y-134286023D01*
X244931722Y-134081706D01*
X245136039Y-133832744D01*
X245287860Y-133548707D01*
X245381351Y-133240508D01*
X245412919Y-132919992D01*
X245381351Y-132599476D01*
X245287860Y-132291277D01*
X245136039Y-132007240D01*
X244931722Y-131758278D01*
X244682760Y-131553961D01*
X244398723Y-131402140D01*
X244090524Y-131308649D01*
X243850330Y-131284992D01*
X205480327Y-131284992D01*
X205400008Y-131277081D01*
X205319688Y-131284992D01*
X205319686Y-131284992D01*
X205079492Y-131308649D01*
X204771293Y-131402140D01*
X204487256Y-131553961D01*
X204238294Y-131758278D01*
X204187083Y-131820679D01*
X204145834Y-131861928D01*
X202820000Y-131861928D01*
X202695518Y-131874188D01*
X202575820Y-131910498D01*
X202465506Y-131969463D01*
X202368815Y-132048815D01*
X202289463Y-132145506D01*
X202230498Y-132255820D01*
X202194188Y-132375518D01*
X202181928Y-132500000D01*
X200745100Y-132500000D01*
X200745100Y-128707721D01*
X202183000Y-128707721D01*
X202183000Y-129128279D01*
X202265047Y-129540756D01*
X202425988Y-129929302D01*
X202659637Y-130278983D01*
X202957017Y-130576363D01*
X203306698Y-130810012D01*
X203695244Y-130970953D01*
X204107721Y-131053000D01*
X204528279Y-131053000D01*
X204940756Y-130970953D01*
X205329302Y-130810012D01*
X205678983Y-130576363D01*
X205702346Y-130553000D01*
X244871681Y-130553000D01*
X244952000Y-130560911D01*
X245032319Y-130553000D01*
X245032322Y-130553000D01*
X245272516Y-130529343D01*
X245580715Y-130435852D01*
X245864752Y-130284031D01*
X246113714Y-130079714D01*
X246164924Y-130017314D01*
X247184327Y-128997912D01*
X247246713Y-128946713D01*
X247297911Y-128884328D01*
X247297915Y-128884324D01*
X247451030Y-128697753D01*
X247602852Y-128413715D01*
X247696342Y-128105517D01*
X247727911Y-127785000D01*
X247719390Y-127698485D01*
X247696342Y-127464483D01*
X247604741Y-127162514D01*
X247602852Y-127156286D01*
X247574250Y-127102775D01*
X247451030Y-126872247D01*
X247297915Y-126685676D01*
X247297911Y-126685672D01*
X247246713Y-126623287D01*
X247184327Y-126572089D01*
X246902238Y-126290000D01*
X248041928Y-126290000D01*
X248041928Y-127990000D01*
X248054188Y-128114482D01*
X248090498Y-128234180D01*
X248149463Y-128344494D01*
X248228815Y-128441185D01*
X248325506Y-128520537D01*
X248435820Y-128579502D01*
X248508380Y-128601513D01*
X248376525Y-128733368D01*
X248214010Y-128976589D01*
X248102068Y-129246842D01*
X248045000Y-129533740D01*
X248045000Y-129826260D01*
X248102068Y-130113158D01*
X248214010Y-130383411D01*
X248376525Y-130626632D01*
X248583368Y-130833475D01*
X248826589Y-130995990D01*
X249096842Y-131107932D01*
X249383740Y-131165000D01*
X249676260Y-131165000D01*
X249963158Y-131107932D01*
X250233411Y-130995990D01*
X250476632Y-130833475D01*
X250683475Y-130626632D01*
X250800000Y-130452240D01*
X250916525Y-130626632D01*
X251123368Y-130833475D01*
X251366589Y-130995990D01*
X251636842Y-131107932D01*
X251923740Y-131165000D01*
X252216260Y-131165000D01*
X252503158Y-131107932D01*
X252773411Y-130995990D01*
X253016632Y-130833475D01*
X253223475Y-130626632D01*
X253385990Y-130383411D01*
X253497932Y-130113158D01*
X253555000Y-129826260D01*
X253555000Y-129533740D01*
X253497932Y-129246842D01*
X253385990Y-128976589D01*
X253223475Y-128733368D01*
X253091620Y-128601513D01*
X253164180Y-128579502D01*
X253213504Y-128553137D01*
X270165000Y-128553137D01*
X270165000Y-128766863D01*
X270206696Y-128976483D01*
X270288485Y-129173940D01*
X270407225Y-129351647D01*
X270558353Y-129502775D01*
X270736060Y-129621515D01*
X270933517Y-129703304D01*
X271143137Y-129745000D01*
X271356863Y-129745000D01*
X271566483Y-129703304D01*
X271763940Y-129621515D01*
X271941647Y-129502775D01*
X272092775Y-129351647D01*
X272211515Y-129173940D01*
X272293304Y-128976483D01*
X272328666Y-128798702D01*
X276402903Y-128798702D01*
X276474486Y-129042671D01*
X276729996Y-129163571D01*
X277004184Y-129232300D01*
X277286512Y-129246217D01*
X277566130Y-129204787D01*
X277832292Y-129109603D01*
X277957514Y-129042671D01*
X278029097Y-128798702D01*
X277216000Y-127985605D01*
X276402903Y-128798702D01*
X272328666Y-128798702D01*
X272335000Y-128766863D01*
X272335000Y-128553137D01*
X272293304Y-128343517D01*
X272211515Y-128146060D01*
X272092775Y-127968353D01*
X272000934Y-127876512D01*
X275775783Y-127876512D01*
X275817213Y-128156130D01*
X275912397Y-128422292D01*
X275979329Y-128547514D01*
X276223298Y-128619097D01*
X277036395Y-127806000D01*
X277395605Y-127806000D01*
X278208702Y-128619097D01*
X278452671Y-128547514D01*
X278573571Y-128292004D01*
X278642300Y-128017816D01*
X278656217Y-127735488D01*
X278614787Y-127455870D01*
X278599708Y-127413702D01*
X279242903Y-127413702D01*
X279314486Y-127657671D01*
X279569996Y-127778571D01*
X279844184Y-127847300D01*
X280126512Y-127861217D01*
X280406130Y-127819787D01*
X280672292Y-127724603D01*
X280797514Y-127657671D01*
X280869097Y-127413702D01*
X280056000Y-126600605D01*
X279242903Y-127413702D01*
X278599708Y-127413702D01*
X278519603Y-127189708D01*
X278452671Y-127064486D01*
X278208702Y-126992903D01*
X277395605Y-127806000D01*
X277036395Y-127806000D01*
X276223298Y-126992903D01*
X275979329Y-127064486D01*
X275858429Y-127319996D01*
X275789700Y-127594184D01*
X275775783Y-127876512D01*
X272000934Y-127876512D01*
X271941647Y-127817225D01*
X271763940Y-127698485D01*
X271566483Y-127616696D01*
X271356863Y-127575000D01*
X271143137Y-127575000D01*
X270933517Y-127616696D01*
X270736060Y-127698485D01*
X270558353Y-127817225D01*
X270407225Y-127968353D01*
X270288485Y-128146060D01*
X270206696Y-128343517D01*
X270165000Y-128553137D01*
X253213504Y-128553137D01*
X253274494Y-128520537D01*
X253371185Y-128441185D01*
X253450537Y-128344494D01*
X253509502Y-128234180D01*
X253545812Y-128114482D01*
X253558072Y-127990000D01*
X253558072Y-126953137D01*
X266035000Y-126953137D01*
X266035000Y-127166863D01*
X266076696Y-127376483D01*
X266158485Y-127573940D01*
X266277225Y-127751647D01*
X266428353Y-127902775D01*
X266606060Y-128021515D01*
X266803517Y-128103304D01*
X267013137Y-128145000D01*
X267226863Y-128145000D01*
X267436483Y-128103304D01*
X267633940Y-128021515D01*
X267811647Y-127902775D01*
X267962775Y-127751647D01*
X268081515Y-127573940D01*
X268163304Y-127376483D01*
X268205000Y-127166863D01*
X268205000Y-126953137D01*
X268163304Y-126743517D01*
X268081515Y-126546060D01*
X267962775Y-126368353D01*
X267811647Y-126217225D01*
X267633940Y-126098485D01*
X267436483Y-126016696D01*
X267226863Y-125975000D01*
X267013137Y-125975000D01*
X266803517Y-126016696D01*
X266606060Y-126098485D01*
X266428353Y-126217225D01*
X266277225Y-126368353D01*
X266158485Y-126546060D01*
X266076696Y-126743517D01*
X266035000Y-126953137D01*
X253558072Y-126953137D01*
X253558072Y-126290000D01*
X253545812Y-126165518D01*
X253509502Y-126045820D01*
X253450537Y-125935506D01*
X253371185Y-125838815D01*
X253274494Y-125759463D01*
X253164180Y-125700498D01*
X253044482Y-125664188D01*
X252920000Y-125651928D01*
X251220000Y-125651928D01*
X251095518Y-125664188D01*
X250975820Y-125700498D01*
X250865506Y-125759463D01*
X250800000Y-125813222D01*
X250734494Y-125759463D01*
X250624180Y-125700498D01*
X250504482Y-125664188D01*
X250380000Y-125651928D01*
X248680000Y-125651928D01*
X248555518Y-125664188D01*
X248435820Y-125700498D01*
X248325506Y-125759463D01*
X248228815Y-125838815D01*
X248149463Y-125935506D01*
X248090498Y-126045820D01*
X248054188Y-126165518D01*
X248041928Y-126290000D01*
X246902238Y-126290000D01*
X245169323Y-124557085D01*
X244982752Y-124403970D01*
X244698714Y-124252148D01*
X244390516Y-124158658D01*
X244070000Y-124127089D01*
X243749484Y-124158658D01*
X243441286Y-124252148D01*
X243157248Y-124403970D01*
X242908287Y-124608287D01*
X242703970Y-124857248D01*
X242552148Y-125141286D01*
X242458658Y-125449484D01*
X242427089Y-125770000D01*
X242458658Y-126090516D01*
X242552148Y-126398714D01*
X242703970Y-126682752D01*
X242857085Y-126869323D01*
X243270762Y-127283000D01*
X230170899Y-127283000D01*
X230223304Y-127156483D01*
X230265000Y-126946863D01*
X230265000Y-126733137D01*
X230223304Y-126523517D01*
X230141515Y-126326060D01*
X230022775Y-126148353D01*
X229871647Y-125997225D01*
X229693940Y-125878485D01*
X229496483Y-125796696D01*
X229286863Y-125755000D01*
X229073137Y-125755000D01*
X228863517Y-125796696D01*
X228666060Y-125878485D01*
X228488353Y-125997225D01*
X228337225Y-126148353D01*
X228218485Y-126326060D01*
X228136696Y-126523517D01*
X228095000Y-126733137D01*
X228095000Y-126946863D01*
X228136696Y-127156483D01*
X228189101Y-127283000D01*
X225445501Y-127283000D01*
X225593940Y-127221515D01*
X225771647Y-127102775D01*
X225922775Y-126951647D01*
X226041515Y-126773940D01*
X226123304Y-126576483D01*
X226165000Y-126366863D01*
X226165000Y-126153137D01*
X226123304Y-125943517D01*
X226041515Y-125746060D01*
X225922775Y-125568353D01*
X225771647Y-125417225D01*
X225593940Y-125298485D01*
X225396483Y-125216696D01*
X225186863Y-125175000D01*
X224973137Y-125175000D01*
X224763517Y-125216696D01*
X224566060Y-125298485D01*
X224388353Y-125417225D01*
X224237225Y-125568353D01*
X224118485Y-125746060D01*
X224036696Y-125943517D01*
X223995000Y-126153137D01*
X223995000Y-126366863D01*
X224036696Y-126576483D01*
X224118485Y-126773940D01*
X224237225Y-126951647D01*
X224388353Y-127102775D01*
X224566060Y-127221515D01*
X224714499Y-127283000D01*
X216483983Y-127283000D01*
X216522500Y-127089363D01*
X216522500Y-126875637D01*
X216480804Y-126666017D01*
X216399015Y-126468560D01*
X216280275Y-126290853D01*
X216129147Y-126139725D01*
X215951440Y-126020985D01*
X215753983Y-125939196D01*
X215544363Y-125897500D01*
X215330637Y-125897500D01*
X215121017Y-125939196D01*
X214923560Y-126020985D01*
X214745853Y-126139725D01*
X214594725Y-126290853D01*
X214475985Y-126468560D01*
X214394196Y-126666017D01*
X214352500Y-126875637D01*
X214352500Y-127089363D01*
X214391017Y-127283000D01*
X205702346Y-127283000D01*
X205678983Y-127259637D01*
X205329302Y-127025988D01*
X204940756Y-126865047D01*
X204528279Y-126783000D01*
X204107721Y-126783000D01*
X203695244Y-126865047D01*
X203306698Y-127025988D01*
X202957017Y-127259637D01*
X202659637Y-127557017D01*
X202425988Y-127906698D01*
X202265047Y-128295244D01*
X202183000Y-128707721D01*
X200745100Y-128707721D01*
X200745100Y-122338000D01*
X202179928Y-122338000D01*
X202179928Y-125338000D01*
X202192188Y-125462482D01*
X202228498Y-125582180D01*
X202287463Y-125692494D01*
X202366815Y-125789185D01*
X202463506Y-125868537D01*
X202573820Y-125927502D01*
X202693518Y-125963812D01*
X202818000Y-125976072D01*
X205818000Y-125976072D01*
X205942482Y-125963812D01*
X206062180Y-125927502D01*
X206172494Y-125868537D01*
X206269185Y-125789185D01*
X206348537Y-125692494D01*
X206407502Y-125582180D01*
X206443812Y-125462482D01*
X206456072Y-125338000D01*
X206456072Y-124012167D01*
X206613247Y-123854992D01*
X212730544Y-123854992D01*
X212715000Y-123933137D01*
X212715000Y-124146863D01*
X212756696Y-124356483D01*
X212838485Y-124553940D01*
X212957225Y-124731647D01*
X213108353Y-124882775D01*
X213286060Y-125001515D01*
X213483517Y-125083304D01*
X213693137Y-125125000D01*
X213906863Y-125125000D01*
X214116483Y-125083304D01*
X214313940Y-125001515D01*
X214491647Y-124882775D01*
X214642775Y-124731647D01*
X214761515Y-124553940D01*
X214843304Y-124356483D01*
X214885000Y-124146863D01*
X214885000Y-123933137D01*
X214869456Y-123854992D01*
X215050544Y-123854992D01*
X215035000Y-123933137D01*
X215035000Y-124146863D01*
X215076696Y-124356483D01*
X215158485Y-124553940D01*
X215277225Y-124731647D01*
X215428353Y-124882775D01*
X215606060Y-125001515D01*
X215803517Y-125083304D01*
X216013137Y-125125000D01*
X216226863Y-125125000D01*
X216436483Y-125083304D01*
X216633940Y-125001515D01*
X216796139Y-124893137D01*
X217375000Y-124893137D01*
X217375000Y-125106863D01*
X217416696Y-125316483D01*
X217498485Y-125513940D01*
X217617225Y-125691647D01*
X217768353Y-125842775D01*
X217946060Y-125961515D01*
X218143517Y-126043304D01*
X218353137Y-126085000D01*
X218566863Y-126085000D01*
X218776483Y-126043304D01*
X218973940Y-125961515D01*
X219151647Y-125842775D01*
X219302775Y-125691647D01*
X219421515Y-125513940D01*
X219503304Y-125316483D01*
X219545000Y-125106863D01*
X219545000Y-124893137D01*
X219503304Y-124683517D01*
X219421515Y-124486060D01*
X219302775Y-124308353D01*
X219151647Y-124157225D01*
X218973940Y-124038485D01*
X218776483Y-123956696D01*
X218566863Y-123915000D01*
X218353137Y-123915000D01*
X218143517Y-123956696D01*
X217946060Y-124038485D01*
X217768353Y-124157225D01*
X217617225Y-124308353D01*
X217498485Y-124486060D01*
X217416696Y-124683517D01*
X217375000Y-124893137D01*
X216796139Y-124893137D01*
X216811647Y-124882775D01*
X216962775Y-124731647D01*
X217081515Y-124553940D01*
X217163304Y-124356483D01*
X217205000Y-124146863D01*
X217205000Y-123933137D01*
X217189456Y-123854992D01*
X223096511Y-123854992D01*
X223075000Y-123963137D01*
X223075000Y-124176863D01*
X223116696Y-124386483D01*
X223198485Y-124583940D01*
X223317225Y-124761647D01*
X223468353Y-124912775D01*
X223646060Y-125031515D01*
X223843517Y-125113304D01*
X224053137Y-125155000D01*
X224266863Y-125155000D01*
X224476483Y-125113304D01*
X224673940Y-125031515D01*
X224851647Y-124912775D01*
X225002775Y-124761647D01*
X225121515Y-124583940D01*
X225203304Y-124386483D01*
X225245000Y-124176863D01*
X225245000Y-123963137D01*
X225223489Y-123854992D01*
X243980330Y-123854992D01*
X244220524Y-123831335D01*
X244528723Y-123737844D01*
X244812760Y-123586023D01*
X245061722Y-123381706D01*
X245266039Y-123132744D01*
X245417860Y-122848707D01*
X245511351Y-122540508D01*
X245542919Y-122219992D01*
X245511351Y-121899476D01*
X245417860Y-121591277D01*
X245266039Y-121307240D01*
X245061722Y-121058278D01*
X244812760Y-120853961D01*
X244528723Y-120702140D01*
X244220524Y-120608649D01*
X243980330Y-120584992D01*
X216528233Y-120584992D01*
X216564015Y-120531440D01*
X216645804Y-120333983D01*
X216665863Y-120233137D01*
X245425000Y-120233137D01*
X245425000Y-120446863D01*
X245466696Y-120656483D01*
X245548485Y-120853940D01*
X245667225Y-121031647D01*
X245818353Y-121182775D01*
X245996060Y-121301515D01*
X246193517Y-121383304D01*
X246403137Y-121425000D01*
X246616863Y-121425000D01*
X246826483Y-121383304D01*
X247023940Y-121301515D01*
X247201647Y-121182775D01*
X247352775Y-121031647D01*
X247471515Y-120853940D01*
X247553304Y-120656483D01*
X247595000Y-120446863D01*
X247595000Y-120233137D01*
X247553304Y-120023517D01*
X247471515Y-119826060D01*
X247352775Y-119648353D01*
X247201647Y-119497225D01*
X247023940Y-119378485D01*
X246826483Y-119296696D01*
X246616863Y-119255000D01*
X246403137Y-119255000D01*
X246193517Y-119296696D01*
X245996060Y-119378485D01*
X245818353Y-119497225D01*
X245667225Y-119648353D01*
X245548485Y-119826060D01*
X245466696Y-120023517D01*
X245425000Y-120233137D01*
X216665863Y-120233137D01*
X216687500Y-120124363D01*
X216687500Y-119910637D01*
X216645804Y-119701017D01*
X216564015Y-119503560D01*
X216445275Y-119325853D01*
X216294147Y-119174725D01*
X216116440Y-119055985D01*
X215918983Y-118974196D01*
X215813113Y-118953137D01*
X217625000Y-118953137D01*
X217625000Y-119166863D01*
X217666696Y-119376483D01*
X217748485Y-119573940D01*
X217867225Y-119751647D01*
X218018353Y-119902775D01*
X218196060Y-120021515D01*
X218393517Y-120103304D01*
X218603137Y-120145000D01*
X218816863Y-120145000D01*
X219026483Y-120103304D01*
X219223940Y-120021515D01*
X219401647Y-119902775D01*
X219552775Y-119751647D01*
X219671515Y-119573940D01*
X219753304Y-119376483D01*
X219795000Y-119166863D01*
X219795000Y-118953137D01*
X219753304Y-118743517D01*
X219671515Y-118546060D01*
X219552775Y-118368353D01*
X219401647Y-118217225D01*
X219223940Y-118098485D01*
X219026483Y-118016696D01*
X218816863Y-117975000D01*
X218603137Y-117975000D01*
X218393517Y-118016696D01*
X218196060Y-118098485D01*
X218018353Y-118217225D01*
X217867225Y-118368353D01*
X217748485Y-118546060D01*
X217666696Y-118743517D01*
X217625000Y-118953137D01*
X215813113Y-118953137D01*
X215709363Y-118932500D01*
X215495637Y-118932500D01*
X215286017Y-118974196D01*
X215088560Y-119055985D01*
X214910853Y-119174725D01*
X214759725Y-119325853D01*
X214640985Y-119503560D01*
X214559196Y-119701017D01*
X214517500Y-119910637D01*
X214517500Y-120124363D01*
X214559196Y-120333983D01*
X214640985Y-120531440D01*
X214676767Y-120584992D01*
X213564130Y-120584992D01*
X213571515Y-120573940D01*
X213653304Y-120376483D01*
X213695000Y-120166863D01*
X213695000Y-119953137D01*
X213653304Y-119743517D01*
X213571515Y-119546060D01*
X213452775Y-119368353D01*
X213301647Y-119217225D01*
X213123940Y-119098485D01*
X212926483Y-119016696D01*
X212716863Y-118975000D01*
X212503137Y-118975000D01*
X212293517Y-119016696D01*
X212096060Y-119098485D01*
X211918353Y-119217225D01*
X211767225Y-119368353D01*
X211648485Y-119546060D01*
X211566696Y-119743517D01*
X211525000Y-119953137D01*
X211525000Y-120166863D01*
X211566696Y-120376483D01*
X211648485Y-120573940D01*
X211655870Y-120584992D01*
X206016330Y-120584992D01*
X205936008Y-120577081D01*
X205615491Y-120608649D01*
X205472543Y-120652012D01*
X205307293Y-120702140D01*
X205023256Y-120853961D01*
X204774294Y-121058278D01*
X204723087Y-121120674D01*
X204143833Y-121699928D01*
X202818000Y-121699928D01*
X202693518Y-121712188D01*
X202573820Y-121748498D01*
X202463506Y-121807463D01*
X202366815Y-121886815D01*
X202287463Y-121983506D01*
X202228498Y-122093820D01*
X202192188Y-122213518D01*
X202179928Y-122338000D01*
X200745100Y-122338000D01*
X200745100Y-98870481D01*
X201003425Y-99257093D01*
X201452907Y-99706575D01*
X201981442Y-100059730D01*
X202568719Y-100302988D01*
X203192168Y-100427000D01*
X203827832Y-100427000D01*
X204451281Y-100302988D01*
X205038558Y-100059730D01*
X205567093Y-99706575D01*
X206016575Y-99257093D01*
X206369730Y-98728558D01*
X206612988Y-98141281D01*
X206737000Y-97517832D01*
X206737000Y-96882168D01*
X206612988Y-96258719D01*
X206369730Y-95671442D01*
X206016575Y-95142907D01*
X205567093Y-94693425D01*
X205167611Y-94426500D01*
X208167871Y-94426500D01*
X207948842Y-94470068D01*
G04 #@! TA.AperFunction,Conductor*
D22*
G36*
X207948842Y-94470068D02*
G01*
X207678589Y-94582010D01*
X207435368Y-94744525D01*
X207228525Y-94951368D01*
X207066010Y-95194589D01*
X206954068Y-95464842D01*
X206897000Y-95751740D01*
X206897000Y-96044260D01*
X206954068Y-96331158D01*
X207066010Y-96601411D01*
X207228525Y-96844632D01*
X207360380Y-96976487D01*
X207287820Y-96998498D01*
X207177506Y-97057463D01*
X207080815Y-97136815D01*
X207001463Y-97233506D01*
X206942498Y-97343820D01*
X206906188Y-97463518D01*
X206893928Y-97588000D01*
X206893928Y-99288000D01*
X206906188Y-99412482D01*
X206942498Y-99532180D01*
X207001463Y-99642494D01*
X207080815Y-99739185D01*
X207177506Y-99818537D01*
X207287820Y-99877502D01*
X207407518Y-99913812D01*
X207532000Y-99926072D01*
X209232000Y-99926072D01*
X209356482Y-99913812D01*
X209476180Y-99877502D01*
X209586494Y-99818537D01*
X209683185Y-99739185D01*
X209762537Y-99642494D01*
X209821502Y-99532180D01*
X209843513Y-99459620D01*
X209975368Y-99591475D01*
X210218589Y-99753990D01*
X210488842Y-99865932D01*
X210775740Y-99923000D01*
X211068260Y-99923000D01*
X211355158Y-99865932D01*
X211625411Y-99753990D01*
X211868632Y-99591475D01*
X212075475Y-99384632D01*
X212192000Y-99210240D01*
X212308525Y-99384632D01*
X212515368Y-99591475D01*
X212758589Y-99753990D01*
X213028842Y-99865932D01*
X213315740Y-99923000D01*
X213608260Y-99923000D01*
X213895158Y-99865932D01*
X214165411Y-99753990D01*
X214408632Y-99591475D01*
X214615475Y-99384632D01*
X214732000Y-99210240D01*
X214848525Y-99384632D01*
X215055368Y-99591475D01*
X215298589Y-99753990D01*
X215568842Y-99865932D01*
X215855740Y-99923000D01*
X216148260Y-99923000D01*
X216435158Y-99865932D01*
X216705411Y-99753990D01*
X216948632Y-99591475D01*
X217155475Y-99384632D01*
X217272000Y-99210240D01*
X217388525Y-99384632D01*
X217463893Y-99460000D01*
X217378137Y-99460000D01*
X217168517Y-99501696D01*
X216971060Y-99583485D01*
X216793353Y-99702225D01*
X216642225Y-99853353D01*
X216523485Y-100031060D01*
X216441696Y-100228517D01*
X216400000Y-100438137D01*
X216400000Y-100560001D01*
X205725329Y-100560001D01*
X205644999Y-100552089D01*
X205324482Y-100583658D01*
X205180812Y-100627240D01*
X205016284Y-100677149D01*
X204732247Y-100828970D01*
X204483285Y-101033287D01*
X204432083Y-101095678D01*
X204145833Y-101381928D01*
X202820000Y-101381928D01*
X202695518Y-101394188D01*
X202575820Y-101430498D01*
X202465506Y-101489463D01*
X202368815Y-101568815D01*
X202289463Y-101665506D01*
X202230498Y-101775820D01*
X202194188Y-101895518D01*
X202181928Y-102020000D01*
X202181928Y-105020000D01*
X202194188Y-105144482D01*
X202230498Y-105264180D01*
X202289463Y-105374494D01*
X202368815Y-105471185D01*
X202465506Y-105550537D01*
X202575820Y-105609502D01*
X202695518Y-105645812D01*
X202820000Y-105658072D01*
X204949690Y-105658072D01*
X204142762Y-106465000D01*
X204109721Y-106465000D01*
X203697244Y-106547047D01*
X203308698Y-106707988D01*
X202959017Y-106941637D01*
X202661637Y-107239017D01*
X202427988Y-107588698D01*
X202267047Y-107977244D01*
X202185000Y-108389721D01*
X202185000Y-108810279D01*
X202267047Y-109222756D01*
X202427988Y-109611302D01*
X202661637Y-109960983D01*
X202959017Y-110258363D01*
X203308698Y-110492012D01*
X203697244Y-110652953D01*
X204109721Y-110735000D01*
X204530279Y-110735000D01*
X204942756Y-110652953D01*
X205099897Y-110587863D01*
X204145833Y-111541928D01*
X202820000Y-111541928D01*
X202695518Y-111554188D01*
X202575820Y-111590498D01*
X202465506Y-111649463D01*
X202368815Y-111728815D01*
X202289463Y-111825506D01*
X202230498Y-111935820D01*
X202194188Y-112055518D01*
X202181928Y-112180000D01*
X202181928Y-115180000D01*
X202194188Y-115304482D01*
X202230498Y-115424180D01*
X202289463Y-115534494D01*
X202368815Y-115631185D01*
X202465506Y-115710537D01*
X202575820Y-115769502D01*
X202695518Y-115805812D01*
X202820000Y-115818072D01*
X204949689Y-115818072D01*
X204142762Y-116625000D01*
X204109721Y-116625000D01*
X203697244Y-116707047D01*
X203308698Y-116867988D01*
X202959017Y-117101637D01*
X202661637Y-117399017D01*
X202427988Y-117748698D01*
X202267047Y-118137244D01*
X202185000Y-118549721D01*
X202185000Y-118970279D01*
X202267047Y-119382756D01*
X202427988Y-119771302D01*
X202661637Y-120120983D01*
X202959017Y-120418363D01*
X203308698Y-120652012D01*
X203697244Y-120812953D01*
X204109721Y-120895000D01*
X204530279Y-120895000D01*
X204942756Y-120812953D01*
X205331302Y-120652012D01*
X205680983Y-120418363D01*
X205978363Y-120120983D01*
X206212012Y-119771302D01*
X206372953Y-119382756D01*
X206455000Y-118970279D01*
X206455000Y-118937238D01*
X209122239Y-116270001D01*
X219183526Y-116270001D01*
X219165000Y-116363137D01*
X219165000Y-116576863D01*
X219206696Y-116786483D01*
X219288485Y-116983940D01*
X219407225Y-117161647D01*
X219558353Y-117312775D01*
X219736060Y-117431515D01*
X219933517Y-117513304D01*
X220143137Y-117555000D01*
X220356863Y-117555000D01*
X220566483Y-117513304D01*
X220763940Y-117431515D01*
X220941647Y-117312775D01*
X221092775Y-117161647D01*
X221211515Y-116983940D01*
X221293304Y-116786483D01*
X221335000Y-116576863D01*
X221335000Y-116363137D01*
X221316474Y-116270001D01*
X221485597Y-116270001D01*
X221480000Y-116298137D01*
X221480000Y-116511863D01*
X221521696Y-116721483D01*
X221603485Y-116918940D01*
X221722225Y-117096647D01*
X221873353Y-117247775D01*
X222051060Y-117366515D01*
X222248517Y-117448304D01*
X222458137Y-117490000D01*
X222671863Y-117490000D01*
X222881483Y-117448304D01*
X223078940Y-117366515D01*
X223256647Y-117247775D01*
X223407775Y-117096647D01*
X223526515Y-116918940D01*
X223608304Y-116721483D01*
X223650000Y-116511863D01*
X223650000Y-116298137D01*
X223644403Y-116270001D01*
X243047762Y-116270001D01*
X243075677Y-116297916D01*
X243075682Y-116297920D01*
X244965676Y-118187916D01*
X245152247Y-118341030D01*
X245436285Y-118492852D01*
X245744483Y-118586343D01*
X246065000Y-118617911D01*
X246385516Y-118586343D01*
X246693715Y-118492852D01*
X246977752Y-118341030D01*
X247226713Y-118136713D01*
X247431030Y-117887752D01*
X247582852Y-117603715D01*
X247676343Y-117295516D01*
X247707911Y-116975000D01*
X247676343Y-116654483D01*
X247582852Y-116346285D01*
X247431030Y-116062247D01*
X247277916Y-115875676D01*
X245387920Y-113985682D01*
X245387916Y-113985677D01*
X244992239Y-113590000D01*
X248041928Y-113590000D01*
X248041928Y-115290000D01*
X248054188Y-115414482D01*
X248090498Y-115534180D01*
X248149463Y-115644494D01*
X248228815Y-115741185D01*
X248325506Y-115820537D01*
X248435820Y-115879502D01*
X248508380Y-115901513D01*
X248376525Y-116033368D01*
X248214010Y-116276589D01*
X248102068Y-116546842D01*
X248045000Y-116833740D01*
X248045000Y-117126260D01*
X248102068Y-117413158D01*
X248214010Y-117683411D01*
X248376525Y-117926632D01*
X248583368Y-118133475D01*
X248826589Y-118295990D01*
X249096842Y-118407932D01*
X249383740Y-118465000D01*
X249676260Y-118465000D01*
X249963158Y-118407932D01*
X250233411Y-118295990D01*
X250476632Y-118133475D01*
X250683475Y-117926632D01*
X250800000Y-117752240D01*
X250916525Y-117926632D01*
X251123368Y-118133475D01*
X251366589Y-118295990D01*
X251636842Y-118407932D01*
X251923740Y-118465000D01*
X252216260Y-118465000D01*
X252503158Y-118407932D01*
X252773411Y-118295990D01*
X253016632Y-118133475D01*
X253223475Y-117926632D01*
X253385990Y-117683411D01*
X253497932Y-117413158D01*
X253555000Y-117126260D01*
X253555000Y-116833740D01*
X253497932Y-116546842D01*
X253385990Y-116276589D01*
X253223475Y-116033368D01*
X253091620Y-115901513D01*
X253164180Y-115879502D01*
X253274494Y-115820537D01*
X253371185Y-115741185D01*
X253450537Y-115644494D01*
X253509502Y-115534180D01*
X253545812Y-115414482D01*
X253558072Y-115290000D01*
X253558072Y-113590000D01*
X253545812Y-113465518D01*
X253509502Y-113345820D01*
X253450537Y-113235506D01*
X253371185Y-113138815D01*
X253274494Y-113059463D01*
X253164180Y-113000498D01*
X253044482Y-112964188D01*
X252920000Y-112951928D01*
X251220000Y-112951928D01*
X251095518Y-112964188D01*
X250975820Y-113000498D01*
X250865506Y-113059463D01*
X250800000Y-113113222D01*
X250734494Y-113059463D01*
X250624180Y-113000498D01*
X250504482Y-112964188D01*
X250380000Y-112951928D01*
X248680000Y-112951928D01*
X248555518Y-112964188D01*
X248435820Y-113000498D01*
X248325506Y-113059463D01*
X248228815Y-113138815D01*
X248149463Y-113235506D01*
X248090498Y-113345820D01*
X248054188Y-113465518D01*
X248041928Y-113590000D01*
X244992239Y-113590000D01*
X244937925Y-113535687D01*
X244886715Y-113473287D01*
X244637753Y-113268970D01*
X244489243Y-113189590D01*
X244758723Y-113107844D01*
X245042760Y-112956023D01*
X245291722Y-112751706D01*
X245496039Y-112502744D01*
X245647860Y-112218707D01*
X245741351Y-111910508D01*
X245772919Y-111589992D01*
X245741351Y-111269476D01*
X245647860Y-110961277D01*
X245496039Y-110677240D01*
X245291722Y-110428278D01*
X245042760Y-110223961D01*
X244758723Y-110072140D01*
X244450524Y-109978649D01*
X244210330Y-109954992D01*
X215433731Y-109954992D01*
X215532775Y-109855948D01*
X215651515Y-109678241D01*
X215733304Y-109480784D01*
X215756117Y-109366097D01*
X215773517Y-109373304D01*
X215983137Y-109415000D01*
X216196863Y-109415000D01*
X216406483Y-109373304D01*
X216603940Y-109291515D01*
X216781647Y-109172775D01*
X216932775Y-109021647D01*
X217051515Y-108843940D01*
X217133304Y-108646483D01*
X217175000Y-108436863D01*
X217175000Y-108223137D01*
X217133304Y-108013517D01*
X217051515Y-107816060D01*
X216932775Y-107638353D01*
X216781647Y-107487225D01*
X216603940Y-107368485D01*
X216406483Y-107286696D01*
X216196863Y-107245000D01*
X215983137Y-107245000D01*
X215773517Y-107286696D01*
X215576060Y-107368485D01*
X215398353Y-107487225D01*
X215247225Y-107638353D01*
X215128485Y-107816060D01*
X215046696Y-108013517D01*
X215023883Y-108128204D01*
X215006483Y-108120997D01*
X214796863Y-108079301D01*
X214583137Y-108079301D01*
X214373517Y-108120997D01*
X214176060Y-108202786D01*
X213998353Y-108321526D01*
X213847225Y-108472654D01*
X213728485Y-108650361D01*
X213646696Y-108847818D01*
X213605000Y-109057438D01*
X213605000Y-109271164D01*
X213646696Y-109480784D01*
X213728485Y-109678241D01*
X213847225Y-109855948D01*
X213946269Y-109954992D01*
X206490330Y-109954992D01*
X206410008Y-109947081D01*
X206089491Y-109978649D01*
X205934962Y-110025525D01*
X205904615Y-110034731D01*
X205978363Y-109960983D01*
X206212012Y-109611302D01*
X206372953Y-109222756D01*
X206455000Y-108810279D01*
X206455000Y-108777238D01*
X208607239Y-106625000D01*
X243442762Y-106625000D01*
X244737079Y-107919318D01*
X244788286Y-107981714D01*
X245037248Y-108186031D01*
X245259823Y-108305000D01*
X245321285Y-108337852D01*
X245629483Y-108431343D01*
X245718641Y-108440124D01*
X245558353Y-108547225D01*
X245407225Y-108698353D01*
X245288485Y-108876060D01*
X245206696Y-109073517D01*
X245165000Y-109283137D01*
X245165000Y-109496863D01*
X245206696Y-109706483D01*
X245288485Y-109903940D01*
X245407225Y-110081647D01*
X245558353Y-110232775D01*
X245736060Y-110351515D01*
X245933517Y-110433304D01*
X246143137Y-110475000D01*
X246356863Y-110475000D01*
X246566483Y-110433304D01*
X246763940Y-110351515D01*
X246941647Y-110232775D01*
X247092775Y-110081647D01*
X247211515Y-109903940D01*
X247293304Y-109706483D01*
X247335000Y-109496863D01*
X247335000Y-109283137D01*
X247293304Y-109073517D01*
X247211515Y-108876060D01*
X247092775Y-108698353D01*
X246941647Y-108547225D01*
X246763940Y-108428485D01*
X246648106Y-108380505D01*
X246788715Y-108337852D01*
X247072752Y-108186031D01*
X247321714Y-107981714D01*
X247526031Y-107732752D01*
X247677852Y-107448715D01*
X247771343Y-107140516D01*
X247802911Y-106820000D01*
X247771343Y-106499484D01*
X247677852Y-106191285D01*
X247526031Y-105907248D01*
X247321714Y-105658286D01*
X247072752Y-105453969D01*
X246788715Y-105302148D01*
X246725085Y-105282846D01*
X245332925Y-103890686D01*
X245281714Y-103828286D01*
X245032752Y-103623969D01*
X244748715Y-103472148D01*
X244609772Y-103430000D01*
X248041928Y-103430000D01*
X248041928Y-105130000D01*
X248054188Y-105254482D01*
X248090498Y-105374180D01*
X248149463Y-105484494D01*
X248228815Y-105581185D01*
X248325506Y-105660537D01*
X248435820Y-105719502D01*
X248508380Y-105741513D01*
X248376525Y-105873368D01*
X248214010Y-106116589D01*
X248102068Y-106386842D01*
X248045000Y-106673740D01*
X248045000Y-106966260D01*
X248102068Y-107253158D01*
X248214010Y-107523411D01*
X248376525Y-107766632D01*
X248583368Y-107973475D01*
X248826589Y-108135990D01*
X249096842Y-108247932D01*
X249383740Y-108305000D01*
X249676260Y-108305000D01*
X249963158Y-108247932D01*
X250233411Y-108135990D01*
X250476632Y-107973475D01*
X250683475Y-107766632D01*
X250800000Y-107592240D01*
X250916525Y-107766632D01*
X251123368Y-107973475D01*
X251366589Y-108135990D01*
X251636842Y-108247932D01*
X251923740Y-108305000D01*
X252216260Y-108305000D01*
X252503158Y-108247932D01*
X252773411Y-108135990D01*
X253016632Y-107973475D01*
X253223475Y-107766632D01*
X253385990Y-107523411D01*
X253497932Y-107253158D01*
X253555000Y-106966260D01*
X253555000Y-106673740D01*
X253497932Y-106386842D01*
X253385990Y-106116589D01*
X253223475Y-105873368D01*
X253091620Y-105741513D01*
X253164180Y-105719502D01*
X253274494Y-105660537D01*
X253371185Y-105581185D01*
X253450537Y-105484494D01*
X253491069Y-105408665D01*
X255715000Y-105408665D01*
X255715000Y-105691335D01*
X255770147Y-105968574D01*
X255878320Y-106229727D01*
X256035363Y-106464759D01*
X256235241Y-106664637D01*
X256467759Y-106820000D01*
X256235241Y-106975363D01*
X256035363Y-107175241D01*
X255878320Y-107410273D01*
X255770147Y-107671426D01*
X255715000Y-107948665D01*
X255715000Y-108231335D01*
X255770147Y-108508574D01*
X255878320Y-108769727D01*
X256035363Y-109004759D01*
X256235241Y-109204637D01*
X256467759Y-109360000D01*
X256235241Y-109515363D01*
X256035363Y-109715241D01*
X255878320Y-109950273D01*
X255770147Y-110211426D01*
X255715000Y-110488665D01*
X255715000Y-110771335D01*
X255770147Y-111048574D01*
X255878320Y-111309727D01*
X256035363Y-111544759D01*
X256235241Y-111744637D01*
X256467759Y-111900000D01*
X256235241Y-112055363D01*
X256035363Y-112255241D01*
X255878320Y-112490273D01*
X255770147Y-112751426D01*
X255715000Y-113028665D01*
X255715000Y-113311335D01*
X255770147Y-113588574D01*
X255878320Y-113849727D01*
X256035363Y-114084759D01*
X256235241Y-114284637D01*
X256467759Y-114440000D01*
X256235241Y-114595363D01*
X256035363Y-114795241D01*
X255878320Y-115030273D01*
X255770147Y-115291426D01*
X255715000Y-115568665D01*
X255715000Y-115851335D01*
X255770147Y-116128574D01*
X255878320Y-116389727D01*
X256035363Y-116624759D01*
X256235241Y-116824637D01*
X256467759Y-116980000D01*
X256235241Y-117135363D01*
X256035363Y-117335241D01*
X255878320Y-117570273D01*
X255770147Y-117831426D01*
X255715000Y-118108665D01*
X255715000Y-118391335D01*
X255770147Y-118668574D01*
X255878320Y-118929727D01*
X256035363Y-119164759D01*
X256235241Y-119364637D01*
X256467759Y-119520000D01*
X256235241Y-119675363D01*
X256035363Y-119875241D01*
X255878320Y-120110273D01*
X255770147Y-120371426D01*
X255715000Y-120648665D01*
X255715000Y-120931335D01*
X255770147Y-121208574D01*
X255878320Y-121469727D01*
X256035363Y-121704759D01*
X256235241Y-121904637D01*
X256467759Y-122060000D01*
X256235241Y-122215363D01*
X256035363Y-122415241D01*
X255878320Y-122650273D01*
X255770147Y-122911426D01*
X255715000Y-123188665D01*
X255715000Y-123471335D01*
X255770147Y-123748574D01*
X255878320Y-124009727D01*
X256035363Y-124244759D01*
X256235241Y-124444637D01*
X256470273Y-124601680D01*
X256731426Y-124709853D01*
X257008665Y-124765000D01*
X257291335Y-124765000D01*
X257568574Y-124709853D01*
X257829727Y-124601680D01*
X258064759Y-124444637D01*
X258264637Y-124244759D01*
X258341316Y-124130000D01*
X268411928Y-124130000D01*
X268424188Y-124254482D01*
X268460498Y-124374180D01*
X268519463Y-124484494D01*
X268598815Y-124581185D01*
X268695506Y-124660537D01*
X268805820Y-124719502D01*
X268925518Y-124755812D01*
X269050000Y-124768072D01*
X269564250Y-124765000D01*
X269723000Y-124606250D01*
X269723000Y-123457000D01*
X269977000Y-123457000D01*
X269977000Y-124606250D01*
X270135750Y-124765000D01*
X270650000Y-124768072D01*
X270774482Y-124755812D01*
X270894180Y-124719502D01*
X271004494Y-124660537D01*
X271101185Y-124581185D01*
X271180537Y-124484494D01*
X271239502Y-124374180D01*
X271275812Y-124254482D01*
X271288072Y-124130000D01*
X271285000Y-123615750D01*
X271126250Y-123457000D01*
X269977000Y-123457000D01*
X269723000Y-123457000D01*
X268573750Y-123457000D01*
X268415000Y-123615750D01*
X268411928Y-124130000D01*
X258341316Y-124130000D01*
X258421680Y-124009727D01*
X258529853Y-123748574D01*
X258585000Y-123471335D01*
X258585000Y-123188665D01*
X258529853Y-122911426D01*
X258421680Y-122650273D01*
X258341317Y-122530000D01*
X268411928Y-122530000D01*
X268415000Y-123044250D01*
X268573750Y-123203000D01*
X269723000Y-123203000D01*
X269723000Y-123183000D01*
X269977000Y-123183000D01*
X269977000Y-123203000D01*
X271126250Y-123203000D01*
X271285000Y-123044250D01*
X271288072Y-122530000D01*
X271275812Y-122405518D01*
X271239502Y-122285820D01*
X271180537Y-122175506D01*
X271101185Y-122078815D01*
X271004494Y-121999463D01*
X270894180Y-121940498D01*
X270774482Y-121904188D01*
X270766039Y-121903357D01*
X270964637Y-121704759D01*
X271121680Y-121469727D01*
X271229853Y-121208574D01*
X271285000Y-120931335D01*
X271285000Y-120648665D01*
X271229853Y-120371426D01*
X271121680Y-120110273D01*
X270964637Y-119875241D01*
X270764759Y-119675363D01*
X270532241Y-119520000D01*
X270764759Y-119364637D01*
X270964637Y-119164759D01*
X271121680Y-118929727D01*
X271229853Y-118668574D01*
X271285000Y-118391335D01*
X271285000Y-118108665D01*
X271229853Y-117831426D01*
X271121680Y-117570273D01*
X270964637Y-117335241D01*
X270764759Y-117135363D01*
X270532241Y-116980000D01*
X270764759Y-116824637D01*
X270964637Y-116624759D01*
X271121680Y-116389727D01*
X271229853Y-116128574D01*
X271285000Y-115851335D01*
X271285000Y-115568665D01*
X271229853Y-115291426D01*
X271121680Y-115030273D01*
X270992013Y-114836212D01*
X272017000Y-114836212D01*
X272017000Y-115059788D01*
X272060617Y-115279067D01*
X272146176Y-115485624D01*
X272270388Y-115671520D01*
X272428480Y-115829612D01*
X272614376Y-115953824D01*
X272820933Y-116039383D01*
X273040212Y-116083000D01*
X273263788Y-116083000D01*
X273483067Y-116039383D01*
X273689624Y-115953824D01*
X273731265Y-115926000D01*
X275777928Y-115926000D01*
X275777928Y-117526000D01*
X275790188Y-117650482D01*
X275826498Y-117770180D01*
X275885463Y-117880494D01*
X275964815Y-117977185D01*
X276061506Y-118056537D01*
X276171820Y-118115502D01*
X276291518Y-118151812D01*
X276416000Y-118164072D01*
X276681725Y-118164072D01*
X276536273Y-118224320D01*
X276301241Y-118381363D01*
X276101363Y-118581241D01*
X275944320Y-118816273D01*
X275836147Y-119077426D01*
X275781000Y-119354665D01*
X275781000Y-119637335D01*
X275836147Y-119914574D01*
X275944320Y-120175727D01*
X276101363Y-120410759D01*
X276301241Y-120610637D01*
X276536273Y-120767680D01*
X276797426Y-120875853D01*
X276823301Y-120881000D01*
X276797426Y-120886147D01*
X276536273Y-120994320D01*
X276301241Y-121151363D01*
X276101363Y-121351241D01*
X275944320Y-121586273D01*
X275836147Y-121847426D01*
X275781000Y-122124665D01*
X275781000Y-122407335D01*
X275836147Y-122684574D01*
X275944320Y-122945727D01*
X276101363Y-123180759D01*
X276301241Y-123380637D01*
X276536273Y-123537680D01*
X276797426Y-123645853D01*
X276823301Y-123651000D01*
X276797426Y-123656147D01*
X276536273Y-123764320D01*
X276301241Y-123921363D01*
X276101363Y-124121241D01*
X275944320Y-124356273D01*
X275836147Y-124617426D01*
X275781000Y-124894665D01*
X275781000Y-125177335D01*
X275836147Y-125454574D01*
X275944320Y-125715727D01*
X276101363Y-125950759D01*
X276301241Y-126150637D01*
X276536273Y-126307680D01*
X276797426Y-126415853D01*
X276825882Y-126421513D01*
X276599708Y-126502397D01*
X276474486Y-126569329D01*
X276402903Y-126813298D01*
X277216000Y-127626395D01*
X278029097Y-126813298D01*
X277957514Y-126569329D01*
X277793056Y-126491512D01*
X278615783Y-126491512D01*
X278657213Y-126771130D01*
X278752397Y-127037292D01*
X278819329Y-127162514D01*
X279063298Y-127234097D01*
X279876395Y-126421000D01*
X280235605Y-126421000D01*
X281048702Y-127234097D01*
X281292671Y-127162514D01*
X281413571Y-126907004D01*
X281482300Y-126632816D01*
X281496217Y-126350488D01*
X281454787Y-126070870D01*
X281359603Y-125804708D01*
X281292671Y-125679486D01*
X281048702Y-125607903D01*
X280235605Y-126421000D01*
X279876395Y-126421000D01*
X279063298Y-125607903D01*
X278819329Y-125679486D01*
X278698429Y-125934996D01*
X278629700Y-126209184D01*
X278615783Y-126491512D01*
X277793056Y-126491512D01*
X277702004Y-126448429D01*
X277599711Y-126422788D01*
X277634574Y-126415853D01*
X277895727Y-126307680D01*
X278130759Y-126150637D01*
X278330637Y-125950759D01*
X278487680Y-125715727D01*
X278595853Y-125454574D01*
X278651000Y-125177335D01*
X278651000Y-124894665D01*
X278595853Y-124617426D01*
X278487680Y-124356273D01*
X278330637Y-124121241D01*
X278130759Y-123921363D01*
X277895727Y-123764320D01*
X277634574Y-123656147D01*
X277608699Y-123651000D01*
X277634574Y-123645853D01*
X277895727Y-123537680D01*
X278130759Y-123380637D01*
X278330637Y-123180759D01*
X278487680Y-122945727D01*
X278595853Y-122684574D01*
X278651000Y-122407335D01*
X278651000Y-122124665D01*
X278595853Y-121847426D01*
X278487680Y-121586273D01*
X278330637Y-121351241D01*
X278130759Y-121151363D01*
X277895727Y-120994320D01*
X277634574Y-120886147D01*
X277608699Y-120881000D01*
X277634574Y-120875853D01*
X277895727Y-120767680D01*
X278130759Y-120610637D01*
X278330637Y-120410759D01*
X278487680Y-120175727D01*
X278595853Y-119914574D01*
X278651000Y-119637335D01*
X278651000Y-119354665D01*
X278595853Y-119077426D01*
X278487680Y-118816273D01*
X278330637Y-118581241D01*
X278130759Y-118381363D01*
X277895727Y-118224320D01*
X277750275Y-118164072D01*
X278016000Y-118164072D01*
X278140482Y-118151812D01*
X278260180Y-118115502D01*
X278370494Y-118056537D01*
X278467185Y-117977185D01*
X278473356Y-117969665D01*
X278621000Y-117969665D01*
X278621000Y-118252335D01*
X278676147Y-118529574D01*
X278784320Y-118790727D01*
X278941363Y-119025759D01*
X279141241Y-119225637D01*
X279376273Y-119382680D01*
X279637426Y-119490853D01*
X279663301Y-119496000D01*
X279637426Y-119501147D01*
X279376273Y-119609320D01*
X279141241Y-119766363D01*
X278941363Y-119966241D01*
X278784320Y-120201273D01*
X278676147Y-120462426D01*
X278621000Y-120739665D01*
X278621000Y-121022335D01*
X278676147Y-121299574D01*
X278784320Y-121560727D01*
X278941363Y-121795759D01*
X279141241Y-121995637D01*
X279376273Y-122152680D01*
X279637426Y-122260853D01*
X279663301Y-122266000D01*
X279637426Y-122271147D01*
X279376273Y-122379320D01*
X279141241Y-122536363D01*
X278941363Y-122736241D01*
X278784320Y-122971273D01*
X278676147Y-123232426D01*
X278621000Y-123509665D01*
X278621000Y-123792335D01*
X278676147Y-124069574D01*
X278784320Y-124330727D01*
X278941363Y-124565759D01*
X279141241Y-124765637D01*
X279376273Y-124922680D01*
X279637426Y-125030853D01*
X279665882Y-125036513D01*
X279439708Y-125117397D01*
X279314486Y-125184329D01*
X279242903Y-125428298D01*
X280056000Y-126241395D01*
X280869097Y-125428298D01*
X280797514Y-125184329D01*
X280542004Y-125063429D01*
X280439711Y-125037788D01*
X280474574Y-125030853D01*
X280735727Y-124922680D01*
X280970759Y-124765637D01*
X281170637Y-124565759D01*
X281327680Y-124330727D01*
X281435853Y-124069574D01*
X281491000Y-123792335D01*
X281491000Y-123509665D01*
X281435853Y-123232426D01*
X281327680Y-122971273D01*
X281170637Y-122736241D01*
X280970759Y-122536363D01*
X280735727Y-122379320D01*
X280474574Y-122271147D01*
X280448699Y-122266000D01*
X280474574Y-122260853D01*
X280735727Y-122152680D01*
X280970759Y-121995637D01*
X281170637Y-121795759D01*
X281327680Y-121560727D01*
X281435853Y-121299574D01*
X281491000Y-121022335D01*
X281491000Y-120739665D01*
X281435853Y-120462426D01*
X281327680Y-120201273D01*
X281170637Y-119966241D01*
X280970759Y-119766363D01*
X280735727Y-119609320D01*
X280474574Y-119501147D01*
X280448699Y-119496000D01*
X280474574Y-119490853D01*
X280735727Y-119382680D01*
X280970759Y-119225637D01*
X281170637Y-119025759D01*
X281327680Y-118790727D01*
X281435853Y-118529574D01*
X281491000Y-118252335D01*
X281491000Y-117969665D01*
X281435853Y-117692426D01*
X281327680Y-117431273D01*
X281170637Y-117196241D01*
X280970759Y-116996363D01*
X280735727Y-116839320D01*
X280474574Y-116731147D01*
X280197335Y-116676000D01*
X279914665Y-116676000D01*
X279637426Y-116731147D01*
X279376273Y-116839320D01*
X279141241Y-116996363D01*
X278941363Y-117196241D01*
X278784320Y-117431273D01*
X278676147Y-117692426D01*
X278621000Y-117969665D01*
X278473356Y-117969665D01*
X278546537Y-117880494D01*
X278605502Y-117770180D01*
X278641812Y-117650482D01*
X278654072Y-117526000D01*
X278654072Y-115926000D01*
X278641812Y-115801518D01*
X278605502Y-115681820D01*
X278546537Y-115571506D01*
X278467185Y-115474815D01*
X278370494Y-115395463D01*
X278260180Y-115336498D01*
X278140482Y-115300188D01*
X278016000Y-115287928D01*
X276416000Y-115287928D01*
X276291518Y-115300188D01*
X276171820Y-115336498D01*
X276061506Y-115395463D01*
X275964815Y-115474815D01*
X275885463Y-115571506D01*
X275826498Y-115681820D01*
X275790188Y-115801518D01*
X275777928Y-115926000D01*
X273731265Y-115926000D01*
X273875520Y-115829612D01*
X274033612Y-115671520D01*
X274157824Y-115485624D01*
X274243383Y-115279067D01*
X274287000Y-115059788D01*
X274287000Y-114836212D01*
X274243383Y-114616933D01*
X274157824Y-114410376D01*
X274033612Y-114224480D01*
X273875520Y-114066388D01*
X273689624Y-113942176D01*
X273483067Y-113856617D01*
X273263788Y-113813000D01*
X273040212Y-113813000D01*
X272820933Y-113856617D01*
X272614376Y-113942176D01*
X272428480Y-114066388D01*
X272270388Y-114224480D01*
X272146176Y-114410376D01*
X272060617Y-114616933D01*
X272017000Y-114836212D01*
X270992013Y-114836212D01*
X270964637Y-114795241D01*
X270764759Y-114595363D01*
X270532241Y-114440000D01*
X270764759Y-114284637D01*
X270964637Y-114084759D01*
X271121680Y-113849727D01*
X271229853Y-113588574D01*
X271285000Y-113311335D01*
X271285000Y-113028665D01*
X271229853Y-112751426D01*
X271121680Y-112490273D01*
X270964637Y-112255241D01*
X270764759Y-112055363D01*
X270532241Y-111900000D01*
X270764759Y-111744637D01*
X270964637Y-111544759D01*
X271121680Y-111309727D01*
X271229853Y-111048574D01*
X271285000Y-110771335D01*
X271285000Y-110488665D01*
X271229853Y-110211426D01*
X271121680Y-109950273D01*
X270964637Y-109715241D01*
X270764759Y-109515363D01*
X270751458Y-109506475D01*
X274881000Y-109506475D01*
X274881000Y-110025525D01*
X274982261Y-110534601D01*
X275180893Y-111014141D01*
X275469262Y-111445715D01*
X275836285Y-111812738D01*
X276267859Y-112101107D01*
X276747399Y-112299739D01*
X277256475Y-112401000D01*
X277775525Y-112401000D01*
X278284601Y-112299739D01*
X278764141Y-112101107D01*
X279195715Y-111812738D01*
X279562738Y-111445715D01*
X279851107Y-111014141D01*
X280049739Y-110534601D01*
X280151000Y-110025525D01*
X280151000Y-109506475D01*
X280049739Y-108997399D01*
X279851107Y-108517859D01*
X279562738Y-108086285D01*
X279195715Y-107719262D01*
X278764141Y-107430893D01*
X278284601Y-107232261D01*
X277775525Y-107131000D01*
X277256475Y-107131000D01*
X276747399Y-107232261D01*
X276267859Y-107430893D01*
X275836285Y-107719262D01*
X275469262Y-108086285D01*
X275180893Y-108517859D01*
X274982261Y-108997399D01*
X274881000Y-109506475D01*
X270751458Y-109506475D01*
X270529727Y-109358320D01*
X270519135Y-109353933D01*
X270705131Y-109242385D01*
X270913519Y-109053414D01*
X271081037Y-108827420D01*
X271201246Y-108573087D01*
X271241904Y-108439039D01*
X271119915Y-108217000D01*
X269977000Y-108217000D01*
X269977000Y-108237000D01*
X269723000Y-108237000D01*
X269723000Y-108217000D01*
X268580085Y-108217000D01*
X268458096Y-108439039D01*
X268498754Y-108573087D01*
X268618963Y-108827420D01*
X268786481Y-109053414D01*
X268994869Y-109242385D01*
X269180865Y-109353933D01*
X269170273Y-109358320D01*
X268935241Y-109515363D01*
X268735363Y-109715241D01*
X268578320Y-109950273D01*
X268470147Y-110211426D01*
X268415000Y-110488665D01*
X268415000Y-110771335D01*
X268470147Y-111048574D01*
X268578320Y-111309727D01*
X268735363Y-111544759D01*
X268935241Y-111744637D01*
X269167759Y-111900000D01*
X268935241Y-112055363D01*
X268735363Y-112255241D01*
X268578320Y-112490273D01*
X268470147Y-112751426D01*
X268415000Y-113028665D01*
X268415000Y-113311335D01*
X268470147Y-113588574D01*
X268578320Y-113849727D01*
X268735363Y-114084759D01*
X268935241Y-114284637D01*
X269167759Y-114440000D01*
X268935241Y-114595363D01*
X268735363Y-114795241D01*
X268578320Y-115030273D01*
X268470147Y-115291426D01*
X268415000Y-115568665D01*
X268415000Y-115851335D01*
X268470147Y-116128574D01*
X268578320Y-116389727D01*
X268735363Y-116624759D01*
X268935241Y-116824637D01*
X269167759Y-116980000D01*
X268935241Y-117135363D01*
X268735363Y-117335241D01*
X268578320Y-117570273D01*
X268470147Y-117831426D01*
X268415000Y-118108665D01*
X268415000Y-118391335D01*
X268470147Y-118668574D01*
X268578320Y-118929727D01*
X268735363Y-119164759D01*
X268935241Y-119364637D01*
X269167759Y-119520000D01*
X268935241Y-119675363D01*
X268735363Y-119875241D01*
X268578320Y-120110273D01*
X268470147Y-120371426D01*
X268415000Y-120648665D01*
X268415000Y-120931335D01*
X268470147Y-121208574D01*
X268578320Y-121469727D01*
X268735363Y-121704759D01*
X268933961Y-121903357D01*
X268925518Y-121904188D01*
X268805820Y-121940498D01*
X268695506Y-121999463D01*
X268598815Y-122078815D01*
X268519463Y-122175506D01*
X268460498Y-122285820D01*
X268424188Y-122405518D01*
X268411928Y-122530000D01*
X258341317Y-122530000D01*
X258264637Y-122415241D01*
X258064759Y-122215363D01*
X257832241Y-122060000D01*
X258064759Y-121904637D01*
X258264637Y-121704759D01*
X258421680Y-121469727D01*
X258529853Y-121208574D01*
X258585000Y-120931335D01*
X258585000Y-120648665D01*
X258529853Y-120371426D01*
X258421680Y-120110273D01*
X258264637Y-119875241D01*
X258064759Y-119675363D01*
X257832241Y-119520000D01*
X258064759Y-119364637D01*
X258264637Y-119164759D01*
X258421680Y-118929727D01*
X258450193Y-118860890D01*
X259518524Y-118860890D01*
X259563175Y-119008099D01*
X259688359Y-119270920D01*
X259862412Y-119504269D01*
X260078645Y-119699178D01*
X260328748Y-119848157D01*
X260603109Y-119945481D01*
X260833000Y-119824814D01*
X260833000Y-118631000D01*
X261087000Y-118631000D01*
X261087000Y-119824814D01*
X261316891Y-119945481D01*
X261591252Y-119848157D01*
X261841355Y-119699178D01*
X262057588Y-119504269D01*
X262230000Y-119273120D01*
X262402412Y-119504269D01*
X262618645Y-119699178D01*
X262868748Y-119848157D01*
X263143109Y-119945481D01*
X263373000Y-119824814D01*
X263373000Y-118631000D01*
X263627000Y-118631000D01*
X263627000Y-119824814D01*
X263856891Y-119945481D01*
X264131252Y-119848157D01*
X264381355Y-119699178D01*
X264597588Y-119504269D01*
X264770000Y-119273120D01*
X264942412Y-119504269D01*
X265158645Y-119699178D01*
X265408748Y-119848157D01*
X265683109Y-119945481D01*
X265913000Y-119824814D01*
X265913000Y-118631000D01*
X266167000Y-118631000D01*
X266167000Y-119824814D01*
X266396891Y-119945481D01*
X266671252Y-119848157D01*
X266921355Y-119699178D01*
X267137588Y-119504269D01*
X267311641Y-119270920D01*
X267436825Y-119008099D01*
X267481476Y-118860890D01*
X267360155Y-118631000D01*
X266167000Y-118631000D01*
X265913000Y-118631000D01*
X263627000Y-118631000D01*
X263373000Y-118631000D01*
X261087000Y-118631000D01*
X260833000Y-118631000D01*
X259639845Y-118631000D01*
X259518524Y-118860890D01*
X258450193Y-118860890D01*
X258529853Y-118668574D01*
X258585000Y-118391335D01*
X258585000Y-118108665D01*
X258529853Y-117831426D01*
X258421680Y-117570273D01*
X258264637Y-117335241D01*
X258064759Y-117135363D01*
X257832241Y-116980000D01*
X258064759Y-116824637D01*
X258264637Y-116624759D01*
X258421680Y-116389727D01*
X258529853Y-116128574D01*
X258585000Y-115851335D01*
X258585000Y-115568665D01*
X258529853Y-115291426D01*
X258421680Y-115030273D01*
X258264637Y-114795241D01*
X258064759Y-114595363D01*
X257832241Y-114440000D01*
X258064759Y-114284637D01*
X258264637Y-114084759D01*
X258421680Y-113849727D01*
X258529853Y-113588574D01*
X258585000Y-113311335D01*
X258585000Y-113028665D01*
X258529853Y-112751426D01*
X258456361Y-112574000D01*
X259471928Y-112574000D01*
X259471928Y-114274000D01*
X259484188Y-114398482D01*
X259520498Y-114518180D01*
X259579463Y-114628494D01*
X259658815Y-114725185D01*
X259755506Y-114804537D01*
X259865820Y-114863502D01*
X259938380Y-114885513D01*
X259806525Y-115017368D01*
X259644010Y-115260589D01*
X259532068Y-115530842D01*
X259475000Y-115817740D01*
X259475000Y-116110260D01*
X259532068Y-116397158D01*
X259644010Y-116667411D01*
X259806525Y-116910632D01*
X260013368Y-117117475D01*
X260195534Y-117239195D01*
X260078645Y-117308822D01*
X259862412Y-117503731D01*
X259688359Y-117737080D01*
X259563175Y-117999901D01*
X259518524Y-118147110D01*
X259639845Y-118377000D01*
X260833000Y-118377000D01*
X260833000Y-118357000D01*
X261087000Y-118357000D01*
X261087000Y-118377000D01*
X263373000Y-118377000D01*
X263373000Y-118357000D01*
X263627000Y-118357000D01*
X263627000Y-118377000D01*
X265913000Y-118377000D01*
X265913000Y-118357000D01*
X266167000Y-118357000D01*
X266167000Y-118377000D01*
X267360155Y-118377000D01*
X267481476Y-118147110D01*
X267436825Y-117999901D01*
X267311641Y-117737080D01*
X267137588Y-117503731D01*
X266921355Y-117308822D01*
X266804466Y-117239195D01*
X266986632Y-117117475D01*
X267193475Y-116910632D01*
X267355990Y-116667411D01*
X267467932Y-116397158D01*
X267525000Y-116110260D01*
X267525000Y-115817740D01*
X267467932Y-115530842D01*
X267355990Y-115260589D01*
X267193475Y-115017368D01*
X267061620Y-114885513D01*
X267134180Y-114863502D01*
X267244494Y-114804537D01*
X267341185Y-114725185D01*
X267420537Y-114628494D01*
X267479502Y-114518180D01*
X267515812Y-114398482D01*
X267528072Y-114274000D01*
X267528072Y-112574000D01*
X267515812Y-112449518D01*
X267479502Y-112329820D01*
X267420537Y-112219506D01*
X267341185Y-112122815D01*
X267244494Y-112043463D01*
X267134180Y-111984498D01*
X267014482Y-111948188D01*
X266890000Y-111935928D01*
X265190000Y-111935928D01*
X265065518Y-111948188D01*
X264945820Y-111984498D01*
X264835506Y-112043463D01*
X264770000Y-112097222D01*
X264704494Y-112043463D01*
X264594180Y-111984498D01*
X264474482Y-111948188D01*
X264350000Y-111935928D01*
X262650000Y-111935928D01*
X262525518Y-111948188D01*
X262405820Y-111984498D01*
X262295506Y-112043463D01*
X262230000Y-112097222D01*
X262164494Y-112043463D01*
X262054180Y-111984498D01*
X261934482Y-111948188D01*
X261810000Y-111935928D01*
X260110000Y-111935928D01*
X259985518Y-111948188D01*
X259865820Y-111984498D01*
X259755506Y-112043463D01*
X259658815Y-112122815D01*
X259579463Y-112219506D01*
X259520498Y-112329820D01*
X259484188Y-112449518D01*
X259471928Y-112574000D01*
X258456361Y-112574000D01*
X258421680Y-112490273D01*
X258264637Y-112255241D01*
X258064759Y-112055363D01*
X257832241Y-111900000D01*
X258064759Y-111744637D01*
X258264637Y-111544759D01*
X258421680Y-111309727D01*
X258529853Y-111048574D01*
X258585000Y-110771335D01*
X258585000Y-110488665D01*
X258529853Y-110211426D01*
X258421680Y-109950273D01*
X258264637Y-109715241D01*
X258064759Y-109515363D01*
X257832241Y-109360000D01*
X258064759Y-109204637D01*
X258264637Y-109004759D01*
X258421680Y-108769727D01*
X258529853Y-108508574D01*
X258585000Y-108231335D01*
X258585000Y-107948665D01*
X258529853Y-107671426D01*
X258421680Y-107410273D01*
X258264637Y-107175241D01*
X258064759Y-106975363D01*
X257832241Y-106820000D01*
X258064759Y-106664637D01*
X258264637Y-106464759D01*
X258421680Y-106229727D01*
X258529853Y-105968574D01*
X258585000Y-105691335D01*
X258585000Y-105408665D01*
X268415000Y-105408665D01*
X268415000Y-105691335D01*
X268470147Y-105968574D01*
X268578320Y-106229727D01*
X268735363Y-106464759D01*
X268935241Y-106664637D01*
X269170273Y-106821680D01*
X269180865Y-106826067D01*
X268994869Y-106937615D01*
X268786481Y-107126586D01*
X268618963Y-107352580D01*
X268498754Y-107606913D01*
X268458096Y-107740961D01*
X268580085Y-107963000D01*
X269723000Y-107963000D01*
X269723000Y-107943000D01*
X269977000Y-107943000D01*
X269977000Y-107963000D01*
X271119915Y-107963000D01*
X271241904Y-107740961D01*
X271201246Y-107606913D01*
X271081037Y-107352580D01*
X270913519Y-107126586D01*
X270705131Y-106937615D01*
X270519135Y-106826067D01*
X270529727Y-106821680D01*
X270764759Y-106664637D01*
X270964637Y-106464759D01*
X271121680Y-106229727D01*
X271229853Y-105968574D01*
X271285000Y-105691335D01*
X271285000Y-105408665D01*
X271229853Y-105131426D01*
X271121680Y-104870273D01*
X270964637Y-104635241D01*
X270764759Y-104435363D01*
X270529727Y-104278320D01*
X270268574Y-104170147D01*
X269991335Y-104115000D01*
X269708665Y-104115000D01*
X269431426Y-104170147D01*
X269170273Y-104278320D01*
X268935241Y-104435363D01*
X268735363Y-104635241D01*
X268578320Y-104870273D01*
X268470147Y-105131426D01*
X268415000Y-105408665D01*
X258585000Y-105408665D01*
X258529853Y-105131426D01*
X258421680Y-104870273D01*
X258264637Y-104635241D01*
X258064759Y-104435363D01*
X257829727Y-104278320D01*
X257568574Y-104170147D01*
X257291335Y-104115000D01*
X257008665Y-104115000D01*
X256731426Y-104170147D01*
X256470273Y-104278320D01*
X256235241Y-104435363D01*
X256035363Y-104635241D01*
X255878320Y-104870273D01*
X255770147Y-105131426D01*
X255715000Y-105408665D01*
X253491069Y-105408665D01*
X253509502Y-105374180D01*
X253545812Y-105254482D01*
X253558072Y-105130000D01*
X253558072Y-103430000D01*
X253545812Y-103305518D01*
X253509502Y-103185820D01*
X253450537Y-103075506D01*
X253371185Y-102978815D01*
X253274494Y-102899463D01*
X253164180Y-102840498D01*
X253044482Y-102804188D01*
X252920000Y-102791928D01*
X251220000Y-102791928D01*
X251095518Y-102804188D01*
X250975820Y-102840498D01*
X250865506Y-102899463D01*
X250800000Y-102953222D01*
X250734494Y-102899463D01*
X250624180Y-102840498D01*
X250504482Y-102804188D01*
X250380000Y-102791928D01*
X248680000Y-102791928D01*
X248555518Y-102804188D01*
X248435820Y-102840498D01*
X248325506Y-102899463D01*
X248228815Y-102978815D01*
X248149463Y-103075506D01*
X248090498Y-103185820D01*
X248054188Y-103305518D01*
X248041928Y-103430000D01*
X244609772Y-103430000D01*
X244440516Y-103378657D01*
X244200322Y-103355000D01*
X244200319Y-103355000D01*
X244120000Y-103347089D01*
X244039681Y-103355000D01*
X243018120Y-103355000D01*
X243067923Y-103294315D01*
X243187246Y-103174992D01*
X245020330Y-103174992D01*
X245260524Y-103151335D01*
X245568723Y-103057844D01*
X245852760Y-102906023D01*
X246101722Y-102701706D01*
X246306039Y-102452744D01*
X246368439Y-102336000D01*
X265059928Y-102336000D01*
X265072188Y-102460482D01*
X265108498Y-102580180D01*
X265167463Y-102690494D01*
X265246815Y-102787185D01*
X265343506Y-102866537D01*
X265453820Y-102925502D01*
X265573518Y-102961812D01*
X265698000Y-102974072D01*
X266262250Y-102971000D01*
X266421000Y-102812250D01*
X266421000Y-101613000D01*
X266675000Y-101613000D01*
X266675000Y-102812250D01*
X266833750Y-102971000D01*
X267398000Y-102974072D01*
X267522482Y-102961812D01*
X267642180Y-102925502D01*
X267752494Y-102866537D01*
X267849185Y-102787185D01*
X267928537Y-102690494D01*
X267987502Y-102580180D01*
X268023812Y-102460482D01*
X268036072Y-102336000D01*
X268035567Y-102243137D01*
X280655000Y-102243137D01*
X280655000Y-102456863D01*
X280696696Y-102666483D01*
X280778485Y-102863940D01*
X280897225Y-103041647D01*
X281048353Y-103192775D01*
X281226060Y-103311515D01*
X281423517Y-103393304D01*
X281633137Y-103435000D01*
X281846863Y-103435000D01*
X282056483Y-103393304D01*
X282253940Y-103311515D01*
X282431647Y-103192775D01*
X282582775Y-103041647D01*
X282701515Y-102863940D01*
X282783304Y-102666483D01*
X282825000Y-102456863D01*
X282825000Y-102243137D01*
X282783304Y-102033517D01*
X282701515Y-101836060D01*
X282582775Y-101658353D01*
X282431647Y-101507225D01*
X282253940Y-101388485D01*
X282056483Y-101306696D01*
X281846863Y-101265000D01*
X281633137Y-101265000D01*
X281423517Y-101306696D01*
X281226060Y-101388485D01*
X281048353Y-101507225D01*
X280897225Y-101658353D01*
X280778485Y-101836060D01*
X280696696Y-102033517D01*
X280655000Y-102243137D01*
X268035567Y-102243137D01*
X268033000Y-101771750D01*
X267874250Y-101613000D01*
X266675000Y-101613000D01*
X266421000Y-101613000D01*
X265221750Y-101613000D01*
X265063000Y-101771750D01*
X265059928Y-102336000D01*
X246368439Y-102336000D01*
X246457860Y-102168707D01*
X246551351Y-101860508D01*
X246582919Y-101539992D01*
X246551351Y-101219476D01*
X246457860Y-100911277D01*
X246310722Y-100636000D01*
X265059928Y-100636000D01*
X265063000Y-101200250D01*
X265221750Y-101359000D01*
X266421000Y-101359000D01*
X266421000Y-101339000D01*
X266675000Y-101339000D01*
X266675000Y-101359000D01*
X267874250Y-101359000D01*
X268033000Y-101200250D01*
X268036072Y-100636000D01*
X268023812Y-100511518D01*
X267987502Y-100391820D01*
X267928537Y-100281506D01*
X267849185Y-100184815D01*
X267752494Y-100105463D01*
X267642180Y-100046498D01*
X267569620Y-100024487D01*
X267701475Y-99892632D01*
X267863990Y-99649411D01*
X267975932Y-99379158D01*
X268033000Y-99092260D01*
X268033000Y-98799740D01*
X267975932Y-98512842D01*
X267863990Y-98242589D01*
X267701475Y-97999368D01*
X267494632Y-97792525D01*
X267251411Y-97630010D01*
X266981158Y-97518068D01*
X266694260Y-97461000D01*
X266401740Y-97461000D01*
X266114842Y-97518068D01*
X265844589Y-97630010D01*
X265601368Y-97792525D01*
X265394525Y-97999368D01*
X265232010Y-98242589D01*
X265120068Y-98512842D01*
X265063000Y-98799740D01*
X265063000Y-99092260D01*
X265120068Y-99379158D01*
X265232010Y-99649411D01*
X265394525Y-99892632D01*
X265526380Y-100024487D01*
X265453820Y-100046498D01*
X265343506Y-100105463D01*
X265246815Y-100184815D01*
X265167463Y-100281506D01*
X265108498Y-100391820D01*
X265072188Y-100511518D01*
X265059928Y-100636000D01*
X246310722Y-100636000D01*
X246306039Y-100627240D01*
X246101722Y-100378278D01*
X245852760Y-100173961D01*
X245568723Y-100022140D01*
X245260524Y-99928649D01*
X245020330Y-99904992D01*
X244178792Y-99904992D01*
X244375158Y-99865932D01*
X244645411Y-99753990D01*
X244888632Y-99591475D01*
X245095475Y-99384632D01*
X245212000Y-99210240D01*
X245328525Y-99384632D01*
X245535368Y-99591475D01*
X245778589Y-99753990D01*
X246048842Y-99865932D01*
X246335740Y-99923000D01*
X246628260Y-99923000D01*
X246915158Y-99865932D01*
X247185411Y-99753990D01*
X247428632Y-99591475D01*
X247635475Y-99384632D01*
X247752000Y-99210240D01*
X247868525Y-99384632D01*
X248075368Y-99591475D01*
X248318589Y-99753990D01*
X248588842Y-99865932D01*
X248875740Y-99923000D01*
X249168260Y-99923000D01*
X249455158Y-99865932D01*
X249725411Y-99753990D01*
X249968632Y-99591475D01*
X250175475Y-99384632D01*
X250292000Y-99210240D01*
X250408525Y-99384632D01*
X250615368Y-99591475D01*
X250858589Y-99753990D01*
X251128842Y-99865932D01*
X251415740Y-99923000D01*
X251708260Y-99923000D01*
X251995158Y-99865932D01*
X252265411Y-99753990D01*
X252508632Y-99591475D01*
X252715475Y-99384632D01*
X252832000Y-99210240D01*
X252948525Y-99384632D01*
X253155368Y-99591475D01*
X253398589Y-99753990D01*
X253668842Y-99865932D01*
X253955740Y-99923000D01*
X254248260Y-99923000D01*
X254535158Y-99865932D01*
X254805411Y-99753990D01*
X255048632Y-99591475D01*
X255255475Y-99384632D01*
X255372000Y-99210240D01*
X255488525Y-99384632D01*
X255695368Y-99591475D01*
X255938589Y-99753990D01*
X256208842Y-99865932D01*
X256495740Y-99923000D01*
X256788260Y-99923000D01*
X257075158Y-99865932D01*
X257345411Y-99753990D01*
X257588632Y-99591475D01*
X257795475Y-99384632D01*
X257957990Y-99141411D01*
X258069932Y-98871158D01*
X258127000Y-98584260D01*
X258127000Y-98291740D01*
X258069932Y-98004842D01*
X257957990Y-97734589D01*
X257795475Y-97491368D01*
X257588632Y-97284525D01*
X257414240Y-97168000D01*
X257588632Y-97051475D01*
X257795475Y-96844632D01*
X257957990Y-96601411D01*
X258069932Y-96331158D01*
X258127000Y-96044260D01*
X258127000Y-95751740D01*
X258069932Y-95464842D01*
X257957990Y-95194589D01*
X257795475Y-94951368D01*
X257588632Y-94744525D01*
X257345411Y-94582010D01*
X257075158Y-94470068D01*
X256856129Y-94426500D01*
X259852389Y-94426500D01*
X259452907Y-94693425D01*
X259003425Y-95142907D01*
X258650270Y-95671442D01*
X258407012Y-96258719D01*
X258283000Y-96882168D01*
X258283000Y-97517832D01*
X258407012Y-98141281D01*
X258650270Y-98728558D01*
X259003425Y-99257093D01*
X259452907Y-99706575D01*
X259981442Y-100059730D01*
X260568719Y-100302988D01*
X261192168Y-100427000D01*
X261827832Y-100427000D01*
X262451281Y-100302988D01*
X263038558Y-100059730D01*
X263567093Y-99706575D01*
X264016575Y-99257093D01*
X264369730Y-98728558D01*
X264612988Y-98141281D01*
X264737000Y-97517832D01*
X264737000Y-96882168D01*
X264612988Y-96258719D01*
X264369730Y-95671442D01*
X264016575Y-95142907D01*
X263567093Y-94693425D01*
X263167611Y-94426500D01*
X281974155Y-94426500D01*
X282449355Y-94473093D01*
X282871881Y-94600661D01*
X283261581Y-94807868D01*
X283603611Y-95086820D01*
X283884948Y-95426898D01*
X284094870Y-95815139D01*
X284225385Y-96236768D01*
X284275101Y-96709772D01*
X284275100Y-146655546D01*
X284228506Y-147130756D01*
X284100937Y-147553282D01*
X283893731Y-147942980D01*
X283614776Y-148285014D01*
X283274704Y-148566347D01*
X282886456Y-148776272D01*
X282464836Y-148906784D01*
X281991837Y-148956500D01*
X263178087Y-148956500D01*
X263567093Y-148696575D01*
X264016575Y-148247093D01*
X264369730Y-147718558D01*
X264612988Y-147131281D01*
X264737000Y-146507832D01*
X264737000Y-145872168D01*
X264612988Y-145248719D01*
X264369730Y-144661442D01*
X264016575Y-144132907D01*
X263567093Y-143683425D01*
X263038558Y-143330270D01*
X262451281Y-143087012D01*
X261827832Y-142963000D01*
X261192168Y-142963000D01*
X260568719Y-143087012D01*
X259981442Y-143330270D01*
X259452907Y-143683425D01*
X259003425Y-144132907D01*
X258650270Y-144661442D01*
X258407012Y-145248719D01*
X258283000Y-145872168D01*
X258283000Y-146507832D01*
X258407012Y-147131281D01*
X258650270Y-147718558D01*
X259003425Y-148247093D01*
X259452907Y-148696575D01*
X259841913Y-148956500D01*
X205193053Y-148956500D01*
X205567093Y-148706575D01*
X206016575Y-148257093D01*
X206310707Y-147816891D01*
X208718519Y-147816891D01*
X208815843Y-148091252D01*
X208964822Y-148341355D01*
X209159731Y-148557588D01*
X209393080Y-148731641D01*
X209655901Y-148856825D01*
X209803110Y-148901476D01*
X210033000Y-148780155D01*
X210033000Y-147587000D01*
X208839186Y-147587000D01*
X208718519Y-147816891D01*
X206310707Y-147816891D01*
X206369730Y-147728558D01*
X206612988Y-147141281D01*
X206737000Y-146517832D01*
X206737000Y-145882168D01*
X206612988Y-145258719D01*
X206369730Y-144671442D01*
X206016575Y-144142907D01*
X205943668Y-144070000D01*
X208671928Y-144070000D01*
X208671928Y-145770000D01*
X208684188Y-145894482D01*
X208720498Y-146014180D01*
X208779463Y-146124494D01*
X208858815Y-146221185D01*
X208955506Y-146300537D01*
X209065820Y-146359502D01*
X209141626Y-146382498D01*
X208964822Y-146578645D01*
X208815843Y-146828748D01*
X208718519Y-147103109D01*
X208839186Y-147333000D01*
X210033000Y-147333000D01*
X210033000Y-147313000D01*
X210287000Y-147313000D01*
X210287000Y-147333000D01*
X210307000Y-147333000D01*
X210307000Y-147587000D01*
X210287000Y-147587000D01*
X210287000Y-148780155D01*
X210516890Y-148901476D01*
X210664099Y-148856825D01*
X210926920Y-148731641D01*
X211160269Y-148557588D01*
X211355178Y-148341355D01*
X211424805Y-148224466D01*
X211546525Y-148406632D01*
X211753368Y-148613475D01*
X211996589Y-148775990D01*
X212266842Y-148887932D01*
X212553740Y-148945000D01*
X212846260Y-148945000D01*
X213133158Y-148887932D01*
X213403411Y-148775990D01*
X213646632Y-148613475D01*
X213853475Y-148406632D01*
X213975195Y-148224466D01*
X214044822Y-148341355D01*
X214239731Y-148557588D01*
X214473080Y-148731641D01*
X214735901Y-148856825D01*
X214883110Y-148901476D01*
X215113000Y-148780155D01*
X215113000Y-147587000D01*
X215093000Y-147587000D01*
X215093000Y-147333000D01*
X215113000Y-147333000D01*
X215113000Y-147313000D01*
X215367000Y-147313000D01*
X215367000Y-147333000D01*
X215387000Y-147333000D01*
X215387000Y-147587000D01*
X215367000Y-147587000D01*
X215367000Y-148780155D01*
X215596890Y-148901476D01*
X215744099Y-148856825D01*
X216006920Y-148731641D01*
X216240269Y-148557588D01*
X216435178Y-148341355D01*
X216504805Y-148224466D01*
X216626525Y-148406632D01*
X216833368Y-148613475D01*
X217076589Y-148775990D01*
X217346842Y-148887932D01*
X217633740Y-148945000D01*
X217926260Y-148945000D01*
X218213158Y-148887932D01*
X218483411Y-148775990D01*
X218726632Y-148613475D01*
X218933475Y-148406632D01*
X219095990Y-148163411D01*
X219207932Y-147893158D01*
X219265000Y-147606260D01*
X219265000Y-147313740D01*
X219207932Y-147026842D01*
X219095990Y-146756589D01*
X218933475Y-146513368D01*
X218726632Y-146306525D01*
X218550594Y-146188900D01*
X218780269Y-146017588D01*
X218975178Y-145801355D01*
X219124157Y-145551252D01*
X219221481Y-145276891D01*
X219100814Y-145047000D01*
X217907000Y-145047000D01*
X217907000Y-145067000D01*
X217653000Y-145067000D01*
X217653000Y-145047000D01*
X217633000Y-145047000D01*
X217633000Y-144793000D01*
X217653000Y-144793000D01*
X217653000Y-143599845D01*
X217907000Y-143599845D01*
X217907000Y-144793000D01*
X219100814Y-144793000D01*
X219221481Y-144563109D01*
X219124157Y-144288748D01*
X218982620Y-144051137D01*
X225585000Y-144051137D01*
X225585000Y-144264863D01*
X225626696Y-144474483D01*
X225708485Y-144671940D01*
X225827225Y-144849647D01*
X225978353Y-145000775D01*
X226156060Y-145119515D01*
X226353517Y-145201304D01*
X226563137Y-145243000D01*
X226776863Y-145243000D01*
X226986483Y-145201304D01*
X227183940Y-145119515D01*
X227361647Y-145000775D01*
X227512775Y-144849647D01*
X227631515Y-144671940D01*
X227661641Y-144599208D01*
X227680060Y-144611515D01*
X227877517Y-144693304D01*
X228087137Y-144735000D01*
X228300863Y-144735000D01*
X228510483Y-144693304D01*
X228707940Y-144611515D01*
X228885647Y-144492775D01*
X229036775Y-144341647D01*
X229155515Y-144163940D01*
X229202239Y-144051137D01*
X236507000Y-144051137D01*
X236507000Y-144264863D01*
X236548696Y-144474483D01*
X236630485Y-144671940D01*
X236749225Y-144849647D01*
X236900353Y-145000775D01*
X237078060Y-145119515D01*
X237275517Y-145201304D01*
X237485137Y-145243000D01*
X237698863Y-145243000D01*
X237908483Y-145201304D01*
X238105940Y-145119515D01*
X238283647Y-145000775D01*
X238434775Y-144849647D01*
X238553515Y-144671940D01*
X238635304Y-144474483D01*
X238638618Y-144457823D01*
X238755137Y-144481000D01*
X238968863Y-144481000D01*
X239178483Y-144439304D01*
X239375940Y-144357515D01*
X239553647Y-144238775D01*
X239704775Y-144087647D01*
X239823515Y-143909940D01*
X239905304Y-143712483D01*
X239947000Y-143502863D01*
X239947000Y-143289137D01*
X239905304Y-143079517D01*
X239823515Y-142882060D01*
X239704775Y-142704353D01*
X239553647Y-142553225D01*
X239514604Y-142527137D01*
X242603000Y-142527137D01*
X242603000Y-142740863D01*
X242644696Y-142950483D01*
X242726485Y-143147940D01*
X242845225Y-143325647D01*
X242996353Y-143476775D01*
X243174060Y-143595515D01*
X243371517Y-143677304D01*
X243581137Y-143719000D01*
X243794863Y-143719000D01*
X244004483Y-143677304D01*
X244201940Y-143595515D01*
X244379647Y-143476775D01*
X244530775Y-143325647D01*
X244649515Y-143147940D01*
X244731304Y-142950483D01*
X244773000Y-142740863D01*
X244773000Y-142527137D01*
X244889000Y-142527137D01*
X244889000Y-142740863D01*
X244930696Y-142950483D01*
X245012485Y-143147940D01*
X245131225Y-143325647D01*
X245282353Y-143476775D01*
X245460060Y-143595515D01*
X245657517Y-143677304D01*
X245867137Y-143719000D01*
X246080863Y-143719000D01*
X246290483Y-143677304D01*
X246487940Y-143595515D01*
X246665647Y-143476775D01*
X246816775Y-143325647D01*
X246935515Y-143147940D01*
X247017304Y-142950483D01*
X247059000Y-142740863D01*
X247059000Y-142527137D01*
X247017304Y-142317517D01*
X246935515Y-142120060D01*
X246816775Y-141942353D01*
X246665647Y-141791225D01*
X246487940Y-141672485D01*
X246290483Y-141590696D01*
X246080863Y-141549000D01*
X245867137Y-141549000D01*
X245657517Y-141590696D01*
X245460060Y-141672485D01*
X245282353Y-141791225D01*
X245131225Y-141942353D01*
X245012485Y-142120060D01*
X244930696Y-142317517D01*
X244889000Y-142527137D01*
X244773000Y-142527137D01*
X244731304Y-142317517D01*
X244649515Y-142120060D01*
X244530775Y-141942353D01*
X244379647Y-141791225D01*
X244201940Y-141672485D01*
X244004483Y-141590696D01*
X243794863Y-141549000D01*
X243581137Y-141549000D01*
X243371517Y-141590696D01*
X243174060Y-141672485D01*
X242996353Y-141791225D01*
X242845225Y-141942353D01*
X242726485Y-142120060D01*
X242644696Y-142317517D01*
X242603000Y-142527137D01*
X239514604Y-142527137D01*
X239375940Y-142434485D01*
X239178483Y-142352696D01*
X238968863Y-142311000D01*
X238755137Y-142311000D01*
X238545517Y-142352696D01*
X238348060Y-142434485D01*
X238170353Y-142553225D01*
X238019225Y-142704353D01*
X237900485Y-142882060D01*
X237818696Y-143079517D01*
X237815382Y-143096177D01*
X237698863Y-143073000D01*
X237485137Y-143073000D01*
X237275517Y-143114696D01*
X237078060Y-143196485D01*
X236900353Y-143315225D01*
X236749225Y-143466353D01*
X236630485Y-143644060D01*
X236548696Y-143841517D01*
X236507000Y-144051137D01*
X229202239Y-144051137D01*
X229237304Y-143966483D01*
X229279000Y-143756863D01*
X229279000Y-143662640D01*
X229426483Y-143633304D01*
X229623940Y-143551515D01*
X229801647Y-143432775D01*
X229952775Y-143281647D01*
X230071515Y-143103940D01*
X230153304Y-142906483D01*
X230195000Y-142696863D01*
X230195000Y-142483137D01*
X230153304Y-142273517D01*
X230071515Y-142076060D01*
X229952775Y-141898353D01*
X229801647Y-141747225D01*
X229623940Y-141628485D01*
X229426483Y-141546696D01*
X229216863Y-141505000D01*
X229003137Y-141505000D01*
X228793517Y-141546696D01*
X228596060Y-141628485D01*
X228418353Y-141747225D01*
X228267225Y-141898353D01*
X228148485Y-142076060D01*
X228066696Y-142273517D01*
X228025000Y-142483137D01*
X228025000Y-142577360D01*
X227877517Y-142606696D01*
X227680060Y-142688485D01*
X227502353Y-142807225D01*
X227351225Y-142958353D01*
X227232485Y-143136060D01*
X227202359Y-143208792D01*
X227183940Y-143196485D01*
X226986483Y-143114696D01*
X226776863Y-143073000D01*
X226563137Y-143073000D01*
X226353517Y-143114696D01*
X226156060Y-143196485D01*
X225978353Y-143315225D01*
X225827225Y-143466353D01*
X225708485Y-143644060D01*
X225626696Y-143841517D01*
X225585000Y-144051137D01*
X218982620Y-144051137D01*
X218975178Y-144038645D01*
X218780269Y-143822412D01*
X218546920Y-143648359D01*
X218284099Y-143523175D01*
X218136890Y-143478524D01*
X217907000Y-143599845D01*
X217653000Y-143599845D01*
X217423110Y-143478524D01*
X217275901Y-143523175D01*
X217013080Y-143648359D01*
X216779731Y-143822412D01*
X216584822Y-144038645D01*
X216515195Y-144155534D01*
X216393475Y-143973368D01*
X216186632Y-143766525D01*
X215943411Y-143604010D01*
X215673158Y-143492068D01*
X215386260Y-143435000D01*
X215093740Y-143435000D01*
X214806842Y-143492068D01*
X214536589Y-143604010D01*
X214293368Y-143766525D01*
X214086525Y-143973368D01*
X213964805Y-144155534D01*
X213895178Y-144038645D01*
X213700269Y-143822412D01*
X213466920Y-143648359D01*
X213204099Y-143523175D01*
X213056890Y-143478524D01*
X212827000Y-143599845D01*
X212827000Y-144793000D01*
X212847000Y-144793000D01*
X212847000Y-145047000D01*
X212827000Y-145047000D01*
X212827000Y-145067000D01*
X212573000Y-145067000D01*
X212573000Y-145047000D01*
X212553000Y-145047000D01*
X212553000Y-144793000D01*
X212573000Y-144793000D01*
X212573000Y-143599845D01*
X212343110Y-143478524D01*
X212195901Y-143523175D01*
X211933080Y-143648359D01*
X211699731Y-143822412D01*
X211623966Y-143906466D01*
X211599502Y-143825820D01*
X211540537Y-143715506D01*
X211461185Y-143618815D01*
X211364494Y-143539463D01*
X211254180Y-143480498D01*
X211134482Y-143444188D01*
X211010000Y-143431928D01*
X209310000Y-143431928D01*
X209185518Y-143444188D01*
X209065820Y-143480498D01*
X208955506Y-143539463D01*
X208858815Y-143618815D01*
X208779463Y-143715506D01*
X208720498Y-143825820D01*
X208684188Y-143945518D01*
X208671928Y-144070000D01*
X205943668Y-144070000D01*
X205567093Y-143693425D01*
X205038558Y-143340270D01*
X204451281Y-143097012D01*
X203827832Y-142973000D01*
X203192168Y-142973000D01*
X202568719Y-143097012D01*
X201981442Y-143340270D01*
X201452907Y-143693425D01*
X201003425Y-144142907D01*
X200745100Y-144529519D01*
X200745100Y-132500000D01*
X202181928Y-132500000D01*
X202181928Y-135500000D01*
X202194188Y-135624482D01*
X202230498Y-135744180D01*
X202289463Y-135854494D01*
X202368815Y-135951185D01*
X202465506Y-136030537D01*
X202575820Y-136089502D01*
X202695518Y-136125812D01*
X202820000Y-136138072D01*
X204949689Y-136138072D01*
X204142762Y-136945000D01*
X204109721Y-136945000D01*
X203697244Y-137027047D01*
X203308698Y-137187988D01*
X202959017Y-137421637D01*
X202661637Y-137719017D01*
X202427988Y-138068698D01*
X202267047Y-138457244D01*
X202185000Y-138869721D01*
X202185000Y-139290279D01*
X202267047Y-139702756D01*
X202427988Y-140091302D01*
X202661637Y-140440983D01*
X202959017Y-140738363D01*
X203308698Y-140972012D01*
X203697244Y-141132953D01*
X204109721Y-141215000D01*
X204530279Y-141215000D01*
X204942756Y-141132953D01*
X205331302Y-140972012D01*
X205680983Y-140738363D01*
X205978363Y-140440983D01*
X206212012Y-140091302D01*
X206372953Y-139702756D01*
X206455000Y-139290279D01*
X206455000Y-139257238D01*
X207267239Y-138445000D01*
X214740432Y-138445000D01*
X214701696Y-138538517D01*
X214660000Y-138748137D01*
X214660000Y-138961863D01*
X214701696Y-139171483D01*
X214783485Y-139368940D01*
X214902225Y-139546647D01*
X215003998Y-139648420D01*
X214871060Y-139703485D01*
X214693353Y-139822225D01*
X214542225Y-139973353D01*
X214423485Y-140151060D01*
X214341696Y-140348517D01*
X214300000Y-140558137D01*
X214300000Y-140771863D01*
X214341696Y-140981483D01*
X214423485Y-141178940D01*
X214542225Y-141356647D01*
X214693353Y-141507775D01*
X214871060Y-141626515D01*
X215068517Y-141708304D01*
X215278137Y-141750000D01*
X215491863Y-141750000D01*
X215701483Y-141708304D01*
X215898940Y-141626515D01*
X216076647Y-141507775D01*
X216227775Y-141356647D01*
X216346515Y-141178940D01*
X216428304Y-140981483D01*
X216470000Y-140771863D01*
X216470000Y-140558137D01*
X216469006Y-140553137D01*
X217175000Y-140553137D01*
X217175000Y-140766863D01*
X217216696Y-140976483D01*
X217298485Y-141173940D01*
X217417225Y-141351647D01*
X217568353Y-141502775D01*
X217746060Y-141621515D01*
X217943517Y-141703304D01*
X218153137Y-141745000D01*
X218366863Y-141745000D01*
X218576483Y-141703304D01*
X218773940Y-141621515D01*
X218951647Y-141502775D01*
X219102775Y-141351647D01*
X219128506Y-141313137D01*
X225635000Y-141313137D01*
X225635000Y-141526863D01*
X225676696Y-141736483D01*
X225758485Y-141933940D01*
X225877225Y-142111647D01*
X226028353Y-142262775D01*
X226206060Y-142381515D01*
X226403517Y-142463304D01*
X226613137Y-142505000D01*
X226826863Y-142505000D01*
X227036483Y-142463304D01*
X227233940Y-142381515D01*
X227411647Y-142262775D01*
X227562775Y-142111647D01*
X227681515Y-141933940D01*
X227763304Y-141736483D01*
X227805000Y-141526863D01*
X227805000Y-141313137D01*
X227763304Y-141103517D01*
X227681515Y-140906060D01*
X227562775Y-140728353D01*
X227411647Y-140577225D01*
X227233940Y-140458485D01*
X227036483Y-140376696D01*
X226826863Y-140335000D01*
X226613137Y-140335000D01*
X226403517Y-140376696D01*
X226206060Y-140458485D01*
X226028353Y-140577225D01*
X225877225Y-140728353D01*
X225758485Y-140906060D01*
X225676696Y-141103517D01*
X225635000Y-141313137D01*
X219128506Y-141313137D01*
X219221515Y-141173940D01*
X219303304Y-140976483D01*
X219345000Y-140766863D01*
X219345000Y-140553137D01*
X219303304Y-140343517D01*
X219221515Y-140146060D01*
X219166108Y-140063137D01*
X229795000Y-140063137D01*
X229795000Y-140276863D01*
X229836696Y-140486483D01*
X229918485Y-140683940D01*
X230037225Y-140861647D01*
X230188353Y-141012775D01*
X230366060Y-141131515D01*
X230563517Y-141213304D01*
X230773137Y-141255000D01*
X230986863Y-141255000D01*
X231196483Y-141213304D01*
X231393940Y-141131515D01*
X231571647Y-141012775D01*
X231722775Y-140861647D01*
X231841515Y-140683940D01*
X231923304Y-140486483D01*
X231965000Y-140276863D01*
X231965000Y-140063137D01*
X231923304Y-139853517D01*
X231841515Y-139656060D01*
X231722775Y-139478353D01*
X231571647Y-139327225D01*
X231393940Y-139208485D01*
X231196483Y-139126696D01*
X230986863Y-139085000D01*
X230773137Y-139085000D01*
X230563517Y-139126696D01*
X230366060Y-139208485D01*
X230188353Y-139327225D01*
X230037225Y-139478353D01*
X229918485Y-139656060D01*
X229836696Y-139853517D01*
X229795000Y-140063137D01*
X219166108Y-140063137D01*
X219102775Y-139968353D01*
X218951647Y-139817225D01*
X218773940Y-139698485D01*
X218576483Y-139616696D01*
X218366863Y-139575000D01*
X218153137Y-139575000D01*
X217943517Y-139616696D01*
X217746060Y-139698485D01*
X217568353Y-139817225D01*
X217417225Y-139968353D01*
X217298485Y-140146060D01*
X217216696Y-140343517D01*
X217175000Y-140553137D01*
X216469006Y-140553137D01*
X216428304Y-140348517D01*
X216346515Y-140151060D01*
X216227775Y-139973353D01*
X216126002Y-139871580D01*
X216258940Y-139816515D01*
X216436647Y-139697775D01*
X216587775Y-139546647D01*
X216706515Y-139368940D01*
X216788304Y-139171483D01*
X216830000Y-138961863D01*
X216830000Y-138748137D01*
X216788304Y-138538517D01*
X216749568Y-138445000D01*
X243632761Y-138445000D01*
X245100676Y-139912916D01*
X245287247Y-140066030D01*
X245571285Y-140217852D01*
X245879483Y-140311343D01*
X246200000Y-140342911D01*
X246520516Y-140311343D01*
X246828715Y-140217852D01*
X247112752Y-140066030D01*
X247361713Y-139861713D01*
X247566030Y-139612752D01*
X247717852Y-139328715D01*
X247811343Y-139020516D01*
X247842911Y-138700000D01*
X247811343Y-138379483D01*
X247717852Y-138071285D01*
X247566030Y-137787247D01*
X247510843Y-137720000D01*
X248041928Y-137720000D01*
X248041928Y-139420000D01*
X248054188Y-139544482D01*
X248090498Y-139664180D01*
X248149463Y-139774494D01*
X248228815Y-139871185D01*
X248325506Y-139950537D01*
X248435820Y-140009502D01*
X248508380Y-140031513D01*
X248376525Y-140163368D01*
X248214010Y-140406589D01*
X248102068Y-140676842D01*
X248045000Y-140963740D01*
X248045000Y-141256260D01*
X248102068Y-141543158D01*
X248214010Y-141813411D01*
X248376525Y-142056632D01*
X248583368Y-142263475D01*
X248826589Y-142425990D01*
X248865905Y-142442275D01*
X248706060Y-142508485D01*
X248528353Y-142627225D01*
X248377225Y-142778353D01*
X248258485Y-142956060D01*
X248176696Y-143153517D01*
X248135000Y-143363137D01*
X248135000Y-143576863D01*
X248176696Y-143786483D01*
X248258485Y-143983940D01*
X248377225Y-144161647D01*
X248528353Y-144312775D01*
X248706060Y-144431515D01*
X248903517Y-144513304D01*
X249113137Y-144555000D01*
X249326863Y-144555000D01*
X249536483Y-144513304D01*
X249733940Y-144431515D01*
X249911647Y-144312775D01*
X250062775Y-144161647D01*
X250181515Y-143983940D01*
X250263304Y-143786483D01*
X250305000Y-143576863D01*
X250305000Y-143363137D01*
X250263304Y-143153517D01*
X250181515Y-142956060D01*
X250062775Y-142778353D01*
X249911647Y-142627225D01*
X249820484Y-142566312D01*
X249963158Y-142537932D01*
X250233411Y-142425990D01*
X250476632Y-142263475D01*
X250683475Y-142056632D01*
X250800000Y-141882240D01*
X250916525Y-142056632D01*
X251123368Y-142263475D01*
X251366589Y-142425990D01*
X251636842Y-142537932D01*
X251923740Y-142595000D01*
X252216260Y-142595000D01*
X252503158Y-142537932D01*
X252773411Y-142425990D01*
X253016632Y-142263475D01*
X253223475Y-142056632D01*
X253385990Y-141813411D01*
X253497932Y-141543158D01*
X253555000Y-141256260D01*
X253555000Y-140963740D01*
X253497932Y-140676842D01*
X253385990Y-140406589D01*
X253223475Y-140163368D01*
X253091620Y-140031513D01*
X253164180Y-140009502D01*
X253274494Y-139950537D01*
X253371185Y-139871185D01*
X253450537Y-139774494D01*
X253509502Y-139664180D01*
X253545812Y-139544482D01*
X253558072Y-139420000D01*
X253558072Y-137720000D01*
X253545812Y-137595518D01*
X253509502Y-137475820D01*
X253450537Y-137365506D01*
X253371185Y-137268815D01*
X253274494Y-137189463D01*
X253164180Y-137130498D01*
X253044482Y-137094188D01*
X252920000Y-137081928D01*
X251220000Y-137081928D01*
X251095518Y-137094188D01*
X250975820Y-137130498D01*
X250865506Y-137189463D01*
X250800000Y-137243222D01*
X250734494Y-137189463D01*
X250624180Y-137130498D01*
X250504482Y-137094188D01*
X250380000Y-137081928D01*
X248680000Y-137081928D01*
X248555518Y-137094188D01*
X248435820Y-137130498D01*
X248325506Y-137189463D01*
X248228815Y-137268815D01*
X248149463Y-137365506D01*
X248090498Y-137475820D01*
X248054188Y-137595518D01*
X248041928Y-137720000D01*
X247510843Y-137720000D01*
X247412916Y-137600676D01*
X245522924Y-135710686D01*
X245471714Y-135648286D01*
X245222752Y-135443969D01*
X244938715Y-135292148D01*
X244630516Y-135198657D01*
X244390322Y-135175000D01*
X244390319Y-135175000D01*
X244310000Y-135167089D01*
X244229681Y-135175000D01*
X206670322Y-135175000D01*
X206590000Y-135167089D01*
X206458072Y-135180083D01*
X206458072Y-134554992D01*
X243850330Y-134554992D01*
X244090524Y-134531335D01*
X244172476Y-134506475D01*
X274881000Y-134506475D01*
X274881000Y-135025525D01*
X274982261Y-135534601D01*
X275180893Y-136014141D01*
X275469262Y-136445715D01*
X275836285Y-136812738D01*
X276267859Y-137101107D01*
X276747399Y-137299739D01*
X277256475Y-137401000D01*
X277775525Y-137401000D01*
X278284601Y-137299739D01*
X278764141Y-137101107D01*
X279195715Y-136812738D01*
X279562738Y-136445715D01*
X279851107Y-136014141D01*
X280049739Y-135534601D01*
X280151000Y-135025525D01*
X280151000Y-134506475D01*
X280049739Y-133997399D01*
X279851107Y-133517859D01*
X279562738Y-133086285D01*
X279195715Y-132719262D01*
X278764141Y-132430893D01*
X278284601Y-132232261D01*
X277775525Y-132131000D01*
X277256475Y-132131000D01*
X276747399Y-132232261D01*
X276267859Y-132430893D01*
X275836285Y-132719262D01*
X275469262Y-133086285D01*
X275180893Y-133517859D01*
X274982261Y-133997399D01*
X274881000Y-134506475D01*
X244172476Y-134506475D01*
X244398723Y-134437844D01*
X244682760Y-134286023D01*
X244931722Y-134081706D01*
X245136039Y-133832744D01*
X245287860Y-133548707D01*
X245381351Y-133240508D01*
X245412919Y-132919992D01*
X245381351Y-132599476D01*
X245287860Y-132291277D01*
X245136039Y-132007240D01*
X244931722Y-131758278D01*
X244682760Y-131553961D01*
X244398723Y-131402140D01*
X244090524Y-131308649D01*
X243850330Y-131284992D01*
X205480327Y-131284992D01*
X205400008Y-131277081D01*
X205319688Y-131284992D01*
X205319686Y-131284992D01*
X205079492Y-131308649D01*
X204771293Y-131402140D01*
X204487256Y-131553961D01*
X204238294Y-131758278D01*
X204187083Y-131820679D01*
X204145834Y-131861928D01*
X202820000Y-131861928D01*
X202695518Y-131874188D01*
X202575820Y-131910498D01*
X202465506Y-131969463D01*
X202368815Y-132048815D01*
X202289463Y-132145506D01*
X202230498Y-132255820D01*
X202194188Y-132375518D01*
X202181928Y-132500000D01*
X200745100Y-132500000D01*
X200745100Y-128707721D01*
X202183000Y-128707721D01*
X202183000Y-129128279D01*
X202265047Y-129540756D01*
X202425988Y-129929302D01*
X202659637Y-130278983D01*
X202957017Y-130576363D01*
X203306698Y-130810012D01*
X203695244Y-130970953D01*
X204107721Y-131053000D01*
X204528279Y-131053000D01*
X204940756Y-130970953D01*
X205329302Y-130810012D01*
X205678983Y-130576363D01*
X205702346Y-130553000D01*
X244871681Y-130553000D01*
X244952000Y-130560911D01*
X245032319Y-130553000D01*
X245032322Y-130553000D01*
X245272516Y-130529343D01*
X245580715Y-130435852D01*
X245864752Y-130284031D01*
X246113714Y-130079714D01*
X246164924Y-130017314D01*
X247184327Y-128997912D01*
X247246713Y-128946713D01*
X247297911Y-128884328D01*
X247297915Y-128884324D01*
X247451030Y-128697753D01*
X247602852Y-128413715D01*
X247696342Y-128105517D01*
X247727911Y-127785000D01*
X247719390Y-127698485D01*
X247696342Y-127464483D01*
X247604741Y-127162514D01*
X247602852Y-127156286D01*
X247574250Y-127102775D01*
X247451030Y-126872247D01*
X247297915Y-126685676D01*
X247297911Y-126685672D01*
X247246713Y-126623287D01*
X247184327Y-126572089D01*
X246902238Y-126290000D01*
X248041928Y-126290000D01*
X248041928Y-127990000D01*
X248054188Y-128114482D01*
X248090498Y-128234180D01*
X248149463Y-128344494D01*
X248228815Y-128441185D01*
X248325506Y-128520537D01*
X248435820Y-128579502D01*
X248508380Y-128601513D01*
X248376525Y-128733368D01*
X248214010Y-128976589D01*
X248102068Y-129246842D01*
X248045000Y-129533740D01*
X248045000Y-129826260D01*
X248102068Y-130113158D01*
X248214010Y-130383411D01*
X248376525Y-130626632D01*
X248583368Y-130833475D01*
X248826589Y-130995990D01*
X249096842Y-131107932D01*
X249383740Y-131165000D01*
X249676260Y-131165000D01*
X249963158Y-131107932D01*
X250233411Y-130995990D01*
X250476632Y-130833475D01*
X250683475Y-130626632D01*
X250800000Y-130452240D01*
X250916525Y-130626632D01*
X251123368Y-130833475D01*
X251366589Y-130995990D01*
X251636842Y-131107932D01*
X251923740Y-131165000D01*
X252216260Y-131165000D01*
X252503158Y-131107932D01*
X252773411Y-130995990D01*
X253016632Y-130833475D01*
X253223475Y-130626632D01*
X253385990Y-130383411D01*
X253497932Y-130113158D01*
X253555000Y-129826260D01*
X253555000Y-129533740D01*
X253497932Y-129246842D01*
X253385990Y-128976589D01*
X253223475Y-128733368D01*
X253091620Y-128601513D01*
X253164180Y-128579502D01*
X253213504Y-128553137D01*
X270165000Y-128553137D01*
X270165000Y-128766863D01*
X270206696Y-128976483D01*
X270288485Y-129173940D01*
X270407225Y-129351647D01*
X270558353Y-129502775D01*
X270736060Y-129621515D01*
X270933517Y-129703304D01*
X271143137Y-129745000D01*
X271356863Y-129745000D01*
X271566483Y-129703304D01*
X271763940Y-129621515D01*
X271941647Y-129502775D01*
X272092775Y-129351647D01*
X272211515Y-129173940D01*
X272293304Y-128976483D01*
X272328666Y-128798702D01*
X276402903Y-128798702D01*
X276474486Y-129042671D01*
X276729996Y-129163571D01*
X277004184Y-129232300D01*
X277286512Y-129246217D01*
X277566130Y-129204787D01*
X277832292Y-129109603D01*
X277957514Y-129042671D01*
X278029097Y-128798702D01*
X277216000Y-127985605D01*
X276402903Y-128798702D01*
X272328666Y-128798702D01*
X272335000Y-128766863D01*
X272335000Y-128553137D01*
X272293304Y-128343517D01*
X272211515Y-128146060D01*
X272092775Y-127968353D01*
X272000934Y-127876512D01*
X275775783Y-127876512D01*
X275817213Y-128156130D01*
X275912397Y-128422292D01*
X275979329Y-128547514D01*
X276223298Y-128619097D01*
X277036395Y-127806000D01*
X277395605Y-127806000D01*
X278208702Y-128619097D01*
X278452671Y-128547514D01*
X278573571Y-128292004D01*
X278642300Y-128017816D01*
X278656217Y-127735488D01*
X278614787Y-127455870D01*
X278599708Y-127413702D01*
X279242903Y-127413702D01*
X279314486Y-127657671D01*
X279569996Y-127778571D01*
X279844184Y-127847300D01*
X280126512Y-127861217D01*
X280406130Y-127819787D01*
X280672292Y-127724603D01*
X280797514Y-127657671D01*
X280869097Y-127413702D01*
X280056000Y-126600605D01*
X279242903Y-127413702D01*
X278599708Y-127413702D01*
X278519603Y-127189708D01*
X278452671Y-127064486D01*
X278208702Y-126992903D01*
X277395605Y-127806000D01*
X277036395Y-127806000D01*
X276223298Y-126992903D01*
X275979329Y-127064486D01*
X275858429Y-127319996D01*
X275789700Y-127594184D01*
X275775783Y-127876512D01*
X272000934Y-127876512D01*
X271941647Y-127817225D01*
X271763940Y-127698485D01*
X271566483Y-127616696D01*
X271356863Y-127575000D01*
X271143137Y-127575000D01*
X270933517Y-127616696D01*
X270736060Y-127698485D01*
X270558353Y-127817225D01*
X270407225Y-127968353D01*
X270288485Y-128146060D01*
X270206696Y-128343517D01*
X270165000Y-128553137D01*
X253213504Y-128553137D01*
X253274494Y-128520537D01*
X253371185Y-128441185D01*
X253450537Y-128344494D01*
X253509502Y-128234180D01*
X253545812Y-128114482D01*
X253558072Y-127990000D01*
X253558072Y-126953137D01*
X266035000Y-126953137D01*
X266035000Y-127166863D01*
X266076696Y-127376483D01*
X266158485Y-127573940D01*
X266277225Y-127751647D01*
X266428353Y-127902775D01*
X266606060Y-128021515D01*
X266803517Y-128103304D01*
X267013137Y-128145000D01*
X267226863Y-128145000D01*
X267436483Y-128103304D01*
X267633940Y-128021515D01*
X267811647Y-127902775D01*
X267962775Y-127751647D01*
X268081515Y-127573940D01*
X268163304Y-127376483D01*
X268205000Y-127166863D01*
X268205000Y-126953137D01*
X268163304Y-126743517D01*
X268081515Y-126546060D01*
X267962775Y-126368353D01*
X267811647Y-126217225D01*
X267633940Y-126098485D01*
X267436483Y-126016696D01*
X267226863Y-125975000D01*
X267013137Y-125975000D01*
X266803517Y-126016696D01*
X266606060Y-126098485D01*
X266428353Y-126217225D01*
X266277225Y-126368353D01*
X266158485Y-126546060D01*
X266076696Y-126743517D01*
X266035000Y-126953137D01*
X253558072Y-126953137D01*
X253558072Y-126290000D01*
X253545812Y-126165518D01*
X253509502Y-126045820D01*
X253450537Y-125935506D01*
X253371185Y-125838815D01*
X253274494Y-125759463D01*
X253164180Y-125700498D01*
X253044482Y-125664188D01*
X252920000Y-125651928D01*
X251220000Y-125651928D01*
X251095518Y-125664188D01*
X250975820Y-125700498D01*
X250865506Y-125759463D01*
X250800000Y-125813222D01*
X250734494Y-125759463D01*
X250624180Y-125700498D01*
X250504482Y-125664188D01*
X250380000Y-125651928D01*
X248680000Y-125651928D01*
X248555518Y-125664188D01*
X248435820Y-125700498D01*
X248325506Y-125759463D01*
X248228815Y-125838815D01*
X248149463Y-125935506D01*
X248090498Y-126045820D01*
X248054188Y-126165518D01*
X248041928Y-126290000D01*
X246902238Y-126290000D01*
X245169323Y-124557085D01*
X244982752Y-124403970D01*
X244698714Y-124252148D01*
X244390516Y-124158658D01*
X244070000Y-124127089D01*
X243749484Y-124158658D01*
X243441286Y-124252148D01*
X243157248Y-124403970D01*
X242908287Y-124608287D01*
X242703970Y-124857248D01*
X242552148Y-125141286D01*
X242458658Y-125449484D01*
X242427089Y-125770000D01*
X242458658Y-126090516D01*
X242552148Y-126398714D01*
X242703970Y-126682752D01*
X242857085Y-126869323D01*
X243270762Y-127283000D01*
X230170899Y-127283000D01*
X230223304Y-127156483D01*
X230265000Y-126946863D01*
X230265000Y-126733137D01*
X230223304Y-126523517D01*
X230141515Y-126326060D01*
X230022775Y-126148353D01*
X229871647Y-125997225D01*
X229693940Y-125878485D01*
X229496483Y-125796696D01*
X229286863Y-125755000D01*
X229073137Y-125755000D01*
X228863517Y-125796696D01*
X228666060Y-125878485D01*
X228488353Y-125997225D01*
X228337225Y-126148353D01*
X228218485Y-126326060D01*
X228136696Y-126523517D01*
X228095000Y-126733137D01*
X228095000Y-126946863D01*
X228136696Y-127156483D01*
X228189101Y-127283000D01*
X225445501Y-127283000D01*
X225593940Y-127221515D01*
X225771647Y-127102775D01*
X225922775Y-126951647D01*
X226041515Y-126773940D01*
X226123304Y-126576483D01*
X226165000Y-126366863D01*
X226165000Y-126153137D01*
X226123304Y-125943517D01*
X226041515Y-125746060D01*
X225922775Y-125568353D01*
X225771647Y-125417225D01*
X225593940Y-125298485D01*
X225396483Y-125216696D01*
X225186863Y-125175000D01*
X224973137Y-125175000D01*
X224763517Y-125216696D01*
X224566060Y-125298485D01*
X224388353Y-125417225D01*
X224237225Y-125568353D01*
X224118485Y-125746060D01*
X224036696Y-125943517D01*
X223995000Y-126153137D01*
X223995000Y-126366863D01*
X224036696Y-126576483D01*
X224118485Y-126773940D01*
X224237225Y-126951647D01*
X224388353Y-127102775D01*
X224566060Y-127221515D01*
X224714499Y-127283000D01*
X216483983Y-127283000D01*
X216522500Y-127089363D01*
X216522500Y-126875637D01*
X216480804Y-126666017D01*
X216399015Y-126468560D01*
X216280275Y-126290853D01*
X216129147Y-126139725D01*
X215951440Y-126020985D01*
X215753983Y-125939196D01*
X215544363Y-125897500D01*
X215330637Y-125897500D01*
X215121017Y-125939196D01*
X214923560Y-126020985D01*
X214745853Y-126139725D01*
X214594725Y-126290853D01*
X214475985Y-126468560D01*
X214394196Y-126666017D01*
X214352500Y-126875637D01*
X214352500Y-127089363D01*
X214391017Y-127283000D01*
X205702346Y-127283000D01*
X205678983Y-127259637D01*
X205329302Y-127025988D01*
X204940756Y-126865047D01*
X204528279Y-126783000D01*
X204107721Y-126783000D01*
X203695244Y-126865047D01*
X203306698Y-127025988D01*
X202957017Y-127259637D01*
X202659637Y-127557017D01*
X202425988Y-127906698D01*
X202265047Y-128295244D01*
X202183000Y-128707721D01*
X200745100Y-128707721D01*
X200745100Y-122338000D01*
X202179928Y-122338000D01*
X202179928Y-125338000D01*
X202192188Y-125462482D01*
X202228498Y-125582180D01*
X202287463Y-125692494D01*
X202366815Y-125789185D01*
X202463506Y-125868537D01*
X202573820Y-125927502D01*
X202693518Y-125963812D01*
X202818000Y-125976072D01*
X205818000Y-125976072D01*
X205942482Y-125963812D01*
X206062180Y-125927502D01*
X206172494Y-125868537D01*
X206269185Y-125789185D01*
X206348537Y-125692494D01*
X206407502Y-125582180D01*
X206443812Y-125462482D01*
X206456072Y-125338000D01*
X206456072Y-124012167D01*
X206613247Y-123854992D01*
X212730544Y-123854992D01*
X212715000Y-123933137D01*
X212715000Y-124146863D01*
X212756696Y-124356483D01*
X212838485Y-124553940D01*
X212957225Y-124731647D01*
X213108353Y-124882775D01*
X213286060Y-125001515D01*
X213483517Y-125083304D01*
X213693137Y-125125000D01*
X213906863Y-125125000D01*
X214116483Y-125083304D01*
X214313940Y-125001515D01*
X214491647Y-124882775D01*
X214642775Y-124731647D01*
X214761515Y-124553940D01*
X214843304Y-124356483D01*
X214885000Y-124146863D01*
X214885000Y-123933137D01*
X214869456Y-123854992D01*
X215050544Y-123854992D01*
X215035000Y-123933137D01*
X215035000Y-124146863D01*
X215076696Y-124356483D01*
X215158485Y-124553940D01*
X215277225Y-124731647D01*
X215428353Y-124882775D01*
X215606060Y-125001515D01*
X215803517Y-125083304D01*
X216013137Y-125125000D01*
X216226863Y-125125000D01*
X216436483Y-125083304D01*
X216633940Y-125001515D01*
X216796139Y-124893137D01*
X217375000Y-124893137D01*
X217375000Y-125106863D01*
X217416696Y-125316483D01*
X217498485Y-125513940D01*
X217617225Y-125691647D01*
X217768353Y-125842775D01*
X217946060Y-125961515D01*
X218143517Y-126043304D01*
X218353137Y-126085000D01*
X218566863Y-126085000D01*
X218776483Y-126043304D01*
X218973940Y-125961515D01*
X219151647Y-125842775D01*
X219302775Y-125691647D01*
X219421515Y-125513940D01*
X219503304Y-125316483D01*
X219545000Y-125106863D01*
X219545000Y-124893137D01*
X219503304Y-124683517D01*
X219421515Y-124486060D01*
X219302775Y-124308353D01*
X219151647Y-124157225D01*
X218973940Y-124038485D01*
X218776483Y-123956696D01*
X218566863Y-123915000D01*
X218353137Y-123915000D01*
X218143517Y-123956696D01*
X217946060Y-124038485D01*
X217768353Y-124157225D01*
X217617225Y-124308353D01*
X217498485Y-124486060D01*
X217416696Y-124683517D01*
X217375000Y-124893137D01*
X216796139Y-124893137D01*
X216811647Y-124882775D01*
X216962775Y-124731647D01*
X217081515Y-124553940D01*
X217163304Y-124356483D01*
X217205000Y-124146863D01*
X217205000Y-123933137D01*
X217189456Y-123854992D01*
X223096511Y-123854992D01*
X223075000Y-123963137D01*
X223075000Y-124176863D01*
X223116696Y-124386483D01*
X223198485Y-124583940D01*
X223317225Y-124761647D01*
X223468353Y-124912775D01*
X223646060Y-125031515D01*
X223843517Y-125113304D01*
X224053137Y-125155000D01*
X224266863Y-125155000D01*
X224476483Y-125113304D01*
X224673940Y-125031515D01*
X224851647Y-124912775D01*
X225002775Y-124761647D01*
X225121515Y-124583940D01*
X225203304Y-124386483D01*
X225245000Y-124176863D01*
X225245000Y-123963137D01*
X225223489Y-123854992D01*
X243980330Y-123854992D01*
X244220524Y-123831335D01*
X244528723Y-123737844D01*
X244812760Y-123586023D01*
X245061722Y-123381706D01*
X245266039Y-123132744D01*
X245417860Y-122848707D01*
X245511351Y-122540508D01*
X245542919Y-122219992D01*
X245511351Y-121899476D01*
X245417860Y-121591277D01*
X245266039Y-121307240D01*
X245061722Y-121058278D01*
X244812760Y-120853961D01*
X244528723Y-120702140D01*
X244220524Y-120608649D01*
X243980330Y-120584992D01*
X216528233Y-120584992D01*
X216564015Y-120531440D01*
X216645804Y-120333983D01*
X216665863Y-120233137D01*
X245425000Y-120233137D01*
X245425000Y-120446863D01*
X245466696Y-120656483D01*
X245548485Y-120853940D01*
X245667225Y-121031647D01*
X245818353Y-121182775D01*
X245996060Y-121301515D01*
X246193517Y-121383304D01*
X246403137Y-121425000D01*
X246616863Y-121425000D01*
X246826483Y-121383304D01*
X247023940Y-121301515D01*
X247201647Y-121182775D01*
X247352775Y-121031647D01*
X247471515Y-120853940D01*
X247553304Y-120656483D01*
X247595000Y-120446863D01*
X247595000Y-120233137D01*
X247553304Y-120023517D01*
X247471515Y-119826060D01*
X247352775Y-119648353D01*
X247201647Y-119497225D01*
X247023940Y-119378485D01*
X246826483Y-119296696D01*
X246616863Y-119255000D01*
X246403137Y-119255000D01*
X246193517Y-119296696D01*
X245996060Y-119378485D01*
X245818353Y-119497225D01*
X245667225Y-119648353D01*
X245548485Y-119826060D01*
X245466696Y-120023517D01*
X245425000Y-120233137D01*
X216665863Y-120233137D01*
X216687500Y-120124363D01*
X216687500Y-119910637D01*
X216645804Y-119701017D01*
X216564015Y-119503560D01*
X216445275Y-119325853D01*
X216294147Y-119174725D01*
X216116440Y-119055985D01*
X215918983Y-118974196D01*
X215813113Y-118953137D01*
X217625000Y-118953137D01*
X217625000Y-119166863D01*
X217666696Y-119376483D01*
X217748485Y-119573940D01*
X217867225Y-119751647D01*
X218018353Y-119902775D01*
X218196060Y-120021515D01*
X218393517Y-120103304D01*
X218603137Y-120145000D01*
X218816863Y-120145000D01*
X219026483Y-120103304D01*
X219223940Y-120021515D01*
X219401647Y-119902775D01*
X219552775Y-119751647D01*
X219671515Y-119573940D01*
X219753304Y-119376483D01*
X219795000Y-119166863D01*
X219795000Y-118953137D01*
X219753304Y-118743517D01*
X219671515Y-118546060D01*
X219552775Y-118368353D01*
X219401647Y-118217225D01*
X219223940Y-118098485D01*
X219026483Y-118016696D01*
X218816863Y-117975000D01*
X218603137Y-117975000D01*
X218393517Y-118016696D01*
X218196060Y-118098485D01*
X218018353Y-118217225D01*
X217867225Y-118368353D01*
X217748485Y-118546060D01*
X217666696Y-118743517D01*
X217625000Y-118953137D01*
X215813113Y-118953137D01*
X215709363Y-118932500D01*
X215495637Y-118932500D01*
X215286017Y-118974196D01*
X215088560Y-119055985D01*
X214910853Y-119174725D01*
X214759725Y-119325853D01*
X214640985Y-119503560D01*
X214559196Y-119701017D01*
X214517500Y-119910637D01*
X214517500Y-120124363D01*
X214559196Y-120333983D01*
X214640985Y-120531440D01*
X214676767Y-120584992D01*
X213564130Y-120584992D01*
X213571515Y-120573940D01*
X213653304Y-120376483D01*
X213695000Y-120166863D01*
X213695000Y-119953137D01*
X213653304Y-119743517D01*
X213571515Y-119546060D01*
X213452775Y-119368353D01*
X213301647Y-119217225D01*
X213123940Y-119098485D01*
X212926483Y-119016696D01*
X212716863Y-118975000D01*
X212503137Y-118975000D01*
X212293517Y-119016696D01*
X212096060Y-119098485D01*
X211918353Y-119217225D01*
X211767225Y-119368353D01*
X211648485Y-119546060D01*
X211566696Y-119743517D01*
X211525000Y-119953137D01*
X211525000Y-120166863D01*
X211566696Y-120376483D01*
X211648485Y-120573940D01*
X211655870Y-120584992D01*
X206016330Y-120584992D01*
X205936008Y-120577081D01*
X205615491Y-120608649D01*
X205472543Y-120652012D01*
X205307293Y-120702140D01*
X205023256Y-120853961D01*
X204774294Y-121058278D01*
X204723087Y-121120674D01*
X204143833Y-121699928D01*
X202818000Y-121699928D01*
X202693518Y-121712188D01*
X202573820Y-121748498D01*
X202463506Y-121807463D01*
X202366815Y-121886815D01*
X202287463Y-121983506D01*
X202228498Y-122093820D01*
X202192188Y-122213518D01*
X202179928Y-122338000D01*
X200745100Y-122338000D01*
X200745100Y-98870481D01*
X201003425Y-99257093D01*
X201452907Y-99706575D01*
X201981442Y-100059730D01*
X202568719Y-100302988D01*
X203192168Y-100427000D01*
X203827832Y-100427000D01*
X204451281Y-100302988D01*
X205038558Y-100059730D01*
X205567093Y-99706575D01*
X206016575Y-99257093D01*
X206369730Y-98728558D01*
X206612988Y-98141281D01*
X206737000Y-97517832D01*
X206737000Y-96882168D01*
X206612988Y-96258719D01*
X206369730Y-95671442D01*
X206016575Y-95142907D01*
X205567093Y-94693425D01*
X205167611Y-94426500D01*
X208167871Y-94426500D01*
X207948842Y-94470068D01*
G37*
G04 #@! TD.AperFunction*
M02*
