G04 #@! TF.GenerationSoftware,KiCad,Pcbnew,5.1.7-a382d34a8~88~ubuntu18.04.1*
G04 #@! TF.CreationDate,2021-04-23T14:54:25+02:00*
G04 #@! TF.ProjectId,relais_hat,72656c61-6973-45f6-9861-742e6b696361,rev?*
G04 #@! TF.SameCoordinates,Original*
G04 #@! TF.FileFunction,Copper,L4,Bot*
G04 #@! TF.FilePolarity,Positive*
%FSLAX46Y46*%
G04 Gerber Fmt 4.6, Leading zero omitted, Abs format (unit mm)*
G04 Created by KiCad (PCBNEW 5.1.7-a382d34a8~88~ubuntu18.04.1) date 2021-04-23 14:54:25*
%MOMM*%
%LPD*%
G01*
G04 APERTURE LIST*
G04 #@! TA.AperFunction,ComponentPad*
%ADD10O,1.700000X1.700000*%
G04 #@! TD*
G04 #@! TA.AperFunction,ComponentPad*
%ADD11R,1.700000X1.700000*%
G04 #@! TD*
G04 #@! TA.AperFunction,ComponentPad*
%ADD12C,4.000000*%
G04 #@! TD*
G04 #@! TA.AperFunction,ComponentPad*
%ADD13C,1.600000*%
G04 #@! TD*
G04 #@! TA.AperFunction,ComponentPad*
%ADD14R,1.600000X1.600000*%
G04 #@! TD*
G04 #@! TA.AperFunction,ComponentPad*
%ADD15C,3.000000*%
G04 #@! TD*
G04 #@! TA.AperFunction,ComponentPad*
%ADD16R,3.000000X3.000000*%
G04 #@! TD*
G04 #@! TA.AperFunction,ComponentPad*
%ADD17O,1.600000X1.600000*%
G04 #@! TD*
G04 #@! TA.AperFunction,ViaPad*
%ADD18C,0.900000*%
G04 #@! TD*
G04 #@! TA.AperFunction,ViaPad*
%ADD19C,1.000000*%
G04 #@! TD*
G04 #@! TA.AperFunction,Conductor*
%ADD20C,0.400000*%
G04 #@! TD*
G04 #@! TA.AperFunction,Conductor*
%ADD21C,1.000000*%
G04 #@! TD*
G04 #@! TA.AperFunction,Conductor*
%ADD22C,0.200000*%
G04 #@! TD*
G04 #@! TA.AperFunction,Conductor*
%ADD23C,0.254000*%
G04 #@! TD*
G04 #@! TA.AperFunction,Conductor*
%ADD24C,0.150000*%
G04 #@! TD*
G04 APERTURE END LIST*
D10*
X252070000Y-141110000D03*
D11*
X252070000Y-138570000D03*
D10*
X252070000Y-116980000D03*
D11*
X252070000Y-114440000D03*
D10*
X252070000Y-129680000D03*
D11*
X252070000Y-127140000D03*
D10*
X252070000Y-106820000D03*
D11*
X252070000Y-104280000D03*
D10*
X266548000Y-98946000D03*
D11*
X266548000Y-101486000D03*
D10*
X266040000Y-118504000D03*
X266040000Y-115964000D03*
D11*
X266040000Y-113424000D03*
D10*
X263500000Y-118504000D03*
X263500000Y-115964000D03*
D11*
X263500000Y-113424000D03*
D10*
X260960000Y-118504000D03*
X260960000Y-115964000D03*
D11*
X260960000Y-113424000D03*
D12*
X277516000Y-109766000D03*
X277516000Y-134766000D03*
D13*
X280056000Y-126421000D03*
X280056000Y-123651000D03*
X280056000Y-120881000D03*
X280056000Y-118111000D03*
X277216000Y-127806000D03*
X277216000Y-125036000D03*
X277216000Y-122266000D03*
X277216000Y-119496000D03*
D14*
X277216000Y-116726000D03*
D15*
X204320000Y-139080000D03*
D16*
X204320000Y-134000000D03*
D15*
X204318000Y-128918000D03*
D16*
X204318000Y-123838000D03*
D15*
X204320000Y-118760000D03*
D16*
X204320000Y-113680000D03*
D15*
X204320000Y-108600000D03*
D16*
X204320000Y-103520000D03*
D17*
X257150000Y-123330000D03*
X269850000Y-105550000D03*
X257150000Y-120790000D03*
X269850000Y-108090000D03*
X257150000Y-118250000D03*
X269850000Y-110630000D03*
X257150000Y-115710000D03*
X269850000Y-113170000D03*
X257150000Y-113170000D03*
X269850000Y-115710000D03*
X257150000Y-110630000D03*
X269850000Y-118250000D03*
X257150000Y-108090000D03*
X269850000Y-120790000D03*
X257150000Y-105550000D03*
D14*
X269850000Y-123330000D03*
D11*
X208382000Y-98438000D03*
D10*
X208382000Y-95898000D03*
X210922000Y-98438000D03*
X210922000Y-95898000D03*
X213462000Y-98438000D03*
X213462000Y-95898000D03*
X216002000Y-98438000D03*
X216002000Y-95898000D03*
X218542000Y-98438000D03*
X218542000Y-95898000D03*
X221082000Y-98438000D03*
X221082000Y-95898000D03*
X223622000Y-98438000D03*
X223622000Y-95898000D03*
X226162000Y-98438000D03*
X226162000Y-95898000D03*
X228702000Y-98438000D03*
X228702000Y-95898000D03*
X231242000Y-98438000D03*
X231242000Y-95898000D03*
X233782000Y-98438000D03*
X233782000Y-95898000D03*
X236322000Y-98438000D03*
X236322000Y-95898000D03*
X238862000Y-98438000D03*
X238862000Y-95898000D03*
X241402000Y-98438000D03*
X241402000Y-95898000D03*
X243942000Y-98438000D03*
X243942000Y-95898000D03*
X246482000Y-98438000D03*
X246482000Y-95898000D03*
X249022000Y-98438000D03*
X249022000Y-95898000D03*
X251562000Y-98438000D03*
X251562000Y-95898000D03*
X254102000Y-98438000D03*
X254102000Y-95898000D03*
X256642000Y-98438000D03*
X256642000Y-95898000D03*
X249530000Y-116980000D03*
D11*
X249530000Y-114440000D03*
D10*
X249530000Y-141110000D03*
D11*
X249530000Y-138570000D03*
D10*
X249530000Y-129680000D03*
D11*
X249530000Y-127140000D03*
D10*
X249530000Y-106820000D03*
D11*
X249530000Y-104280000D03*
D10*
X217780000Y-147460000D03*
X217780000Y-144920000D03*
X215240000Y-147460000D03*
X215240000Y-144920000D03*
X212700000Y-147460000D03*
X212700000Y-144920000D03*
X210160000Y-147460000D03*
D11*
X210160000Y-144920000D03*
D18*
X220250000Y-116470000D03*
X231120000Y-109320000D03*
X245210000Y-140470000D03*
X210775999Y-125805999D03*
X221050000Y-139480000D03*
X259360000Y-103820000D03*
X244310000Y-136810000D03*
X245325000Y-137825000D03*
X246200000Y-138700000D03*
X244175000Y-115085000D03*
X245060000Y-115970000D03*
X246065000Y-116975000D03*
D19*
X273152000Y-114948000D03*
D18*
X241540008Y-111589992D03*
X242810008Y-111589992D03*
X244130008Y-111589992D03*
X241020008Y-132919992D03*
X242430008Y-132919992D03*
X243770008Y-132919992D03*
X217485000Y-100545000D03*
X228194000Y-143650000D03*
X237592000Y-144158000D03*
X238862000Y-143396000D03*
X245974000Y-142634000D03*
X225080000Y-126260000D03*
X229180000Y-126840000D03*
X226720000Y-141420000D03*
X215385000Y-140665000D03*
X216090000Y-108330000D03*
X246250000Y-109390000D03*
X215602500Y-120017500D03*
X246510000Y-120340000D03*
X213800000Y-124040000D03*
X216120000Y-124040000D03*
X244120000Y-104990000D03*
X245095000Y-105965000D03*
X246160000Y-106820000D03*
X242510008Y-101539992D03*
X243710008Y-101539992D03*
X244940008Y-101539992D03*
X244070000Y-125770000D03*
X245015000Y-126715000D03*
X246085000Y-127785000D03*
X241150008Y-122219992D03*
X242470008Y-122219992D03*
X243900008Y-122219992D03*
X281740000Y-102350000D03*
X271250000Y-128660000D03*
X267120000Y-127060000D03*
X243688000Y-142634000D03*
X218460000Y-125000000D03*
X215437500Y-126982500D03*
X249220000Y-143470000D03*
X224160000Y-124070000D03*
X215745000Y-138855000D03*
X218260000Y-140660000D03*
X230880000Y-140170000D03*
X229110000Y-142590000D03*
X222565000Y-116405000D03*
X214690000Y-109164301D03*
X226670000Y-144158000D03*
X212610000Y-120060000D03*
X218710000Y-119060000D03*
D20*
X227451999Y-99688001D02*
X228702000Y-98438000D01*
X208382000Y-98438000D02*
X208382001Y-99688001D01*
X260960000Y-113424000D02*
X266040000Y-113424000D01*
X208382001Y-99688001D02*
X213411999Y-99688001D01*
X213411999Y-99688001D02*
X227451999Y-99688001D01*
X213411999Y-111001999D02*
X218880000Y-116470000D01*
X213411999Y-99688001D02*
X213411999Y-111001999D01*
X218880000Y-116470000D02*
X220250000Y-116470000D01*
X260210001Y-110199999D02*
X260960000Y-110949998D01*
X260210001Y-103411999D02*
X260210001Y-110199999D01*
X256677991Y-99879989D02*
X260210001Y-103411999D01*
X260960000Y-110949998D02*
X260960000Y-113424000D01*
X228702000Y-98438000D02*
X230143989Y-99879989D01*
X230143989Y-99879989D02*
X256677991Y-99879989D01*
X208382000Y-95898000D02*
X210922000Y-95898000D01*
D21*
X260960000Y-118504000D02*
X266040000Y-118504000D01*
X266040000Y-119520000D02*
X266040000Y-118504000D01*
X269850000Y-123330000D02*
X266040000Y-119520000D01*
X269050001Y-108889999D02*
X269850000Y-108090000D01*
X268349999Y-109590001D02*
X269050001Y-108889999D01*
X268349999Y-116194001D02*
X268349999Y-109590001D01*
X266040000Y-118504000D02*
X268349999Y-116194001D01*
X269850000Y-125130000D02*
X269850000Y-123330000D01*
X272526000Y-127806000D02*
X269850000Y-125130000D01*
X274518000Y-127806000D02*
X272526000Y-127806000D01*
X277216000Y-127806000D02*
X274518000Y-127806000D01*
D20*
X278671000Y-127806000D02*
X280056000Y-126421000D01*
X277216000Y-127806000D02*
X278671000Y-127806000D01*
D21*
X212700000Y-147460000D02*
X212700000Y-147705998D01*
X210160000Y-144920000D02*
X212700000Y-147460000D01*
X211710001Y-143369999D02*
X210160000Y-144920000D01*
X219629999Y-143369999D02*
X211710001Y-143369999D01*
X252150000Y-148680000D02*
X224940000Y-148680000D01*
X269850000Y-105550000D02*
X280440000Y-105550000D01*
X280440000Y-105550000D02*
X282450000Y-107560000D01*
X282450000Y-107560000D02*
X282450000Y-128730000D01*
X224940000Y-148680000D02*
X219629999Y-143369999D01*
X281080000Y-130100000D02*
X270730000Y-130100000D01*
X282450000Y-128730000D02*
X281080000Y-130100000D01*
X270730000Y-130100000D02*
X252150000Y-148680000D01*
X215240000Y-144920000D02*
X217780000Y-147460000D01*
D20*
X217291999Y-97187999D02*
X217692001Y-97588001D01*
X214751999Y-97187999D02*
X217291999Y-97187999D01*
X217692001Y-97588001D02*
X218542000Y-98438000D01*
X213462000Y-95898000D02*
X214751999Y-97187999D01*
X219391999Y-97588001D02*
X218542000Y-98438000D01*
X222332001Y-97187999D02*
X219792001Y-97187999D01*
X219792001Y-97187999D02*
X219391999Y-97588001D01*
X223622000Y-95898000D02*
X222332001Y-97187999D01*
X230392001Y-96747999D02*
X231242000Y-95898000D01*
X229952001Y-97187999D02*
X230392001Y-96747999D01*
X224911999Y-97187999D02*
X229952001Y-97187999D01*
X223622000Y-95898000D02*
X224911999Y-97187999D01*
X238012001Y-97588001D02*
X238862000Y-98438000D01*
X237611999Y-97187999D02*
X238012001Y-97588001D01*
X232531999Y-97187999D02*
X237611999Y-97187999D01*
X231242000Y-95898000D02*
X232531999Y-97187999D01*
X243092001Y-96747999D02*
X243942000Y-95898000D01*
X242691999Y-97148001D02*
X243092001Y-96747999D01*
X239551998Y-98438000D02*
X240841997Y-97148001D01*
X240841997Y-97148001D02*
X242691999Y-97148001D01*
X238862000Y-98438000D02*
X239551998Y-98438000D01*
X248172001Y-96747999D02*
X249022000Y-95898000D01*
X247771999Y-97148001D02*
X248172001Y-96747999D01*
X245192001Y-97148001D02*
X247771999Y-97148001D01*
X243942000Y-95898000D02*
X245192001Y-97148001D01*
X255792001Y-97588001D02*
X256642000Y-98438000D01*
X255391999Y-97187999D02*
X255792001Y-97588001D01*
X250311999Y-97187999D02*
X255391999Y-97187999D01*
X249022000Y-95898000D02*
X250311999Y-97187999D01*
X256642000Y-98438000D02*
X256642000Y-98995456D01*
X256642000Y-98995456D02*
X260156544Y-102510000D01*
X262984000Y-102510000D02*
X266548000Y-98946000D01*
X260156544Y-102510000D02*
X262984000Y-102510000D01*
D21*
X272702001Y-120522001D02*
X276416001Y-124236001D01*
X276416001Y-124236001D02*
X277216000Y-125036000D01*
X272702001Y-115397999D02*
X272702001Y-120522001D01*
X273152000Y-114948000D02*
X272702001Y-115397999D01*
X269850000Y-113170000D02*
X275184000Y-113170000D01*
X275184000Y-120790000D02*
X275946000Y-121552000D01*
X275184000Y-113170000D02*
X275184000Y-120790000D01*
X275946000Y-121552000D02*
X277216000Y-122266000D01*
D22*
X262349999Y-117114001D02*
X262650001Y-116813999D01*
X262650001Y-116813999D02*
X263500000Y-115964000D01*
X260407999Y-117114001D02*
X262349999Y-117114001D01*
X259409989Y-116115991D02*
X260407999Y-117114001D01*
X259409989Y-112889989D02*
X259409989Y-116115991D01*
X257150000Y-110630000D02*
X259409989Y-112889989D01*
X259809999Y-114813999D02*
X260110001Y-115114001D01*
X260110001Y-115114001D02*
X260960000Y-115964000D01*
X259809999Y-110749999D02*
X259809999Y-114813999D01*
X257150000Y-108090000D02*
X259809999Y-110749999D01*
X254883198Y-121063198D02*
X257150000Y-123330000D01*
X224308000Y-100608000D02*
X252528000Y-100608000D01*
X217485000Y-100545000D02*
X224245000Y-100545000D01*
X254883198Y-102963198D02*
X254883198Y-121063198D01*
X252528000Y-100608000D02*
X254883198Y-102963198D01*
X224245000Y-100545000D02*
X224308000Y-100608000D01*
X257150000Y-116841370D02*
X257150000Y-118250000D01*
X257150000Y-115710000D02*
X257150000Y-116841370D01*
X237084000Y-143650000D02*
X237592000Y-144158000D01*
X228194000Y-143650000D02*
X237084000Y-143650000D01*
X245212000Y-143396000D02*
X245974000Y-142634000D01*
X238862000Y-143396000D02*
X245212000Y-143396000D01*
X228600000Y-126260000D02*
X229180000Y-126840000D01*
X225080000Y-126260000D02*
X228600000Y-126260000D01*
X226720000Y-141420000D02*
X226720000Y-141420000D01*
X216140000Y-141420000D02*
X215385000Y-140665000D01*
X226720000Y-141420000D02*
X216140000Y-141420000D01*
X216090000Y-108330000D02*
X245190000Y-108330000D01*
X245190000Y-108330000D02*
X246250000Y-109390000D01*
X246250000Y-109390000D02*
X246250000Y-109390000D01*
X246510000Y-120340000D02*
X222009998Y-120340000D01*
X215602500Y-120017500D02*
X213800000Y-121820000D01*
X213800000Y-121820000D02*
X213800000Y-124040000D01*
X218309998Y-124040000D02*
X219104999Y-123244999D01*
X216120000Y-124040000D02*
X218309998Y-124040000D01*
X222009998Y-120340000D02*
X219104999Y-123244999D01*
X281740000Y-102350000D02*
X281740000Y-102350000D01*
X271250000Y-128660000D02*
X269090000Y-128660000D01*
X269090000Y-128660000D02*
X267490000Y-127060000D01*
X267490000Y-127060000D02*
X267120000Y-127060000D01*
X267120000Y-127060000D02*
X267120000Y-127060000D01*
X281740000Y-100210000D02*
X281740000Y-102350000D01*
X257930000Y-98900000D02*
X260120000Y-101090000D01*
X257930000Y-95483998D02*
X257930000Y-98900000D01*
X260120000Y-101090000D02*
X262701998Y-101090000D01*
X212909999Y-94747999D02*
X257194001Y-94747999D01*
X216002000Y-98438000D02*
X215164002Y-98438000D01*
X257194001Y-94747999D02*
X257930000Y-95483998D01*
X265205999Y-98585999D02*
X265205999Y-97124001D01*
X262701998Y-101090000D02*
X265205999Y-98585999D01*
X265205999Y-97124001D02*
X265470000Y-96860000D01*
X278390000Y-96860000D02*
X281740000Y-100210000D01*
X265470000Y-96860000D02*
X278390000Y-96860000D01*
X213913001Y-97186999D02*
X212246999Y-97186999D01*
X215164002Y-98438000D02*
X213913001Y-97186999D01*
X212246999Y-95410999D02*
X212909999Y-94747999D01*
X212246999Y-97186999D02*
X212246999Y-95410999D01*
X231595999Y-142645999D02*
X243674001Y-142645999D01*
X220100000Y-131150000D02*
X231595999Y-142645999D01*
X220100000Y-126640000D02*
X220100000Y-126720000D01*
X218460000Y-125000000D02*
X220100000Y-126640000D01*
X220100000Y-126720000D02*
X220100000Y-131040000D01*
X220100000Y-131040000D02*
X220100000Y-131150000D01*
X215437500Y-126982500D02*
X217130000Y-125290000D01*
X217130000Y-125290000D02*
X217150000Y-125290000D01*
X217440000Y-125000000D02*
X218460000Y-125000000D01*
X217150000Y-125290000D02*
X217440000Y-125000000D01*
X224160000Y-124070000D02*
X224160000Y-133830000D01*
X224160000Y-133830000D02*
X229540000Y-139210000D01*
X247260000Y-141510000D02*
X249220000Y-143470000D01*
X245780000Y-141510000D02*
X247260000Y-141510000D01*
X245780000Y-141510000D02*
X247140000Y-141510000D01*
X215745000Y-138855000D02*
X215745000Y-139835000D01*
X215745000Y-139835000D02*
X216570000Y-140660000D01*
X216570000Y-140660000D02*
X218260000Y-140660000D01*
X218260000Y-140660000D02*
X218260000Y-140660000D01*
X230495000Y-139785000D02*
X230880000Y-140170000D01*
X230115000Y-139785000D02*
X230495000Y-139785000D01*
X229540000Y-139210000D02*
X230115000Y-139785000D01*
X231940000Y-140170000D02*
X233280000Y-141510000D01*
X230880000Y-140170000D02*
X231940000Y-140170000D01*
X233280000Y-141510000D02*
X245780000Y-141510000D01*
X229110000Y-142590000D02*
X229110000Y-142590000D01*
X222565000Y-116405000D02*
X221550000Y-115390000D01*
X221550000Y-115390000D02*
X219090000Y-115390000D01*
X214690000Y-110990000D02*
X214690000Y-109164301D01*
X219090000Y-115390000D02*
X214690000Y-110990000D01*
X226779998Y-142590000D02*
X229110000Y-142590000D01*
X226359977Y-142169979D02*
X226779998Y-142590000D01*
X214310000Y-140900000D02*
X215579979Y-142169979D01*
X215579979Y-142169979D02*
X226359977Y-142169979D01*
X214300000Y-140900000D02*
X214310000Y-140900000D01*
X217955000Y-120735000D02*
X215000000Y-123690000D01*
X218235000Y-120735000D02*
X217955000Y-120735000D01*
X212115000Y-138695000D02*
X212115000Y-138715000D01*
X209770000Y-129310000D02*
X209770000Y-136350000D01*
X209770000Y-136350000D02*
X212115000Y-138695000D01*
X222565000Y-116405000D02*
X218235000Y-120735000D01*
X215000000Y-123690000D02*
X215000000Y-124080000D01*
X212115000Y-138715000D02*
X214300000Y-140900000D01*
X215000000Y-124080000D02*
X209770000Y-129310000D01*
X213610000Y-119060000D02*
X212610000Y-120060000D01*
X218710000Y-119060000D02*
X213610000Y-119060000D01*
X209110000Y-123560000D02*
X209110000Y-137110000D01*
X209110000Y-137110000D02*
X213530000Y-141530000D01*
X212610000Y-120060000D02*
X209110000Y-123560000D01*
X213530000Y-141530000D02*
X213540000Y-141530000D01*
X225081989Y-142569989D02*
X226670000Y-144158000D01*
X214579989Y-142569989D02*
X225081989Y-142569989D01*
X213540000Y-141530000D02*
X214579989Y-142569989D01*
D23*
X207948842Y-94470068D02*
X207678589Y-94582010D01*
X207435368Y-94744525D01*
X207228525Y-94951368D01*
X207066010Y-95194589D01*
X206954068Y-95464842D01*
X206897000Y-95751740D01*
X206897000Y-96044260D01*
X206954068Y-96331158D01*
X207066010Y-96601411D01*
X207228525Y-96844632D01*
X207360380Y-96976487D01*
X207287820Y-96998498D01*
X207177506Y-97057463D01*
X207080815Y-97136815D01*
X207001463Y-97233506D01*
X206942498Y-97343820D01*
X206906188Y-97463518D01*
X206893928Y-97588000D01*
X206893928Y-99288000D01*
X206906188Y-99412482D01*
X206942498Y-99532180D01*
X207001463Y-99642494D01*
X207080815Y-99739185D01*
X207177506Y-99818537D01*
X207287820Y-99877502D01*
X207407518Y-99913812D01*
X207532000Y-99926072D01*
X207581646Y-99926072D01*
X207606829Y-100009088D01*
X207684365Y-100154147D01*
X207788710Y-100281292D01*
X207915855Y-100385637D01*
X208060914Y-100463173D01*
X208218312Y-100510919D01*
X208340982Y-100523001D01*
X208340990Y-100523001D01*
X208382001Y-100527040D01*
X208423010Y-100523001D01*
X212576999Y-100523001D01*
X212577000Y-110960970D01*
X212572959Y-111001999D01*
X212589081Y-111165687D01*
X212636827Y-111323085D01*
X212714363Y-111468144D01*
X212714364Y-111468145D01*
X212818709Y-111595290D01*
X212850573Y-111621440D01*
X218260559Y-117031427D01*
X218286709Y-117063291D01*
X218386272Y-117145000D01*
X218413854Y-117167636D01*
X218558913Y-117245172D01*
X218716311Y-117292918D01*
X218879999Y-117309040D01*
X218921018Y-117305000D01*
X219550578Y-117305000D01*
X219558353Y-117312775D01*
X219736060Y-117431515D01*
X219933517Y-117513304D01*
X220143137Y-117555000D01*
X220356863Y-117555000D01*
X220380194Y-117550359D01*
X219556550Y-118374003D01*
X219552775Y-118368353D01*
X219401647Y-118217225D01*
X219223940Y-118098485D01*
X219026483Y-118016696D01*
X218816863Y-117975000D01*
X218603137Y-117975000D01*
X218393517Y-118016696D01*
X218196060Y-118098485D01*
X218018353Y-118217225D01*
X217910578Y-118325000D01*
X213646105Y-118325000D01*
X213610000Y-118321444D01*
X213465915Y-118335635D01*
X213327366Y-118377663D01*
X213199680Y-118445913D01*
X213087762Y-118537762D01*
X213064746Y-118565807D01*
X212655553Y-118975000D01*
X212503137Y-118975000D01*
X212293517Y-119016696D01*
X212096060Y-119098485D01*
X211918353Y-119217225D01*
X211767225Y-119368353D01*
X211648485Y-119546060D01*
X211566696Y-119743517D01*
X211525000Y-119953137D01*
X211525000Y-120105553D01*
X208615808Y-123014746D01*
X208587762Y-123037763D01*
X208495913Y-123149681D01*
X208427663Y-123277368D01*
X208406130Y-123348353D01*
X208385635Y-123415915D01*
X208371444Y-123560000D01*
X208375000Y-123596105D01*
X208375001Y-137073885D01*
X208371444Y-137110000D01*
X208385635Y-137254085D01*
X208402919Y-137311060D01*
X208427664Y-137392633D01*
X208495914Y-137520320D01*
X208587763Y-137632238D01*
X208615808Y-137655254D01*
X212984746Y-142024193D01*
X213007762Y-142052238D01*
X213091579Y-142121025D01*
X213205553Y-142234999D01*
X211765742Y-142234999D01*
X211710000Y-142229509D01*
X211654258Y-142234999D01*
X211654249Y-142234999D01*
X211487502Y-142251422D01*
X211273554Y-142316323D01*
X211076378Y-142421715D01*
X210903552Y-142563550D01*
X210868010Y-142606859D01*
X210042941Y-143431928D01*
X209310000Y-143431928D01*
X209185518Y-143444188D01*
X209065820Y-143480498D01*
X208955506Y-143539463D01*
X208858815Y-143618815D01*
X208779463Y-143715506D01*
X208720498Y-143825820D01*
X208684188Y-143945518D01*
X208671928Y-144070000D01*
X208671928Y-145770000D01*
X208684188Y-145894482D01*
X208720498Y-146014180D01*
X208779463Y-146124494D01*
X208858815Y-146221185D01*
X208955506Y-146300537D01*
X209065820Y-146359502D01*
X209141626Y-146382498D01*
X208964822Y-146578645D01*
X208815843Y-146828748D01*
X208718519Y-147103109D01*
X208839186Y-147333000D01*
X210033000Y-147333000D01*
X210033000Y-147313000D01*
X210287000Y-147313000D01*
X210287000Y-147333000D01*
X210307000Y-147333000D01*
X210307000Y-147587000D01*
X210287000Y-147587000D01*
X210287000Y-148780155D01*
X210516890Y-148901476D01*
X210664099Y-148856825D01*
X210926920Y-148731641D01*
X211160269Y-148557588D01*
X211355178Y-148341355D01*
X211424805Y-148224466D01*
X211546525Y-148406632D01*
X211753368Y-148613475D01*
X211996589Y-148775990D01*
X212266842Y-148887932D01*
X212553740Y-148945000D01*
X212846260Y-148945000D01*
X213133158Y-148887932D01*
X213403411Y-148775990D01*
X213646632Y-148613475D01*
X213853475Y-148406632D01*
X213975195Y-148224466D01*
X214044822Y-148341355D01*
X214239731Y-148557588D01*
X214473080Y-148731641D01*
X214735901Y-148856825D01*
X214883110Y-148901476D01*
X215113000Y-148780155D01*
X215113000Y-147587000D01*
X215093000Y-147587000D01*
X215093000Y-147333000D01*
X215113000Y-147333000D01*
X215113000Y-147313000D01*
X215367000Y-147313000D01*
X215367000Y-147333000D01*
X215387000Y-147333000D01*
X215387000Y-147587000D01*
X215367000Y-147587000D01*
X215367000Y-148780155D01*
X215596890Y-148901476D01*
X215744099Y-148856825D01*
X216006920Y-148731641D01*
X216240269Y-148557588D01*
X216435178Y-148341355D01*
X216504805Y-148224466D01*
X216626525Y-148406632D01*
X216833368Y-148613475D01*
X217076589Y-148775990D01*
X217346842Y-148887932D01*
X217633740Y-148945000D01*
X217926260Y-148945000D01*
X218213158Y-148887932D01*
X218483411Y-148775990D01*
X218726632Y-148613475D01*
X218933475Y-148406632D01*
X219095990Y-148163411D01*
X219207932Y-147893158D01*
X219265000Y-147606260D01*
X219265000Y-147313740D01*
X219207932Y-147026842D01*
X219095990Y-146756589D01*
X218933475Y-146513368D01*
X218726632Y-146306525D01*
X218550594Y-146188900D01*
X218780269Y-146017588D01*
X218975178Y-145801355D01*
X219124157Y-145551252D01*
X219221481Y-145276891D01*
X219100814Y-145047000D01*
X217907000Y-145047000D01*
X217907000Y-145067000D01*
X217653000Y-145067000D01*
X217653000Y-145047000D01*
X217633000Y-145047000D01*
X217633000Y-144793000D01*
X217653000Y-144793000D01*
X217653000Y-144773000D01*
X217907000Y-144773000D01*
X217907000Y-144793000D01*
X219100814Y-144793000D01*
X219220275Y-144565406D01*
X223611368Y-148956500D01*
X205193053Y-148956500D01*
X205567093Y-148706575D01*
X206016575Y-148257093D01*
X206310707Y-147816891D01*
X208718519Y-147816891D01*
X208815843Y-148091252D01*
X208964822Y-148341355D01*
X209159731Y-148557588D01*
X209393080Y-148731641D01*
X209655901Y-148856825D01*
X209803110Y-148901476D01*
X210033000Y-148780155D01*
X210033000Y-147587000D01*
X208839186Y-147587000D01*
X208718519Y-147816891D01*
X206310707Y-147816891D01*
X206369730Y-147728558D01*
X206612988Y-147141281D01*
X206737000Y-146517832D01*
X206737000Y-145882168D01*
X206612988Y-145258719D01*
X206369730Y-144671442D01*
X206016575Y-144142907D01*
X205567093Y-143693425D01*
X205038558Y-143340270D01*
X204451281Y-143097012D01*
X203827832Y-142973000D01*
X203192168Y-142973000D01*
X202568719Y-143097012D01*
X201981442Y-143340270D01*
X201452907Y-143693425D01*
X201003425Y-144142907D01*
X200745100Y-144529519D01*
X200745100Y-138869721D01*
X202185000Y-138869721D01*
X202185000Y-139290279D01*
X202267047Y-139702756D01*
X202427988Y-140091302D01*
X202661637Y-140440983D01*
X202959017Y-140738363D01*
X203308698Y-140972012D01*
X203697244Y-141132953D01*
X204109721Y-141215000D01*
X204530279Y-141215000D01*
X204942756Y-141132953D01*
X205331302Y-140972012D01*
X205680983Y-140738363D01*
X205978363Y-140440983D01*
X206212012Y-140091302D01*
X206372953Y-139702756D01*
X206455000Y-139290279D01*
X206455000Y-138869721D01*
X206372953Y-138457244D01*
X206212012Y-138068698D01*
X205978363Y-137719017D01*
X205680983Y-137421637D01*
X205331302Y-137187988D01*
X204942756Y-137027047D01*
X204530279Y-136945000D01*
X204109721Y-136945000D01*
X203697244Y-137027047D01*
X203308698Y-137187988D01*
X202959017Y-137421637D01*
X202661637Y-137719017D01*
X202427988Y-138068698D01*
X202267047Y-138457244D01*
X202185000Y-138869721D01*
X200745100Y-138869721D01*
X200745100Y-132500000D01*
X202181928Y-132500000D01*
X202181928Y-135500000D01*
X202194188Y-135624482D01*
X202230498Y-135744180D01*
X202289463Y-135854494D01*
X202368815Y-135951185D01*
X202465506Y-136030537D01*
X202575820Y-136089502D01*
X202695518Y-136125812D01*
X202820000Y-136138072D01*
X205820000Y-136138072D01*
X205944482Y-136125812D01*
X206064180Y-136089502D01*
X206174494Y-136030537D01*
X206271185Y-135951185D01*
X206350537Y-135854494D01*
X206409502Y-135744180D01*
X206445812Y-135624482D01*
X206458072Y-135500000D01*
X206458072Y-132500000D01*
X206445812Y-132375518D01*
X206409502Y-132255820D01*
X206350537Y-132145506D01*
X206271185Y-132048815D01*
X206174494Y-131969463D01*
X206064180Y-131910498D01*
X205944482Y-131874188D01*
X205820000Y-131861928D01*
X202820000Y-131861928D01*
X202695518Y-131874188D01*
X202575820Y-131910498D01*
X202465506Y-131969463D01*
X202368815Y-132048815D01*
X202289463Y-132145506D01*
X202230498Y-132255820D01*
X202194188Y-132375518D01*
X202181928Y-132500000D01*
X200745100Y-132500000D01*
X200745100Y-128707721D01*
X202183000Y-128707721D01*
X202183000Y-129128279D01*
X202265047Y-129540756D01*
X202425988Y-129929302D01*
X202659637Y-130278983D01*
X202957017Y-130576363D01*
X203306698Y-130810012D01*
X203695244Y-130970953D01*
X204107721Y-131053000D01*
X204528279Y-131053000D01*
X204940756Y-130970953D01*
X205329302Y-130810012D01*
X205678983Y-130576363D01*
X205976363Y-130278983D01*
X206210012Y-129929302D01*
X206370953Y-129540756D01*
X206453000Y-129128279D01*
X206453000Y-128707721D01*
X206370953Y-128295244D01*
X206210012Y-127906698D01*
X205976363Y-127557017D01*
X205678983Y-127259637D01*
X205329302Y-127025988D01*
X204940756Y-126865047D01*
X204528279Y-126783000D01*
X204107721Y-126783000D01*
X203695244Y-126865047D01*
X203306698Y-127025988D01*
X202957017Y-127259637D01*
X202659637Y-127557017D01*
X202425988Y-127906698D01*
X202265047Y-128295244D01*
X202183000Y-128707721D01*
X200745100Y-128707721D01*
X200745100Y-122338000D01*
X202179928Y-122338000D01*
X202179928Y-125338000D01*
X202192188Y-125462482D01*
X202228498Y-125582180D01*
X202287463Y-125692494D01*
X202366815Y-125789185D01*
X202463506Y-125868537D01*
X202573820Y-125927502D01*
X202693518Y-125963812D01*
X202818000Y-125976072D01*
X205818000Y-125976072D01*
X205942482Y-125963812D01*
X206062180Y-125927502D01*
X206172494Y-125868537D01*
X206269185Y-125789185D01*
X206348537Y-125692494D01*
X206407502Y-125582180D01*
X206443812Y-125462482D01*
X206456072Y-125338000D01*
X206456072Y-122338000D01*
X206443812Y-122213518D01*
X206407502Y-122093820D01*
X206348537Y-121983506D01*
X206269185Y-121886815D01*
X206172494Y-121807463D01*
X206062180Y-121748498D01*
X205942482Y-121712188D01*
X205818000Y-121699928D01*
X202818000Y-121699928D01*
X202693518Y-121712188D01*
X202573820Y-121748498D01*
X202463506Y-121807463D01*
X202366815Y-121886815D01*
X202287463Y-121983506D01*
X202228498Y-122093820D01*
X202192188Y-122213518D01*
X202179928Y-122338000D01*
X200745100Y-122338000D01*
X200745100Y-118549721D01*
X202185000Y-118549721D01*
X202185000Y-118970279D01*
X202267047Y-119382756D01*
X202427988Y-119771302D01*
X202661637Y-120120983D01*
X202959017Y-120418363D01*
X203308698Y-120652012D01*
X203697244Y-120812953D01*
X204109721Y-120895000D01*
X204530279Y-120895000D01*
X204942756Y-120812953D01*
X205331302Y-120652012D01*
X205680983Y-120418363D01*
X205978363Y-120120983D01*
X206212012Y-119771302D01*
X206372953Y-119382756D01*
X206455000Y-118970279D01*
X206455000Y-118549721D01*
X206372953Y-118137244D01*
X206212012Y-117748698D01*
X205978363Y-117399017D01*
X205680983Y-117101637D01*
X205331302Y-116867988D01*
X204942756Y-116707047D01*
X204530279Y-116625000D01*
X204109721Y-116625000D01*
X203697244Y-116707047D01*
X203308698Y-116867988D01*
X202959017Y-117101637D01*
X202661637Y-117399017D01*
X202427988Y-117748698D01*
X202267047Y-118137244D01*
X202185000Y-118549721D01*
X200745100Y-118549721D01*
X200745100Y-112180000D01*
X202181928Y-112180000D01*
X202181928Y-115180000D01*
X202194188Y-115304482D01*
X202230498Y-115424180D01*
X202289463Y-115534494D01*
X202368815Y-115631185D01*
X202465506Y-115710537D01*
X202575820Y-115769502D01*
X202695518Y-115805812D01*
X202820000Y-115818072D01*
X205820000Y-115818072D01*
X205944482Y-115805812D01*
X206064180Y-115769502D01*
X206174494Y-115710537D01*
X206271185Y-115631185D01*
X206350537Y-115534494D01*
X206409502Y-115424180D01*
X206445812Y-115304482D01*
X206458072Y-115180000D01*
X206458072Y-112180000D01*
X206445812Y-112055518D01*
X206409502Y-111935820D01*
X206350537Y-111825506D01*
X206271185Y-111728815D01*
X206174494Y-111649463D01*
X206064180Y-111590498D01*
X205944482Y-111554188D01*
X205820000Y-111541928D01*
X202820000Y-111541928D01*
X202695518Y-111554188D01*
X202575820Y-111590498D01*
X202465506Y-111649463D01*
X202368815Y-111728815D01*
X202289463Y-111825506D01*
X202230498Y-111935820D01*
X202194188Y-112055518D01*
X202181928Y-112180000D01*
X200745100Y-112180000D01*
X200745100Y-108389721D01*
X202185000Y-108389721D01*
X202185000Y-108810279D01*
X202267047Y-109222756D01*
X202427988Y-109611302D01*
X202661637Y-109960983D01*
X202959017Y-110258363D01*
X203308698Y-110492012D01*
X203697244Y-110652953D01*
X204109721Y-110735000D01*
X204530279Y-110735000D01*
X204942756Y-110652953D01*
X205331302Y-110492012D01*
X205680983Y-110258363D01*
X205978363Y-109960983D01*
X206212012Y-109611302D01*
X206372953Y-109222756D01*
X206455000Y-108810279D01*
X206455000Y-108389721D01*
X206372953Y-107977244D01*
X206212012Y-107588698D01*
X205978363Y-107239017D01*
X205680983Y-106941637D01*
X205331302Y-106707988D01*
X204942756Y-106547047D01*
X204530279Y-106465000D01*
X204109721Y-106465000D01*
X203697244Y-106547047D01*
X203308698Y-106707988D01*
X202959017Y-106941637D01*
X202661637Y-107239017D01*
X202427988Y-107588698D01*
X202267047Y-107977244D01*
X202185000Y-108389721D01*
X200745100Y-108389721D01*
X200745100Y-102020000D01*
X202181928Y-102020000D01*
X202181928Y-105020000D01*
X202194188Y-105144482D01*
X202230498Y-105264180D01*
X202289463Y-105374494D01*
X202368815Y-105471185D01*
X202465506Y-105550537D01*
X202575820Y-105609502D01*
X202695518Y-105645812D01*
X202820000Y-105658072D01*
X205820000Y-105658072D01*
X205944482Y-105645812D01*
X206064180Y-105609502D01*
X206174494Y-105550537D01*
X206271185Y-105471185D01*
X206350537Y-105374494D01*
X206409502Y-105264180D01*
X206445812Y-105144482D01*
X206458072Y-105020000D01*
X206458072Y-102020000D01*
X206445812Y-101895518D01*
X206409502Y-101775820D01*
X206350537Y-101665506D01*
X206271185Y-101568815D01*
X206174494Y-101489463D01*
X206064180Y-101430498D01*
X205944482Y-101394188D01*
X205820000Y-101381928D01*
X202820000Y-101381928D01*
X202695518Y-101394188D01*
X202575820Y-101430498D01*
X202465506Y-101489463D01*
X202368815Y-101568815D01*
X202289463Y-101665506D01*
X202230498Y-101775820D01*
X202194188Y-101895518D01*
X202181928Y-102020000D01*
X200745100Y-102020000D01*
X200745100Y-98870481D01*
X201003425Y-99257093D01*
X201452907Y-99706575D01*
X201981442Y-100059730D01*
X202568719Y-100302988D01*
X203192168Y-100427000D01*
X203827832Y-100427000D01*
X204451281Y-100302988D01*
X205038558Y-100059730D01*
X205567093Y-99706575D01*
X206016575Y-99257093D01*
X206369730Y-98728558D01*
X206612988Y-98141281D01*
X206737000Y-97517832D01*
X206737000Y-96882168D01*
X206612988Y-96258719D01*
X206369730Y-95671442D01*
X206016575Y-95142907D01*
X205567093Y-94693425D01*
X205167611Y-94426500D01*
X208167871Y-94426500D01*
X207948842Y-94470068D01*
G04 #@! TA.AperFunction,Conductor*
D24*
G36*
X207948842Y-94470068D02*
G01*
X207678589Y-94582010D01*
X207435368Y-94744525D01*
X207228525Y-94951368D01*
X207066010Y-95194589D01*
X206954068Y-95464842D01*
X206897000Y-95751740D01*
X206897000Y-96044260D01*
X206954068Y-96331158D01*
X207066010Y-96601411D01*
X207228525Y-96844632D01*
X207360380Y-96976487D01*
X207287820Y-96998498D01*
X207177506Y-97057463D01*
X207080815Y-97136815D01*
X207001463Y-97233506D01*
X206942498Y-97343820D01*
X206906188Y-97463518D01*
X206893928Y-97588000D01*
X206893928Y-99288000D01*
X206906188Y-99412482D01*
X206942498Y-99532180D01*
X207001463Y-99642494D01*
X207080815Y-99739185D01*
X207177506Y-99818537D01*
X207287820Y-99877502D01*
X207407518Y-99913812D01*
X207532000Y-99926072D01*
X207581646Y-99926072D01*
X207606829Y-100009088D01*
X207684365Y-100154147D01*
X207788710Y-100281292D01*
X207915855Y-100385637D01*
X208060914Y-100463173D01*
X208218312Y-100510919D01*
X208340982Y-100523001D01*
X208340990Y-100523001D01*
X208382001Y-100527040D01*
X208423010Y-100523001D01*
X212576999Y-100523001D01*
X212577000Y-110960970D01*
X212572959Y-111001999D01*
X212589081Y-111165687D01*
X212636827Y-111323085D01*
X212714363Y-111468144D01*
X212714364Y-111468145D01*
X212818709Y-111595290D01*
X212850573Y-111621440D01*
X218260559Y-117031427D01*
X218286709Y-117063291D01*
X218386272Y-117145000D01*
X218413854Y-117167636D01*
X218558913Y-117245172D01*
X218716311Y-117292918D01*
X218879999Y-117309040D01*
X218921018Y-117305000D01*
X219550578Y-117305000D01*
X219558353Y-117312775D01*
X219736060Y-117431515D01*
X219933517Y-117513304D01*
X220143137Y-117555000D01*
X220356863Y-117555000D01*
X220380194Y-117550359D01*
X219556550Y-118374003D01*
X219552775Y-118368353D01*
X219401647Y-118217225D01*
X219223940Y-118098485D01*
X219026483Y-118016696D01*
X218816863Y-117975000D01*
X218603137Y-117975000D01*
X218393517Y-118016696D01*
X218196060Y-118098485D01*
X218018353Y-118217225D01*
X217910578Y-118325000D01*
X213646105Y-118325000D01*
X213610000Y-118321444D01*
X213465915Y-118335635D01*
X213327366Y-118377663D01*
X213199680Y-118445913D01*
X213087762Y-118537762D01*
X213064746Y-118565807D01*
X212655553Y-118975000D01*
X212503137Y-118975000D01*
X212293517Y-119016696D01*
X212096060Y-119098485D01*
X211918353Y-119217225D01*
X211767225Y-119368353D01*
X211648485Y-119546060D01*
X211566696Y-119743517D01*
X211525000Y-119953137D01*
X211525000Y-120105553D01*
X208615808Y-123014746D01*
X208587762Y-123037763D01*
X208495913Y-123149681D01*
X208427663Y-123277368D01*
X208406130Y-123348353D01*
X208385635Y-123415915D01*
X208371444Y-123560000D01*
X208375000Y-123596105D01*
X208375001Y-137073885D01*
X208371444Y-137110000D01*
X208385635Y-137254085D01*
X208402919Y-137311060D01*
X208427664Y-137392633D01*
X208495914Y-137520320D01*
X208587763Y-137632238D01*
X208615808Y-137655254D01*
X212984746Y-142024193D01*
X213007762Y-142052238D01*
X213091579Y-142121025D01*
X213205553Y-142234999D01*
X211765742Y-142234999D01*
X211710000Y-142229509D01*
X211654258Y-142234999D01*
X211654249Y-142234999D01*
X211487502Y-142251422D01*
X211273554Y-142316323D01*
X211076378Y-142421715D01*
X210903552Y-142563550D01*
X210868010Y-142606859D01*
X210042941Y-143431928D01*
X209310000Y-143431928D01*
X209185518Y-143444188D01*
X209065820Y-143480498D01*
X208955506Y-143539463D01*
X208858815Y-143618815D01*
X208779463Y-143715506D01*
X208720498Y-143825820D01*
X208684188Y-143945518D01*
X208671928Y-144070000D01*
X208671928Y-145770000D01*
X208684188Y-145894482D01*
X208720498Y-146014180D01*
X208779463Y-146124494D01*
X208858815Y-146221185D01*
X208955506Y-146300537D01*
X209065820Y-146359502D01*
X209141626Y-146382498D01*
X208964822Y-146578645D01*
X208815843Y-146828748D01*
X208718519Y-147103109D01*
X208839186Y-147333000D01*
X210033000Y-147333000D01*
X210033000Y-147313000D01*
X210287000Y-147313000D01*
X210287000Y-147333000D01*
X210307000Y-147333000D01*
X210307000Y-147587000D01*
X210287000Y-147587000D01*
X210287000Y-148780155D01*
X210516890Y-148901476D01*
X210664099Y-148856825D01*
X210926920Y-148731641D01*
X211160269Y-148557588D01*
X211355178Y-148341355D01*
X211424805Y-148224466D01*
X211546525Y-148406632D01*
X211753368Y-148613475D01*
X211996589Y-148775990D01*
X212266842Y-148887932D01*
X212553740Y-148945000D01*
X212846260Y-148945000D01*
X213133158Y-148887932D01*
X213403411Y-148775990D01*
X213646632Y-148613475D01*
X213853475Y-148406632D01*
X213975195Y-148224466D01*
X214044822Y-148341355D01*
X214239731Y-148557588D01*
X214473080Y-148731641D01*
X214735901Y-148856825D01*
X214883110Y-148901476D01*
X215113000Y-148780155D01*
X215113000Y-147587000D01*
X215093000Y-147587000D01*
X215093000Y-147333000D01*
X215113000Y-147333000D01*
X215113000Y-147313000D01*
X215367000Y-147313000D01*
X215367000Y-147333000D01*
X215387000Y-147333000D01*
X215387000Y-147587000D01*
X215367000Y-147587000D01*
X215367000Y-148780155D01*
X215596890Y-148901476D01*
X215744099Y-148856825D01*
X216006920Y-148731641D01*
X216240269Y-148557588D01*
X216435178Y-148341355D01*
X216504805Y-148224466D01*
X216626525Y-148406632D01*
X216833368Y-148613475D01*
X217076589Y-148775990D01*
X217346842Y-148887932D01*
X217633740Y-148945000D01*
X217926260Y-148945000D01*
X218213158Y-148887932D01*
X218483411Y-148775990D01*
X218726632Y-148613475D01*
X218933475Y-148406632D01*
X219095990Y-148163411D01*
X219207932Y-147893158D01*
X219265000Y-147606260D01*
X219265000Y-147313740D01*
X219207932Y-147026842D01*
X219095990Y-146756589D01*
X218933475Y-146513368D01*
X218726632Y-146306525D01*
X218550594Y-146188900D01*
X218780269Y-146017588D01*
X218975178Y-145801355D01*
X219124157Y-145551252D01*
X219221481Y-145276891D01*
X219100814Y-145047000D01*
X217907000Y-145047000D01*
X217907000Y-145067000D01*
X217653000Y-145067000D01*
X217653000Y-145047000D01*
X217633000Y-145047000D01*
X217633000Y-144793000D01*
X217653000Y-144793000D01*
X217653000Y-144773000D01*
X217907000Y-144773000D01*
X217907000Y-144793000D01*
X219100814Y-144793000D01*
X219220275Y-144565406D01*
X223611368Y-148956500D01*
X205193053Y-148956500D01*
X205567093Y-148706575D01*
X206016575Y-148257093D01*
X206310707Y-147816891D01*
X208718519Y-147816891D01*
X208815843Y-148091252D01*
X208964822Y-148341355D01*
X209159731Y-148557588D01*
X209393080Y-148731641D01*
X209655901Y-148856825D01*
X209803110Y-148901476D01*
X210033000Y-148780155D01*
X210033000Y-147587000D01*
X208839186Y-147587000D01*
X208718519Y-147816891D01*
X206310707Y-147816891D01*
X206369730Y-147728558D01*
X206612988Y-147141281D01*
X206737000Y-146517832D01*
X206737000Y-145882168D01*
X206612988Y-145258719D01*
X206369730Y-144671442D01*
X206016575Y-144142907D01*
X205567093Y-143693425D01*
X205038558Y-143340270D01*
X204451281Y-143097012D01*
X203827832Y-142973000D01*
X203192168Y-142973000D01*
X202568719Y-143097012D01*
X201981442Y-143340270D01*
X201452907Y-143693425D01*
X201003425Y-144142907D01*
X200745100Y-144529519D01*
X200745100Y-138869721D01*
X202185000Y-138869721D01*
X202185000Y-139290279D01*
X202267047Y-139702756D01*
X202427988Y-140091302D01*
X202661637Y-140440983D01*
X202959017Y-140738363D01*
X203308698Y-140972012D01*
X203697244Y-141132953D01*
X204109721Y-141215000D01*
X204530279Y-141215000D01*
X204942756Y-141132953D01*
X205331302Y-140972012D01*
X205680983Y-140738363D01*
X205978363Y-140440983D01*
X206212012Y-140091302D01*
X206372953Y-139702756D01*
X206455000Y-139290279D01*
X206455000Y-138869721D01*
X206372953Y-138457244D01*
X206212012Y-138068698D01*
X205978363Y-137719017D01*
X205680983Y-137421637D01*
X205331302Y-137187988D01*
X204942756Y-137027047D01*
X204530279Y-136945000D01*
X204109721Y-136945000D01*
X203697244Y-137027047D01*
X203308698Y-137187988D01*
X202959017Y-137421637D01*
X202661637Y-137719017D01*
X202427988Y-138068698D01*
X202267047Y-138457244D01*
X202185000Y-138869721D01*
X200745100Y-138869721D01*
X200745100Y-132500000D01*
X202181928Y-132500000D01*
X202181928Y-135500000D01*
X202194188Y-135624482D01*
X202230498Y-135744180D01*
X202289463Y-135854494D01*
X202368815Y-135951185D01*
X202465506Y-136030537D01*
X202575820Y-136089502D01*
X202695518Y-136125812D01*
X202820000Y-136138072D01*
X205820000Y-136138072D01*
X205944482Y-136125812D01*
X206064180Y-136089502D01*
X206174494Y-136030537D01*
X206271185Y-135951185D01*
X206350537Y-135854494D01*
X206409502Y-135744180D01*
X206445812Y-135624482D01*
X206458072Y-135500000D01*
X206458072Y-132500000D01*
X206445812Y-132375518D01*
X206409502Y-132255820D01*
X206350537Y-132145506D01*
X206271185Y-132048815D01*
X206174494Y-131969463D01*
X206064180Y-131910498D01*
X205944482Y-131874188D01*
X205820000Y-131861928D01*
X202820000Y-131861928D01*
X202695518Y-131874188D01*
X202575820Y-131910498D01*
X202465506Y-131969463D01*
X202368815Y-132048815D01*
X202289463Y-132145506D01*
X202230498Y-132255820D01*
X202194188Y-132375518D01*
X202181928Y-132500000D01*
X200745100Y-132500000D01*
X200745100Y-128707721D01*
X202183000Y-128707721D01*
X202183000Y-129128279D01*
X202265047Y-129540756D01*
X202425988Y-129929302D01*
X202659637Y-130278983D01*
X202957017Y-130576363D01*
X203306698Y-130810012D01*
X203695244Y-130970953D01*
X204107721Y-131053000D01*
X204528279Y-131053000D01*
X204940756Y-130970953D01*
X205329302Y-130810012D01*
X205678983Y-130576363D01*
X205976363Y-130278983D01*
X206210012Y-129929302D01*
X206370953Y-129540756D01*
X206453000Y-129128279D01*
X206453000Y-128707721D01*
X206370953Y-128295244D01*
X206210012Y-127906698D01*
X205976363Y-127557017D01*
X205678983Y-127259637D01*
X205329302Y-127025988D01*
X204940756Y-126865047D01*
X204528279Y-126783000D01*
X204107721Y-126783000D01*
X203695244Y-126865047D01*
X203306698Y-127025988D01*
X202957017Y-127259637D01*
X202659637Y-127557017D01*
X202425988Y-127906698D01*
X202265047Y-128295244D01*
X202183000Y-128707721D01*
X200745100Y-128707721D01*
X200745100Y-122338000D01*
X202179928Y-122338000D01*
X202179928Y-125338000D01*
X202192188Y-125462482D01*
X202228498Y-125582180D01*
X202287463Y-125692494D01*
X202366815Y-125789185D01*
X202463506Y-125868537D01*
X202573820Y-125927502D01*
X202693518Y-125963812D01*
X202818000Y-125976072D01*
X205818000Y-125976072D01*
X205942482Y-125963812D01*
X206062180Y-125927502D01*
X206172494Y-125868537D01*
X206269185Y-125789185D01*
X206348537Y-125692494D01*
X206407502Y-125582180D01*
X206443812Y-125462482D01*
X206456072Y-125338000D01*
X206456072Y-122338000D01*
X206443812Y-122213518D01*
X206407502Y-122093820D01*
X206348537Y-121983506D01*
X206269185Y-121886815D01*
X206172494Y-121807463D01*
X206062180Y-121748498D01*
X205942482Y-121712188D01*
X205818000Y-121699928D01*
X202818000Y-121699928D01*
X202693518Y-121712188D01*
X202573820Y-121748498D01*
X202463506Y-121807463D01*
X202366815Y-121886815D01*
X202287463Y-121983506D01*
X202228498Y-122093820D01*
X202192188Y-122213518D01*
X202179928Y-122338000D01*
X200745100Y-122338000D01*
X200745100Y-118549721D01*
X202185000Y-118549721D01*
X202185000Y-118970279D01*
X202267047Y-119382756D01*
X202427988Y-119771302D01*
X202661637Y-120120983D01*
X202959017Y-120418363D01*
X203308698Y-120652012D01*
X203697244Y-120812953D01*
X204109721Y-120895000D01*
X204530279Y-120895000D01*
X204942756Y-120812953D01*
X205331302Y-120652012D01*
X205680983Y-120418363D01*
X205978363Y-120120983D01*
X206212012Y-119771302D01*
X206372953Y-119382756D01*
X206455000Y-118970279D01*
X206455000Y-118549721D01*
X206372953Y-118137244D01*
X206212012Y-117748698D01*
X205978363Y-117399017D01*
X205680983Y-117101637D01*
X205331302Y-116867988D01*
X204942756Y-116707047D01*
X204530279Y-116625000D01*
X204109721Y-116625000D01*
X203697244Y-116707047D01*
X203308698Y-116867988D01*
X202959017Y-117101637D01*
X202661637Y-117399017D01*
X202427988Y-117748698D01*
X202267047Y-118137244D01*
X202185000Y-118549721D01*
X200745100Y-118549721D01*
X200745100Y-112180000D01*
X202181928Y-112180000D01*
X202181928Y-115180000D01*
X202194188Y-115304482D01*
X202230498Y-115424180D01*
X202289463Y-115534494D01*
X202368815Y-115631185D01*
X202465506Y-115710537D01*
X202575820Y-115769502D01*
X202695518Y-115805812D01*
X202820000Y-115818072D01*
X205820000Y-115818072D01*
X205944482Y-115805812D01*
X206064180Y-115769502D01*
X206174494Y-115710537D01*
X206271185Y-115631185D01*
X206350537Y-115534494D01*
X206409502Y-115424180D01*
X206445812Y-115304482D01*
X206458072Y-115180000D01*
X206458072Y-112180000D01*
X206445812Y-112055518D01*
X206409502Y-111935820D01*
X206350537Y-111825506D01*
X206271185Y-111728815D01*
X206174494Y-111649463D01*
X206064180Y-111590498D01*
X205944482Y-111554188D01*
X205820000Y-111541928D01*
X202820000Y-111541928D01*
X202695518Y-111554188D01*
X202575820Y-111590498D01*
X202465506Y-111649463D01*
X202368815Y-111728815D01*
X202289463Y-111825506D01*
X202230498Y-111935820D01*
X202194188Y-112055518D01*
X202181928Y-112180000D01*
X200745100Y-112180000D01*
X200745100Y-108389721D01*
X202185000Y-108389721D01*
X202185000Y-108810279D01*
X202267047Y-109222756D01*
X202427988Y-109611302D01*
X202661637Y-109960983D01*
X202959017Y-110258363D01*
X203308698Y-110492012D01*
X203697244Y-110652953D01*
X204109721Y-110735000D01*
X204530279Y-110735000D01*
X204942756Y-110652953D01*
X205331302Y-110492012D01*
X205680983Y-110258363D01*
X205978363Y-109960983D01*
X206212012Y-109611302D01*
X206372953Y-109222756D01*
X206455000Y-108810279D01*
X206455000Y-108389721D01*
X206372953Y-107977244D01*
X206212012Y-107588698D01*
X205978363Y-107239017D01*
X205680983Y-106941637D01*
X205331302Y-106707988D01*
X204942756Y-106547047D01*
X204530279Y-106465000D01*
X204109721Y-106465000D01*
X203697244Y-106547047D01*
X203308698Y-106707988D01*
X202959017Y-106941637D01*
X202661637Y-107239017D01*
X202427988Y-107588698D01*
X202267047Y-107977244D01*
X202185000Y-108389721D01*
X200745100Y-108389721D01*
X200745100Y-102020000D01*
X202181928Y-102020000D01*
X202181928Y-105020000D01*
X202194188Y-105144482D01*
X202230498Y-105264180D01*
X202289463Y-105374494D01*
X202368815Y-105471185D01*
X202465506Y-105550537D01*
X202575820Y-105609502D01*
X202695518Y-105645812D01*
X202820000Y-105658072D01*
X205820000Y-105658072D01*
X205944482Y-105645812D01*
X206064180Y-105609502D01*
X206174494Y-105550537D01*
X206271185Y-105471185D01*
X206350537Y-105374494D01*
X206409502Y-105264180D01*
X206445812Y-105144482D01*
X206458072Y-105020000D01*
X206458072Y-102020000D01*
X206445812Y-101895518D01*
X206409502Y-101775820D01*
X206350537Y-101665506D01*
X206271185Y-101568815D01*
X206174494Y-101489463D01*
X206064180Y-101430498D01*
X205944482Y-101394188D01*
X205820000Y-101381928D01*
X202820000Y-101381928D01*
X202695518Y-101394188D01*
X202575820Y-101430498D01*
X202465506Y-101489463D01*
X202368815Y-101568815D01*
X202289463Y-101665506D01*
X202230498Y-101775820D01*
X202194188Y-101895518D01*
X202181928Y-102020000D01*
X200745100Y-102020000D01*
X200745100Y-98870481D01*
X201003425Y-99257093D01*
X201452907Y-99706575D01*
X201981442Y-100059730D01*
X202568719Y-100302988D01*
X203192168Y-100427000D01*
X203827832Y-100427000D01*
X204451281Y-100302988D01*
X205038558Y-100059730D01*
X205567093Y-99706575D01*
X206016575Y-99257093D01*
X206369730Y-98728558D01*
X206612988Y-98141281D01*
X206737000Y-97517832D01*
X206737000Y-96882168D01*
X206612988Y-96258719D01*
X206369730Y-95671442D01*
X206016575Y-95142907D01*
X205567093Y-94693425D01*
X205167611Y-94426500D01*
X208167871Y-94426500D01*
X207948842Y-94470068D01*
G37*
G04 #@! TD.AperFunction*
D23*
X282449355Y-94473093D02*
X282871881Y-94600661D01*
X283261581Y-94807868D01*
X283603611Y-95086820D01*
X283884948Y-95426898D01*
X284094870Y-95815139D01*
X284225385Y-96236768D01*
X284275101Y-96709772D01*
X284275100Y-146655546D01*
X284228506Y-147130756D01*
X284100937Y-147553282D01*
X283893731Y-147942980D01*
X283614776Y-148285014D01*
X283274704Y-148566347D01*
X282886456Y-148776272D01*
X282464836Y-148906784D01*
X281991837Y-148956500D01*
X263178087Y-148956500D01*
X263567093Y-148696575D01*
X264016575Y-148247093D01*
X264369730Y-147718558D01*
X264612988Y-147131281D01*
X264737000Y-146507832D01*
X264737000Y-145872168D01*
X264612988Y-145248719D01*
X264369730Y-144661442D01*
X264016575Y-144132907D01*
X263567093Y-143683425D01*
X263038558Y-143330270D01*
X262451281Y-143087012D01*
X261827832Y-142963000D01*
X261192168Y-142963000D01*
X260568719Y-143087012D01*
X259981442Y-143330270D01*
X259452907Y-143683425D01*
X259003425Y-144132907D01*
X258650270Y-144661442D01*
X258407012Y-145248719D01*
X258283000Y-145872168D01*
X258283000Y-146507832D01*
X258407012Y-147131281D01*
X258650270Y-147718558D01*
X259003425Y-148247093D01*
X259452907Y-148696575D01*
X259841913Y-148956500D01*
X253478631Y-148956500D01*
X267928656Y-134506475D01*
X274881000Y-134506475D01*
X274881000Y-135025525D01*
X274982261Y-135534601D01*
X275180893Y-136014141D01*
X275469262Y-136445715D01*
X275836285Y-136812738D01*
X276267859Y-137101107D01*
X276747399Y-137299739D01*
X277256475Y-137401000D01*
X277775525Y-137401000D01*
X278284601Y-137299739D01*
X278764141Y-137101107D01*
X279195715Y-136812738D01*
X279562738Y-136445715D01*
X279851107Y-136014141D01*
X280049739Y-135534601D01*
X280151000Y-135025525D01*
X280151000Y-134506475D01*
X280049739Y-133997399D01*
X279851107Y-133517859D01*
X279562738Y-133086285D01*
X279195715Y-132719262D01*
X278764141Y-132430893D01*
X278284601Y-132232261D01*
X277775525Y-132131000D01*
X277256475Y-132131000D01*
X276747399Y-132232261D01*
X276267859Y-132430893D01*
X275836285Y-132719262D01*
X275469262Y-133086285D01*
X275180893Y-133517859D01*
X274982261Y-133997399D01*
X274881000Y-134506475D01*
X267928656Y-134506475D01*
X271200132Y-131235000D01*
X281024249Y-131235000D01*
X281080000Y-131240491D01*
X281135751Y-131235000D01*
X281135752Y-131235000D01*
X281302499Y-131218577D01*
X281516447Y-131153676D01*
X281713623Y-131048284D01*
X281886449Y-130906449D01*
X281921995Y-130863136D01*
X283213146Y-129571987D01*
X283256449Y-129536449D01*
X283372534Y-129395000D01*
X283398284Y-129363623D01*
X283503676Y-129166447D01*
X283568577Y-128952499D01*
X283590491Y-128730000D01*
X283585000Y-128674248D01*
X283585000Y-107615741D01*
X283590490Y-107559999D01*
X283585000Y-107504257D01*
X283585000Y-107504248D01*
X283568577Y-107337501D01*
X283503676Y-107123553D01*
X283398284Y-106926377D01*
X283256449Y-106753551D01*
X283213141Y-106718009D01*
X281281996Y-104786865D01*
X281246449Y-104743551D01*
X281073623Y-104601716D01*
X280876447Y-104496324D01*
X280662499Y-104431423D01*
X280495752Y-104415000D01*
X280495751Y-104415000D01*
X280440000Y-104409509D01*
X280384249Y-104415000D01*
X270734284Y-104415000D01*
X270529727Y-104278320D01*
X270268574Y-104170147D01*
X269991335Y-104115000D01*
X269708665Y-104115000D01*
X269431426Y-104170147D01*
X269170273Y-104278320D01*
X268935241Y-104435363D01*
X268735363Y-104635241D01*
X268578320Y-104870273D01*
X268470147Y-105131426D01*
X268415000Y-105408665D01*
X268415000Y-105691335D01*
X268470147Y-105968574D01*
X268578320Y-106229727D01*
X268735363Y-106464759D01*
X268935241Y-106664637D01*
X269170273Y-106821680D01*
X269180865Y-106826067D01*
X268994869Y-106937615D01*
X268786481Y-107126586D01*
X268618963Y-107352580D01*
X268498754Y-107606913D01*
X268458096Y-107740961D01*
X268580085Y-107963000D01*
X269723000Y-107963000D01*
X269723000Y-107943000D01*
X269977000Y-107943000D01*
X269977000Y-107963000D01*
X271119915Y-107963000D01*
X271241904Y-107740961D01*
X271201246Y-107606913D01*
X271081037Y-107352580D01*
X270913519Y-107126586D01*
X270705131Y-106937615D01*
X270519135Y-106826067D01*
X270529727Y-106821680D01*
X270734284Y-106685000D01*
X279969869Y-106685000D01*
X281315000Y-108030132D01*
X281315000Y-117412297D01*
X281170637Y-117196241D01*
X280970759Y-116996363D01*
X280735727Y-116839320D01*
X280474574Y-116731147D01*
X280197335Y-116676000D01*
X279914665Y-116676000D01*
X279637426Y-116731147D01*
X279376273Y-116839320D01*
X279141241Y-116996363D01*
X278941363Y-117196241D01*
X278784320Y-117431273D01*
X278676147Y-117692426D01*
X278621000Y-117969665D01*
X278621000Y-118252335D01*
X278676147Y-118529574D01*
X278784320Y-118790727D01*
X278941363Y-119025759D01*
X279141241Y-119225637D01*
X279376273Y-119382680D01*
X279637426Y-119490853D01*
X279663301Y-119496000D01*
X279637426Y-119501147D01*
X279376273Y-119609320D01*
X279141241Y-119766363D01*
X278941363Y-119966241D01*
X278784320Y-120201273D01*
X278676147Y-120462426D01*
X278621000Y-120739665D01*
X278621000Y-121022335D01*
X278676147Y-121299574D01*
X278784320Y-121560727D01*
X278941363Y-121795759D01*
X279141241Y-121995637D01*
X279376273Y-122152680D01*
X279637426Y-122260853D01*
X279663301Y-122266000D01*
X279637426Y-122271147D01*
X279376273Y-122379320D01*
X279141241Y-122536363D01*
X278941363Y-122736241D01*
X278784320Y-122971273D01*
X278676147Y-123232426D01*
X278621000Y-123509665D01*
X278621000Y-123792335D01*
X278676147Y-124069574D01*
X278784320Y-124330727D01*
X278941363Y-124565759D01*
X279141241Y-124765637D01*
X279376273Y-124922680D01*
X279637426Y-125030853D01*
X279665882Y-125036513D01*
X279439708Y-125117397D01*
X279314486Y-125184329D01*
X279242903Y-125428298D01*
X280056000Y-126241395D01*
X280869097Y-125428298D01*
X280797514Y-125184329D01*
X280542004Y-125063429D01*
X280439711Y-125037788D01*
X280474574Y-125030853D01*
X280735727Y-124922680D01*
X280970759Y-124765637D01*
X281170637Y-124565759D01*
X281315001Y-124349703D01*
X281315001Y-125721263D01*
X281292671Y-125679486D01*
X281048702Y-125607903D01*
X280235605Y-126421000D01*
X281048702Y-127234097D01*
X281292671Y-127162514D01*
X281315001Y-127115322D01*
X281315001Y-128259867D01*
X280609868Y-128965000D01*
X277980303Y-128965000D01*
X278029097Y-128798702D01*
X277216000Y-127985605D01*
X276402903Y-128798702D01*
X276451697Y-128965000D01*
X272295588Y-128965000D01*
X272335000Y-128766863D01*
X272335000Y-128553137D01*
X272293304Y-128343517D01*
X272211515Y-128146060D01*
X272092775Y-127968353D01*
X272000934Y-127876512D01*
X275775783Y-127876512D01*
X275817213Y-128156130D01*
X275912397Y-128422292D01*
X275979329Y-128547514D01*
X276223298Y-128619097D01*
X277036395Y-127806000D01*
X277395605Y-127806000D01*
X278208702Y-128619097D01*
X278452671Y-128547514D01*
X278573571Y-128292004D01*
X278642300Y-128017816D01*
X278656217Y-127735488D01*
X278614787Y-127455870D01*
X278599708Y-127413702D01*
X279242903Y-127413702D01*
X279314486Y-127657671D01*
X279569996Y-127778571D01*
X279844184Y-127847300D01*
X280126512Y-127861217D01*
X280406130Y-127819787D01*
X280672292Y-127724603D01*
X280797514Y-127657671D01*
X280869097Y-127413702D01*
X280056000Y-126600605D01*
X279242903Y-127413702D01*
X278599708Y-127413702D01*
X278519603Y-127189708D01*
X278452671Y-127064486D01*
X278208702Y-126992903D01*
X277395605Y-127806000D01*
X277036395Y-127806000D01*
X276223298Y-126992903D01*
X275979329Y-127064486D01*
X275858429Y-127319996D01*
X275789700Y-127594184D01*
X275775783Y-127876512D01*
X272000934Y-127876512D01*
X271941647Y-127817225D01*
X271763940Y-127698485D01*
X271566483Y-127616696D01*
X271356863Y-127575000D01*
X271143137Y-127575000D01*
X270933517Y-127616696D01*
X270736060Y-127698485D01*
X270558353Y-127817225D01*
X270450578Y-127925000D01*
X269394447Y-127925000D01*
X268128190Y-126658744D01*
X268081515Y-126546060D01*
X267962775Y-126368353D01*
X267811647Y-126217225D01*
X267633940Y-126098485D01*
X267436483Y-126016696D01*
X267226863Y-125975000D01*
X267013137Y-125975000D01*
X266803517Y-126016696D01*
X266606060Y-126098485D01*
X266428353Y-126217225D01*
X266277225Y-126368353D01*
X266158485Y-126546060D01*
X266076696Y-126743517D01*
X266035000Y-126953137D01*
X266035000Y-127166863D01*
X266076696Y-127376483D01*
X266158485Y-127573940D01*
X266277225Y-127751647D01*
X266428353Y-127902775D01*
X266606060Y-128021515D01*
X266803517Y-128103304D01*
X267013137Y-128145000D01*
X267226863Y-128145000D01*
X267436483Y-128103304D01*
X267477053Y-128086499D01*
X268544746Y-129154193D01*
X268567762Y-129182238D01*
X268595806Y-129205253D01*
X268679680Y-129274087D01*
X268807366Y-129342337D01*
X268945915Y-129384365D01*
X269090000Y-129398556D01*
X269126105Y-129395000D01*
X269829868Y-129395000D01*
X251679869Y-147545000D01*
X225410132Y-147545000D01*
X221170120Y-143304989D01*
X224777543Y-143304989D01*
X225585000Y-144112447D01*
X225585000Y-144264863D01*
X225626696Y-144474483D01*
X225708485Y-144671940D01*
X225827225Y-144849647D01*
X225978353Y-145000775D01*
X226156060Y-145119515D01*
X226353517Y-145201304D01*
X226563137Y-145243000D01*
X226776863Y-145243000D01*
X226986483Y-145201304D01*
X227183940Y-145119515D01*
X227361647Y-145000775D01*
X227512775Y-144849647D01*
X227631515Y-144671940D01*
X227661641Y-144599208D01*
X227680060Y-144611515D01*
X227877517Y-144693304D01*
X228087137Y-144735000D01*
X228300863Y-144735000D01*
X228510483Y-144693304D01*
X228707940Y-144611515D01*
X228885647Y-144492775D01*
X228993422Y-144385000D01*
X236530897Y-144385000D01*
X236548696Y-144474483D01*
X236630485Y-144671940D01*
X236749225Y-144849647D01*
X236900353Y-145000775D01*
X237078060Y-145119515D01*
X237275517Y-145201304D01*
X237485137Y-145243000D01*
X237698863Y-145243000D01*
X237908483Y-145201304D01*
X238105940Y-145119515D01*
X238283647Y-145000775D01*
X238434775Y-144849647D01*
X238553515Y-144671940D01*
X238635304Y-144474483D01*
X238638618Y-144457823D01*
X238755137Y-144481000D01*
X238968863Y-144481000D01*
X239178483Y-144439304D01*
X239375940Y-144357515D01*
X239553647Y-144238775D01*
X239661422Y-144131000D01*
X245175895Y-144131000D01*
X245212000Y-144134556D01*
X245248105Y-144131000D01*
X245356085Y-144120365D01*
X245494633Y-144078337D01*
X245622320Y-144010087D01*
X245734238Y-143918238D01*
X245757258Y-143890188D01*
X245928446Y-143719000D01*
X246080863Y-143719000D01*
X246290483Y-143677304D01*
X246487940Y-143595515D01*
X246665647Y-143476775D01*
X246816775Y-143325647D01*
X246935515Y-143147940D01*
X247017304Y-142950483D01*
X247059000Y-142740863D01*
X247059000Y-142527137D01*
X247017304Y-142317517D01*
X247009691Y-142299137D01*
X248135000Y-143424447D01*
X248135000Y-143576863D01*
X248176696Y-143786483D01*
X248258485Y-143983940D01*
X248377225Y-144161647D01*
X248528353Y-144312775D01*
X248706060Y-144431515D01*
X248903517Y-144513304D01*
X249113137Y-144555000D01*
X249326863Y-144555000D01*
X249536483Y-144513304D01*
X249733940Y-144431515D01*
X249911647Y-144312775D01*
X250062775Y-144161647D01*
X250181515Y-143983940D01*
X250263304Y-143786483D01*
X250305000Y-143576863D01*
X250305000Y-143363137D01*
X250263304Y-143153517D01*
X250181515Y-142956060D01*
X250062775Y-142778353D01*
X249911647Y-142627225D01*
X249820484Y-142566312D01*
X249963158Y-142537932D01*
X250233411Y-142425990D01*
X250476632Y-142263475D01*
X250683475Y-142056632D01*
X250800000Y-141882240D01*
X250916525Y-142056632D01*
X251123368Y-142263475D01*
X251366589Y-142425990D01*
X251636842Y-142537932D01*
X251923740Y-142595000D01*
X252216260Y-142595000D01*
X252503158Y-142537932D01*
X252773411Y-142425990D01*
X253016632Y-142263475D01*
X253223475Y-142056632D01*
X253385990Y-141813411D01*
X253497932Y-141543158D01*
X253555000Y-141256260D01*
X253555000Y-140963740D01*
X253497932Y-140676842D01*
X253385990Y-140406589D01*
X253223475Y-140163368D01*
X253091620Y-140031513D01*
X253164180Y-140009502D01*
X253274494Y-139950537D01*
X253371185Y-139871185D01*
X253450537Y-139774494D01*
X253509502Y-139664180D01*
X253545812Y-139544482D01*
X253558072Y-139420000D01*
X253558072Y-137720000D01*
X253545812Y-137595518D01*
X253509502Y-137475820D01*
X253450537Y-137365506D01*
X253371185Y-137268815D01*
X253274494Y-137189463D01*
X253164180Y-137130498D01*
X253044482Y-137094188D01*
X252920000Y-137081928D01*
X251220000Y-137081928D01*
X251095518Y-137094188D01*
X250975820Y-137130498D01*
X250865506Y-137189463D01*
X250800000Y-137243222D01*
X250734494Y-137189463D01*
X250624180Y-137130498D01*
X250504482Y-137094188D01*
X250380000Y-137081928D01*
X248680000Y-137081928D01*
X248555518Y-137094188D01*
X248435820Y-137130498D01*
X248325506Y-137189463D01*
X248228815Y-137268815D01*
X248149463Y-137365506D01*
X248090498Y-137475820D01*
X248054188Y-137595518D01*
X248041928Y-137720000D01*
X248041928Y-139420000D01*
X248054188Y-139544482D01*
X248090498Y-139664180D01*
X248149463Y-139774494D01*
X248228815Y-139871185D01*
X248325506Y-139950537D01*
X248435820Y-140009502D01*
X248508380Y-140031513D01*
X248376525Y-140163368D01*
X248214010Y-140406589D01*
X248102068Y-140676842D01*
X248045000Y-140963740D01*
X248045000Y-141255554D01*
X247805258Y-141015812D01*
X247782238Y-140987762D01*
X247670320Y-140895913D01*
X247542633Y-140827663D01*
X247404085Y-140785635D01*
X247296105Y-140775000D01*
X247260000Y-140771444D01*
X247223895Y-140775000D01*
X233584447Y-140775000D01*
X232485258Y-139675812D01*
X232462238Y-139647762D01*
X232350320Y-139555913D01*
X232222633Y-139487663D01*
X232084085Y-139445635D01*
X231976105Y-139435000D01*
X231940000Y-139431444D01*
X231903895Y-139435000D01*
X231679422Y-139435000D01*
X231571647Y-139327225D01*
X231393940Y-139208485D01*
X231196483Y-139126696D01*
X230986863Y-139085000D01*
X230773137Y-139085000D01*
X230740685Y-139091455D01*
X230639085Y-139060635D01*
X230531105Y-139050000D01*
X230495000Y-139046444D01*
X230458895Y-139050000D01*
X230419447Y-139050000D01*
X230085257Y-138715811D01*
X230085253Y-138715806D01*
X228072584Y-136703137D01*
X243225000Y-136703137D01*
X243225000Y-136916863D01*
X243266696Y-137126483D01*
X243348485Y-137323940D01*
X243467225Y-137501647D01*
X243618353Y-137652775D01*
X243796060Y-137771515D01*
X243993517Y-137853304D01*
X244203137Y-137895000D01*
X244240000Y-137895000D01*
X244240000Y-137931863D01*
X244281696Y-138141483D01*
X244363485Y-138338940D01*
X244482225Y-138516647D01*
X244633353Y-138667775D01*
X244811060Y-138786515D01*
X245008517Y-138868304D01*
X245132112Y-138892888D01*
X245156696Y-139016483D01*
X245238485Y-139213940D01*
X245357225Y-139391647D01*
X245508353Y-139542775D01*
X245686060Y-139661515D01*
X245883517Y-139743304D01*
X246093137Y-139785000D01*
X246306863Y-139785000D01*
X246516483Y-139743304D01*
X246713940Y-139661515D01*
X246891647Y-139542775D01*
X247042775Y-139391647D01*
X247161515Y-139213940D01*
X247243304Y-139016483D01*
X247285000Y-138806863D01*
X247285000Y-138593137D01*
X247243304Y-138383517D01*
X247161515Y-138186060D01*
X247042775Y-138008353D01*
X246891647Y-137857225D01*
X246713940Y-137738485D01*
X246516483Y-137656696D01*
X246392888Y-137632112D01*
X246368304Y-137508517D01*
X246286515Y-137311060D01*
X246167775Y-137133353D01*
X246016647Y-136982225D01*
X245838940Y-136863485D01*
X245641483Y-136781696D01*
X245431863Y-136740000D01*
X245395000Y-136740000D01*
X245395000Y-136703137D01*
X245353304Y-136493517D01*
X245271515Y-136296060D01*
X245152775Y-136118353D01*
X245001647Y-135967225D01*
X244823940Y-135848485D01*
X244626483Y-135766696D01*
X244416863Y-135725000D01*
X244203137Y-135725000D01*
X243993517Y-135766696D01*
X243796060Y-135848485D01*
X243618353Y-135967225D01*
X243467225Y-136118353D01*
X243348485Y-136296060D01*
X243266696Y-136493517D01*
X243225000Y-136703137D01*
X228072584Y-136703137D01*
X224895000Y-133525554D01*
X224895000Y-132813129D01*
X239935008Y-132813129D01*
X239935008Y-133026855D01*
X239976704Y-133236475D01*
X240058493Y-133433932D01*
X240177233Y-133611639D01*
X240328361Y-133762767D01*
X240506068Y-133881507D01*
X240703525Y-133963296D01*
X240913145Y-134004992D01*
X241126871Y-134004992D01*
X241336491Y-133963296D01*
X241533948Y-133881507D01*
X241711655Y-133762767D01*
X241725008Y-133749414D01*
X241738361Y-133762767D01*
X241916068Y-133881507D01*
X242113525Y-133963296D01*
X242323145Y-134004992D01*
X242536871Y-134004992D01*
X242746491Y-133963296D01*
X242943948Y-133881507D01*
X243100008Y-133777231D01*
X243256068Y-133881507D01*
X243453525Y-133963296D01*
X243663145Y-134004992D01*
X243876871Y-134004992D01*
X244086491Y-133963296D01*
X244283948Y-133881507D01*
X244461655Y-133762767D01*
X244612783Y-133611639D01*
X244731523Y-133433932D01*
X244813312Y-133236475D01*
X244855008Y-133026855D01*
X244855008Y-132813129D01*
X244813312Y-132603509D01*
X244731523Y-132406052D01*
X244612783Y-132228345D01*
X244461655Y-132077217D01*
X244283948Y-131958477D01*
X244086491Y-131876688D01*
X243876871Y-131834992D01*
X243663145Y-131834992D01*
X243453525Y-131876688D01*
X243256068Y-131958477D01*
X243100008Y-132062753D01*
X242943948Y-131958477D01*
X242746491Y-131876688D01*
X242536871Y-131834992D01*
X242323145Y-131834992D01*
X242113525Y-131876688D01*
X241916068Y-131958477D01*
X241738361Y-132077217D01*
X241725008Y-132090570D01*
X241711655Y-132077217D01*
X241533948Y-131958477D01*
X241336491Y-131876688D01*
X241126871Y-131834992D01*
X240913145Y-131834992D01*
X240703525Y-131876688D01*
X240506068Y-131958477D01*
X240328361Y-132077217D01*
X240177233Y-132228345D01*
X240058493Y-132406052D01*
X239976704Y-132603509D01*
X239935008Y-132813129D01*
X224895000Y-132813129D01*
X224895000Y-127329458D01*
X224973137Y-127345000D01*
X225186863Y-127345000D01*
X225396483Y-127303304D01*
X225593940Y-127221515D01*
X225771647Y-127102775D01*
X225879422Y-126995000D01*
X228104575Y-126995000D01*
X228136696Y-127156483D01*
X228218485Y-127353940D01*
X228337225Y-127531647D01*
X228488353Y-127682775D01*
X228666060Y-127801515D01*
X228863517Y-127883304D01*
X229073137Y-127925000D01*
X229286863Y-127925000D01*
X229496483Y-127883304D01*
X229693940Y-127801515D01*
X229871647Y-127682775D01*
X230022775Y-127531647D01*
X230141515Y-127353940D01*
X230223304Y-127156483D01*
X230265000Y-126946863D01*
X230265000Y-126733137D01*
X230223304Y-126523517D01*
X230141515Y-126326060D01*
X230022775Y-126148353D01*
X229871647Y-125997225D01*
X229693940Y-125878485D01*
X229496483Y-125796696D01*
X229286863Y-125755000D01*
X229136385Y-125755000D01*
X229122238Y-125737762D01*
X229031308Y-125663137D01*
X242985000Y-125663137D01*
X242985000Y-125876863D01*
X243026696Y-126086483D01*
X243108485Y-126283940D01*
X243227225Y-126461647D01*
X243378353Y-126612775D01*
X243556060Y-126731515D01*
X243753517Y-126813304D01*
X243935498Y-126849502D01*
X243971696Y-127031483D01*
X244053485Y-127228940D01*
X244172225Y-127406647D01*
X244323353Y-127557775D01*
X244501060Y-127676515D01*
X244698517Y-127758304D01*
X244908137Y-127800000D01*
X245000000Y-127800000D01*
X245000000Y-127891863D01*
X245041696Y-128101483D01*
X245123485Y-128298940D01*
X245242225Y-128476647D01*
X245393353Y-128627775D01*
X245571060Y-128746515D01*
X245768517Y-128828304D01*
X245978137Y-128870000D01*
X246191863Y-128870000D01*
X246401483Y-128828304D01*
X246598940Y-128746515D01*
X246776647Y-128627775D01*
X246927775Y-128476647D01*
X247046515Y-128298940D01*
X247128304Y-128101483D01*
X247170000Y-127891863D01*
X247170000Y-127678137D01*
X247128304Y-127468517D01*
X247046515Y-127271060D01*
X246927775Y-127093353D01*
X246776647Y-126942225D01*
X246598940Y-126823485D01*
X246401483Y-126741696D01*
X246191863Y-126700000D01*
X246100000Y-126700000D01*
X246100000Y-126608137D01*
X246058304Y-126398517D01*
X246013355Y-126290000D01*
X248041928Y-126290000D01*
X248041928Y-127990000D01*
X248054188Y-128114482D01*
X248090498Y-128234180D01*
X248149463Y-128344494D01*
X248228815Y-128441185D01*
X248325506Y-128520537D01*
X248435820Y-128579502D01*
X248508380Y-128601513D01*
X248376525Y-128733368D01*
X248214010Y-128976589D01*
X248102068Y-129246842D01*
X248045000Y-129533740D01*
X248045000Y-129826260D01*
X248102068Y-130113158D01*
X248214010Y-130383411D01*
X248376525Y-130626632D01*
X248583368Y-130833475D01*
X248826589Y-130995990D01*
X249096842Y-131107932D01*
X249383740Y-131165000D01*
X249676260Y-131165000D01*
X249963158Y-131107932D01*
X250233411Y-130995990D01*
X250476632Y-130833475D01*
X250683475Y-130626632D01*
X250800000Y-130452240D01*
X250916525Y-130626632D01*
X251123368Y-130833475D01*
X251366589Y-130995990D01*
X251636842Y-131107932D01*
X251923740Y-131165000D01*
X252216260Y-131165000D01*
X252503158Y-131107932D01*
X252773411Y-130995990D01*
X253016632Y-130833475D01*
X253223475Y-130626632D01*
X253385990Y-130383411D01*
X253497932Y-130113158D01*
X253555000Y-129826260D01*
X253555000Y-129533740D01*
X253497932Y-129246842D01*
X253385990Y-128976589D01*
X253223475Y-128733368D01*
X253091620Y-128601513D01*
X253164180Y-128579502D01*
X253274494Y-128520537D01*
X253371185Y-128441185D01*
X253450537Y-128344494D01*
X253509502Y-128234180D01*
X253545812Y-128114482D01*
X253558072Y-127990000D01*
X253558072Y-126290000D01*
X253545812Y-126165518D01*
X253509502Y-126045820D01*
X253450537Y-125935506D01*
X253371185Y-125838815D01*
X253274494Y-125759463D01*
X253164180Y-125700498D01*
X253044482Y-125664188D01*
X252920000Y-125651928D01*
X251220000Y-125651928D01*
X251095518Y-125664188D01*
X250975820Y-125700498D01*
X250865506Y-125759463D01*
X250800000Y-125813222D01*
X250734494Y-125759463D01*
X250624180Y-125700498D01*
X250504482Y-125664188D01*
X250380000Y-125651928D01*
X248680000Y-125651928D01*
X248555518Y-125664188D01*
X248435820Y-125700498D01*
X248325506Y-125759463D01*
X248228815Y-125838815D01*
X248149463Y-125935506D01*
X248090498Y-126045820D01*
X248054188Y-126165518D01*
X248041928Y-126290000D01*
X246013355Y-126290000D01*
X245976515Y-126201060D01*
X245857775Y-126023353D01*
X245706647Y-125872225D01*
X245528940Y-125753485D01*
X245331483Y-125671696D01*
X245149502Y-125635498D01*
X245113304Y-125453517D01*
X245031515Y-125256060D01*
X244912775Y-125078353D01*
X244761647Y-124927225D01*
X244583940Y-124808485D01*
X244386483Y-124726696D01*
X244176863Y-124685000D01*
X243963137Y-124685000D01*
X243753517Y-124726696D01*
X243556060Y-124808485D01*
X243378353Y-124927225D01*
X243227225Y-125078353D01*
X243108485Y-125256060D01*
X243026696Y-125453517D01*
X242985000Y-125663137D01*
X229031308Y-125663137D01*
X229010320Y-125645913D01*
X228882633Y-125577663D01*
X228744085Y-125535635D01*
X228636105Y-125525000D01*
X228600000Y-125521444D01*
X228563895Y-125525000D01*
X225879422Y-125525000D01*
X225771647Y-125417225D01*
X225593940Y-125298485D01*
X225396483Y-125216696D01*
X225186863Y-125175000D01*
X224973137Y-125175000D01*
X224895000Y-125190542D01*
X224895000Y-124869422D01*
X225002775Y-124761647D01*
X225121515Y-124583940D01*
X225203304Y-124386483D01*
X225245000Y-124176863D01*
X225245000Y-123963137D01*
X225203304Y-123753517D01*
X225121515Y-123556060D01*
X225002775Y-123378353D01*
X224851647Y-123227225D01*
X224673940Y-123108485D01*
X224476483Y-123026696D01*
X224266863Y-122985000D01*
X224053137Y-122985000D01*
X223843517Y-123026696D01*
X223646060Y-123108485D01*
X223468353Y-123227225D01*
X223317225Y-123378353D01*
X223198485Y-123556060D01*
X223116696Y-123753517D01*
X223075000Y-123963137D01*
X223075000Y-124176863D01*
X223116696Y-124386483D01*
X223198485Y-124583940D01*
X223317225Y-124761647D01*
X223425000Y-124869422D01*
X223425001Y-133435555D01*
X220835000Y-130845554D01*
X220835000Y-126676094D01*
X220838555Y-126639999D01*
X220835000Y-126603904D01*
X220835000Y-126603895D01*
X220824365Y-126495915D01*
X220782337Y-126357367D01*
X220714087Y-126229680D01*
X220687892Y-126197762D01*
X220645253Y-126145806D01*
X220645250Y-126145803D01*
X220622237Y-126117762D01*
X220594197Y-126094750D01*
X219545000Y-125045554D01*
X219545000Y-124893137D01*
X219503304Y-124683517D01*
X219421515Y-124486060D01*
X219302775Y-124308353D01*
X219191933Y-124197511D01*
X219650252Y-123739193D01*
X219650256Y-123739188D01*
X221276315Y-122113129D01*
X240065008Y-122113129D01*
X240065008Y-122326855D01*
X240106704Y-122536475D01*
X240188493Y-122733932D01*
X240307233Y-122911639D01*
X240458361Y-123062767D01*
X240636068Y-123181507D01*
X240833525Y-123263296D01*
X241043145Y-123304992D01*
X241256871Y-123304992D01*
X241466491Y-123263296D01*
X241663948Y-123181507D01*
X241810008Y-123083913D01*
X241956068Y-123181507D01*
X242153525Y-123263296D01*
X242363145Y-123304992D01*
X242576871Y-123304992D01*
X242786491Y-123263296D01*
X242983948Y-123181507D01*
X243161655Y-123062767D01*
X243185008Y-123039414D01*
X243208361Y-123062767D01*
X243386068Y-123181507D01*
X243583525Y-123263296D01*
X243793145Y-123304992D01*
X244006871Y-123304992D01*
X244216491Y-123263296D01*
X244413948Y-123181507D01*
X244591655Y-123062767D01*
X244742783Y-122911639D01*
X244861523Y-122733932D01*
X244943312Y-122536475D01*
X244985008Y-122326855D01*
X244985008Y-122113129D01*
X244943312Y-121903509D01*
X244861523Y-121706052D01*
X244742783Y-121528345D01*
X244591655Y-121377217D01*
X244413948Y-121258477D01*
X244216491Y-121176688D01*
X244006871Y-121134992D01*
X243793145Y-121134992D01*
X243583525Y-121176688D01*
X243386068Y-121258477D01*
X243208361Y-121377217D01*
X243185008Y-121400570D01*
X243161655Y-121377217D01*
X242983948Y-121258477D01*
X242786491Y-121176688D01*
X242576871Y-121134992D01*
X242363145Y-121134992D01*
X242153525Y-121176688D01*
X241956068Y-121258477D01*
X241810008Y-121356071D01*
X241663948Y-121258477D01*
X241466491Y-121176688D01*
X241256871Y-121134992D01*
X241043145Y-121134992D01*
X240833525Y-121176688D01*
X240636068Y-121258477D01*
X240458361Y-121377217D01*
X240307233Y-121528345D01*
X240188493Y-121706052D01*
X240106704Y-121903509D01*
X240065008Y-122113129D01*
X221276315Y-122113129D01*
X222314445Y-121075000D01*
X245710578Y-121075000D01*
X245818353Y-121182775D01*
X245996060Y-121301515D01*
X246193517Y-121383304D01*
X246403137Y-121425000D01*
X246616863Y-121425000D01*
X246826483Y-121383304D01*
X247023940Y-121301515D01*
X247201647Y-121182775D01*
X247352775Y-121031647D01*
X247471515Y-120853940D01*
X247553304Y-120656483D01*
X247595000Y-120446863D01*
X247595000Y-120233137D01*
X247553304Y-120023517D01*
X247471515Y-119826060D01*
X247352775Y-119648353D01*
X247201647Y-119497225D01*
X247023940Y-119378485D01*
X246826483Y-119296696D01*
X246616863Y-119255000D01*
X246403137Y-119255000D01*
X246193517Y-119296696D01*
X245996060Y-119378485D01*
X245818353Y-119497225D01*
X245710578Y-119605000D01*
X222046103Y-119605000D01*
X222009998Y-119601444D01*
X221865912Y-119615635D01*
X221823884Y-119628384D01*
X221727365Y-119657663D01*
X221599678Y-119725913D01*
X221487760Y-119817762D01*
X221464744Y-119845807D01*
X218610810Y-122699742D01*
X218610805Y-122699746D01*
X218005552Y-123305000D01*
X216919422Y-123305000D01*
X216811647Y-123197225D01*
X216644144Y-123085303D01*
X218258173Y-121471274D01*
X218271105Y-121470000D01*
X218379085Y-121459365D01*
X218517633Y-121417337D01*
X218645320Y-121349087D01*
X218757238Y-121257238D01*
X218780259Y-121229187D01*
X222519447Y-117490000D01*
X222671863Y-117490000D01*
X222881483Y-117448304D01*
X223078940Y-117366515D01*
X223256647Y-117247775D01*
X223407775Y-117096647D01*
X223526515Y-116918940D01*
X223608304Y-116721483D01*
X223650000Y-116511863D01*
X223650000Y-116298137D01*
X223608304Y-116088517D01*
X223526515Y-115891060D01*
X223407775Y-115713353D01*
X223256647Y-115562225D01*
X223078940Y-115443485D01*
X222881483Y-115361696D01*
X222671863Y-115320000D01*
X222519446Y-115320000D01*
X222177583Y-114978137D01*
X243090000Y-114978137D01*
X243090000Y-115191863D01*
X243131696Y-115401483D01*
X243213485Y-115598940D01*
X243332225Y-115776647D01*
X243483353Y-115927775D01*
X243661060Y-116046515D01*
X243858517Y-116128304D01*
X243990452Y-116154548D01*
X244016696Y-116286483D01*
X244098485Y-116483940D01*
X244217225Y-116661647D01*
X244368353Y-116812775D01*
X244546060Y-116931515D01*
X244743517Y-117013304D01*
X244953137Y-117055000D01*
X244980000Y-117055000D01*
X244980000Y-117081863D01*
X245021696Y-117291483D01*
X245103485Y-117488940D01*
X245222225Y-117666647D01*
X245373353Y-117817775D01*
X245551060Y-117936515D01*
X245748517Y-118018304D01*
X245958137Y-118060000D01*
X246171863Y-118060000D01*
X246381483Y-118018304D01*
X246578940Y-117936515D01*
X246756647Y-117817775D01*
X246907775Y-117666647D01*
X247026515Y-117488940D01*
X247108304Y-117291483D01*
X247150000Y-117081863D01*
X247150000Y-116868137D01*
X247108304Y-116658517D01*
X247026515Y-116461060D01*
X246907775Y-116283353D01*
X246756647Y-116132225D01*
X246578940Y-116013485D01*
X246381483Y-115931696D01*
X246171863Y-115890000D01*
X246145000Y-115890000D01*
X246145000Y-115863137D01*
X246103304Y-115653517D01*
X246021515Y-115456060D01*
X245902775Y-115278353D01*
X245751647Y-115127225D01*
X245573940Y-115008485D01*
X245376483Y-114926696D01*
X245244548Y-114900452D01*
X245218304Y-114768517D01*
X245136515Y-114571060D01*
X245017775Y-114393353D01*
X244866647Y-114242225D01*
X244688940Y-114123485D01*
X244491483Y-114041696D01*
X244281863Y-114000000D01*
X244068137Y-114000000D01*
X243858517Y-114041696D01*
X243661060Y-114123485D01*
X243483353Y-114242225D01*
X243332225Y-114393353D01*
X243213485Y-114571060D01*
X243131696Y-114768517D01*
X243090000Y-114978137D01*
X222177583Y-114978137D01*
X222095258Y-114895812D01*
X222072238Y-114867762D01*
X221960320Y-114775913D01*
X221832633Y-114707663D01*
X221694085Y-114665635D01*
X221586105Y-114655000D01*
X221550000Y-114651444D01*
X221513895Y-114655000D01*
X219394447Y-114655000D01*
X218329447Y-113590000D01*
X248041928Y-113590000D01*
X248041928Y-115290000D01*
X248054188Y-115414482D01*
X248090498Y-115534180D01*
X248149463Y-115644494D01*
X248228815Y-115741185D01*
X248325506Y-115820537D01*
X248435820Y-115879502D01*
X248508380Y-115901513D01*
X248376525Y-116033368D01*
X248214010Y-116276589D01*
X248102068Y-116546842D01*
X248045000Y-116833740D01*
X248045000Y-117126260D01*
X248102068Y-117413158D01*
X248214010Y-117683411D01*
X248376525Y-117926632D01*
X248583368Y-118133475D01*
X248826589Y-118295990D01*
X249096842Y-118407932D01*
X249383740Y-118465000D01*
X249676260Y-118465000D01*
X249963158Y-118407932D01*
X250233411Y-118295990D01*
X250476632Y-118133475D01*
X250683475Y-117926632D01*
X250800000Y-117752240D01*
X250916525Y-117926632D01*
X251123368Y-118133475D01*
X251366589Y-118295990D01*
X251636842Y-118407932D01*
X251923740Y-118465000D01*
X252216260Y-118465000D01*
X252503158Y-118407932D01*
X252773411Y-118295990D01*
X253016632Y-118133475D01*
X253223475Y-117926632D01*
X253385990Y-117683411D01*
X253497932Y-117413158D01*
X253555000Y-117126260D01*
X253555000Y-116833740D01*
X253497932Y-116546842D01*
X253385990Y-116276589D01*
X253223475Y-116033368D01*
X253091620Y-115901513D01*
X253164180Y-115879502D01*
X253274494Y-115820537D01*
X253371185Y-115741185D01*
X253450537Y-115644494D01*
X253509502Y-115534180D01*
X253545812Y-115414482D01*
X253558072Y-115290000D01*
X253558072Y-113590000D01*
X253545812Y-113465518D01*
X253509502Y-113345820D01*
X253450537Y-113235506D01*
X253371185Y-113138815D01*
X253274494Y-113059463D01*
X253164180Y-113000498D01*
X253044482Y-112964188D01*
X252920000Y-112951928D01*
X251220000Y-112951928D01*
X251095518Y-112964188D01*
X250975820Y-113000498D01*
X250865506Y-113059463D01*
X250800000Y-113113222D01*
X250734494Y-113059463D01*
X250624180Y-113000498D01*
X250504482Y-112964188D01*
X250380000Y-112951928D01*
X248680000Y-112951928D01*
X248555518Y-112964188D01*
X248435820Y-113000498D01*
X248325506Y-113059463D01*
X248228815Y-113138815D01*
X248149463Y-113235506D01*
X248090498Y-113345820D01*
X248054188Y-113465518D01*
X248041928Y-113590000D01*
X218329447Y-113590000D01*
X216222576Y-111483129D01*
X240455008Y-111483129D01*
X240455008Y-111696855D01*
X240496704Y-111906475D01*
X240578493Y-112103932D01*
X240697233Y-112281639D01*
X240848361Y-112432767D01*
X241026068Y-112551507D01*
X241223525Y-112633296D01*
X241433145Y-112674992D01*
X241646871Y-112674992D01*
X241856491Y-112633296D01*
X242053948Y-112551507D01*
X242175008Y-112470617D01*
X242296068Y-112551507D01*
X242493525Y-112633296D01*
X242703145Y-112674992D01*
X242916871Y-112674992D01*
X243126491Y-112633296D01*
X243323948Y-112551507D01*
X243470008Y-112453913D01*
X243616068Y-112551507D01*
X243813525Y-112633296D01*
X244023145Y-112674992D01*
X244236871Y-112674992D01*
X244446491Y-112633296D01*
X244643948Y-112551507D01*
X244821655Y-112432767D01*
X244972783Y-112281639D01*
X245091523Y-112103932D01*
X245173312Y-111906475D01*
X245215008Y-111696855D01*
X245215008Y-111483129D01*
X245173312Y-111273509D01*
X245091523Y-111076052D01*
X244972783Y-110898345D01*
X244821655Y-110747217D01*
X244643948Y-110628477D01*
X244446491Y-110546688D01*
X244236871Y-110504992D01*
X244023145Y-110504992D01*
X243813525Y-110546688D01*
X243616068Y-110628477D01*
X243470008Y-110726071D01*
X243323948Y-110628477D01*
X243126491Y-110546688D01*
X242916871Y-110504992D01*
X242703145Y-110504992D01*
X242493525Y-110546688D01*
X242296068Y-110628477D01*
X242175008Y-110709367D01*
X242053948Y-110628477D01*
X241856491Y-110546688D01*
X241646871Y-110504992D01*
X241433145Y-110504992D01*
X241223525Y-110546688D01*
X241026068Y-110628477D01*
X240848361Y-110747217D01*
X240697233Y-110898345D01*
X240578493Y-111076052D01*
X240496704Y-111273509D01*
X240455008Y-111483129D01*
X216222576Y-111483129D01*
X215425000Y-110685554D01*
X215425000Y-109963723D01*
X215532775Y-109855948D01*
X215651515Y-109678241D01*
X215733304Y-109480784D01*
X215756117Y-109366097D01*
X215773517Y-109373304D01*
X215983137Y-109415000D01*
X216196863Y-109415000D01*
X216406483Y-109373304D01*
X216603940Y-109291515D01*
X216781647Y-109172775D01*
X216889422Y-109065000D01*
X244885554Y-109065000D01*
X245165000Y-109344446D01*
X245165000Y-109496863D01*
X245206696Y-109706483D01*
X245288485Y-109903940D01*
X245407225Y-110081647D01*
X245558353Y-110232775D01*
X245736060Y-110351515D01*
X245933517Y-110433304D01*
X246143137Y-110475000D01*
X246356863Y-110475000D01*
X246566483Y-110433304D01*
X246763940Y-110351515D01*
X246941647Y-110232775D01*
X247092775Y-110081647D01*
X247211515Y-109903940D01*
X247293304Y-109706483D01*
X247335000Y-109496863D01*
X247335000Y-109283137D01*
X247293304Y-109073517D01*
X247211515Y-108876060D01*
X247092775Y-108698353D01*
X246941647Y-108547225D01*
X246763940Y-108428485D01*
X246566483Y-108346696D01*
X246356863Y-108305000D01*
X246204446Y-108305000D01*
X245735258Y-107835812D01*
X245713686Y-107809527D01*
X245843517Y-107863304D01*
X246053137Y-107905000D01*
X246266863Y-107905000D01*
X246476483Y-107863304D01*
X246673940Y-107781515D01*
X246851647Y-107662775D01*
X247002775Y-107511647D01*
X247121515Y-107333940D01*
X247203304Y-107136483D01*
X247245000Y-106926863D01*
X247245000Y-106713137D01*
X247203304Y-106503517D01*
X247121515Y-106306060D01*
X247002775Y-106128353D01*
X246851647Y-105977225D01*
X246673940Y-105858485D01*
X246476483Y-105776696D01*
X246266863Y-105735000D01*
X246155507Y-105735000D01*
X246138304Y-105648517D01*
X246056515Y-105451060D01*
X245937775Y-105273353D01*
X245786647Y-105122225D01*
X245608940Y-105003485D01*
X245411483Y-104921696D01*
X245204480Y-104880520D01*
X245163304Y-104673517D01*
X245081515Y-104476060D01*
X244962775Y-104298353D01*
X244811647Y-104147225D01*
X244633940Y-104028485D01*
X244436483Y-103946696D01*
X244226863Y-103905000D01*
X244013137Y-103905000D01*
X243803517Y-103946696D01*
X243606060Y-104028485D01*
X243428353Y-104147225D01*
X243277225Y-104298353D01*
X243158485Y-104476060D01*
X243076696Y-104673517D01*
X243035000Y-104883137D01*
X243035000Y-105096863D01*
X243076696Y-105306483D01*
X243158485Y-105503940D01*
X243277225Y-105681647D01*
X243428353Y-105832775D01*
X243606060Y-105951515D01*
X243803517Y-106033304D01*
X244010520Y-106074480D01*
X244051696Y-106281483D01*
X244133485Y-106478940D01*
X244252225Y-106656647D01*
X244403353Y-106807775D01*
X244581060Y-106926515D01*
X244778517Y-107008304D01*
X244988137Y-107050000D01*
X245099493Y-107050000D01*
X245116696Y-107136483D01*
X245198485Y-107333940D01*
X245317225Y-107511647D01*
X245444797Y-107639219D01*
X245334085Y-107605635D01*
X245226105Y-107595000D01*
X245190000Y-107591444D01*
X245153895Y-107595000D01*
X216889422Y-107595000D01*
X216781647Y-107487225D01*
X216603940Y-107368485D01*
X216406483Y-107286696D01*
X216196863Y-107245000D01*
X215983137Y-107245000D01*
X215773517Y-107286696D01*
X215576060Y-107368485D01*
X215398353Y-107487225D01*
X215247225Y-107638353D01*
X215128485Y-107816060D01*
X215046696Y-108013517D01*
X215023883Y-108128204D01*
X215006483Y-108120997D01*
X214796863Y-108079301D01*
X214583137Y-108079301D01*
X214373517Y-108120997D01*
X214246999Y-108173402D01*
X214246999Y-103430000D01*
X248041928Y-103430000D01*
X248041928Y-105130000D01*
X248054188Y-105254482D01*
X248090498Y-105374180D01*
X248149463Y-105484494D01*
X248228815Y-105581185D01*
X248325506Y-105660537D01*
X248435820Y-105719502D01*
X248508380Y-105741513D01*
X248376525Y-105873368D01*
X248214010Y-106116589D01*
X248102068Y-106386842D01*
X248045000Y-106673740D01*
X248045000Y-106966260D01*
X248102068Y-107253158D01*
X248214010Y-107523411D01*
X248376525Y-107766632D01*
X248583368Y-107973475D01*
X248826589Y-108135990D01*
X249096842Y-108247932D01*
X249383740Y-108305000D01*
X249676260Y-108305000D01*
X249963158Y-108247932D01*
X250233411Y-108135990D01*
X250476632Y-107973475D01*
X250683475Y-107766632D01*
X250800000Y-107592240D01*
X250916525Y-107766632D01*
X251123368Y-107973475D01*
X251366589Y-108135990D01*
X251636842Y-108247932D01*
X251923740Y-108305000D01*
X252216260Y-108305000D01*
X252503158Y-108247932D01*
X252773411Y-108135990D01*
X253016632Y-107973475D01*
X253223475Y-107766632D01*
X253385990Y-107523411D01*
X253497932Y-107253158D01*
X253555000Y-106966260D01*
X253555000Y-106673740D01*
X253497932Y-106386842D01*
X253385990Y-106116589D01*
X253223475Y-105873368D01*
X253091620Y-105741513D01*
X253164180Y-105719502D01*
X253274494Y-105660537D01*
X253371185Y-105581185D01*
X253450537Y-105484494D01*
X253509502Y-105374180D01*
X253545812Y-105254482D01*
X253558072Y-105130000D01*
X253558072Y-103430000D01*
X253545812Y-103305518D01*
X253509502Y-103185820D01*
X253450537Y-103075506D01*
X253371185Y-102978815D01*
X253274494Y-102899463D01*
X253164180Y-102840498D01*
X253044482Y-102804188D01*
X252920000Y-102791928D01*
X251220000Y-102791928D01*
X251095518Y-102804188D01*
X250975820Y-102840498D01*
X250865506Y-102899463D01*
X250800000Y-102953222D01*
X250734494Y-102899463D01*
X250624180Y-102840498D01*
X250504482Y-102804188D01*
X250380000Y-102791928D01*
X248680000Y-102791928D01*
X248555518Y-102804188D01*
X248435820Y-102840498D01*
X248325506Y-102899463D01*
X248228815Y-102978815D01*
X248149463Y-103075506D01*
X248090498Y-103185820D01*
X248054188Y-103305518D01*
X248041928Y-103430000D01*
X214246999Y-103430000D01*
X214246999Y-100523001D01*
X216400000Y-100523001D01*
X216400000Y-100651863D01*
X216441696Y-100861483D01*
X216523485Y-101058940D01*
X216642225Y-101236647D01*
X216793353Y-101387775D01*
X216971060Y-101506515D01*
X217168517Y-101588304D01*
X217378137Y-101630000D01*
X217591863Y-101630000D01*
X217801483Y-101588304D01*
X217998940Y-101506515D01*
X218176647Y-101387775D01*
X218284422Y-101280000D01*
X224006028Y-101280000D01*
X224025367Y-101290337D01*
X224163915Y-101332365D01*
X224271895Y-101343000D01*
X224271904Y-101343000D01*
X224307999Y-101346555D01*
X224344094Y-101343000D01*
X241442936Y-101343000D01*
X241425008Y-101433129D01*
X241425008Y-101646855D01*
X241466704Y-101856475D01*
X241548493Y-102053932D01*
X241667233Y-102231639D01*
X241818361Y-102382767D01*
X241996068Y-102501507D01*
X242193525Y-102583296D01*
X242403145Y-102624992D01*
X242616871Y-102624992D01*
X242826491Y-102583296D01*
X243023948Y-102501507D01*
X243110008Y-102444004D01*
X243196068Y-102501507D01*
X243393525Y-102583296D01*
X243603145Y-102624992D01*
X243816871Y-102624992D01*
X244026491Y-102583296D01*
X244223948Y-102501507D01*
X244325008Y-102433981D01*
X244426068Y-102501507D01*
X244623525Y-102583296D01*
X244833145Y-102624992D01*
X245046871Y-102624992D01*
X245256491Y-102583296D01*
X245453948Y-102501507D01*
X245631655Y-102382767D01*
X245782783Y-102231639D01*
X245901523Y-102053932D01*
X245983312Y-101856475D01*
X246025008Y-101646855D01*
X246025008Y-101433129D01*
X246007080Y-101343000D01*
X252223554Y-101343000D01*
X254148198Y-103267645D01*
X254148199Y-121027083D01*
X254144642Y-121063198D01*
X254158833Y-121207283D01*
X254195908Y-121329501D01*
X254200862Y-121345831D01*
X254269112Y-121473518D01*
X254360961Y-121585436D01*
X254389006Y-121608452D01*
X255757178Y-122976625D01*
X255715000Y-123188665D01*
X255715000Y-123471335D01*
X255770147Y-123748574D01*
X255878320Y-124009727D01*
X256035363Y-124244759D01*
X256235241Y-124444637D01*
X256470273Y-124601680D01*
X256731426Y-124709853D01*
X257008665Y-124765000D01*
X257291335Y-124765000D01*
X257568574Y-124709853D01*
X257829727Y-124601680D01*
X258064759Y-124444637D01*
X258264637Y-124244759D01*
X258341316Y-124130000D01*
X268411928Y-124130000D01*
X268424188Y-124254482D01*
X268460498Y-124374180D01*
X268519463Y-124484494D01*
X268598815Y-124581185D01*
X268695506Y-124660537D01*
X268805820Y-124719502D01*
X268925518Y-124755812D01*
X269050000Y-124768072D01*
X269564250Y-124765000D01*
X269723000Y-124606250D01*
X269723000Y-123457000D01*
X269977000Y-123457000D01*
X269977000Y-124606250D01*
X270135750Y-124765000D01*
X270650000Y-124768072D01*
X270774482Y-124755812D01*
X270894180Y-124719502D01*
X271004494Y-124660537D01*
X271101185Y-124581185D01*
X271180537Y-124484494D01*
X271239502Y-124374180D01*
X271275812Y-124254482D01*
X271288072Y-124130000D01*
X271285000Y-123615750D01*
X271126250Y-123457000D01*
X269977000Y-123457000D01*
X269723000Y-123457000D01*
X268573750Y-123457000D01*
X268415000Y-123615750D01*
X268411928Y-124130000D01*
X258341316Y-124130000D01*
X258421680Y-124009727D01*
X258529853Y-123748574D01*
X258585000Y-123471335D01*
X258585000Y-123188665D01*
X258529853Y-122911426D01*
X258421680Y-122650273D01*
X258341317Y-122530000D01*
X268411928Y-122530000D01*
X268415000Y-123044250D01*
X268573750Y-123203000D01*
X269723000Y-123203000D01*
X269723000Y-123183000D01*
X269977000Y-123183000D01*
X269977000Y-123203000D01*
X271126250Y-123203000D01*
X271285000Y-123044250D01*
X271288072Y-122530000D01*
X271275812Y-122405518D01*
X271239502Y-122285820D01*
X271180537Y-122175506D01*
X271101185Y-122078815D01*
X271004494Y-121999463D01*
X270894180Y-121940498D01*
X270774482Y-121904188D01*
X270766039Y-121903357D01*
X270964637Y-121704759D01*
X271121680Y-121469727D01*
X271229853Y-121208574D01*
X271285000Y-120931335D01*
X271285000Y-120648665D01*
X271229853Y-120371426D01*
X271121680Y-120110273D01*
X270964637Y-119875241D01*
X270764759Y-119675363D01*
X270532241Y-119520000D01*
X270764759Y-119364637D01*
X270964637Y-119164759D01*
X271121680Y-118929727D01*
X271229853Y-118668574D01*
X271285000Y-118391335D01*
X271285000Y-118108665D01*
X271229853Y-117831426D01*
X271121680Y-117570273D01*
X270964637Y-117335241D01*
X270764759Y-117135363D01*
X270532241Y-116980000D01*
X270764759Y-116824637D01*
X270964637Y-116624759D01*
X271121680Y-116389727D01*
X271229853Y-116128574D01*
X271285000Y-115851335D01*
X271285000Y-115568665D01*
X271229853Y-115291426D01*
X271121680Y-115030273D01*
X270964637Y-114795241D01*
X270764759Y-114595363D01*
X270532241Y-114440000D01*
X270734284Y-114305000D01*
X272189868Y-114305000D01*
X271938865Y-114556004D01*
X271895552Y-114591550D01*
X271753717Y-114764376D01*
X271681326Y-114899812D01*
X271648325Y-114961553D01*
X271583424Y-115175501D01*
X271561510Y-115397999D01*
X271567001Y-115453751D01*
X271567002Y-120466240D01*
X271561510Y-120522001D01*
X271583424Y-120744499D01*
X271648325Y-120958447D01*
X271679961Y-121017633D01*
X271753718Y-121155624D01*
X271895553Y-121328450D01*
X271938861Y-121363992D01*
X275652857Y-125077989D01*
X275652862Y-125077993D01*
X275788150Y-125213282D01*
X275836147Y-125454574D01*
X275944320Y-125715727D01*
X276101363Y-125950759D01*
X276301241Y-126150637D01*
X276536273Y-126307680D01*
X276797426Y-126415853D01*
X276825882Y-126421513D01*
X276599708Y-126502397D01*
X276474486Y-126569329D01*
X276402903Y-126813298D01*
X277216000Y-127626395D01*
X278029097Y-126813298D01*
X277957514Y-126569329D01*
X277793056Y-126491512D01*
X278615783Y-126491512D01*
X278657213Y-126771130D01*
X278752397Y-127037292D01*
X278819329Y-127162514D01*
X279063298Y-127234097D01*
X279876395Y-126421000D01*
X279063298Y-125607903D01*
X278819329Y-125679486D01*
X278698429Y-125934996D01*
X278629700Y-126209184D01*
X278615783Y-126491512D01*
X277793056Y-126491512D01*
X277702004Y-126448429D01*
X277599711Y-126422788D01*
X277634574Y-126415853D01*
X277895727Y-126307680D01*
X278130759Y-126150637D01*
X278330637Y-125950759D01*
X278487680Y-125715727D01*
X278595853Y-125454574D01*
X278651000Y-125177335D01*
X278651000Y-124894665D01*
X278595853Y-124617426D01*
X278487680Y-124356273D01*
X278330637Y-124121241D01*
X278130759Y-123921363D01*
X277895727Y-123764320D01*
X277634574Y-123656147D01*
X277608699Y-123651000D01*
X277634574Y-123645853D01*
X277895727Y-123537680D01*
X278130759Y-123380637D01*
X278330637Y-123180759D01*
X278487680Y-122945727D01*
X278595853Y-122684574D01*
X278651000Y-122407335D01*
X278651000Y-122124665D01*
X278595853Y-121847426D01*
X278487680Y-121586273D01*
X278330637Y-121351241D01*
X278130759Y-121151363D01*
X277895727Y-120994320D01*
X277634574Y-120886147D01*
X277608699Y-120881000D01*
X277634574Y-120875853D01*
X277895727Y-120767680D01*
X278130759Y-120610637D01*
X278330637Y-120410759D01*
X278487680Y-120175727D01*
X278595853Y-119914574D01*
X278651000Y-119637335D01*
X278651000Y-119354665D01*
X278595853Y-119077426D01*
X278487680Y-118816273D01*
X278330637Y-118581241D01*
X278130759Y-118381363D01*
X277895727Y-118224320D01*
X277750275Y-118164072D01*
X278016000Y-118164072D01*
X278140482Y-118151812D01*
X278260180Y-118115502D01*
X278370494Y-118056537D01*
X278467185Y-117977185D01*
X278546537Y-117880494D01*
X278605502Y-117770180D01*
X278641812Y-117650482D01*
X278654072Y-117526000D01*
X278654072Y-115926000D01*
X278641812Y-115801518D01*
X278605502Y-115681820D01*
X278546537Y-115571506D01*
X278467185Y-115474815D01*
X278370494Y-115395463D01*
X278260180Y-115336498D01*
X278140482Y-115300188D01*
X278016000Y-115287928D01*
X276416000Y-115287928D01*
X276319000Y-115297481D01*
X276319000Y-113225752D01*
X276324491Y-113170000D01*
X276302577Y-112947501D01*
X276237676Y-112733553D01*
X276132284Y-112536377D01*
X275990449Y-112363551D01*
X275817623Y-112221716D01*
X275620447Y-112116324D01*
X275406499Y-112051423D01*
X275239752Y-112035000D01*
X275239751Y-112035000D01*
X275184000Y-112029509D01*
X275128248Y-112035000D01*
X270734284Y-112035000D01*
X270532241Y-111900000D01*
X270764759Y-111744637D01*
X270964637Y-111544759D01*
X271121680Y-111309727D01*
X271229853Y-111048574D01*
X271285000Y-110771335D01*
X271285000Y-110488665D01*
X271229853Y-110211426D01*
X271121680Y-109950273D01*
X270964637Y-109715241D01*
X270764759Y-109515363D01*
X270751458Y-109506475D01*
X274881000Y-109506475D01*
X274881000Y-110025525D01*
X274982261Y-110534601D01*
X275180893Y-111014141D01*
X275469262Y-111445715D01*
X275836285Y-111812738D01*
X276267859Y-112101107D01*
X276747399Y-112299739D01*
X277256475Y-112401000D01*
X277775525Y-112401000D01*
X278284601Y-112299739D01*
X278764141Y-112101107D01*
X279195715Y-111812738D01*
X279562738Y-111445715D01*
X279851107Y-111014141D01*
X280049739Y-110534601D01*
X280151000Y-110025525D01*
X280151000Y-109506475D01*
X280049739Y-108997399D01*
X279851107Y-108517859D01*
X279562738Y-108086285D01*
X279195715Y-107719262D01*
X278764141Y-107430893D01*
X278284601Y-107232261D01*
X277775525Y-107131000D01*
X277256475Y-107131000D01*
X276747399Y-107232261D01*
X276267859Y-107430893D01*
X275836285Y-107719262D01*
X275469262Y-108086285D01*
X275180893Y-108517859D01*
X274982261Y-108997399D01*
X274881000Y-109506475D01*
X270751458Y-109506475D01*
X270529727Y-109358320D01*
X270519135Y-109353933D01*
X270705131Y-109242385D01*
X270913519Y-109053414D01*
X271081037Y-108827420D01*
X271201246Y-108573087D01*
X271241904Y-108439039D01*
X271119915Y-108217000D01*
X269977000Y-108217000D01*
X269977000Y-108237000D01*
X269723000Y-108237000D01*
X269723000Y-108217000D01*
X268580085Y-108217000D01*
X268458096Y-108439039D01*
X268498754Y-108573087D01*
X268618963Y-108827420D01*
X268786481Y-109053414D01*
X268994869Y-109242385D01*
X269180865Y-109353933D01*
X269170273Y-109358320D01*
X268935241Y-109515363D01*
X268735363Y-109715241D01*
X268578320Y-109950273D01*
X268470147Y-110211426D01*
X268415000Y-110488665D01*
X268415000Y-110771335D01*
X268470147Y-111048574D01*
X268578320Y-111309727D01*
X268735363Y-111544759D01*
X268935241Y-111744637D01*
X269167759Y-111900000D01*
X268935241Y-112055363D01*
X268735363Y-112255241D01*
X268578320Y-112490273D01*
X268470147Y-112751426D01*
X268415000Y-113028665D01*
X268415000Y-113311335D01*
X268470147Y-113588574D01*
X268578320Y-113849727D01*
X268735363Y-114084759D01*
X268935241Y-114284637D01*
X269167759Y-114440000D01*
X268935241Y-114595363D01*
X268735363Y-114795241D01*
X268578320Y-115030273D01*
X268470147Y-115291426D01*
X268415000Y-115568665D01*
X268415000Y-115851335D01*
X268470147Y-116128574D01*
X268578320Y-116389727D01*
X268735363Y-116624759D01*
X268935241Y-116824637D01*
X269167759Y-116980000D01*
X268935241Y-117135363D01*
X268735363Y-117335241D01*
X268578320Y-117570273D01*
X268470147Y-117831426D01*
X268415000Y-118108665D01*
X268415000Y-118391335D01*
X268470147Y-118668574D01*
X268578320Y-118929727D01*
X268735363Y-119164759D01*
X268935241Y-119364637D01*
X269167759Y-119520000D01*
X268935241Y-119675363D01*
X268735363Y-119875241D01*
X268578320Y-120110273D01*
X268470147Y-120371426D01*
X268415000Y-120648665D01*
X268415000Y-120931335D01*
X268470147Y-121208574D01*
X268578320Y-121469727D01*
X268735363Y-121704759D01*
X268933961Y-121903357D01*
X268925518Y-121904188D01*
X268805820Y-121940498D01*
X268695506Y-121999463D01*
X268598815Y-122078815D01*
X268519463Y-122175506D01*
X268460498Y-122285820D01*
X268424188Y-122405518D01*
X268411928Y-122530000D01*
X258341317Y-122530000D01*
X258264637Y-122415241D01*
X258064759Y-122215363D01*
X257832241Y-122060000D01*
X258064759Y-121904637D01*
X258264637Y-121704759D01*
X258421680Y-121469727D01*
X258529853Y-121208574D01*
X258585000Y-120931335D01*
X258585000Y-120648665D01*
X258529853Y-120371426D01*
X258421680Y-120110273D01*
X258264637Y-119875241D01*
X258064759Y-119675363D01*
X257832241Y-119520000D01*
X258064759Y-119364637D01*
X258264637Y-119164759D01*
X258421680Y-118929727D01*
X258450193Y-118860890D01*
X259518524Y-118860890D01*
X259563175Y-119008099D01*
X259688359Y-119270920D01*
X259862412Y-119504269D01*
X260078645Y-119699178D01*
X260328748Y-119848157D01*
X260603109Y-119945481D01*
X260833000Y-119824814D01*
X260833000Y-118631000D01*
X261087000Y-118631000D01*
X261087000Y-119824814D01*
X261316891Y-119945481D01*
X261591252Y-119848157D01*
X261841355Y-119699178D01*
X262057588Y-119504269D01*
X262230000Y-119273120D01*
X262402412Y-119504269D01*
X262618645Y-119699178D01*
X262868748Y-119848157D01*
X263143109Y-119945481D01*
X263373000Y-119824814D01*
X263373000Y-118631000D01*
X263627000Y-118631000D01*
X263627000Y-119824814D01*
X263856891Y-119945481D01*
X264131252Y-119848157D01*
X264381355Y-119699178D01*
X264597588Y-119504269D01*
X264770000Y-119273120D01*
X264942412Y-119504269D01*
X265158645Y-119699178D01*
X265408748Y-119848157D01*
X265683109Y-119945481D01*
X265913000Y-119824814D01*
X265913000Y-118631000D01*
X266167000Y-118631000D01*
X266167000Y-119824814D01*
X266396891Y-119945481D01*
X266671252Y-119848157D01*
X266921355Y-119699178D01*
X267137588Y-119504269D01*
X267311641Y-119270920D01*
X267436825Y-119008099D01*
X267481476Y-118860890D01*
X267360155Y-118631000D01*
X266167000Y-118631000D01*
X265913000Y-118631000D01*
X263627000Y-118631000D01*
X263373000Y-118631000D01*
X261087000Y-118631000D01*
X260833000Y-118631000D01*
X259639845Y-118631000D01*
X259518524Y-118860890D01*
X258450193Y-118860890D01*
X258529853Y-118668574D01*
X258585000Y-118391335D01*
X258585000Y-118108665D01*
X258529853Y-117831426D01*
X258421680Y-117570273D01*
X258264637Y-117335241D01*
X258064759Y-117135363D01*
X257885000Y-117015252D01*
X257885000Y-116944748D01*
X258064759Y-116824637D01*
X258264637Y-116624759D01*
X258421680Y-116389727D01*
X258529853Y-116128574D01*
X258585000Y-115851335D01*
X258585000Y-115568665D01*
X258529853Y-115291426D01*
X258421680Y-115030273D01*
X258264637Y-114795241D01*
X258064759Y-114595363D01*
X257832241Y-114440000D01*
X258064759Y-114284637D01*
X258264637Y-114084759D01*
X258421680Y-113849727D01*
X258529853Y-113588574D01*
X258585000Y-113311335D01*
X258585000Y-113104447D01*
X258674989Y-113194436D01*
X258674990Y-116079876D01*
X258671433Y-116115991D01*
X258685624Y-116260076D01*
X258724954Y-116389727D01*
X258727653Y-116398624D01*
X258795903Y-116526311D01*
X258887752Y-116638229D01*
X258915797Y-116661245D01*
X259817925Y-117563374D01*
X259688359Y-117737080D01*
X259563175Y-117999901D01*
X259518524Y-118147110D01*
X259639845Y-118377000D01*
X260833000Y-118377000D01*
X260833000Y-118357000D01*
X261087000Y-118357000D01*
X261087000Y-118377000D01*
X263373000Y-118377000D01*
X263373000Y-118357000D01*
X263627000Y-118357000D01*
X263627000Y-118377000D01*
X265913000Y-118377000D01*
X265913000Y-118357000D01*
X266167000Y-118357000D01*
X266167000Y-118377000D01*
X267360155Y-118377000D01*
X267481476Y-118147110D01*
X267436825Y-117999901D01*
X267311641Y-117737080D01*
X267137588Y-117503731D01*
X266921355Y-117308822D01*
X266804466Y-117239195D01*
X266986632Y-117117475D01*
X267193475Y-116910632D01*
X267355990Y-116667411D01*
X267467932Y-116397158D01*
X267525000Y-116110260D01*
X267525000Y-115817740D01*
X267467932Y-115530842D01*
X267355990Y-115260589D01*
X267193475Y-115017368D01*
X267061620Y-114885513D01*
X267134180Y-114863502D01*
X267244494Y-114804537D01*
X267341185Y-114725185D01*
X267420537Y-114628494D01*
X267479502Y-114518180D01*
X267515812Y-114398482D01*
X267528072Y-114274000D01*
X267528072Y-112574000D01*
X267515812Y-112449518D01*
X267479502Y-112329820D01*
X267420537Y-112219506D01*
X267341185Y-112122815D01*
X267244494Y-112043463D01*
X267134180Y-111984498D01*
X267014482Y-111948188D01*
X266890000Y-111935928D01*
X265190000Y-111935928D01*
X265065518Y-111948188D01*
X264945820Y-111984498D01*
X264835506Y-112043463D01*
X264770000Y-112097222D01*
X264704494Y-112043463D01*
X264594180Y-111984498D01*
X264474482Y-111948188D01*
X264350000Y-111935928D01*
X262650000Y-111935928D01*
X262525518Y-111948188D01*
X262405820Y-111984498D01*
X262295506Y-112043463D01*
X262230000Y-112097222D01*
X262164494Y-112043463D01*
X262054180Y-111984498D01*
X261934482Y-111948188D01*
X261810000Y-111935928D01*
X261795000Y-111935928D01*
X261795000Y-110991016D01*
X261799040Y-110949998D01*
X261788040Y-110838311D01*
X261782918Y-110786309D01*
X261735172Y-110628911D01*
X261657636Y-110483852D01*
X261644106Y-110467366D01*
X261579439Y-110388568D01*
X261579437Y-110388566D01*
X261553291Y-110356707D01*
X261521433Y-110330562D01*
X261045001Y-109854131D01*
X261045001Y-103453006D01*
X261049040Y-103411998D01*
X261045001Y-103370990D01*
X261045001Y-103370980D01*
X261042442Y-103345000D01*
X262942982Y-103345000D01*
X262984000Y-103349040D01*
X263025018Y-103345000D01*
X263025019Y-103345000D01*
X263147689Y-103332918D01*
X263305087Y-103285172D01*
X263450146Y-103207636D01*
X263577291Y-103103291D01*
X263603446Y-103071421D01*
X265063000Y-101611867D01*
X265063000Y-101613002D01*
X265221748Y-101613002D01*
X265063000Y-101771750D01*
X265059928Y-102336000D01*
X265072188Y-102460482D01*
X265108498Y-102580180D01*
X265167463Y-102690494D01*
X265246815Y-102787185D01*
X265343506Y-102866537D01*
X265453820Y-102925502D01*
X265573518Y-102961812D01*
X265698000Y-102974072D01*
X266262250Y-102971000D01*
X266421000Y-102812250D01*
X266421000Y-101613000D01*
X266675000Y-101613000D01*
X266675000Y-102812250D01*
X266833750Y-102971000D01*
X267398000Y-102974072D01*
X267522482Y-102961812D01*
X267642180Y-102925502D01*
X267752494Y-102866537D01*
X267849185Y-102787185D01*
X267928537Y-102690494D01*
X267987502Y-102580180D01*
X268023812Y-102460482D01*
X268036072Y-102336000D01*
X268033000Y-101771750D01*
X267874250Y-101613000D01*
X266675000Y-101613000D01*
X266421000Y-101613000D01*
X266401000Y-101613000D01*
X266401000Y-101359000D01*
X266421000Y-101359000D01*
X266421000Y-101339000D01*
X266675000Y-101339000D01*
X266675000Y-101359000D01*
X267874250Y-101359000D01*
X268033000Y-101200250D01*
X268036072Y-100636000D01*
X268023812Y-100511518D01*
X267987502Y-100391820D01*
X267928537Y-100281506D01*
X267849185Y-100184815D01*
X267752494Y-100105463D01*
X267642180Y-100046498D01*
X267569620Y-100024487D01*
X267701475Y-99892632D01*
X267863990Y-99649411D01*
X267975932Y-99379158D01*
X268033000Y-99092260D01*
X268033000Y-98799740D01*
X267975932Y-98512842D01*
X267863990Y-98242589D01*
X267701475Y-97999368D01*
X267494632Y-97792525D01*
X267251411Y-97630010D01*
X267166889Y-97595000D01*
X278085554Y-97595000D01*
X281005000Y-100514447D01*
X281005001Y-101550577D01*
X280897225Y-101658353D01*
X280778485Y-101836060D01*
X280696696Y-102033517D01*
X280655000Y-102243137D01*
X280655000Y-102456863D01*
X280696696Y-102666483D01*
X280778485Y-102863940D01*
X280897225Y-103041647D01*
X281048353Y-103192775D01*
X281226060Y-103311515D01*
X281423517Y-103393304D01*
X281633137Y-103435000D01*
X281846863Y-103435000D01*
X282056483Y-103393304D01*
X282253940Y-103311515D01*
X282431647Y-103192775D01*
X282582775Y-103041647D01*
X282701515Y-102863940D01*
X282783304Y-102666483D01*
X282825000Y-102456863D01*
X282825000Y-102243137D01*
X282783304Y-102033517D01*
X282701515Y-101836060D01*
X282582775Y-101658353D01*
X282475000Y-101550578D01*
X282475000Y-100246094D01*
X282478555Y-100209999D01*
X282475000Y-100173904D01*
X282475000Y-100173895D01*
X282464365Y-100065915D01*
X282422337Y-99927367D01*
X282354087Y-99799680D01*
X282316590Y-99753990D01*
X282285253Y-99715806D01*
X282285250Y-99715803D01*
X282262237Y-99687762D01*
X282234197Y-99664750D01*
X278935259Y-96365813D01*
X278912238Y-96337762D01*
X278800320Y-96245913D01*
X278672633Y-96177663D01*
X278534085Y-96135635D01*
X278426105Y-96125000D01*
X278390000Y-96121444D01*
X278353895Y-96125000D01*
X265506105Y-96125000D01*
X265470000Y-96121444D01*
X265433895Y-96125000D01*
X265325915Y-96135635D01*
X265187367Y-96177663D01*
X265059680Y-96245913D01*
X264947762Y-96337762D01*
X264924741Y-96365813D01*
X264711807Y-96578747D01*
X264683762Y-96601763D01*
X264681719Y-96604252D01*
X264612988Y-96258719D01*
X264369730Y-95671442D01*
X264016575Y-95142907D01*
X263567093Y-94693425D01*
X263167611Y-94426500D01*
X281974155Y-94426500D01*
X282449355Y-94473093D01*
G04 #@! TA.AperFunction,Conductor*
D24*
G36*
X282449355Y-94473093D02*
G01*
X282871881Y-94600661D01*
X283261581Y-94807868D01*
X283603611Y-95086820D01*
X283884948Y-95426898D01*
X284094870Y-95815139D01*
X284225385Y-96236768D01*
X284275101Y-96709772D01*
X284275100Y-146655546D01*
X284228506Y-147130756D01*
X284100937Y-147553282D01*
X283893731Y-147942980D01*
X283614776Y-148285014D01*
X283274704Y-148566347D01*
X282886456Y-148776272D01*
X282464836Y-148906784D01*
X281991837Y-148956500D01*
X263178087Y-148956500D01*
X263567093Y-148696575D01*
X264016575Y-148247093D01*
X264369730Y-147718558D01*
X264612988Y-147131281D01*
X264737000Y-146507832D01*
X264737000Y-145872168D01*
X264612988Y-145248719D01*
X264369730Y-144661442D01*
X264016575Y-144132907D01*
X263567093Y-143683425D01*
X263038558Y-143330270D01*
X262451281Y-143087012D01*
X261827832Y-142963000D01*
X261192168Y-142963000D01*
X260568719Y-143087012D01*
X259981442Y-143330270D01*
X259452907Y-143683425D01*
X259003425Y-144132907D01*
X258650270Y-144661442D01*
X258407012Y-145248719D01*
X258283000Y-145872168D01*
X258283000Y-146507832D01*
X258407012Y-147131281D01*
X258650270Y-147718558D01*
X259003425Y-148247093D01*
X259452907Y-148696575D01*
X259841913Y-148956500D01*
X253478631Y-148956500D01*
X267928656Y-134506475D01*
X274881000Y-134506475D01*
X274881000Y-135025525D01*
X274982261Y-135534601D01*
X275180893Y-136014141D01*
X275469262Y-136445715D01*
X275836285Y-136812738D01*
X276267859Y-137101107D01*
X276747399Y-137299739D01*
X277256475Y-137401000D01*
X277775525Y-137401000D01*
X278284601Y-137299739D01*
X278764141Y-137101107D01*
X279195715Y-136812738D01*
X279562738Y-136445715D01*
X279851107Y-136014141D01*
X280049739Y-135534601D01*
X280151000Y-135025525D01*
X280151000Y-134506475D01*
X280049739Y-133997399D01*
X279851107Y-133517859D01*
X279562738Y-133086285D01*
X279195715Y-132719262D01*
X278764141Y-132430893D01*
X278284601Y-132232261D01*
X277775525Y-132131000D01*
X277256475Y-132131000D01*
X276747399Y-132232261D01*
X276267859Y-132430893D01*
X275836285Y-132719262D01*
X275469262Y-133086285D01*
X275180893Y-133517859D01*
X274982261Y-133997399D01*
X274881000Y-134506475D01*
X267928656Y-134506475D01*
X271200132Y-131235000D01*
X281024249Y-131235000D01*
X281080000Y-131240491D01*
X281135751Y-131235000D01*
X281135752Y-131235000D01*
X281302499Y-131218577D01*
X281516447Y-131153676D01*
X281713623Y-131048284D01*
X281886449Y-130906449D01*
X281921995Y-130863136D01*
X283213146Y-129571987D01*
X283256449Y-129536449D01*
X283372534Y-129395000D01*
X283398284Y-129363623D01*
X283503676Y-129166447D01*
X283568577Y-128952499D01*
X283590491Y-128730000D01*
X283585000Y-128674248D01*
X283585000Y-107615741D01*
X283590490Y-107559999D01*
X283585000Y-107504257D01*
X283585000Y-107504248D01*
X283568577Y-107337501D01*
X283503676Y-107123553D01*
X283398284Y-106926377D01*
X283256449Y-106753551D01*
X283213141Y-106718009D01*
X281281996Y-104786865D01*
X281246449Y-104743551D01*
X281073623Y-104601716D01*
X280876447Y-104496324D01*
X280662499Y-104431423D01*
X280495752Y-104415000D01*
X280495751Y-104415000D01*
X280440000Y-104409509D01*
X280384249Y-104415000D01*
X270734284Y-104415000D01*
X270529727Y-104278320D01*
X270268574Y-104170147D01*
X269991335Y-104115000D01*
X269708665Y-104115000D01*
X269431426Y-104170147D01*
X269170273Y-104278320D01*
X268935241Y-104435363D01*
X268735363Y-104635241D01*
X268578320Y-104870273D01*
X268470147Y-105131426D01*
X268415000Y-105408665D01*
X268415000Y-105691335D01*
X268470147Y-105968574D01*
X268578320Y-106229727D01*
X268735363Y-106464759D01*
X268935241Y-106664637D01*
X269170273Y-106821680D01*
X269180865Y-106826067D01*
X268994869Y-106937615D01*
X268786481Y-107126586D01*
X268618963Y-107352580D01*
X268498754Y-107606913D01*
X268458096Y-107740961D01*
X268580085Y-107963000D01*
X269723000Y-107963000D01*
X269723000Y-107943000D01*
X269977000Y-107943000D01*
X269977000Y-107963000D01*
X271119915Y-107963000D01*
X271241904Y-107740961D01*
X271201246Y-107606913D01*
X271081037Y-107352580D01*
X270913519Y-107126586D01*
X270705131Y-106937615D01*
X270519135Y-106826067D01*
X270529727Y-106821680D01*
X270734284Y-106685000D01*
X279969869Y-106685000D01*
X281315000Y-108030132D01*
X281315000Y-117412297D01*
X281170637Y-117196241D01*
X280970759Y-116996363D01*
X280735727Y-116839320D01*
X280474574Y-116731147D01*
X280197335Y-116676000D01*
X279914665Y-116676000D01*
X279637426Y-116731147D01*
X279376273Y-116839320D01*
X279141241Y-116996363D01*
X278941363Y-117196241D01*
X278784320Y-117431273D01*
X278676147Y-117692426D01*
X278621000Y-117969665D01*
X278621000Y-118252335D01*
X278676147Y-118529574D01*
X278784320Y-118790727D01*
X278941363Y-119025759D01*
X279141241Y-119225637D01*
X279376273Y-119382680D01*
X279637426Y-119490853D01*
X279663301Y-119496000D01*
X279637426Y-119501147D01*
X279376273Y-119609320D01*
X279141241Y-119766363D01*
X278941363Y-119966241D01*
X278784320Y-120201273D01*
X278676147Y-120462426D01*
X278621000Y-120739665D01*
X278621000Y-121022335D01*
X278676147Y-121299574D01*
X278784320Y-121560727D01*
X278941363Y-121795759D01*
X279141241Y-121995637D01*
X279376273Y-122152680D01*
X279637426Y-122260853D01*
X279663301Y-122266000D01*
X279637426Y-122271147D01*
X279376273Y-122379320D01*
X279141241Y-122536363D01*
X278941363Y-122736241D01*
X278784320Y-122971273D01*
X278676147Y-123232426D01*
X278621000Y-123509665D01*
X278621000Y-123792335D01*
X278676147Y-124069574D01*
X278784320Y-124330727D01*
X278941363Y-124565759D01*
X279141241Y-124765637D01*
X279376273Y-124922680D01*
X279637426Y-125030853D01*
X279665882Y-125036513D01*
X279439708Y-125117397D01*
X279314486Y-125184329D01*
X279242903Y-125428298D01*
X280056000Y-126241395D01*
X280869097Y-125428298D01*
X280797514Y-125184329D01*
X280542004Y-125063429D01*
X280439711Y-125037788D01*
X280474574Y-125030853D01*
X280735727Y-124922680D01*
X280970759Y-124765637D01*
X281170637Y-124565759D01*
X281315001Y-124349703D01*
X281315001Y-125721263D01*
X281292671Y-125679486D01*
X281048702Y-125607903D01*
X280235605Y-126421000D01*
X281048702Y-127234097D01*
X281292671Y-127162514D01*
X281315001Y-127115322D01*
X281315001Y-128259867D01*
X280609868Y-128965000D01*
X277980303Y-128965000D01*
X278029097Y-128798702D01*
X277216000Y-127985605D01*
X276402903Y-128798702D01*
X276451697Y-128965000D01*
X272295588Y-128965000D01*
X272335000Y-128766863D01*
X272335000Y-128553137D01*
X272293304Y-128343517D01*
X272211515Y-128146060D01*
X272092775Y-127968353D01*
X272000934Y-127876512D01*
X275775783Y-127876512D01*
X275817213Y-128156130D01*
X275912397Y-128422292D01*
X275979329Y-128547514D01*
X276223298Y-128619097D01*
X277036395Y-127806000D01*
X277395605Y-127806000D01*
X278208702Y-128619097D01*
X278452671Y-128547514D01*
X278573571Y-128292004D01*
X278642300Y-128017816D01*
X278656217Y-127735488D01*
X278614787Y-127455870D01*
X278599708Y-127413702D01*
X279242903Y-127413702D01*
X279314486Y-127657671D01*
X279569996Y-127778571D01*
X279844184Y-127847300D01*
X280126512Y-127861217D01*
X280406130Y-127819787D01*
X280672292Y-127724603D01*
X280797514Y-127657671D01*
X280869097Y-127413702D01*
X280056000Y-126600605D01*
X279242903Y-127413702D01*
X278599708Y-127413702D01*
X278519603Y-127189708D01*
X278452671Y-127064486D01*
X278208702Y-126992903D01*
X277395605Y-127806000D01*
X277036395Y-127806000D01*
X276223298Y-126992903D01*
X275979329Y-127064486D01*
X275858429Y-127319996D01*
X275789700Y-127594184D01*
X275775783Y-127876512D01*
X272000934Y-127876512D01*
X271941647Y-127817225D01*
X271763940Y-127698485D01*
X271566483Y-127616696D01*
X271356863Y-127575000D01*
X271143137Y-127575000D01*
X270933517Y-127616696D01*
X270736060Y-127698485D01*
X270558353Y-127817225D01*
X270450578Y-127925000D01*
X269394447Y-127925000D01*
X268128190Y-126658744D01*
X268081515Y-126546060D01*
X267962775Y-126368353D01*
X267811647Y-126217225D01*
X267633940Y-126098485D01*
X267436483Y-126016696D01*
X267226863Y-125975000D01*
X267013137Y-125975000D01*
X266803517Y-126016696D01*
X266606060Y-126098485D01*
X266428353Y-126217225D01*
X266277225Y-126368353D01*
X266158485Y-126546060D01*
X266076696Y-126743517D01*
X266035000Y-126953137D01*
X266035000Y-127166863D01*
X266076696Y-127376483D01*
X266158485Y-127573940D01*
X266277225Y-127751647D01*
X266428353Y-127902775D01*
X266606060Y-128021515D01*
X266803517Y-128103304D01*
X267013137Y-128145000D01*
X267226863Y-128145000D01*
X267436483Y-128103304D01*
X267477053Y-128086499D01*
X268544746Y-129154193D01*
X268567762Y-129182238D01*
X268595806Y-129205253D01*
X268679680Y-129274087D01*
X268807366Y-129342337D01*
X268945915Y-129384365D01*
X269090000Y-129398556D01*
X269126105Y-129395000D01*
X269829868Y-129395000D01*
X251679869Y-147545000D01*
X225410132Y-147545000D01*
X221170120Y-143304989D01*
X224777543Y-143304989D01*
X225585000Y-144112447D01*
X225585000Y-144264863D01*
X225626696Y-144474483D01*
X225708485Y-144671940D01*
X225827225Y-144849647D01*
X225978353Y-145000775D01*
X226156060Y-145119515D01*
X226353517Y-145201304D01*
X226563137Y-145243000D01*
X226776863Y-145243000D01*
X226986483Y-145201304D01*
X227183940Y-145119515D01*
X227361647Y-145000775D01*
X227512775Y-144849647D01*
X227631515Y-144671940D01*
X227661641Y-144599208D01*
X227680060Y-144611515D01*
X227877517Y-144693304D01*
X228087137Y-144735000D01*
X228300863Y-144735000D01*
X228510483Y-144693304D01*
X228707940Y-144611515D01*
X228885647Y-144492775D01*
X228993422Y-144385000D01*
X236530897Y-144385000D01*
X236548696Y-144474483D01*
X236630485Y-144671940D01*
X236749225Y-144849647D01*
X236900353Y-145000775D01*
X237078060Y-145119515D01*
X237275517Y-145201304D01*
X237485137Y-145243000D01*
X237698863Y-145243000D01*
X237908483Y-145201304D01*
X238105940Y-145119515D01*
X238283647Y-145000775D01*
X238434775Y-144849647D01*
X238553515Y-144671940D01*
X238635304Y-144474483D01*
X238638618Y-144457823D01*
X238755137Y-144481000D01*
X238968863Y-144481000D01*
X239178483Y-144439304D01*
X239375940Y-144357515D01*
X239553647Y-144238775D01*
X239661422Y-144131000D01*
X245175895Y-144131000D01*
X245212000Y-144134556D01*
X245248105Y-144131000D01*
X245356085Y-144120365D01*
X245494633Y-144078337D01*
X245622320Y-144010087D01*
X245734238Y-143918238D01*
X245757258Y-143890188D01*
X245928446Y-143719000D01*
X246080863Y-143719000D01*
X246290483Y-143677304D01*
X246487940Y-143595515D01*
X246665647Y-143476775D01*
X246816775Y-143325647D01*
X246935515Y-143147940D01*
X247017304Y-142950483D01*
X247059000Y-142740863D01*
X247059000Y-142527137D01*
X247017304Y-142317517D01*
X247009691Y-142299137D01*
X248135000Y-143424447D01*
X248135000Y-143576863D01*
X248176696Y-143786483D01*
X248258485Y-143983940D01*
X248377225Y-144161647D01*
X248528353Y-144312775D01*
X248706060Y-144431515D01*
X248903517Y-144513304D01*
X249113137Y-144555000D01*
X249326863Y-144555000D01*
X249536483Y-144513304D01*
X249733940Y-144431515D01*
X249911647Y-144312775D01*
X250062775Y-144161647D01*
X250181515Y-143983940D01*
X250263304Y-143786483D01*
X250305000Y-143576863D01*
X250305000Y-143363137D01*
X250263304Y-143153517D01*
X250181515Y-142956060D01*
X250062775Y-142778353D01*
X249911647Y-142627225D01*
X249820484Y-142566312D01*
X249963158Y-142537932D01*
X250233411Y-142425990D01*
X250476632Y-142263475D01*
X250683475Y-142056632D01*
X250800000Y-141882240D01*
X250916525Y-142056632D01*
X251123368Y-142263475D01*
X251366589Y-142425990D01*
X251636842Y-142537932D01*
X251923740Y-142595000D01*
X252216260Y-142595000D01*
X252503158Y-142537932D01*
X252773411Y-142425990D01*
X253016632Y-142263475D01*
X253223475Y-142056632D01*
X253385990Y-141813411D01*
X253497932Y-141543158D01*
X253555000Y-141256260D01*
X253555000Y-140963740D01*
X253497932Y-140676842D01*
X253385990Y-140406589D01*
X253223475Y-140163368D01*
X253091620Y-140031513D01*
X253164180Y-140009502D01*
X253274494Y-139950537D01*
X253371185Y-139871185D01*
X253450537Y-139774494D01*
X253509502Y-139664180D01*
X253545812Y-139544482D01*
X253558072Y-139420000D01*
X253558072Y-137720000D01*
X253545812Y-137595518D01*
X253509502Y-137475820D01*
X253450537Y-137365506D01*
X253371185Y-137268815D01*
X253274494Y-137189463D01*
X253164180Y-137130498D01*
X253044482Y-137094188D01*
X252920000Y-137081928D01*
X251220000Y-137081928D01*
X251095518Y-137094188D01*
X250975820Y-137130498D01*
X250865506Y-137189463D01*
X250800000Y-137243222D01*
X250734494Y-137189463D01*
X250624180Y-137130498D01*
X250504482Y-137094188D01*
X250380000Y-137081928D01*
X248680000Y-137081928D01*
X248555518Y-137094188D01*
X248435820Y-137130498D01*
X248325506Y-137189463D01*
X248228815Y-137268815D01*
X248149463Y-137365506D01*
X248090498Y-137475820D01*
X248054188Y-137595518D01*
X248041928Y-137720000D01*
X248041928Y-139420000D01*
X248054188Y-139544482D01*
X248090498Y-139664180D01*
X248149463Y-139774494D01*
X248228815Y-139871185D01*
X248325506Y-139950537D01*
X248435820Y-140009502D01*
X248508380Y-140031513D01*
X248376525Y-140163368D01*
X248214010Y-140406589D01*
X248102068Y-140676842D01*
X248045000Y-140963740D01*
X248045000Y-141255554D01*
X247805258Y-141015812D01*
X247782238Y-140987762D01*
X247670320Y-140895913D01*
X247542633Y-140827663D01*
X247404085Y-140785635D01*
X247296105Y-140775000D01*
X247260000Y-140771444D01*
X247223895Y-140775000D01*
X233584447Y-140775000D01*
X232485258Y-139675812D01*
X232462238Y-139647762D01*
X232350320Y-139555913D01*
X232222633Y-139487663D01*
X232084085Y-139445635D01*
X231976105Y-139435000D01*
X231940000Y-139431444D01*
X231903895Y-139435000D01*
X231679422Y-139435000D01*
X231571647Y-139327225D01*
X231393940Y-139208485D01*
X231196483Y-139126696D01*
X230986863Y-139085000D01*
X230773137Y-139085000D01*
X230740685Y-139091455D01*
X230639085Y-139060635D01*
X230531105Y-139050000D01*
X230495000Y-139046444D01*
X230458895Y-139050000D01*
X230419447Y-139050000D01*
X230085257Y-138715811D01*
X230085253Y-138715806D01*
X228072584Y-136703137D01*
X243225000Y-136703137D01*
X243225000Y-136916863D01*
X243266696Y-137126483D01*
X243348485Y-137323940D01*
X243467225Y-137501647D01*
X243618353Y-137652775D01*
X243796060Y-137771515D01*
X243993517Y-137853304D01*
X244203137Y-137895000D01*
X244240000Y-137895000D01*
X244240000Y-137931863D01*
X244281696Y-138141483D01*
X244363485Y-138338940D01*
X244482225Y-138516647D01*
X244633353Y-138667775D01*
X244811060Y-138786515D01*
X245008517Y-138868304D01*
X245132112Y-138892888D01*
X245156696Y-139016483D01*
X245238485Y-139213940D01*
X245357225Y-139391647D01*
X245508353Y-139542775D01*
X245686060Y-139661515D01*
X245883517Y-139743304D01*
X246093137Y-139785000D01*
X246306863Y-139785000D01*
X246516483Y-139743304D01*
X246713940Y-139661515D01*
X246891647Y-139542775D01*
X247042775Y-139391647D01*
X247161515Y-139213940D01*
X247243304Y-139016483D01*
X247285000Y-138806863D01*
X247285000Y-138593137D01*
X247243304Y-138383517D01*
X247161515Y-138186060D01*
X247042775Y-138008353D01*
X246891647Y-137857225D01*
X246713940Y-137738485D01*
X246516483Y-137656696D01*
X246392888Y-137632112D01*
X246368304Y-137508517D01*
X246286515Y-137311060D01*
X246167775Y-137133353D01*
X246016647Y-136982225D01*
X245838940Y-136863485D01*
X245641483Y-136781696D01*
X245431863Y-136740000D01*
X245395000Y-136740000D01*
X245395000Y-136703137D01*
X245353304Y-136493517D01*
X245271515Y-136296060D01*
X245152775Y-136118353D01*
X245001647Y-135967225D01*
X244823940Y-135848485D01*
X244626483Y-135766696D01*
X244416863Y-135725000D01*
X244203137Y-135725000D01*
X243993517Y-135766696D01*
X243796060Y-135848485D01*
X243618353Y-135967225D01*
X243467225Y-136118353D01*
X243348485Y-136296060D01*
X243266696Y-136493517D01*
X243225000Y-136703137D01*
X228072584Y-136703137D01*
X224895000Y-133525554D01*
X224895000Y-132813129D01*
X239935008Y-132813129D01*
X239935008Y-133026855D01*
X239976704Y-133236475D01*
X240058493Y-133433932D01*
X240177233Y-133611639D01*
X240328361Y-133762767D01*
X240506068Y-133881507D01*
X240703525Y-133963296D01*
X240913145Y-134004992D01*
X241126871Y-134004992D01*
X241336491Y-133963296D01*
X241533948Y-133881507D01*
X241711655Y-133762767D01*
X241725008Y-133749414D01*
X241738361Y-133762767D01*
X241916068Y-133881507D01*
X242113525Y-133963296D01*
X242323145Y-134004992D01*
X242536871Y-134004992D01*
X242746491Y-133963296D01*
X242943948Y-133881507D01*
X243100008Y-133777231D01*
X243256068Y-133881507D01*
X243453525Y-133963296D01*
X243663145Y-134004992D01*
X243876871Y-134004992D01*
X244086491Y-133963296D01*
X244283948Y-133881507D01*
X244461655Y-133762767D01*
X244612783Y-133611639D01*
X244731523Y-133433932D01*
X244813312Y-133236475D01*
X244855008Y-133026855D01*
X244855008Y-132813129D01*
X244813312Y-132603509D01*
X244731523Y-132406052D01*
X244612783Y-132228345D01*
X244461655Y-132077217D01*
X244283948Y-131958477D01*
X244086491Y-131876688D01*
X243876871Y-131834992D01*
X243663145Y-131834992D01*
X243453525Y-131876688D01*
X243256068Y-131958477D01*
X243100008Y-132062753D01*
X242943948Y-131958477D01*
X242746491Y-131876688D01*
X242536871Y-131834992D01*
X242323145Y-131834992D01*
X242113525Y-131876688D01*
X241916068Y-131958477D01*
X241738361Y-132077217D01*
X241725008Y-132090570D01*
X241711655Y-132077217D01*
X241533948Y-131958477D01*
X241336491Y-131876688D01*
X241126871Y-131834992D01*
X240913145Y-131834992D01*
X240703525Y-131876688D01*
X240506068Y-131958477D01*
X240328361Y-132077217D01*
X240177233Y-132228345D01*
X240058493Y-132406052D01*
X239976704Y-132603509D01*
X239935008Y-132813129D01*
X224895000Y-132813129D01*
X224895000Y-127329458D01*
X224973137Y-127345000D01*
X225186863Y-127345000D01*
X225396483Y-127303304D01*
X225593940Y-127221515D01*
X225771647Y-127102775D01*
X225879422Y-126995000D01*
X228104575Y-126995000D01*
X228136696Y-127156483D01*
X228218485Y-127353940D01*
X228337225Y-127531647D01*
X228488353Y-127682775D01*
X228666060Y-127801515D01*
X228863517Y-127883304D01*
X229073137Y-127925000D01*
X229286863Y-127925000D01*
X229496483Y-127883304D01*
X229693940Y-127801515D01*
X229871647Y-127682775D01*
X230022775Y-127531647D01*
X230141515Y-127353940D01*
X230223304Y-127156483D01*
X230265000Y-126946863D01*
X230265000Y-126733137D01*
X230223304Y-126523517D01*
X230141515Y-126326060D01*
X230022775Y-126148353D01*
X229871647Y-125997225D01*
X229693940Y-125878485D01*
X229496483Y-125796696D01*
X229286863Y-125755000D01*
X229136385Y-125755000D01*
X229122238Y-125737762D01*
X229031308Y-125663137D01*
X242985000Y-125663137D01*
X242985000Y-125876863D01*
X243026696Y-126086483D01*
X243108485Y-126283940D01*
X243227225Y-126461647D01*
X243378353Y-126612775D01*
X243556060Y-126731515D01*
X243753517Y-126813304D01*
X243935498Y-126849502D01*
X243971696Y-127031483D01*
X244053485Y-127228940D01*
X244172225Y-127406647D01*
X244323353Y-127557775D01*
X244501060Y-127676515D01*
X244698517Y-127758304D01*
X244908137Y-127800000D01*
X245000000Y-127800000D01*
X245000000Y-127891863D01*
X245041696Y-128101483D01*
X245123485Y-128298940D01*
X245242225Y-128476647D01*
X245393353Y-128627775D01*
X245571060Y-128746515D01*
X245768517Y-128828304D01*
X245978137Y-128870000D01*
X246191863Y-128870000D01*
X246401483Y-128828304D01*
X246598940Y-128746515D01*
X246776647Y-128627775D01*
X246927775Y-128476647D01*
X247046515Y-128298940D01*
X247128304Y-128101483D01*
X247170000Y-127891863D01*
X247170000Y-127678137D01*
X247128304Y-127468517D01*
X247046515Y-127271060D01*
X246927775Y-127093353D01*
X246776647Y-126942225D01*
X246598940Y-126823485D01*
X246401483Y-126741696D01*
X246191863Y-126700000D01*
X246100000Y-126700000D01*
X246100000Y-126608137D01*
X246058304Y-126398517D01*
X246013355Y-126290000D01*
X248041928Y-126290000D01*
X248041928Y-127990000D01*
X248054188Y-128114482D01*
X248090498Y-128234180D01*
X248149463Y-128344494D01*
X248228815Y-128441185D01*
X248325506Y-128520537D01*
X248435820Y-128579502D01*
X248508380Y-128601513D01*
X248376525Y-128733368D01*
X248214010Y-128976589D01*
X248102068Y-129246842D01*
X248045000Y-129533740D01*
X248045000Y-129826260D01*
X248102068Y-130113158D01*
X248214010Y-130383411D01*
X248376525Y-130626632D01*
X248583368Y-130833475D01*
X248826589Y-130995990D01*
X249096842Y-131107932D01*
X249383740Y-131165000D01*
X249676260Y-131165000D01*
X249963158Y-131107932D01*
X250233411Y-130995990D01*
X250476632Y-130833475D01*
X250683475Y-130626632D01*
X250800000Y-130452240D01*
X250916525Y-130626632D01*
X251123368Y-130833475D01*
X251366589Y-130995990D01*
X251636842Y-131107932D01*
X251923740Y-131165000D01*
X252216260Y-131165000D01*
X252503158Y-131107932D01*
X252773411Y-130995990D01*
X253016632Y-130833475D01*
X253223475Y-130626632D01*
X253385990Y-130383411D01*
X253497932Y-130113158D01*
X253555000Y-129826260D01*
X253555000Y-129533740D01*
X253497932Y-129246842D01*
X253385990Y-128976589D01*
X253223475Y-128733368D01*
X253091620Y-128601513D01*
X253164180Y-128579502D01*
X253274494Y-128520537D01*
X253371185Y-128441185D01*
X253450537Y-128344494D01*
X253509502Y-128234180D01*
X253545812Y-128114482D01*
X253558072Y-127990000D01*
X253558072Y-126290000D01*
X253545812Y-126165518D01*
X253509502Y-126045820D01*
X253450537Y-125935506D01*
X253371185Y-125838815D01*
X253274494Y-125759463D01*
X253164180Y-125700498D01*
X253044482Y-125664188D01*
X252920000Y-125651928D01*
X251220000Y-125651928D01*
X251095518Y-125664188D01*
X250975820Y-125700498D01*
X250865506Y-125759463D01*
X250800000Y-125813222D01*
X250734494Y-125759463D01*
X250624180Y-125700498D01*
X250504482Y-125664188D01*
X250380000Y-125651928D01*
X248680000Y-125651928D01*
X248555518Y-125664188D01*
X248435820Y-125700498D01*
X248325506Y-125759463D01*
X248228815Y-125838815D01*
X248149463Y-125935506D01*
X248090498Y-126045820D01*
X248054188Y-126165518D01*
X248041928Y-126290000D01*
X246013355Y-126290000D01*
X245976515Y-126201060D01*
X245857775Y-126023353D01*
X245706647Y-125872225D01*
X245528940Y-125753485D01*
X245331483Y-125671696D01*
X245149502Y-125635498D01*
X245113304Y-125453517D01*
X245031515Y-125256060D01*
X244912775Y-125078353D01*
X244761647Y-124927225D01*
X244583940Y-124808485D01*
X244386483Y-124726696D01*
X244176863Y-124685000D01*
X243963137Y-124685000D01*
X243753517Y-124726696D01*
X243556060Y-124808485D01*
X243378353Y-124927225D01*
X243227225Y-125078353D01*
X243108485Y-125256060D01*
X243026696Y-125453517D01*
X242985000Y-125663137D01*
X229031308Y-125663137D01*
X229010320Y-125645913D01*
X228882633Y-125577663D01*
X228744085Y-125535635D01*
X228636105Y-125525000D01*
X228600000Y-125521444D01*
X228563895Y-125525000D01*
X225879422Y-125525000D01*
X225771647Y-125417225D01*
X225593940Y-125298485D01*
X225396483Y-125216696D01*
X225186863Y-125175000D01*
X224973137Y-125175000D01*
X224895000Y-125190542D01*
X224895000Y-124869422D01*
X225002775Y-124761647D01*
X225121515Y-124583940D01*
X225203304Y-124386483D01*
X225245000Y-124176863D01*
X225245000Y-123963137D01*
X225203304Y-123753517D01*
X225121515Y-123556060D01*
X225002775Y-123378353D01*
X224851647Y-123227225D01*
X224673940Y-123108485D01*
X224476483Y-123026696D01*
X224266863Y-122985000D01*
X224053137Y-122985000D01*
X223843517Y-123026696D01*
X223646060Y-123108485D01*
X223468353Y-123227225D01*
X223317225Y-123378353D01*
X223198485Y-123556060D01*
X223116696Y-123753517D01*
X223075000Y-123963137D01*
X223075000Y-124176863D01*
X223116696Y-124386483D01*
X223198485Y-124583940D01*
X223317225Y-124761647D01*
X223425000Y-124869422D01*
X223425001Y-133435555D01*
X220835000Y-130845554D01*
X220835000Y-126676094D01*
X220838555Y-126639999D01*
X220835000Y-126603904D01*
X220835000Y-126603895D01*
X220824365Y-126495915D01*
X220782337Y-126357367D01*
X220714087Y-126229680D01*
X220687892Y-126197762D01*
X220645253Y-126145806D01*
X220645250Y-126145803D01*
X220622237Y-126117762D01*
X220594197Y-126094750D01*
X219545000Y-125045554D01*
X219545000Y-124893137D01*
X219503304Y-124683517D01*
X219421515Y-124486060D01*
X219302775Y-124308353D01*
X219191933Y-124197511D01*
X219650252Y-123739193D01*
X219650256Y-123739188D01*
X221276315Y-122113129D01*
X240065008Y-122113129D01*
X240065008Y-122326855D01*
X240106704Y-122536475D01*
X240188493Y-122733932D01*
X240307233Y-122911639D01*
X240458361Y-123062767D01*
X240636068Y-123181507D01*
X240833525Y-123263296D01*
X241043145Y-123304992D01*
X241256871Y-123304992D01*
X241466491Y-123263296D01*
X241663948Y-123181507D01*
X241810008Y-123083913D01*
X241956068Y-123181507D01*
X242153525Y-123263296D01*
X242363145Y-123304992D01*
X242576871Y-123304992D01*
X242786491Y-123263296D01*
X242983948Y-123181507D01*
X243161655Y-123062767D01*
X243185008Y-123039414D01*
X243208361Y-123062767D01*
X243386068Y-123181507D01*
X243583525Y-123263296D01*
X243793145Y-123304992D01*
X244006871Y-123304992D01*
X244216491Y-123263296D01*
X244413948Y-123181507D01*
X244591655Y-123062767D01*
X244742783Y-122911639D01*
X244861523Y-122733932D01*
X244943312Y-122536475D01*
X244985008Y-122326855D01*
X244985008Y-122113129D01*
X244943312Y-121903509D01*
X244861523Y-121706052D01*
X244742783Y-121528345D01*
X244591655Y-121377217D01*
X244413948Y-121258477D01*
X244216491Y-121176688D01*
X244006871Y-121134992D01*
X243793145Y-121134992D01*
X243583525Y-121176688D01*
X243386068Y-121258477D01*
X243208361Y-121377217D01*
X243185008Y-121400570D01*
X243161655Y-121377217D01*
X242983948Y-121258477D01*
X242786491Y-121176688D01*
X242576871Y-121134992D01*
X242363145Y-121134992D01*
X242153525Y-121176688D01*
X241956068Y-121258477D01*
X241810008Y-121356071D01*
X241663948Y-121258477D01*
X241466491Y-121176688D01*
X241256871Y-121134992D01*
X241043145Y-121134992D01*
X240833525Y-121176688D01*
X240636068Y-121258477D01*
X240458361Y-121377217D01*
X240307233Y-121528345D01*
X240188493Y-121706052D01*
X240106704Y-121903509D01*
X240065008Y-122113129D01*
X221276315Y-122113129D01*
X222314445Y-121075000D01*
X245710578Y-121075000D01*
X245818353Y-121182775D01*
X245996060Y-121301515D01*
X246193517Y-121383304D01*
X246403137Y-121425000D01*
X246616863Y-121425000D01*
X246826483Y-121383304D01*
X247023940Y-121301515D01*
X247201647Y-121182775D01*
X247352775Y-121031647D01*
X247471515Y-120853940D01*
X247553304Y-120656483D01*
X247595000Y-120446863D01*
X247595000Y-120233137D01*
X247553304Y-120023517D01*
X247471515Y-119826060D01*
X247352775Y-119648353D01*
X247201647Y-119497225D01*
X247023940Y-119378485D01*
X246826483Y-119296696D01*
X246616863Y-119255000D01*
X246403137Y-119255000D01*
X246193517Y-119296696D01*
X245996060Y-119378485D01*
X245818353Y-119497225D01*
X245710578Y-119605000D01*
X222046103Y-119605000D01*
X222009998Y-119601444D01*
X221865912Y-119615635D01*
X221823884Y-119628384D01*
X221727365Y-119657663D01*
X221599678Y-119725913D01*
X221487760Y-119817762D01*
X221464744Y-119845807D01*
X218610810Y-122699742D01*
X218610805Y-122699746D01*
X218005552Y-123305000D01*
X216919422Y-123305000D01*
X216811647Y-123197225D01*
X216644144Y-123085303D01*
X218258173Y-121471274D01*
X218271105Y-121470000D01*
X218379085Y-121459365D01*
X218517633Y-121417337D01*
X218645320Y-121349087D01*
X218757238Y-121257238D01*
X218780259Y-121229187D01*
X222519447Y-117490000D01*
X222671863Y-117490000D01*
X222881483Y-117448304D01*
X223078940Y-117366515D01*
X223256647Y-117247775D01*
X223407775Y-117096647D01*
X223526515Y-116918940D01*
X223608304Y-116721483D01*
X223650000Y-116511863D01*
X223650000Y-116298137D01*
X223608304Y-116088517D01*
X223526515Y-115891060D01*
X223407775Y-115713353D01*
X223256647Y-115562225D01*
X223078940Y-115443485D01*
X222881483Y-115361696D01*
X222671863Y-115320000D01*
X222519446Y-115320000D01*
X222177583Y-114978137D01*
X243090000Y-114978137D01*
X243090000Y-115191863D01*
X243131696Y-115401483D01*
X243213485Y-115598940D01*
X243332225Y-115776647D01*
X243483353Y-115927775D01*
X243661060Y-116046515D01*
X243858517Y-116128304D01*
X243990452Y-116154548D01*
X244016696Y-116286483D01*
X244098485Y-116483940D01*
X244217225Y-116661647D01*
X244368353Y-116812775D01*
X244546060Y-116931515D01*
X244743517Y-117013304D01*
X244953137Y-117055000D01*
X244980000Y-117055000D01*
X244980000Y-117081863D01*
X245021696Y-117291483D01*
X245103485Y-117488940D01*
X245222225Y-117666647D01*
X245373353Y-117817775D01*
X245551060Y-117936515D01*
X245748517Y-118018304D01*
X245958137Y-118060000D01*
X246171863Y-118060000D01*
X246381483Y-118018304D01*
X246578940Y-117936515D01*
X246756647Y-117817775D01*
X246907775Y-117666647D01*
X247026515Y-117488940D01*
X247108304Y-117291483D01*
X247150000Y-117081863D01*
X247150000Y-116868137D01*
X247108304Y-116658517D01*
X247026515Y-116461060D01*
X246907775Y-116283353D01*
X246756647Y-116132225D01*
X246578940Y-116013485D01*
X246381483Y-115931696D01*
X246171863Y-115890000D01*
X246145000Y-115890000D01*
X246145000Y-115863137D01*
X246103304Y-115653517D01*
X246021515Y-115456060D01*
X245902775Y-115278353D01*
X245751647Y-115127225D01*
X245573940Y-115008485D01*
X245376483Y-114926696D01*
X245244548Y-114900452D01*
X245218304Y-114768517D01*
X245136515Y-114571060D01*
X245017775Y-114393353D01*
X244866647Y-114242225D01*
X244688940Y-114123485D01*
X244491483Y-114041696D01*
X244281863Y-114000000D01*
X244068137Y-114000000D01*
X243858517Y-114041696D01*
X243661060Y-114123485D01*
X243483353Y-114242225D01*
X243332225Y-114393353D01*
X243213485Y-114571060D01*
X243131696Y-114768517D01*
X243090000Y-114978137D01*
X222177583Y-114978137D01*
X222095258Y-114895812D01*
X222072238Y-114867762D01*
X221960320Y-114775913D01*
X221832633Y-114707663D01*
X221694085Y-114665635D01*
X221586105Y-114655000D01*
X221550000Y-114651444D01*
X221513895Y-114655000D01*
X219394447Y-114655000D01*
X218329447Y-113590000D01*
X248041928Y-113590000D01*
X248041928Y-115290000D01*
X248054188Y-115414482D01*
X248090498Y-115534180D01*
X248149463Y-115644494D01*
X248228815Y-115741185D01*
X248325506Y-115820537D01*
X248435820Y-115879502D01*
X248508380Y-115901513D01*
X248376525Y-116033368D01*
X248214010Y-116276589D01*
X248102068Y-116546842D01*
X248045000Y-116833740D01*
X248045000Y-117126260D01*
X248102068Y-117413158D01*
X248214010Y-117683411D01*
X248376525Y-117926632D01*
X248583368Y-118133475D01*
X248826589Y-118295990D01*
X249096842Y-118407932D01*
X249383740Y-118465000D01*
X249676260Y-118465000D01*
X249963158Y-118407932D01*
X250233411Y-118295990D01*
X250476632Y-118133475D01*
X250683475Y-117926632D01*
X250800000Y-117752240D01*
X250916525Y-117926632D01*
X251123368Y-118133475D01*
X251366589Y-118295990D01*
X251636842Y-118407932D01*
X251923740Y-118465000D01*
X252216260Y-118465000D01*
X252503158Y-118407932D01*
X252773411Y-118295990D01*
X253016632Y-118133475D01*
X253223475Y-117926632D01*
X253385990Y-117683411D01*
X253497932Y-117413158D01*
X253555000Y-117126260D01*
X253555000Y-116833740D01*
X253497932Y-116546842D01*
X253385990Y-116276589D01*
X253223475Y-116033368D01*
X253091620Y-115901513D01*
X253164180Y-115879502D01*
X253274494Y-115820537D01*
X253371185Y-115741185D01*
X253450537Y-115644494D01*
X253509502Y-115534180D01*
X253545812Y-115414482D01*
X253558072Y-115290000D01*
X253558072Y-113590000D01*
X253545812Y-113465518D01*
X253509502Y-113345820D01*
X253450537Y-113235506D01*
X253371185Y-113138815D01*
X253274494Y-113059463D01*
X253164180Y-113000498D01*
X253044482Y-112964188D01*
X252920000Y-112951928D01*
X251220000Y-112951928D01*
X251095518Y-112964188D01*
X250975820Y-113000498D01*
X250865506Y-113059463D01*
X250800000Y-113113222D01*
X250734494Y-113059463D01*
X250624180Y-113000498D01*
X250504482Y-112964188D01*
X250380000Y-112951928D01*
X248680000Y-112951928D01*
X248555518Y-112964188D01*
X248435820Y-113000498D01*
X248325506Y-113059463D01*
X248228815Y-113138815D01*
X248149463Y-113235506D01*
X248090498Y-113345820D01*
X248054188Y-113465518D01*
X248041928Y-113590000D01*
X218329447Y-113590000D01*
X216222576Y-111483129D01*
X240455008Y-111483129D01*
X240455008Y-111696855D01*
X240496704Y-111906475D01*
X240578493Y-112103932D01*
X240697233Y-112281639D01*
X240848361Y-112432767D01*
X241026068Y-112551507D01*
X241223525Y-112633296D01*
X241433145Y-112674992D01*
X241646871Y-112674992D01*
X241856491Y-112633296D01*
X242053948Y-112551507D01*
X242175008Y-112470617D01*
X242296068Y-112551507D01*
X242493525Y-112633296D01*
X242703145Y-112674992D01*
X242916871Y-112674992D01*
X243126491Y-112633296D01*
X243323948Y-112551507D01*
X243470008Y-112453913D01*
X243616068Y-112551507D01*
X243813525Y-112633296D01*
X244023145Y-112674992D01*
X244236871Y-112674992D01*
X244446491Y-112633296D01*
X244643948Y-112551507D01*
X244821655Y-112432767D01*
X244972783Y-112281639D01*
X245091523Y-112103932D01*
X245173312Y-111906475D01*
X245215008Y-111696855D01*
X245215008Y-111483129D01*
X245173312Y-111273509D01*
X245091523Y-111076052D01*
X244972783Y-110898345D01*
X244821655Y-110747217D01*
X244643948Y-110628477D01*
X244446491Y-110546688D01*
X244236871Y-110504992D01*
X244023145Y-110504992D01*
X243813525Y-110546688D01*
X243616068Y-110628477D01*
X243470008Y-110726071D01*
X243323948Y-110628477D01*
X243126491Y-110546688D01*
X242916871Y-110504992D01*
X242703145Y-110504992D01*
X242493525Y-110546688D01*
X242296068Y-110628477D01*
X242175008Y-110709367D01*
X242053948Y-110628477D01*
X241856491Y-110546688D01*
X241646871Y-110504992D01*
X241433145Y-110504992D01*
X241223525Y-110546688D01*
X241026068Y-110628477D01*
X240848361Y-110747217D01*
X240697233Y-110898345D01*
X240578493Y-111076052D01*
X240496704Y-111273509D01*
X240455008Y-111483129D01*
X216222576Y-111483129D01*
X215425000Y-110685554D01*
X215425000Y-109963723D01*
X215532775Y-109855948D01*
X215651515Y-109678241D01*
X215733304Y-109480784D01*
X215756117Y-109366097D01*
X215773517Y-109373304D01*
X215983137Y-109415000D01*
X216196863Y-109415000D01*
X216406483Y-109373304D01*
X216603940Y-109291515D01*
X216781647Y-109172775D01*
X216889422Y-109065000D01*
X244885554Y-109065000D01*
X245165000Y-109344446D01*
X245165000Y-109496863D01*
X245206696Y-109706483D01*
X245288485Y-109903940D01*
X245407225Y-110081647D01*
X245558353Y-110232775D01*
X245736060Y-110351515D01*
X245933517Y-110433304D01*
X246143137Y-110475000D01*
X246356863Y-110475000D01*
X246566483Y-110433304D01*
X246763940Y-110351515D01*
X246941647Y-110232775D01*
X247092775Y-110081647D01*
X247211515Y-109903940D01*
X247293304Y-109706483D01*
X247335000Y-109496863D01*
X247335000Y-109283137D01*
X247293304Y-109073517D01*
X247211515Y-108876060D01*
X247092775Y-108698353D01*
X246941647Y-108547225D01*
X246763940Y-108428485D01*
X246566483Y-108346696D01*
X246356863Y-108305000D01*
X246204446Y-108305000D01*
X245735258Y-107835812D01*
X245713686Y-107809527D01*
X245843517Y-107863304D01*
X246053137Y-107905000D01*
X246266863Y-107905000D01*
X246476483Y-107863304D01*
X246673940Y-107781515D01*
X246851647Y-107662775D01*
X247002775Y-107511647D01*
X247121515Y-107333940D01*
X247203304Y-107136483D01*
X247245000Y-106926863D01*
X247245000Y-106713137D01*
X247203304Y-106503517D01*
X247121515Y-106306060D01*
X247002775Y-106128353D01*
X246851647Y-105977225D01*
X246673940Y-105858485D01*
X246476483Y-105776696D01*
X246266863Y-105735000D01*
X246155507Y-105735000D01*
X246138304Y-105648517D01*
X246056515Y-105451060D01*
X245937775Y-105273353D01*
X245786647Y-105122225D01*
X245608940Y-105003485D01*
X245411483Y-104921696D01*
X245204480Y-104880520D01*
X245163304Y-104673517D01*
X245081515Y-104476060D01*
X244962775Y-104298353D01*
X244811647Y-104147225D01*
X244633940Y-104028485D01*
X244436483Y-103946696D01*
X244226863Y-103905000D01*
X244013137Y-103905000D01*
X243803517Y-103946696D01*
X243606060Y-104028485D01*
X243428353Y-104147225D01*
X243277225Y-104298353D01*
X243158485Y-104476060D01*
X243076696Y-104673517D01*
X243035000Y-104883137D01*
X243035000Y-105096863D01*
X243076696Y-105306483D01*
X243158485Y-105503940D01*
X243277225Y-105681647D01*
X243428353Y-105832775D01*
X243606060Y-105951515D01*
X243803517Y-106033304D01*
X244010520Y-106074480D01*
X244051696Y-106281483D01*
X244133485Y-106478940D01*
X244252225Y-106656647D01*
X244403353Y-106807775D01*
X244581060Y-106926515D01*
X244778517Y-107008304D01*
X244988137Y-107050000D01*
X245099493Y-107050000D01*
X245116696Y-107136483D01*
X245198485Y-107333940D01*
X245317225Y-107511647D01*
X245444797Y-107639219D01*
X245334085Y-107605635D01*
X245226105Y-107595000D01*
X245190000Y-107591444D01*
X245153895Y-107595000D01*
X216889422Y-107595000D01*
X216781647Y-107487225D01*
X216603940Y-107368485D01*
X216406483Y-107286696D01*
X216196863Y-107245000D01*
X215983137Y-107245000D01*
X215773517Y-107286696D01*
X215576060Y-107368485D01*
X215398353Y-107487225D01*
X215247225Y-107638353D01*
X215128485Y-107816060D01*
X215046696Y-108013517D01*
X215023883Y-108128204D01*
X215006483Y-108120997D01*
X214796863Y-108079301D01*
X214583137Y-108079301D01*
X214373517Y-108120997D01*
X214246999Y-108173402D01*
X214246999Y-103430000D01*
X248041928Y-103430000D01*
X248041928Y-105130000D01*
X248054188Y-105254482D01*
X248090498Y-105374180D01*
X248149463Y-105484494D01*
X248228815Y-105581185D01*
X248325506Y-105660537D01*
X248435820Y-105719502D01*
X248508380Y-105741513D01*
X248376525Y-105873368D01*
X248214010Y-106116589D01*
X248102068Y-106386842D01*
X248045000Y-106673740D01*
X248045000Y-106966260D01*
X248102068Y-107253158D01*
X248214010Y-107523411D01*
X248376525Y-107766632D01*
X248583368Y-107973475D01*
X248826589Y-108135990D01*
X249096842Y-108247932D01*
X249383740Y-108305000D01*
X249676260Y-108305000D01*
X249963158Y-108247932D01*
X250233411Y-108135990D01*
X250476632Y-107973475D01*
X250683475Y-107766632D01*
X250800000Y-107592240D01*
X250916525Y-107766632D01*
X251123368Y-107973475D01*
X251366589Y-108135990D01*
X251636842Y-108247932D01*
X251923740Y-108305000D01*
X252216260Y-108305000D01*
X252503158Y-108247932D01*
X252773411Y-108135990D01*
X253016632Y-107973475D01*
X253223475Y-107766632D01*
X253385990Y-107523411D01*
X253497932Y-107253158D01*
X253555000Y-106966260D01*
X253555000Y-106673740D01*
X253497932Y-106386842D01*
X253385990Y-106116589D01*
X253223475Y-105873368D01*
X253091620Y-105741513D01*
X253164180Y-105719502D01*
X253274494Y-105660537D01*
X253371185Y-105581185D01*
X253450537Y-105484494D01*
X253509502Y-105374180D01*
X253545812Y-105254482D01*
X253558072Y-105130000D01*
X253558072Y-103430000D01*
X253545812Y-103305518D01*
X253509502Y-103185820D01*
X253450537Y-103075506D01*
X253371185Y-102978815D01*
X253274494Y-102899463D01*
X253164180Y-102840498D01*
X253044482Y-102804188D01*
X252920000Y-102791928D01*
X251220000Y-102791928D01*
X251095518Y-102804188D01*
X250975820Y-102840498D01*
X250865506Y-102899463D01*
X250800000Y-102953222D01*
X250734494Y-102899463D01*
X250624180Y-102840498D01*
X250504482Y-102804188D01*
X250380000Y-102791928D01*
X248680000Y-102791928D01*
X248555518Y-102804188D01*
X248435820Y-102840498D01*
X248325506Y-102899463D01*
X248228815Y-102978815D01*
X248149463Y-103075506D01*
X248090498Y-103185820D01*
X248054188Y-103305518D01*
X248041928Y-103430000D01*
X214246999Y-103430000D01*
X214246999Y-100523001D01*
X216400000Y-100523001D01*
X216400000Y-100651863D01*
X216441696Y-100861483D01*
X216523485Y-101058940D01*
X216642225Y-101236647D01*
X216793353Y-101387775D01*
X216971060Y-101506515D01*
X217168517Y-101588304D01*
X217378137Y-101630000D01*
X217591863Y-101630000D01*
X217801483Y-101588304D01*
X217998940Y-101506515D01*
X218176647Y-101387775D01*
X218284422Y-101280000D01*
X224006028Y-101280000D01*
X224025367Y-101290337D01*
X224163915Y-101332365D01*
X224271895Y-101343000D01*
X224271904Y-101343000D01*
X224307999Y-101346555D01*
X224344094Y-101343000D01*
X241442936Y-101343000D01*
X241425008Y-101433129D01*
X241425008Y-101646855D01*
X241466704Y-101856475D01*
X241548493Y-102053932D01*
X241667233Y-102231639D01*
X241818361Y-102382767D01*
X241996068Y-102501507D01*
X242193525Y-102583296D01*
X242403145Y-102624992D01*
X242616871Y-102624992D01*
X242826491Y-102583296D01*
X243023948Y-102501507D01*
X243110008Y-102444004D01*
X243196068Y-102501507D01*
X243393525Y-102583296D01*
X243603145Y-102624992D01*
X243816871Y-102624992D01*
X244026491Y-102583296D01*
X244223948Y-102501507D01*
X244325008Y-102433981D01*
X244426068Y-102501507D01*
X244623525Y-102583296D01*
X244833145Y-102624992D01*
X245046871Y-102624992D01*
X245256491Y-102583296D01*
X245453948Y-102501507D01*
X245631655Y-102382767D01*
X245782783Y-102231639D01*
X245901523Y-102053932D01*
X245983312Y-101856475D01*
X246025008Y-101646855D01*
X246025008Y-101433129D01*
X246007080Y-101343000D01*
X252223554Y-101343000D01*
X254148198Y-103267645D01*
X254148199Y-121027083D01*
X254144642Y-121063198D01*
X254158833Y-121207283D01*
X254195908Y-121329501D01*
X254200862Y-121345831D01*
X254269112Y-121473518D01*
X254360961Y-121585436D01*
X254389006Y-121608452D01*
X255757178Y-122976625D01*
X255715000Y-123188665D01*
X255715000Y-123471335D01*
X255770147Y-123748574D01*
X255878320Y-124009727D01*
X256035363Y-124244759D01*
X256235241Y-124444637D01*
X256470273Y-124601680D01*
X256731426Y-124709853D01*
X257008665Y-124765000D01*
X257291335Y-124765000D01*
X257568574Y-124709853D01*
X257829727Y-124601680D01*
X258064759Y-124444637D01*
X258264637Y-124244759D01*
X258341316Y-124130000D01*
X268411928Y-124130000D01*
X268424188Y-124254482D01*
X268460498Y-124374180D01*
X268519463Y-124484494D01*
X268598815Y-124581185D01*
X268695506Y-124660537D01*
X268805820Y-124719502D01*
X268925518Y-124755812D01*
X269050000Y-124768072D01*
X269564250Y-124765000D01*
X269723000Y-124606250D01*
X269723000Y-123457000D01*
X269977000Y-123457000D01*
X269977000Y-124606250D01*
X270135750Y-124765000D01*
X270650000Y-124768072D01*
X270774482Y-124755812D01*
X270894180Y-124719502D01*
X271004494Y-124660537D01*
X271101185Y-124581185D01*
X271180537Y-124484494D01*
X271239502Y-124374180D01*
X271275812Y-124254482D01*
X271288072Y-124130000D01*
X271285000Y-123615750D01*
X271126250Y-123457000D01*
X269977000Y-123457000D01*
X269723000Y-123457000D01*
X268573750Y-123457000D01*
X268415000Y-123615750D01*
X268411928Y-124130000D01*
X258341316Y-124130000D01*
X258421680Y-124009727D01*
X258529853Y-123748574D01*
X258585000Y-123471335D01*
X258585000Y-123188665D01*
X258529853Y-122911426D01*
X258421680Y-122650273D01*
X258341317Y-122530000D01*
X268411928Y-122530000D01*
X268415000Y-123044250D01*
X268573750Y-123203000D01*
X269723000Y-123203000D01*
X269723000Y-123183000D01*
X269977000Y-123183000D01*
X269977000Y-123203000D01*
X271126250Y-123203000D01*
X271285000Y-123044250D01*
X271288072Y-122530000D01*
X271275812Y-122405518D01*
X271239502Y-122285820D01*
X271180537Y-122175506D01*
X271101185Y-122078815D01*
X271004494Y-121999463D01*
X270894180Y-121940498D01*
X270774482Y-121904188D01*
X270766039Y-121903357D01*
X270964637Y-121704759D01*
X271121680Y-121469727D01*
X271229853Y-121208574D01*
X271285000Y-120931335D01*
X271285000Y-120648665D01*
X271229853Y-120371426D01*
X271121680Y-120110273D01*
X270964637Y-119875241D01*
X270764759Y-119675363D01*
X270532241Y-119520000D01*
X270764759Y-119364637D01*
X270964637Y-119164759D01*
X271121680Y-118929727D01*
X271229853Y-118668574D01*
X271285000Y-118391335D01*
X271285000Y-118108665D01*
X271229853Y-117831426D01*
X271121680Y-117570273D01*
X270964637Y-117335241D01*
X270764759Y-117135363D01*
X270532241Y-116980000D01*
X270764759Y-116824637D01*
X270964637Y-116624759D01*
X271121680Y-116389727D01*
X271229853Y-116128574D01*
X271285000Y-115851335D01*
X271285000Y-115568665D01*
X271229853Y-115291426D01*
X271121680Y-115030273D01*
X270964637Y-114795241D01*
X270764759Y-114595363D01*
X270532241Y-114440000D01*
X270734284Y-114305000D01*
X272189868Y-114305000D01*
X271938865Y-114556004D01*
X271895552Y-114591550D01*
X271753717Y-114764376D01*
X271681326Y-114899812D01*
X271648325Y-114961553D01*
X271583424Y-115175501D01*
X271561510Y-115397999D01*
X271567001Y-115453751D01*
X271567002Y-120466240D01*
X271561510Y-120522001D01*
X271583424Y-120744499D01*
X271648325Y-120958447D01*
X271679961Y-121017633D01*
X271753718Y-121155624D01*
X271895553Y-121328450D01*
X271938861Y-121363992D01*
X275652857Y-125077989D01*
X275652862Y-125077993D01*
X275788150Y-125213282D01*
X275836147Y-125454574D01*
X275944320Y-125715727D01*
X276101363Y-125950759D01*
X276301241Y-126150637D01*
X276536273Y-126307680D01*
X276797426Y-126415853D01*
X276825882Y-126421513D01*
X276599708Y-126502397D01*
X276474486Y-126569329D01*
X276402903Y-126813298D01*
X277216000Y-127626395D01*
X278029097Y-126813298D01*
X277957514Y-126569329D01*
X277793056Y-126491512D01*
X278615783Y-126491512D01*
X278657213Y-126771130D01*
X278752397Y-127037292D01*
X278819329Y-127162514D01*
X279063298Y-127234097D01*
X279876395Y-126421000D01*
X279063298Y-125607903D01*
X278819329Y-125679486D01*
X278698429Y-125934996D01*
X278629700Y-126209184D01*
X278615783Y-126491512D01*
X277793056Y-126491512D01*
X277702004Y-126448429D01*
X277599711Y-126422788D01*
X277634574Y-126415853D01*
X277895727Y-126307680D01*
X278130759Y-126150637D01*
X278330637Y-125950759D01*
X278487680Y-125715727D01*
X278595853Y-125454574D01*
X278651000Y-125177335D01*
X278651000Y-124894665D01*
X278595853Y-124617426D01*
X278487680Y-124356273D01*
X278330637Y-124121241D01*
X278130759Y-123921363D01*
X277895727Y-123764320D01*
X277634574Y-123656147D01*
X277608699Y-123651000D01*
X277634574Y-123645853D01*
X277895727Y-123537680D01*
X278130759Y-123380637D01*
X278330637Y-123180759D01*
X278487680Y-122945727D01*
X278595853Y-122684574D01*
X278651000Y-122407335D01*
X278651000Y-122124665D01*
X278595853Y-121847426D01*
X278487680Y-121586273D01*
X278330637Y-121351241D01*
X278130759Y-121151363D01*
X277895727Y-120994320D01*
X277634574Y-120886147D01*
X277608699Y-120881000D01*
X277634574Y-120875853D01*
X277895727Y-120767680D01*
X278130759Y-120610637D01*
X278330637Y-120410759D01*
X278487680Y-120175727D01*
X278595853Y-119914574D01*
X278651000Y-119637335D01*
X278651000Y-119354665D01*
X278595853Y-119077426D01*
X278487680Y-118816273D01*
X278330637Y-118581241D01*
X278130759Y-118381363D01*
X277895727Y-118224320D01*
X277750275Y-118164072D01*
X278016000Y-118164072D01*
X278140482Y-118151812D01*
X278260180Y-118115502D01*
X278370494Y-118056537D01*
X278467185Y-117977185D01*
X278546537Y-117880494D01*
X278605502Y-117770180D01*
X278641812Y-117650482D01*
X278654072Y-117526000D01*
X278654072Y-115926000D01*
X278641812Y-115801518D01*
X278605502Y-115681820D01*
X278546537Y-115571506D01*
X278467185Y-115474815D01*
X278370494Y-115395463D01*
X278260180Y-115336498D01*
X278140482Y-115300188D01*
X278016000Y-115287928D01*
X276416000Y-115287928D01*
X276319000Y-115297481D01*
X276319000Y-113225752D01*
X276324491Y-113170000D01*
X276302577Y-112947501D01*
X276237676Y-112733553D01*
X276132284Y-112536377D01*
X275990449Y-112363551D01*
X275817623Y-112221716D01*
X275620447Y-112116324D01*
X275406499Y-112051423D01*
X275239752Y-112035000D01*
X275239751Y-112035000D01*
X275184000Y-112029509D01*
X275128248Y-112035000D01*
X270734284Y-112035000D01*
X270532241Y-111900000D01*
X270764759Y-111744637D01*
X270964637Y-111544759D01*
X271121680Y-111309727D01*
X271229853Y-111048574D01*
X271285000Y-110771335D01*
X271285000Y-110488665D01*
X271229853Y-110211426D01*
X271121680Y-109950273D01*
X270964637Y-109715241D01*
X270764759Y-109515363D01*
X270751458Y-109506475D01*
X274881000Y-109506475D01*
X274881000Y-110025525D01*
X274982261Y-110534601D01*
X275180893Y-111014141D01*
X275469262Y-111445715D01*
X275836285Y-111812738D01*
X276267859Y-112101107D01*
X276747399Y-112299739D01*
X277256475Y-112401000D01*
X277775525Y-112401000D01*
X278284601Y-112299739D01*
X278764141Y-112101107D01*
X279195715Y-111812738D01*
X279562738Y-111445715D01*
X279851107Y-111014141D01*
X280049739Y-110534601D01*
X280151000Y-110025525D01*
X280151000Y-109506475D01*
X280049739Y-108997399D01*
X279851107Y-108517859D01*
X279562738Y-108086285D01*
X279195715Y-107719262D01*
X278764141Y-107430893D01*
X278284601Y-107232261D01*
X277775525Y-107131000D01*
X277256475Y-107131000D01*
X276747399Y-107232261D01*
X276267859Y-107430893D01*
X275836285Y-107719262D01*
X275469262Y-108086285D01*
X275180893Y-108517859D01*
X274982261Y-108997399D01*
X274881000Y-109506475D01*
X270751458Y-109506475D01*
X270529727Y-109358320D01*
X270519135Y-109353933D01*
X270705131Y-109242385D01*
X270913519Y-109053414D01*
X271081037Y-108827420D01*
X271201246Y-108573087D01*
X271241904Y-108439039D01*
X271119915Y-108217000D01*
X269977000Y-108217000D01*
X269977000Y-108237000D01*
X269723000Y-108237000D01*
X269723000Y-108217000D01*
X268580085Y-108217000D01*
X268458096Y-108439039D01*
X268498754Y-108573087D01*
X268618963Y-108827420D01*
X268786481Y-109053414D01*
X268994869Y-109242385D01*
X269180865Y-109353933D01*
X269170273Y-109358320D01*
X268935241Y-109515363D01*
X268735363Y-109715241D01*
X268578320Y-109950273D01*
X268470147Y-110211426D01*
X268415000Y-110488665D01*
X268415000Y-110771335D01*
X268470147Y-111048574D01*
X268578320Y-111309727D01*
X268735363Y-111544759D01*
X268935241Y-111744637D01*
X269167759Y-111900000D01*
X268935241Y-112055363D01*
X268735363Y-112255241D01*
X268578320Y-112490273D01*
X268470147Y-112751426D01*
X268415000Y-113028665D01*
X268415000Y-113311335D01*
X268470147Y-113588574D01*
X268578320Y-113849727D01*
X268735363Y-114084759D01*
X268935241Y-114284637D01*
X269167759Y-114440000D01*
X268935241Y-114595363D01*
X268735363Y-114795241D01*
X268578320Y-115030273D01*
X268470147Y-115291426D01*
X268415000Y-115568665D01*
X268415000Y-115851335D01*
X268470147Y-116128574D01*
X268578320Y-116389727D01*
X268735363Y-116624759D01*
X268935241Y-116824637D01*
X269167759Y-116980000D01*
X268935241Y-117135363D01*
X268735363Y-117335241D01*
X268578320Y-117570273D01*
X268470147Y-117831426D01*
X268415000Y-118108665D01*
X268415000Y-118391335D01*
X268470147Y-118668574D01*
X268578320Y-118929727D01*
X268735363Y-119164759D01*
X268935241Y-119364637D01*
X269167759Y-119520000D01*
X268935241Y-119675363D01*
X268735363Y-119875241D01*
X268578320Y-120110273D01*
X268470147Y-120371426D01*
X268415000Y-120648665D01*
X268415000Y-120931335D01*
X268470147Y-121208574D01*
X268578320Y-121469727D01*
X268735363Y-121704759D01*
X268933961Y-121903357D01*
X268925518Y-121904188D01*
X268805820Y-121940498D01*
X268695506Y-121999463D01*
X268598815Y-122078815D01*
X268519463Y-122175506D01*
X268460498Y-122285820D01*
X268424188Y-122405518D01*
X268411928Y-122530000D01*
X258341317Y-122530000D01*
X258264637Y-122415241D01*
X258064759Y-122215363D01*
X257832241Y-122060000D01*
X258064759Y-121904637D01*
X258264637Y-121704759D01*
X258421680Y-121469727D01*
X258529853Y-121208574D01*
X258585000Y-120931335D01*
X258585000Y-120648665D01*
X258529853Y-120371426D01*
X258421680Y-120110273D01*
X258264637Y-119875241D01*
X258064759Y-119675363D01*
X257832241Y-119520000D01*
X258064759Y-119364637D01*
X258264637Y-119164759D01*
X258421680Y-118929727D01*
X258450193Y-118860890D01*
X259518524Y-118860890D01*
X259563175Y-119008099D01*
X259688359Y-119270920D01*
X259862412Y-119504269D01*
X260078645Y-119699178D01*
X260328748Y-119848157D01*
X260603109Y-119945481D01*
X260833000Y-119824814D01*
X260833000Y-118631000D01*
X261087000Y-118631000D01*
X261087000Y-119824814D01*
X261316891Y-119945481D01*
X261591252Y-119848157D01*
X261841355Y-119699178D01*
X262057588Y-119504269D01*
X262230000Y-119273120D01*
X262402412Y-119504269D01*
X262618645Y-119699178D01*
X262868748Y-119848157D01*
X263143109Y-119945481D01*
X263373000Y-119824814D01*
X263373000Y-118631000D01*
X263627000Y-118631000D01*
X263627000Y-119824814D01*
X263856891Y-119945481D01*
X264131252Y-119848157D01*
X264381355Y-119699178D01*
X264597588Y-119504269D01*
X264770000Y-119273120D01*
X264942412Y-119504269D01*
X265158645Y-119699178D01*
X265408748Y-119848157D01*
X265683109Y-119945481D01*
X265913000Y-119824814D01*
X265913000Y-118631000D01*
X266167000Y-118631000D01*
X266167000Y-119824814D01*
X266396891Y-119945481D01*
X266671252Y-119848157D01*
X266921355Y-119699178D01*
X267137588Y-119504269D01*
X267311641Y-119270920D01*
X267436825Y-119008099D01*
X267481476Y-118860890D01*
X267360155Y-118631000D01*
X266167000Y-118631000D01*
X265913000Y-118631000D01*
X263627000Y-118631000D01*
X263373000Y-118631000D01*
X261087000Y-118631000D01*
X260833000Y-118631000D01*
X259639845Y-118631000D01*
X259518524Y-118860890D01*
X258450193Y-118860890D01*
X258529853Y-118668574D01*
X258585000Y-118391335D01*
X258585000Y-118108665D01*
X258529853Y-117831426D01*
X258421680Y-117570273D01*
X258264637Y-117335241D01*
X258064759Y-117135363D01*
X257885000Y-117015252D01*
X257885000Y-116944748D01*
X258064759Y-116824637D01*
X258264637Y-116624759D01*
X258421680Y-116389727D01*
X258529853Y-116128574D01*
X258585000Y-115851335D01*
X258585000Y-115568665D01*
X258529853Y-115291426D01*
X258421680Y-115030273D01*
X258264637Y-114795241D01*
X258064759Y-114595363D01*
X257832241Y-114440000D01*
X258064759Y-114284637D01*
X258264637Y-114084759D01*
X258421680Y-113849727D01*
X258529853Y-113588574D01*
X258585000Y-113311335D01*
X258585000Y-113104447D01*
X258674989Y-113194436D01*
X258674990Y-116079876D01*
X258671433Y-116115991D01*
X258685624Y-116260076D01*
X258724954Y-116389727D01*
X258727653Y-116398624D01*
X258795903Y-116526311D01*
X258887752Y-116638229D01*
X258915797Y-116661245D01*
X259817925Y-117563374D01*
X259688359Y-117737080D01*
X259563175Y-117999901D01*
X259518524Y-118147110D01*
X259639845Y-118377000D01*
X260833000Y-118377000D01*
X260833000Y-118357000D01*
X261087000Y-118357000D01*
X261087000Y-118377000D01*
X263373000Y-118377000D01*
X263373000Y-118357000D01*
X263627000Y-118357000D01*
X263627000Y-118377000D01*
X265913000Y-118377000D01*
X265913000Y-118357000D01*
X266167000Y-118357000D01*
X266167000Y-118377000D01*
X267360155Y-118377000D01*
X267481476Y-118147110D01*
X267436825Y-117999901D01*
X267311641Y-117737080D01*
X267137588Y-117503731D01*
X266921355Y-117308822D01*
X266804466Y-117239195D01*
X266986632Y-117117475D01*
X267193475Y-116910632D01*
X267355990Y-116667411D01*
X267467932Y-116397158D01*
X267525000Y-116110260D01*
X267525000Y-115817740D01*
X267467932Y-115530842D01*
X267355990Y-115260589D01*
X267193475Y-115017368D01*
X267061620Y-114885513D01*
X267134180Y-114863502D01*
X267244494Y-114804537D01*
X267341185Y-114725185D01*
X267420537Y-114628494D01*
X267479502Y-114518180D01*
X267515812Y-114398482D01*
X267528072Y-114274000D01*
X267528072Y-112574000D01*
X267515812Y-112449518D01*
X267479502Y-112329820D01*
X267420537Y-112219506D01*
X267341185Y-112122815D01*
X267244494Y-112043463D01*
X267134180Y-111984498D01*
X267014482Y-111948188D01*
X266890000Y-111935928D01*
X265190000Y-111935928D01*
X265065518Y-111948188D01*
X264945820Y-111984498D01*
X264835506Y-112043463D01*
X264770000Y-112097222D01*
X264704494Y-112043463D01*
X264594180Y-111984498D01*
X264474482Y-111948188D01*
X264350000Y-111935928D01*
X262650000Y-111935928D01*
X262525518Y-111948188D01*
X262405820Y-111984498D01*
X262295506Y-112043463D01*
X262230000Y-112097222D01*
X262164494Y-112043463D01*
X262054180Y-111984498D01*
X261934482Y-111948188D01*
X261810000Y-111935928D01*
X261795000Y-111935928D01*
X261795000Y-110991016D01*
X261799040Y-110949998D01*
X261788040Y-110838311D01*
X261782918Y-110786309D01*
X261735172Y-110628911D01*
X261657636Y-110483852D01*
X261644106Y-110467366D01*
X261579439Y-110388568D01*
X261579437Y-110388566D01*
X261553291Y-110356707D01*
X261521433Y-110330562D01*
X261045001Y-109854131D01*
X261045001Y-103453006D01*
X261049040Y-103411998D01*
X261045001Y-103370990D01*
X261045001Y-103370980D01*
X261042442Y-103345000D01*
X262942982Y-103345000D01*
X262984000Y-103349040D01*
X263025018Y-103345000D01*
X263025019Y-103345000D01*
X263147689Y-103332918D01*
X263305087Y-103285172D01*
X263450146Y-103207636D01*
X263577291Y-103103291D01*
X263603446Y-103071421D01*
X265063000Y-101611867D01*
X265063000Y-101613002D01*
X265221748Y-101613002D01*
X265063000Y-101771750D01*
X265059928Y-102336000D01*
X265072188Y-102460482D01*
X265108498Y-102580180D01*
X265167463Y-102690494D01*
X265246815Y-102787185D01*
X265343506Y-102866537D01*
X265453820Y-102925502D01*
X265573518Y-102961812D01*
X265698000Y-102974072D01*
X266262250Y-102971000D01*
X266421000Y-102812250D01*
X266421000Y-101613000D01*
X266675000Y-101613000D01*
X266675000Y-102812250D01*
X266833750Y-102971000D01*
X267398000Y-102974072D01*
X267522482Y-102961812D01*
X267642180Y-102925502D01*
X267752494Y-102866537D01*
X267849185Y-102787185D01*
X267928537Y-102690494D01*
X267987502Y-102580180D01*
X268023812Y-102460482D01*
X268036072Y-102336000D01*
X268033000Y-101771750D01*
X267874250Y-101613000D01*
X266675000Y-101613000D01*
X266421000Y-101613000D01*
X266401000Y-101613000D01*
X266401000Y-101359000D01*
X266421000Y-101359000D01*
X266421000Y-101339000D01*
X266675000Y-101339000D01*
X266675000Y-101359000D01*
X267874250Y-101359000D01*
X268033000Y-101200250D01*
X268036072Y-100636000D01*
X268023812Y-100511518D01*
X267987502Y-100391820D01*
X267928537Y-100281506D01*
X267849185Y-100184815D01*
X267752494Y-100105463D01*
X267642180Y-100046498D01*
X267569620Y-100024487D01*
X267701475Y-99892632D01*
X267863990Y-99649411D01*
X267975932Y-99379158D01*
X268033000Y-99092260D01*
X268033000Y-98799740D01*
X267975932Y-98512842D01*
X267863990Y-98242589D01*
X267701475Y-97999368D01*
X267494632Y-97792525D01*
X267251411Y-97630010D01*
X267166889Y-97595000D01*
X278085554Y-97595000D01*
X281005000Y-100514447D01*
X281005001Y-101550577D01*
X280897225Y-101658353D01*
X280778485Y-101836060D01*
X280696696Y-102033517D01*
X280655000Y-102243137D01*
X280655000Y-102456863D01*
X280696696Y-102666483D01*
X280778485Y-102863940D01*
X280897225Y-103041647D01*
X281048353Y-103192775D01*
X281226060Y-103311515D01*
X281423517Y-103393304D01*
X281633137Y-103435000D01*
X281846863Y-103435000D01*
X282056483Y-103393304D01*
X282253940Y-103311515D01*
X282431647Y-103192775D01*
X282582775Y-103041647D01*
X282701515Y-102863940D01*
X282783304Y-102666483D01*
X282825000Y-102456863D01*
X282825000Y-102243137D01*
X282783304Y-102033517D01*
X282701515Y-101836060D01*
X282582775Y-101658353D01*
X282475000Y-101550578D01*
X282475000Y-100246094D01*
X282478555Y-100209999D01*
X282475000Y-100173904D01*
X282475000Y-100173895D01*
X282464365Y-100065915D01*
X282422337Y-99927367D01*
X282354087Y-99799680D01*
X282316590Y-99753990D01*
X282285253Y-99715806D01*
X282285250Y-99715803D01*
X282262237Y-99687762D01*
X282234197Y-99664750D01*
X278935259Y-96365813D01*
X278912238Y-96337762D01*
X278800320Y-96245913D01*
X278672633Y-96177663D01*
X278534085Y-96135635D01*
X278426105Y-96125000D01*
X278390000Y-96121444D01*
X278353895Y-96125000D01*
X265506105Y-96125000D01*
X265470000Y-96121444D01*
X265433895Y-96125000D01*
X265325915Y-96135635D01*
X265187367Y-96177663D01*
X265059680Y-96245913D01*
X264947762Y-96337762D01*
X264924741Y-96365813D01*
X264711807Y-96578747D01*
X264683762Y-96601763D01*
X264681719Y-96604252D01*
X264612988Y-96258719D01*
X264369730Y-95671442D01*
X264016575Y-95142907D01*
X263567093Y-94693425D01*
X263167611Y-94426500D01*
X281974155Y-94426500D01*
X282449355Y-94473093D01*
G37*
G04 #@! TD.AperFunction*
D23*
X212827000Y-144793000D02*
X212847000Y-144793000D01*
X212847000Y-145047000D01*
X212827000Y-145047000D01*
X212827000Y-145067000D01*
X212573000Y-145067000D01*
X212573000Y-145047000D01*
X212553000Y-145047000D01*
X212553000Y-144793000D01*
X212573000Y-144793000D01*
X212573000Y-144773000D01*
X212827000Y-144773000D01*
X212827000Y-144793000D01*
G04 #@! TA.AperFunction,Conductor*
D24*
G36*
X212827000Y-144793000D02*
G01*
X212847000Y-144793000D01*
X212847000Y-145047000D01*
X212827000Y-145047000D01*
X212827000Y-145067000D01*
X212573000Y-145067000D01*
X212573000Y-145047000D01*
X212553000Y-145047000D01*
X212553000Y-144793000D01*
X212573000Y-144793000D01*
X212573000Y-144773000D01*
X212827000Y-144773000D01*
X212827000Y-144793000D01*
G37*
G04 #@! TD.AperFunction*
D23*
X215428353Y-124882775D02*
X215606060Y-125001515D01*
X215803517Y-125083304D01*
X216013137Y-125125000D01*
X216226863Y-125125000D01*
X216262677Y-125117876D01*
X215483054Y-125897500D01*
X215330637Y-125897500D01*
X215121017Y-125939196D01*
X214923560Y-126020985D01*
X214745853Y-126139725D01*
X214594725Y-126290853D01*
X214475985Y-126468560D01*
X214394196Y-126666017D01*
X214352500Y-126875637D01*
X214352500Y-127089363D01*
X214394196Y-127298983D01*
X214475985Y-127496440D01*
X214594725Y-127674147D01*
X214745853Y-127825275D01*
X214923560Y-127944015D01*
X215121017Y-128025804D01*
X215330637Y-128067500D01*
X215544363Y-128067500D01*
X215753983Y-128025804D01*
X215951440Y-127944015D01*
X216129147Y-127825275D01*
X216280275Y-127674147D01*
X216399015Y-127496440D01*
X216480804Y-127298983D01*
X216522500Y-127089363D01*
X216522500Y-126936946D01*
X217549664Y-125909783D01*
X217560320Y-125904087D01*
X217672238Y-125812238D01*
X217695259Y-125784187D01*
X217702512Y-125776934D01*
X217768353Y-125842775D01*
X217946060Y-125961515D01*
X218143517Y-126043304D01*
X218353137Y-126085000D01*
X218505554Y-126085000D01*
X219365000Y-126944447D01*
X219365001Y-131003886D01*
X219365000Y-131003896D01*
X219365000Y-131113895D01*
X219361444Y-131150000D01*
X219365000Y-131186104D01*
X219365000Y-131186105D01*
X219375635Y-131294085D01*
X219417663Y-131432633D01*
X219485913Y-131560320D01*
X219577763Y-131672238D01*
X219605808Y-131695254D01*
X229479004Y-141568451D01*
X229426483Y-141546696D01*
X229216863Y-141505000D01*
X229003137Y-141505000D01*
X228793517Y-141546696D01*
X228596060Y-141628485D01*
X228418353Y-141747225D01*
X228310578Y-141855000D01*
X227714213Y-141855000D01*
X227763304Y-141736483D01*
X227805000Y-141526863D01*
X227805000Y-141313137D01*
X227763304Y-141103517D01*
X227681515Y-140906060D01*
X227562775Y-140728353D01*
X227411647Y-140577225D01*
X227233940Y-140458485D01*
X227036483Y-140376696D01*
X226826863Y-140335000D01*
X226613137Y-140335000D01*
X226403517Y-140376696D01*
X226206060Y-140458485D01*
X226028353Y-140577225D01*
X225920578Y-140685000D01*
X219345000Y-140685000D01*
X219345000Y-140553137D01*
X219303304Y-140343517D01*
X219221515Y-140146060D01*
X219102775Y-139968353D01*
X218951647Y-139817225D01*
X218773940Y-139698485D01*
X218576483Y-139616696D01*
X218366863Y-139575000D01*
X218153137Y-139575000D01*
X217943517Y-139616696D01*
X217746060Y-139698485D01*
X217568353Y-139817225D01*
X217460578Y-139925000D01*
X216874447Y-139925000D01*
X216541934Y-139592488D01*
X216587775Y-139546647D01*
X216706515Y-139368940D01*
X216788304Y-139171483D01*
X216830000Y-138961863D01*
X216830000Y-138748137D01*
X216788304Y-138538517D01*
X216706515Y-138341060D01*
X216587775Y-138163353D01*
X216436647Y-138012225D01*
X216258940Y-137893485D01*
X216061483Y-137811696D01*
X215851863Y-137770000D01*
X215638137Y-137770000D01*
X215428517Y-137811696D01*
X215231060Y-137893485D01*
X215053353Y-138012225D01*
X214902225Y-138163353D01*
X214783485Y-138341060D01*
X214701696Y-138538517D01*
X214660000Y-138748137D01*
X214660000Y-138961863D01*
X214701696Y-139171483D01*
X214783485Y-139368940D01*
X214902225Y-139546647D01*
X215003998Y-139648420D01*
X214871060Y-139703485D01*
X214693353Y-139822225D01*
X214542225Y-139973353D01*
X214490385Y-140050938D01*
X212734784Y-138295337D01*
X212729087Y-138284680D01*
X212693168Y-138240913D01*
X212660253Y-138200806D01*
X212660250Y-138200803D01*
X212637237Y-138172762D01*
X212609197Y-138149750D01*
X210505000Y-136045554D01*
X210505000Y-129614446D01*
X215332512Y-124786934D01*
X215428353Y-124882775D01*
G04 #@! TA.AperFunction,Conductor*
D24*
G36*
X215428353Y-124882775D02*
G01*
X215606060Y-125001515D01*
X215803517Y-125083304D01*
X216013137Y-125125000D01*
X216226863Y-125125000D01*
X216262677Y-125117876D01*
X215483054Y-125897500D01*
X215330637Y-125897500D01*
X215121017Y-125939196D01*
X214923560Y-126020985D01*
X214745853Y-126139725D01*
X214594725Y-126290853D01*
X214475985Y-126468560D01*
X214394196Y-126666017D01*
X214352500Y-126875637D01*
X214352500Y-127089363D01*
X214394196Y-127298983D01*
X214475985Y-127496440D01*
X214594725Y-127674147D01*
X214745853Y-127825275D01*
X214923560Y-127944015D01*
X215121017Y-128025804D01*
X215330637Y-128067500D01*
X215544363Y-128067500D01*
X215753983Y-128025804D01*
X215951440Y-127944015D01*
X216129147Y-127825275D01*
X216280275Y-127674147D01*
X216399015Y-127496440D01*
X216480804Y-127298983D01*
X216522500Y-127089363D01*
X216522500Y-126936946D01*
X217549664Y-125909783D01*
X217560320Y-125904087D01*
X217672238Y-125812238D01*
X217695259Y-125784187D01*
X217702512Y-125776934D01*
X217768353Y-125842775D01*
X217946060Y-125961515D01*
X218143517Y-126043304D01*
X218353137Y-126085000D01*
X218505554Y-126085000D01*
X219365000Y-126944447D01*
X219365001Y-131003886D01*
X219365000Y-131003896D01*
X219365000Y-131113895D01*
X219361444Y-131150000D01*
X219365000Y-131186104D01*
X219365000Y-131186105D01*
X219375635Y-131294085D01*
X219417663Y-131432633D01*
X219485913Y-131560320D01*
X219577763Y-131672238D01*
X219605808Y-131695254D01*
X229479004Y-141568451D01*
X229426483Y-141546696D01*
X229216863Y-141505000D01*
X229003137Y-141505000D01*
X228793517Y-141546696D01*
X228596060Y-141628485D01*
X228418353Y-141747225D01*
X228310578Y-141855000D01*
X227714213Y-141855000D01*
X227763304Y-141736483D01*
X227805000Y-141526863D01*
X227805000Y-141313137D01*
X227763304Y-141103517D01*
X227681515Y-140906060D01*
X227562775Y-140728353D01*
X227411647Y-140577225D01*
X227233940Y-140458485D01*
X227036483Y-140376696D01*
X226826863Y-140335000D01*
X226613137Y-140335000D01*
X226403517Y-140376696D01*
X226206060Y-140458485D01*
X226028353Y-140577225D01*
X225920578Y-140685000D01*
X219345000Y-140685000D01*
X219345000Y-140553137D01*
X219303304Y-140343517D01*
X219221515Y-140146060D01*
X219102775Y-139968353D01*
X218951647Y-139817225D01*
X218773940Y-139698485D01*
X218576483Y-139616696D01*
X218366863Y-139575000D01*
X218153137Y-139575000D01*
X217943517Y-139616696D01*
X217746060Y-139698485D01*
X217568353Y-139817225D01*
X217460578Y-139925000D01*
X216874447Y-139925000D01*
X216541934Y-139592488D01*
X216587775Y-139546647D01*
X216706515Y-139368940D01*
X216788304Y-139171483D01*
X216830000Y-138961863D01*
X216830000Y-138748137D01*
X216788304Y-138538517D01*
X216706515Y-138341060D01*
X216587775Y-138163353D01*
X216436647Y-138012225D01*
X216258940Y-137893485D01*
X216061483Y-137811696D01*
X215851863Y-137770000D01*
X215638137Y-137770000D01*
X215428517Y-137811696D01*
X215231060Y-137893485D01*
X215053353Y-138012225D01*
X214902225Y-138163353D01*
X214783485Y-138341060D01*
X214701696Y-138538517D01*
X214660000Y-138748137D01*
X214660000Y-138961863D01*
X214701696Y-139171483D01*
X214783485Y-139368940D01*
X214902225Y-139546647D01*
X215003998Y-139648420D01*
X214871060Y-139703485D01*
X214693353Y-139822225D01*
X214542225Y-139973353D01*
X214490385Y-140050938D01*
X212734784Y-138295337D01*
X212729087Y-138284680D01*
X212693168Y-138240913D01*
X212660253Y-138200806D01*
X212660250Y-138200803D01*
X212637237Y-138172762D01*
X212609197Y-138149750D01*
X210505000Y-136045554D01*
X210505000Y-129614446D01*
X215332512Y-124786934D01*
X215428353Y-124882775D01*
G37*
G04 #@! TD.AperFunction*
D23*
X214517500Y-119910637D02*
X214517500Y-120063053D01*
X213305808Y-121274746D01*
X213277762Y-121297763D01*
X213185913Y-121409681D01*
X213117663Y-121537368D01*
X213103082Y-121585436D01*
X213075635Y-121675915D01*
X213061444Y-121820000D01*
X213065000Y-121856105D01*
X213065001Y-123240577D01*
X212957225Y-123348353D01*
X212838485Y-123526060D01*
X212756696Y-123723517D01*
X212715000Y-123933137D01*
X212715000Y-124146863D01*
X212756696Y-124356483D01*
X212838485Y-124553940D01*
X212957225Y-124731647D01*
X213108353Y-124882775D01*
X213137981Y-124902572D01*
X209845000Y-128195554D01*
X209845000Y-123864446D01*
X212564447Y-121145000D01*
X212716863Y-121145000D01*
X212926483Y-121103304D01*
X213123940Y-121021515D01*
X213301647Y-120902775D01*
X213452775Y-120751647D01*
X213571515Y-120573940D01*
X213653304Y-120376483D01*
X213695000Y-120166863D01*
X213695000Y-120014447D01*
X213914447Y-119795000D01*
X214540502Y-119795000D01*
X214517500Y-119910637D01*
G04 #@! TA.AperFunction,Conductor*
D24*
G36*
X214517500Y-119910637D02*
G01*
X214517500Y-120063053D01*
X213305808Y-121274746D01*
X213277762Y-121297763D01*
X213185913Y-121409681D01*
X213117663Y-121537368D01*
X213103082Y-121585436D01*
X213075635Y-121675915D01*
X213061444Y-121820000D01*
X213065000Y-121856105D01*
X213065001Y-123240577D01*
X212957225Y-123348353D01*
X212838485Y-123526060D01*
X212756696Y-123723517D01*
X212715000Y-123933137D01*
X212715000Y-124146863D01*
X212756696Y-124356483D01*
X212838485Y-124553940D01*
X212957225Y-124731647D01*
X213108353Y-124882775D01*
X213137981Y-124902572D01*
X209845000Y-128195554D01*
X209845000Y-123864446D01*
X212564447Y-121145000D01*
X212716863Y-121145000D01*
X212926483Y-121103304D01*
X213123940Y-121021515D01*
X213301647Y-120902775D01*
X213452775Y-120751647D01*
X213571515Y-120573940D01*
X213653304Y-120376483D01*
X213695000Y-120166863D01*
X213695000Y-120014447D01*
X213914447Y-119795000D01*
X214540502Y-119795000D01*
X214517500Y-119910637D01*
G37*
G04 #@! TD.AperFunction*
D23*
X259375001Y-103757867D02*
X259375002Y-109275555D01*
X258542822Y-108443376D01*
X258585000Y-108231335D01*
X258585000Y-107948665D01*
X258529853Y-107671426D01*
X258421680Y-107410273D01*
X258264637Y-107175241D01*
X258064759Y-106975363D01*
X257832241Y-106820000D01*
X258064759Y-106664637D01*
X258264637Y-106464759D01*
X258421680Y-106229727D01*
X258529853Y-105968574D01*
X258585000Y-105691335D01*
X258585000Y-105408665D01*
X258529853Y-105131426D01*
X258421680Y-104870273D01*
X258264637Y-104635241D01*
X258064759Y-104435363D01*
X257829727Y-104278320D01*
X257568574Y-104170147D01*
X257291335Y-104115000D01*
X257008665Y-104115000D01*
X256731426Y-104170147D01*
X256470273Y-104278320D01*
X256235241Y-104435363D01*
X256035363Y-104635241D01*
X255878320Y-104870273D01*
X255770147Y-105131426D01*
X255715000Y-105408665D01*
X255715000Y-105691335D01*
X255770147Y-105968574D01*
X255878320Y-106229727D01*
X256035363Y-106464759D01*
X256235241Y-106664637D01*
X256467759Y-106820000D01*
X256235241Y-106975363D01*
X256035363Y-107175241D01*
X255878320Y-107410273D01*
X255770147Y-107671426D01*
X255715000Y-107948665D01*
X255715000Y-108231335D01*
X255770147Y-108508574D01*
X255878320Y-108769727D01*
X256035363Y-109004759D01*
X256235241Y-109204637D01*
X256467759Y-109360000D01*
X256235241Y-109515363D01*
X256035363Y-109715241D01*
X255878320Y-109950273D01*
X255770147Y-110211426D01*
X255715000Y-110488665D01*
X255715000Y-110771335D01*
X255770147Y-111048574D01*
X255878320Y-111309727D01*
X256035363Y-111544759D01*
X256235241Y-111744637D01*
X256467759Y-111900000D01*
X256235241Y-112055363D01*
X256035363Y-112255241D01*
X255878320Y-112490273D01*
X255770147Y-112751426D01*
X255715000Y-113028665D01*
X255715000Y-113311335D01*
X255770147Y-113588574D01*
X255878320Y-113849727D01*
X256035363Y-114084759D01*
X256235241Y-114284637D01*
X256467759Y-114440000D01*
X256235241Y-114595363D01*
X256035363Y-114795241D01*
X255878320Y-115030273D01*
X255770147Y-115291426D01*
X255715000Y-115568665D01*
X255715000Y-115851335D01*
X255770147Y-116128574D01*
X255878320Y-116389727D01*
X256035363Y-116624759D01*
X256235241Y-116824637D01*
X256415000Y-116944748D01*
X256415000Y-117015252D01*
X256235241Y-117135363D01*
X256035363Y-117335241D01*
X255878320Y-117570273D01*
X255770147Y-117831426D01*
X255715000Y-118108665D01*
X255715000Y-118391335D01*
X255770147Y-118668574D01*
X255878320Y-118929727D01*
X256035363Y-119164759D01*
X256235241Y-119364637D01*
X256467759Y-119520000D01*
X256235241Y-119675363D01*
X256035363Y-119875241D01*
X255878320Y-120110273D01*
X255770147Y-120371426D01*
X255715000Y-120648665D01*
X255715000Y-120855554D01*
X255618198Y-120758752D01*
X255618198Y-102999303D01*
X255621754Y-102963198D01*
X255607563Y-102819113D01*
X255605481Y-102812250D01*
X255565535Y-102680565D01*
X255497285Y-102552878D01*
X255449034Y-102494085D01*
X255428451Y-102469004D01*
X255428448Y-102469001D01*
X255405435Y-102440960D01*
X255377395Y-102417948D01*
X253674435Y-100714989D01*
X256332124Y-100714989D01*
X259375001Y-103757867D01*
G04 #@! TA.AperFunction,Conductor*
D24*
G36*
X259375001Y-103757867D02*
G01*
X259375002Y-109275555D01*
X258542822Y-108443376D01*
X258585000Y-108231335D01*
X258585000Y-107948665D01*
X258529853Y-107671426D01*
X258421680Y-107410273D01*
X258264637Y-107175241D01*
X258064759Y-106975363D01*
X257832241Y-106820000D01*
X258064759Y-106664637D01*
X258264637Y-106464759D01*
X258421680Y-106229727D01*
X258529853Y-105968574D01*
X258585000Y-105691335D01*
X258585000Y-105408665D01*
X258529853Y-105131426D01*
X258421680Y-104870273D01*
X258264637Y-104635241D01*
X258064759Y-104435363D01*
X257829727Y-104278320D01*
X257568574Y-104170147D01*
X257291335Y-104115000D01*
X257008665Y-104115000D01*
X256731426Y-104170147D01*
X256470273Y-104278320D01*
X256235241Y-104435363D01*
X256035363Y-104635241D01*
X255878320Y-104870273D01*
X255770147Y-105131426D01*
X255715000Y-105408665D01*
X255715000Y-105691335D01*
X255770147Y-105968574D01*
X255878320Y-106229727D01*
X256035363Y-106464759D01*
X256235241Y-106664637D01*
X256467759Y-106820000D01*
X256235241Y-106975363D01*
X256035363Y-107175241D01*
X255878320Y-107410273D01*
X255770147Y-107671426D01*
X255715000Y-107948665D01*
X255715000Y-108231335D01*
X255770147Y-108508574D01*
X255878320Y-108769727D01*
X256035363Y-109004759D01*
X256235241Y-109204637D01*
X256467759Y-109360000D01*
X256235241Y-109515363D01*
X256035363Y-109715241D01*
X255878320Y-109950273D01*
X255770147Y-110211426D01*
X255715000Y-110488665D01*
X255715000Y-110771335D01*
X255770147Y-111048574D01*
X255878320Y-111309727D01*
X256035363Y-111544759D01*
X256235241Y-111744637D01*
X256467759Y-111900000D01*
X256235241Y-112055363D01*
X256035363Y-112255241D01*
X255878320Y-112490273D01*
X255770147Y-112751426D01*
X255715000Y-113028665D01*
X255715000Y-113311335D01*
X255770147Y-113588574D01*
X255878320Y-113849727D01*
X256035363Y-114084759D01*
X256235241Y-114284637D01*
X256467759Y-114440000D01*
X256235241Y-114595363D01*
X256035363Y-114795241D01*
X255878320Y-115030273D01*
X255770147Y-115291426D01*
X255715000Y-115568665D01*
X255715000Y-115851335D01*
X255770147Y-116128574D01*
X255878320Y-116389727D01*
X256035363Y-116624759D01*
X256235241Y-116824637D01*
X256415000Y-116944748D01*
X256415000Y-117015252D01*
X256235241Y-117135363D01*
X256035363Y-117335241D01*
X255878320Y-117570273D01*
X255770147Y-117831426D01*
X255715000Y-118108665D01*
X255715000Y-118391335D01*
X255770147Y-118668574D01*
X255878320Y-118929727D01*
X256035363Y-119164759D01*
X256235241Y-119364637D01*
X256467759Y-119520000D01*
X256235241Y-119675363D01*
X256035363Y-119875241D01*
X255878320Y-120110273D01*
X255770147Y-120371426D01*
X255715000Y-120648665D01*
X255715000Y-120855554D01*
X255618198Y-120758752D01*
X255618198Y-102999303D01*
X255621754Y-102963198D01*
X255607563Y-102819113D01*
X255605481Y-102812250D01*
X255565535Y-102680565D01*
X255497285Y-102552878D01*
X255449034Y-102494085D01*
X255428451Y-102469004D01*
X255428448Y-102469001D01*
X255405435Y-102440960D01*
X255377395Y-102417948D01*
X253674435Y-100714989D01*
X256332124Y-100714989D01*
X259375001Y-103757867D01*
G37*
G04 #@! TD.AperFunction*
M02*
