G04 #@! TF.GenerationSoftware,KiCad,Pcbnew,(5.1.5)-3*
G04 #@! TF.CreationDate,2020-10-04T23:20:15+02:00*
G04 #@! TF.ProjectId,relais_hat,72656c61-6973-45f6-9861-742e6b696361,rev?*
G04 #@! TF.SameCoordinates,Original*
G04 #@! TF.FileFunction,Soldermask,Bot*
G04 #@! TF.FilePolarity,Negative*
%FSLAX46Y46*%
G04 Gerber Fmt 4.6, Leading zero omitted, Abs format (unit mm)*
G04 Created by KiCad (PCBNEW (5.1.5)-3) date 2020-10-04 23:20:15*
%MOMM*%
%LPD*%
G04 APERTURE LIST*
%ADD10O,1.700000X1.700000*%
%ADD11R,1.700000X1.700000*%
%ADD12C,4.000000*%
%ADD13C,1.600000*%
%ADD14R,1.600000X1.600000*%
%ADD15C,2.100000*%
%ADD16C,3.000000*%
%ADD17R,3.000000X3.000000*%
%ADD18O,1.600000X1.600000*%
%ADD19C,2.700000*%
G04 APERTURE END LIST*
D10*
X266548000Y-98946000D03*
D11*
X266548000Y-101486000D03*
D10*
X266040000Y-118504000D03*
X266040000Y-115964000D03*
D11*
X266040000Y-113424000D03*
D10*
X263500000Y-118504000D03*
X263500000Y-115964000D03*
D11*
X263500000Y-113424000D03*
D10*
X260960000Y-118504000D03*
X260960000Y-115964000D03*
D11*
X260960000Y-113424000D03*
D12*
X277516000Y-109766000D03*
X277516000Y-134766000D03*
D13*
X280056000Y-126421000D03*
X280056000Y-123651000D03*
X280056000Y-120881000D03*
X280056000Y-118111000D03*
X277216000Y-127806000D03*
X277216000Y-125036000D03*
X277216000Y-122266000D03*
X277216000Y-119496000D03*
D14*
X277216000Y-116726000D03*
D15*
X218288000Y-124628000D03*
X212288000Y-138828000D03*
X212288000Y-126628000D03*
X224288000Y-138828000D03*
X224288000Y-126628000D03*
X236830000Y-124628000D03*
X230830000Y-138828000D03*
X230830000Y-126628000D03*
X242830000Y-138828000D03*
X242830000Y-126628000D03*
X236830000Y-102530000D03*
X230830000Y-116730000D03*
X230830000Y-104530000D03*
X242830000Y-116730000D03*
X242830000Y-104530000D03*
X218288000Y-102276000D03*
X212288000Y-116476000D03*
X212288000Y-104276000D03*
X224288000Y-116476000D03*
X224288000Y-104276000D03*
D16*
X204318000Y-138824000D03*
D17*
X204318000Y-133744000D03*
D16*
X204318000Y-128918000D03*
D17*
X204318000Y-123838000D03*
D16*
X204318000Y-119012000D03*
D17*
X204318000Y-113932000D03*
D16*
X204318000Y-109106000D03*
D17*
X204318000Y-104026000D03*
D18*
X257150000Y-123330000D03*
X269850000Y-105550000D03*
X257150000Y-120790000D03*
X269850000Y-108090000D03*
X257150000Y-118250000D03*
X269850000Y-110630000D03*
X257150000Y-115710000D03*
X269850000Y-113170000D03*
X257150000Y-113170000D03*
X269850000Y-115710000D03*
X257150000Y-110630000D03*
X269850000Y-118250000D03*
X257150000Y-108090000D03*
X269850000Y-120790000D03*
X257150000Y-105550000D03*
D14*
X269850000Y-123330000D03*
D11*
X208382000Y-98438000D03*
D10*
X208382000Y-95898000D03*
X210922000Y-98438000D03*
X210922000Y-95898000D03*
X213462000Y-98438000D03*
X213462000Y-95898000D03*
X216002000Y-98438000D03*
X216002000Y-95898000D03*
X218542000Y-98438000D03*
X218542000Y-95898000D03*
X221082000Y-98438000D03*
X221082000Y-95898000D03*
X223622000Y-98438000D03*
X223622000Y-95898000D03*
X226162000Y-98438000D03*
X226162000Y-95898000D03*
X228702000Y-98438000D03*
X228702000Y-95898000D03*
X231242000Y-98438000D03*
X231242000Y-95898000D03*
X233782000Y-98438000D03*
X233782000Y-95898000D03*
X236322000Y-98438000D03*
X236322000Y-95898000D03*
X238862000Y-98438000D03*
X238862000Y-95898000D03*
X241402000Y-98438000D03*
X241402000Y-95898000D03*
X243942000Y-98438000D03*
X243942000Y-95898000D03*
X246482000Y-98438000D03*
X246482000Y-95898000D03*
X249022000Y-98438000D03*
X249022000Y-95898000D03*
X251562000Y-98438000D03*
X251562000Y-95898000D03*
X254102000Y-98438000D03*
X254102000Y-95898000D03*
X256642000Y-98438000D03*
X256642000Y-95898000D03*
X249530000Y-116980000D03*
D11*
X249530000Y-114440000D03*
D10*
X249530000Y-141110000D03*
D11*
X249530000Y-138570000D03*
D10*
X249530000Y-129680000D03*
D11*
X249530000Y-127140000D03*
D10*
X249530000Y-106820000D03*
D11*
X249530000Y-104280000D03*
D10*
X217780000Y-147460000D03*
X217780000Y-144920000D03*
X215240000Y-147460000D03*
X215240000Y-144920000D03*
X212700000Y-147460000D03*
X212700000Y-144920000D03*
X210160000Y-147460000D03*
D11*
X210160000Y-144920000D03*
D19*
X261510000Y-146190000D03*
X203510000Y-146200000D03*
X261510000Y-97200000D03*
X203510000Y-97200000D03*
M02*
